<?xml version="1.0" encoding="UTF-8" standalone="no"?>
<!DOCTYPE svg PUBLIC "-//W3C//DTD SVG 1.1//EN"
 "http://www.w3.org/Graphics/SVG/1.1/DTD/svg11.dtd">
<!-- Generated by graphviz version 2.36.0 (20140111.2315)
 -->
<!-- Title: VoxelParticleSetup Pages: 1 -->
<svg width="228pt" height="96pt"
 viewBox="0.00 0.00 228.00 96.00" xmlns="http://www.w3.org/2000/svg" xmlns:xlink="http://www.w3.org/1999/xlink">
<g id="graph0" class="graph" transform="scale(1 1) rotate(0) translate(4 92)">
<title>VoxelParticleSetup</title>
<polygon fill="white" stroke="none" points="-4,4 -4,-92 224,-92 224,4 -4,4"/>
<!-- Node1 -->
<g id="node1" class="node"><title>Node1</title>
<polygon fill="#bfbfbf" stroke="black" points="46,-0.5 46,-19.5 146,-19.5 146,-0.5 46,-0.5"/>
<text text-anchor="middle" x="96" y="-7.5" font-family="Helvetica,sans-Serif" font-size="10.00">VoxelParticleSetup</text>
</g>
<!-- Node2 -->
<g id="node2" class="node"><title>Node2</title>
<g id="a_node2"><a xlink:href="class_visuals.html" target="_top" xlink:title="Visuals">
<polygon fill="white" stroke="black" points="-0.5,-68.5 -0.5,-87.5 48.5,-87.5 48.5,-68.5 -0.5,-68.5"/>
<text text-anchor="middle" x="24" y="-75.5" font-family="Helvetica,sans-Serif" font-size="10.00">Visuals</text>
</a>
</g>
</g>
<!-- Node2&#45;&gt;Node1 -->
<g id="edge1" class="edge"><title>Node2&#45;&gt;Node1</title>
<path fill="none" stroke="#9a32cd" stroke-dasharray="5,2" d="M31.6,-58.7653C35.202,-51.669 40.0365,-43.8544 46,-38 53.8848,-30.2596 64.4407,-24.124 73.8213,-19.6707"/>
<polygon fill="#9a32cd" stroke="#9a32cd" points="28.1985,-57.7869 27.2164,-68.3362 34.5627,-60.7019 28.1985,-57.7869"/>
<text text-anchor="middle" x="69" y="-41.5" font-family="Helvetica,sans-Serif" font-size="10.00"> m_visuals</text>
</g>
<!-- Node3 -->
<g id="node3" class="node"><title>Node3</title>
<g id="a_node3"><a xlink:href="class_transform.html" target="_top" xlink:title="Transform">
<polygon fill="white" stroke="black" points="66.5,-68.5 66.5,-87.5 125.5,-87.5 125.5,-68.5 66.5,-68.5"/>
<text text-anchor="middle" x="96" y="-75.5" font-family="Helvetica,sans-Serif" font-size="10.00">Transform</text>
</a>
</g>
</g>
<!-- Node3&#45;&gt;Node1 -->
<g id="edge2" class="edge"><title>Node3&#45;&gt;Node1</title>
<path fill="none" stroke="#9a32cd" stroke-dasharray="5,2" d="M96,-58.0413C96,-45.4724 96,-29.5631 96,-19.8411"/>
<polygon fill="#9a32cd" stroke="#9a32cd" points="92.5001,-58.3716 96,-68.3717 99.5001,-58.3717 92.5001,-58.3716"/>
<text text-anchor="middle" x="125" y="-41.5" font-family="Helvetica,sans-Serif" font-size="10.00"> m_transform</text>
</g>
<!-- Node4 -->
<g id="node4" class="node"><title>Node4</title>
<g id="a_node4"><a xlink:href="class_abstract_move.html" target="_top" xlink:title="AbstractMove">
<polygon fill="white" stroke="black" points="144,-68.5 144,-87.5 220,-87.5 220,-68.5 144,-68.5"/>
<text text-anchor="middle" x="182" y="-75.5" font-family="Helvetica,sans-Serif" font-size="10.00">AbstractMove</text>
</a>
</g>
</g>
<!-- Node4&#45;&gt;Node1 -->
<g id="edge3" class="edge"><title>Node4&#45;&gt;Node1</title>
<path fill="none" stroke="#9a32cd" stroke-dasharray="5,2" d="M173.929,-59.0079C169.964,-51.7399 164.604,-43.733 158,-38 148.603,-29.8417 136.358,-23.8104 125.234,-19.5434"/>
<polygon fill="#9a32cd" stroke="#9a32cd" points="170.892,-60.7622 178.459,-68.1782 177.168,-57.6622 170.892,-60.7622"/>
<text text-anchor="middle" x="189.5" y="-41.5" font-family="Helvetica,sans-Serif" font-size="10.00"> m_speed</text>
</g>
</g>
</svg>
