<?xml version="1.0" encoding="UTF-8" standalone="no"?>
<!DOCTYPE svg PUBLIC "-//W3C//DTD SVG 1.1//EN"
 "http://www.w3.org/Graphics/SVG/1.1/DTD/svg11.dtd">
<!-- Generated by graphviz version 2.36.0 (20140111.2315)
 -->
<!-- Title: SplitData Pages: 1 -->
<svg width="564pt" height="331pt"
 viewBox="0.00 0.00 564.00 331.00" xmlns="http://www.w3.org/2000/svg" xmlns:xlink="http://www.w3.org/1999/xlink">
<g id="graph0" class="graph" transform="scale(1 1) rotate(0) translate(4 327)">
<title>SplitData</title>
<polygon fill="white" stroke="none" points="-4,4 -4,-327 560,-327 560,4 -4,4"/>
<!-- Node1 -->
<g id="node1" class="node"><title>Node1</title>
<polygon fill="#bfbfbf" stroke="black" points="500,-222.5 500,-241.5 556,-241.5 556,-222.5 500,-222.5"/>
<text text-anchor="middle" x="528" y="-229.5" font-family="Helvetica,sans-Serif" font-size="10.00">SplitData</text>
</g>
<!-- Node2 -->
<g id="node2" class="node"><title>Node2</title>
<g id="a_node2"><a xlink:href="class_world_object.html" target="_top" xlink:title="WorldObject">
<polygon fill="white" stroke="black" points="290.5,-174.5 290.5,-193.5 361.5,-193.5 361.5,-174.5 290.5,-174.5"/>
<text text-anchor="middle" x="326" y="-181.5" font-family="Helvetica,sans-Serif" font-size="10.00">WorldObject</text>
</a>
</g>
</g>
<!-- Node2&#45;&gt;Node1 -->
<g id="edge1" class="edge"><title>Node2&#45;&gt;Node1</title>
<path fill="none" stroke="#9a32cd" stroke-dasharray="5,2" d="M371.705,-194.729C411.042,-204.17 467.029,-217.607 499.93,-225.503"/>
<polygon fill="#9a32cd" stroke="#9a32cd" points="372.378,-191.291 361.837,-192.361 370.744,-198.098 372.378,-191.291"/>
<text text-anchor="middle" x="441" y="-224" font-family="Helvetica,sans-Serif" font-size="10.00"> m_exWorldObject</text>
</g>
<!-- Node3 -->
<g id="node3" class="node"><title>Node3</title>
<g id="a_node3"><a xlink:href="class_voxel_cluster.html" target="_top" xlink:title="VoxelCluster">
<polygon fill="white" stroke="red" points="36,-262.5 36,-281.5 108,-281.5 108,-262.5 36,-262.5"/>
<text text-anchor="middle" x="72" y="-269.5" font-family="Helvetica,sans-Serif" font-size="10.00">VoxelCluster</text>
</a>
</g>
</g>
<!-- Node3&#45;&gt;Node2 -->
<g id="edge2" class="edge"><title>Node3&#45;&gt;Node2</title>
<path fill="none" stroke="midnightblue" d="M118.025,-265.687C155.02,-259.508 208.263,-248.305 252,-230 274.8,-220.457 298.535,-204.106 312.528,-193.688"/>
<polygon fill="midnightblue" stroke="midnightblue" points="117.357,-262.25 108.043,-267.299 118.473,-269.16 117.357,-262.25"/>
</g>
<!-- Node4 -->
<g id="node4" class="node"><title>Node4</title>
<g id="a_node4"><a xlink:href="class_voxel.html" target="_top" xlink:title="Voxel">
<polygon fill="white" stroke="red" points="51.5,-303.5 51.5,-322.5 92.5,-322.5 92.5,-303.5 51.5,-303.5"/>
<text text-anchor="middle" x="72" y="-310.5" font-family="Helvetica,sans-Serif" font-size="10.00">Voxel</text>
</a>
</g>
</g>
<!-- Node4&#45;&gt;Node2 -->
<g id="edge3" class="edge"><title>Node4&#45;&gt;Node2</title>
<path fill="none" stroke="#9a32cd" stroke-dasharray="5,2" d="M102.489,-305.343C115.445,-301.604 130.704,-296.681 144,-291 152.416,-287.404 153.497,-284.383 162,-281 200.361,-265.738 216.196,-278.557 252,-258 281.266,-241.197 306.728,-209.457 318.327,-193.568"/>
<polygon fill="#9a32cd" stroke="#9a32cd" points="101.366,-302.023 92.6743,-308.081 103.247,-308.766 101.366,-302.023"/>
<text text-anchor="middle" x="207" y="-284" font-family="Helvetica,sans-Serif" font-size="10.00"> m_crucialVoxel</text>
</g>
<!-- Node11 -->
<g id="node11" class="node"><title>Node11</title>
<polygon fill="white" stroke="#bfbfbf" points="270.5,-259.5 270.5,-278.5 381.5,-278.5 381.5,-259.5 270.5,-259.5"/>
<text text-anchor="middle" x="326" y="-266.5" font-family="Helvetica,sans-Serif" font-size="10.00">std::vector&lt; Voxel * &gt;</text>
</g>
<!-- Node4&#45;&gt;Node11 -->
<g id="edge11" class="edge"><title>Node4&#45;&gt;Node11</title>
<path fill="none" stroke="#9a32cd" stroke-dasharray="5,2" d="M102.804,-311.878C138.601,-310.064 200.291,-305.446 252,-294 268.873,-290.265 287.277,-283.946 301.385,-278.596"/>
<polygon fill="#9a32cd" stroke="#9a32cd" points="102.392,-308.394 92.5663,-312.356 102.719,-315.386 102.392,-308.394"/>
<text text-anchor="middle" x="207" y="-311" font-family="Helvetica,sans-Serif" font-size="10.00"> elements</text>
</g>
<!-- Node5 -->
<g id="node5" class="node"><title>Node5</title>
<polygon fill="white" stroke="#bfbfbf" points="0.5,-174.5 0.5,-193.5 143.5,-193.5 143.5,-174.5 0.5,-174.5"/>
<text text-anchor="middle" x="72" y="-181.5" font-family="Helvetica,sans-Serif" font-size="10.00">std::unique_ptr&lt; ObjectInfo &gt;</text>
</g>
<!-- Node5&#45;&gt;Node2 -->
<g id="edge4" class="edge"><title>Node5&#45;&gt;Node2</title>
<path fill="none" stroke="#9a32cd" stroke-dasharray="5,2" d="M153.821,-184C199.935,-184 255.354,-184 290.383,-184"/>
<polygon fill="#9a32cd" stroke="#9a32cd" points="153.531,-180.5 143.531,-184 153.531,-187.5 153.531,-180.5"/>
<text text-anchor="middle" x="207" y="-187" font-family="Helvetica,sans-Serif" font-size="10.00"> m_objectInfo</text>
</g>
<!-- Node6 -->
<g id="node6" class="node"><title>Node6</title>
<g id="a_node6"><a xlink:href="class_handle.html" target="_top" xlink:title="Handle\&lt; WorldObject \&gt;">
<polygon fill="white" stroke="black" points="12.5,-136.5 12.5,-155.5 131.5,-155.5 131.5,-136.5 12.5,-136.5"/>
<text text-anchor="middle" x="72" y="-143.5" font-family="Helvetica,sans-Serif" font-size="10.00">Handle&lt; WorldObject &gt;</text>
</a>
</g>
</g>
<!-- Node6&#45;&gt;Node2 -->
<g id="edge5" class="edge"><title>Node6&#45;&gt;Node2</title>
<path fill="none" stroke="#9a32cd" stroke-dasharray="5,2" d="M141.721,-153.609C175.096,-157.616 215.73,-162.952 252,-169 264.507,-171.085 278.136,-173.772 290.195,-176.295"/>
<polygon fill="#9a32cd" stroke="#9a32cd" points="141.952,-150.112 131.61,-152.409 141.127,-157.063 141.952,-150.112"/>
<text text-anchor="middle" x="207" y="-172" font-family="Helvetica,sans-Serif" font-size="10.00"> m_handle</text>
</g>
<!-- Node7 -->
<g id="node7" class="node"><title>Node7</title>
<polygon fill="white" stroke="#bfbfbf" points="5,-98.5 5,-117.5 139,-117.5 139,-98.5 5,-98.5"/>
<text text-anchor="middle" x="72" y="-105.5" font-family="Helvetica,sans-Serif" font-size="10.00">std::unique_ptr&lt; Physics &gt;</text>
</g>
<!-- Node7&#45;&gt;Node2 -->
<g id="edge6" class="edge"><title>Node7&#45;&gt;Node2</title>
<path fill="none" stroke="#9a32cd" stroke-dasharray="5,2" d="M149.342,-116.752C181.677,-121.919 219.348,-129.899 252,-142 274.211,-150.231 297.544,-164.864 311.685,-174.5"/>
<polygon fill="#9a32cd" stroke="#9a32cd" points="149.46,-113.229 139.045,-115.172 148.398,-120.148 149.46,-113.229"/>
<text text-anchor="middle" x="207" y="-145" font-family="Helvetica,sans-Serif" font-size="10.00"> m_physics</text>
</g>
<!-- Node8 -->
<g id="node8" class="node"><title>Node8</title>
<polygon fill="white" stroke="#bfbfbf" points="8.5,-49 8.5,-79 135.5,-79 135.5,-49 8.5,-49"/>
<text text-anchor="start" x="16.5" y="-67" font-family="Helvetica,sans-Serif" font-size="10.00">std::unique_ptr&lt; Collision</text>
<text text-anchor="middle" x="72" y="-56" font-family="Helvetica,sans-Serif" font-size="10.00">Filter &gt;</text>
</g>
<!-- Node8&#45;&gt;Node2 -->
<g id="edge7" class="edge"><title>Node8&#45;&gt;Node2</title>
<path fill="none" stroke="#9a32cd" stroke-dasharray="5,2" d="M145.501,-70.6069C179.591,-76.1411 219.735,-86.3112 252,-105 282.541,-122.69 307.776,-157.319 318.892,-174.234"/>
<polygon fill="#9a32cd" stroke="#9a32cd" points="146.008,-67.1439 135.596,-69.0997 144.955,-74.0643 146.008,-67.1439"/>
<text text-anchor="middle" x="207" y="-108" font-family="Helvetica,sans-Serif" font-size="10.00"> m_collisionFilter</text>
</g>
<!-- Node9 -->
<g id="node9" class="node"><title>Node9</title>
<polygon fill="white" stroke="#bfbfbf" points="8.5,-0 8.5,-30 135.5,-30 135.5,-0 8.5,-0"/>
<text text-anchor="start" x="16.5" y="-18" font-family="Helvetica,sans-Serif" font-size="10.00">std::unique_ptr&lt; Collision</text>
<text text-anchor="middle" x="72" y="-7" font-family="Helvetica,sans-Serif" font-size="10.00">Detector &gt;</text>
</g>
<!-- Node9&#45;&gt;Node2 -->
<g id="edge8" class="edge"><title>Node9&#45;&gt;Node2</title>
<path fill="none" stroke="#9a32cd" stroke-dasharray="5,2" d="M145.91,-19.7646C180.823,-25.14 221.549,-36.2511 252,-59 293.071,-89.6836 315.041,-150.841 322.272,-174.421"/>
<polygon fill="#9a32cd" stroke="#9a32cd" points="146.147,-16.2635 135.757,-18.3348 145.171,-23.1951 146.147,-16.2635"/>
<text text-anchor="middle" x="207" y="-62" font-family="Helvetica,sans-Serif" font-size="10.00"> m_collisionDetector</text>
</g>
<!-- Node10 -->
<g id="node10" class="node"><title>Node10</title>
<polygon fill="white" stroke="#bfbfbf" points="0,-213 0,-243 144,-243 144,-213 0,-213"/>
<text text-anchor="start" x="8" y="-231" font-family="Helvetica,sans-Serif" font-size="10.00">std::unique_ptr&lt; WorldObject</text>
<text text-anchor="middle" x="72" y="-220" font-family="Helvetica,sans-Serif" font-size="10.00">Components &gt;</text>
</g>
<!-- Node10&#45;&gt;Node2 -->
<g id="edge9" class="edge"><title>Node10&#45;&gt;Node2</title>
<path fill="none" stroke="#9a32cd" stroke-dasharray="5,2" d="M154.327,-215.564C184.99,-210.681 220.147,-204.85 252,-199 264.471,-196.71 278.092,-193.975 290.154,-191.471"/>
<polygon fill="#9a32cd" stroke="#9a32cd" points="153.441,-212.161 144.112,-217.183 154.536,-219.075 153.441,-212.161"/>
<text text-anchor="middle" x="207" y="-218" font-family="Helvetica,sans-Serif" font-size="10.00"> m_components</text>
</g>
<!-- Node11&#45;&gt;Node1 -->
<g id="edge10" class="edge"><title>Node11&#45;&gt;Node1</title>
<path fill="none" stroke="#9a32cd" stroke-dasharray="5,2" d="M388.764,-257.574C425.996,-250.686 471.552,-242.258 499.931,-237.008"/>
<polygon fill="#9a32cd" stroke="#9a32cd" points="387.701,-254.211 378.505,-259.472 388.975,-261.094 387.701,-254.211"/>
<text text-anchor="middle" x="441" y="-258" font-family="Helvetica,sans-Serif" font-size="10.00"> m_splitOffVoxels</text>
</g>
</g>
</svg>
