<?xml version="1.0" encoding="UTF-8" standalone="no"?>
<!DOCTYPE svg PUBLIC "-//W3C//DTD SVG 1.1//EN"
 "http://www.w3.org/Graphics/SVG/1.1/DTD/svg11.dtd">
<!-- Generated by graphviz version 2.36.0 (20140111.2315)
 -->
<!-- Title: VoxelTree Pages: 1 -->
<!--zoomable 409 -->
<svg id="main" version="1.1" xmlns="http://www.w3.org/2000/svg" xmlns:xlink="http://www.w3.org/1999/xlink" xml:space="preserve" onload="init(evt)">
<style type="text/css"><![CDATA[
.edge:hover path { stroke: red; }
.edge:hover polygon { stroke: red; fill: red; }
]]></style>
<script type="text/javascript"><![CDATA[
var edges = document.getElementsByTagName('g');
if (edges && edges.length) {
  for (var i=0;i<edges.length;i++) {
    if (edges[i].id.substr(0,4)=='edge') {
      edges[i].setAttribute('class','edge');
    }
  }
}
]]></script>
        <defs>
                <circle id="rim" cx="0" cy="0" r="7"/>
                <circle id="rim2" cx="0" cy="0" r="3.5"/>
                <g id="zoomPlus">
                        <use xlink:href="#rim" fill="#404040">
                                <set attributeName="fill" to="#808080" begin="zoomplus.mouseover" end="zoomplus.mouseout"/>
                        </use>
                        <path d="M-4,0h8M0,-4v8" fill="none" stroke="white" stroke-width="1.5" pointer-events="none"/>
                </g>
                <g id="zoomMin">
                        <use xlink:href="#rim" fill="#404040">
                                <set attributeName="fill" to="#808080" begin="zoomminus.mouseover" end="zoomminus.mouseout"/>
                        </use>
                        <path d="M-4,0h8" fill="none" stroke="white" stroke-width="1.5" pointer-events="none"/>
                </g>
                <g id="dirArrow">
                        <path fill="none" stroke="white" stroke-width="1.5" d="M0,-3.0v7 M-2.5,-0.5L0,-3.0L2.5,-0.5"/>
                </g>
               <g id="resetDef">
                       <use xlink:href="#rim2" fill="#404040">
                               <set attributeName="fill" to="#808080" begin="reset.mouseover" end="reset.mouseout"/>
                       </use>
               </g>
        </defs>

<script type="text/javascript">
var viewWidth = 714;
var viewHeight = 409;
var sectionId = 'dynsection-0';
</script>
<script xlink:href="svgpan.js"/>
<svg id="graph" class="graph">
<g id="viewport">
<title>VoxelTree</title>
<polygon fill="white" stroke="none" points="-4,4 -4,-405 710,-405 710,4 -4,4"/>
<!-- Node1 -->
<g id="node1" class="node"><title>Node1</title>
<polygon fill="#bfbfbf" stroke="black" points="0,-332.5 0,-351.5 60,-351.5 60,-332.5 0,-332.5"/>
<text text-anchor="middle" x="30" y="-339.5" font-family="Helvetica,sans-Serif" font-size="10.00">VoxelTree</text>
</g>
<!-- Node5 -->
<g id="node5" class="node"><title>Node5</title>
<g id="a_node5"><a xlink:href="class_voxel_tree_node.html" target="_top" xlink:title="VoxelTreeNode">
<polygon fill="white" stroke="red" points="164.5,-352.5 164.5,-371.5 247.5,-371.5 247.5,-352.5 164.5,-352.5"/>
<text text-anchor="middle" x="206" y="-359.5" font-family="Helvetica,sans-Serif" font-size="10.00">VoxelTreeNode</text>
</a>
</g>
</g>
<!-- Node1&#45;&gt;Node5 -->
<g id="edge6" class="edge"><title>Node1&#45;&gt;Node5</title>
<path fill="none" stroke="#9a32cd" stroke-dasharray="5,2" d="M55.0948,-356.385C62.2243,-359.915 70.2118,-363.197 78,-365 106.362,-371.567 139.241,-370.565 164.438,-368.052"/>
<polygon fill="#9a32cd" stroke="#9a32cd" points="56.4739,-353.154 46.0038,-351.533 53.1776,-359.329 56.4739,-353.154"/>
<text text-anchor="middle" x="112" y="-372" font-family="Helvetica,sans-Serif" font-size="10.00"> m_voxelTree</text>
</g>
<!-- Node2 -->
<g id="node2" class="node"><title>Node2</title>
<g id="a_node2"><a xlink:href="class_world_object.html" target="_top" xlink:title="WorldObject">
<polygon fill="white" stroke="black" points="634.5,-185.5 634.5,-204.5 705.5,-204.5 705.5,-185.5 634.5,-185.5"/>
<text text-anchor="middle" x="670" y="-192.5" font-family="Helvetica,sans-Serif" font-size="10.00">WorldObject</text>
</a>
</g>
</g>
<!-- Node2&#45;&gt;Node1 -->
<g id="edge1" class="edge"><title>Node2&#45;&gt;Node1</title>
<path fill="none" stroke="#9a32cd" stroke-dasharray="5,2" d="M659.942,-213.695C651.036,-230.046 635.894,-253.133 616,-266 574.712,-292.704 556.558,-282.262 508,-290 318.372,-320.216 267.763,-302.64 78,-332 72.229,-332.893 66.0999,-334.045 60.2401,-335.248"/>
<polygon fill="#9a32cd" stroke="#9a32cd" points="663.192,-215.029 664.668,-204.537 656.971,-211.819 663.192,-215.029"/>
<text text-anchor="middle" x="306" y="-316" font-family="Helvetica,sans-Serif" font-size="10.00"> m_worldObject</text>
</g>
<!-- Node3 -->
<g id="node3" class="node"><title>Node3</title>
<g id="a_node3"><a xlink:href="class_voxel_cluster.html" target="_top" xlink:title="VoxelCluster">
<polygon fill="white" stroke="red" points="400,-261.5 400,-280.5 472,-280.5 472,-261.5 400,-261.5"/>
<text text-anchor="middle" x="436" y="-268.5" font-family="Helvetica,sans-Serif" font-size="10.00">VoxelCluster</text>
</a>
</g>
</g>
<!-- Node3&#45;&gt;Node2 -->
<g id="edge2" class="edge"><title>Node3&#45;&gt;Node2</title>
<path fill="none" stroke="midnightblue" d="M482.321,-269.288C519.707,-266.406 573.343,-258.817 616,-239 633.787,-230.737 650.536,-215.003 660.277,-204.762"/>
<polygon fill="midnightblue" stroke="midnightblue" points="481.965,-265.804 472.229,-269.982 482.446,-272.788 481.965,-265.804"/>
</g>
<!-- Node4 -->
<g id="node4" class="node"><title>Node4</title>
<g id="a_node4"><a xlink:href="class_voxel.html" target="_top" xlink:title="Voxel">
<polygon fill="white" stroke="red" points="415.5,-337.5 415.5,-356.5 456.5,-356.5 456.5,-337.5 415.5,-337.5"/>
<text text-anchor="middle" x="436" y="-344.5" font-family="Helvetica,sans-Serif" font-size="10.00">Voxel</text>
</a>
</g>
</g>
<!-- Node4&#45;&gt;Node2 -->
<g id="edge3" class="edge"><title>Node4&#45;&gt;Node2</title>
<path fill="none" stroke="#9a32cd" stroke-dasharray="5,2" d="M466.636,-351.176C505.161,-354.911 572.626,-355.462 616,-322 654.779,-292.083 665.437,-228.641 668.145,-204.551"/>
<polygon fill="#9a32cd" stroke="#9a32cd" points="466.906,-347.684 456.582,-350.064 466.136,-354.642 466.906,-347.684"/>
<text text-anchor="middle" x="571" y="-354" font-family="Helvetica,sans-Serif" font-size="10.00"> m_crucialVoxel</text>
</g>
<!-- Node4&#45;&gt;Node5 -->
<g id="edge5" class="edge"><title>Node4&#45;&gt;Node5</title>
<path fill="none" stroke="#9a32cd" stroke-dasharray="5,2" d="M405.183,-343.512C371.266,-340.229 314.32,-336.793 266,-344 254.772,-345.675 242.727,-349.048 232.467,-352.427"/>
<polygon fill="#9a32cd" stroke="#9a32cd" points="405.04,-347.016 415.346,-344.56 405.758,-340.053 405.04,-347.016"/>
<text text-anchor="middle" x="306" y="-347" font-family="Helvetica,sans-Serif" font-size="10.00"> m_voxel</text>
</g>
<!-- Node5&#45;&gt;Node1 -->
<g id="edge14" class="edge"><title>Node5&#45;&gt;Node1</title>
<path fill="none" stroke="#9a32cd" stroke-dasharray="5,2" d="M176.524,-348.441C167.035,-344.595 156.264,-340.93 146,-339 117.147,-333.575 83.5109,-335.369 60.0989,-337.881"/>
<polygon fill="#9a32cd" stroke="#9a32cd" points="175.302,-351.726 185.872,-352.45 178.061,-345.292 175.302,-351.726"/>
<text text-anchor="middle" x="112" y="-353" font-family="Helvetica,sans-Serif" font-size="10.00"> m_currentRoot</text>
<text text-anchor="middle" x="112" y="-342" font-family="Helvetica,sans-Serif" font-size="10.00">m_shadowRoot</text>
</g>
<!-- Node5&#45;&gt;Node4 -->
<g id="edge4" class="edge"><title>Node5&#45;&gt;Node4</title>
<path fill="none" stroke="#9a32cd" stroke-dasharray="5,2" d="M257.921,-361.095C284.244,-360.392 316.874,-359.157 346,-357 369.879,-355.232 397.236,-351.972 415.245,-349.655"/>
<polygon fill="#9a32cd" stroke="#9a32cd" points="257.705,-357.599 247.795,-361.347 257.88,-364.597 257.705,-357.599"/>
<text text-anchor="middle" x="306" y="-363" font-family="Helvetica,sans-Serif" font-size="10.00"> m_voxelTreeNode</text>
</g>
<!-- Node5&#45;&gt;Node5 -->
<g id="edge7" class="edge"><title>Node5&#45;&gt;Node5</title>
<path fill="none" stroke="#9a32cd" stroke-dasharray="5,2" d="M188.593,-381.4C189.756,-386.315 195.558,-390 206,-390 222.707,-390 227.536,-380.565 220.488,-371.757"/>
<polygon fill="#9a32cd" stroke="#9a32cd" points="191.965,-382.342 191.512,-371.757 185.265,-380.314 191.965,-382.342"/>
<text text-anchor="middle" x="206" y="-393" font-family="Helvetica,sans-Serif" font-size="10.00"> m_parent</text>
</g>
<!-- Node6 -->
<g id="node6" class="node"><title>Node6</title>
<polygon fill="white" stroke="#bfbfbf" points="364.5,-223.5 364.5,-242.5 507.5,-242.5 507.5,-223.5 364.5,-223.5"/>
<text text-anchor="middle" x="436" y="-230.5" font-family="Helvetica,sans-Serif" font-size="10.00">std::unique_ptr&lt; ObjectInfo &gt;</text>
</g>
<!-- Node6&#45;&gt;Node2 -->
<g id="edge8" class="edge"><title>Node6&#45;&gt;Node2</title>
<path fill="none" stroke="#9a32cd" stroke-dasharray="5,2" d="M517.819,-225.187C548.706,-221.529 584.147,-216.517 616,-210 623.308,-208.505 631.082,-206.528 638.361,-204.503"/>
<polygon fill="#9a32cd" stroke="#9a32cd" points="517.063,-221.751 507.531,-226.375 517.867,-228.704 517.063,-221.751"/>
<text text-anchor="middle" x="571" y="-227" font-family="Helvetica,sans-Serif" font-size="10.00"> m_objectInfo</text>
</g>
<!-- Node7 -->
<g id="node7" class="node"><title>Node7</title>
<g id="a_node7"><a xlink:href="class_handle.html" target="_top" xlink:title="Handle\&lt; WorldObject \&gt;">
<polygon fill="white" stroke="black" points="376.5,-185.5 376.5,-204.5 495.5,-204.5 495.5,-185.5 376.5,-185.5"/>
<text text-anchor="middle" x="436" y="-192.5" font-family="Helvetica,sans-Serif" font-size="10.00">Handle&lt; WorldObject &gt;</text>
</a>
</g>
</g>
<!-- Node7&#45;&gt;Node2 -->
<g id="edge9" class="edge"><title>Node7&#45;&gt;Node2</title>
<path fill="none" stroke="#9a32cd" stroke-dasharray="5,2" d="M505.781,-195C548.068,-195 600.449,-195 634.283,-195"/>
<polygon fill="#9a32cd" stroke="#9a32cd" points="505.543,-191.5 495.543,-195 505.543,-198.5 505.543,-191.5"/>
<text text-anchor="middle" x="571" y="-198" font-family="Helvetica,sans-Serif" font-size="10.00"> m_handle</text>
</g>
<!-- Node8 -->
<g id="node8" class="node"><title>Node8</title>
<polygon fill="white" stroke="#bfbfbf" points="369,-147.5 369,-166.5 503,-166.5 503,-147.5 369,-147.5"/>
<text text-anchor="middle" x="436" y="-154.5" font-family="Helvetica,sans-Serif" font-size="10.00">std::unique_ptr&lt; Physics &gt;</text>
</g>
<!-- Node8&#45;&gt;Node2 -->
<g id="edge10" class="edge"><title>Node8&#45;&gt;Node2</title>
<path fill="none" stroke="#9a32cd" stroke-dasharray="5,2" d="M513.42,-164.298C545.308,-167.995 582.623,-173.172 616,-180 623.308,-181.495 631.082,-183.472 638.361,-185.497"/>
<polygon fill="#9a32cd" stroke="#9a32cd" points="513.6,-160.796 503.269,-163.15 512.813,-167.752 513.6,-160.796"/>
<text text-anchor="middle" x="571" y="-183" font-family="Helvetica,sans-Serif" font-size="10.00"> m_physics</text>
</g>
<!-- Node9 -->
<g id="node9" class="node"><title>Node9</title>
<polygon fill="white" stroke="#bfbfbf" points="372.5,-98 372.5,-128 499.5,-128 499.5,-98 372.5,-98"/>
<text text-anchor="start" x="380.5" y="-116" font-family="Helvetica,sans-Serif" font-size="10.00">std::unique_ptr&lt; Collision</text>
<text text-anchor="middle" x="436" y="-105" font-family="Helvetica,sans-Serif" font-size="10.00">Filter &gt;</text>
</g>
<!-- Node9&#45;&gt;Node2 -->
<g id="edge11" class="edge"><title>Node9&#45;&gt;Node2</title>
<path fill="none" stroke="#9a32cd" stroke-dasharray="5,2" d="M510.005,-121.026C543.5,-126.659 583.007,-136.141 616,-152 633.3,-160.316 649.929,-175.326 659.808,-185.229"/>
<polygon fill="#9a32cd" stroke="#9a32cd" points="510.243,-117.52 499.816,-119.398 509.139,-124.432 510.243,-117.52"/>
<text text-anchor="middle" x="571" y="-155" font-family="Helvetica,sans-Serif" font-size="10.00"> m_collisionFilter</text>
</g>
<!-- Node10 -->
<g id="node10" class="node"><title>Node10</title>
<polygon fill="white" stroke="#bfbfbf" points="372.5,-49 372.5,-79 499.5,-79 499.5,-49 372.5,-49"/>
<text text-anchor="start" x="380.5" y="-67" font-family="Helvetica,sans-Serif" font-size="10.00">std::unique_ptr&lt; Collision</text>
<text text-anchor="middle" x="436" y="-56" font-family="Helvetica,sans-Serif" font-size="10.00">Detector &gt;</text>
</g>
<!-- Node10&#45;&gt;Node2 -->
<g id="edge12" class="edge"><title>Node10&#45;&gt;Node2</title>
<path fill="none" stroke="#9a32cd" stroke-dasharray="5,2" d="M509.66,-70.0644C544.512,-75.9481 585.26,-87.4737 616,-110 642.933,-129.736 659.279,-167.681 665.769,-185.419"/>
<polygon fill="#9a32cd" stroke="#9a32cd" points="509.947,-66.5669 499.527,-68.4818 508.867,-73.4831 509.947,-66.5669"/>
<text text-anchor="middle" x="571" y="-113" font-family="Helvetica,sans-Serif" font-size="10.00"> m_collisionDetector</text>
</g>
<!-- Node11 -->
<g id="node11" class="node"><title>Node11</title>
<polygon fill="white" stroke="#bfbfbf" points="364,-0 364,-30 508,-30 508,-0 364,-0"/>
<text text-anchor="start" x="372" y="-18" font-family="Helvetica,sans-Serif" font-size="10.00">std::unique_ptr&lt; WorldObject</text>
<text text-anchor="middle" x="436" y="-7" font-family="Helvetica,sans-Serif" font-size="10.00">Components &gt;</text>
</g>
<!-- Node11&#45;&gt;Node2 -->
<g id="edge13" class="edge"><title>Node11&#45;&gt;Node2</title>
<path fill="none" stroke="#9a32cd" stroke-dasharray="5,2" d="M518.511,-18.809C552.088,-24.188 589.294,-35.5712 616,-59 655.242,-93.4255 665.647,-160.51 668.215,-185.402"/>
<polygon fill="#9a32cd" stroke="#9a32cd" points="518.62,-15.2886 508.223,-17.3257 517.621,-22.217 518.62,-15.2886"/>
<text text-anchor="middle" x="571" y="-62" font-family="Helvetica,sans-Serif" font-size="10.00"> m_components</text>
</g>
</g>
</svg>
        <g id="navigator" transform="translate(0 0)" fill="#404254">
                <rect fill="#f2f5e9" fill-opacity="0.5" stroke="#606060" stroke-width=".5" x="0" y="0" width="60" height="60"/>
                <use id="zoomplus" xlink:href="#zoomPlus" x="17" y="9" onmousedown="handleZoom(evt,'in')"/>
                <use id="zoomminus" xlink:href="#zoomMin" x="42" y="9" onmousedown="handleZoom(evt,'out')"/>
                <use id="reset" xlink:href="#resetDef" x="30" y="36" onmousedown="handleReset()"/>
                <g id="arrowUp" xlink:href="#dirArrow" transform="translate(30 24)" onmousedown="handlePan(0,-1)">
                  <use xlink:href="#rim" fill="#404040">
                        <set attributeName="fill" to="#808080" begin="arrowUp.mouseover" end="arrowUp.mouseout"/>
                  </use>
                  <path fill="none" stroke="white" stroke-width="1.5" d="M0,-3.0v7 M-2.5,-0.5L0,-3.0L2.5,-0.5"/>
                </g>
                <g id="arrowRight" xlink:href="#dirArrow" transform="rotate(90) translate(36 -43)" onmousedown="handlePan(1,0)">
                  <use xlink:href="#rim" fill="#404040">
                        <set attributeName="fill" to="#808080" begin="arrowRight.mouseover" end="arrowRight.mouseout"/>
                  </use>
                  <path fill="none" stroke="white" stroke-width="1.5" d="M0,-3.0v7 M-2.5,-0.5L0,-3.0L2.5,-0.5"/>
                </g>
                <g id="arrowDown" xlink:href="#dirArrow" transform="rotate(180) translate(-30 -48)" onmousedown="handlePan(0,1)">
                  <use xlink:href="#rim" fill="#404040">
                        <set attributeName="fill" to="#808080" begin="arrowDown.mouseover" end="arrowDown.mouseout"/>
                  </use>
                  <path fill="none" stroke="white" stroke-width="1.5" d="M0,-3.0v7 M-2.5,-0.5L0,-3.0L2.5,-0.5"/>
                </g>
                <g id="arrowLeft" xlink:href="#dirArrow" transform="rotate(270) translate(-36 17)" onmousedown="handlePan(-1,0)">
                  <use xlink:href="#rim" fill="#404040">
                        <set attributeName="fill" to="#808080" begin="arrowLeft.mouseover" end="arrowLeft.mouseout"/>
                  </use>
                  <path fill="none" stroke="white" stroke-width="1.5" d="M0,-3.0v7 M-2.5,-0.5L0,-3.0L2.5,-0.5"/>
                </g>
        </g>
        <svg viewBox="0 0 15 15" width="100%" height="30px" preserveAspectRatio="xMaxYMin meet">
         <g id="arrow_out" transform="scale(0.3 0.3)">
          <a xlink:href="class_voxel_tree__coll__graph_org.svg" target="_base">
           <rect id="button" ry="5" rx="5" y="6" x="6" height="38" width="38"
                fill="#f2f5e9" fill-opacity="0.5" stroke="#606060" stroke-width="1.0"/>
           <path id="arrow"
             d="M 11.500037,31.436501 C 11.940474,20.09759 22.043105,11.32322 32.158766,21.979434 L 37.068811,17.246167 C 37.068811,17.246167 37.088388,32 37.088388,32 L 22.160133,31.978069 C 22.160133,31.978069 26.997745,27.140456 26.997745,27.140456 C 18.528582,18.264221 13.291696,25.230495 11.500037,31.436501 z"
             style="fill:#404040;"/>
          </a>
         </g>
        </svg>
</svg>
