<?xml version="1.0" encoding="UTF-8" standalone="no"?>
<!DOCTYPE svg PUBLIC "-//W3C//DTD SVG 1.1//EN"
 "http://www.w3.org/Graphics/SVG/1.1/DTD/svg11.dtd">
<!-- Generated by graphviz version 2.36.0 (20140111.2315)
 -->
<!-- Title: BaseScenario Pages: 1 -->
<svg width="415pt" height="84pt"
 viewBox="0.00 0.00 415.00 84.00" xmlns="http://www.w3.org/2000/svg" xmlns:xlink="http://www.w3.org/1999/xlink">
<g id="graph0" class="graph" transform="scale(1 1) rotate(0) translate(4 80)">
<title>BaseScenario</title>
<polygon fill="white" stroke="none" points="-4,4 -4,-80 411,-80 411,4 -4,4"/>
<!-- Node1 -->
<g id="node1" class="node"><title>Node1</title>
<polygon fill="#bfbfbf" stroke="black" points="172.5,-56.5 172.5,-75.5 249.5,-75.5 249.5,-56.5 172.5,-56.5"/>
<text text-anchor="middle" x="211" y="-63.5" font-family="Helvetica,sans-Serif" font-size="10.00">BaseScenario</text>
</g>
<!-- Node2 -->
<g id="node2" class="node"><title>Node2</title>
<g id="a_node2"><a xlink:href="class_battle_scenario.html" target="_top" xlink:title="BattleScenario">
<polygon fill="white" stroke="black" points="0,-0.5 0,-19.5 80,-19.5 80,-0.5 0,-0.5"/>
<text text-anchor="middle" x="40" y="-7.5" font-family="Helvetica,sans-Serif" font-size="10.00">BattleScenario</text>
</a>
</g>
</g>
<!-- Node1&#45;&gt;Node2 -->
<g id="edge1" class="edge"><title>Node1&#45;&gt;Node2</title>
<path fill="none" stroke="midnightblue" d="M173.964,-53.3044C141.743,-43.1294 95.8112,-28.6246 66.9687,-19.5164"/>
<polygon fill="midnightblue" stroke="midnightblue" points="173.315,-56.7697 183.905,-56.4435 175.423,-50.0946 173.315,-56.7697"/>
</g>
<!-- Node3 -->
<g id="node3" class="node"><title>Node3</title>
<g id="a_node3"><a xlink:href="class_frozen_game_scenario.html" target="_top" xlink:title="FrozenGameScenario">
<polygon fill="white" stroke="black" points="98.5,-0.5 98.5,-19.5 209.5,-19.5 209.5,-0.5 98.5,-0.5"/>
<text text-anchor="middle" x="154" y="-7.5" font-family="Helvetica,sans-Serif" font-size="10.00">FrozenGameScenario</text>
</a>
</g>
</g>
<!-- Node1&#45;&gt;Node3 -->
<g id="edge2" class="edge"><title>Node1&#45;&gt;Node3</title>
<path fill="none" stroke="midnightblue" d="M194.379,-49.2533C184.266,-39.6731 171.723,-27.7906 163.325,-19.8339"/>
<polygon fill="midnightblue" stroke="midnightblue" points="192.175,-51.9873 201.842,-56.324 196.99,-46.9056 192.175,-51.9873"/>
</g>
<!-- Node4 -->
<g id="node4" class="node"><title>Node4</title>
<g id="a_node4"><a xlink:href="class_game_scenario.html" target="_top" xlink:title="GameScenario">
<polygon fill="white" stroke="black" points="227.5,-0.5 227.5,-19.5 308.5,-19.5 308.5,-0.5 227.5,-0.5"/>
<text text-anchor="middle" x="268" y="-7.5" font-family="Helvetica,sans-Serif" font-size="10.00">GameScenario</text>
</a>
</g>
</g>
<!-- Node1&#45;&gt;Node4 -->
<g id="edge3" class="edge"><title>Node1&#45;&gt;Node4</title>
<path fill="none" stroke="midnightblue" d="M227.621,-49.2533C237.734,-39.6731 250.277,-27.7906 258.675,-19.8339"/>
<polygon fill="midnightblue" stroke="midnightblue" points="225.01,-46.9056 220.158,-56.324 229.825,-51.9873 225.01,-46.9056"/>
</g>
<!-- Node5 -->
<g id="node5" class="node"><title>Node5</title>
<g id="a_node5"><a xlink:href="class_pirate_scenario.html" target="_top" xlink:title="PirateScenario">
<polygon fill="white" stroke="black" points="327,-0.5 327,-19.5 407,-19.5 407,-0.5 327,-0.5"/>
<text text-anchor="middle" x="367" y="-7.5" font-family="Helvetica,sans-Serif" font-size="10.00">PirateScenario</text>
</a>
</g>
</g>
<!-- Node1&#45;&gt;Node5 -->
<g id="edge4" class="edge"><title>Node1&#45;&gt;Node5</title>
<path fill="none" stroke="midnightblue" d="M245.17,-53.172C274.544,-43.0039 316.198,-28.5852 342.397,-19.5164"/>
<polygon fill="midnightblue" stroke="midnightblue" points="244.024,-49.8649 235.719,-56.4435 246.313,-56.4798 244.024,-49.8649"/>
</g>
</g>
</svg>
