<?xml version="1.0" encoding="UTF-8" standalone="no"?>
<!DOCTYPE svg PUBLIC "-//W3C//DTD SVG 1.1//EN"
 "http://www.w3.org/Graphics/SVG/1.1/DTD/svg11.dtd">
<!-- Generated by graphviz version 2.36.0 (20140111.2315)
 -->
<!-- Title: WorldLogic Pages: 1 -->
<!--zoomable 721 -->
<svg id="main" version="1.1" xmlns="http://www.w3.org/2000/svg" xmlns:xlink="http://www.w3.org/1999/xlink" xml:space="preserve" onload="init(evt)">
<style type="text/css"><![CDATA[
.edge:hover path { stroke: red; }
.edge:hover polygon { stroke: red; fill: red; }
]]></style>
<script type="text/javascript"><![CDATA[
var edges = document.getElementsByTagName('g');
if (edges && edges.length) {
  for (var i=0;i<edges.length;i++) {
    if (edges[i].id.substr(0,4)=='edge') {
      edges[i].setAttribute('class','edge');
    }
  }
}
]]></script>
        <defs>
                <circle id="rim" cx="0" cy="0" r="7"/>
                <circle id="rim2" cx="0" cy="0" r="3.5"/>
                <g id="zoomPlus">
                        <use xlink:href="#rim" fill="#404040">
                                <set attributeName="fill" to="#808080" begin="zoomplus.mouseover" end="zoomplus.mouseout"/>
                        </use>
                        <path d="M-4,0h8M0,-4v8" fill="none" stroke="white" stroke-width="1.5" pointer-events="none"/>
                </g>
                <g id="zoomMin">
                        <use xlink:href="#rim" fill="#404040">
                                <set attributeName="fill" to="#808080" begin="zoomminus.mouseover" end="zoomminus.mouseout"/>
                        </use>
                        <path d="M-4,0h8" fill="none" stroke="white" stroke-width="1.5" pointer-events="none"/>
                </g>
                <g id="dirArrow">
                        <path fill="none" stroke="white" stroke-width="1.5" d="M0,-3.0v7 M-2.5,-0.5L0,-3.0L2.5,-0.5"/>
                </g>
               <g id="resetDef">
                       <use xlink:href="#rim2" fill="#404040">
                               <set attributeName="fill" to="#808080" begin="reset.mouseover" end="reset.mouseout"/>
                       </use>
               </g>
        </defs>

<script type="text/javascript">
var viewWidth = 1349;
var viewHeight = 721;
var sectionId = 'dynsection-0';
</script>
<script xlink:href="svgpan.js"/>
<svg id="graph" class="graph">
<g id="viewport">
<title>WorldLogic</title>
<polygon fill="white" stroke="none" points="-4,4 -4,-717 1344.5,-717 1344.5,4 -4,4"/>
<!-- Node1 -->
<g id="node1" class="node"><title>Node1</title>
<polygon fill="#bfbfbf" stroke="black" points="908.5,-458.5 908.5,-477.5 973.5,-477.5 973.5,-458.5 908.5,-458.5"/>
<text text-anchor="middle" x="941" y="-465.5" font-family="Helvetica,sans-Serif" font-size="10.00">WorldLogic</text>
</g>
<!-- Node29 -->
<g id="node29" class="node"><title>Node29</title>
<polygon fill="white" stroke="#bfbfbf" points="1030,-554.5 1030,-573.5 1178,-573.5 1178,-554.5 1030,-554.5"/>
<text text-anchor="middle" x="1104" y="-561.5" font-family="Helvetica,sans-Serif" font-size="10.00">std::unique_ptr&lt; WorldLogic &gt;</text>
</g>
<!-- Node1&#45;&gt;Node29 -->
<g id="edge36" class="edge"><title>Node1&#45;&gt;Node29</title>
<path fill="none" stroke="#9a32cd" stroke-dasharray="5,2" d="M951.349,-486.645C960.504,-502.961 975.983,-526.026 996,-539 1006.57,-545.848 1018.8,-550.826 1031.13,-554.444"/>
<polygon fill="#9a32cd" stroke="#9a32cd" points="954.273,-484.689 946.483,-477.508 948.095,-487.98 954.273,-484.689"/>
<text text-anchor="middle" x="1004" y="-550" font-family="Helvetica,sans-Serif" font-size="10.00"> ptr</text>
</g>
<!-- Node2 -->
<g id="node2" class="node"><title>Node2</title>
<g id="a_node2"><a xlink:href="class_voxel_hangman.html" target="_top" xlink:title="VoxelHangman">
<polygon fill="white" stroke="black" points="629.5,-280.5 629.5,-299.5 712.5,-299.5 712.5,-280.5 629.5,-280.5"/>
<text text-anchor="middle" x="671" y="-287.5" font-family="Helvetica,sans-Serif" font-size="10.00">VoxelHangman</text>
</a>
</g>
</g>
<!-- Node2&#45;&gt;Node1 -->
<g id="edge1" class="edge"><title>Node2&#45;&gt;Node1</title>
<path fill="none" stroke="#9a32cd" stroke-dasharray="5,2" d="M722.737,-289.027C770.122,-290.767 840.227,-300.468 886,-339 924.076,-371.053 935.799,-434.493 938.958,-458.497"/>
<polygon fill="#9a32cd" stroke="#9a32cd" points="722.78,-285.527 712.692,-288.765 722.597,-292.525 722.78,-285.527"/>
<text text-anchor="middle" x="821" y="-342" font-family="Helvetica,sans-Serif" font-size="10.00"> m_voxelHangman</text>
</g>
<!-- Node3 -->
<g id="node3" class="node"><title>Node3</title>
<g id="a_node3"><a xlink:href="class_splitter.html" target="_top" xlink:title="Splitter">
<polygon fill="white" stroke="black" points="647.5,-534.5 647.5,-553.5 694.5,-553.5 694.5,-534.5 647.5,-534.5"/>
<text text-anchor="middle" x="671" y="-541.5" font-family="Helvetica,sans-Serif" font-size="10.00">Splitter</text>
</a>
</g>
</g>
<!-- Node3&#45;&gt;Node1 -->
<g id="edge2" class="edge"><title>Node3&#45;&gt;Node1</title>
<path fill="none" stroke="#9a32cd" stroke-dasharray="5,2" d="M704.957,-544.975C748.375,-545.037 826.222,-540.869 886,-514 904.871,-505.518 922.23,-488.358 931.934,-477.563"/>
<polygon fill="#9a32cd" stroke="#9a32cd" points="704.724,-541.472 694.692,-544.879 704.659,-548.472 704.724,-541.472"/>
<text text-anchor="middle" x="821" y="-546" font-family="Helvetica,sans-Serif" font-size="10.00"> m_splitter</text>
</g>
<!-- Node4 -->
<g id="node4" class="node"><title>Node4</title>
<polygon fill="white" stroke="#bfbfbf" points="277,-549.5 277,-568.5 405,-568.5 405,-549.5 277,-549.5"/>
<text text-anchor="middle" x="341" y="-556.5" font-family="Helvetica,sans-Serif" font-size="10.00">std::list&lt; WorldObject * &gt;</text>
</g>
<!-- Node4&#45;&gt;Node3 -->
<g id="edge3" class="edge"><title>Node4&#45;&gt;Node3</title>
<path fill="none" stroke="#9a32cd" stroke-dasharray="5,2" d="M415.333,-558.163C463.811,-557.297 528.741,-555.544 586,-552 606.762,-550.715 630.336,-548.394 647.215,-546.582"/>
<polygon fill="#9a32cd" stroke="#9a32cd" points="415.186,-554.665 405.247,-558.334 415.305,-561.664 415.186,-554.665"/>
<text text-anchor="middle" x="516" y="-560" font-family="Helvetica,sans-Serif" font-size="10.00"> m_splitOffWorldObjects</text>
</g>
<!-- Node15 -->
<g id="node15" class="node"><title>Node15</title>
<g id="a_node15"><a xlink:href="class_voxel_collision_accumulator.html" target="_top" xlink:title="VoxelCollisionAccumulator">
<polygon fill="white" stroke="black" points="604.5,-496.5 604.5,-515.5 737.5,-515.5 737.5,-496.5 604.5,-496.5"/>
<text text-anchor="middle" x="671" y="-503.5" font-family="Helvetica,sans-Serif" font-size="10.00">VoxelCollisionAccumulator</text>
</a>
</g>
</g>
<!-- Node4&#45;&gt;Node15 -->
<g id="edge16" class="edge"><title>Node4&#45;&gt;Node15</title>
<path fill="none" stroke="#9a32cd" stroke-dasharray="5,2" d="M399.526,-547.472C414.623,-544.574 430.903,-541.562 446,-539 461.381,-536.389 543.824,-524.327 604.242,-515.538"/>
<polygon fill="#9a32cd" stroke="#9a32cd" points="398.445,-544.116 389.293,-549.453 399.776,-550.988 398.445,-544.116"/>
<text text-anchor="middle" x="516" y="-542" font-family="Helvetica,sans-Serif" font-size="10.00"> m_worldObjects</text>
</g>
<!-- Node25 -->
<g id="node25" class="node"><title>Node25</title>
<g id="a_node25"><a xlink:href="class_garbage_collector.html" target="_top" xlink:title="GarbageCollector">
<polygon fill="white" stroke="black" points="625,-572.5 625,-591.5 717,-591.5 717,-572.5 625,-572.5"/>
<text text-anchor="middle" x="671" y="-579.5" font-family="Helvetica,sans-Serif" font-size="10.00">GarbageCollector</text>
</a>
</g>
</g>
<!-- Node4&#45;&gt;Node25 -->
<g id="edge30" class="edge"><title>Node4&#45;&gt;Node25</title>
<path fill="none" stroke="#9a32cd" stroke-dasharray="5,2" d="M415.36,-568.912C425.636,-570.084 436.073,-571.159 446,-572 507.868,-577.239 579.597,-579.832 624.882,-581.042"/>
<polygon fill="#9a32cd" stroke="#9a32cd" points="415.503,-565.405 405.162,-567.713 414.685,-572.357 415.503,-565.405"/>
<text text-anchor="middle" x="516" y="-582" font-family="Helvetica,sans-Serif" font-size="10.00"> m_garbageVoxelClusters</text>
</g>
<!-- Node5 -->
<g id="node5" class="node"><title>Node5</title>
<g id="a_node5"><a xlink:href="class_world_object.html" target="_top" xlink:title="WorldObject">
<polygon fill="white" stroke="red" points="30.5,-487.5 30.5,-506.5 101.5,-506.5 101.5,-487.5 30.5,-487.5"/>
<text text-anchor="middle" x="66" y="-494.5" font-family="Helvetica,sans-Serif" font-size="10.00">WorldObject</text>
</a>
</g>
</g>
<!-- Node5&#45;&gt;Node4 -->
<g id="edge4" class="edge"><title>Node5&#45;&gt;Node4</title>
<path fill="none" stroke="#9a32cd" stroke-dasharray="5,2" d="M111.443,-507.093C163.072,-518.818 247.606,-538.017 298.117,-549.488"/>
<polygon fill="#9a32cd" stroke="#9a32cd" points="112.102,-503.654 101.576,-504.852 110.552,-510.48 112.102,-503.654"/>
<text text-anchor="middle" x="193" y="-538" font-family="Helvetica,sans-Serif" font-size="10.00"> elements</text>
</g>
<!-- Node12 -->
<g id="node12" class="node"><title>Node12</title>
<polygon fill="white" stroke="#bfbfbf" points="269,-310 269,-340 413,-340 413,-310 269,-310"/>
<text text-anchor="start" x="277" y="-328" font-family="Helvetica,sans-Serif" font-size="10.00">std::map&lt; WorldObject</text>
<text text-anchor="middle" x="341" y="-317" font-family="Helvetica,sans-Serif" font-size="10.00"> *, WorldObjectModification &gt;</text>
</g>
<!-- Node5&#45;&gt;Node12 -->
<g id="edge12" class="edge"><title>Node5&#45;&gt;Node12</title>
<path fill="none" stroke="#9a32cd" stroke-dasharray="5,2" d="M70.8388,-477.562C78.8034,-442.974 100.664,-371.346 150,-339 184.576,-316.331 230.686,-312.462 268.822,-314.438"/>
<polygon fill="#9a32cd" stroke="#9a32cd" points="67.4053,-476.881 68.724,-487.393 74.2488,-478.353 67.4053,-476.881"/>
<text text-anchor="middle" x="193" y="-342" font-family="Helvetica,sans-Serif" font-size="10.00"> keys</text>
</g>
<!-- Node23 -->
<g id="node23" class="node"><title>Node23</title>
<g id="a_node23"><a xlink:href="class_damage_forwarder.html" target="_top" xlink:title="DamageForwarder">
<polygon fill="white" stroke="black" points="623.5,-411.5 623.5,-430.5 718.5,-430.5 718.5,-411.5 623.5,-411.5"/>
<text text-anchor="middle" x="671" y="-418.5" font-family="Helvetica,sans-Serif" font-size="10.00">DamageForwarder</text>
</a>
</g>
</g>
<!-- Node5&#45;&gt;Node23 -->
<g id="edge27" class="edge"><title>Node5&#45;&gt;Node23</title>
<path fill="none" stroke="#9a32cd" stroke-dasharray="5,2" d="M111.766,-491.358C222.769,-477.367 509.877,-441.181 623.1,-426.911"/>
<polygon fill="#9a32cd" stroke="#9a32cd" points="111.07,-487.918 101.586,-492.641 111.945,-494.863 111.07,-487.918"/>
<text text-anchor="middle" x="341" y="-475" font-family="Helvetica,sans-Serif" font-size="10.00"> m_currentWorldObject</text>
</g>
<!-- Node28 -->
<g id="node28" class="node"><title>Node28</title>
<polygon fill="white" stroke="#bfbfbf" points="467,-660 467,-690 565,-690 565,-660 467,-660"/>
<text text-anchor="start" x="475" y="-678" font-family="Helvetica,sans-Serif" font-size="10.00">std::unordered_set</text>
<text text-anchor="middle" x="516" y="-667" font-family="Helvetica,sans-Serif" font-size="10.00">&lt; WorldObject * &gt;</text>
</g>
<!-- Node5&#45;&gt;Node28 -->
<g id="edge34" class="edge"><title>Node5&#45;&gt;Node28</title>
<path fill="none" stroke="#9a32cd" stroke-dasharray="5,2" d="M80.396,-514.583C108.239,-549.572 176.279,-627.274 254,-659 323.771,-687.481 412.801,-685.753 466.776,-681.018"/>
<polygon fill="#9a32cd" stroke="#9a32cd" points="83.119,-512.384 74.2019,-506.662 77.6048,-516.695 83.119,-512.384"/>
<text text-anchor="middle" x="193" y="-651" font-family="Helvetica,sans-Serif" font-size="10.00"> keys</text>
</g>
<!-- Node6 -->
<g id="node6" class="node"><title>Node6</title>
<g id="a_node6"><a xlink:href="class_split_detector.html" target="_top" xlink:title="SplitDetector">
<polygon fill="white" stroke="black" points="634.5,-145.5 634.5,-164.5 707.5,-164.5 707.5,-145.5 634.5,-145.5"/>
<text text-anchor="middle" x="671" y="-152.5" font-family="Helvetica,sans-Serif" font-size="10.00">SplitDetector</text>
</a>
</g>
</g>
<!-- Node6&#45;&gt;Node1 -->
<g id="edge5" class="edge"><title>Node6&#45;&gt;Node1</title>
<path fill="none" stroke="#9a32cd" stroke-dasharray="5,2" d="M714.039,-167.802C762.604,-184.748 841.517,-219.293 886,-276 931.521,-334.031 938.675,-428.412 939.794,-458.481"/>
<polygon fill="#9a32cd" stroke="#9a32cd" points="715.049,-164.449 704.454,-164.549 712.799,-171.078 715.049,-164.449"/>
<text text-anchor="middle" x="821" y="-279" font-family="Helvetica,sans-Serif" font-size="10.00"> m_splitDetector</text>
</g>
<!-- Node7 -->
<g id="node7" class="node"><title>Node7</title>
<polygon fill="white" stroke="#bfbfbf" points="281.5,-164 281.5,-194 400.5,-194 400.5,-164 281.5,-164"/>
<text text-anchor="start" x="289.5" y="-182" font-family="Helvetica,sans-Serif" font-size="10.00">std::vector&lt; std::shared</text>
<text text-anchor="middle" x="341" y="-171" font-family="Helvetica,sans-Serif" font-size="10.00">_ptr&lt; SplitData &gt; &gt;</text>
</g>
<!-- Node7&#45;&gt;Node6 -->
<g id="edge6" class="edge"><title>Node7&#45;&gt;Node6</title>
<path fill="none" stroke="#9a32cd" stroke-dasharray="5,2" d="M410.86,-173.961C479.015,-168.975 580.68,-161.536 634.156,-157.623"/>
<polygon fill="#9a32cd" stroke="#9a32cd" points="410.358,-170.489 400.64,-174.709 410.869,-177.47 410.358,-170.489"/>
<text text-anchor="middle" x="516" y="-174" font-family="Helvetica,sans-Serif" font-size="10.00"> m_splitDataList</text>
</g>
<!-- Node8 -->
<g id="node8" class="node"><title>Node8</title>
<polygon fill="white" stroke="#bfbfbf" points="277.5,-115 277.5,-145 404.5,-145 404.5,-115 277.5,-115"/>
<text text-anchor="start" x="285.5" y="-133" font-family="Helvetica,sans-Serif" font-size="10.00">std::vector&lt; SplitDetector</text>
<text text-anchor="middle" x="341" y="-122" font-family="Helvetica,sans-Serif" font-size="10.00">::VoxelGroup &gt;</text>
</g>
<!-- Node8&#45;&gt;Node6 -->
<g id="edge7" class="edge"><title>Node8&#45;&gt;Node6</title>
<path fill="none" stroke="#9a32cd" stroke-dasharray="5,2" d="M414.834,-133.988C463.366,-136.839 528.548,-141.041 586,-146 601.928,-147.375 619.52,-149.211 634.472,-150.865"/>
<polygon fill="#9a32cd" stroke="#9a32cd" points="414.926,-130.488 404.74,-133.4 414.519,-137.476 414.926,-130.488"/>
<text text-anchor="middle" x="516" y="-149" font-family="Helvetica,sans-Serif" font-size="10.00"> m_voxelArray</text>
</g>
<!-- Node9 -->
<g id="node9" class="node"><title>Node9</title>
<polygon fill="white" stroke="#bfbfbf" points="280,-76.5 280,-95.5 402,-95.5 402,-76.5 280,-76.5"/>
<text text-anchor="middle" x="341" y="-83.5" font-family="Helvetica,sans-Serif" font-size="10.00">std::stack&lt; glm::ivec3 &gt;</text>
</g>
<!-- Node9&#45;&gt;Node6 -->
<g id="edge8" class="edge"><title>Node9&#45;&gt;Node6</title>
<path fill="none" stroke="#9a32cd" stroke-dasharray="5,2" d="M412.262,-90.988C461.542,-95.6455 528.606,-104.324 586,-120 609.165,-126.327 634.435,-137.48 651.144,-145.497"/>
<polygon fill="#9a32cd" stroke="#9a32cd" points="412.303,-87.4772 402.027,-90.0541 411.667,-94.4483 412.303,-87.4772"/>
<text text-anchor="middle" x="516" y="-123" font-family="Helvetica,sans-Serif" font-size="10.00"> m_stack</text>
</g>
<!-- Node10 -->
<g id="node10" class="node"><title>Node10</title>
<g id="a_node10"><a xlink:href="class_damager.html" target="_top" xlink:title="Damager">
<polygon fill="white" stroke="black" points="643,-318.5 643,-337.5 699,-337.5 699,-318.5 643,-318.5"/>
<text text-anchor="middle" x="671" y="-325.5" font-family="Helvetica,sans-Serif" font-size="10.00">Damager</text>
</a>
</g>
</g>
<!-- Node10&#45;&gt;Node1 -->
<g id="edge9" class="edge"><title>Node10&#45;&gt;Node1</title>
<path fill="none" stroke="#9a32cd" stroke-dasharray="5,2" d="M709.041,-338.537C753.409,-352.183 828.89,-378.719 886,-416 904.527,-428.095 922.261,-447.057 932.085,-458.432"/>
<polygon fill="#9a32cd" stroke="#9a32cd" points="709.848,-335.124 699.263,-335.583 707.824,-341.825 709.848,-335.124"/>
<text text-anchor="middle" x="821" y="-419" font-family="Helvetica,sans-Serif" font-size="10.00"> m_damager</text>
</g>
<!-- Node11 -->
<g id="node11" class="node"><title>Node11</title>
<polygon fill="white" stroke="#bfbfbf" points="0,-299.5 0,-318.5 132,-318.5 132,-299.5 0,-299.5"/>
<text text-anchor="middle" x="66" y="-306.5" font-family="Helvetica,sans-Serif" font-size="10.00">std::list&lt; DamageImpact &gt;</text>
</g>
<!-- Node11&#45;&gt;Node10 -->
<g id="edge10" class="edge"><title>Node11&#45;&gt;Node10</title>
<path fill="none" stroke="#9a32cd" stroke-dasharray="5,2" d="M95.3604,-294.922C131.25,-277.965 195.46,-250.456 254,-240 399.736,-213.971 469.739,-175.349 586,-267 601.949,-279.573 588.773,-295.561 604,-309 614.728,-318.468 629.9,-323.235 642.993,-325.627"/>
<polygon fill="#9a32cd" stroke="#9a32cd" points="93.5207,-291.923 86.0168,-299.402 96.5471,-298.235 93.5207,-291.923"/>
<text text-anchor="middle" x="341" y="-254" font-family="Helvetica,sans-Serif" font-size="10.00"> m_dampedDeadlyDamageImpacts</text>
<text text-anchor="middle" x="341" y="-243" font-family="Helvetica,sans-Serif" font-size="10.00">m_deadlyDamageImpacts</text>
</g>
<!-- Node24 -->
<g id="node24" class="node"><title>Node24</title>
<g id="a_node24"><a xlink:href="class_voxel_accumulator.html" target="_top" xlink:title="VoxelAccumulator\&lt; Damage\lImpact \&gt;">
<polygon fill="white" stroke="red" points="270.5,-398 270.5,-428 411.5,-428 411.5,-398 270.5,-398"/>
<text text-anchor="start" x="278.5" y="-416" font-family="Helvetica,sans-Serif" font-size="10.00">VoxelAccumulator&lt; Damage</text>
<text text-anchor="middle" x="341" y="-405" font-family="Helvetica,sans-Serif" font-size="10.00">Impact &gt;</text>
</a>
</g>
</g>
<!-- Node11&#45;&gt;Node24 -->
<g id="edge26" class="edge"><title>Node11&#45;&gt;Node24</title>
<path fill="none" stroke="#9a32cd" stroke-dasharray="5,2" d="M91.3244,-323.705C107.567,-333.142 129.61,-345.225 150,-354 192.355,-372.227 242.205,-387.489 280.214,-397.921"/>
<polygon fill="#9a32cd" stroke="#9a32cd" points="92.8807,-320.56 82.488,-318.5 89.3279,-326.591 92.8807,-320.56"/>
<text text-anchor="middle" x="193" y="-386" font-family="Helvetica,sans-Serif" font-size="10.00"> m_accumulatables</text>
</g>
<!-- Node12&#45;&gt;Node10 -->
<g id="edge11" class="edge"><title>Node12&#45;&gt;Node10</title>
<path fill="none" stroke="#9a32cd" stroke-dasharray="5,2" d="M423.279,-313.856C430.948,-313.102 438.613,-312.46 446,-312 508.102,-308.134 524.053,-306.153 586,-312 605.214,-313.814 626.575,-317.911 642.948,-321.505"/>
<polygon fill="#9a32cd" stroke="#9a32cd" points="422.802,-310.387 413.22,-314.907 423.529,-317.349 422.802,-310.387"/>
<text text-anchor="middle" x="516" y="-315" font-family="Helvetica,sans-Serif" font-size="10.00"> m_worldObjectModificationMap</text>
</g>
<!-- Node13 -->
<g id="node13" class="node"><title>Node13</title>
<polygon fill="white" stroke="#bfbfbf" points="292,-359.5 292,-378.5 390,-378.5 390,-359.5 292,-359.5"/>
<text text-anchor="middle" x="341" y="-366.5" font-family="Helvetica,sans-Serif" font-size="10.00">std::list&lt; Voxel * &gt;</text>
</g>
<!-- Node13&#45;&gt;Node10 -->
<g id="edge13" class="edge"><title>Node13&#45;&gt;Node10</title>
<path fill="none" stroke="#9a32cd" stroke-dasharray="5,2" d="M389.384,-357.081C407.054,-353.017 427.35,-348.798 446,-346 516.606,-335.407 600.732,-330.761 642.969,-328.972"/>
<polygon fill="#9a32cd" stroke="#9a32cd" points="388.251,-353.751 379.315,-359.443 389.851,-360.566 388.251,-353.751"/>
<text text-anchor="middle" x="516" y="-349" font-family="Helvetica,sans-Serif" font-size="10.00"> m_deadVoxels</text>
</g>
<!-- Node13&#45;&gt;Node23 -->
<g id="edge28" class="edge"><title>Node13&#45;&gt;Node23</title>
<path fill="none" stroke="#9a32cd" stroke-dasharray="5,2" d="M400.322,-372.507C450.04,-376.197 523.213,-383.289 586,-396 605.089,-399.864 626.089,-406.114 642.316,-411.398"/>
<polygon fill="#9a32cd" stroke="#9a32cd" points="400.306,-368.997 390.081,-371.77 399.804,-375.979 400.306,-368.997"/>
<text text-anchor="middle" x="516" y="-399" font-family="Helvetica,sans-Serif" font-size="10.00"> m_currentNeighbours</text>
</g>
<!-- Node14 -->
<g id="node14" class="node"><title>Node14</title>
<polygon fill="white" stroke="#bfbfbf" points="254.5,-271.5 254.5,-290.5 427.5,-290.5 427.5,-271.5 254.5,-271.5"/>
<text text-anchor="middle" x="341" y="-278.5" font-family="Helvetica,sans-Serif" font-size="10.00">std::list&lt; WorldObjectModification &gt;</text>
</g>
<!-- Node14&#45;&gt;Node10 -->
<g id="edge14" class="edge"><title>Node14&#45;&gt;Node10</title>
<path fill="none" stroke="#9a32cd" stroke-dasharray="5,2" d="M437.78,-271.202C484.131,-270.036 539.638,-274.057 586,-293 595.908,-297.049 594.625,-303.836 604,-309 616.011,-315.616 630.549,-320.122 642.921,-323.079"/>
<polygon fill="#9a32cd" stroke="#9a32cd" points="437.609,-267.706 427.732,-271.539 437.843,-274.702 437.609,-267.706"/>
<text text-anchor="middle" x="516" y="-296" font-family="Helvetica,sans-Serif" font-size="10.00"> m_worldObjectModifications</text>
</g>
<!-- Node15&#45;&gt;Node1 -->
<g id="edge15" class="edge"><title>Node15&#45;&gt;Node1</title>
<path fill="none" stroke="#9a32cd" stroke-dasharray="5,2" d="M748.12,-500.111C789.17,-496.271 840.585,-490.39 886,-482 893.333,-480.645 901.141,-478.839 908.473,-476.975"/>
<polygon fill="#9a32cd" stroke="#9a32cd" points="747.557,-496.648 737.917,-501.044 748.194,-503.619 747.557,-496.648"/>
<text text-anchor="middle" x="821" y="-502" font-family="Helvetica,sans-Serif" font-size="10.00"> m_voxelCollisionAccumulator</text>
</g>
<!-- Node16 -->
<g id="node16" class="node"><title>Node16</title>
<polygon fill="white" stroke="#bfbfbf" points="262,-496.5 262,-515.5 420,-515.5 420,-496.5 262,-496.5"/>
<text text-anchor="middle" x="341" y="-503.5" font-family="Helvetica,sans-Serif" font-size="10.00">std::list&lt; WorldObjectCollision &gt;</text>
</g>
<!-- Node16&#45;&gt;Node15 -->
<g id="edge17" class="edge"><title>Node16&#45;&gt;Node15</title>
<path fill="none" stroke="#9a32cd" stroke-dasharray="5,2" d="M430.208,-506C485.032,-506 554.343,-506 604.331,-506"/>
<polygon fill="#9a32cd" stroke="#9a32cd" points="430.147,-502.5 420.147,-506 430.147,-509.5 430.147,-502.5"/>
<text text-anchor="middle" x="516" y="-509" font-family="Helvetica,sans-Serif" font-size="10.00"> m_worldObjectCollisions</text>
</g>
<!-- Node17 -->
<g id="node17" class="node"><title>Node17</title>
<g id="a_node17"><a xlink:href="class_elastic_impulsor.html" target="_top" xlink:title="ElasticImpulsor">
<polygon fill="white" stroke="black" points="629.5,-90.5 629.5,-109.5 712.5,-109.5 712.5,-90.5 629.5,-90.5"/>
<text text-anchor="middle" x="671" y="-97.5" font-family="Helvetica,sans-Serif" font-size="10.00">ElasticImpulsor</text>
</a>
</g>
</g>
<!-- Node17&#45;&gt;Node1 -->
<g id="edge18" class="edge"><title>Node17&#45;&gt;Node1</title>
<path fill="none" stroke="#9a32cd" stroke-dasharray="5,2" d="M722.701,-102.293C771.909,-107.366 844.994,-122.959 886,-170 924.954,-214.687 937.181,-411.87 939.542,-458.221"/>
<polygon fill="#9a32cd" stroke="#9a32cd" points="722.862,-98.7926 712.584,-101.362 722.221,-105.763 722.862,-98.7926"/>
<text text-anchor="middle" x="821" y="-173" font-family="Helvetica,sans-Serif" font-size="10.00"> m_elasticImpulsor</text>
</g>
<!-- Node18 -->
<g id="node18" class="node"><title>Node18</title>
<g id="a_node18"><a xlink:href="class_property.html" target="_top" xlink:title="Property\&lt; float \&gt;">
<polygon fill="white" stroke="red" points="296.5,-38.5 296.5,-57.5 385.5,-57.5 385.5,-38.5 296.5,-38.5"/>
<text text-anchor="middle" x="341" y="-45.5" font-family="Helvetica,sans-Serif" font-size="10.00">Property&lt; float &gt;</text>
</a>
</g>
</g>
<!-- Node18&#45;&gt;Node17 -->
<g id="edge19" class="edge"><title>Node18&#45;&gt;Node17</title>
<path fill="none" stroke="#9a32cd" stroke-dasharray="5,2" d="M395.716,-40.1031C445.931,-34.6049 522.491,-31.0896 586,-49 614.736,-57.1039 643.437,-77.9605 658.724,-90.3476"/>
<polygon fill="#9a32cd" stroke="#9a32cd" points="395.256,-36.6329 385.725,-41.2614 396.062,-43.5864 395.256,-36.6329"/>
<text text-anchor="middle" x="516" y="-63" font-family="Helvetica,sans-Serif" font-size="10.00"> m_rotationFactor</text>
<text text-anchor="middle" x="516" y="-52" font-family="Helvetica,sans-Serif" font-size="10.00">m_elasticity</text>
</g>
<!-- Node19 -->
<g id="node19" class="node"><title>Node19</title>
<g id="a_node19"><a xlink:href="class_elastic_impulse_generator.html" target="_top" xlink:title="ElasticImpulseGenerator">
<polygon fill="white" stroke="black" points="609.5,-18.5 609.5,-37.5 732.5,-37.5 732.5,-18.5 609.5,-18.5"/>
<text text-anchor="middle" x="671" y="-25.5" font-family="Helvetica,sans-Serif" font-size="10.00">ElasticImpulseGenerator</text>
</a>
</g>
</g>
<!-- Node19&#45;&gt;Node1 -->
<g id="edge20" class="edge"><title>Node19&#45;&gt;Node1</title>
<path fill="none" stroke="#9a32cd" stroke-dasharray="5,2" d="M742.601,-30.2337C790.246,-35.6868 850.662,-51.0043 886,-92 935.301,-149.194 939.61,-404.934 939.97,-458.243"/>
<polygon fill="#9a32cd" stroke="#9a32cd" points="742.946,-26.7508 732.642,-29.2141 742.233,-33.7144 742.946,-26.7508"/>
<text text-anchor="middle" x="821" y="-95" font-family="Helvetica,sans-Serif" font-size="10.00"> m_elasticImpulseGenerator</text>
</g>
<!-- Node20 -->
<g id="node20" class="node"><title>Node20</title>
<polygon fill="white" stroke="#bfbfbf" points="290.5,-0.5 290.5,-19.5 391.5,-19.5 391.5,-0.5 290.5,-0.5"/>
<text text-anchor="middle" x="341" y="-7.5" font-family="Helvetica,sans-Serif" font-size="10.00">std::list&lt; Impulse &gt;</text>
</g>
<!-- Node20&#45;&gt;Node19 -->
<g id="edge21" class="edge"><title>Node20&#45;&gt;Node19</title>
<path fill="none" stroke="#9a32cd" stroke-dasharray="5,2" d="M401.842,-9.01156C451.311,-8.72582 523.343,-9.53404 586,-15 595.556,-15.8336 605.674,-17.082 615.454,-18.4808"/>
<polygon fill="#9a32cd" stroke="#9a32cd" points="401.613,-5.51307 391.64,-9.08786 401.666,-12.5129 401.613,-5.51307"/>
<text text-anchor="middle" x="516" y="-18" font-family="Helvetica,sans-Serif" font-size="10.00"> m_worldObjectImpulses</text>
</g>
<!-- Node21 -->
<g id="node21" class="node"><title>Node21</title>
<g id="a_node21"><a xlink:href="class_mover.html" target="_top" xlink:title="Mover">
<polygon fill="white" stroke="black" points="650,-610.5 650,-629.5 692,-629.5 692,-610.5 650,-610.5"/>
<text text-anchor="middle" x="671" y="-617.5" font-family="Helvetica,sans-Serif" font-size="10.00">Mover</text>
</a>
</g>
</g>
<!-- Node21&#45;&gt;Node1 -->
<g id="edge22" class="edge"><title>Node21&#45;&gt;Node1</title>
<path fill="none" stroke="#9a32cd" stroke-dasharray="5,2" d="M702.049,-625.034C746.843,-630.79 831.668,-634.741 886,-594 925.034,-564.731 936.18,-501.54 939.072,-477.525"/>
<polygon fill="#9a32cd" stroke="#9a32cd" points="702.473,-621.559 692.084,-623.637 701.501,-628.492 702.473,-621.559"/>
<text text-anchor="middle" x="821" y="-631" font-family="Helvetica,sans-Serif" font-size="10.00"> m_mover</text>
</g>
<!-- Node22 -->
<g id="node22" class="node"><title>Node22</title>
<polygon fill="white" stroke="#bfbfbf" points="277,-630.5 277,-649.5 405,-649.5 405,-630.5 277,-630.5"/>
<text text-anchor="middle" x="341" y="-637.5" font-family="Helvetica,sans-Serif" font-size="10.00">std::list&lt; VoxelCollision &gt;</text>
</g>
<!-- Node22&#45;&gt;Node21 -->
<g id="edge23" class="edge"><title>Node22&#45;&gt;Node21</title>
<path fill="none" stroke="#9a32cd" stroke-dasharray="5,2" d="M415.646,-635.509C491.205,-630.902 603.963,-624.027 649.668,-621.24"/>
<polygon fill="#9a32cd" stroke="#9a32cd" points="415.01,-632.042 405.242,-636.144 415.436,-639.029 415.01,-632.042"/>
<text text-anchor="middle" x="516" y="-636" font-family="Helvetica,sans-Serif" font-size="10.00"> m_voxelCollisions</text>
</g>
<!-- Node23&#45;&gt;Node1 -->
<g id="edge24" class="edge"><title>Node23&#45;&gt;Node1</title>
<path fill="none" stroke="#9a32cd" stroke-dasharray="5,2" d="M728.697,-427.554C772.028,-433.027 833.105,-441.743 886,-453 893.328,-454.56 901.133,-456.538 908.465,-458.542"/>
<polygon fill="#9a32cd" stroke="#9a32cd" points="728.987,-424.064 718.631,-426.301 728.122,-431.01 728.987,-424.064"/>
<text text-anchor="middle" x="821" y="-456" font-family="Helvetica,sans-Serif" font-size="10.00"> m_damageForwarder</text>
</g>
<!-- Node24&#45;&gt;Node23 -->
<g id="edge25" class="edge"><title>Node24&#45;&gt;Node23</title>
<path fill="none" stroke="#9a32cd" stroke-dasharray="5,2" d="M421.968,-411.737C469.622,-411.381 531.293,-411.612 586,-414 598.135,-414.53 611.231,-415.452 623.389,-416.456"/>
<polygon fill="#9a32cd" stroke="#9a32cd" points="421.683,-408.239 411.713,-411.824 421.743,-415.239 421.683,-408.239"/>
<text text-anchor="middle" x="516" y="-417" font-family="Helvetica,sans-Serif" font-size="10.00"> m_damageImpactAccumulator</text>
</g>
<!-- Node35 -->
<g id="node35" class="node"><title>Node35</title>
<g id="a_node35"><a xlink:href="class_damage_impact_generator.html" target="_top" xlink:title="DamageImpactGenerator">
<polygon fill="white" stroke="black" points="608.5,-458.5 608.5,-477.5 733.5,-477.5 733.5,-458.5 608.5,-458.5"/>
<text text-anchor="middle" x="671" y="-465.5" font-family="Helvetica,sans-Serif" font-size="10.00">DamageImpactGenerator</text>
</a>
</g>
</g>
<!-- Node24&#45;&gt;Node35 -->
<g id="edge44" class="edge"><title>Node24&#45;&gt;Node35</title>
<path fill="none" stroke="#9a32cd" stroke-dasharray="5,2" d="M421.623,-426.351C480.818,-436.277 560.17,-449.583 613.089,-458.457"/>
<polygon fill="#9a32cd" stroke="#9a32cd" points="422.002,-422.866 411.56,-424.664 420.844,-429.77 422.002,-422.866"/>
<text text-anchor="middle" x="516" y="-456" font-family="Helvetica,sans-Serif" font-size="10.00"> m_damageImpactAccumulator</text>
</g>
<!-- Node25&#45;&gt;Node1 -->
<g id="edge29" class="edge"><title>Node25&#45;&gt;Node1</title>
<path fill="none" stroke="#9a32cd" stroke-dasharray="5,2" d="M727.477,-580.97C781.984,-579.005 860.571,-573.33 886,-557 915.654,-537.956 931.464,-496.285 937.314,-477.508"/>
<polygon fill="#9a32cd" stroke="#9a32cd" points="727.138,-577.48 717.258,-581.306 727.368,-584.476 727.138,-577.48"/>
<text text-anchor="middle" x="821" y="-582" font-family="Helvetica,sans-Serif" font-size="10.00"> m_garbageCollector</text>
</g>
<!-- Node26 -->
<g id="node26" class="node"><title>Node26</title>
<g id="a_node26"><a xlink:href="class_world.html" target="_top" xlink:title="World">
<polygon fill="white" stroke="black" points="1294,-463.5 1294,-482.5 1336,-482.5 1336,-463.5 1294,-463.5"/>
<text text-anchor="middle" x="1315" y="-470.5" font-family="Helvetica,sans-Serif" font-size="10.00">World</text>
</a>
</g>
</g>
<!-- Node26&#45;&gt;Node1 -->
<g id="edge31" class="edge"><title>Node26&#45;&gt;Node1</title>
<path fill="none" stroke="#9a32cd" stroke-dasharray="5,2" d="M1284.17,-485.683C1281.44,-486.567 1278.69,-487.36 1276,-488 1169.57,-513.344 1138.02,-514.341 1030,-497 1006.97,-493.303 981.797,-484.49 964.297,-477.543"/>
<polygon fill="#9a32cd" stroke="#9a32cd" points="1285.62,-488.881 1293.83,-482.19 1283.24,-482.298 1285.62,-488.881"/>
<text text-anchor="middle" x="1104" y="-511" font-family="Helvetica,sans-Serif" font-size="10.00"> m_world</text>
</g>
<!-- Node26&#45;&gt;Node26 -->
<g id="edge42" class="edge"><title>Node26&#45;&gt;Node26</title>
<path fill="none" stroke="#9a32cd" stroke-dasharray="5,2" d="M1300.64,-492.766C1301.76,-497.497 1306.55,-501 1315,-501 1328.86,-501 1332.87,-491.565 1327.02,-482.757"/>
<polygon fill="#9a32cd" stroke="#9a32cd" points="1304.11,-493.292 1302.98,-482.757 1297.29,-491.697 1304.11,-493.292"/>
<text text-anchor="middle" x="1315" y="-504" font-family="Helvetica,sans-Serif" font-size="10.00"> s_instance</text>
</g>
<!-- Node27 -->
<g id="node27" class="node"><title>Node27</title>
<polygon fill="white" stroke="#bfbfbf" points="1032.5,-686.5 1032.5,-705.5 1175.5,-705.5 1175.5,-686.5 1032.5,-686.5"/>
<text text-anchor="middle" x="1104" y="-693.5" font-family="Helvetica,sans-Serif" font-size="10.00">std::unique_ptr&lt; WorldTree &gt;</text>
</g>
<!-- Node27&#45;&gt;Node26 -->
<g id="edge32" class="edge"><title>Node27&#45;&gt;Node26</title>
<path fill="none" stroke="#9a32cd" stroke-dasharray="5,2" d="M1185.82,-703.641C1217.7,-702.251 1252.29,-694.568 1276,-672 1303.9,-645.445 1311.87,-518.69 1313.6,-482.605"/>
<polygon fill="#9a32cd" stroke="#9a32cd" points="1185.5,-700.148 1175.59,-703.882 1185.67,-707.146 1185.5,-700.148"/>
<text text-anchor="middle" x="1236" y="-705" font-family="Helvetica,sans-Serif" font-size="10.00"> m_worldTree</text>
</g>
<!-- Node28&#45;&gt;Node26 -->
<g id="edge33" class="edge"><title>Node28&#45;&gt;Node26</title>
<path fill="none" stroke="#9a32cd" stroke-dasharray="5,2" d="M575.43,-669.774C636.41,-664.778 734.832,-658 820,-658 820,-658 820,-658 1105,-658 1188.53,-658 1219.55,-641.571 1276,-580 1302.38,-551.23 1310.68,-502.956 1313.09,-482.558"/>
<polygon fill="#9a32cd" stroke="#9a32cd" points="574.908,-666.306 565.233,-670.622 575.488,-673.282 574.908,-666.306"/>
<text text-anchor="middle" x="941" y="-661" font-family="Helvetica,sans-Serif" font-size="10.00"> m_worldObjects</text>
</g>
<!-- Node29&#45;&gt;Node26 -->
<g id="edge35" class="edge"><title>Node29&#45;&gt;Node26</title>
<path fill="none" stroke="#9a32cd" stroke-dasharray="5,2" d="M1188.34,-566.449C1218.13,-563.722 1250.58,-556.27 1276,-539 1295.9,-525.477 1306.71,-497.823 1311.3,-482.966"/>
<polygon fill="#9a32cd" stroke="#9a32cd" points="1188.07,-562.96 1178.36,-567.2 1188.59,-569.94 1188.07,-562.96"/>
<text text-anchor="middle" x="1236" y="-568" font-family="Helvetica,sans-Serif" font-size="10.00"> m_worldLogic</text>
</g>
<!-- Node30 -->
<g id="node30" class="node"><title>Node30</title>
<polygon fill="white" stroke="#bfbfbf" points="1055,-458 1055,-488 1153,-488 1153,-458 1055,-458"/>
<text text-anchor="start" x="1063" y="-476" font-family="Helvetica,sans-Serif" font-size="10.00">std::unordered_set</text>
<text text-anchor="middle" x="1104" y="-465" font-family="Helvetica,sans-Serif" font-size="10.00">&lt; Ship * &gt;</text>
</g>
<!-- Node30&#45;&gt;Node26 -->
<g id="edge37" class="edge"><title>Node30&#45;&gt;Node26</title>
<path fill="none" stroke="#9a32cd" stroke-dasharray="5,2" d="M1163.42,-473C1207,-473 1263.97,-473 1293.79,-473"/>
<polygon fill="#9a32cd" stroke="#9a32cd" points="1163.21,-469.5 1153.21,-473 1163.21,-476.5 1163.21,-469.5"/>
<text text-anchor="middle" x="1236" y="-476" font-family="Helvetica,sans-Serif" font-size="10.00"> m_ships</text>
</g>
<!-- Node31 -->
<g id="node31" class="node"><title>Node31</title>
<polygon fill="white" stroke="#bfbfbf" points="1038,-419.5 1038,-438.5 1170,-438.5 1170,-419.5 1038,-419.5"/>
<text text-anchor="middle" x="1104" y="-426.5" font-family="Helvetica,sans-Serif" font-size="10.00">std::unique_ptr&lt; Skybox &gt;</text>
</g>
<!-- Node31&#45;&gt;Node26 -->
<g id="edge38" class="edge"><title>Node31&#45;&gt;Node26</title>
<path fill="none" stroke="#9a32cd" stroke-dasharray="5,2" d="M1180.27,-438.31C1210.35,-442.923 1245.12,-449.388 1276,-458 1281.88,-459.639 1288.09,-461.869 1293.76,-464.109"/>
<polygon fill="#9a32cd" stroke="#9a32cd" points="1180.66,-434.83 1170.25,-436.815 1179.63,-441.753 1180.66,-434.83"/>
<text text-anchor="middle" x="1236" y="-461" font-family="Helvetica,sans-Serif" font-size="10.00"> m_skybox</text>
</g>
<!-- Node32 -->
<g id="node32" class="node"><title>Node32</title>
<polygon fill="white" stroke="#bfbfbf" points="1030,-370 1030,-400 1178,-400 1178,-370 1030,-370"/>
<text text-anchor="start" x="1038" y="-388" font-family="Helvetica,sans-Serif" font-size="10.00">std::unique_ptr&lt; VoxelParticle</text>
<text text-anchor="middle" x="1104" y="-377" font-family="Helvetica,sans-Serif" font-size="10.00">Engine &gt;</text>
</g>
<!-- Node32&#45;&gt;Node26 -->
<g id="edge39" class="edge"><title>Node32&#45;&gt;Node26</title>
<path fill="none" stroke="#9a32cd" stroke-dasharray="5,2" d="M1188.02,-393.697C1217.48,-399.584 1249.79,-409.455 1276,-426 1290.91,-435.41 1302.61,-452.711 1308.9,-463.493"/>
<polygon fill="#9a32cd" stroke="#9a32cd" points="1188.63,-390.249 1178.15,-391.849 1187.34,-397.13 1188.63,-390.249"/>
<text text-anchor="middle" x="1236" y="-429" font-family="Helvetica,sans-Serif" font-size="10.00"> m_particleEngine</text>
</g>
<!-- Node33 -->
<g id="node33" class="node"><title>Node33</title>
<polygon fill="white" stroke="#bfbfbf" points="1043,-321 1043,-351 1165,-351 1165,-321 1043,-321"/>
<text text-anchor="start" x="1051" y="-339" font-family="Helvetica,sans-Serif" font-size="10.00">std::unique_ptr&lt; Faction</text>
<text text-anchor="middle" x="1104" y="-328" font-family="Helvetica,sans-Serif" font-size="10.00">Matrix &gt;</text>
</g>
<!-- Node33&#45;&gt;Node26 -->
<g id="edge40" class="edge"><title>Node33&#45;&gt;Node26</title>
<path fill="none" stroke="#9a32cd" stroke-dasharray="5,2" d="M1175.35,-339.632C1209.22,-344.708 1248.37,-355.893 1276,-380 1301.63,-402.359 1310.26,-444.616 1312.92,-463.484"/>
<polygon fill="#9a32cd" stroke="#9a32cd" points="1175.41,-336.108 1165.03,-338.246 1174.48,-343.046 1175.41,-336.108"/>
<text text-anchor="middle" x="1236" y="-383" font-family="Helvetica,sans-Serif" font-size="10.00"> m_factionMatrix</text>
</g>
<!-- Node34 -->
<g id="node34" class="node"><title>Node34</title>
<polygon fill="white" stroke="#bfbfbf" points="1045.5,-282.5 1045.5,-301.5 1162.5,-301.5 1162.5,-282.5 1045.5,-282.5"/>
<text text-anchor="middle" x="1104" y="-289.5" font-family="Helvetica,sans-Serif" font-size="10.00">std::unique_ptr&lt; God &gt;</text>
</g>
<!-- Node34&#45;&gt;Node26 -->
<g id="edge41" class="edge"><title>Node34&#45;&gt;Node26</title>
<path fill="none" stroke="#9a32cd" stroke-dasharray="5,2" d="M1172.98,-290.622C1207.95,-293.511 1248.82,-303.018 1276,-329 1314.69,-365.986 1315.65,-437.309 1314.61,-463.258"/>
<polygon fill="#9a32cd" stroke="#9a32cd" points="1173.02,-287.117 1162.81,-289.95 1172.56,-294.102 1173.02,-287.117"/>
<text text-anchor="middle" x="1236" y="-332" font-family="Helvetica,sans-Serif" font-size="10.00"> m_god</text>
</g>
<!-- Node35&#45;&gt;Node1 -->
<g id="edge43" class="edge"><title>Node35&#45;&gt;Node1</title>
<path fill="none" stroke="#9a32cd" stroke-dasharray="5,2" d="M743.971,-468C797.627,-468 868.309,-468 908.486,-468"/>
<polygon fill="#9a32cd" stroke="#9a32cd" points="743.821,-464.5 733.821,-468 743.821,-471.5 743.821,-464.5"/>
<text text-anchor="middle" x="821" y="-471" font-family="Helvetica,sans-Serif" font-size="10.00"> m_damageImpactGenerator</text>
</g>
</g>
</svg>
        <g id="navigator" transform="translate(0 0)" fill="#404254">
                <rect fill="#f2f5e9" fill-opacity="0.5" stroke="#606060" stroke-width=".5" x="0" y="0" width="60" height="60"/>
                <use id="zoomplus" xlink:href="#zoomPlus" x="17" y="9" onmousedown="handleZoom(evt,'in')"/>
                <use id="zoomminus" xlink:href="#zoomMin" x="42" y="9" onmousedown="handleZoom(evt,'out')"/>
                <use id="reset" xlink:href="#resetDef" x="30" y="36" onmousedown="handleReset()"/>
                <g id="arrowUp" xlink:href="#dirArrow" transform="translate(30 24)" onmousedown="handlePan(0,-1)">
                  <use xlink:href="#rim" fill="#404040">
                        <set attributeName="fill" to="#808080" begin="arrowUp.mouseover" end="arrowUp.mouseout"/>
                  </use>
                  <path fill="none" stroke="white" stroke-width="1.5" d="M0,-3.0v7 M-2.5,-0.5L0,-3.0L2.5,-0.5"/>
                </g>
                <g id="arrowRight" xlink:href="#dirArrow" transform="rotate(90) translate(36 -43)" onmousedown="handlePan(1,0)">
                  <use xlink:href="#rim" fill="#404040">
                        <set attributeName="fill" to="#808080" begin="arrowRight.mouseover" end="arrowRight.mouseout"/>
                  </use>
                  <path fill="none" stroke="white" stroke-width="1.5" d="M0,-3.0v7 M-2.5,-0.5L0,-3.0L2.5,-0.5"/>
                </g>
                <g id="arrowDown" xlink:href="#dirArrow" transform="rotate(180) translate(-30 -48)" onmousedown="handlePan(0,1)">
                  <use xlink:href="#rim" fill="#404040">
                        <set attributeName="fill" to="#808080" begin="arrowDown.mouseover" end="arrowDown.mouseout"/>
                  </use>
                  <path fill="none" stroke="white" stroke-width="1.5" d="M0,-3.0v7 M-2.5,-0.5L0,-3.0L2.5,-0.5"/>
                </g>
                <g id="arrowLeft" xlink:href="#dirArrow" transform="rotate(270) translate(-36 17)" onmousedown="handlePan(-1,0)">
                  <use xlink:href="#rim" fill="#404040">
                        <set attributeName="fill" to="#808080" begin="arrowLeft.mouseover" end="arrowLeft.mouseout"/>
                  </use>
                  <path fill="none" stroke="white" stroke-width="1.5" d="M0,-3.0v7 M-2.5,-0.5L0,-3.0L2.5,-0.5"/>
                </g>
        </g>
        <svg viewBox="0 0 15 15" width="100%" height="30px" preserveAspectRatio="xMaxYMin meet">
         <g id="arrow_out" transform="scale(0.3 0.3)">
          <a xlink:href="class_world_logic__coll__graph_org.svg" target="_base">
           <rect id="button" ry="5" rx="5" y="6" x="6" height="38" width="38"
                fill="#f2f5e9" fill-opacity="0.5" stroke="#606060" stroke-width="1.0"/>
           <path id="arrow"
             d="M 11.500037,31.436501 C 11.940474,20.09759 22.043105,11.32322 32.158766,21.979434 L 37.068811,17.246167 C 37.068811,17.246167 37.088388,32 37.088388,32 L 22.160133,31.978069 C 22.160133,31.978069 26.997745,27.140456 26.997745,27.140456 C 18.528582,18.264221 13.291696,25.230495 11.500037,31.436501 z"
             style="fill:#404040;"/>
          </a>
         </g>
        </svg>
</svg>
