<?xml version="1.0" encoding="UTF-8" standalone="no"?>
<!DOCTYPE svg PUBLIC "-//W3C//DTD SVG 1.1//EN"
 "http://www.w3.org/Graphics/SVG/1.1/DTD/svg11.dtd">
<!-- Generated by graphviz version 2.36.0 (20140111.2315)
 -->
<!-- Title: RocketLauncher Pages: 1 -->
<svg width="128pt" height="196pt"
 viewBox="0.00 0.00 128.00 196.00" xmlns="http://www.w3.org/2000/svg" xmlns:xlink="http://www.w3.org/1999/xlink">
<g id="graph0" class="graph" transform="scale(1 1) rotate(0) translate(4 192)">
<title>RocketLauncher</title>
<polygon fill="white" stroke="none" points="-4,4 -4,-192 124,-192 124,4 -4,4"/>
<!-- Node1 -->
<g id="node1" class="node"><title>Node1</title>
<polygon fill="#bfbfbf" stroke="black" points="16.5,-56.5 16.5,-75.5 103.5,-75.5 103.5,-56.5 16.5,-56.5"/>
<text text-anchor="middle" x="60" y="-63.5" font-family="Helvetica,sans-Serif" font-size="10.00">RocketLauncher</text>
</g>
<!-- Node4 -->
<g id="node4" class="node"><title>Node4</title>
<g id="a_node4"><a xlink:href="class_generic_rocket_launcher.html" target="_top" xlink:title="GenericRocketLauncher">
<polygon fill="white" stroke="black" points="-0.5,-0.5 -0.5,-19.5 120.5,-19.5 120.5,-0.5 -0.5,-0.5"/>
<text text-anchor="middle" x="60" y="-7.5" font-family="Helvetica,sans-Serif" font-size="10.00">GenericRocketLauncher</text>
</a>
</g>
</g>
<!-- Node1&#45;&gt;Node4 -->
<g id="edge3" class="edge"><title>Node1&#45;&gt;Node4</title>
<path fill="none" stroke="midnightblue" d="M60,-45.8045C60,-36.9102 60,-26.7798 60,-19.7511"/>
<polygon fill="midnightblue" stroke="midnightblue" points="56.5001,-46.083 60,-56.083 63.5001,-46.083 56.5001,-46.083"/>
</g>
<!-- Node2 -->
<g id="node2" class="node"><title>Node2</title>
<g id="a_node2"><a xlink:href="class_weapon.html" target="_top" xlink:title="Weapon">
<polygon fill="white" stroke="black" points="33.5,-112.5 33.5,-131.5 86.5,-131.5 86.5,-112.5 33.5,-112.5"/>
<text text-anchor="middle" x="60" y="-119.5" font-family="Helvetica,sans-Serif" font-size="10.00">Weapon</text>
</a>
</g>
</g>
<!-- Node2&#45;&gt;Node1 -->
<g id="edge1" class="edge"><title>Node2&#45;&gt;Node1</title>
<path fill="none" stroke="midnightblue" d="M60,-101.805C60,-92.9102 60,-82.7798 60,-75.7511"/>
<polygon fill="midnightblue" stroke="midnightblue" points="56.5001,-102.083 60,-112.083 63.5001,-102.083 56.5001,-102.083"/>
</g>
<!-- Node3 -->
<g id="node3" class="node"><title>Node3</title>
<g id="a_node3"><a xlink:href="class_equipment.html" target="_top" xlink:title="Equipment">
<polygon fill="white" stroke="black" points="28.5,-168.5 28.5,-187.5 91.5,-187.5 91.5,-168.5 28.5,-168.5"/>
<text text-anchor="middle" x="60" y="-175.5" font-family="Helvetica,sans-Serif" font-size="10.00">Equipment</text>
</a>
</g>
</g>
<!-- Node3&#45;&gt;Node2 -->
<g id="edge2" class="edge"><title>Node3&#45;&gt;Node2</title>
<path fill="none" stroke="midnightblue" d="M60,-157.805C60,-148.91 60,-138.78 60,-131.751"/>
<polygon fill="midnightblue" stroke="midnightblue" points="56.5001,-158.083 60,-168.083 63.5001,-158.083 56.5001,-158.083"/>
</g>
</g>
</svg>
