<?xml version="1.0" encoding="UTF-8" standalone="no"?>
<!DOCTYPE svg PUBLIC "-//W3C//DTD SVG 1.1//EN"
 "http://www.w3.org/Graphics/SVG/1.1/DTD/svg11.dtd">
<!-- Generated by graphviz version 2.36.0 (20140111.2315)
 -->
<!-- Title: AiGroupTask Pages: 1 -->
<svg width="224pt" height="84pt"
 viewBox="0.00 0.00 224.00 84.00" xmlns="http://www.w3.org/2000/svg" xmlns:xlink="http://www.w3.org/1999/xlink">
<g id="graph0" class="graph" transform="scale(1 1) rotate(0) translate(4 80)">
<title>AiGroupTask</title>
<polygon fill="white" stroke="none" points="-4,4 -4,-80 220,-80 220,4 -4,4"/>
<!-- Node1 -->
<g id="node1" class="node"><title>Node1</title>
<polygon fill="#bfbfbf" stroke="black" points="65.5,-56.5 65.5,-75.5 138.5,-75.5 138.5,-56.5 65.5,-56.5"/>
<text text-anchor="middle" x="102" y="-63.5" font-family="Helvetica,sans-Serif" font-size="10.00">AiGroupTask</text>
</g>
<!-- Node2 -->
<g id="node2" class="node"><title>Node2</title>
<g id="a_node2"><a xlink:href="class_defend_area_task.html" target="_top" xlink:title="DefendAreaTask">
<polygon fill="white" stroke="black" points="0,-0.5 0,-19.5 88,-19.5 88,-0.5 0,-0.5"/>
<text text-anchor="middle" x="44" y="-7.5" font-family="Helvetica,sans-Serif" font-size="10.00">DefendAreaTask</text>
</a>
</g>
</g>
<!-- Node1&#45;&gt;Node2 -->
<g id="edge1" class="edge"><title>Node1&#45;&gt;Node2</title>
<path fill="none" stroke="midnightblue" d="M85.0869,-49.2533C74.797,-39.6731 62.0343,-27.7906 53.4883,-19.8339"/>
<polygon fill="midnightblue" stroke="midnightblue" points="82.9774,-52.0714 92.6813,-56.324 87.7473,-46.9481 82.9774,-52.0714"/>
</g>
<!-- Node3 -->
<g id="node3" class="node"><title>Node3</title>
<g id="a_node3"><a xlink:href="class_patrol_waypoints_task.html" target="_top" xlink:title="PatrolWaypointsTask">
<polygon fill="white" stroke="black" points="106,-0.5 106,-19.5 216,-19.5 216,-0.5 106,-0.5"/>
<text text-anchor="middle" x="161" y="-7.5" font-family="Helvetica,sans-Serif" font-size="10.00">PatrolWaypointsTask</text>
</a>
</g>
</g>
<!-- Node1&#45;&gt;Node3 -->
<g id="edge2" class="edge"><title>Node1&#45;&gt;Node3</title>
<path fill="none" stroke="midnightblue" d="M118.895,-49.5372C129.415,-39.9087 142.569,-27.8694 151.348,-19.8339"/>
<polygon fill="midnightblue" stroke="midnightblue" points="116.493,-46.9905 111.479,-56.324 121.219,-52.1542 116.493,-46.9905"/>
</g>
</g>
</svg>
