<?xml version="1.0" encoding="UTF-8" standalone="no"?>
<!DOCTYPE svg PUBLIC "-//W3C//DTD SVG 1.1//EN"
 "http://www.w3.org/Graphics/SVG/1.1/DTD/svg11.dtd">
<!-- Generated by graphviz version 2.36.0 (20140111.2315)
 -->
<!-- Title: VoxelParticleIntersectionCheck Pages: 1 -->
<!--zoomable 484 -->
<svg id="main" version="1.1" xmlns="http://www.w3.org/2000/svg" xmlns:xlink="http://www.w3.org/1999/xlink" xml:space="preserve" onload="init(evt)">
<style type="text/css"><![CDATA[
.edge:hover path { stroke: red; }
.edge:hover polygon { stroke: red; fill: red; }
]]></style>
<script type="text/javascript"><![CDATA[
var edges = document.getElementsByTagName('g');
if (edges && edges.length) {
  for (var i=0;i<edges.length;i++) {
    if (edges[i].id.substr(0,4)=='edge') {
      edges[i].setAttribute('class','edge');
    }
  }
}
]]></script>
        <defs>
                <circle id="rim" cx="0" cy="0" r="7"/>
                <circle id="rim2" cx="0" cy="0" r="3.5"/>
                <g id="zoomPlus">
                        <use xlink:href="#rim" fill="#404040">
                                <set attributeName="fill" to="#808080" begin="zoomplus.mouseover" end="zoomplus.mouseout"/>
                        </use>
                        <path d="M-4,0h8M0,-4v8" fill="none" stroke="white" stroke-width="1.5" pointer-events="none"/>
                </g>
                <g id="zoomMin">
                        <use xlink:href="#rim" fill="#404040">
                                <set attributeName="fill" to="#808080" begin="zoomminus.mouseover" end="zoomminus.mouseout"/>
                        </use>
                        <path d="M-4,0h8" fill="none" stroke="white" stroke-width="1.5" pointer-events="none"/>
                </g>
                <g id="dirArrow">
                        <path fill="none" stroke="white" stroke-width="1.5" d="M0,-3.0v7 M-2.5,-0.5L0,-3.0L2.5,-0.5"/>
                </g>
               <g id="resetDef">
                       <use xlink:href="#rim2" fill="#404040">
                               <set attributeName="fill" to="#808080" begin="reset.mouseover" end="reset.mouseout"/>
                       </use>
               </g>
        </defs>

<script type="text/javascript">
var viewWidth = 708;
var viewHeight = 484;
var sectionId = 'dynsection-1';
</script>
<script xlink:href="svgpan.js"/>
<svg id="graph" class="graph">
<g id="viewport">
<title>VoxelParticleIntersectionCheck</title>
<polygon fill="white" stroke="none" points="-4,4 -4,-480 704,-480 704,4 -4,4"/>
<!-- Node1 -->
<g id="node1" class="node"><title>Node1</title>
<polygon fill="#bfbfbf" stroke="black" points="574.5,-308 574.5,-338 699.5,-338 699.5,-308 574.5,-308"/>
<text text-anchor="start" x="582.5" y="-326" font-family="Helvetica,sans-Serif" font-size="10.00">VoxelParticleIntersection</text>
<text text-anchor="middle" x="637" y="-315" font-family="Helvetica,sans-Serif" font-size="10.00">Check</text>
</g>
<!-- Node2 -->
<g id="node2" class="node"><title>Node2</title>
<g id="a_node2"><a xlink:href="class_voxel_particle_remove_check.html" target="_top" xlink:title="VoxelParticleRemoveCheck">
<polygon fill="white" stroke="black" points="320.5,-372.5 320.5,-391.5 457.5,-391.5 457.5,-372.5 320.5,-372.5"/>
<text text-anchor="middle" x="389" y="-379.5" font-family="Helvetica,sans-Serif" font-size="10.00">VoxelParticleRemoveCheck</text>
</a>
</g>
</g>
<!-- Node2&#45;&gt;Node1 -->
<g id="edge1" class="edge"><title>Node2&#45;&gt;Node1</title>
<path fill="none" stroke="midnightblue" d="M467.763,-370.739C495.804,-365.947 527.542,-359.671 556,-352 570.122,-348.194 585.285,-342.994 598.573,-338.049"/>
<polygon fill="midnightblue" stroke="midnightblue" points="466.898,-367.335 457.612,-372.437 468.053,-374.239 466.898,-367.335"/>
</g>
<!-- Node3 -->
<g id="node3" class="node"><title>Node3</title>
<g id="a_node3"><a xlink:href="class_voxel_particle_engine.html" target="_top" xlink:title="VoxelParticleEngine">
<polygon fill="white" stroke="black" points="337,-334.5 337,-353.5 441,-353.5 441,-334.5 337,-334.5"/>
<text text-anchor="middle" x="389" y="-341.5" font-family="Helvetica,sans-Serif" font-size="10.00">VoxelParticleEngine</text>
</a>
</g>
</g>
<!-- Node3&#45;&gt;Node1 -->
<g id="edge2" class="edge"><title>Node3&#45;&gt;Node1</title>
<path fill="none" stroke="#9a32cd" stroke-dasharray="5,2" d="M451.56,-338.745C489.064,-335.543 536.824,-331.466 574.346,-328.263"/>
<polygon fill="#9a32cd" stroke="#9a32cd" points="450.936,-335.285 441.27,-339.623 451.532,-342.26 450.936,-335.285"/>
<text text-anchor="middle" x="516" y="-340" font-family="Helvetica,sans-Serif" font-size="10.00"> m_particleEngine</text>
</g>
<!-- Node4 -->
<g id="node4" class="node"><title>Node4</title>
<polygon fill="white" stroke="#bfbfbf" points="36.5,-452.5 36.5,-471.5 125.5,-471.5 125.5,-452.5 36.5,-452.5"/>
<text text-anchor="middle" x="81" y="-459.5" font-family="Helvetica,sans-Serif" font-size="10.00">std::stack&lt; int &gt;</text>
</g>
<!-- Node4&#45;&gt;Node3 -->
<g id="edge3" class="edge"><title>Node4&#45;&gt;Node3</title>
<path fill="none" stroke="#9a32cd" stroke-dasharray="5,2" d="M135.859,-466.891C185.046,-468.301 256.788,-462.239 302,-422 322.479,-403.773 300.386,-382.155 320,-363 324.823,-358.29 330.713,-354.726 336.988,-352.034"/>
<polygon fill="#9a32cd" stroke="#9a32cd" points="135.854,-463.388 125.723,-466.486 135.575,-470.382 135.854,-463.388"/>
<text text-anchor="middle" x="241" y="-468" font-family="Helvetica,sans-Serif" font-size="10.00"> m_freeParticleBufferIndices</text>
</g>
<!-- Node5 -->
<g id="node5" class="node"><title>Node5</title>
<polygon fill="white" stroke="#bfbfbf" points="17,-403 17,-433 145,-433 145,-403 17,-403"/>
<text text-anchor="start" x="25" y="-421" font-family="Helvetica,sans-Serif" font-size="10.00">std::vector&lt; VoxelParticle</text>
<text text-anchor="middle" x="81" y="-410" font-family="Helvetica,sans-Serif" font-size="10.00">Data &gt;</text>
</g>
<!-- Node5&#45;&gt;Node3 -->
<g id="edge4" class="edge"><title>Node5&#45;&gt;Node3</title>
<path fill="none" stroke="#9a32cd" stroke-dasharray="5,2" d="M155.336,-412.081C199.275,-406.587 255.457,-396.067 302,-376 311.062,-372.093 311.11,-367.283 320,-363 327.84,-359.223 336.562,-356.079 345.074,-353.508"/>
<polygon fill="#9a32cd" stroke="#9a32cd" points="154.818,-408.618 145.302,-413.275 155.645,-415.568 154.818,-408.618"/>
<text text-anchor="middle" x="241" y="-410" font-family="Helvetica,sans-Serif" font-size="10.00"> m_cpuParticleBuffer</text>
</g>
<!-- Node6 -->
<g id="node6" class="node"><title>Node6</title>
<polygon fill="white" stroke="#bfbfbf" points="7,-354 7,-384 155,-384 155,-354 7,-354"/>
<text text-anchor="start" x="15" y="-372" font-family="Helvetica,sans-Serif" font-size="10.00">std::unique_ptr&lt; VoxelParticle</text>
<text text-anchor="middle" x="81" y="-361" font-family="Helvetica,sans-Serif" font-size="10.00">Renderer &gt;</text>
</g>
<!-- Node6&#45;&gt;Node3 -->
<g id="edge5" class="edge"><title>Node6&#45;&gt;Node3</title>
<path fill="none" stroke="#9a32cd" stroke-dasharray="5,2" d="M165.342,-362.191C220.142,-357.714 290.101,-351.998 336.838,-348.18"/>
<polygon fill="#9a32cd" stroke="#9a32cd" points="164.976,-358.709 155.295,-363.012 165.546,-365.686 164.976,-358.709"/>
<text text-anchor="middle" x="241" y="-364" font-family="Helvetica,sans-Serif" font-size="10.00"> m_renderer</text>
</g>
<!-- Node7 -->
<g id="node7" class="node"><title>Node7</title>
<polygon fill="white" stroke="#bfbfbf" points="7,-305 7,-335 155,-335 155,-305 7,-305"/>
<text text-anchor="start" x="15" y="-323" font-family="Helvetica,sans-Serif" font-size="10.00">std::unique_ptr&lt; VoxelParticle</text>
<text text-anchor="middle" x="81" y="-312" font-family="Helvetica,sans-Serif" font-size="10.00">Remover &gt;</text>
</g>
<!-- Node7&#45;&gt;Node3 -->
<g id="edge6" class="edge"><title>Node7&#45;&gt;Node3</title>
<path fill="none" stroke="#9a32cd" stroke-dasharray="5,2" d="M165.344,-325.664C206.493,-328.562 256.87,-332.26 302,-336 313.208,-336.929 325.23,-338 336.627,-339.05"/>
<polygon fill="#9a32cd" stroke="#9a32cd" points="165.582,-322.172 155.362,-324.964 165.093,-329.155 165.582,-322.172"/>
<text text-anchor="middle" x="241" y="-339" font-family="Helvetica,sans-Serif" font-size="10.00"> m_remover</text>
</g>
<!-- Node8 -->
<g id="node8" class="node"><title>Node8</title>
<g id="a_node8"><a xlink:href="class_sphere.html" target="_top" xlink:title="Sphere">
<polygon fill="white" stroke="black" points="365.5,-293.5 365.5,-312.5 412.5,-312.5 412.5,-293.5 365.5,-293.5"/>
<text text-anchor="middle" x="389" y="-300.5" font-family="Helvetica,sans-Serif" font-size="10.00">Sphere</text>
</a>
</g>
</g>
<!-- Node8&#45;&gt;Node1 -->
<g id="edge7" class="edge"><title>Node8&#45;&gt;Node1</title>
<path fill="none" stroke="#9a32cd" stroke-dasharray="5,2" d="M422.787,-302.491C456.346,-302.321 509.958,-303.021 556,-308 561.901,-308.638 568.018,-309.471 574.123,-310.417"/>
<polygon fill="#9a32cd" stroke="#9a32cd" points="422.602,-298.993 412.63,-302.573 422.658,-305.992 422.602,-298.993"/>
<text text-anchor="middle" x="516" y="-311" font-family="Helvetica,sans-Serif" font-size="10.00"> m_Sphere</text>
</g>
<!-- Node9 -->
<g id="node9" class="node"><title>Node9</title>
<g id="a_node9"><a xlink:href="class_abstract_shape.html" target="_top" xlink:title="AbstractShape">
<polygon fill="white" stroke="black" points="40.5,-266.5 40.5,-285.5 121.5,-285.5 121.5,-266.5 40.5,-266.5"/>
<text text-anchor="middle" x="81" y="-273.5" font-family="Helvetica,sans-Serif" font-size="10.00">AbstractShape</text>
</a>
</g>
</g>
<!-- Node9&#45;&gt;Node8 -->
<g id="edge8" class="edge"><title>Node9&#45;&gt;Node8</title>
<path fill="none" stroke="midnightblue" d="M132.056,-280.417C199.412,-286.36 316.416,-296.684 365.407,-301.006"/>
<polygon fill="midnightblue" stroke="midnightblue" points="131.959,-276.895 121.69,-279.502 131.344,-283.868 131.959,-276.895"/>
</g>
<!-- Node10 -->
<g id="node10" class="node"><title>Node10</title>
<g id="a_node10"><a xlink:href="class_player.html" target="_top" xlink:title="Player">
<polygon fill="white" stroke="black" points="367,-133.5 367,-152.5 411,-152.5 411,-133.5 367,-133.5"/>
<text text-anchor="middle" x="389" y="-140.5" font-family="Helvetica,sans-Serif" font-size="10.00">Player</text>
</a>
</g>
</g>
<!-- Node10&#45;&gt;Node1 -->
<g id="edge9" class="edge"><title>Node10&#45;&gt;Node1</title>
<path fill="none" stroke="#9a32cd" stroke-dasharray="5,2" d="M411.454,-158.698C458.324,-192.993 569.34,-274.225 615.41,-307.934"/>
<polygon fill="#9a32cd" stroke="#9a32cd" points="413.363,-155.758 403.226,-152.678 409.23,-161.407 413.363,-155.758"/>
<text text-anchor="middle" x="516" y="-263" font-family="Helvetica,sans-Serif" font-size="10.00"> m_player</text>
</g>
<!-- Node11 -->
<g id="node11" class="node"><title>Node11</title>
<g id="a_node11"><a xlink:href="class_game_play.html" target="_top" xlink:title="GamePlay">
<polygon fill="white" stroke="red" points="50,-228.5 50,-247.5 112,-247.5 112,-228.5 50,-228.5"/>
<text text-anchor="middle" x="81" y="-235.5" font-family="Helvetica,sans-Serif" font-size="10.00">GamePlay</text>
</a>
</g>
</g>
<!-- Node11&#45;&gt;Node10 -->
<g id="edge10" class="edge"><title>Node11&#45;&gt;Node10</title>
<path fill="none" stroke="#9a32cd" stroke-dasharray="5,2" d="M122.035,-237.924C167.325,-236.553 242.512,-230.338 302,-206 333.177,-193.245 363.491,-166.784 378.412,-152.552"/>
<polygon fill="#9a32cd" stroke="#9a32cd" points="121.931,-234.426 112.018,-238.163 122.098,-241.424 121.931,-234.426"/>
<text text-anchor="middle" x="241" y="-237" font-family="Helvetica,sans-Serif" font-size="10.00"> m_gamePlay</text>
</g>
<!-- Node12 -->
<g id="node12" class="node"><title>Node12</title>
<polygon fill="white" stroke="#bfbfbf" points="0,-190.5 0,-209.5 162,-209.5 162,-190.5 0,-190.5"/>
<text text-anchor="middle" x="81" y="-197.5" font-family="Helvetica,sans-Serif" font-size="10.00">std::unique_ptr&lt; TargetSelector &gt;</text>
</g>
<!-- Node12&#45;&gt;Node10 -->
<g id="edge11" class="edge"><title>Node12&#45;&gt;Node10</title>
<path fill="none" stroke="#9a32cd" stroke-dasharray="5,2" d="M172.073,-191.907C212.154,-187.338 259.744,-180.579 302,-171 324.511,-165.897 349.526,-157.422 366.747,-151.131"/>
<polygon fill="#9a32cd" stroke="#9a32cd" points="171.604,-188.437 162.052,-193.022 172.378,-195.394 171.604,-188.437"/>
<text text-anchor="middle" x="241" y="-194" font-family="Helvetica,sans-Serif" font-size="10.00"> m_targetSelector</text>
</g>
<!-- Node13 -->
<g id="node13" class="node"><title>Node13</title>
<polygon fill="white" stroke="#bfbfbf" points="21.5,-152.5 21.5,-171.5 140.5,-171.5 140.5,-152.5 21.5,-152.5"/>
<text text-anchor="middle" x="81" y="-159.5" font-family="Helvetica,sans-Serif" font-size="10.00">std::unique_ptr&lt; HUD &gt;</text>
</g>
<!-- Node13&#45;&gt;Node10 -->
<g id="edge12" class="edge"><title>Node13&#45;&gt;Node10</title>
<path fill="none" stroke="#9a32cd" stroke-dasharray="5,2" d="M151.044,-157.713C220.407,-153.406 323.117,-147.029 366.944,-144.307"/>
<polygon fill="#9a32cd" stroke="#9a32cd" points="150.402,-154.246 140.638,-158.359 150.836,-161.233 150.402,-154.246"/>
<text text-anchor="middle" x="241" y="-159" font-family="Helvetica,sans-Serif" font-size="10.00"> m_hud</text>
</g>
<!-- Node14 -->
<g id="node14" class="node"><title>Node14</title>
<polygon fill="white" stroke="#bfbfbf" points="3.5,-114.5 3.5,-133.5 158.5,-133.5 158.5,-114.5 3.5,-114.5"/>
<text text-anchor="middle" x="81" y="-121.5" font-family="Helvetica,sans-Serif" font-size="10.00">std::unique_ptr&lt; CameraDolly &gt;</text>
</g>
<!-- Node14&#45;&gt;Node10 -->
<g id="edge13" class="edge"><title>Node14&#45;&gt;Node10</title>
<path fill="none" stroke="#9a32cd" stroke-dasharray="5,2" d="M168.793,-126.767C209.302,-128.36 258.153,-130.712 302,-134 324.156,-135.661 349.438,-138.41 366.826,-140.433"/>
<polygon fill="#9a32cd" stroke="#9a32cd" points="168.809,-123.265 158.682,-126.378 168.54,-130.26 168.809,-123.265"/>
<text text-anchor="middle" x="241" y="-137" font-family="Helvetica,sans-Serif" font-size="10.00"> m_cameraDolly</text>
</g>
<!-- Node15 -->
<g id="node15" class="node"><title>Node15</title>
<polygon fill="white" stroke="#bfbfbf" points="18.5,-76.5 18.5,-95.5 143.5,-95.5 143.5,-76.5 18.5,-76.5"/>
<text text-anchor="middle" x="81" y="-83.5" font-family="Helvetica,sans-Serif" font-size="10.00">std::unique_ptr&lt; Aimer &gt;</text>
</g>
<!-- Node15&#45;&gt;Node10 -->
<g id="edge14" class="edge"><title>Node15&#45;&gt;Node10</title>
<path fill="none" stroke="#9a32cd" stroke-dasharray="5,2" d="M153.942,-90.9285C197.246,-94.8572 253.252,-101.644 302,-113 324.639,-118.274 349.635,-127.383 366.816,-134.184"/>
<polygon fill="#9a32cd" stroke="#9a32cd" points="154.05,-87.4246 143.783,-90.0379 153.439,-94.3979 154.05,-87.4246"/>
<text text-anchor="middle" x="241" y="-116" font-family="Helvetica,sans-Serif" font-size="10.00"> m_aimer</text>
</g>
<!-- Node16 -->
<g id="node16" class="node"><title>Node16</title>
<g id="a_node16"><a xlink:href="class_handle.html" target="_top" xlink:title="Handle\&lt; Ship \&gt;">
<polygon fill="white" stroke="black" points="39,-38.5 39,-57.5 123,-57.5 123,-38.5 39,-38.5"/>
<text text-anchor="middle" x="81" y="-45.5" font-family="Helvetica,sans-Serif" font-size="10.00">Handle&lt; Ship &gt;</text>
</a>
</g>
</g>
<!-- Node16&#45;&gt;Node10 -->
<g id="edge15" class="edge"><title>Node16&#45;&gt;Node10</title>
<path fill="none" stroke="#9a32cd" stroke-dasharray="5,2" d="M133.316,-48.1101C179.139,-49.843 247.272,-56.5115 302,-79 333.331,-91.8741 363.58,-118.791 378.45,-133.276"/>
<polygon fill="#9a32cd" stroke="#9a32cd" points="133.423,-44.6118 123.318,-47.7969 133.204,-51.6084 133.423,-44.6118"/>
<text text-anchor="middle" x="241" y="-82" font-family="Helvetica,sans-Serif" font-size="10.00"> m_ship</text>
</g>
<!-- Node17 -->
<g id="node17" class="node"><title>Node17</title>
<g id="a_node17"><a xlink:href="class_abstract_move.html" target="_top" xlink:title="AbstractMove">
<polygon fill="white" stroke="black" points="43,-0.5 43,-19.5 119,-19.5 119,-0.5 43,-0.5"/>
<text text-anchor="middle" x="81" y="-7.5" font-family="Helvetica,sans-Serif" font-size="10.00">AbstractMove</text>
</a>
</g>
</g>
<!-- Node17&#45;&gt;Node10 -->
<g id="edge16" class="edge"><title>Node17&#45;&gt;Node10</title>
<path fill="none" stroke="#9a32cd" stroke-dasharray="5,2" d="M129.376,-5.94191C176.17,-4.10775 248.323,-7.28107 302,-37 343.464,-59.9574 372.631,-111.741 383.407,-133.298"/>
<polygon fill="#9a32cd" stroke="#9a32cd" points="129.032,-2.45439 119.213,-6.43467 129.371,-9.44618 129.032,-2.45439"/>
<text text-anchor="middle" x="241" y="-40" font-family="Helvetica,sans-Serif" font-size="10.00"> m_engineState</text>
</g>
</g>
</svg>
        <g id="navigator" transform="translate(0 0)" fill="#404254">
                <rect fill="#f2f5e9" fill-opacity="0.5" stroke="#606060" stroke-width=".5" x="0" y="0" width="60" height="60"/>
                <use id="zoomplus" xlink:href="#zoomPlus" x="17" y="9" onmousedown="handleZoom(evt,'in')"/>
                <use id="zoomminus" xlink:href="#zoomMin" x="42" y="9" onmousedown="handleZoom(evt,'out')"/>
                <use id="reset" xlink:href="#resetDef" x="30" y="36" onmousedown="handleReset()"/>
                <g id="arrowUp" xlink:href="#dirArrow" transform="translate(30 24)" onmousedown="handlePan(0,-1)">
                  <use xlink:href="#rim" fill="#404040">
                        <set attributeName="fill" to="#808080" begin="arrowUp.mouseover" end="arrowUp.mouseout"/>
                  </use>
                  <path fill="none" stroke="white" stroke-width="1.5" d="M0,-3.0v7 M-2.5,-0.5L0,-3.0L2.5,-0.5"/>
                </g>
                <g id="arrowRight" xlink:href="#dirArrow" transform="rotate(90) translate(36 -43)" onmousedown="handlePan(1,0)">
                  <use xlink:href="#rim" fill="#404040">
                        <set attributeName="fill" to="#808080" begin="arrowRight.mouseover" end="arrowRight.mouseout"/>
                  </use>
                  <path fill="none" stroke="white" stroke-width="1.5" d="M0,-3.0v7 M-2.5,-0.5L0,-3.0L2.5,-0.5"/>
                </g>
                <g id="arrowDown" xlink:href="#dirArrow" transform="rotate(180) translate(-30 -48)" onmousedown="handlePan(0,1)">
                  <use xlink:href="#rim" fill="#404040">
                        <set attributeName="fill" to="#808080" begin="arrowDown.mouseover" end="arrowDown.mouseout"/>
                  </use>
                  <path fill="none" stroke="white" stroke-width="1.5" d="M0,-3.0v7 M-2.5,-0.5L0,-3.0L2.5,-0.5"/>
                </g>
                <g id="arrowLeft" xlink:href="#dirArrow" transform="rotate(270) translate(-36 17)" onmousedown="handlePan(-1,0)">
                  <use xlink:href="#rim" fill="#404040">
                        <set attributeName="fill" to="#808080" begin="arrowLeft.mouseover" end="arrowLeft.mouseout"/>
                  </use>
                  <path fill="none" stroke="white" stroke-width="1.5" d="M0,-3.0v7 M-2.5,-0.5L0,-3.0L2.5,-0.5"/>
                </g>
        </g>
        <svg viewBox="0 0 15 15" width="100%" height="30px" preserveAspectRatio="xMaxYMin meet">
         <g id="arrow_out" transform="scale(0.3 0.3)">
          <a xlink:href="class_voxel_particle_intersection_check__coll__graph_org.svg" target="_base">
           <rect id="button" ry="5" rx="5" y="6" x="6" height="38" width="38"
                fill="#f2f5e9" fill-opacity="0.5" stroke="#606060" stroke-width="1.0"/>
           <path id="arrow"
             d="M 11.500037,31.436501 C 11.940474,20.09759 22.043105,11.32322 32.158766,21.979434 L 37.068811,17.246167 C 37.068811,17.246167 37.088388,32 37.088388,32 L 22.160133,31.978069 C 22.160133,31.978069 26.997745,27.140456 26.997745,27.140456 C 18.528582,18.264221 13.291696,25.230495 11.500037,31.436501 z"
             style="fill:#404040;"/>
          </a>
         </g>
        </svg>
</svg>
