<?xml version="1.0" encoding="UTF-8" standalone="no"?>
<!DOCTYPE svg PUBLIC "-//W3C//DTD SVG 1.1//EN"
 "http://www.w3.org/Graphics/SVG/1.1/DTD/svg11.dtd">
<!-- Generated by graphviz version 2.36.0 (20140111.2315)
 -->
<!-- Title: SplitDetector Pages: 1 -->
<svg width="528pt" height="126pt"
 viewBox="0.00 0.00 528.00 126.00" xmlns="http://www.w3.org/2000/svg" xmlns:xlink="http://www.w3.org/1999/xlink">
<g id="graph0" class="graph" transform="scale(1 1) rotate(0) translate(4 122)">
<title>SplitDetector</title>
<polygon fill="white" stroke="none" points="-4,4 -4,-122 524,-122 524,4 -4,4"/>
<!-- Node1 -->
<g id="node1" class="node"><title>Node1</title>
<polygon fill="#bfbfbf" stroke="black" points="446.5,-44.5 446.5,-63.5 519.5,-63.5 519.5,-44.5 446.5,-44.5"/>
<text text-anchor="middle" x="483" y="-51.5" font-family="Helvetica,sans-Serif" font-size="10.00">SplitDetector</text>
</g>
<!-- Node2 -->
<g id="node2" class="node"><title>Node2</title>
<polygon fill="white" stroke="#bfbfbf" points="214.5,-88 214.5,-118 333.5,-118 333.5,-88 214.5,-88"/>
<text text-anchor="start" x="222.5" y="-106" font-family="Helvetica,sans-Serif" font-size="10.00">std::vector&lt; std::shared</text>
<text text-anchor="middle" x="274" y="-95" font-family="Helvetica,sans-Serif" font-size="10.00">_ptr&lt; SplitData &gt; &gt;</text>
</g>
<!-- Node2&#45;&gt;Node1 -->
<g id="edge1" class="edge"><title>Node2&#45;&gt;Node1</title>
<path fill="none" stroke="#9a32cd" stroke-dasharray="5,2" d="M343.582,-88.5603C370.035,-82.7813 400.495,-75.8713 428,-69 434.702,-67.3256 441.841,-65.4262 448.657,-63.5554"/>
<polygon fill="#9a32cd" stroke="#9a32cd" points="342.683,-85.1739 333.654,-90.7174 344.17,-92.0143 342.683,-85.1739"/>
<text text-anchor="middle" x="392" y="-88" font-family="Helvetica,sans-Serif" font-size="10.00"> m_splitDataList</text>
</g>
<!-- Node3 -->
<g id="node3" class="node"><title>Node3</title>
<polygon fill="white" stroke="#bfbfbf" points="210.5,-39 210.5,-69 337.5,-69 337.5,-39 210.5,-39"/>
<text text-anchor="start" x="218.5" y="-57" font-family="Helvetica,sans-Serif" font-size="10.00">std::vector&lt; SplitDetector</text>
<text text-anchor="middle" x="274" y="-46" font-family="Helvetica,sans-Serif" font-size="10.00">::VoxelGroup &gt;</text>
</g>
<!-- Node3&#45;&gt;Node1 -->
<g id="edge2" class="edge"><title>Node3&#45;&gt;Node1</title>
<path fill="none" stroke="#9a32cd" stroke-dasharray="5,2" d="M347.86,-54C381.239,-54 419.29,-54 446.319,-54"/>
<polygon fill="#9a32cd" stroke="#9a32cd" points="347.669,-50.5001 337.669,-54 347.669,-57.5001 347.669,-50.5001"/>
<text text-anchor="middle" x="392" y="-57" font-family="Helvetica,sans-Serif" font-size="10.00"> m_voxelArray</text>
</g>
<!-- Node4 -->
<g id="node4" class="node"><title>Node4</title>
<g id="a_node4"><a xlink:href="struct_split_detector_1_1_voxel_group.html" target="_top" xlink:title="SplitDetector::VoxelGroup">
<polygon fill="white" stroke="red" points="0,-44.5 0,-63.5 130,-63.5 130,-44.5 0,-44.5"/>
<text text-anchor="middle" x="65" y="-51.5" font-family="Helvetica,sans-Serif" font-size="10.00">SplitDetector::VoxelGroup</text>
</a>
</g>
</g>
<!-- Node4&#45;&gt;Node3 -->
<g id="edge3" class="edge"><title>Node4&#45;&gt;Node3</title>
<path fill="none" stroke="#9a32cd" stroke-dasharray="5,2" d="M140.122,-54C163.094,-54 188.171,-54 210.289,-54"/>
<polygon fill="#9a32cd" stroke="#9a32cd" points="140.079,-50.5001 130.078,-54 140.078,-57.5001 140.079,-50.5001"/>
<text text-anchor="middle" x="170" y="-57" font-family="Helvetica,sans-Serif" font-size="10.00"> elements</text>
</g>
<!-- Node5 -->
<g id="node5" class="node"><title>Node5</title>
<polygon fill="white" stroke="#bfbfbf" points="213,-0.5 213,-19.5 335,-19.5 335,-0.5 213,-0.5"/>
<text text-anchor="middle" x="274" y="-7.5" font-family="Helvetica,sans-Serif" font-size="10.00">std::stack&lt; glm::ivec3 &gt;</text>
</g>
<!-- Node5&#45;&gt;Node1 -->
<g id="edge4" class="edge"><title>Node5&#45;&gt;Node1</title>
<path fill="none" stroke="#9a32cd" stroke-dasharray="5,2" d="M341.64,-21.3796C368.566,-26.3026 399.868,-32.4387 428,-39 434.917,-40.6133 442.28,-42.5262 449.273,-44.4367"/>
<polygon fill="#9a32cd" stroke="#9a32cd" points="342.015,-17.8906 331.551,-19.5539 340.768,-24.7787 342.015,-17.8906"/>
<text text-anchor="middle" x="392" y="-42" font-family="Helvetica,sans-Serif" font-size="10.00"> m_stack</text>
</g>
</g>
</svg>
