<?xml version="1.0" encoding="UTF-8" standalone="no"?>
<!DOCTYPE svg PUBLIC "-//W3C//DTD SVG 1.1//EN"
 "http://www.w3.org/Graphics/SVG/1.1/DTD/svg11.dtd">
<!-- Generated by graphviz version 2.36.0 (20140111.2315)
 -->
<!-- Title: Size&lt; T &gt; Pages: 1 -->
<svg width="77pt" height="106pt"
 viewBox="0.00 0.00 77.00 106.00" xmlns="http://www.w3.org/2000/svg" xmlns:xlink="http://www.w3.org/1999/xlink">
<g id="graph0" class="graph" transform="scale(1 1) rotate(0) translate(4 102)">
<title>Size&lt; T &gt;</title>
<polygon fill="white" stroke="none" points="-4,4 -4,-102 73,-102 73,4 -4,4"/>
<!-- Node1 -->
<g id="node1" class="node"><title>Node1</title>
<polygon fill="#bfbfbf" stroke="black" points="-0.5,-0.5 -0.5,-19.5 58.5,-19.5 58.5,-0.5 -0.5,-0.5"/>
<text text-anchor="middle" x="29" y="-7.5" font-family="Helvetica,sans-Serif" font-size="10.00">Size&lt; T &gt;</text>
</g>
<!-- Node2 -->
<g id="node2" class="node"><title>Node2</title>
<polygon fill="white" stroke="#bfbfbf" points="14.5,-78.5 14.5,-97.5 43.5,-97.5 43.5,-78.5 14.5,-78.5"/>
<text text-anchor="middle" x="29" y="-85.5" font-family="Helvetica,sans-Serif" font-size="10.00">T</text>
</g>
<!-- Node2&#45;&gt;Node1 -->
<g id="edge1" class="edge"><title>Node2&#45;&gt;Node1</title>
<path fill="none" stroke="#9a32cd" stroke-dasharray="5,2" d="M29,-68.2239C29,-52.6974 29,-31.3582 29,-19.6165"/>
<polygon fill="#9a32cd" stroke="#9a32cd" points="25.5001,-68.2818 29,-78.2818 32.5001,-68.2819 25.5001,-68.2818"/>
<text text-anchor="middle" x="49" y="-52" font-family="Helvetica,sans-Serif" font-size="10.00"> m_width</text>
<text text-anchor="middle" x="49" y="-41" font-family="Helvetica,sans-Serif" font-size="10.00">m_height</text>
</g>
</g>
</svg>
