<?xml version="1.0" encoding="UTF-8" standalone="no"?>
<!DOCTYPE svg PUBLIC "-//W3C//DTD SVG 1.1//EN"
 "http://www.w3.org/Graphics/SVG/1.1/DTD/svg11.dtd">
<!-- Generated by graphviz version 2.36.0 (20140111.2315)
 -->
<!-- Title: GameState Pages: 1 -->
<svg width="313pt" height="188pt"
 viewBox="0.00 0.00 313.00 188.00" xmlns="http://www.w3.org/2000/svg" xmlns:xlink="http://www.w3.org/1999/xlink">
<g id="graph0" class="graph" transform="scale(1 1) rotate(0) translate(4 184)">
<title>GameState</title>
<polygon fill="white" stroke="none" points="-4,4 -4,-184 309,-184 309,4 -4,4"/>
<!-- Node1 -->
<g id="node1" class="node"><title>Node1</title>
<polygon fill="#bfbfbf" stroke="black" points="0,-0.5 0,-19.5 66,-19.5 66,-0.5 0,-0.5"/>
<text text-anchor="middle" x="33" y="-7.5" font-family="Helvetica,sans-Serif" font-size="10.00">GameState</text>
</g>
<!-- Node1&#45;&gt;Node1 -->
<g id="edge7" class="edge"><title>Node1&#45;&gt;Node1</title>
<path fill="none" stroke="#9a32cd" stroke-dasharray="5,2" d="M76.6469,-15.2548C81.1326,-14.22 84,-12.4684 84,-10 84,-5.94922 76.2782,-3.82889 66.3545,-3.63901"/>
<polygon fill="#9a32cd" stroke="#9a32cd" points="75.9232,-11.8123 66.3545,-16.361 76.6713,-18.7722 75.9232,-11.8123"/>
<text text-anchor="middle" x="131" y="-7.5" font-family="Helvetica,sans-Serif" font-size="10.00"> m_parentGameState</text>
</g>
<!-- Node2 -->
<g id="node2" class="node"><title>Node2</title>
<g id="a_node2"><a xlink:href="class_state.html" target="_top" xlink:title="State">
<polygon fill="white" stroke="black" points="159,-80.5 159,-99.5 199,-99.5 199,-80.5 159,-80.5"/>
<text text-anchor="middle" x="179" y="-87.5" font-family="Helvetica,sans-Serif" font-size="10.00">State</text>
</a>
</g>
</g>
<!-- Node2&#45;&gt;Node1 -->
<g id="edge1" class="edge"><title>Node2&#45;&gt;Node1</title>
<path fill="none" stroke="midnightblue" d="M153.811,-75.5431C123.825,-59.5228 74.6239,-33.2374 49.2549,-19.6841"/>
<polygon fill="midnightblue" stroke="midnightblue" points="152.348,-78.7295 162.818,-80.3546 155.647,-72.5553 152.348,-78.7295"/>
</g>
<!-- Node2&#45;&gt;Node2 -->
<g id="edge6" class="edge"><title>Node2&#45;&gt;Node2</title>
<path fill="none" stroke="#9a32cd" stroke-dasharray="5,2" d="M209.416,-97.823C213.94,-96.6043 217,-93.9966 217,-90 217,-83.4414 208.76,-80.6233 199.329,-81.5456"/>
<polygon fill="#9a32cd" stroke="#9a32cd" points="209.091,-94.3364 199.329,-98.4544 209.529,-101.323 209.091,-94.3364"/>
<text text-anchor="middle" x="261" y="-104" font-family="Helvetica,sans-Serif" font-size="10.00"> m_currentSubState</text>
<text text-anchor="middle" x="261" y="-93" font-family="Helvetica,sans-Serif" font-size="10.00">m_initialSubState</text>
<text text-anchor="middle" x="261" y="-82" font-family="Helvetica,sans-Serif" font-size="10.00">m_finalSubState</text>
<text text-anchor="middle" x="261" y="-71" font-family="Helvetica,sans-Serif" font-size="10.00">m_parentState</text>
</g>
<!-- Node3 -->
<g id="node3" class="node"><title>Node3</title>
<polygon fill="white" stroke="#bfbfbf" points="196.5,-0.5 196.5,-19.5 293.5,-19.5 293.5,-0.5 196.5,-0.5"/>
<text text-anchor="middle" x="245" y="-7.5" font-family="Helvetica,sans-Serif" font-size="10.00">std::list&lt; State * &gt;</text>
</g>
<!-- Node2&#45;&gt;Node3 -->
<g id="edge3" class="edge"><title>Node2&#45;&gt;Node3</title>
<path fill="none" stroke="#9a32cd" stroke-dasharray="5,2" d="M172.681,-70.4489C170.346,-60.0585 169.617,-47.3518 176,-38 181.874,-29.3939 190.939,-23.5309 200.587,-19.5365"/>
<polygon fill="#9a32cd" stroke="#9a32cd" points="169.354,-71.5455 175.465,-80.2004 176.085,-69.6238 169.354,-71.5455"/>
<text text-anchor="middle" x="197.5" y="-41.5" font-family="Helvetica,sans-Serif" font-size="10.00"> elements</text>
</g>
<!-- Node3&#45;&gt;Node2 -->
<g id="edge2" class="edge"><title>Node3&#45;&gt;Node2</title>
<path fill="none" stroke="#9a32cd" stroke-dasharray="5,2" d="M236.542,-28.8456C232.854,-35.7794 228.186,-43.581 223,-50 213.505,-61.751 200.283,-72.9498 190.816,-80.3074"/>
<polygon fill="#9a32cd" stroke="#9a32cd" points="239.839,-30.0782 241.19,-19.5698 233.581,-26.9423 239.839,-30.0782"/>
<text text-anchor="middle" x="261.5" y="-41.5" font-family="Helvetica,sans-Serif" font-size="10.00"> m_subStates</text>
</g>
<!-- Node4 -->
<g id="node4" class="node"><title>Node4</title>
<g id="a_node4"><a xlink:title="STL class. ">
<polygon fill="white" stroke="#bfbfbf" points="96,-160.5 96,-179.5 156,-179.5 156,-160.5 96,-160.5"/>
<text text-anchor="middle" x="126" y="-167.5" font-family="Helvetica,sans-Serif" font-size="10.00">std::string</text>
</a>
</g>
</g>
<!-- Node4&#45;&gt;Node2 -->
<g id="edge4" class="edge"><title>Node4&#45;&gt;Node2</title>
<path fill="none" stroke="#9a32cd" stroke-dasharray="5,2" d="M137.62,-151.899C148.509,-135.874 164.357,-112.55 172.936,-99.9238"/>
<polygon fill="#9a32cd" stroke="#9a32cd" points="134.6,-150.116 131.874,-160.355 140.39,-154.05 134.6,-150.116"/>
<text text-anchor="middle" x="173.5" y="-133.5" font-family="Helvetica,sans-Serif" font-size="10.00"> m_name</text>
</g>
<!-- Node5 -->
<g id="node5" class="node"><title>Node5</title>
<polygon fill="white" stroke="#bfbfbf" points="174,-160.5 174,-179.5 290,-179.5 290,-160.5 174,-160.5"/>
<text text-anchor="middle" x="232" y="-167.5" font-family="Helvetica,sans-Serif" font-size="10.00">std::list&lt; Transition * &gt;</text>
</g>
<!-- Node5&#45;&gt;Node2 -->
<g id="edge5" class="edge"><title>Node5&#45;&gt;Node2</title>
<path fill="none" stroke="#9a32cd" stroke-dasharray="5,2" d="M220.38,-151.899C209.491,-135.874 193.643,-112.55 185.064,-99.9238"/>
<polygon fill="#9a32cd" stroke="#9a32cd" points="217.61,-154.05 226.126,-160.355 223.4,-150.116 217.61,-154.05"/>
<text text-anchor="middle" x="245" y="-133.5" font-family="Helvetica,sans-Serif" font-size="10.00"> m_transitions</text>
</g>
</g>
</svg>
