<?xml version="1.0" encoding="UTF-8" standalone="no"?>
<!DOCTYPE svg PUBLIC "-//W3C//DTD SVG 1.1//EN"
 "http://www.w3.org/Graphics/SVG/1.1/DTD/svg11.dtd">
<!-- Generated by graphviz version 2.36.0 (20140111.2315)
 -->
<!-- Title: Game Pages: 1 -->
<!--zoomable 284 -->
<svg id="main" version="1.1" xmlns="http://www.w3.org/2000/svg" xmlns:xlink="http://www.w3.org/1999/xlink" xml:space="preserve" onload="init(evt)">
<style type="text/css"><![CDATA[
.edge:hover path { stroke: red; }
.edge:hover polygon { stroke: red; fill: red; }
]]></style>
<script type="text/javascript"><![CDATA[
var edges = document.getElementsByTagName('g');
if (edges && edges.length) {
  for (var i=0;i<edges.length;i++) {
    if (edges[i].id.substr(0,4)=='edge') {
      edges[i].setAttribute('class','edge');
    }
  }
}
]]></script>
        <defs>
                <circle id="rim" cx="0" cy="0" r="7"/>
                <circle id="rim2" cx="0" cy="0" r="3.5"/>
                <g id="zoomPlus">
                        <use xlink:href="#rim" fill="#404040">
                                <set attributeName="fill" to="#808080" begin="zoomplus.mouseover" end="zoomplus.mouseout"/>
                        </use>
                        <path d="M-4,0h8M0,-4v8" fill="none" stroke="white" stroke-width="1.5" pointer-events="none"/>
                </g>
                <g id="zoomMin">
                        <use xlink:href="#rim" fill="#404040">
                                <set attributeName="fill" to="#808080" begin="zoomminus.mouseover" end="zoomminus.mouseout"/>
                        </use>
                        <path d="M-4,0h8" fill="none" stroke="white" stroke-width="1.5" pointer-events="none"/>
                </g>
                <g id="dirArrow">
                        <path fill="none" stroke="white" stroke-width="1.5" d="M0,-3.0v7 M-2.5,-0.5L0,-3.0L2.5,-0.5"/>
                </g>
               <g id="resetDef">
                       <use xlink:href="#rim2" fill="#404040">
                               <set attributeName="fill" to="#808080" begin="reset.mouseover" end="reset.mouseout"/>
                       </use>
               </g>
        </defs>

<script type="text/javascript">
var viewWidth = 861;
var viewHeight = 284;
var sectionId = 'dynsection-1';
</script>
<script xlink:href="svgpan.js"/>
<svg id="graph" class="graph">
<g id="viewport">
<title>Game</title>
<polygon fill="white" stroke="none" points="-4,4 -4,-279.942 857,-279.942 857,4 -4,4"/>
<!-- Node1 -->
<g id="node1" class="node"><title>Node1</title>
<polygon fill="#bfbfbf" stroke="black" points="385.5,-156.5 385.5,-175.5 428.5,-175.5 428.5,-156.5 385.5,-156.5"/>
<text text-anchor="middle" x="407" y="-163.5" font-family="Helvetica,sans-Serif" font-size="10.00">Game</text>
</g>
<!-- Node4 -->
<g id="node4" class="node"><title>Node4</title>
<g id="a_node4"><a xlink:href="class_game_play.html" target="_top" xlink:title="GamePlay">
<polygon fill="white" stroke="black" points="585,-155.5 585,-174.5 647,-174.5 647,-155.5 585,-155.5"/>
<text text-anchor="middle" x="616" y="-162.5" font-family="Helvetica,sans-Serif" font-size="10.00">GamePlay</text>
</a>
</g>
</g>
<!-- Node1&#45;&gt;Node4 -->
<g id="edge7" class="edge"><title>Node1&#45;&gt;Node4</title>
<path fill="none" stroke="#9a32cd" stroke-dasharray="5,2" d="M438.751,-158.815C470.854,-152.315 522.611,-144.659 567,-151 573.703,-151.958 580.777,-153.631 587.374,-155.496"/>
<polygon fill="#9a32cd" stroke="#9a32cd" points="437.714,-155.457 428.657,-160.953 439.165,-162.305 437.714,-155.457"/>
<text text-anchor="middle" x="536" y="-154" font-family="Helvetica,sans-Serif" font-size="10.00"> m_game</text>
</g>
<!-- Node2 -->
<g id="node2" class="node"><title>Node2</title>
<g id="a_node2"><a xlink:href="class_game_state.html" target="_top" xlink:title="GameState">
<polygon fill="white" stroke="black" points="150,-181.5 150,-200.5 216,-200.5 216,-181.5 150,-181.5"/>
<text text-anchor="middle" x="183" y="-188.5" font-family="Helvetica,sans-Serif" font-size="10.00">GameState</text>
</a>
</g>
</g>
<!-- Node2&#45;&gt;Node1 -->
<g id="edge1" class="edge"><title>Node2&#45;&gt;Node1</title>
<path fill="none" stroke="midnightblue" d="M226.277,-186.239C273.845,-180.882 349.175,-172.399 385.318,-168.329"/>
<polygon fill="midnightblue" stroke="midnightblue" points="225.826,-182.768 216.281,-187.365 226.61,-189.724 225.826,-182.768"/>
</g>
<!-- Node2&#45;&gt;Node2 -->
<g id="edge4" class="edge"><title>Node2&#45;&gt;Node2</title>
<path fill="none" stroke="#9a32cd" stroke-dasharray="5,2" d="M166.334,-210.4C167.447,-215.315 173.002,-219 183,-219 198.996,-219 203.62,-209.565 196.872,-200.757"/>
<polygon fill="#9a32cd" stroke="#9a32cd" points="169.707,-211.336 169.128,-200.757 162.983,-209.388 169.707,-211.336"/>
<text text-anchor="middle" x="183" y="-222" font-family="Helvetica,sans-Serif" font-size="10.00"> m_parentGameState</text>
</g>
<!-- Node2&#45;&gt;Node4 -->
<g id="edge6" class="edge"><title>Node2&#45;&gt;Node4</title>
<path fill="none" stroke="midnightblue" d="M226.387,-191.354C250.589,-191.468 281.499,-191.463 309,-191 423.736,-189.067 454.223,-202.205 567,-181 574.77,-179.539 583.009,-177.128 590.427,-174.615"/>
<polygon fill="midnightblue" stroke="midnightblue" points="226.135,-187.853 216.116,-191.297 226.097,-194.853 226.135,-187.853"/>
</g>
<!-- Node8 -->
<g id="node8" class="node"><title>Node8</title>
<g id="a_node8"><a xlink:href="class_game_play_running.html" target="_top" xlink:title="GamePlayRunning">
<polygon fill="white" stroke="red" points="755,-104.5 755,-123.5 853,-123.5 853,-104.5 755,-104.5"/>
<text text-anchor="middle" x="804" y="-111.5" font-family="Helvetica,sans-Serif" font-size="10.00">GamePlayRunning</text>
</a>
</g>
</g>
<!-- Node2&#45;&gt;Node8 -->
<g id="edge12" class="edge"><title>Node2&#45;&gt;Node8</title>
<path fill="none" stroke="midnightblue" d="M196.074,-172.619C217.843,-141.374 267.028,-78.9644 327,-55 492.478,11.1242 713.922,-74.5317 782.13,-104.417"/>
<polygon fill="midnightblue" stroke="midnightblue" points="192.943,-171 190.217,-181.238 198.733,-174.934 192.943,-171"/>
</g>
<!-- Node9 -->
<g id="node9" class="node"><title>Node9</title>
<g id="a_node9"><a xlink:href="class_game_play_paused.html" target="_top" xlink:title="GamePlayPaused">
<polygon fill="white" stroke="red" points="756.5,-206.5 756.5,-225.5 851.5,-225.5 851.5,-206.5 756.5,-206.5"/>
<text text-anchor="middle" x="804" y="-213.5" font-family="Helvetica,sans-Serif" font-size="10.00">GamePlayPaused</text>
</a>
</g>
</g>
<!-- Node2&#45;&gt;Node9 -->
<g id="edge15" class="edge"><title>Node2&#45;&gt;Node9</title>
<path fill="none" stroke="midnightblue" d="M206.488,-206.299C233.645,-223.764 281.377,-251.297 327,-262 492.296,-300.777 697.254,-248.248 773.028,-225.544"/>
<polygon fill="midnightblue" stroke="midnightblue" points="208.059,-203.144 197.777,-200.586 204.219,-208.997 208.059,-203.144"/>
</g>
<!-- Node3 -->
<g id="node3" class="node"><title>Node3</title>
<g id="a_node3"><a xlink:href="class_state.html" target="_top" xlink:title="State">
<polygon fill="white" stroke="red" points="24,-181.5 24,-200.5 64,-200.5 64,-181.5 24,-181.5"/>
<text text-anchor="middle" x="44" y="-188.5" font-family="Helvetica,sans-Serif" font-size="10.00">State</text>
</a>
</g>
</g>
<!-- Node3&#45;&gt;Node2 -->
<g id="edge2" class="edge"><title>Node3&#45;&gt;Node2</title>
<path fill="none" stroke="midnightblue" d="M74.227,-191C96.4672,-191 127.049,-191 149.955,-191"/>
<polygon fill="midnightblue" stroke="midnightblue" points="74.0493,-187.5 64.0493,-191 74.0492,-194.5 74.0493,-187.5"/>
</g>
<!-- Node3&#45;&gt;Node3 -->
<g id="edge3" class="edge"><title>Node3&#45;&gt;Node3</title>
<path fill="none" stroke="#9a32cd" stroke-dasharray="5,2" d="M35.1605,-210.766C35.8548,-215.497 38.8013,-219 44,-219 52.5313,-219 54.9973,-209.565 51.3982,-200.757"/>
<polygon fill="#9a32cd" stroke="#9a32cd" points="38.6407,-211.154 36.6018,-200.757 31.7122,-210.156 38.6407,-211.154"/>
<text text-anchor="middle" x="44" y="-255" font-family="Helvetica,sans-Serif" font-size="10.00"> m_currentSubState</text>
<text text-anchor="middle" x="44" y="-244" font-family="Helvetica,sans-Serif" font-size="10.00">m_initialSubState</text>
<text text-anchor="middle" x="44" y="-233" font-family="Helvetica,sans-Serif" font-size="10.00">m_finalSubState</text>
<text text-anchor="middle" x="44" y="-222" font-family="Helvetica,sans-Serif" font-size="10.00">m_parentState</text>
</g>
<!-- Node4&#45;&gt;Node1 -->
<g id="edge5" class="edge"><title>Node4&#45;&gt;Node1</title>
<path fill="none" stroke="#9a32cd" stroke-dasharray="5,2" d="M574.815,-165.194C530.997,-165.406 462.592,-165.736 428.605,-165.9"/>
<polygon fill="#9a32cd" stroke="#9a32cd" points="574.866,-168.694 584.849,-165.146 574.832,-161.694 574.866,-168.694"/>
<text text-anchor="middle" x="536" y="-169" font-family="Helvetica,sans-Serif" font-size="10.00"> m_gamePlay</text>
</g>
<!-- Node4&#45;&gt;Node8 -->
<g id="edge13" class="edge"><title>Node4&#45;&gt;Node8</title>
<path fill="none" stroke="#9a32cd" stroke-dasharray="5,2" d="M628.602,-146.933C637.121,-135.44 649.825,-121.533 665,-115 693.058,-102.921 727.399,-102.626 754.804,-105.373"/>
<polygon fill="#9a32cd" stroke="#9a32cd" points="625.522,-145.233 622.7,-155.445 631.274,-149.221 625.522,-145.233"/>
<text text-anchor="middle" x="701" y="-118" font-family="Helvetica,sans-Serif" font-size="10.00"> m_gamePlay</text>
</g>
<!-- Node4&#45;&gt;Node9 -->
<g id="edge16" class="edge"><title>Node4&#45;&gt;Node9</title>
<path fill="none" stroke="#9a32cd" stroke-dasharray="5,2" d="M657.276,-166.802C680.948,-168.734 711.196,-172.732 737,-181 755.774,-187.015 775.521,-198.226 788.468,-206.342"/>
<polygon fill="#9a32cd" stroke="#9a32cd" points="657.463,-163.306 647.235,-166.072 656.955,-170.288 657.463,-163.306"/>
<text text-anchor="middle" x="701" y="-184" font-family="Helvetica,sans-Serif" font-size="10.00"> m_gamePlay</text>
</g>
<!-- Node5 -->
<g id="node5" class="node"><title>Node5</title>
<polygon fill="white" stroke="#bfbfbf" points="339,-65 339,-95 475,-95 475,-65 339,-65"/>
<text text-anchor="start" x="347" y="-83" font-family="Helvetica,sans-Serif" font-size="10.00">std::unique_ptr&lt; GamePlay</text>
<text text-anchor="middle" x="407" y="-72" font-family="Helvetica,sans-Serif" font-size="10.00">Scene &gt;</text>
</g>
<!-- Node5&#45;&gt;Node4 -->
<g id="edge8" class="edge"><title>Node5&#45;&gt;Node4</title>
<path fill="none" stroke="#9a32cd" stroke-dasharray="5,2" d="M485.592,-82.8633C512.758,-86.5828 542.556,-93.9197 567,-108 586.73,-119.365 602.019,-142.045 609.648,-155.109"/>
<polygon fill="#9a32cd" stroke="#9a32cd" points="485.678,-79.3477 475.327,-81.6084 484.828,-86.296 485.678,-79.3477"/>
<text text-anchor="middle" x="536" y="-111" font-family="Helvetica,sans-Serif" font-size="10.00"> m_scene</text>
</g>
<!-- Node6 -->
<g id="node6" class="node"><title>Node6</title>
<polygon fill="white" stroke="#bfbfbf" points="327,-233.5 327,-252.5 487,-252.5 487,-233.5 327,-233.5"/>
<text text-anchor="middle" x="407" y="-240.5" font-family="Helvetica,sans-Serif" font-size="10.00">std::unique_ptr&lt; BaseScenario &gt;</text>
</g>
<!-- Node6&#45;&gt;Node4 -->
<g id="edge9" class="edge"><title>Node6&#45;&gt;Node4</title>
<path fill="none" stroke="#9a32cd" stroke-dasharray="5,2" d="M497.243,-241.997C521.012,-238.765 545.92,-232.511 567,-221 586.78,-210.199 602.05,-187.78 609.662,-174.824"/>
<polygon fill="#9a32cd" stroke="#9a32cd" points="496.655,-238.542 487.14,-243.203 497.485,-245.493 496.655,-238.542"/>
<text text-anchor="middle" x="536" y="-244" font-family="Helvetica,sans-Serif" font-size="10.00"> m_scenario</text>
</g>
<!-- Node7 -->
<g id="node7" class="node"><title>Node7</title>
<polygon fill="white" stroke="#bfbfbf" points="343.5,-114.5 343.5,-133.5 470.5,-133.5 470.5,-114.5 343.5,-114.5"/>
<text text-anchor="middle" x="407" y="-121.5" font-family="Helvetica,sans-Serif" font-size="10.00">std::unique_ptr&lt; Player &gt;</text>
</g>
<!-- Node7&#45;&gt;Node4 -->
<g id="edge10" class="edge"><title>Node7&#45;&gt;Node4</title>
<path fill="none" stroke="#9a32cd" stroke-dasharray="5,2" d="M480.54,-120.869C508.192,-121.652 539.625,-124.985 567,-134 580.757,-138.53 594.434,-147.976 603.649,-155.257"/>
<polygon fill="#9a32cd" stroke="#9a32cd" points="480.599,-117.37 470.538,-120.691 480.473,-124.369 480.599,-117.37"/>
<text text-anchor="middle" x="536" y="-137" font-family="Helvetica,sans-Serif" font-size="10.00"> m_player</text>
</g>
<!-- Node8&#45;&gt;Node4 -->
<g id="edge11" class="edge"><title>Node8&#45;&gt;Node4</title>
<path fill="none" stroke="#9a32cd" stroke-dasharray="5,2" d="M751.967,-125.996C725.834,-132.378 693.583,-140.624 665,-149 658.341,-150.952 651.22,-153.222 644.558,-155.429"/>
<polygon fill="#9a32cd" stroke="#9a32cd" points="753.134,-129.315 762.028,-123.557 751.485,-122.512 753.134,-129.315"/>
<text text-anchor="middle" x="701" y="-152" font-family="Helvetica,sans-Serif" font-size="10.00"> m_runningState</text>
</g>
<!-- Node9&#45;&gt;Node4 -->
<g id="edge14" class="edge"><title>Node9&#45;&gt;Node4</title>
<path fill="none" stroke="#9a32cd" stroke-dasharray="5,2" d="M745.986,-211.889C720.618,-208.805 690.732,-203.416 665,-194 652.199,-189.316 639.044,-181.082 629.75,-174.582"/>
<polygon fill="#9a32cd" stroke="#9a32cd" points="745.862,-215.397 756.191,-213.036 746.644,-208.441 745.862,-215.397"/>
<text text-anchor="middle" x="701" y="-214" font-family="Helvetica,sans-Serif" font-size="10.00"> m_pausedState</text>
</g>
<!-- Node10 -->
<g id="node10" class="node"><title>Node10</title>
<polygon fill="white" stroke="#bfbfbf" points="119,-0.5 119,-19.5 247,-19.5 247,-0.5 119,-0.5"/>
<text text-anchor="middle" x="183" y="-7.5" font-family="Helvetica,sans-Serif" font-size="10.00">std::unique_ptr&lt; Viewer &gt;</text>
</g>
<!-- Node10&#45;&gt;Node1 -->
<g id="edge17" class="edge"><title>Node10&#45;&gt;Node1</title>
<path fill="none" stroke="#9a32cd" stroke-dasharray="5,2" d="M198.01,-27.5121C221.638,-55.8987 272.221,-111.908 327,-143 345.386,-153.436 368.917,-159.492 385.5,-162.745"/>
<polygon fill="#9a32cd" stroke="#9a32cd" points="200.612,-25.1656 191.568,-19.6475 195.197,-29.6014 200.612,-25.1656"/>
<text text-anchor="middle" x="287" y="-132" font-family="Helvetica,sans-Serif" font-size="10.00"> m_viewer</text>
</g>
<!-- Node11 -->
<g id="node11" class="node"><title>Node11</title>
<g id="a_node11"><a xlink:href="class_viewer.html" target="_top" xlink:title="Viewer">
<polygon fill="white" stroke="red" points="21,-0.5 21,-19.5 67,-19.5 67,-0.5 21,-0.5"/>
<text text-anchor="middle" x="44" y="-7.5" font-family="Helvetica,sans-Serif" font-size="10.00">Viewer</text>
</a>
</g>
</g>
<!-- Node11&#45;&gt;Node10 -->
<g id="edge18" class="edge"><title>Node11&#45;&gt;Node10</title>
<path fill="none" stroke="#9a32cd" stroke-dasharray="5,2" d="M77.3317,-10C89.8061,-10 104.524,-10 118.921,-10"/>
<polygon fill="#9a32cd" stroke="#9a32cd" points="77.0115,-6.5001 67.0114,-10 77.0114,-13.5001 77.0115,-6.5001"/>
<text text-anchor="middle" x="93" y="-13" font-family="Helvetica,sans-Serif" font-size="10.00"> ptr</text>
</g>
</g>
</svg>
        <g id="navigator" transform="translate(0 0)" fill="#404254">
                <rect fill="#f2f5e9" fill-opacity="0.5" stroke="#606060" stroke-width=".5" x="0" y="0" width="60" height="60"/>
                <use id="zoomplus" xlink:href="#zoomPlus" x="17" y="9" onmousedown="handleZoom(evt,'in')"/>
                <use id="zoomminus" xlink:href="#zoomMin" x="42" y="9" onmousedown="handleZoom(evt,'out')"/>
                <use id="reset" xlink:href="#resetDef" x="30" y="36" onmousedown="handleReset()"/>
                <g id="arrowUp" xlink:href="#dirArrow" transform="translate(30 24)" onmousedown="handlePan(0,-1)">
                  <use xlink:href="#rim" fill="#404040">
                        <set attributeName="fill" to="#808080" begin="arrowUp.mouseover" end="arrowUp.mouseout"/>
                  </use>
                  <path fill="none" stroke="white" stroke-width="1.5" d="M0,-3.0v7 M-2.5,-0.5L0,-3.0L2.5,-0.5"/>
                </g>
                <g id="arrowRight" xlink:href="#dirArrow" transform="rotate(90) translate(36 -43)" onmousedown="handlePan(1,0)">
                  <use xlink:href="#rim" fill="#404040">
                        <set attributeName="fill" to="#808080" begin="arrowRight.mouseover" end="arrowRight.mouseout"/>
                  </use>
                  <path fill="none" stroke="white" stroke-width="1.5" d="M0,-3.0v7 M-2.5,-0.5L0,-3.0L2.5,-0.5"/>
                </g>
                <g id="arrowDown" xlink:href="#dirArrow" transform="rotate(180) translate(-30 -48)" onmousedown="handlePan(0,1)">
                  <use xlink:href="#rim" fill="#404040">
                        <set attributeName="fill" to="#808080" begin="arrowDown.mouseover" end="arrowDown.mouseout"/>
                  </use>
                  <path fill="none" stroke="white" stroke-width="1.5" d="M0,-3.0v7 M-2.5,-0.5L0,-3.0L2.5,-0.5"/>
                </g>
                <g id="arrowLeft" xlink:href="#dirArrow" transform="rotate(270) translate(-36 17)" onmousedown="handlePan(-1,0)">
                  <use xlink:href="#rim" fill="#404040">
                        <set attributeName="fill" to="#808080" begin="arrowLeft.mouseover" end="arrowLeft.mouseout"/>
                  </use>
                  <path fill="none" stroke="white" stroke-width="1.5" d="M0,-3.0v7 M-2.5,-0.5L0,-3.0L2.5,-0.5"/>
                </g>
        </g>
        <svg viewBox="0 0 15 15" width="100%" height="30px" preserveAspectRatio="xMaxYMin meet">
         <g id="arrow_out" transform="scale(0.3 0.3)">
          <a xlink:href="class_game__coll__graph_org.svg" target="_base">
           <rect id="button" ry="5" rx="5" y="6" x="6" height="38" width="38"
                fill="#f2f5e9" fill-opacity="0.5" stroke="#606060" stroke-width="1.0"/>
           <path id="arrow"
             d="M 11.500037,31.436501 C 11.940474,20.09759 22.043105,11.32322 32.158766,21.979434 L 37.068811,17.246167 C 37.068811,17.246167 37.088388,32 37.088388,32 L 22.160133,31.978069 C 22.160133,31.978069 26.997745,27.140456 26.997745,27.140456 C 18.528582,18.264221 13.291696,25.230495 11.500037,31.436501 z"
             style="fill:#404040;"/>
          </a>
         </g>
        </svg>
</svg>
