<?xml version="1.0" encoding="UTF-8" standalone="no"?>
<!DOCTYPE svg PUBLIC "-//W3C//DTD SVG 1.1//EN"
 "http://www.w3.org/Graphics/SVG/1.1/DTD/svg11.dtd">
<!-- Generated by graphviz version 2.36.0 (20140111.2315)
 -->
<!-- Title: VoxelAccumulator&lt; Accumulatable &gt; Pages: 1 -->
<svg width="309pt" height="176pt"
 viewBox="0.00 0.00 309.00 176.00" xmlns="http://www.w3.org/2000/svg" xmlns:xlink="http://www.w3.org/1999/xlink">
<g id="graph0" class="graph" transform="scale(1 1) rotate(0) translate(4 172)">
<title>VoxelAccumulator&lt; Accumulatable &gt;</title>
<polygon fill="white" stroke="none" points="-4,4 -4,-172 305,-172 305,4 -4,4"/>
<!-- Node1 -->
<g id="node1" class="node"><title>Node1</title>
<polygon fill="#bfbfbf" stroke="black" points="37.5,-0.5 37.5,-19.5 216.5,-19.5 216.5,-0.5 37.5,-0.5"/>
<text text-anchor="middle" x="127" y="-7.5" font-family="Helvetica,sans-Serif" font-size="10.00">VoxelAccumulator&lt; Accumulatable &gt;</text>
</g>
<!-- Node2 -->
<g id="node2" class="node"><title>Node2</title>
<polygon fill="white" stroke="#bfbfbf" points="-0.5,-74.5 -0.5,-93.5 130.5,-93.5 130.5,-74.5 -0.5,-74.5"/>
<text text-anchor="middle" x="65" y="-81.5" font-family="Helvetica,sans-Serif" font-size="10.00">std::list&lt; Accumulatable &gt;</text>
</g>
<!-- Node2&#45;&gt;Node1 -->
<g id="edge1" class="edge"><title>Node2&#45;&gt;Node1</title>
<path fill="none" stroke="#9a32cd" stroke-dasharray="5,2" d="M69.4723,-64.4898C72.2747,-55.7477 76.5993,-45.5921 83,-38 89.4701,-30.3255 98.7008,-24.1983 107.038,-19.7333"/>
<polygon fill="#9a32cd" stroke="#9a32cd" points="66.0835,-63.6124 66.7717,-74.1848 72.8268,-65.4908 66.0835,-63.6124"/>
<text text-anchor="middle" x="125.5" y="-41.5" font-family="Helvetica,sans-Serif" font-size="10.00"> m_accumulatables</text>
</g>
<!-- Node3 -->
<g id="node3" class="node"><title>Node3</title>
<polygon fill="white" stroke="#bfbfbf" points="149,-69 149,-99 265,-99 265,-69 149,-69"/>
<text text-anchor="start" x="157" y="-87" font-family="Helvetica,sans-Serif" font-size="10.00">std::map&lt; const Voxel</text>
<text text-anchor="middle" x="207" y="-76" font-family="Helvetica,sans-Serif" font-size="10.00"> *, Accumulatable &gt;</text>
</g>
<!-- Node3&#45;&gt;Node1 -->
<g id="edge2" class="edge"><title>Node3&#45;&gt;Node1</title>
<path fill="none" stroke="#9a32cd" stroke-dasharray="5,2" d="M189.842,-60.7963C183.408,-53.1492 175.766,-44.8047 168,-38 160.051,-31.0351 150.184,-24.4828 142.121,-19.5774"/>
<polygon fill="#9a32cd" stroke="#9a32cd" points="187.265,-63.1751 196.296,-68.7146 192.691,-58.7521 187.265,-63.1751"/>
<text text-anchor="middle" x="240" y="-41.5" font-family="Helvetica,sans-Serif" font-size="10.00"> m_voxelAccumulatableMap</text>
</g>
<!-- Node4 -->
<g id="node4" class="node"><title>Node4</title>
<g id="a_node4"><a xlink:href="class_voxel.html" target="_top" xlink:title="Voxel">
<polygon fill="white" stroke="red" points="186.5,-148.5 186.5,-167.5 227.5,-167.5 227.5,-148.5 186.5,-148.5"/>
<text text-anchor="middle" x="207" y="-155.5" font-family="Helvetica,sans-Serif" font-size="10.00">Voxel</text>
</a>
</g>
</g>
<!-- Node4&#45;&gt;Node3 -->
<g id="edge3" class="edge"><title>Node4&#45;&gt;Node3</title>
<path fill="none" stroke="#9a32cd" stroke-dasharray="5,2" d="M207,-138.085C207,-125.915 207,-110.354 207,-99.2316"/>
<polygon fill="#9a32cd" stroke="#9a32cd" points="203.5,-138.458 207,-148.458 210.5,-138.458 203.5,-138.458"/>
<text text-anchor="middle" x="219.5" y="-121.5" font-family="Helvetica,sans-Serif" font-size="10.00"> keys</text>
</g>
</g>
</svg>
