<?xml version="1.0" encoding="UTF-8" standalone="no"?>
<!DOCTYPE svg PUBLIC "-//W3C//DTD SVG 1.1//EN"
 "http://www.w3.org/Graphics/SVG/1.1/DTD/svg11.dtd">
<!-- Generated by graphviz version 2.36.0 (20140111.2315)
 -->
<!-- Title: FightTask Pages: 1 -->
<!--zoomable 210 -->
<svg id="main" version="1.1" xmlns="http://www.w3.org/2000/svg" xmlns:xlink="http://www.w3.org/1999/xlink" xml:space="preserve" onload="init(evt)">
<style type="text/css"><![CDATA[
.edge:hover path { stroke: red; }
.edge:hover polygon { stroke: red; fill: red; }
]]></style>
<script type="text/javascript"><![CDATA[
var edges = document.getElementsByTagName('g');
if (edges && edges.length) {
  for (var i=0;i<edges.length;i++) {
    if (edges[i].id.substr(0,4)=='edge') {
      edges[i].setAttribute('class','edge');
    }
  }
}
]]></script>
        <defs>
                <circle id="rim" cx="0" cy="0" r="7"/>
                <circle id="rim2" cx="0" cy="0" r="3.5"/>
                <g id="zoomPlus">
                        <use xlink:href="#rim" fill="#404040">
                                <set attributeName="fill" to="#808080" begin="zoomplus.mouseover" end="zoomplus.mouseout"/>
                        </use>
                        <path d="M-4,0h8M0,-4v8" fill="none" stroke="white" stroke-width="1.5" pointer-events="none"/>
                </g>
                <g id="zoomMin">
                        <use xlink:href="#rim" fill="#404040">
                                <set attributeName="fill" to="#808080" begin="zoomminus.mouseover" end="zoomminus.mouseout"/>
                        </use>
                        <path d="M-4,0h8" fill="none" stroke="white" stroke-width="1.5" pointer-events="none"/>
                </g>
                <g id="dirArrow">
                        <path fill="none" stroke="white" stroke-width="1.5" d="M0,-3.0v7 M-2.5,-0.5L0,-3.0L2.5,-0.5"/>
                </g>
               <g id="resetDef">
                       <use xlink:href="#rim2" fill="#404040">
                               <set attributeName="fill" to="#808080" begin="reset.mouseover" end="reset.mouseout"/>
                       </use>
               </g>
        </defs>

<script type="text/javascript">
var viewWidth = 900;
var viewHeight = 210;
var sectionId = 'dynsection-1';
</script>
<script xlink:href="svgpan.js"/>
<svg id="graph" class="graph">
<g id="viewport">
<title>FightTask</title>
<polygon fill="white" stroke="none" points="-4,4 -4,-206 896,-206 896,4 -4,4"/>
<!-- Node1 -->
<g id="node1" class="node"><title>Node1</title>
<polygon fill="#bfbfbf" stroke="black" points="813.5,-135.5 813.5,-154.5 872.5,-154.5 872.5,-135.5 813.5,-135.5"/>
<text text-anchor="middle" x="843" y="-142.5" font-family="Helvetica,sans-Serif" font-size="10.00">FightTask</text>
</g>
<!-- Node2 -->
<g id="node2" class="node"><title>Node2</title>
<g id="a_node2"><a xlink:href="class_ai_task.html" target="_top" xlink:title="AiTask">
<polygon fill="white" stroke="black" points="648.5,-157.5 648.5,-176.5 695.5,-176.5 695.5,-157.5 648.5,-157.5"/>
<text text-anchor="middle" x="672" y="-164.5" font-family="Helvetica,sans-Serif" font-size="10.00">AiTask</text>
</a>
</g>
</g>
<!-- Node2&#45;&gt;Node1 -->
<g id="edge1" class="edge"><title>Node2&#45;&gt;Node1</title>
<path fill="none" stroke="midnightblue" d="M705.752,-162.736C736.992,-158.67 783.577,-152.605 813.37,-148.727"/>
<polygon fill="midnightblue" stroke="midnightblue" points="705.257,-159.271 695.792,-164.033 706.16,-166.213 705.257,-159.271"/>
</g>
<!-- Node3 -->
<g id="node3" class="node"><title>Node3</title>
<g id="a_node3"><a xlink:href="class_board_computer.html" target="_top" xlink:title="BoardComputer">
<polygon fill="white" stroke="red" points="428,-157.5 428,-176.5 512,-176.5 512,-157.5 428,-157.5"/>
<text text-anchor="middle" x="470" y="-164.5" font-family="Helvetica,sans-Serif" font-size="10.00">BoardComputer</text>
</a>
</g>
</g>
<!-- Node3&#45;&gt;Node2 -->
<g id="edge2" class="edge"><title>Node3&#45;&gt;Node2</title>
<path fill="none" stroke="#9a32cd" stroke-dasharray="5,2" d="M522.445,-167C563.089,-167 617.863,-167 648.264,-167"/>
<polygon fill="#9a32cd" stroke="#9a32cd" points="522.44,-163.5 512.44,-167 522.44,-170.5 522.44,-163.5"/>
<text text-anchor="middle" x="588" y="-170" font-family="Helvetica,sans-Serif" font-size="10.00"> m_boardComputer</text>
</g>
<!-- Node4 -->
<g id="node4" class="node"><title>Node4</title>
<g id="a_node4"><a xlink:href="class_world_object.html" target="_top" xlink:title="WorldObject">
<polygon fill="white" stroke="red" points="202.5,-158.5 202.5,-177.5 273.5,-177.5 273.5,-158.5 202.5,-158.5"/>
<text text-anchor="middle" x="238" y="-165.5" font-family="Helvetica,sans-Serif" font-size="10.00">WorldObject</text>
</a>
</g>
</g>
<!-- Node4&#45;&gt;Node1 -->
<g id="edge7" class="edge"><title>Node4&#45;&gt;Node1</title>
<path fill="none" stroke="#9a32cd" stroke-dasharray="5,2" d="M280.184,-179.837C284.153,-180.688 288.138,-181.433 292,-182 344.797,-189.752 358.644,-185.111 412,-186 538.205,-188.103 570.319,-197.681 696,-186 732.02,-182.652 741.237,-181.008 776,-171 791.267,-166.605 807.906,-160.037 820.659,-154.603"/>
<polygon fill="#9a32cd" stroke="#9a32cd" points="280.963,-176.425 270.428,-177.544 279.361,-183.24 280.963,-176.425"/>
<text text-anchor="middle" x="588" y="-194" font-family="Helvetica,sans-Serif" font-size="10.00"> m_primaryTarget</text>
</g>
<!-- Node4&#45;&gt;Node3 -->
<g id="edge3" class="edge"><title>Node4&#45;&gt;Node3</title>
<path fill="none" stroke="#9a32cd" stroke-dasharray="5,2" d="M284.099,-167.804C325.868,-167.622 387.459,-167.355 427.899,-167.179"/>
<polygon fill="#9a32cd" stroke="#9a32cd" points="283.917,-164.305 273.932,-167.848 283.947,-171.305 283.917,-164.305"/>
<text text-anchor="middle" x="343" y="-170" font-family="Helvetica,sans-Serif" font-size="10.00"> m_worldObject</text>
</g>
<!-- Node5 -->
<g id="node5" class="node"><title>Node5</title>
<g id="a_node5"><a xlink:href="class_handle.html" target="_top" xlink:title="Handle\&lt; WorldObject \&gt;">
<polygon fill="white" stroke="black" points="0.5,-138.5 0.5,-157.5 119.5,-157.5 119.5,-138.5 0.5,-138.5"/>
<text text-anchor="middle" x="60" y="-145.5" font-family="Helvetica,sans-Serif" font-size="10.00">Handle&lt; WorldObject &gt;</text>
</a>
</g>
</g>
<!-- Node5&#45;&gt;Node4 -->
<g id="edge4" class="edge"><title>Node5&#45;&gt;Node4</title>
<path fill="none" stroke="#9a32cd" stroke-dasharray="5,2" d="M129.726,-155.81C154.561,-158.632 181.55,-161.699 202.244,-164.051"/>
<polygon fill="#9a32cd" stroke="#9a32cd" points="129.937,-152.311 119.605,-154.66 129.146,-159.267 129.937,-152.311"/>
<text text-anchor="middle" x="161" y="-164" font-family="Helvetica,sans-Serif" font-size="10.00"> m_handle</text>
</g>
<!-- Node6 -->
<g id="node6" class="node"><title>Node6</title>
<polygon fill="white" stroke="#bfbfbf" points="292.5,-114 292.5,-144 393.5,-144 393.5,-114 292.5,-114"/>
<text text-anchor="start" x="300.5" y="-132" font-family="Helvetica,sans-Serif" font-size="10.00">std::vector&lt; Handle</text>
<text text-anchor="middle" x="343" y="-121" font-family="Helvetica,sans-Serif" font-size="10.00">&lt; WorldObject &gt; &gt;</text>
</g>
<!-- Node5&#45;&gt;Node6 -->
<g id="edge6" class="edge"><title>Node5&#45;&gt;Node6</title>
<path fill="none" stroke="#9a32cd" stroke-dasharray="5,2" d="M129.864,-141.63C132.611,-141.411 135.331,-141.2 138,-141 190.538,-137.068 250.768,-133.66 292.087,-131.491"/>
<polygon fill="#9a32cd" stroke="#9a32cd" points="129.519,-138.147 119.841,-142.456 130.094,-145.123 129.519,-138.147"/>
<text text-anchor="middle" x="161" y="-144" font-family="Helvetica,sans-Serif" font-size="10.00"> elements</text>
</g>
<!-- Node6&#45;&gt;Node1 -->
<g id="edge5" class="edge"><title>Node6&#45;&gt;Node1</title>
<path fill="none" stroke="#9a32cd" stroke-dasharray="5,2" d="M403.624,-130.916C511.322,-134.376 734.447,-141.544 813.485,-144.084"/>
<polygon fill="#9a32cd" stroke="#9a32cd" points="403.678,-127.416 393.571,-130.593 403.453,-134.412 403.678,-127.416"/>
<text text-anchor="middle" x="588" y="-142" font-family="Helvetica,sans-Serif" font-size="10.00"> m_targets</text>
</g>
<!-- Node7 -->
<g id="node7" class="node"><title>Node7</title>
<g id="a_node7"><a xlink:href="class_state.html" target="_top" xlink:title="State">
<polygon fill="white" stroke="black" points="652,-19.5 652,-38.5 692,-38.5 692,-19.5 652,-19.5"/>
<text text-anchor="middle" x="672" y="-26.5" font-family="Helvetica,sans-Serif" font-size="10.00">State</text>
</a>
</g>
</g>
<!-- Node7&#45;&gt;Node1 -->
<g id="edge8" class="edge"><title>Node7&#45;&gt;Node1</title>
<path fill="none" stroke="#9a32cd" stroke-dasharray="5,2" d="M695.381,-44.3618C730.808,-68.6789 798.781,-115.335 828.041,-135.419"/>
<polygon fill="#9a32cd" stroke="#9a32cd" points="697.344,-41.464 687.118,-38.6906 693.382,-47.2353 697.344,-41.464"/>
<text text-anchor="middle" x="745" y="-101" font-family="Helvetica,sans-Serif" font-size="10.00"> m_state</text>
</g>
<!-- Node7&#45;&gt;Node7 -->
<g id="edge13" class="edge"><title>Node7&#45;&gt;Node7</title>
<path fill="none" stroke="#9a32cd" stroke-dasharray="5,2" d="M658.741,-48.7663C659.782,-53.4965 664.202,-57 672,-57 684.797,-57 688.496,-47.5653 683.097,-38.7571"/>
<polygon fill="#9a32cd" stroke="#9a32cd" points="662.212,-49.2706 660.903,-38.7571 655.37,-47.7927 662.212,-49.2706"/>
<text text-anchor="middle" x="672" y="-93" font-family="Helvetica,sans-Serif" font-size="10.00"> m_currentSubState</text>
<text text-anchor="middle" x="672" y="-82" font-family="Helvetica,sans-Serif" font-size="10.00">m_initialSubState</text>
<text text-anchor="middle" x="672" y="-71" font-family="Helvetica,sans-Serif" font-size="10.00">m_finalSubState</text>
<text text-anchor="middle" x="672" y="-60" font-family="Helvetica,sans-Serif" font-size="10.00">m_parentState</text>
</g>
<!-- Node8 -->
<g id="node8" class="node"><title>Node8</title>
<polygon fill="white" stroke="#bfbfbf" points="794.5,-19.5 794.5,-38.5 891.5,-38.5 891.5,-19.5 794.5,-19.5"/>
<text text-anchor="middle" x="843" y="-26.5" font-family="Helvetica,sans-Serif" font-size="10.00">std::list&lt; State * &gt;</text>
</g>
<!-- Node7&#45;&gt;Node8 -->
<g id="edge10" class="edge"><title>Node7&#45;&gt;Node8</title>
<path fill="none" stroke="#9a32cd" stroke-dasharray="5,2" d="M702.121,-29C727.425,-29 764.569,-29 794.222,-29"/>
<polygon fill="#9a32cd" stroke="#9a32cd" points="702.058,-25.5001 692.058,-29 702.058,-32.5001 702.058,-25.5001"/>
<text text-anchor="middle" x="745" y="-32" font-family="Helvetica,sans-Serif" font-size="10.00"> elements</text>
</g>
<!-- Node8&#45;&gt;Node7 -->
<g id="edge9" class="edge"><title>Node8&#45;&gt;Node7</title>
<path fill="none" stroke="#9a32cd" stroke-dasharray="5,2" d="M799.828,-17.1734C774.771,-11.7737 742.435,-7.64822 714,-13 706.641,-14.385 698.908,-17.0543 692.166,-19.8217"/>
<polygon fill="#9a32cd" stroke="#9a32cd" points="799.211,-20.6228 809.741,-19.4565 800.782,-13.8014 799.211,-20.6228"/>
<text text-anchor="middle" x="745" y="-16" font-family="Helvetica,sans-Serif" font-size="10.00"> m_subStates</text>
</g>
<!-- Node9 -->
<g id="node9" class="node"><title>Node9</title>
<g id="a_node9"><a xlink:title="STL class. ">
<polygon fill="white" stroke="#bfbfbf" points="440,-38.5 440,-57.5 500,-57.5 500,-38.5 440,-38.5"/>
<text text-anchor="middle" x="470" y="-45.5" font-family="Helvetica,sans-Serif" font-size="10.00">std::string</text>
</a>
</g>
</g>
<!-- Node9&#45;&gt;Node7 -->
<g id="edge11" class="edge"><title>Node9&#45;&gt;Node7</title>
<path fill="none" stroke="#9a32cd" stroke-dasharray="5,2" d="M510.115,-44.284C552.779,-40.231 619.312,-33.9103 651.82,-30.8221"/>
<polygon fill="#9a32cd" stroke="#9a32cd" points="509.706,-40.8071 500.082,-45.2372 510.368,-47.7757 509.706,-40.8071"/>
<text text-anchor="middle" x="588" y="-44" font-family="Helvetica,sans-Serif" font-size="10.00"> m_name</text>
</g>
<!-- Node10 -->
<g id="node10" class="node"><title>Node10</title>
<polygon fill="white" stroke="#bfbfbf" points="412,-0.5 412,-19.5 528,-19.5 528,-0.5 412,-0.5"/>
<text text-anchor="middle" x="470" y="-7.5" font-family="Helvetica,sans-Serif" font-size="10.00">std::list&lt; Transition * &gt;</text>
</g>
<!-- Node10&#45;&gt;Node7 -->
<g id="edge12" class="edge"><title>Node10&#45;&gt;Node7</title>
<path fill="none" stroke="#9a32cd" stroke-dasharray="5,2" d="M538.507,-11.0988C566.881,-12.2644 600.164,-14.5552 630,-19 637.247,-20.0796 645.088,-21.8416 651.954,-23.5882"/>
<polygon fill="#9a32cd" stroke="#9a32cd" points="538.414,-7.59298 528.291,-10.7183 538.153,-14.5881 538.414,-7.59298"/>
<text text-anchor="middle" x="588" y="-22" font-family="Helvetica,sans-Serif" font-size="10.00"> m_transitions</text>
</g>
</g>
</svg>
        <g id="navigator" transform="translate(0 0)" fill="#404254">
                <rect fill="#f2f5e9" fill-opacity="0.5" stroke="#606060" stroke-width=".5" x="0" y="0" width="60" height="60"/>
                <use id="zoomplus" xlink:href="#zoomPlus" x="17" y="9" onmousedown="handleZoom(evt,'in')"/>
                <use id="zoomminus" xlink:href="#zoomMin" x="42" y="9" onmousedown="handleZoom(evt,'out')"/>
                <use id="reset" xlink:href="#resetDef" x="30" y="36" onmousedown="handleReset()"/>
                <g id="arrowUp" xlink:href="#dirArrow" transform="translate(30 24)" onmousedown="handlePan(0,-1)">
                  <use xlink:href="#rim" fill="#404040">
                        <set attributeName="fill" to="#808080" begin="arrowUp.mouseover" end="arrowUp.mouseout"/>
                  </use>
                  <path fill="none" stroke="white" stroke-width="1.5" d="M0,-3.0v7 M-2.5,-0.5L0,-3.0L2.5,-0.5"/>
                </g>
                <g id="arrowRight" xlink:href="#dirArrow" transform="rotate(90) translate(36 -43)" onmousedown="handlePan(1,0)">
                  <use xlink:href="#rim" fill="#404040">
                        <set attributeName="fill" to="#808080" begin="arrowRight.mouseover" end="arrowRight.mouseout"/>
                  </use>
                  <path fill="none" stroke="white" stroke-width="1.5" d="M0,-3.0v7 M-2.5,-0.5L0,-3.0L2.5,-0.5"/>
                </g>
                <g id="arrowDown" xlink:href="#dirArrow" transform="rotate(180) translate(-30 -48)" onmousedown="handlePan(0,1)">
                  <use xlink:href="#rim" fill="#404040">
                        <set attributeName="fill" to="#808080" begin="arrowDown.mouseover" end="arrowDown.mouseout"/>
                  </use>
                  <path fill="none" stroke="white" stroke-width="1.5" d="M0,-3.0v7 M-2.5,-0.5L0,-3.0L2.5,-0.5"/>
                </g>
                <g id="arrowLeft" xlink:href="#dirArrow" transform="rotate(270) translate(-36 17)" onmousedown="handlePan(-1,0)">
                  <use xlink:href="#rim" fill="#404040">
                        <set attributeName="fill" to="#808080" begin="arrowLeft.mouseover" end="arrowLeft.mouseout"/>
                  </use>
                  <path fill="none" stroke="white" stroke-width="1.5" d="M0,-3.0v7 M-2.5,-0.5L0,-3.0L2.5,-0.5"/>
                </g>
        </g>
        <svg viewBox="0 0 15 15" width="100%" height="30px" preserveAspectRatio="xMaxYMin meet">
         <g id="arrow_out" transform="scale(0.3 0.3)">
          <a xlink:href="class_fight_task__coll__graph_org.svg" target="_base">
           <rect id="button" ry="5" rx="5" y="6" x="6" height="38" width="38"
                fill="#f2f5e9" fill-opacity="0.5" stroke="#606060" stroke-width="1.0"/>
           <path id="arrow"
             d="M 11.500037,31.436501 C 11.940474,20.09759 22.043105,11.32322 32.158766,21.979434 L 37.068811,17.246167 C 37.068811,17.246167 37.088388,32 37.088388,32 L 22.160133,31.978069 C 22.160133,31.978069 26.997745,27.140456 26.997745,27.140456 C 18.528582,18.264221 13.291696,25.230495 11.500037,31.436501 z"
             style="fill:#404040;"/>
          </a>
         </g>
        </svg>
</svg>
