<?xml version="1.0" encoding="UTF-8" standalone="no"?>
<!DOCTYPE svg PUBLIC "-//W3C//DTD SVG 1.1//EN"
 "http://www.w3.org/Graphics/SVG/1.1/DTD/svg11.dtd">
<!-- Generated by graphviz version 2.36.0 (20140111.2315)
 -->
<!-- Title: Bullet Pages: 1 -->
<svg width="90pt" height="154pt"
 viewBox="0.00 0.00 90.00 154.00" xmlns="http://www.w3.org/2000/svg" xmlns:xlink="http://www.w3.org/1999/xlink">
<g id="graph0" class="graph" transform="scale(1 1) rotate(0) translate(4 150)">
<title>Bullet</title>
<polygon fill="white" stroke="none" points="-4,4 -4,-150 86,-150 86,4 -4,4"/>
<!-- Node1 -->
<g id="node1" class="node"><title>Node1</title>
<polygon fill="#bfbfbf" stroke="black" points="14.5,-0.5 14.5,-19.5 55.5,-19.5 55.5,-0.5 14.5,-0.5"/>
<text text-anchor="middle" x="35" y="-7.5" font-family="Helvetica,sans-Serif" font-size="10.00">Bullet</text>
</g>
<!-- Node2 -->
<g id="node2" class="node"><title>Node2</title>
<g id="a_node2"><a xlink:href="class_projectile.html" target="_top" xlink:title="Projectile">
<polygon fill="white" stroke="black" points="6.5,-58.5 6.5,-77.5 63.5,-77.5 63.5,-58.5 6.5,-58.5"/>
<text text-anchor="middle" x="35" y="-65.5" font-family="Helvetica,sans-Serif" font-size="10.00">Projectile</text>
</a>
</g>
</g>
<!-- Node2&#45;&gt;Node1 -->
<g id="edge1" class="edge"><title>Node2&#45;&gt;Node1</title>
<path fill="none" stroke="midnightblue" d="M35,-47.953C35,-38.2875 35,-27.0312 35,-19.5052"/>
<polygon fill="midnightblue" stroke="midnightblue" points="31.5001,-48.25 35,-58.25 38.5001,-48.25 31.5001,-48.25"/>
</g>
<!-- Node3 -->
<g id="node3" class="node"><title>Node3</title>
<g id="a_node3"><a xlink:href="class_world_object.html" target="_top" xlink:title="WorldObject">
<polygon fill="white" stroke="red" points="-0.5,-126.5 -0.5,-145.5 70.5,-145.5 70.5,-126.5 -0.5,-126.5"/>
<text text-anchor="middle" x="35" y="-133.5" font-family="Helvetica,sans-Serif" font-size="10.00">WorldObject</text>
</a>
</g>
</g>
<!-- Node3&#45;&gt;Node2 -->
<g id="edge2" class="edge"><title>Node3&#45;&gt;Node2</title>
<path fill="none" stroke="midnightblue" d="M33.4399,-116.382C33.2572,-113.575 33.1003,-110.713 33,-108 32.6141,-97.5663 33.4162,-85.5725 34.1167,-77.6712"/>
<polygon fill="midnightblue" stroke="midnightblue" points="29.9607,-116.791 34.2083,-126.497 36.9406,-116.26 29.9607,-116.791"/>
</g>
<!-- Node3&#45;&gt;Node2 -->
<g id="edge3" class="edge"><title>Node3&#45;&gt;Node2</title>
<path fill="none" stroke="#9a32cd" stroke-dasharray="5,2" d="M35,-116.041C35,-103.472 35,-87.5631 35,-77.8411"/>
<polygon fill="#9a32cd" stroke="#9a32cd" points="31.5001,-116.372 35,-126.372 38.5001,-116.372 31.5001,-116.372"/>
<text text-anchor="middle" x="58.5" y="-99.5" font-family="Helvetica,sans-Serif" font-size="10.00"> m_creator</text>
</g>
</g>
</svg>
