<?xml version="1.0" encoding="UTF-8" standalone="no"?>
<!DOCTYPE svg PUBLIC "-//W3C//DTD SVG 1.1//EN"
 "http://www.w3.org/Graphics/SVG/1.1/DTD/svg11.dtd">
<!-- Generated by graphviz version 2.36.0 (20140111.2315)
 -->
<!-- Title: SoundManager Pages: 1 -->
<svg width="456pt" height="87pt"
 viewBox="0.00 0.00 456.00 87.00" xmlns="http://www.w3.org/2000/svg" xmlns:xlink="http://www.w3.org/1999/xlink">
<g id="graph0" class="graph" transform="scale(1 1) rotate(0) translate(4 83)">
<title>SoundManager</title>
<polygon fill="white" stroke="none" points="-4,4 -4,-83 452,-83 452,4 -4,4"/>
<!-- Node1 -->
<g id="node1" class="node"><title>Node1</title>
<polygon fill="#bfbfbf" stroke="black" points="366,-25.5 366,-44.5 448,-44.5 448,-25.5 366,-25.5"/>
<text text-anchor="middle" x="407" y="-32.5" font-family="Helvetica,sans-Serif" font-size="10.00">SoundManager</text>
</g>
<!-- Node1&#45;&gt;Node1 -->
<g id="edge4" class="edge"><title>Node1&#45;&gt;Node1</title>
<path fill="none" stroke="#9a32cd" stroke-dasharray="5,2" d="M391.531,-54.7663C392.746,-59.4965 397.902,-63 407,-63 421.93,-63 426.245,-53.5653 419.947,-44.7571"/>
<polygon fill="#9a32cd" stroke="#9a32cd" points="395.003,-55.3092 394.053,-44.7571 388.216,-53.5986 395.003,-55.3092"/>
<text text-anchor="middle" x="407" y="-66" font-family="Helvetica,sans-Serif" font-size="10.00"> s_current</text>
</g>
<!-- Node2 -->
<g id="node2" class="node"><title>Node2</title>
<polygon fill="white" stroke="#bfbfbf" points="122.5,-49 122.5,-79 279.5,-79 279.5,-49 122.5,-49"/>
<text text-anchor="start" x="130.5" y="-67" font-family="Helvetica,sans-Serif" font-size="10.00">std::unordered_map</text>
<text text-anchor="middle" x="201" y="-56" font-family="Helvetica,sans-Serif" font-size="10.00">&lt; std::string, sf::SoundBuffer * &gt;</text>
</g>
<!-- Node2&#45;&gt;Node1 -->
<g id="edge1" class="edge"><title>Node2&#45;&gt;Node1</title>
<path fill="none" stroke="#9a32cd" stroke-dasharray="5,2" d="M289.788,-51.5204C316.301,-47.7514 344.12,-43.7967 365.891,-40.7018"/>
<polygon fill="#9a32cd" stroke="#9a32cd" points="289.113,-48.0809 279.706,-52.9536 290.099,-55.0113 289.113,-48.0809"/>
<text text-anchor="middle" x="323" y="-53" font-family="Helvetica,sans-Serif" font-size="10.00"> m_buffer</text>
</g>
<!-- Node3 -->
<g id="node3" class="node"><title>Node3</title>
<g id="a_node3"><a xlink:title="STL class. ">
<polygon fill="white" stroke="#bfbfbf" points="0,-54.5 0,-73.5 60,-73.5 60,-54.5 0,-54.5"/>
<text text-anchor="middle" x="30" y="-61.5" font-family="Helvetica,sans-Serif" font-size="10.00">std::string</text>
</a>
</g>
</g>
<!-- Node3&#45;&gt;Node2 -->
<g id="edge2" class="edge"><title>Node3&#45;&gt;Node2</title>
<path fill="none" stroke="#9a32cd" stroke-dasharray="5,2" d="M70.3097,-64C85.8517,-64 104.284,-64 122.3,-64"/>
<polygon fill="#9a32cd" stroke="#9a32cd" points="70.0522,-60.5001 60.0521,-64 70.0521,-67.5001 70.0522,-60.5001"/>
<text text-anchor="middle" x="91" y="-67" font-family="Helvetica,sans-Serif" font-size="10.00"> keys</text>
</g>
<!-- Node4 -->
<g id="node4" class="node"><title>Node4</title>
<polygon fill="white" stroke="#bfbfbf" points="147.5,-0 147.5,-30 254.5,-30 254.5,-0 147.5,-0"/>
<text text-anchor="start" x="155.5" y="-18" font-family="Helvetica,sans-Serif" font-size="10.00">std::list&lt; std::shared</text>
<text text-anchor="middle" x="201" y="-7" font-family="Helvetica,sans-Serif" font-size="10.00">_ptr&lt; Sound &gt; &gt;</text>
</g>
<!-- Node4&#45;&gt;Node1 -->
<g id="edge3" class="edge"><title>Node4&#45;&gt;Node1</title>
<path fill="none" stroke="#9a32cd" stroke-dasharray="5,2" d="M264.606,-16.3788C290.499,-17.481 320.777,-19.4581 348,-23 353.812,-23.7562 359.911,-24.7706 365.882,-25.8906"/>
<polygon fill="#9a32cd" stroke="#9a32cd" points="264.674,-12.8788 254.544,-15.9845 264.399,-19.8734 264.674,-12.8788"/>
<text text-anchor="middle" x="323" y="-26" font-family="Helvetica,sans-Serif" font-size="10.00"> m_sounds</text>
</g>
</g>
</svg>
