<?xml version="1.0" encoding="UTF-8" standalone="no"?>
<!DOCTYPE svg PUBLIC "-//W3C//DTD SVG 1.1//EN"
 "http://www.w3.org/Graphics/SVG/1.1/DTD/svg11.dtd">
<!-- Generated by graphviz version 2.36.0 (20140111.2315)
 -->
<!-- Title: GenericRocketLauncher Pages: 1 -->
<svg width="375pt" height="174pt"
 viewBox="0.00 0.00 375.00 174.00" xmlns="http://www.w3.org/2000/svg" xmlns:xlink="http://www.w3.org/1999/xlink">
<g id="graph0" class="graph" transform="scale(1 1) rotate(0) translate(4 170)">
<title>GenericRocketLauncher</title>
<polygon fill="white" stroke="none" points="-4,4 -4,-170 371,-170 371,4 -4,4"/>
<!-- Node1 -->
<g id="node1" class="node"><title>Node1</title>
<polygon fill="#bfbfbf" stroke="black" points="98.5,-0.5 98.5,-19.5 219.5,-19.5 219.5,-0.5 98.5,-0.5"/>
<text text-anchor="middle" x="159" y="-7.5" font-family="Helvetica,sans-Serif" font-size="10.00">GenericRocketLauncher</text>
</g>
<!-- Node2 -->
<g id="node2" class="node"><title>Node2</title>
<g id="a_node2"><a xlink:href="class_rocket_launcher.html" target="_top" xlink:title="RocketLauncher">
<polygon fill="white" stroke="black" points="-0.5,-78.5 -0.5,-97.5 86.5,-97.5 86.5,-78.5 -0.5,-78.5"/>
<text text-anchor="middle" x="43" y="-85.5" font-family="Helvetica,sans-Serif" font-size="10.00">RocketLauncher</text>
</a>
</g>
</g>
<!-- Node2&#45;&gt;Node1 -->
<g id="edge1" class="edge"><title>Node2&#45;&gt;Node1</title>
<path fill="none" stroke="midnightblue" d="M64.7123,-72.7747C88.5638,-57.1479 126.1,-32.5551 145.849,-19.6165"/>
<polygon fill="midnightblue" stroke="midnightblue" points="62.7532,-69.8739 56.3067,-78.2818 66.5894,-75.7291 62.7532,-69.8739"/>
</g>
<!-- Node3 -->
<g id="node3" class="node"><title>Node3</title>
<g id="a_node3"><a xlink:href="class_weapon.html" target="_top" xlink:title="Weapon">
<polygon fill="white" stroke="red" points="16.5,-146.5 16.5,-165.5 69.5,-165.5 69.5,-146.5 16.5,-146.5"/>
<text text-anchor="middle" x="43" y="-153.5" font-family="Helvetica,sans-Serif" font-size="10.00">Weapon</text>
</a>
</g>
</g>
<!-- Node3&#45;&gt;Node2 -->
<g id="edge2" class="edge"><title>Node3&#45;&gt;Node2</title>
<path fill="none" stroke="midnightblue" d="M43,-136.041C43,-123.472 43,-107.563 43,-97.8411"/>
<polygon fill="midnightblue" stroke="midnightblue" points="39.5001,-136.372 43,-146.372 46.5001,-136.372 39.5001,-136.372"/>
</g>
<!-- Node4 -->
<g id="node4" class="node"><title>Node4</title>
<g id="a_node4"><a xlink:href="class_visuals.html" target="_top" xlink:title="Visuals">
<polygon fill="white" stroke="black" points="104.5,-78.5 104.5,-97.5 153.5,-97.5 153.5,-78.5 104.5,-78.5"/>
<text text-anchor="middle" x="129" y="-85.5" font-family="Helvetica,sans-Serif" font-size="10.00">Visuals</text>
</a>
</g>
</g>
<!-- Node4&#45;&gt;Node1 -->
<g id="edge3" class="edge"><title>Node4&#45;&gt;Node1</title>
<path fill="none" stroke="#9a32cd" stroke-dasharray="5,2" d="M126.028,-68.2737C125.343,-58.811 125.804,-47.3782 130,-38 133.315,-30.5907 139.736,-24.2753 145.695,-19.6197"/>
<polygon fill="#9a32cd" stroke="#9a32cd" points="122.556,-68.7148 127.204,-78.2359 129.508,-67.8947 122.556,-68.7148"/>
<text text-anchor="middle" x="153" y="-46.5" font-family="Helvetica,sans-Serif" font-size="10.00"> m_visuals</text>
</g>
<!-- Node5 -->
<g id="node5" class="node"><title>Node5</title>
<g id="a_node5"><a xlink:title="STL class. ">
<polygon fill="white" stroke="#bfbfbf" points="201,-146.5 201,-165.5 261,-165.5 261,-146.5 201,-146.5"/>
<text text-anchor="middle" x="231" y="-153.5" font-family="Helvetica,sans-Serif" font-size="10.00">std::string</text>
</a>
</g>
</g>
<!-- Node5&#45;&gt;Node1 -->
<g id="edge4" class="edge"><title>Node5&#45;&gt;Node1</title>
<path fill="none" stroke="#9a32cd" stroke-dasharray="5,2" d="M220.383,-137.64C213.803,-126.522 205.414,-111.667 199,-98 186.867,-72.1469 188.781,-63.5394 176,-38 172.827,-31.6594 168.577,-24.9094 165.12,-19.7445"/>
<polygon fill="#9a32cd" stroke="#9a32cd" points="217.452,-139.557 225.604,-146.324 223.451,-135.95 217.452,-139.557"/>
<text text-anchor="middle" x="234" y="-85.5" font-family="Helvetica,sans-Serif" font-size="10.00"> m_rocketName</text>
</g>
<!-- Node6 -->
<g id="node6" class="node"><title>Node6</title>
<g id="a_node6"><a xlink:href="class_sound_properties.html" target="_top" xlink:title="SoundProperties">
<polygon fill="white" stroke="black" points="278.5,-78.5 278.5,-97.5 367.5,-97.5 367.5,-78.5 278.5,-78.5"/>
<text text-anchor="middle" x="323" y="-85.5" font-family="Helvetica,sans-Serif" font-size="10.00">SoundProperties</text>
</a>
</g>
</g>
<!-- Node5&#45;&gt;Node6 -->
<g id="edge6" class="edge"><title>Node5&#45;&gt;Node6</title>
<path fill="none" stroke="#9a32cd" stroke-dasharray="5,2" d="M251.275,-140.455C269.552,-127.343 295.816,-108.502 310.97,-97.6305"/>
<polygon fill="#9a32cd" stroke="#9a32cd" points="249.113,-137.699 243.027,-146.372 253.193,-143.386 249.113,-137.699"/>
<text text-anchor="middle" x="306.5" y="-119.5" font-family="Helvetica,sans-Serif" font-size="10.00"> m_sound</text>
</g>
<!-- Node6&#45;&gt;Node1 -->
<g id="edge5" class="edge"><title>Node6&#45;&gt;Node1</title>
<path fill="none" stroke="#9a32cd" stroke-dasharray="5,2" d="M295.283,-74.1555C261.82,-58.6483 206.459,-32.9934 177.678,-19.6557"/>
<polygon fill="#9a32cd" stroke="#9a32cd" points="293.961,-77.4005 304.506,-78.4296 296.904,-71.0493 293.961,-77.4005"/>
<text text-anchor="middle" x="302.5" y="-52" font-family="Helvetica,sans-Serif" font-size="10.00"> m_rocketSound</text>
<text text-anchor="middle" x="302.5" y="-41" font-family="Helvetica,sans-Serif" font-size="10.00">m_explosionSound</text>
</g>
</g>
</svg>
