<?xml version="1.0" encoding="UTF-8" standalone="no"?>
<!DOCTYPE svg PUBLIC "-//W3C//DTD SVG 1.1//EN"
 "http://www.w3.org/Graphics/SVG/1.1/DTD/svg11.dtd">
<!-- Generated by graphviz version 2.36.0 (20140111.2315)
 -->
<!-- Title: VoxelFont Pages: 1 -->
<svg width="169pt" height="186pt"
 viewBox="0.00 0.00 169.00 186.00" xmlns="http://www.w3.org/2000/svg" xmlns:xlink="http://www.w3.org/1999/xlink">
<g id="graph0" class="graph" transform="scale(1 1) rotate(0) translate(4 182)">
<title>VoxelFont</title>
<polygon fill="white" stroke="none" points="-4,4 -4,-182 165,-182 165,4 -4,4"/>
<!-- Node1 -->
<g id="node1" class="node"><title>Node1</title>
<polygon fill="#bfbfbf" stroke="black" points="31.5,-0.5 31.5,-19.5 92.5,-19.5 92.5,-0.5 31.5,-0.5"/>
<text text-anchor="middle" x="62" y="-7.5" font-family="Helvetica,sans-Serif" font-size="10.00">VoxelFont</text>
</g>
<!-- Node1&#45;&gt;Node1 -->
<g id="edge3" class="edge"><title>Node1&#45;&gt;Node1</title>
<path fill="none" stroke="#9a32cd" stroke-dasharray="5,2" d="M102.871,-15.9292C107.212,-14.7805 110,-12.8041 110,-10 110,-5.39844 102.492,-3.02576 92.9315,-2.88196"/>
<polygon fill="#9a32cd" stroke="#9a32cd" points="102.445,-12.4551 92.9315,-17.118 103.276,-19.4055 102.445,-12.4551"/>
<text text-anchor="middle" x="135.5" y="-7.5" font-family="Helvetica,sans-Serif" font-size="10.00"> s_instance</text>
</g>
<!-- Node2 -->
<g id="node2" class="node"><title>Node2</title>
<polygon fill="white" stroke="#bfbfbf" points="2.5,-79 2.5,-109 121.5,-109 121.5,-79 2.5,-79"/>
<text text-anchor="start" x="10.5" y="-97" font-family="Helvetica,sans-Serif" font-size="10.00">std::map&lt; char, std</text>
<text text-anchor="middle" x="62" y="-86" font-family="Helvetica,sans-Serif" font-size="10.00">::unique_ptr&lt; Letter &gt; &gt;</text>
</g>
<!-- Node2&#45;&gt;Node1 -->
<g id="edge1" class="edge"><title>Node2&#45;&gt;Node1</title>
<path fill="none" stroke="#9a32cd" stroke-dasharray="5,2" d="M62,-68.5997C62,-52.0312 62,-31.1113 62,-19.5915"/>
<polygon fill="#9a32cd" stroke="#9a32cd" points="58.5001,-68.7167 62,-78.7167 65.5001,-68.7167 58.5001,-68.7167"/>
<text text-anchor="middle" x="86.5" y="-52" font-family="Helvetica,sans-Serif" font-size="10.00"> m_font5x7</text>
<text text-anchor="middle" x="86.5" y="-41" font-family="Helvetica,sans-Serif" font-size="10.00">m_font3x5</text>
</g>
<!-- Node3 -->
<g id="node3" class="node"><title>Node3</title>
<polygon fill="white" stroke="#bfbfbf" points="0,-158.5 0,-177.5 124,-177.5 124,-158.5 0,-158.5"/>
<text text-anchor="middle" x="62" y="-165.5" font-family="Helvetica,sans-Serif" font-size="10.00">std::unique_ptr&lt; Letter &gt;</text>
</g>
<!-- Node3&#45;&gt;Node2 -->
<g id="edge2" class="edge"><title>Node3&#45;&gt;Node2</title>
<path fill="none" stroke="#9a32cd" stroke-dasharray="5,2" d="M62,-148.085C62,-135.915 62,-120.354 62,-109.232"/>
<polygon fill="#9a32cd" stroke="#9a32cd" points="58.5001,-148.458 62,-158.458 65.5001,-148.458 58.5001,-148.458"/>
<text text-anchor="middle" x="83.5" y="-131.5" font-family="Helvetica,sans-Serif" font-size="10.00"> elements</text>
</g>
</g>
</svg>
