<?xml version="1.0" encoding="UTF-8" standalone="no"?>
<!DOCTYPE svg PUBLIC "-//W3C//DTD SVG 1.1//EN"
 "http://www.w3.org/Graphics/SVG/1.1/DTD/svg11.dtd">
<!-- Generated by graphviz version 2.36.0 (20140111.2315)
 -->
<!-- Title: Projectile Pages: 1 -->
<svg width="181pt" height="252pt"
 viewBox="0.00 0.00 181.00 252.00" xmlns="http://www.w3.org/2000/svg" xmlns:xlink="http://www.w3.org/1999/xlink">
<g id="graph0" class="graph" transform="scale(1 1) rotate(0) translate(4 248)">
<title>Projectile</title>
<polygon fill="white" stroke="none" points="-4,4 -4,-248 177,-248 177,4 -4,4"/>
<!-- Node1 -->
<g id="node1" class="node"><title>Node1</title>
<polygon fill="#bfbfbf" stroke="black" points="47.5,-112.5 47.5,-131.5 104.5,-131.5 104.5,-112.5 47.5,-112.5"/>
<text text-anchor="middle" x="76" y="-119.5" font-family="Helvetica,sans-Serif" font-size="10.00">Projectile</text>
</g>
<!-- Node4 -->
<g id="node4" class="node"><title>Node4</title>
<g id="a_node4"><a xlink:href="class_bullet.html" target="_top" xlink:title="Bullet">
<polygon fill="white" stroke="black" points="24.5,-56.5 24.5,-75.5 65.5,-75.5 65.5,-56.5 24.5,-56.5"/>
<text text-anchor="middle" x="45" y="-63.5" font-family="Helvetica,sans-Serif" font-size="10.00">Bullet</text>
</a>
</g>
</g>
<!-- Node1&#45;&gt;Node4 -->
<g id="edge3" class="edge"><title>Node1&#45;&gt;Node4</title>
<path fill="none" stroke="midnightblue" d="M65.8244,-103.275C60.5261,-94.0454 54.283,-83.1703 50.0238,-75.7511"/>
<polygon fill="midnightblue" stroke="midnightblue" points="62.8669,-105.153 70.881,-112.083 68.9376,-101.668 62.8669,-105.153"/>
</g>
<!-- Node6 -->
<g id="node6" class="node"><title>Node6</title>
<g id="a_node6"><a xlink:href="class_rocket.html" target="_top" xlink:title="Rocket">
<polygon fill="white" stroke="black" points="100.5,-56.5 100.5,-75.5 147.5,-75.5 147.5,-56.5 100.5,-56.5"/>
<text text-anchor="middle" x="124" y="-63.5" font-family="Helvetica,sans-Serif" font-size="10.00">Rocket</text>
</a>
</g>
</g>
<!-- Node1&#45;&gt;Node6 -->
<g id="edge5" class="edge"><title>Node1&#45;&gt;Node6</title>
<path fill="none" stroke="midnightblue" d="M90.7277,-104.431C99.1401,-94.9673 109.349,-83.4827 116.221,-75.7511"/>
<polygon fill="midnightblue" stroke="midnightblue" points="87.954,-102.284 83.9262,-112.083 93.1858,-106.934 87.954,-102.284"/>
</g>
<!-- Node2 -->
<g id="node2" class="node"><title>Node2</title>
<g id="a_node2"><a xlink:href="class_world_object.html" target="_top" xlink:title="WorldObject">
<polygon fill="white" stroke="black" points="40.5,-168.5 40.5,-187.5 111.5,-187.5 111.5,-168.5 40.5,-168.5"/>
<text text-anchor="middle" x="76" y="-175.5" font-family="Helvetica,sans-Serif" font-size="10.00">WorldObject</text>
</a>
</g>
</g>
<!-- Node2&#45;&gt;Node1 -->
<g id="edge1" class="edge"><title>Node2&#45;&gt;Node1</title>
<path fill="none" stroke="midnightblue" d="M76,-157.805C76,-148.91 76,-138.78 76,-131.751"/>
<polygon fill="midnightblue" stroke="midnightblue" points="72.5001,-158.083 76,-168.083 79.5001,-158.083 72.5001,-158.083"/>
</g>
<!-- Node3 -->
<g id="node3" class="node"><title>Node3</title>
<g id="a_node3"><a xlink:href="class_voxel_cluster.html" target="_top" xlink:title="VoxelCluster">
<polygon fill="white" stroke="black" points="40,-224.5 40,-243.5 112,-243.5 112,-224.5 40,-224.5"/>
<text text-anchor="middle" x="76" y="-231.5" font-family="Helvetica,sans-Serif" font-size="10.00">VoxelCluster</text>
</a>
</g>
</g>
<!-- Node3&#45;&gt;Node2 -->
<g id="edge2" class="edge"><title>Node3&#45;&gt;Node2</title>
<path fill="none" stroke="midnightblue" d="M76,-213.805C76,-204.91 76,-194.78 76,-187.751"/>
<polygon fill="midnightblue" stroke="midnightblue" points="72.5001,-214.083 76,-224.083 79.5001,-214.083 72.5001,-214.083"/>
</g>
<!-- Node5 -->
<g id="node5" class="node"><title>Node5</title>
<g id="a_node5"><a xlink:href="class_generic_bullet.html" target="_top" xlink:title="GenericBullet">
<polygon fill="white" stroke="black" points="-0.5,-0.5 -0.5,-19.5 74.5,-19.5 74.5,-0.5 -0.5,-0.5"/>
<text text-anchor="middle" x="37" y="-7.5" font-family="Helvetica,sans-Serif" font-size="10.00">GenericBullet</text>
</a>
</g>
</g>
<!-- Node4&#45;&gt;Node5 -->
<g id="edge4" class="edge"><title>Node4&#45;&gt;Node5</title>
<path fill="none" stroke="midnightblue" d="M42.2001,-46.1005C40.872,-37.1357 39.3493,-26.8579 38.2965,-19.7511"/>
<polygon fill="midnightblue" stroke="midnightblue" points="38.7512,-46.7039 43.679,-56.083 45.6756,-45.678 38.7512,-46.7039"/>
</g>
<!-- Node7 -->
<g id="node7" class="node"><title>Node7</title>
<g id="a_node7"><a xlink:href="class_generic_rocket.html" target="_top" xlink:title="GenericRocket">
<polygon fill="white" stroke="black" points="92.5,-0.5 92.5,-19.5 173.5,-19.5 173.5,-0.5 92.5,-0.5"/>
<text text-anchor="middle" x="133" y="-7.5" font-family="Helvetica,sans-Serif" font-size="10.00">GenericRocket</text>
</a>
</g>
</g>
<!-- Node6&#45;&gt;Node7 -->
<g id="edge6" class="edge"><title>Node6&#45;&gt;Node7</title>
<path fill="none" stroke="midnightblue" d="M127.15,-46.1005C128.644,-37.1357 130.357,-26.8579 131.541,-19.7511"/>
<polygon fill="midnightblue" stroke="midnightblue" points="123.678,-45.6436 125.486,-56.083 130.583,-46.7945 123.678,-45.6436"/>
</g>
</g>
</svg>
