<?xml version="1.0" encoding="UTF-8" standalone="no"?>
<!DOCTYPE svg PUBLIC "-//W3C//DTD SVG 1.1//EN"
 "http://www.w3.org/Graphics/SVG/1.1/DTD/svg11.dtd">
<!-- Generated by graphviz version 2.36.0 (20140111.2315)
 -->
<!-- Title: GamePlayRunningInput Pages: 1 -->
<!--zoomable 527 -->
<svg id="main" version="1.1" xmlns="http://www.w3.org/2000/svg" xmlns:xlink="http://www.w3.org/1999/xlink" xml:space="preserve" onload="init(evt)">
<style type="text/css"><![CDATA[
.edge:hover path { stroke: red; }
.edge:hover polygon { stroke: red; fill: red; }
]]></style>
<script type="text/javascript"><![CDATA[
var edges = document.getElementsByTagName('g');
if (edges && edges.length) {
  for (var i=0;i<edges.length;i++) {
    if (edges[i].id.substr(0,4)=='edge') {
      edges[i].setAttribute('class','edge');
    }
  }
}
]]></script>
        <defs>
                <circle id="rim" cx="0" cy="0" r="7"/>
                <circle id="rim2" cx="0" cy="0" r="3.5"/>
                <g id="zoomPlus">
                        <use xlink:href="#rim" fill="#404040">
                                <set attributeName="fill" to="#808080" begin="zoomplus.mouseover" end="zoomplus.mouseout"/>
                        </use>
                        <path d="M-4,0h8M0,-4v8" fill="none" stroke="white" stroke-width="1.5" pointer-events="none"/>
                </g>
                <g id="zoomMin">
                        <use xlink:href="#rim" fill="#404040">
                                <set attributeName="fill" to="#808080" begin="zoomminus.mouseover" end="zoomminus.mouseout"/>
                        </use>
                        <path d="M-4,0h8" fill="none" stroke="white" stroke-width="1.5" pointer-events="none"/>
                </g>
                <g id="dirArrow">
                        <path fill="none" stroke="white" stroke-width="1.5" d="M0,-3.0v7 M-2.5,-0.5L0,-3.0L2.5,-0.5"/>
                </g>
               <g id="resetDef">
                       <use xlink:href="#rim2" fill="#404040">
                               <set attributeName="fill" to="#808080" begin="reset.mouseover" end="reset.mouseout"/>
                       </use>
               </g>
        </defs>

<script type="text/javascript">
var viewWidth = 1154;
var viewHeight = 527;
var sectionId = 'dynsection-0';
</script>
<script xlink:href="svgpan.js"/>
<svg id="graph" class="graph">
<g id="viewport">
<title>GamePlayRunningInput</title>
<polygon fill="white" stroke="none" points="-4,4 -4,-523 1150,-523 1150,4 -4,4"/>
<!-- Node1 -->
<g id="node1" class="node"><title>Node1</title>
<polygon fill="#bfbfbf" stroke="black" points="1026.5,-284.5 1026.5,-303.5 1145.5,-303.5 1145.5,-284.5 1026.5,-284.5"/>
<text text-anchor="middle" x="1086" y="-291.5" font-family="Helvetica,sans-Serif" font-size="10.00">GamePlayRunningInput</text>
</g>
<!-- Node2 -->
<g id="node2" class="node"><title>Node2</title>
<g id="a_node2"><a xlink:href="struct_secondary_input_values.html" target="_top" xlink:title="SecondaryInputValues">
<polygon fill="white" stroke="black" points="735,-499.5 735,-518.5 849,-518.5 849,-499.5 735,-499.5"/>
<text text-anchor="middle" x="792" y="-506.5" font-family="Helvetica,sans-Serif" font-size="10.00">SecondaryInputValues</text>
</a>
</g>
</g>
<!-- Node2&#45;&gt;Node1 -->
<g id="edge1" class="edge"><title>Node2&#45;&gt;Node1</title>
<path fill="none" stroke="#9a32cd" stroke-dasharray="5,2" d="M848.49,-496.462C857.941,-493.348 867.456,-489.561 876,-485 968.796,-435.464 1052.5,-335.277 1077.46,-303.736"/>
<polygon fill="#9a32cd" stroke="#9a32cd" points="847.238,-493.185 838.706,-499.466 849.293,-499.876 847.238,-493.185"/>
<text text-anchor="middle" x="951" y="-476" font-family="Helvetica,sans-Serif" font-size="10.00"> m_secondaryInputValues</text>
</g>
<!-- Node3 -->
<g id="node3" class="node"><title>Node3</title>
<g id="a_node3"><a xlink:href="class_action_key_mapping.html" target="_top" xlink:title="ActionKeyMapping">
<polygon fill="white" stroke="black" points="432,-336.5 432,-355.5 530,-355.5 530,-336.5 432,-336.5"/>
<text text-anchor="middle" x="481" y="-343.5" font-family="Helvetica,sans-Serif" font-size="10.00">ActionKeyMapping</text>
</a>
</g>
</g>
<!-- Node3&#45;&gt;Node1 -->
<g id="edge2" class="edge"><title>Node3&#45;&gt;Node1</title>
<path fill="none" stroke="#9a32cd" stroke-dasharray="5,2" d="M540.483,-349.481C638.462,-353.927 841.424,-357.194 1008,-321 1026.83,-316.909 1047.38,-309.545 1062.51,-303.54"/>
<polygon fill="#9a32cd" stroke="#9a32cd" points="540.353,-345.971 530.198,-348.992 540.021,-352.963 540.353,-345.971"/>
<text text-anchor="middle" x="792" y="-464" font-family="Helvetica,sans-Serif" font-size="10.00"> moveRightAction</text>
<text text-anchor="middle" x="792" y="-453" font-family="Helvetica,sans-Serif" font-size="10.00">moveLeftAction</text>
<text text-anchor="middle" x="792" y="-442" font-family="Helvetica,sans-Serif" font-size="10.00">rocketAction</text>
<text text-anchor="middle" x="792" y="-431" font-family="Helvetica,sans-Serif" font-size="10.00">rotateDownAction</text>
<text text-anchor="middle" x="792" y="-420" font-family="Helvetica,sans-Serif" font-size="10.00">rotateRightAction</text>
<text text-anchor="middle" x="792" y="-409" font-family="Helvetica,sans-Serif" font-size="10.00">rotateCClockwiseAction</text>
<text text-anchor="middle" x="792" y="-398" font-family="Helvetica,sans-Serif" font-size="10.00">rotateLeftAction</text>
<text text-anchor="middle" x="792" y="-387" font-family="Helvetica,sans-Serif" font-size="10.00">fireAction</text>
<text text-anchor="middle" x="792" y="-376" font-family="Helvetica,sans-Serif" font-size="10.00">rotateUpAction</text>
<text text-anchor="middle" x="792" y="-365" font-family="Helvetica,sans-Serif" font-size="10.00">rotateClockwiseAction</text>
<text text-anchor="middle" x="792" y="-354" font-family="Helvetica,sans-Serif" font-size="10.00">...</text>
</g>
<!-- Node7 -->
<g id="node7" class="node"><title>Node7</title>
<polygon fill="white" stroke="#bfbfbf" points="708,-304.5 708,-323.5 876,-323.5 876,-304.5 708,-304.5"/>
<text text-anchor="middle" x="792" y="-311.5" font-family="Helvetica,sans-Serif" font-size="10.00">std::vector&lt; ActionKeyMapping * &gt;</text>
</g>
<!-- Node3&#45;&gt;Node7 -->
<g id="edge9" class="edge"><title>Node3&#45;&gt;Node7</title>
<path fill="none" stroke="#9a32cd" stroke-dasharray="5,2" d="M540.36,-339.327C553.402,-337.87 567.17,-336.358 580,-335 622.1,-330.542 668.955,-325.852 707.797,-322.037"/>
<polygon fill="#9a32cd" stroke="#9a32cd" points="539.635,-335.887 530.088,-340.48 540.416,-342.843 539.635,-335.887"/>
<text text-anchor="middle" x="635" y="-338" font-family="Helvetica,sans-Serif" font-size="10.00"> elements</text>
</g>
<!-- Node4 -->
<g id="node4" class="node"><title>Node4</title>
<g id="a_node4"><a xlink:title="STL class. ">
<polygon fill="white" stroke="#bfbfbf" points="0,-304.5 0,-323.5 60,-323.5 60,-304.5 0,-304.5"/>
<text text-anchor="middle" x="30" y="-311.5" font-family="Helvetica,sans-Serif" font-size="10.00">std::string</text>
</a>
</g>
</g>
<!-- Node4&#45;&gt;Node3 -->
<g id="edge3" class="edge"><title>Node4&#45;&gt;Node3</title>
<path fill="none" stroke="#9a32cd" stroke-dasharray="5,2" d="M67.4153,-326.51C70.9646,-327.461 74.534,-328.315 78,-329 203.747,-353.868 355.771,-351.82 431.792,-348.665"/>
<polygon fill="#9a32cd" stroke="#9a32cd" points="68.1477,-323.078 57.5676,-323.636 66.1865,-329.798 68.1477,-323.078"/>
<text text-anchor="middle" x="203" y="-352" font-family="Helvetica,sans-Serif" font-size="10.00"> m_name</text>
</g>
<!-- Node5 -->
<g id="node5" class="node"><title>Node5</title>
<g id="a_node5"><a xlink:href="class_property.html" target="_top" xlink:title="Property\&lt; InputMapping \&gt;">
<polygon fill="white" stroke="red" points="138.5,-304.5 138.5,-323.5 267.5,-323.5 267.5,-304.5 138.5,-304.5"/>
<text text-anchor="middle" x="203" y="-311.5" font-family="Helvetica,sans-Serif" font-size="10.00">Property&lt; InputMapping &gt;</text>
</a>
</g>
</g>
<!-- Node4&#45;&gt;Node5 -->
<g id="edge5" class="edge"><title>Node4&#45;&gt;Node5</title>
<path fill="none" stroke="#9a32cd" stroke-dasharray="5,2" d="M70.084,-314C90.2906,-314 115.46,-314 138.381,-314"/>
<polygon fill="#9a32cd" stroke="#9a32cd" points="70.0079,-310.5 60.0078,-314 70.0078,-317.5 70.0079,-310.5"/>
<text text-anchor="middle" x="99" y="-317" font-family="Helvetica,sans-Serif" font-size="10.00"> m_name</text>
</g>
<!-- Node6 -->
<g id="node6" class="node"><title>Node6</title>
<g id="a_node6"><a xlink:href="class_property.html" target="_top" xlink:title="Property\&lt; float \&gt;">
<polygon fill="white" stroke="black" points="289.5,-266.5 289.5,-285.5 378.5,-285.5 378.5,-266.5 289.5,-266.5"/>
<text text-anchor="middle" x="334" y="-273.5" font-family="Helvetica,sans-Serif" font-size="10.00">Property&lt; float &gt;</text>
</a>
</g>
</g>
<!-- Node4&#45;&gt;Node6 -->
<g id="edge7" class="edge"><title>Node4&#45;&gt;Node6</title>
<path fill="none" stroke="#9a32cd" stroke-dasharray="5,2" d="M67.4214,-301.521C70.9695,-300.564 74.5369,-299.7 78,-299 151.197,-284.205 238.142,-278.923 289.268,-277.04"/>
<polygon fill="#9a32cd" stroke="#9a32cd" points="66.1888,-298.235 57.5756,-304.404 68.1562,-304.952 66.1888,-298.235"/>
<text text-anchor="middle" x="99" y="-302" font-family="Helvetica,sans-Serif" font-size="10.00"> m_name</text>
</g>
<!-- Node5&#45;&gt;Node3 -->
<g id="edge4" class="edge"><title>Node5&#45;&gt;Node3</title>
<path fill="none" stroke="#9a32cd" stroke-dasharray="5,2" d="M277.887,-315.426C309.997,-316.748 347.976,-319.258 382,-324 402.725,-326.888 425.553,-331.903 443.959,-336.416"/>
<polygon fill="#9a32cd" stroke="#9a32cd" points="277.806,-311.921 267.68,-315.038 277.54,-318.916 277.806,-311.921"/>
<text text-anchor="middle" x="334" y="-338" font-family="Helvetica,sans-Serif" font-size="10.00"> m_primaryMapping</text>
<text text-anchor="middle" x="334" y="-327" font-family="Helvetica,sans-Serif" font-size="10.00">m_secondaryMapping</text>
</g>
<!-- Node6&#45;&gt;Node1 -->
<g id="edge6" class="edge"><title>Node6&#45;&gt;Node1</title>
<path fill="none" stroke="#9a32cd" stroke-dasharray="5,2" d="M388.774,-277.291C525.296,-280.567 884.499,-289.188 1026.26,-292.59"/>
<polygon fill="#9a32cd" stroke="#9a32cd" points="388.646,-273.787 378.565,-277.046 388.478,-280.785 388.646,-273.787"/>
<text text-anchor="middle" x="635" y="-309" font-family="Helvetica,sans-Serif" font-size="10.00"> prop_deadzoneMouse</text>
<text text-anchor="middle" x="635" y="-298" font-family="Helvetica,sans-Serif" font-size="10.00">prop_deadzoneGamepad</text>
<text text-anchor="middle" x="635" y="-287" font-family="Helvetica,sans-Serif" font-size="10.00">prop_maxClickTime</text>
</g>
<!-- Node7&#45;&gt;Node1 -->
<g id="edge8" class="edge"><title>Node7&#45;&gt;Node1</title>
<path fill="none" stroke="#9a32cd" stroke-dasharray="5,2" d="M886.538,-307.593C932.374,-304.454 986.165,-300.77 1026.18,-298.029"/>
<polygon fill="#9a32cd" stroke="#9a32cd" points="886.022,-304.12 876.285,-308.296 886.501,-311.104 886.022,-304.12"/>
<text text-anchor="middle" x="951" y="-309" font-family="Helvetica,sans-Serif" font-size="10.00"> m_actions</text>
</g>
<!-- Node8 -->
<g id="node8" class="node"><title>Node8</title>
<g id="a_node8"><a xlink:href="class_input_configurator.html" target="_top" xlink:title="InputConfigurator">
<polygon fill="white" stroke="black" points="747.5,-228.5 747.5,-247.5 836.5,-247.5 836.5,-228.5 747.5,-228.5"/>
<text text-anchor="middle" x="792" y="-235.5" font-family="Helvetica,sans-Serif" font-size="10.00">InputConfigurator</text>
</a>
</g>
</g>
<!-- Node8&#45;&gt;Node1 -->
<g id="edge10" class="edge"><title>Node8&#45;&gt;Node1</title>
<path fill="none" stroke="#9a32cd" stroke-dasharray="5,2" d="M847.038,-234.688C891.219,-233.53 954.841,-235.435 1008,-251 1032.39,-258.142 1057.53,-274.102 1072.19,-284.441"/>
<polygon fill="#9a32cd" stroke="#9a32cd" points="846.684,-231.198 836.803,-235.02 846.911,-238.194 846.684,-231.198"/>
<text text-anchor="middle" x="951" y="-254" font-family="Helvetica,sans-Serif" font-size="10.00"> m_inputConfigurator</text>
</g>
<!-- Node9 -->
<g id="node9" class="node"><title>Node9</title>
<g id="a_node9"><a xlink:href="class_player.html" target="_top" xlink:title="Player">
<polygon fill="white" stroke="black" points="770,-133.5 770,-152.5 814,-152.5 814,-133.5 770,-133.5"/>
<text text-anchor="middle" x="792" y="-140.5" font-family="Helvetica,sans-Serif" font-size="10.00">Player</text>
</a>
</g>
</g>
<!-- Node9&#45;&gt;Node1 -->
<g id="edge11" class="edge"><title>Node9&#45;&gt;Node1</title>
<path fill="none" stroke="#9a32cd" stroke-dasharray="5,2" d="M824.089,-149.995C867.562,-160.697 947.925,-183.888 1008,-221 1036.84,-238.814 1064,-268.732 1077,-284.152"/>
<polygon fill="#9a32cd" stroke="#9a32cd" points="824.66,-146.533 814.12,-147.602 823.026,-153.339 824.66,-146.533"/>
<text text-anchor="middle" x="951" y="-224" font-family="Helvetica,sans-Serif" font-size="10.00"> m_player</text>
</g>
<!-- Node10 -->
<g id="node10" class="node"><title>Node10</title>
<g id="a_node10"><a xlink:href="class_game_play.html" target="_top" xlink:title="GamePlay">
<polygon fill="white" stroke="red" points="450,-228.5 450,-247.5 512,-247.5 512,-228.5 450,-228.5"/>
<text text-anchor="middle" x="481" y="-235.5" font-family="Helvetica,sans-Serif" font-size="10.00">GamePlay</text>
</a>
</g>
</g>
<!-- Node10&#45;&gt;Node9 -->
<g id="edge12" class="edge"><title>Node10&#45;&gt;Node9</title>
<path fill="none" stroke="#9a32cd" stroke-dasharray="5,2" d="M522.203,-235.959C564.961,-232.758 634.009,-224.608 690,-204 724.603,-191.264 760.478,-166.28 778.73,-152.569"/>
<polygon fill="#9a32cd" stroke="#9a32cd" points="521.918,-232.47 512.185,-236.654 522.403,-239.453 521.918,-232.47"/>
<text text-anchor="middle" x="635" y="-233" font-family="Helvetica,sans-Serif" font-size="10.00"> m_gamePlay</text>
</g>
<!-- Node11 -->
<g id="node11" class="node"><title>Node11</title>
<polygon fill="white" stroke="#bfbfbf" points="400,-190.5 400,-209.5 562,-209.5 562,-190.5 400,-190.5"/>
<text text-anchor="middle" x="481" y="-197.5" font-family="Helvetica,sans-Serif" font-size="10.00">std::unique_ptr&lt; TargetSelector &gt;</text>
</g>
<!-- Node11&#45;&gt;Node9 -->
<g id="edge13" class="edge"><title>Node11&#45;&gt;Node9</title>
<path fill="none" stroke="#9a32cd" stroke-dasharray="5,2" d="M572.599,-190.007C609.239,-185.281 651.82,-178.918 690,-171 717.973,-165.199 749.623,-155.982 769.919,-149.721"/>
<polygon fill="#9a32cd" stroke="#9a32cd" points="571.91,-186.566 562.43,-191.297 572.791,-193.511 571.91,-186.566"/>
<text text-anchor="middle" x="635" y="-192" font-family="Helvetica,sans-Serif" font-size="10.00"> m_targetSelector</text>
</g>
<!-- Node12 -->
<g id="node12" class="node"><title>Node12</title>
<polygon fill="white" stroke="#bfbfbf" points="421.5,-152.5 421.5,-171.5 540.5,-171.5 540.5,-152.5 421.5,-152.5"/>
<text text-anchor="middle" x="481" y="-159.5" font-family="Helvetica,sans-Serif" font-size="10.00">std::unique_ptr&lt; HUD &gt;</text>
</g>
<!-- Node12&#45;&gt;Node9 -->
<g id="edge14" class="edge"><title>Node12&#45;&gt;Node9</title>
<path fill="none" stroke="#9a32cd" stroke-dasharray="5,2" d="M550.919,-157.762C620.942,-153.457 725.227,-147.044 769.683,-144.311"/>
<polygon fill="#9a32cd" stroke="#9a32cd" points="550.614,-154.274 540.848,-158.382 551.044,-161.261 550.614,-154.274"/>
<text text-anchor="middle" x="635" y="-159" font-family="Helvetica,sans-Serif" font-size="10.00"> m_hud</text>
</g>
<!-- Node13 -->
<g id="node13" class="node"><title>Node13</title>
<polygon fill="white" stroke="#bfbfbf" points="403.5,-114.5 403.5,-133.5 558.5,-133.5 558.5,-114.5 403.5,-114.5"/>
<text text-anchor="middle" x="481" y="-121.5" font-family="Helvetica,sans-Serif" font-size="10.00">std::unique_ptr&lt; CameraDolly &gt;</text>
</g>
<!-- Node13&#45;&gt;Node9 -->
<g id="edge15" class="edge"><title>Node13&#45;&gt;Node9</title>
<path fill="none" stroke="#9a32cd" stroke-dasharray="5,2" d="M568.917,-128.088C606.208,-129.973 650.257,-132.376 690,-135 717.556,-136.82 749.3,-139.416 769.731,-141.153"/>
<polygon fill="#9a32cd" stroke="#9a32cd" points="568.749,-124.575 558.587,-127.57 568.399,-131.566 568.749,-124.575"/>
<text text-anchor="middle" x="635" y="-138" font-family="Helvetica,sans-Serif" font-size="10.00"> m_cameraDolly</text>
</g>
<!-- Node14 -->
<g id="node14" class="node"><title>Node14</title>
<polygon fill="white" stroke="#bfbfbf" points="418.5,-76.5 418.5,-95.5 543.5,-95.5 543.5,-76.5 418.5,-76.5"/>
<text text-anchor="middle" x="481" y="-83.5" font-family="Helvetica,sans-Serif" font-size="10.00">std::unique_ptr&lt; Aimer &gt;</text>
</g>
<!-- Node14&#45;&gt;Node9 -->
<g id="edge16" class="edge"><title>Node14&#45;&gt;Node9</title>
<path fill="none" stroke="#9a32cd" stroke-dasharray="5,2" d="M553.834,-93.0566C594.11,-97.6652 645.125,-104.59 690,-114 718.032,-119.878 749.669,-129.454 769.945,-135.981"/>
<polygon fill="#9a32cd" stroke="#9a32cd" points="554.163,-89.5717 543.835,-91.9347 553.383,-96.528 554.163,-89.5717"/>
<text text-anchor="middle" x="635" y="-117" font-family="Helvetica,sans-Serif" font-size="10.00"> m_aimer</text>
</g>
<!-- Node15 -->
<g id="node15" class="node"><title>Node15</title>
<g id="a_node15"><a xlink:href="class_handle.html" target="_top" xlink:title="Handle\&lt; Ship \&gt;">
<polygon fill="white" stroke="black" points="439,-38.5 439,-57.5 523,-57.5 523,-38.5 439,-38.5"/>
<text text-anchor="middle" x="481" y="-45.5" font-family="Helvetica,sans-Serif" font-size="10.00">Handle&lt; Ship &gt;</text>
</a>
</g>
</g>
<!-- Node15&#45;&gt;Node9 -->
<g id="edge17" class="edge"><title>Node15&#45;&gt;Node9</title>
<path fill="none" stroke="#9a32cd" stroke-dasharray="5,2" d="M533.251,-50.9347C576.218,-54.6655 638.609,-63.0848 690,-82 724.603,-94.7361 760.478,-119.72 778.73,-133.431"/>
<polygon fill="#9a32cd" stroke="#9a32cd" points="533.287,-47.4262 523.037,-50.1042 532.72,-54.4032 533.287,-47.4262"/>
<text text-anchor="middle" x="635" y="-85" font-family="Helvetica,sans-Serif" font-size="10.00"> m_ship</text>
</g>
<!-- Node16 -->
<g id="node16" class="node"><title>Node16</title>
<g id="a_node16"><a xlink:href="class_abstract_move.html" target="_top" xlink:title="AbstractMove">
<polygon fill="white" stroke="black" points="443,-0.5 443,-19.5 519,-19.5 519,-0.5 443,-0.5"/>
<text text-anchor="middle" x="481" y="-7.5" font-family="Helvetica,sans-Serif" font-size="10.00">AbstractMove</text>
</a>
</g>
</g>
<!-- Node16&#45;&gt;Node9 -->
<g id="edge18" class="edge"><title>Node16&#45;&gt;Node9</title>
<path fill="none" stroke="#9a32cd" stroke-dasharray="5,2" d="M529.151,-9.04042C573.047,-9.99021 639.161,-16.2378 690,-42 733.797,-64.1938 770.264,-112.475 784.54,-133.214"/>
<polygon fill="#9a32cd" stroke="#9a32cd" points="529.087,-5.53937 519.041,-8.90681 528.994,-12.5388 529.087,-5.53937"/>
<text text-anchor="middle" x="635" y="-45" font-family="Helvetica,sans-Serif" font-size="10.00"> m_engineState</text>
</g>
</g>
</svg>
        <g id="navigator" transform="translate(0 0)" fill="#404254">
                <rect fill="#f2f5e9" fill-opacity="0.5" stroke="#606060" stroke-width=".5" x="0" y="0" width="60" height="60"/>
                <use id="zoomplus" xlink:href="#zoomPlus" x="17" y="9" onmousedown="handleZoom(evt,'in')"/>
                <use id="zoomminus" xlink:href="#zoomMin" x="42" y="9" onmousedown="handleZoom(evt,'out')"/>
                <use id="reset" xlink:href="#resetDef" x="30" y="36" onmousedown="handleReset()"/>
                <g id="arrowUp" xlink:href="#dirArrow" transform="translate(30 24)" onmousedown="handlePan(0,-1)">
                  <use xlink:href="#rim" fill="#404040">
                        <set attributeName="fill" to="#808080" begin="arrowUp.mouseover" end="arrowUp.mouseout"/>
                  </use>
                  <path fill="none" stroke="white" stroke-width="1.5" d="M0,-3.0v7 M-2.5,-0.5L0,-3.0L2.5,-0.5"/>
                </g>
                <g id="arrowRight" xlink:href="#dirArrow" transform="rotate(90) translate(36 -43)" onmousedown="handlePan(1,0)">
                  <use xlink:href="#rim" fill="#404040">
                        <set attributeName="fill" to="#808080" begin="arrowRight.mouseover" end="arrowRight.mouseout"/>
                  </use>
                  <path fill="none" stroke="white" stroke-width="1.5" d="M0,-3.0v7 M-2.5,-0.5L0,-3.0L2.5,-0.5"/>
                </g>
                <g id="arrowDown" xlink:href="#dirArrow" transform="rotate(180) translate(-30 -48)" onmousedown="handlePan(0,1)">
                  <use xlink:href="#rim" fill="#404040">
                        <set attributeName="fill" to="#808080" begin="arrowDown.mouseover" end="arrowDown.mouseout"/>
                  </use>
                  <path fill="none" stroke="white" stroke-width="1.5" d="M0,-3.0v7 M-2.5,-0.5L0,-3.0L2.5,-0.5"/>
                </g>
                <g id="arrowLeft" xlink:href="#dirArrow" transform="rotate(270) translate(-36 17)" onmousedown="handlePan(-1,0)">
                  <use xlink:href="#rim" fill="#404040">
                        <set attributeName="fill" to="#808080" begin="arrowLeft.mouseover" end="arrowLeft.mouseout"/>
                  </use>
                  <path fill="none" stroke="white" stroke-width="1.5" d="M0,-3.0v7 M-2.5,-0.5L0,-3.0L2.5,-0.5"/>
                </g>
        </g>
        <svg viewBox="0 0 15 15" width="100%" height="30px" preserveAspectRatio="xMaxYMin meet">
         <g id="arrow_out" transform="scale(0.3 0.3)">
          <a xlink:href="class_game_play_running_input__coll__graph_org.svg" target="_base">
           <rect id="button" ry="5" rx="5" y="6" x="6" height="38" width="38"
                fill="#f2f5e9" fill-opacity="0.5" stroke="#606060" stroke-width="1.0"/>
           <path id="arrow"
             d="M 11.500037,31.436501 C 11.940474,20.09759 22.043105,11.32322 32.158766,21.979434 L 37.068811,17.246167 C 37.068811,17.246167 37.088388,32 37.088388,32 L 22.160133,31.978069 C 22.160133,31.978069 26.997745,27.140456 26.997745,27.140456 C 18.528582,18.264221 13.291696,25.230495 11.500037,31.436501 z"
             style="fill:#404040;"/>
          </a>
         </g>
        </svg>
</svg>
