<?xml version="1.0" encoding="UTF-8" standalone="no"?>
<!DOCTYPE svg PUBLIC "-//W3C//DTD SVG 1.1//EN"
 "http://www.w3.org/Graphics/SVG/1.1/DTD/svg11.dtd">
<!-- Generated by graphviz version 2.36.0 (20140111.2315)
 -->
<!-- Title: RenderPass Pages: 1 -->
<svg width="286pt" height="140pt"
 viewBox="0.00 0.00 286.00 140.00" xmlns="http://www.w3.org/2000/svg" xmlns:xlink="http://www.w3.org/1999/xlink">
<g id="graph0" class="graph" transform="scale(1 1) rotate(0) translate(4 136)">
<title>RenderPass</title>
<polygon fill="white" stroke="none" points="-4,4 -4,-136 282,-136 282,4 -4,4"/>
<!-- Node1 -->
<g id="node1" class="node"><title>Node1</title>
<polygon fill="#bfbfbf" stroke="black" points="132,-112.5 132,-131.5 202,-131.5 202,-112.5 132,-112.5"/>
<text text-anchor="middle" x="167" y="-119.5" font-family="Helvetica,sans-Serif" font-size="10.00">RenderPass</text>
</g>
<!-- Node2 -->
<g id="node2" class="node"><title>Node2</title>
<g id="a_node2"><a xlink:href="class_post_processing_pass.html" target="_top" xlink:title="PostProcessingPass">
<polygon fill="white" stroke="black" points="0,-56.5 0,-75.5 108,-75.5 108,-56.5 0,-56.5"/>
<text text-anchor="middle" x="54" y="-63.5" font-family="Helvetica,sans-Serif" font-size="10.00">PostProcessingPass</text>
</a>
</g>
</g>
<!-- Node1&#45;&gt;Node2 -->
<g id="edge1" class="edge"><title>Node1&#45;&gt;Node2</title>
<path fill="none" stroke="midnightblue" d="M139.997,-108.096C118.886,-98.0073 90.1385,-84.2697 71.8214,-75.5164"/>
<polygon fill="midnightblue" stroke="midnightblue" points="138.563,-111.29 149.095,-112.444 141.581,-104.974 138.563,-111.29"/>
</g>
<!-- Node4 -->
<g id="node4" class="node"><title>Node4</title>
<g id="a_node4"><a xlink:href="class_render_pipeline.html" target="_top" xlink:title="RenderPipeline">
<polygon fill="white" stroke="black" points="126,-56.5 126,-75.5 208,-75.5 208,-56.5 126,-56.5"/>
<text text-anchor="middle" x="167" y="-63.5" font-family="Helvetica,sans-Serif" font-size="10.00">RenderPipeline</text>
</a>
</g>
</g>
<!-- Node1&#45;&gt;Node4 -->
<g id="edge3" class="edge"><title>Node1&#45;&gt;Node4</title>
<path fill="none" stroke="#8b1a1a" d="M167,-101.805C167,-92.9102 167,-82.7798 167,-75.7511"/>
<polygon fill="#8b1a1a" stroke="#8b1a1a" points="163.5,-102.083 167,-112.083 170.5,-102.083 163.5,-102.083"/>
</g>
<!-- Node6 -->
<g id="node6" class="node"><title>Node6</title>
<g id="a_node6"><a xlink:href="class_starfield.html" target="_top" xlink:title="Starfield">
<polygon fill="white" stroke="black" points="226,-56.5 226,-75.5 278,-75.5 278,-56.5 226,-56.5"/>
<text text-anchor="middle" x="252" y="-63.5" font-family="Helvetica,sans-Serif" font-size="10.00">Starfield</text>
</a>
</g>
</g>
<!-- Node1&#45;&gt;Node6 -->
<g id="edge5" class="edge"><title>Node1&#45;&gt;Node6</title>
<path fill="none" stroke="midnightblue" d="M189.194,-106.901C204.78,-96.9986 225.13,-84.0705 238.377,-75.6545"/>
<polygon fill="midnightblue" stroke="midnightblue" points="187.221,-104.007 180.657,-112.324 190.974,-109.916 187.221,-104.007"/>
</g>
<!-- Node3 -->
<g id="node3" class="node"><title>Node3</title>
<g id="a_node3"><a xlink:href="class_blitter.html" target="_top" xlink:title="Blitter">
<polygon fill="white" stroke="black" points="33,-0.5 33,-19.5 75,-19.5 75,-0.5 33,-0.5"/>
<text text-anchor="middle" x="54" y="-7.5" font-family="Helvetica,sans-Serif" font-size="10.00">Blitter</text>
</a>
</g>
</g>
<!-- Node2&#45;&gt;Node3 -->
<g id="edge2" class="edge"><title>Node2&#45;&gt;Node3</title>
<path fill="none" stroke="midnightblue" d="M54,-45.8045C54,-36.9102 54,-26.7798 54,-19.7511"/>
<polygon fill="midnightblue" stroke="midnightblue" points="50.5001,-46.083 54,-56.083 57.5001,-46.083 50.5001,-46.083"/>
</g>
<!-- Node5 -->
<g id="node5" class="node"><title>Node5</title>
<g id="a_node5"><a xlink:href="class_default_render_pipeline.html" target="_top" xlink:title="DefaultRenderPipeline">
<polygon fill="white" stroke="black" points="111,-0.5 111,-19.5 223,-19.5 223,-0.5 111,-0.5"/>
<text text-anchor="middle" x="167" y="-7.5" font-family="Helvetica,sans-Serif" font-size="10.00">DefaultRenderPipeline</text>
</a>
</g>
</g>
<!-- Node4&#45;&gt;Node5 -->
<g id="edge4" class="edge"><title>Node4&#45;&gt;Node5</title>
<path fill="none" stroke="midnightblue" d="M167,-45.8045C167,-36.9102 167,-26.7798 167,-19.7511"/>
<polygon fill="midnightblue" stroke="midnightblue" points="163.5,-46.083 167,-56.083 170.5,-46.083 163.5,-46.083"/>
</g>
</g>
</svg>
