<?xml version="1.0" encoding="UTF-8" standalone="no"?>
<!DOCTYPE svg PUBLIC "-//W3C//DTD SVG 1.1//EN"
 "http://www.w3.org/Graphics/SVG/1.1/DTD/svg11.dtd">
<!-- Generated by graphviz version 2.36.0 (20140111.2315)
 -->
<!-- Title: CameraDolly Pages: 1 -->
<svg width="886pt" height="82pt"
 viewBox="0.00 0.00 886.00 82.00" xmlns="http://www.w3.org/2000/svg" xmlns:xlink="http://www.w3.org/1999/xlink">
<g id="graph0" class="graph" transform="scale(1 1) rotate(0) translate(4 78)">
<title>CameraDolly</title>
<polygon fill="white" stroke="none" points="-4,4 -4,-78 882,-78 882,4 -4,4"/>
<!-- Node1 -->
<g id="node1" class="node"><title>Node1</title>
<polygon fill="#bfbfbf" stroke="black" points="416,-31.5 416,-50.5 488,-50.5 488,-31.5 416,-31.5"/>
<text text-anchor="middle" x="452" y="-38.5" font-family="Helvetica,sans-Serif" font-size="10.00">CameraDolly</text>
</g>
<!-- Node6 -->
<g id="node6" class="node"><title>Node6</title>
<g id="a_node6"><a xlink:href="class_camera_head.html" target="_top" xlink:title="CameraHead">
<polygon fill="white" stroke="black" points="596.5,-54.5 596.5,-73.5 669.5,-73.5 669.5,-54.5 596.5,-54.5"/>
<text text-anchor="middle" x="633" y="-61.5" font-family="Helvetica,sans-Serif" font-size="10.00">CameraHead</text>
</a>
</g>
</g>
<!-- Node1&#45;&gt;Node6 -->
<g id="edge6" class="edge"><title>Node1&#45;&gt;Node6</title>
<path fill="none" stroke="#9a32cd" stroke-dasharray="5,2" d="M498.303,-46.821C528.723,-50.7297 568.238,-55.8071 596.403,-59.4261"/>
<polygon fill="#9a32cd" stroke="#9a32cd" points="498.729,-43.3471 488.365,-45.5441 497.837,-50.29 498.729,-43.3471"/>
<text text-anchor="middle" x="542" y="-59" font-family="Helvetica,sans-Serif" font-size="10.00"> m_cameraDolly</text>
</g>
<!-- Node2 -->
<g id="node2" class="node"><title>Node2</title>
<g id="a_node2"><a xlink:href="class_inertia_follower.html" target="_top" xlink:title="InertiaFollower">
<polygon fill="white" stroke="black" points="194.5,-49.5 194.5,-68.5 273.5,-68.5 273.5,-49.5 194.5,-49.5"/>
<text text-anchor="middle" x="234" y="-56.5" font-family="Helvetica,sans-Serif" font-size="10.00">InertiaFollower</text>
</a>
</g>
</g>
<!-- Node2&#45;&gt;Node1 -->
<g id="edge1" class="edge"><title>Node2&#45;&gt;Node1</title>
<path fill="none" stroke="midnightblue" d="M283.732,-54.939C323.943,-51.5881 380.031,-46.9141 415.934,-43.9222"/>
<polygon fill="midnightblue" stroke="midnightblue" points="283.291,-51.4635 273.616,-55.782 283.873,-58.4393 283.291,-51.4635"/>
</g>
<!-- Node3 -->
<g id="node3" class="node"><title>Node3</title>
<polygon fill="white" stroke="#bfbfbf" points="158,-0 158,-30 310,-30 310,-0 158,-0"/>
<text text-anchor="start" x="166" y="-18" font-family="Helvetica,sans-Serif" font-size="10.00">std::unique_ptr&lt; CameraFollow</text>
<text text-anchor="middle" x="234" y="-7" font-family="Helvetica,sans-Serif" font-size="10.00">Helper &gt;</text>
</g>
<!-- Node3&#45;&gt;Node1 -->
<g id="edge2" class="edge"><title>Node3&#45;&gt;Node1</title>
<path fill="none" stroke="#9a32cd" stroke-dasharray="5,2" d="M320.437,-21.9484C345.486,-24.3738 372.89,-27.4059 398,-31 403.747,-31.8226 409.819,-32.8333 415.721,-33.8927"/>
<polygon fill="#9a32cd" stroke="#9a32cd" points="320.516,-18.4402 310.23,-20.9806 319.855,-25.4089 320.516,-18.4402"/>
<text text-anchor="middle" x="363" y="-34" font-family="Helvetica,sans-Serif" font-size="10.00"> m_followHelper</text>
</g>
<!-- Node4 -->
<g id="node4" class="node"><title>Node4</title>
<g id="a_node4"><a xlink:href="class_camera_follow_helper.html" target="_top" xlink:title="CameraFollowHelper">
<polygon fill="white" stroke="red" points="0,-5.5 0,-24.5 106,-24.5 106,-5.5 0,-5.5"/>
<text text-anchor="middle" x="53" y="-12.5" font-family="Helvetica,sans-Serif" font-size="10.00">CameraFollowHelper</text>
</a>
</g>
</g>
<!-- Node4&#45;&gt;Node3 -->
<g id="edge3" class="edge"><title>Node4&#45;&gt;Node3</title>
<path fill="none" stroke="#9a32cd" stroke-dasharray="5,2" d="M116.285,-15C129.658,-15 143.927,-15 157.732,-15"/>
<polygon fill="#9a32cd" stroke="#9a32cd" points="116.255,-11.5001 106.255,-15 116.255,-18.5001 116.255,-11.5001"/>
<text text-anchor="middle" x="132" y="-18" font-family="Helvetica,sans-Serif" font-size="10.00"> ptr</text>
</g>
<!-- Node5 -->
<g id="node5" class="node"><title>Node5</title>
<polygon fill="white" stroke="#bfbfbf" points="722.5,-33.5 722.5,-52.5 877.5,-52.5 877.5,-33.5 722.5,-33.5"/>
<text text-anchor="middle" x="800" y="-40.5" font-family="Helvetica,sans-Serif" font-size="10.00">std::unique_ptr&lt; CameraHead &gt;</text>
</g>
<!-- Node5&#45;&gt;Node1 -->
<g id="edge4" class="edge"><title>Node5&#45;&gt;Node1</title>
<path fill="none" stroke="#9a32cd" stroke-dasharray="5,2" d="M712.135,-36.1088C698.058,-35.2313 683.631,-34.4749 670,-34 605.96,-31.7688 531.281,-35.5877 488.333,-38.4054"/>
<polygon fill="#9a32cd" stroke="#9a32cd" points="712.101,-39.6139 722.307,-36.7669 712.553,-32.6285 712.101,-39.6139"/>
<text text-anchor="middle" x="633" y="-37" font-family="Helvetica,sans-Serif" font-size="10.00"> m_cameraHead</text>
</g>
<!-- Node6&#45;&gt;Node5 -->
<g id="edge5" class="edge"><title>Node6&#45;&gt;Node5</title>
<path fill="none" stroke="#9a32cd" stroke-dasharray="5,2" d="M679.963,-58.1502C693.728,-56.3983 709.193,-54.43 724.305,-52.5066"/>
<polygon fill="#9a32cd" stroke="#9a32cd" points="679.281,-54.7087 669.803,-59.4433 680.164,-61.6527 679.281,-54.7087"/>
<text text-anchor="middle" x="696" y="-59" font-family="Helvetica,sans-Serif" font-size="10.00"> ptr</text>
</g>
</g>
</svg>
