<?xml version="1.0" encoding="UTF-8" standalone="no"?>
<!DOCTYPE svg PUBLIC "-//W3C//DTD SVG 1.1//EN"
 "http://www.w3.org/Graphics/SVG/1.1/DTD/svg11.dtd">
<!-- Generated by graphviz version 2.36.0 (20140111.2315)
 -->
<!-- Title: TextFieldHudgetVoxels Pages: 1 -->
<svg width="872pt" height="145pt"
 viewBox="0.00 0.00 872.00 144.58" xmlns="http://www.w3.org/2000/svg" xmlns:xlink="http://www.w3.org/1999/xlink">
<g id="graph0" class="graph" transform="scale(1 1) rotate(0) translate(4 140.585)">
<title>TextFieldHudgetVoxels</title>
<polygon fill="white" stroke="none" points="-4,4 -4,-140.585 868,-140.585 868,4 -4,4"/>
<!-- Node1 -->
<g id="node1" class="node"><title>Node1</title>
<polygon fill="#bfbfbf" stroke="black" points="362.5,-25.0846 362.5,-44.0846 479.5,-44.0846 479.5,-25.0846 362.5,-25.0846"/>
<text text-anchor="middle" x="421" y="-32.0846" font-family="Helvetica,sans-Serif" font-size="10.00">TextFieldHudgetVoxels</text>
</g>
<!-- Node6 -->
<g id="node6" class="node"><title>Node6</title>
<polygon fill="white" stroke="#bfbfbf" points="566,-29.5846 566,-59.5846 696,-59.5846 696,-29.5846 566,-29.5846"/>
<text text-anchor="start" x="574" y="-47.5846" font-family="Helvetica,sans-Serif" font-size="10.00">std::unique_ptr&lt; TextField</text>
<text text-anchor="middle" x="631" y="-36.5846" font-family="Helvetica,sans-Serif" font-size="10.00">HudgetVoxels &gt;</text>
</g>
<!-- Node1&#45;&gt;Node6 -->
<g id="edge7" class="edge"><title>Node1&#45;&gt;Node6</title>
<path fill="none" stroke="#9a32cd" stroke-dasharray="5,2" d="M489.894,-37.8487C514.238,-39.0191 541.596,-40.3344 565.633,-41.49"/>
<polygon fill="#9a32cd" stroke="#9a32cd" points="489.82,-34.3412 479.663,-37.3569 489.484,-41.3332 489.82,-34.3412"/>
<text text-anchor="middle" x="523" y="-43.5846" font-family="Helvetica,sans-Serif" font-size="10.00"> ptr</text>
</g>
<!-- Node2 -->
<g id="node2" class="node"><title>Node2</title>
<g id="a_node2"><a xlink:href="class_voxel_font.html" target="_top" xlink:title="VoxelFont">
<polygon fill="white" stroke="black" points="206.5,-12.0846 206.5,-31.0846 267.5,-31.0846 267.5,-12.0846 206.5,-12.0846"/>
<text text-anchor="middle" x="237" y="-19.0846" font-family="Helvetica,sans-Serif" font-size="10.00">VoxelFont</text>
</a>
</g>
</g>
<!-- Node2&#45;&gt;Node1 -->
<g id="edge1" class="edge"><title>Node2&#45;&gt;Node1</title>
<path fill="none" stroke="#9a32cd" stroke-dasharray="5,2" d="M277.952,-23.5122C297.818,-24.5557 322.186,-25.9632 344,-27.5846 349.946,-28.0266 356.15,-28.5295 362.338,-29.0582"/>
<polygon fill="#9a32cd" stroke="#9a32cd" points="277.884,-20.0042 267.717,-22.9857 277.524,-26.9949 277.884,-20.0042"/>
<text text-anchor="middle" x="315" y="-30.5846" font-family="Helvetica,sans-Serif" font-size="10.00"> m_voxelFont</text>
</g>
<!-- Node2&#45;&gt;Node2 -->
<g id="edge3" class="edge"><title>Node2&#45;&gt;Node2</title>
<path fill="none" stroke="#9a32cd" stroke-dasharray="5,2" d="M223.372,-41.3509C224.443,-46.0811 228.985,-49.5846 237,-49.5846 250.152,-49.5846 253.954,-40.1499 248.406,-31.3417"/>
<polygon fill="#9a32cd" stroke="#9a32cd" points="226.844,-41.8626 225.594,-31.3417 220.01,-40.3455 226.844,-41.8626"/>
<text text-anchor="middle" x="237" y="-52.5846" font-family="Helvetica,sans-Serif" font-size="10.00"> s_instance</text>
</g>
<!-- Node3 -->
<g id="node3" class="node"><title>Node3</title>
<polygon fill="white" stroke="#bfbfbf" points="0.5,-6.58461 0.5,-36.5846 119.5,-36.5846 119.5,-6.58461 0.5,-6.58461"/>
<text text-anchor="start" x="8.5" y="-24.5846" font-family="Helvetica,sans-Serif" font-size="10.00">std::map&lt; char, std</text>
<text text-anchor="middle" x="60" y="-13.5846" font-family="Helvetica,sans-Serif" font-size="10.00">::unique_ptr&lt; Letter &gt; &gt;</text>
</g>
<!-- Node3&#45;&gt;Node2 -->
<g id="edge2" class="edge"><title>Node3&#45;&gt;Node2</title>
<path fill="none" stroke="#9a32cd" stroke-dasharray="5,2" d="M129.774,-21.5846C156.266,-21.5846 185.162,-21.5846 206.118,-21.5846"/>
<polygon fill="#9a32cd" stroke="#9a32cd" points="129.759,-18.0847 119.759,-21.5846 129.759,-25.0847 129.759,-18.0847"/>
<text text-anchor="middle" x="163" y="-35.5846" font-family="Helvetica,sans-Serif" font-size="10.00"> m_font5x7</text>
<text text-anchor="middle" x="163" y="-24.5846" font-family="Helvetica,sans-Serif" font-size="10.00">m_font3x5</text>
</g>
<!-- Node4 -->
<g id="node4" class="node"><title>Node4</title>
<g id="a_node4"><a xlink:href="class_text_field_hudget.html" target="_top" xlink:title="TextFieldHudget">
<polygon fill="white" stroke="black" points="776.5,-61.0846 776.5,-80.0846 863.5,-80.0846 863.5,-61.0846 776.5,-61.0846"/>
<text text-anchor="middle" x="820" y="-68.0846" font-family="Helvetica,sans-Serif" font-size="10.00">TextFieldHudget</text>
</a>
</g>
</g>
<!-- Node4&#45;&gt;Node1 -->
<g id="edge4" class="edge"><title>Node4&#45;&gt;Node1</title>
<path fill="none" stroke="#9a32cd" stroke-dasharray="5,2" d="M796.864,-55.3942C773.146,-40.1153 733.791,-17.5707 696,-8.58461 609.999,11.8649 505.205,-10.8196 453.692,-24.9753"/>
<polygon fill="#9a32cd" stroke="#9a32cd" points="795.167,-58.4671 805.443,-61.0459 799.018,-52.6216 795.167,-58.4671"/>
<text text-anchor="middle" x="631" y="-11.5846" font-family="Helvetica,sans-Serif" font-size="10.00"> m_textFieldHudget</text>
</g>
<!-- Node5 -->
<g id="node5" class="node"><title>Node5</title>
<g id="a_node5"><a xlink:href="class_hudget.html" target="_top" xlink:title="Hudget">
<polygon fill="white" stroke="red" points="607.5,-117.085 607.5,-136.085 654.5,-136.085 654.5,-117.085 607.5,-117.085"/>
<text text-anchor="middle" x="631" y="-124.085" font-family="Helvetica,sans-Serif" font-size="10.00">Hudget</text>
</a>
</g>
</g>
<!-- Node5&#45;&gt;Node4 -->
<g id="edge5" class="edge"><title>Node5&#45;&gt;Node4</title>
<path fill="none" stroke="midnightblue" d="M664.849,-123.024C690.688,-119.585 727.324,-113.287 758,-102.585 774.26,-96.9119 791.528,-87.496 803.526,-80.3429"/>
<polygon fill="midnightblue" stroke="midnightblue" points="664.312,-119.564 654.828,-124.286 665.187,-126.509 664.312,-119.564"/>
</g>
<!-- Node6&#45;&gt;Node4 -->
<g id="edge6" class="edge"><title>Node6&#45;&gt;Node4</title>
<path fill="none" stroke="#9a32cd" stroke-dasharray="5,2" d="M706.191,-54.8999C730.046,-58.2167 755.656,-61.7774 776.435,-64.6664"/>
<polygon fill="#9a32cd" stroke="#9a32cd" points="706.48,-51.4065 696.093,-53.496 705.516,-58.3398 706.48,-51.4065"/>
<text text-anchor="middle" x="736" y="-64.5846" font-family="Helvetica,sans-Serif" font-size="10.00"> m_voxels</text>
</g>
<!-- Node7 -->
<g id="node7" class="node"><title>Node7</title>
<g id="a_node7"><a xlink:title="STL class. ">
<polygon fill="white" stroke="#bfbfbf" points="207,-79.0846 207,-98.0846 267,-98.0846 267,-79.0846 207,-79.0846"/>
<text text-anchor="middle" x="237" y="-86.0846" font-family="Helvetica,sans-Serif" font-size="10.00">std::string</text>
</a>
</g>
</g>
<!-- Node7&#45;&gt;Node1 -->
<g id="edge9" class="edge"><title>Node7&#45;&gt;Node1</title>
<path fill="none" stroke="#9a32cd" stroke-dasharray="5,2" d="M263.179,-73.8664C270.375,-70.1063 278.345,-66.3499 286,-63.5846 310.401,-54.7699 338.316,-48.204 362.329,-43.57"/>
<polygon fill="#9a32cd" stroke="#9a32cd" points="261.05,-71.0407 253.949,-78.9034 264.403,-77.1854 261.05,-71.0407"/>
<text text-anchor="middle" x="315" y="-66.5846" font-family="Helvetica,sans-Serif" font-size="10.00"> m_content</text>
</g>
<!-- Node7&#45;&gt;Node4 -->
<g id="edge8" class="edge"><title>Node7&#45;&gt;Node4</title>
<path fill="none" stroke="#9a32cd" stroke-dasharray="5,2" d="M277.221,-88.0449C363.942,-86.7384 578.517,-82.8823 758,-74.5846 763.937,-74.3101 770.195,-73.9643 776.351,-73.5916"/>
<polygon fill="#9a32cd" stroke="#9a32cd" points="276.996,-84.5478 267.049,-88.1953 277.099,-91.547 276.996,-84.5478"/>
<text text-anchor="middle" x="523" y="-86.5846" font-family="Helvetica,sans-Serif" font-size="10.00"> m_content</text>
</g>
</g>
</svg>
