<?xml version="1.0" encoding="UTF-8" standalone="no"?>
<!DOCTYPE svg PUBLIC "-//W3C//DTD SVG 1.1//EN"
 "http://www.w3.org/Graphics/SVG/1.1/DTD/svg11.dtd">
<!-- Generated by graphviz version 2.36.0 (20140111.2315)
 -->
<!-- Title: VoxelClusterBounds Pages: 1 -->
<svg width="934pt" height="284pt"
 viewBox="0.00 0.00 934.00 284.00" xmlns="http://www.w3.org/2000/svg" xmlns:xlink="http://www.w3.org/1999/xlink">
<g id="graph0" class="graph" transform="scale(1 1) rotate(0) translate(4 280)">
<title>VoxelClusterBounds</title>
<polygon fill="white" stroke="none" points="-4,4 -4,-280 930,-280 930,4 -4,4"/>
<!-- Node1 -->
<g id="node1" class="node"><title>Node1</title>
<polygon fill="#bfbfbf" stroke="black" points="396.5,-80.5 396.5,-99.5 501.5,-99.5 501.5,-80.5 396.5,-80.5"/>
<text text-anchor="middle" x="449" y="-87.5" font-family="Helvetica,sans-Serif" font-size="10.00">VoxelClusterBounds</text>
</g>
<!-- Node7 -->
<g id="node7" class="node"><title>Node7</title>
<polygon fill="white" stroke="#bfbfbf" points="582,-120 582,-150 728,-150 728,-120 582,-120"/>
<text text-anchor="start" x="590" y="-138" font-family="Helvetica,sans-Serif" font-size="10.00">std::unique_ptr&lt; VoxelCluster</text>
<text text-anchor="middle" x="655" y="-127" font-family="Helvetica,sans-Serif" font-size="10.00">Bounds &gt;</text>
</g>
<!-- Node1&#45;&gt;Node7 -->
<g id="edge7" class="edge"><title>Node1&#45;&gt;Node7</title>
<path fill="none" stroke="#9a32cd" stroke-dasharray="5,2" d="M503.04,-101.7C528.343,-107.282 558.915,-114.025 585.911,-119.98"/>
<polygon fill="#9a32cd" stroke="#9a32cd" points="503.782,-98.2797 493.263,-99.5433 502.274,-105.115 503.782,-98.2797"/>
<text text-anchor="middle" x="542" y="-117" font-family="Helvetica,sans-Serif" font-size="10.00"> ptr</text>
</g>
<!-- Node2 -->
<g id="node2" class="node"><title>Node2</title>
<g id="a_node2"><a xlink:href="class_voxel_cluster.html" target="_top" xlink:title="VoxelCluster">
<polygon fill="white" stroke="black" points="854,-169.5 854,-188.5 926,-188.5 926,-169.5 854,-169.5"/>
<text text-anchor="middle" x="890" y="-176.5" font-family="Helvetica,sans-Serif" font-size="10.00">VoxelCluster</text>
</a>
</g>
</g>
<!-- Node2&#45;&gt;Node1 -->
<g id="edge1" class="edge"><title>Node2&#45;&gt;Node1</title>
<path fill="none" stroke="#9a32cd" stroke-dasharray="5,2" d="M872.2,-162.269C862.332,-153.19 849.229,-142.353 836,-135 791.776,-110.419 777.805,-107.912 728,-99 650.044,-85.0513 557.878,-85.2808 501.701,-87.2472"/>
<polygon fill="#9a32cd" stroke="#9a32cd" points="870.002,-165.009 879.66,-169.367 874.827,-159.938 870.002,-165.009"/>
<text text-anchor="middle" x="655" y="-102" font-family="Helvetica,sans-Serif" font-size="10.00"> m_voxelCluster</text>
</g>
<!-- Node3 -->
<g id="node3" class="node"><title>Node3</title>
<polygon fill="white" stroke="#bfbfbf" points="582,-246 582,-276 728,-276 728,-246 582,-246"/>
<text text-anchor="start" x="590" y="-264" font-family="Helvetica,sans-Serif" font-size="10.00">std::unique_ptr&lt; VoxelRender</text>
<text text-anchor="middle" x="655" y="-253" font-family="Helvetica,sans-Serif" font-size="10.00">Data &gt;</text>
</g>
<!-- Node3&#45;&gt;Node2 -->
<g id="edge2" class="edge"><title>Node3&#45;&gt;Node2</title>
<path fill="none" stroke="#9a32cd" stroke-dasharray="5,2" d="M738.293,-251.484C769.928,-245.72 805.696,-236.544 836,-222 853.305,-213.694 869.932,-198.681 879.81,-188.776"/>
<polygon fill="#9a32cd" stroke="#9a32cd" points="737.435,-248.081 728.18,-253.238 738.631,-254.978 737.435,-248.081"/>
<text text-anchor="middle" x="791" y="-252" font-family="Helvetica,sans-Serif" font-size="10.00"> m_voxelRenderData</text>
</g>
<!-- Node4 -->
<g id="node4" class="node"><title>Node4</title>
<g id="a_node4"><a xlink:href="class_transform.html" target="_top" xlink:title="Transform">
<polygon fill="white" stroke="black" points="625.5,-207.5 625.5,-226.5 684.5,-226.5 684.5,-207.5 625.5,-207.5"/>
<text text-anchor="middle" x="655" y="-214.5" font-family="Helvetica,sans-Serif" font-size="10.00">Transform</text>
</a>
</g>
</g>
<!-- Node4&#45;&gt;Node2 -->
<g id="edge3" class="edge"><title>Node4&#45;&gt;Node2</title>
<path fill="none" stroke="#9a32cd" stroke-dasharray="5,2" d="M694.79,-213.253C731.401,-209.38 787.726,-202.555 836,-193 842.348,-191.743 849.064,-190.167 855.503,-188.528"/>
<polygon fill="#9a32cd" stroke="#9a32cd" points="694.138,-209.802 684.551,-214.313 694.859,-216.764 694.138,-209.802"/>
<text text-anchor="middle" x="791" y="-210" font-family="Helvetica,sans-Serif" font-size="10.00"> m_transform</text>
</g>
<!-- Node5 -->
<g id="node5" class="node"><title>Node5</title>
<polygon fill="white" stroke="#bfbfbf" points="262,-167 262,-197 378,-197 378,-167 262,-167"/>
<text text-anchor="start" x="270" y="-185" font-family="Helvetica,sans-Serif" font-size="10.00">std::unordered_map</text>
<text text-anchor="middle" x="320" y="-174" font-family="Helvetica,sans-Serif" font-size="10.00">&lt; glm::ivec3, Voxel * &gt;</text>
</g>
<!-- Node5&#45;&gt;Node2 -->
<g id="edge4" class="edge"><title>Node5&#45;&gt;Node2</title>
<path fill="none" stroke="#9a32cd" stroke-dasharray="5,2" d="M388.34,-181.644C509.751,-181.003 761.31,-179.674 853.848,-179.186"/>
<polygon fill="#9a32cd" stroke="#9a32cd" points="388.044,-178.146 378.063,-181.699 388.081,-185.146 388.044,-178.146"/>
<text text-anchor="middle" x="542" y="-183" font-family="Helvetica,sans-Serif" font-size="10.00"> m_voxels</text>
</g>
<!-- Node6 -->
<g id="node6" class="node"><title>Node6</title>
<g id="a_node6"><a xlink:href="class_voxel.html" target="_top" xlink:title="Voxel">
<polygon fill="white" stroke="red" points="0.5,-97.5 0.5,-116.5 41.5,-116.5 41.5,-97.5 0.5,-97.5"/>
<text text-anchor="middle" x="21" y="-104.5" font-family="Helvetica,sans-Serif" font-size="10.00">Voxel</text>
</a>
</g>
</g>
<!-- Node6&#45;&gt;Node5 -->
<g id="edge5" class="edge"><title>Node6&#45;&gt;Node5</title>
<path fill="none" stroke="#9a32cd" stroke-dasharray="5,2" d="M40.0655,-123.463C58.9064,-139.372 90.0959,-162.303 122,-171 167.938,-183.522 222.069,-185.689 261.952,-185.054"/>
<polygon fill="#9a32cd" stroke="#9a32cd" points="42.1612,-120.647 32.3196,-116.724 37.5665,-125.928 42.1612,-120.647"/>
<text text-anchor="middle" x="82" y="-168" font-family="Helvetica,sans-Serif" font-size="10.00"> elements</text>
</g>
<!-- Node8 -->
<g id="node8" class="node"><title>Node8</title>
<polygon fill="white" stroke="#bfbfbf" points="123.5,-120.5 123.5,-161.5 242.5,-161.5 242.5,-120.5 123.5,-120.5"/>
<text text-anchor="start" x="131.5" y="-149.5" font-family="Helvetica,sans-Serif" font-size="10.00">std::set&lt; Voxel *,</text>
<text text-anchor="start" x="131.5" y="-138.5" font-family="Helvetica,sans-Serif" font-size="10.00"> VoxelGridCmp&lt; ZAxis,</text>
<text text-anchor="middle" x="183" y="-127.5" font-family="Helvetica,sans-Serif" font-size="10.00"> XAxis, YAxis &gt; &gt;</text>
</g>
<!-- Node6&#45;&gt;Node8 -->
<g id="edge9" class="edge"><title>Node6&#45;&gt;Node8</title>
<path fill="none" stroke="#9a32cd" stroke-dasharray="5,2" d="M51.4135,-113.25C71.5031,-117.519 98.8096,-123.322 123.26,-128.518"/>
<polygon fill="#9a32cd" stroke="#9a32cd" points="52.1283,-109.824 41.6191,-111.169 50.6732,-116.671 52.1283,-109.824"/>
<text text-anchor="middle" x="82" y="-127" font-family="Helvetica,sans-Serif" font-size="10.00"> keys</text>
</g>
<!-- Node9 -->
<g id="node9" class="node"><title>Node9</title>
<polygon fill="white" stroke="#bfbfbf" points="122.5,-60.5 122.5,-101.5 243.5,-101.5 243.5,-60.5 122.5,-60.5"/>
<text text-anchor="start" x="130.5" y="-89.5" font-family="Helvetica,sans-Serif" font-size="10.00">std::set&lt; Voxel *,</text>
<text text-anchor="start" x="130.5" y="-78.5" font-family="Helvetica,sans-Serif" font-size="10.00"> VoxelGridCmp&lt; YAxis,</text>
<text text-anchor="middle" x="183" y="-67.5" font-family="Helvetica,sans-Serif" font-size="10.00"> XAxis, ZAxis &gt; &gt;</text>
</g>
<!-- Node6&#45;&gt;Node9 -->
<g id="edge11" class="edge"><title>Node6&#45;&gt;Node9</title>
<path fill="none" stroke="#9a32cd" stroke-dasharray="5,2" d="M51.2705,-97.1439C54.1998,-96.3425 57.1455,-95.6086 60,-95 80.1211,-90.7099 102.408,-87.6649 122.369,-85.5358"/>
<polygon fill="#9a32cd" stroke="#9a32cd" points="50.1159,-93.8358 41.5308,-100.044 52.1138,-100.545 50.1159,-93.8358"/>
<text text-anchor="middle" x="82" y="-98" font-family="Helvetica,sans-Serif" font-size="10.00"> keys</text>
</g>
<!-- Node10 -->
<g id="node10" class="node"><title>Node10</title>
<polygon fill="white" stroke="#bfbfbf" points="123.5,-0.5 123.5,-41.5 242.5,-41.5 242.5,-0.5 123.5,-0.5"/>
<text text-anchor="start" x="131.5" y="-29.5" font-family="Helvetica,sans-Serif" font-size="10.00">std::set&lt; Voxel *,</text>
<text text-anchor="start" x="131.5" y="-18.5" font-family="Helvetica,sans-Serif" font-size="10.00"> VoxelGridCmp&lt; XAxis,</text>
<text text-anchor="middle" x="183" y="-7.5" font-family="Helvetica,sans-Serif" font-size="10.00"> YAxis, ZAxis &gt; &gt;</text>
</g>
<!-- Node6&#45;&gt;Node10 -->
<g id="edge13" class="edge"><title>Node6&#45;&gt;Node10</title>
<path fill="none" stroke="#9a32cd" stroke-dasharray="5,2" d="M38.3149,-90.266C44.7028,-84.3092 52.3316,-77.8764 60,-73 79.5258,-60.5833 102.523,-49.9016 123.257,-41.5062"/>
<polygon fill="#9a32cd" stroke="#9a32cd" points="35.705,-87.922 30.9777,-97.4038 40.5861,-92.9395 35.705,-87.922"/>
<text text-anchor="middle" x="82" y="-76" font-family="Helvetica,sans-Serif" font-size="10.00"> keys</text>
</g>
<!-- Node7&#45;&gt;Node2 -->
<g id="edge6" class="edge"><title>Node7&#45;&gt;Node2</title>
<path fill="none" stroke="#9a32cd" stroke-dasharray="5,2" d="M738.749,-137.908C769.694,-140.507 804.871,-145.286 836,-154 848.736,-157.565 862.204,-163.957 872.377,-169.384"/>
<polygon fill="#9a32cd" stroke="#9a32cd" points="738.67,-134.391 728.429,-137.107 738.128,-141.37 738.67,-134.391"/>
<text text-anchor="middle" x="791" y="-157" font-family="Helvetica,sans-Serif" font-size="10.00"> m_bounds</text>
</g>
<!-- Node8&#45;&gt;Node1 -->
<g id="edge8" class="edge"><title>Node8&#45;&gt;Node1</title>
<path fill="none" stroke="#9a32cd" stroke-dasharray="5,2" d="M252.426,-127.781C298.145,-118.949 357.231,-107.535 398.44,-99.574"/>
<polygon fill="#9a32cd" stroke="#9a32cd" points="251.745,-124.348 242.59,-129.681 253.073,-131.221 251.745,-124.348"/>
<text text-anchor="middle" x="320" y="-129" font-family="Helvetica,sans-Serif" font-size="10.00"> m_voxelsZSorted</text>
</g>
<!-- Node9&#45;&gt;Node1 -->
<g id="edge10" class="edge"><title>Node9&#45;&gt;Node1</title>
<path fill="none" stroke="#9a32cd" stroke-dasharray="5,2" d="M253.785,-83.379C298.491,-84.9031 355.542,-86.848 396.22,-88.2348"/>
<polygon fill="#9a32cd" stroke="#9a32cd" points="253.689,-79.8738 243.576,-83.031 253.451,-86.8698 253.689,-79.8738"/>
<text text-anchor="middle" x="320" y="-91" font-family="Helvetica,sans-Serif" font-size="10.00"> m_voxelsYSorted</text>
</g>
<!-- Node10&#45;&gt;Node1 -->
<g id="edge12" class="edge"><title>Node10&#45;&gt;Node1</title>
<path fill="none" stroke="#9a32cd" stroke-dasharray="5,2" d="M252.513,-37.0868C289.744,-46.0461 336.526,-57.6554 378,-69 390.973,-72.5485 405.204,-76.7588 417.427,-80.4744"/>
<polygon fill="#9a32cd" stroke="#9a32cd" points="253.311,-33.6791 242.771,-34.7505 251.679,-40.4861 253.311,-33.6791"/>
<text text-anchor="middle" x="320" y="-72" font-family="Helvetica,sans-Serif" font-size="10.00"> m_voxelsXSorted</text>
</g>
</g>
</svg>
