<?xml version="1.0" encoding="UTF-8" standalone="no"?>
<!DOCTYPE svg PUBLIC "-//W3C//DTD SVG 1.1//EN"
 "http://www.w3.org/Graphics/SVG/1.1/DTD/svg11.dtd">
<!-- Generated by graphviz version 2.36.0 (20140111.2315)
 -->
<!-- Title: DirectSuicideTask Pages: 1 -->
<svg width="210pt" height="164pt"
 viewBox="0.00 0.00 210.00 164.00" xmlns="http://www.w3.org/2000/svg" xmlns:xlink="http://www.w3.org/1999/xlink">
<g id="graph0" class="graph" transform="scale(1 1) rotate(0) translate(4 160)">
<title>DirectSuicideTask</title>
<polygon fill="white" stroke="none" points="-4,4 -4,-160 206,-160 206,4 -4,4"/>
<!-- Node1 -->
<g id="node1" class="node"><title>Node1</title>
<polygon fill="#bfbfbf" stroke="black" points="69.5,-0.5 69.5,-19.5 164.5,-19.5 164.5,-0.5 69.5,-0.5"/>
<text text-anchor="middle" x="117" y="-7.5" font-family="Helvetica,sans-Serif" font-size="10.00">DirectSuicideTask</text>
</g>
<!-- Node2 -->
<g id="node2" class="node"><title>Node2</title>
<g id="a_node2"><a xlink:href="class_ai_task.html" target="_top" xlink:title="AiTask">
<polygon fill="white" stroke="black" points="18.5,-68.5 18.5,-87.5 65.5,-87.5 65.5,-68.5 18.5,-68.5"/>
<text text-anchor="middle" x="42" y="-75.5" font-family="Helvetica,sans-Serif" font-size="10.00">AiTask</text>
</a>
</g>
</g>
<!-- Node2&#45;&gt;Node1 -->
<g id="edge1" class="edge"><title>Node2&#45;&gt;Node1</title>
<path fill="none" stroke="midnightblue" d="M59.7134,-61.4122C74.4469,-48.4468 94.891,-30.4559 106.953,-19.8411"/>
<polygon fill="midnightblue" stroke="midnightblue" points="56.9999,-59.1378 51.8049,-68.3717 61.6243,-64.3928 56.9999,-59.1378"/>
</g>
<!-- Node3 -->
<g id="node3" class="node"><title>Node3</title>
<g id="a_node3"><a xlink:href="class_board_computer.html" target="_top" xlink:title="BoardComputer">
<polygon fill="white" stroke="red" points="0,-136.5 0,-155.5 84,-155.5 84,-136.5 0,-136.5"/>
<text text-anchor="middle" x="42" y="-143.5" font-family="Helvetica,sans-Serif" font-size="10.00">BoardComputer</text>
</a>
</g>
</g>
<!-- Node3&#45;&gt;Node2 -->
<g id="edge2" class="edge"><title>Node3&#45;&gt;Node2</title>
<path fill="none" stroke="#9a32cd" stroke-dasharray="5,2" d="M42,-126.041C42,-113.472 42,-97.5631 42,-87.8411"/>
<polygon fill="#9a32cd" stroke="#9a32cd" points="38.5001,-126.372 42,-136.372 45.5001,-126.372 38.5001,-126.372"/>
<text text-anchor="middle" x="83.5" y="-109.5" font-family="Helvetica,sans-Serif" font-size="10.00"> m_boardComputer</text>
</g>
<!-- Node4 -->
<g id="node4" class="node"><title>Node4</title>
<g id="a_node4"><a xlink:href="class_handle.html" target="_top" xlink:title="Handle\&lt; WorldObject \&gt;">
<polygon fill="white" stroke="black" points="83.5,-68.5 83.5,-87.5 202.5,-87.5 202.5,-68.5 83.5,-68.5"/>
<text text-anchor="middle" x="143" y="-75.5" font-family="Helvetica,sans-Serif" font-size="10.00">Handle&lt; WorldObject &gt;</text>
</a>
</g>
</g>
<!-- Node4&#45;&gt;Node1 -->
<g id="edge3" class="edge"><title>Node4&#45;&gt;Node1</title>
<path fill="none" stroke="#9a32cd" stroke-dasharray="5,2" d="M135.833,-58.8066C130.837,-46.1244 124.391,-29.7615 120.483,-19.8411"/>
<polygon fill="#9a32cd" stroke="#9a32cd" points="132.679,-60.3504 139.601,-68.3717 139.192,-57.7847 132.679,-60.3504"/>
<text text-anchor="middle" x="153" y="-41.5" font-family="Helvetica,sans-Serif" font-size="10.00"> m_target</text>
</g>
</g>
</svg>
