<?xml version="1.0" encoding="UTF-8" standalone="no"?>
<!DOCTYPE svg PUBLIC "-//W3C//DTD SVG 1.1//EN"
 "http://www.w3.org/Graphics/SVG/1.1/DTD/svg11.dtd">
<!-- Generated by graphviz version 2.36.0 (20140111.2315)
 -->
<!-- Title: World Pages: 1 -->
<svg width="1028pt" height="265pt"
 viewBox="0.00 0.00 1028.00 265.00" xmlns="http://www.w3.org/2000/svg" xmlns:xlink="http://www.w3.org/1999/xlink">
<g id="graph0" class="graph" transform="scale(1 1) rotate(0) translate(4 261)">
<title>World</title>
<polygon fill="white" stroke="none" points="-4,4 -4,-261 1024,-261 1024,4 -4,4"/>
<!-- Node1 -->
<g id="node1" class="node"><title>Node1</title>
<polygon fill="#bfbfbf" stroke="black" points="636,-118.5 636,-137.5 678,-137.5 678,-118.5 636,-118.5"/>
<text text-anchor="middle" x="657" y="-125.5" font-family="Helvetica,sans-Serif" font-size="10.00">World</text>
</g>
<!-- Node1&#45;&gt;Node1 -->
<g id="edge20" class="edge"><title>Node1&#45;&gt;Node1</title>
<path fill="none" stroke="#9a32cd" stroke-dasharray="5,2" d="M646.319,-147.766C647.158,-152.497 650.718,-156 657,-156 667.309,-156 670.288,-146.565 665.939,-137.757"/>
<polygon fill="#9a32cd" stroke="#9a32cd" points="649.794,-148.209 648.061,-137.757 642.898,-147.009 649.794,-148.209"/>
<text text-anchor="middle" x="657" y="-159" font-family="Helvetica,sans-Serif" font-size="10.00"> s_instance</text>
</g>
<!-- Node7 -->
<g id="node7" class="node"><title>Node7</title>
<g id="a_node7"><a xlink:href="class_world_logic.html" target="_top" xlink:title="WorldLogic">
<polygon fill="white" stroke="red" points="754.5,-181.5 754.5,-200.5 819.5,-200.5 819.5,-181.5 754.5,-181.5"/>
<text text-anchor="middle" x="787" y="-188.5" font-family="Helvetica,sans-Serif" font-size="10.00">WorldLogic</text>
</a>
</g>
</g>
<!-- Node1&#45;&gt;Node7 -->
<g id="edge7" class="edge"><title>Node1&#45;&gt;Node7</title>
<path fill="none" stroke="#9a32cd" stroke-dasharray="5,2" d="M671.955,-145.521C678.554,-152.785 686.964,-160.728 696,-166 713.929,-176.461 736.429,-182.711 754.446,-186.346"/>
<polygon fill="#9a32cd" stroke="#9a32cd" points="674.266,-142.838 665.11,-137.507 668.944,-147.385 674.266,-142.838"/>
<text text-anchor="middle" x="716" y="-185" font-family="Helvetica,sans-Serif" font-size="10.00"> m_world</text>
</g>
<!-- Node17 -->
<g id="node17" class="node"><title>Node17</title>
<g id="a_node17"><a xlink:href="class_god.html" target="_top" xlink:title="God">
<polygon fill="white" stroke="red" points="769.5,-49.5 769.5,-68.5 804.5,-68.5 804.5,-49.5 769.5,-49.5"/>
<text text-anchor="middle" x="787" y="-56.5" font-family="Helvetica,sans-Serif" font-size="10.00">God</text>
</a>
</g>
</g>
<!-- Node1&#45;&gt;Node17 -->
<g id="edge19" class="edge"><title>Node1&#45;&gt;Node17</title>
<path fill="none" stroke="#9a32cd" stroke-dasharray="5,2" d="M668.286,-109.614C674.918,-99.4037 684.455,-87.322 696,-80 718.763,-65.5634 750.409,-61.0309 769.476,-59.6207"/>
<polygon fill="#9a32cd" stroke="#9a32cd" points="665.228,-107.908 663.038,-118.274 671.214,-111.536 665.228,-107.908"/>
<text text-anchor="middle" x="716" y="-83" font-family="Helvetica,sans-Serif" font-size="10.00"> m_world</text>
</g>
<!-- Node2 -->
<g id="node2" class="node"><title>Node2</title>
<polygon fill="white" stroke="#bfbfbf" points="374.5,-233.5 374.5,-252.5 517.5,-252.5 517.5,-233.5 374.5,-233.5"/>
<text text-anchor="middle" x="446" y="-240.5" font-family="Helvetica,sans-Serif" font-size="10.00">std::unique_ptr&lt; WorldTree &gt;</text>
</g>
<!-- Node2&#45;&gt;Node1 -->
<g id="edge1" class="edge"><title>Node2&#45;&gt;Node1</title>
<path fill="none" stroke="#9a32cd" stroke-dasharray="5,2" d="M528.008,-247.376C558.904,-245.151 592.731,-237.54 618,-218 644.029,-197.872 652.431,-156.565 654.973,-137.738"/>
<polygon fill="#9a32cd" stroke="#9a32cd" points="527.457,-243.901 517.659,-247.934 527.833,-250.89 527.457,-243.901"/>
<text text-anchor="middle" x="578" y="-249" font-family="Helvetica,sans-Serif" font-size="10.00"> m_worldTree</text>
</g>
<!-- Node3 -->
<g id="node3" class="node"><title>Node3</title>
<g id="a_node3"><a xlink:href="class_world_tree.html" target="_top" xlink:title="WorldTree">
<polygon fill="white" stroke="red" points="155.5,-233.5 155.5,-252.5 216.5,-252.5 216.5,-233.5 155.5,-233.5"/>
<text text-anchor="middle" x="186" y="-240.5" font-family="Helvetica,sans-Serif" font-size="10.00">WorldTree</text>
</a>
</g>
</g>
<!-- Node3&#45;&gt;Node2 -->
<g id="edge2" class="edge"><title>Node3&#45;&gt;Node2</title>
<path fill="none" stroke="#9a32cd" stroke-dasharray="5,2" d="M226.814,-243C266.037,-243 326.804,-243 374.258,-243"/>
<polygon fill="#9a32cd" stroke="#9a32cd" points="226.596,-239.5 216.596,-243 226.596,-246.5 226.596,-239.5"/>
<text text-anchor="middle" x="305" y="-246" font-family="Helvetica,sans-Serif" font-size="10.00"> ptr</text>
</g>
<!-- Node4 -->
<g id="node4" class="node"><title>Node4</title>
<polygon fill="white" stroke="#bfbfbf" points="256,-187 256,-217 354,-217 354,-187 256,-187"/>
<text text-anchor="start" x="264" y="-205" font-family="Helvetica,sans-Serif" font-size="10.00">std::unordered_set</text>
<text text-anchor="middle" x="305" y="-194" font-family="Helvetica,sans-Serif" font-size="10.00">&lt; WorldObject * &gt;</text>
</g>
<!-- Node4&#45;&gt;Node1 -->
<g id="edge3" class="edge"><title>Node4&#45;&gt;Node1</title>
<path fill="none" stroke="#9a32cd" stroke-dasharray="5,2" d="M364.261,-203.006C428.996,-202.031 535.291,-194.103 618,-157 628.601,-152.245 638.972,-144.017 646.194,-137.538"/>
<polygon fill="#9a32cd" stroke="#9a32cd" points="364.203,-199.506 354.238,-203.106 364.273,-206.506 364.203,-199.506"/>
<text text-anchor="middle" x="446" y="-205" font-family="Helvetica,sans-Serif" font-size="10.00"> m_worldObjects</text>
</g>
<!-- Node5 -->
<g id="node5" class="node"><title>Node5</title>
<g id="a_node5"><a xlink:href="class_world_object.html" target="_top" xlink:title="WorldObject">
<polygon fill="white" stroke="red" points="0.5,-170.5 0.5,-189.5 71.5,-189.5 71.5,-170.5 0.5,-170.5"/>
<text text-anchor="middle" x="36" y="-177.5" font-family="Helvetica,sans-Serif" font-size="10.00">WorldObject</text>
</a>
</g>
</g>
<!-- Node5&#45;&gt;Node4 -->
<g id="edge4" class="edge"><title>Node5&#45;&gt;Node4</title>
<path fill="none" stroke="#9a32cd" stroke-dasharray="5,2" d="M81.7671,-183.689C129.98,-187.661 206.409,-193.959 255.883,-198.035"/>
<polygon fill="#9a32cd" stroke="#9a32cd" points="81.8855,-180.187 71.6319,-182.854 81.3106,-187.163 81.8855,-180.187"/>
<text text-anchor="middle" x="103" y="-190" font-family="Helvetica,sans-Serif" font-size="10.00"> keys</text>
</g>
<!-- Node9 -->
<g id="node9" class="node"><title>Node9</title>
<g id="a_node9"><a xlink:href="class_ship.html" target="_top" xlink:title="Ship">
<polygon fill="white" stroke="red" points="168,-148.5 168,-167.5 204,-167.5 204,-148.5 168,-148.5"/>
<text text-anchor="middle" x="186" y="-155.5" font-family="Helvetica,sans-Serif" font-size="10.00">Ship</text>
</a>
</g>
</g>
<!-- Node5&#45;&gt;Node9 -->
<g id="edge10" class="edge"><title>Node5&#45;&gt;Node9</title>
<path fill="none" stroke="midnightblue" d="M81.644,-173.364C110.714,-169.043 146.997,-163.649 167.931,-160.537"/>
<polygon fill="midnightblue" stroke="midnightblue" points="81.0761,-169.91 71.6994,-174.842 82.1054,-176.834 81.0761,-169.91"/>
</g>
<!-- Node6 -->
<g id="node6" class="node"><title>Node6</title>
<polygon fill="white" stroke="#bfbfbf" points="872,-160.5 872,-179.5 1020,-179.5 1020,-160.5 872,-160.5"/>
<text text-anchor="middle" x="946" y="-167.5" font-family="Helvetica,sans-Serif" font-size="10.00">std::unique_ptr&lt; WorldLogic &gt;</text>
</g>
<!-- Node6&#45;&gt;Node1 -->
<g id="edge5" class="edge"><title>Node6&#45;&gt;Node1</title>
<path fill="none" stroke="#9a32cd" stroke-dasharray="5,2" d="M867.661,-159.083C818.484,-152.076 753.475,-142.692 696,-134 690.189,-133.121 683.882,-132.138 678.108,-131.225"/>
<polygon fill="#9a32cd" stroke="#9a32cd" points="867.199,-162.552 877.592,-160.496 868.185,-155.622 867.199,-162.552"/>
<text text-anchor="middle" x="787" y="-155" font-family="Helvetica,sans-Serif" font-size="10.00"> m_worldLogic</text>
</g>
<!-- Node7&#45;&gt;Node6 -->
<g id="edge6" class="edge"><title>Node7&#45;&gt;Node6</title>
<path fill="none" stroke="#9a32cd" stroke-dasharray="5,2" d="M829.713,-185.421C843.243,-183.611 858.657,-181.549 873.714,-179.535"/>
<polygon fill="#9a32cd" stroke="#9a32cd" points="829.219,-181.955 819.771,-186.75 830.147,-188.894 829.219,-181.955"/>
<text text-anchor="middle" x="846" y="-188" font-family="Helvetica,sans-Serif" font-size="10.00"> ptr</text>
</g>
<!-- Node8 -->
<g id="node8" class="node"><title>Node8</title>
<polygon fill="white" stroke="#bfbfbf" points="397,-137 397,-167 495,-167 495,-137 397,-137"/>
<text text-anchor="start" x="405" y="-155" font-family="Helvetica,sans-Serif" font-size="10.00">std::unordered_set</text>
<text text-anchor="middle" x="446" y="-144" font-family="Helvetica,sans-Serif" font-size="10.00">&lt; Ship * &gt;</text>
</g>
<!-- Node8&#45;&gt;Node1 -->
<g id="edge8" class="edge"><title>Node8&#45;&gt;Node1</title>
<path fill="none" stroke="#9a32cd" stroke-dasharray="5,2" d="M505.415,-145.292C549.003,-140.287 605.966,-133.746 635.789,-130.321"/>
<polygon fill="#9a32cd" stroke="#9a32cd" points="504.747,-141.846 495.211,-146.464 505.545,-148.8 504.747,-141.846"/>
<text text-anchor="middle" x="578" y="-145" font-family="Helvetica,sans-Serif" font-size="10.00"> m_ships</text>
</g>
<!-- Node9&#45;&gt;Node8 -->
<g id="edge9" class="edge"><title>Node9&#45;&gt;Node8</title>
<path fill="none" stroke="#9a32cd" stroke-dasharray="5,2" d="M214.426,-157.362C257.857,-156.352 343.035,-154.371 396.822,-153.12"/>
<polygon fill="#9a32cd" stroke="#9a32cd" points="214.245,-153.865 204.329,-157.597 214.407,-160.863 214.245,-153.865"/>
<text text-anchor="middle" x="305" y="-160" font-family="Helvetica,sans-Serif" font-size="10.00"> keys</text>
</g>
<!-- Node10 -->
<g id="node10" class="node"><title>Node10</title>
<polygon fill="white" stroke="#bfbfbf" points="380,-98.5 380,-117.5 512,-117.5 512,-98.5 380,-98.5"/>
<text text-anchor="middle" x="446" y="-105.5" font-family="Helvetica,sans-Serif" font-size="10.00">std::unique_ptr&lt; Skybox &gt;</text>
</g>
<!-- Node10&#45;&gt;Node1 -->
<g id="edge11" class="edge"><title>Node10&#45;&gt;Node1</title>
<path fill="none" stroke="#9a32cd" stroke-dasharray="5,2" d="M522.109,-105.508C552.171,-105.838 586.967,-107.902 618,-114 623.933,-115.166 630.168,-117.128 635.833,-119.221"/>
<polygon fill="#9a32cd" stroke="#9a32cd" points="522.124,-102.008 512.107,-105.459 522.09,-109.008 522.124,-102.008"/>
<text text-anchor="middle" x="578" y="-117" font-family="Helvetica,sans-Serif" font-size="10.00"> m_skybox</text>
</g>
<!-- Node11 -->
<g id="node11" class="node"><title>Node11</title>
<g id="a_node11"><a xlink:href="class_skybox.html" target="_top" xlink:title="Skybox">
<polygon fill="white" stroke="red" points="161,-98.5 161,-117.5 211,-117.5 211,-98.5 161,-98.5"/>
<text text-anchor="middle" x="186" y="-105.5" font-family="Helvetica,sans-Serif" font-size="10.00">Skybox</text>
</a>
</g>
</g>
<!-- Node11&#45;&gt;Node10 -->
<g id="edge12" class="edge"><title>Node11&#45;&gt;Node10</title>
<path fill="none" stroke="#9a32cd" stroke-dasharray="5,2" d="M221.392,-108C261.706,-108 329.403,-108 379.77,-108"/>
<polygon fill="#9a32cd" stroke="#9a32cd" points="221.272,-104.5 211.272,-108 221.272,-111.5 221.272,-104.5"/>
<text text-anchor="middle" x="305" y="-111" font-family="Helvetica,sans-Serif" font-size="10.00"> ptr</text>
</g>
<!-- Node12 -->
<g id="node12" class="node"><title>Node12</title>
<polygon fill="white" stroke="#bfbfbf" points="372,-49 372,-79 520,-79 520,-49 372,-49"/>
<text text-anchor="start" x="380" y="-67" font-family="Helvetica,sans-Serif" font-size="10.00">std::unique_ptr&lt; VoxelParticle</text>
<text text-anchor="middle" x="446" y="-56" font-family="Helvetica,sans-Serif" font-size="10.00">Engine &gt;</text>
</g>
<!-- Node12&#45;&gt;Node1 -->
<g id="edge13" class="edge"><title>Node12&#45;&gt;Node1</title>
<path fill="none" stroke="#9a32cd" stroke-dasharray="5,2" d="M530.396,-66.8931C559.322,-70.513 591.197,-77.5754 618,-91 630.843,-97.4328 642.145,-109.765 649.014,-118.418"/>
<polygon fill="#9a32cd" stroke="#9a32cd" points="530.631,-63.3974 520.301,-65.7515 529.844,-70.3531 530.631,-63.3974"/>
<text text-anchor="middle" x="578" y="-94" font-family="Helvetica,sans-Serif" font-size="10.00"> m_particleEngine</text>
</g>
<!-- Node13 -->
<g id="node13" class="node"><title>Node13</title>
<g id="a_node13"><a xlink:href="class_voxel_particle_engine.html" target="_top" xlink:title="VoxelParticleEngine">
<polygon fill="white" stroke="red" points="134,-54.5 134,-73.5 238,-73.5 238,-54.5 134,-54.5"/>
<text text-anchor="middle" x="186" y="-61.5" font-family="Helvetica,sans-Serif" font-size="10.00">VoxelParticleEngine</text>
</a>
</g>
</g>
<!-- Node13&#45;&gt;Node12 -->
<g id="edge14" class="edge"><title>Node13&#45;&gt;Node12</title>
<path fill="none" stroke="#9a32cd" stroke-dasharray="5,2" d="M248.437,-64C285.474,-64 332.863,-64 371.83,-64"/>
<polygon fill="#9a32cd" stroke="#9a32cd" points="248.281,-60.5001 238.281,-64 248.281,-67.5001 248.281,-60.5001"/>
<text text-anchor="middle" x="305" y="-67" font-family="Helvetica,sans-Serif" font-size="10.00"> ptr</text>
</g>
<!-- Node14 -->
<g id="node14" class="node"><title>Node14</title>
<polygon fill="white" stroke="#bfbfbf" points="385,-0 385,-30 507,-30 507,-0 385,-0"/>
<text text-anchor="start" x="393" y="-18" font-family="Helvetica,sans-Serif" font-size="10.00">std::unique_ptr&lt; Faction</text>
<text text-anchor="middle" x="446" y="-7" font-family="Helvetica,sans-Serif" font-size="10.00">Matrix &gt;</text>
</g>
<!-- Node14&#45;&gt;Node1 -->
<g id="edge15" class="edge"><title>Node14&#45;&gt;Node1</title>
<path fill="none" stroke="#9a32cd" stroke-dasharray="5,2" d="M517.535,-17.5384C550.9,-21.9084 589.558,-31.9117 618,-54 639.33,-70.565 649.774,-102.415 653.855,-118.38"/>
<polygon fill="#9a32cd" stroke="#9a32cd" points="517.705,-14.0346 507.368,-16.3559 516.896,-20.9878 517.705,-14.0346"/>
<text text-anchor="middle" x="578" y="-57" font-family="Helvetica,sans-Serif" font-size="10.00"> m_factionMatrix</text>
</g>
<!-- Node15 -->
<g id="node15" class="node"><title>Node15</title>
<g id="a_node15"><a xlink:href="class_faction_matrix.html" target="_top" xlink:title="FactionMatrix">
<polygon fill="white" stroke="red" points="148,-5.5 148,-24.5 224,-24.5 224,-5.5 148,-5.5"/>
<text text-anchor="middle" x="186" y="-12.5" font-family="Helvetica,sans-Serif" font-size="10.00">FactionMatrix</text>
</a>
</g>
</g>
<!-- Node15&#45;&gt;Node14 -->
<g id="edge16" class="edge"><title>Node15&#45;&gt;Node14</title>
<path fill="none" stroke="#9a32cd" stroke-dasharray="5,2" d="M234.286,-15C276.631,-15 338.941,-15 384.825,-15"/>
<polygon fill="#9a32cd" stroke="#9a32cd" points="234.24,-11.5001 224.24,-15 234.24,-18.5001 234.24,-11.5001"/>
<text text-anchor="middle" x="305" y="-18" font-family="Helvetica,sans-Serif" font-size="10.00"> ptr</text>
</g>
<!-- Node16 -->
<g id="node16" class="node"><title>Node16</title>
<polygon fill="white" stroke="#bfbfbf" points="887.5,-77.5 887.5,-96.5 1004.5,-96.5 1004.5,-77.5 887.5,-77.5"/>
<text text-anchor="middle" x="946" y="-84.5" font-family="Helvetica,sans-Serif" font-size="10.00">std::unique_ptr&lt; God &gt;</text>
</g>
<!-- Node16&#45;&gt;Node1 -->
<g id="edge17" class="edge"><title>Node16&#45;&gt;Node1</title>
<path fill="none" stroke="#9a32cd" stroke-dasharray="5,2" d="M877.156,-96.692C812.406,-105.942 718.875,-119.304 678.181,-125.117"/>
<polygon fill="#9a32cd" stroke="#9a32cd" points="877.884,-100.124 887.288,-95.2446 876.894,-93.194 877.884,-100.124"/>
<text text-anchor="middle" x="787" y="-118" font-family="Helvetica,sans-Serif" font-size="10.00"> m_god</text>
</g>
<!-- Node17&#45;&gt;Node16 -->
<g id="edge18" class="edge"><title>Node17&#45;&gt;Node16</title>
<path fill="none" stroke="#9a32cd" stroke-dasharray="5,2" d="M814.615,-63.7465C835.648,-67.4978 865.683,-72.8543 891.625,-77.4809"/>
<polygon fill="#9a32cd" stroke="#9a32cd" points="814.964,-60.2538 804.505,-61.9436 813.735,-67.145 814.964,-60.2538"/>
<text text-anchor="middle" x="846" y="-74" font-family="Helvetica,sans-Serif" font-size="10.00"> ptr</text>
</g>
</g>
</svg>
