<?xml version="1.0" encoding="UTF-8" standalone="no"?>
<!DOCTYPE svg PUBLIC "-//W3C//DTD SVG 1.1//EN"
 "http://www.w3.org/Graphics/SVG/1.1/DTD/svg11.dtd">
<!-- Generated by graphviz version 2.36.0 (20140111.2315)
 -->
<!-- Title: StereoViewEye Pages: 1 -->
<svg width="311pt" height="164pt"
 viewBox="0.00 0.00 311.00 164.00" xmlns="http://www.w3.org/2000/svg" xmlns:xlink="http://www.w3.org/1999/xlink">
<g id="graph0" class="graph" transform="scale(1 1) rotate(0) translate(4 160)">
<title>StereoViewEye</title>
<polygon fill="white" stroke="none" points="-4,4 -4,-160 307,-160 307,4 -4,4"/>
<!-- Node1 -->
<g id="node1" class="node"><title>Node1</title>
<polygon fill="#bfbfbf" stroke="black" points="115.5,-0.5 115.5,-19.5 198.5,-19.5 198.5,-0.5 115.5,-0.5"/>
<text text-anchor="middle" x="157" y="-7.5" font-family="Helvetica,sans-Serif" font-size="10.00">StereoViewEye</text>
</g>
<!-- Node2 -->
<g id="node2" class="node"><title>Node2</title>
<polygon fill="white" stroke="#bfbfbf" points="-0.5,-68.5 -0.5,-87.5 132.5,-87.5 132.5,-68.5 -0.5,-68.5"/>
<text text-anchor="middle" x="66" y="-75.5" font-family="Helvetica,sans-Serif" font-size="10.00">std::unique_ptr&lt; Camera &gt;</text>
</g>
<!-- Node2&#45;&gt;Node1 -->
<g id="edge1" class="edge"><title>Node2&#45;&gt;Node1</title>
<path fill="none" stroke="#9a32cd" stroke-dasharray="5,2" d="M86.0543,-62.4551C104.133,-49.3431 130.111,-30.5016 145.1,-19.6305"/>
<polygon fill="#9a32cd" stroke="#9a32cd" points="83.9368,-59.6672 77.8967,-68.3717 88.0466,-65.3338 83.9368,-59.6672"/>
<text text-anchor="middle" x="144.5" y="-41.5" font-family="Helvetica,sans-Serif" font-size="10.00"> m_camera</text>
</g>
<!-- Node3 -->
<g id="node3" class="node"><title>Node3</title>
<g id="a_node3"><a xlink:href="class_camera.html" target="_top" xlink:title="Camera">
<polygon fill="white" stroke="red" points="41,-136.5 41,-155.5 91,-155.5 91,-136.5 41,-136.5"/>
<text text-anchor="middle" x="66" y="-143.5" font-family="Helvetica,sans-Serif" font-size="10.00">Camera</text>
</a>
</g>
</g>
<!-- Node3&#45;&gt;Node2 -->
<g id="edge2" class="edge"><title>Node3&#45;&gt;Node2</title>
<path fill="none" stroke="#9a32cd" stroke-dasharray="5,2" d="M66,-126.041C66,-113.472 66,-97.5631 66,-87.8411"/>
<polygon fill="#9a32cd" stroke="#9a32cd" points="62.5001,-126.372 66,-136.372 69.5001,-126.372 62.5001,-126.372"/>
<text text-anchor="middle" x="73.5" y="-109.5" font-family="Helvetica,sans-Serif" font-size="10.00"> ptr</text>
</g>
<!-- Node4 -->
<g id="node4" class="node"><title>Node4</title>
<polygon fill="white" stroke="#bfbfbf" points="151,-68.5 151,-87.5 303,-87.5 303,-68.5 151,-68.5"/>
<text text-anchor="middle" x="227" y="-75.5" font-family="Helvetica,sans-Serif" font-size="10.00">std::unique_ptr&lt; FrameBuffer &gt;</text>
</g>
<!-- Node4&#45;&gt;Node1 -->
<g id="edge3" class="edge"><title>Node4&#45;&gt;Node1</title>
<path fill="none" stroke="#9a32cd" stroke-dasharray="5,2" d="M210.468,-61.4122C196.716,-48.4468 177.635,-30.4559 166.377,-19.8411"/>
<polygon fill="#9a32cd" stroke="#9a32cd" points="208.172,-64.0581 217.849,-68.3717 212.974,-58.9649 208.172,-64.0581"/>
<text text-anchor="middle" x="214" y="-41.5" font-family="Helvetica,sans-Serif" font-size="10.00"> m_fbo</text>
</g>
<!-- Node5 -->
<g id="node5" class="node"><title>Node5</title>
<g id="a_node5"><a xlink:href="class_frame_buffer.html" target="_top" xlink:title="FrameBuffer">
<polygon fill="white" stroke="red" points="192.5,-136.5 192.5,-155.5 261.5,-155.5 261.5,-136.5 192.5,-136.5"/>
<text text-anchor="middle" x="227" y="-143.5" font-family="Helvetica,sans-Serif" font-size="10.00">FrameBuffer</text>
</a>
</g>
</g>
<!-- Node5&#45;&gt;Node4 -->
<g id="edge4" class="edge"><title>Node5&#45;&gt;Node4</title>
<path fill="none" stroke="#9a32cd" stroke-dasharray="5,2" d="M227,-126.041C227,-113.472 227,-97.5631 227,-87.8411"/>
<polygon fill="#9a32cd" stroke="#9a32cd" points="223.5,-126.372 227,-136.372 230.5,-126.372 223.5,-126.372"/>
<text text-anchor="middle" x="234.5" y="-109.5" font-family="Helvetica,sans-Serif" font-size="10.00"> ptr</text>
</g>
</g>
</svg>
