<?xml version="1.0" encoding="UTF-8" standalone="no"?>
<!DOCTYPE svg PUBLIC "-//W3C//DTD SVG 1.1//EN"
 "http://www.w3.org/Graphics/SVG/1.1/DTD/svg11.dtd">
<!-- Generated by graphviz version 2.36.0 (20140111.2315)
 -->
<!-- Title: CollisionFilter Pages: 1 -->
<svg width="478pt" height="374pt"
 viewBox="0.00 0.00 478.00 374.00" xmlns="http://www.w3.org/2000/svg" xmlns:xlink="http://www.w3.org/1999/xlink">
<g id="graph0" class="graph" transform="scale(1 1) rotate(0) translate(4 370)">
<title>CollisionFilter</title>
<polygon fill="white" stroke="none" points="-4,4 -4,-370 474,-370 474,4 -4,4"/>
<!-- Node1 -->
<g id="node1" class="node"><title>Node1</title>
<polygon fill="#bfbfbf" stroke="black" points="0.5,-315.5 0.5,-334.5 75.5,-334.5 75.5,-315.5 0.5,-315.5"/>
<text text-anchor="middle" x="38" y="-322.5" font-family="Helvetica,sans-Serif" font-size="10.00">CollisionFilter</text>
</g>
<!-- Node8 -->
<g id="node8" class="node"><title>Node8</title>
<polygon fill="white" stroke="#bfbfbf" points="136.5,-336 136.5,-366 263.5,-366 263.5,-336 136.5,-336"/>
<text text-anchor="start" x="144.5" y="-354" font-family="Helvetica,sans-Serif" font-size="10.00">std::unique_ptr&lt; Collision</text>
<text text-anchor="middle" x="200" y="-343" font-family="Helvetica,sans-Serif" font-size="10.00">Filter &gt;</text>
</g>
<!-- Node1&#45;&gt;Node8 -->
<g id="edge8" class="edge"><title>Node1&#45;&gt;Node8</title>
<path fill="none" stroke="#9a32cd" stroke-dasharray="5,2" d="M85.7767,-332.601C101.614,-335.175 119.563,-338.091 136.426,-340.832"/>
<polygon fill="#9a32cd" stroke="#9a32cd" points="86.1392,-329.114 75.7072,-330.965 85.0163,-336.024 86.1392,-329.114"/>
<text text-anchor="middle" x="102" y="-340" font-family="Helvetica,sans-Serif" font-size="10.00"> ptr</text>
</g>
<!-- Node2 -->
<g id="node2" class="node"><title>Node2</title>
<g id="a_node2"><a xlink:href="class_world_object.html" target="_top" xlink:title="WorldObject">
<polygon fill="white" stroke="black" points="398.5,-174.5 398.5,-193.5 469.5,-193.5 469.5,-174.5 398.5,-174.5"/>
<text text-anchor="middle" x="434" y="-181.5" font-family="Helvetica,sans-Serif" font-size="10.00">WorldObject</text>
</a>
</g>
</g>
<!-- Node2&#45;&gt;Node1 -->
<g id="edge1" class="edge"><title>Node2&#45;&gt;Node1</title>
<path fill="none" stroke="#9a32cd" stroke-dasharray="5,2" d="M423.942,-202.695C415.036,-219.046 399.894,-242.133 380,-255 329.698,-287.535 152.801,-311.659 75.5507,-320.887"/>
<polygon fill="#9a32cd" stroke="#9a32cd" points="427.192,-204.029 428.668,-193.537 420.971,-200.819 427.192,-204.029"/>
<text text-anchor="middle" x="200" y="-317" font-family="Helvetica,sans-Serif" font-size="10.00"> m_owner</text>
</g>
<!-- Node3 -->
<g id="node3" class="node"><title>Node3</title>
<g id="a_node3"><a xlink:href="class_voxel_cluster.html" target="_top" xlink:title="VoxelCluster">
<polygon fill="white" stroke="red" points="164,-250.5 164,-269.5 236,-269.5 236,-250.5 164,-250.5"/>
<text text-anchor="middle" x="200" y="-257.5" font-family="Helvetica,sans-Serif" font-size="10.00">VoxelCluster</text>
</a>
</g>
</g>
<!-- Node3&#45;&gt;Node2 -->
<g id="edge2" class="edge"><title>Node3&#45;&gt;Node2</title>
<path fill="none" stroke="midnightblue" d="M246.321,-258.288C283.707,-255.406 337.343,-247.817 380,-228 397.787,-219.737 414.536,-204.003 424.277,-193.762"/>
<polygon fill="midnightblue" stroke="midnightblue" points="245.965,-254.804 236.229,-258.982 246.446,-261.788 245.965,-254.804"/>
</g>
<!-- Node4 -->
<g id="node4" class="node"><title>Node4</title>
<g id="a_node4"><a xlink:href="class_voxel.html" target="_top" xlink:title="Voxel">
<polygon fill="white" stroke="red" points="179.5,-212.5 179.5,-231.5 220.5,-231.5 220.5,-212.5 179.5,-212.5"/>
<text text-anchor="middle" x="200" y="-219.5" font-family="Helvetica,sans-Serif" font-size="10.00">Voxel</text>
</a>
</g>
</g>
<!-- Node4&#45;&gt;Node2 -->
<g id="edge3" class="edge"><title>Node4&#45;&gt;Node2</title>
<path fill="none" stroke="#9a32cd" stroke-dasharray="5,2" d="M230.985,-219.515C266.72,-216.238 328.119,-209.614 380,-199 387.308,-197.505 395.082,-195.528 402.361,-193.503"/>
<polygon fill="#9a32cd" stroke="#9a32cd" points="230.408,-216.052 220.757,-220.425 231.028,-223.024 230.408,-216.052"/>
<text text-anchor="middle" x="335" y="-216" font-family="Helvetica,sans-Serif" font-size="10.00"> m_crucialVoxel</text>
</g>
<!-- Node5 -->
<g id="node5" class="node"><title>Node5</title>
<polygon fill="white" stroke="#bfbfbf" points="128.5,-174.5 128.5,-193.5 271.5,-193.5 271.5,-174.5 128.5,-174.5"/>
<text text-anchor="middle" x="200" y="-181.5" font-family="Helvetica,sans-Serif" font-size="10.00">std::unique_ptr&lt; ObjectInfo &gt;</text>
</g>
<!-- Node5&#45;&gt;Node2 -->
<g id="edge4" class="edge"><title>Node5&#45;&gt;Node2</title>
<path fill="none" stroke="#9a32cd" stroke-dasharray="5,2" d="M281.554,-184C321.472,-184 367.584,-184 398.339,-184"/>
<polygon fill="#9a32cd" stroke="#9a32cd" points="281.553,-180.5 271.553,-184 281.553,-187.5 281.553,-180.5"/>
<text text-anchor="middle" x="335" y="-187" font-family="Helvetica,sans-Serif" font-size="10.00"> m_objectInfo</text>
</g>
<!-- Node6 -->
<g id="node6" class="node"><title>Node6</title>
<g id="a_node6"><a xlink:href="class_handle.html" target="_top" xlink:title="Handle\&lt; WorldObject \&gt;">
<polygon fill="white" stroke="black" points="140.5,-136.5 140.5,-155.5 259.5,-155.5 259.5,-136.5 140.5,-136.5"/>
<text text-anchor="middle" x="200" y="-143.5" font-family="Helvetica,sans-Serif" font-size="10.00">Handle&lt; WorldObject &gt;</text>
</a>
</g>
</g>
<!-- Node6&#45;&gt;Node2 -->
<g id="edge5" class="edge"><title>Node6&#45;&gt;Node2</title>
<path fill="none" stroke="#9a32cd" stroke-dasharray="5,2" d="M269.937,-152.446C303.361,-156.184 343.975,-161.63 380,-169 387.308,-170.495 395.082,-172.472 402.361,-174.497"/>
<polygon fill="#9a32cd" stroke="#9a32cd" points="270.129,-148.946 259.808,-151.341 269.369,-155.905 270.129,-148.946"/>
<text text-anchor="middle" x="335" y="-172" font-family="Helvetica,sans-Serif" font-size="10.00"> m_handle</text>
</g>
<!-- Node7 -->
<g id="node7" class="node"><title>Node7</title>
<polygon fill="white" stroke="#bfbfbf" points="133,-98.5 133,-117.5 267,-117.5 267,-98.5 133,-98.5"/>
<text text-anchor="middle" x="200" y="-105.5" font-family="Helvetica,sans-Serif" font-size="10.00">std::unique_ptr&lt; Physics &gt;</text>
</g>
<!-- Node7&#45;&gt;Node2 -->
<g id="edge6" class="edge"><title>Node7&#45;&gt;Node2</title>
<path fill="none" stroke="#9a32cd" stroke-dasharray="5,2" d="M277.153,-113.577C309.942,-118.092 348.011,-126.253 380,-141 397.647,-149.135 414.435,-164.494 424.222,-174.483"/>
<polygon fill="#9a32cd" stroke="#9a32cd" points="277.525,-110.096 267.159,-112.29 276.63,-117.039 277.525,-110.096"/>
<text text-anchor="middle" x="335" y="-144" font-family="Helvetica,sans-Serif" font-size="10.00"> m_physics</text>
</g>
<!-- Node8&#45;&gt;Node2 -->
<g id="edge7" class="edge"><title>Node8&#45;&gt;Node2</title>
<path fill="none" stroke="#9a32cd" stroke-dasharray="5,2" d="M273.946,-354.338C309.44,-352.283 350.665,-343.983 380,-320 420.415,-286.96 430.106,-219.031 432.35,-193.756"/>
<polygon fill="#9a32cd" stroke="#9a32cd" points="273.464,-350.855 263.62,-354.773 273.758,-357.849 273.464,-350.855"/>
<text text-anchor="middle" x="335" y="-355" font-family="Helvetica,sans-Serif" font-size="10.00"> m_collisionFilter</text>
</g>
<!-- Node9 -->
<g id="node9" class="node"><title>Node9</title>
<polygon fill="white" stroke="#bfbfbf" points="136.5,-49 136.5,-79 263.5,-79 263.5,-49 136.5,-49"/>
<text text-anchor="start" x="144.5" y="-67" font-family="Helvetica,sans-Serif" font-size="10.00">std::unique_ptr&lt; Collision</text>
<text text-anchor="middle" x="200" y="-56" font-family="Helvetica,sans-Serif" font-size="10.00">Detector &gt;</text>
</g>
<!-- Node9&#45;&gt;Node2 -->
<g id="edge9" class="edge"><title>Node9&#45;&gt;Node2</title>
<path fill="none" stroke="#9a32cd" stroke-dasharray="5,2" d="M273.77,-66.6511C308.463,-70.95 349.042,-80.6798 380,-102 406.665,-120.363 423.043,-156.971 429.642,-174.377"/>
<polygon fill="#9a32cd" stroke="#9a32cd" points="274.008,-63.1561 263.683,-65.5309 273.236,-70.1134 274.008,-63.1561"/>
<text text-anchor="middle" x="335" y="-105" font-family="Helvetica,sans-Serif" font-size="10.00"> m_collisionDetector</text>
</g>
<!-- Node10 -->
<g id="node10" class="node"><title>Node10</title>
<polygon fill="white" stroke="#bfbfbf" points="128,-0 128,-30 272,-30 272,-0 128,-0"/>
<text text-anchor="start" x="136" y="-18" font-family="Helvetica,sans-Serif" font-size="10.00">std::unique_ptr&lt; WorldObject</text>
<text text-anchor="middle" x="200" y="-7" font-family="Helvetica,sans-Serif" font-size="10.00">Components &gt;</text>
</g>
<!-- Node10&#45;&gt;Node2 -->
<g id="edge10" class="edge"><title>Node10&#45;&gt;Node2</title>
<path fill="none" stroke="#9a32cd" stroke-dasharray="5,2" d="M282.612,-17.0902C316.027,-21.7562 353.082,-32.3085 380,-55 417.95,-86.9916 429.107,-150.468 432.046,-174.49"/>
<polygon fill="#9a32cd" stroke="#9a32cd" points="282.728,-13.578 272.374,-15.8242 281.869,-20.5251 282.728,-13.578"/>
<text text-anchor="middle" x="335" y="-58" font-family="Helvetica,sans-Serif" font-size="10.00"> m_components</text>
</g>
</g>
</svg>
