<?xml version="1.0" encoding="UTF-8" standalone="no"?>
<!DOCTYPE svg PUBLIC "-//W3C//DTD SVG 1.1//EN"
 "http://www.w3.org/Graphics/SVG/1.1/DTD/svg11.dtd">
<!-- Generated by graphviz version 2.36.0 (20140111.2315)
 -->
<!-- Title: God Pages: 1 -->
<!--zoomable 382 -->
<svg id="main" version="1.1" xmlns="http://www.w3.org/2000/svg" xmlns:xlink="http://www.w3.org/1999/xlink" xml:space="preserve" onload="init(evt)">
<style type="text/css"><![CDATA[
.edge:hover path { stroke: red; }
.edge:hover polygon { stroke: red; fill: red; }
]]></style>
<script type="text/javascript"><![CDATA[
var edges = document.getElementsByTagName('g');
if (edges && edges.length) {
  for (var i=0;i<edges.length;i++) {
    if (edges[i].id.substr(0,4)=='edge') {
      edges[i].setAttribute('class','edge');
    }
  }
}
]]></script>
        <defs>
                <circle id="rim" cx="0" cy="0" r="7"/>
                <circle id="rim2" cx="0" cy="0" r="3.5"/>
                <g id="zoomPlus">
                        <use xlink:href="#rim" fill="#404040">
                                <set attributeName="fill" to="#808080" begin="zoomplus.mouseover" end="zoomplus.mouseout"/>
                        </use>
                        <path d="M-4,0h8M0,-4v8" fill="none" stroke="white" stroke-width="1.5" pointer-events="none"/>
                </g>
                <g id="zoomMin">
                        <use xlink:href="#rim" fill="#404040">
                                <set attributeName="fill" to="#808080" begin="zoomminus.mouseover" end="zoomminus.mouseout"/>
                        </use>
                        <path d="M-4,0h8" fill="none" stroke="white" stroke-width="1.5" pointer-events="none"/>
                </g>
                <g id="dirArrow">
                        <path fill="none" stroke="white" stroke-width="1.5" d="M0,-3.0v7 M-2.5,-0.5L0,-3.0L2.5,-0.5"/>
                </g>
               <g id="resetDef">
                       <use xlink:href="#rim2" fill="#404040">
                               <set attributeName="fill" to="#808080" begin="reset.mouseover" end="reset.mouseout"/>
                       </use>
               </g>
        </defs>

<script type="text/javascript">
var viewWidth = 1297;
var viewHeight = 382;
var sectionId = 'dynsection-0';
</script>
<script xlink:href="svgpan.js"/>
<svg id="graph" class="graph">
<g id="viewport">
<title>God</title>
<polygon fill="white" stroke="none" points="-4,4 -4,-378 1292.5,-378 1292.5,4 -4,4"/>
<!-- Node1 -->
<g id="node1" class="node"><title>Node1</title>
<polygon fill="#bfbfbf" stroke="black" points="890.5,-285.5 890.5,-304.5 925.5,-304.5 925.5,-285.5 890.5,-285.5"/>
<text text-anchor="middle" x="908" y="-292.5" font-family="Helvetica,sans-Serif" font-size="10.00">God</text>
</g>
<!-- Node14 -->
<g id="node14" class="node"><title>Node14</title>
<polygon fill="white" stroke="#bfbfbf" points="993.5,-309.5 993.5,-328.5 1110.5,-328.5 1110.5,-309.5 993.5,-309.5"/>
<text text-anchor="middle" x="1052" y="-316.5" font-family="Helvetica,sans-Serif" font-size="10.00">std::unique_ptr&lt; God &gt;</text>
</g>
<!-- Node1&#45;&gt;Node14 -->
<g id="edge16" class="edge"><title>Node1&#45;&gt;Node14</title>
<path fill="none" stroke="#9a32cd" stroke-dasharray="5,2" d="M935.647,-299.504C952.286,-302.316 974.348,-306.045 994.719,-309.488"/>
<polygon fill="#9a32cd" stroke="#9a32cd" points="936.011,-296.016 925.567,-297.8 934.844,-302.918 936.011,-296.016"/>
<text text-anchor="middle" x="952" y="-306" font-family="Helvetica,sans-Serif" font-size="10.00"> ptr</text>
</g>
<!-- Node2 -->
<g id="node2" class="node"><title>Node2</title>
<polygon fill="white" stroke="#bfbfbf" points="152,-263.5 152,-282.5 280,-282.5 280,-263.5 152,-263.5"/>
<text text-anchor="middle" x="216" y="-270.5" font-family="Helvetica,sans-Serif" font-size="10.00">std::list&lt; WorldObject * &gt;</text>
</g>
<!-- Node2&#45;&gt;Node1 -->
<g id="edge1" class="edge"><title>Node2&#45;&gt;Node1</title>
<path fill="none" stroke="#9a32cd" stroke-dasharray="5,2" d="M271.278,-284.265C280.174,-285.761 289.319,-287.09 298,-288 349.292,-293.379 362.437,-289.987 414,-291 579.316,-294.249 620.655,-294.889 786,-296 824.221,-296.257 833.782,-296.546 872,-296 877.957,-295.915 884.482,-295.748 890.267,-295.575"/>
<polygon fill="#9a32cd" stroke="#9a32cd" points="271.836,-280.809 261.38,-282.518 270.62,-287.703 271.836,-280.809"/>
<text text-anchor="middle" x="566" y="-298" font-family="Helvetica,sans-Serif" font-size="10.00"> m_scheduledRemovals</text>
</g>
<!-- Node5 -->
<g id="node5" class="node"><title>Node5</title>
<g id="a_node5"><a xlink:href="class_spawn_request.html" target="_top" xlink:title="SpawnRequest">
<polygon fill="white" stroke="black" points="414,-262.5 414,-281.5 496,-281.5 496,-262.5 414,-262.5"/>
<text text-anchor="middle" x="455" y="-269.5" font-family="Helvetica,sans-Serif" font-size="10.00">SpawnRequest</text>
</a>
</g>
</g>
<!-- Node2&#45;&gt;Node5 -->
<g id="edge5" class="edge"><title>Node2&#45;&gt;Node5</title>
<path fill="none" stroke="#9a32cd" stroke-dasharray="5,2" d="M290.339,-272.691C330.983,-272.519 379.961,-272.312 413.683,-272.17"/>
<polygon fill="#9a32cd" stroke="#9a32cd" points="290.185,-269.191 280.2,-272.733 290.215,-276.191 290.185,-269.191"/>
<text text-anchor="middle" x="347" y="-276" font-family="Helvetica,sans-Serif" font-size="10.00"> m_worldObjects</text>
</g>
<!-- Node3 -->
<g id="node3" class="node"><title>Node3</title>
<g id="a_node3"><a xlink:href="class_world_object.html" target="_top" xlink:title="WorldObject">
<polygon fill="white" stroke="red" points="0.5,-243.5 0.5,-262.5 71.5,-262.5 71.5,-243.5 0.5,-243.5"/>
<text text-anchor="middle" x="36" y="-250.5" font-family="Helvetica,sans-Serif" font-size="10.00">WorldObject</text>
</a>
</g>
</g>
<!-- Node3&#45;&gt;Node2 -->
<g id="edge2" class="edge"><title>Node3&#45;&gt;Node2</title>
<path fill="none" stroke="#9a32cd" stroke-dasharray="5,2" d="M81.7698,-258.03C102.995,-260.415 128.72,-263.306 151.883,-265.908"/>
<polygon fill="#9a32cd" stroke="#9a32cd" points="82.071,-254.542 71.7427,-256.904 81.2894,-261.498 82.071,-254.542"/>
<text text-anchor="middle" x="112" y="-267" font-family="Helvetica,sans-Serif" font-size="10.00"> elements</text>
</g>
<!-- Node8 -->
<g id="node8" class="node"><title>Node8</title>
<polygon fill="white" stroke="#bfbfbf" points="298,-219 298,-249 396,-249 396,-219 298,-219"/>
<text text-anchor="start" x="306" y="-237" font-family="Helvetica,sans-Serif" font-size="10.00">std::unordered_set</text>
<text text-anchor="middle" x="347" y="-226" font-family="Helvetica,sans-Serif" font-size="10.00">&lt; WorldObject * &gt;</text>
</g>
<!-- Node3&#45;&gt;Node8 -->
<g id="edge9" class="edge"><title>Node3&#45;&gt;Node8</title>
<path fill="none" stroke="#9a32cd" stroke-dasharray="5,2" d="M81.7777,-245.897C84.5562,-245.563 87.3139,-245.26 90,-245 162.175,-238.022 246.225,-235.471 297.767,-234.538"/>
<polygon fill="#9a32cd" stroke="#9a32cd" points="81.1752,-242.446 71.7153,-247.217 82.0856,-249.387 81.1752,-242.446"/>
<text text-anchor="middle" x="112" y="-248" font-family="Helvetica,sans-Serif" font-size="10.00"> keys</text>
</g>
<!-- Node4 -->
<g id="node4" class="node"><title>Node4</title>
<polygon fill="white" stroke="#bfbfbf" points="636,-262.5 636,-281.5 768,-281.5 768,-262.5 636,-262.5"/>
<text text-anchor="middle" x="702" y="-269.5" font-family="Helvetica,sans-Serif" font-size="10.00">std::list&lt; SpawnRequest &gt;</text>
</g>
<!-- Node4&#45;&gt;Node1 -->
<g id="edge3" class="edge"><title>Node4&#45;&gt;Node1</title>
<path fill="none" stroke="#9a32cd" stroke-dasharray="5,2" d="M778.573,-274.555C807.911,-276.396 841.686,-279.561 872,-285 878.096,-286.094 884.654,-287.816 890.426,-289.524"/>
<polygon fill="#9a32cd" stroke="#9a32cd" points="778.581,-271.05 768.393,-273.958 778.171,-278.038 778.581,-271.05"/>
<text text-anchor="middle" x="829" y="-288" font-family="Helvetica,sans-Serif" font-size="10.00"> m_spawnRequests</text>
</g>
<!-- Node5&#45;&gt;Node4 -->
<g id="edge4" class="edge"><title>Node5&#45;&gt;Node4</title>
<path fill="none" stroke="#9a32cd" stroke-dasharray="5,2" d="M506.359,-272C543.83,-272 595.29,-272 635.887,-272"/>
<polygon fill="#9a32cd" stroke="#9a32cd" points="506.182,-268.5 496.182,-272 506.182,-275.5 506.182,-268.5"/>
<text text-anchor="middle" x="566" y="-275" font-family="Helvetica,sans-Serif" font-size="10.00"> elements</text>
</g>
<!-- Node6 -->
<g id="node6" class="node"><title>Node6</title>
<g id="a_node6"><a xlink:href="class_world.html" target="_top" xlink:title="World">
<polygon fill="white" stroke="black" points="1242,-186.5 1242,-205.5 1284,-205.5 1284,-186.5 1242,-186.5"/>
<text text-anchor="middle" x="1263" y="-193.5" font-family="Helvetica,sans-Serif" font-size="10.00">World</text>
</a>
</g>
</g>
<!-- Node6&#45;&gt;Node1 -->
<g id="edge6" class="edge"><title>Node6&#45;&gt;Node1</title>
<path fill="none" stroke="#9a32cd" stroke-dasharray="5,2" d="M1253.12,-214.794C1246.69,-226.285 1236.86,-240.225 1224,-248 1198.15,-263.63 986.954,-286.818 925.634,-293.276"/>
<polygon fill="#9a32cd" stroke="#9a32cd" points="1256.24,-216.397 1257.73,-205.907 1250.02,-213.178 1256.24,-216.397"/>
<text text-anchor="middle" x="1052" y="-291" font-family="Helvetica,sans-Serif" font-size="10.00"> m_world</text>
</g>
<!-- Node6&#45;&gt;Node6 -->
<g id="edge17" class="edge"><title>Node6&#45;&gt;Node6</title>
<path fill="none" stroke="#9a32cd" stroke-dasharray="5,2" d="M1248.64,-215.766C1249.76,-220.497 1254.55,-224 1263,-224 1276.86,-224 1280.87,-214.565 1275.02,-205.757"/>
<polygon fill="#9a32cd" stroke="#9a32cd" points="1252.11,-216.292 1250.98,-205.757 1245.29,-214.697 1252.11,-216.292"/>
<text text-anchor="middle" x="1263" y="-227" font-family="Helvetica,sans-Serif" font-size="10.00"> s_instance</text>
</g>
<!-- Node7 -->
<g id="node7" class="node"><title>Node7</title>
<polygon fill="white" stroke="#bfbfbf" points="980.5,-347.5 980.5,-366.5 1123.5,-366.5 1123.5,-347.5 980.5,-347.5"/>
<text text-anchor="middle" x="1052" y="-354.5" font-family="Helvetica,sans-Serif" font-size="10.00">std::unique_ptr&lt; WorldTree &gt;</text>
</g>
<!-- Node7&#45;&gt;Node6 -->
<g id="edge7" class="edge"><title>Node7&#45;&gt;Node6</title>
<path fill="none" stroke="#9a32cd" stroke-dasharray="5,2" d="M1133.68,-364.727C1165.19,-363.485 1199.55,-356.272 1224,-335 1263.07,-301.011 1263.8,-231.107 1262.65,-205.592"/>
<polygon fill="#9a32cd" stroke="#9a32cd" points="1133.49,-361.23 1123.56,-364.93 1133.63,-368.228 1133.49,-361.23"/>
<text text-anchor="middle" x="1184" y="-366" font-family="Helvetica,sans-Serif" font-size="10.00"> m_worldTree</text>
</g>
<!-- Node8&#45;&gt;Node6 -->
<g id="edge8" class="edge"><title>Node8&#45;&gt;Node6</title>
<path fill="none" stroke="#9a32cd" stroke-dasharray="5,2" d="M406.42,-234C450.099,-234 511.289,-234 565,-234 565,-234 565,-234 1053,-234 1129.68,-234 1149.79,-230.331 1224,-211 1229.9,-209.462 1236.13,-207.265 1241.79,-205.025"/>
<polygon fill="#9a32cd" stroke="#9a32cd" points="406.265,-230.5 396.265,-234 406.265,-237.5 406.265,-230.5"/>
<text text-anchor="middle" x="829" y="-237" font-family="Helvetica,sans-Serif" font-size="10.00"> m_worldObjects</text>
</g>
<!-- Node9 -->
<g id="node9" class="node"><title>Node9</title>
<polygon fill="white" stroke="#bfbfbf" points="978,-186.5 978,-205.5 1126,-205.5 1126,-186.5 978,-186.5"/>
<text text-anchor="middle" x="1052" y="-193.5" font-family="Helvetica,sans-Serif" font-size="10.00">std::unique_ptr&lt; WorldLogic &gt;</text>
</g>
<!-- Node9&#45;&gt;Node6 -->
<g id="edge10" class="edge"><title>Node9&#45;&gt;Node6</title>
<path fill="none" stroke="#9a32cd" stroke-dasharray="5,2" d="M1136.31,-196C1174.8,-196 1217.31,-196 1241.71,-196"/>
<polygon fill="#9a32cd" stroke="#9a32cd" points="1136.1,-192.5 1126.1,-196 1136.1,-199.5 1136.1,-192.5"/>
<text text-anchor="middle" x="1184" y="-199" font-family="Helvetica,sans-Serif" font-size="10.00"> m_worldLogic</text>
</g>
<!-- Node10 -->
<g id="node10" class="node"><title>Node10</title>
<polygon fill="white" stroke="#bfbfbf" points="1003,-137 1003,-167 1101,-167 1101,-137 1003,-137"/>
<text text-anchor="start" x="1011" y="-155" font-family="Helvetica,sans-Serif" font-size="10.00">std::unordered_set</text>
<text text-anchor="middle" x="1052" y="-144" font-family="Helvetica,sans-Serif" font-size="10.00">&lt; Ship * &gt;</text>
</g>
<!-- Node10&#45;&gt;Node6 -->
<g id="edge11" class="edge"><title>Node10&#45;&gt;Node6</title>
<path fill="none" stroke="#9a32cd" stroke-dasharray="5,2" d="M1111.18,-158.808C1144.57,-163.472 1187.07,-170.7 1224,-181 1229.88,-182.639 1236.09,-184.869 1241.76,-187.109"/>
<polygon fill="#9a32cd" stroke="#9a32cd" points="1111.51,-155.32 1101.13,-157.442 1110.57,-162.257 1111.51,-155.32"/>
<text text-anchor="middle" x="1184" y="-184" font-family="Helvetica,sans-Serif" font-size="10.00"> m_ships</text>
</g>
<!-- Node11 -->
<g id="node11" class="node"><title>Node11</title>
<polygon fill="white" stroke="#bfbfbf" points="986,-98.5 986,-117.5 1118,-117.5 1118,-98.5 986,-98.5"/>
<text text-anchor="middle" x="1052" y="-105.5" font-family="Helvetica,sans-Serif" font-size="10.00">std::unique_ptr&lt; Skybox &gt;</text>
</g>
<!-- Node11&#45;&gt;Node6 -->
<g id="edge12" class="edge"><title>Node11&#45;&gt;Node6</title>
<path fill="none" stroke="#9a32cd" stroke-dasharray="5,2" d="M1128.17,-115.868C1159.6,-121.752 1195.38,-132.034 1224,-150 1238.56,-159.143 1250.22,-175.77 1256.61,-186.331"/>
<polygon fill="#9a32cd" stroke="#9a32cd" points="1128.59,-112.389 1118.13,-114.109 1127.38,-119.283 1128.59,-112.389"/>
<text text-anchor="middle" x="1184" y="-153" font-family="Helvetica,sans-Serif" font-size="10.00"> m_skybox</text>
</g>
<!-- Node12 -->
<g id="node12" class="node"><title>Node12</title>
<polygon fill="white" stroke="#bfbfbf" points="978,-49 978,-79 1126,-79 1126,-49 978,-49"/>
<text text-anchor="start" x="986" y="-67" font-family="Helvetica,sans-Serif" font-size="10.00">std::unique_ptr&lt; VoxelParticle</text>
<text text-anchor="middle" x="1052" y="-56" font-family="Helvetica,sans-Serif" font-size="10.00">Engine &gt;</text>
</g>
<!-- Node12&#45;&gt;Node6 -->
<g id="edge13" class="edge"><title>Node12&#45;&gt;Node6</title>
<path fill="none" stroke="#9a32cd" stroke-dasharray="5,2" d="M1136.5,-68.3967C1166.93,-73.7479 1199.77,-84.375 1224,-105 1249.29,-126.531 1258.07,-167.688 1260.84,-186.361"/>
<polygon fill="#9a32cd" stroke="#9a32cd" points="1136.72,-64.887 1126.29,-66.7773 1135.62,-71.8006 1136.72,-64.887"/>
<text text-anchor="middle" x="1184" y="-108" font-family="Helvetica,sans-Serif" font-size="10.00"> m_particleEngine</text>
</g>
<!-- Node13 -->
<g id="node13" class="node"><title>Node13</title>
<polygon fill="white" stroke="#bfbfbf" points="991,-0 991,-30 1113,-30 1113,-0 991,-0"/>
<text text-anchor="start" x="999" y="-18" font-family="Helvetica,sans-Serif" font-size="10.00">std::unique_ptr&lt; Faction</text>
<text text-anchor="middle" x="1052" y="-7" font-family="Helvetica,sans-Serif" font-size="10.00">Matrix &gt;</text>
</g>
<!-- Node13&#45;&gt;Node6 -->
<g id="edge14" class="edge"><title>Node13&#45;&gt;Node6</title>
<path fill="none" stroke="#9a32cd" stroke-dasharray="5,2" d="M1123.35,-15.7095C1157.81,-19.695 1197.48,-30.2597 1224,-56 1261.23,-92.1363 1263.15,-160.769 1262.48,-186.2"/>
<polygon fill="#9a32cd" stroke="#9a32cd" points="1123.61,-12.2184 1113.32,-14.7133 1122.92,-19.1842 1123.61,-12.2184"/>
<text text-anchor="middle" x="1184" y="-59" font-family="Helvetica,sans-Serif" font-size="10.00"> m_factionMatrix</text>
</g>
<!-- Node14&#45;&gt;Node6 -->
<g id="edge15" class="edge"><title>Node14&#45;&gt;Node6</title>
<path fill="none" stroke="#9a32cd" stroke-dasharray="5,2" d="M1121.07,-324.374C1155.27,-323.553 1195.4,-316.797 1224,-294 1252.11,-271.591 1259.46,-225.637 1261.35,-205.646"/>
<polygon fill="#9a32cd" stroke="#9a32cd" points="1120.64,-320.877 1110.67,-324.45 1120.69,-327.877 1120.64,-320.877"/>
<text text-anchor="middle" x="1184" y="-325" font-family="Helvetica,sans-Serif" font-size="10.00"> m_god</text>
</g>
</g>
</svg>
        <g id="navigator" transform="translate(0 0)" fill="#404254">
                <rect fill="#f2f5e9" fill-opacity="0.5" stroke="#606060" stroke-width=".5" x="0" y="0" width="60" height="60"/>
                <use id="zoomplus" xlink:href="#zoomPlus" x="17" y="9" onmousedown="handleZoom(evt,'in')"/>
                <use id="zoomminus" xlink:href="#zoomMin" x="42" y="9" onmousedown="handleZoom(evt,'out')"/>
                <use id="reset" xlink:href="#resetDef" x="30" y="36" onmousedown="handleReset()"/>
                <g id="arrowUp" xlink:href="#dirArrow" transform="translate(30 24)" onmousedown="handlePan(0,-1)">
                  <use xlink:href="#rim" fill="#404040">
                        <set attributeName="fill" to="#808080" begin="arrowUp.mouseover" end="arrowUp.mouseout"/>
                  </use>
                  <path fill="none" stroke="white" stroke-width="1.5" d="M0,-3.0v7 M-2.5,-0.5L0,-3.0L2.5,-0.5"/>
                </g>
                <g id="arrowRight" xlink:href="#dirArrow" transform="rotate(90) translate(36 -43)" onmousedown="handlePan(1,0)">
                  <use xlink:href="#rim" fill="#404040">
                        <set attributeName="fill" to="#808080" begin="arrowRight.mouseover" end="arrowRight.mouseout"/>
                  </use>
                  <path fill="none" stroke="white" stroke-width="1.5" d="M0,-3.0v7 M-2.5,-0.5L0,-3.0L2.5,-0.5"/>
                </g>
                <g id="arrowDown" xlink:href="#dirArrow" transform="rotate(180) translate(-30 -48)" onmousedown="handlePan(0,1)">
                  <use xlink:href="#rim" fill="#404040">
                        <set attributeName="fill" to="#808080" begin="arrowDown.mouseover" end="arrowDown.mouseout"/>
                  </use>
                  <path fill="none" stroke="white" stroke-width="1.5" d="M0,-3.0v7 M-2.5,-0.5L0,-3.0L2.5,-0.5"/>
                </g>
                <g id="arrowLeft" xlink:href="#dirArrow" transform="rotate(270) translate(-36 17)" onmousedown="handlePan(-1,0)">
                  <use xlink:href="#rim" fill="#404040">
                        <set attributeName="fill" to="#808080" begin="arrowLeft.mouseover" end="arrowLeft.mouseout"/>
                  </use>
                  <path fill="none" stroke="white" stroke-width="1.5" d="M0,-3.0v7 M-2.5,-0.5L0,-3.0L2.5,-0.5"/>
                </g>
        </g>
        <svg viewBox="0 0 15 15" width="100%" height="30px" preserveAspectRatio="xMaxYMin meet">
         <g id="arrow_out" transform="scale(0.3 0.3)">
          <a xlink:href="class_god__coll__graph_org.svg" target="_base">
           <rect id="button" ry="5" rx="5" y="6" x="6" height="38" width="38"
                fill="#f2f5e9" fill-opacity="0.5" stroke="#606060" stroke-width="1.0"/>
           <path id="arrow"
             d="M 11.500037,31.436501 C 11.940474,20.09759 22.043105,11.32322 32.158766,21.979434 L 37.068811,17.246167 C 37.068811,17.246167 37.088388,32 37.088388,32 L 22.160133,31.978069 C 22.160133,31.978069 26.997745,27.140456 26.997745,27.140456 C 18.528582,18.264221 13.291696,25.230495 11.500037,31.436501 z"
             style="fill:#404040;"/>
          </a>
         </g>
        </svg>
</svg>
