<?xml version="1.0" encoding="UTF-8" standalone="no"?>
<!DOCTYPE svg PUBLIC "-//W3C//DTD SVG 1.1//EN"
 "http://www.w3.org/Graphics/SVG/1.1/DTD/svg11.dtd">
<!-- Generated by graphviz version 2.36.0 (20140111.2315)
 -->
<!-- Title: SpecialVoxel Pages: 1 -->
<svg width="245pt" height="174pt"
 viewBox="0.00 0.00 245.00 174.00" xmlns="http://www.w3.org/2000/svg" xmlns:xlink="http://www.w3.org/1999/xlink">
<g id="graph0" class="graph" transform="scale(1 1) rotate(0) translate(4 170)">
<title>SpecialVoxel</title>
<polygon fill="white" stroke="none" points="-4,4 -4,-170 241,-170 241,4 -4,4"/>
<!-- Node1 -->
<g id="node1" class="node"><title>Node1</title>
<polygon fill="#bfbfbf" stroke="black" points="0,-0.5 0,-19.5 74,-19.5 74,-0.5 0,-0.5"/>
<text text-anchor="middle" x="37" y="-7.5" font-family="Helvetica,sans-Serif" font-size="10.00">SpecialVoxel</text>
</g>
<!-- Node2 -->
<g id="node2" class="node"><title>Node2</title>
<g id="a_node2"><a xlink:href="class_voxel.html" target="_top" xlink:title="Voxel">
<polygon fill="white" stroke="black" points="51.5,-68.5 51.5,-87.5 92.5,-87.5 92.5,-68.5 51.5,-68.5"/>
<text text-anchor="middle" x="72" y="-75.5" font-family="Helvetica,sans-Serif" font-size="10.00">Voxel</text>
</a>
</g>
</g>
<!-- Node2&#45;&gt;Node1 -->
<g id="edge1" class="edge"><title>Node2&#45;&gt;Node1</title>
<path fill="none" stroke="midnightblue" d="M57.8065,-60.4277C55.34,-57.1019 52.9461,-53.5383 51,-50 45.5917,-40.1667 41.576,-27.8356 39.264,-19.7023"/>
<polygon fill="midnightblue" stroke="midnightblue" points="55.2729,-62.864 64.2474,-68.4952 60.7434,-58.4966 55.2729,-62.864"/>
</g>
<!-- Node5 -->
<g id="node5" class="node"><title>Node5</title>
<g id="a_node5"><a xlink:href="class_voxel_tree_node.html" target="_top" xlink:title="VoxelTreeNode">
<polygon fill="white" stroke="red" points="92.5,-0.5 92.5,-19.5 175.5,-19.5 175.5,-0.5 92.5,-0.5"/>
<text text-anchor="middle" x="134" y="-7.5" font-family="Helvetica,sans-Serif" font-size="10.00">VoxelTreeNode</text>
</a>
</g>
</g>
<!-- Node2&#45;&gt;Node5 -->
<g id="edge5" class="edge"><title>Node2&#45;&gt;Node5</title>
<path fill="none" stroke="#9a32cd" stroke-dasharray="5,2" d="M65.9684,-58.4908C64.8349,-51.5572 65.0415,-43.9307 69,-38 74.6983,-29.4626 83.6554,-23.6209 93.1192,-19.625"/>
<polygon fill="#9a32cd" stroke="#9a32cd" points="62.65,-59.6434 68.5061,-68.4727 69.4342,-57.9186 62.65,-59.6434"/>
<text text-anchor="middle" x="88.5" y="-41.5" font-family="Helvetica,sans-Serif" font-size="10.00"> m_voxel</text>
</g>
<!-- Node3 -->
<g id="node3" class="node"><title>Node3</title>
<g id="a_node3"><a xlink:href="class_visuals.html" target="_top" xlink:title="Visuals">
<polygon fill="white" stroke="black" points="4.5,-146.5 4.5,-165.5 53.5,-165.5 53.5,-146.5 4.5,-146.5"/>
<text text-anchor="middle" x="29" y="-153.5" font-family="Helvetica,sans-Serif" font-size="10.00">Visuals</text>
</a>
</g>
</g>
<!-- Node3&#45;&gt;Node2 -->
<g id="edge2" class="edge"><title>Node3&#45;&gt;Node2</title>
<path fill="none" stroke="#9a32cd" stroke-dasharray="5,2" d="M34.3937,-136.602C37.6064,-127.085 42.1952,-115.505 48,-106 52.0534,-99.363 57.8109,-92.8209 62.6707,-87.8389"/>
<polygon fill="#9a32cd" stroke="#9a32cd" points="31.0213,-135.658 31.3596,-146.248 37.6988,-137.759 31.0213,-135.658"/>
<text text-anchor="middle" x="71" y="-114.5" font-family="Helvetica,sans-Serif" font-size="10.00"> m_visuals</text>
</g>
<!-- Node4 -->
<g id="node4" class="node"><title>Node4</title>
<g id="a_node4"><a xlink:href="class_property.html" target="_top" xlink:title="Property\&lt; float \&gt;">
<polygon fill="white" stroke="red" points="71.5,-146.5 71.5,-165.5 160.5,-165.5 160.5,-146.5 71.5,-146.5"/>
<text text-anchor="middle" x="116" y="-153.5" font-family="Helvetica,sans-Serif" font-size="10.00">Property&lt; float &gt;</text>
</a>
</g>
</g>
<!-- Node4&#45;&gt;Node2 -->
<g id="edge3" class="edge"><title>Node4&#45;&gt;Node2</title>
<path fill="none" stroke="#9a32cd" stroke-dasharray="5,2" d="M109.144,-136.751C105.256,-127.276 99.9771,-115.687 94,-106 89.9358,-99.4134 84.4358,-92.6634 79.9518,-87.56"/>
<polygon fill="#9a32cd" stroke="#9a32cd" points="105.994,-138.306 112.905,-146.337 112.51,-135.749 105.994,-138.306"/>
<text text-anchor="middle" x="137" y="-120" font-family="Helvetica,sans-Serif" font-size="10.00"> s_defaultHp</text>
<text text-anchor="middle" x="137" y="-109" font-family="Helvetica,sans-Serif" font-size="10.00">s_defaultMass</text>
</g>
<!-- Node5&#45;&gt;Node2 -->
<g id="edge4" class="edge"><title>Node5&#45;&gt;Node2</title>
<path fill="none" stroke="#9a32cd" stroke-dasharray="5,2" d="M125.964,-29.21C122.335,-36.1945 117.597,-43.9356 112,-50 105.181,-57.3884 95.9659,-63.7828 88.0992,-68.4917"/>
<polygon fill="#9a32cd" stroke="#9a32cd" points="129.306,-30.3338 130.459,-19.8019 122.99,-27.3164 129.306,-30.3338"/>
<text text-anchor="middle" x="161" y="-41.5" font-family="Helvetica,sans-Serif" font-size="10.00"> m_voxelTreeNode</text>
</g>
<!-- Node5&#45;&gt;Node5 -->
<g id="edge6" class="edge"><title>Node5&#45;&gt;Node5</title>
<path fill="none" stroke="#9a32cd" stroke-dasharray="5,2" d="M185.85,-14.9574C190.254,-13.8984 193,-12.2459 193,-10 193,-6.31445 185.605,-4.22694 175.625,-3.73745"/>
<polygon fill="#9a32cd" stroke="#9a32cd" points="185.101,-11.5245 175.625,-16.2626 185.988,-18.4682 185.101,-11.5245"/>
<text text-anchor="middle" x="215" y="-7.5" font-family="Helvetica,sans-Serif" font-size="10.00"> m_parent</text>
</g>
</g>
</svg>
