<?xml version="1.0" encoding="UTF-8" standalone="no"?>
<!DOCTYPE svg PUBLIC "-//W3C//DTD SVG 1.1//EN"
 "http://www.w3.org/Graphics/SVG/1.1/DTD/svg11.dtd">
<!-- Generated by graphviz version 2.36.0 (20140111.2315)
 -->
<!-- Title: KeyTrigger Pages: 1 -->
<svg width="82pt" height="154pt"
 viewBox="0.00 0.00 82.00 154.00" xmlns="http://www.w3.org/2000/svg" xmlns:xlink="http://www.w3.org/1999/xlink">
<g id="graph0" class="graph" transform="scale(1 1) rotate(0) translate(4 150)">
<title>KeyTrigger</title>
<polygon fill="white" stroke="none" points="-4,4 -4,-150 78,-150 78,4 -4,4"/>
<!-- Node1 -->
<g id="node1" class="node"><title>Node1</title>
<polygon fill="#bfbfbf" stroke="black" points="0.5,-0.5 0.5,-19.5 63.5,-19.5 63.5,-0.5 0.5,-0.5"/>
<text text-anchor="middle" x="32" y="-7.5" font-family="Helvetica,sans-Serif" font-size="10.00">KeyTrigger</text>
</g>
<!-- Node2 -->
<g id="node2" class="node"><title>Node2</title>
<g id="a_node2"><a xlink:href="class_trigger.html" target="_top" xlink:title="Trigger">
<polygon fill="white" stroke="black" points="9,-58.5 9,-77.5 55,-77.5 55,-58.5 9,-58.5"/>
<text text-anchor="middle" x="32" y="-65.5" font-family="Helvetica,sans-Serif" font-size="10.00">Trigger</text>
</a>
</g>
</g>
<!-- Node2&#45;&gt;Node1 -->
<g id="edge1" class="edge"><title>Node2&#45;&gt;Node1</title>
<path fill="none" stroke="midnightblue" d="M32,-47.953C32,-38.2875 32,-27.0312 32,-19.5052"/>
<polygon fill="midnightblue" stroke="midnightblue" points="28.5001,-48.25 32,-58.25 35.5001,-48.25 28.5001,-48.25"/>
</g>
<!-- Node3 -->
<g id="node3" class="node"><title>Node3</title>
<g id="a_node3"><a xlink:href="class_triggerable.html" target="_top" xlink:title="Triggerable">
<polygon fill="white" stroke="black" points="0,-126.5 0,-145.5 64,-145.5 64,-126.5 0,-126.5"/>
<text text-anchor="middle" x="32" y="-133.5" font-family="Helvetica,sans-Serif" font-size="10.00">Triggerable</text>
</a>
</g>
</g>
<!-- Node3&#45;&gt;Node2 -->
<g id="edge2" class="edge"><title>Node3&#45;&gt;Node2</title>
<path fill="none" stroke="#9a32cd" stroke-dasharray="5,2" d="M32,-116.041C32,-103.472 32,-87.5631 32,-77.8411"/>
<polygon fill="#9a32cd" stroke="#9a32cd" points="28.5001,-116.372 32,-126.372 35.5001,-116.372 28.5001,-116.372"/>
<text text-anchor="middle" x="53" y="-99.5" font-family="Helvetica,sans-Serif" font-size="10.00"> m_target</text>
</g>
</g>
</svg>
