<?xml version="1.0" encoding="UTF-8" standalone="no"?>
<!DOCTYPE svg PUBLIC "-//W3C//DTD SVG 1.1//EN"
 "http://www.w3.org/Graphics/SVG/1.1/DTD/svg11.dtd">
<!-- Generated by graphviz version 2.36.0 (20140111.2315)
 -->
<!-- Title: Character Pages: 1 -->
<svg width="920pt" height="329pt"
 viewBox="0.00 0.00 920.00 328.62" xmlns="http://www.w3.org/2000/svg" xmlns:xlink="http://www.w3.org/1999/xlink">
<g id="graph0" class="graph" transform="scale(1 1) rotate(0) translate(4 324.622)">
<title>Character</title>
<polygon fill="white" stroke="none" points="-4,4 -4,-324.622 916,-324.622 916,4 -4,4"/>
<!-- Node1 -->
<g id="node1" class="node"><title>Node1</title>
<polygon fill="#bfbfbf" stroke="black" points="386.5,-66.1223 386.5,-85.1223 445.5,-85.1223 445.5,-66.1223 386.5,-66.1223"/>
<text text-anchor="middle" x="416" y="-73.1223" font-family="Helvetica,sans-Serif" font-size="10.00">Character</text>
</g>
<!-- Node9 -->
<g id="node9" class="node"><title>Node9</title>
<polygon fill="white" stroke="#bfbfbf" points="601.5,-86.1223 601.5,-105.122 742.5,-105.122 742.5,-86.1223 601.5,-86.1223"/>
<text text-anchor="middle" x="672" y="-93.1223" font-family="Helvetica,sans-Serif" font-size="10.00">std::unique_ptr&lt; Character &gt;</text>
</g>
<!-- Node1&#45;&gt;Node9 -->
<g id="edge11" class="edge"><title>Node1&#45;&gt;Node9</title>
<path fill="none" stroke="#9a32cd" stroke-dasharray="5,2" d="M455.934,-78.688C494.532,-81.7272 554.507,-86.4497 601.327,-90.1363"/>
<polygon fill="#9a32cd" stroke="#9a32cd" points="455.887,-75.1736 445.643,-77.8777 455.338,-82.152 455.887,-75.1736"/>
<text text-anchor="middle" x="547" y="-90.6223" font-family="Helvetica,sans-Serif" font-size="10.00"> ptr</text>
</g>
<!-- Node2 -->
<g id="node2" class="node"><title>Node2</title>
<g id="a_node2"><a xlink:href="class_faction.html" target="_top" xlink:title="Faction">
<polygon fill="white" stroke="black" points="186.5,-32.1223 186.5,-51.1223 235.5,-51.1223 235.5,-32.1223 186.5,-32.1223"/>
<text text-anchor="middle" x="211" y="-39.1223" font-family="Helvetica,sans-Serif" font-size="10.00">Faction</text>
</a>
</g>
</g>
<!-- Node2&#45;&gt;Node1 -->
<g id="edge1" class="edge"><title>Node2&#45;&gt;Node1</title>
<path fill="none" stroke="#9a32cd" stroke-dasharray="5,2" d="M245.791,-50.8289C248.56,-51.4743 251.322,-52.0821 254,-52.6223 299.945,-61.8892 354.001,-68.8089 386.33,-72.529"/>
<polygon fill="#9a32cd" stroke="#9a32cd" points="246.425,-47.3802 235.877,-48.3805 244.746,-54.1761 246.425,-47.3802"/>
<text text-anchor="middle" x="281" y="-65.6223" font-family="Helvetica,sans-Serif" font-size="10.00"> m_faction</text>
</g>
<!-- Node4 -->
<g id="node4" class="node"><title>Node4</title>
<polygon fill="white" stroke="#bfbfbf" points="326.5,-4.62232 326.5,-34.6223 505.5,-34.6223 505.5,-4.62232 326.5,-4.62232"/>
<text text-anchor="start" x="334.5" y="-22.6223" font-family="Helvetica,sans-Serif" font-size="10.00">std::map&lt; Faction *,</text>
<text text-anchor="middle" x="416" y="-11.6223" font-family="Helvetica,sans-Serif" font-size="10.00"> std::shared_ptr&lt; FactionRelation &gt; &gt;</text>
</g>
<!-- Node2&#45;&gt;Node4 -->
<g id="edge4" class="edge"><title>Node2&#45;&gt;Node4</title>
<path fill="none" stroke="#9a32cd" stroke-dasharray="5,2" d="M245.835,-37.9555C267.873,-35.5672 297.727,-32.3317 326.222,-29.2436"/>
<polygon fill="#9a32cd" stroke="#9a32cd" points="245.249,-34.4984 235.684,-39.0556 246.003,-41.4577 245.249,-34.4984"/>
<text text-anchor="middle" x="281" y="-40.6223" font-family="Helvetica,sans-Serif" font-size="10.00"> keys</text>
</g>
<!-- Node3 -->
<g id="node3" class="node"><title>Node3</title>
<g id="a_node3"><a xlink:title="STL class. ">
<polygon fill="white" stroke="#bfbfbf" points="8,-51.1223 8,-70.1223 68,-70.1223 68,-51.1223 8,-51.1223"/>
<text text-anchor="middle" x="38" y="-58.1223" font-family="Helvetica,sans-Serif" font-size="10.00">std::string</text>
</a>
</g>
</g>
<!-- Node3&#45;&gt;Node2 -->
<g id="edge2" class="edge"><title>Node3&#45;&gt;Node2</title>
<path fill="none" stroke="#9a32cd" stroke-dasharray="5,2" d="M78.3314,-56.2522C111.705,-52.544 158.483,-47.3464 186.366,-44.2483"/>
<polygon fill="#9a32cd" stroke="#9a32cd" points="77.5601,-52.8162 68.0078,-57.3992 78.3332,-59.7734 77.5601,-52.8162"/>
<text text-anchor="middle" x="131" y="-68.6223" font-family="Helvetica,sans-Serif" font-size="10.00"> m_printName</text>
<text text-anchor="middle" x="131" y="-57.6223" font-family="Helvetica,sans-Serif" font-size="10.00">m_key</text>
</g>
<!-- Node4&#45;&gt;Node2 -->
<g id="edge3" class="edge"><title>Node4&#45;&gt;Node2</title>
<path fill="none" stroke="#9a32cd" stroke-dasharray="5,2" d="M345.718,-3.0951C316.689,0.841239 283.014,1.41262 254,-8.62232 240.679,-13.2296 228.37,-23.9995 220.568,-31.9897"/>
<polygon fill="#9a32cd" stroke="#9a32cd" points="345.366,-6.58158 355.776,-4.61589 346.412,0.339761 345.366,-6.58158"/>
<text text-anchor="middle" x="281" y="-11.6223" font-family="Helvetica,sans-Serif" font-size="10.00"> m_relations</text>
</g>
<!-- Node5 -->
<g id="node5" class="node"><title>Node5</title>
<g id="a_node5"><a xlink:href="class_faction_matrix.html" target="_top" xlink:title="FactionMatrix">
<polygon fill="white" stroke="red" points="0,-13.1223 0,-32.1223 76,-32.1223 76,-13.1223 0,-13.1223"/>
<text text-anchor="middle" x="38" y="-20.1223" font-family="Helvetica,sans-Serif" font-size="10.00">FactionMatrix</text>
</a>
</g>
</g>
<!-- Node5&#45;&gt;Node2 -->
<g id="edge5" class="edge"><title>Node5&#45;&gt;Node2</title>
<path fill="none" stroke="#9a32cd" stroke-dasharray="5,2" d="M86.2317,-24.7659C110.718,-26.2605 141.06,-28.7097 168,-32.6223 173.904,-33.4798 180.219,-34.6802 186.113,-35.9256"/>
<polygon fill="#9a32cd" stroke="#9a32cd" points="86.3082,-21.2646 76.1231,-24.1824 85.9047,-28.253 86.3082,-21.2646"/>
<text text-anchor="middle" x="131" y="-35.6223" font-family="Helvetica,sans-Serif" font-size="10.00"> m_factionMatrix</text>
</g>
<!-- Node6 -->
<g id="node6" class="node"><title>Node6</title>
<g id="a_node6"><a xlink:href="class_ship.html" target="_top" xlink:title="Ship">
<polygon fill="white" stroke="black" points="876,-162.122 876,-181.122 912,-181.122 912,-162.122 876,-162.122"/>
<text text-anchor="middle" x="894" y="-169.122" font-family="Helvetica,sans-Serif" font-size="10.00">Ship</text>
</a>
</g>
</g>
<!-- Node6&#45;&gt;Node1 -->
<g id="edge6" class="edge"><title>Node6&#45;&gt;Node1</title>
<path fill="none" stroke="#9a32cd" stroke-dasharray="5,2" d="M888.765,-151.805C884.082,-134.589 874.86,-110.192 858,-95.6223 822.246,-64.7265 802.771,-72.3578 756,-65.6223 642.065,-49.2147 504.445,-63.6991 445.761,-71.4616"/>
<polygon fill="#9a32cd" stroke="#9a32cd" points="885.458,-153.016 891.222,-161.906 892.259,-151.362 885.458,-153.016"/>
<text text-anchor="middle" x="672" y="-68.6223" font-family="Helvetica,sans-Serif" font-size="10.00"> m_ship</text>
</g>
<!-- Node7 -->
<g id="node7" class="node"><title>Node7</title>
<g id="a_node7"><a xlink:href="class_world_object.html" target="_top" xlink:title="WorldObject">
<polygon fill="white" stroke="red" points="636.5,-238.122 636.5,-257.122 707.5,-257.122 707.5,-238.122 636.5,-238.122"/>
<text text-anchor="middle" x="672" y="-245.122" font-family="Helvetica,sans-Serif" font-size="10.00">WorldObject</text>
</a>
</g>
</g>
<!-- Node7&#45;&gt;Node6 -->
<g id="edge7" class="edge"><title>Node7&#45;&gt;Node6</title>
<path fill="none" stroke="midnightblue" d="M717.783,-249.405C757.345,-248.976 815.232,-243.292 858,-217.622 872.283,-209.05 882.759,-192.253 888.36,-181.502"/>
<polygon fill="midnightblue" stroke="midnightblue" points="717.64,-245.905 707.639,-249.405 717.639,-252.905 717.64,-245.905"/>
</g>
<!-- Node8 -->
<g id="node8" class="node"><title>Node8</title>
<g id="a_node8"><a xlink:href="class_handle.html" target="_top" xlink:title="Handle\&lt; WorldObject \&gt;">
<polygon fill="white" stroke="black" points="356.5,-271.122 356.5,-290.122 475.5,-290.122 475.5,-271.122 356.5,-271.122"/>
<text text-anchor="middle" x="416" y="-278.122" font-family="Helvetica,sans-Serif" font-size="10.00">Handle&lt; WorldObject &gt;</text>
</a>
</g>
</g>
<!-- Node8&#45;&gt;Node6 -->
<g id="edge9" class="edge"><title>Node8&#45;&gt;Node6</title>
<path fill="none" stroke="#9a32cd" stroke-dasharray="5,2" d="M464.632,-292.336C552.634,-310.957 742.257,-336.573 858,-245.622 878.896,-229.202 887.94,-197.285 891.297,-181.273"/>
<polygon fill="#9a32cd" stroke="#9a32cd" points="465.183,-288.874 454.667,-290.164 463.693,-295.713 465.183,-288.874"/>
<text text-anchor="middle" x="672" y="-312.622" font-family="Helvetica,sans-Serif" font-size="10.00"> m_targetObjectHandle</text>
</g>
<!-- Node8&#45;&gt;Node7 -->
<g id="edge8" class="edge"><title>Node8&#45;&gt;Node7</title>
<path fill="none" stroke="#9a32cd" stroke-dasharray="5,2" d="M485.735,-271.692C534.372,-265.373 597.565,-257.163 636.158,-252.149"/>
<polygon fill="#9a32cd" stroke="#9a32cd" points="485.057,-268.251 475.592,-273.01 485.959,-275.192 485.057,-268.251"/>
<text text-anchor="middle" x="547" y="-268.622" font-family="Helvetica,sans-Serif" font-size="10.00"> m_handle</text>
</g>
<!-- Node9&#45;&gt;Node6 -->
<g id="edge10" class="edge"><title>Node9&#45;&gt;Node6</title>
<path fill="none" stroke="#9a32cd" stroke-dasharray="5,2" d="M752.649,-96.2394C787.067,-99.607 826.564,-107.868 858,-126.622 872.11,-135.04 882.637,-151.462 888.296,-161.969"/>
<polygon fill="#9a32cd" stroke="#9a32cd" points="752.88,-92.7465 742.618,-95.3799 752.282,-99.7209 752.88,-92.7465"/>
<text text-anchor="middle" x="816" y="-129.622" font-family="Helvetica,sans-Serif" font-size="10.00"> m_character</text>
</g>
<!-- Node10 -->
<g id="node10" class="node"><title>Node10</title>
<polygon fill="white" stroke="#bfbfbf" points="588.5,-200.122 588.5,-219.122 755.5,-219.122 755.5,-200.122 588.5,-200.122"/>
<text text-anchor="middle" x="672" y="-207.122" font-family="Helvetica,sans-Serif" font-size="10.00">std::unique_ptr&lt; BoardComputer &gt;</text>
</g>
<!-- Node10&#45;&gt;Node6 -->
<g id="edge12" class="edge"><title>Node10&#45;&gt;Node6</title>
<path fill="none" stroke="#9a32cd" stroke-dasharray="5,2" d="M765.89,-203.232C795.655,-199.819 828.528,-194.598 858,-186.622 863.998,-184.999 870.311,-182.545 875.898,-180.09"/>
<polygon fill="#9a32cd" stroke="#9a32cd" points="765.485,-199.756 755.925,-204.322 766.246,-206.714 765.485,-199.756"/>
<text text-anchor="middle" x="816" y="-205.622" font-family="Helvetica,sans-Serif" font-size="10.00"> m_boardComputer</text>
</g>
<!-- Node11 -->
<g id="node11" class="node"><title>Node11</title>
<g id="a_node11"><a xlink:href="class_handle.html" target="_top" xlink:title="Handle\&lt; Ship \&gt;">
<polygon fill="white" stroke="black" points="630,-162.122 630,-181.122 714,-181.122 714,-162.122 630,-162.122"/>
<text text-anchor="middle" x="672" y="-169.122" font-family="Helvetica,sans-Serif" font-size="10.00">Handle&lt; Ship &gt;</text>
</a>
</g>
</g>
<!-- Node11&#45;&gt;Node6 -->
<g id="edge13" class="edge"><title>Node11&#45;&gt;Node6</title>
<path fill="none" stroke="#9a32cd" stroke-dasharray="5,2" d="M724.186,-171.622C773.004,-171.622 843.716,-171.622 875.898,-171.622"/>
<polygon fill="#9a32cd" stroke="#9a32cd" points="724.122,-168.122 714.122,-171.622 724.122,-175.122 724.122,-168.122"/>
<text text-anchor="middle" x="816" y="-174.622" font-family="Helvetica,sans-Serif" font-size="10.00"> m_shipHandle</text>
</g>
<!-- Node12 -->
<g id="node12" class="node"><title>Node12</title>
<polygon fill="white" stroke="#bfbfbf" points="597,-124.122 597,-143.122 747,-143.122 747,-124.122 597,-124.122"/>
<text text-anchor="middle" x="672" y="-131.122" font-family="Helvetica,sans-Serif" font-size="10.00">std::unique_ptr&lt; SquadLogic &gt;</text>
</g>
<!-- Node12&#45;&gt;Node6 -->
<g id="edge14" class="edge"><title>Node12&#45;&gt;Node6</title>
<path fill="none" stroke="#9a32cd" stroke-dasharray="5,2" d="M757.478,-139.086C789.364,-142.456 825.722,-147.887 858,-156.622 863.998,-158.246 870.311,-160.699 875.898,-163.155"/>
<polygon fill="#9a32cd" stroke="#9a32cd" points="757.593,-135.58 747.293,-138.062 756.893,-142.545 757.593,-135.58"/>
<text text-anchor="middle" x="816" y="-159.622" font-family="Helvetica,sans-Serif" font-size="10.00"> m_squadLogic</text>
</g>
</g>
</svg>
