<?xml version="1.0" encoding="UTF-8" standalone="no"?>
<!DOCTYPE svg PUBLIC "-//W3C//DTD SVG 1.1//EN"
 "http://www.w3.org/Graphics/SVG/1.1/DTD/svg11.dtd">
<!-- Generated by graphviz version 2.36.0 (20140111.2315)
 -->
<!-- Title: DefendAreaTask Pages: 1 -->
<svg width="534pt" height="167pt"
 viewBox="0.00 0.00 534.00 167.00" xmlns="http://www.w3.org/2000/svg" xmlns:xlink="http://www.w3.org/1999/xlink">
<g id="graph0" class="graph" transform="scale(1 1) rotate(0) translate(4 163)">
<title>DefendAreaTask</title>
<polygon fill="white" stroke="none" points="-4,4 -4,-163 530,-163 530,4 -4,4"/>
<!-- Node1 -->
<g id="node1" class="node"><title>Node1</title>
<polygon fill="#bfbfbf" stroke="black" points="438,-71.5 438,-90.5 526,-90.5 526,-71.5 438,-71.5"/>
<text text-anchor="middle" x="482" y="-78.5" font-family="Helvetica,sans-Serif" font-size="10.00">DefendAreaTask</text>
</g>
<!-- Node2 -->
<g id="node2" class="node"><title>Node2</title>
<g id="a_node2"><a xlink:href="class_ai_group_task.html" target="_top" xlink:title="AiGroupTask">
<polygon fill="white" stroke="black" points="227.5,-138.5 227.5,-157.5 300.5,-157.5 300.5,-138.5 227.5,-138.5"/>
<text text-anchor="middle" x="264" y="-145.5" font-family="Helvetica,sans-Serif" font-size="10.00">AiGroupTask</text>
</a>
</g>
</g>
<!-- Node2&#45;&gt;Node1 -->
<g id="edge1" class="edge"><title>Node2&#45;&gt;Node1</title>
<path fill="none" stroke="midnightblue" d="M310.909,-139.836C342.175,-133.602 384.22,-123.886 420,-111 435.434,-105.441 452.091,-97.0746 464.093,-90.5879"/>
<polygon fill="midnightblue" stroke="midnightblue" points="309.889,-136.469 300.743,-141.817 311.228,-143.34 309.889,-136.469"/>
</g>
<!-- Node3 -->
<g id="node3" class="node"><title>Node3</title>
<g id="a_node3"><a xlink:href="class_squad.html" target="_top" xlink:title="Squad">
<polygon fill="white" stroke="red" points="38,-138.5 38,-157.5 82,-157.5 82,-138.5 38,-138.5"/>
<text text-anchor="middle" x="60" y="-145.5" font-family="Helvetica,sans-Serif" font-size="10.00">Squad</text>
</a>
</g>
</g>
<!-- Node3&#45;&gt;Node2 -->
<g id="edge2" class="edge"><title>Node3&#45;&gt;Node2</title>
<path fill="none" stroke="#9a32cd" stroke-dasharray="5,2" d="M92.2974,-148C128.756,-148 188.869,-148 227.166,-148"/>
<polygon fill="#9a32cd" stroke="#9a32cd" points="92.2358,-144.5 82.2357,-148 92.2357,-151.5 92.2358,-144.5"/>
<text text-anchor="middle" x="160" y="-151" font-family="Helvetica,sans-Serif" font-size="10.00"> m_squad</text>
</g>
<!-- Node4 -->
<g id="node4" class="node"><title>Node4</title>
<polygon fill="white" stroke="#bfbfbf" points="213.5,-89 213.5,-119 314.5,-119 314.5,-89 213.5,-89"/>
<text text-anchor="start" x="221.5" y="-107" font-family="Helvetica,sans-Serif" font-size="10.00">std::vector&lt; Handle</text>
<text text-anchor="middle" x="264" y="-96" font-family="Helvetica,sans-Serif" font-size="10.00">&lt; WorldObject &gt; &gt;</text>
</g>
<!-- Node4&#45;&gt;Node1 -->
<g id="edge3" class="edge"><title>Node4&#45;&gt;Node1</title>
<path fill="none" stroke="#9a32cd" stroke-dasharray="5,2" d="M324.893,-97.6225C360.751,-93.8043 405.501,-89.0392 437.884,-85.591"/>
<polygon fill="#9a32cd" stroke="#9a32cd" points="324.128,-94.1841 314.555,-98.7233 324.869,-101.145 324.128,-94.1841"/>
<text text-anchor="middle" x="383" y="-99" font-family="Helvetica,sans-Serif" font-size="10.00"> m_enemies</text>
</g>
<!-- Node5 -->
<g id="node5" class="node"><title>Node5</title>
<g id="a_node5"><a xlink:href="class_handle.html" target="_top" xlink:title="Handle\&lt; WorldObject \&gt;">
<polygon fill="white" stroke="black" points="0.5,-94.5 0.5,-113.5 119.5,-113.5 119.5,-94.5 0.5,-94.5"/>
<text text-anchor="middle" x="60" y="-101.5" font-family="Helvetica,sans-Serif" font-size="10.00">Handle&lt; WorldObject &gt;</text>
</a>
</g>
</g>
<!-- Node5&#45;&gt;Node4 -->
<g id="edge4" class="edge"><title>Node5&#45;&gt;Node4</title>
<path fill="none" stroke="#9a32cd" stroke-dasharray="5,2" d="M130.003,-104C157.388,-104 188.272,-104 213.382,-104"/>
<polygon fill="#9a32cd" stroke="#9a32cd" points="129.698,-100.5 119.698,-104 129.698,-107.5 129.698,-100.5"/>
<text text-anchor="middle" x="160" y="-107" font-family="Helvetica,sans-Serif" font-size="10.00"> elements</text>
</g>
<!-- Node6 -->
<g id="node6" class="node"><title>Node6</title>
<polygon fill="white" stroke="#bfbfbf" points="210,-49.5 210,-68.5 318,-68.5 318,-49.5 210,-49.5"/>
<text text-anchor="middle" x="264" y="-56.5" font-family="Helvetica,sans-Serif" font-size="10.00">std::list&lt; glm::vec3 &gt;</text>
</g>
<!-- Node6&#45;&gt;Node1 -->
<g id="edge5" class="edge"><title>Node6&#45;&gt;Node1</title>
<path fill="none" stroke="#9a32cd" stroke-dasharray="5,2" d="M328.254,-54.7934C356.512,-54.0958 390.114,-54.9005 420,-60 433.249,-62.2607 447.48,-67.0162 458.862,-71.431"/>
<polygon fill="#9a32cd" stroke="#9a32cd" points="327.986,-51.3 318.102,-55.1132 328.207,-58.2965 327.986,-51.3"/>
<text text-anchor="middle" x="383" y="-74" font-family="Helvetica,sans-Serif" font-size="10.00"> m_points</text>
<text text-anchor="middle" x="383" y="-63" font-family="Helvetica,sans-Serif" font-size="10.00">m_currentPoint</text>
</g>
<!-- Node7 -->
<g id="node7" class="node"><title>Node7</title>
<polygon fill="white" stroke="#bfbfbf" points="200.5,-0 200.5,-30 327.5,-30 327.5,-0 200.5,-0"/>
<text text-anchor="start" x="208.5" y="-18" font-family="Helvetica,sans-Serif" font-size="10.00">std::unique_ptr&lt; Collision</text>
<text text-anchor="middle" x="264" y="-7" font-family="Helvetica,sans-Serif" font-size="10.00">Filter &gt;</text>
</g>
<!-- Node7&#45;&gt;Node1 -->
<g id="edge6" class="edge"><title>Node7&#45;&gt;Node1</title>
<path fill="none" stroke="#9a32cd" stroke-dasharray="5,2" d="M337.733,-20.18C364.294,-23.7563 394.145,-29.7975 420,-40 438.991,-47.4939 458.071,-61.6361 469.711,-71.1888"/>
<polygon fill="#9a32cd" stroke="#9a32cd" points="338.087,-16.6971 327.73,-18.9265 337.217,-23.6428 338.087,-16.6971"/>
<text text-anchor="middle" x="383" y="-43" font-family="Helvetica,sans-Serif" font-size="10.00"> m_collisionFilter</text>
</g>
</g>
</svg>
