<?xml version="1.0" encoding="UTF-8" standalone="no"?>
<!DOCTYPE svg PUBLIC "-//W3C//DTD SVG 1.1//EN"
 "http://www.w3.org/Graphics/SVG/1.1/DTD/svg11.dtd">
<!-- Generated by graphviz version 2.36.0 (20140111.2315)
 -->
<!-- Title: BaseScenario Pages: 1 -->
<!--zoomable 360 -->
<svg id="main" version="1.1" xmlns="http://www.w3.org/2000/svg" xmlns:xlink="http://www.w3.org/1999/xlink" xml:space="preserve" onload="init(evt)">
<style type="text/css"><![CDATA[
.edge:hover path { stroke: red; }
.edge:hover polygon { stroke: red; fill: red; }
]]></style>
<script type="text/javascript"><![CDATA[
var edges = document.getElementsByTagName('g');
if (edges && edges.length) {
  for (var i=0;i<edges.length;i++) {
    if (edges[i].id.substr(0,4)=='edge') {
      edges[i].setAttribute('class','edge');
    }
  }
}
]]></script>
        <defs>
                <circle id="rim" cx="0" cy="0" r="7"/>
                <circle id="rim2" cx="0" cy="0" r="3.5"/>
                <g id="zoomPlus">
                        <use xlink:href="#rim" fill="#404040">
                                <set attributeName="fill" to="#808080" begin="zoomplus.mouseover" end="zoomplus.mouseout"/>
                        </use>
                        <path d="M-4,0h8M0,-4v8" fill="none" stroke="white" stroke-width="1.5" pointer-events="none"/>
                </g>
                <g id="zoomMin">
                        <use xlink:href="#rim" fill="#404040">
                                <set attributeName="fill" to="#808080" begin="zoomminus.mouseover" end="zoomminus.mouseout"/>
                        </use>
                        <path d="M-4,0h8" fill="none" stroke="white" stroke-width="1.5" pointer-events="none"/>
                </g>
                <g id="dirArrow">
                        <path fill="none" stroke="white" stroke-width="1.5" d="M0,-3.0v7 M-2.5,-0.5L0,-3.0L2.5,-0.5"/>
                </g>
               <g id="resetDef">
                       <use xlink:href="#rim2" fill="#404040">
                               <set attributeName="fill" to="#808080" begin="reset.mouseover" end="reset.mouseout"/>
                       </use>
               </g>
        </defs>

<script type="text/javascript">
var viewWidth = 1038;
var viewHeight = 360;
var sectionId = 'dynsection-1';
</script>
<script xlink:href="svgpan.js"/>
<svg id="graph" class="graph">
<g id="viewport">
<title>BaseScenario</title>
<polygon fill="white" stroke="none" points="-4,4 -4,-355.837 1034,-355.837 1034,4 -4,4"/>
<!-- Node1 -->
<g id="node1" class="node"><title>Node1</title>
<polygon fill="#bfbfbf" stroke="black" points="382.5,-178.337 382.5,-197.337 459.5,-197.337 459.5,-178.337 382.5,-178.337"/>
<text text-anchor="middle" x="421" y="-185.337" font-family="Helvetica,sans-Serif" font-size="10.00">BaseScenario</text>
</g>
<!-- Node6 -->
<g id="node6" class="node"><title>Node6</title>
<polygon fill="white" stroke="#bfbfbf" points="512,-314.337 512,-333.337 672,-333.337 672,-314.337 512,-314.337"/>
<text text-anchor="middle" x="592" y="-321.337" font-family="Helvetica,sans-Serif" font-size="10.00">std::unique_ptr&lt; BaseScenario &gt;</text>
</g>
<!-- Node1&#45;&gt;Node6 -->
<g id="edge9" class="edge"><title>Node1&#45;&gt;Node6</title>
<path fill="none" stroke="#9a32cd" stroke-dasharray="5,2" d="M431.24,-206.743C445.065,-232.969 473.663,-279.962 512,-304.837 518.035,-308.753 524.801,-311.862 531.767,-314.332"/>
<polygon fill="#9a32cd" stroke="#9a32cd" points="434.187,-204.817 426.527,-197.497 427.95,-207.996 434.187,-204.817"/>
<text text-anchor="middle" x="486" y="-292.837" font-family="Helvetica,sans-Serif" font-size="10.00"> ptr</text>
</g>
<!-- Node2 -->
<g id="node2" class="node"><title>Node2</title>
<g id="a_node2"><a xlink:href="class_game_play.html" target="_top" xlink:title="GamePlay">
<polygon fill="white" stroke="black" points="762,-162.337 762,-181.337 824,-181.337 824,-162.337 762,-162.337"/>
<text text-anchor="middle" x="793" y="-169.337" font-family="Helvetica,sans-Serif" font-size="10.00">GamePlay</text>
</a>
</g>
</g>
<!-- Node2&#45;&gt;Node1 -->
<g id="edge1" class="edge"><title>Node2&#45;&gt;Node1</title>
<path fill="none" stroke="#9a32cd" stroke-dasharray="5,2" d="M751.468,-172.892C696.997,-174.4 597.164,-177.478 512,-181.837 494.797,-182.717 475.761,-183.949 459.643,-185.067"/>
<polygon fill="#9a32cd" stroke="#9a32cd" points="751.839,-176.383 761.74,-172.611 751.648,-169.386 751.839,-176.383"/>
<text text-anchor="middle" x="592" y="-184.837" font-family="Helvetica,sans-Serif" font-size="10.00"> m_gamePlay</text>
</g>
<!-- Node4 -->
<g id="node4" class="node"><title>Node4</title>
<g id="a_node4"><a xlink:href="class_game.html" target="_top" xlink:title="Game">
<polygon fill="white" stroke="red" points="959.5,-227.337 959.5,-246.337 1002.5,-246.337 1002.5,-227.337 959.5,-227.337"/>
<text text-anchor="middle" x="981" y="-234.337" font-family="Helvetica,sans-Serif" font-size="10.00">Game</text>
</a>
</g>
</g>
<!-- Node2&#45;&gt;Node4 -->
<g id="edge6" class="edge"><title>Node2&#45;&gt;Node4</title>
<path fill="none" stroke="#9a32cd" stroke-dasharray="5,2" d="M834.243,-179.345C857.904,-184.384 888.151,-191.921 914,-201.837 932.043,-208.758 951.441,-219.479 964.504,-227.232"/>
<polygon fill="#9a32cd" stroke="#9a32cd" points="834.709,-175.867 824.208,-177.272 833.293,-182.723 834.709,-175.867"/>
<text text-anchor="middle" x="878" y="-204.837" font-family="Helvetica,sans-Serif" font-size="10.00"> m_gamePlay</text>
</g>
<!-- Node8 -->
<g id="node8" class="node"><title>Node8</title>
<g id="a_node8"><a xlink:href="class_game_play_running.html" target="_top" xlink:title="GamePlayRunning">
<polygon fill="white" stroke="red" points="932,-125.337 932,-144.337 1030,-144.337 1030,-125.337 932,-125.337"/>
<text text-anchor="middle" x="981" y="-132.337" font-family="Helvetica,sans-Serif" font-size="10.00">GamePlayRunning</text>
</a>
</g>
</g>
<!-- Node2&#45;&gt;Node8 -->
<g id="edge13" class="edge"><title>Node2&#45;&gt;Node8</title>
<path fill="none" stroke="#9a32cd" stroke-dasharray="5,2" d="M810.185,-155.001C818.805,-147.256 830.075,-138.899 842,-134.837 870.688,-125.063 904.72,-124.949 931.811,-127.334"/>
<polygon fill="#9a32cd" stroke="#9a32cd" points="807.598,-152.633 802.799,-162.079 812.441,-157.687 807.598,-152.633"/>
<text text-anchor="middle" x="878" y="-137.837" font-family="Helvetica,sans-Serif" font-size="10.00"> m_gamePlay</text>
</g>
<!-- Node9 -->
<g id="node9" class="node"><title>Node9</title>
<g id="a_node9"><a xlink:href="class_game_play_paused.html" target="_top" xlink:title="GamePlayPaused">
<polygon fill="white" stroke="red" points="933.5,-57.3368 933.5,-76.3368 1028.5,-76.3368 1028.5,-57.3368 933.5,-57.3368"/>
<text text-anchor="middle" x="981" y="-64.3368" font-family="Helvetica,sans-Serif" font-size="10.00">GamePlayPaused</text>
</a>
</g>
</g>
<!-- Node2&#45;&gt;Node9 -->
<g id="edge16" class="edge"><title>Node2&#45;&gt;Node9</title>
<path fill="none" stroke="#9a32cd" stroke-dasharray="5,2" d="M796.504,-152.172C800.86,-127.158 812.408,-84.9214 842,-65.8368 873.511,-45.5147 918.069,-50.4133 947.945,-57.2911"/>
<polygon fill="#9a32cd" stroke="#9a32cd" points="793.006,-151.897 794.969,-162.308 799.927,-152.945 793.006,-151.897"/>
<text text-anchor="middle" x="878" y="-68.8368" font-family="Helvetica,sans-Serif" font-size="10.00"> m_gamePlay</text>
</g>
<!-- Node3 -->
<g id="node3" class="node"><title>Node3</title>
<g id="a_node3"><a xlink:href="class_game_state.html" target="_top" xlink:title="GameState">
<polygon fill="white" stroke="red" points="559,-54.3368 559,-73.3368 625,-73.3368 625,-54.3368 559,-54.3368"/>
<text text-anchor="middle" x="592" y="-61.3368" font-family="Helvetica,sans-Serif" font-size="10.00">GameState</text>
</a>
</g>
</g>
<!-- Node3&#45;&gt;Node2 -->
<g id="edge2" class="edge"><title>Node3&#45;&gt;Node2</title>
<path fill="none" stroke="midnightblue" d="M619.599,-78.2727C660.912,-100.693 739.378,-143.278 774.38,-162.274"/>
<polygon fill="midnightblue" stroke="midnightblue" points="621.118,-75.1149 610.66,-73.4211 617.779,-81.2673 621.118,-75.1149"/>
</g>
<!-- Node3&#45;&gt;Node3 -->
<g id="edge3" class="edge"><title>Node3&#45;&gt;Node3</title>
<path fill="none" stroke="#9a32cd" stroke-dasharray="5,2" d="M572.371,-83.2368C573.682,-88.1514 580.225,-91.8368 592,-91.8368 610.84,-91.8368 616.286,-82.4021 608.338,-73.5939"/>
<polygon fill="#9a32cd" stroke="#9a32cd" points="575.745,-84.1884 575.662,-73.5939 569.12,-81.9274 575.745,-84.1884"/>
<text text-anchor="middle" x="592" y="-94.8368" font-family="Helvetica,sans-Serif" font-size="10.00"> m_parentGameState</text>
</g>
<!-- Node3&#45;&gt;Node4 -->
<g id="edge5" class="edge"><title>Node3&#45;&gt;Node4</title>
<path fill="none" stroke="midnightblue" d="M607.749,-81.144C624.716,-101.617 652.71,-137.18 672,-170.837 682.099,-188.457 674.416,-199.814 690,-212.837 769.276,-279.084 906.953,-254.806 959.138,-242.357"/>
<polygon fill="midnightblue" stroke="midnightblue" points="610.317,-78.7587 601.21,-73.3434 604.952,-83.2555 610.317,-78.7587"/>
</g>
<!-- Node3&#45;&gt;Node8 -->
<g id="edge12" class="edge"><title>Node3&#45;&gt;Node8</title>
<path fill="none" stroke="midnightblue" d="M625.897,-50.6982C687.758,-28.3081 823.333,9.5404 914,-47.8368 929.791,-57.8301 921.314,-70.5058 932,-85.8368 942.623,-101.077 958.123,-115.939 968.612,-125.224"/>
<polygon fill="midnightblue" stroke="midnightblue" points="624.426,-47.5108 616.272,-54.2748 626.864,-54.0725 624.426,-47.5108"/>
</g>
<!-- Node3&#45;&gt;Node9 -->
<g id="edge15" class="edge"><title>Node3&#45;&gt;Node9</title>
<path fill="none" stroke="midnightblue" d="M617.281,-49.2969C636.316,-38.7879 663.869,-25.4863 690,-19.8368 787.307,1.20126 819.172,10.4773 914,-19.8368 936.778,-27.1183 958.409,-45.4551 970.371,-56.9534"/>
<polygon fill="midnightblue" stroke="midnightblue" points="615.378,-46.3524 608.411,-54.3338 618.835,-52.4395 615.378,-46.3524"/>
</g>
<!-- Node4&#45;&gt;Node2 -->
<g id="edge4" class="edge"><title>Node4&#45;&gt;Node2</title>
<path fill="none" stroke="#9a32cd" stroke-dasharray="5,2" d="M948.957,-236.837C919.977,-235.719 876.186,-231.111 842,-214.837 825.433,-206.95 810.393,-191.521 801.723,-181.45"/>
<polygon fill="#9a32cd" stroke="#9a32cd" points="949.199,-240.344 959.288,-237.111 949.385,-233.347 949.199,-240.344"/>
<text text-anchor="middle" x="878" y="-235.837" font-family="Helvetica,sans-Serif" font-size="10.00"> m_game</text>
</g>
<!-- Node5 -->
<g id="node5" class="node"><title>Node5</title>
<polygon fill="white" stroke="#bfbfbf" points="524,-201.837 524,-231.837 660,-231.837 660,-201.837 524,-201.837"/>
<text text-anchor="start" x="532" y="-219.837" font-family="Helvetica,sans-Serif" font-size="10.00">std::unique_ptr&lt; GamePlay</text>
<text text-anchor="middle" x="592" y="-208.837" font-family="Helvetica,sans-Serif" font-size="10.00">Scene &gt;</text>
</g>
<!-- Node5&#45;&gt;Node2 -->
<g id="edge7" class="edge"><title>Node5&#45;&gt;Node2</title>
<path fill="none" stroke="#9a32cd" stroke-dasharray="5,2" d="M670.187,-202.248C693.952,-197.42 720.136,-191.756 744,-185.837 749.813,-184.395 755.98,-182.713 761.887,-181.026"/>
<polygon fill="#9a32cd" stroke="#9a32cd" points="669.277,-198.861 660.164,-204.265 670.658,-205.724 669.277,-198.861"/>
<text text-anchor="middle" x="717" y="-200.837" font-family="Helvetica,sans-Serif" font-size="10.00"> m_scene</text>
</g>
<!-- Node6&#45;&gt;Node2 -->
<g id="edge8" class="edge"><title>Node6&#45;&gt;Node2</title>
<path fill="none" stroke="#9a32cd" stroke-dasharray="5,2" d="M654.113,-311.437C660.255,-309.512 666.317,-307.321 672,-304.837 707.241,-289.436 717.829,-285.018 744,-256.837 765.796,-233.366 781.572,-198.221 788.336,-181.433"/>
<polygon fill="#9a32cd" stroke="#9a32cd" points="653.064,-308.097 644.438,-314.249 655.017,-314.819 653.064,-308.097"/>
<text text-anchor="middle" x="717" y="-298.837" font-family="Helvetica,sans-Serif" font-size="10.00"> m_scenario</text>
</g>
<!-- Node7 -->
<g id="node7" class="node"><title>Node7</title>
<polygon fill="white" stroke="#bfbfbf" points="528.5,-276.337 528.5,-295.337 655.5,-295.337 655.5,-276.337 528.5,-276.337"/>
<text text-anchor="middle" x="592" y="-283.337" font-family="Helvetica,sans-Serif" font-size="10.00">std::unique_ptr&lt; Player &gt;</text>
</g>
<!-- Node7&#45;&gt;Node2 -->
<g id="edge10" class="edge"><title>Node7&#45;&gt;Node2</title>
<path fill="none" stroke="#9a32cd" stroke-dasharray="5,2" d="M627.197,-272.291C658.705,-259.13 706.164,-237.551 744,-212.837 758.314,-203.487 773.007,-190.308 782.302,-181.438"/>
<polygon fill="#9a32cd" stroke="#9a32cd" points="625.473,-269.216 617.56,-276.262 628.139,-275.689 625.473,-269.216"/>
<text text-anchor="middle" x="717" y="-244.837" font-family="Helvetica,sans-Serif" font-size="10.00"> m_player</text>
</g>
<!-- Node8&#45;&gt;Node2 -->
<g id="edge11" class="edge"><title>Node8&#45;&gt;Node2</title>
<path fill="none" stroke="#9a32cd" stroke-dasharray="5,2" d="M922.091,-146.356C889.719,-152.796 850.699,-160.558 824.298,-165.81"/>
<polygon fill="#9a32cd" stroke="#9a32cd" points="922.778,-149.788 931.903,-144.405 921.412,-142.923 922.778,-149.788"/>
<text text-anchor="middle" x="878" y="-164.837" font-family="Helvetica,sans-Serif" font-size="10.00"> m_runningState</text>
</g>
<!-- Node9&#45;&gt;Node2 -->
<g id="edge14" class="edge"><title>Node9&#45;&gt;Node2</title>
<path fill="none" stroke="#9a32cd" stroke-dasharray="5,2" d="M923.598,-77.3767C897.173,-84.2015 866.25,-95.0454 842,-111.837 822.478,-125.354 806.898,-149.082 799.216,-162.286"/>
<polygon fill="#9a32cd" stroke="#9a32cd" points="924.603,-80.734 933.482,-74.9538 922.936,-73.9353 924.603,-80.734"/>
<text text-anchor="middle" x="878" y="-114.837" font-family="Helvetica,sans-Serif" font-size="10.00"> m_pausedState</text>
</g>
<!-- Node10 -->
<g id="node10" class="node"><title>Node10</title>
<g id="a_node10"><a xlink:href="class_world.html" target="_top" xlink:title="World">
<polygon fill="white" stroke="black" points="264,-178.337 264,-197.337 306,-197.337 306,-178.337 264,-178.337"/>
<text text-anchor="middle" x="285" y="-185.337" font-family="Helvetica,sans-Serif" font-size="10.00">World</text>
</a>
</g>
</g>
<!-- Node10&#45;&gt;Node1 -->
<g id="edge17" class="edge"><title>Node10&#45;&gt;Node1</title>
<path fill="none" stroke="#9a32cd" stroke-dasharray="5,2" d="M316.232,-187.837C335.783,-187.837 361.386,-187.837 382.267,-187.837"/>
<polygon fill="#9a32cd" stroke="#9a32cd" points="316.061,-184.337 306.061,-187.837 316.061,-191.337 316.061,-184.337"/>
<text text-anchor="middle" x="344" y="-190.837" font-family="Helvetica,sans-Serif" font-size="10.00"> m_world</text>
</g>
<!-- Node10&#45;&gt;Node10 -->
<g id="edge26" class="edge"><title>Node10&#45;&gt;Node10</title>
<path fill="none" stroke="#9a32cd" stroke-dasharray="5,2" d="M274.319,-207.603C275.158,-212.333 278.718,-215.837 285,-215.837 295.309,-215.837 298.288,-206.402 293.939,-197.594"/>
<polygon fill="#9a32cd" stroke="#9a32cd" points="277.794,-208.046 276.061,-197.594 270.898,-206.846 277.794,-208.046"/>
<text text-anchor="middle" x="285" y="-218.837" font-family="Helvetica,sans-Serif" font-size="10.00"> s_instance</text>
</g>
<!-- Node11 -->
<g id="node11" class="node"><title>Node11</title>
<polygon fill="white" stroke="#bfbfbf" points="2.5,-332.337 2.5,-351.337 145.5,-351.337 145.5,-332.337 2.5,-332.337"/>
<text text-anchor="middle" x="74" y="-339.337" font-family="Helvetica,sans-Serif" font-size="10.00">std::unique_ptr&lt; WorldTree &gt;</text>
</g>
<!-- Node11&#45;&gt;Node10 -->
<g id="edge18" class="edge"><title>Node11&#45;&gt;Node10</title>
<path fill="none" stroke="#9a32cd" stroke-dasharray="5,2" d="M155.734,-340.024C187.255,-335.414 221.606,-325.019 246,-302.837 277.269,-274.403 282.862,-219.725 283.822,-197.543"/>
<polygon fill="#9a32cd" stroke="#9a32cd" points="155.088,-336.578 145.616,-341.325 155.981,-343.521 155.088,-336.578"/>
<text text-anchor="middle" x="206" y="-339.837" font-family="Helvetica,sans-Serif" font-size="10.00"> m_worldTree</text>
</g>
<!-- Node12 -->
<g id="node12" class="node"><title>Node12</title>
<polygon fill="white" stroke="#bfbfbf" points="25,-282.837 25,-312.837 123,-312.837 123,-282.837 25,-282.837"/>
<text text-anchor="start" x="33" y="-300.837" font-family="Helvetica,sans-Serif" font-size="10.00">std::unordered_set</text>
<text text-anchor="middle" x="74" y="-289.837" font-family="Helvetica,sans-Serif" font-size="10.00">&lt; WorldObject * &gt;</text>
</g>
<!-- Node12&#45;&gt;Node10 -->
<g id="edge19" class="edge"><title>Node12&#45;&gt;Node10</title>
<path fill="none" stroke="#9a32cd" stroke-dasharray="5,2" d="M133.477,-294.154C169.045,-289.332 213.686,-278.408 246,-253.837 265.155,-239.271 276.28,-212.058 281.112,-197.542"/>
<polygon fill="#9a32cd" stroke="#9a32cd" points="132.73,-290.719 123.23,-295.41 133.582,-297.667 132.73,-290.719"/>
<text text-anchor="middle" x="206" y="-290.837" font-family="Helvetica,sans-Serif" font-size="10.00"> m_worldObjects</text>
</g>
<!-- Node13 -->
<g id="node13" class="node"><title>Node13</title>
<polygon fill="white" stroke="#bfbfbf" points="0,-244.337 0,-263.337 148,-263.337 148,-244.337 0,-244.337"/>
<text text-anchor="middle" x="74" y="-251.337" font-family="Helvetica,sans-Serif" font-size="10.00">std::unique_ptr&lt; WorldLogic &gt;</text>
</g>
<!-- Node13&#45;&gt;Node10 -->
<g id="edge20" class="edge"><title>Node13&#45;&gt;Node10</title>
<path fill="none" stroke="#9a32cd" stroke-dasharray="5,2" d="M154.668,-242.409C184.186,-236.449 217.411,-227.638 246,-214.837 255.898,-210.405 265.845,-203.215 273.079,-197.369"/>
<polygon fill="#9a32cd" stroke="#9a32cd" points="153.961,-238.981 144.811,-244.322 155.295,-245.852 153.961,-238.981"/>
<text text-anchor="middle" x="206" y="-241.837" font-family="Helvetica,sans-Serif" font-size="10.00"> m_worldLogic</text>
</g>
<!-- Node14 -->
<g id="node14" class="node"><title>Node14</title>
<polygon fill="white" stroke="#bfbfbf" points="25,-194.837 25,-224.837 123,-224.837 123,-194.837 25,-194.837"/>
<text text-anchor="start" x="33" y="-212.837" font-family="Helvetica,sans-Serif" font-size="10.00">std::unordered_set</text>
<text text-anchor="middle" x="74" y="-201.837" font-family="Helvetica,sans-Serif" font-size="10.00">&lt; Ship * &gt;</text>
</g>
<!-- Node14&#45;&gt;Node10 -->
<g id="edge21" class="edge"><title>Node14&#45;&gt;Node10</title>
<path fill="none" stroke="#9a32cd" stroke-dasharray="5,2" d="M133.415,-203.688C177.003,-199.1 233.966,-193.104 263.789,-189.964"/>
<polygon fill="#9a32cd" stroke="#9a32cd" points="132.79,-200.234 123.211,-204.762 133.523,-207.196 132.79,-200.234"/>
<text text-anchor="middle" x="206" y="-202.837" font-family="Helvetica,sans-Serif" font-size="10.00"> m_ships</text>
</g>
<!-- Node15 -->
<g id="node15" class="node"><title>Node15</title>
<polygon fill="white" stroke="#bfbfbf" points="8,-156.337 8,-175.337 140,-175.337 140,-156.337 8,-156.337"/>
<text text-anchor="middle" x="74" y="-163.337" font-family="Helvetica,sans-Serif" font-size="10.00">std::unique_ptr&lt; Skybox &gt;</text>
</g>
<!-- Node15&#45;&gt;Node10 -->
<g id="edge22" class="edge"><title>Node15&#45;&gt;Node10</title>
<path fill="none" stroke="#9a32cd" stroke-dasharray="5,2" d="M150.71,-167.168C180.572,-168.613 215.067,-171.431 246,-176.837 251.818,-177.854 258.016,-179.429 263.681,-181.072"/>
<polygon fill="#9a32cd" stroke="#9a32cd" points="150.498,-163.655 140.354,-166.712 150.19,-170.649 150.498,-163.655"/>
<text text-anchor="middle" x="206" y="-179.837" font-family="Helvetica,sans-Serif" font-size="10.00"> m_skybox</text>
</g>
<!-- Node16 -->
<g id="node16" class="node"><title>Node16</title>
<polygon fill="white" stroke="#bfbfbf" points="0,-106.837 0,-136.837 148,-136.837 148,-106.837 0,-106.837"/>
<text text-anchor="start" x="8" y="-124.837" font-family="Helvetica,sans-Serif" font-size="10.00">std::unique_ptr&lt; VoxelParticle</text>
<text text-anchor="middle" x="74" y="-113.837" font-family="Helvetica,sans-Serif" font-size="10.00">Engine &gt;</text>
</g>
<!-- Node16&#45;&gt;Node10 -->
<g id="edge23" class="edge"><title>Node16&#45;&gt;Node10</title>
<path fill="none" stroke="#9a32cd" stroke-dasharray="5,2" d="M158.243,-127.399C187.155,-131.762 219.06,-139.428 246,-152.837 258.205,-158.912 269.313,-170.111 276.324,-178.209"/>
<polygon fill="#9a32cd" stroke="#9a32cd" points="158.542,-123.907 148.154,-125.989 157.574,-130.839 158.542,-123.907"/>
<text text-anchor="middle" x="206" y="-155.837" font-family="Helvetica,sans-Serif" font-size="10.00"> m_particleEngine</text>
</g>
<!-- Node17 -->
<g id="node17" class="node"><title>Node17</title>
<polygon fill="white" stroke="#bfbfbf" points="13,-57.8368 13,-87.8368 135,-87.8368 135,-57.8368 13,-57.8368"/>
<text text-anchor="start" x="21" y="-75.8368" font-family="Helvetica,sans-Serif" font-size="10.00">std::unique_ptr&lt; Faction</text>
<text text-anchor="middle" x="74" y="-64.8368" font-family="Helvetica,sans-Serif" font-size="10.00">Matrix &gt;</text>
</g>
<!-- Node17&#45;&gt;Node10 -->
<g id="edge24" class="edge"><title>Node17&#45;&gt;Node10</title>
<path fill="none" stroke="#9a32cd" stroke-dasharray="5,2" d="M145.545,-76.8335C178.912,-81.8417 217.569,-92.5038 246,-114.837 266.899,-131.253 277.489,-162.351 281.718,-178.13"/>
<polygon fill="#9a32cd" stroke="#9a32cd" points="145.756,-73.3302 135.376,-75.4541 144.815,-80.2667 145.756,-73.3302"/>
<text text-anchor="middle" x="206" y="-117.837" font-family="Helvetica,sans-Serif" font-size="10.00"> m_factionMatrix</text>
</g>
<!-- Node18 -->
<g id="node18" class="node"><title>Node18</title>
<polygon fill="white" stroke="#bfbfbf" points="15.5,-19.3368 15.5,-38.3368 132.5,-38.3368 132.5,-19.3368 15.5,-19.3368"/>
<text text-anchor="middle" x="74" y="-26.3368" font-family="Helvetica,sans-Serif" font-size="10.00">std::unique_ptr&lt; God &gt;</text>
</g>
<!-- Node18&#45;&gt;Node10 -->
<g id="edge25" class="edge"><title>Node18&#45;&gt;Node10</title>
<path fill="none" stroke="#9a32cd" stroke-dasharray="5,2" d="M142.916,-28.4418C177.675,-31.7308 218.369,-41.4758 246,-66.8368 278.93,-97.0611 283.529,-155.436 284.022,-178.312"/>
<polygon fill="#9a32cd" stroke="#9a32cd" points="143.059,-24.9423 132.815,-27.6477 142.51,-31.9207 143.059,-24.9423"/>
<text text-anchor="middle" x="206" y="-69.8368" font-family="Helvetica,sans-Serif" font-size="10.00"> m_god</text>
</g>
</g>
</svg>
        <g id="navigator" transform="translate(0 0)" fill="#404254">
                <rect fill="#f2f5e9" fill-opacity="0.5" stroke="#606060" stroke-width=".5" x="0" y="0" width="60" height="60"/>
                <use id="zoomplus" xlink:href="#zoomPlus" x="17" y="9" onmousedown="handleZoom(evt,'in')"/>
                <use id="zoomminus" xlink:href="#zoomMin" x="42" y="9" onmousedown="handleZoom(evt,'out')"/>
                <use id="reset" xlink:href="#resetDef" x="30" y="36" onmousedown="handleReset()"/>
                <g id="arrowUp" xlink:href="#dirArrow" transform="translate(30 24)" onmousedown="handlePan(0,-1)">
                  <use xlink:href="#rim" fill="#404040">
                        <set attributeName="fill" to="#808080" begin="arrowUp.mouseover" end="arrowUp.mouseout"/>
                  </use>
                  <path fill="none" stroke="white" stroke-width="1.5" d="M0,-3.0v7 M-2.5,-0.5L0,-3.0L2.5,-0.5"/>
                </g>
                <g id="arrowRight" xlink:href="#dirArrow" transform="rotate(90) translate(36 -43)" onmousedown="handlePan(1,0)">
                  <use xlink:href="#rim" fill="#404040">
                        <set attributeName="fill" to="#808080" begin="arrowRight.mouseover" end="arrowRight.mouseout"/>
                  </use>
                  <path fill="none" stroke="white" stroke-width="1.5" d="M0,-3.0v7 M-2.5,-0.5L0,-3.0L2.5,-0.5"/>
                </g>
                <g id="arrowDown" xlink:href="#dirArrow" transform="rotate(180) translate(-30 -48)" onmousedown="handlePan(0,1)">
                  <use xlink:href="#rim" fill="#404040">
                        <set attributeName="fill" to="#808080" begin="arrowDown.mouseover" end="arrowDown.mouseout"/>
                  </use>
                  <path fill="none" stroke="white" stroke-width="1.5" d="M0,-3.0v7 M-2.5,-0.5L0,-3.0L2.5,-0.5"/>
                </g>
                <g id="arrowLeft" xlink:href="#dirArrow" transform="rotate(270) translate(-36 17)" onmousedown="handlePan(-1,0)">
                  <use xlink:href="#rim" fill="#404040">
                        <set attributeName="fill" to="#808080" begin="arrowLeft.mouseover" end="arrowLeft.mouseout"/>
                  </use>
                  <path fill="none" stroke="white" stroke-width="1.5" d="M0,-3.0v7 M-2.5,-0.5L0,-3.0L2.5,-0.5"/>
                </g>
        </g>
        <svg viewBox="0 0 15 15" width="100%" height="30px" preserveAspectRatio="xMaxYMin meet">
         <g id="arrow_out" transform="scale(0.3 0.3)">
          <a xlink:href="class_base_scenario__coll__graph_org.svg" target="_base">
           <rect id="button" ry="5" rx="5" y="6" x="6" height="38" width="38"
                fill="#f2f5e9" fill-opacity="0.5" stroke="#606060" stroke-width="1.0"/>
           <path id="arrow"
             d="M 11.500037,31.436501 C 11.940474,20.09759 22.043105,11.32322 32.158766,21.979434 L 37.068811,17.246167 C 37.068811,17.246167 37.088388,32 37.088388,32 L 22.160133,31.978069 C 22.160133,31.978069 26.997745,27.140456 26.997745,27.140456 C 18.528582,18.264221 13.291696,25.230495 11.500037,31.436501 z"
             style="fill:#404040;"/>
          </a>
         </g>
        </svg>
</svg>
