<?xml version="1.0" encoding="UTF-8" standalone="no"?>
<!DOCTYPE svg PUBLIC "-//W3C//DTD SVG 1.1//EN"
 "http://www.w3.org/Graphics/SVG/1.1/DTD/svg11.dtd">
<!-- Generated by graphviz version 2.36.0 (20140111.2315)
 -->
<!-- Title: Physics Pages: 1 -->
<!--zoomable 366 -->
<svg id="main" version="1.1" xmlns="http://www.w3.org/2000/svg" xmlns:xlink="http://www.w3.org/1999/xlink" xml:space="preserve" onload="init(evt)">
<style type="text/css"><![CDATA[
.edge:hover path { stroke: red; }
.edge:hover polygon { stroke: red; fill: red; }
]]></style>
<script type="text/javascript"><![CDATA[
var edges = document.getElementsByTagName('g');
if (edges && edges.length) {
  for (var i=0;i<edges.length;i++) {
    if (edges[i].id.substr(0,4)=='edge') {
      edges[i].setAttribute('class','edge');
    }
  }
}
]]></script>
        <defs>
                <circle id="rim" cx="0" cy="0" r="7"/>
                <circle id="rim2" cx="0" cy="0" r="3.5"/>
                <g id="zoomPlus">
                        <use xlink:href="#rim" fill="#404040">
                                <set attributeName="fill" to="#808080" begin="zoomplus.mouseover" end="zoomplus.mouseout"/>
                        </use>
                        <path d="M-4,0h8M0,-4v8" fill="none" stroke="white" stroke-width="1.5" pointer-events="none"/>
                </g>
                <g id="zoomMin">
                        <use xlink:href="#rim" fill="#404040">
                                <set attributeName="fill" to="#808080" begin="zoomminus.mouseover" end="zoomminus.mouseout"/>
                        </use>
                        <path d="M-4,0h8" fill="none" stroke="white" stroke-width="1.5" pointer-events="none"/>
                </g>
                <g id="dirArrow">
                        <path fill="none" stroke="white" stroke-width="1.5" d="M0,-3.0v7 M-2.5,-0.5L0,-3.0L2.5,-0.5"/>
                </g>
               <g id="resetDef">
                       <use xlink:href="#rim2" fill="#404040">
                               <set attributeName="fill" to="#808080" begin="reset.mouseover" end="reset.mouseout"/>
                       </use>
               </g>
        </defs>

<script type="text/javascript">
var viewWidth = 634;
var viewHeight = 366;
var sectionId = 'dynsection-0';
</script>
<script xlink:href="svgpan.js"/>
<svg id="graph" class="graph">
<g id="viewport">
<title>Physics</title>
<polygon fill="white" stroke="none" points="-4,4 -4,-362.116 630,-362.116 630,4 -4,4"/>
<!-- Node1 -->
<g id="node1" class="node"><title>Node1</title>
<polygon fill="#bfbfbf" stroke="black" points="180,-15.6161 180,-34.6161 232,-34.6161 232,-15.6161 180,-15.6161"/>
<text text-anchor="middle" x="206" y="-22.6161" font-family="Helvetica,sans-Serif" font-size="10.00">Physics</text>
</g>
<!-- Node7 -->
<g id="node7" class="node"><title>Node7</title>
<polygon fill="white" stroke="#bfbfbf" points="289,-38.6161 289,-57.6161 423,-57.6161 423,-38.6161 289,-38.6161"/>
<text text-anchor="middle" x="356" y="-45.6161" font-family="Helvetica,sans-Serif" font-size="10.00">std::unique_ptr&lt; Physics &gt;</text>
</g>
<!-- Node1&#45;&gt;Node7 -->
<g id="edge7" class="edge"><title>Node1&#45;&gt;Node7</title>
<path fill="none" stroke="#9a32cd" stroke-dasharray="5,2" d="M242.216,-30.5888C257.612,-32.9814 276.13,-35.8592 293.669,-38.5849"/>
<polygon fill="#9a32cd" stroke="#9a32cd" points="242.525,-27.0949 232.106,-29.0177 241.45,-34.0119 242.525,-27.0949"/>
<text text-anchor="middle" x="258" y="-37.1161" font-family="Helvetica,sans-Serif" font-size="10.00"> ptr</text>
</g>
<!-- Node2 -->
<g id="node2" class="node"><title>Node2</title>
<g id="a_node2"><a xlink:href="class_world_object.html" target="_top" xlink:title="WorldObject">
<polygon fill="white" stroke="black" points="554.5,-180.616 554.5,-199.616 625.5,-199.616 625.5,-180.616 554.5,-180.616"/>
<text text-anchor="middle" x="590" y="-187.616" font-family="Helvetica,sans-Serif" font-size="10.00">WorldObject</text>
</a>
</g>
</g>
<!-- Node2&#45;&gt;Node1 -->
<g id="edge1" class="edge"><title>Node2&#45;&gt;Node1</title>
<path fill="none" stroke="#9a32cd" stroke-dasharray="5,2" d="M586.573,-170.066C581.962,-140.611 569.227,-85.7262 536,-54.1161 451.46,26.3114 293.43,-2.80314 232.169,-18.1272"/>
<polygon fill="#9a32cd" stroke="#9a32cd" points="583.158,-170.918 588.009,-180.337 590.091,-169.949 583.158,-170.918"/>
<text text-anchor="middle" x="356" y="-11.1161" font-family="Helvetica,sans-Serif" font-size="10.00"> m_worldObject</text>
</g>
<!-- Node3 -->
<g id="node3" class="node"><title>Node3</title>
<g id="a_node3"><a xlink:href="class_voxel_cluster.html" target="_top" xlink:title="VoxelCluster">
<polygon fill="white" stroke="red" points="320,-338.616 320,-357.616 392,-357.616 392,-338.616 320,-338.616"/>
<text text-anchor="middle" x="356" y="-345.616" font-family="Helvetica,sans-Serif" font-size="10.00">VoxelCluster</text>
</a>
</g>
</g>
<!-- Node3&#45;&gt;Node2 -->
<g id="edge2" class="edge"><title>Node3&#45;&gt;Node2</title>
<path fill="none" stroke="midnightblue" d="M402.383,-353.947C441.772,-356.464 498.251,-353.639 536,-324.116 576.595,-292.367 586.176,-224.946 588.37,-199.821"/>
<polygon fill="midnightblue" stroke="midnightblue" points="402.5,-350.446 392.259,-353.16 401.958,-357.425 402.5,-350.446"/>
</g>
<!-- Node4 -->
<g id="node4" class="node"><title>Node4</title>
<g id="a_node4"><a xlink:href="class_voxel.html" target="_top" xlink:title="Voxel">
<polygon fill="white" stroke="red" points="335.5,-300.616 335.5,-319.616 376.5,-319.616 376.5,-300.616 335.5,-300.616"/>
<text text-anchor="middle" x="356" y="-307.616" font-family="Helvetica,sans-Serif" font-size="10.00">Voxel</text>
</a>
</g>
</g>
<!-- Node4&#45;&gt;Node2 -->
<g id="edge3" class="edge"><title>Node4&#45;&gt;Node2</title>
<path fill="none" stroke="#9a32cd" stroke-dasharray="5,2" d="M387.128,-312.441C425.181,-313.841 491.099,-310.988 536,-280.116 564.988,-260.186 580.478,-218.777 586.28,-199.889"/>
<polygon fill="#9a32cd" stroke="#9a32cd" points="386.882,-308.925 376.721,-311.926 386.536,-315.916 386.882,-308.925"/>
<text text-anchor="middle" x="491" y="-312.116" font-family="Helvetica,sans-Serif" font-size="10.00"> m_crucialVoxel</text>
</g>
<!-- Node5 -->
<g id="node5" class="node"><title>Node5</title>
<polygon fill="white" stroke="#bfbfbf" points="284.5,-262.616 284.5,-281.616 427.5,-281.616 427.5,-262.616 284.5,-262.616"/>
<text text-anchor="middle" x="356" y="-269.616" font-family="Helvetica,sans-Serif" font-size="10.00">std::unique_ptr&lt; ObjectInfo &gt;</text>
</g>
<!-- Node5&#45;&gt;Node2 -->
<g id="edge4" class="edge"><title>Node5&#45;&gt;Node2</title>
<path fill="none" stroke="#9a32cd" stroke-dasharray="5,2" d="M437.932,-265.54C469.731,-260.63 505.778,-252.062 536,-237.116 554.52,-227.957 571.558,-210.578 581.083,-199.712"/>
<polygon fill="#9a32cd" stroke="#9a32cd" points="437.166,-262.115 427.769,-267.009 438.167,-269.043 437.166,-262.115"/>
<text text-anchor="middle" x="491" y="-268.116" font-family="Helvetica,sans-Serif" font-size="10.00"> m_objectInfo</text>
</g>
<!-- Node6 -->
<g id="node6" class="node"><title>Node6</title>
<g id="a_node6"><a xlink:href="class_handle.html" target="_top" xlink:title="Handle\&lt; WorldObject \&gt;">
<polygon fill="white" stroke="black" points="296.5,-224.616 296.5,-243.616 415.5,-243.616 415.5,-224.616 296.5,-224.616"/>
<text text-anchor="middle" x="356" y="-231.616" font-family="Helvetica,sans-Serif" font-size="10.00">Handle&lt; WorldObject &gt;</text>
</a>
</g>
</g>
<!-- Node6&#45;&gt;Node2 -->
<g id="edge5" class="edge"><title>Node6&#45;&gt;Node2</title>
<path fill="none" stroke="#9a32cd" stroke-dasharray="5,2" d="M425.897,-224.85C459.312,-219.874 499.93,-213.114 536,-205.116 543.002,-203.563 550.45,-201.633 557.482,-199.68"/>
<polygon fill="#9a32cd" stroke="#9a32cd" points="425.157,-221.421 415.771,-226.336 426.173,-228.347 425.157,-221.421"/>
<text text-anchor="middle" x="491" y="-225.116" font-family="Helvetica,sans-Serif" font-size="10.00"> m_handle</text>
</g>
<!-- Node7&#45;&gt;Node2 -->
<g id="edge6" class="edge"><title>Node7&#45;&gt;Node2</title>
<path fill="none" stroke="#9a32cd" stroke-dasharray="5,2" d="M433.012,-53.9564C467.34,-59.8276 506.677,-71.4075 536,-94.1161 565.502,-116.963 580.897,-161.099 586.492,-180.533"/>
<polygon fill="#9a32cd" stroke="#9a32cd" points="433.429,-50.4791 423.006,-52.3794 432.339,-57.3938 433.429,-50.4791"/>
<text text-anchor="middle" x="491" y="-97.1161" font-family="Helvetica,sans-Serif" font-size="10.00"> m_physics</text>
</g>
<!-- Node8 -->
<g id="node8" class="node"><title>Node8</title>
<polygon fill="white" stroke="#bfbfbf" points="292.5,-175.116 292.5,-205.116 419.5,-205.116 419.5,-175.116 292.5,-175.116"/>
<text text-anchor="start" x="300.5" y="-193.116" font-family="Helvetica,sans-Serif" font-size="10.00">std::unique_ptr&lt; Collision</text>
<text text-anchor="middle" x="356" y="-182.116" font-family="Helvetica,sans-Serif" font-size="10.00">Filter &gt;</text>
</g>
<!-- Node8&#45;&gt;Node2 -->
<g id="edge8" class="edge"><title>Node8&#45;&gt;Node2</title>
<path fill="none" stroke="#9a32cd" stroke-dasharray="5,2" d="M429.861,-190.116C471.374,-190.116 521.483,-190.116 554.238,-190.116"/>
<polygon fill="#9a32cd" stroke="#9a32cd" points="429.783,-186.616 419.783,-190.116 429.783,-193.616 429.783,-186.616"/>
<text text-anchor="middle" x="491" y="-193.116" font-family="Helvetica,sans-Serif" font-size="10.00"> m_collisionFilter</text>
</g>
<!-- Node9 -->
<g id="node9" class="node"><title>Node9</title>
<polygon fill="white" stroke="#bfbfbf" points="292.5,-126.116 292.5,-156.116 419.5,-156.116 419.5,-126.116 292.5,-126.116"/>
<text text-anchor="start" x="300.5" y="-144.116" font-family="Helvetica,sans-Serif" font-size="10.00">std::unique_ptr&lt; Collision</text>
<text text-anchor="middle" x="356" y="-133.116" font-family="Helvetica,sans-Serif" font-size="10.00">Detector &gt;</text>
</g>
<!-- Node9&#45;&gt;Node2 -->
<g id="edge9" class="edge"><title>Node9&#45;&gt;Node2</title>
<path fill="none" stroke="#9a32cd" stroke-dasharray="5,2" d="M429.745,-153.432C462.377,-159.343 501.264,-166.919 536,-175.116 542.794,-176.719 550.023,-178.628 556.887,-180.538"/>
<polygon fill="#9a32cd" stroke="#9a32cd" points="430.291,-149.975 419.83,-151.653 429.054,-156.865 430.291,-149.975"/>
<text text-anchor="middle" x="491" y="-178.116" font-family="Helvetica,sans-Serif" font-size="10.00"> m_collisionDetector</text>
</g>
<!-- Node10 -->
<g id="node10" class="node"><title>Node10</title>
<polygon fill="white" stroke="#bfbfbf" points="284,-77.1161 284,-107.116 428,-107.116 428,-77.1161 284,-77.1161"/>
<text text-anchor="start" x="292" y="-95.1161" font-family="Helvetica,sans-Serif" font-size="10.00">std::unique_ptr&lt; WorldObject</text>
<text text-anchor="middle" x="356" y="-84.1161" font-family="Helvetica,sans-Serif" font-size="10.00">Components &gt;</text>
</g>
<!-- Node10&#45;&gt;Node2 -->
<g id="edge10" class="edge"><title>Node10&#45;&gt;Node2</title>
<path fill="none" stroke="#9a32cd" stroke-dasharray="5,2" d="M438.48,-106.475C470.2,-114.176 506.046,-125.59 536,-142.116 554.261,-152.191 571.38,-169.714 580.991,-180.571"/>
<polygon fill="#9a32cd" stroke="#9a32cd" points="438.874,-102.973 428.339,-104.104 437.279,-109.789 438.874,-102.973"/>
<text text-anchor="middle" x="491" y="-145.116" font-family="Helvetica,sans-Serif" font-size="10.00"> m_components</text>
</g>
<!-- Node11 -->
<g id="node11" class="node"><title>Node11</title>
<g id="a_node11"><a xlink:href="class_abstract_move.html" target="_top" xlink:title="AbstractMove">
<polygon fill="white" stroke="black" points="0,-15.6161 0,-34.6161 76,-34.6161 76,-15.6161 0,-15.6161"/>
<text text-anchor="middle" x="38" y="-22.6161" font-family="Helvetica,sans-Serif" font-size="10.00">AbstractMove</text>
</a>
</g>
</g>
<!-- Node11&#45;&gt;Node1 -->
<g id="edge11" class="edge"><title>Node11&#45;&gt;Node1</title>
<path fill="none" stroke="#9a32cd" stroke-dasharray="5,2" d="M86.6277,-25.1161C116.97,-25.1161 155.07,-25.1161 179.719,-25.1161"/>
<polygon fill="#9a32cd" stroke="#9a32cd" points="86.2537,-21.6162 76.2536,-25.1161 86.2536,-28.6162 86.2537,-21.6162"/>
<text text-anchor="middle" x="128" y="-39.1161" font-family="Helvetica,sans-Serif" font-size="10.00"> m_speed</text>
<text text-anchor="middle" x="128" y="-28.1161" font-family="Helvetica,sans-Serif" font-size="10.00">m_acceleration</text>
</g>
</g>
</svg>
        <g id="navigator" transform="translate(0 0)" fill="#404254">
                <rect fill="#f2f5e9" fill-opacity="0.5" stroke="#606060" stroke-width=".5" x="0" y="0" width="60" height="60"/>
                <use id="zoomplus" xlink:href="#zoomPlus" x="17" y="9" onmousedown="handleZoom(evt,'in')"/>
                <use id="zoomminus" xlink:href="#zoomMin" x="42" y="9" onmousedown="handleZoom(evt,'out')"/>
                <use id="reset" xlink:href="#resetDef" x="30" y="36" onmousedown="handleReset()"/>
                <g id="arrowUp" xlink:href="#dirArrow" transform="translate(30 24)" onmousedown="handlePan(0,-1)">
                  <use xlink:href="#rim" fill="#404040">
                        <set attributeName="fill" to="#808080" begin="arrowUp.mouseover" end="arrowUp.mouseout"/>
                  </use>
                  <path fill="none" stroke="white" stroke-width="1.5" d="M0,-3.0v7 M-2.5,-0.5L0,-3.0L2.5,-0.5"/>
                </g>
                <g id="arrowRight" xlink:href="#dirArrow" transform="rotate(90) translate(36 -43)" onmousedown="handlePan(1,0)">
                  <use xlink:href="#rim" fill="#404040">
                        <set attributeName="fill" to="#808080" begin="arrowRight.mouseover" end="arrowRight.mouseout"/>
                  </use>
                  <path fill="none" stroke="white" stroke-width="1.5" d="M0,-3.0v7 M-2.5,-0.5L0,-3.0L2.5,-0.5"/>
                </g>
                <g id="arrowDown" xlink:href="#dirArrow" transform="rotate(180) translate(-30 -48)" onmousedown="handlePan(0,1)">
                  <use xlink:href="#rim" fill="#404040">
                        <set attributeName="fill" to="#808080" begin="arrowDown.mouseover" end="arrowDown.mouseout"/>
                  </use>
                  <path fill="none" stroke="white" stroke-width="1.5" d="M0,-3.0v7 M-2.5,-0.5L0,-3.0L2.5,-0.5"/>
                </g>
                <g id="arrowLeft" xlink:href="#dirArrow" transform="rotate(270) translate(-36 17)" onmousedown="handlePan(-1,0)">
                  <use xlink:href="#rim" fill="#404040">
                        <set attributeName="fill" to="#808080" begin="arrowLeft.mouseover" end="arrowLeft.mouseout"/>
                  </use>
                  <path fill="none" stroke="white" stroke-width="1.5" d="M0,-3.0v7 M-2.5,-0.5L0,-3.0L2.5,-0.5"/>
                </g>
        </g>
        <svg viewBox="0 0 15 15" width="100%" height="30px" preserveAspectRatio="xMaxYMin meet">
         <g id="arrow_out" transform="scale(0.3 0.3)">
          <a xlink:href="class_physics__coll__graph_org.svg" target="_base">
           <rect id="button" ry="5" rx="5" y="6" x="6" height="38" width="38"
                fill="#f2f5e9" fill-opacity="0.5" stroke="#606060" stroke-width="1.0"/>
           <path id="arrow"
             d="M 11.500037,31.436501 C 11.940474,20.09759 22.043105,11.32322 32.158766,21.979434 L 37.068811,17.246167 C 37.068811,17.246167 37.088388,32 37.088388,32 L 22.160133,31.978069 C 22.160133,31.978069 26.997745,27.140456 26.997745,27.140456 C 18.528582,18.264221 13.291696,25.230495 11.500037,31.436501 z"
             style="fill:#404040;"/>
          </a>
         </g>
        </svg>
</svg>
