<?xml version="1.0" encoding="UTF-8" standalone="no"?>
<!DOCTYPE svg PUBLIC "-//W3C//DTD SVG 1.1//EN"
 "http://www.w3.org/Graphics/SVG/1.1/DTD/svg11.dtd">
<!-- Generated by graphviz version 2.36.0 (20140111.2315)
 -->
<!-- Title: GenericRocket Pages: 1 -->
<svg width="530pt" height="164pt"
 viewBox="0.00 0.00 530.00 164.00" xmlns="http://www.w3.org/2000/svg" xmlns:xlink="http://www.w3.org/1999/xlink">
<g id="graph0" class="graph" transform="scale(1 1) rotate(0) translate(4 160)">
<title>GenericRocket</title>
<polygon fill="white" stroke="none" points="-4,4 -4,-160 526,-160 526,4 -4,4"/>
<!-- Node1 -->
<g id="node1" class="node"><title>Node1</title>
<polygon fill="#bfbfbf" stroke="black" points="309.5,-0.5 309.5,-19.5 390.5,-19.5 390.5,-0.5 309.5,-0.5"/>
<text text-anchor="middle" x="350" y="-7.5" font-family="Helvetica,sans-Serif" font-size="10.00">GenericRocket</text>
</g>
<!-- Node2 -->
<g id="node2" class="node"><title>Node2</title>
<g id="a_node2"><a xlink:href="class_rocket.html" target="_top" xlink:title="Rocket">
<polygon fill="white" stroke="black" points="230.5,-68.5 230.5,-87.5 277.5,-87.5 277.5,-68.5 230.5,-68.5"/>
<text text-anchor="middle" x="254" y="-75.5" font-family="Helvetica,sans-Serif" font-size="10.00">Rocket</text>
</a>
</g>
</g>
<!-- Node2&#45;&gt;Node1 -->
<g id="edge1" class="edge"><title>Node2&#45;&gt;Node1</title>
<path fill="none" stroke="midnightblue" d="M274.897,-62.6336C293.979,-49.5145 321.562,-30.551 337.447,-19.6305"/>
<polygon fill="midnightblue" stroke="midnightblue" points="272.808,-59.8222 266.55,-68.3717 276.774,-65.5905 272.808,-59.8222"/>
</g>
<!-- Node3 -->
<g id="node3" class="node"><title>Node3</title>
<g id="a_node3"><a xlink:href="class_projectile.html" target="_top" xlink:title="Projectile">
<polygon fill="white" stroke="red" points="-0.5,-136.5 -0.5,-155.5 56.5,-155.5 56.5,-136.5 -0.5,-136.5"/>
<text text-anchor="middle" x="28" y="-143.5" font-family="Helvetica,sans-Serif" font-size="10.00">Projectile</text>
</a>
</g>
</g>
<!-- Node3&#45;&gt;Node2 -->
<g id="edge2" class="edge"><title>Node3&#45;&gt;Node2</title>
<path fill="none" stroke="midnightblue" d="M66.21,-133.488C92.3193,-125.655 127.722,-115.1 159,-106 183.201,-98.9586 210.933,-91.1012 230.161,-85.6866"/>
<polygon fill="midnightblue" stroke="midnightblue" points="64.9058,-130.225 56.3351,-136.454 66.9192,-136.929 64.9058,-130.225"/>
</g>
<!-- Node4 -->
<g id="node4" class="node"><title>Node4</title>
<g id="a_node4"><a xlink:href="class_handle.html" target="_top" xlink:title="Handle\&lt; WorldObject \&gt;">
<polygon fill="white" stroke="black" points="74.5,-136.5 74.5,-155.5 193.5,-155.5 193.5,-136.5 74.5,-136.5"/>
<text text-anchor="middle" x="134" y="-143.5" font-family="Helvetica,sans-Serif" font-size="10.00">Handle&lt; WorldObject &gt;</text>
</a>
</g>
</g>
<!-- Node4&#45;&gt;Node2 -->
<g id="edge3" class="edge"><title>Node4&#45;&gt;Node2</title>
<path fill="none" stroke="#9a32cd" stroke-dasharray="5,2" d="M148.83,-129.237C156.866,-121.41 167.32,-112.305 178,-106 194.399,-96.319 214.823,-89.3039 230.368,-84.8545"/>
<polygon fill="#9a32cd" stroke="#9a32cd" points="146.21,-126.909 141.681,-136.487 151.194,-131.824 146.21,-126.909"/>
<text text-anchor="middle" x="214" y="-109.5" font-family="Helvetica,sans-Serif" font-size="10.00"> m_targetHandle</text>
</g>
<!-- Node5 -->
<g id="node5" class="node"><title>Node5</title>
<g id="a_node5"><a xlink:href="class_board_computer.html" target="_top" xlink:title="BoardComputer">
<polygon fill="white" stroke="red" points="212,-136.5 212,-155.5 296,-155.5 296,-136.5 212,-136.5"/>
<text text-anchor="middle" x="254" y="-143.5" font-family="Helvetica,sans-Serif" font-size="10.00">BoardComputer</text>
</a>
</g>
</g>
<!-- Node5&#45;&gt;Node2 -->
<g id="edge4" class="edge"><title>Node5&#45;&gt;Node2</title>
<path fill="none" stroke="#9a32cd" stroke-dasharray="5,2" d="M254,-126.041C254,-113.472 254,-97.5631 254,-87.8411"/>
<polygon fill="#9a32cd" stroke="#9a32cd" points="250.5,-126.372 254,-136.372 257.5,-126.372 250.5,-126.372"/>
<text text-anchor="middle" x="295.5" y="-109.5" font-family="Helvetica,sans-Serif" font-size="10.00"> m_boardComputer</text>
</g>
<!-- Node6 -->
<g id="node6" class="node"><title>Node6</title>
<polygon fill="white" stroke="#bfbfbf" points="314.5,-136.5 314.5,-155.5 443.5,-155.5 443.5,-136.5 314.5,-136.5"/>
<text text-anchor="middle" x="379" y="-143.5" font-family="Helvetica,sans-Serif" font-size="10.00">std::unique_ptr&lt; AiTask &gt;</text>
</g>
<!-- Node6&#45;&gt;Node2 -->
<g id="edge5" class="edge"><title>Node6&#45;&gt;Node2</title>
<path fill="none" stroke="#9a32cd" stroke-dasharray="5,2" d="M366.236,-128.49C359.473,-120.712 350.59,-111.875 341,-106 321.446,-94.0208 296.132,-86.9498 277.856,-83.07"/>
<polygon fill="#9a32cd" stroke="#9a32cd" points="363.621,-130.82 372.674,-136.323 369.028,-126.375 363.621,-130.82"/>
<text text-anchor="middle" x="380" y="-109.5" font-family="Helvetica,sans-Serif" font-size="10.00"> m_aiTask</text>
</g>
<!-- Node7 -->
<g id="node7" class="node"><title>Node7</title>
<g id="a_node7"><a xlink:href="class_sound_properties.html" target="_top" xlink:title="SoundProperties">
<polygon fill="white" stroke="black" points="371.5,-68.5 371.5,-87.5 460.5,-87.5 460.5,-68.5 371.5,-68.5"/>
<text text-anchor="middle" x="416" y="-75.5" font-family="Helvetica,sans-Serif" font-size="10.00">SoundProperties</text>
</a>
</g>
</g>
<!-- Node7&#45;&gt;Node1 -->
<g id="edge6" class="edge"><title>Node7&#45;&gt;Node1</title>
<path fill="none" stroke="#9a32cd" stroke-dasharray="5,2" d="M400.047,-61.0474C387.111,-48.1111 369.357,-30.3567 358.841,-19.8411"/>
<polygon fill="#9a32cd" stroke="#9a32cd" points="397.826,-63.7754 407.372,-68.3717 402.775,-58.8257 397.826,-63.7754"/>
<text text-anchor="middle" x="416.5" y="-41.5" font-family="Helvetica,sans-Serif" font-size="10.00"> m_hitSound</text>
</g>
<!-- Node8 -->
<g id="node8" class="node"><title>Node8</title>
<g id="a_node8"><a xlink:title="STL class. ">
<polygon fill="white" stroke="#bfbfbf" points="462,-136.5 462,-155.5 522,-155.5 522,-136.5 462,-136.5"/>
<text text-anchor="middle" x="492" y="-143.5" font-family="Helvetica,sans-Serif" font-size="10.00">std::string</text>
</a>
</g>
</g>
<!-- Node8&#45;&gt;Node7 -->
<g id="edge7" class="edge"><title>Node8&#45;&gt;Node7</title>
<path fill="none" stroke="#9a32cd" stroke-dasharray="5,2" d="M474.468,-129.774C459.508,-116.784 438.518,-98.5551 426.181,-87.8411"/>
<polygon fill="#9a32cd" stroke="#9a32cd" points="472.219,-132.457 482.064,-136.372 476.809,-127.172 472.219,-132.457"/>
<text text-anchor="middle" x="482.5" y="-109.5" font-family="Helvetica,sans-Serif" font-size="10.00"> m_sound</text>
</g>
</g>
</svg>
