<?xml version="1.0" encoding="UTF-8" standalone="no"?>
<!DOCTYPE svg PUBLIC "-//W3C//DTD SVG 1.1//EN"
 "http://www.w3.org/Graphics/SVG/1.1/DTD/svg11.dtd">
<!-- Generated by graphviz version 2.36.0 (20140111.2315)
 -->
<!-- Title: Voxel Pages: 1 -->
<svg width="914pt" height="199pt"
 viewBox="0.00 0.00 914.00 198.67" xmlns="http://www.w3.org/2000/svg" xmlns:xlink="http://www.w3.org/1999/xlink">
<g id="graph0" class="graph" transform="scale(1 1) rotate(0) translate(4 194.666)">
<title>Voxel</title>
<polygon fill="white" stroke="none" points="-4,4 -4,-194.666 910,-194.666 910,4 -4,4"/>
<!-- Node1 -->
<g id="node1" class="node"><title>Node1</title>
<polygon fill="#bfbfbf" stroke="black" points="338.5,-32.166 338.5,-51.166 379.5,-51.166 379.5,-32.166 338.5,-32.166"/>
<text text-anchor="middle" x="359" y="-39.166" font-family="Helvetica,sans-Serif" font-size="10.00">Voxel</text>
</g>
<!-- Node5 -->
<g id="node5" class="node"><title>Node5</title>
<g id="a_node5"><a xlink:href="class_voxel_tree_node.html" target="_top" xlink:title="VoxelTreeNode">
<polygon fill="white" stroke="black" points="548.5,-87.166 548.5,-106.166 631.5,-106.166 631.5,-87.166 548.5,-87.166"/>
<text text-anchor="middle" x="590" y="-94.166" font-family="Helvetica,sans-Serif" font-size="10.00">VoxelTreeNode</text>
</a>
</g>
</g>
<!-- Node1&#45;&gt;Node5 -->
<g id="edge5" class="edge"><title>Node1&#45;&gt;Node5</title>
<path fill="none" stroke="#9a32cd" stroke-dasharray="5,2" d="M389.929,-47.7825C423.989,-54.876 481.22,-67.1987 530,-79.666 538.882,-81.936 548.455,-84.5994 557.252,-87.1356"/>
<polygon fill="#9a32cd" stroke="#9a32cd" points="390.227,-44.2699 379.725,-45.6696 388.807,-51.1245 390.227,-44.2699"/>
<text text-anchor="middle" x="469" y="-82.666" font-family="Helvetica,sans-Serif" font-size="10.00"> m_voxel</text>
</g>
<!-- Node2 -->
<g id="node2" class="node"><title>Node2</title>
<g id="a_node2"><a xlink:href="class_visuals.html" target="_top" xlink:title="Visuals">
<polygon fill="white" stroke="black" points="158.5,-55.166 158.5,-74.166 207.5,-74.166 207.5,-55.166 158.5,-55.166"/>
<text text-anchor="middle" x="183" y="-62.166" font-family="Helvetica,sans-Serif" font-size="10.00">Visuals</text>
</a>
</g>
</g>
<!-- Node2&#45;&gt;Node1 -->
<g id="edge1" class="edge"><title>Node2&#45;&gt;Node1</title>
<path fill="none" stroke="#9a32cd" stroke-dasharray="5,2" d="M217.847,-60.1919C253.76,-55.4448 309.264,-48.108 338.481,-44.246"/>
<polygon fill="#9a32cd" stroke="#9a32cd" points="217.284,-56.7358 207.829,-61.5161 218.202,-63.6754 217.284,-56.7358"/>
<text text-anchor="middle" x="278" y="-58.666" font-family="Helvetica,sans-Serif" font-size="10.00"> m_visuals</text>
</g>
<!-- Node3 -->
<g id="node3" class="node"><title>Node3</title>
<g id="a_node3"><a xlink:href="class_property.html" target="_top" xlink:title="Property\&lt; float \&gt;">
<polygon fill="white" stroke="black" points="138.5,-10.166 138.5,-29.166 227.5,-29.166 227.5,-10.166 138.5,-10.166"/>
<text text-anchor="middle" x="183" y="-17.166" font-family="Helvetica,sans-Serif" font-size="10.00">Property&lt; float &gt;</text>
</a>
</g>
</g>
<!-- Node3&#45;&gt;Node1 -->
<g id="edge2" class="edge"><title>Node3&#45;&gt;Node1</title>
<path fill="none" stroke="#9a32cd" stroke-dasharray="5,2" d="M237.692,-15.3599C260.248,-14.7671 286.623,-15.6792 310,-20.666 320.675,-22.9432 331.889,-27.6998 340.791,-32.1109"/>
<polygon fill="#9a32cd" stroke="#9a32cd" points="237.487,-11.865 227.622,-15.7289 237.744,-18.8603 237.487,-11.865"/>
<text text-anchor="middle" x="278" y="-34.666" font-family="Helvetica,sans-Serif" font-size="10.00"> s_defaultHp</text>
<text text-anchor="middle" x="278" y="-23.666" font-family="Helvetica,sans-Serif" font-size="10.00">s_defaultMass</text>
</g>
<!-- Node4 -->
<g id="node4" class="node"><title>Node4</title>
<g id="a_node4"><a xlink:title="STL class. ">
<polygon fill="white" stroke="#bfbfbf" points="0,-10.166 0,-29.166 60,-29.166 60,-10.166 0,-10.166"/>
<text text-anchor="middle" x="30" y="-17.166" font-family="Helvetica,sans-Serif" font-size="10.00">std::string</text>
</a>
</g>
</g>
<!-- Node4&#45;&gt;Node3 -->
<g id="edge3" class="edge"><title>Node4&#45;&gt;Node3</title>
<path fill="none" stroke="#9a32cd" stroke-dasharray="5,2" d="M70.2421,-19.666C91.1307,-19.666 116.875,-19.666 138.388,-19.666"/>
<polygon fill="#9a32cd" stroke="#9a32cd" points="70.1144,-16.1661 60.1143,-19.666 70.1143,-23.1661 70.1144,-16.1661"/>
<text text-anchor="middle" x="99" y="-22.666" font-family="Helvetica,sans-Serif" font-size="10.00"> m_name</text>
</g>
<!-- Node5&#45;&gt;Node1 -->
<g id="edge4" class="edge"><title>Node5&#45;&gt;Node1</title>
<path fill="none" stroke="#9a32cd" stroke-dasharray="5,2" d="M579.012,-78.3794C569.01,-62.1739 551.961,-39.5892 530,-29.666 479.715,-6.94398 412.472,-23.6975 379.667,-34.4688"/>
<polygon fill="#9a32cd" stroke="#9a32cd" points="576.005,-80.1705 584.071,-87.0398 582.049,-76.6397 576.005,-80.1705"/>
<text text-anchor="middle" x="469" y="-32.666" font-family="Helvetica,sans-Serif" font-size="10.00"> m_voxelTreeNode</text>
</g>
<!-- Node5&#45;&gt;Node5 -->
<g id="edge13" class="edge"><title>Node5&#45;&gt;Node5</title>
<path fill="none" stroke="#9a32cd" stroke-dasharray="5,2" d="M571.112,-116.066C572.373,-120.981 578.669,-124.666 590,-124.666 608.129,-124.666 613.369,-115.231 605.721,-106.423"/>
<polygon fill="#9a32cd" stroke="#9a32cd" points="574.484,-117.016 574.279,-106.423 567.833,-114.832 574.484,-117.016"/>
<text text-anchor="middle" x="590" y="-127.666" font-family="Helvetica,sans-Serif" font-size="10.00"> m_parent</text>
</g>
<!-- Node6 -->
<g id="node6" class="node"><title>Node6</title>
<g id="a_node6"><a xlink:href="class_voxel_tree.html" target="_top" xlink:title="VoxelTree">
<polygon fill="white" stroke="red" points="800,-155.166 800,-174.166 860,-174.166 860,-155.166 800,-155.166"/>
<text text-anchor="middle" x="830" y="-162.166" font-family="Helvetica,sans-Serif" font-size="10.00">VoxelTree</text>
</a>
</g>
</g>
<!-- Node5&#45;&gt;Node6 -->
<g id="edge7" class="edge"><title>Node5&#45;&gt;Node6</title>
<path fill="none" stroke="#9a32cd" stroke-dasharray="5,2" d="M604.61,-114.673C615.387,-127.435 631.646,-143.658 650,-151.666 699.12,-173.098 763.039,-171.599 799.696,-168.308"/>
<polygon fill="#9a32cd" stroke="#9a32cd" points="607.06,-112.135 598.066,-106.535 601.605,-116.521 607.06,-112.135"/>
<text text-anchor="middle" x="693" y="-182.666" font-family="Helvetica,sans-Serif" font-size="10.00"> m_currentRoot</text>
<text text-anchor="middle" x="693" y="-171.666" font-family="Helvetica,sans-Serif" font-size="10.00">m_shadowRoot</text>
</g>
<!-- Node8 -->
<g id="node8" class="node"><title>Node8</title>
<polygon fill="white" stroke="#bfbfbf" points="754,-79.166 754,-98.166 906,-98.166 906,-79.166 754,-79.166"/>
<text text-anchor="middle" x="830" y="-86.166" font-family="Helvetica,sans-Serif" font-size="10.00">std::vector&lt; VoxelTreeNode * &gt;</text>
</g>
<!-- Node5&#45;&gt;Node8 -->
<g id="edge10" class="edge"><title>Node5&#45;&gt;Node8</title>
<path fill="none" stroke="#9a32cd" stroke-dasharray="5,2" d="M641.849,-94.9567C674.465,-93.8604 717.383,-92.4178 753.892,-91.1906"/>
<polygon fill="#9a32cd" stroke="#9a32cd" points="641.52,-91.4657 631.643,-95.2998 641.755,-98.4618 641.52,-91.4657"/>
<text text-anchor="middle" x="693" y="-96.666" font-family="Helvetica,sans-Serif" font-size="10.00"> elements</text>
</g>
<!-- Node11 -->
<g id="node11" class="node"><title>Node11</title>
<polygon fill="white" stroke="#bfbfbf" points="760,-26.166 760,-45.166 900,-45.166 900,-26.166 760,-26.166"/>
<text text-anchor="middle" x="830" y="-33.166" font-family="Helvetica,sans-Serif" font-size="10.00">std::list&lt; VoxelTreeNode * &gt;</text>
</g>
<!-- Node5&#45;&gt;Node11 -->
<g id="edge15" class="edge"><title>Node5&#45;&gt;Node11</title>
<path fill="none" stroke="#9a32cd" stroke-dasharray="5,2" d="M612.194,-81.3374C623.007,-74.2519 636.666,-66.3802 650,-61.666 685.084,-49.2622 726.042,-42.7706 759.918,-39.3756"/>
<polygon fill="#9a32cd" stroke="#9a32cd" points="610.147,-78.4971 603.85,-87.0178 614.086,-84.2836 610.147,-78.4971"/>
<text text-anchor="middle" x="693" y="-64.666" font-family="Helvetica,sans-Serif" font-size="10.00"> elements</text>
</g>
<!-- Node6&#45;&gt;Node5 -->
<g id="edge6" class="edge"><title>Node6&#45;&gt;Node5</title>
<path fill="none" stroke="#9a32cd" stroke-dasharray="5,2" d="M790.354,-153.624C744.256,-140.453 667.966,-118.656 624.343,-106.193"/>
<polygon fill="#9a32cd" stroke="#9a32cd" points="789.412,-156.995 799.989,-156.377 791.335,-150.264 789.412,-156.995"/>
<text text-anchor="middle" x="693" y="-139.666" font-family="Helvetica,sans-Serif" font-size="10.00"> m_voxelTree</text>
</g>
<!-- Node7 -->
<g id="node7" class="node"><title>Node7</title>
<g id="a_node7"><a xlink:href="class_grid_a_a_b_b.html" target="_top" xlink:title="GridAABB">
<polygon fill="white" stroke="black" points="328,-161.166 328,-180.166 390,-180.166 390,-161.166 328,-161.166"/>
<text text-anchor="middle" x="359" y="-168.166" font-family="Helvetica,sans-Serif" font-size="10.00">GridAABB</text>
</a>
</g>
</g>
<!-- Node7&#45;&gt;Node5 -->
<g id="edge8" class="edge"><title>Node7&#45;&gt;Node5</title>
<path fill="none" stroke="#9a32cd" stroke-dasharray="5,2" d="M400.578,-169.598C436.058,-167.376 488.284,-160.933 530,-142.666 549.75,-134.018 568.695,-117.244 579.574,-106.518"/>
<polygon fill="#9a32cd" stroke="#9a32cd" points="399.933,-166.127 390.135,-170.16 400.309,-173.117 399.933,-166.127"/>
<text text-anchor="middle" x="469" y="-171.666" font-family="Helvetica,sans-Serif" font-size="10.00"> m_gridAABB</text>
</g>
<!-- Node8&#45;&gt;Node5 -->
<g id="edge9" class="edge"><title>Node8&#45;&gt;Node5</title>
<path fill="none" stroke="#9a32cd" stroke-dasharray="5,2" d="M743.505,-78.7084C713.803,-76.8722 680.341,-76.6249 650,-80.666 640.111,-81.983 629.53,-84.4901 620.097,-87.1357"/>
<polygon fill="#9a32cd" stroke="#9a32cd" points="743.626,-82.2249 753.842,-79.4197 744.106,-75.2414 743.626,-82.2249"/>
<text text-anchor="middle" x="693" y="-83.666" font-family="Helvetica,sans-Serif" font-size="10.00"> m_subnodes</text>
</g>
<!-- Node9 -->
<g id="node9" class="node"><title>Node9</title>
<g id="a_node9"><a xlink:href="class_transform.html" target="_top" xlink:title="Transform">
<polygon fill="white" stroke="black" points="329.5,-123.166 329.5,-142.166 388.5,-142.166 388.5,-123.166 329.5,-123.166"/>
<text text-anchor="middle" x="359" y="-130.166" font-family="Helvetica,sans-Serif" font-size="10.00">Transform</text>
</a>
</g>
</g>
<!-- Node9&#45;&gt;Node5 -->
<g id="edge11" class="edge"><title>Node9&#45;&gt;Node5</title>
<path fill="none" stroke="#9a32cd" stroke-dasharray="5,2" d="M398.864,-128.803C433.437,-125.09 485.297,-118.839 530,-110.666 536.938,-109.397 544.286,-107.834 551.354,-106.217"/>
<polygon fill="#9a32cd" stroke="#9a32cd" points="398.294,-125.344 388.716,-129.873 399.028,-132.305 398.294,-125.344"/>
<text text-anchor="middle" x="469" y="-130.666" font-family="Helvetica,sans-Serif" font-size="10.00"> m_cachedSphereTransform</text>
</g>
<!-- Node10 -->
<g id="node10" class="node"><title>Node10</title>
<g id="a_node10"><a xlink:href="class_sphere.html" target="_top" xlink:title="Sphere">
<polygon fill="white" stroke="red" points="335.5,-85.166 335.5,-104.166 382.5,-104.166 382.5,-85.166 335.5,-85.166"/>
<text text-anchor="middle" x="359" y="-92.166" font-family="Helvetica,sans-Serif" font-size="10.00">Sphere</text>
</a>
</g>
</g>
<!-- Node10&#45;&gt;Node5 -->
<g id="edge12" class="edge"><title>Node10&#45;&gt;Node5</title>
<path fill="none" stroke="#9a32cd" stroke-dasharray="5,2" d="M392.797,-94.9524C433.775,-95.3103 503.894,-95.9227 548.27,-96.3102"/>
<polygon fill="#9a32cd" stroke="#9a32cd" points="392.825,-91.4526 382.795,-94.865 392.764,-98.4523 392.825,-91.4526"/>
<text text-anchor="middle" x="469" y="-98.666" font-family="Helvetica,sans-Serif" font-size="10.00"> m_sphere</text>
</g>
<!-- Node11&#45;&gt;Node5 -->
<g id="edge14" class="edge"><title>Node11&#45;&gt;Node5</title>
<path fill="none" stroke="#9a32cd" stroke-dasharray="5,2" d="M799.765,-22.0351C762.753,-6.90885 698.031,12.2927 650,-12.666 619.322,-28.6077 601.258,-68.6272 594.307,-87.0766"/>
<polygon fill="#9a32cd" stroke="#9a32cd" points="798.861,-25.4543 809.433,-26.1534 801.604,-19.0143 798.861,-25.4543"/>
<text text-anchor="middle" x="693" y="-15.666" font-family="Helvetica,sans-Serif" font-size="10.00"> m_activeSubnodes</text>
</g>
</g>
</svg>
