<?xml version="1.0" encoding="UTF-8" standalone="no"?>
<!DOCTYPE svg PUBLIC "-//W3C//DTD SVG 1.1//EN"
 "http://www.w3.org/Graphics/SVG/1.1/DTD/svg11.dtd">
<!-- Generated by graphviz version 2.36.0 (20140111.2315)
 -->
<!-- Title: Faction Pages: 1 -->
<!--zoomable 285 -->
<svg id="main" version="1.1" xmlns="http://www.w3.org/2000/svg" xmlns:xlink="http://www.w3.org/1999/xlink" xml:space="preserve" onload="init(evt)">
<style type="text/css"><![CDATA[
.edge:hover path { stroke: red; }
.edge:hover polygon { stroke: red; fill: red; }
]]></style>
<script type="text/javascript"><![CDATA[
var edges = document.getElementsByTagName('g');
if (edges && edges.length) {
  for (var i=0;i<edges.length;i++) {
    if (edges[i].id.substr(0,4)=='edge') {
      edges[i].setAttribute('class','edge');
    }
  }
}
]]></script>
        <defs>
                <circle id="rim" cx="0" cy="0" r="7"/>
                <circle id="rim2" cx="0" cy="0" r="3.5"/>
                <g id="zoomPlus">
                        <use xlink:href="#rim" fill="#404040">
                                <set attributeName="fill" to="#808080" begin="zoomplus.mouseover" end="zoomplus.mouseout"/>
                        </use>
                        <path d="M-4,0h8M0,-4v8" fill="none" stroke="white" stroke-width="1.5" pointer-events="none"/>
                </g>
                <g id="zoomMin">
                        <use xlink:href="#rim" fill="#404040">
                                <set attributeName="fill" to="#808080" begin="zoomminus.mouseover" end="zoomminus.mouseout"/>
                        </use>
                        <path d="M-4,0h8" fill="none" stroke="white" stroke-width="1.5" pointer-events="none"/>
                </g>
                <g id="dirArrow">
                        <path fill="none" stroke="white" stroke-width="1.5" d="M0,-3.0v7 M-2.5,-0.5L0,-3.0L2.5,-0.5"/>
                </g>
               <g id="resetDef">
                       <use xlink:href="#rim2" fill="#404040">
                               <set attributeName="fill" to="#808080" begin="reset.mouseover" end="reset.mouseout"/>
                       </use>
               </g>
        </defs>

<script type="text/javascript">
var viewWidth = 808;
var viewHeight = 285;
var sectionId = 'dynsection-1';
</script>
<script xlink:href="svgpan.js"/>
<svg id="graph" class="graph">
<g id="viewport">
<title>Faction</title>
<polygon fill="white" stroke="none" points="-4,4 -4,-281.005 804,-281.005 804,4 -4,4"/>
<!-- Node1 -->
<g id="node1" class="node"><title>Node1</title>
<polygon fill="#bfbfbf" stroke="black" points="292.5,-79.5054 292.5,-98.5054 341.5,-98.5054 341.5,-79.5054 292.5,-79.5054"/>
<text text-anchor="middle" x="317" y="-86.5054" font-family="Helvetica,sans-Serif" font-size="10.00">Faction</text>
</g>
<!-- Node4 -->
<g id="node4" class="node"><title>Node4</title>
<polygon fill="white" stroke="#bfbfbf" points="432.5,-149.005 432.5,-179.005 611.5,-179.005 611.5,-149.005 432.5,-149.005"/>
<text text-anchor="start" x="440.5" y="-167.005" font-family="Helvetica,sans-Serif" font-size="10.00">std::map&lt; Faction *,</text>
<text text-anchor="middle" x="522" y="-156.005" font-family="Helvetica,sans-Serif" font-size="10.00"> std::shared_ptr&lt; FactionRelation &gt; &gt;</text>
</g>
<!-- Node1&#45;&gt;Node4 -->
<g id="edge4" class="edge"><title>Node1&#45;&gt;Node4</title>
<path fill="none" stroke="#9a32cd" stroke-dasharray="5,2" d="M326.502,-108.05C333.494,-121.322 344.737,-138.172 360,-147.005 381.651,-159.535 407.707,-165.408 432.488,-167.737"/>
<polygon fill="#9a32cd" stroke="#9a32cd" points="329.515,-106.245 321.987,-98.7904 323.224,-109.313 329.515,-106.245"/>
<text text-anchor="middle" x="387" y="-169.005" font-family="Helvetica,sans-Serif" font-size="10.00"> keys</text>
</g>
<!-- Node7 -->
<g id="node7" class="node"><title>Node7</title>
<g id="a_node7"><a xlink:href="class_police_faction.html" target="_top" xlink:title="PoliceFaction">
<polygon fill="white" stroke="black" points="484,-110.505 484,-129.505 560,-129.505 560,-110.505 484,-110.505"/>
<text text-anchor="middle" x="522" y="-117.505" font-family="Helvetica,sans-Serif" font-size="10.00">PoliceFaction</text>
</a>
</g>
</g>
<!-- Node1&#45;&gt;Node7 -->
<g id="edge8" class="edge"><title>Node1&#45;&gt;Node7</title>
<path fill="none" stroke="midnightblue" d="M351.804,-94.1675C388.22,-99.7287 446.004,-108.553 483.717,-114.312"/>
<polygon fill="midnightblue" stroke="midnightblue" points="352.098,-90.672 341.684,-92.6222 351.041,-97.5917 352.098,-90.672"/>
</g>
<!-- Node9 -->
<g id="node9" class="node"><title>Node9</title>
<g id="a_node9"><a xlink:href="class_pirate_faction.html" target="_top" xlink:title="PirateFaction">
<polygon fill="white" stroke="black" points="485,-72.5054 485,-91.5054 559,-91.5054 559,-72.5054 485,-72.5054"/>
<text text-anchor="middle" x="522" y="-79.5054" font-family="Helvetica,sans-Serif" font-size="10.00">PirateFaction</text>
</a>
</g>
</g>
<!-- Node1&#45;&gt;Node9 -->
<g id="edge11" class="edge"><title>Node1&#45;&gt;Node9</title>
<path fill="none" stroke="midnightblue" d="M351.901,-87.8364C388.682,-86.5681 447.18,-84.5509 484.827,-83.2527"/>
<polygon fill="midnightblue" stroke="midnightblue" points="351.557,-84.3461 341.684,-88.1887 351.799,-91.3419 351.557,-84.3461"/>
</g>
<!-- Node10 -->
<g id="node10" class="node"><title>Node10</title>
<g id="a_node10"><a xlink:href="class_player_faction.html" target="_top" xlink:title="PlayerFaction">
<polygon fill="white" stroke="black" points="483.5,-34.5054 483.5,-53.5054 560.5,-53.5054 560.5,-34.5054 483.5,-34.5054"/>
<text text-anchor="middle" x="522" y="-41.5054" font-family="Helvetica,sans-Serif" font-size="10.00">PlayerFaction</text>
</a>
</g>
</g>
<!-- Node1&#45;&gt;Node10 -->
<g id="edge13" class="edge"><title>Node1&#45;&gt;Node10</title>
<path fill="none" stroke="midnightblue" d="M351.386,-81.2624C374.097,-76.027 404.84,-69.0014 432,-63.0054 448.817,-59.2929 467.448,-55.2973 483.299,-51.9327"/>
<polygon fill="midnightblue" stroke="midnightblue" points="350.515,-77.8715 341.559,-83.5318 352.09,-84.692 350.515,-77.8715"/>
</g>
<!-- Node2 -->
<g id="node2" class="node"><title>Node2</title>
<g id="a_node2"><a xlink:title="STL class. ">
<polygon fill="white" stroke="#bfbfbf" points="134,-79.5054 134,-98.5054 194,-98.5054 194,-79.5054 134,-79.5054"/>
<text text-anchor="middle" x="164" y="-86.5054" font-family="Helvetica,sans-Serif" font-size="10.00">std::string</text>
</a>
</g>
</g>
<!-- Node2&#45;&gt;Node1 -->
<g id="edge1" class="edge"><title>Node2&#45;&gt;Node1</title>
<path fill="none" stroke="#9a32cd" stroke-dasharray="5,2" d="M204.356,-89.0054C232.301,-89.0054 268.892,-89.0054 292.427,-89.0054"/>
<polygon fill="#9a32cd" stroke="#9a32cd" points="204.114,-85.5055 194.114,-89.0054 204.114,-92.5055 204.114,-85.5055"/>
<text text-anchor="middle" x="243" y="-103.005" font-family="Helvetica,sans-Serif" font-size="10.00"> m_printName</text>
<text text-anchor="middle" x="243" y="-92.0054" font-family="Helvetica,sans-Serif" font-size="10.00">m_key</text>
</g>
<!-- Node3 -->
<g id="node3" class="node"><title>Node3</title>
<g id="a_node3"><a xlink:title="STL class. ">
<polygon fill="white" stroke="#bfbfbf" points="0.5,-74.0054 0.5,-104.005 95.5,-104.005 95.5,-74.0054 0.5,-74.0054"/>
<text text-anchor="start" x="8.5" y="-92.0054" font-family="Helvetica,sans-Serif" font-size="10.00">std::basic_string&lt;</text>
<text text-anchor="middle" x="48" y="-81.0054" font-family="Helvetica,sans-Serif" font-size="10.00"> char &gt;</text>
</a>
</g>
</g>
<!-- Node3&#45;&gt;Node2 -->
<g id="edge2" class="edge"><title>Node3&#45;&gt;Node2</title>
<path fill="none" stroke="midnightblue" d="M105.782,-89.0054C115.509,-89.0054 125.243,-89.0054 133.854,-89.0054"/>
<polygon fill="midnightblue" stroke="midnightblue" points="105.697,-85.5055 95.6971,-89.0054 105.697,-92.5055 105.697,-85.5055"/>
</g>
<!-- Node4&#45;&gt;Node1 -->
<g id="edge3" class="edge"><title>Node4&#45;&gt;Node1</title>
<path fill="none" stroke="#9a32cd" stroke-dasharray="5,2" d="M451.533,-146.167C422.604,-137.679 389.054,-126.43 360,-113.005 350.852,-108.778 341.051,-103.241 333.22,-98.5499"/>
<polygon fill="#9a32cd" stroke="#9a32cd" points="450.575,-149.533 461.153,-148.939 452.513,-142.807 450.575,-149.533"/>
<text text-anchor="middle" x="387" y="-137.005" font-family="Helvetica,sans-Serif" font-size="10.00"> m_relations</text>
</g>
<!-- Node5 -->
<g id="node5" class="node"><title>Node5</title>
<g id="a_node5"><a xlink:href="class_faction_matrix.html" target="_top" xlink:title="FactionMatrix">
<polygon fill="white" stroke="black" points="724,-90.5054 724,-109.505 800,-109.505 800,-90.5054 724,-90.5054"/>
<text text-anchor="middle" x="762" y="-97.5054" font-family="Helvetica,sans-Serif" font-size="10.00">FactionMatrix</text>
</a>
</g>
</g>
<!-- Node5&#45;&gt;Node1 -->
<g id="edge5" class="edge"><title>Node5&#45;&gt;Node1</title>
<path fill="none" stroke="#9a32cd" stroke-dasharray="5,2" d="M747.275,-82.4716C737.041,-70.4419 722.099,-54.9199 706,-45.0054 668.542,-21.9378 655.434,-20.9826 612,-14.0054 533.013,-1.31698 508.638,8.94379 432,-14.0054 388.652,-26.9859 346.529,-62.3462 327.932,-79.4658"/>
<polygon fill="#9a32cd" stroke="#9a32cd" points="744.797,-84.9699 753.844,-90.4838 750.21,-80.5316 744.797,-84.9699"/>
<text text-anchor="middle" x="522" y="-17.0054" font-family="Helvetica,sans-Serif" font-size="10.00"> m_factionMatrix</text>
</g>
<!-- Node6 -->
<g id="node6" class="node"><title>Node6</title>
<polygon fill="white" stroke="#bfbfbf" points="469,-247.005 469,-277.005 575,-277.005 575,-247.005 469,-247.005"/>
<text text-anchor="start" x="477" y="-265.005" font-family="Helvetica,sans-Serif" font-size="10.00">std::list&lt; std::unique</text>
<text text-anchor="middle" x="522" y="-254.005" font-family="Helvetica,sans-Serif" font-size="10.00">_ptr&lt; Faction &gt; &gt;</text>
</g>
<!-- Node6&#45;&gt;Node5 -->
<g id="edge6" class="edge"><title>Node6&#45;&gt;Node5</title>
<path fill="none" stroke="#9a32cd" stroke-dasharray="5,2" d="M585.497,-251.057C624.07,-241.56 672.424,-224.37 706,-194.005 733.206,-169.402 750.763,-128.106 757.672,-109.546"/>
<polygon fill="#9a32cd" stroke="#9a32cd" points="584.345,-247.732 575.408,-253.423 585.943,-254.548 584.345,-247.732"/>
<text text-anchor="middle" x="668" y="-240.005" font-family="Helvetica,sans-Serif" font-size="10.00"> m_factions</text>
</g>
<!-- Node7&#45;&gt;Node5 -->
<g id="edge7" class="edge"><title>Node7&#45;&gt;Node5</title>
<path fill="none" stroke="#9a32cd" stroke-dasharray="5,2" d="M570.295,-116.031C615.349,-112.245 682.268,-106.622 723.682,-103.141"/>
<polygon fill="#9a32cd" stroke="#9a32cd" points="569.859,-112.555 560.188,-116.88 570.445,-119.531 569.859,-112.555"/>
<text text-anchor="middle" x="668" y="-114.005" font-family="Helvetica,sans-Serif" font-size="10.00"> m_policeFaction</text>
</g>
<!-- Node8 -->
<g id="node8" class="node"><title>Node8</title>
<polygon fill="white" stroke="#bfbfbf" points="458,-198.005 458,-228.005 586,-228.005 586,-198.005 458,-198.005"/>
<text text-anchor="start" x="466" y="-216.005" font-family="Helvetica,sans-Serif" font-size="10.00">std::list&lt; std::shared</text>
<text text-anchor="middle" x="522" y="-205.005" font-family="Helvetica,sans-Serif" font-size="10.00">_ptr&lt; FactionRelation &gt; &gt;</text>
</g>
<!-- Node8&#45;&gt;Node5 -->
<g id="edge9" class="edge"><title>Node8&#45;&gt;Node5</title>
<path fill="none" stroke="#9a32cd" stroke-dasharray="5,2" d="M594.158,-194.823C600.263,-192.721 606.285,-190.446 612,-188.005 665.046,-165.349 722.336,-127.177 747.665,-109.507"/>
<polygon fill="#9a32cd" stroke="#9a32cd" points="592.936,-191.54 584.527,-197.985 595.12,-198.191 592.936,-191.54"/>
<text text-anchor="middle" x="668" y="-182.005" font-family="Helvetica,sans-Serif" font-size="10.00"> m_relations</text>
</g>
<!-- Node9&#45;&gt;Node5 -->
<g id="edge10" class="edge"><title>Node9&#45;&gt;Node5</title>
<path fill="none" stroke="#9a32cd" stroke-dasharray="5,2" d="M569.348,-79.5886C606.494,-78.4138 659.848,-78.4394 706,-85.0054 714.329,-86.1904 723.19,-88.2421 731.312,-90.4544"/>
<polygon fill="#9a32cd" stroke="#9a32cd" points="569.189,-76.092 559.321,-79.9474 569.44,-83.0875 569.189,-76.092"/>
<text text-anchor="middle" x="668" y="-88.0054" font-family="Helvetica,sans-Serif" font-size="10.00"> m_pirateFaction</text>
</g>
<!-- Node10&#45;&gt;Node5 -->
<g id="edge12" class="edge"><title>Node10&#45;&gt;Node5</title>
<path fill="none" stroke="#9a32cd" stroke-dasharray="5,2" d="M570.756,-43.6631C608.475,-44.7597 661.915,-49.3866 706,-65.0054 722.216,-70.7505 738.565,-82.0122 749.172,-90.2141"/>
<polygon fill="#9a32cd" stroke="#9a32cd" points="570.629,-40.1596 560.556,-43.4413 570.477,-47.158 570.629,-40.1596"/>
<text text-anchor="middle" x="668" y="-68.0054" font-family="Helvetica,sans-Serif" font-size="10.00"> m_playerFaction</text>
</g>
</g>
</svg>
        <g id="navigator" transform="translate(0 0)" fill="#404254">
                <rect fill="#f2f5e9" fill-opacity="0.5" stroke="#606060" stroke-width=".5" x="0" y="0" width="60" height="60"/>
                <use id="zoomplus" xlink:href="#zoomPlus" x="17" y="9" onmousedown="handleZoom(evt,'in')"/>
                <use id="zoomminus" xlink:href="#zoomMin" x="42" y="9" onmousedown="handleZoom(evt,'out')"/>
                <use id="reset" xlink:href="#resetDef" x="30" y="36" onmousedown="handleReset()"/>
                <g id="arrowUp" xlink:href="#dirArrow" transform="translate(30 24)" onmousedown="handlePan(0,-1)">
                  <use xlink:href="#rim" fill="#404040">
                        <set attributeName="fill" to="#808080" begin="arrowUp.mouseover" end="arrowUp.mouseout"/>
                  </use>
                  <path fill="none" stroke="white" stroke-width="1.5" d="M0,-3.0v7 M-2.5,-0.5L0,-3.0L2.5,-0.5"/>
                </g>
                <g id="arrowRight" xlink:href="#dirArrow" transform="rotate(90) translate(36 -43)" onmousedown="handlePan(1,0)">
                  <use xlink:href="#rim" fill="#404040">
                        <set attributeName="fill" to="#808080" begin="arrowRight.mouseover" end="arrowRight.mouseout"/>
                  </use>
                  <path fill="none" stroke="white" stroke-width="1.5" d="M0,-3.0v7 M-2.5,-0.5L0,-3.0L2.5,-0.5"/>
                </g>
                <g id="arrowDown" xlink:href="#dirArrow" transform="rotate(180) translate(-30 -48)" onmousedown="handlePan(0,1)">
                  <use xlink:href="#rim" fill="#404040">
                        <set attributeName="fill" to="#808080" begin="arrowDown.mouseover" end="arrowDown.mouseout"/>
                  </use>
                  <path fill="none" stroke="white" stroke-width="1.5" d="M0,-3.0v7 M-2.5,-0.5L0,-3.0L2.5,-0.5"/>
                </g>
                <g id="arrowLeft" xlink:href="#dirArrow" transform="rotate(270) translate(-36 17)" onmousedown="handlePan(-1,0)">
                  <use xlink:href="#rim" fill="#404040">
                        <set attributeName="fill" to="#808080" begin="arrowLeft.mouseover" end="arrowLeft.mouseout"/>
                  </use>
                  <path fill="none" stroke="white" stroke-width="1.5" d="M0,-3.0v7 M-2.5,-0.5L0,-3.0L2.5,-0.5"/>
                </g>
        </g>
        <svg viewBox="0 0 15 15" width="100%" height="30px" preserveAspectRatio="xMaxYMin meet">
         <g id="arrow_out" transform="scale(0.3 0.3)">
          <a xlink:href="class_faction__coll__graph_org.svg" target="_base">
           <rect id="button" ry="5" rx="5" y="6" x="6" height="38" width="38"
                fill="#f2f5e9" fill-opacity="0.5" stroke="#606060" stroke-width="1.0"/>
           <path id="arrow"
             d="M 11.500037,31.436501 C 11.940474,20.09759 22.043105,11.32322 32.158766,21.979434 L 37.068811,17.246167 C 37.068811,17.246167 37.088388,32 37.088388,32 L 22.160133,31.978069 C 22.160133,31.978069 26.997745,27.140456 26.997745,27.140456 C 18.528582,18.264221 13.291696,25.230495 11.500037,31.436501 z"
             style="fill:#404040;"/>
          </a>
         </g>
        </svg>
</svg>
