<?xml version="1.0" encoding="UTF-8" standalone="no"?>
<!DOCTYPE svg PUBLIC "-//W3C//DTD SVG 1.1//EN"
 "http://www.w3.org/Graphics/SVG/1.1/DTD/svg11.dtd">
<!-- Generated by graphviz version 2.36.0 (20140111.2315)
 -->
<!-- Title: Letter Pages: 1 -->
<svg width="432pt" height="175pt"
 viewBox="0.00 0.00 432.00 175.00" xmlns="http://www.w3.org/2000/svg" xmlns:xlink="http://www.w3.org/1999/xlink">
<g id="graph0" class="graph" transform="scale(1 1) rotate(0) translate(4 171)">
<title>Letter</title>
<polygon fill="white" stroke="none" points="-4,4 -4,-171 428,-171 428,4 -4,4"/>
<!-- Node1 -->
<g id="node1" class="node"><title>Node1</title>
<polygon fill="#bfbfbf" stroke="black" points="382.5,-76.5 382.5,-95.5 423.5,-95.5 423.5,-76.5 382.5,-76.5"/>
<text text-anchor="middle" x="403" y="-83.5" font-family="Helvetica,sans-Serif" font-size="10.00">Letter</text>
</g>
<!-- Node2 -->
<g id="node2" class="node"><title>Node2</title>
<g id="a_node2"><a xlink:href="class_voxel_cluster.html" target="_top" xlink:title="VoxelCluster">
<polygon fill="white" stroke="black" points="272,-76.5 272,-95.5 344,-95.5 344,-76.5 272,-76.5"/>
<text text-anchor="middle" x="308" y="-83.5" font-family="Helvetica,sans-Serif" font-size="10.00">VoxelCluster</text>
</a>
</g>
</g>
<!-- Node2&#45;&gt;Node1 -->
<g id="edge1" class="edge"><title>Node2&#45;&gt;Node1</title>
<path fill="none" stroke="midnightblue" d="M354.36,-86C364.243,-86 374.196,-86 382.43,-86"/>
<polygon fill="midnightblue" stroke="midnightblue" points="354.159,-82.5001 344.159,-86 354.159,-89.5001 354.159,-82.5001"/>
</g>
<!-- Node3 -->
<g id="node3" class="node"><title>Node3</title>
<polygon fill="white" stroke="#bfbfbf" points="0,-137 0,-167 146,-167 146,-137 0,-137"/>
<text text-anchor="start" x="8" y="-155" font-family="Helvetica,sans-Serif" font-size="10.00">std::unique_ptr&lt; VoxelRender</text>
<text text-anchor="middle" x="73" y="-144" font-family="Helvetica,sans-Serif" font-size="10.00">Data &gt;</text>
</g>
<!-- Node3&#45;&gt;Node2 -->
<g id="edge2" class="edge"><title>Node3&#45;&gt;Node2</title>
<path fill="none" stroke="#9a32cd" stroke-dasharray="5,2" d="M156.188,-139.628C187.358,-133.65 222.833,-125.272 254,-114 267.309,-109.186 281.435,-101.585 291.754,-95.5161"/>
<polygon fill="#9a32cd" stroke="#9a32cd" points="155.419,-136.211 146.23,-141.485 156.702,-143.092 155.419,-136.211"/>
<text text-anchor="middle" x="209" y="-140" font-family="Helvetica,sans-Serif" font-size="10.00"> m_voxelRenderData</text>
</g>
<!-- Node4 -->
<g id="node4" class="node"><title>Node4</title>
<g id="a_node4"><a xlink:href="class_transform.html" target="_top" xlink:title="Transform">
<polygon fill="white" stroke="black" points="43.5,-98.5 43.5,-117.5 102.5,-117.5 102.5,-98.5 43.5,-98.5"/>
<text text-anchor="middle" x="73" y="-105.5" font-family="Helvetica,sans-Serif" font-size="10.00">Transform</text>
</a>
</g>
</g>
<!-- Node4&#45;&gt;Node2 -->
<g id="edge3" class="edge"><title>Node4&#45;&gt;Node2</title>
<path fill="none" stroke="#9a32cd" stroke-dasharray="5,2" d="M112.659,-104.35C156.948,-100.168 228.905,-93.3738 271.723,-89.3309"/>
<polygon fill="#9a32cd" stroke="#9a32cd" points="112.197,-100.878 102.57,-105.302 112.855,-107.847 112.197,-100.878"/>
<text text-anchor="middle" x="209" y="-102" font-family="Helvetica,sans-Serif" font-size="10.00"> m_transform</text>
</g>
<!-- Node5 -->
<g id="node5" class="node"><title>Node5</title>
<polygon fill="white" stroke="#bfbfbf" points="15,-49 15,-79 131,-79 131,-49 15,-49"/>
<text text-anchor="start" x="23" y="-67" font-family="Helvetica,sans-Serif" font-size="10.00">std::unordered_map</text>
<text text-anchor="middle" x="73" y="-56" font-family="Helvetica,sans-Serif" font-size="10.00">&lt; glm::ivec3, Voxel * &gt;</text>
</g>
<!-- Node5&#45;&gt;Node2 -->
<g id="edge4" class="edge"><title>Node5&#45;&gt;Node2</title>
<path fill="none" stroke="#9a32cd" stroke-dasharray="5,2" d="M141.527,-67.3358C175.368,-69.3987 216.931,-72.5245 254,-77 259.745,-77.6936 265.816,-78.5791 271.718,-79.5229"/>
<polygon fill="#9a32cd" stroke="#9a32cd" points="141.476,-63.8267 131.286,-66.7294 141.062,-70.8145 141.476,-63.8267"/>
<text text-anchor="middle" x="209" y="-80" font-family="Helvetica,sans-Serif" font-size="10.00"> m_voxels</text>
</g>
<!-- Node6 -->
<g id="node6" class="node"><title>Node6</title>
<polygon fill="white" stroke="#bfbfbf" points="0,-0 0,-30 146,-30 146,-0 0,-0"/>
<text text-anchor="start" x="8" y="-18" font-family="Helvetica,sans-Serif" font-size="10.00">std::unique_ptr&lt; VoxelCluster</text>
<text text-anchor="middle" x="73" y="-7" font-family="Helvetica,sans-Serif" font-size="10.00">Bounds &gt;</text>
</g>
<!-- Node6&#45;&gt;Node2 -->
<g id="edge5" class="edge"><title>Node6&#45;&gt;Node2</title>
<path fill="none" stroke="#9a32cd" stroke-dasharray="5,2" d="M156.133,-26.8925C187.445,-32.9422 223.031,-41.6925 254,-54 268.384,-59.7163 283.355,-69.1268 293.702,-76.2668"/>
<polygon fill="#9a32cd" stroke="#9a32cd" points="156.602,-23.4195 146.129,-25.0222 155.315,-30.3003 156.602,-23.4195"/>
<text text-anchor="middle" x="209" y="-57" font-family="Helvetica,sans-Serif" font-size="10.00"> m_bounds</text>
</g>
</g>
</svg>
