<?xml version="1.0" encoding="UTF-8" standalone="no"?>
<!DOCTYPE svg PUBLIC "-//W3C//DTD SVG 1.1//EN"
 "http://www.w3.org/Graphics/SVG/1.1/DTD/svg11.dtd">
<!-- Generated by graphviz version 2.36.0 (20140111.2315)
 -->
<!-- Title: AbstractShape Pages: 1 -->
<svg width="474pt" height="84pt"
 viewBox="0.00 0.00 474.00 84.00" xmlns="http://www.w3.org/2000/svg" xmlns:xlink="http://www.w3.org/1999/xlink">
<g id="graph0" class="graph" transform="scale(1 1) rotate(0) translate(4 80)">
<title>AbstractShape</title>
<polygon fill="white" stroke="none" points="-4,4 -4,-80 470,-80 470,4 -4,4"/>
<!-- Node1 -->
<g id="node1" class="node"><title>Node1</title>
<polygon fill="#bfbfbf" stroke="black" points="157.5,-56.5 157.5,-75.5 238.5,-75.5 238.5,-56.5 157.5,-56.5"/>
<text text-anchor="middle" x="198" y="-63.5" font-family="Helvetica,sans-Serif" font-size="10.00">AbstractShape</text>
</g>
<!-- Node2 -->
<g id="node2" class="node"><title>Node2</title>
<g id="a_node2"><a xlink:href="class_capsule.html" target="_top" xlink:title="Capsule">
<polygon fill="white" stroke="black" points="0,-0.5 0,-19.5 52,-19.5 52,-0.5 0,-0.5"/>
<text text-anchor="middle" x="26" y="-7.5" font-family="Helvetica,sans-Serif" font-size="10.00">Capsule</text>
</a>
</g>
</g>
<!-- Node1&#45;&gt;Node2 -->
<g id="edge1" class="edge"><title>Node1&#45;&gt;Node2</title>
<path fill="none" stroke="midnightblue" d="M161.049,-53.3991C128.204,-43.0873 81.0192,-28.2735 52.0005,-19.1629"/>
<polygon fill="midnightblue" stroke="midnightblue" points="160.157,-56.7874 170.746,-56.4435 162.254,-50.1088 160.157,-56.7874"/>
</g>
<!-- Node3 -->
<g id="node3" class="node"><title>Node3</title>
<g id="a_node3"><a xlink:href="class_line.html" target="_top" xlink:title="Line">
<polygon fill="white" stroke="black" points="70.5,-0.5 70.5,-19.5 105.5,-19.5 105.5,-0.5 70.5,-0.5"/>
<text text-anchor="middle" x="88" y="-7.5" font-family="Helvetica,sans-Serif" font-size="10.00">Line</text>
</a>
</g>
</g>
<!-- Node1&#45;&gt;Node3 -->
<g id="edge2" class="edge"><title>Node1&#45;&gt;Node3</title>
<path fill="none" stroke="midnightblue" d="M171.238,-51.8622C150.841,-41.8492 123.334,-28.3458 105.63,-19.6545"/>
<polygon fill="midnightblue" stroke="midnightblue" points="169.808,-55.059 180.327,-56.324 172.892,-48.7753 169.808,-55.059"/>
</g>
<!-- Node4 -->
<g id="node4" class="node"><title>Node4</title>
<g id="a_node4"><a xlink:href="class_point.html" target="_top" xlink:title="Point">
<polygon fill="white" stroke="black" points="123.5,-0.5 123.5,-19.5 162.5,-19.5 162.5,-0.5 123.5,-0.5"/>
<text text-anchor="middle" x="143" y="-7.5" font-family="Helvetica,sans-Serif" font-size="10.00">Point</text>
</a>
</g>
</g>
<!-- Node1&#45;&gt;Node4 -->
<g id="edge3" class="edge"><title>Node1&#45;&gt;Node4</title>
<path fill="none" stroke="midnightblue" d="M181.706,-49.0024C171.959,-39.4329 159.947,-27.6389 151.913,-19.7511"/>
<polygon fill="midnightblue" stroke="midnightblue" points="179.33,-51.5746 188.918,-56.083 184.234,-46.5796 179.33,-51.5746"/>
</g>
<!-- Node5 -->
<g id="node5" class="node"><title>Node5</title>
<g id="a_node5"><a xlink:href="class_ray.html" target="_top" xlink:title="Ray">
<polygon fill="white" stroke="black" points="181,-0.5 181,-19.5 215,-19.5 215,-0.5 181,-0.5"/>
<text text-anchor="middle" x="198" y="-7.5" font-family="Helvetica,sans-Serif" font-size="10.00">Ray</text>
</a>
</g>
</g>
<!-- Node1&#45;&gt;Node5 -->
<g id="edge4" class="edge"><title>Node1&#45;&gt;Node5</title>
<path fill="none" stroke="midnightblue" d="M198,-45.8045C198,-36.9102 198,-26.7798 198,-19.7511"/>
<polygon fill="midnightblue" stroke="midnightblue" points="194.5,-46.083 198,-56.083 201.5,-46.083 194.5,-46.083"/>
</g>
<!-- Node6 -->
<g id="node6" class="node"><title>Node6</title>
<g id="a_node6"><a xlink:href="class_sphere.html" target="_top" xlink:title="Sphere">
<polygon fill="white" stroke="black" points="233.5,-0.5 233.5,-19.5 280.5,-19.5 280.5,-0.5 233.5,-0.5"/>
<text text-anchor="middle" x="257" y="-7.5" font-family="Helvetica,sans-Serif" font-size="10.00">Sphere</text>
</a>
</g>
</g>
<!-- Node1&#45;&gt;Node6 -->
<g id="edge5" class="edge"><title>Node1&#45;&gt;Node6</title>
<path fill="none" stroke="midnightblue" d="M214.895,-49.5372C225.415,-39.9087 238.569,-27.8694 247.348,-19.8339"/>
<polygon fill="midnightblue" stroke="midnightblue" points="212.493,-46.9905 207.479,-56.324 217.219,-52.1542 212.493,-46.9905"/>
</g>
<!-- Node7 -->
<g id="node7" class="node"><title>Node7</title>
<g id="a_node7"><a xlink:href="class_t_a_a_b_b.html" target="_top" xlink:title="TAABB\&lt; T \&gt;">
<polygon fill="white" stroke="black" points="299,-0.5 299,-19.5 371,-19.5 371,-0.5 299,-0.5"/>
<text text-anchor="middle" x="335" y="-7.5" font-family="Helvetica,sans-Serif" font-size="10.00">TAABB&lt; T &gt;</text>
</a>
</g>
</g>
<!-- Node1&#45;&gt;Node7 -->
<g id="edge6" class="edge"><title>Node1&#45;&gt;Node7</title>
<path fill="none" stroke="midnightblue" d="M229.023,-52.772C254.757,-42.6287 290.686,-28.4669 313.394,-19.5164"/>
<polygon fill="midnightblue" stroke="midnightblue" points="227.728,-49.5203 219.708,-56.4435 230.295,-56.0326 227.728,-49.5203"/>
</g>
<!-- Node8 -->
<g id="node8" class="node"><title>Node8</title>
<g id="a_node8"><a xlink:href="class_t_a_a_b_b.html" target="_top" xlink:title="TAABB\&lt; int \&gt;">
<polygon fill="white" stroke="black" points="389.5,-0.5 389.5,-19.5 466.5,-19.5 466.5,-0.5 389.5,-0.5"/>
<text text-anchor="middle" x="428" y="-7.5" font-family="Helvetica,sans-Serif" font-size="10.00">TAABB&lt; int &gt;</text>
</a>
</g>
</g>
<!-- Node1&#45;&gt;Node8 -->
<g id="edge7" class="edge"><title>Node1&#45;&gt;Node8</title>
<path fill="none" stroke="midnightblue" d="M244.201,-54.1529C287.658,-43.95 351.841,-28.8809 391.726,-19.5164"/>
<polygon fill="midnightblue" stroke="midnightblue" points="243.379,-50.7504 234.444,-56.4435 244.979,-57.5651 243.379,-50.7504"/>
</g>
</g>
</svg>
