<?xml version="1.0" encoding="UTF-8" standalone="no"?>
<!DOCTYPE svg PUBLIC "-//W3C//DTD SVG 1.1//EN"
 "http://www.w3.org/Graphics/SVG/1.1/DTD/svg11.dtd">
<!-- Generated by graphviz version 2.36.0 (20140111.2315)
 -->
<!-- Title: GenericGun Pages: 1 -->
<svg width="328pt" height="164pt"
 viewBox="0.00 0.00 328.00 164.00" xmlns="http://www.w3.org/2000/svg" xmlns:xlink="http://www.w3.org/1999/xlink">
<g id="graph0" class="graph" transform="scale(1 1) rotate(0) translate(4 160)">
<title>GenericGun</title>
<polygon fill="white" stroke="none" points="-4,4 -4,-160 324,-160 324,4 -4,4"/>
<!-- Node1 -->
<g id="node1" class="node"><title>Node1</title>
<polygon fill="#bfbfbf" stroke="black" points="82,-0.5 82,-19.5 150,-19.5 150,-0.5 82,-0.5"/>
<text text-anchor="middle" x="116" y="-7.5" font-family="Helvetica,sans-Serif" font-size="10.00">GenericGun</text>
</g>
<!-- Node2 -->
<g id="node2" class="node"><title>Node2</title>
<g id="a_node2"><a xlink:href="class_gun.html" target="_top" xlink:title="Gun">
<polygon fill="white" stroke="black" points="8.5,-68.5 8.5,-87.5 43.5,-87.5 43.5,-68.5 8.5,-68.5"/>
<text text-anchor="middle" x="26" y="-75.5" font-family="Helvetica,sans-Serif" font-size="10.00">Gun</text>
</a>
</g>
</g>
<!-- Node2&#45;&gt;Node1 -->
<g id="edge1" class="edge"><title>Node2&#45;&gt;Node1</title>
<path fill="none" stroke="midnightblue" d="M45.8339,-62.4551C63.714,-49.3431 89.4069,-30.5016 104.231,-19.6305"/>
<polygon fill="midnightblue" stroke="midnightblue" points="43.7602,-59.6356 37.7659,-68.3717 47.8998,-65.2804 43.7602,-59.6356"/>
</g>
<!-- Node3 -->
<g id="node3" class="node"><title>Node3</title>
<g id="a_node3"><a xlink:href="class_weapon.html" target="_top" xlink:title="Weapon">
<polygon fill="white" stroke="red" points="-0.5,-136.5 -0.5,-155.5 52.5,-155.5 52.5,-136.5 -0.5,-136.5"/>
<text text-anchor="middle" x="26" y="-143.5" font-family="Helvetica,sans-Serif" font-size="10.00">Weapon</text>
</a>
</g>
</g>
<!-- Node3&#45;&gt;Node2 -->
<g id="edge2" class="edge"><title>Node3&#45;&gt;Node2</title>
<path fill="none" stroke="midnightblue" d="M26,-126.041C26,-113.472 26,-97.5631 26,-87.8411"/>
<polygon fill="midnightblue" stroke="midnightblue" points="22.5001,-126.372 26,-136.372 29.5001,-126.372 22.5001,-126.372"/>
</g>
<!-- Node4 -->
<g id="node4" class="node"><title>Node4</title>
<g id="a_node4"><a xlink:href="class_visuals.html" target="_top" xlink:title="Visuals">
<polygon fill="white" stroke="black" points="61.5,-68.5 61.5,-87.5 110.5,-87.5 110.5,-68.5 61.5,-68.5"/>
<text text-anchor="middle" x="86" y="-75.5" font-family="Helvetica,sans-Serif" font-size="10.00">Visuals</text>
</a>
</g>
</g>
<!-- Node4&#45;&gt;Node1 -->
<g id="edge3" class="edge"><title>Node4&#45;&gt;Node1</title>
<path fill="none" stroke="#9a32cd" stroke-dasharray="5,2" d="M83.5614,-58.0703C83.4571,-51.4677 84.2192,-44.1712 87,-38 90.3348,-30.5994 96.7568,-24.2847 102.711,-19.6272"/>
<polygon fill="#9a32cd" stroke="#9a32cd" points="80.0848,-58.5083 84.3515,-68.2061 87.0637,-57.9643 80.0848,-58.5083"/>
<text text-anchor="middle" x="110" y="-41.5" font-family="Helvetica,sans-Serif" font-size="10.00"> m_visuals</text>
</g>
<!-- Node5 -->
<g id="node5" class="node"><title>Node5</title>
<g id="a_node5"><a xlink:title="STL class. ">
<polygon fill="white" stroke="#bfbfbf" points="157,-136.5 157,-155.5 217,-155.5 217,-136.5 157,-136.5"/>
<text text-anchor="middle" x="187" y="-143.5" font-family="Helvetica,sans-Serif" font-size="10.00">std::string</text>
</a>
</g>
</g>
<!-- Node5&#45;&gt;Node1 -->
<g id="edge4" class="edge"><title>Node5&#45;&gt;Node1</title>
<path fill="none" stroke="#9a32cd" stroke-dasharray="5,2" d="M177.061,-127.453C170.822,-116.263 162.715,-101.397 156,-88 145.039,-66.1325 144.652,-59.5068 133,-38 129.622,-31.766 125.372,-25.016 121.967,-19.8245"/>
<polygon fill="#9a32cd" stroke="#9a32cd" points="174.032,-129.207 181.982,-136.211 180.135,-125.778 174.032,-129.207"/>
<text text-anchor="middle" x="189" y="-75.5" font-family="Helvetica,sans-Serif" font-size="10.00"> m_bulletName</text>
</g>
<!-- Node6 -->
<g id="node6" class="node"><title>Node6</title>
<g id="a_node6"><a xlink:href="class_sound_properties.html" target="_top" xlink:title="SoundProperties">
<polygon fill="white" stroke="black" points="231.5,-68.5 231.5,-87.5 320.5,-87.5 320.5,-68.5 231.5,-68.5"/>
<text text-anchor="middle" x="276" y="-75.5" font-family="Helvetica,sans-Serif" font-size="10.00">SoundProperties</text>
</a>
</g>
</g>
<!-- Node5&#45;&gt;Node6 -->
<g id="edge6" class="edge"><title>Node5&#45;&gt;Node6</title>
<path fill="none" stroke="#9a32cd" stroke-dasharray="5,2" d="M207.098,-130.096C224.756,-117.001 249.836,-98.4028 264.362,-87.6305"/>
<polygon fill="#9a32cd" stroke="#9a32cd" points="204.583,-127.604 198.635,-136.372 208.752,-133.226 204.583,-127.604"/>
<text text-anchor="middle" x="261.5" y="-109.5" font-family="Helvetica,sans-Serif" font-size="10.00"> m_sound</text>
</g>
<!-- Node6&#45;&gt;Node1 -->
<g id="edge5" class="edge"><title>Node6&#45;&gt;Node1</title>
<path fill="none" stroke="#9a32cd" stroke-dasharray="5,2" d="M245.784,-64.5361C213.868,-51.3706 164.406,-30.9673 136.669,-19.5259"/>
<polygon fill="#9a32cd" stroke="#9a32cd" points="244.504,-67.7938 255.083,-68.3717 247.173,-61.3227 244.504,-67.7938"/>
<text text-anchor="middle" x="240" y="-41.5" font-family="Helvetica,sans-Serif" font-size="10.00"> m_fireSound</text>
</g>
</g>
</svg>
