<?xml version="1.0" encoding="UTF-8" standalone="no"?>
<!DOCTYPE svg PUBLIC "-//W3C//DTD SVG 1.1//EN"
 "http://www.w3.org/Graphics/SVG/1.1/DTD/svg11.dtd">
<!-- Generated by graphviz version 2.36.0 (20140111.2315)
 -->
<!-- Title: AiTask Pages: 1 -->
<svg width="394pt" height="84pt"
 viewBox="0.00 0.00 394.00 84.00" xmlns="http://www.w3.org/2000/svg" xmlns:xlink="http://www.w3.org/1999/xlink">
<g id="graph0" class="graph" transform="scale(1 1) rotate(0) translate(4 80)">
<title>AiTask</title>
<polygon fill="white" stroke="none" points="-4,4 -4,-80 390,-80 390,4 -4,4"/>
<!-- Node1 -->
<g id="node1" class="node"><title>Node1</title>
<polygon fill="#bfbfbf" stroke="black" points="157.5,-56.5 157.5,-75.5 204.5,-75.5 204.5,-56.5 157.5,-56.5"/>
<text text-anchor="middle" x="181" y="-63.5" font-family="Helvetica,sans-Serif" font-size="10.00">AiTask</text>
</g>
<!-- Node2 -->
<g id="node2" class="node"><title>Node2</title>
<g id="a_node2"><a xlink:href="class_direct_suicide_task.html" target="_top" xlink:title="DirectSuicideTask">
<polygon fill="white" stroke="black" points="-0.5,-0.5 -0.5,-19.5 94.5,-19.5 94.5,-0.5 -0.5,-0.5"/>
<text text-anchor="middle" x="47" y="-7.5" font-family="Helvetica,sans-Serif" font-size="10.00">DirectSuicideTask</text>
</a>
</g>
</g>
<!-- Node1&#45;&gt;Node2 -->
<g id="edge1" class="edge"><title>Node1&#45;&gt;Node2</title>
<path fill="none" stroke="midnightblue" d="M150.323,-52.6377C125.177,-42.504 90.2459,-28.4274 68.1334,-19.5164"/>
<polygon fill="midnightblue" stroke="midnightblue" points="149.184,-55.952 159.767,-56.4435 151.8,-49.4594 149.184,-55.952"/>
</g>
<!-- Node3 -->
<g id="node3" class="node"><title>Node3</title>
<g id="a_node3"><a xlink:href="class_fight_task.html" target="_top" xlink:title="FightTask">
<polygon fill="white" stroke="black" points="112.5,-0.5 112.5,-19.5 171.5,-19.5 171.5,-0.5 112.5,-0.5"/>
<text text-anchor="middle" x="142" y="-7.5" font-family="Helvetica,sans-Serif" font-size="10.00">FightTask</text>
</a>
</g>
</g>
<!-- Node1&#45;&gt;Node3 -->
<g id="edge2" class="edge"><title>Node1&#45;&gt;Node3</title>
<path fill="none" stroke="midnightblue" d="M168.618,-47.8554C161.865,-38.5048 153.791,-27.3265 148.32,-19.7511"/>
<polygon fill="midnightblue" stroke="midnightblue" points="165.868,-50.0254 174.56,-56.083 171.542,-45.927 165.868,-50.0254"/>
</g>
<!-- Node4 -->
<g id="node4" class="node"><title>Node4</title>
<g id="a_node4"><a xlink:href="class_fly_to_task.html" target="_top" xlink:title="FlyToTask">
<polygon fill="white" stroke="black" points="190,-0.5 190,-19.5 252,-19.5 252,-0.5 190,-0.5"/>
<text text-anchor="middle" x="221" y="-7.5" font-family="Helvetica,sans-Serif" font-size="10.00">FlyToTask</text>
</a>
</g>
</g>
<!-- Node1&#45;&gt;Node4 -->
<g id="edge3" class="edge"><title>Node1&#45;&gt;Node4</title>
<path fill="none" stroke="midnightblue" d="M193.7,-47.8554C200.626,-38.5048 208.906,-27.3265 214.518,-19.7511"/>
<polygon fill="midnightblue" stroke="midnightblue" points="190.745,-45.9641 187.605,-56.083 196.37,-50.1307 190.745,-45.9641"/>
</g>
<!-- Node5 -->
<g id="node5" class="node"><title>Node5</title>
<g id="a_node5"><a xlink:href="class_formation_member_task.html" target="_top" xlink:title="FormationMemberTask">
<polygon fill="white" stroke="black" points="270,-0.5 270,-19.5 386,-19.5 386,-0.5 270,-0.5"/>
<text text-anchor="middle" x="328" y="-7.5" font-family="Helvetica,sans-Serif" font-size="10.00">FormationMemberTask</text>
</a>
</g>
</g>
<!-- Node1&#45;&gt;Node5 -->
<g id="edge4" class="edge"><title>Node1&#45;&gt;Node5</title>
<path fill="none" stroke="midnightblue" d="M213.923,-52.9058C241.56,-42.7536 280.344,-28.5063 304.816,-19.5164"/>
<polygon fill="midnightblue" stroke="midnightblue" points="212.472,-49.71 204.293,-56.4435 214.886,-56.2806 212.472,-49.71"/>
</g>
</g>
</svg>
