<?xml version="1.0" encoding="UTF-8" standalone="no"?>
<!DOCTYPE svg PUBLIC "-//W3C//DTD SVG 1.1//EN"
 "http://www.w3.org/Graphics/SVG/1.1/DTD/svg11.dtd">
<!-- Generated by graphviz version 2.36.0 (20140111.2315)
 -->
<!-- Title: WorldTreeGeode Pages: 1 -->
<!--zoomable 327 -->
<svg id="main" version="1.1" xmlns="http://www.w3.org/2000/svg" xmlns:xlink="http://www.w3.org/1999/xlink" xml:space="preserve" onload="init(evt)">
<style type="text/css"><![CDATA[
.edge:hover path { stroke: red; }
.edge:hover polygon { stroke: red; fill: red; }
]]></style>
<script type="text/javascript"><![CDATA[
var edges = document.getElementsByTagName('g');
if (edges && edges.length) {
  for (var i=0;i<edges.length;i++) {
    if (edges[i].id.substr(0,4)=='edge') {
      edges[i].setAttribute('class','edge');
    }
  }
}
]]></script>
        <defs>
                <circle id="rim" cx="0" cy="0" r="7"/>
                <circle id="rim2" cx="0" cy="0" r="3.5"/>
                <g id="zoomPlus">
                        <use xlink:href="#rim" fill="#404040">
                                <set attributeName="fill" to="#808080" begin="zoomplus.mouseover" end="zoomplus.mouseout"/>
                        </use>
                        <path d="M-4,0h8M0,-4v8" fill="none" stroke="white" stroke-width="1.5" pointer-events="none"/>
                </g>
                <g id="zoomMin">
                        <use xlink:href="#rim" fill="#404040">
                                <set attributeName="fill" to="#808080" begin="zoomminus.mouseover" end="zoomminus.mouseout"/>
                        </use>
                        <path d="M-4,0h8" fill="none" stroke="white" stroke-width="1.5" pointer-events="none"/>
                </g>
                <g id="dirArrow">
                        <path fill="none" stroke="white" stroke-width="1.5" d="M0,-3.0v7 M-2.5,-0.5L0,-3.0L2.5,-0.5"/>
                </g>
               <g id="resetDef">
                       <use xlink:href="#rim2" fill="#404040">
                               <set attributeName="fill" to="#808080" begin="reset.mouseover" end="reset.mouseout"/>
                       </use>
               </g>
        </defs>

<script type="text/javascript">
var viewWidth = 1264;
var viewHeight = 327;
var sectionId = 'dynsection-0';
</script>
<script xlink:href="svgpan.js"/>
<svg id="graph" class="graph">
<g id="viewport">
<title>WorldTreeGeode</title>
<polygon fill="white" stroke="none" points="-4,4 -4,-323 1260,-323 1260,4 -4,4"/>
<!-- Node1 -->
<g id="node1" class="node"><title>Node1</title>
<polygon fill="#bfbfbf" stroke="black" points="452.5,-166.5 452.5,-185.5 541.5,-185.5 541.5,-166.5 452.5,-166.5"/>
<text text-anchor="middle" x="497" y="-173.5" font-family="Helvetica,sans-Serif" font-size="10.00">WorldTreeGeode</text>
</g>
<!-- Node5 -->
<g id="node5" class="node"><title>Node5</title>
<polygon fill="white" stroke="#bfbfbf" points="622,-201.5 622,-220.5 768,-220.5 768,-201.5 622,-201.5"/>
<text text-anchor="middle" x="695" y="-208.5" font-family="Helvetica,sans-Serif" font-size="10.00">std::list&lt; WorldTreeGeode * &gt;</text>
</g>
<!-- Node1&#45;&gt;Node5 -->
<g id="edge8" class="edge"><title>Node1&#45;&gt;Node5</title>
<path fill="none" stroke="#9a32cd" stroke-dasharray="5,2" d="M551.891,-185.623C579.562,-190.565 613.162,-196.565 640.742,-201.49"/>
<polygon fill="#9a32cd" stroke="#9a32cd" points="552.446,-182.167 541.986,-183.855 551.215,-189.058 552.446,-182.167"/>
<text text-anchor="middle" x="582" y="-198" font-family="Helvetica,sans-Serif" font-size="10.00"> elements</text>
</g>
<!-- Node2 -->
<g id="node2" class="node"><title>Node2</title>
<g id="a_node2"><a xlink:href="class_world_tree_node.html" target="_top" xlink:title="WorldTreeNode">
<polygon fill="white" stroke="black" points="896.5,-201.5 896.5,-220.5 979.5,-220.5 979.5,-201.5 896.5,-201.5"/>
<text text-anchor="middle" x="938" y="-208.5" font-family="Helvetica,sans-Serif" font-size="10.00">WorldTreeNode</text>
</a>
</g>
</g>
<!-- Node2&#45;&gt;Node1 -->
<g id="edge1" class="edge"><title>Node2&#45;&gt;Node1</title>
<path fill="none" stroke="#9a32cd" stroke-dasharray="5,2" d="M886.283,-199.848C852.868,-193.033 808.048,-184.901 768,-181 688.441,-173.25 595.091,-173.606 541.611,-174.707"/>
<polygon fill="#9a32cd" stroke="#9a32cd" points="885.767,-203.315 896.269,-201.914 887.185,-196.46 885.767,-203.315"/>
<text text-anchor="middle" x="695" y="-184" font-family="Helvetica,sans-Serif" font-size="10.00"> m_containingNode</text>
</g>
<!-- Node2&#45;&gt;Node2 -->
<g id="edge2" class="edge"><title>Node2&#45;&gt;Node2</title>
<path fill="none" stroke="#9a32cd" stroke-dasharray="5,2" d="M919.112,-230.4C920.373,-235.315 926.669,-239 938,-239 956.129,-239 961.369,-229.565 953.721,-220.757"/>
<polygon fill="#9a32cd" stroke="#9a32cd" points="922.484,-231.35 922.279,-220.757 915.833,-229.166 922.484,-231.35"/>
<text text-anchor="middle" x="938" y="-242" font-family="Helvetica,sans-Serif" font-size="10.00"> m_parent</text>
</g>
<!-- Node3 -->
<g id="node3" class="node"><title>Node3</title>
<polygon fill="white" stroke="#bfbfbf" points="1109,-149.5 1109,-168.5 1249,-168.5 1249,-149.5 1109,-149.5"/>
<text text-anchor="middle" x="1179" y="-156.5" font-family="Helvetica,sans-Serif" font-size="10.00">std::list&lt; WorldTreeNode * &gt;</text>
</g>
<!-- Node2&#45;&gt;Node3 -->
<g id="edge4" class="edge"><title>Node2&#45;&gt;Node3</title>
<path fill="none" stroke="#9a32cd" stroke-dasharray="5,2" d="M989.478,-200.017C1032.31,-190.698 1093.14,-177.463 1134.01,-168.571"/>
<polygon fill="#9a32cd" stroke="#9a32cd" points="988.57,-196.633 979.543,-202.179 990.059,-203.473 988.57,-196.633"/>
<text text-anchor="middle" x="1041" y="-201" font-family="Helvetica,sans-Serif" font-size="10.00"> elements</text>
</g>
<!-- Node4 -->
<g id="node4" class="node"><title>Node4</title>
<polygon fill="white" stroke="#bfbfbf" points="1102.5,-234.5 1102.5,-253.5 1255.5,-253.5 1255.5,-234.5 1102.5,-234.5"/>
<text text-anchor="middle" x="1179" y="-241.5" font-family="Helvetica,sans-Serif" font-size="10.00">std::vector&lt; WorldTreeNode * &gt;</text>
</g>
<!-- Node2&#45;&gt;Node4 -->
<g id="edge6" class="edge"><title>Node2&#45;&gt;Node4</title>
<path fill="none" stroke="#9a32cd" stroke-dasharray="5,2" d="M990.039,-215.198C1017.88,-217.76 1052.92,-221.425 1084,-226 1099.78,-228.323 1116.95,-231.435 1132.24,-234.417"/>
<polygon fill="#9a32cd" stroke="#9a32cd" points="990.017,-211.682 979.743,-214.27 989.388,-218.653 990.017,-211.682"/>
<text text-anchor="middle" x="1041" y="-229" font-family="Helvetica,sans-Serif" font-size="10.00"> elements</text>
</g>
<!-- Node3&#45;&gt;Node1 -->
<g id="edge10" class="edge"><title>Node3&#45;&gt;Node1</title>
<path fill="none" stroke="#9a32cd" stroke-dasharray="5,2" d="M1117.41,-147.89C1106.33,-146.27 1094.85,-144.86 1084,-144 1045.9,-140.979 1036.2,-142.824 998,-144 829.115,-149.2 628.646,-164.933 541.761,-172.22"/>
<polygon fill="#9a32cd" stroke="#9a32cd" points="1117.03,-151.372 1127.44,-149.427 1118.09,-144.452 1117.03,-151.372"/>
<text text-anchor="middle" x="832" y="-158" font-family="Helvetica,sans-Serif" font-size="10.00"> m_intersectingLeafs</text>
</g>
<!-- Node3&#45;&gt;Node2 -->
<g id="edge3" class="edge"><title>Node3&#45;&gt;Node2</title>
<path fill="none" stroke="#9a32cd" stroke-dasharray="5,2" d="M1111.37,-148.548C1076.54,-145.738 1033.81,-146.553 998,-160 975.945,-168.281 956.614,-188.866 946.494,-201.203"/>
<polygon fill="#9a32cd" stroke="#9a32cd" points="1111.16,-152.044 1121.44,-149.478 1111.8,-145.073 1111.16,-152.044"/>
<text text-anchor="middle" x="1041" y="-163" font-family="Helvetica,sans-Serif" font-size="10.00"> m_activeSubnodes</text>
</g>
<!-- Node4&#45;&gt;Node2 -->
<g id="edge5" class="edge"><title>Node4&#45;&gt;Node2</title>
<path fill="none" stroke="#9a32cd" stroke-dasharray="5,2" d="M1092.15,-248.813C1062.02,-248.616 1028.18,-246.24 998,-239 982.565,-235.297 966.366,-227.27 954.856,-220.756"/>
<polygon fill="#9a32cd" stroke="#9a32cd" points="1092.22,-252.313 1102.21,-248.8 1092.21,-245.313 1092.22,-252.313"/>
<text text-anchor="middle" x="1041" y="-251" font-family="Helvetica,sans-Serif" font-size="10.00"> m_subnodes</text>
</g>
<!-- Node5&#45;&gt;Node2 -->
<g id="edge7" class="edge"><title>Node5&#45;&gt;Node2</title>
<path fill="none" stroke="#9a32cd" stroke-dasharray="5,2" d="M778.533,-211C818.27,-211 864.144,-211 896.275,-211"/>
<polygon fill="#9a32cd" stroke="#9a32cd" points="778.308,-207.5 768.308,-211 778.308,-214.5 778.308,-207.5"/>
<text text-anchor="middle" x="832" y="-214" font-family="Helvetica,sans-Serif" font-size="10.00"> m_geodes</text>
</g>
<!-- Node6 -->
<g id="node6" class="node"><title>Node6</title>
<g id="a_node6"><a xlink:href="class_t_a_a_b_b.html" target="_top" xlink:title="TAABB\&lt; int \&gt;">
<polygon fill="white" stroke="red" points="270.5,-218.5 270.5,-237.5 347.5,-237.5 347.5,-218.5 270.5,-218.5"/>
<text text-anchor="middle" x="309" y="-225.5" font-family="Helvetica,sans-Serif" font-size="10.00">TAABB&lt; int &gt;</text>
</a>
</g>
</g>
<!-- Node6&#45;&gt;Node1 -->
<g id="edge20" class="edge"><title>Node6&#45;&gt;Node1</title>
<path fill="none" stroke="#9a32cd" stroke-dasharray="5,2" d="M353.952,-215.712C386.931,-206.493 431.437,-194.05 461.787,-185.565"/>
<polygon fill="#9a32cd" stroke="#9a32cd" points="352.804,-212.399 344.115,-218.462 354.688,-219.141 352.804,-212.399"/>
<text text-anchor="middle" x="400" y="-215" font-family="Helvetica,sans-Serif" font-size="10.00"> m_aabb</text>
</g>
<!-- Node6&#45;&gt;Node2 -->
<g id="edge9" class="edge"><title>Node6&#45;&gt;Node2</title>
<path fill="none" stroke="#9a32cd" stroke-dasharray="5,2" d="M357.874,-228.919C441.218,-230.36 618.378,-232.72 768,-230 816.913,-229.111 829.576,-232.955 878,-226 886.788,-224.738 896.161,-222.689 904.789,-220.506"/>
<polygon fill="#9a32cd" stroke="#9a32cd" points="357.765,-225.416 347.704,-228.739 357.641,-232.415 357.765,-225.416"/>
<text text-anchor="middle" x="582" y="-235" font-family="Helvetica,sans-Serif" font-size="10.00"> m_aabb</text>
</g>
<!-- Node7 -->
<g id="node7" class="node"><title>Node7</title>
<g id="a_node7"><a xlink:href="class_world_object.html" target="_top" xlink:title="WorldObject">
<polygon fill="white" stroke="black" points="273.5,-166.5 273.5,-185.5 344.5,-185.5 344.5,-166.5 273.5,-166.5"/>
<text text-anchor="middle" x="309" y="-173.5" font-family="Helvetica,sans-Serif" font-size="10.00">WorldObject</text>
</a>
</g>
</g>
<!-- Node7&#45;&gt;Node1 -->
<g id="edge11" class="edge"><title>Node7&#45;&gt;Node1</title>
<path fill="none" stroke="#9a32cd" stroke-dasharray="5,2" d="M354.629,-176C384.282,-176 423.027,-176 452.455,-176"/>
<polygon fill="#9a32cd" stroke="#9a32cd" points="354.549,-172.5 344.549,-176 354.549,-179.5 354.549,-172.5"/>
<text text-anchor="middle" x="400" y="-179" font-family="Helvetica,sans-Serif" font-size="10.00"> m_worldObject</text>
</g>
<!-- Node8 -->
<g id="node8" class="node"><title>Node8</title>
<g id="a_node8"><a xlink:href="class_voxel_cluster.html" target="_top" xlink:title="VoxelCluster">
<polygon fill="white" stroke="red" points="36,-299.5 36,-318.5 108,-318.5 108,-299.5 36,-299.5"/>
<text text-anchor="middle" x="72" y="-306.5" font-family="Helvetica,sans-Serif" font-size="10.00">VoxelCluster</text>
</a>
</g>
</g>
<!-- Node8&#45;&gt;Node7 -->
<g id="edge12" class="edge"><title>Node8&#45;&gt;Node7</title>
<path fill="none" stroke="midnightblue" d="M118.143,-315.375C158.311,-318.362 216.103,-315.66 252,-283 277.036,-260.221 252.39,-237.906 270,-209 275.728,-199.598 285.023,-191.457 292.986,-185.613"/>
<polygon fill="midnightblue" stroke="midnightblue" points="118.35,-311.879 108.079,-314.481 117.731,-318.852 118.35,-311.879"/>
</g>
<!-- Node9 -->
<g id="node9" class="node"><title>Node9</title>
<g id="a_node9"><a xlink:href="class_voxel.html" target="_top" xlink:title="Voxel">
<polygon fill="white" stroke="red" points="51.5,-261.5 51.5,-280.5 92.5,-280.5 92.5,-261.5 51.5,-261.5"/>
<text text-anchor="middle" x="72" y="-268.5" font-family="Helvetica,sans-Serif" font-size="10.00">Voxel</text>
</a>
</g>
</g>
<!-- Node9&#45;&gt;Node7 -->
<g id="edge13" class="edge"><title>Node9&#45;&gt;Node7</title>
<path fill="none" stroke="#9a32cd" stroke-dasharray="5,2" d="M103.053,-272.561C141.027,-273.048 206.862,-268.802 252,-238 264.53,-229.449 260.163,-220.548 270,-209 277.479,-200.22 287.349,-191.721 295.155,-185.547"/>
<polygon fill="#9a32cd" stroke="#9a32cd" points="102.754,-269.052 92.6691,-272.299 102.578,-276.05 102.754,-269.052"/>
<text text-anchor="middle" x="207" y="-271" font-family="Helvetica,sans-Serif" font-size="10.00"> m_crucialVoxel</text>
</g>
<!-- Node10 -->
<g id="node10" class="node"><title>Node10</title>
<polygon fill="white" stroke="#bfbfbf" points="0.5,-223.5 0.5,-242.5 143.5,-242.5 143.5,-223.5 0.5,-223.5"/>
<text text-anchor="middle" x="72" y="-230.5" font-family="Helvetica,sans-Serif" font-size="10.00">std::unique_ptr&lt; ObjectInfo &gt;</text>
</g>
<!-- Node10&#45;&gt;Node7 -->
<g id="edge14" class="edge"><title>Node10&#45;&gt;Node7</title>
<path fill="none" stroke="#9a32cd" stroke-dasharray="5,2" d="M153.745,-224.415C184.913,-219.823 220.567,-212.988 252,-203 265.784,-198.62 280.481,-191.428 291.359,-185.567"/>
<polygon fill="#9a32cd" stroke="#9a32cd" points="153.203,-220.957 143.794,-225.828 154.187,-227.887 153.203,-220.957"/>
<text text-anchor="middle" x="207" y="-226" font-family="Helvetica,sans-Serif" font-size="10.00"> m_objectInfo</text>
</g>
<!-- Node11 -->
<g id="node11" class="node"><title>Node11</title>
<g id="a_node11"><a xlink:href="class_handle.html" target="_top" xlink:title="Handle\&lt; WorldObject \&gt;">
<polygon fill="white" stroke="black" points="12.5,-185.5 12.5,-204.5 131.5,-204.5 131.5,-185.5 12.5,-185.5"/>
<text text-anchor="middle" x="72" y="-192.5" font-family="Helvetica,sans-Serif" font-size="10.00">Handle&lt; WorldObject &gt;</text>
</a>
</g>
</g>
<!-- Node11&#45;&gt;Node7 -->
<g id="edge15" class="edge"><title>Node11&#45;&gt;Node7</title>
<path fill="none" stroke="#9a32cd" stroke-dasharray="5,2" d="M141.859,-189.433C185.04,-185.941 238.863,-181.59 273.333,-178.803"/>
<polygon fill="#9a32cd" stroke="#9a32cd" points="141.38,-185.96 131.694,-190.255 141.944,-192.937 141.38,-185.96"/>
<text text-anchor="middle" x="207" y="-191" font-family="Helvetica,sans-Serif" font-size="10.00"> m_handle</text>
</g>
<!-- Node12 -->
<g id="node12" class="node"><title>Node12</title>
<polygon fill="white" stroke="#bfbfbf" points="5,-147.5 5,-166.5 139,-166.5 139,-147.5 5,-147.5"/>
<text text-anchor="middle" x="72" y="-154.5" font-family="Helvetica,sans-Serif" font-size="10.00">std::unique_ptr&lt; Physics &gt;</text>
</g>
<!-- Node12&#45;&gt;Node7 -->
<g id="edge16" class="edge"><title>Node12&#45;&gt;Node7</title>
<path fill="none" stroke="#9a32cd" stroke-dasharray="5,2" d="M149.183,-158.705C181.033,-159.969 218.385,-162.169 252,-166 258.967,-166.794 266.377,-167.917 273.448,-169.125"/>
<polygon fill="#9a32cd" stroke="#9a32cd" points="149.171,-155.202 139.047,-158.327 148.91,-162.197 149.171,-155.202"/>
<text text-anchor="middle" x="207" y="-169" font-family="Helvetica,sans-Serif" font-size="10.00"> m_physics</text>
</g>
<!-- Node13 -->
<g id="node13" class="node"><title>Node13</title>
<polygon fill="white" stroke="#bfbfbf" points="8.5,-98 8.5,-128 135.5,-128 135.5,-98 8.5,-98"/>
<text text-anchor="start" x="16.5" y="-116" font-family="Helvetica,sans-Serif" font-size="10.00">std::unique_ptr&lt; Collision</text>
<text text-anchor="middle" x="72" y="-105" font-family="Helvetica,sans-Serif" font-size="10.00">Filter &gt;</text>
</g>
<!-- Node13&#45;&gt;Node7 -->
<g id="edge17" class="edge"><title>Node13&#45;&gt;Node7</title>
<path fill="none" stroke="#9a32cd" stroke-dasharray="5,2" d="M145.659,-120.474C178.752,-125.268 218.031,-132.936 252,-145 267.079,-150.355 282.913,-159.494 293.881,-166.466"/>
<polygon fill="#9a32cd" stroke="#9a32cd" points="145.986,-116.986 135.599,-119.077 145.023,-123.919 145.986,-116.986"/>
<text text-anchor="middle" x="207" y="-148" font-family="Helvetica,sans-Serif" font-size="10.00"> m_collisionFilter</text>
</g>
<!-- Node14 -->
<g id="node14" class="node"><title>Node14</title>
<polygon fill="white" stroke="#bfbfbf" points="8.5,-49 8.5,-79 135.5,-79 135.5,-49 8.5,-49"/>
<text text-anchor="start" x="16.5" y="-67" font-family="Helvetica,sans-Serif" font-size="10.00">std::unique_ptr&lt; Collision</text>
<text text-anchor="middle" x="72" y="-56" font-family="Helvetica,sans-Serif" font-size="10.00">Detector &gt;</text>
</g>
<!-- Node14&#45;&gt;Node7 -->
<g id="edge18" class="edge"><title>Node14&#45;&gt;Node7</title>
<path fill="none" stroke="#9a32cd" stroke-dasharray="5,2" d="M145.563,-71.7026C179.845,-77.8815 220.133,-89.0015 252,-109 275.37,-123.666 293.815,-151.343 302.526,-166.118"/>
<polygon fill="#9a32cd" stroke="#9a32cd" points="146.045,-68.2344 135.601,-70.0134 144.875,-75.1359 146.045,-68.2344"/>
<text text-anchor="middle" x="207" y="-112" font-family="Helvetica,sans-Serif" font-size="10.00"> m_collisionDetector</text>
</g>
<!-- Node15 -->
<g id="node15" class="node"><title>Node15</title>
<polygon fill="white" stroke="#bfbfbf" points="0,-0 0,-30 144,-30 144,-0 0,-0"/>
<text text-anchor="start" x="8" y="-18" font-family="Helvetica,sans-Serif" font-size="10.00">std::unique_ptr&lt; WorldObject</text>
<text text-anchor="middle" x="72" y="-7" font-family="Helvetica,sans-Serif" font-size="10.00">Components &gt;</text>
</g>
<!-- Node15&#45;&gt;Node7 -->
<g id="edge19" class="edge"><title>Node15&#45;&gt;Node7</title>
<path fill="none" stroke="#9a32cd" stroke-dasharray="5,2" d="M154.476,-21.0237C187.691,-27.0265 224.631,-38.659 252,-61 286.578,-89.2253 301.38,-144.022 306.144,-166.265"/>
<polygon fill="#9a32cd" stroke="#9a32cd" points="154.74,-17.5198 144.302,-19.3359 153.595,-24.4254 154.74,-17.5198"/>
<text text-anchor="middle" x="207" y="-64" font-family="Helvetica,sans-Serif" font-size="10.00"> m_components</text>
</g>
</g>
</svg>
        <g id="navigator" transform="translate(0 0)" fill="#404254">
                <rect fill="#f2f5e9" fill-opacity="0.5" stroke="#606060" stroke-width=".5" x="0" y="0" width="60" height="60"/>
                <use id="zoomplus" xlink:href="#zoomPlus" x="17" y="9" onmousedown="handleZoom(evt,'in')"/>
                <use id="zoomminus" xlink:href="#zoomMin" x="42" y="9" onmousedown="handleZoom(evt,'out')"/>
                <use id="reset" xlink:href="#resetDef" x="30" y="36" onmousedown="handleReset()"/>
                <g id="arrowUp" xlink:href="#dirArrow" transform="translate(30 24)" onmousedown="handlePan(0,-1)">
                  <use xlink:href="#rim" fill="#404040">
                        <set attributeName="fill" to="#808080" begin="arrowUp.mouseover" end="arrowUp.mouseout"/>
                  </use>
                  <path fill="none" stroke="white" stroke-width="1.5" d="M0,-3.0v7 M-2.5,-0.5L0,-3.0L2.5,-0.5"/>
                </g>
                <g id="arrowRight" xlink:href="#dirArrow" transform="rotate(90) translate(36 -43)" onmousedown="handlePan(1,0)">
                  <use xlink:href="#rim" fill="#404040">
                        <set attributeName="fill" to="#808080" begin="arrowRight.mouseover" end="arrowRight.mouseout"/>
                  </use>
                  <path fill="none" stroke="white" stroke-width="1.5" d="M0,-3.0v7 M-2.5,-0.5L0,-3.0L2.5,-0.5"/>
                </g>
                <g id="arrowDown" xlink:href="#dirArrow" transform="rotate(180) translate(-30 -48)" onmousedown="handlePan(0,1)">
                  <use xlink:href="#rim" fill="#404040">
                        <set attributeName="fill" to="#808080" begin="arrowDown.mouseover" end="arrowDown.mouseout"/>
                  </use>
                  <path fill="none" stroke="white" stroke-width="1.5" d="M0,-3.0v7 M-2.5,-0.5L0,-3.0L2.5,-0.5"/>
                </g>
                <g id="arrowLeft" xlink:href="#dirArrow" transform="rotate(270) translate(-36 17)" onmousedown="handlePan(-1,0)">
                  <use xlink:href="#rim" fill="#404040">
                        <set attributeName="fill" to="#808080" begin="arrowLeft.mouseover" end="arrowLeft.mouseout"/>
                  </use>
                  <path fill="none" stroke="white" stroke-width="1.5" d="M0,-3.0v7 M-2.5,-0.5L0,-3.0L2.5,-0.5"/>
                </g>
        </g>
        <svg viewBox="0 0 15 15" width="100%" height="30px" preserveAspectRatio="xMaxYMin meet">
         <g id="arrow_out" transform="scale(0.3 0.3)">
          <a xlink:href="class_world_tree_geode__coll__graph_org.svg" target="_base">
           <rect id="button" ry="5" rx="5" y="6" x="6" height="38" width="38"
                fill="#f2f5e9" fill-opacity="0.5" stroke="#606060" stroke-width="1.0"/>
           <path id="arrow"
             d="M 11.500037,31.436501 C 11.940474,20.09759 22.043105,11.32322 32.158766,21.979434 L 37.068811,17.246167 C 37.068811,17.246167 37.088388,32 37.088388,32 L 22.160133,31.978069 C 22.160133,31.978069 26.997745,27.140456 26.997745,27.140456 C 18.528582,18.264221 13.291696,25.230495 11.500037,31.436501 z"
             style="fill:#404040;"/>
          </a>
         </g>
        </svg>
</svg>
