<?xml version="1.0" encoding="UTF-8" standalone="no"?>
<!DOCTYPE svg PUBLIC "-//W3C//DTD SVG 1.1//EN"
 "http://www.w3.org/Graphics/SVG/1.1/DTD/svg11.dtd">
<!-- Generated by graphviz version 2.36.0 (20140111.2315)
 -->
<!-- Title: Viewer Pages: 1 -->
<svg width="159pt" height="232pt"
 viewBox="0.00 0.00 159.00 232.00" xmlns="http://www.w3.org/2000/svg" xmlns:xlink="http://www.w3.org/1999/xlink">
<g id="graph0" class="graph" transform="scale(1 1) rotate(0) translate(4 228)">
<title>Viewer</title>
<polygon fill="white" stroke="none" points="-4,4 -4,-228 155,-228 155,4 -4,4"/>
<!-- Node1 -->
<g id="node1" class="node"><title>Node1</title>
<polygon fill="#bfbfbf" stroke="black" points="10,-0.5 10,-19.5 56,-19.5 56,-0.5 10,-0.5"/>
<text text-anchor="middle" x="33" y="-7.5" font-family="Helvetica,sans-Serif" font-size="10.00">Viewer</text>
</g>
<!-- Node2 -->
<g id="node2" class="node"><title>Node2</title>
<polygon fill="white" stroke="#bfbfbf" points="31,-68.5 31,-87.5 151,-87.5 151,-68.5 31,-68.5"/>
<text text-anchor="middle" x="91" y="-75.5" font-family="Helvetica,sans-Serif" font-size="10.00">std::unique_ptr&lt; View &gt;</text>
</g>
<!-- Node2&#45;&gt;Node1 -->
<g id="edge1" class="edge"><title>Node2&#45;&gt;Node1</title>
<path fill="none" stroke="#9a32cd" stroke-dasharray="5,2" d="M76.6582,-60.68C65.319,-47.7768 49.9233,-30.2575 40.7695,-19.8411"/>
<polygon fill="#9a32cd" stroke="#9a32cd" points="74.1872,-63.1704 83.4175,-68.3717 79.4454,-58.5496 74.1872,-63.1704"/>
<text text-anchor="middle" x="84.5" y="-41.5" font-family="Helvetica,sans-Serif" font-size="10.00"> m_view</text>
</g>
<!-- Node3 -->
<g id="node3" class="node"><title>Node3</title>
<g id="a_node3"><a xlink:href="class_view.html" target="_top" xlink:title="View">
<polygon fill="white" stroke="black" points="48,-136.5 48,-155.5 86,-155.5 86,-136.5 48,-136.5"/>
<text text-anchor="middle" x="67" y="-143.5" font-family="Helvetica,sans-Serif" font-size="10.00">View</text>
</a>
</g>
</g>
<!-- Node3&#45;&gt;Node2 -->
<g id="edge2" class="edge"><title>Node3&#45;&gt;Node2</title>
<path fill="none" stroke="#9a32cd" stroke-dasharray="5,2" d="M73.6158,-126.807C78.2275,-114.124 84.1776,-97.7615 87.785,-87.8411"/>
<polygon fill="#9a32cd" stroke="#9a32cd" points="70.2658,-125.778 70.1376,-136.372 76.8444,-128.17 70.2658,-125.778"/>
<text text-anchor="middle" x="88.5" y="-109.5" font-family="Helvetica,sans-Serif" font-size="10.00"> ptr</text>
</g>
<!-- Node4 -->
<g id="node4" class="node"><title>Node4</title>
<g id="a_node4"><a xlink:href="class_viewport.html" target="_top" xlink:title="Viewport">
<polygon fill="white" stroke="black" points="0,-204.5 0,-223.5 54,-223.5 54,-204.5 0,-204.5"/>
<text text-anchor="middle" x="27" y="-211.5" font-family="Helvetica,sans-Serif" font-size="10.00">Viewport</text>
</a>
</g>
</g>
<!-- Node4&#45;&gt;Node1 -->
<g id="edge4" class="edge"><title>Node4&#45;&gt;Node1</title>
<path fill="none" stroke="#9a32cd" stroke-dasharray="5,2" d="M24.499,-194.264C21.2193,-166.556 16.4922,-113.067 22,-68 24.1029,-50.7931 28.3456,-30.9773 30.9035,-19.8257"/>
<polygon fill="#9a32cd" stroke="#9a32cd" points="21.0609,-194.976 25.7819,-204.461 28.0062,-194.102 21.0609,-194.976"/>
<text text-anchor="middle" x="45" y="-109.5" font-family="Helvetica,sans-Serif" font-size="10.00"> m_viewport</text>
</g>
<!-- Node4&#45;&gt;Node3 -->
<g id="edge3" class="edge"><title>Node4&#45;&gt;Node3</title>
<path fill="none" stroke="#9a32cd" stroke-dasharray="5,2" d="M37.5679,-195.563C45.3143,-182.781 55.5091,-165.96 61.6417,-155.841"/>
<polygon fill="#9a32cd" stroke="#9a32cd" points="34.4192,-194.006 32.2293,-204.372 40.4056,-197.634 34.4192,-194.006"/>
<text text-anchor="middle" x="76" y="-177.5" font-family="Helvetica,sans-Serif" font-size="10.00"> m_viewport</text>
</g>
</g>
</svg>
