<?xml version="1.0" encoding="UTF-8" standalone="no"?>
<!DOCTYPE svg PUBLIC "-//W3C//DTD SVG 1.1//EN"
 "http://www.w3.org/Graphics/SVG/1.1/DTD/svg11.dtd">
<!-- Generated by graphviz version 2.36.0 (20140111.2315)
 -->
<!-- Title: AiTask Pages: 1 -->
<svg width="190pt" height="164pt"
 viewBox="0.00 0.00 190.00 164.00" xmlns="http://www.w3.org/2000/svg" xmlns:xlink="http://www.w3.org/1999/xlink">
<g id="graph0" class="graph" transform="scale(1 1) rotate(0) translate(4 160)">
<title>AiTask</title>
<polygon fill="white" stroke="none" points="-4,4 -4,-160 186,-160 186,4 -4,4"/>
<!-- Node1 -->
<g id="node1" class="node"><title>Node1</title>
<polygon fill="#bfbfbf" stroke="black" points="57.5,-0.5 57.5,-19.5 104.5,-19.5 104.5,-0.5 57.5,-0.5"/>
<text text-anchor="middle" x="81" y="-7.5" font-family="Helvetica,sans-Serif" font-size="10.00">AiTask</text>
</g>
<!-- Node2 -->
<g id="node2" class="node"><title>Node2</title>
<g id="a_node2"><a xlink:href="class_board_computer.html" target="_top" xlink:title="BoardComputer">
<polygon fill="white" stroke="black" points="39,-68.5 39,-87.5 123,-87.5 123,-68.5 39,-68.5"/>
<text text-anchor="middle" x="81" y="-75.5" font-family="Helvetica,sans-Serif" font-size="10.00">BoardComputer</text>
</a>
</g>
</g>
<!-- Node2&#45;&gt;Node1 -->
<g id="edge1" class="edge"><title>Node2&#45;&gt;Node1</title>
<path fill="none" stroke="#9a32cd" stroke-dasharray="5,2" d="M81,-58.0413C81,-45.4724 81,-29.5631 81,-19.8411"/>
<polygon fill="#9a32cd" stroke="#9a32cd" points="77.5001,-58.3716 81,-68.3717 84.5001,-58.3717 77.5001,-58.3716"/>
<text text-anchor="middle" x="122.5" y="-41.5" font-family="Helvetica,sans-Serif" font-size="10.00"> m_boardComputer</text>
</g>
<!-- Node3 -->
<g id="node3" class="node"><title>Node3</title>
<g id="a_node3"><a xlink:href="class_world_object.html" target="_top" xlink:title="WorldObject">
<polygon fill="white" stroke="red" points="-0.5,-136.5 -0.5,-155.5 70.5,-155.5 70.5,-136.5 -0.5,-136.5"/>
<text text-anchor="middle" x="35" y="-143.5" font-family="Helvetica,sans-Serif" font-size="10.00">WorldObject</text>
</a>
</g>
</g>
<!-- Node3&#45;&gt;Node2 -->
<g id="edge2" class="edge"><title>Node3&#45;&gt;Node2</title>
<path fill="none" stroke="#9a32cd" stroke-dasharray="5,2" d="M32.467,-125.94C32.4507,-119.232 33.4964,-111.901 37,-106 41.8503,-97.8313 50.2277,-91.7982 58.3796,-87.5327"/>
<polygon fill="#9a32cd" stroke="#9a32cd" points="29.0047,-126.572 33.2505,-136.279 35.9847,-126.043 29.0047,-126.572"/>
<text text-anchor="middle" x="71" y="-109.5" font-family="Helvetica,sans-Serif" font-size="10.00"> m_worldObject</text>
</g>
<!-- Node4 -->
<g id="node4" class="node"><title>Node4</title>
<g id="a_node4"><a xlink:href="class_abstract_move.html" target="_top" xlink:title="AbstractMove">
<polygon fill="white" stroke="black" points="89,-136.5 89,-155.5 165,-155.5 165,-136.5 89,-136.5"/>
<text text-anchor="middle" x="127" y="-143.5" font-family="Helvetica,sans-Serif" font-size="10.00">AbstractMove</text>
</a>
</g>
</g>
<!-- Node4&#45;&gt;Node2 -->
<g id="edge3" class="edge"><title>Node4&#45;&gt;Node2</title>
<path fill="none" stroke="#9a32cd" stroke-dasharray="5,2" d="M117.998,-127.197C114.281,-120.37 109.735,-112.631 105,-106 100.335,-99.467 94.3348,-92.717 89.5011,-87.6002"/>
<polygon fill="#9a32cd" stroke="#9a32cd" points="115.035,-129.083 122.778,-136.314 121.234,-125.832 115.035,-129.083"/>
<text text-anchor="middle" x="147.5" y="-109.5" font-family="Helvetica,sans-Serif" font-size="10.00"> m_engineState</text>
</g>
</g>
</svg>
