<?xml version="1.0" encoding="UTF-8" standalone="no"?>
<!DOCTYPE svg PUBLIC "-//W3C//DTD SVG 1.1//EN"
 "http://www.w3.org/Graphics/SVG/1.1/DTD/svg11.dtd">
<!-- Generated by graphviz version 2.36.0 (20140111.2315)
 -->
<!-- Title: Damager Pages: 1 -->
<!--zoomable 148 -->
<svg id="main" version="1.1" xmlns="http://www.w3.org/2000/svg" xmlns:xlink="http://www.w3.org/1999/xlink" xml:space="preserve" onload="init(evt)">
<style type="text/css"><![CDATA[
.edge:hover path { stroke: red; }
.edge:hover polygon { stroke: red; fill: red; }
]]></style>
<script type="text/javascript"><![CDATA[
var edges = document.getElementsByTagName('g');
if (edges && edges.length) {
  for (var i=0;i<edges.length;i++) {
    if (edges[i].id.substr(0,4)=='edge') {
      edges[i].setAttribute('class','edge');
    }
  }
}
]]></script>
        <defs>
                <circle id="rim" cx="0" cy="0" r="7"/>
                <circle id="rim2" cx="0" cy="0" r="3.5"/>
                <g id="zoomPlus">
                        <use xlink:href="#rim" fill="#404040">
                                <set attributeName="fill" to="#808080" begin="zoomplus.mouseover" end="zoomplus.mouseout"/>
                        </use>
                        <path d="M-4,0h8M0,-4v8" fill="none" stroke="white" stroke-width="1.5" pointer-events="none"/>
                </g>
                <g id="zoomMin">
                        <use xlink:href="#rim" fill="#404040">
                                <set attributeName="fill" to="#808080" begin="zoomminus.mouseover" end="zoomminus.mouseout"/>
                        </use>
                        <path d="M-4,0h8" fill="none" stroke="white" stroke-width="1.5" pointer-events="none"/>
                </g>
                <g id="dirArrow">
                        <path fill="none" stroke="white" stroke-width="1.5" d="M0,-3.0v7 M-2.5,-0.5L0,-3.0L2.5,-0.5"/>
                </g>
               <g id="resetDef">
                       <use xlink:href="#rim2" fill="#404040">
                               <set attributeName="fill" to="#808080" begin="reset.mouseover" end="reset.mouseout"/>
                       </use>
               </g>
        </defs>

<script type="text/javascript">
var viewWidth = 1006;
var viewHeight = 148;
var sectionId = 'dynsection-0';
</script>
<script xlink:href="svgpan.js"/>
<svg id="graph" class="graph">
<g id="viewport">
<title>Damager</title>
<polygon fill="white" stroke="none" points="-4,4 -4,-144 1002,-144 1002,4 -4,4"/>
<!-- Node1 -->
<g id="node1" class="node"><title>Node1</title>
<polygon fill="#bfbfbf" stroke="black" points="942,-41.5 942,-60.5 998,-60.5 998,-41.5 942,-41.5"/>
<text text-anchor="middle" x="970" y="-48.5" font-family="Helvetica,sans-Serif" font-size="10.00">Damager</text>
</g>
<!-- Node2 -->
<g id="node2" class="node"><title>Node2</title>
<polygon fill="white" stroke="#bfbfbf" points="601,-111.5 601,-130.5 733,-130.5 733,-111.5 601,-111.5"/>
<text text-anchor="middle" x="667" y="-118.5" font-family="Helvetica,sans-Serif" font-size="10.00">std::list&lt; DamageImpact &gt;</text>
</g>
<!-- Node2&#45;&gt;Node1 -->
<g id="edge1" class="edge"><title>Node2&#45;&gt;Node1</title>
<path fill="none" stroke="#9a32cd" stroke-dasharray="5,2" d="M743.314,-117.772C795.526,-113.505 865.843,-103.657 924,-81 936.424,-76.1599 948.91,-67.459 957.568,-60.6695"/>
<polygon fill="#9a32cd" stroke="#9a32cd" points="742.825,-114.299 733.122,-118.553 743.36,-121.279 742.825,-114.299"/>
<text text-anchor="middle" x="848" y="-129" font-family="Helvetica,sans-Serif" font-size="10.00"> m_dampedDeadlyDamageImpacts</text>
<text text-anchor="middle" x="848" y="-118" font-family="Helvetica,sans-Serif" font-size="10.00">m_deadlyDamageImpacts</text>
</g>
<!-- Node3 -->
<g id="node3" class="node"><title>Node3</title>
<g id="a_node3"><a xlink:href="class_damage_impact.html" target="_top" xlink:title="DamageImpact">
<polygon fill="white" stroke="black" points="374,-115.5 374,-134.5 456,-134.5 456,-115.5 374,-115.5"/>
<text text-anchor="middle" x="415" y="-122.5" font-family="Helvetica,sans-Serif" font-size="10.00">DamageImpact</text>
</a>
</g>
</g>
<!-- Node3&#45;&gt;Node2 -->
<g id="edge2" class="edge"><title>Node3&#45;&gt;Node2</title>
<path fill="none" stroke="#9a32cd" stroke-dasharray="5,2" d="M466.64,-124.19C505.249,-123.572 558.726,-122.716 600.576,-122.047"/>
<polygon fill="#9a32cd" stroke="#9a32cd" points="466.11,-120.698 456.167,-124.357 466.222,-127.697 466.11,-120.698"/>
<text text-anchor="middle" x="528" y="-126" font-family="Helvetica,sans-Serif" font-size="10.00"> elements</text>
</g>
<!-- Node4 -->
<g id="node4" class="node"><title>Node4</title>
<g id="a_node4"><a xlink:href="class_voxel.html" target="_top" xlink:title="Voxel">
<polygon fill="white" stroke="red" points="0.5,-76.5 0.5,-95.5 41.5,-95.5 41.5,-76.5 0.5,-76.5"/>
<text text-anchor="middle" x="21" y="-83.5" font-family="Helvetica,sans-Serif" font-size="10.00">Voxel</text>
</a>
</g>
</g>
<!-- Node4&#45;&gt;Node3 -->
<g id="edge3" class="edge"><title>Node4&#45;&gt;Node3</title>
<path fill="none" stroke="#9a32cd" stroke-dasharray="5,2" d="M51.3989,-98.3336C54.2775,-99.3202 57.1772,-100.231 60,-101 178.96,-133.411 212.744,-132.158 336,-129 348.335,-128.684 361.757,-128.087 373.934,-127.449"/>
<polygon fill="#9a32cd" stroke="#9a32cd" points="52.4289,-94.9826 41.836,-94.7814 49.9914,-101.544 52.4289,-94.9826"/>
<text text-anchor="middle" x="184" y="-132" font-family="Helvetica,sans-Serif" font-size="10.00"> m_voxel</text>
</g>
<!-- Node5 -->
<g id="node5" class="node"><title>Node5</title>
<g id="a_node5"><a xlink:href="class_world_object.html" target="_top" xlink:title="WorldObject">
<polygon fill="white" stroke="red" points="148.5,-76.5 148.5,-95.5 219.5,-95.5 219.5,-76.5 148.5,-76.5"/>
<text text-anchor="middle" x="184" y="-83.5" font-family="Helvetica,sans-Serif" font-size="10.00">WorldObject</text>
</a>
</g>
</g>
<!-- Node4&#45;&gt;Node5 -->
<g id="edge5" class="edge"><title>Node4&#45;&gt;Node5</title>
<path fill="none" stroke="#9a32cd" stroke-dasharray="5,2" d="M51.8794,-86C79.2228,-86 119.679,-86 148.412,-86"/>
<polygon fill="#9a32cd" stroke="#9a32cd" points="51.7418,-82.5001 41.7418,-86 51.7417,-89.5001 51.7418,-82.5001"/>
<text text-anchor="middle" x="95" y="-89" font-family="Helvetica,sans-Serif" font-size="10.00"> m_crucialVoxel</text>
</g>
<!-- Node8 -->
<g id="node8" class="node"><title>Node8</title>
<polygon fill="white" stroke="#bfbfbf" points="238,-0.5 238,-19.5 336,-19.5 336,-0.5 238,-0.5"/>
<text text-anchor="middle" x="287" y="-7.5" font-family="Helvetica,sans-Serif" font-size="10.00">std::list&lt; Voxel * &gt;</text>
</g>
<!-- Node4&#45;&gt;Node8 -->
<g id="edge11" class="edge"><title>Node4&#45;&gt;Node8</title>
<path fill="none" stroke="#9a32cd" stroke-dasharray="5,2" d="M51.0076,-74.1642C54.0274,-73.048 57.0648,-71.972 60,-71 123.849,-49.8555 199.598,-30.5557 245.176,-19.5526"/>
<polygon fill="#9a32cd" stroke="#9a32cd" points="49.6488,-70.9368 41.5686,-77.7896 52.1586,-77.4714 49.6488,-70.9368"/>
<text text-anchor="middle" x="95" y="-74" font-family="Helvetica,sans-Serif" font-size="10.00"> elements</text>
</g>
<!-- Node5&#45;&gt;Node3 -->
<g id="edge4" class="edge"><title>Node5&#45;&gt;Node3</title>
<path fill="none" stroke="#9a32cd" stroke-dasharray="5,2" d="M229.791,-95.45C232.566,-95.9878 235.319,-96.5089 238,-97 284.411,-105.503 337.983,-113.812 373.715,-119.14"/>
<polygon fill="#9a32cd" stroke="#9a32cd" points="230.226,-91.9682 219.736,-93.4522 228.862,-98.834 230.226,-91.9682"/>
<text text-anchor="middle" x="287" y="-117" font-family="Helvetica,sans-Serif" font-size="10.00"> m_worldObject</text>
</g>
<!-- Node6 -->
<g id="node6" class="node"><title>Node6</title>
<polygon fill="white" stroke="#bfbfbf" points="595,-59 595,-89 739,-89 739,-59 595,-59"/>
<text text-anchor="start" x="603" y="-77" font-family="Helvetica,sans-Serif" font-size="10.00">std::map&lt; WorldObject</text>
<text text-anchor="middle" x="667" y="-66" font-family="Helvetica,sans-Serif" font-size="10.00"> *, WorldObjectModification &gt;</text>
</g>
<!-- Node5&#45;&gt;Node6 -->
<g id="edge9" class="edge"><title>Node5&#45;&gt;Node6</title>
<path fill="none" stroke="#9a32cd" stroke-dasharray="5,2" d="M229.788,-84.8826C313.507,-82.794 494.323,-78.283 594.885,-75.7742"/>
<polygon fill="#9a32cd" stroke="#9a32cd" points="229.502,-81.3886 219.592,-85.137 229.677,-88.3864 229.502,-81.3886"/>
<text text-anchor="middle" x="415" y="-85" font-family="Helvetica,sans-Serif" font-size="10.00"> keys</text>
</g>
<!-- Node7 -->
<g id="node7" class="node"><title>Node7</title>
<g id="a_node7"><a xlink:href="class_world_object_modification.html" target="_top" xlink:title="WorldObjectModification">
<polygon fill="white" stroke="red" points="354,-30.5 354,-49.5 476,-49.5 476,-30.5 354,-30.5"/>
<text text-anchor="middle" x="415" y="-37.5" font-family="Helvetica,sans-Serif" font-size="10.00">WorldObjectModification</text>
</a>
</g>
</g>
<!-- Node5&#45;&gt;Node7 -->
<g id="edge8" class="edge"><title>Node5&#45;&gt;Node7</title>
<path fill="none" stroke="#9a32cd" stroke-dasharray="5,2" d="M210.646,-71.8682C219.129,-67.752 228.764,-63.6533 238,-61 275.709,-50.1666 319.514,-44.9152 353.988,-42.3728"/>
<polygon fill="#9a32cd" stroke="#9a32cd" points="208.968,-68.7946 201.641,-76.4469 212.141,-75.0344 208.968,-68.7946"/>
<text text-anchor="middle" x="287" y="-64" font-family="Helvetica,sans-Serif" font-size="10.00"> m_worldObject</text>
</g>
<!-- Node6&#45;&gt;Node1 -->
<g id="edge6" class="edge"><title>Node6&#45;&gt;Node1</title>
<path fill="none" stroke="#9a32cd" stroke-dasharray="5,2" d="M749.414,-67.779C813.427,-62.8877 898.735,-56.3691 941.747,-53.0825"/>
<polygon fill="#9a32cd" stroke="#9a32cd" points="749.037,-64.2975 739.333,-68.5493 749.57,-71.2772 749.037,-64.2975"/>
<text text-anchor="middle" x="848" y="-69" font-family="Helvetica,sans-Serif" font-size="10.00"> m_worldObjectModificationMap</text>
</g>
<!-- Node7&#45;&gt;Node6 -->
<g id="edge7" class="edge"><title>Node7&#45;&gt;Node6</title>
<path fill="none" stroke="#9a32cd" stroke-dasharray="5,2" d="M486.479,-49.5851C520.334,-54.1894 560.826,-59.6963 594.778,-64.3137"/>
<polygon fill="#9a32cd" stroke="#9a32cd" points="486.58,-46.0667 476.199,-48.1871 485.636,-53.0029 486.58,-46.0667"/>
<text text-anchor="middle" x="528" y="-63" font-family="Helvetica,sans-Serif" font-size="10.00"> elements</text>
</g>
<!-- Node9 -->
<g id="node9" class="node"><title>Node9</title>
<polygon fill="white" stroke="#bfbfbf" points="580.5,-20.5 580.5,-39.5 753.5,-39.5 753.5,-20.5 580.5,-20.5"/>
<text text-anchor="middle" x="667" y="-27.5" font-family="Helvetica,sans-Serif" font-size="10.00">std::list&lt; WorldObjectModification &gt;</text>
</g>
<!-- Node7&#45;&gt;Node9 -->
<g id="edge13" class="edge"><title>Node7&#45;&gt;Node9</title>
<path fill="none" stroke="#9a32cd" stroke-dasharray="5,2" d="M475.952,-28.9839C482.032,-28.1745 488.128,-27.486 494,-27 521.978,-24.6845 552.6,-24.4739 580.152,-25.1346"/>
<polygon fill="#9a32cd" stroke="#9a32cd" points="475.18,-25.5589 465.779,-30.4458 476.175,-32.4877 475.18,-25.5589"/>
<text text-anchor="middle" x="528" y="-30" font-family="Helvetica,sans-Serif" font-size="10.00"> elements</text>
</g>
<!-- Node8&#45;&gt;Node1 -->
<g id="edge10" class="edge"><title>Node8&#45;&gt;Node1</title>
<path fill="none" stroke="#9a32cd" stroke-dasharray="5,2" d="M346.412,-8.67941C434.709,-7.01038 607.428,-5.02165 754,-11 829.713,-14.0882 851.798,-1.00143 924,-24 935.806,-27.7607 947.769,-35.1458 956.389,-41.2429"/>
<polygon fill="#9a32cd" stroke="#9a32cd" points="346.258,-5.18165 336.328,-8.87564 346.394,-12.1803 346.258,-5.18165"/>
<text text-anchor="middle" x="528" y="-11" font-family="Helvetica,sans-Serif" font-size="10.00"> m_deadVoxels</text>
</g>
<!-- Node9&#45;&gt;Node1 -->
<g id="edge12" class="edge"><title>Node9&#45;&gt;Node1</title>
<path fill="none" stroke="#9a32cd" stroke-dasharray="5,2" d="M763.679,-27.3453C812.011,-27.4306 871.408,-29.7157 924,-38 929.784,-38.911 935.874,-40.338 941.64,-41.9185"/>
<polygon fill="#9a32cd" stroke="#9a32cd" points="763.535,-23.8453 753.54,-27.3591 763.545,-30.8453 763.535,-23.8453"/>
<text text-anchor="middle" x="848" y="-41" font-family="Helvetica,sans-Serif" font-size="10.00"> m_worldObjectModifications</text>
</g>
</g>
</svg>
        <g id="navigator" transform="translate(0 0)" fill="#404254">
                <rect fill="#f2f5e9" fill-opacity="0.5" stroke="#606060" stroke-width=".5" x="0" y="0" width="60" height="60"/>
                <use id="zoomplus" xlink:href="#zoomPlus" x="17" y="9" onmousedown="handleZoom(evt,'in')"/>
                <use id="zoomminus" xlink:href="#zoomMin" x="42" y="9" onmousedown="handleZoom(evt,'out')"/>
                <use id="reset" xlink:href="#resetDef" x="30" y="36" onmousedown="handleReset()"/>
                <g id="arrowUp" xlink:href="#dirArrow" transform="translate(30 24)" onmousedown="handlePan(0,-1)">
                  <use xlink:href="#rim" fill="#404040">
                        <set attributeName="fill" to="#808080" begin="arrowUp.mouseover" end="arrowUp.mouseout"/>
                  </use>
                  <path fill="none" stroke="white" stroke-width="1.5" d="M0,-3.0v7 M-2.5,-0.5L0,-3.0L2.5,-0.5"/>
                </g>
                <g id="arrowRight" xlink:href="#dirArrow" transform="rotate(90) translate(36 -43)" onmousedown="handlePan(1,0)">
                  <use xlink:href="#rim" fill="#404040">
                        <set attributeName="fill" to="#808080" begin="arrowRight.mouseover" end="arrowRight.mouseout"/>
                  </use>
                  <path fill="none" stroke="white" stroke-width="1.5" d="M0,-3.0v7 M-2.5,-0.5L0,-3.0L2.5,-0.5"/>
                </g>
                <g id="arrowDown" xlink:href="#dirArrow" transform="rotate(180) translate(-30 -48)" onmousedown="handlePan(0,1)">
                  <use xlink:href="#rim" fill="#404040">
                        <set attributeName="fill" to="#808080" begin="arrowDown.mouseover" end="arrowDown.mouseout"/>
                  </use>
                  <path fill="none" stroke="white" stroke-width="1.5" d="M0,-3.0v7 M-2.5,-0.5L0,-3.0L2.5,-0.5"/>
                </g>
                <g id="arrowLeft" xlink:href="#dirArrow" transform="rotate(270) translate(-36 17)" onmousedown="handlePan(-1,0)">
                  <use xlink:href="#rim" fill="#404040">
                        <set attributeName="fill" to="#808080" begin="arrowLeft.mouseover" end="arrowLeft.mouseout"/>
                  </use>
                  <path fill="none" stroke="white" stroke-width="1.5" d="M0,-3.0v7 M-2.5,-0.5L0,-3.0L2.5,-0.5"/>
                </g>
        </g>
        <svg viewBox="0 0 15 15" width="100%" height="30px" preserveAspectRatio="xMaxYMin meet">
         <g id="arrow_out" transform="scale(0.3 0.3)">
          <a xlink:href="class_damager__coll__graph_org.svg" target="_base">
           <rect id="button" ry="5" rx="5" y="6" x="6" height="38" width="38"
                fill="#f2f5e9" fill-opacity="0.5" stroke="#606060" stroke-width="1.0"/>
           <path id="arrow"
             d="M 11.500037,31.436501 C 11.940474,20.09759 22.043105,11.32322 32.158766,21.979434 L 37.068811,17.246167 C 37.068811,17.246167 37.088388,32 37.088388,32 L 22.160133,31.978069 C 22.160133,31.978069 26.997745,27.140456 26.997745,27.140456 C 18.528582,18.264221 13.291696,25.230495 11.500037,31.436501 z"
             style="fill:#404040;"/>
          </a>
         </g>
        </svg>
</svg>
