<?xml version="1.0" encoding="UTF-8" standalone="no"?>
<!DOCTYPE svg PUBLIC "-//W3C//DTD SVG 1.1//EN"
 "http://www.w3.org/Graphics/SVG/1.1/DTD/svg11.dtd">
<!-- Generated by graphviz version 2.36.0 (20140111.2315)
 -->
<!-- Title: PatrolWaypointsTask Pages: 1 -->
<svg width="210pt" height="174pt"
 viewBox="0.00 0.00 210.00 174.00" xmlns="http://www.w3.org/2000/svg" xmlns:xlink="http://www.w3.org/1999/xlink">
<g id="graph0" class="graph" transform="scale(1 1) rotate(0) translate(4 170)">
<title>PatrolWaypointsTask</title>
<polygon fill="white" stroke="none" points="-4,4 -4,-170 206,-170 206,4 -4,4"/>
<!-- Node1 -->
<g id="node1" class="node"><title>Node1</title>
<polygon fill="#bfbfbf" stroke="black" points="62,-0.5 62,-19.5 172,-19.5 172,-0.5 62,-0.5"/>
<text text-anchor="middle" x="117" y="-7.5" font-family="Helvetica,sans-Serif" font-size="10.00">PatrolWaypointsTask</text>
</g>
<!-- Node2 -->
<g id="node2" class="node"><title>Node2</title>
<g id="a_node2"><a xlink:href="class_ai_group_task.html" target="_top" xlink:title="AiGroupTask">
<polygon fill="white" stroke="black" points="-0.5,-78.5 -0.5,-97.5 72.5,-97.5 72.5,-78.5 -0.5,-78.5"/>
<text text-anchor="middle" x="36" y="-85.5" font-family="Helvetica,sans-Serif" font-size="10.00">AiGroupTask</text>
</a>
</g>
</g>
<!-- Node2&#45;&gt;Node1 -->
<g id="edge1" class="edge"><title>Node2&#45;&gt;Node1</title>
<path fill="none" stroke="midnightblue" d="M52.7286,-71.3041C69.4208,-55.6422 94.452,-32.1562 107.817,-19.6165"/>
<polygon fill="midnightblue" stroke="midnightblue" points="50.1895,-68.887 45.2917,-78.2818 54.9792,-73.9918 50.1895,-68.887"/>
</g>
<!-- Node3 -->
<g id="node3" class="node"><title>Node3</title>
<g id="a_node3"><a xlink:href="class_squad.html" target="_top" xlink:title="Squad">
<polygon fill="white" stroke="red" points="14,-146.5 14,-165.5 58,-165.5 58,-146.5 14,-146.5"/>
<text text-anchor="middle" x="36" y="-153.5" font-family="Helvetica,sans-Serif" font-size="10.00">Squad</text>
</a>
</g>
</g>
<!-- Node3&#45;&gt;Node2 -->
<g id="edge2" class="edge"><title>Node3&#45;&gt;Node2</title>
<path fill="none" stroke="#9a32cd" stroke-dasharray="5,2" d="M36,-136.041C36,-123.472 36,-107.563 36,-97.8411"/>
<polygon fill="#9a32cd" stroke="#9a32cd" points="32.5001,-136.372 36,-146.372 39.5001,-136.372 32.5001,-136.372"/>
<text text-anchor="middle" x="57.5" y="-119.5" font-family="Helvetica,sans-Serif" font-size="10.00"> m_squad</text>
</g>
<!-- Node4 -->
<g id="node4" class="node"><title>Node4</title>
<polygon fill="white" stroke="#bfbfbf" points="91,-78.5 91,-97.5 199,-97.5 199,-78.5 91,-78.5"/>
<text text-anchor="middle" x="145" y="-85.5" font-family="Helvetica,sans-Serif" font-size="10.00">std::list&lt; glm::vec3 &gt;</text>
</g>
<!-- Node4&#45;&gt;Node1 -->
<g id="edge3" class="edge"><title>Node4&#45;&gt;Node1</title>
<path fill="none" stroke="#9a32cd" stroke-dasharray="5,2" d="M138.248,-68.6744C132.515,-53.1127 124.542,-31.4722 120.174,-19.6165"/>
<polygon fill="#9a32cd" stroke="#9a32cd" points="135.047,-70.1084 141.788,-78.2818 141.615,-67.6884 135.047,-70.1084"/>
<text text-anchor="middle" x="168.5" y="-52" font-family="Helvetica,sans-Serif" font-size="10.00"> m_points</text>
<text text-anchor="middle" x="168.5" y="-41" font-family="Helvetica,sans-Serif" font-size="10.00">m_currentPoint</text>
</g>
</g>
</svg>
