<?xml version="1.0" encoding="UTF-8" standalone="no"?>
<!DOCTYPE svg PUBLIC "-//W3C//DTD SVG 1.1//EN"
 "http://www.w3.org/Graphics/SVG/1.1/DTD/svg11.dtd">
<!-- Generated by graphviz version 2.36.0 (20140111.2315)
 -->
<!-- Title: FactionMatrix Pages: 1 -->
<!--zoomable 211 -->
<svg id="main" version="1.1" xmlns="http://www.w3.org/2000/svg" xmlns:xlink="http://www.w3.org/1999/xlink" xml:space="preserve" onload="init(evt)">
<style type="text/css"><![CDATA[
.edge:hover path { stroke: red; }
.edge:hover polygon { stroke: red; fill: red; }
]]></style>
<script type="text/javascript"><![CDATA[
var edges = document.getElementsByTagName('g');
if (edges && edges.length) {
  for (var i=0;i<edges.length;i++) {
    if (edges[i].id.substr(0,4)=='edge') {
      edges[i].setAttribute('class','edge');
    }
  }
}
]]></script>
        <defs>
                <circle id="rim" cx="0" cy="0" r="7"/>
                <circle id="rim2" cx="0" cy="0" r="3.5"/>
                <g id="zoomPlus">
                        <use xlink:href="#rim" fill="#404040">
                                <set attributeName="fill" to="#808080" begin="zoomplus.mouseover" end="zoomplus.mouseout"/>
                        </use>
                        <path d="M-4,0h8M0,-4v8" fill="none" stroke="white" stroke-width="1.5" pointer-events="none"/>
                </g>
                <g id="zoomMin">
                        <use xlink:href="#rim" fill="#404040">
                                <set attributeName="fill" to="#808080" begin="zoomminus.mouseover" end="zoomminus.mouseout"/>
                        </use>
                        <path d="M-4,0h8" fill="none" stroke="white" stroke-width="1.5" pointer-events="none"/>
                </g>
                <g id="dirArrow">
                        <path fill="none" stroke="white" stroke-width="1.5" d="M0,-3.0v7 M-2.5,-0.5L0,-3.0L2.5,-0.5"/>
                </g>
               <g id="resetDef">
                       <use xlink:href="#rim2" fill="#404040">
                               <set attributeName="fill" to="#808080" begin="reset.mouseover" end="reset.mouseout"/>
                       </use>
               </g>
        </defs>

<script type="text/javascript">
var viewWidth = 894;
var viewHeight = 211;
var sectionId = 'dynsection-0';
</script>
<script xlink:href="svgpan.js"/>
<svg id="graph" class="graph">
<g id="viewport">
<title>FactionMatrix</title>
<polygon fill="white" stroke="none" points="-4,4 -4,-207 890,-207 890,4 -4,4"/>
<!-- Node1 -->
<g id="node1" class="node"><title>Node1</title>
<polygon fill="#bfbfbf" stroke="black" points="218,-98.5 218,-117.5 294,-117.5 294,-98.5 218,-98.5"/>
<text text-anchor="middle" x="256" y="-105.5" font-family="Helvetica,sans-Serif" font-size="10.00">FactionMatrix</text>
</g>
<!-- Node4 -->
<g id="node4" class="node"><title>Node4</title>
<g id="a_node4"><a xlink:href="class_faction.html" target="_top" xlink:title="Faction">
<polygon fill="white" stroke="red" points="417.5,-98.5 417.5,-117.5 466.5,-117.5 466.5,-98.5 417.5,-98.5"/>
<text text-anchor="middle" x="442" y="-105.5" font-family="Helvetica,sans-Serif" font-size="10.00">Faction</text>
</a>
</g>
</g>
<!-- Node1&#45;&gt;Node4 -->
<g id="edge4" class="edge"><title>Node1&#45;&gt;Node4</title>
<path fill="none" stroke="#9a32cd" stroke-dasharray="5,2" d="M304.555,-108C340.694,-108 388.878,-108 417.257,-108"/>
<polygon fill="#9a32cd" stroke="#9a32cd" points="304.235,-104.5 294.235,-108 304.235,-111.5 304.235,-104.5"/>
<text text-anchor="middle" x="349" y="-111" font-family="Helvetica,sans-Serif" font-size="10.00"> m_factionMatrix</text>
</g>
<!-- Node2 -->
<g id="node2" class="node"><title>Node2</title>
<polygon fill="white" stroke="#bfbfbf" points="780,-173 780,-203 886,-203 886,-173 780,-173"/>
<text text-anchor="start" x="788" y="-191" font-family="Helvetica,sans-Serif" font-size="10.00">std::list&lt; std::unique</text>
<text text-anchor="middle" x="833" y="-180" font-family="Helvetica,sans-Serif" font-size="10.00">_ptr&lt; Faction &gt; &gt;</text>
</g>
<!-- Node2&#45;&gt;Node1 -->
<g id="edge1" class="edge"><title>Node2&#45;&gt;Node1</title>
<path fill="none" stroke="#9a32cd" stroke-dasharray="5,2" d="M769.857,-192.062C685.922,-196.138 532.079,-198.615 404,-173 362.214,-164.643 350.463,-164.344 312,-146 295.868,-138.306 279.241,-126.117 268.553,-117.626"/>
<polygon fill="#9a32cd" stroke="#9a32cd" points="770.179,-195.55 779.988,-191.546 769.823,-188.559 770.179,-195.55"/>
<text text-anchor="middle" x="524" y="-193" font-family="Helvetica,sans-Serif" font-size="10.00"> m_factions</text>
</g>
<!-- Node3 -->
<g id="node3" class="node"><title>Node3</title>
<polygon fill="white" stroke="#bfbfbf" points="568.5,-122.5 568.5,-141.5 699.5,-141.5 699.5,-122.5 568.5,-122.5"/>
<text text-anchor="middle" x="634" y="-129.5" font-family="Helvetica,sans-Serif" font-size="10.00">std::unique_ptr&lt; Faction &gt;</text>
</g>
<!-- Node3&#45;&gt;Node2 -->
<g id="edge2" class="edge"><title>Node3&#45;&gt;Node2</title>
<path fill="none" stroke="#9a32cd" stroke-dasharray="5,2" d="M678.581,-144.389C708.425,-152.872 748.154,-164.166 779.706,-173.135"/>
<polygon fill="#9a32cd" stroke="#9a32cd" points="679.441,-140.995 668.866,-141.627 677.527,-147.728 679.441,-140.995"/>
<text text-anchor="middle" x="740" y="-170" font-family="Helvetica,sans-Serif" font-size="10.00"> elements</text>
</g>
<!-- Node4&#45;&gt;Node3 -->
<g id="edge3" class="edge"><title>Node4&#45;&gt;Node3</title>
<path fill="none" stroke="#9a32cd" stroke-dasharray="5,2" d="M476.855,-112.276C502.134,-115.47 537.457,-119.931 568.113,-123.804"/>
<polygon fill="#9a32cd" stroke="#9a32cd" points="477.039,-108.772 466.679,-110.991 476.162,-115.717 477.039,-108.772"/>
<text text-anchor="middle" x="524" y="-125" font-family="Helvetica,sans-Serif" font-size="10.00"> ptr</text>
</g>
<!-- Node5 -->
<g id="node5" class="node"><title>Node5</title>
<g id="a_node5"><a xlink:href="class_police_faction.html" target="_top" xlink:title="PoliceFaction">
<polygon fill="white" stroke="black" points="596,-162.5 596,-181.5 672,-181.5 672,-162.5 596,-162.5"/>
<text text-anchor="middle" x="634" y="-169.5" font-family="Helvetica,sans-Serif" font-size="10.00">PoliceFaction</text>
</a>
</g>
</g>
<!-- Node4&#45;&gt;Node5 -->
<g id="edge6" class="edge"><title>Node4&#45;&gt;Node5</title>
<path fill="none" stroke="midnightblue" d="M467.908,-122.699C477.141,-127.725 487.839,-133.065 498,-137 530.175,-149.459 568.359,-158.892 595.894,-164.808"/>
<polygon fill="midnightblue" stroke="midnightblue" points="469.335,-119.487 458.901,-117.648 465.911,-125.592 469.335,-119.487"/>
</g>
<!-- Node7 -->
<g id="node7" class="node"><title>Node7</title>
<g id="a_node7"><a xlink:href="class_pirate_faction.html" target="_top" xlink:title="PirateFaction">
<polygon fill="white" stroke="black" points="597,-67.5 597,-86.5 671,-86.5 671,-67.5 597,-67.5"/>
<text text-anchor="middle" x="634" y="-74.5" font-family="Helvetica,sans-Serif" font-size="10.00">PirateFaction</text>
</a>
</g>
</g>
<!-- Node4&#45;&gt;Node7 -->
<g id="edge9" class="edge"><title>Node4&#45;&gt;Node7</title>
<path fill="none" stroke="midnightblue" d="M476.985,-102.455C510.797,-96.9384 562.484,-88.5052 596.989,-82.8754"/>
<polygon fill="midnightblue" stroke="midnightblue" points="475.985,-99.0718 466.679,-104.137 477.113,-105.98 475.985,-99.0718"/>
</g>
<!-- Node8 -->
<g id="node8" class="node"><title>Node8</title>
<g id="a_node8"><a xlink:href="class_player_faction.html" target="_top" xlink:title="PlayerFaction">
<polygon fill="white" stroke="black" points="595.5,-0.5 595.5,-19.5 672.5,-19.5 672.5,-0.5 595.5,-0.5"/>
<text text-anchor="middle" x="634" y="-7.5" font-family="Helvetica,sans-Serif" font-size="10.00">PlayerFaction</text>
</a>
</g>
</g>
<!-- Node4&#45;&gt;Node8 -->
<g id="edge11" class="edge"><title>Node4&#45;&gt;Node8</title>
<path fill="none" stroke="midnightblue" d="M470.837,-93.642C510.135,-73.3726 580.819,-36.9143 614.361,-19.614"/>
<polygon fill="midnightblue" stroke="midnightblue" points="468.847,-90.7302 461.564,-98.4249 472.056,-96.9514 468.847,-90.7302"/>
</g>
<!-- Node5&#45;&gt;Node1 -->
<g id="edge5" class="edge"><title>Node5&#45;&gt;Node1</title>
<path fill="none" stroke="#9a32cd" stroke-dasharray="5,2" d="M585.602,-169.041C559.649,-167.106 526.966,-164.156 498,-160 414.568,-148.029 394.042,-142.323 312,-123 305.064,-121.366 297.678,-119.465 290.646,-117.576"/>
<polygon fill="#9a32cd" stroke="#9a32cd" points="585.693,-172.557 595.918,-169.784 586.195,-165.575 585.693,-172.557"/>
<text text-anchor="middle" x="442" y="-161" font-family="Helvetica,sans-Serif" font-size="10.00"> m_policeFaction</text>
</g>
<!-- Node6 -->
<g id="node6" class="node"><title>Node6</title>
<polygon fill="white" stroke="#bfbfbf" points="0,-93 0,-123 128,-123 128,-93 0,-93"/>
<text text-anchor="start" x="8" y="-111" font-family="Helvetica,sans-Serif" font-size="10.00">std::list&lt; std::shared</text>
<text text-anchor="middle" x="64" y="-100" font-family="Helvetica,sans-Serif" font-size="10.00">_ptr&lt; FactionRelation &gt; &gt;</text>
</g>
<!-- Node6&#45;&gt;Node1 -->
<g id="edge7" class="edge"><title>Node6&#45;&gt;Node1</title>
<path fill="none" stroke="#9a32cd" stroke-dasharray="5,2" d="M138.299,-108C165.535,-108 195.285,-108 217.931,-108"/>
<polygon fill="#9a32cd" stroke="#9a32cd" points="138.003,-104.5 128.003,-108 138.003,-111.5 138.003,-104.5"/>
<text text-anchor="middle" x="173" y="-111" font-family="Helvetica,sans-Serif" font-size="10.00"> m_relations</text>
</g>
<!-- Node7&#45;&gt;Node1 -->
<g id="edge8" class="edge"><title>Node7&#45;&gt;Node1</title>
<path fill="none" stroke="#9a32cd" stroke-dasharray="5,2" d="M586.751,-74.542C540.396,-72.703 467.055,-71.4924 404,-78 365.913,-81.9308 323.097,-91.2391 293.541,-98.4531"/>
<polygon fill="#9a32cd" stroke="#9a32cd" points="586.65,-78.0408 596.79,-74.967 586.947,-71.0471 586.65,-78.0408"/>
<text text-anchor="middle" x="442" y="-81" font-family="Helvetica,sans-Serif" font-size="10.00"> m_pirateFaction</text>
</g>
<!-- Node8&#45;&gt;Node1 -->
<g id="edge10" class="edge"><title>Node8&#45;&gt;Node1</title>
<path fill="none" stroke="#9a32cd" stroke-dasharray="5,2" d="M585.204,-15.3169C521.342,-23.459 405.389,-41.9005 312,-77 297.431,-82.4758 282.102,-91.4149 271.339,-98.2905"/>
<polygon fill="#9a32cd" stroke="#9a32cd" points="585.881,-18.7597 595.372,-14.0518 585.017,-11.8133 585.881,-18.7597"/>
<text text-anchor="middle" x="442" y="-51" font-family="Helvetica,sans-Serif" font-size="10.00"> m_playerFaction</text>
</g>
</g>
</svg>
        <g id="navigator" transform="translate(0 0)" fill="#404254">
                <rect fill="#f2f5e9" fill-opacity="0.5" stroke="#606060" stroke-width=".5" x="0" y="0" width="60" height="60"/>
                <use id="zoomplus" xlink:href="#zoomPlus" x="17" y="9" onmousedown="handleZoom(evt,'in')"/>
                <use id="zoomminus" xlink:href="#zoomMin" x="42" y="9" onmousedown="handleZoom(evt,'out')"/>
                <use id="reset" xlink:href="#resetDef" x="30" y="36" onmousedown="handleReset()"/>
                <g id="arrowUp" xlink:href="#dirArrow" transform="translate(30 24)" onmousedown="handlePan(0,-1)">
                  <use xlink:href="#rim" fill="#404040">
                        <set attributeName="fill" to="#808080" begin="arrowUp.mouseover" end="arrowUp.mouseout"/>
                  </use>
                  <path fill="none" stroke="white" stroke-width="1.5" d="M0,-3.0v7 M-2.5,-0.5L0,-3.0L2.5,-0.5"/>
                </g>
                <g id="arrowRight" xlink:href="#dirArrow" transform="rotate(90) translate(36 -43)" onmousedown="handlePan(1,0)">
                  <use xlink:href="#rim" fill="#404040">
                        <set attributeName="fill" to="#808080" begin="arrowRight.mouseover" end="arrowRight.mouseout"/>
                  </use>
                  <path fill="none" stroke="white" stroke-width="1.5" d="M0,-3.0v7 M-2.5,-0.5L0,-3.0L2.5,-0.5"/>
                </g>
                <g id="arrowDown" xlink:href="#dirArrow" transform="rotate(180) translate(-30 -48)" onmousedown="handlePan(0,1)">
                  <use xlink:href="#rim" fill="#404040">
                        <set attributeName="fill" to="#808080" begin="arrowDown.mouseover" end="arrowDown.mouseout"/>
                  </use>
                  <path fill="none" stroke="white" stroke-width="1.5" d="M0,-3.0v7 M-2.5,-0.5L0,-3.0L2.5,-0.5"/>
                </g>
                <g id="arrowLeft" xlink:href="#dirArrow" transform="rotate(270) translate(-36 17)" onmousedown="handlePan(-1,0)">
                  <use xlink:href="#rim" fill="#404040">
                        <set attributeName="fill" to="#808080" begin="arrowLeft.mouseover" end="arrowLeft.mouseout"/>
                  </use>
                  <path fill="none" stroke="white" stroke-width="1.5" d="M0,-3.0v7 M-2.5,-0.5L0,-3.0L2.5,-0.5"/>
                </g>
        </g>
        <svg viewBox="0 0 15 15" width="100%" height="30px" preserveAspectRatio="xMaxYMin meet">
         <g id="arrow_out" transform="scale(0.3 0.3)">
          <a xlink:href="class_faction_matrix__coll__graph_org.svg" target="_base">
           <rect id="button" ry="5" rx="5" y="6" x="6" height="38" width="38"
                fill="#f2f5e9" fill-opacity="0.5" stroke="#606060" stroke-width="1.0"/>
           <path id="arrow"
             d="M 11.500037,31.436501 C 11.940474,20.09759 22.043105,11.32322 32.158766,21.979434 L 37.068811,17.246167 C 37.068811,17.246167 37.088388,32 37.088388,32 L 22.160133,31.978069 C 22.160133,31.978069 26.997745,27.140456 26.997745,27.140456 C 18.528582,18.264221 13.291696,25.230495 11.500037,31.436501 z"
             style="fill:#404040;"/>
          </a>
         </g>
        </svg>
</svg>
