<?xml version="1.0" encoding="UTF-8" standalone="no"?>
<!DOCTYPE svg PUBLIC "-//W3C//DTD SVG 1.1//EN"
 "http://www.w3.org/Graphics/SVG/1.1/DTD/svg11.dtd">
<!-- Generated by graphviz version 2.36.0 (20140111.2315)
 -->
<!-- Title: VoxelParticleRemover Pages: 1 -->
<svg width="1306pt" height="243pt"
 viewBox="0.00 0.00 1306.00 243.00" xmlns="http://www.w3.org/2000/svg" xmlns:xlink="http://www.w3.org/1999/xlink">
<g id="graph0" class="graph" transform="scale(1 1) rotate(0) translate(4 239)">
<title>VoxelParticleRemover</title>
<polygon fill="white" stroke="none" points="-4,4 -4,-239 1302,-239 1302,4 -4,4"/>
<!-- Node1 -->
<g id="node1" class="node"><title>Node1</title>
<polygon fill="#bfbfbf" stroke="black" points="724,-83.5 724,-102.5 836,-102.5 836,-83.5 724,-83.5"/>
<text text-anchor="middle" x="780" y="-90.5" font-family="Helvetica,sans-Serif" font-size="10.00">VoxelParticleRemover</text>
</g>
<!-- Node6 -->
<g id="node6" class="node"><title>Node6</title>
<polygon fill="white" stroke="#bfbfbf" points="888,-124 888,-154 1036,-154 1036,-124 888,-124"/>
<text text-anchor="start" x="896" y="-142" font-family="Helvetica,sans-Serif" font-size="10.00">std::unique_ptr&lt; VoxelParticle</text>
<text text-anchor="middle" x="962" y="-131" font-family="Helvetica,sans-Serif" font-size="10.00">Remover &gt;</text>
</g>
<!-- Node1&#45;&gt;Node6 -->
<g id="edge6" class="edge"><title>Node1&#45;&gt;Node6</title>
<path fill="none" stroke="#9a32cd" stroke-dasharray="5,2" d="M828.019,-105.016C850.684,-110.808 878.1,-117.815 902.137,-123.957"/>
<polygon fill="#9a32cd" stroke="#9a32cd" points="828.851,-101.616 818.296,-102.531 827.118,-108.398 828.851,-101.616"/>
<text text-anchor="middle" x="862" y="-117" font-family="Helvetica,sans-Serif" font-size="10.00"> ptr</text>
</g>
<!-- Node2 -->
<g id="node2" class="node"><title>Node2</title>
<g id="a_node2"><a xlink:href="class_voxel_particle_engine.html" target="_top" xlink:title="VoxelParticleEngine">
<polygon fill="white" stroke="black" points="1194,-129.5 1194,-148.5 1298,-148.5 1298,-129.5 1194,-129.5"/>
<text text-anchor="middle" x="1246" y="-136.5" font-family="Helvetica,sans-Serif" font-size="10.00">VoxelParticleEngine</text>
</a>
</g>
</g>
<!-- Node2&#45;&gt;Node1 -->
<g id="edge1" class="edge"><title>Node2&#45;&gt;Node1</title>
<path fill="none" stroke="#9a32cd" stroke-dasharray="5,2" d="M1188.32,-127.57C1146.42,-119.595 1087.89,-109.443 1036,-104 967.361,-96.7998 887.854,-94.2891 836.109,-93.4269"/>
<polygon fill="#9a32cd" stroke="#9a32cd" points="1187.85,-131.043 1198.33,-129.494 1189.17,-124.169 1187.85,-131.043"/>
<text text-anchor="middle" x="962" y="-107" font-family="Helvetica,sans-Serif" font-size="10.00"> m_particleEngine</text>
</g>
<!-- Node3 -->
<g id="node3" class="node"><title>Node3</title>
<polygon fill="white" stroke="#bfbfbf" points="917.5,-213.5 917.5,-232.5 1006.5,-232.5 1006.5,-213.5 917.5,-213.5"/>
<text text-anchor="middle" x="962" y="-220.5" font-family="Helvetica,sans-Serif" font-size="10.00">std::stack&lt; int &gt;</text>
</g>
<!-- Node3&#45;&gt;Node2 -->
<g id="edge2" class="edge"><title>Node3&#45;&gt;Node2</title>
<path fill="none" stroke="#9a32cd" stroke-dasharray="5,2" d="M1016.59,-225.615C1061.1,-225.797 1125.11,-221.358 1176,-199 1202.16,-187.506 1225.65,-162.512 1237.28,-148.685"/>
<polygon fill="#9a32cd" stroke="#9a32cd" points="1016.61,-222.115 1006.57,-225.494 1016.52,-229.114 1016.61,-222.115"/>
<text text-anchor="middle" x="1115" y="-227" font-family="Helvetica,sans-Serif" font-size="10.00"> m_freeParticleBufferIndices</text>
</g>
<!-- Node4 -->
<g id="node4" class="node"><title>Node4</title>
<polygon fill="white" stroke="#bfbfbf" points="0,-152 0,-182 128,-182 128,-152 0,-152"/>
<text text-anchor="start" x="8" y="-170" font-family="Helvetica,sans-Serif" font-size="10.00">std::vector&lt; VoxelParticle</text>
<text text-anchor="middle" x="64" y="-159" font-family="Helvetica,sans-Serif" font-size="10.00">Data &gt;</text>
</g>
<!-- Node4&#45;&gt;Node2 -->
<g id="edge3" class="edge"><title>Node4&#45;&gt;Node2</title>
<path fill="none" stroke="#9a32cd" stroke-dasharray="5,2" d="M138.459,-176.547C177.715,-180.858 226.911,-185 271,-185 271,-185 271,-185 963,-185 1052.79,-185 1156.58,-162.005 1209.69,-148.531"/>
<polygon fill="#9a32cd" stroke="#9a32cd" points="138.772,-173.06 128.443,-175.42 137.989,-180.016 138.772,-173.06"/>
<text text-anchor="middle" x="660" y="-188" font-family="Helvetica,sans-Serif" font-size="10.00"> m_cpuParticleBuffer</text>
</g>
<!-- Node9 -->
<g id="node9" class="node"><title>Node9</title>
<g id="a_node9"><a xlink:href="class_thread_pool.html" target="_top" xlink:title="ThreadPool\&lt; VoxelParticle\lData \&gt;">
<polygon fill="white" stroke="red" points="206,-126 206,-156 338,-156 338,-126 206,-126"/>
<text text-anchor="start" x="214" y="-144" font-family="Helvetica,sans-Serif" font-size="10.00">ThreadPool&lt; VoxelParticle</text>
<text text-anchor="middle" x="272" y="-133" font-family="Helvetica,sans-Serif" font-size="10.00">Data &gt;</text>
</a>
</g>
</g>
<!-- Node4&#45;&gt;Node9 -->
<g id="edge10" class="edge"><title>Node4&#45;&gt;Node9</title>
<path fill="none" stroke="#9a32cd" stroke-dasharray="5,2" d="M138.181,-157.764C160.232,-154.98 184.279,-151.945 205.776,-149.232"/>
<polygon fill="#9a32cd" stroke="#9a32cd" points="137.69,-154.298 128.207,-159.022 138.566,-161.243 137.69,-154.298"/>
<text text-anchor="middle" x="167" y="-159" font-family="Helvetica,sans-Serif" font-size="10.00"> m_tasks</text>
</g>
<!-- Node5 -->
<g id="node5" class="node"><title>Node5</title>
<polygon fill="white" stroke="#bfbfbf" points="888,-27 888,-57 1036,-57 1036,-27 888,-27"/>
<text text-anchor="start" x="896" y="-45" font-family="Helvetica,sans-Serif" font-size="10.00">std::unique_ptr&lt; VoxelParticle</text>
<text text-anchor="middle" x="962" y="-34" font-family="Helvetica,sans-Serif" font-size="10.00">Renderer &gt;</text>
</g>
<!-- Node5&#45;&gt;Node2 -->
<g id="edge4" class="edge"><title>Node5&#45;&gt;Node2</title>
<path fill="none" stroke="#9a32cd" stroke-dasharray="5,2" d="M1046.63,-40.0289C1087.48,-42.1264 1136.27,-49.3468 1176,-69 1204.45,-83.072 1227.98,-113.648 1238.73,-129.317"/>
<polygon fill="#9a32cd" stroke="#9a32cd" points="1046.57,-36.5232 1036.43,-39.6016 1046.27,-43.517 1046.57,-36.5232"/>
<text text-anchor="middle" x="1115" y="-72" font-family="Helvetica,sans-Serif" font-size="10.00"> m_renderer</text>
</g>
<!-- Node6&#45;&gt;Node2 -->
<g id="edge5" class="edge"><title>Node6&#45;&gt;Node2</title>
<path fill="none" stroke="#9a32cd" stroke-dasharray="5,2" d="M1046.39,-139C1094.21,-139 1152.72,-139 1193.8,-139"/>
<polygon fill="#9a32cd" stroke="#9a32cd" points="1046.36,-135.5 1036.36,-139 1046.36,-142.5 1046.36,-135.5"/>
<text text-anchor="middle" x="1115" y="-142" font-family="Helvetica,sans-Serif" font-size="10.00"> m_remover</text>
</g>
<!-- Node7 -->
<g id="node7" class="node"><title>Node7</title>
<polygon fill="white" stroke="#bfbfbf" points="416,-77 416,-107 596,-107 596,-77 416,-77"/>
<text text-anchor="start" x="424" y="-95" font-family="Helvetica,sans-Serif" font-size="10.00">std::vector&lt; std::shared</text>
<text text-anchor="middle" x="506" y="-84" font-family="Helvetica,sans-Serif" font-size="10.00">_ptr&lt; VoxelParticleRemoveCheck &gt; &gt;</text>
</g>
<!-- Node7&#45;&gt;Node1 -->
<g id="edge7" class="edge"><title>Node7&#45;&gt;Node1</title>
<path fill="none" stroke="#9a32cd" stroke-dasharray="5,2" d="M606.309,-92.3651C645.973,-92.5109 690.138,-92.6733 723.875,-92.7973"/>
<polygon fill="#9a32cd" stroke="#9a32cd" points="606.076,-88.8643 596.063,-92.3274 606.05,-95.8643 606.076,-88.8643"/>
<text text-anchor="middle" x="660" y="-95" font-family="Helvetica,sans-Serif" font-size="10.00"> m_checker</text>
</g>
<!-- Node8 -->
<g id="node8" class="node"><title>Node8</title>
<polygon fill="white" stroke="#bfbfbf" points="436.5,-126 436.5,-156 575.5,-156 575.5,-126 436.5,-126"/>
<text text-anchor="start" x="444.5" y="-144" font-family="Helvetica,sans-Serif" font-size="10.00">std::unique_ptr&lt; ThreadPool</text>
<text text-anchor="middle" x="506" y="-133" font-family="Helvetica,sans-Serif" font-size="10.00">&lt; VoxelParticleData &gt; &gt;</text>
</g>
<!-- Node8&#45;&gt;Node1 -->
<g id="edge8" class="edge"><title>Node8&#45;&gt;Node1</title>
<path fill="none" stroke="#9a32cd" stroke-dasharray="5,2" d="M585.785,-127.917C622.373,-121.744 666.438,-114.172 706,-107 713.746,-105.596 721.945,-104.066 729.941,-102.55"/>
<polygon fill="#9a32cd" stroke="#9a32cd" points="584.953,-124.507 575.673,-129.619 586.116,-131.41 584.953,-124.507"/>
<text text-anchor="middle" x="660" y="-125" font-family="Helvetica,sans-Serif" font-size="10.00"> m_threadPool</text>
</g>
<!-- Node9&#45;&gt;Node8 -->
<g id="edge9" class="edge"><title>Node9&#45;&gt;Node8</title>
<path fill="none" stroke="#9a32cd" stroke-dasharray="5,2" d="M348.464,-141C376.7,-141 408.6,-141 436.202,-141"/>
<polygon fill="#9a32cd" stroke="#9a32cd" points="348.242,-137.5 338.242,-141 348.242,-144.5 348.242,-137.5"/>
<text text-anchor="middle" x="377" y="-144" font-family="Helvetica,sans-Serif" font-size="10.00"> ptr</text>
</g>
<!-- Node10 -->
<g id="node10" class="node"><title>Node10</title>
<g id="a_node10"><a xlink:href="class_property.html" target="_top" xlink:title="Property\&lt; float \&gt;">
<polygon fill="white" stroke="black" points="461.5,-38.5 461.5,-57.5 550.5,-57.5 550.5,-38.5 461.5,-38.5"/>
<text text-anchor="middle" x="506" y="-45.5" font-family="Helvetica,sans-Serif" font-size="10.00">Property&lt; float &gt;</text>
</a>
</g>
</g>
<!-- Node10&#45;&gt;Node1 -->
<g id="edge11" class="edge"><title>Node10&#45;&gt;Node1</title>
<path fill="none" stroke="#9a32cd" stroke-dasharray="5,2" d="M560.727,-54.7775C600.87,-60.0962 657.024,-68.0758 706,-77 716.339,-78.8839 727.444,-81.1775 737.794,-83.4329"/>
<polygon fill="#9a32cd" stroke="#9a32cd" points="560.994,-51.2825 550.624,-53.4501 560.083,-58.2229 560.994,-51.2825"/>
<text text-anchor="middle" x="660" y="-80" font-family="Helvetica,sans-Serif" font-size="10.00"> m_interval</text>
</g>
<!-- Node11 -->
<g id="node11" class="node"><title>Node11</title>
<g id="a_node11"><a xlink:title="STL class. ">
<polygon fill="white" stroke="#bfbfbf" points="242,-19.5 242,-38.5 302,-38.5 302,-19.5 242,-19.5"/>
<text text-anchor="middle" x="272" y="-26.5" font-family="Helvetica,sans-Serif" font-size="10.00">std::string</text>
</a>
</g>
</g>
<!-- Node11&#45;&gt;Node10 -->
<g id="edge12" class="edge"><title>Node11&#45;&gt;Node10</title>
<path fill="none" stroke="#9a32cd" stroke-dasharray="5,2" d="M312.608,-32.2438C353.9,-35.6254 418.445,-40.9114 461.224,-44.4149"/>
<polygon fill="#9a32cd" stroke="#9a32cd" points="312.635,-28.7344 302.383,-31.4064 312.064,-35.711 312.635,-28.7344"/>
<text text-anchor="middle" x="377" y="-43" font-family="Helvetica,sans-Serif" font-size="10.00"> m_name</text>
</g>
<!-- Node12 -->
<g id="node12" class="node"><title>Node12</title>
<g id="a_node12"><a xlink:href="class_property.html" target="_top" xlink:title="Property\&lt; bool \&gt;">
<polygon fill="white" stroke="black" points="461.5,-0.5 461.5,-19.5 550.5,-19.5 550.5,-0.5 461.5,-0.5"/>
<text text-anchor="middle" x="506" y="-7.5" font-family="Helvetica,sans-Serif" font-size="10.00">Property&lt; bool &gt;</text>
</a>
</g>
</g>
<!-- Node11&#45;&gt;Node12 -->
<g id="edge14" class="edge"><title>Node11&#45;&gt;Node12</title>
<path fill="none" stroke="#9a32cd" stroke-dasharray="5,2" d="M312.342,-25.6514C326.146,-24.4846 341.759,-23.174 356,-22 391.434,-19.079 431.615,-15.8476 461.314,-13.4747"/>
<polygon fill="#9a32cd" stroke="#9a32cd" points="311.86,-22.1796 302.191,-26.511 312.45,-29.1546 311.86,-22.1796"/>
<text text-anchor="middle" x="377" y="-25" font-family="Helvetica,sans-Serif" font-size="10.00"> m_name</text>
</g>
<!-- Node12&#45;&gt;Node1 -->
<g id="edge13" class="edge"><title>Node12&#45;&gt;Node1</title>
<path fill="none" stroke="#9a32cd" stroke-dasharray="5,2" d="M560.599,-14.8956C601.509,-19.8909 658.699,-29.6237 706,-48 728.898,-56.8958 752.605,-73.0183 766.565,-83.3563"/>
<polygon fill="#9a32cd" stroke="#9a32cd" points="560.903,-11.4074 550.564,-13.7253 560.092,-18.3603 560.903,-11.4074"/>
<text text-anchor="middle" x="660" y="-51" font-family="Helvetica,sans-Serif" font-size="10.00"> m_multithreaded</text>
</g>
</g>
</svg>
