<?xml version="1.0" encoding="UTF-8" standalone="no"?>
<!DOCTYPE svg PUBLIC "-//W3C//DTD SVG 1.1//EN"
 "http://www.w3.org/Graphics/SVG/1.1/DTD/svg11.dtd">
<!-- Generated by graphviz version 2.36.0 (20140111.2315)
 -->
<!-- Title: HardpointAimHelper Pages: 1 -->
<!--zoomable 404 -->
<svg id="main" version="1.1" xmlns="http://www.w3.org/2000/svg" xmlns:xlink="http://www.w3.org/1999/xlink" xml:space="preserve" onload="init(evt)">
<style type="text/css"><![CDATA[
.edge:hover path { stroke: red; }
.edge:hover polygon { stroke: red; fill: red; }
]]></style>
<script type="text/javascript"><![CDATA[
var edges = document.getElementsByTagName('g');
if (edges && edges.length) {
  for (var i=0;i<edges.length;i++) {
    if (edges[i].id.substr(0,4)=='edge') {
      edges[i].setAttribute('class','edge');
    }
  }
}
]]></script>
        <defs>
                <circle id="rim" cx="0" cy="0" r="7"/>
                <circle id="rim2" cx="0" cy="0" r="3.5"/>
                <g id="zoomPlus">
                        <use xlink:href="#rim" fill="#404040">
                                <set attributeName="fill" to="#808080" begin="zoomplus.mouseover" end="zoomplus.mouseout"/>
                        </use>
                        <path d="M-4,0h8M0,-4v8" fill="none" stroke="white" stroke-width="1.5" pointer-events="none"/>
                </g>
                <g id="zoomMin">
                        <use xlink:href="#rim" fill="#404040">
                                <set attributeName="fill" to="#808080" begin="zoomminus.mouseover" end="zoomminus.mouseout"/>
                        </use>
                        <path d="M-4,0h8" fill="none" stroke="white" stroke-width="1.5" pointer-events="none"/>
                </g>
                <g id="dirArrow">
                        <path fill="none" stroke="white" stroke-width="1.5" d="M0,-3.0v7 M-2.5,-0.5L0,-3.0L2.5,-0.5"/>
                </g>
               <g id="resetDef">
                       <use xlink:href="#rim2" fill="#404040">
                               <set attributeName="fill" to="#808080" begin="reset.mouseover" end="reset.mouseout"/>
                       </use>
               </g>
        </defs>

<script type="text/javascript">
var viewWidth = 560;
var viewHeight = 404;
var sectionId = 'dynsection-0';
</script>
<script xlink:href="svgpan.js"/>
<svg id="graph" class="graph">
<g id="viewport">
<title>HardpointAimHelper</title>
<polygon fill="white" stroke="none" points="-4,4 -4,-400 556,-400 556,4 -4,4"/>
<!-- Node1 -->
<g id="node1" class="node"><title>Node1</title>
<polygon fill="#bfbfbf" stroke="black" points="448.5,-150.5 448.5,-169.5 551.5,-169.5 551.5,-150.5 448.5,-150.5"/>
<text text-anchor="middle" x="500" y="-157.5" font-family="Helvetica,sans-Serif" font-size="10.00">HardpointAimHelper</text>
</g>
<!-- Node2 -->
<g id="node2" class="node"><title>Node2</title>
<g id="a_node2"><a xlink:href="class_world_object.html" target="_top" xlink:title="WorldObject">
<polygon fill="white" stroke="black" points="270.5,-224.5 270.5,-243.5 341.5,-243.5 341.5,-224.5 270.5,-224.5"/>
<text text-anchor="middle" x="306" y="-231.5" font-family="Helvetica,sans-Serif" font-size="10.00">WorldObject</text>
</a>
</g>
</g>
<!-- Node2&#45;&gt;Node1 -->
<g id="edge1" class="edge"><title>Node2&#45;&gt;Node1</title>
<path fill="none" stroke="#9a32cd" stroke-dasharray="5,2" d="M341.365,-220.755C379.534,-206.044 440.223,-182.654 474.083,-169.603"/>
<polygon fill="#9a32cd" stroke="#9a32cd" points="339.78,-217.615 331.708,-224.477 342.297,-224.147 339.78,-217.615"/>
<text text-anchor="middle" x="395" y="-216" font-family="Helvetica,sans-Serif" font-size="10.00"> m_targetObject</text>
</g>
<!-- Node3 -->
<g id="node3" class="node"><title>Node3</title>
<g id="a_node3"><a xlink:href="class_voxel_cluster.html" target="_top" xlink:title="VoxelCluster">
<polygon fill="white" stroke="red" points="36,-376.5 36,-395.5 108,-395.5 108,-376.5 36,-376.5"/>
<text text-anchor="middle" x="72" y="-383.5" font-family="Helvetica,sans-Serif" font-size="10.00">VoxelCluster</text>
</a>
</g>
</g>
<!-- Node3&#45;&gt;Node2 -->
<g id="edge2" class="edge"><title>Node3&#45;&gt;Node2</title>
<path fill="none" stroke="midnightblue" d="M118.275,-391.364C157.592,-393.521 214.028,-390.295 252,-361 290.779,-331.083 301.437,-267.641 304.145,-243.551"/>
<polygon fill="midnightblue" stroke="midnightblue" points="118.386,-387.863 108.17,-390.671 117.907,-394.847 118.386,-387.863"/>
</g>
<!-- Node4 -->
<g id="node4" class="node"><title>Node4</title>
<g id="a_node4"><a xlink:href="class_voxel.html" target="_top" xlink:title="Voxel">
<polygon fill="white" stroke="red" points="51.5,-338.5 51.5,-357.5 92.5,-357.5 92.5,-338.5 51.5,-338.5"/>
<text text-anchor="middle" x="72" y="-345.5" font-family="Helvetica,sans-Serif" font-size="10.00">Voxel</text>
</a>
</g>
</g>
<!-- Node4&#45;&gt;Node2 -->
<g id="edge3" class="edge"><title>Node4&#45;&gt;Node2</title>
<path fill="none" stroke="#9a32cd" stroke-dasharray="5,2" d="M102.967,-349.868C140.85,-350.75 206.589,-347.208 252,-317 279.331,-298.819 295.478,-261.222 301.843,-243.56"/>
<polygon fill="#9a32cd" stroke="#9a32cd" points="102.728,-346.358 92.6094,-349.499 102.478,-353.353 102.728,-346.358"/>
<text text-anchor="middle" x="207" y="-349" font-family="Helvetica,sans-Serif" font-size="10.00"> m_crucialVoxel</text>
</g>
<!-- Node5 -->
<g id="node5" class="node"><title>Node5</title>
<polygon fill="white" stroke="#bfbfbf" points="0.5,-300.5 0.5,-319.5 143.5,-319.5 143.5,-300.5 0.5,-300.5"/>
<text text-anchor="middle" x="72" y="-307.5" font-family="Helvetica,sans-Serif" font-size="10.00">std::unique_ptr&lt; ObjectInfo &gt;</text>
</g>
<!-- Node5&#45;&gt;Node2 -->
<g id="edge4" class="edge"><title>Node5&#45;&gt;Node2</title>
<path fill="none" stroke="#9a32cd" stroke-dasharray="5,2" d="M153.662,-304.496C185.423,-300.079 221.515,-292.162 252,-278 269.787,-269.737 286.536,-254.003 296.277,-243.762"/>
<polygon fill="#9a32cd" stroke="#9a32cd" points="152.983,-301.055 143.515,-305.811 153.882,-307.997 152.983,-301.055"/>
<text text-anchor="middle" x="207" y="-305" font-family="Helvetica,sans-Serif" font-size="10.00"> m_objectInfo</text>
</g>
<!-- Node6 -->
<g id="node6" class="node"><title>Node6</title>
<g id="a_node6"><a xlink:href="class_handle.html" target="_top" xlink:title="Handle\&lt; WorldObject \&gt;">
<polygon fill="white" stroke="black" points="12.5,-262.5 12.5,-281.5 131.5,-281.5 131.5,-262.5 12.5,-262.5"/>
<text text-anchor="middle" x="72" y="-269.5" font-family="Helvetica,sans-Serif" font-size="10.00">Handle&lt; WorldObject &gt;</text>
</a>
</g>
</g>
<!-- Node6&#45;&gt;Node2 -->
<g id="edge5" class="edge"><title>Node6&#45;&gt;Node2</title>
<path fill="none" stroke="#9a32cd" stroke-dasharray="5,2" d="M141.937,-265.554C175.361,-261.816 215.975,-256.37 252,-249 259.308,-247.505 267.082,-245.528 274.361,-243.503"/>
<polygon fill="#9a32cd" stroke="#9a32cd" points="141.369,-262.095 131.808,-266.659 142.129,-269.054 141.369,-262.095"/>
<text text-anchor="middle" x="207" y="-266" font-family="Helvetica,sans-Serif" font-size="10.00"> m_handle</text>
</g>
<!-- Node7 -->
<g id="node7" class="node"><title>Node7</title>
<polygon fill="white" stroke="#bfbfbf" points="5,-224.5 5,-243.5 139,-243.5 139,-224.5 5,-224.5"/>
<text text-anchor="middle" x="72" y="-231.5" font-family="Helvetica,sans-Serif" font-size="10.00">std::unique_ptr&lt; Physics &gt;</text>
</g>
<!-- Node7&#45;&gt;Node2 -->
<g id="edge6" class="edge"><title>Node7&#45;&gt;Node2</title>
<path fill="none" stroke="#9a32cd" stroke-dasharray="5,2" d="M149.374,-234C190.193,-234 238.452,-234 270.287,-234"/>
<polygon fill="#9a32cd" stroke="#9a32cd" points="149.171,-230.5 139.171,-234 149.171,-237.5 149.171,-230.5"/>
<text text-anchor="middle" x="207" y="-237" font-family="Helvetica,sans-Serif" font-size="10.00"> m_physics</text>
</g>
<!-- Node8 -->
<g id="node8" class="node"><title>Node8</title>
<polygon fill="white" stroke="#bfbfbf" points="8.5,-175 8.5,-205 135.5,-205 135.5,-175 8.5,-175"/>
<text text-anchor="start" x="16.5" y="-193" font-family="Helvetica,sans-Serif" font-size="10.00">std::unique_ptr&lt; Collision</text>
<text text-anchor="middle" x="72" y="-182" font-family="Helvetica,sans-Serif" font-size="10.00">Filter &gt;</text>
</g>
<!-- Node8&#45;&gt;Node2 -->
<g id="edge7" class="edge"><title>Node8&#45;&gt;Node2</title>
<path fill="none" stroke="#9a32cd" stroke-dasharray="5,2" d="M145.799,-199.851C178.442,-204.766 217.322,-211.31 252,-219 259.002,-220.553 266.45,-222.483 273.482,-224.436"/>
<polygon fill="#9a32cd" stroke="#9a32cd" points="146.286,-196.385 135.88,-198.378 145.258,-203.309 146.286,-196.385"/>
<text text-anchor="middle" x="207" y="-222" font-family="Helvetica,sans-Serif" font-size="10.00"> m_collisionFilter</text>
</g>
<!-- Node9 -->
<g id="node9" class="node"><title>Node9</title>
<polygon fill="white" stroke="#bfbfbf" points="8.5,-126 8.5,-156 135.5,-156 135.5,-126 8.5,-126"/>
<text text-anchor="start" x="16.5" y="-144" font-family="Helvetica,sans-Serif" font-size="10.00">std::unique_ptr&lt; Collision</text>
<text text-anchor="middle" x="72" y="-133" font-family="Helvetica,sans-Serif" font-size="10.00">Detector &gt;</text>
</g>
<!-- Node9&#45;&gt;Node2 -->
<g id="edge8" class="edge"><title>Node9&#45;&gt;Node2</title>
<path fill="none" stroke="#9a32cd" stroke-dasharray="5,2" d="M145.874,-152.266C179.51,-159.405 219.17,-170.666 252,-188 269.885,-197.443 286.86,-213.981 296.586,-224.443"/>
<polygon fill="#9a32cd" stroke="#9a32cd" points="146.14,-148.748 135.642,-150.18 144.742,-155.607 146.14,-148.748"/>
<text text-anchor="middle" x="207" y="-191" font-family="Helvetica,sans-Serif" font-size="10.00"> m_collisionDetector</text>
</g>
<!-- Node10 -->
<g id="node10" class="node"><title>Node10</title>
<polygon fill="white" stroke="#bfbfbf" points="0,-77 0,-107 144,-107 144,-77 0,-77"/>
<text text-anchor="start" x="8" y="-95" font-family="Helvetica,sans-Serif" font-size="10.00">std::unique_ptr&lt; WorldObject</text>
<text text-anchor="middle" x="72" y="-84" font-family="Helvetica,sans-Serif" font-size="10.00">Components &gt;</text>
</g>
<!-- Node10&#45;&gt;Node2 -->
<g id="edge9" class="edge"><title>Node10&#45;&gt;Node2</title>
<path fill="none" stroke="#9a32cd" stroke-dasharray="5,2" d="M154.245,-100.494C187.246,-107.243 224.089,-119.338 252,-141 280.628,-163.218 296.394,-205.548 302.283,-224.46"/>
<polygon fill="#9a32cd" stroke="#9a32cd" points="154.619,-97.0021 144.14,-98.5661 153.307,-103.878 154.619,-97.0021"/>
<text text-anchor="middle" x="207" y="-144" font-family="Helvetica,sans-Serif" font-size="10.00"> m_components</text>
</g>
<!-- Node11 -->
<g id="node11" class="node"><title>Node11</title>
<g id="a_node11"><a xlink:href="class_hardpoint.html" target="_top" xlink:title="Hardpoint">
<polygon fill="white" stroke="black" points="277,-38.5 277,-57.5 335,-57.5 335,-38.5 277,-38.5"/>
<text text-anchor="middle" x="306" y="-45.5" font-family="Helvetica,sans-Serif" font-size="10.00">Hardpoint</text>
</a>
</g>
</g>
<!-- Node11&#45;&gt;Node1 -->
<g id="edge10" class="edge"><title>Node11&#45;&gt;Node1</title>
<path fill="none" stroke="#9a32cd" stroke-dasharray="5,2" d="M332.24,-62.7233C372.249,-86.0617 449.125,-130.906 482.672,-150.475"/>
<polygon fill="#9a32cd" stroke="#9a32cd" points="333.771,-59.5646 323.37,-57.5491 330.244,-65.611 333.771,-59.5646"/>
<text text-anchor="middle" x="395" y="-121" font-family="Helvetica,sans-Serif" font-size="10.00"> m_hardpoint</text>
</g>
<!-- Node12 -->
<g id="node12" class="node"><title>Node12</title>
<g id="a_node12"><a xlink:href="class_world_object_slot.html" target="_top" xlink:title="WorldObjectSlot">
<polygon fill="white" stroke="red" points="28,-38.5 28,-57.5 116,-57.5 116,-38.5 28,-38.5"/>
<text text-anchor="middle" x="72" y="-45.5" font-family="Helvetica,sans-Serif" font-size="10.00">WorldObjectSlot</text>
</a>
</g>
</g>
<!-- Node12&#45;&gt;Node11 -->
<g id="edge11" class="edge"><title>Node12&#45;&gt;Node11</title>
<path fill="none" stroke="midnightblue" d="M126.365,-48C173.199,-48 239.49,-48 276.743,-48"/>
<polygon fill="midnightblue" stroke="midnightblue" points="126.094,-44.5001 116.094,-48 126.094,-51.5001 126.094,-44.5001"/>
</g>
<!-- Node13 -->
<g id="node13" class="node"><title>Node13</title>
<g id="a_node13"><a xlink:href="class_hardpoint_voxel.html" target="_top" xlink:title="HardpointVoxel">
<polygon fill="white" stroke="red" points="30.5,-0.5 30.5,-19.5 113.5,-19.5 113.5,-0.5 30.5,-0.5"/>
<text text-anchor="middle" x="72" y="-7.5" font-family="Helvetica,sans-Serif" font-size="10.00">HardpointVoxel</text>
</a>
</g>
</g>
<!-- Node13&#45;&gt;Node11 -->
<g id="edge12" class="edge"><title>Node13&#45;&gt;Node11</title>
<path fill="none" stroke="#9a32cd" stroke-dasharray="5,2" d="M124.057,-14.5311C160.048,-18.2183 209.255,-24.255 252,-33 260.151,-34.6675 268.883,-36.9341 276.86,-39.1999"/>
<polygon fill="#9a32cd" stroke="#9a32cd" points="124.103,-11.0183 113.805,-13.5075 123.407,-17.9837 124.103,-11.0183"/>
<text text-anchor="middle" x="207" y="-36" font-family="Helvetica,sans-Serif" font-size="10.00"> m_voxel</text>
</g>
</g>
</svg>
        <g id="navigator" transform="translate(0 0)" fill="#404254">
                <rect fill="#f2f5e9" fill-opacity="0.5" stroke="#606060" stroke-width=".5" x="0" y="0" width="60" height="60"/>
                <use id="zoomplus" xlink:href="#zoomPlus" x="17" y="9" onmousedown="handleZoom(evt,'in')"/>
                <use id="zoomminus" xlink:href="#zoomMin" x="42" y="9" onmousedown="handleZoom(evt,'out')"/>
                <use id="reset" xlink:href="#resetDef" x="30" y="36" onmousedown="handleReset()"/>
                <g id="arrowUp" xlink:href="#dirArrow" transform="translate(30 24)" onmousedown="handlePan(0,-1)">
                  <use xlink:href="#rim" fill="#404040">
                        <set attributeName="fill" to="#808080" begin="arrowUp.mouseover" end="arrowUp.mouseout"/>
                  </use>
                  <path fill="none" stroke="white" stroke-width="1.5" d="M0,-3.0v7 M-2.5,-0.5L0,-3.0L2.5,-0.5"/>
                </g>
                <g id="arrowRight" xlink:href="#dirArrow" transform="rotate(90) translate(36 -43)" onmousedown="handlePan(1,0)">
                  <use xlink:href="#rim" fill="#404040">
                        <set attributeName="fill" to="#808080" begin="arrowRight.mouseover" end="arrowRight.mouseout"/>
                  </use>
                  <path fill="none" stroke="white" stroke-width="1.5" d="M0,-3.0v7 M-2.5,-0.5L0,-3.0L2.5,-0.5"/>
                </g>
                <g id="arrowDown" xlink:href="#dirArrow" transform="rotate(180) translate(-30 -48)" onmousedown="handlePan(0,1)">
                  <use xlink:href="#rim" fill="#404040">
                        <set attributeName="fill" to="#808080" begin="arrowDown.mouseover" end="arrowDown.mouseout"/>
                  </use>
                  <path fill="none" stroke="white" stroke-width="1.5" d="M0,-3.0v7 M-2.5,-0.5L0,-3.0L2.5,-0.5"/>
                </g>
                <g id="arrowLeft" xlink:href="#dirArrow" transform="rotate(270) translate(-36 17)" onmousedown="handlePan(-1,0)">
                  <use xlink:href="#rim" fill="#404040">
                        <set attributeName="fill" to="#808080" begin="arrowLeft.mouseover" end="arrowLeft.mouseout"/>
                  </use>
                  <path fill="none" stroke="white" stroke-width="1.5" d="M0,-3.0v7 M-2.5,-0.5L0,-3.0L2.5,-0.5"/>
                </g>
        </g>
        <svg viewBox="0 0 15 15" width="100%" height="30px" preserveAspectRatio="xMaxYMin meet">
         <g id="arrow_out" transform="scale(0.3 0.3)">
          <a xlink:href="class_hardpoint_aim_helper__coll__graph_org.svg" target="_base">
           <rect id="button" ry="5" rx="5" y="6" x="6" height="38" width="38"
                fill="#f2f5e9" fill-opacity="0.5" stroke="#606060" stroke-width="1.0"/>
           <path id="arrow"
             d="M 11.500037,31.436501 C 11.940474,20.09759 22.043105,11.32322 32.158766,21.979434 L 37.068811,17.246167 C 37.068811,17.246167 37.088388,32 37.088388,32 L 22.160133,31.978069 C 22.160133,31.978069 26.997745,27.140456 26.997745,27.140456 C 18.528582,18.264221 13.291696,25.230495 11.500037,31.436501 z"
             style="fill:#404040;"/>
          </a>
         </g>
        </svg>
</svg>
