<?xml version="1.0" encoding="UTF-8" standalone="no"?>
<!DOCTYPE svg PUBLIC "-//W3C//DTD SVG 1.1//EN"
 "http://www.w3.org/Graphics/SVG/1.1/DTD/svg11.dtd">
<!-- Generated by graphviz version 2.36.0 (20140111.2315)
 -->
<!-- Title: CollisionFilterIgnoringCreator Pages: 1 -->
<svg width="186pt" height="154pt"
 viewBox="0.00 0.00 186.00 154.00" xmlns="http://www.w3.org/2000/svg" xmlns:xlink="http://www.w3.org/1999/xlink">
<g id="graph0" class="graph" transform="scale(1 1) rotate(0) translate(4 150)">
<title>CollisionFilterIgnoringCreator</title>
<polygon fill="white" stroke="none" points="-4,4 -4,-150 182,-150 182,4 -4,4"/>
<!-- Node1 -->
<g id="node1" class="node"><title>Node1</title>
<polygon fill="#bfbfbf" stroke="black" points="0,-0.5 0,-19.5 140,-19.5 140,-0.5 0,-0.5"/>
<text text-anchor="middle" x="70" y="-7.5" font-family="Helvetica,sans-Serif" font-size="10.00">CollisionFilterIgnoringCreator</text>
</g>
<!-- Node2 -->
<g id="node2" class="node"><title>Node2</title>
<g id="a_node2"><a xlink:href="class_collision_filter.html" target="_top" xlink:title="CollisionFilter">
<polygon fill="white" stroke="black" points="103.5,-58.5 103.5,-77.5 178.5,-77.5 178.5,-58.5 103.5,-58.5"/>
<text text-anchor="middle" x="141" y="-65.5" font-family="Helvetica,sans-Serif" font-size="10.00">CollisionFilter</text>
</a>
</g>
</g>
<!-- Node2&#45;&gt;Node1 -->
<g id="edge1" class="edge"><title>Node2&#45;&gt;Node1</title>
<path fill="none" stroke="midnightblue" d="M122.234,-52.1986C109.049,-41.799 91.8701,-28.2496 80.8849,-19.5852"/>
<polygon fill="midnightblue" stroke="midnightblue" points="120.197,-55.05 130.217,-58.4948 124.532,-49.5538 120.197,-55.05"/>
</g>
<!-- Node3 -->
<g id="node3" class="node"><title>Node3</title>
<g id="a_node3"><a xlink:href="class_world_object.html" target="_top" xlink:title="WorldObject">
<polygon fill="white" stroke="red" points="36.5,-126.5 36.5,-145.5 107.5,-145.5 107.5,-126.5 36.5,-126.5"/>
<text text-anchor="middle" x="72" y="-133.5" font-family="Helvetica,sans-Serif" font-size="10.00">WorldObject</text>
</a>
</g>
</g>
<!-- Node3&#45;&gt;Node1 -->
<g id="edge3" class="edge"><title>Node3&#45;&gt;Node1</title>
<path fill="none" stroke="#9a32cd" stroke-dasharray="5,2" d="M60.8721,-117.162C52.576,-101.701 43.4105,-78.6305 48,-58 51.1694,-43.7531 59.1374,-28.7162 64.5617,-19.5943"/>
<polygon fill="#9a32cd" stroke="#9a32cd" points="58.0137,-119.212 66.0449,-126.122 64.0759,-115.711 58.0137,-119.212"/>
<text text-anchor="middle" x="71.5" y="-65.5" font-family="Helvetica,sans-Serif" font-size="10.00"> m_creator</text>
</g>
<!-- Node3&#45;&gt;Node2 -->
<g id="edge2" class="edge"><title>Node3&#45;&gt;Node2</title>
<path fill="none" stroke="#9a32cd" stroke-dasharray="5,2" d="M88.2963,-119.412C101.851,-106.447 120.66,-88.4559 131.757,-77.8411"/>
<polygon fill="#9a32cd" stroke="#9a32cd" points="85.8277,-116.93 81.0205,-126.372 90.6663,-121.989 85.8277,-116.93"/>
<text text-anchor="middle" x="133.5" y="-99.5" font-family="Helvetica,sans-Serif" font-size="10.00"> m_owner</text>
</g>
</g>
</svg>
