<?xml version="1.0" encoding="UTF-8" standalone="no"?>
<!DOCTYPE svg PUBLIC "-//W3C//DTD SVG 1.1//EN"
 "http://www.w3.org/Graphics/SVG/1.1/DTD/svg11.dtd">
<!-- Generated by graphviz version 2.36.0 (20140111.2315)
 -->
<!-- Title: SquadLogic Pages: 1 -->
<svg width="534pt" height="280pt"
 viewBox="0.00 0.00 534.00 280.00" xmlns="http://www.w3.org/2000/svg" xmlns:xlink="http://www.w3.org/1999/xlink">
<g id="graph0" class="graph" transform="scale(1 1) rotate(0) translate(4 276)">
<title>SquadLogic</title>
<polygon fill="white" stroke="none" points="-4,4 -4,-276 530,-276 530,4 -4,4"/>
<!-- Node1 -->
<g id="node1" class="node"><title>Node1</title>
<polygon fill="#bfbfbf" stroke="black" points="26,-225.5 26,-244.5 94,-244.5 94,-225.5 26,-225.5"/>
<text text-anchor="middle" x="60" y="-232.5" font-family="Helvetica,sans-Serif" font-size="10.00">SquadLogic</text>
</g>
<!-- Node8 -->
<g id="node8" class="node"><title>Node8</title>
<polygon fill="white" stroke="#bfbfbf" points="211,-246.5 211,-265.5 361,-265.5 361,-246.5 211,-246.5"/>
<text text-anchor="middle" x="286" y="-253.5" font-family="Helvetica,sans-Serif" font-size="10.00">std::unique_ptr&lt; SquadLogic &gt;</text>
</g>
<!-- Node1&#45;&gt;Node8 -->
<g id="edge9" class="edge"><title>Node1&#45;&gt;Node8</title>
<path fill="none" stroke="#9a32cd" stroke-dasharray="5,2" d="M104.222,-239.052C134.326,-241.874 175.247,-245.711 210.543,-249.02"/>
<polygon fill="#9a32cd" stroke="#9a32cd" points="104.335,-235.547 94.052,-238.099 103.682,-242.517 104.335,-235.547"/>
<text text-anchor="middle" x="161" y="-249" font-family="Helvetica,sans-Serif" font-size="10.00"> ptr</text>
</g>
<!-- Node2 -->
<g id="node2" class="node"><title>Node2</title>
<g id="a_node2"><a xlink:href="class_ship.html" target="_top" xlink:title="Ship">
<polygon fill="white" stroke="black" points="490,-114.5 490,-133.5 526,-133.5 526,-114.5 490,-114.5"/>
<text text-anchor="middle" x="508" y="-121.5" font-family="Helvetica,sans-Serif" font-size="10.00">Ship</text>
</a>
</g>
</g>
<!-- Node2&#45;&gt;Node1 -->
<g id="edge1" class="edge"><title>Node2&#45;&gt;Node1</title>
<path fill="none" stroke="#9a32cd" stroke-dasharray="5,2" d="M493.482,-141.441C487.57,-147.92 480.129,-154.725 472,-159 405.768,-193.829 179.48,-221.868 94.029,-231.451"/>
<polygon fill="#9a32cd" stroke="#9a32cd" points="496.306,-143.522 500.088,-133.626 490.96,-139.004 496.306,-143.522"/>
<text text-anchor="middle" x="286" y="-220" font-family="Helvetica,sans-Serif" font-size="10.00"> m_ship</text>
</g>
<!-- Node3 -->
<g id="node3" class="node"><title>Node3</title>
<g id="a_node3"><a xlink:href="class_world_object.html" target="_top" xlink:title="WorldObject">
<polygon fill="white" stroke="red" points="250.5,-114.5 250.5,-133.5 321.5,-133.5 321.5,-114.5 250.5,-114.5"/>
<text text-anchor="middle" x="286" y="-121.5" font-family="Helvetica,sans-Serif" font-size="10.00">WorldObject</text>
</a>
</g>
</g>
<!-- Node3&#45;&gt;Node2 -->
<g id="edge2" class="edge"><title>Node3&#45;&gt;Node2</title>
<path fill="none" stroke="midnightblue" d="M332.157,-124C381.005,-124 456.386,-124 489.912,-124"/>
<polygon fill="midnightblue" stroke="midnightblue" points="331.86,-120.5 321.86,-124 331.86,-127.5 331.86,-120.5"/>
</g>
<!-- Node4 -->
<g id="node4" class="node"><title>Node4</title>
<g id="a_node4"><a xlink:href="class_handle.html" target="_top" xlink:title="Handle\&lt; WorldObject \&gt;">
<polygon fill="white" stroke="black" points="0.5,-142.5 0.5,-161.5 119.5,-161.5 119.5,-142.5 0.5,-142.5"/>
<text text-anchor="middle" x="60" y="-149.5" font-family="Helvetica,sans-Serif" font-size="10.00">Handle&lt; WorldObject &gt;</text>
</a>
</g>
</g>
<!-- Node4&#45;&gt;Node2 -->
<g id="edge4" class="edge"><title>Node4&#45;&gt;Node2</title>
<path fill="none" stroke="#9a32cd" stroke-dasharray="5,2" d="M129.866,-155.754C132.613,-155.848 135.332,-155.931 138,-156 286.61,-159.857 326.971,-170.654 472,-138 478.002,-136.649 484.315,-134.402 489.901,-132.1"/>
<polygon fill="#9a32cd" stroke="#9a32cd" points="129.971,-152.256 119.844,-155.372 129.703,-159.251 129.971,-152.256"/>
<text text-anchor="middle" x="286" y="-163" font-family="Helvetica,sans-Serif" font-size="10.00"> m_targetObjectHandle</text>
</g>
<!-- Node4&#45;&gt;Node3 -->
<g id="edge3" class="edge"><title>Node4&#45;&gt;Node3</title>
<path fill="none" stroke="#9a32cd" stroke-dasharray="5,2" d="M129.533,-143.433C169.561,-138.43 218.357,-132.33 250.48,-128.315"/>
<polygon fill="#9a32cd" stroke="#9a32cd" points="129.049,-139.966 119.561,-144.68 129.918,-146.912 129.049,-139.966"/>
<text text-anchor="middle" x="161" y="-145" font-family="Helvetica,sans-Serif" font-size="10.00"> m_handle</text>
</g>
<!-- Node5 -->
<g id="node5" class="node"><title>Node5</title>
<polygon fill="white" stroke="#bfbfbf" points="215.5,-76.5 215.5,-95.5 356.5,-95.5 356.5,-76.5 215.5,-76.5"/>
<text text-anchor="middle" x="286" y="-83.5" font-family="Helvetica,sans-Serif" font-size="10.00">std::unique_ptr&lt; Character &gt;</text>
</g>
<!-- Node5&#45;&gt;Node2 -->
<g id="edge5" class="edge"><title>Node5&#45;&gt;Node2</title>
<path fill="none" stroke="#9a32cd" stroke-dasharray="5,2" d="M366.901,-90.9904C399.851,-94.3185 438.166,-99.8439 472,-109 477.998,-110.623 484.311,-113.077 489.898,-115.532"/>
<polygon fill="#9a32cd" stroke="#9a32cd" points="367.147,-87.498 356.858,-90.0266 366.478,-94.466 367.147,-87.498"/>
<text text-anchor="middle" x="430" y="-112" font-family="Helvetica,sans-Serif" font-size="10.00"> m_character</text>
</g>
<!-- Node6 -->
<g id="node6" class="node"><title>Node6</title>
<polygon fill="white" stroke="#bfbfbf" points="202.5,-38.5 202.5,-57.5 369.5,-57.5 369.5,-38.5 202.5,-38.5"/>
<text text-anchor="middle" x="286" y="-45.5" font-family="Helvetica,sans-Serif" font-size="10.00">std::unique_ptr&lt; BoardComputer &gt;</text>
</g>
<!-- Node6&#45;&gt;Node2 -->
<g id="edge6" class="edge"><title>Node6&#45;&gt;Node2</title>
<path fill="none" stroke="#9a32cd" stroke-dasharray="5,2" d="M379.767,-50.1201C410.814,-54.2137 444.493,-62.5901 472,-79 486.11,-87.4173 496.637,-103.84 502.296,-114.346"/>
<polygon fill="#9a32cd" stroke="#9a32cd" points="380.133,-46.639 369.79,-48.9367 379.308,-53.5903 380.133,-46.639"/>
<text text-anchor="middle" x="430" y="-82" font-family="Helvetica,sans-Serif" font-size="10.00"> m_boardComputer</text>
</g>
<!-- Node7 -->
<g id="node7" class="node"><title>Node7</title>
<g id="a_node7"><a xlink:href="class_handle.html" target="_top" xlink:title="Handle\&lt; Ship \&gt;">
<polygon fill="white" stroke="black" points="244,-0.5 244,-19.5 328,-19.5 328,-0.5 244,-0.5"/>
<text text-anchor="middle" x="286" y="-7.5" font-family="Helvetica,sans-Serif" font-size="10.00">Handle&lt; Ship &gt;</text>
</a>
</g>
</g>
<!-- Node7&#45;&gt;Node2 -->
<g id="edge7" class="edge"><title>Node7&#45;&gt;Node2</title>
<path fill="none" stroke="#9a32cd" stroke-dasharray="5,2" d="M338.506,-4.4763C378.926,-2.96236 434.453,-7.45953 472,-37 496.695,-56.4289 504.048,-96.0113 506.171,-114.317"/>
<polygon fill="#9a32cd" stroke="#9a32cd" points="338.125,-0.9911 328.316,-4.99575 338.481,-7.98202 338.125,-0.9911"/>
<text text-anchor="middle" x="430" y="-40" font-family="Helvetica,sans-Serif" font-size="10.00"> m_shipHandle</text>
</g>
<!-- Node8&#45;&gt;Node2 -->
<g id="edge8" class="edge"><title>Node8&#45;&gt;Node2</title>
<path fill="none" stroke="#9a32cd" stroke-dasharray="5,2" d="M371.178,-263.185C405.879,-261.787 444.348,-254.032 472,-231 502.036,-205.983 506.503,-154.747 507.02,-133.529"/>
<polygon fill="#9a32cd" stroke="#9a32cd" points="370.942,-259.69 361.026,-263.422 371.105,-266.688 370.942,-259.69"/>
<text text-anchor="middle" x="430" y="-264" font-family="Helvetica,sans-Serif" font-size="10.00"> m_squadLogic</text>
</g>
</g>
</svg>
