<?xml version="1.0" encoding="UTF-8" standalone="no"?>
<!DOCTYPE svg PUBLIC "-//W3C//DTD SVG 1.1//EN"
 "http://www.w3.org/Graphics/SVG/1.1/DTD/svg11.dtd">
<!-- Generated by graphviz version 2.36.0 (20140111.2315)
 -->
<!-- Title: E Pages: 1 -->
<svg width="163pt" height="168pt"
 viewBox="0.00 0.00 163.00 168.00" xmlns="http://www.w3.org/2000/svg" xmlns:xlink="http://www.w3.org/1999/xlink">
<g id="graph0" class="graph" transform="scale(1 1) rotate(0) translate(4 164)">
<title>E</title>
<polygon fill="white" stroke="none" points="-4,4 -4,-164 159,-164 159,4 -4,4"/>
<!-- Node1 -->
<g id="node1" class="node"><title>Node1</title>
<polygon fill="#bfbfbf" stroke="black" points="14.5,-0.5 14.5,-19.5 43.5,-19.5 43.5,-0.5 14.5,-0.5"/>
<text text-anchor="middle" x="29" y="-7.5" font-family="Helvetica,sans-Serif" font-size="10.00">E</text>
</g>
<!-- Node2 -->
<g id="node2" class="node"><title>Node2</title>
<g id="a_node2"><a xlink:href="class_test_state.html" target="_top" xlink:title="TestState">
<polygon fill="white" stroke="black" points="-0.5,-58.5 -0.5,-77.5 58.5,-77.5 58.5,-58.5 -0.5,-58.5"/>
<text text-anchor="middle" x="29" y="-65.5" font-family="Helvetica,sans-Serif" font-size="10.00">TestState</text>
</a>
</g>
</g>
<!-- Node2&#45;&gt;Node1 -->
<g id="edge1" class="edge"><title>Node2&#45;&gt;Node1</title>
<path fill="none" stroke="midnightblue" d="M29,-47.953C29,-38.2875 29,-27.0312 29,-19.5052"/>
<polygon fill="midnightblue" stroke="midnightblue" points="25.5001,-48.25 29,-58.25 32.5001,-48.25 25.5001,-48.25"/>
</g>
<!-- Node3 -->
<g id="node3" class="node"><title>Node3</title>
<g id="a_node3"><a xlink:href="class_state.html" target="_top" xlink:title="State">
<polygon fill="white" stroke="red" points="9,-128.5 9,-147.5 49,-147.5 49,-128.5 9,-128.5"/>
<text text-anchor="middle" x="29" y="-135.5" font-family="Helvetica,sans-Serif" font-size="10.00">State</text>
</a>
</g>
</g>
<!-- Node3&#45;&gt;Node2 -->
<g id="edge2" class="edge"><title>Node3&#45;&gt;Node2</title>
<path fill="none" stroke="midnightblue" d="M29,-118.039C29,-104.852 29,-87.8842 29,-77.7571"/>
<polygon fill="midnightblue" stroke="midnightblue" points="25.5001,-118.388 29,-128.388 32.5001,-118.388 25.5001,-118.388"/>
</g>
<!-- Node3&#45;&gt;Node3 -->
<g id="edge3" class="edge"><title>Node3&#45;&gt;Node3</title>
<path fill="none" stroke="#9a32cd" stroke-dasharray="5,2" d="M59.4158,-144.803C63.9402,-143.743 67,-141.475 67,-138 67,-132.297 58.7602,-129.846 49.3294,-130.648"/>
<polygon fill="#9a32cd" stroke="#9a32cd" points="59.1244,-141.313 49.3294,-145.352 59.5049,-148.303 59.1244,-141.313"/>
<text text-anchor="middle" x="111" y="-152" font-family="Helvetica,sans-Serif" font-size="10.00"> m_currentSubState</text>
<text text-anchor="middle" x="111" y="-141" font-family="Helvetica,sans-Serif" font-size="10.00">m_initialSubState</text>
<text text-anchor="middle" x="111" y="-130" font-family="Helvetica,sans-Serif" font-size="10.00">m_finalSubState</text>
<text text-anchor="middle" x="111" y="-119" font-family="Helvetica,sans-Serif" font-size="10.00">m_parentState</text>
</g>
</g>
</svg>
