<?xml version="1.0" encoding="UTF-8" standalone="no"?>
<!DOCTYPE svg PUBLIC "-//W3C//DTD SVG 1.1//EN"
 "http://www.w3.org/Graphics/SVG/1.1/DTD/svg11.dtd">
<!-- Generated by graphviz version 2.36.0 (20140111.2315)
 -->
<!-- Title: WorldObjectComponents Pages: 1 -->
<!--zoomable 395 -->
<svg id="main" version="1.1" xmlns="http://www.w3.org/2000/svg" xmlns:xlink="http://www.w3.org/1999/xlink" xml:space="preserve" onload="init(evt)">
<style type="text/css"><![CDATA[
.edge:hover path { stroke: red; }
.edge:hover polygon { stroke: red; fill: red; }
]]></style>
<script type="text/javascript"><![CDATA[
var edges = document.getElementsByTagName('g');
if (edges && edges.length) {
  for (var i=0;i<edges.length;i++) {
    if (edges[i].id.substr(0,4)=='edge') {
      edges[i].setAttribute('class','edge');
    }
  }
}
]]></script>
        <defs>
                <circle id="rim" cx="0" cy="0" r="7"/>
                <circle id="rim2" cx="0" cy="0" r="3.5"/>
                <g id="zoomPlus">
                        <use xlink:href="#rim" fill="#404040">
                                <set attributeName="fill" to="#808080" begin="zoomplus.mouseover" end="zoomplus.mouseout"/>
                        </use>
                        <path d="M-4,0h8M0,-4v8" fill="none" stroke="white" stroke-width="1.5" pointer-events="none"/>
                </g>
                <g id="zoomMin">
                        <use xlink:href="#rim" fill="#404040">
                                <set attributeName="fill" to="#808080" begin="zoomminus.mouseover" end="zoomminus.mouseout"/>
                        </use>
                        <path d="M-4,0h8" fill="none" stroke="white" stroke-width="1.5" pointer-events="none"/>
                </g>
                <g id="dirArrow">
                        <path fill="none" stroke="white" stroke-width="1.5" d="M0,-3.0v7 M-2.5,-0.5L0,-3.0L2.5,-0.5"/>
                </g>
               <g id="resetDef">
                       <use xlink:href="#rim2" fill="#404040">
                               <set attributeName="fill" to="#808080" begin="reset.mouseover" end="reset.mouseout"/>
                       </use>
               </g>
        </defs>

<script type="text/javascript">
var viewWidth = 742;
var viewHeight = 395;
var sectionId = 'dynsection-0';
</script>
<script xlink:href="svgpan.js"/>
<svg id="graph" class="graph">
<g id="viewport">
<title>WorldObjectComponents</title>
<polygon fill="white" stroke="none" points="-4,4 -4,-391 738,-391 738,4 -4,4"/>
<!-- Node1 -->
<g id="node1" class="node"><title>Node1</title>
<polygon fill="#bfbfbf" stroke="black" points="214.5,-44.5 214.5,-63.5 339.5,-63.5 339.5,-44.5 214.5,-44.5"/>
<text text-anchor="middle" x="277" y="-51.5" font-family="Helvetica,sans-Serif" font-size="10.00">WorldObjectComponents</text>
</g>
<!-- Node11 -->
<g id="node11" class="node"><title>Node11</title>
<polygon fill="white" stroke="#bfbfbf" points="392,-68 392,-98 536,-98 536,-68 392,-68"/>
<text text-anchor="start" x="400" y="-86" font-family="Helvetica,sans-Serif" font-size="10.00">std::unique_ptr&lt; WorldObject</text>
<text text-anchor="middle" x="464" y="-75" font-family="Helvetica,sans-Serif" font-size="10.00">Components &gt;</text>
</g>
<!-- Node1&#45;&gt;Node11 -->
<g id="edge11" class="edge"><title>Node1&#45;&gt;Node11</title>
<path fill="none" stroke="#9a32cd" stroke-dasharray="5,2" d="M348.932,-65.119C363,-67.3244 377.774,-69.6402 391.85,-71.8467"/>
<polygon fill="#9a32cd" stroke="#9a32cd" points="349.254,-61.6268 338.832,-63.5359 348.169,-68.5424 349.254,-61.6268"/>
<text text-anchor="middle" x="366" y="-72" font-family="Helvetica,sans-Serif" font-size="10.00"> ptr</text>
</g>
<!-- Node2 -->
<g id="node2" class="node"><title>Node2</title>
<polygon fill="white" stroke="#bfbfbf" points="0.5,-88 0.5,-118 107.5,-118 107.5,-88 0.5,-88"/>
<text text-anchor="start" x="8.5" y="-106" font-family="Helvetica,sans-Serif" font-size="10.00">std::list&lt; std::shared</text>
<text text-anchor="middle" x="54" y="-95" font-family="Helvetica,sans-Serif" font-size="10.00">_ptr&lt; Hardpoint &gt; &gt;</text>
</g>
<!-- Node2&#45;&gt;Node1 -->
<g id="edge1" class="edge"><title>Node2&#45;&gt;Node1</title>
<path fill="none" stroke="#9a32cd" stroke-dasharray="5,2" d="M117.797,-89.0767C154.644,-80.9069 200.25,-70.7953 233.014,-63.5308"/>
<polygon fill="#9a32cd" stroke="#9a32cd" points="116.659,-85.7438 107.654,-91.3255 118.175,-92.5778 116.659,-85.7438"/>
<text text-anchor="middle" x="161" y="-91" font-family="Helvetica,sans-Serif" font-size="10.00"> m_hardpoints</text>
</g>
<!-- Node3 -->
<g id="node3" class="node"><title>Node3</title>
<g id="a_node3"><a xlink:href="class_world_object.html" target="_top" xlink:title="WorldObject">
<polygon fill="white" stroke="black" points="662.5,-215.5 662.5,-234.5 733.5,-234.5 733.5,-215.5 662.5,-215.5"/>
<text text-anchor="middle" x="698" y="-222.5" font-family="Helvetica,sans-Serif" font-size="10.00">WorldObject</text>
</a>
</g>
</g>
<!-- Node3&#45;&gt;Node1 -->
<g id="edge2" class="edge"><title>Node3&#45;&gt;Node1</title>
<path fill="none" stroke="#9a32cd" stroke-dasharray="5,2" d="M694.294,-205.334C689.328,-176.399 676.144,-122.299 644,-90 555.611,-1.18531 387.65,-27.3852 314.062,-44.4534"/>
<polygon fill="#9a32cd" stroke="#9a32cd" points="690.867,-206.074 695.863,-215.417 697.784,-204.998 690.867,-206.074"/>
<text text-anchor="middle" x="464" y="-38" font-family="Helvetica,sans-Serif" font-size="10.00"> m_worldObject</text>
</g>
<!-- Node4 -->
<g id="node4" class="node"><title>Node4</title>
<g id="a_node4"><a xlink:href="class_voxel_cluster.html" target="_top" xlink:title="VoxelCluster">
<polygon fill="white" stroke="red" points="428,-367.5 428,-386.5 500,-386.5 500,-367.5 428,-367.5"/>
<text text-anchor="middle" x="464" y="-374.5" font-family="Helvetica,sans-Serif" font-size="10.00">VoxelCluster</text>
</a>
</g>
</g>
<!-- Node4&#45;&gt;Node3 -->
<g id="edge3" class="edge"><title>Node4&#45;&gt;Node3</title>
<path fill="none" stroke="midnightblue" d="M510.275,-382.364C549.592,-384.521 606.028,-381.295 644,-352 682.779,-322.083 693.437,-258.641 696.145,-234.551"/>
<polygon fill="midnightblue" stroke="midnightblue" points="510.386,-378.863 500.17,-381.671 509.907,-385.847 510.386,-378.863"/>
</g>
<!-- Node5 -->
<g id="node5" class="node"><title>Node5</title>
<g id="a_node5"><a xlink:href="class_voxel.html" target="_top" xlink:title="Voxel">
<polygon fill="white" stroke="red" points="443.5,-329.5 443.5,-348.5 484.5,-348.5 484.5,-329.5 443.5,-329.5"/>
<text text-anchor="middle" x="464" y="-336.5" font-family="Helvetica,sans-Serif" font-size="10.00">Voxel</text>
</a>
</g>
</g>
<!-- Node5&#45;&gt;Node3 -->
<g id="edge4" class="edge"><title>Node5&#45;&gt;Node3</title>
<path fill="none" stroke="#9a32cd" stroke-dasharray="5,2" d="M494.967,-340.868C532.85,-341.75 598.589,-338.208 644,-308 671.331,-289.819 687.478,-252.222 693.843,-234.56"/>
<polygon fill="#9a32cd" stroke="#9a32cd" points="494.728,-337.358 484.609,-340.499 494.478,-344.353 494.728,-337.358"/>
<text text-anchor="middle" x="599" y="-340" font-family="Helvetica,sans-Serif" font-size="10.00"> m_crucialVoxel</text>
</g>
<!-- Node6 -->
<g id="node6" class="node"><title>Node6</title>
<polygon fill="white" stroke="#bfbfbf" points="392.5,-291.5 392.5,-310.5 535.5,-310.5 535.5,-291.5 392.5,-291.5"/>
<text text-anchor="middle" x="464" y="-298.5" font-family="Helvetica,sans-Serif" font-size="10.00">std::unique_ptr&lt; ObjectInfo &gt;</text>
</g>
<!-- Node6&#45;&gt;Node3 -->
<g id="edge5" class="edge"><title>Node6&#45;&gt;Node3</title>
<path fill="none" stroke="#9a32cd" stroke-dasharray="5,2" d="M545.662,-295.496C577.423,-291.079 613.515,-283.162 644,-269 661.787,-260.737 678.536,-245.003 688.277,-234.762"/>
<polygon fill="#9a32cd" stroke="#9a32cd" points="544.983,-292.055 535.515,-296.811 545.882,-298.997 544.983,-292.055"/>
<text text-anchor="middle" x="599" y="-296" font-family="Helvetica,sans-Serif" font-size="10.00"> m_objectInfo</text>
</g>
<!-- Node7 -->
<g id="node7" class="node"><title>Node7</title>
<g id="a_node7"><a xlink:href="class_handle.html" target="_top" xlink:title="Handle\&lt; WorldObject \&gt;">
<polygon fill="white" stroke="black" points="404.5,-253.5 404.5,-272.5 523.5,-272.5 523.5,-253.5 404.5,-253.5"/>
<text text-anchor="middle" x="464" y="-260.5" font-family="Helvetica,sans-Serif" font-size="10.00">Handle&lt; WorldObject &gt;</text>
</a>
</g>
</g>
<!-- Node7&#45;&gt;Node3 -->
<g id="edge6" class="edge"><title>Node7&#45;&gt;Node3</title>
<path fill="none" stroke="#9a32cd" stroke-dasharray="5,2" d="M533.937,-256.554C567.361,-252.816 607.975,-247.37 644,-240 651.308,-238.505 659.082,-236.528 666.361,-234.503"/>
<polygon fill="#9a32cd" stroke="#9a32cd" points="533.369,-253.095 523.808,-257.659 534.129,-260.054 533.369,-253.095"/>
<text text-anchor="middle" x="599" y="-257" font-family="Helvetica,sans-Serif" font-size="10.00"> m_handle</text>
</g>
<!-- Node8 -->
<g id="node8" class="node"><title>Node8</title>
<polygon fill="white" stroke="#bfbfbf" points="397,-215.5 397,-234.5 531,-234.5 531,-215.5 397,-215.5"/>
<text text-anchor="middle" x="464" y="-222.5" font-family="Helvetica,sans-Serif" font-size="10.00">std::unique_ptr&lt; Physics &gt;</text>
</g>
<!-- Node8&#45;&gt;Node3 -->
<g id="edge7" class="edge"><title>Node8&#45;&gt;Node3</title>
<path fill="none" stroke="#9a32cd" stroke-dasharray="5,2" d="M541.374,-225C582.193,-225 630.452,-225 662.287,-225"/>
<polygon fill="#9a32cd" stroke="#9a32cd" points="541.171,-221.5 531.171,-225 541.171,-228.5 541.171,-221.5"/>
<text text-anchor="middle" x="599" y="-228" font-family="Helvetica,sans-Serif" font-size="10.00"> m_physics</text>
</g>
<!-- Node9 -->
<g id="node9" class="node"><title>Node9</title>
<polygon fill="white" stroke="#bfbfbf" points="400.5,-166 400.5,-196 527.5,-196 527.5,-166 400.5,-166"/>
<text text-anchor="start" x="408.5" y="-184" font-family="Helvetica,sans-Serif" font-size="10.00">std::unique_ptr&lt; Collision</text>
<text text-anchor="middle" x="464" y="-173" font-family="Helvetica,sans-Serif" font-size="10.00">Filter &gt;</text>
</g>
<!-- Node9&#45;&gt;Node3 -->
<g id="edge8" class="edge"><title>Node9&#45;&gt;Node3</title>
<path fill="none" stroke="#9a32cd" stroke-dasharray="5,2" d="M537.799,-190.851C570.442,-195.766 609.322,-202.31 644,-210 651.002,-211.553 658.45,-213.483 665.482,-215.436"/>
<polygon fill="#9a32cd" stroke="#9a32cd" points="538.286,-187.385 527.88,-189.378 537.258,-194.309 538.286,-187.385"/>
<text text-anchor="middle" x="599" y="-213" font-family="Helvetica,sans-Serif" font-size="10.00"> m_collisionFilter</text>
</g>
<!-- Node10 -->
<g id="node10" class="node"><title>Node10</title>
<polygon fill="white" stroke="#bfbfbf" points="400.5,-117 400.5,-147 527.5,-147 527.5,-117 400.5,-117"/>
<text text-anchor="start" x="408.5" y="-135" font-family="Helvetica,sans-Serif" font-size="10.00">std::unique_ptr&lt; Collision</text>
<text text-anchor="middle" x="464" y="-124" font-family="Helvetica,sans-Serif" font-size="10.00">Detector &gt;</text>
</g>
<!-- Node10&#45;&gt;Node3 -->
<g id="edge9" class="edge"><title>Node10&#45;&gt;Node3</title>
<path fill="none" stroke="#9a32cd" stroke-dasharray="5,2" d="M537.874,-143.266C571.51,-150.405 611.17,-161.666 644,-179 661.885,-188.443 678.86,-204.981 688.586,-215.443"/>
<polygon fill="#9a32cd" stroke="#9a32cd" points="538.14,-139.748 527.642,-141.18 536.742,-146.607 538.14,-139.748"/>
<text text-anchor="middle" x="599" y="-182" font-family="Helvetica,sans-Serif" font-size="10.00"> m_collisionDetector</text>
</g>
<!-- Node11&#45;&gt;Node3 -->
<g id="edge10" class="edge"><title>Node11&#45;&gt;Node3</title>
<path fill="none" stroke="#9a32cd" stroke-dasharray="5,2" d="M546.245,-91.4938C579.246,-98.243 616.089,-110.338 644,-132 672.628,-154.218 688.394,-196.548 694.283,-215.46"/>
<polygon fill="#9a32cd" stroke="#9a32cd" points="546.619,-88.0021 536.14,-89.5661 545.307,-94.8781 546.619,-88.0021"/>
<text text-anchor="middle" x="599" y="-135" font-family="Helvetica,sans-Serif" font-size="10.00"> m_components</text>
</g>
<!-- Node12 -->
<g id="node12" class="node"><title>Node12</title>
<polygon fill="white" stroke="#bfbfbf" points="0.5,-39 0.5,-69 107.5,-69 107.5,-39 0.5,-39"/>
<text text-anchor="start" x="8.5" y="-57" font-family="Helvetica,sans-Serif" font-size="10.00">std::list&lt; std::shared</text>
<text text-anchor="middle" x="54" y="-46" font-family="Helvetica,sans-Serif" font-size="10.00">_ptr&lt; EngineSlot &gt; &gt;</text>
</g>
<!-- Node12&#45;&gt;Node1 -->
<g id="edge12" class="edge"><title>Node12&#45;&gt;Node1</title>
<path fill="none" stroke="#9a32cd" stroke-dasharray="5,2" d="M117.68,-54C147.967,-54 184.192,-54 214.343,-54"/>
<polygon fill="#9a32cd" stroke="#9a32cd" points="117.654,-50.5001 107.654,-54 117.654,-57.5001 117.654,-50.5001"/>
<text text-anchor="middle" x="161" y="-57" font-family="Helvetica,sans-Serif" font-size="10.00"> m_engineSlots</text>
</g>
<!-- Node13 -->
<g id="node13" class="node"><title>Node13</title>
<g id="a_node13"><a xlink:href="class_abstract_move.html" target="_top" xlink:title="AbstractMove">
<polygon fill="white" stroke="black" points="16,-0.5 16,-19.5 92,-19.5 92,-0.5 16,-0.5"/>
<text text-anchor="middle" x="54" y="-7.5" font-family="Helvetica,sans-Serif" font-size="10.00">AbstractMove</text>
</a>
</g>
</g>
<!-- Node13&#45;&gt;Node1 -->
<g id="edge13" class="edge"><title>Node13&#45;&gt;Node1</title>
<path fill="none" stroke="#9a32cd" stroke-dasharray="5,2" d="M102.532,-19.4633C139.549,-26.8333 190.717,-37.0206 227.882,-44.42"/>
<polygon fill="#9a32cd" stroke="#9a32cd" points="102.981,-15.9841 92.4896,-17.464 101.614,-22.8493 102.981,-15.9841"/>
<text text-anchor="middle" x="161" y="-41" font-family="Helvetica,sans-Serif" font-size="10.00"> m_engineState</text>
</g>
</g>
</svg>
        <g id="navigator" transform="translate(0 0)" fill="#404254">
                <rect fill="#f2f5e9" fill-opacity="0.5" stroke="#606060" stroke-width=".5" x="0" y="0" width="60" height="60"/>
                <use id="zoomplus" xlink:href="#zoomPlus" x="17" y="9" onmousedown="handleZoom(evt,'in')"/>
                <use id="zoomminus" xlink:href="#zoomMin" x="42" y="9" onmousedown="handleZoom(evt,'out')"/>
                <use id="reset" xlink:href="#resetDef" x="30" y="36" onmousedown="handleReset()"/>
                <g id="arrowUp" xlink:href="#dirArrow" transform="translate(30 24)" onmousedown="handlePan(0,-1)">
                  <use xlink:href="#rim" fill="#404040">
                        <set attributeName="fill" to="#808080" begin="arrowUp.mouseover" end="arrowUp.mouseout"/>
                  </use>
                  <path fill="none" stroke="white" stroke-width="1.5" d="M0,-3.0v7 M-2.5,-0.5L0,-3.0L2.5,-0.5"/>
                </g>
                <g id="arrowRight" xlink:href="#dirArrow" transform="rotate(90) translate(36 -43)" onmousedown="handlePan(1,0)">
                  <use xlink:href="#rim" fill="#404040">
                        <set attributeName="fill" to="#808080" begin="arrowRight.mouseover" end="arrowRight.mouseout"/>
                  </use>
                  <path fill="none" stroke="white" stroke-width="1.5" d="M0,-3.0v7 M-2.5,-0.5L0,-3.0L2.5,-0.5"/>
                </g>
                <g id="arrowDown" xlink:href="#dirArrow" transform="rotate(180) translate(-30 -48)" onmousedown="handlePan(0,1)">
                  <use xlink:href="#rim" fill="#404040">
                        <set attributeName="fill" to="#808080" begin="arrowDown.mouseover" end="arrowDown.mouseout"/>
                  </use>
                  <path fill="none" stroke="white" stroke-width="1.5" d="M0,-3.0v7 M-2.5,-0.5L0,-3.0L2.5,-0.5"/>
                </g>
                <g id="arrowLeft" xlink:href="#dirArrow" transform="rotate(270) translate(-36 17)" onmousedown="handlePan(-1,0)">
                  <use xlink:href="#rim" fill="#404040">
                        <set attributeName="fill" to="#808080" begin="arrowLeft.mouseover" end="arrowLeft.mouseout"/>
                  </use>
                  <path fill="none" stroke="white" stroke-width="1.5" d="M0,-3.0v7 M-2.5,-0.5L0,-3.0L2.5,-0.5"/>
                </g>
        </g>
        <svg viewBox="0 0 15 15" width="100%" height="30px" preserveAspectRatio="xMaxYMin meet">
         <g id="arrow_out" transform="scale(0.3 0.3)">
          <a xlink:href="class_world_object_components__coll__graph_org.svg" target="_base">
           <rect id="button" ry="5" rx="5" y="6" x="6" height="38" width="38"
                fill="#f2f5e9" fill-opacity="0.5" stroke="#606060" stroke-width="1.0"/>
           <path id="arrow"
             d="M 11.500037,31.436501 C 11.940474,20.09759 22.043105,11.32322 32.158766,21.979434 L 37.068811,17.246167 C 37.068811,17.246167 37.088388,32 37.088388,32 L 22.160133,31.978069 C 22.160133,31.978069 26.997745,27.140456 26.997745,27.140456 C 18.528582,18.264221 13.291696,25.230495 11.500037,31.436501 z"
             style="fill:#404040;"/>
          </a>
         </g>
        </svg>
</svg>
