<?xml version="1.0" encoding="UTF-8" standalone="no"?>
<!DOCTYPE svg PUBLIC "-//W3C//DTD SVG 1.1//EN"
 "http://www.w3.org/Graphics/SVG/1.1/DTD/svg11.dtd">
<!-- Generated by graphviz version 2.36.0 (20140111.2315)
 -->
<!-- Title: FormationMemberTask Pages: 1 -->
<svg width="1156pt" height="257pt"
 viewBox="0.00 0.00 1156.00 257.00" xmlns="http://www.w3.org/2000/svg" xmlns:xlink="http://www.w3.org/1999/xlink">
<g id="graph0" class="graph" transform="scale(1 1) rotate(0) translate(4 253)">
<title>FormationMemberTask</title>
<polygon fill="white" stroke="none" points="-4,4 -4,-253 1152,-253 1152,4 -4,4"/>
<!-- Node1 -->
<g id="node1" class="node"><title>Node1</title>
<polygon fill="#bfbfbf" stroke="black" points="1032,-199.5 1032,-218.5 1148,-218.5 1148,-199.5 1032,-199.5"/>
<text text-anchor="middle" x="1090" y="-206.5" font-family="Helvetica,sans-Serif" font-size="10.00">FormationMemberTask</text>
</g>
<!-- Node2 -->
<g id="node2" class="node"><title>Node2</title>
<g id="a_node2"><a xlink:href="class_ai_task.html" target="_top" xlink:title="AiTask">
<polygon fill="white" stroke="black" points="658.5,-229.5 658.5,-248.5 705.5,-248.5 705.5,-229.5 658.5,-229.5"/>
<text text-anchor="middle" x="682" y="-236.5" font-family="Helvetica,sans-Serif" font-size="10.00">AiTask</text>
</a>
</g>
</g>
<!-- Node2&#45;&gt;Node1 -->
<g id="edge1" class="edge"><title>Node2&#45;&gt;Node1</title>
<path fill="none" stroke="midnightblue" d="M715.892,-239.337C775.563,-239.542 905.525,-238.124 1014,-224 1024.53,-222.628 1035.81,-220.649 1046.33,-218.576"/>
<polygon fill="midnightblue" stroke="midnightblue" points="715.607,-235.835 705.589,-239.282 715.57,-242.835 715.607,-235.835"/>
</g>
<!-- Node11 -->
<g id="node11" class="node"><title>Node11</title>
<g id="a_node11"><a xlink:href="class_fly_to_task.html" target="_top" xlink:title="FlyToTask">
<polygon fill="white" stroke="black" points="886,-199.5 886,-218.5 948,-218.5 948,-199.5 886,-199.5"/>
<text text-anchor="middle" x="917" y="-206.5" font-family="Helvetica,sans-Serif" font-size="10.00">FlyToTask</text>
</a>
</g>
</g>
<!-- Node2&#45;&gt;Node11 -->
<g id="edge14" class="edge"><title>Node2&#45;&gt;Node11</title>
<path fill="none" stroke="midnightblue" d="M715.934,-234.76C761.222,-228.929 842.076,-218.518 885.85,-212.882"/>
<polygon fill="midnightblue" stroke="midnightblue" points="715.236,-231.32 705.765,-236.069 716.13,-238.263 715.236,-231.32"/>
</g>
<!-- Node3 -->
<g id="node3" class="node"><title>Node3</title>
<g id="a_node3"><a xlink:href="class_board_computer.html" target="_top" xlink:title="BoardComputer">
<polygon fill="white" stroke="red" points="386,-191.5 386,-210.5 470,-210.5 470,-191.5 386,-191.5"/>
<text text-anchor="middle" x="428" y="-198.5" font-family="Helvetica,sans-Serif" font-size="10.00">BoardComputer</text>
</a>
</g>
</g>
<!-- Node3&#45;&gt;Node2 -->
<g id="edge2" class="edge"><title>Node3&#45;&gt;Node2</title>
<path fill="none" stroke="#9a32cd" stroke-dasharray="5,2" d="M480.182,-212.117C485.513,-213.148 490.859,-214.131 496,-215 554.279,-224.854 623.485,-232.856 658.419,-236.638"/>
<polygon fill="#9a32cd" stroke="#9a32cd" points="480.498,-208.611 470.007,-210.09 479.131,-215.476 480.498,-208.611"/>
<text text-anchor="middle" x="538" y="-229" font-family="Helvetica,sans-Serif" font-size="10.00"> m_boardComputer</text>
</g>
<!-- Node8 -->
<g id="node8" class="node"><title>Node8</title>
<polygon fill="white" stroke="#bfbfbf" points="598.5,-191.5 598.5,-210.5 765.5,-210.5 765.5,-191.5 598.5,-191.5"/>
<text text-anchor="middle" x="682" y="-198.5" font-family="Helvetica,sans-Serif" font-size="10.00">std::unique_ptr&lt; BoardComputer &gt;</text>
</g>
<!-- Node3&#45;&gt;Node8 -->
<g id="edge10" class="edge"><title>Node3&#45;&gt;Node8</title>
<path fill="none" stroke="#9a32cd" stroke-dasharray="5,2" d="M480.2,-201C514.147,-201 559.447,-201 598.429,-201"/>
<polygon fill="#9a32cd" stroke="#9a32cd" points="480.049,-197.5 470.049,-201 480.049,-204.5 480.049,-197.5"/>
<text text-anchor="middle" x="538" y="-204" font-family="Helvetica,sans-Serif" font-size="10.00"> ptr</text>
</g>
<!-- Node4 -->
<g id="node4" class="node"><title>Node4</title>
<g id="a_node4"><a xlink:href="class_world_object.html" target="_top" xlink:title="WorldObject">
<polygon fill="white" stroke="red" points="202.5,-153.5 202.5,-172.5 273.5,-172.5 273.5,-153.5 202.5,-153.5"/>
<text text-anchor="middle" x="238" y="-160.5" font-family="Helvetica,sans-Serif" font-size="10.00">WorldObject</text>
</a>
</g>
</g>
<!-- Node4&#45;&gt;Node3 -->
<g id="edge3" class="edge"><title>Node4&#45;&gt;Node3</title>
<path fill="none" stroke="#9a32cd" stroke-dasharray="5,2" d="M283.49,-174.109C286.366,-174.766 289.221,-175.402 292,-176 323.343,-182.74 359.016,-189.299 385.818,-194.006"/>
<polygon fill="#9a32cd" stroke="#9a32cd" points="284.25,-170.692 273.715,-171.818 282.653,-177.508 284.25,-170.692"/>
<text text-anchor="middle" x="326" y="-192" font-family="Helvetica,sans-Serif" font-size="10.00"> m_worldObject</text>
</g>
<!-- Node6 -->
<g id="node6" class="node"><title>Node6</title>
<g id="a_node6"><a xlink:href="class_ship.html" target="_top" xlink:title="Ship">
<polygon fill="white" stroke="black" points="899,-114.5 899,-133.5 935,-133.5 935,-114.5 899,-114.5"/>
<text text-anchor="middle" x="917" y="-121.5" font-family="Helvetica,sans-Serif" font-size="10.00">Ship</text>
</a>
</g>
</g>
<!-- Node4&#45;&gt;Node6 -->
<g id="edge6" class="edge"><title>Node4&#45;&gt;Node6</title>
<path fill="none" stroke="midnightblue" d="M283.832,-164.941C387.473,-168.621 651.359,-173.353 868,-138 878.452,-136.294 889.843,-133.035 898.905,-130.09"/>
<polygon fill="midnightblue" stroke="midnightblue" points="283.852,-161.44 273.73,-164.567 283.593,-168.435 283.852,-161.44"/>
</g>
<!-- Node5 -->
<g id="node5" class="node"><title>Node5</title>
<g id="a_node5"><a xlink:href="class_handle.html" target="_top" xlink:title="Handle\&lt; WorldObject \&gt;">
<polygon fill="white" stroke="black" points="0.5,-132.5 0.5,-151.5 119.5,-151.5 119.5,-132.5 0.5,-132.5"/>
<text text-anchor="middle" x="60" y="-139.5" font-family="Helvetica,sans-Serif" font-size="10.00">Handle&lt; WorldObject &gt;</text>
</a>
</g>
</g>
<!-- Node5&#45;&gt;Node4 -->
<g id="edge4" class="edge"><title>Node5&#45;&gt;Node4</title>
<path fill="none" stroke="#9a32cd" stroke-dasharray="5,2" d="M129.726,-150.2C154.561,-153.164 181.55,-156.384 202.244,-158.853"/>
<polygon fill="#9a32cd" stroke="#9a32cd" points="129.95,-146.702 119.605,-148.993 129.12,-153.653 129.95,-146.702"/>
<text text-anchor="middle" x="161" y="-159" font-family="Helvetica,sans-Serif" font-size="10.00"> m_handle</text>
</g>
<!-- Node5&#45;&gt;Node6 -->
<g id="edge7" class="edge"><title>Node5&#45;&gt;Node6</title>
<path fill="none" stroke="#9a32cd" stroke-dasharray="5,2" d="M129.792,-131.686C162.234,-127.664 201.524,-124 237,-124 237,-124 237,-124 683,-124 763.701,-124 860.123,-124 898.754,-124"/>
<polygon fill="#9a32cd" stroke="#9a32cd" points="128.989,-128.26 119.514,-133 129.877,-135.203 128.989,-128.26"/>
<text text-anchor="middle" x="428" y="-127" font-family="Helvetica,sans-Serif" font-size="10.00"> m_targetObjectHandle</text>
</g>
<!-- Node6&#45;&gt;Node1 -->
<g id="edge5" class="edge"><title>Node6&#45;&gt;Node1</title>
<path fill="none" stroke="#9a32cd" stroke-dasharray="5,2" d="M944.049,-136.948C978.635,-154.14 1038.92,-184.107 1069.71,-199.411"/>
<polygon fill="#9a32cd" stroke="#9a32cd" points="945.534,-133.778 935.021,-132.461 942.418,-140.046 945.534,-133.778"/>
<text text-anchor="middle" x="990" y="-174" font-family="Helvetica,sans-Serif" font-size="10.00"> m_ship</text>
</g>
<!-- Node7 -->
<g id="node7" class="node"><title>Node7</title>
<polygon fill="white" stroke="#bfbfbf" points="611.5,-76.5 611.5,-95.5 752.5,-95.5 752.5,-76.5 611.5,-76.5"/>
<text text-anchor="middle" x="682" y="-83.5" font-family="Helvetica,sans-Serif" font-size="10.00">std::unique_ptr&lt; Character &gt;</text>
</g>
<!-- Node7&#45;&gt;Node6 -->
<g id="edge8" class="edge"><title>Node7&#45;&gt;Node6</title>
<path fill="none" stroke="#9a32cd" stroke-dasharray="5,2" d="M762.763,-84.5125C795.85,-85.7096 834.303,-89.4864 868,-99 879.936,-102.37 892.325,-108.911 901.526,-114.458"/>
<polygon fill="#9a32cd" stroke="#9a32cd" points="762.776,-81.0115 752.678,-84.2203 762.573,-88.0085 762.776,-81.0115"/>
<text text-anchor="middle" x="826" y="-102" font-family="Helvetica,sans-Serif" font-size="10.00"> m_character</text>
</g>
<!-- Node8&#45;&gt;Node6 -->
<g id="edge9" class="edge"><title>Node8&#45;&gt;Node6</title>
<path fill="none" stroke="#9a32cd" stroke-dasharray="5,2" d="M776.021,-199.371C806.645,-195.78 839.997,-188.414 868,-174 886.402,-164.528 901.744,-145.213 909.831,-133.558"/>
<polygon fill="#9a32cd" stroke="#9a32cd" points="775.331,-195.924 765.751,-200.448 776.062,-202.885 775.331,-195.924"/>
<text text-anchor="middle" x="826" y="-201" font-family="Helvetica,sans-Serif" font-size="10.00"> m_boardComputer</text>
</g>
<!-- Node9 -->
<g id="node9" class="node"><title>Node9</title>
<g id="a_node9"><a xlink:href="class_handle.html" target="_top" xlink:title="Handle\&lt; Ship \&gt;">
<polygon fill="white" stroke="black" points="640,-38.5 640,-57.5 724,-57.5 724,-38.5 640,-38.5"/>
<text text-anchor="middle" x="682" y="-45.5" font-family="Helvetica,sans-Serif" font-size="10.00">Handle&lt; Ship &gt;</text>
</a>
</g>
</g>
<!-- Node9&#45;&gt;Node6 -->
<g id="edge11" class="edge"><title>Node9&#45;&gt;Node6</title>
<path fill="none" stroke="#9a32cd" stroke-dasharray="5,2" d="M734.402,-45.0143C773.19,-44.9096 826.61,-49.4901 868,-71 887.167,-80.9608 902.454,-101.866 910.28,-114.236"/>
<polygon fill="#9a32cd" stroke="#9a32cd" points="734.326,-41.5148 724.373,-45.1458 734.418,-48.5142 734.326,-41.5148"/>
<text text-anchor="middle" x="826" y="-74" font-family="Helvetica,sans-Serif" font-size="10.00"> m_shipHandle</text>
</g>
<!-- Node10 -->
<g id="node10" class="node"><title>Node10</title>
<polygon fill="white" stroke="#bfbfbf" points="607,-0.5 607,-19.5 757,-19.5 757,-0.5 607,-0.5"/>
<text text-anchor="middle" x="682" y="-7.5" font-family="Helvetica,sans-Serif" font-size="10.00">std::unique_ptr&lt; SquadLogic &gt;</text>
</g>
<!-- Node10&#45;&gt;Node6 -->
<g id="edge12" class="edge"><title>Node10&#45;&gt;Node6</title>
<path fill="none" stroke="#9a32cd" stroke-dasharray="5,2" d="M767.466,-4.21785C801.301,-5.83485 839.041,-12.9941 868,-33 896.657,-52.7973 909.507,-95.2343 914.004,-114.334"/>
<polygon fill="#9a32cd" stroke="#9a32cd" points="767.212,-0.708011 757.105,-3.88587 766.988,-7.70442 767.212,-0.708011"/>
<text text-anchor="middle" x="826" y="-36" font-family="Helvetica,sans-Serif" font-size="10.00"> m_squadLogic</text>
</g>
<!-- Node11&#45;&gt;Node1 -->
<g id="edge13" class="edge"><title>Node11&#45;&gt;Node1</title>
<path fill="none" stroke="#9a32cd" stroke-dasharray="5,2" d="M958.448,-209C980.351,-209 1007.78,-209 1031.83,-209"/>
<polygon fill="#9a32cd" stroke="#9a32cd" points="958.178,-205.5 948.178,-209 958.178,-212.5 958.178,-205.5"/>
<text text-anchor="middle" x="990" y="-212" font-family="Helvetica,sans-Serif" font-size="10.00"> m_flyTask</text>
</g>
</g>
</svg>
