<?xml version="1.0" encoding="UTF-8" standalone="no"?>
<!DOCTYPE svg PUBLIC "-//W3C//DTD SVG 1.1//EN"
 "http://www.w3.org/Graphics/SVG/1.1/DTD/svg11.dtd">
<!-- Generated by graphviz version 2.36.0 (20140111.2315)
 -->
<!-- Title: VoxelParticleExpireCheck Pages: 1 -->
<svg width="698pt" height="175pt"
 viewBox="0.00 0.00 698.00 175.00" xmlns="http://www.w3.org/2000/svg" xmlns:xlink="http://www.w3.org/1999/xlink">
<g id="graph0" class="graph" transform="scale(1 1) rotate(0) translate(4 171)">
<title>VoxelParticleExpireCheck</title>
<polygon fill="white" stroke="none" points="-4,4 -4,-171 694,-171 694,4 -4,4"/>
<!-- Node1 -->
<g id="node1" class="node"><title>Node1</title>
<polygon fill="#bfbfbf" stroke="black" points="560,-100.5 560,-119.5 690,-119.5 690,-100.5 560,-100.5"/>
<text text-anchor="middle" x="625" y="-107.5" font-family="Helvetica,sans-Serif" font-size="10.00">VoxelParticleExpireCheck</text>
</g>
<!-- Node2 -->
<g id="node2" class="node"><title>Node2</title>
<g id="a_node2"><a xlink:href="class_voxel_particle_remove_check.html" target="_top" xlink:title="VoxelParticleRemoveCheck">
<polygon fill="white" stroke="black" points="306.5,-116.5 306.5,-135.5 443.5,-135.5 443.5,-116.5 306.5,-116.5"/>
<text text-anchor="middle" x="375" y="-123.5" font-family="Helvetica,sans-Serif" font-size="10.00">VoxelParticleRemoveCheck</text>
</a>
</g>
</g>
<!-- Node2&#45;&gt;Node1 -->
<g id="edge1" class="edge"><title>Node2&#45;&gt;Node1</title>
<path fill="none" stroke="midnightblue" d="M454.131,-120.959C488.124,-118.766 527.471,-116.228 559.731,-114.146"/>
<polygon fill="midnightblue" stroke="midnightblue" points="453.521,-117.491 443.767,-121.628 453.972,-124.477 453.521,-117.491"/>
</g>
<!-- Node3 -->
<g id="node3" class="node"><title>Node3</title>
<g id="a_node3"><a xlink:href="class_voxel_particle_engine.html" target="_top" xlink:title="VoxelParticleEngine">
<polygon fill="white" stroke="black" points="323,-78.5 323,-97.5 427,-97.5 427,-78.5 323,-78.5"/>
<text text-anchor="middle" x="375" y="-85.5" font-family="Helvetica,sans-Serif" font-size="10.00">VoxelParticleEngine</text>
</a>
</g>
</g>
<!-- Node3&#45;&gt;Node1 -->
<g id="edge2" class="edge"><title>Node3&#45;&gt;Node1</title>
<path fill="none" stroke="#9a32cd" stroke-dasharray="5,2" d="M437.575,-92.3629C468.868,-94.6967 507.48,-97.7547 542,-101 547.703,-101.536 553.627,-102.125 559.561,-102.736"/>
<polygon fill="#9a32cd" stroke="#9a32cd" points="437.491,-88.8472 427.26,-91.6 436.975,-95.8282 437.491,-88.8472"/>
<text text-anchor="middle" x="502" y="-104" font-family="Helvetica,sans-Serif" font-size="10.00"> m_particleEngine</text>
</g>
<!-- Node4 -->
<g id="node4" class="node"><title>Node4</title>
<polygon fill="white" stroke="#bfbfbf" points="29.5,-147.5 29.5,-166.5 118.5,-166.5 118.5,-147.5 29.5,-147.5"/>
<text text-anchor="middle" x="74" y="-154.5" font-family="Helvetica,sans-Serif" font-size="10.00">std::stack&lt; int &gt;</text>
</g>
<!-- Node4&#45;&gt;Node3 -->
<g id="edge3" class="edge"><title>Node4&#45;&gt;Node3</title>
<path fill="none" stroke="#9a32cd" stroke-dasharray="5,2" d="M128.604,-154.384C172.847,-150.673 236.497,-141.699 288,-120 297.094,-116.169 297.11,-111.283 306,-107 313.84,-103.223 322.562,-100.079 331.074,-97.5081"/>
<polygon fill="#9a32cd" stroke="#9a32cd" points="128.332,-150.895 118.633,-155.159 128.874,-157.874 128.332,-150.895"/>
<text text-anchor="middle" x="227" y="-152" font-family="Helvetica,sans-Serif" font-size="10.00"> m_freeParticleBufferIndices</text>
</g>
<!-- Node5 -->
<g id="node5" class="node"><title>Node5</title>
<polygon fill="white" stroke="#bfbfbf" points="10,-98 10,-128 138,-128 138,-98 10,-98"/>
<text text-anchor="start" x="18" y="-116" font-family="Helvetica,sans-Serif" font-size="10.00">std::vector&lt; VoxelParticle</text>
<text text-anchor="middle" x="74" y="-105" font-family="Helvetica,sans-Serif" font-size="10.00">Data &gt;</text>
</g>
<!-- Node5&#45;&gt;Node3 -->
<g id="edge4" class="edge"><title>Node5&#45;&gt;Node3</title>
<path fill="none" stroke="#9a32cd" stroke-dasharray="5,2" d="M148.285,-106.872C202.482,-102.341 274.921,-96.2842 322.951,-92.2683"/>
<polygon fill="#9a32cd" stroke="#9a32cd" points="147.718,-103.408 138.045,-107.729 148.302,-110.383 147.718,-103.408"/>
<text text-anchor="middle" x="227" y="-108" font-family="Helvetica,sans-Serif" font-size="10.00"> m_cpuParticleBuffer</text>
</g>
<!-- Node6 -->
<g id="node6" class="node"><title>Node6</title>
<polygon fill="white" stroke="#bfbfbf" points="0,-49 0,-79 148,-79 148,-49 0,-49"/>
<text text-anchor="start" x="8" y="-67" font-family="Helvetica,sans-Serif" font-size="10.00">std::unique_ptr&lt; VoxelParticle</text>
<text text-anchor="middle" x="74" y="-56" font-family="Helvetica,sans-Serif" font-size="10.00">Renderer &gt;</text>
</g>
<!-- Node6&#45;&gt;Node3 -->
<g id="edge5" class="edge"><title>Node6&#45;&gt;Node3</title>
<path fill="none" stroke="#9a32cd" stroke-dasharray="5,2" d="M158.534,-69.9297C197.835,-72.8079 245.338,-76.4137 288,-80 299.207,-80.9421 311.228,-82.0188 322.626,-83.0704"/>
<polygon fill="#9a32cd" stroke="#9a32cd" points="158.694,-66.4322 148.466,-69.1951 158.185,-73.4136 158.694,-66.4322"/>
<text text-anchor="middle" x="227" y="-83" font-family="Helvetica,sans-Serif" font-size="10.00"> m_renderer</text>
</g>
<!-- Node7 -->
<g id="node7" class="node"><title>Node7</title>
<polygon fill="white" stroke="#bfbfbf" points="0,-0 0,-30 148,-30 148,-0 0,-0"/>
<text text-anchor="start" x="8" y="-18" font-family="Helvetica,sans-Serif" font-size="10.00">std::unique_ptr&lt; VoxelParticle</text>
<text text-anchor="middle" x="74" y="-7" font-family="Helvetica,sans-Serif" font-size="10.00">Remover &gt;</text>
</g>
<!-- Node7&#45;&gt;Node3 -->
<g id="edge6" class="edge"><title>Node7&#45;&gt;Node3</title>
<path fill="none" stroke="#9a32cd" stroke-dasharray="5,2" d="M158.062,-27.69C197.752,-34.5896 245.713,-44.1513 288,-56 309.936,-62.1464 334.2,-71.411 351.346,-78.3923"/>
<polygon fill="#9a32cd" stroke="#9a32cd" points="158.605,-24.2322 148.158,-25.9935 157.423,-31.1317 158.605,-24.2322"/>
<text text-anchor="middle" x="227" y="-59" font-family="Helvetica,sans-Serif" font-size="10.00"> m_remover</text>
</g>
</g>
</svg>
