<?xml version="1.0" encoding="UTF-8" standalone="no"?>
<!DOCTYPE svg PUBLIC "-//W3C//DTD SVG 1.1//EN"
 "http://www.w3.org/Graphics/SVG/1.1/DTD/svg11.dtd">
<!-- Generated by graphviz version 2.36.0 (20140111.2315)
 -->
<!-- Title: EngineTrailGenerator Pages: 1 -->
<svg width="922pt" height="215pt"
 viewBox="0.00 0.00 922.00 215.00" xmlns="http://www.w3.org/2000/svg" xmlns:xlink="http://www.w3.org/1999/xlink">
<g id="graph0" class="graph" transform="scale(1 1) rotate(0) translate(4 211)">
<title>EngineTrailGenerator</title>
<polygon fill="white" stroke="none" points="-4,4 -4,-211 918,-211 918,4 -4,4"/>
<!-- Node1 -->
<g id="node1" class="node"><title>Node1</title>
<polygon fill="#bfbfbf" stroke="black" points="456.5,-38.5 456.5,-57.5 563.5,-57.5 563.5,-38.5 456.5,-38.5"/>
<text text-anchor="middle" x="510" y="-45.5" font-family="Helvetica,sans-Serif" font-size="10.00">EngineTrailGenerator</text>
</g>
<!-- Node6 -->
<g id="node6" class="node"><title>Node6</title>
<polygon fill="white" stroke="#bfbfbf" points="616,-62 616,-92 754,-92 754,-62 616,-62"/>
<text text-anchor="start" x="624" y="-80" font-family="Helvetica,sans-Serif" font-size="10.00">std::unique_ptr&lt; EngineTrail</text>
<text text-anchor="middle" x="685" y="-69" font-family="Helvetica,sans-Serif" font-size="10.00">Generator &gt;</text>
</g>
<!-- Node1&#45;&gt;Node6 -->
<g id="edge6" class="edge"><title>Node1&#45;&gt;Node6</title>
<path fill="none" stroke="#9a32cd" stroke-dasharray="5,2" d="M574.049,-58.5689C587.636,-60.8465 602.059,-63.2642 615.831,-65.5729"/>
<polygon fill="#9a32cd" stroke="#9a32cd" points="574.287,-55.06 563.846,-56.8585 573.129,-61.9637 574.287,-55.06"/>
<text text-anchor="middle" x="590" y="-66" font-family="Helvetica,sans-Serif" font-size="10.00"> ptr</text>
</g>
<!-- Node2 -->
<g id="node2" class="node"><title>Node2</title>
<g id="a_node2"><a xlink:href="class_engine.html" target="_top" xlink:title="Engine">
<polygon fill="white" stroke="black" points="866.5,-111.5 866.5,-130.5 913.5,-130.5 913.5,-111.5 866.5,-111.5"/>
<text text-anchor="middle" x="890" y="-118.5" font-family="Helvetica,sans-Serif" font-size="10.00">Engine</text>
</a>
</g>
</g>
<!-- Node2&#45;&gt;Node1 -->
<g id="edge1" class="edge"><title>Node2&#45;&gt;Node1</title>
<path fill="none" stroke="#9a32cd" stroke-dasharray="5,2" d="M871.62,-104.414C864.606,-98.1994 856.233,-91.3538 848,-86 809.169,-60.7504 799.169,-51.2545 754,-41 689.794,-26.4236 613.604,-32.2116 563.878,-38.9576"/>
<polygon fill="#9a32cd" stroke="#9a32cd" points="869.4,-107.126 879.141,-111.293 874.124,-101.961 869.4,-107.126"/>
<text text-anchor="middle" x="685" y="-44" font-family="Helvetica,sans-Serif" font-size="10.00"> m_engine</text>
</g>
<!-- Node3 -->
<g id="node3" class="node"><title>Node3</title>
<g id="a_node3"><a xlink:href="class_equipment.html" target="_top" xlink:title="Equipment">
<polygon fill="white" stroke="red" points="653.5,-187.5 653.5,-206.5 716.5,-206.5 716.5,-187.5 653.5,-187.5"/>
<text text-anchor="middle" x="685" y="-194.5" font-family="Helvetica,sans-Serif" font-size="10.00">Equipment</text>
</a>
</g>
</g>
<!-- Node3&#45;&gt;Node2 -->
<g id="edge2" class="edge"><title>Node3&#45;&gt;Node2</title>
<path fill="none" stroke="midnightblue" d="M726.697,-195.862C760.978,-193.347 810.315,-185.973 848,-165 862.962,-156.673 875.581,-140.957 882.718,-130.737"/>
<polygon fill="midnightblue" stroke="midnightblue" points="726.332,-192.378 716.571,-196.497 726.77,-199.365 726.332,-192.378"/>
</g>
<!-- Node4 -->
<g id="node4" class="node"><title>Node4</title>
<g id="a_node4"><a xlink:href="class_engine_slot.html" target="_top" xlink:title="EngineSlot">
<polygon fill="white" stroke="red" points="653,-149.5 653,-168.5 717,-168.5 717,-149.5 653,-149.5"/>
<text text-anchor="middle" x="685" y="-156.5" font-family="Helvetica,sans-Serif" font-size="10.00">EngineSlot</text>
</a>
</g>
</g>
<!-- Node4&#45;&gt;Node2 -->
<g id="edge3" class="edge"><title>Node4&#45;&gt;Node2</title>
<path fill="none" stroke="#9a32cd" stroke-dasharray="5,2" d="M727.318,-155.545C760.332,-152.209 807.599,-146.139 848,-136 854.028,-134.487 860.401,-132.404 866.28,-130.272"/>
<polygon fill="#9a32cd" stroke="#9a32cd" points="726.743,-152.084 717.127,-156.533 727.419,-159.051 726.743,-152.084"/>
<text text-anchor="middle" x="810" y="-153" font-family="Helvetica,sans-Serif" font-size="10.00"> m_engineSlot</text>
</g>
<!-- Node5 -->
<g id="node5" class="node"><title>Node5</title>
<g id="a_node5"><a xlink:href="class_abstract_move.html" target="_top" xlink:title="AbstractMove">
<polygon fill="white" stroke="black" points="647,-111.5 647,-130.5 723,-130.5 723,-111.5 647,-111.5"/>
<text text-anchor="middle" x="685" y="-118.5" font-family="Helvetica,sans-Serif" font-size="10.00">AbstractMove</text>
</a>
</g>
</g>
<!-- Node5&#45;&gt;Node2 -->
<g id="edge4" class="edge"><title>Node5&#45;&gt;Node2</title>
<path fill="none" stroke="#9a32cd" stroke-dasharray="5,2" d="M733.479,-121C775.353,-121 834.538,-121 866.469,-121"/>
<polygon fill="#9a32cd" stroke="#9a32cd" points="733.233,-117.5 723.233,-121 733.233,-124.5 733.233,-117.5"/>
<text text-anchor="middle" x="810" y="-124" font-family="Helvetica,sans-Serif" font-size="10.00"> m_state</text>
</g>
<!-- Node6&#45;&gt;Node2 -->
<g id="edge5" class="edge"><title>Node6&#45;&gt;Node2</title>
<path fill="none" stroke="#9a32cd" stroke-dasharray="5,2" d="M764.444,-88.2214C791.176,-92.7895 821.096,-98.7296 848,-106 854,-107.621 860.363,-109.743 866.24,-111.878"/>
<polygon fill="#9a32cd" stroke="#9a32cd" points="764.808,-84.7337 754.368,-86.5379 763.654,-91.638 764.808,-84.7337"/>
<text text-anchor="middle" x="810" y="-109" font-family="Helvetica,sans-Serif" font-size="10.00"> m_trailGenerator</text>
</g>
<!-- Node7 -->
<g id="node7" class="node"><title>Node7</title>
<polygon fill="white" stroke="#bfbfbf" points="180,-78 180,-108 338,-108 338,-78 180,-78"/>
<text text-anchor="start" x="188" y="-96" font-family="Helvetica,sans-Serif" font-size="10.00">std::unique_ptr&lt; VoxelExplosion</text>
<text text-anchor="middle" x="259" y="-85" font-family="Helvetica,sans-Serif" font-size="10.00">Generator &gt;</text>
</g>
<!-- Node7&#45;&gt;Node1 -->
<g id="edge7" class="edge"><title>Node7&#45;&gt;Node1</title>
<path fill="none" stroke="#9a32cd" stroke-dasharray="5,2" d="M348.144,-85.4642C376.982,-82.1076 409.039,-77.4193 438,-71 453.307,-67.6073 470.005,-62.2835 483.361,-57.612"/>
<polygon fill="#9a32cd" stroke="#9a32cd" points="347.634,-81.9995 338.089,-86.5966 348.417,-88.9555 347.634,-81.9995"/>
<text text-anchor="middle" x="397" y="-87" font-family="Helvetica,sans-Serif" font-size="10.00"> m_generator</text>
</g>
<!-- Node8 -->
<g id="node8" class="node"><title>Node8</title>
<g id="a_node8"><a xlink:href="class_voxel_explosion_generator.html" target="_top" xlink:title="VoxelExplosionGenerator">
<polygon fill="white" stroke="red" points="0.5,-83.5 0.5,-102.5 127.5,-102.5 127.5,-83.5 0.5,-83.5"/>
<text text-anchor="middle" x="64" y="-90.5" font-family="Helvetica,sans-Serif" font-size="10.00">VoxelExplosionGenerator</text>
</a>
</g>
</g>
<!-- Node8&#45;&gt;Node7 -->
<g id="edge8" class="edge"><title>Node8&#45;&gt;Node7</title>
<path fill="none" stroke="#9a32cd" stroke-dasharray="5,2" d="M137.96,-93C151.623,-93 165.957,-93 179.772,-93"/>
<polygon fill="#9a32cd" stroke="#9a32cd" points="137.662,-89.5001 127.662,-93 137.662,-96.5001 137.662,-89.5001"/>
<text text-anchor="middle" x="154" y="-96" font-family="Helvetica,sans-Serif" font-size="10.00"> ptr</text>
</g>
<!-- Node9 -->
<g id="node9" class="node"><title>Node9</title>
<g id="a_node9"><a xlink:href="class_property.html" target="_top" xlink:title="Property\&lt; float \&gt;">
<polygon fill="white" stroke="red" points="214.5,-38.5 214.5,-57.5 303.5,-57.5 303.5,-38.5 214.5,-38.5"/>
<text text-anchor="middle" x="259" y="-45.5" font-family="Helvetica,sans-Serif" font-size="10.00">Property&lt; float &gt;</text>
</a>
</g>
</g>
<!-- Node9&#45;&gt;Node1 -->
<g id="edge9" class="edge"><title>Node9&#45;&gt;Node1</title>
<path fill="none" stroke="#9a32cd" stroke-dasharray="5,2" d="M313.746,-48C355.946,-48 414.381,-48 456.307,-48"/>
<polygon fill="#9a32cd" stroke="#9a32cd" points="313.657,-44.5001 303.657,-48 313.657,-51.5001 313.657,-44.5001"/>
<text text-anchor="middle" x="397" y="-62" font-family="Helvetica,sans-Serif" font-size="10.00"> prop_idleTime</text>
<text text-anchor="middle" x="397" y="-51" font-family="Helvetica,sans-Serif" font-size="10.00">prop_stepDistance</text>
</g>
<!-- Node10 -->
<g id="node10" class="node"><title>Node10</title>
<g id="a_node10"><a xlink:href="class_world_object.html" target="_top" xlink:title="WorldObject">
<polygon fill="white" stroke="red" points="223.5,-0.5 223.5,-19.5 294.5,-19.5 294.5,-0.5 223.5,-0.5"/>
<text text-anchor="middle" x="259" y="-7.5" font-family="Helvetica,sans-Serif" font-size="10.00">WorldObject</text>
</a>
</g>
</g>
<!-- Node10&#45;&gt;Node1 -->
<g id="edge10" class="edge"><title>Node10&#45;&gt;Node1</title>
<path fill="none" stroke="#9a32cd" stroke-dasharray="5,2" d="M304.777,-14.7849C340.861,-18.8814 392.846,-25.3255 438,-33 447.315,-34.5832 457.266,-36.5263 466.681,-38.4824"/>
<polygon fill="#9a32cd" stroke="#9a32cd" points="304.905,-11.2774 294.577,-13.6414 304.125,-18.2338 304.905,-11.2774"/>
<text text-anchor="middle" x="397" y="-36" font-family="Helvetica,sans-Serif" font-size="10.00"> m_creator</text>
</g>
</g>
</svg>
