<?xml version="1.0" encoding="UTF-8" standalone="no"?>
<!DOCTYPE svg PUBLIC "-//W3C//DTD SVG 1.1//EN"
 "http://www.w3.org/Graphics/SVG/1.1/DTD/svg11.dtd">
<!-- Generated by graphviz version 2.36.0 (20140111.2315)
 -->
<!-- Title: CollisionDetector Pages: 1 -->
<!--zoomable 209 -->
<svg id="main" version="1.1" xmlns="http://www.w3.org/2000/svg" xmlns:xlink="http://www.w3.org/1999/xlink" xml:space="preserve" onload="init(evt)">
<style type="text/css"><![CDATA[
.edge:hover path { stroke: red; }
.edge:hover polygon { stroke: red; fill: red; }
]]></style>
<script type="text/javascript"><![CDATA[
var edges = document.getElementsByTagName('g');
if (edges && edges.length) {
  for (var i=0;i<edges.length;i++) {
    if (edges[i].id.substr(0,4)=='edge') {
      edges[i].setAttribute('class','edge');
    }
  }
}
]]></script>
        <defs>
                <circle id="rim" cx="0" cy="0" r="7"/>
                <circle id="rim2" cx="0" cy="0" r="3.5"/>
                <g id="zoomPlus">
                        <use xlink:href="#rim" fill="#404040">
                                <set attributeName="fill" to="#808080" begin="zoomplus.mouseover" end="zoomplus.mouseout"/>
                        </use>
                        <path d="M-4,0h8M0,-4v8" fill="none" stroke="white" stroke-width="1.5" pointer-events="none"/>
                </g>
                <g id="zoomMin">
                        <use xlink:href="#rim" fill="#404040">
                                <set attributeName="fill" to="#808080" begin="zoomminus.mouseover" end="zoomminus.mouseout"/>
                        </use>
                        <path d="M-4,0h8" fill="none" stroke="white" stroke-width="1.5" pointer-events="none"/>
                </g>
                <g id="dirArrow">
                        <path fill="none" stroke="white" stroke-width="1.5" d="M0,-3.0v7 M-2.5,-0.5L0,-3.0L2.5,-0.5"/>
                </g>
               <g id="resetDef">
                       <use xlink:href="#rim2" fill="#404040">
                               <set attributeName="fill" to="#808080" begin="reset.mouseover" end="reset.mouseout"/>
                       </use>
               </g>
        </defs>

<script type="text/javascript">
var viewWidth = 716;
var viewHeight = 209;
var sectionId = 'dynsection-0';
</script>
<script xlink:href="svgpan.js"/>
<svg id="graph" class="graph">
<g id="viewport">
<title>CollisionDetector</title>
<polygon fill="white" stroke="none" points="-4,4 -4,-205 712,-205 712,4 -4,4"/>
<!-- Node1 -->
<g id="node1" class="node"><title>Node1</title>
<polygon fill="#bfbfbf" stroke="black" points="618,-97.5 618,-116.5 708,-116.5 708,-97.5 618,-97.5"/>
<text text-anchor="middle" x="663" y="-104.5" font-family="Helvetica,sans-Serif" font-size="10.00">CollisionDetector</text>
</g>
<!-- Node2 -->
<g id="node2" class="node"><title>Node2</title>
<g id="a_node2"><a xlink:href="class_world_tree.html" target="_top" xlink:title="WorldTree">
<polygon fill="white" stroke="black" points="421.5,-138.5 421.5,-157.5 482.5,-157.5 482.5,-138.5 421.5,-138.5"/>
<text text-anchor="middle" x="452" y="-145.5" font-family="Helvetica,sans-Serif" font-size="10.00">WorldTree</text>
</a>
</g>
</g>
<!-- Node2&#45;&gt;Node1 -->
<g id="edge1" class="edge"><title>Node2&#45;&gt;Node1</title>
<path fill="none" stroke="#9a32cd" stroke-dasharray="5,2" d="M492.636,-141.677C522.295,-136.779 563.806,-129.572 600,-122 607.805,-120.367 616.123,-118.467 624.05,-116.578"/>
<polygon fill="#9a32cd" stroke="#9a32cd" points="491.97,-138.24 482.668,-143.31 493.102,-145.147 491.97,-138.24"/>
<text text-anchor="middle" x="571" y="-135" font-family="Helvetica,sans-Serif" font-size="10.00"> m_worldTree</text>
</g>
<!-- Node3 -->
<g id="node3" class="node"><title>Node3</title>
<g id="a_node3"><a xlink:href="class_world_tree_node.html" target="_top" xlink:title="WorldTreeNode">
<polygon fill="white" stroke="red" points="176.5,-123.5 176.5,-142.5 259.5,-142.5 259.5,-123.5 176.5,-123.5"/>
<text text-anchor="middle" x="218" y="-130.5" font-family="Helvetica,sans-Serif" font-size="10.00">WorldTreeNode</text>
</a>
</g>
</g>
<!-- Node3&#45;&gt;Node2 -->
<g id="edge2" class="edge"><title>Node3&#45;&gt;Node2</title>
<path fill="none" stroke="#9a32cd" stroke-dasharray="5,2" d="M269.745,-138.323C272.536,-138.565 275.302,-138.793 278,-139 328.228,-142.858 386.79,-145.52 421.277,-146.9"/>
<polygon fill="#9a32cd" stroke="#9a32cd" points="269.879,-134.82 259.601,-137.395 269.241,-141.791 269.879,-134.82"/>
<text text-anchor="middle" x="320" y="-147" font-family="Helvetica,sans-Serif" font-size="10.00"> m_root</text>
</g>
<!-- Node3&#45;&gt;Node3 -->
<g id="edge3" class="edge"><title>Node3&#45;&gt;Node3</title>
<path fill="none" stroke="#9a32cd" stroke-dasharray="5,2" d="M200.593,-152.4C201.756,-157.315 207.558,-161 218,-161 234.707,-161 239.536,-151.565 232.488,-142.757"/>
<polygon fill="#9a32cd" stroke="#9a32cd" points="203.965,-153.342 203.512,-142.757 197.265,-151.314 203.965,-153.342"/>
<text text-anchor="middle" x="218" y="-164" font-family="Helvetica,sans-Serif" font-size="10.00"> m_parent</text>
</g>
<!-- Node7 -->
<g id="node7" class="node"><title>Node7</title>
<g id="a_node7"><a xlink:href="class_world_tree_geode.html" target="_top" xlink:title="WorldTreeGeode">
<polygon fill="white" stroke="red" points="407.5,-97.5 407.5,-116.5 496.5,-116.5 496.5,-97.5 407.5,-97.5"/>
<text text-anchor="middle" x="452" y="-104.5" font-family="Helvetica,sans-Serif" font-size="10.00">WorldTreeGeode</text>
</a>
</g>
</g>
<!-- Node3&#45;&gt;Node7 -->
<g id="edge8" class="edge"><title>Node3&#45;&gt;Node7</title>
<path fill="none" stroke="#9a32cd" stroke-dasharray="5,2" d="M269.756,-126.949C272.544,-126.626 275.307,-126.308 278,-126 321.979,-120.976 372.278,-115.48 407.261,-111.697"/>
<polygon fill="#9a32cd" stroke="#9a32cd" points="269.146,-123.497 259.62,-128.134 269.958,-130.449 269.146,-123.497"/>
<text text-anchor="middle" x="320" y="-129" font-family="Helvetica,sans-Serif" font-size="10.00"> m_containingNode</text>
</g>
<!-- Node4 -->
<g id="node4" class="node"><title>Node4</title>
<polygon fill="white" stroke="#bfbfbf" points="388,-3.5 388,-22.5 516,-22.5 516,-3.5 388,-3.5"/>
<text text-anchor="middle" x="452" y="-10.5" font-family="Helvetica,sans-Serif" font-size="10.00">std::list&lt; VoxelCollision &gt;</text>
</g>
<!-- Node4&#45;&gt;Node1 -->
<g id="edge4" class="edge"><title>Node4&#45;&gt;Node1</title>
<path fill="none" stroke="#9a32cd" stroke-dasharray="5,2" d="M497.588,-25.5114C527.378,-34.6507 567.002,-48.3332 600,-65 618.336,-74.2611 637.655,-88.0892 649.76,-97.3191"/>
<polygon fill="#9a32cd" stroke="#9a32cd" points="498.47,-22.1219 487.886,-22.5884 496.451,-28.8243 498.47,-22.1219"/>
<text text-anchor="middle" x="571" y="-68" font-family="Helvetica,sans-Serif" font-size="10.00"> m_collisions</text>
</g>
<!-- Node5 -->
<g id="node5" class="node"><title>Node5</title>
<g id="a_node5"><a xlink:href="class_voxel_collision.html" target="_top" xlink:title="VoxelCollision">
<polygon fill="white" stroke="red" points="179,-0.5 179,-19.5 257,-19.5 257,-0.5 179,-0.5"/>
<text text-anchor="middle" x="218" y="-7.5" font-family="Helvetica,sans-Serif" font-size="10.00">VoxelCollision</text>
</a>
</g>
</g>
<!-- Node5&#45;&gt;Node4 -->
<g id="edge5" class="edge"><title>Node5&#45;&gt;Node4</title>
<path fill="none" stroke="#9a32cd" stroke-dasharray="5,2" d="M267.482,-10.6269C302.475,-11.0794 350.043,-11.6945 387.981,-12.1851"/>
<polygon fill="#9a32cd" stroke="#9a32cd" points="267.095,-7.12172 257.05,-10.492 267.004,-14.1211 267.095,-7.12172"/>
<text text-anchor="middle" x="320" y="-15" font-family="Helvetica,sans-Serif" font-size="10.00"> elements</text>
</g>
<!-- Node6 -->
<g id="node6" class="node"><title>Node6</title>
<g id="a_node6"><a xlink:href="class_world_object.html" target="_top" xlink:title="WorldObject">
<polygon fill="white" stroke="red" points="0.5,-84.5 0.5,-103.5 71.5,-103.5 71.5,-84.5 0.5,-84.5"/>
<text text-anchor="middle" x="36" y="-91.5" font-family="Helvetica,sans-Serif" font-size="10.00">WorldObject</text>
</a>
</g>
</g>
<!-- Node6&#45;&gt;Node1 -->
<g id="edge6" class="edge"><title>Node6&#45;&gt;Node1</title>
<path fill="none" stroke="#9a32cd" stroke-dasharray="5,2" d="M55.0895,-110.093C80.1504,-131.198 127.815,-167.164 176,-181 228.099,-195.96 354.958,-193.44 524,-167 558.508,-161.603 568.039,-161.087 600,-147 618.52,-138.837 637.796,-125.513 649.841,-116.509"/>
<polygon fill="#9a32cd" stroke="#9a32cd" points="57.3538,-107.424 47.4891,-103.559 52.7904,-112.732 57.3538,-107.424"/>
<text text-anchor="middle" x="320" y="-193" font-family="Helvetica,sans-Serif" font-size="10.00"> m_worldObject</text>
</g>
<!-- Node6&#45;&gt;Node7 -->
<g id="edge9" class="edge"><title>Node6&#45;&gt;Node7</title>
<path fill="none" stroke="#9a32cd" stroke-dasharray="5,2" d="M81.8214,-95.4074C161.811,-97.9192 328.17,-103.143 407.326,-105.629"/>
<polygon fill="#9a32cd" stroke="#9a32cd" points="81.6903,-91.9017 71.5853,-95.086 81.4705,-98.8982 81.6903,-91.9017"/>
<text text-anchor="middle" x="218" y="-103" font-family="Helvetica,sans-Serif" font-size="10.00"> m_worldObject</text>
</g>
<!-- Node9 -->
<g id="node9" class="node"><title>Node9</title>
<g id="a_node9"><a xlink:href="class_voxel_tree.html" target="_top" xlink:title="VoxelTree">
<polygon fill="white" stroke="red" points="188,-38.5 188,-57.5 248,-57.5 248,-38.5 188,-38.5"/>
<text text-anchor="middle" x="218" y="-45.5" font-family="Helvetica,sans-Serif" font-size="10.00">VoxelTree</text>
</a>
</g>
</g>
<!-- Node6&#45;&gt;Node9 -->
<g id="edge12" class="edge"><title>Node6&#45;&gt;Node9</title>
<path fill="none" stroke="#9a32cd" stroke-dasharray="5,2" d="M63.3837,-79.7965C71.7067,-75.7992 81.0647,-71.7867 90,-69 122.749,-58.7867 161.885,-53.2712 187.975,-50.4919"/>
<polygon fill="#9a32cd" stroke="#9a32cd" points="61.5503,-76.8003 54.1762,-84.4078 64.6849,-83.0593 61.5503,-76.8003"/>
<text text-anchor="middle" x="124" y="-72" font-family="Helvetica,sans-Serif" font-size="10.00"> m_worldObject</text>
</g>
<!-- Node7&#45;&gt;Node1 -->
<g id="edge7" class="edge"><title>Node7&#45;&gt;Node1</title>
<path fill="none" stroke="#9a32cd" stroke-dasharray="5,2" d="M506.909,-107C541.335,-107 585.416,-107 617.778,-107"/>
<polygon fill="#9a32cd" stroke="#9a32cd" points="506.559,-103.5 496.559,-107 506.559,-110.5 506.559,-103.5"/>
<text text-anchor="middle" x="571" y="-110" font-family="Helvetica,sans-Serif" font-size="10.00"> m_geode</text>
</g>
<!-- Node8 -->
<g id="node8" class="node"><title>Node8</title>
<polygon fill="white" stroke="#bfbfbf" points="380.5,-53.5 380.5,-72.5 523.5,-72.5 523.5,-53.5 380.5,-53.5"/>
<text text-anchor="middle" x="452" y="-60.5" font-family="Helvetica,sans-Serif" font-size="10.00">std::unique_ptr&lt; VoxelTree &gt;</text>
</g>
<!-- Node8&#45;&gt;Node1 -->
<g id="edge10" class="edge"><title>Node8&#45;&gt;Node1</title>
<path fill="none" stroke="#9a32cd" stroke-dasharray="5,2" d="M514.028,-74.4358C540.506,-79.5533 571.838,-85.8184 600,-92 607.68,-93.6858 615.869,-95.5903 623.694,-97.4625"/>
<polygon fill="#9a32cd" stroke="#9a32cd" points="514.615,-70.9847 504.134,-72.5332 513.293,-77.8587 514.615,-70.9847"/>
<text text-anchor="middle" x="571" y="-95" font-family="Helvetica,sans-Serif" font-size="10.00"> m_voxelTree</text>
</g>
<!-- Node9&#45;&gt;Node8 -->
<g id="edge11" class="edge"><title>Node9&#45;&gt;Node8</title>
<path fill="none" stroke="#9a32cd" stroke-dasharray="5,2" d="M258.617,-50.5614C291.859,-52.7107 340.167,-55.8341 380.058,-58.4132"/>
<polygon fill="#9a32cd" stroke="#9a32cd" points="258.588,-47.0523 248.383,-49.8998 258.136,-54.0378 258.588,-47.0523"/>
<text text-anchor="middle" x="320" y="-59" font-family="Helvetica,sans-Serif" font-size="10.00"> ptr</text>
</g>
</g>
</svg>
        <g id="navigator" transform="translate(0 0)" fill="#404254">
                <rect fill="#f2f5e9" fill-opacity="0.5" stroke="#606060" stroke-width=".5" x="0" y="0" width="60" height="60"/>
                <use id="zoomplus" xlink:href="#zoomPlus" x="17" y="9" onmousedown="handleZoom(evt,'in')"/>
                <use id="zoomminus" xlink:href="#zoomMin" x="42" y="9" onmousedown="handleZoom(evt,'out')"/>
                <use id="reset" xlink:href="#resetDef" x="30" y="36" onmousedown="handleReset()"/>
                <g id="arrowUp" xlink:href="#dirArrow" transform="translate(30 24)" onmousedown="handlePan(0,-1)">
                  <use xlink:href="#rim" fill="#404040">
                        <set attributeName="fill" to="#808080" begin="arrowUp.mouseover" end="arrowUp.mouseout"/>
                  </use>
                  <path fill="none" stroke="white" stroke-width="1.5" d="M0,-3.0v7 M-2.5,-0.5L0,-3.0L2.5,-0.5"/>
                </g>
                <g id="arrowRight" xlink:href="#dirArrow" transform="rotate(90) translate(36 -43)" onmousedown="handlePan(1,0)">
                  <use xlink:href="#rim" fill="#404040">
                        <set attributeName="fill" to="#808080" begin="arrowRight.mouseover" end="arrowRight.mouseout"/>
                  </use>
                  <path fill="none" stroke="white" stroke-width="1.5" d="M0,-3.0v7 M-2.5,-0.5L0,-3.0L2.5,-0.5"/>
                </g>
                <g id="arrowDown" xlink:href="#dirArrow" transform="rotate(180) translate(-30 -48)" onmousedown="handlePan(0,1)">
                  <use xlink:href="#rim" fill="#404040">
                        <set attributeName="fill" to="#808080" begin="arrowDown.mouseover" end="arrowDown.mouseout"/>
                  </use>
                  <path fill="none" stroke="white" stroke-width="1.5" d="M0,-3.0v7 M-2.5,-0.5L0,-3.0L2.5,-0.5"/>
                </g>
                <g id="arrowLeft" xlink:href="#dirArrow" transform="rotate(270) translate(-36 17)" onmousedown="handlePan(-1,0)">
                  <use xlink:href="#rim" fill="#404040">
                        <set attributeName="fill" to="#808080" begin="arrowLeft.mouseover" end="arrowLeft.mouseout"/>
                  </use>
                  <path fill="none" stroke="white" stroke-width="1.5" d="M0,-3.0v7 M-2.5,-0.5L0,-3.0L2.5,-0.5"/>
                </g>
        </g>
        <svg viewBox="0 0 15 15" width="100%" height="30px" preserveAspectRatio="xMaxYMin meet">
         <g id="arrow_out" transform="scale(0.3 0.3)">
          <a xlink:href="class_collision_detector__coll__graph_org.svg" target="_base">
           <rect id="button" ry="5" rx="5" y="6" x="6" height="38" width="38"
                fill="#f2f5e9" fill-opacity="0.5" stroke="#606060" stroke-width="1.0"/>
           <path id="arrow"
             d="M 11.500037,31.436501 C 11.940474,20.09759 22.043105,11.32322 32.158766,21.979434 L 37.068811,17.246167 C 37.068811,17.246167 37.088388,32 37.088388,32 L 22.160133,31.978069 C 22.160133,31.978069 26.997745,27.140456 26.997745,27.140456 C 18.528582,18.264221 13.291696,25.230495 11.500037,31.436501 z"
             style="fill:#404040;"/>
          </a>
         </g>
        </svg>
</svg>
