<?xml version="1.0" encoding="UTF-8" standalone="no"?>
<!DOCTYPE svg PUBLIC "-//W3C//DTD SVG 1.1//EN"
 "http://www.w3.org/Graphics/SVG/1.1/DTD/svg11.dtd">
<!-- Generated by graphviz version 2.36.0 (20140111.2315)
 -->
<!-- Title: VoxelTreeQuery Pages: 1 -->
<svg width="308pt" height="174pt"
 viewBox="0.00 0.00 308.08 174.00" xmlns="http://www.w3.org/2000/svg" xmlns:xlink="http://www.w3.org/1999/xlink">
<g id="graph0" class="graph" transform="scale(1 1) rotate(0) translate(4 170)">
<title>VoxelTreeQuery</title>
<polygon fill="white" stroke="none" points="-4,4 -4,-170 304.084,-170 304.084,4 -4,4"/>
<!-- Node1 -->
<g id="node1" class="node"><title>Node1</title>
<polygon fill="#bfbfbf" stroke="black" points="174.084,-0.5 174.084,-19.5 260.084,-19.5 260.084,-0.5 174.084,-0.5"/>
<text text-anchor="middle" x="217.084" y="-7.5" font-family="Helvetica,sans-Serif" font-size="10.00">VoxelTreeQuery</text>
</g>
<!-- Node2 -->
<g id="node2" class="node"><title>Node2</title>
<g id="a_node2"><a xlink:href="class_voxel_tree.html" target="_top" xlink:title="VoxelTree">
<polygon fill="white" stroke="black" points="58.0842,-78.5 58.0842,-97.5 118.084,-97.5 118.084,-78.5 58.0842,-78.5"/>
<text text-anchor="middle" x="88.0842" y="-85.5" font-family="Helvetica,sans-Serif" font-size="10.00">VoxelTree</text>
</a>
</g>
</g>
<!-- Node2&#45;&gt;Node1 -->
<g id="edge1" class="edge"><title>Node2&#45;&gt;Node1</title>
<path fill="none" stroke="#9a32cd" stroke-dasharray="5,2" d="M120.079,-74.4524C129.369,-70.3216 139.357,-65.3905 148.084,-60 161.254,-51.866 162.554,-47.0885 175.084,-38 184.066,-31.4853 194.566,-24.7353 202.82,-19.614"/>
<polygon fill="#9a32cd" stroke="#9a32cd" points="118.548,-71.3003 110.732,-78.453 121.303,-77.7355 118.548,-71.3003"/>
<text text-anchor="middle" x="204.084" y="-46.5" font-family="Helvetica,sans-Serif" font-size="10.00"> m_voxelTree</text>
</g>
<!-- Node4 -->
<g id="node4" class="node"><title>Node4</title>
<g id="a_node4"><a xlink:href="class_voxel_tree_node.html" target="_top" xlink:title="VoxelTreeNode">
<polygon fill="white" stroke="red" points="7.58424,-0.5 7.58424,-19.5 90.5842,-19.5 90.5842,-0.5 7.58424,-0.5"/>
<text text-anchor="middle" x="49.0842" y="-7.5" font-family="Helvetica,sans-Serif" font-size="10.00">VoxelTreeNode</text>
</a>
</g>
</g>
<!-- Node2&#45;&gt;Node4 -->
<g id="edge4" class="edge"><title>Node2&#45;&gt;Node4</title>
<path fill="none" stroke="#9a32cd" stroke-dasharray="5,2" d="M47.7545,-84.1233C31.4689,-80.7397 14.1721,-73.8387 4.08424,-60 -1.67549,-52.0987 -0.73326,-46.5086 4.08424,-38 8.75271,-29.7546 17.0548,-23.7525 25.2677,-19.5319"/>
<polygon fill="#9a32cd" stroke="#9a32cd" points="47.2463,-87.587 57.6903,-85.8061 48.4152,-80.6853 47.2463,-87.587"/>
<text text-anchor="middle" x="33.0842" y="-46.5" font-family="Helvetica,sans-Serif" font-size="10.00"> m_voxelTree</text>
</g>
<!-- Node3 -->
<g id="node3" class="node"><title>Node3</title>
<g id="a_node3"><a xlink:href="class_world_object.html" target="_top" xlink:title="WorldObject">
<polygon fill="white" stroke="red" points="52.5842,-146.5 52.5842,-165.5 123.584,-165.5 123.584,-146.5 52.5842,-146.5"/>
<text text-anchor="middle" x="88.0842" y="-153.5" font-family="Helvetica,sans-Serif" font-size="10.00">WorldObject</text>
</a>
</g>
</g>
<!-- Node3&#45;&gt;Node2 -->
<g id="edge2" class="edge"><title>Node3&#45;&gt;Node2</title>
<path fill="none" stroke="#9a32cd" stroke-dasharray="5,2" d="M88.0842,-136.041C88.0842,-123.472 88.0842,-107.563 88.0842,-97.8411"/>
<polygon fill="#9a32cd" stroke="#9a32cd" points="84.5843,-136.372 88.0842,-146.372 91.5843,-136.372 84.5843,-136.372"/>
<text text-anchor="middle" x="122.084" y="-119.5" font-family="Helvetica,sans-Serif" font-size="10.00"> m_worldObject</text>
</g>
<!-- Node4&#45;&gt;Node2 -->
<g id="edge3" class="edge"><title>Node4&#45;&gt;Node2</title>
<path fill="none" stroke="#9a32cd" stroke-dasharray="5,2" d="M60.6022,-28.5083C62.5099,-31.6255 64.4097,-34.8753 66.0842,-38 73.3961,-51.6438 80.4758,-68.1964 84.5499,-78.1486"/>
<polygon fill="#9a32cd" stroke="#9a32cd" points="63.3921,-26.373 55.0724,-19.813 57.4853,-30.1294 63.3921,-26.373"/>
<text text-anchor="middle" x="110.584" y="-52" font-family="Helvetica,sans-Serif" font-size="10.00"> m_currentRoot</text>
<text text-anchor="middle" x="110.584" y="-41" font-family="Helvetica,sans-Serif" font-size="10.00">m_shadowRoot</text>
</g>
<!-- Node4&#45;&gt;Node4 -->
<g id="edge5" class="edge"><title>Node4&#45;&gt;Node4</title>
<path fill="none" stroke="#9a32cd" stroke-dasharray="5,2" d="M100.935,-15.5406C105.338,-14.357 108.084,-12.5101 108.084,-10 108.084,-5.88086 100.689,-3.54775 90.7093,-3.00068"/>
<polygon fill="#9a32cd" stroke="#9a32cd" points="100.115,-12.1221 90.7093,-16.9993 101.103,-19.0519 100.115,-12.1221"/>
<text text-anchor="middle" x="130.084" y="-7.5" font-family="Helvetica,sans-Serif" font-size="10.00"> m_parent</text>
</g>
<!-- Node5 -->
<g id="node5" class="node"><title>Node5</title>
<g id="a_node5"><a xlink:href="class_abstract_shape.html" target="_top" xlink:title="AbstractShape">
<polygon fill="white" stroke="black" points="218.584,-78.5 218.584,-97.5 299.584,-97.5 299.584,-78.5 218.584,-78.5"/>
<text text-anchor="middle" x="259.084" y="-85.5" font-family="Helvetica,sans-Serif" font-size="10.00">AbstractShape</text>
</a>
</g>
</g>
<!-- Node5&#45;&gt;Node1 -->
<g id="edge6" class="edge"><title>Node5&#45;&gt;Node1</title>
<path fill="none" stroke="#9a32cd" stroke-dasharray="5,2" d="M252.043,-68.8623C248.105,-59.4176 242.836,-47.8221 237.084,-38 233.311,-31.5568 228.311,-24.8068 224.254,-19.6676"/>
<polygon fill="#9a32cd" stroke="#9a32cd" points="248.901,-70.4305 255.879,-78.4028 255.396,-67.8189 248.901,-70.4305"/>
<text text-anchor="middle" x="269.584" y="-46.5" font-family="Helvetica,sans-Serif" font-size="10.00"> m_shape</text>
</g>
</g>
</svg>
