<?xml version="1.0" encoding="UTF-8" standalone="no"?>
<!DOCTYPE svg PUBLIC "-//W3C//DTD SVG 1.1//EN"
 "http://www.w3.org/Graphics/SVG/1.1/DTD/svg11.dtd">
<!-- Generated by graphviz version 2.36.0 (20140111.2315)
 -->
<!-- Title: Equipment Pages: 1 -->
<svg width="246pt" height="140pt"
 viewBox="0.00 0.00 246.00 140.00" xmlns="http://www.w3.org/2000/svg" xmlns:xlink="http://www.w3.org/1999/xlink">
<g id="graph0" class="graph" transform="scale(1 1) rotate(0) translate(4 136)">
<title>Equipment</title>
<polygon fill="white" stroke="none" points="-4,4 -4,-136 242,-136 242,4 -4,4"/>
<!-- Node1 -->
<g id="node1" class="node"><title>Node1</title>
<polygon fill="#bfbfbf" stroke="black" points="50.5,-112.5 50.5,-131.5 113.5,-131.5 113.5,-112.5 50.5,-112.5"/>
<text text-anchor="middle" x="82" y="-119.5" font-family="Helvetica,sans-Serif" font-size="10.00">Equipment</text>
</g>
<!-- Node2 -->
<g id="node2" class="node"><title>Node2</title>
<g id="a_node2"><a xlink:href="class_engine.html" target="_top" xlink:title="Engine">
<polygon fill="white" stroke="black" points="20.5,-56.5 20.5,-75.5 67.5,-75.5 67.5,-56.5 20.5,-56.5"/>
<text text-anchor="middle" x="44" y="-63.5" font-family="Helvetica,sans-Serif" font-size="10.00">Engine</text>
</a>
</g>
</g>
<!-- Node1&#45;&gt;Node2 -->
<g id="edge1" class="edge"><title>Node1&#45;&gt;Node2</title>
<path fill="none" stroke="midnightblue" d="M69.9353,-103.855C63.3553,-94.5048 55.489,-83.3265 50.1582,-75.7511"/>
<polygon fill="midnightblue" stroke="midnightblue" points="67.1078,-105.919 75.7251,-112.083 72.8324,-101.891 67.1078,-105.919"/>
</g>
<!-- Node4 -->
<g id="node4" class="node"><title>Node4</title>
<g id="a_node4"><a xlink:href="class_weapon.html" target="_top" xlink:title="Weapon">
<polygon fill="white" stroke="black" points="89.5,-56.5 89.5,-75.5 142.5,-75.5 142.5,-56.5 89.5,-56.5"/>
<text text-anchor="middle" x="116" y="-63.5" font-family="Helvetica,sans-Serif" font-size="10.00">Weapon</text>
</a>
</g>
</g>
<!-- Node1&#45;&gt;Node4 -->
<g id="edge3" class="edge"><title>Node1&#45;&gt;Node4</title>
<path fill="none" stroke="midnightblue" d="M92.9772,-103.566C98.827,-94.2747 105.77,-83.2484 110.49,-75.7511"/>
<polygon fill="midnightblue" stroke="midnightblue" points="89.9808,-101.756 87.6144,-112.083 95.9044,-105.486 89.9808,-101.756"/>
</g>
<!-- Node3 -->
<g id="node3" class="node"><title>Node3</title>
<g id="a_node3"><a xlink:href="class_generic_engine.html" target="_top" xlink:title="GenericEngine">
<polygon fill="white" stroke="black" points="0,-0.5 0,-19.5 80,-19.5 80,-0.5 0,-0.5"/>
<text text-anchor="middle" x="40" y="-7.5" font-family="Helvetica,sans-Serif" font-size="10.00">GenericEngine</text>
</a>
</g>
</g>
<!-- Node2&#45;&gt;Node3 -->
<g id="edge2" class="edge"><title>Node2&#45;&gt;Node3</title>
<path fill="none" stroke="midnightblue" d="M42.6,-46.1005C41.936,-37.1357 41.1747,-26.8579 40.6482,-19.7511"/>
<polygon fill="midnightblue" stroke="midnightblue" points="39.1102,-46.3689 43.3395,-56.083 46.0911,-45.8517 39.1102,-46.3689"/>
</g>
<!-- Node5 -->
<g id="node5" class="node"><title>Node5</title>
<g id="a_node5"><a xlink:href="class_gun.html" target="_top" xlink:title="Gun">
<polygon fill="white" stroke="red" points="98.5,-0.5 98.5,-19.5 133.5,-19.5 133.5,-0.5 98.5,-0.5"/>
<text text-anchor="middle" x="116" y="-7.5" font-family="Helvetica,sans-Serif" font-size="10.00">Gun</text>
</a>
</g>
</g>
<!-- Node4&#45;&gt;Node5 -->
<g id="edge4" class="edge"><title>Node4&#45;&gt;Node5</title>
<path fill="none" stroke="midnightblue" d="M116,-45.8045C116,-36.9102 116,-26.7798 116,-19.7511"/>
<polygon fill="midnightblue" stroke="midnightblue" points="112.5,-46.083 116,-56.083 119.5,-46.083 112.5,-46.083"/>
</g>
<!-- Node6 -->
<g id="node6" class="node"><title>Node6</title>
<g id="a_node6"><a xlink:href="class_rocket_launcher.html" target="_top" xlink:title="RocketLauncher">
<polygon fill="white" stroke="red" points="151.5,-0.5 151.5,-19.5 238.5,-19.5 238.5,-0.5 151.5,-0.5"/>
<text text-anchor="middle" x="195" y="-7.5" font-family="Helvetica,sans-Serif" font-size="10.00">RocketLauncher</text>
</a>
</g>
</g>
<!-- Node4&#45;&gt;Node6 -->
<g id="edge5" class="edge"><title>Node4&#45;&gt;Node6</title>
<path fill="none" stroke="midnightblue" d="M137.034,-50.6221C151.466,-40.7574 170.141,-27.9919 182.339,-19.6545"/>
<polygon fill="midnightblue" stroke="midnightblue" points="134.973,-47.7914 128.693,-56.324 138.923,-53.5703 134.973,-47.7914"/>
</g>
</g>
</svg>
