<?xml version="1.0" encoding="UTF-8" standalone="no"?>
<!DOCTYPE svg PUBLIC "-//W3C//DTD SVG 1.1//EN"
 "http://www.w3.org/Graphics/SVG/1.1/DTD/svg11.dtd">
<!-- Generated by graphviz version 2.36.0 (20140111.2315)
 -->
<!-- Title: Ship Pages: 1 -->
<svg width="1272pt" height="329pt"
 viewBox="0.00 0.00 1272.00 329.00" xmlns="http://www.w3.org/2000/svg" xmlns:xlink="http://www.w3.org/1999/xlink">
<g id="graph0" class="graph" transform="scale(1 1) rotate(0) translate(4 325)">
<title>Ship</title>
<polygon fill="white" stroke="none" points="-4,4 -4,-325 1268,-325 1268,4 -4,4"/>
<!-- Node1 -->
<g id="node1" class="node"><title>Node1</title>
<polygon fill="#bfbfbf" stroke="black" points="886,-203.5 886,-222.5 922,-222.5 922,-203.5 886,-203.5"/>
<text text-anchor="middle" x="904" y="-210.5" font-family="Helvetica,sans-Serif" font-size="10.00">Ship</text>
</g>
<!-- Node12 -->
<g id="node12" class="node"><title>Node12</title>
<g id="a_node12"><a xlink:href="class_character.html" target="_top" xlink:title="Character">
<polygon fill="white" stroke="red" points="998.5,-224.5 998.5,-243.5 1057.5,-243.5 1057.5,-224.5 998.5,-224.5"/>
<text text-anchor="middle" x="1028" y="-231.5" font-family="Helvetica,sans-Serif" font-size="10.00">Character</text>
</a>
</g>
</g>
<!-- Node1&#45;&gt;Node12 -->
<g id="edge13" class="edge"><title>Node1&#45;&gt;Node12</title>
<path fill="none" stroke="#9a32cd" stroke-dasharray="5,2" d="M932.318,-217.702C951.89,-221.071 978.201,-225.6 998.119,-229.029"/>
<polygon fill="#9a32cd" stroke="#9a32cd" points="932.67,-214.211 922.221,-215.964 931.482,-221.11 932.67,-214.211"/>
<text text-anchor="middle" x="958" y="-228" font-family="Helvetica,sans-Serif" font-size="10.00"> m_ship</text>
</g>
<!-- Node17 -->
<g id="node17" class="node"><title>Node17</title>
<g id="a_node17"><a xlink:href="class_squad_logic.html" target="_top" xlink:title="SquadLogic">
<polygon fill="white" stroke="black" points="994,-139.5 994,-158.5 1062,-158.5 1062,-139.5 994,-139.5"/>
<text text-anchor="middle" x="1028" y="-146.5" font-family="Helvetica,sans-Serif" font-size="10.00">SquadLogic</text>
</a>
</g>
</g>
<!-- Node1&#45;&gt;Node17 -->
<g id="edge20" class="edge"><title>Node1&#45;&gt;Node17</title>
<path fill="none" stroke="#9a32cd" stroke-dasharray="5,2" d="M915.829,-194.751C921.894,-186.029 930.208,-176.169 940,-170 956.038,-159.895 976.549,-154.652 993.627,-151.932"/>
<polygon fill="#9a32cd" stroke="#9a32cd" points="912.84,-192.928 910.355,-203.227 918.72,-196.725 912.84,-192.928"/>
<text text-anchor="middle" x="958" y="-173" font-family="Helvetica,sans-Serif" font-size="10.00"> m_ship</text>
</g>
<!-- Node2 -->
<g id="node2" class="node"><title>Node2</title>
<g id="a_node2"><a xlink:href="class_world_object.html" target="_top" xlink:title="WorldObject">
<polygon fill="white" stroke="black" points="270.5,-181.5 270.5,-200.5 341.5,-200.5 341.5,-181.5 270.5,-181.5"/>
<text text-anchor="middle" x="306" y="-188.5" font-family="Helvetica,sans-Serif" font-size="10.00">WorldObject</text>
</a>
</g>
</g>
<!-- Node2&#45;&gt;Node1 -->
<g id="edge1" class="edge"><title>Node2&#45;&gt;Node1</title>
<path fill="none" stroke="midnightblue" d="M346.141,-203.158C350.777,-204.277 355.471,-205.264 360,-206 397.768,-212.139 407.754,-208.828 446,-210 596.168,-214.602 633.765,-213.889 784,-215 821.332,-215.276 830.682,-216.065 868,-215 873.84,-214.833 880.222,-214.51 885.919,-214.172"/>
<polygon fill="midnightblue" stroke="midnightblue" points="346.726,-199.694 336.166,-200.547 344.953,-206.466 346.726,-199.694"/>
</g>
<!-- Node14 -->
<g id="node14" class="node"><title>Node14</title>
<g id="a_node14"><a xlink:href="class_board_computer.html" target="_top" xlink:title="BoardComputer">
<polygon fill="white" stroke="red" points="454,-181.5 454,-200.5 538,-200.5 538,-181.5 454,-181.5"/>
<text text-anchor="middle" x="496" y="-188.5" font-family="Helvetica,sans-Serif" font-size="10.00">BoardComputer</text>
</a>
</g>
</g>
<!-- Node2&#45;&gt;Node14 -->
<g id="edge16" class="edge"><title>Node2&#45;&gt;Node14</title>
<path fill="none" stroke="#9a32cd" stroke-dasharray="5,2" d="M351.998,-191C382.908,-191 423.631,-191 453.712,-191"/>
<polygon fill="#9a32cd" stroke="#9a32cd" points="351.921,-187.5 341.921,-191 351.921,-194.5 351.921,-187.5"/>
<text text-anchor="middle" x="394" y="-194" font-family="Helvetica,sans-Serif" font-size="10.00"> m_worldObject</text>
</g>
<!-- Node3 -->
<g id="node3" class="node"><title>Node3</title>
<g id="a_node3"><a xlink:href="class_voxel_cluster.html" target="_top" xlink:title="VoxelCluster">
<polygon fill="white" stroke="red" points="36,-301.5 36,-320.5 108,-320.5 108,-301.5 36,-301.5"/>
<text text-anchor="middle" x="72" y="-308.5" font-family="Helvetica,sans-Serif" font-size="10.00">VoxelCluster</text>
</a>
</g>
</g>
<!-- Node3&#45;&gt;Node2 -->
<g id="edge2" class="edge"><title>Node3&#45;&gt;Node2</title>
<path fill="none" stroke="midnightblue" d="M118.589,-312.561C157.281,-311.703 212.626,-305.109 252,-278 280.115,-258.643 295.962,-219.024 302.059,-200.696"/>
<polygon fill="midnightblue" stroke="midnightblue" points="118.11,-309.065 108.144,-312.663 118.178,-316.065 118.11,-309.065"/>
</g>
<!-- Node4 -->
<g id="node4" class="node"><title>Node4</title>
<g id="a_node4"><a xlink:href="class_voxel.html" target="_top" xlink:title="Voxel">
<polygon fill="white" stroke="red" points="51.5,-263.5 51.5,-282.5 92.5,-282.5 92.5,-263.5 51.5,-263.5"/>
<text text-anchor="middle" x="72" y="-270.5" font-family="Helvetica,sans-Serif" font-size="10.00">Voxel</text>
</a>
</g>
</g>
<!-- Node4&#45;&gt;Node2 -->
<g id="edge3" class="edge"><title>Node4&#45;&gt;Node2</title>
<path fill="none" stroke="#9a32cd" stroke-dasharray="5,2" d="M102.564,-271.079C139.247,-267.739 202.946,-258.758 252,-235 269.651,-226.451 286.438,-210.798 296.224,-200.651"/>
<polygon fill="#9a32cd" stroke="#9a32cd" points="102.206,-267.596 92.5302,-271.912 102.786,-274.573 102.206,-267.596"/>
<text text-anchor="middle" x="207" y="-266" font-family="Helvetica,sans-Serif" font-size="10.00"> m_crucialVoxel</text>
</g>
<!-- Node5 -->
<g id="node5" class="node"><title>Node5</title>
<polygon fill="white" stroke="#bfbfbf" points="0.5,-88.5 0.5,-107.5 143.5,-107.5 143.5,-88.5 0.5,-88.5"/>
<text text-anchor="middle" x="72" y="-95.5" font-family="Helvetica,sans-Serif" font-size="10.00">std::unique_ptr&lt; ObjectInfo &gt;</text>
</g>
<!-- Node5&#45;&gt;Node2 -->
<g id="edge4" class="edge"><title>Node5&#45;&gt;Node2</title>
<path fill="none" stroke="#9a32cd" stroke-dasharray="5,2" d="M153.666,-109.568C185.584,-116.33 221.786,-126.841 252,-143 270.391,-152.836 287.469,-170.434 297.037,-181.37"/>
<polygon fill="#9a32cd" stroke="#9a32cd" points="153.963,-106.057 143.467,-107.502 152.573,-112.918 153.963,-106.057"/>
<text text-anchor="middle" x="207" y="-146" font-family="Helvetica,sans-Serif" font-size="10.00"> m_objectInfo</text>
</g>
<!-- Node6 -->
<g id="node6" class="node"><title>Node6</title>
<g id="a_node6"><a xlink:href="class_handle.html" target="_top" xlink:title="Handle\&lt; WorldObject \&gt;">
<polygon fill="white" stroke="black" points="12.5,-225.5 12.5,-244.5 131.5,-244.5 131.5,-225.5 12.5,-225.5"/>
<text text-anchor="middle" x="72" y="-232.5" font-family="Helvetica,sans-Serif" font-size="10.00">Handle&lt; WorldObject &gt;</text>
</a>
</g>
</g>
<!-- Node6&#45;&gt;Node1 -->
<g id="edge10" class="edge"><title>Node6&#45;&gt;Node1</title>
<path fill="none" stroke="#9a32cd" stroke-dasharray="5,2" d="M131.353,-248.04C135.739,-249.793 140.006,-251.771 144,-254 153.608,-259.364 151.985,-266.441 162,-271 220.12,-297.459 241.141,-285 305,-285 305,-285 305,-285 683,-285 762.371,-285 850.216,-242.146 886.22,-222.561"/>
<polygon fill="#9a32cd" stroke="#9a32cd" points="132.217,-244.632 121.623,-244.553 129.855,-251.222 132.217,-244.632"/>
<text text-anchor="middle" x="496" y="-288" font-family="Helvetica,sans-Serif" font-size="10.00"> m_targetObjectHandle</text>
</g>
<!-- Node6&#45;&gt;Node2 -->
<g id="edge5" class="edge"><title>Node6&#45;&gt;Node2</title>
<path fill="none" stroke="#9a32cd" stroke-dasharray="5,2" d="M140.528,-223.679C174.108,-217.859 215.267,-210.438 252,-203 257.918,-201.802 264.189,-200.453 270.268,-199.103"/>
<polygon fill="#9a32cd" stroke="#9a32cd" points="139.622,-220.284 130.363,-225.433 140.812,-227.182 139.622,-220.284"/>
<text text-anchor="middle" x="207" y="-223" font-family="Helvetica,sans-Serif" font-size="10.00"> m_handle</text>
</g>
<!-- Node7 -->
<g id="node7" class="node"><title>Node7</title>
<polygon fill="white" stroke="#bfbfbf" points="5,-0.5 5,-19.5 139,-19.5 139,-0.5 5,-0.5"/>
<text text-anchor="middle" x="72" y="-7.5" font-family="Helvetica,sans-Serif" font-size="10.00">std::unique_ptr&lt; Physics &gt;</text>
</g>
<!-- Node7&#45;&gt;Node2 -->
<g id="edge6" class="edge"><title>Node7&#45;&gt;Node2</title>
<path fill="none" stroke="#9a32cd" stroke-dasharray="5,2" d="M149.575,-9.49513C184.401,-13.0446 223.988,-22.8747 252,-47 293.784,-82.9856 302.648,-154.926 304.511,-181.148"/>
<polygon fill="#9a32cd" stroke="#9a32cd" points="149.68,-5.99132 139.417,-8.61989 149.079,-12.9655 149.68,-5.99132"/>
<text text-anchor="middle" x="207" y="-50" font-family="Helvetica,sans-Serif" font-size="10.00"> m_physics</text>
</g>
<!-- Node8 -->
<g id="node8" class="node"><title>Node8</title>
<polygon fill="white" stroke="#bfbfbf" points="8.5,-176 8.5,-206 135.5,-206 135.5,-176 8.5,-176"/>
<text text-anchor="start" x="16.5" y="-194" font-family="Helvetica,sans-Serif" font-size="10.00">std::unique_ptr&lt; Collision</text>
<text text-anchor="middle" x="72" y="-183" font-family="Helvetica,sans-Serif" font-size="10.00">Filter &gt;</text>
</g>
<!-- Node8&#45;&gt;Node2 -->
<g id="edge7" class="edge"><title>Node8&#45;&gt;Node2</title>
<path fill="none" stroke="#9a32cd" stroke-dasharray="5,2" d="M145.861,-191C187.374,-191 237.483,-191 270.238,-191"/>
<polygon fill="#9a32cd" stroke="#9a32cd" points="145.783,-187.5 135.783,-191 145.783,-194.5 145.783,-187.5"/>
<text text-anchor="middle" x="207" y="-194" font-family="Helvetica,sans-Serif" font-size="10.00"> m_collisionFilter</text>
</g>
<!-- Node9 -->
<g id="node9" class="node"><title>Node9</title>
<polygon fill="white" stroke="#bfbfbf" points="8.5,-127 8.5,-157 135.5,-157 135.5,-127 8.5,-127"/>
<text text-anchor="start" x="16.5" y="-145" font-family="Helvetica,sans-Serif" font-size="10.00">std::unique_ptr&lt; Collision</text>
<text text-anchor="middle" x="72" y="-134" font-family="Helvetica,sans-Serif" font-size="10.00">Detector &gt;</text>
</g>
<!-- Node9&#45;&gt;Node2 -->
<g id="edge8" class="edge"><title>Node9&#45;&gt;Node2</title>
<path fill="none" stroke="#9a32cd" stroke-dasharray="5,2" d="M145.745,-154.316C178.377,-160.226 217.264,-167.802 252,-176 258.794,-177.603 266.023,-179.512 272.887,-181.422"/>
<polygon fill="#9a32cd" stroke="#9a32cd" points="146.291,-150.859 135.83,-152.537 145.054,-157.748 146.291,-150.859"/>
<text text-anchor="middle" x="207" y="-179" font-family="Helvetica,sans-Serif" font-size="10.00"> m_collisionDetector</text>
</g>
<!-- Node10 -->
<g id="node10" class="node"><title>Node10</title>
<polygon fill="white" stroke="#bfbfbf" points="0,-39 0,-69 144,-69 144,-39 0,-39"/>
<text text-anchor="start" x="8" y="-57" font-family="Helvetica,sans-Serif" font-size="10.00">std::unique_ptr&lt; WorldObject</text>
<text text-anchor="middle" x="72" y="-46" font-family="Helvetica,sans-Serif" font-size="10.00">Components &gt;</text>
</g>
<!-- Node10&#45;&gt;Node2 -->
<g id="edge9" class="edge"><title>Node10&#45;&gt;Node2</title>
<path fill="none" stroke="#9a32cd" stroke-dasharray="5,2" d="M154.184,-59.3905C187.176,-64.9704 224.027,-75.8859 252,-97 281.159,-119.009 296.647,-162.029 302.373,-181.281"/>
<polygon fill="#9a32cd" stroke="#9a32cd" points="154.502,-55.898 144.084,-57.8247 153.429,-62.8153 154.502,-55.898"/>
<text text-anchor="middle" x="207" y="-100" font-family="Helvetica,sans-Serif" font-size="10.00"> m_components</text>
</g>
<!-- Node11 -->
<g id="node11" class="node"><title>Node11</title>
<polygon fill="white" stroke="#bfbfbf" points="1118.5,-252.5 1118.5,-271.5 1259.5,-271.5 1259.5,-252.5 1118.5,-252.5"/>
<text text-anchor="middle" x="1189" y="-259.5" font-family="Helvetica,sans-Serif" font-size="10.00">std::unique_ptr&lt; Character &gt;</text>
</g>
<!-- Node11&#45;&gt;Node1 -->
<g id="edge11" class="edge"><title>Node11&#45;&gt;Node1</title>
<path fill="none" stroke="#9a32cd" stroke-dasharray="5,2" d="M1108.22,-262.529C1073,-261.677 1031.24,-259.181 994,-253 969.648,-248.957 962.264,-250.663 940,-240 930.725,-235.558 921.571,-228.369 914.951,-222.525"/>
<polygon fill="#9a32cd" stroke="#9a32cd" points="1108.38,-266.033 1118.45,-262.736 1108.52,-259.035 1108.38,-266.033"/>
<text text-anchor="middle" x="1028" y="-264" font-family="Helvetica,sans-Serif" font-size="10.00"> m_character</text>
</g>
<!-- Node12&#45;&gt;Node11 -->
<g id="edge12" class="edge"><title>Node12&#45;&gt;Node11</title>
<path fill="none" stroke="#9a32cd" stroke-dasharray="5,2" d="M1067.74,-240.823C1087.67,-244.331 1112.27,-248.663 1134.02,-252.494"/>
<polygon fill="#9a32cd" stroke="#9a32cd" points="1068.25,-237.358 1057.79,-239.071 1067.04,-244.252 1068.25,-237.358"/>
<text text-anchor="middle" x="1088" y="-249" font-family="Helvetica,sans-Serif" font-size="10.00"> ptr</text>
</g>
<!-- Node13 -->
<g id="node13" class="node"><title>Node13</title>
<polygon fill="white" stroke="#bfbfbf" points="598.5,-181.5 598.5,-200.5 765.5,-200.5 765.5,-181.5 598.5,-181.5"/>
<text text-anchor="middle" x="682" y="-188.5" font-family="Helvetica,sans-Serif" font-size="10.00">std::unique_ptr&lt; BoardComputer &gt;</text>
</g>
<!-- Node13&#45;&gt;Node1 -->
<g id="edge14" class="edge"><title>Node13&#45;&gt;Node1</title>
<path fill="none" stroke="#9a32cd" stroke-dasharray="5,2" d="M776.093,-194.235C805.612,-196.144 838.291,-199.178 868,-204 873.821,-204.945 880.087,-206.409 885.685,-207.884"/>
<polygon fill="#9a32cd" stroke="#9a32cd" points="775.988,-190.722 765.793,-193.606 775.561,-197.709 775.988,-190.722"/>
<text text-anchor="middle" x="826" y="-207" font-family="Helvetica,sans-Serif" font-size="10.00"> m_boardComputer</text>
</g>
<!-- Node14&#45;&gt;Node13 -->
<g id="edge15" class="edge"><title>Node14&#45;&gt;Node13</title>
<path fill="none" stroke="#9a32cd" stroke-dasharray="5,2" d="M548.666,-191C564.127,-191 581.484,-191 598.411,-191"/>
<polygon fill="#9a32cd" stroke="#9a32cd" points="548.293,-187.5 538.293,-191 548.293,-194.5 548.293,-187.5"/>
<text text-anchor="middle" x="572" y="-194" font-family="Helvetica,sans-Serif" font-size="10.00"> ptr</text>
</g>
<!-- Node15 -->
<g id="node15" class="node"><title>Node15</title>
<g id="a_node15"><a xlink:href="class_handle.html" target="_top" xlink:title="Handle\&lt; Ship \&gt;">
<polygon fill="white" stroke="black" points="640,-143.5 640,-162.5 724,-162.5 724,-143.5 640,-143.5"/>
<text text-anchor="middle" x="682" y="-150.5" font-family="Helvetica,sans-Serif" font-size="10.00">Handle&lt; Ship &gt;</text>
</a>
</g>
</g>
<!-- Node15&#45;&gt;Node1 -->
<g id="edge17" class="edge"><title>Node15&#45;&gt;Node1</title>
<path fill="none" stroke="#9a32cd" stroke-dasharray="5,2" d="M734.481,-152.311C773.011,-153.692 826.066,-159.72 868,-180 879.127,-185.381 889.087,-195.57 895.509,-203.209"/>
<polygon fill="#9a32cd" stroke="#9a32cd" points="734.108,-148.8 724.02,-152.036 733.925,-155.798 734.108,-148.8"/>
<text text-anchor="middle" x="826" y="-183" font-family="Helvetica,sans-Serif" font-size="10.00"> m_shipHandle</text>
</g>
<!-- Node16 -->
<g id="node16" class="node"><title>Node16</title>
<polygon fill="white" stroke="#bfbfbf" points="1114,-167.5 1114,-186.5 1264,-186.5 1264,-167.5 1114,-167.5"/>
<text text-anchor="middle" x="1189" y="-174.5" font-family="Helvetica,sans-Serif" font-size="10.00">std::unique_ptr&lt; SquadLogic &gt;</text>
</g>
<!-- Node16&#45;&gt;Node1 -->
<g id="edge18" class="edge"><title>Node16&#45;&gt;Node1</title>
<path fill="none" stroke="#9a32cd" stroke-dasharray="5,2" d="M1103.86,-187.703C1040.08,-195.816 957.59,-206.31 922.277,-210.802"/>
<polygon fill="#9a32cd" stroke="#9a32cd" points="1104.45,-191.157 1113.93,-186.423 1103.56,-184.213 1104.45,-191.157"/>
<text text-anchor="middle" x="1028" y="-205" font-family="Helvetica,sans-Serif" font-size="10.00"> m_squadLogic</text>
</g>
<!-- Node17&#45;&gt;Node16 -->
<g id="edge19" class="edge"><title>Node17&#45;&gt;Node16</title>
<path fill="none" stroke="#9a32cd" stroke-dasharray="5,2" d="M1072.19,-156.605C1091.17,-159.947 1113.66,-163.908 1133.75,-167.446"/>
<polygon fill="#9a32cd" stroke="#9a32cd" points="1072.79,-153.157 1062.33,-154.87 1071.57,-160.051 1072.79,-153.157"/>
<text text-anchor="middle" x="1088" y="-164" font-family="Helvetica,sans-Serif" font-size="10.00"> ptr</text>
</g>
</g>
</svg>
