<?xml version="1.0" encoding="UTF-8" standalone="no"?>
<!DOCTYPE svg PUBLIC "-//W3C//DTD SVG 1.1//EN"
 "http://www.w3.org/Graphics/SVG/1.1/DTD/svg11.dtd">
<!-- Generated by graphviz version 2.36.0 (20140111.2315)
 -->
<!-- Title: FlyToTask Pages: 1 -->
<svg width="133pt" height="154pt"
 viewBox="0.00 0.00 133.00 154.00" xmlns="http://www.w3.org/2000/svg" xmlns:xlink="http://www.w3.org/1999/xlink">
<g id="graph0" class="graph" transform="scale(1 1) rotate(0) translate(4 150)">
<title>FlyToTask</title>
<polygon fill="white" stroke="none" points="-4,4 -4,-150 129,-150 129,4 -4,4"/>
<!-- Node1 -->
<g id="node1" class="node"><title>Node1</title>
<polygon fill="#bfbfbf" stroke="black" points="11,-0.5 11,-19.5 73,-19.5 73,-0.5 11,-0.5"/>
<text text-anchor="middle" x="42" y="-7.5" font-family="Helvetica,sans-Serif" font-size="10.00">FlyToTask</text>
</g>
<!-- Node2 -->
<g id="node2" class="node"><title>Node2</title>
<g id="a_node2"><a xlink:href="class_ai_task.html" target="_top" xlink:title="AiTask">
<polygon fill="white" stroke="black" points="18.5,-58.5 18.5,-77.5 65.5,-77.5 65.5,-58.5 18.5,-58.5"/>
<text text-anchor="middle" x="42" y="-65.5" font-family="Helvetica,sans-Serif" font-size="10.00">AiTask</text>
</a>
</g>
</g>
<!-- Node2&#45;&gt;Node1 -->
<g id="edge1" class="edge"><title>Node2&#45;&gt;Node1</title>
<path fill="none" stroke="midnightblue" d="M42,-47.953C42,-38.2875 42,-27.0312 42,-19.5052"/>
<polygon fill="midnightblue" stroke="midnightblue" points="38.5001,-48.25 42,-58.25 45.5001,-48.25 38.5001,-48.25"/>
</g>
<!-- Node3 -->
<g id="node3" class="node"><title>Node3</title>
<g id="a_node3"><a xlink:href="class_board_computer.html" target="_top" xlink:title="BoardComputer">
<polygon fill="white" stroke="red" points="0,-126.5 0,-145.5 84,-145.5 84,-126.5 0,-126.5"/>
<text text-anchor="middle" x="42" y="-133.5" font-family="Helvetica,sans-Serif" font-size="10.00">BoardComputer</text>
</a>
</g>
</g>
<!-- Node3&#45;&gt;Node2 -->
<g id="edge2" class="edge"><title>Node3&#45;&gt;Node2</title>
<path fill="none" stroke="#9a32cd" stroke-dasharray="5,2" d="M42,-116.041C42,-103.472 42,-87.5631 42,-77.8411"/>
<polygon fill="#9a32cd" stroke="#9a32cd" points="38.5001,-116.372 42,-126.372 45.5001,-116.372 38.5001,-116.372"/>
<text text-anchor="middle" x="83.5" y="-99.5" font-family="Helvetica,sans-Serif" font-size="10.00"> m_boardComputer</text>
</g>
</g>
</svg>
