<?xml version="1.0" encoding="UTF-8" standalone="no"?>
<!DOCTYPE svg PUBLIC "-//W3C//DTD SVG 1.1//EN"
 "http://www.w3.org/Graphics/SVG/1.1/DTD/svg11.dtd">
<!-- Generated by graphviz version 2.36.0 (20140111.2315)
 -->
<!-- Title: Player Pages: 1 -->
<!--zoomable 347 -->
<svg id="main" version="1.1" xmlns="http://www.w3.org/2000/svg" xmlns:xlink="http://www.w3.org/1999/xlink" xml:space="preserve" onload="init(evt)">
<style type="text/css"><![CDATA[
.edge:hover path { stroke: red; }
.edge:hover polygon { stroke: red; fill: red; }
]]></style>
<script type="text/javascript"><![CDATA[
var edges = document.getElementsByTagName('g');
if (edges && edges.length) {
  for (var i=0;i<edges.length;i++) {
    if (edges[i].id.substr(0,4)=='edge') {
      edges[i].setAttribute('class','edge');
    }
  }
}
]]></script>
        <defs>
                <circle id="rim" cx="0" cy="0" r="7"/>
                <circle id="rim2" cx="0" cy="0" r="3.5"/>
                <g id="zoomPlus">
                        <use xlink:href="#rim" fill="#404040">
                                <set attributeName="fill" to="#808080" begin="zoomplus.mouseover" end="zoomplus.mouseout"/>
                        </use>
                        <path d="M-4,0h8M0,-4v8" fill="none" stroke="white" stroke-width="1.5" pointer-events="none"/>
                </g>
                <g id="zoomMin">
                        <use xlink:href="#rim" fill="#404040">
                                <set attributeName="fill" to="#808080" begin="zoomminus.mouseover" end="zoomminus.mouseout"/>
                        </use>
                        <path d="M-4,0h8" fill="none" stroke="white" stroke-width="1.5" pointer-events="none"/>
                </g>
                <g id="dirArrow">
                        <path fill="none" stroke="white" stroke-width="1.5" d="M0,-3.0v7 M-2.5,-0.5L0,-3.0L2.5,-0.5"/>
                </g>
               <g id="resetDef">
                       <use xlink:href="#rim2" fill="#404040">
                               <set attributeName="fill" to="#808080" begin="reset.mouseover" end="reset.mouseout"/>
                       </use>
               </g>
        </defs>

<script type="text/javascript">
var viewWidth = 1116;
var viewHeight = 347;
var sectionId = 'dynsection-0';
</script>
<script xlink:href="svgpan.js"/>
<svg id="graph" class="graph">
<g id="viewport">
<title>Player</title>
<polygon fill="white" stroke="none" points="-4,4 -4,-343 1112,-343 1112,4 -4,4"/>
<!-- Node1 -->
<g id="node1" class="node"><title>Node1</title>
<polygon fill="#bfbfbf" stroke="black" points="408,-163.5 408,-182.5 452,-182.5 452,-163.5 408,-163.5"/>
<text text-anchor="middle" x="430" y="-170.5" font-family="Helvetica,sans-Serif" font-size="10.00">Player</text>
</g>
<!-- Node7 -->
<g id="node7" class="node"><title>Node7</title>
<polygon fill="white" stroke="#bfbfbf" points="548.5,-319.5 548.5,-338.5 675.5,-338.5 675.5,-319.5 548.5,-319.5"/>
<text text-anchor="middle" x="612" y="-326.5" font-family="Helvetica,sans-Serif" font-size="10.00">std::unique_ptr&lt; Player &gt;</text>
</g>
<!-- Node1&#45;&gt;Node7 -->
<g id="edge10" class="edge"><title>Node1&#45;&gt;Node7</title>
<path fill="none" stroke="#9a32cd" stroke-dasharray="5,2" d="M430.829,-192.792C431.727,-221.774 437.955,-275.411 470,-304 491.056,-322.785 521.157,-329.827 548.144,-331.846"/>
<polygon fill="#9a32cd" stroke="#9a32cd" points="434.327,-192.626 430.705,-182.67 427.328,-192.712 434.327,-192.626"/>
<text text-anchor="middle" x="492" y="-330" font-family="Helvetica,sans-Serif" font-size="10.00"> ptr</text>
</g>
<!-- Node13 -->
<g id="node13" class="node"><title>Node13</title>
<g id="a_node13"><a xlink:href="class_h_u_d.html" target="_top" xlink:title="HUD">
<polygon fill="white" stroke="red" points="593.5,-0.5 593.5,-19.5 630.5,-19.5 630.5,-0.5 593.5,-0.5"/>
<text text-anchor="middle" x="612" y="-7.5" font-family="Helvetica,sans-Serif" font-size="10.00">HUD</text>
</a>
</g>
</g>
<!-- Node1&#45;&gt;Node13 -->
<g id="edge21" class="edge"><title>Node1&#45;&gt;Node13</title>
<path fill="none" stroke="#9a32cd" stroke-dasharray="5,2" d="M430.167,-153.208C430.034,-122.144 434.731,-62.2661 470,-31 504.632,-0.298946 563.904,-3.24494 593.34,-7.06335"/>
<polygon fill="#9a32cd" stroke="#9a32cd" points="426.669,-153.322 430.387,-163.243 433.667,-153.169 426.669,-153.322"/>
<text text-anchor="middle" x="492" y="-34" font-family="Helvetica,sans-Serif" font-size="10.00"> m_player</text>
</g>
<!-- Node2 -->
<g id="node2" class="node"><title>Node2</title>
<g id="a_node2"><a xlink:href="class_game_play.html" target="_top" xlink:title="GamePlay">
<polygon fill="white" stroke="black" points="811,-228.5 811,-247.5 873,-247.5 873,-228.5 811,-228.5"/>
<text text-anchor="middle" x="842" y="-235.5" font-family="Helvetica,sans-Serif" font-size="10.00">GamePlay</text>
</a>
</g>
</g>
<!-- Node2&#45;&gt;Node1 -->
<g id="edge1" class="edge"><title>Node2&#45;&gt;Node1</title>
<path fill="none" stroke="#9a32cd" stroke-dasharray="5,2" d="M804.184,-250.688C744.775,-269.036 625.025,-297.139 532,-262 489.148,-245.813 452.709,-202.242 437.982,-182.708"/>
<polygon fill="#9a32cd" stroke="#9a32cd" points="805.397,-253.975 813.872,-247.616 803.281,-247.303 805.397,-253.975"/>
<text text-anchor="middle" x="612" y="-282" font-family="Helvetica,sans-Serif" font-size="10.00"> m_gamePlay</text>
</g>
<!-- Node4 -->
<g id="node4" class="node"><title>Node4</title>
<g id="a_node4"><a xlink:href="class_game.html" target="_top" xlink:title="Game">
<polygon fill="white" stroke="red" points="1037.5,-197.5 1037.5,-216.5 1080.5,-216.5 1080.5,-197.5 1037.5,-197.5"/>
<text text-anchor="middle" x="1059" y="-204.5" font-family="Helvetica,sans-Serif" font-size="10.00">Game</text>
</a>
</g>
</g>
<!-- Node2&#45;&gt;Node4 -->
<g id="edge6" class="edge"><title>Node2&#45;&gt;Node4</title>
<path fill="none" stroke="#9a32cd" stroke-dasharray="5,2" d="M869.725,-223.832C884.174,-216.969 902.582,-209.475 920,-206 960.883,-197.843 1009.94,-201.236 1037.18,-204.247"/>
<polygon fill="#9a32cd" stroke="#9a32cd" points="867.835,-220.861 860.416,-228.425 870.932,-227.139 867.835,-220.861"/>
<text text-anchor="middle" x="956" y="-209" font-family="Helvetica,sans-Serif" font-size="10.00"> m_gamePlay</text>
</g>
<!-- Node8 -->
<g id="node8" class="node"><title>Node8</title>
<g id="a_node8"><a xlink:href="class_game_play_running.html" target="_top" xlink:title="GamePlayRunning">
<polygon fill="white" stroke="red" points="1010,-299.5 1010,-318.5 1108,-318.5 1108,-299.5 1010,-299.5"/>
<text text-anchor="middle" x="1059" y="-306.5" font-family="Helvetica,sans-Serif" font-size="10.00">GamePlayRunning</text>
</a>
</g>
</g>
<!-- Node2&#45;&gt;Node8 -->
<g id="edge13" class="edge"><title>Node2&#45;&gt;Node8</title>
<path fill="none" stroke="#9a32cd" stroke-dasharray="5,2" d="M882.901,-244.818C913.383,-250.697 956.117,-260.398 992,-274 1010.07,-280.85 1029.46,-291.583 1042.52,-299.358"/>
<polygon fill="#9a32cd" stroke="#9a32cd" points="883.535,-241.376 873.061,-242.971 882.244,-248.256 883.535,-241.376"/>
<text text-anchor="middle" x="956" y="-277" font-family="Helvetica,sans-Serif" font-size="10.00"> m_gamePlay</text>
</g>
<!-- Node9 -->
<g id="node9" class="node"><title>Node9</title>
<g id="a_node9"><a xlink:href="class_game_play_paused.html" target="_top" xlink:title="GamePlayPaused">
<polygon fill="white" stroke="red" points="1011.5,-129.5 1011.5,-148.5 1106.5,-148.5 1106.5,-129.5 1011.5,-129.5"/>
<text text-anchor="middle" x="1059" y="-136.5" font-family="Helvetica,sans-Serif" font-size="10.00">GamePlayPaused</text>
</a>
</g>
</g>
<!-- Node2&#45;&gt;Node9 -->
<g id="edge16" class="edge"><title>Node2&#45;&gt;Node9</title>
<path fill="none" stroke="#9a32cd" stroke-dasharray="5,2" d="M862.97,-222.338C878.006,-211.099 899.471,-196.2 920,-186 952.979,-169.615 993.049,-156.672 1021.5,-148.552"/>
<polygon fill="#9a32cd" stroke="#9a32cd" points="860.753,-219.627 854.916,-228.469 864.993,-225.197 860.753,-219.627"/>
<text text-anchor="middle" x="956" y="-189" font-family="Helvetica,sans-Serif" font-size="10.00"> m_gamePlay</text>
</g>
<!-- Node3 -->
<g id="node3" class="node"><title>Node3</title>
<g id="a_node3"><a xlink:href="class_game_state.html" target="_top" xlink:title="GameState">
<polygon fill="white" stroke="red" points="579,-112.5 579,-131.5 645,-131.5 645,-112.5 579,-112.5"/>
<text text-anchor="middle" x="612" y="-119.5" font-family="Helvetica,sans-Serif" font-size="10.00">GameState</text>
</a>
</g>
</g>
<!-- Node3&#45;&gt;Node2 -->
<g id="edge2" class="edge"><title>Node3&#45;&gt;Node2</title>
<path fill="none" stroke="midnightblue" d="M641.097,-136.295C688.258,-160.289 782.107,-208.037 822.168,-228.419"/>
<polygon fill="midnightblue" stroke="midnightblue" points="642.547,-133.106 632.047,-131.691 639.373,-139.345 642.547,-133.106"/>
</g>
<!-- Node3&#45;&gt;Node3 -->
<g id="edge3" class="edge"><title>Node3&#45;&gt;Node3</title>
<path fill="none" stroke="#9a32cd" stroke-dasharray="5,2" d="M589.679,-141.029C590.896,-146.128 598.337,-150 612,-150 633.328,-150 639.493,-140.565 630.495,-131.757"/>
<polygon fill="#9a32cd" stroke="#9a32cd" points="592.926,-142.336 593.505,-131.757 586.455,-139.666 592.926,-142.336"/>
<text text-anchor="middle" x="612" y="-153" font-family="Helvetica,sans-Serif" font-size="10.00"> m_parentGameState</text>
</g>
<!-- Node3&#45;&gt;Node4 -->
<g id="edge5" class="edge"><title>Node3&#45;&gt;Node4</title>
<path fill="none" stroke="midnightblue" d="M655.29,-116.918C742.027,-107.337 936.565,-90.4242 992,-124 1006.62,-132.858 999.913,-144.194 1010,-158 1020.96,-173 1036.39,-187.914 1046.77,-197.277"/>
<polygon fill="midnightblue" stroke="midnightblue" points="654.81,-113.45 645.264,-118.046 655.592,-120.406 654.81,-113.45"/>
</g>
<!-- Node3&#45;&gt;Node8 -->
<g id="edge12" class="edge"><title>Node3&#45;&gt;Node8</title>
<path fill="none" stroke="midnightblue" d="M645.156,-136.378C661.518,-145.268 680.358,-158.208 692,-175 711.778,-203.527 686.464,-225.486 710,-251 786.727,-334.175 933.955,-327.506 1009.97,-317.351"/>
<polygon fill="midnightblue" stroke="midnightblue" points="646.376,-133.07 635.881,-131.614 643.177,-139.297 646.376,-133.07"/>
</g>
<!-- Node3&#45;&gt;Node9 -->
<g id="edge15" class="edge"><title>Node3&#45;&gt;Node9</title>
<path fill="none" stroke="midnightblue" d="M653.888,-109.691C724.541,-90.4708 873.304,-59.0617 992,-95 1014.14,-101.704 1035.65,-118.558 1047.81,-129.353"/>
<polygon fill="midnightblue" stroke="midnightblue" points="652.741,-106.378 644.044,-112.429 654.616,-113.122 652.741,-106.378"/>
</g>
<!-- Node4&#45;&gt;Node2 -->
<g id="edge4" class="edge"><title>Node4&#45;&gt;Node2</title>
<path fill="none" stroke="#9a32cd" stroke-dasharray="5,2" d="M1027.18,-212.954C1016.11,-215 1003.51,-217.221 992,-219 950.894,-225.353 903.17,-231.165 873.032,-234.644"/>
<polygon fill="#9a32cd" stroke="#9a32cd" points="1028.06,-216.35 1037.24,-211.066 1026.77,-209.47 1028.06,-216.35"/>
<text text-anchor="middle" x="956" y="-232" font-family="Helvetica,sans-Serif" font-size="10.00"> m_game</text>
</g>
<!-- Node5 -->
<g id="node5" class="node"><title>Node5</title>
<polygon fill="white" stroke="#bfbfbf" points="544,-223 544,-253 680,-253 680,-223 544,-223"/>
<text text-anchor="start" x="552" y="-241" font-family="Helvetica,sans-Serif" font-size="10.00">std::unique_ptr&lt; GamePlay</text>
<text text-anchor="middle" x="612" y="-230" font-family="Helvetica,sans-Serif" font-size="10.00">Scene &gt;</text>
</g>
<!-- Node5&#45;&gt;Node2 -->
<g id="edge7" class="edge"><title>Node5&#45;&gt;Node2</title>
<path fill="none" stroke="#9a32cd" stroke-dasharray="5,2" d="M690.256,-238C731.668,-238 780.324,-238 810.914,-238"/>
<polygon fill="#9a32cd" stroke="#9a32cd" points="690.174,-234.5 680.174,-238 690.174,-241.5 690.174,-234.5"/>
<text text-anchor="middle" x="737" y="-241" font-family="Helvetica,sans-Serif" font-size="10.00"> m_scene</text>
</g>
<!-- Node6 -->
<g id="node6" class="node"><title>Node6</title>
<polygon fill="white" stroke="#bfbfbf" points="532,-184.5 532,-203.5 692,-203.5 692,-184.5 532,-184.5"/>
<text text-anchor="middle" x="612" y="-191.5" font-family="Helvetica,sans-Serif" font-size="10.00">std::unique_ptr&lt; BaseScenario &gt;</text>
</g>
<!-- Node6&#45;&gt;Node2 -->
<g id="edge8" class="edge"><title>Node6&#45;&gt;Node2</title>
<path fill="none" stroke="#9a32cd" stroke-dasharray="5,2" d="M672.612,-205.411C700.391,-210.738 733.889,-217.176 764,-223 779.377,-225.974 796.477,-229.303 810.649,-232.068"/>
<polygon fill="#9a32cd" stroke="#9a32cd" points="673.133,-201.947 662.653,-203.502 671.815,-208.822 673.133,-201.947"/>
<text text-anchor="middle" x="737" y="-226" font-family="Helvetica,sans-Serif" font-size="10.00"> m_scenario</text>
</g>
<!-- Node7&#45;&gt;Node2 -->
<g id="edge9" class="edge"><title>Node7&#45;&gt;Node2</title>
<path fill="none" stroke="#9a32cd" stroke-dasharray="5,2" d="M685.898,-324.995C711.496,-321.527 739.87,-315.253 764,-304 793.042,-290.457 819.708,-262.812 832.698,-247.961"/>
<polygon fill="#9a32cd" stroke="#9a32cd" points="685.362,-321.535 675.867,-326.233 686.22,-328.482 685.362,-321.535"/>
<text text-anchor="middle" x="737" y="-324" font-family="Helvetica,sans-Serif" font-size="10.00"> m_player</text>
</g>
<!-- Node8&#45;&gt;Node2 -->
<g id="edge11" class="edge"><title>Node8&#45;&gt;Node2</title>
<path fill="none" stroke="#9a32cd" stroke-dasharray="5,2" d="M999.693,-305.025C974.565,-301.969 945.222,-296.563 920,-287 894.813,-277.45 869.122,-258.976 854.703,-247.641"/>
<polygon fill="#9a32cd" stroke="#9a32cd" points="999.489,-308.524 1009.82,-306.159 1000.27,-301.568 999.489,-308.524"/>
<text text-anchor="middle" x="956" y="-307" font-family="Helvetica,sans-Serif" font-size="10.00"> m_runningState</text>
</g>
<!-- Node9&#45;&gt;Node2 -->
<g id="edge14" class="edge"><title>Node9&#45;&gt;Node2</title>
<path fill="none" stroke="#9a32cd" stroke-dasharray="5,2" d="M1001.18,-128.544C975.207,-126.427 944.782,-127.844 920,-140 881.342,-158.963 856.257,-207.662 847.003,-228.408"/>
<polygon fill="#9a32cd" stroke="#9a32cd" points="1000.96,-132.04 1011.26,-129.558 1001.66,-125.075 1000.96,-132.04"/>
<text text-anchor="middle" x="956" y="-143" font-family="Helvetica,sans-Serif" font-size="10.00"> m_pausedState</text>
</g>
<!-- Node10 -->
<g id="node10" class="node"><title>Node10</title>
<polygon fill="white" stroke="#bfbfbf" points="132,-239.5 132,-258.5 294,-258.5 294,-239.5 132,-239.5"/>
<text text-anchor="middle" x="213" y="-246.5" font-family="Helvetica,sans-Serif" font-size="10.00">std::unique_ptr&lt; TargetSelector &gt;</text>
</g>
<!-- Node10&#45;&gt;Node1 -->
<g id="edge17" class="edge"><title>Node10&#45;&gt;Node1</title>
<path fill="none" stroke="#9a32cd" stroke-dasharray="5,2" d="M304.124,-244.224C332.96,-239.733 364.096,-231.582 390,-217 404.588,-208.788 416.491,-193.04 423.162,-182.782"/>
<polygon fill="#9a32cd" stroke="#9a32cd" points="303.438,-240.786 294.033,-245.664 304.427,-247.716 303.438,-240.786"/>
<text text-anchor="middle" x="351" y="-246" font-family="Helvetica,sans-Serif" font-size="10.00"> m_targetSelector</text>
</g>
<!-- Node11 -->
<g id="node11" class="node"><title>Node11</title>
<g id="a_node11"><a xlink:href="class_target_selector.html" target="_top" xlink:title="TargetSelector">
<polygon fill="white" stroke="black" points="0,-239.5 0,-258.5 80,-258.5 80,-239.5 0,-239.5"/>
<text text-anchor="middle" x="40" y="-246.5" font-family="Helvetica,sans-Serif" font-size="10.00">TargetSelector</text>
</a>
</g>
</g>
<!-- Node11&#45;&gt;Node10 -->
<g id="edge18" class="edge"><title>Node11&#45;&gt;Node10</title>
<path fill="none" stroke="#9a32cd" stroke-dasharray="5,2" d="M90.3168,-249C103.295,-249 117.637,-249 131.785,-249"/>
<polygon fill="#9a32cd" stroke="#9a32cd" points="90.2309,-245.5 80.2309,-249 90.2308,-252.5 90.2309,-245.5"/>
<text text-anchor="middle" x="106" y="-252" font-family="Helvetica,sans-Serif" font-size="10.00"> ptr</text>
</g>
<!-- Node12 -->
<g id="node12" class="node"><title>Node12</title>
<polygon fill="white" stroke="#bfbfbf" points="782.5,-21.5 782.5,-40.5 901.5,-40.5 901.5,-21.5 782.5,-21.5"/>
<text text-anchor="middle" x="842" y="-28.5" font-family="Helvetica,sans-Serif" font-size="10.00">std::unique_ptr&lt; HUD &gt;</text>
</g>
<!-- Node12&#45;&gt;Node1 -->
<g id="edge19" class="edge"><title>Node12&#45;&gt;Node1</title>
<path fill="none" stroke="#9a32cd" stroke-dasharray="5,2" d="M772.264,-40.6607C694.676,-52.247 573.814,-72.5479 532,-92 493.075,-110.108 456.011,-146.285 439.699,-163.488"/>
<polygon fill="#9a32cd" stroke="#9a32cd" points="773.062,-44.0807 782.442,-39.1537 772.037,-37.1562 773.062,-44.0807"/>
<text text-anchor="middle" x="612" y="-95" font-family="Helvetica,sans-Serif" font-size="10.00"> m_hud</text>
</g>
<!-- Node13&#45;&gt;Node12 -->
<g id="edge20" class="edge"><title>Node13&#45;&gt;Node12</title>
<path fill="none" stroke="#9a32cd" stroke-dasharray="5,2" d="M640.905,-12.5702C675.879,-15.7915 736.742,-21.3973 782.186,-25.5829"/>
<polygon fill="#9a32cd" stroke="#9a32cd" points="640.791,-9.04497 630.512,-11.613 640.149,-16.0155 640.791,-9.04497"/>
<text text-anchor="middle" x="737" y="-27" font-family="Helvetica,sans-Serif" font-size="10.00"> ptr</text>
</g>
<!-- Node14 -->
<g id="node14" class="node"><title>Node14</title>
<polygon fill="white" stroke="#bfbfbf" points="135.5,-201.5 135.5,-220.5 290.5,-220.5 290.5,-201.5 135.5,-201.5"/>
<text text-anchor="middle" x="213" y="-208.5" font-family="Helvetica,sans-Serif" font-size="10.00">std::unique_ptr&lt; CameraDolly &gt;</text>
</g>
<!-- Node14&#45;&gt;Node1 -->
<g id="edge22" class="edge"><title>Node14&#45;&gt;Node1</title>
<path fill="none" stroke="#9a32cd" stroke-dasharray="5,2" d="M300.87,-202.811C329.495,-199.144 361.33,-194.019 390,-187 395.87,-185.563 402.086,-183.562 407.79,-181.521"/>
<polygon fill="#9a32cd" stroke="#9a32cd" points="300.383,-199.344 290.89,-204.047 301.244,-206.291 300.383,-199.344"/>
<text text-anchor="middle" x="351" y="-205" font-family="Helvetica,sans-Serif" font-size="10.00"> m_cameraDolly</text>
</g>
<!-- Node15 -->
<g id="node15" class="node"><title>Node15</title>
<g id="a_node15"><a xlink:href="class_camera_dolly.html" target="_top" xlink:title="CameraDolly">
<polygon fill="white" stroke="red" points="4,-201.5 4,-220.5 76,-220.5 76,-201.5 4,-201.5"/>
<text text-anchor="middle" x="40" y="-208.5" font-family="Helvetica,sans-Serif" font-size="10.00">CameraDolly</text>
</a>
</g>
</g>
<!-- Node15&#45;&gt;Node14 -->
<g id="edge23" class="edge"><title>Node15&#45;&gt;Node14</title>
<path fill="none" stroke="#9a32cd" stroke-dasharray="5,2" d="M86.1056,-211C101.23,-211 118.545,-211 135.394,-211"/>
<polygon fill="#9a32cd" stroke="#9a32cd" points="86.0171,-207.5 76.017,-211 86.017,-214.5 86.0171,-207.5"/>
<text text-anchor="middle" x="106" y="-214" font-family="Helvetica,sans-Serif" font-size="10.00"> ptr</text>
</g>
<!-- Node16 -->
<g id="node16" class="node"><title>Node16</title>
<polygon fill="white" stroke="#bfbfbf" points="150.5,-163.5 150.5,-182.5 275.5,-182.5 275.5,-163.5 150.5,-163.5"/>
<text text-anchor="middle" x="213" y="-170.5" font-family="Helvetica,sans-Serif" font-size="10.00">std::unique_ptr&lt; Aimer &gt;</text>
</g>
<!-- Node16&#45;&gt;Node1 -->
<g id="edge24" class="edge"><title>Node16&#45;&gt;Node1</title>
<path fill="none" stroke="#9a32cd" stroke-dasharray="5,2" d="M285.698,-173C328.39,-173 379.586,-173 407.773,-173"/>
<polygon fill="#9a32cd" stroke="#9a32cd" points="285.61,-169.5 275.61,-173 285.61,-176.5 285.61,-169.5"/>
<text text-anchor="middle" x="351" y="-176" font-family="Helvetica,sans-Serif" font-size="10.00"> m_aimer</text>
</g>
<!-- Node17 -->
<g id="node17" class="node"><title>Node17</title>
<g id="a_node17"><a xlink:href="class_aimer.html" target="_top" xlink:title="Aimer">
<polygon fill="white" stroke="red" points="19,-163.5 19,-182.5 61,-182.5 61,-163.5 19,-163.5"/>
<text text-anchor="middle" x="40" y="-170.5" font-family="Helvetica,sans-Serif" font-size="10.00">Aimer</text>
</a>
</g>
</g>
<!-- Node17&#45;&gt;Node16 -->
<g id="edge25" class="edge"><title>Node17&#45;&gt;Node16</title>
<path fill="none" stroke="#9a32cd" stroke-dasharray="5,2" d="M71.583,-173C93.4044,-173 123.5,-173 150.233,-173"/>
<polygon fill="#9a32cd" stroke="#9a32cd" points="71.2875,-169.5 61.2875,-173 71.2874,-176.5 71.2875,-169.5"/>
<text text-anchor="middle" x="106" y="-176" font-family="Helvetica,sans-Serif" font-size="10.00"> ptr</text>
</g>
<!-- Node18 -->
<g id="node18" class="node"><title>Node18</title>
<g id="a_node18"><a xlink:href="class_handle.html" target="_top" xlink:title="Handle\&lt; Ship \&gt;">
<polygon fill="white" stroke="black" points="171,-125.5 171,-144.5 255,-144.5 255,-125.5 171,-125.5"/>
<text text-anchor="middle" x="213" y="-132.5" font-family="Helvetica,sans-Serif" font-size="10.00">Handle&lt; Ship &gt;</text>
</a>
</g>
</g>
<!-- Node18&#45;&gt;Node1 -->
<g id="edge26" class="edge"><title>Node18&#45;&gt;Node1</title>
<path fill="none" stroke="#9a32cd" stroke-dasharray="5,2" d="M265.172,-138.463C300.62,-141.643 348.679,-147.512 390,-158 395.906,-159.499 402.136,-161.629 407.84,-163.815"/>
<polygon fill="#9a32cd" stroke="#9a32cd" points="265.324,-134.964 255.062,-137.598 264.727,-141.938 265.324,-134.964"/>
<text text-anchor="middle" x="351" y="-161" font-family="Helvetica,sans-Serif" font-size="10.00"> m_ship</text>
</g>
<!-- Node19 -->
<g id="node19" class="node"><title>Node19</title>
<g id="a_node19"><a xlink:href="class_abstract_move.html" target="_top" xlink:title="AbstractMove">
<polygon fill="white" stroke="black" points="175,-87.5 175,-106.5 251,-106.5 251,-87.5 175,-87.5"/>
<text text-anchor="middle" x="213" y="-94.5" font-family="Helvetica,sans-Serif" font-size="10.00">AbstractMove</text>
</a>
</g>
</g>
<!-- Node19&#45;&gt;Node1 -->
<g id="edge27" class="edge"><title>Node19&#45;&gt;Node1</title>
<path fill="none" stroke="#9a32cd" stroke-dasharray="5,2" d="M261.136,-97.2965C298.298,-99.4071 350.296,-106.65 390,-129 404.588,-137.212 416.491,-152.96 423.162,-163.218"/>
<polygon fill="#9a32cd" stroke="#9a32cd" points="261.222,-93.7968 251.07,-96.829 260.897,-100.789 261.222,-93.7968"/>
<text text-anchor="middle" x="351" y="-132" font-family="Helvetica,sans-Serif" font-size="10.00"> m_engineState</text>
</g>
</g>
</svg>
        <g id="navigator" transform="translate(0 0)" fill="#404254">
                <rect fill="#f2f5e9" fill-opacity="0.5" stroke="#606060" stroke-width=".5" x="0" y="0" width="60" height="60"/>
                <use id="zoomplus" xlink:href="#zoomPlus" x="17" y="9" onmousedown="handleZoom(evt,'in')"/>
                <use id="zoomminus" xlink:href="#zoomMin" x="42" y="9" onmousedown="handleZoom(evt,'out')"/>
                <use id="reset" xlink:href="#resetDef" x="30" y="36" onmousedown="handleReset()"/>
                <g id="arrowUp" xlink:href="#dirArrow" transform="translate(30 24)" onmousedown="handlePan(0,-1)">
                  <use xlink:href="#rim" fill="#404040">
                        <set attributeName="fill" to="#808080" begin="arrowUp.mouseover" end="arrowUp.mouseout"/>
                  </use>
                  <path fill="none" stroke="white" stroke-width="1.5" d="M0,-3.0v7 M-2.5,-0.5L0,-3.0L2.5,-0.5"/>
                </g>
                <g id="arrowRight" xlink:href="#dirArrow" transform="rotate(90) translate(36 -43)" onmousedown="handlePan(1,0)">
                  <use xlink:href="#rim" fill="#404040">
                        <set attributeName="fill" to="#808080" begin="arrowRight.mouseover" end="arrowRight.mouseout"/>
                  </use>
                  <path fill="none" stroke="white" stroke-width="1.5" d="M0,-3.0v7 M-2.5,-0.5L0,-3.0L2.5,-0.5"/>
                </g>
                <g id="arrowDown" xlink:href="#dirArrow" transform="rotate(180) translate(-30 -48)" onmousedown="handlePan(0,1)">
                  <use xlink:href="#rim" fill="#404040">
                        <set attributeName="fill" to="#808080" begin="arrowDown.mouseover" end="arrowDown.mouseout"/>
                  </use>
                  <path fill="none" stroke="white" stroke-width="1.5" d="M0,-3.0v7 M-2.5,-0.5L0,-3.0L2.5,-0.5"/>
                </g>
                <g id="arrowLeft" xlink:href="#dirArrow" transform="rotate(270) translate(-36 17)" onmousedown="handlePan(-1,0)">
                  <use xlink:href="#rim" fill="#404040">
                        <set attributeName="fill" to="#808080" begin="arrowLeft.mouseover" end="arrowLeft.mouseout"/>
                  </use>
                  <path fill="none" stroke="white" stroke-width="1.5" d="M0,-3.0v7 M-2.5,-0.5L0,-3.0L2.5,-0.5"/>
                </g>
        </g>
        <svg viewBox="0 0 15 15" width="100%" height="30px" preserveAspectRatio="xMaxYMin meet">
         <g id="arrow_out" transform="scale(0.3 0.3)">
          <a xlink:href="class_player__coll__graph_org.svg" target="_base">
           <rect id="button" ry="5" rx="5" y="6" x="6" height="38" width="38"
                fill="#f2f5e9" fill-opacity="0.5" stroke="#606060" stroke-width="1.0"/>
           <path id="arrow"
             d="M 11.500037,31.436501 C 11.940474,20.09759 22.043105,11.32322 32.158766,21.979434 L 37.068811,17.246167 C 37.068811,17.246167 37.088388,32 37.088388,32 L 22.160133,31.978069 C 22.160133,31.978069 26.997745,27.140456 26.997745,27.140456 C 18.528582,18.264221 13.291696,25.230495 11.500037,31.436501 z"
             style="fill:#404040;"/>
          </a>
         </g>
        </svg>
</svg>
