<?xml version="1.0" encoding="UTF-8" standalone="no"?>
<!DOCTYPE svg PUBLIC "-//W3C//DTD SVG 1.1//EN"
 "http://www.w3.org/Graphics/SVG/1.1/DTD/svg11.dtd">
<!-- Generated by graphviz version 2.36.0 (20140111.2315)
 -->
<!-- Title: BlitProgram Pages: 1 -->
<svg width="410pt" height="222pt"
 viewBox="0.00 0.00 410.00 222.00" xmlns="http://www.w3.org/2000/svg" xmlns:xlink="http://www.w3.org/1999/xlink">
<g id="graph0" class="graph" transform="scale(1 1) rotate(0) translate(4 218)">
<title>BlitProgram</title>
<polygon fill="white" stroke="none" points="-4,4 -4,-218 406,-218 406,4 -4,4"/>
<!-- Node1 -->
<g id="node1" class="node"><title>Node1</title>
<polygon fill="#bfbfbf" stroke="black" points="195,-0.5 195,-19.5 263,-19.5 263,-0.5 195,-0.5"/>
<text text-anchor="middle" x="229" y="-7.5" font-family="Helvetica,sans-Serif" font-size="10.00">BlitProgram</text>
</g>
<!-- Node2 -->
<g id="node2" class="node"><title>Node2</title>
<g id="a_node2"><a xlink:href="class_context_dependant.html" target="_top" xlink:title="ContextDependant">
<polygon fill="white" stroke="black" points="-0.5,-194.5 -0.5,-213.5 96.5,-213.5 96.5,-194.5 -0.5,-194.5"/>
<text text-anchor="middle" x="48" y="-201.5" font-family="Helvetica,sans-Serif" font-size="10.00">ContextDependant</text>
</a>
</g>
</g>
<!-- Node2&#45;&gt;Node1 -->
<g id="edge1" class="edge"><title>Node2&#45;&gt;Node1</title>
<path fill="none" stroke="midnightblue" d="M40.7458,-184.628C30.9635,-156.514 17.5175,-102.461 43,-68 77.9402,-20.7485 151.311,-11.3969 194.729,-10.2541"/>
<polygon fill="midnightblue" stroke="midnightblue" points="37.5905,-186.186 44.348,-194.346 44.1541,-183.753 37.5905,-186.186"/>
</g>
<!-- Node6 -->
<g id="node6" class="node"><title>Node6</title>
<g id="a_node6"><a xlink:href="class_screen_quad.html" target="_top" xlink:title="ScreenQuad">
<polygon fill="white" stroke="black" points="62.5,-136.5 62.5,-155.5 133.5,-155.5 133.5,-136.5 62.5,-136.5"/>
<text text-anchor="middle" x="98" y="-143.5" font-family="Helvetica,sans-Serif" font-size="10.00">ScreenQuad</text>
</a>
</g>
</g>
<!-- Node2&#45;&gt;Node6 -->
<g id="edge6" class="edge"><title>Node2&#45;&gt;Node6</title>
<path fill="none" stroke="midnightblue" d="M62.5187,-186.739C71.6379,-176.526 83.0291,-163.767 90.4061,-155.505"/>
<polygon fill="midnightblue" stroke="midnightblue" points="59.8619,-184.46 55.8125,-194.25 65.0835,-189.122 59.8619,-184.46"/>
</g>
<!-- Node3 -->
<g id="node3" class="node"><title>Node3</title>
<polygon fill="white" stroke="#bfbfbf" points="223.5,-68.5 223.5,-87.5 302.5,-87.5 302.5,-68.5 223.5,-68.5"/>
<text text-anchor="middle" x="263" y="-75.5" font-family="Helvetica,sans-Serif" font-size="10.00">glow::Program</text>
</g>
<!-- Node3&#45;&gt;Node1 -->
<g id="edge2" class="edge"><title>Node3&#45;&gt;Node1</title>
<path fill="none" stroke="darkgreen" d="M253.823,-59.1859C247.263,-46.4523 238.716,-29.8607 233.555,-19.8411"/>
<polygon fill="darkgreen" stroke="darkgreen" points="250.864,-61.0848 258.555,-68.3717 257.087,-57.879 250.864,-61.0848"/>
</g>
<!-- Node4 -->
<g id="node4" class="node"><title>Node4</title>
<g id="a_node4"><a xlink:href="class_viewport.html" target="_top" xlink:title="Viewport">
<polygon fill="white" stroke="black" points="321,-68.5 321,-87.5 375,-87.5 375,-68.5 321,-68.5"/>
<text text-anchor="middle" x="348" y="-75.5" font-family="Helvetica,sans-Serif" font-size="10.00">Viewport</text>
</a>
</g>
</g>
<!-- Node4&#45;&gt;Node1 -->
<g id="edge3" class="edge"><title>Node4&#45;&gt;Node1</title>
<path fill="none" stroke="#9a32cd" stroke-dasharray="5,2" d="M323.686,-63.5149C299.997,-50.3767 264.697,-30.7981 244.561,-19.6305"/>
<polygon fill="#9a32cd" stroke="#9a32cd" points="322,-66.5822 332.443,-68.3717 325.395,-60.4606 322,-66.5822"/>
<text text-anchor="middle" x="351" y="-41.5" font-family="Helvetica,sans-Serif" font-size="10.00"> m_destinationViewport</text>
</g>
<!-- Node5 -->
<g id="node5" class="node"><title>Node5</title>
<polygon fill="white" stroke="#bfbfbf" points="52.5,-68.5 52.5,-87.5 205.5,-87.5 205.5,-68.5 52.5,-68.5"/>
<text text-anchor="middle" x="129" y="-75.5" font-family="Helvetica,sans-Serif" font-size="10.00">std::unique_ptr&lt; ScreenQuad &gt;</text>
</g>
<!-- Node5&#45;&gt;Node1 -->
<g id="edge4" class="edge"><title>Node5&#45;&gt;Node1</title>
<path fill="none" stroke="#9a32cd" stroke-dasharray="5,2" d="M150.498,-62.8113C170.384,-49.6863 199.302,-30.6004 215.924,-19.6305"/>
<polygon fill="#9a32cd" stroke="#9a32cd" points="148.491,-59.942 142.073,-68.3717 152.347,-65.7843 148.491,-59.942"/>
<text text-anchor="middle" x="207" y="-41.5" font-family="Helvetica,sans-Serif" font-size="10.00"> m_quad</text>
</g>
<!-- Node6&#45;&gt;Node5 -->
<g id="edge5" class="edge"><title>Node6&#45;&gt;Node5</title>
<path fill="none" stroke="#9a32cd" stroke-dasharray="5,2" d="M106.367,-127.186C112.348,-114.452 120.141,-97.8607 124.847,-87.8411"/>
<polygon fill="#9a32cd" stroke="#9a32cd" points="103.136,-125.832 102.053,-136.372 109.472,-128.808 103.136,-125.832"/>
<text text-anchor="middle" x="124.5" y="-109.5" font-family="Helvetica,sans-Serif" font-size="10.00"> ptr</text>
</g>
</g>
</svg>
