<?xml version="1.0" encoding="UTF-8" standalone="no"?>
<!DOCTYPE svg PUBLIC "-//W3C//DTD SVG 1.1//EN"
 "http://www.w3.org/Graphics/SVG/1.1/DTD/svg11.dtd">
<!-- Generated by graphviz version 2.36.0 (20140111.2315)
 -->
<!-- Title: StereoBlitProgram Pages: 1 -->
<svg width="447pt" height="164pt"
 viewBox="0.00 0.00 447.00 164.00" xmlns="http://www.w3.org/2000/svg" xmlns:xlink="http://www.w3.org/1999/xlink">
<g id="graph0" class="graph" transform="scale(1 1) rotate(0) translate(4 160)">
<title>StereoBlitProgram</title>
<polygon fill="white" stroke="none" points="-4,4 -4,-160 443,-160 443,4 -4,4"/>
<!-- Node1 -->
<g id="node1" class="node"><title>Node1</title>
<polygon fill="#bfbfbf" stroke="black" points="222,-0.5 222,-19.5 318,-19.5 318,-0.5 222,-0.5"/>
<text text-anchor="middle" x="270" y="-7.5" font-family="Helvetica,sans-Serif" font-size="10.00">StereoBlitProgram</text>
</g>
<!-- Node2 -->
<g id="node2" class="node"><title>Node2</title>
<g id="a_node2"><a xlink:href="class_blit_program.html" target="_top" xlink:title="BlitProgram">
<polygon fill="white" stroke="black" points="161,-68.5 161,-87.5 229,-87.5 229,-68.5 161,-68.5"/>
<text text-anchor="middle" x="195" y="-75.5" font-family="Helvetica,sans-Serif" font-size="10.00">BlitProgram</text>
</a>
</g>
</g>
<!-- Node2&#45;&gt;Node1 -->
<g id="edge1" class="edge"><title>Node2&#45;&gt;Node1</title>
<path fill="none" stroke="midnightblue" d="M212.713,-61.4122C227.447,-48.4468 247.891,-30.4559 259.953,-19.8411"/>
<polygon fill="midnightblue" stroke="midnightblue" points="210,-59.1378 204.805,-68.3717 214.624,-64.3928 210,-59.1378"/>
</g>
<!-- Node3 -->
<g id="node3" class="node"><title>Node3</title>
<g id="a_node3"><a xlink:href="class_context_dependant.html" target="_top" xlink:title="ContextDependant">
<polygon fill="white" stroke="black" points="-0.5,-136.5 -0.5,-155.5 96.5,-155.5 96.5,-136.5 -0.5,-136.5"/>
<text text-anchor="middle" x="48" y="-143.5" font-family="Helvetica,sans-Serif" font-size="10.00">ContextDependant</text>
</a>
</g>
</g>
<!-- Node3&#45;&gt;Node2 -->
<g id="edge2" class="edge"><title>Node3&#45;&gt;Node2</title>
<path fill="none" stroke="midnightblue" d="M76.495,-132.206C105.748,-119.072 150.464,-98.9957 175.778,-87.6305"/>
<polygon fill="midnightblue" stroke="midnightblue" points="74.9068,-129.083 67.2177,-136.372 77.774,-135.469 74.9068,-129.083"/>
</g>
<!-- Node4 -->
<g id="node4" class="node"><title>Node4</title>
<polygon fill="white" stroke="#bfbfbf" points="114.5,-136.5 114.5,-155.5 193.5,-155.5 193.5,-136.5 114.5,-136.5"/>
<text text-anchor="middle" x="154" y="-143.5" font-family="Helvetica,sans-Serif" font-size="10.00">glow::Program</text>
</g>
<!-- Node4&#45;&gt;Node2 -->
<g id="edge3" class="edge"><title>Node4&#45;&gt;Node2</title>
<path fill="none" stroke="darkgreen" d="M164.832,-127.563C172.772,-114.781 183.222,-97.9599 189.508,-87.8411"/>
<polygon fill="darkgreen" stroke="darkgreen" points="161.664,-126.03 159.36,-136.372 167.61,-129.724 161.664,-126.03"/>
</g>
<!-- Node5 -->
<g id="node5" class="node"><title>Node5</title>
<g id="a_node5"><a xlink:href="class_viewport.html" target="_top" xlink:title="Viewport">
<polygon fill="white" stroke="black" points="212,-136.5 212,-155.5 266,-155.5 266,-136.5 212,-136.5"/>
<text text-anchor="middle" x="239" y="-143.5" font-family="Helvetica,sans-Serif" font-size="10.00">Viewport</text>
</a>
</g>
</g>
<!-- Node5&#45;&gt;Node2 -->
<g id="edge4" class="edge"><title>Node5&#45;&gt;Node2</title>
<path fill="none" stroke="#9a32cd" stroke-dasharray="5,2" d="M227.625,-127.938C219.075,-115.112 207.706,-98.0591 200.894,-87.8411"/>
<polygon fill="#9a32cd" stroke="#9a32cd" points="224.789,-129.993 233.248,-136.372 230.613,-126.11 224.789,-129.993"/>
<text text-anchor="middle" x="272" y="-109.5" font-family="Helvetica,sans-Serif" font-size="10.00"> m_destinationViewport</text>
</g>
<!-- Node6 -->
<g id="node6" class="node"><title>Node6</title>
<polygon fill="white" stroke="#bfbfbf" points="285.5,-136.5 285.5,-155.5 438.5,-155.5 438.5,-136.5 285.5,-136.5"/>
<text text-anchor="middle" x="362" y="-143.5" font-family="Helvetica,sans-Serif" font-size="10.00">std::unique_ptr&lt; ScreenQuad &gt;</text>
</g>
<!-- Node6&#45;&gt;Node2 -->
<g id="edge5" class="edge"><title>Node6&#45;&gt;Node2</title>
<path fill="none" stroke="#9a32cd" stroke-dasharray="5,2" d="M350.756,-128.095C344.643,-120.203 336.41,-111.381 327,-106 291.967,-85.966 277.528,-96.1338 238,-88 235.161,-87.4159 232.218,-86.8068 229.263,-86.1932"/>
<polygon fill="#9a32cd" stroke="#9a32cd" points="348.03,-130.299 356.706,-136.379 353.715,-126.216 348.03,-130.299"/>
<text text-anchor="middle" x="361" y="-109.5" font-family="Helvetica,sans-Serif" font-size="10.00"> m_quad</text>
</g>
<!-- Node7 -->
<g id="node7" class="node"><title>Node7</title>
<polygon fill="white" stroke="#bfbfbf" points="247,-68.5 247,-87.5 345,-87.5 345,-68.5 247,-68.5"/>
<text text-anchor="middle" x="296" y="-75.5" font-family="Helvetica,sans-Serif" font-size="10.00">std::vector&lt; float &gt;</text>
</g>
<!-- Node7&#45;&gt;Node1 -->
<g id="edge6" class="edge"><title>Node7&#45;&gt;Node1</title>
<path fill="none" stroke="#9a32cd" stroke-dasharray="5,2" d="M288.833,-58.8066C283.837,-46.1244 277.391,-29.7615 273.483,-19.8411"/>
<polygon fill="#9a32cd" stroke="#9a32cd" points="285.679,-60.3504 292.601,-68.3717 292.192,-57.7847 285.679,-60.3504"/>
<text text-anchor="middle" x="320.5" y="-41.5" font-family="Helvetica,sans-Serif" font-size="10.00"> m_distortionKs</text>
</g>
</g>
</svg>
