<?xml version="1.0" encoding="UTF-8" standalone="no"?>
<!DOCTYPE svg PUBLIC "-//W3C//DTD SVG 1.1//EN"
 "http://www.w3.org/Graphics/SVG/1.1/DTD/svg11.dtd">
<!-- Generated by graphviz version 2.36.0 (20140111.2315)
 -->
<!-- Title: MonoView Pages: 1 -->
<svg width="205pt" height="164pt"
 viewBox="0.00 0.00 205.00 164.00" xmlns="http://www.w3.org/2000/svg" xmlns:xlink="http://www.w3.org/1999/xlink">
<g id="graph0" class="graph" transform="scale(1 1) rotate(0) translate(4 160)">
<title>MonoView</title>
<polygon fill="white" stroke="none" points="-4,4 -4,-160 201,-160 201,4 -4,4"/>
<!-- Node1 -->
<g id="node1" class="node"><title>Node1</title>
<polygon fill="#bfbfbf" stroke="black" points="56,-0.5 56,-19.5 118,-19.5 118,-0.5 56,-0.5"/>
<text text-anchor="middle" x="87" y="-7.5" font-family="Helvetica,sans-Serif" font-size="10.00">MonoView</text>
</g>
<!-- Node2 -->
<g id="node2" class="node"><title>Node2</title>
<g id="a_node2"><a xlink:href="class_view.html" target="_top" xlink:title="View">
<polygon fill="white" stroke="black" points="8,-68.5 8,-87.5 46,-87.5 46,-68.5 8,-68.5"/>
<text text-anchor="middle" x="27" y="-75.5" font-family="Helvetica,sans-Serif" font-size="10.00">View</text>
</a>
</g>
</g>
<!-- Node2&#45;&gt;Node1 -->
<g id="edge1" class="edge"><title>Node2&#45;&gt;Node1</title>
<path fill="none" stroke="midnightblue" d="M41.8364,-60.68C53.5666,-47.7768 69.4932,-30.2575 78.9626,-19.8411"/>
<polygon fill="midnightblue" stroke="midnightblue" points="38.9809,-58.6179 34.844,-68.3717 44.1605,-63.3266 38.9809,-58.6179"/>
</g>
<!-- Node3 -->
<g id="node3" class="node"><title>Node3</title>
<g id="a_node3"><a xlink:href="class_viewport.html" target="_top" xlink:title="Viewport">
<polygon fill="white" stroke="black" points="0,-136.5 0,-155.5 54,-155.5 54,-136.5 0,-136.5"/>
<text text-anchor="middle" x="27" y="-143.5" font-family="Helvetica,sans-Serif" font-size="10.00">Viewport</text>
</a>
</g>
</g>
<!-- Node3&#45;&gt;Node2 -->
<g id="edge2" class="edge"><title>Node3&#45;&gt;Node2</title>
<path fill="none" stroke="#9a32cd" stroke-dasharray="5,2" d="M27,-126.041C27,-113.472 27,-97.5631 27,-87.8411"/>
<polygon fill="#9a32cd" stroke="#9a32cd" points="23.5001,-126.372 27,-136.372 30.5001,-126.372 23.5001,-126.372"/>
<text text-anchor="middle" x="53" y="-109.5" font-family="Helvetica,sans-Serif" font-size="10.00"> m_viewport</text>
</g>
<!-- Node4 -->
<g id="node4" class="node"><title>Node4</title>
<polygon fill="white" stroke="#bfbfbf" points="64.5,-68.5 64.5,-87.5 197.5,-87.5 197.5,-68.5 64.5,-68.5"/>
<text text-anchor="middle" x="131" y="-75.5" font-family="Helvetica,sans-Serif" font-size="10.00">std::unique_ptr&lt; Camera &gt;</text>
</g>
<!-- Node4&#45;&gt;Node1 -->
<g id="edge3" class="edge"><title>Node4&#45;&gt;Node1</title>
<path fill="none" stroke="#9a32cd" stroke-dasharray="5,2" d="M119.625,-59.9377C111.075,-47.112 99.7061,-30.0591 92.8941,-19.8411"/>
<polygon fill="#9a32cd" stroke="#9a32cd" points="116.789,-61.9926 125.248,-68.3717 122.613,-58.1097 116.789,-61.9926"/>
<text text-anchor="middle" x="137.5" y="-41.5" font-family="Helvetica,sans-Serif" font-size="10.00"> m_camera</text>
</g>
<!-- Node5 -->
<g id="node5" class="node"><title>Node5</title>
<g id="a_node5"><a xlink:href="class_camera.html" target="_top" xlink:title="Camera">
<polygon fill="white" stroke="red" points="106,-136.5 106,-155.5 156,-155.5 156,-136.5 106,-136.5"/>
<text text-anchor="middle" x="131" y="-143.5" font-family="Helvetica,sans-Serif" font-size="10.00">Camera</text>
</a>
</g>
</g>
<!-- Node5&#45;&gt;Node4 -->
<g id="edge4" class="edge"><title>Node5&#45;&gt;Node4</title>
<path fill="none" stroke="#9a32cd" stroke-dasharray="5,2" d="M131,-126.041C131,-113.472 131,-97.5631 131,-87.8411"/>
<polygon fill="#9a32cd" stroke="#9a32cd" points="127.5,-126.372 131,-136.372 134.5,-126.372 127.5,-126.372"/>
<text text-anchor="middle" x="138.5" y="-109.5" font-family="Helvetica,sans-Serif" font-size="10.00"> ptr</text>
</g>
</g>
</svg>
