<?xml version="1.0" encoding="UTF-8" standalone="no"?>
<!DOCTYPE svg PUBLIC "-//W3C//DTD SVG 1.1//EN"
 "http://www.w3.org/Graphics/SVG/1.1/DTD/svg11.dtd">
<!-- Generated by graphviz version 2.36.0 (20140111.2315)
 -->
<!-- Title: RenderPipeline Pages: 1 -->
<svg width="215pt" height="176pt"
 viewBox="0.00 0.00 215.00 176.00" xmlns="http://www.w3.org/2000/svg" xmlns:xlink="http://www.w3.org/1999/xlink">
<g id="graph0" class="graph" transform="scale(1 1) rotate(0) translate(4 172)">
<title>RenderPipeline</title>
<polygon fill="white" stroke="none" points="-4,4 -4,-172 211,-172 211,4 -4,4"/>
<!-- Node1 -->
<g id="node1" class="node"><title>Node1</title>
<polygon fill="#bfbfbf" stroke="black" points="78,-0.5 78,-19.5 160,-19.5 160,-0.5 78,-0.5"/>
<text text-anchor="middle" x="119" y="-7.5" font-family="Helvetica,sans-Serif" font-size="10.00">RenderPipeline</text>
</g>
<!-- Node2 -->
<g id="node2" class="node"><title>Node2</title>
<g id="a_node2"><a xlink:href="class_render_pass.html" target="_top" xlink:title="RenderPass">
<polygon fill="white" stroke="black" points="0,-74.5 0,-93.5 70,-93.5 70,-74.5 0,-74.5"/>
<text text-anchor="middle" x="35" y="-81.5" font-family="Helvetica,sans-Serif" font-size="10.00">RenderPass</text>
</a>
</g>
</g>
<!-- Node2&#45;&gt;Node1 -->
<g id="edge1" class="edge"><title>Node2&#45;&gt;Node1</title>
<path fill="none" stroke="#8b1a1a" d="M52.6242,-67.8935C69.7554,-53.2096 95.1612,-31.4332 109.047,-19.531"/>
<polygon fill="#8b1a1a" stroke="#8b1a1a" points="50.2806,-65.2926 44.9658,-74.4579 54.8361,-70.6074 50.2806,-65.2926"/>
</g>
<!-- Node3 -->
<g id="node3" class="node"><title>Node3</title>
<g id="a_node3"><a xlink:title="STL class. ">
<polygon fill="white" stroke="#bfbfbf" points="5,-148.5 5,-167.5 65,-167.5 65,-148.5 5,-148.5"/>
<text text-anchor="middle" x="35" y="-155.5" font-family="Helvetica,sans-Serif" font-size="10.00">std::string</text>
</a>
</g>
</g>
<!-- Node3&#45;&gt;Node2 -->
<g id="edge2" class="edge"><title>Node3&#45;&gt;Node2</title>
<path fill="none" stroke="#9a32cd" stroke-dasharray="5,2" d="M35,-138.156C35,-123.712 35,-104.459 35,-93.531"/>
<polygon fill="#9a32cd" stroke="#9a32cd" points="31.5001,-138.458 35,-148.458 38.5001,-138.458 31.5001,-138.458"/>
<text text-anchor="middle" x="55.5" y="-121.5" font-family="Helvetica,sans-Serif" font-size="10.00"> m_name</text>
</g>
<!-- Node4 -->
<g id="node4" class="node"><title>Node4</title>
<polygon fill="white" stroke="#bfbfbf" points="88.5,-69 88.5,-99 207.5,-99 207.5,-69 88.5,-69"/>
<text text-anchor="start" x="96.5" y="-87" font-family="Helvetica,sans-Serif" font-size="10.00">std::vector&lt; std::shared</text>
<text text-anchor="middle" x="148" y="-76" font-family="Helvetica,sans-Serif" font-size="10.00">_ptr&lt; RenderPass &gt; &gt;</text>
</g>
<!-- Node4&#45;&gt;Node1 -->
<g id="edge3" class="edge"><title>Node4&#45;&gt;Node1</title>
<path fill="none" stroke="#9a32cd" stroke-dasharray="5,2" d="M138.528,-59.4835C133.05,-45.8836 126.48,-29.571 122.528,-19.7589"/>
<polygon fill="#9a32cd" stroke="#9a32cd" points="135.288,-60.8069 142.271,-68.7751 141.781,-58.1916 135.288,-60.8069"/>
<text text-anchor="middle" x="159.5" y="-41.5" font-family="Helvetica,sans-Serif" font-size="10.00"> m_passes</text>
</g>
</g>
</svg>
