<?xml version="1.0" encoding="UTF-8" standalone="no"?>
<!DOCTYPE svg PUBLIC "-//W3C//DTD SVG 1.1//EN"
 "http://www.w3.org/Graphics/SVG/1.1/DTD/svg11.dtd">
<!-- Generated by graphviz version 2.36.0 (20140111.2315)
 -->
<!-- Title: Hudget Pages: 1 -->
<svg width="440pt" height="474pt"
 viewBox="0.00 0.00 440.00 474.24" xmlns="http://www.w3.org/2000/svg" xmlns:xlink="http://www.w3.org/1999/xlink">
<g id="graph0" class="graph" transform="scale(1 1) rotate(0) translate(4 470.241)">
<title>Hudget</title>
<polygon fill="white" stroke="none" points="-4,4 -4,-470.241 436,-470.241 436,4 -4,4"/>
<!-- Node1 -->
<g id="node1" class="node"><title>Node1</title>
<polygon fill="#bfbfbf" stroke="black" points="0.5,-417.741 0.5,-436.741 47.5,-436.741 47.5,-417.741 0.5,-417.741"/>
<text text-anchor="middle" x="24" y="-424.741" font-family="Helvetica,sans-Serif" font-size="10.00">Hudget</text>
</g>
<!-- Node3 -->
<g id="node3" class="node"><title>Node3</title>
<polygon fill="white" stroke="#bfbfbf" points="147,-438.741 147,-457.741 251,-457.741 251,-438.741 147,-438.741"/>
<text text-anchor="middle" x="199" y="-445.741" font-family="Helvetica,sans-Serif" font-size="10.00">std::list&lt; Hudget * &gt;</text>
</g>
<!-- Node1&#45;&gt;Node3 -->
<g id="edge3" class="edge"><title>Node1&#45;&gt;Node3</title>
<path fill="none" stroke="#9a32cd" stroke-dasharray="5,2" d="M57.7394,-431.215C82.9081,-434.27 118.138,-438.547 146.994,-442.049"/>
<polygon fill="#9a32cd" stroke="#9a32cd" points="57.9656,-427.717 47.6167,-429.986 57.1221,-434.666 57.9656,-427.717"/>
<text text-anchor="middle" x="88" y="-440.241" font-family="Helvetica,sans-Serif" font-size="10.00"> elements</text>
</g>
<!-- Node2 -->
<g id="node2" class="node"><title>Node2</title>
<g id="a_node2"><a xlink:href="class_h_u_d.html" target="_top" xlink:title="HUD">
<polygon fill="white" stroke="black" points="394.5,-210.741 394.5,-229.741 431.5,-229.741 431.5,-210.741 394.5,-210.741"/>
<text text-anchor="middle" x="413" y="-217.741" font-family="Helvetica,sans-Serif" font-size="10.00">HUD</text>
</a>
</g>
</g>
<!-- Node2&#45;&gt;Node1 -->
<g id="edge1" class="edge"><title>Node2&#45;&gt;Node1</title>
<path fill="none" stroke="#9a32cd" stroke-dasharray="5,2" d="M410.151,-239.951C406.21,-277.48 395.695,-357.082 376,-375.241 351.685,-397.659 121.166,-419.058 47.509,-425.372"/>
<polygon fill="#9a32cd" stroke="#9a32cd" points="413.657,-240.068 411.166,-229.77 406.691,-239.373 413.657,-240.068"/>
<text text-anchor="middle" x="199" y="-421.241" font-family="Helvetica,sans-Serif" font-size="10.00"> m_hud</text>
</g>
<!-- Node3&#45;&gt;Node2 -->
<g id="edge2" class="edge"><title>Node3&#45;&gt;Node2</title>
<path fill="none" stroke="#9a32cd" stroke-dasharray="5,2" d="M261.629,-456.2C299.494,-457.471 346.278,-451.957 376,-423.241 404.251,-395.946 410.522,-266.217 411.736,-229.779"/>
<polygon fill="#9a32cd" stroke="#9a32cd" points="261.371,-452.683 251.208,-455.675 261.019,-459.674 261.371,-452.683"/>
<text text-anchor="middle" x="332" y="-458.241" font-family="Helvetica,sans-Serif" font-size="10.00"> m_hudgets</text>
</g>
<!-- Node4 -->
<g id="node4" class="node"><title>Node4</title>
<polygon fill="white" stroke="#bfbfbf" points="131.5,-342.241 131.5,-372.241 266.5,-372.241 266.5,-342.241 131.5,-342.241"/>
<text text-anchor="start" x="139.5" y="-360.241" font-family="Helvetica,sans-Serif" font-size="10.00">std::unique_ptr&lt; AimHelper</text>
<text text-anchor="middle" x="199" y="-349.241" font-family="Helvetica,sans-Serif" font-size="10.00">Hudget &gt;</text>
</g>
<!-- Node4&#45;&gt;Node2 -->
<g id="edge4" class="edge"><title>Node4&#45;&gt;Node2</title>
<path fill="none" stroke="#9a32cd" stroke-dasharray="5,2" d="M277.025,-361.027C310.882,-358.763 348.995,-350.337 376,-327.241 405.641,-301.89 410.953,-251.296 411.849,-230.022"/>
<polygon fill="#9a32cd" stroke="#9a32cd" points="276.485,-357.55 266.671,-361.542 276.832,-364.541 276.485,-357.55"/>
<text text-anchor="middle" x="332" y="-363.241" font-family="Helvetica,sans-Serif" font-size="10.00"> m_aimHelper</text>
</g>
<!-- Node5 -->
<g id="node5" class="node"><title>Node5</title>
<polygon fill="white" stroke="#bfbfbf" points="134,-293.241 134,-323.241 264,-323.241 264,-293.241 134,-293.241"/>
<text text-anchor="start" x="142" y="-311.241" font-family="Helvetica,sans-Serif" font-size="10.00">std::unique_ptr&lt; TextField</text>
<text text-anchor="middle" x="199" y="-300.241" font-family="Helvetica,sans-Serif" font-size="10.00">Hudget &gt;</text>
</g>
<!-- Node5&#45;&gt;Node2 -->
<g id="edge5" class="edge"><title>Node5&#45;&gt;Node2</title>
<path fill="none" stroke="#9a32cd" stroke-dasharray="5,2" d="M274.232,-303.619C307.51,-298.697 345.942,-288.832 376,-269.241 391.034,-259.442 401.976,-241.049 407.631,-229.797"/>
<polygon fill="#9a32cd" stroke="#9a32cd" points="273.525,-300.183 264.085,-304.993 274.464,-307.12 273.525,-300.183"/>
<text text-anchor="middle" x="332" y="-315.241" font-family="Helvetica,sans-Serif" font-size="10.00"> m_speedLabel</text>
<text text-anchor="middle" x="332" y="-304.241" font-family="Helvetica,sans-Serif" font-size="10.00">m_targetName</text>
</g>
<!-- Node6 -->
<g id="node6" class="node"><title>Node6</title>
<g id="a_node6"><a xlink:href="class_handle.html" target="_top" xlink:title="Handle\&lt; WorldObject \&gt;">
<polygon fill="white" stroke="black" points="139.5,-254.741 139.5,-273.741 258.5,-273.741 258.5,-254.741 139.5,-254.741"/>
<text text-anchor="middle" x="199" y="-261.741" font-family="Helvetica,sans-Serif" font-size="10.00">Handle&lt; WorldObject &gt;</text>
</a>
</g>
</g>
<!-- Node6&#45;&gt;Node2 -->
<g id="edge6" class="edge"><title>Node6&#45;&gt;Node2</title>
<path fill="none" stroke="#9a32cd" stroke-dasharray="5,2" d="M268.589,-256.692C301.477,-252.125 341.197,-245.213 376,-235.241 382.118,-233.488 388.597,-231 394.347,-228.553"/>
<polygon fill="#9a32cd" stroke="#9a32cd" points="268.058,-253.232 258.615,-258.035 268.993,-260.169 268.058,-253.232"/>
<text text-anchor="middle" x="332" y="-257.241" font-family="Helvetica,sans-Serif" font-size="10.00"> m_target</text>
</g>
<!-- Node7 -->
<g id="node7" class="node"><title>Node7</title>
<polygon fill="white" stroke="#bfbfbf" points="132,-205.241 132,-235.241 266,-235.241 266,-205.241 132,-205.241"/>
<text text-anchor="start" x="140" y="-223.241" font-family="Helvetica,sans-Serif" font-size="10.00">std::unique_ptr&lt; WorldTree</text>
<text text-anchor="middle" x="199" y="-212.241" font-family="Helvetica,sans-Serif" font-size="10.00">Scanner &gt;</text>
</g>
<!-- Node7&#45;&gt;Node2 -->
<g id="edge7" class="edge"><title>Node7&#45;&gt;Node2</title>
<path fill="none" stroke="#9a32cd" stroke-dasharray="5,2" d="M276.327,-220.241C319.037,-220.241 368.737,-220.241 394.499,-220.241"/>
<polygon fill="#9a32cd" stroke="#9a32cd" points="276.206,-216.741 266.206,-220.241 276.206,-223.741 276.206,-216.741"/>
<text text-anchor="middle" x="332" y="-223.241" font-family="Helvetica,sans-Serif" font-size="10.00"> m_scanner</text>
</g>
<!-- Node8 -->
<g id="node8" class="node"><title>Node8</title>
<g id="a_node8"><a xlink:href="class_sphere.html" target="_top" xlink:title="Sphere">
<polygon fill="white" stroke="red" points="175.5,-166.741 175.5,-185.741 222.5,-185.741 222.5,-166.741 175.5,-166.741"/>
<text text-anchor="middle" x="199" y="-173.741" font-family="Helvetica,sans-Serif" font-size="10.00">Sphere</text>
</a>
</g>
</g>
<!-- Node8&#45;&gt;Node2 -->
<g id="edge8" class="edge"><title>Node8&#45;&gt;Node2</title>
<path fill="none" stroke="#9a32cd" stroke-dasharray="5,2" d="M232.917,-179.363C268.656,-183.282 327.168,-191.249 376,-205.241 382.118,-206.994 388.597,-209.482 394.347,-211.929"/>
<polygon fill="#9a32cd" stroke="#9a32cd" points="232.905,-175.842 222.593,-178.274 232.171,-182.803 232.905,-175.842"/>
<text text-anchor="middle" x="332" y="-208.241" font-family="Helvetica,sans-Serif" font-size="10.00"> m_sphere</text>
</g>
<!-- Node9 -->
<g id="node9" class="node"><title>Node9</title>
<polygon fill="white" stroke="#bfbfbf" points="133,-117.241 133,-147.241 265,-147.241 265,-117.241 133,-117.241"/>
<text text-anchor="start" x="141" y="-135.241" font-family="Helvetica,sans-Serif" font-size="10.00">std::map&lt; WorldObject</text>
<text text-anchor="middle" x="199" y="-124.241" font-family="Helvetica,sans-Serif" font-size="10.00"> *, HUDObjectDelegate * &gt;</text>
</g>
<!-- Node9&#45;&gt;Node2 -->
<g id="edge9" class="edge"><title>Node9&#45;&gt;Node2</title>
<path fill="none" stroke="#9a32cd" stroke-dasharray="5,2" d="M275.344,-137.665C308.332,-142.872 346.219,-152.925 376,-172.241 390.682,-181.764 401.598,-199.46 407.368,-210.5"/>
<polygon fill="#9a32cd" stroke="#9a32cd" points="275.678,-134.177 265.278,-136.2 274.67,-141.104 275.678,-134.177"/>
<text text-anchor="middle" x="332" y="-175.241" font-family="Helvetica,sans-Serif" font-size="10.00"> m_objectDelegates</text>
</g>
<!-- Node10 -->
<g id="node10" class="node"><title>Node10</title>
<polygon fill="white" stroke="#bfbfbf" points="128,-78.7407 128,-97.7407 270,-97.7407 270,-78.7407 128,-78.7407"/>
<text text-anchor="middle" x="199" y="-85.7407" font-family="Helvetica,sans-Serif" font-size="10.00">std::unique_ptr&lt; CrossHair &gt;</text>
</g>
<!-- Node10&#45;&gt;Node2 -->
<g id="edge10" class="edge"><title>Node10&#45;&gt;Node2</title>
<path fill="none" stroke="#9a32cd" stroke-dasharray="5,2" d="M280.476,-88.7631C313.372,-92.8344 349.773,-102.794 376,-125.241 402.264,-147.719 409.414,-191.465 411.322,-210.736"/>
<polygon fill="#9a32cd" stroke="#9a32cd" points="280.712,-85.2684 270.395,-87.6814 279.965,-92.2284 280.712,-85.2684"/>
<text text-anchor="middle" x="332" y="-128.241" font-family="Helvetica,sans-Serif" font-size="10.00"> m_crossHair</text>
</g>
<!-- Node11 -->
<g id="node11" class="node"><title>Node11</title>
<g id="a_node11"><a xlink:href="class_player.html" target="_top" xlink:title="Player">
<polygon fill="white" stroke="red" points="177,-40.7407 177,-59.7407 221,-59.7407 221,-40.7407 177,-40.7407"/>
<text text-anchor="middle" x="199" y="-47.7407" font-family="Helvetica,sans-Serif" font-size="10.00">Player</text>
</a>
</g>
</g>
<!-- Node11&#45;&gt;Node2 -->
<g id="edge11" class="edge"><title>Node11&#45;&gt;Node2</title>
<path fill="none" stroke="#9a32cd" stroke-dasharray="5,2" d="M231.493,-45.3008C270.486,-41.0945 336.565,-40.5039 376,-76.2407 396.241,-94.5834 407.646,-181.3 410.969,-210.567"/>
<polygon fill="#9a32cd" stroke="#9a32cd" points="230.757,-41.8647 221.257,-46.5559 231.609,-48.8127 230.757,-41.8647"/>
<text text-anchor="middle" x="332" y="-79.2407" font-family="Helvetica,sans-Serif" font-size="10.00"> m_player</text>
</g>
<!-- Node12 -->
<g id="node12" class="node"><title>Node12</title>
<g id="a_node12"><a xlink:href="class_viewer.html" target="_top" xlink:title="Viewer">
<polygon fill="white" stroke="red" points="176,-2.74072 176,-21.7407 222,-21.7407 222,-2.74072 176,-2.74072"/>
<text text-anchor="middle" x="199" y="-9.74072" font-family="Helvetica,sans-Serif" font-size="10.00">Viewer</text>
</a>
</g>
</g>
<!-- Node12&#45;&gt;Node2 -->
<g id="edge12" class="edge"><title>Node12&#45;&gt;Node2</title>
<path fill="none" stroke="#9a32cd" stroke-dasharray="5,2" d="M232.305,-4.94209C271.513,1.84442 337.183,6.23122 376,-29.2407 403.151,-54.0521 410.166,-175.112 411.651,-210.505"/>
<polygon fill="#9a32cd" stroke="#9a32cd" points="231.409,-1.54937 222.23,-6.84039 232.705,-8.42835 231.409,-1.54937"/>
<text text-anchor="middle" x="332" y="-32.2407" font-family="Helvetica,sans-Serif" font-size="10.00"> m_viewer</text>
</g>
</g>
</svg>
