<?xml version="1.0" encoding="UTF-8" standalone="no"?>
<!DOCTYPE svg PUBLIC "-//W3C//DTD SVG 1.1//EN"
 "http://www.w3.org/Graphics/SVG/1.1/DTD/svg11.dtd">
<!-- Generated by graphviz version 2.36.0 (20140111.2315)
 -->
<!-- Title: ElasticImpulseGenerator Pages: 1 -->
<svg width="176pt" height="164pt"
 viewBox="0.00 0.00 176.00 164.00" xmlns="http://www.w3.org/2000/svg" xmlns:xlink="http://www.w3.org/1999/xlink">
<g id="graph0" class="graph" transform="scale(1 1) rotate(0) translate(4 160)">
<title>ElasticImpulseGenerator</title>
<polygon fill="white" stroke="none" points="-4,4 -4,-160 172,-160 172,4 -4,4"/>
<!-- Node1 -->
<g id="node1" class="node"><title>Node1</title>
<polygon fill="#bfbfbf" stroke="black" points="-0.5,-0.5 -0.5,-19.5 122.5,-19.5 122.5,-0.5 -0.5,-0.5"/>
<text text-anchor="middle" x="61" y="-7.5" font-family="Helvetica,sans-Serif" font-size="10.00">ElasticImpulseGenerator</text>
</g>
<!-- Node2 -->
<g id="node2" class="node"><title>Node2</title>
<polygon fill="white" stroke="#bfbfbf" points="10.5,-68.5 10.5,-87.5 111.5,-87.5 111.5,-68.5 10.5,-68.5"/>
<text text-anchor="middle" x="61" y="-75.5" font-family="Helvetica,sans-Serif" font-size="10.00">std::list&lt; Impulse &gt;</text>
</g>
<!-- Node2&#45;&gt;Node1 -->
<g id="edge1" class="edge"><title>Node2&#45;&gt;Node1</title>
<path fill="none" stroke="#9a32cd" stroke-dasharray="5,2" d="M61,-58.0413C61,-45.4724 61,-29.5631 61,-19.8411"/>
<polygon fill="#9a32cd" stroke="#9a32cd" points="57.5001,-58.3716 61,-68.3717 64.5001,-58.3717 57.5001,-58.3716"/>
<text text-anchor="middle" x="114.5" y="-41.5" font-family="Helvetica,sans-Serif" font-size="10.00"> m_worldObjectImpulses</text>
</g>
<!-- Node3 -->
<g id="node3" class="node"><title>Node3</title>
<g id="a_node3"><a xlink:href="class_impulse.html" target="_top" xlink:title="Impulse">
<polygon fill="white" stroke="red" points="36,-136.5 36,-155.5 86,-155.5 86,-136.5 36,-136.5"/>
<text text-anchor="middle" x="61" y="-143.5" font-family="Helvetica,sans-Serif" font-size="10.00">Impulse</text>
</a>
</g>
</g>
<!-- Node3&#45;&gt;Node2 -->
<g id="edge2" class="edge"><title>Node3&#45;&gt;Node2</title>
<path fill="none" stroke="#9a32cd" stroke-dasharray="5,2" d="M61,-126.041C61,-113.472 61,-97.5631 61,-87.8411"/>
<polygon fill="#9a32cd" stroke="#9a32cd" points="57.5001,-126.372 61,-136.372 64.5001,-126.372 57.5001,-126.372"/>
<text text-anchor="middle" x="82.5" y="-109.5" font-family="Helvetica,sans-Serif" font-size="10.00"> elements</text>
</g>
</g>
</svg>
