<?xml version="1.0" encoding="UTF-8" standalone="no"?>
<!DOCTYPE svg PUBLIC "-//W3C//DTD SVG 1.1//EN"
 "http://www.w3.org/Graphics/SVG/1.1/DTD/svg11.dtd">
<!-- Generated by graphviz version 2.36.0 (20140111.2315)
 -->
<!-- Title: VoxelRenderData Pages: 1 -->
<svg width="239pt" height="176pt"
 viewBox="0.00 0.00 239.00 176.00" xmlns="http://www.w3.org/2000/svg" xmlns:xlink="http://www.w3.org/1999/xlink">
<g id="graph0" class="graph" transform="scale(1 1) rotate(0) translate(4 172)">
<title>VoxelRenderData</title>
<polygon fill="white" stroke="none" points="-4,4 -4,-172 235,-172 235,4 -4,4"/>
<!-- Node1 -->
<g id="node1" class="node"><title>Node1</title>
<polygon fill="#bfbfbf" stroke="black" points="41,-0.5 41,-19.5 133,-19.5 133,-0.5 41,-0.5"/>
<text text-anchor="middle" x="87" y="-7.5" font-family="Helvetica,sans-Serif" font-size="10.00">VoxelRenderData</text>
</g>
<!-- Node2 -->
<g id="node2" class="node"><title>Node2</title>
<g id="a_node2"><a xlink:href="class_context_dependant.html" target="_top" xlink:title="ContextDependant">
<polygon fill="white" stroke="black" points="-0.5,-74.5 -0.5,-93.5 96.5,-93.5 96.5,-74.5 -0.5,-74.5"/>
<text text-anchor="middle" x="48" y="-81.5" font-family="Helvetica,sans-Serif" font-size="10.00">ContextDependant</text>
</a>
</g>
</g>
<!-- Node2&#45;&gt;Node1 -->
<g id="edge1" class="edge"><title>Node2&#45;&gt;Node1</title>
<path fill="none" stroke="midnightblue" d="M57.517,-65.4302C65.4073,-50.8634 76.2837,-30.784 82.3791,-19.531"/>
<polygon fill="midnightblue" stroke="midnightblue" points="54.3123,-63.998 52.627,-74.4579 60.4674,-67.332 54.3123,-63.998"/>
</g>
<!-- Node3 -->
<g id="node3" class="node"><title>Node3</title>
<polygon fill="white" stroke="#bfbfbf" points="115,-69 115,-99 231,-99 231,-69 115,-69"/>
<text text-anchor="start" x="123" y="-87" font-family="Helvetica,sans-Serif" font-size="10.00">std::unordered_map</text>
<text text-anchor="middle" x="173" y="-76" font-family="Helvetica,sans-Serif" font-size="10.00">&lt; glm::ivec3, Voxel * &gt;</text>
</g>
<!-- Node3&#45;&gt;Node1 -->
<g id="edge2" class="edge"><title>Node3&#45;&gt;Node1</title>
<path fill="none" stroke="#9a32cd" stroke-dasharray="5,2" d="M148.174,-62.2158C131.351,-48.1309 109.979,-30.2378 97.462,-19.7589"/>
<polygon fill="#9a32cd" stroke="#9a32cd" points="146.095,-65.0394 156.009,-68.7751 150.588,-59.6721 146.095,-65.0394"/>
<text text-anchor="middle" x="151.5" y="-41.5" font-family="Helvetica,sans-Serif" font-size="10.00"> m_voxel</text>
</g>
<!-- Node4 -->
<g id="node4" class="node"><title>Node4</title>
<g id="a_node4"><a xlink:href="class_voxel.html" target="_top" xlink:title="Voxel">
<polygon fill="white" stroke="red" points="152.5,-148.5 152.5,-167.5 193.5,-167.5 193.5,-148.5 152.5,-148.5"/>
<text text-anchor="middle" x="173" y="-155.5" font-family="Helvetica,sans-Serif" font-size="10.00">Voxel</text>
</a>
</g>
</g>
<!-- Node4&#45;&gt;Node3 -->
<g id="edge3" class="edge"><title>Node4&#45;&gt;Node3</title>
<path fill="none" stroke="#9a32cd" stroke-dasharray="5,2" d="M173,-138.085C173,-125.915 173,-110.354 173,-99.2316"/>
<polygon fill="#9a32cd" stroke="#9a32cd" points="169.5,-138.458 173,-148.458 176.5,-138.458 169.5,-138.458"/>
<text text-anchor="middle" x="194.5" y="-121.5" font-family="Helvetica,sans-Serif" font-size="10.00"> elements</text>
</g>
</g>
</svg>
