<?xml version="1.0" encoding="UTF-8" standalone="no"?>
<!DOCTYPE svg PUBLIC "-//W3C//DTD SVG 1.1//EN"
 "http://www.w3.org/Graphics/SVG/1.1/DTD/svg11.dtd">
<!-- Generated by graphviz version 2.36.0 (20140111.2315)
 -->
<!-- Title: State Pages: 1 -->
<svg width="309pt" height="336pt"
 viewBox="0.00 0.00 309.00 336.00" xmlns="http://www.w3.org/2000/svg" xmlns:xlink="http://www.w3.org/1999/xlink">
<g id="graph0" class="graph" transform="scale(1 1) rotate(0) translate(4 332)">
<title>State</title>
<polygon fill="white" stroke="none" points="-4,4 -4,-332 305,-332 305,4 -4,4"/>
<!-- Node1 -->
<g id="node1" class="node"><title>Node1</title>
<polygon fill="#bfbfbf" stroke="black" points="89,-158.5 89,-177.5 129,-177.5 129,-158.5 89,-158.5"/>
<text text-anchor="middle" x="109" y="-165.5" font-family="Helvetica,sans-Serif" font-size="10.00">State</text>
</g>
<!-- Node1&#45;&gt;Node1 -->
<g id="edge9" class="edge"><title>Node1&#45;&gt;Node1</title>
<path fill="none" stroke="#9a32cd" stroke-dasharray="5,2" d="M139.416,-175.823C143.94,-174.604 147,-171.997 147,-168 147,-161.441 138.76,-158.623 129.329,-159.546"/>
<polygon fill="#9a32cd" stroke="#9a32cd" points="139.091,-172.336 129.329,-176.454 139.529,-179.323 139.091,-172.336"/>
<text text-anchor="middle" x="191" y="-182" font-family="Helvetica,sans-Serif" font-size="10.00"> m_currentSubState</text>
<text text-anchor="middle" x="191" y="-171" font-family="Helvetica,sans-Serif" font-size="10.00">m_initialSubState</text>
<text text-anchor="middle" x="191" y="-160" font-family="Helvetica,sans-Serif" font-size="10.00">m_finalSubState</text>
<text text-anchor="middle" x="191" y="-149" font-family="Helvetica,sans-Serif" font-size="10.00">m_parentState</text>
</g>
<!-- Node2 -->
<g id="node2" class="node"><title>Node2</title>
<polygon fill="white" stroke="#bfbfbf" points="-0.5,-68.5 -0.5,-87.5 96.5,-87.5 96.5,-68.5 -0.5,-68.5"/>
<text text-anchor="middle" x="48" y="-75.5" font-family="Helvetica,sans-Serif" font-size="10.00">std::list&lt; State * &gt;</text>
</g>
<!-- Node1&#45;&gt;Node2 -->
<g id="edge2" class="edge"><title>Node1&#45;&gt;Node2</title>
<path fill="none" stroke="#9a32cd" stroke-dasharray="5,2" d="M103.168,-148.9C98.478,-136.096 91.017,-118.968 81,-106 75.4794,-98.8529 67.7259,-92.3858 61.1216,-87.5739"/>
<polygon fill="#9a32cd" stroke="#9a32cd" points="99.8913,-150.133 106.452,-158.452 106.511,-147.858 99.8913,-150.133"/>
<text text-anchor="middle" x="116.5" y="-114.5" font-family="Helvetica,sans-Serif" font-size="10.00"> elements</text>
</g>
<!-- Node6 -->
<g id="node6" class="node"><title>Node6</title>
<g id="a_node6"><a xlink:href="class_transition.html" target="_top" xlink:title="Transition">
<polygon fill="white" stroke="black" points="241.5,-68.5 241.5,-87.5 300.5,-87.5 300.5,-68.5 241.5,-68.5"/>
<text text-anchor="middle" x="271" y="-75.5" font-family="Helvetica,sans-Serif" font-size="10.00">Transition</text>
</a>
</g>
</g>
<!-- Node1&#45;&gt;Node6 -->
<g id="edge8" class="edge"><title>Node1&#45;&gt;Node6</title>
<path fill="none" stroke="#9a32cd" stroke-dasharray="5,2" d="M133.511,-153.617C156.193,-141.241 190.856,-122.348 221,-106 232.274,-99.886 244.991,-93.019 254.779,-87.7403"/>
<polygon fill="#9a32cd" stroke="#9a32cd" points="131.674,-150.633 124.572,-158.496 135.027,-156.777 131.674,-150.633"/>
<text text-anchor="middle" x="239" y="-120" font-family="Helvetica,sans-Serif" font-size="10.00"> m_from</text>
<text text-anchor="middle" x="239" y="-109" font-family="Helvetica,sans-Serif" font-size="10.00">m_to</text>
</g>
<!-- Node2&#45;&gt;Node1 -->
<g id="edge1" class="edge"><title>Node2&#45;&gt;Node1</title>
<path fill="none" stroke="#9a32cd" stroke-dasharray="5,2" d="M27.5561,-94.7056C24.4791,-98.0735 21.7529,-101.875 20,-106 16.1762,-114.999 14.6506,-119.815 20,-128 35.1364,-151.159 67.4049,-160.651 88.643,-164.482"/>
<polygon fill="#9a32cd" stroke="#9a32cd" points="30.1559,-97.0668 35.0793,-87.6853 25.3802,-91.9489 30.1559,-97.0668"/>
<text text-anchor="middle" x="50.5" y="-114.5" font-family="Helvetica,sans-Serif" font-size="10.00"> m_subStates</text>
</g>
<!-- Node3 -->
<g id="node3" class="node"><title>Node3</title>
<g id="a_node3"><a xlink:title="STL class. ">
<polygon fill="white" stroke="#bfbfbf" points="200,-238.5 200,-257.5 260,-257.5 260,-238.5 200,-238.5"/>
<text text-anchor="middle" x="230" y="-245.5" font-family="Helvetica,sans-Serif" font-size="10.00">std::string</text>
</a>
</g>
</g>
<!-- Node3&#45;&gt;Node1 -->
<g id="edge3" class="edge"><title>Node3&#45;&gt;Node1</title>
<path fill="none" stroke="#9a32cd" stroke-dasharray="5,2" d="M208.148,-232.914C183.217,-216.842 143.223,-191.061 122.472,-177.684"/>
<polygon fill="#9a32cd" stroke="#9a32cd" points="206.287,-235.878 216.589,-238.355 210.08,-229.995 206.287,-235.878"/>
<text text-anchor="middle" x="208.5" y="-211.5" font-family="Helvetica,sans-Serif" font-size="10.00"> m_name</text>
</g>
<!-- Node3&#45;&gt;Node6 -->
<g id="edge7" class="edge"><title>Node3&#45;&gt;Node6</title>
<path fill="none" stroke="#9a32cd" stroke-dasharray="5,2" d="M234.614,-228.262C237.348,-217.143 240.879,-202.769 244,-190 253.324,-151.854 264.376,-106.314 268.906,-87.6372"/>
<polygon fill="#9a32cd" stroke="#9a32cd" points="231.18,-227.569 232.189,-238.116 237.977,-229.242 231.18,-227.569"/>
<text text-anchor="middle" x="275.5" y="-165.5" font-family="Helvetica,sans-Serif" font-size="10.00"> m_name</text>
</g>
<!-- Node4 -->
<g id="node4" class="node"><title>Node4</title>
<g id="a_node4"><a xlink:title="STL class. ">
<polygon fill="white" stroke="#bfbfbf" points="182.5,-297 182.5,-327 277.5,-327 277.5,-297 182.5,-297"/>
<text text-anchor="start" x="190.5" y="-315" font-family="Helvetica,sans-Serif" font-size="10.00">std::basic_string&lt;</text>
<text text-anchor="middle" x="230" y="-304" font-family="Helvetica,sans-Serif" font-size="10.00"> char &gt;</text>
</a>
</g>
</g>
<!-- Node4&#45;&gt;Node3 -->
<g id="edge4" class="edge"><title>Node4&#45;&gt;Node3</title>
<path fill="none" stroke="midnightblue" d="M230,-286.871C230,-276.663 230,-265.408 230,-257.842"/>
<polygon fill="midnightblue" stroke="midnightblue" points="226.5,-286.931 230,-296.931 233.5,-286.931 226.5,-286.931"/>
</g>
<!-- Node5 -->
<g id="node5" class="node"><title>Node5</title>
<polygon fill="white" stroke="#bfbfbf" points="138,-0.5 138,-19.5 254,-19.5 254,-0.5 138,-0.5"/>
<text text-anchor="middle" x="196" y="-7.5" font-family="Helvetica,sans-Serif" font-size="10.00">std::list&lt; Transition * &gt;</text>
</g>
<!-- Node5&#45;&gt;Node1 -->
<g id="edge5" class="edge"><title>Node5&#45;&gt;Node1</title>
<path fill="none" stroke="#9a32cd" stroke-dasharray="5,2" d="M187.879,-28.7566C173.158,-60.9212 143.444,-125.734 142,-128 134.851,-139.22 124.75,-150.681 117.611,-158.249"/>
<polygon fill="#9a32cd" stroke="#9a32cd" points="191.099,-30.1311 192.077,-19.5814 184.733,-27.2187 191.099,-30.1311"/>
<text text-anchor="middle" x="201" y="-75.5" font-family="Helvetica,sans-Serif" font-size="10.00"> m_transitions</text>
</g>
<!-- Node6&#45;&gt;Node5 -->
<g id="edge6" class="edge"><title>Node6&#45;&gt;Node5</title>
<path fill="none" stroke="#9a32cd" stroke-dasharray="5,2" d="M253.287,-61.4122C238.553,-48.4468 218.109,-30.4559 206.047,-19.8411"/>
<polygon fill="#9a32cd" stroke="#9a32cd" points="251.376,-64.3928 261.195,-68.3717 256,-59.1378 251.376,-64.3928"/>
<text text-anchor="middle" x="262.5" y="-41.5" font-family="Helvetica,sans-Serif" font-size="10.00"> elements</text>
</g>
</g>
</svg>
