<?xml version="1.0" encoding="UTF-8" standalone="no"?>
<!DOCTYPE svg PUBLIC "-//W3C//DTD SVG 1.1//EN"
 "http://www.w3.org/Graphics/SVG/1.1/DTD/svg11.dtd">
<!-- Generated by graphviz version 2.36.0 (20140111.2315)
 -->
<!-- Title: GamePlay Pages: 1 -->
<svg width="998pt" height="612pt"
 viewBox="0.00 0.00 998.00 612.28" xmlns="http://www.w3.org/2000/svg" xmlns:xlink="http://www.w3.org/1999/xlink">
<g id="graph0" class="graph" transform="scale(1 1) rotate(0) translate(4 608.279)">
<title>GamePlay</title>
<polygon fill="white" stroke="none" points="-4,4 -4,-608.279 994,-608.279 994,4 -4,4"/>
<!-- Node1 -->
<g id="node1" class="node"><title>Node1</title>
<polygon fill="#bfbfbf" stroke="black" points="245,-336.5 245,-355.5 307,-355.5 307,-336.5 245,-336.5"/>
<text text-anchor="middle" x="276" y="-343.5" font-family="Helvetica,sans-Serif" font-size="10.00">GamePlay</text>
</g>
<!-- Node4 -->
<g id="node4" class="node"><title>Node4</title>
<g id="a_node4"><a xlink:href="class_game.html" target="_top" xlink:title="Game">
<polygon fill="white" stroke="black" points="491.5,-517.5 491.5,-536.5 534.5,-536.5 534.5,-517.5 491.5,-517.5"/>
<text text-anchor="middle" x="513" y="-524.5" font-family="Helvetica,sans-Serif" font-size="10.00">Game</text>
</a>
</g>
</g>
<!-- Node1&#45;&gt;Node4 -->
<g id="edge7" class="edge"><title>Node1&#45;&gt;Node4</title>
<path fill="none" stroke="#9a32cd" stroke-dasharray="5,2" d="M284.704,-365.285C296.944,-393.549 323.457,-446.104 362,-476 401.447,-506.598 460.358,-519.445 491.306,-524.33"/>
<polygon fill="#9a32cd" stroke="#9a32cd" points="287.8,-363.617 280.716,-355.739 281.341,-366.315 287.8,-363.617"/>
<text text-anchor="middle" x="404" y="-516" font-family="Helvetica,sans-Serif" font-size="10.00"> m_gamePlay</text>
</g>
<!-- Node7 -->
<g id="node7" class="node"><title>Node7</title>
<g id="a_node7"><a xlink:href="class_game_play_scene.html" target="_top" xlink:title="GamePlayScene">
<polygon fill="white" stroke="red" points="677,-209.5 677,-228.5 767,-228.5 767,-209.5 677,-209.5"/>
<text text-anchor="middle" x="722" y="-216.5" font-family="Helvetica,sans-Serif" font-size="10.00">GamePlayScene</text>
</a>
</g>
</g>
<!-- Node1&#45;&gt;Node7 -->
<g id="edge11" class="edge"><title>Node1&#45;&gt;Node7</title>
<path fill="none" stroke="#9a32cd" stroke-dasharray="5,2" d="M282.422,-326.352C292.347,-294.52 316.698,-232.384 362,-204 470.367,-136.103 635.387,-186.566 696.836,-209.367"/>
<polygon fill="#9a32cd" stroke="#9a32cd" points="278.977,-325.66 279.503,-336.242 285.691,-327.642 278.977,-325.66"/>
<text text-anchor="middle" x="513" y="-177" font-family="Helvetica,sans-Serif" font-size="10.00"> m_gamePlay</text>
</g>
<!-- Node8 -->
<g id="node8" class="node"><title>Node8</title>
<g id="a_node8"><a xlink:href="class_player.html" target="_top" xlink:title="Player">
<polygon fill="white" stroke="red" points="491,-215.5 491,-234.5 535,-234.5 535,-215.5 491,-215.5"/>
<text text-anchor="middle" x="513" y="-222.5" font-family="Helvetica,sans-Serif" font-size="10.00">Player</text>
</a>
</g>
</g>
<!-- Node1&#45;&gt;Node8 -->
<g id="edge13" class="edge"><title>Node1&#45;&gt;Node8</title>
<path fill="none" stroke="#9a32cd" stroke-dasharray="5,2" d="M283.309,-326.861C294.12,-297.595 319.254,-242.727 362,-220 403.297,-198.044 460.428,-209.336 490.884,-218.045"/>
<polygon fill="#9a32cd" stroke="#9a32cd" points="279.978,-325.783 279.968,-336.378 286.583,-328.102 279.978,-325.783"/>
<text text-anchor="middle" x="404" y="-223" font-family="Helvetica,sans-Serif" font-size="10.00"> m_gamePlay</text>
</g>
<!-- Node10 -->
<g id="node10" class="node"><title>Node10</title>
<g id="a_node10"><a xlink:href="class_base_scenario.html" target="_top" xlink:title="BaseScenario">
<polygon fill="white" stroke="red" points="474.5,-392.5 474.5,-411.5 551.5,-411.5 551.5,-392.5 474.5,-392.5"/>
<text text-anchor="middle" x="513" y="-399.5" font-family="Helvetica,sans-Serif" font-size="10.00">BaseScenario</text>
</a>
</g>
</g>
<!-- Node1&#45;&gt;Node10 -->
<g id="edge16" class="edge"><title>Node1&#45;&gt;Node10</title>
<path fill="none" stroke="#9a32cd" stroke-dasharray="5,2" d="M304.005,-360.115C320.364,-368.062 341.892,-377.472 362,-383 399.46,-393.298 443.741,-398.039 474.436,-400.207"/>
<polygon fill="#9a32cd" stroke="#9a32cd" points="305.532,-356.966 295.02,-355.645 302.414,-363.233 305.532,-356.966"/>
<text text-anchor="middle" x="404" y="-401" font-family="Helvetica,sans-Serif" font-size="10.00"> m_gamePlay</text>
</g>
<!-- Node12 -->
<g id="node12" class="node"><title>Node12</title>
<g id="a_node12"><a xlink:href="class_game_play_running.html" target="_top" xlink:title="GamePlayRunning">
<polygon fill="white" stroke="black" points="464,-82.5 464,-101.5 562,-101.5 562,-82.5 464,-82.5"/>
<text text-anchor="middle" x="513" y="-89.5" font-family="Helvetica,sans-Serif" font-size="10.00">GamePlayRunning</text>
</a>
</g>
</g>
<!-- Node1&#45;&gt;Node12 -->
<g id="edge21" class="edge"><title>Node1&#45;&gt;Node12</title>
<path fill="none" stroke="#9a32cd" stroke-dasharray="5,2" d="M286.508,-327.103C300.506,-298.742 326.849,-243.238 344,-194 354.425,-164.071 339.161,-146.973 362,-125 365.771,-121.372 421.334,-109.782 463.744,-101.361"/>
<polygon fill="#9a32cd" stroke="#9a32cd" points="283.273,-325.749 281.95,-336.261 289.539,-328.869 283.273,-325.749"/>
<text text-anchor="middle" x="404" y="-128" font-family="Helvetica,sans-Serif" font-size="10.00"> m_gamePlay</text>
</g>
<!-- Node15 -->
<g id="node15" class="node"><title>Node15</title>
<g id="a_node15"><a xlink:href="class_game_play_paused.html" target="_top" xlink:title="GamePlayPaused">
<polygon fill="white" stroke="black" points="465.5,-311.5 465.5,-330.5 560.5,-330.5 560.5,-311.5 465.5,-311.5"/>
<text text-anchor="middle" x="513" y="-318.5" font-family="Helvetica,sans-Serif" font-size="10.00">GamePlayPaused</text>
</a>
</g>
</g>
<!-- Node1&#45;&gt;Node15 -->
<g id="edge26" class="edge"><title>Node1&#45;&gt;Node15</title>
<path fill="none" stroke="#9a32cd" stroke-dasharray="5,2" d="M305.742,-332.218C321.873,-325.247 342.601,-317.531 362,-314 396.241,-307.768 435.562,-309.94 465.352,-313.445"/>
<polygon fill="#9a32cd" stroke="#9a32cd" points="304.047,-329.142 296.346,-336.418 306.904,-335.532 304.047,-329.142"/>
<text text-anchor="middle" x="404" y="-317" font-family="Helvetica,sans-Serif" font-size="10.00"> m_gamePlay</text>
</g>
<!-- Node2 -->
<g id="node2" class="node"><title>Node2</title>
<g id="a_node2"><a xlink:href="class_game_state.html" target="_top" xlink:title="GameState">
<polygon fill="white" stroke="black" points="104,-461.5 104,-480.5 170,-480.5 170,-461.5 104,-461.5"/>
<text text-anchor="middle" x="137" y="-468.5" font-family="Helvetica,sans-Serif" font-size="10.00">GameState</text>
</a>
</g>
</g>
<!-- Node2&#45;&gt;Node1 -->
<g id="edge1" class="edge"><title>Node2&#45;&gt;Node1</title>
<path fill="none" stroke="midnightblue" d="M156.162,-454.428C185.139,-427.99 240.937,-377.08 264.3,-355.763"/>
<polygon fill="midnightblue" stroke="midnightblue" points="153.778,-451.866 148.75,-461.191 158.496,-457.037 153.778,-451.866"/>
</g>
<!-- Node2&#45;&gt;Node2 -->
<g id="edge4" class="edge"><title>Node2&#45;&gt;Node2</title>
<path fill="none" stroke="#9a32cd" stroke-dasharray="5,2" d="M127.424,-490.766C128.176,-495.497 131.368,-499 137,-499 146.242,-499 148.914,-489.565 145.015,-480.757"/>
<polygon fill="#9a32cd" stroke="#9a32cd" points="130.902,-491.177 128.985,-480.757 123.986,-490.098 130.902,-491.177"/>
<text text-anchor="middle" x="137" y="-502" font-family="Helvetica,sans-Serif" font-size="10.00"> m_parentGameState</text>
</g>
<!-- Node2&#45;&gt;Node4 -->
<g id="edge6" class="edge"><title>Node2&#45;&gt;Node4</title>
<path fill="none" stroke="midnightblue" d="M144.187,-490.426C153.464,-515.872 173.658,-559.429 208,-578 301.229,-628.416 345.482,-596.61 446,-563 465.063,-556.626 485.075,-544.893 497.995,-536.555"/>
<polygon fill="midnightblue" stroke="midnightblue" points="147.425,-489.079 140.87,-480.755 140.804,-491.35 147.425,-489.079"/>
</g>
<!-- Node2&#45;&gt;Node12 -->
<g id="edge20" class="edge"><title>Node2&#45;&gt;Node12</title>
<path fill="none" stroke="midnightblue" d="M140.185,-451.127C147.295,-389.522 171.441,-203.074 208,-156 255.059,-95.4044 287.375,-95.8207 362,-78 400.795,-68.7355 446.599,-75.4769 477.294,-82.4422"/>
<polygon fill="midnightblue" stroke="midnightblue" points="136.668,-451.082 139.024,-461.412 143.624,-451.867 136.668,-451.082"/>
</g>
<!-- Node2&#45;&gt;Node15 -->
<g id="edge25" class="edge"><title>Node2&#45;&gt;Node15</title>
<path fill="none" stroke="midnightblue" d="M178.833,-483.464C253.261,-505.036 406.935,-543.919 446,-510 467.523,-491.312 452.905,-409.256 464,-383 472.796,-362.185 490.367,-342.295 501.635,-330.883"/>
<polygon fill="midnightblue" stroke="midnightblue" points="179.458,-480 168.877,-480.545 177.488,-486.717 179.458,-480"/>
</g>
<!-- Node3 -->
<g id="node3" class="node"><title>Node3</title>
<g id="a_node3"><a xlink:href="class_state.html" target="_top" xlink:title="State">
<polygon fill="white" stroke="red" points="24,-461.5 24,-480.5 64,-480.5 64,-461.5 24,-461.5"/>
<text text-anchor="middle" x="44" y="-468.5" font-family="Helvetica,sans-Serif" font-size="10.00">State</text>
</a>
</g>
</g>
<!-- Node3&#45;&gt;Node2 -->
<g id="edge2" class="edge"><title>Node3&#45;&gt;Node2</title>
<path fill="none" stroke="midnightblue" d="M74.3685,-471C83.7761,-471 94.2405,-471 103.837,-471"/>
<polygon fill="midnightblue" stroke="midnightblue" points="74.2988,-467.5 64.2988,-471 74.2987,-474.5 74.2988,-467.5"/>
</g>
<!-- Node3&#45;&gt;Node3 -->
<g id="edge3" class="edge"><title>Node3&#45;&gt;Node3</title>
<path fill="none" stroke="#9a32cd" stroke-dasharray="5,2" d="M36.6338,-490.766C37.2123,-495.497 39.6677,-499 44,-499 51.1094,-499 53.1644,-489.565 50.1652,-480.757"/>
<polygon fill="#9a32cd" stroke="#9a32cd" points="40.1184,-491.103 37.8348,-480.757 33.1683,-490.269 40.1184,-491.103"/>
<text text-anchor="middle" x="44" y="-535" font-family="Helvetica,sans-Serif" font-size="10.00"> m_currentSubState</text>
<text text-anchor="middle" x="44" y="-524" font-family="Helvetica,sans-Serif" font-size="10.00">m_initialSubState</text>
<text text-anchor="middle" x="44" y="-513" font-family="Helvetica,sans-Serif" font-size="10.00">m_finalSubState</text>
<text text-anchor="middle" x="44" y="-502" font-family="Helvetica,sans-Serif" font-size="10.00">m_parentState</text>
</g>
<!-- Node4&#45;&gt;Node1 -->
<g id="edge5" class="edge"><title>Node4&#45;&gt;Node1</title>
<path fill="none" stroke="#9a32cd" stroke-dasharray="5,2" d="M497.361,-509.111C485.034,-495.166 466.217,-476.327 446,-465 412.232,-446.08 394.863,-462.452 362,-442 324.956,-418.947 294.81,-374.92 282.714,-355.549"/>
<polygon fill="#9a32cd" stroke="#9a32cd" points="494.992,-511.725 504.152,-517.05 500.311,-507.175 494.992,-511.725"/>
<text text-anchor="middle" x="404" y="-468" font-family="Helvetica,sans-Serif" font-size="10.00"> m_game</text>
</g>
<!-- Node5 -->
<g id="node5" class="node"><title>Node5</title>
<polygon fill="white" stroke="#bfbfbf" points="212,-549.5 212,-568.5 340,-568.5 340,-549.5 212,-549.5"/>
<text text-anchor="middle" x="276" y="-556.5" font-family="Helvetica,sans-Serif" font-size="10.00">std::unique_ptr&lt; Viewer &gt;</text>
</g>
<!-- Node5&#45;&gt;Node4 -->
<g id="edge8" class="edge"><title>Node5&#45;&gt;Node4</title>
<path fill="none" stroke="#9a32cd" stroke-dasharray="5,2" d="M350.335,-549.793C380.05,-545.974 414.681,-541.411 446,-537 461.148,-534.867 478.222,-532.275 491.209,-530.264"/>
<polygon fill="#9a32cd" stroke="#9a32cd" points="349.517,-546.369 340.042,-551.111 350.406,-553.312 349.517,-546.369"/>
<text text-anchor="middle" x="404" y="-551" font-family="Helvetica,sans-Serif" font-size="10.00"> m_viewer</text>
</g>
<!-- Node6 -->
<g id="node6" class="node"><title>Node6</title>
<polygon fill="white" stroke="#bfbfbf" points="854,-306 854,-336 990,-336 990,-306 854,-306"/>
<text text-anchor="start" x="862" y="-324" font-family="Helvetica,sans-Serif" font-size="10.00">std::unique_ptr&lt; GamePlay</text>
<text text-anchor="middle" x="922" y="-313" font-family="Helvetica,sans-Serif" font-size="10.00">Scene &gt;</text>
</g>
<!-- Node6&#45;&gt;Node1 -->
<g id="edge9" class="edge"><title>Node6&#45;&gt;Node1</title>
<path fill="none" stroke="#9a32cd" stroke-dasharray="5,2" d="M843.827,-327.588C749.909,-335.247 586.459,-347.421 446,-352 408.686,-353.216 399.31,-353.315 362,-352 343.815,-351.359 323.482,-349.949 307.264,-348.657"/>
<polygon fill="#9a32cd" stroke="#9a32cd" points="844.132,-331.075 853.812,-326.769 843.56,-324.098 844.132,-331.075"/>
<text text-anchor="middle" x="602" y="-349" font-family="Helvetica,sans-Serif" font-size="10.00"> m_scene</text>
</g>
<!-- Node7&#45;&gt;Node6 -->
<g id="edge10" class="edge"><title>Node7&#45;&gt;Node6</title>
<path fill="none" stroke="#9a32cd" stroke-dasharray="5,2" d="M761.677,-232.094C774.703,-236.922 789.179,-242.751 802,-249 837.164,-266.139 875.477,-290.419 898.872,-305.939"/>
<polygon fill="#9a32cd" stroke="#9a32cd" points="762.645,-228.723 752.051,-228.608 760.261,-235.304 762.645,-228.723"/>
<text text-anchor="middle" x="828" y="-270" font-family="Helvetica,sans-Serif" font-size="10.00"> ptr</text>
</g>
<!-- Node8&#45;&gt;Node7 -->
<g id="edge12" class="edge"><title>Node8&#45;&gt;Node7</title>
<path fill="none" stroke="#9a32cd" stroke-dasharray="5,2" d="M545.107,-222.203C556.119,-221.329 568.602,-220.472 580,-220 612.408,-218.659 649.041,-218.438 676.843,-218.537"/>
<polygon fill="#9a32cd" stroke="#9a32cd" points="544.759,-218.72 535.082,-223.033 545.337,-225.696 544.759,-218.72"/>
<text text-anchor="middle" x="602" y="-223" font-family="Helvetica,sans-Serif" font-size="10.00"> m_player</text>
</g>
<!-- Node11 -->
<g id="node11" class="node"><title>Node11</title>
<polygon fill="white" stroke="#bfbfbf" points="658.5,-258.5 658.5,-277.5 785.5,-277.5 785.5,-258.5 658.5,-258.5"/>
<text text-anchor="middle" x="722" y="-265.5" font-family="Helvetica,sans-Serif" font-size="10.00">std::unique_ptr&lt; Player &gt;</text>
</g>
<!-- Node8&#45;&gt;Node11 -->
<g id="edge18" class="edge"><title>Node8&#45;&gt;Node11</title>
<path fill="none" stroke="#9a32cd" stroke-dasharray="5,2" d="M545.348,-231.512C579.823,-238.673 635.552,-250.25 674.982,-258.441"/>
<polygon fill="#9a32cd" stroke="#9a32cd" points="545.876,-228.047 535.373,-229.44 544.452,-234.901 545.876,-228.047"/>
<text text-anchor="middle" x="602" y="-251" font-family="Helvetica,sans-Serif" font-size="10.00"> ptr</text>
</g>
<!-- Node9 -->
<g id="node9" class="node"><title>Node9</title>
<polygon fill="white" stroke="#bfbfbf" points="642,-402.5 642,-421.5 802,-421.5 802,-402.5 642,-402.5"/>
<text text-anchor="middle" x="722" y="-409.5" font-family="Helvetica,sans-Serif" font-size="10.00">std::unique_ptr&lt; BaseScenario &gt;</text>
</g>
<!-- Node9&#45;&gt;Node1 -->
<g id="edge14" class="edge"><title>Node9&#45;&gt;Node1</title>
<path fill="none" stroke="#9a32cd" stroke-dasharray="5,2" d="M669.808,-423.534C598.158,-437.19 465.176,-453.363 362,-413 329.802,-400.404 299.978,-371.303 285.748,-355.929"/>
<polygon fill="#9a32cd" stroke="#9a32cd" points="670.787,-426.909 679.923,-421.545 669.436,-420.04 670.787,-426.909"/>
<text text-anchor="middle" x="513" y="-442" font-family="Helvetica,sans-Serif" font-size="10.00"> m_scenario</text>
</g>
<!-- Node10&#45;&gt;Node9 -->
<g id="edge15" class="edge"><title>Node10&#45;&gt;Node9</title>
<path fill="none" stroke="#9a32cd" stroke-dasharray="5,2" d="M562.081,-404.323C585.731,-405.465 614.857,-406.872 641.685,-408.168"/>
<polygon fill="#9a32cd" stroke="#9a32cd" points="562.124,-400.821 551.967,-403.834 561.786,-407.813 562.124,-400.821"/>
<text text-anchor="middle" x="602" y="-411" font-family="Helvetica,sans-Serif" font-size="10.00"> ptr</text>
</g>
<!-- Node11&#45;&gt;Node1 -->
<g id="edge17" class="edge"><title>Node11&#45;&gt;Node1</title>
<path fill="none" stroke="#9a32cd" stroke-dasharray="5,2" d="M648.222,-268.114C574.574,-270.024 458.166,-278.001 362,-307 337.439,-314.406 310.818,-327.526 294.034,-336.486"/>
<polygon fill="#9a32cd" stroke="#9a32cd" points="648.406,-271.611 658.323,-267.884 648.246,-264.613 648.406,-271.611"/>
<text text-anchor="middle" x="513" y="-287" font-family="Helvetica,sans-Serif" font-size="10.00"> m_player</text>
</g>
<!-- Node12&#45;&gt;Node1 -->
<g id="edge19" class="edge"><title>Node12&#45;&gt;Node1</title>
<path fill="none" stroke="#9a32cd" stroke-dasharray="5,2" d="M492.654,-108.142C480.044,-117.968 462.854,-130.107 446,-138 410.946,-154.416 391.513,-135.955 362,-161 354.589,-167.289 297.141,-299.396 281.13,-336.427"/>
<polygon fill="#9a32cd" stroke="#9a32cd" points="494.971,-110.77 500.592,-101.789 490.597,-105.305 494.971,-110.77"/>
<text text-anchor="middle" x="404" y="-164" font-family="Helvetica,sans-Serif" font-size="10.00"> m_runningState</text>
</g>
<!-- Node13 -->
<g id="node13" class="node"><title>Node13</title>
<g id="a_node13"><a xlink:href="class_key_trigger.html" target="_top" xlink:title="KeyTrigger">
<polygon fill="white" stroke="red" points="244.5,-165.5 244.5,-184.5 307.5,-184.5 307.5,-165.5 244.5,-165.5"/>
<text text-anchor="middle" x="276" y="-172.5" font-family="Helvetica,sans-Serif" font-size="10.00">KeyTrigger</text>
</a>
</g>
</g>
<!-- Node13&#45;&gt;Node12 -->
<g id="edge22" class="edge"><title>Node13&#45;&gt;Node12</title>
<path fill="none" stroke="#9a32cd" stroke-dasharray="5,2" d="M289.083,-156.977C303.664,-137.019 330.221,-105.954 362,-93 394.195,-79.8771 433.603,-80.169 463.946,-83.4533"/>
<polygon fill="#9a32cd" stroke="#9a32cd" points="286.147,-155.068 283.252,-165.26 291.87,-159.098 286.147,-155.068"/>
<text text-anchor="middle" x="404" y="-96" font-family="Helvetica,sans-Serif" font-size="10.00"> m_pauseTrigger</text>
</g>
<!-- Node13&#45;&gt;Node15 -->
<g id="edge27" class="edge"><title>Node13&#45;&gt;Node15</title>
<path fill="none" stroke="#9a32cd" stroke-dasharray="5,2" d="M300.06,-190.455C317.09,-201.804 340.883,-217.526 362,-231 406.919,-259.66 418.104,-266.933 464,-294 474.048,-299.925 485.42,-306.335 494.572,-311.422"/>
<polygon fill="#9a32cd" stroke="#9a32cd" points="301.614,-187.284 291.354,-184.641 297.727,-193.105 301.614,-187.284"/>
<text text-anchor="middle" x="404" y="-286" font-family="Helvetica,sans-Serif" font-size="10.00"> m_continueTrigger</text>
</g>
<!-- Node14 -->
<g id="node14" class="node"><title>Node14</title>
<polygon fill="white" stroke="#bfbfbf" points="208,-0 208,-30 344,-30 344,-0 208,-0"/>
<text text-anchor="start" x="216" y="-18" font-family="Helvetica,sans-Serif" font-size="10.00">std::unique_ptr&lt; GamePlay</text>
<text text-anchor="middle" x="276" y="-7" font-family="Helvetica,sans-Serif" font-size="10.00">RunningInput &gt;</text>
</g>
<!-- Node14&#45;&gt;Node12 -->
<g id="edge23" class="edge"><title>Node14&#45;&gt;Node12</title>
<path fill="none" stroke="#9a32cd" stroke-dasharray="5,2" d="M354.347,-13.9371C384.055,-15.9981 417.619,-21.4462 446,-34 470.831,-44.9839 493.04,-68.734 504.268,-82.187"/>
<polygon fill="#9a32cd" stroke="#9a32cd" points="354.199,-10.4229 344.015,-13.3432 353.798,-17.4114 354.199,-10.4229"/>
<text text-anchor="middle" x="404" y="-37" font-family="Helvetica,sans-Serif" font-size="10.00"> m_input</text>
</g>
<!-- Node15&#45;&gt;Node1 -->
<g id="edge24" class="edge"><title>Node15&#45;&gt;Node1</title>
<path fill="none" stroke="#9a32cd" stroke-dasharray="5,2" d="M455.311,-327.031C408.729,-331.986 344.544,-338.814 307.241,-342.783"/>
<polygon fill="#9a32cd" stroke="#9a32cd" points="455.69,-330.51 465.263,-325.972 454.949,-323.55 455.69,-330.51"/>
<text text-anchor="middle" x="404" y="-340" font-family="Helvetica,sans-Serif" font-size="10.00"> m_pausedState</text>
</g>
</g>
</svg>
