<?xml version="1.0" encoding="UTF-8" standalone="no"?>
<!DOCTYPE svg PUBLIC "-//W3C//DTD SVG 1.1//EN"
 "http://www.w3.org/Graphics/SVG/1.1/DTD/svg11.dtd">
<!-- Generated by graphviz version 2.36.0 (20140111.2315)
 -->
<!-- Title: WorldObject Pages: 1 -->
<svg width="1138pt" height="381pt"
 viewBox="0.00 0.00 1138.00 381.00" xmlns="http://www.w3.org/2000/svg" xmlns:xlink="http://www.w3.org/1999/xlink">
<g id="graph0" class="graph" transform="scale(1 1) rotate(0) translate(4 377)">
<title>WorldObject</title>
<polygon fill="white" stroke="none" points="-4,4 -4,-377 1134,-377 1134,4 -4,4"/>
<!-- Node1 -->
<g id="node1" class="node"><title>Node1</title>
<polygon fill="#bfbfbf" stroke="black" points="632.5,-152.5 632.5,-171.5 703.5,-171.5 703.5,-152.5 632.5,-152.5"/>
<text text-anchor="middle" x="668" y="-159.5" font-family="Helvetica,sans-Serif" font-size="10.00">WorldObject</text>
</g>
<!-- Node12 -->
<g id="node12" class="node"><title>Node12</title>
<g id="a_node12"><a xlink:href="class_physics.html" target="_top" xlink:title="Physics">
<polygon fill="white" stroke="red" points="845,-302.5 845,-321.5 897,-321.5 897,-302.5 845,-302.5"/>
<text text-anchor="middle" x="871" y="-309.5" font-family="Helvetica,sans-Serif" font-size="10.00">Physics</text>
</a>
</g>
</g>
<!-- Node1&#45;&gt;Node12 -->
<g id="edge13" class="edge"><title>Node1&#45;&gt;Node12</title>
<path fill="none" stroke="#9a32cd" stroke-dasharray="5,2" d="M671.491,-181.885C676.128,-209.985 688.836,-260.803 722,-287 757.478,-315.024 812.847,-316.546 844.849,-314.616"/>
<polygon fill="#9a32cd" stroke="#9a32cd" points="674.91,-181.077 670.001,-171.688 667.984,-182.089 674.91,-181.077"/>
<text text-anchor="middle" x="756" y="-315" font-family="Helvetica,sans-Serif" font-size="10.00"> m_worldObject</text>
</g>
<!-- Node14 -->
<g id="node14" class="node"><title>Node14</title>
<g id="a_node14"><a xlink:href="class_collision_filter.html" target="_top" xlink:title="CollisionFilter">
<polygon fill="white" stroke="black" points="833.5,-170.5 833.5,-189.5 908.5,-189.5 908.5,-170.5 833.5,-170.5"/>
<text text-anchor="middle" x="871" y="-177.5" font-family="Helvetica,sans-Serif" font-size="10.00">CollisionFilter</text>
</a>
</g>
</g>
<!-- Node1&#45;&gt;Node14 -->
<g id="edge16" class="edge"><title>Node1&#45;&gt;Node14</title>
<path fill="none" stroke="#9a32cd" stroke-dasharray="5,2" d="M713.759,-166.008C749.693,-169.226 799.533,-173.689 833.179,-176.703"/>
<polygon fill="#9a32cd" stroke="#9a32cd" points="713.825,-162.5 703.553,-165.094 713.201,-169.472 713.825,-162.5"/>
<text text-anchor="middle" x="756" y="-176" font-family="Helvetica,sans-Serif" font-size="10.00"> m_owner</text>
</g>
<!-- Node16 -->
<g id="node16" class="node"><title>Node16</title>
<g id="a_node16"><a xlink:href="class_collision_detector.html" target="_top" xlink:title="CollisionDetector">
<polygon fill="white" stroke="red" points="826,-132.5 826,-151.5 916,-151.5 916,-132.5 826,-132.5"/>
<text text-anchor="middle" x="871" y="-139.5" font-family="Helvetica,sans-Serif" font-size="10.00">CollisionDetector</text>
</a>
</g>
</g>
<!-- Node1&#45;&gt;Node16 -->
<g id="edge19" class="edge"><title>Node1&#45;&gt;Node16</title>
<path fill="none" stroke="#9a32cd" stroke-dasharray="5,2" d="M713.76,-153.167C716.543,-152.738 719.306,-152.344 722,-152 756.742,-147.565 796.34,-145.02 825.83,-143.608"/>
<polygon fill="#9a32cd" stroke="#9a32cd" points="712.977,-149.749 703.687,-154.843 714.126,-156.654 712.977,-149.749"/>
<text text-anchor="middle" x="756" y="-155" font-family="Helvetica,sans-Serif" font-size="10.00"> m_worldObject</text>
</g>
<!-- Node18 -->
<g id="node18" class="node"><title>Node18</title>
<g id="a_node18"><a xlink:href="class_world_object_components.html" target="_top" xlink:title="WorldObjectComponents">
<polygon fill="white" stroke="red" points="808.5,-0.5 808.5,-19.5 933.5,-19.5 933.5,-0.5 808.5,-0.5"/>
<text text-anchor="middle" x="871" y="-7.5" font-family="Helvetica,sans-Serif" font-size="10.00">WorldObjectComponents</text>
</a>
</g>
</g>
<!-- Node1&#45;&gt;Node18 -->
<g id="edge22" class="edge"><title>Node1&#45;&gt;Node18</title>
<path fill="none" stroke="#9a32cd" stroke-dasharray="5,2" d="M670.976,-141.889C675.012,-112.5 687.023,-58.3506 722,-31 746.123,-12.1363 779.453,-6.20082 808.376,-5.28323"/>
<polygon fill="#9a32cd" stroke="#9a32cd" points="667.46,-141.82 669.755,-152.163 674.411,-142.646 667.46,-141.82"/>
<text text-anchor="middle" x="756" y="-34" font-family="Helvetica,sans-Serif" font-size="10.00"> m_worldObject</text>
</g>
<!-- Node2 -->
<g id="node2" class="node"><title>Node2</title>
<g id="a_node2"><a xlink:href="class_voxel_cluster.html" target="_top" xlink:title="VoxelCluster">
<polygon fill="white" stroke="black" points="430,-250.5 430,-269.5 502,-269.5 502,-250.5 430,-250.5"/>
<text text-anchor="middle" x="466" y="-257.5" font-family="Helvetica,sans-Serif" font-size="10.00">VoxelCluster</text>
</a>
</g>
</g>
<!-- Node2&#45;&gt;Node1 -->
<g id="edge1" class="edge"><title>Node2&#45;&gt;Node1</title>
<path fill="none" stroke="midnightblue" d="M498.714,-246.23C528.73,-232.987 574.892,-212.071 614,-192 626.605,-185.531 640.535,-177.614 650.95,-171.538"/>
<polygon fill="midnightblue" stroke="midnightblue" points="496.934,-243.189 489.186,-250.415 499.75,-249.598 496.934,-243.189"/>
</g>
<!-- Node3 -->
<g id="node3" class="node"><title>Node3</title>
<polygon fill="white" stroke="#bfbfbf" points="122,-245 122,-275 268,-275 268,-245 122,-245"/>
<text text-anchor="start" x="130" y="-263" font-family="Helvetica,sans-Serif" font-size="10.00">std::unique_ptr&lt; VoxelRender</text>
<text text-anchor="middle" x="195" y="-252" font-family="Helvetica,sans-Serif" font-size="10.00">Data &gt;</text>
</g>
<!-- Node3&#45;&gt;Node2 -->
<g id="edge2" class="edge"><title>Node3&#45;&gt;Node2</title>
<path fill="none" stroke="#9a32cd" stroke-dasharray="5,2" d="M278.388,-260C329.088,-260 391.476,-260 429.729,-260"/>
<polygon fill="#9a32cd" stroke="#9a32cd" points="278.087,-256.5 268.087,-260 278.087,-263.5 278.087,-256.5"/>
<text text-anchor="middle" x="331" y="-263" font-family="Helvetica,sans-Serif" font-size="10.00"> m_voxelRenderData</text>
</g>
<!-- Node4 -->
<g id="node4" class="node"><title>Node4</title>
<g id="a_node4"><a xlink:href="class_transform.html" target="_top" xlink:title="Transform">
<polygon fill="white" stroke="black" points="165.5,-206.5 165.5,-225.5 224.5,-225.5 224.5,-206.5 165.5,-206.5"/>
<text text-anchor="middle" x="195" y="-213.5" font-family="Helvetica,sans-Serif" font-size="10.00">Transform</text>
</a>
</g>
</g>
<!-- Node4&#45;&gt;Node2 -->
<g id="edge3" class="edge"><title>Node4&#45;&gt;Node2</title>
<path fill="none" stroke="#9a32cd" stroke-dasharray="5,2" d="M234.892,-222.183C271.357,-227.999 327.392,-236.988 376,-245 393.78,-247.931 413.546,-251.255 429.925,-254.028"/>
<polygon fill="#9a32cd" stroke="#9a32cd" points="235.118,-218.675 224.691,-220.557 234.016,-225.587 235.118,-218.675"/>
<text text-anchor="middle" x="331" y="-248" font-family="Helvetica,sans-Serif" font-size="10.00"> m_transform</text>
</g>
<!-- Node5 -->
<g id="node5" class="node"><title>Node5</title>
<polygon fill="white" stroke="#bfbfbf" points="137,-343 137,-373 253,-373 253,-343 137,-343"/>
<text text-anchor="start" x="145" y="-361" font-family="Helvetica,sans-Serif" font-size="10.00">std::unordered_map</text>
<text text-anchor="middle" x="195" y="-350" font-family="Helvetica,sans-Serif" font-size="10.00">&lt; glm::ivec3, Voxel * &gt;</text>
</g>
<!-- Node5&#45;&gt;Node2 -->
<g id="edge4" class="edge"><title>Node5&#45;&gt;Node2</title>
<path fill="none" stroke="#9a32cd" stroke-dasharray="5,2" d="M263.283,-342.514C297.591,-333.725 339.639,-321.565 376,-307 402.764,-296.28 432,-279.854 449.403,-269.531"/>
<polygon fill="#9a32cd" stroke="#9a32cd" points="262.202,-339.176 253.363,-345.017 263.915,-345.964 262.202,-339.176"/>
<text text-anchor="middle" x="331" y="-338" font-family="Helvetica,sans-Serif" font-size="10.00"> m_voxels</text>
</g>
<!-- Node6 -->
<g id="node6" class="node"><title>Node6</title>
<g id="a_node6"><a xlink:href="class_voxel.html" target="_top" xlink:title="Voxel">
<polygon fill="white" stroke="red" points="0.5,-221.5 0.5,-240.5 41.5,-240.5 41.5,-221.5 0.5,-221.5"/>
<text text-anchor="middle" x="21" y="-228.5" font-family="Helvetica,sans-Serif" font-size="10.00">Voxel</text>
</a>
</g>
</g>
<!-- Node6&#45;&gt;Node1 -->
<g id="edge7" class="edge"><title>Node6&#45;&gt;Node1</title>
<path fill="none" stroke="#9a32cd" stroke-dasharray="5,2" d="M51.1857,-218.795C70.8372,-211.15 97.5351,-201.856 122,-197 171.812,-187.113 519.979,-169.26 632.216,-163.7"/>
<polygon fill="#9a32cd" stroke="#9a32cd" points="49.8716,-215.551 41.8736,-222.5 52.4591,-222.056 49.8716,-215.551"/>
<text text-anchor="middle" x="331" y="-186" font-family="Helvetica,sans-Serif" font-size="10.00"> m_crucialVoxel</text>
</g>
<!-- Node6&#45;&gt;Node5 -->
<g id="edge5" class="edge"><title>Node6&#45;&gt;Node5</title>
<path fill="none" stroke="#9a32cd" stroke-dasharray="5,2" d="M35.0137,-248.616C52.4843,-271.122 85.5679,-309.917 122,-333 127.924,-336.753 134.481,-340.024 141.155,-342.851"/>
<polygon fill="#9a32cd" stroke="#9a32cd" points="37.7493,-246.431 28.9105,-240.59 32.1772,-250.668 37.7493,-246.431"/>
<text text-anchor="middle" x="82" y="-322" font-family="Helvetica,sans-Serif" font-size="10.00"> elements</text>
</g>
<!-- Node7 -->
<g id="node7" class="node"><title>Node7</title>
<polygon fill="white" stroke="#bfbfbf" points="122,-294 122,-324 268,-324 268,-294 122,-294"/>
<text text-anchor="start" x="130" y="-312" font-family="Helvetica,sans-Serif" font-size="10.00">std::unique_ptr&lt; VoxelCluster</text>
<text text-anchor="middle" x="195" y="-301" font-family="Helvetica,sans-Serif" font-size="10.00">Bounds &gt;</text>
</g>
<!-- Node7&#45;&gt;Node2 -->
<g id="edge6" class="edge"><title>Node7&#45;&gt;Node2</title>
<path fill="none" stroke="#9a32cd" stroke-dasharray="5,2" d="M278.07,-294.05C328.828,-284.805 391.396,-273.407 429.729,-266.425"/>
<polygon fill="#9a32cd" stroke="#9a32cd" points="277.298,-290.633 268.087,-295.869 278.552,-297.52 277.298,-290.633"/>
<text text-anchor="middle" x="331" y="-295" font-family="Helvetica,sans-Serif" font-size="10.00"> m_bounds</text>
</g>
<!-- Node8 -->
<g id="node8" class="node"><title>Node8</title>
<polygon fill="white" stroke="#bfbfbf" points="394.5,-130.5 394.5,-149.5 537.5,-149.5 537.5,-130.5 394.5,-130.5"/>
<text text-anchor="middle" x="466" y="-137.5" font-family="Helvetica,sans-Serif" font-size="10.00">std::unique_ptr&lt; ObjectInfo &gt;</text>
</g>
<!-- Node8&#45;&gt;Node1 -->
<g id="edge8" class="edge"><title>Node8&#45;&gt;Node1</title>
<path fill="none" stroke="#9a32cd" stroke-dasharray="5,2" d="M547.869,-145.982C569.398,-147.893 592.612,-150.243 614,-153 619.924,-153.764 626.199,-154.708 632.278,-155.695"/>
<polygon fill="#9a32cd" stroke="#9a32cd" points="548.047,-142.484 537.782,-145.106 547.442,-149.458 548.047,-142.484"/>
<text text-anchor="middle" x="585" y="-156" font-family="Helvetica,sans-Serif" font-size="10.00"> m_objectInfo</text>
</g>
<!-- Node9 -->
<g id="node9" class="node"><title>Node9</title>
<g id="a_node9"><a xlink:href="class_object_info.html" target="_top" xlink:title="ObjectInfo">
<polygon fill="white" stroke="red" points="165,-130.5 165,-149.5 225,-149.5 225,-130.5 165,-130.5"/>
<text text-anchor="middle" x="195" y="-137.5" font-family="Helvetica,sans-Serif" font-size="10.00">ObjectInfo</text>
</a>
</g>
</g>
<!-- Node9&#45;&gt;Node8 -->
<g id="edge9" class="edge"><title>Node9&#45;&gt;Node8</title>
<path fill="none" stroke="#9a32cd" stroke-dasharray="5,2" d="M235.06,-140C276.692,-140 343.487,-140 394.384,-140"/>
<polygon fill="#9a32cd" stroke="#9a32cd" points="235.043,-136.5 225.043,-140 235.043,-143.5 235.043,-136.5"/>
<text text-anchor="middle" x="331" y="-143" font-family="Helvetica,sans-Serif" font-size="10.00"> ptr</text>
</g>
<!-- Node10 -->
<g id="node10" class="node"><title>Node10</title>
<g id="a_node10"><a xlink:href="class_handle.html" target="_top" xlink:title="Handle\&lt; WorldObject \&gt;">
<polygon fill="white" stroke="black" points="406.5,-92.5 406.5,-111.5 525.5,-111.5 525.5,-92.5 406.5,-92.5"/>
<text text-anchor="middle" x="466" y="-99.5" font-family="Helvetica,sans-Serif" font-size="10.00">Handle&lt; WorldObject &gt;</text>
</a>
</g>
</g>
<!-- Node10&#45;&gt;Node1 -->
<g id="edge10" class="edge"><title>Node10&#45;&gt;Node1</title>
<path fill="none" stroke="#9a32cd" stroke-dasharray="5,2" d="M535.934,-111.462C560.998,-116.095 589.237,-122.73 614,-132 627.863,-137.19 642.414,-145.675 652.755,-152.3"/>
<polygon fill="#9a32cd" stroke="#9a32cd" points="536.23,-107.96 525.773,-109.66 535.008,-114.852 536.23,-107.96"/>
<text text-anchor="middle" x="585" y="-135" font-family="Helvetica,sans-Serif" font-size="10.00"> m_handle</text>
</g>
<!-- Node11 -->
<g id="node11" class="node"><title>Node11</title>
<polygon fill="white" stroke="#bfbfbf" points="991,-281.5 991,-300.5 1125,-300.5 1125,-281.5 991,-281.5"/>
<text text-anchor="middle" x="1058" y="-288.5" font-family="Helvetica,sans-Serif" font-size="10.00">std::unique_ptr&lt; Physics &gt;</text>
</g>
<!-- Node11&#45;&gt;Node1 -->
<g id="edge11" class="edge"><title>Node11&#45;&gt;Node1</title>
<path fill="none" stroke="#9a32cd" stroke-dasharray="5,2" d="M980.707,-283.953C910.139,-274.92 804.079,-254.812 722,-211 703.428,-201.086 686.406,-183.082 676.899,-171.875"/>
<polygon fill="#9a32cd" stroke="#9a32cd" points="980.501,-287.454 990.854,-285.207 981.359,-280.507 980.501,-287.454"/>
<text text-anchor="middle" x="871" y="-280" font-family="Helvetica,sans-Serif" font-size="10.00"> m_physics</text>
</g>
<!-- Node12&#45;&gt;Node11 -->
<g id="edge12" class="edge"><title>Node12&#45;&gt;Node11</title>
<path fill="none" stroke="#9a32cd" stroke-dasharray="5,2" d="M907.526,-307.967C931.024,-305.3 962.558,-301.72 990.605,-298.537"/>
<polygon fill="#9a32cd" stroke="#9a32cd" points="906.877,-304.518 897.336,-309.124 907.667,-311.474 906.877,-304.518"/>
<text text-anchor="middle" x="960" y="-306" font-family="Helvetica,sans-Serif" font-size="10.00"> ptr</text>
</g>
<!-- Node13 -->
<g id="node13" class="node"><title>Node13</title>
<polygon fill="white" stroke="#bfbfbf" points="994.5,-178 994.5,-208 1121.5,-208 1121.5,-178 994.5,-178"/>
<text text-anchor="start" x="1002.5" y="-196" font-family="Helvetica,sans-Serif" font-size="10.00">std::unique_ptr&lt; Collision</text>
<text text-anchor="middle" x="1058" y="-185" font-family="Helvetica,sans-Serif" font-size="10.00">Filter &gt;</text>
</g>
<!-- Node13&#45;&gt;Node1 -->
<g id="edge14" class="edge"><title>Node13&#45;&gt;Node1</title>
<path fill="none" stroke="#9a32cd" stroke-dasharray="5,2" d="M983.956,-200.984C978.561,-201.39 973.198,-201.738 968,-202 858.629,-207.516 826.886,-219.487 722,-188 709.043,-184.11 695.357,-177.319 685.138,-171.653"/>
<polygon fill="#9a32cd" stroke="#9a32cd" points="984.654,-204.438 994.336,-200.137 984.084,-197.462 984.654,-204.438"/>
<text text-anchor="middle" x="871" y="-212" font-family="Helvetica,sans-Serif" font-size="10.00"> m_collisionFilter</text>
</g>
<!-- Node14&#45;&gt;Node13 -->
<g id="edge15" class="edge"><title>Node14&#45;&gt;Node13</title>
<path fill="none" stroke="#9a32cd" stroke-dasharray="5,2" d="M918.696,-183.281C941.61,-184.892 969.541,-186.854 994.287,-188.593"/>
<polygon fill="#9a32cd" stroke="#9a32cd" points="918.771,-179.778 908.55,-182.568 918.28,-186.761 918.771,-179.778"/>
<text text-anchor="middle" x="960" y="-190" font-family="Helvetica,sans-Serif" font-size="10.00"> ptr</text>
</g>
<!-- Node15 -->
<g id="node15" class="node"><title>Node15</title>
<polygon fill="white" stroke="#bfbfbf" points="994.5,-114 994.5,-144 1121.5,-144 1121.5,-114 994.5,-114"/>
<text text-anchor="start" x="1002.5" y="-132" font-family="Helvetica,sans-Serif" font-size="10.00">std::unique_ptr&lt; Collision</text>
<text text-anchor="middle" x="1058" y="-121" font-family="Helvetica,sans-Serif" font-size="10.00">Detector &gt;</text>
</g>
<!-- Node15&#45;&gt;Node1 -->
<g id="edge17" class="edge"><title>Node15&#45;&gt;Node1</title>
<path fill="none" stroke="#9a32cd" stroke-dasharray="5,2" d="M984.376,-115.089C934.469,-107.713 866.852,-102.03 808,-112 763.75,-119.496 715.044,-140.109 688.651,-152.402"/>
<polygon fill="#9a32cd" stroke="#9a32cd" points="984.015,-118.575 994.43,-116.633 985.077,-111.656 984.015,-118.575"/>
<text text-anchor="middle" x="871" y="-115" font-family="Helvetica,sans-Serif" font-size="10.00"> m_collisionDetector</text>
</g>
<!-- Node16&#45;&gt;Node15 -->
<g id="edge18" class="edge"><title>Node16&#45;&gt;Node15</title>
<path fill="none" stroke="#9a32cd" stroke-dasharray="5,2" d="M926.454,-138.174C947.695,-136.681 972.177,-134.961 994.16,-133.416"/>
<polygon fill="#9a32cd" stroke="#9a32cd" points="926.042,-134.694 916.312,-138.886 926.533,-141.677 926.042,-134.694"/>
<text text-anchor="middle" x="960" y="-140" font-family="Helvetica,sans-Serif" font-size="10.00"> ptr</text>
</g>
<!-- Node17 -->
<g id="node17" class="node"><title>Node17</title>
<polygon fill="white" stroke="#bfbfbf" points="986,-23 986,-53 1130,-53 1130,-23 986,-23"/>
<text text-anchor="start" x="994" y="-41" font-family="Helvetica,sans-Serif" font-size="10.00">std::unique_ptr&lt; WorldObject</text>
<text text-anchor="middle" x="1058" y="-30" font-family="Helvetica,sans-Serif" font-size="10.00">Components &gt;</text>
</g>
<!-- Node17&#45;&gt;Node1 -->
<g id="edge20" class="edge"><title>Node17&#45;&gt;Node1</title>
<path fill="none" stroke="#9a32cd" stroke-dasharray="5,2" d="M975.605,-43.8512C904.978,-51.7283 801.822,-70.1311 722,-113 703.453,-122.961 686.424,-140.951 676.908,-152.142"/>
<polygon fill="#9a32cd" stroke="#9a32cd" points="976.211,-47.3065 985.783,-42.7638 975.468,-40.3461 976.211,-47.3065"/>
<text text-anchor="middle" x="871" y="-81" font-family="Helvetica,sans-Serif" font-size="10.00"> m_components</text>
</g>
<!-- Node18&#45;&gt;Node17 -->
<g id="edge21" class="edge"><title>Node18&#45;&gt;Node17</title>
<path fill="none" stroke="#9a32cd" stroke-dasharray="5,2" d="M943.55,-20.8292C957.398,-22.925 971.907,-25.121 985.745,-27.2155"/>
<polygon fill="#9a32cd" stroke="#9a32cd" points="944.014,-17.3596 933.602,-19.3236 942.966,-24.2807 944.014,-17.3596"/>
<text text-anchor="middle" x="960" y="-27" font-family="Helvetica,sans-Serif" font-size="10.00"> ptr</text>
</g>
</g>
</svg>
