<?xml version="1.0" encoding="UTF-8" standalone="no"?>
<!DOCTYPE svg PUBLIC "-//W3C//DTD SVG 1.1//EN"
 "http://www.w3.org/Graphics/SVG/1.1/DTD/svg11.dtd">
<!-- Generated by graphviz version 2.36.0 (20140111.2315)
 -->
<!-- Title: ObjectHudget Pages: 1 -->
<svg width="804pt" height="160pt"
 viewBox="0.00 0.00 804.00 160.00" xmlns="http://www.w3.org/2000/svg" xmlns:xlink="http://www.w3.org/1999/xlink">
<g id="graph0" class="graph" transform="scale(1 1) rotate(0) translate(4 156)">
<title>ObjectHudget</title>
<polygon fill="white" stroke="none" points="-4,4 -4,-156 800,-156 800,4 -4,4"/>
<!-- Node1 -->
<g id="node1" class="node"><title>Node1</title>
<polygon fill="#bfbfbf" stroke="black" points="330,-69.5 330,-88.5 406,-88.5 406,-69.5 330,-69.5"/>
<text text-anchor="middle" x="368" y="-76.5" font-family="Helvetica,sans-Serif" font-size="10.00">ObjectHudget</text>
</g>
<!-- Node6 -->
<g id="node6" class="node"><title>Node6</title>
<g id="a_node6"><a xlink:href="class_arrow_hudget_voxels.html" target="_top" xlink:title="ArrowHudgetVoxels">
<polygon fill="white" stroke="red" points="490,-132.5 490,-151.5 592,-151.5 592,-132.5 490,-132.5"/>
<text text-anchor="middle" x="541" y="-139.5" font-family="Helvetica,sans-Serif" font-size="10.00">ArrowHudgetVoxels</text>
</a>
</g>
</g>
<!-- Node1&#45;&gt;Node6 -->
<g id="edge7" class="edge"><title>Node1&#45;&gt;Node6</title>
<path fill="none" stroke="#9a32cd" stroke-dasharray="5,2" d="M388.088,-94.9696C398.194,-102.678 411.148,-111.438 424,-117 444.703,-125.96 468.918,-131.828 489.853,-135.611"/>
<polygon fill="#9a32cd" stroke="#9a32cd" points="390.026,-92.0399 380.014,-88.5733 385.679,-97.5266 390.026,-92.0399"/>
<text text-anchor="middle" x="447" y="-133" font-family="Helvetica,sans-Serif" font-size="10.00"> m_hudget</text>
</g>
<!-- Node8 -->
<g id="node8" class="node"><title>Node8</title>
<g id="a_node8"><a xlink:href="class_object_hudget_voxels.html" target="_top" xlink:title="ObjectHudgetVoxels">
<polygon fill="white" stroke="red" points="488,-0.5 488,-19.5 594,-19.5 594,-0.5 488,-0.5"/>
<text text-anchor="middle" x="541" y="-7.5" font-family="Helvetica,sans-Serif" font-size="10.00">ObjectHudgetVoxels</text>
</a>
</g>
</g>
<!-- Node1&#45;&gt;Node8 -->
<g id="edge10" class="edge"><title>Node1&#45;&gt;Node8</title>
<path fill="none" stroke="#9a32cd" stroke-dasharray="5,2" d="M384.169,-61.6722C394.371,-51.1436 408.71,-38.3543 424,-31 443.735,-21.5079 467.237,-16.282 487.911,-13.4142"/>
<polygon fill="#9a32cd" stroke="#9a32cd" points="381.462,-59.4437 377.227,-69.1554 386.594,-64.2044 381.462,-59.4437"/>
<text text-anchor="middle" x="447" y="-34" font-family="Helvetica,sans-Serif" font-size="10.00"> m_hudget</text>
</g>
<!-- Node2 -->
<g id="node2" class="node"><title>Node2</title>
<g id="a_node2"><a xlink:href="class_hudget.html" target="_top" xlink:title="Hudget">
<polygon fill="white" stroke="black" points="136.5,-88.5 136.5,-107.5 183.5,-107.5 183.5,-88.5 136.5,-88.5"/>
<text text-anchor="middle" x="160" y="-95.5" font-family="Helvetica,sans-Serif" font-size="10.00">Hudget</text>
</a>
</g>
</g>
<!-- Node2&#45;&gt;Node1 -->
<g id="edge1" class="edge"><title>Node2&#45;&gt;Node1</title>
<path fill="none" stroke="midnightblue" d="M194.102,-94.9469C231.18,-91.5271 291.136,-85.9972 329.805,-82.4306"/>
<polygon fill="midnightblue" stroke="midnightblue" points="193.469,-91.4903 183.833,-95.8941 194.112,-98.4608 193.469,-91.4903"/>
</g>
<!-- Node3 -->
<g id="node3" class="node"><title>Node3</title>
<g id="a_node3"><a xlink:href="class_h_u_d.html" target="_top" xlink:title="HUD">
<polygon fill="white" stroke="red" points="0.5,-69.5 0.5,-88.5 37.5,-88.5 37.5,-69.5 0.5,-69.5"/>
<text text-anchor="middle" x="19" y="-76.5" font-family="Helvetica,sans-Serif" font-size="10.00">HUD</text>
</a>
</g>
</g>
<!-- Node3&#45;&gt;Node2 -->
<g id="edge2" class="edge"><title>Node3&#45;&gt;Node2</title>
<path fill="none" stroke="#9a32cd" stroke-dasharray="5,2" d="M47.5886,-82.7711C73.6419,-86.3323 112.237,-91.6079 136.484,-94.9222"/>
<polygon fill="#9a32cd" stroke="#9a32cd" points="47.9864,-79.293 37.6044,-81.4064 47.0383,-86.2285 47.9864,-79.293"/>
<text text-anchor="middle" x="73" y="-91" font-family="Helvetica,sans-Serif" font-size="10.00"> m_hud</text>
</g>
<!-- Node4 -->
<g id="node4" class="node"><title>Node4</title>
<g id="a_node4"><a xlink:href="class_h_u_d_object_delegate.html" target="_top" xlink:title="HUDObjectDelegate">
<polygon fill="white" stroke="red" points="108,-50.5 108,-69.5 212,-69.5 212,-50.5 108,-50.5"/>
<text text-anchor="middle" x="160" y="-57.5" font-family="Helvetica,sans-Serif" font-size="10.00">HUDObjectDelegate</text>
</a>
</g>
</g>
<!-- Node3&#45;&gt;Node4 -->
<g id="edge4" class="edge"><title>Node3&#45;&gt;Node4</title>
<path fill="none" stroke="#9a32cd" stroke-dasharray="5,2" d="M47.674,-70.7642C50.4706,-70.0972 53.2813,-69.4921 56,-69 72.78,-65.963 91.2902,-63.9406 107.936,-62.5981"/>
<polygon fill="#9a32cd" stroke="#9a32cd" points="46.5777,-67.4334 37.7951,-73.3593 48.3562,-74.2037 46.5777,-67.4334"/>
<text text-anchor="middle" x="73" y="-72" font-family="Helvetica,sans-Serif" font-size="10.00"> m_hud</text>
</g>
<!-- Node4&#45;&gt;Node1 -->
<g id="edge3" class="edge"><title>Node4&#45;&gt;Node1</title>
<path fill="none" stroke="#9a32cd" stroke-dasharray="5,2" d="M222.413,-61.9839C249.888,-63.3025 282.637,-65.4686 312,-69 317.781,-69.6953 323.874,-70.614 329.814,-71.6132"/>
<polygon fill="#9a32cd" stroke="#9a32cd" points="222.308,-58.4757 212.16,-61.519 221.991,-65.4685 222.308,-58.4757"/>
<text text-anchor="middle" x="271" y="-72" font-family="Helvetica,sans-Serif" font-size="10.00"> m_objectDelegate</text>
</g>
<!-- Node5 -->
<g id="node5" class="node"><title>Node5</title>
<polygon fill="white" stroke="#bfbfbf" points="648,-97 648,-127 794,-127 794,-97 648,-97"/>
<text text-anchor="start" x="656" y="-115" font-family="Helvetica,sans-Serif" font-size="10.00">std::unique_ptr&lt; ArrowHudget</text>
<text text-anchor="middle" x="721" y="-104" font-family="Helvetica,sans-Serif" font-size="10.00">Voxels &gt;</text>
</g>
<!-- Node5&#45;&gt;Node1 -->
<g id="edge5" class="edge"><title>Node5&#45;&gt;Node1</title>
<path fill="none" stroke="#9a32cd" stroke-dasharray="5,2" d="M637.842,-104.276C564.681,-97.3974 460.996,-87.6492 406.231,-82.5003"/>
<polygon fill="#9a32cd" stroke="#9a32cd" points="637.671,-107.775 647.955,-105.227 638.326,-100.806 637.671,-107.775"/>
<text text-anchor="middle" x="541" y="-102" font-family="Helvetica,sans-Serif" font-size="10.00"> m_arrowVoxels</text>
</g>
<!-- Node6&#45;&gt;Node5 -->
<g id="edge6" class="edge"><title>Node6&#45;&gt;Node5</title>
<path fill="none" stroke="#9a32cd" stroke-dasharray="5,2" d="M602.008,-131.886C616.688,-129.412 632.55,-126.739 647.737,-124.179"/>
<polygon fill="#9a32cd" stroke="#9a32cd" points="601.336,-128.45 592.057,-133.563 602.499,-135.353 601.336,-128.45"/>
<text text-anchor="middle" x="620" y="-132" font-family="Helvetica,sans-Serif" font-size="10.00"> ptr</text>
</g>
<!-- Node7 -->
<g id="node7" class="node"><title>Node7</title>
<polygon fill="white" stroke="#bfbfbf" points="646.5,-31 646.5,-61 795.5,-61 795.5,-31 646.5,-31"/>
<text text-anchor="start" x="654.5" y="-49" font-family="Helvetica,sans-Serif" font-size="10.00">std::unique_ptr&lt; ObjectHudget</text>
<text text-anchor="middle" x="721" y="-38" font-family="Helvetica,sans-Serif" font-size="10.00">Voxels &gt;</text>
</g>
<!-- Node7&#45;&gt;Node1 -->
<g id="edge8" class="edge"><title>Node7&#45;&gt;Node1</title>
<path fill="none" stroke="#9a32cd" stroke-dasharray="5,2" d="M636.148,-53.8835C563.089,-60.7523 460.575,-70.3904 406.231,-75.4997"/>
<polygon fill="#9a32cd" stroke="#9a32cd" points="636.625,-57.3542 646.254,-52.9334 635.97,-50.3849 636.625,-57.3542"/>
<text text-anchor="middle" x="541" y="-70" font-family="Helvetica,sans-Serif" font-size="10.00"> m_objectVoxels</text>
</g>
<!-- Node8&#45;&gt;Node7 -->
<g id="edge9" class="edge"><title>Node8&#45;&gt;Node7</title>
<path fill="none" stroke="#9a32cd" stroke-dasharray="5,2" d="M599.352,-21.5992C614.319,-24.6264 630.661,-27.9313 646.346,-31.1037"/>
<polygon fill="#9a32cd" stroke="#9a32cd" points="599.729,-18.1047 589.233,-19.5528 598.341,-24.9658 599.729,-18.1047"/>
<text text-anchor="middle" x="620" y="-30" font-family="Helvetica,sans-Serif" font-size="10.00"> ptr</text>
</g>
</g>
</svg>
