<?xml version="1.0" encoding="UTF-8" standalone="no"?>
<!DOCTYPE svg PUBLIC "-//W3C//DTD SVG 1.1//EN"
 "http://www.w3.org/Graphics/SVG/1.1/DTD/svg11.dtd">
<!-- Generated by graphviz version 2.36.0 (20140111.2315)
 -->
<!-- Title: VoxelCluster Pages: 1 -->
<svg width="1126pt" height="105pt"
 viewBox="0.00 0.00 1126.00 105.00" xmlns="http://www.w3.org/2000/svg" xmlns:xlink="http://www.w3.org/1999/xlink">
<g id="graph0" class="graph" transform="scale(1 1) rotate(0) translate(4 101)">
<title>VoxelCluster</title>
<polygon fill="white" stroke="none" points="-4,4 -4,-101 1122,-101 1122,4 -4,4"/>
<!-- Node1 -->
<g id="node1" class="node"><title>Node1</title>
<polygon fill="#bfbfbf" stroke="black" points="636,-44.5 636,-63.5 708,-63.5 708,-44.5 636,-44.5"/>
<text text-anchor="middle" x="672" y="-51.5" font-family="Helvetica,sans-Serif" font-size="10.00">VoxelCluster</text>
</g>
<!-- Node7 -->
<g id="node7" class="node"><title>Node7</title>
<g id="a_node7"><a xlink:href="class_voxel_cluster_bounds.html" target="_top" xlink:title="VoxelClusterBounds">
<polygon fill="white" stroke="red" points="814.5,-67.5 814.5,-86.5 919.5,-86.5 919.5,-67.5 814.5,-67.5"/>
<text text-anchor="middle" x="867" y="-74.5" font-family="Helvetica,sans-Serif" font-size="10.00">VoxelClusterBounds</text>
</a>
</g>
</g>
<!-- Node1&#45;&gt;Node7 -->
<g id="edge8" class="edge"><title>Node1&#45;&gt;Node7</title>
<path fill="none" stroke="#9a32cd" stroke-dasharray="5,2" d="M718.589,-59.4329C747.366,-62.8623 784.608,-67.3004 814.458,-70.8577"/>
<polygon fill="#9a32cd" stroke="#9a32cd" points="718.743,-55.9266 708.399,-58.2186 717.915,-62.8774 718.743,-55.9266"/>
<text text-anchor="middle" x="761" y="-72" font-family="Helvetica,sans-Serif" font-size="10.00"> m_voxelCluster</text>
</g>
<!-- Node2 -->
<g id="node2" class="node"><title>Node2</title>
<polygon fill="white" stroke="#bfbfbf" points="364,-39 364,-69 510,-69 510,-39 364,-39"/>
<text text-anchor="start" x="372" y="-57" font-family="Helvetica,sans-Serif" font-size="10.00">std::unique_ptr&lt; VoxelRender</text>
<text text-anchor="middle" x="437" y="-46" font-family="Helvetica,sans-Serif" font-size="10.00">Data &gt;</text>
</g>
<!-- Node2&#45;&gt;Node1 -->
<g id="edge1" class="edge"><title>Node2&#45;&gt;Node1</title>
<path fill="none" stroke="#9a32cd" stroke-dasharray="5,2" d="M520.336,-54C559.984,-54 605.424,-54 635.943,-54"/>
<polygon fill="#9a32cd" stroke="#9a32cd" points="520.127,-50.5001 510.127,-54 520.127,-57.5001 520.127,-50.5001"/>
<text text-anchor="middle" x="573" y="-57" font-family="Helvetica,sans-Serif" font-size="10.00"> m_voxelRenderData</text>
</g>
<!-- Node3 -->
<g id="node3" class="node"><title>Node3</title>
<g id="a_node3"><a xlink:href="class_voxel_render_data.html" target="_top" xlink:title="VoxelRenderData">
<polygon fill="white" stroke="red" points="192,-49.5 192,-68.5 284,-68.5 284,-49.5 192,-49.5"/>
<text text-anchor="middle" x="238" y="-56.5" font-family="Helvetica,sans-Serif" font-size="10.00">VoxelRenderData</text>
</a>
</g>
</g>
<!-- Node3&#45;&gt;Node2 -->
<g id="edge2" class="edge"><title>Node3&#45;&gt;Node2</title>
<path fill="none" stroke="#9a32cd" stroke-dasharray="5,2" d="M294.193,-57.5992C315.833,-57.0499 340.956,-56.4123 363.99,-55.8277"/>
<polygon fill="#9a32cd" stroke="#9a32cd" points="294.104,-54.1002 284.196,-57.8529 294.281,-61.0979 294.104,-54.1002"/>
<text text-anchor="middle" x="324" y="-61" font-family="Helvetica,sans-Serif" font-size="10.00"> ptr</text>
</g>
<!-- Node4 -->
<g id="node4" class="node"><title>Node4</title>
<polygon fill="white" stroke="#bfbfbf" points="0,-67 0,-97 116,-97 116,-67 0,-67"/>
<text text-anchor="start" x="8" y="-85" font-family="Helvetica,sans-Serif" font-size="10.00">std::unordered_map</text>
<text text-anchor="middle" x="58" y="-74" font-family="Helvetica,sans-Serif" font-size="10.00">&lt; glm::ivec3, Voxel * &gt;</text>
</g>
<!-- Node4&#45;&gt;Node1 -->
<g id="edge5" class="edge"><title>Node4&#45;&gt;Node1</title>
<path fill="none" stroke="#9a32cd" stroke-dasharray="5,2" d="M126.359,-83.882C128.939,-83.9269 131.493,-83.9666 134,-84 151.776,-84.237 156.223,-84.1587 174,-84 323.351,-82.6666 360.833,-85.5391 510,-78 558.105,-75.5687 570.607,-77.5983 618,-69 625.621,-67.6173 633.726,-65.6079 641.245,-63.5068"/>
<polygon fill="#9a32cd" stroke="#9a32cd" points="126.391,-80.3821 116.325,-83.6859 126.254,-87.3807 126.391,-80.3821"/>
<text text-anchor="middle" x="324" y="-87" font-family="Helvetica,sans-Serif" font-size="10.00"> m_voxels</text>
</g>
<!-- Node4&#45;&gt;Node3 -->
<g id="edge3" class="edge"><title>Node4&#45;&gt;Node3</title>
<path fill="none" stroke="#9a32cd" stroke-dasharray="5,2" d="M126.233,-73.3126C148.186,-70.476 172.021,-67.3962 191.938,-64.8227"/>
<polygon fill="#9a32cd" stroke="#9a32cd" points="125.769,-69.8433 116.3,-74.5961 126.666,-76.7856 125.769,-69.8433"/>
<text text-anchor="middle" x="154" y="-75" font-family="Helvetica,sans-Serif" font-size="10.00"> m_voxel</text>
</g>
<!-- Node5 -->
<g id="node5" class="node"><title>Node5</title>
<g id="a_node5"><a xlink:href="class_transform.html" target="_top" xlink:title="Transform">
<polygon fill="white" stroke="black" points="407.5,-0.5 407.5,-19.5 466.5,-19.5 466.5,-0.5 407.5,-0.5"/>
<text text-anchor="middle" x="437" y="-7.5" font-family="Helvetica,sans-Serif" font-size="10.00">Transform</text>
</a>
</g>
</g>
<!-- Node5&#45;&gt;Node1 -->
<g id="edge4" class="edge"><title>Node5&#45;&gt;Node1</title>
<path fill="none" stroke="#9a32cd" stroke-dasharray="5,2" d="M476.805,-14.9257C513.427,-19.8865 569.759,-28.3252 618,-39 625.003,-40.5496 632.451,-42.4786 639.483,-44.4319"/>
<polygon fill="#9a32cd" stroke="#9a32cd" points="476.938,-11.4125 466.563,-13.5594 476.013,-18.351 476.938,-11.4125"/>
<text text-anchor="middle" x="573" y="-42" font-family="Helvetica,sans-Serif" font-size="10.00"> m_transform</text>
</g>
<!-- Node6 -->
<g id="node6" class="node"><title>Node6</title>
<polygon fill="white" stroke="#bfbfbf" points="972,-41 972,-71 1118,-71 1118,-41 972,-41"/>
<text text-anchor="start" x="980" y="-59" font-family="Helvetica,sans-Serif" font-size="10.00">std::unique_ptr&lt; VoxelCluster</text>
<text text-anchor="middle" x="1045" y="-48" font-family="Helvetica,sans-Serif" font-size="10.00">Bounds &gt;</text>
</g>
<!-- Node6&#45;&gt;Node1 -->
<g id="edge6" class="edge"><title>Node6&#45;&gt;Node1</title>
<path fill="none" stroke="#9a32cd" stroke-dasharray="5,2" d="M961.848,-49.1964C947.893,-48.2818 933.539,-47.4907 920,-47 844.547,-44.2654 756.096,-48.5995 708.182,-51.5753"/>
<polygon fill="#9a32cd" stroke="#9a32cd" points="961.707,-52.6949 971.922,-49.8818 962.183,-45.711 961.707,-52.6949"/>
<text text-anchor="middle" x="867" y="-50" font-family="Helvetica,sans-Serif" font-size="10.00"> m_bounds</text>
</g>
<!-- Node7&#45;&gt;Node6 -->
<g id="edge7" class="edge"><title>Node7&#45;&gt;Node6</title>
<path fill="none" stroke="#9a32cd" stroke-dasharray="5,2" d="M930.026,-69.5991C943.591,-67.9806 958.06,-66.2542 971.978,-64.5936"/>
<polygon fill="#9a32cd" stroke="#9a32cd" points="929.369,-66.1527 919.854,-70.8129 930.198,-73.1034 929.369,-66.1527"/>
<text text-anchor="middle" x="946" y="-72" font-family="Helvetica,sans-Serif" font-size="10.00"> ptr</text>
</g>
</g>
</svg>
