<?xml version="1.0" encoding="UTF-8" standalone="no"?>
<!DOCTYPE svg PUBLIC "-//W3C//DTD SVG 1.1//EN"
 "http://www.w3.org/Graphics/SVG/1.1/DTD/svg11.dtd">
<!-- Generated by graphviz version 2.36.0 (20140111.2315)
 -->
<!-- Title: Aimer Pages: 1 -->
<svg width="842pt" height="352pt"
 viewBox="0.00 0.00 842.00 352.00" xmlns="http://www.w3.org/2000/svg" xmlns:xlink="http://www.w3.org/1999/xlink">
<g id="graph0" class="graph" transform="scale(1 1) rotate(0) translate(4 348)">
<title>Aimer</title>
<polygon fill="white" stroke="none" points="-4,4 -4,-348 838,-348 838,4 -4,4"/>
<!-- Node1 -->
<g id="node1" class="node"><title>Node1</title>
<polygon fill="#bfbfbf" stroke="black" points="792,-38.5 792,-57.5 834,-57.5 834,-38.5 792,-38.5"/>
<text text-anchor="middle" x="813" y="-45.5" font-family="Helvetica,sans-Serif" font-size="10.00">Aimer</text>
</g>
<!-- Node2 -->
<g id="node2" class="node"><title>Node2</title>
<g id="a_node2"><a xlink:href="class_property.html" target="_top" xlink:title="Property\&lt; float \&gt;">
<polygon fill="white" stroke="black" points="138.5,-0.5 138.5,-19.5 227.5,-19.5 227.5,-0.5 138.5,-0.5"/>
<text text-anchor="middle" x="183" y="-7.5" font-family="Helvetica,sans-Serif" font-size="10.00">Property&lt; float &gt;</text>
</a>
</g>
</g>
<!-- Node2&#45;&gt;Node1 -->
<g id="edge1" class="edge"><title>Node2&#45;&gt;Node1</title>
<path fill="none" stroke="#9a32cd" stroke-dasharray="5,2" d="M237.825,-8.63766C316.933,-7.17936 469.174,-6.44305 598,-18 669.556,-24.4193 753.806,-38.0219 791.718,-44.4689"/>
<polygon fill="#9a32cd" stroke="#9a32cd" points="237.55,-5.14227 227.62,-8.8374 237.687,-12.1409 237.55,-5.14227"/>
<text text-anchor="middle" x="544" y="-32" font-family="Helvetica,sans-Serif" font-size="10.00"> m_infityAimInterpolation</text>
<text text-anchor="middle" x="544" y="-21" font-family="Helvetica,sans-Serif" font-size="10.00">m_infityAimDistance</text>
</g>
<!-- Node6 -->
<g id="node6" class="node"><title>Node6</title>
<g id="a_node6"><a xlink:href="class_voxel.html" target="_top" xlink:title="Voxel">
<polygon fill="white" stroke="red" points="379.5,-322.5 379.5,-341.5 420.5,-341.5 420.5,-322.5 379.5,-322.5"/>
<text text-anchor="middle" x="400" y="-329.5" font-family="Helvetica,sans-Serif" font-size="10.00">Voxel</text>
</a>
</g>
</g>
<!-- Node2&#45;&gt;Node6 -->
<g id="edge6" class="edge"><title>Node2&#45;&gt;Node6</title>
<path fill="none" stroke="#9a32cd" stroke-dasharray="5,2" d="M187.441,-29.6378C197.958,-83.6254 234.815,-235.413 328,-313 342.415,-325.002 363.686,-329.485 379.186,-331.127"/>
<polygon fill="#9a32cd" stroke="#9a32cd" points="190.856,-28.8552 185.586,-19.6638 183.974,-30.1352 190.856,-28.8552"/>
<text text-anchor="middle" x="278" y="-308" font-family="Helvetica,sans-Serif" font-size="10.00"> s_defaultHp</text>
<text text-anchor="middle" x="278" y="-297" font-family="Helvetica,sans-Serif" font-size="10.00">s_defaultMass</text>
</g>
<!-- Node3 -->
<g id="node3" class="node"><title>Node3</title>
<g id="a_node3"><a xlink:title="STL class. ">
<polygon fill="white" stroke="#bfbfbf" points="0,-0.5 0,-19.5 60,-19.5 60,-0.5 0,-0.5"/>
<text text-anchor="middle" x="30" y="-7.5" font-family="Helvetica,sans-Serif" font-size="10.00">std::string</text>
</a>
</g>
</g>
<!-- Node3&#45;&gt;Node2 -->
<g id="edge2" class="edge"><title>Node3&#45;&gt;Node2</title>
<path fill="none" stroke="#9a32cd" stroke-dasharray="5,2" d="M70.2421,-10C91.1307,-10 116.875,-10 138.388,-10"/>
<polygon fill="#9a32cd" stroke="#9a32cd" points="70.1144,-6.5001 60.1143,-10 70.1143,-13.5001 70.1144,-6.5001"/>
<text text-anchor="middle" x="99" y="-13" font-family="Helvetica,sans-Serif" font-size="10.00"> m_name</text>
</g>
<!-- Node4 -->
<g id="node4" class="node"><title>Node4</title>
<g id="a_node4"><a xlink:href="class_world_object.html" target="_top" xlink:title="WorldObject">
<polygon fill="white" stroke="black" points="616.5,-170.5 616.5,-189.5 687.5,-189.5 687.5,-170.5 616.5,-170.5"/>
<text text-anchor="middle" x="652" y="-177.5" font-family="Helvetica,sans-Serif" font-size="10.00">WorldObject</text>
</a>
</g>
</g>
<!-- Node4&#45;&gt;Node1 -->
<g id="edge3" class="edge"><title>Node4&#45;&gt;Node1</title>
<path fill="none" stroke="#9a32cd" stroke-dasharray="5,2" d="M672.405,-163.89C705.802,-136.164 773.167,-80.2383 800.291,-57.7205"/>
<polygon fill="#9a32cd" stroke="#9a32cd" points="670.15,-161.213 664.692,-170.294 674.621,-166.599 670.15,-161.213"/>
<text text-anchor="middle" x="740" y="-137" font-family="Helvetica,sans-Serif" font-size="10.00"> m_worldObject</text>
</g>
<!-- Node5 -->
<g id="node5" class="node"><title>Node5</title>
<g id="a_node5"><a xlink:href="class_voxel_cluster.html" target="_top" xlink:title="VoxelCluster">
<polygon fill="white" stroke="red" points="364,-284.5 364,-303.5 436,-303.5 436,-284.5 364,-284.5"/>
<text text-anchor="middle" x="400" y="-291.5" font-family="Helvetica,sans-Serif" font-size="10.00">VoxelCluster</text>
</a>
</g>
</g>
<!-- Node5&#45;&gt;Node4 -->
<g id="edge4" class="edge"><title>Node5&#45;&gt;Node4</title>
<path fill="none" stroke="midnightblue" d="M446.23,-298.657C488.823,-300.737 552.68,-297.69 598,-268 626.942,-249.04 642.455,-208.28 648.272,-189.648"/>
<polygon fill="midnightblue" stroke="midnightblue" points="446.343,-295.157 436.151,-298.05 445.922,-302.144 446.343,-295.157"/>
</g>
<!-- Node6&#45;&gt;Node4 -->
<g id="edge5" class="edge"><title>Node6&#45;&gt;Node4</title>
<path fill="none" stroke="#9a32cd" stroke-dasharray="5,2" d="M430.796,-334.782C472.609,-337.052 549.05,-335.041 598,-297 633.567,-269.359 646.004,-212.493 649.668,-189.732"/>
<polygon fill="#9a32cd" stroke="#9a32cd" points="430.915,-331.282 420.705,-334.112 430.451,-338.266 430.915,-331.282"/>
<text text-anchor="middle" x="544" y="-336" font-family="Helvetica,sans-Serif" font-size="10.00"> m_crucialVoxel</text>
</g>
<!-- Node7 -->
<g id="node7" class="node"><title>Node7</title>
<polygon fill="white" stroke="#bfbfbf" points="328.5,-246.5 328.5,-265.5 471.5,-265.5 471.5,-246.5 328.5,-246.5"/>
<text text-anchor="middle" x="400" y="-253.5" font-family="Helvetica,sans-Serif" font-size="10.00">std::unique_ptr&lt; ObjectInfo &gt;</text>
</g>
<!-- Node7&#45;&gt;Node4 -->
<g id="edge7" class="edge"><title>Node7&#45;&gt;Node4</title>
<path fill="none" stroke="#9a32cd" stroke-dasharray="5,2" d="M481.862,-253.888C518.679,-250.403 561.976,-242.651 598,-226 616.58,-217.412 633.599,-200.285 643.104,-189.525"/>
<polygon fill="#9a32cd" stroke="#9a32cd" points="481.326,-250.421 471.661,-254.762 481.923,-257.396 481.326,-250.421"/>
<text text-anchor="middle" x="544" y="-256" font-family="Helvetica,sans-Serif" font-size="10.00"> m_objectInfo</text>
</g>
<!-- Node8 -->
<g id="node8" class="node"><title>Node8</title>
<g id="a_node8"><a xlink:href="class_handle.html" target="_top" xlink:title="Handle\&lt; WorldObject \&gt;">
<polygon fill="white" stroke="black" points="340.5,-208.5 340.5,-227.5 459.5,-227.5 459.5,-208.5 340.5,-208.5"/>
<text text-anchor="middle" x="400" y="-215.5" font-family="Helvetica,sans-Serif" font-size="10.00">Handle&lt; WorldObject &gt;</text>
</a>
</g>
</g>
<!-- Node8&#45;&gt;Node4 -->
<g id="edge8" class="edge"><title>Node8&#45;&gt;Node4</title>
<path fill="none" stroke="#9a32cd" stroke-dasharray="5,2" d="M470.008,-212.661C508.001,-209.042 555.86,-203.368 598,-195 605.316,-193.547 613.094,-191.587 620.374,-189.564"/>
<polygon fill="#9a32cd" stroke="#9a32cd" points="469.201,-209.221 459.566,-213.628 469.846,-216.191 469.201,-209.221"/>
<text text-anchor="middle" x="544" y="-214" font-family="Helvetica,sans-Serif" font-size="10.00"> m_handle</text>
</g>
<!-- Node9 -->
<g id="node9" class="node"><title>Node9</title>
<polygon fill="white" stroke="#bfbfbf" points="333,-170.5 333,-189.5 467,-189.5 467,-170.5 333,-170.5"/>
<text text-anchor="middle" x="400" y="-177.5" font-family="Helvetica,sans-Serif" font-size="10.00">std::unique_ptr&lt; Physics &gt;</text>
</g>
<!-- Node9&#45;&gt;Node4 -->
<g id="edge9" class="edge"><title>Node9&#45;&gt;Node4</title>
<path fill="none" stroke="#9a32cd" stroke-dasharray="5,2" d="M477.029,-180C523.376,-180 580.393,-180 616.229,-180"/>
<polygon fill="#9a32cd" stroke="#9a32cd" points="477.012,-176.5 467.012,-180 477.012,-183.5 477.012,-176.5"/>
<text text-anchor="middle" x="544" y="-183" font-family="Helvetica,sans-Serif" font-size="10.00"> m_physics</text>
</g>
<!-- Node10 -->
<g id="node10" class="node"><title>Node10</title>
<polygon fill="white" stroke="#bfbfbf" points="336.5,-121 336.5,-151 463.5,-151 463.5,-121 336.5,-121"/>
<text text-anchor="start" x="344.5" y="-139" font-family="Helvetica,sans-Serif" font-size="10.00">std::unique_ptr&lt; Collision</text>
<text text-anchor="middle" x="400" y="-128" font-family="Helvetica,sans-Serif" font-size="10.00">Filter &gt;</text>
</g>
<!-- Node10&#45;&gt;Node4 -->
<g id="edge10" class="edge"><title>Node10&#45;&gt;Node4</title>
<path fill="none" stroke="#9a32cd" stroke-dasharray="5,2" d="M474.192,-144.478C511.462,-149.374 557.369,-156.298 598,-165 605.107,-166.522 612.665,-168.462 619.78,-170.438"/>
<polygon fill="#9a32cd" stroke="#9a32cd" points="474.287,-140.961 463.921,-143.15 473.39,-147.903 474.287,-140.961"/>
<text text-anchor="middle" x="544" y="-168" font-family="Helvetica,sans-Serif" font-size="10.00"> m_collisionFilter</text>
</g>
<!-- Node11 -->
<g id="node11" class="node"><title>Node11</title>
<polygon fill="white" stroke="#bfbfbf" points="336.5,-72 336.5,-102 463.5,-102 463.5,-72 336.5,-72"/>
<text text-anchor="start" x="344.5" y="-90" font-family="Helvetica,sans-Serif" font-size="10.00">std::unique_ptr&lt; Collision</text>
<text text-anchor="middle" x="400" y="-79" font-family="Helvetica,sans-Serif" font-size="10.00">Detector &gt;</text>
</g>
<!-- Node11&#45;&gt;Node4 -->
<g id="edge11" class="edge"><title>Node11&#45;&gt;Node4</title>
<path fill="none" stroke="#9a32cd" stroke-dasharray="5,2" d="M473.842,-94.6041C512.401,-100.812 559.585,-111.988 598,-132 616.496,-141.635 633.542,-159.296 643.074,-170.299"/>
<polygon fill="#9a32cd" stroke="#9a32cd" points="474.139,-91.1088 463.724,-93.056 473.08,-98.0282 474.139,-91.1088"/>
<text text-anchor="middle" x="544" y="-135" font-family="Helvetica,sans-Serif" font-size="10.00"> m_collisionDetector</text>
</g>
<!-- Node12 -->
<g id="node12" class="node"><title>Node12</title>
<polygon fill="white" stroke="#bfbfbf" points="328,-23 328,-53 472,-53 472,-23 328,-23"/>
<text text-anchor="start" x="336" y="-41" font-family="Helvetica,sans-Serif" font-size="10.00">std::unique_ptr&lt; WorldObject</text>
<text text-anchor="middle" x="400" y="-30" font-family="Helvetica,sans-Serif" font-size="10.00">Components &gt;</text>
</g>
<!-- Node12&#45;&gt;Node4 -->
<g id="edge12" class="edge"><title>Node12&#45;&gt;Node4</title>
<path fill="none" stroke="#9a32cd" stroke-dasharray="5,2" d="M482.251,-41.892C520.548,-47.2702 564.966,-58.998 598,-84 627.753,-106.519 643.014,-150.829 648.534,-170.363"/>
<polygon fill="#9a32cd" stroke="#9a32cd" points="482.507,-38.3963 472.144,-40.5973 481.618,-45.3395 482.507,-38.3963"/>
<text text-anchor="middle" x="544" y="-87" font-family="Helvetica,sans-Serif" font-size="10.00"> m_components</text>
</g>
</g>
</svg>
