<?xml version="1.0" encoding="UTF-8" standalone="no"?>
<!DOCTYPE svg PUBLIC "-//W3C//DTD SVG 1.1//EN"
 "http://www.w3.org/Graphics/SVG/1.1/DTD/svg11.dtd">
<!-- Generated by graphviz version 2.36.0 (20140111.2315)
 -->
<!-- Title: PropertyManager Pages: 1 -->
<svg width="584pt" height="108pt"
 viewBox="0.00 0.00 584.00 108.00" xmlns="http://www.w3.org/2000/svg" xmlns:xlink="http://www.w3.org/1999/xlink">
<g id="graph0" class="graph" transform="scale(1 1) rotate(0) translate(4 104)">
<title>PropertyManager</title>
<polygon fill="white" stroke="none" points="-4,4 -4,-104 580,-104 580,4 -4,4"/>
<!-- Node1 -->
<g id="node1" class="node"><title>Node1</title>
<polygon fill="#bfbfbf" stroke="black" points="484.5,-51.5 484.5,-70.5 575.5,-70.5 575.5,-51.5 484.5,-51.5"/>
<text text-anchor="middle" x="530" y="-58.5" font-family="Helvetica,sans-Serif" font-size="10.00">PropertyManager</text>
</g>
<!-- Node1&#45;&gt;Node1 -->
<g id="edge2" class="edge"><title>Node1&#45;&gt;Node1</title>
<path fill="none" stroke="#9a32cd" stroke-dasharray="5,2" d="M508.89,-80.4C510.3,-85.3146 517.336,-89 530,-89 550.262,-89 556.119,-79.5653 547.571,-70.7571"/>
<polygon fill="#9a32cd" stroke="#9a32cd" points="512.269,-81.3507 512.429,-70.7571 505.698,-78.9387 512.269,-81.3507"/>
<text text-anchor="middle" x="530" y="-92" font-family="Helvetica,sans-Serif" font-size="10.00"> s_instance</text>
</g>
<!-- Node2 -->
<g id="node2" class="node"><title>Node2</title>
<polygon fill="white" stroke="#bfbfbf" points="231.5,-71.5 231.5,-90.5 324.5,-90.5 324.5,-71.5 231.5,-71.5"/>
<text text-anchor="middle" x="278" y="-78.5" font-family="Helvetica,sans-Serif" font-size="10.00">glow::Changeable</text>
</g>
<!-- Node2&#45;&gt;Node1 -->
<g id="edge1" class="edge"><title>Node2&#45;&gt;Node1</title>
<path fill="none" stroke="midnightblue" d="M334.75,-76.54C379.784,-72.9373 442.339,-67.9329 484.171,-64.5863"/>
<polygon fill="midnightblue" stroke="midnightblue" points="334.252,-73.0686 324.563,-77.3549 334.81,-80.0463 334.252,-73.0686"/>
</g>
<!-- Node3 -->
<g id="node3" class="node"><title>Node3</title>
<polygon fill="white" stroke="#bfbfbf" points="208,-0 208,-52 348,-52 348,-0 208,-0"/>
<text text-anchor="start" x="216" y="-40" font-family="Helvetica,sans-Serif" font-size="10.00">std::unordered_map</text>
<text text-anchor="start" x="216" y="-29" font-family="Helvetica,sans-Serif" font-size="10.00">&lt; const std::type_info</text>
<text text-anchor="start" x="216" y="-18" font-family="Helvetica,sans-Serif" font-size="10.00"> *, std::unique_ptr&lt; Abstract</text>
<text text-anchor="middle" x="278" y="-7" font-family="Helvetica,sans-Serif" font-size="10.00">PropertyCollection &gt; &gt;</text>
</g>
<!-- Node3&#45;&gt;Node1 -->
<g id="edge3" class="edge"><title>Node3&#45;&gt;Node1</title>
<path fill="none" stroke="#9a32cd" stroke-dasharray="5,2" d="M358.45,-36.1845C391.708,-40.5612 430.755,-45.8475 466,-51 471.917,-51.865 478.141,-52.8101 484.28,-53.7629"/>
<polygon fill="#9a32cd" stroke="#9a32cd" points="358.696,-32.6868 348.326,-34.8566 357.785,-39.6274 358.696,-32.6868"/>
<text text-anchor="middle" x="416" y="-54" font-family="Helvetica,sans-Serif" font-size="10.00"> m_propertyCollections</text>
</g>
<!-- Node4 -->
<g id="node4" class="node"><title>Node4</title>
<polygon fill="white" stroke="#bfbfbf" points="0.5,-11 0.5,-41 127.5,-41 127.5,-11 0.5,-11"/>
<text text-anchor="start" x="8.5" y="-29" font-family="Helvetica,sans-Serif" font-size="10.00">std::unique_ptr&lt; Abstract</text>
<text text-anchor="middle" x="64" y="-18" font-family="Helvetica,sans-Serif" font-size="10.00">PropertyCollection &gt;</text>
</g>
<!-- Node4&#45;&gt;Node3 -->
<g id="edge4" class="edge"><title>Node4&#45;&gt;Node3</title>
<path fill="none" stroke="#9a32cd" stroke-dasharray="5,2" d="M137.959,-26C160.563,-26 185.395,-26 207.74,-26"/>
<polygon fill="#9a32cd" stroke="#9a32cd" points="137.747,-22.5001 127.747,-26 137.746,-29.5001 137.747,-22.5001"/>
<text text-anchor="middle" x="168" y="-29" font-family="Helvetica,sans-Serif" font-size="10.00"> elements</text>
</g>
</g>
</svg>
