<?xml version="1.0" encoding="UTF-8" standalone="no"?>
<!DOCTYPE svg PUBLIC "-//W3C//DTD SVG 1.1//EN"
 "http://www.w3.org/Graphics/SVG/1.1/DTD/svg11.dtd">
<!-- Generated by graphviz version 2.36.0 (20140111.2315)
 -->
<!-- Title: Transition Pages: 1 -->
<svg width="286pt" height="396pt"
 viewBox="0.00 0.00 286.00 396.00" xmlns="http://www.w3.org/2000/svg" xmlns:xlink="http://www.w3.org/1999/xlink">
<g id="graph0" class="graph" transform="scale(1 1) rotate(0) translate(4 392)">
<title>Transition</title>
<polygon fill="white" stroke="none" points="-4,4 -4,-392 282,-392 282,4 -4,4"/>
<!-- Node1 -->
<g id="node1" class="node"><title>Node1</title>
<polygon fill="#bfbfbf" stroke="black" points="122.5,-230.5 122.5,-249.5 181.5,-249.5 181.5,-230.5 122.5,-230.5"/>
<text text-anchor="middle" x="152" y="-237.5" font-family="Helvetica,sans-Serif" font-size="10.00">Transition</text>
</g>
<!-- Node6 -->
<g id="node6" class="node"><title>Node6</title>
<polygon fill="white" stroke="#bfbfbf" points="0,-161.5 0,-180.5 116,-180.5 116,-161.5 0,-161.5"/>
<text text-anchor="middle" x="58" y="-168.5" font-family="Helvetica,sans-Serif" font-size="10.00">std::list&lt; Transition * &gt;</text>
</g>
<!-- Node1&#45;&gt;Node6 -->
<g id="edge8" class="edge"><title>Node1&#45;&gt;Node6</title>
<path fill="none" stroke="#9a32cd" stroke-dasharray="5,2" d="M119.723,-226.328C111.308,-222.337 102.503,-217.509 95,-212 82.6474,-202.93 71.1119,-189.321 64.3059,-180.55"/>
<polygon fill="#9a32cd" stroke="#9a32cd" points="118.412,-229.575 128.968,-230.47 121.274,-223.187 118.412,-229.575"/>
<text text-anchor="middle" x="116.5" y="-203.5" font-family="Helvetica,sans-Serif" font-size="10.00"> elements</text>
</g>
<!-- Node2 -->
<g id="node2" class="node"><title>Node2</title>
<g id="a_node2"><a xlink:title="STL class. ">
<polygon fill="white" stroke="#bfbfbf" points="156,-298.5 156,-317.5 216,-317.5 216,-298.5 156,-298.5"/>
<text text-anchor="middle" x="186" y="-305.5" font-family="Helvetica,sans-Serif" font-size="10.00">std::string</text>
</a>
</g>
</g>
<!-- Node2&#45;&gt;Node1 -->
<g id="edge1" class="edge"><title>Node2&#45;&gt;Node1</title>
<path fill="none" stroke="#9a32cd" stroke-dasharray="5,2" d="M168.867,-291.174C165.889,-287.735 163.085,-283.938 161,-280 155.863,-270.297 153.639,-257.715 152.689,-249.504"/>
<polygon fill="#9a32cd" stroke="#9a32cd" points="166.414,-293.673 175.87,-298.451 171.458,-288.819 166.414,-293.673"/>
<text text-anchor="middle" x="181.5" y="-271.5" font-family="Helvetica,sans-Serif" font-size="10.00"> m_name</text>
</g>
<!-- Node4 -->
<g id="node4" class="node"><title>Node4</title>
<g id="a_node4"><a xlink:href="class_state.html" target="_top" xlink:title="State">
<polygon fill="white" stroke="black" points="132,-80.5 132,-99.5 172,-99.5 172,-80.5 132,-80.5"/>
<text text-anchor="middle" x="152" y="-87.5" font-family="Helvetica,sans-Serif" font-size="10.00">State</text>
</a>
</g>
</g>
<!-- Node2&#45;&gt;Node4 -->
<g id="edge6" class="edge"><title>Node2&#45;&gt;Node4</title>
<path fill="none" stroke="#9a32cd" stroke-dasharray="5,2" d="M198.251,-289.308C199.795,-286.318 201.135,-283.156 202,-280 209.737,-251.769 248.103,-335.839 192,-160 184.508,-136.519 168.096,-112.333 158.791,-99.7739"/>
<polygon fill="#9a32cd" stroke="#9a32cd" points="195.135,-287.697 192.951,-298.065 201.123,-291.322 195.135,-287.697"/>
<text text-anchor="middle" x="227.5" y="-203.5" font-family="Helvetica,sans-Serif" font-size="10.00"> m_name</text>
</g>
<!-- Node3 -->
<g id="node3" class="node"><title>Node3</title>
<g id="a_node3"><a xlink:title="STL class. ">
<polygon fill="white" stroke="#bfbfbf" points="138.5,-357 138.5,-387 233.5,-387 233.5,-357 138.5,-357"/>
<text text-anchor="start" x="146.5" y="-375" font-family="Helvetica,sans-Serif" font-size="10.00">std::basic_string&lt;</text>
<text text-anchor="middle" x="186" y="-364" font-family="Helvetica,sans-Serif" font-size="10.00"> char &gt;</text>
</a>
</g>
</g>
<!-- Node3&#45;&gt;Node2 -->
<g id="edge2" class="edge"><title>Node3&#45;&gt;Node2</title>
<path fill="none" stroke="midnightblue" d="M186,-346.871C186,-336.663 186,-325.408 186,-317.842"/>
<polygon fill="midnightblue" stroke="midnightblue" points="182.5,-346.931 186,-356.931 189.5,-346.931 182.5,-346.931"/>
</g>
<!-- Node4&#45;&gt;Node1 -->
<g id="edge3" class="edge"><title>Node4&#45;&gt;Node1</title>
<path fill="none" stroke="#9a32cd" stroke-dasharray="5,2" d="M152,-109.873C152,-142.136 152,-206.686 152,-230.185"/>
<polygon fill="#9a32cd" stroke="#9a32cd" points="155.5,-109.583 152,-99.5833 148.5,-109.583 155.5,-109.583"/>
<text text-anchor="middle" x="170" y="-174" font-family="Helvetica,sans-Serif" font-size="10.00"> m_from</text>
<text text-anchor="middle" x="170" y="-163" font-family="Helvetica,sans-Serif" font-size="10.00">m_to</text>
</g>
<!-- Node4&#45;&gt;Node4 -->
<g id="edge9" class="edge"><title>Node4&#45;&gt;Node4</title>
<path fill="none" stroke="#9a32cd" stroke-dasharray="5,2" d="M182.416,-97.823C186.94,-96.6043 190,-93.9966 190,-90 190,-83.4414 181.76,-80.6233 172.329,-81.5456"/>
<polygon fill="#9a32cd" stroke="#9a32cd" points="182.091,-94.3364 172.329,-98.4544 182.529,-101.323 182.091,-94.3364"/>
<text text-anchor="middle" x="234" y="-104" font-family="Helvetica,sans-Serif" font-size="10.00"> m_currentSubState</text>
<text text-anchor="middle" x="234" y="-93" font-family="Helvetica,sans-Serif" font-size="10.00">m_initialSubState</text>
<text text-anchor="middle" x="234" y="-82" font-family="Helvetica,sans-Serif" font-size="10.00">m_finalSubState</text>
<text text-anchor="middle" x="234" y="-71" font-family="Helvetica,sans-Serif" font-size="10.00">m_parentState</text>
</g>
<!-- Node5 -->
<g id="node5" class="node"><title>Node5</title>
<polygon fill="white" stroke="#bfbfbf" points="103.5,-0.5 103.5,-19.5 200.5,-19.5 200.5,-0.5 103.5,-0.5"/>
<text text-anchor="middle" x="152" y="-7.5" font-family="Helvetica,sans-Serif" font-size="10.00">std::list&lt; State * &gt;</text>
</g>
<!-- Node4&#45;&gt;Node5 -->
<g id="edge5" class="edge"><title>Node4&#45;&gt;Node5</title>
<path fill="none" stroke="#9a32cd" stroke-dasharray="5,2" d="M132.592,-73.4256C126.022,-66.9571 119.473,-58.8822 116,-50 114.058,-45.0328 113.615,-42.7703 116,-38 119.913,-30.1738 127.293,-24.0275 134.357,-19.5893"/>
<polygon fill="#9a32cd" stroke="#9a32cd" points="130.364,-76.1294 140.132,-80.2333 135.055,-70.9339 130.364,-76.1294"/>
<text text-anchor="middle" x="137.5" y="-41.5" font-family="Helvetica,sans-Serif" font-size="10.00"> elements</text>
</g>
<!-- Node5&#45;&gt;Node4 -->
<g id="edge4" class="edge"><title>Node5&#45;&gt;Node4</title>
<path fill="none" stroke="#9a32cd" stroke-dasharray="5,2" d="M160.444,-29.0048C161.502,-31.9532 162.416,-35.0197 163,-38 165.925,-52.9333 160.274,-70.2305 156.043,-80.3577"/>
<polygon fill="#9a32cd" stroke="#9a32cd" points="163.653,-27.6069 156.566,-19.7315 157.195,-30.3076 163.653,-27.6069"/>
<text text-anchor="middle" x="194.5" y="-41.5" font-family="Helvetica,sans-Serif" font-size="10.00"> m_subStates</text>
</g>
<!-- Node6&#45;&gt;Node4 -->
<g id="edge7" class="edge"><title>Node6&#45;&gt;Node4</title>
<path fill="none" stroke="#9a32cd" stroke-dasharray="5,2" d="M63.2478,-151.757C66.0876,-144.329 70.2248,-136.079 76,-130 91.4237,-113.765 115.094,-103.113 131.916,-97.107"/>
<polygon fill="#9a32cd" stroke="#9a32cd" points="59.8761,-150.806 60.0616,-161.399 66.5226,-153.002 59.8761,-150.806"/>
<text text-anchor="middle" x="107" y="-133.5" font-family="Helvetica,sans-Serif" font-size="10.00"> m_transitions</text>
</g>
</g>
</svg>
