<?xml version="1.0" encoding="UTF-8" standalone="no"?>
<!DOCTYPE svg PUBLIC "-//W3C//DTD SVG 1.1//EN"
 "http://www.w3.org/Graphics/SVG/1.1/DTD/svg11.dtd">
<!-- Generated by graphviz version 2.36.0 (20140111.2315)
 -->
<!-- Title: VoxelCollisionParticipant Pages: 1 -->
<svg width="293pt" height="242pt"
 viewBox="0.00 0.00 292.71 242.00" xmlns="http://www.w3.org/2000/svg" xmlns:xlink="http://www.w3.org/1999/xlink">
<g id="graph0" class="graph" transform="scale(1 1) rotate(0) translate(4 238)">
<title>VoxelCollisionParticipant</title>
<polygon fill="white" stroke="none" points="-4,4 -4,-238 288.714,-238 288.714,4 -4,4"/>
<!-- Node1 -->
<g id="node1" class="node"><title>Node1</title>
<polygon fill="#bfbfbf" stroke="black" points="3.21419,-0.5 3.21419,-19.5 128.214,-19.5 128.214,-0.5 3.21419,-0.5"/>
<text text-anchor="middle" x="65.7142" y="-7.5" font-family="Helvetica,sans-Serif" font-size="10.00">VoxelCollisionParticipant</text>
</g>
<!-- Node2 -->
<g id="node2" class="node"><title>Node2</title>
<g id="a_node2"><a xlink:href="class_voxel.html" target="_top" xlink:title="Voxel">
<polygon fill="white" stroke="black" points="54.2142,-136.5 54.2142,-155.5 95.2142,-155.5 95.2142,-136.5 54.2142,-136.5"/>
<text text-anchor="middle" x="74.7142" y="-143.5" font-family="Helvetica,sans-Serif" font-size="10.00">Voxel</text>
</a>
</g>
</g>
<!-- Node2&#45;&gt;Node1 -->
<g id="edge1" class="edge"><title>Node2&#45;&gt;Node1</title>
<path fill="none" stroke="#9a32cd" stroke-dasharray="5,2" d="M46.4225,-131.399C30.1268,-121.816 11.2329,-107.257 2.71419,-88 -9.93335,-59.4096 26.7968,-32.756 49.4039,-19.5926"/>
<polygon fill="#9a32cd" stroke="#9a32cd" points="45.171,-134.705 55.6189,-136.464 48.548,-128.574 45.171,-134.705"/>
<text text-anchor="middle" x="22.2142" y="-75.5" font-family="Helvetica,sans-Serif" font-size="10.00"> m_voxel</text>
</g>
<!-- Node5 -->
<g id="node5" class="node"><title>Node5</title>
<g id="a_node5"><a xlink:href="class_voxel_tree_node.html" target="_top" xlink:title="VoxelTreeNode">
<polygon fill="white" stroke="red" points="51.2142,-68.5 51.2142,-87.5 134.214,-87.5 134.214,-68.5 51.2142,-68.5"/>
<text text-anchor="middle" x="92.7142" y="-75.5" font-family="Helvetica,sans-Serif" font-size="10.00">VoxelTreeNode</text>
</a>
</g>
</g>
<!-- Node2&#45;&gt;Node5 -->
<g id="edge5" class="edge"><title>Node2&#45;&gt;Node5</title>
<path fill="none" stroke="#9a32cd" stroke-dasharray="5,2" d="M50.217,-130.546C41.6499,-123.571 35.3579,-114.816 40.7142,-106 45.8374,-97.5673 54.5438,-91.6486 63.3825,-87.5494"/>
<polygon fill="#9a32cd" stroke="#9a32cd" points="48.2768,-133.461 58.4555,-136.401 52.3319,-127.755 48.2768,-133.461"/>
<text text-anchor="middle" x="60.2142" y="-109.5" font-family="Helvetica,sans-Serif" font-size="10.00"> m_voxel</text>
</g>
<!-- Node6 -->
<g id="node6" class="node"><title>Node6</title>
<g id="a_node6"><a xlink:href="class_world_object.html" target="_top" xlink:title="WorldObject">
<polygon fill="white" stroke="red" points="214.214,-68.5 214.214,-87.5 285.214,-87.5 285.214,-68.5 214.214,-68.5"/>
<text text-anchor="middle" x="249.714" y="-75.5" font-family="Helvetica,sans-Serif" font-size="10.00">WorldObject</text>
</a>
</g>
</g>
<!-- Node2&#45;&gt;Node6 -->
<g id="edge8" class="edge"><title>Node2&#45;&gt;Node6</title>
<path fill="none" stroke="#9a32cd" stroke-dasharray="5,2" d="M105.312,-138.085C124.653,-133.324 150.005,-126.36 171.714,-118 194.462,-109.241 219.448,-96.0737 234.86,-87.5074"/>
<polygon fill="#9a32cd" stroke="#9a32cd" points="104.431,-134.697 95.5232,-140.434 106.064,-141.504 104.431,-134.697"/>
<text text-anchor="middle" x="233.714" y="-109.5" font-family="Helvetica,sans-Serif" font-size="10.00"> m_crucialVoxel</text>
</g>
<!-- Node3 -->
<g id="node3" class="node"><title>Node3</title>
<g id="a_node3"><a xlink:href="class_visuals.html" target="_top" xlink:title="Visuals">
<polygon fill="white" stroke="black" points="7.21419,-214.5 7.21419,-233.5 56.2142,-233.5 56.2142,-214.5 7.21419,-214.5"/>
<text text-anchor="middle" x="31.7142" y="-221.5" font-family="Helvetica,sans-Serif" font-size="10.00">Visuals</text>
</a>
</g>
</g>
<!-- Node3&#45;&gt;Node2 -->
<g id="edge2" class="edge"><title>Node3&#45;&gt;Node2</title>
<path fill="none" stroke="#9a32cd" stroke-dasharray="5,2" d="M37.1078,-204.602C40.3206,-195.085 44.9094,-183.505 50.7142,-174 54.7676,-167.363 60.5251,-160.821 65.3849,-155.839"/>
<polygon fill="#9a32cd" stroke="#9a32cd" points="33.7355,-203.658 34.0738,-214.248 40.413,-205.759 33.7355,-203.658"/>
<text text-anchor="middle" x="73.7142" y="-182.5" font-family="Helvetica,sans-Serif" font-size="10.00"> m_visuals</text>
</g>
<!-- Node4 -->
<g id="node4" class="node"><title>Node4</title>
<g id="a_node4"><a xlink:href="class_property.html" target="_top" xlink:title="Property\&lt; float \&gt;">
<polygon fill="white" stroke="red" points="74.2142,-214.5 74.2142,-233.5 163.214,-233.5 163.214,-214.5 74.2142,-214.5"/>
<text text-anchor="middle" x="118.714" y="-221.5" font-family="Helvetica,sans-Serif" font-size="10.00">Property&lt; float &gt;</text>
</a>
</g>
</g>
<!-- Node4&#45;&gt;Node2 -->
<g id="edge3" class="edge"><title>Node4&#45;&gt;Node2</title>
<path fill="none" stroke="#9a32cd" stroke-dasharray="5,2" d="M111.858,-204.751C107.97,-195.276 102.691,-183.687 96.7142,-174 92.65,-167.413 87.15,-160.663 82.666,-155.56"/>
<polygon fill="#9a32cd" stroke="#9a32cd" points="108.708,-206.306 115.619,-214.337 115.224,-203.749 108.708,-206.306"/>
<text text-anchor="middle" x="139.714" y="-188" font-family="Helvetica,sans-Serif" font-size="10.00"> s_defaultHp</text>
<text text-anchor="middle" x="139.714" y="-177" font-family="Helvetica,sans-Serif" font-size="10.00">s_defaultMass</text>
</g>
<!-- Node5&#45;&gt;Node2 -->
<g id="edge4" class="edge"><title>Node5&#45;&gt;Node2</title>
<path fill="none" stroke="#9a32cd" stroke-dasharray="5,2" d="M88.7981,-97.6093C87.3333,-104.096 85.571,-111.401 83.7142,-118 82.0012,-124.088 79.7512,-130.838 77.9294,-136.066"/>
<polygon fill="#9a32cd" stroke="#9a32cd" points="92.2406,-98.2499 90.9468,-87.7343 85.4006,-96.7615 92.2406,-98.2499"/>
<text text-anchor="middle" x="127.714" y="-109.5" font-family="Helvetica,sans-Serif" font-size="10.00"> m_voxelTreeNode</text>
</g>
<!-- Node5&#45;&gt;Node5 -->
<g id="edge6" class="edge"><title>Node5&#45;&gt;Node5</title>
<path fill="none" stroke="#9a32cd" stroke-dasharray="5,2" d="M144.565,-82.9574C148.968,-81.8984 151.714,-80.2459 151.714,-78 151.714,-74.3145 144.319,-72.2269 134.339,-71.7374"/>
<polygon fill="#9a32cd" stroke="#9a32cd" points="143.816,-79.5245 134.339,-84.2626 144.702,-86.4682 143.816,-79.5245"/>
<text text-anchor="middle" x="173.714" y="-75.5" font-family="Helvetica,sans-Serif" font-size="10.00"> m_parent</text>
</g>
<!-- Node6&#45;&gt;Node1 -->
<g id="edge7" class="edge"><title>Node6&#45;&gt;Node1</title>
<path fill="none" stroke="#9a32cd" stroke-dasharray="5,2" d="M215.911,-64.875C179.245,-51.723 121.656,-31.066 89.4833,-19.5259"/>
<polygon fill="#9a32cd" stroke="#9a32cd" points="215.065,-68.2897 225.659,-68.3717 217.428,-61.7008 215.065,-68.2897"/>
<text text-anchor="middle" x="208.714" y="-41.5" font-family="Helvetica,sans-Serif" font-size="10.00"> m_worldObject</text>
</g>
</g>
</svg>
