<?xml version="1.0" encoding="UTF-8" standalone="no"?>
<!DOCTYPE svg PUBLIC "-//W3C//DTD SVG 1.1//EN"
 "http://www.w3.org/Graphics/SVG/1.1/DTD/svg11.dtd">
<!-- Generated by graphviz version 2.36.0 (20140111.2315)
 -->
<!-- Title: BoardComputer Pages: 1 -->
<svg width="544pt" height="327pt"
 viewBox="0.00 0.00 544.00 327.00" xmlns="http://www.w3.org/2000/svg" xmlns:xlink="http://www.w3.org/1999/xlink">
<g id="graph0" class="graph" transform="scale(1 1) rotate(0) translate(4 323)">
<title>BoardComputer</title>
<polygon fill="white" stroke="none" points="-4,4 -4,-323 540,-323 540,4 -4,4"/>
<!-- Node1 -->
<g id="node1" class="node"><title>Node1</title>
<polygon fill="#bfbfbf" stroke="black" points="452,-146.5 452,-165.5 536,-165.5 536,-146.5 452,-146.5"/>
<text text-anchor="middle" x="494" y="-153.5" font-family="Helvetica,sans-Serif" font-size="10.00">BoardComputer</text>
</g>
<!-- Node2 -->
<g id="node2" class="node"><title>Node2</title>
<g id="a_node2"><a xlink:href="class_world_object.html" target="_top" xlink:title="WorldObject">
<polygon fill="white" stroke="black" points="272.5,-166.5 272.5,-185.5 343.5,-185.5 343.5,-166.5 272.5,-166.5"/>
<text text-anchor="middle" x="308" y="-173.5" font-family="Helvetica,sans-Serif" font-size="10.00">WorldObject</text>
</a>
</g>
</g>
<!-- Node2&#45;&gt;Node1 -->
<g id="edge1" class="edge"><title>Node2&#45;&gt;Node1</title>
<path fill="none" stroke="#9a32cd" stroke-dasharray="5,2" d="M353.769,-171.134C383.656,-167.885 422.668,-163.645 451.791,-160.479"/>
<polygon fill="#9a32cd" stroke="#9a32cd" points="353.172,-167.678 343.609,-172.238 353.929,-174.637 353.172,-167.678"/>
<text text-anchor="middle" x="399" y="-173" font-family="Helvetica,sans-Serif" font-size="10.00"> m_worldObject</text>
</g>
<!-- Node3 -->
<g id="node3" class="node"><title>Node3</title>
<g id="a_node3"><a xlink:href="class_voxel_cluster.html" target="_top" xlink:title="VoxelCluster">
<polygon fill="white" stroke="red" points="36,-299.5 36,-318.5 108,-318.5 108,-299.5 36,-299.5"/>
<text text-anchor="middle" x="72" y="-306.5" font-family="Helvetica,sans-Serif" font-size="10.00">VoxelCluster</text>
</a>
</g>
</g>
<!-- Node3&#45;&gt;Node2 -->
<g id="edge2" class="edge"><title>Node3&#45;&gt;Node2</title>
<path fill="none" stroke="midnightblue" d="M118.092,-313.005C157.046,-314.122 213.049,-309.863 252,-282 285.725,-257.876 300.324,-206.748 305.097,-185.535"/>
<polygon fill="midnightblue" stroke="midnightblue" points="118.219,-309.507 108.082,-312.59 117.928,-316.501 118.219,-309.507"/>
</g>
<!-- Node4 -->
<g id="node4" class="node"><title>Node4</title>
<g id="a_node4"><a xlink:href="class_voxel.html" target="_top" xlink:title="Voxel">
<polygon fill="white" stroke="red" points="51.5,-261.5 51.5,-280.5 92.5,-280.5 92.5,-261.5 51.5,-261.5"/>
<text text-anchor="middle" x="72" y="-268.5" font-family="Helvetica,sans-Serif" font-size="10.00">Voxel</text>
</a>
</g>
</g>
<!-- Node4&#45;&gt;Node2 -->
<g id="edge3" class="edge"><title>Node4&#45;&gt;Node2</title>
<path fill="none" stroke="#9a32cd" stroke-dasharray="5,2" d="M102.867,-271.3C140.118,-270.427 204.658,-264.713 252,-238 274.557,-225.272 292.584,-199.791 301.3,-185.783"/>
<polygon fill="#9a32cd" stroke="#9a32cd" points="102.63,-267.803 92.6764,-271.433 102.721,-274.803 102.63,-267.803"/>
<text text-anchor="middle" x="207" y="-270" font-family="Helvetica,sans-Serif" font-size="10.00"> m_crucialVoxel</text>
</g>
<!-- Node5 -->
<g id="node5" class="node"><title>Node5</title>
<polygon fill="white" stroke="#bfbfbf" points="0.5,-223.5 0.5,-242.5 143.5,-242.5 143.5,-223.5 0.5,-223.5"/>
<text text-anchor="middle" x="72" y="-230.5" font-family="Helvetica,sans-Serif" font-size="10.00">std::unique_ptr&lt; ObjectInfo &gt;</text>
</g>
<!-- Node5&#45;&gt;Node2 -->
<g id="edge4" class="edge"><title>Node5&#45;&gt;Node2</title>
<path fill="none" stroke="#9a32cd" stroke-dasharray="5,2" d="M153.782,-224.532C184.955,-219.955 220.602,-213.099 252,-203 265.569,-198.635 280.002,-191.442 290.677,-185.578"/>
<polygon fill="#9a32cd" stroke="#9a32cd" points="153.241,-221.073 143.83,-225.939 154.221,-228.004 153.241,-221.073"/>
<text text-anchor="middle" x="207" y="-226" font-family="Helvetica,sans-Serif" font-size="10.00"> m_objectInfo</text>
</g>
<!-- Node6 -->
<g id="node6" class="node"><title>Node6</title>
<g id="a_node6"><a xlink:href="class_handle.html" target="_top" xlink:title="Handle\&lt; WorldObject \&gt;">
<polygon fill="white" stroke="black" points="12.5,-185.5 12.5,-204.5 131.5,-204.5 131.5,-185.5 12.5,-185.5"/>
<text text-anchor="middle" x="72" y="-192.5" font-family="Helvetica,sans-Serif" font-size="10.00">Handle&lt; WorldObject &gt;</text>
</a>
</g>
</g>
<!-- Node6&#45;&gt;Node2 -->
<g id="edge5" class="edge"><title>Node6&#45;&gt;Node2</title>
<path fill="none" stroke="#9a32cd" stroke-dasharray="5,2" d="M141.835,-189.411C184.682,-185.932 237.971,-181.605 272.232,-178.823"/>
<polygon fill="#9a32cd" stroke="#9a32cd" points="141.43,-185.932 131.746,-190.23 141.997,-192.909 141.43,-185.932"/>
<text text-anchor="middle" x="207" y="-191" font-family="Helvetica,sans-Serif" font-size="10.00"> m_handle</text>
</g>
<!-- Node7 -->
<g id="node7" class="node"><title>Node7</title>
<polygon fill="white" stroke="#bfbfbf" points="5,-147.5 5,-166.5 139,-166.5 139,-147.5 5,-147.5"/>
<text text-anchor="middle" x="72" y="-154.5" font-family="Helvetica,sans-Serif" font-size="10.00">std::unique_ptr&lt; Physics &gt;</text>
</g>
<!-- Node7&#45;&gt;Node2 -->
<g id="edge6" class="edge"><title>Node7&#45;&gt;Node2</title>
<path fill="none" stroke="#9a32cd" stroke-dasharray="5,2" d="M149.189,-158.653C181.04,-159.908 218.391,-162.116 252,-166 258.652,-166.769 265.714,-167.85 272.482,-169.018"/>
<polygon fill="#9a32cd" stroke="#9a32cd" points="149.175,-155.15 139.053,-158.278 148.917,-162.145 149.175,-155.15"/>
<text text-anchor="middle" x="207" y="-169" font-family="Helvetica,sans-Serif" font-size="10.00"> m_physics</text>
</g>
<!-- Node8 -->
<g id="node8" class="node"><title>Node8</title>
<polygon fill="white" stroke="#bfbfbf" points="8.5,-98 8.5,-128 135.5,-128 135.5,-98 8.5,-98"/>
<text text-anchor="start" x="16.5" y="-116" font-family="Helvetica,sans-Serif" font-size="10.00">std::unique_ptr&lt; Collision</text>
<text text-anchor="middle" x="72" y="-105" font-family="Helvetica,sans-Serif" font-size="10.00">Filter &gt;</text>
</g>
<!-- Node8&#45;&gt;Node2 -->
<g id="edge7" class="edge"><title>Node8&#45;&gt;Node2</title>
<path fill="none" stroke="#9a32cd" stroke-dasharray="5,2" d="M145.748,-119.141C179.023,-123.667 218.424,-131.494 252,-145 260.92,-148.588 261.71,-152.129 270,-157 275.479,-160.219 281.563,-163.47 287.189,-166.351"/>
<polygon fill="#9a32cd" stroke="#9a32cd" points="145.996,-115.644 135.631,-117.84 145.103,-122.587 145.996,-115.644"/>
<text text-anchor="middle" x="207" y="-148" font-family="Helvetica,sans-Serif" font-size="10.00"> m_collisionFilter</text>
</g>
<!-- Node9 -->
<g id="node9" class="node"><title>Node9</title>
<polygon fill="white" stroke="#bfbfbf" points="8.5,-49 8.5,-79 135.5,-79 135.5,-49 8.5,-49"/>
<text text-anchor="start" x="16.5" y="-67" font-family="Helvetica,sans-Serif" font-size="10.00">std::unique_ptr&lt; Collision</text>
<text text-anchor="middle" x="72" y="-56" font-family="Helvetica,sans-Serif" font-size="10.00">Detector &gt;</text>
</g>
<!-- Node9&#45;&gt;Node2 -->
<g id="edge8" class="edge"><title>Node9&#45;&gt;Node2</title>
<path fill="none" stroke="#9a32cd" stroke-dasharray="5,2" d="M145.659,-66.2494C181.497,-70.9179 223.116,-82.1566 252,-108 269.29,-123.47 254.628,-139.622 270,-157 273.349,-160.786 277.633,-163.922 282.09,-166.481"/>
<polygon fill="#9a32cd" stroke="#9a32cd" points="146.055,-62.772 135.719,-65.1002 145.251,-69.7257 146.055,-62.772"/>
<text text-anchor="middle" x="207" y="-111" font-family="Helvetica,sans-Serif" font-size="10.00"> m_collisionDetector</text>
</g>
<!-- Node10 -->
<g id="node10" class="node"><title>Node10</title>
<polygon fill="white" stroke="#bfbfbf" points="0,-0 0,-30 144,-30 144,-0 0,-0"/>
<text text-anchor="start" x="8" y="-18" font-family="Helvetica,sans-Serif" font-size="10.00">std::unique_ptr&lt; WorldObject</text>
<text text-anchor="middle" x="72" y="-7" font-family="Helvetica,sans-Serif" font-size="10.00">Components &gt;</text>
</g>
<!-- Node10&#45;&gt;Node2 -->
<g id="edge9" class="edge"><title>Node10&#45;&gt;Node2</title>
<path fill="none" stroke="#9a32cd" stroke-dasharray="5,2" d="M154.167,-13.5578C188.812,-17.2822 226.95,-27.8879 252,-54 284.171,-87.5353 242.445,-119.579 270,-157 272.826,-160.838 276.654,-163.96 280.78,-166.479"/>
<polygon fill="#9a32cd" stroke="#9a32cd" points="154.298,-10.0556 144.025,-12.6477 153.672,-17.0275 154.298,-10.0556"/>
<text text-anchor="middle" x="207" y="-57" font-family="Helvetica,sans-Serif" font-size="10.00"> m_components</text>
</g>
<!-- Node11 -->
<g id="node11" class="node"><title>Node11</title>
<g id="a_node11"><a xlink:href="class_abstract_move.html" target="_top" xlink:title="AbstractMove">
<polygon fill="white" stroke="black" points="270,-128.5 270,-147.5 346,-147.5 346,-128.5 270,-128.5"/>
<text text-anchor="middle" x="308" y="-135.5" font-family="Helvetica,sans-Serif" font-size="10.00">AbstractMove</text>
</a>
</g>
</g>
<!-- Node11&#45;&gt;Node1 -->
<g id="edge10" class="edge"><title>Node11&#45;&gt;Node1</title>
<path fill="none" stroke="#9a32cd" stroke-dasharray="5,2" d="M356.15,-136.638C379.645,-136.591 408.429,-137.488 434,-141 442.9,-142.222 452.394,-144.287 461.107,-146.499"/>
<polygon fill="#9a32cd" stroke="#9a32cd" points="356.067,-133.139 346.094,-136.715 356.121,-140.138 356.067,-133.139"/>
<text text-anchor="middle" x="399" y="-144" font-family="Helvetica,sans-Serif" font-size="10.00"> m_engineState</text>
</g>
</g>
</svg>
