<?xml version="1.0" encoding="UTF-8" standalone="no"?>
<!DOCTYPE svg PUBLIC "-//W3C//DTD SVG 1.1//EN"
 "http://www.w3.org/Graphics/SVG/1.1/DTD/svg11.dtd">
<!-- Generated by graphviz version 2.36.0 (20140111.2315)
 -->
<!-- Title: TriggeredTransition Pages: 1 -->
<svg width="226pt" height="256pt"
 viewBox="0.00 0.00 226.00 256.00" xmlns="http://www.w3.org/2000/svg" xmlns:xlink="http://www.w3.org/1999/xlink">
<g id="graph0" class="graph" transform="scale(1 1) rotate(0) translate(4 252)">
<title>TriggeredTransition</title>
<polygon fill="white" stroke="none" points="-4,4 -4,-252 222,-252 222,4 -4,4"/>
<!-- Node1 -->
<g id="node1" class="node"><title>Node1</title>
<polygon fill="#bfbfbf" stroke="black" points="40,-0.5 40,-19.5 138,-19.5 138,-0.5 40,-0.5"/>
<text text-anchor="middle" x="89" y="-7.5" font-family="Helvetica,sans-Serif" font-size="10.00">TriggeredTransition</text>
</g>
<!-- Node2 -->
<g id="node2" class="node"><title>Node2</title>
<g id="a_node2"><a xlink:href="class_transition.html" target="_top" xlink:title="Transition">
<polygon fill="white" stroke="black" points="-0.5,-58.5 -0.5,-77.5 58.5,-77.5 58.5,-58.5 -0.5,-58.5"/>
<text text-anchor="middle" x="29" y="-65.5" font-family="Helvetica,sans-Serif" font-size="10.00">Transition</text>
</a>
</g>
</g>
<!-- Node2&#45;&gt;Node1 -->
<g id="edge1" class="edge"><title>Node2&#45;&gt;Node1</title>
<path fill="none" stroke="midnightblue" d="M45.4989,-51.601C56.5522,-41.2846 70.6951,-28.0846 79.8015,-19.5852"/>
<polygon fill="midnightblue" stroke="midnightblue" points="43.0352,-49.1129 38.1127,-58.4948 47.8114,-54.2303 43.0352,-49.1129"/>
</g>
<!-- Node3 -->
<g id="node3" class="node"><title>Node3</title>
<g id="a_node3"><a xlink:title="STL class. ">
<polygon fill="white" stroke="#bfbfbf" points="11,-228.5 11,-247.5 71,-247.5 71,-228.5 11,-228.5"/>
<text text-anchor="middle" x="41" y="-235.5" font-family="Helvetica,sans-Serif" font-size="10.00">std::string</text>
</a>
</g>
</g>
<!-- Node3&#45;&gt;Node2 -->
<g id="edge2" class="edge"><title>Node3&#45;&gt;Node2</title>
<path fill="none" stroke="#9a32cd" stroke-dasharray="5,2" d="M33.335,-218.983C29.0636,-207.952 24.1779,-193.421 22,-180 15.8759,-142.262 23.4125,-96.499 27.1418,-77.6999"/>
<polygon fill="#9a32cd" stroke="#9a32cd" points="30.1282,-220.389 37.1338,-228.337 36.6138,-217.755 30.1282,-220.389"/>
<text text-anchor="middle" x="42.5" y="-155.5" font-family="Helvetica,sans-Serif" font-size="10.00"> m_name</text>
</g>
<!-- Node4 -->
<g id="node4" class="node"><title>Node4</title>
<g id="a_node4"><a xlink:href="class_state.html" target="_top" xlink:title="State">
<polygon fill="white" stroke="red" points="72,-148.5 72,-167.5 112,-167.5 112,-148.5 72,-148.5"/>
<text text-anchor="middle" x="92" y="-155.5" font-family="Helvetica,sans-Serif" font-size="10.00">State</text>
</a>
</g>
</g>
<!-- Node3&#45;&gt;Node4 -->
<g id="edge4" class="edge"><title>Node3&#45;&gt;Node4</title>
<path fill="none" stroke="#9a32cd" stroke-dasharray="5,2" d="M52.1816,-219.899C62.6595,-203.874 77.9095,-180.55 86.1652,-167.924"/>
<polygon fill="#9a32cd" stroke="#9a32cd" points="49.1959,-218.07 46.6528,-228.355 55.0547,-221.9 49.1959,-218.07"/>
<text text-anchor="middle" x="87.5" y="-201.5" font-family="Helvetica,sans-Serif" font-size="10.00"> m_name</text>
</g>
<!-- Node4&#45;&gt;Node2 -->
<g id="edge3" class="edge"><title>Node4&#45;&gt;Node2</title>
<path fill="none" stroke="#9a32cd" stroke-dasharray="5,2" d="M79.867,-140.052C66.5245,-121.415 45.6061,-92.1958 35.2456,-77.7241"/>
<polygon fill="#9a32cd" stroke="#9a32cd" points="77.0619,-142.147 85.729,-148.241 82.7537,-138.072 77.0619,-142.147"/>
<text text-anchor="middle" x="81" y="-110" font-family="Helvetica,sans-Serif" font-size="10.00"> m_from</text>
<text text-anchor="middle" x="81" y="-99" font-family="Helvetica,sans-Serif" font-size="10.00">m_to</text>
</g>
<!-- Node4&#45;&gt;Node4 -->
<g id="edge5" class="edge"><title>Node4&#45;&gt;Node4</title>
<path fill="none" stroke="#9a32cd" stroke-dasharray="5,2" d="M122.416,-165.823C126.94,-164.604 130,-161.997 130,-158 130,-151.441 121.76,-148.623 112.329,-149.546"/>
<polygon fill="#9a32cd" stroke="#9a32cd" points="122.091,-162.336 112.329,-166.454 122.529,-169.323 122.091,-162.336"/>
<text text-anchor="middle" x="174" y="-172" font-family="Helvetica,sans-Serif" font-size="10.00"> m_currentSubState</text>
<text text-anchor="middle" x="174" y="-161" font-family="Helvetica,sans-Serif" font-size="10.00">m_initialSubState</text>
<text text-anchor="middle" x="174" y="-150" font-family="Helvetica,sans-Serif" font-size="10.00">m_finalSubState</text>
<text text-anchor="middle" x="174" y="-139" font-family="Helvetica,sans-Serif" font-size="10.00">m_parentState</text>
</g>
<!-- Node5 -->
<g id="node5" class="node"><title>Node5</title>
<g id="a_node5"><a xlink:href="class_triggerable.html" target="_top" xlink:title="Triggerable">
<polygon fill="white" stroke="black" points="77,-58.5 77,-77.5 141,-77.5 141,-58.5 77,-58.5"/>
<text text-anchor="middle" x="109" y="-65.5" font-family="Helvetica,sans-Serif" font-size="10.00">Triggerable</text>
</a>
</g>
</g>
<!-- Node5&#45;&gt;Node1 -->
<g id="edge6" class="edge"><title>Node5&#45;&gt;Node1</title>
<path fill="none" stroke="midnightblue" d="M102.422,-48.5811C98.921,-38.7787 94.7839,-27.1948 92.0376,-19.5052"/>
<polygon fill="midnightblue" stroke="midnightblue" points="99.2155,-50.0098 105.875,-58.25 105.808,-47.6554 99.2155,-50.0098"/>
</g>
</g>
</svg>
