<?xml version="1.0" encoding="UTF-8" standalone="no"?>
<!DOCTYPE svg PUBLIC "-//W3C//DTD SVG 1.1//EN"
 "http://www.w3.org/Graphics/SVG/1.1/DTD/svg11.dtd">
<!-- Generated by graphviz version 2.36.0 (20140111.2315)
 -->
<!-- Title: VoxelCollisionAccumulator Pages: 1 -->
<svg width="307pt" height="250pt"
 viewBox="0.00 0.00 307.00 250.00" xmlns="http://www.w3.org/2000/svg" xmlns:xlink="http://www.w3.org/1999/xlink">
<g id="graph0" class="graph" transform="scale(1 1) rotate(0) translate(4 246)">
<title>VoxelCollisionAccumulator</title>
<polygon fill="white" stroke="none" points="-4,4 -4,-246 303,-246 303,4 -4,4"/>
<!-- Node1 -->
<g id="node1" class="node"><title>Node1</title>
<polygon fill="#bfbfbf" stroke="black" points="-0.5,-0.5 -0.5,-19.5 132.5,-19.5 132.5,-0.5 -0.5,-0.5"/>
<text text-anchor="middle" x="66" y="-7.5" font-family="Helvetica,sans-Serif" font-size="10.00">VoxelCollisionAccumulator</text>
</g>
<!-- Node2 -->
<g id="node2" class="node"><title>Node2</title>
<polygon fill="white" stroke="#bfbfbf" points="27,-106.5 27,-125.5 155,-125.5 155,-106.5 27,-106.5"/>
<text text-anchor="middle" x="91" y="-113.5" font-family="Helvetica,sans-Serif" font-size="10.00">std::list&lt; WorldObject * &gt;</text>
</g>
<!-- Node2&#45;&gt;Node1 -->
<g id="edge1" class="edge"><title>Node2&#45;&gt;Node1</title>
<path fill="none" stroke="#9a32cd" stroke-dasharray="5,2" d="M68.084,-100.089C64.4004,-96.5918 61.1096,-92.5403 59,-88 48.3661,-65.1143 57.1259,-34.3154 62.5298,-19.5682"/>
<polygon fill="#9a32cd" stroke="#9a32cd" points="65.9741,-102.884 75.9445,-106.468 70.385,-97.4488 65.9741,-102.884"/>
<text text-anchor="middle" x="95.5" y="-75.5" font-family="Helvetica,sans-Serif" font-size="10.00"> m_worldObjects</text>
</g>
<!-- Node3 -->
<g id="node3" class="node"><title>Node3</title>
<g id="a_node3"><a xlink:href="class_world_object.html" target="_top" xlink:title="WorldObject">
<polygon fill="white" stroke="red" points="106.5,-222.5 106.5,-241.5 177.5,-241.5 177.5,-222.5 106.5,-222.5"/>
<text text-anchor="middle" x="142" y="-229.5" font-family="Helvetica,sans-Serif" font-size="10.00">WorldObject</text>
</a>
</g>
</g>
<!-- Node3&#45;&gt;Node2 -->
<g id="edge2" class="edge"><title>Node3&#45;&gt;Node2</title>
<path fill="none" stroke="#9a32cd" stroke-dasharray="5,2" d="M123.003,-215.486C119.62,-212.001 116.412,-208.107 114,-204 98.8096,-178.134 93.4673,-142.13 91.7455,-125.744"/>
<polygon fill="#9a32cd" stroke="#9a32cd" points="120.734,-218.156 130.446,-222.391 125.495,-213.024 120.734,-218.156"/>
<text text-anchor="middle" x="135.5" y="-190.5" font-family="Helvetica,sans-Serif" font-size="10.00"> elements</text>
</g>
<!-- Node5 -->
<g id="node5" class="node"><title>Node5</title>
<g id="a_node5"><a xlink:href="class_world_object_collision.html" target="_top" xlink:title="WorldObjectCollision">
<polygon fill="white" stroke="red" points="138.5,-144.5 138.5,-163.5 245.5,-163.5 245.5,-144.5 138.5,-144.5"/>
<text text-anchor="middle" x="192" y="-151.5" font-family="Helvetica,sans-Serif" font-size="10.00">WorldObjectCollision</text>
</a>
</g>
</g>
<!-- Node3&#45;&gt;Node5 -->
<g id="edge5" class="edge"><title>Node3&#45;&gt;Node5</title>
<path fill="none" stroke="#9a32cd" stroke-dasharray="5,2" d="M153.47,-213.565C163.744,-197.949 178.381,-175.7 186.331,-163.616"/>
<polygon fill="#9a32cd" stroke="#9a32cd" points="150.308,-212.004 147.736,-222.282 156.156,-215.851 150.308,-212.004"/>
<text text-anchor="middle" x="209.5" y="-196" font-family="Helvetica,sans-Serif" font-size="10.00"> m_worldObjectA</text>
<text text-anchor="middle" x="209.5" y="-185" font-family="Helvetica,sans-Serif" font-size="10.00">m_worldObjectB</text>
</g>
<!-- Node4 -->
<g id="node4" class="node"><title>Node4</title>
<polygon fill="white" stroke="#bfbfbf" points="141,-68.5 141,-87.5 299,-87.5 299,-68.5 141,-68.5"/>
<text text-anchor="middle" x="220" y="-75.5" font-family="Helvetica,sans-Serif" font-size="10.00">std::list&lt; WorldObjectCollision &gt;</text>
</g>
<!-- Node4&#45;&gt;Node1 -->
<g id="edge3" class="edge"><title>Node4&#45;&gt;Node1</title>
<path fill="none" stroke="#9a32cd" stroke-dasharray="5,2" d="M190.547,-64.3772C159.91,-51.2472 112.772,-31.0452 86.1378,-19.6305"/>
<polygon fill="#9a32cd" stroke="#9a32cd" points="189.297,-67.6494 199.867,-68.3717 192.054,-61.2154 189.297,-67.6494"/>
<text text-anchor="middle" x="211" y="-41.5" font-family="Helvetica,sans-Serif" font-size="10.00"> m_worldObjectCollisions</text>
</g>
<!-- Node5&#45;&gt;Node4 -->
<g id="edge4" class="edge"><title>Node5&#45;&gt;Node4</title>
<path fill="none" stroke="#9a32cd" stroke-dasharray="5,2" d="M198.997,-134.509C204.647,-119.575 212.348,-99.2223 216.682,-87.7679"/>
<polygon fill="#9a32cd" stroke="#9a32cd" points="195.587,-133.629 195.322,-144.221 202.134,-136.106 195.587,-133.629"/>
<text text-anchor="middle" x="230.5" y="-113.5" font-family="Helvetica,sans-Serif" font-size="10.00"> elements</text>
</g>
</g>
</svg>
