<?xml version="1.0" encoding="UTF-8" standalone="no"?>
<!DOCTYPE svg PUBLIC "-//W3C//DTD SVG 1.1//EN"
 "http://www.w3.org/Graphics/SVG/1.1/DTD/svg11.dtd">
<!-- Generated by graphviz version 2.36.0 (20140111.2315)
 -->
<!-- Title: AiGroupTask Pages: 1 -->
<svg width="195pt" height="232pt"
 viewBox="0.00 0.00 195.00 232.00" xmlns="http://www.w3.org/2000/svg" xmlns:xlink="http://www.w3.org/1999/xlink">
<g id="graph0" class="graph" transform="scale(1 1) rotate(0) translate(4 228)">
<title>AiGroupTask</title>
<polygon fill="white" stroke="none" points="-4,4 -4,-228 191,-228 191,4 -4,4"/>
<!-- Node1 -->
<g id="node1" class="node"><title>Node1</title>
<polygon fill="#bfbfbf" stroke="black" points="-0.5,-0.5 -0.5,-19.5 72.5,-19.5 72.5,-0.5 -0.5,-0.5"/>
<text text-anchor="middle" x="36" y="-7.5" font-family="Helvetica,sans-Serif" font-size="10.00">AiGroupTask</text>
</g>
<!-- Node2 -->
<g id="node2" class="node"><title>Node2</title>
<g id="a_node2"><a xlink:href="class_squad.html" target="_top" xlink:title="Squad">
<polygon fill="white" stroke="black" points="14,-68.5 14,-87.5 58,-87.5 58,-68.5 14,-68.5"/>
<text text-anchor="middle" x="36" y="-75.5" font-family="Helvetica,sans-Serif" font-size="10.00">Squad</text>
</a>
</g>
</g>
<!-- Node2&#45;&gt;Node1 -->
<g id="edge1" class="edge"><title>Node2&#45;&gt;Node1</title>
<path fill="none" stroke="#9a32cd" stroke-dasharray="5,2" d="M36,-58.0413C36,-45.4724 36,-29.5631 36,-19.8411"/>
<polygon fill="#9a32cd" stroke="#9a32cd" points="32.5001,-58.3716 36,-68.3717 39.5001,-58.3717 32.5001,-58.3716"/>
<text text-anchor="middle" x="57.5" y="-41.5" font-family="Helvetica,sans-Serif" font-size="10.00"> m_squad</text>
</g>
<!-- Node3 -->
<g id="node3" class="node"><title>Node3</title>
<g id="a_node3"><a xlink:href="class_ship.html" target="_top" xlink:title="Ship">
<polygon fill="white" stroke="red" points="38,-204.5 38,-223.5 74,-223.5 74,-204.5 38,-204.5"/>
<text text-anchor="middle" x="56" y="-211.5" font-family="Helvetica,sans-Serif" font-size="10.00">Ship</text>
</a>
</g>
</g>
<!-- Node3&#45;&gt;Node2 -->
<g id="edge2" class="edge"><title>Node3&#45;&gt;Node2</title>
<path fill="none" stroke="#9a32cd" stroke-dasharray="5,2" d="M45.1078,-195.3C39.0534,-184.405 32.1267,-169.905 29,-156 23.5225,-131.641 29.6998,-102.031 33.4875,-87.6592"/>
<polygon fill="#9a32cd" stroke="#9a32cd" points="42.2236,-197.302 50.2887,-204.173 48.2685,-193.772 42.2236,-197.302"/>
<text text-anchor="middle" x="50.5" y="-143.5" font-family="Helvetica,sans-Serif" font-size="10.00"> m_leader</text>
</g>
<!-- Node4 -->
<g id="node4" class="node"><title>Node4</title>
<polygon fill="white" stroke="#bfbfbf" points="81,-136.5 81,-155.5 187,-155.5 187,-136.5 81,-136.5"/>
<text text-anchor="middle" x="134" y="-143.5" font-family="Helvetica,sans-Serif" font-size="10.00">std::vector&lt; Ship * &gt;</text>
</g>
<!-- Node3&#45;&gt;Node4 -->
<g id="edge4" class="edge"><title>Node3&#45;&gt;Node4</title>
<path fill="none" stroke="#9a32cd" stroke-dasharray="5,2" d="M73.9939,-197.774C89.3466,-184.784 110.889,-166.555 123.551,-155.841"/>
<polygon fill="#9a32cd" stroke="#9a32cd" points="71.5702,-195.24 66.1971,-204.372 76.0918,-200.584 71.5702,-195.24"/>
<text text-anchor="middle" x="122.5" y="-177.5" font-family="Helvetica,sans-Serif" font-size="10.00"> elements</text>
</g>
<!-- Node4&#45;&gt;Node2 -->
<g id="edge3" class="edge"><title>Node4&#45;&gt;Node2</title>
<path fill="none" stroke="#9a32cd" stroke-dasharray="5,2" d="M112.668,-130.634C93.1882,-117.515 65.0303,-98.551 48.8149,-87.6305"/>
<polygon fill="#9a32cd" stroke="#9a32cd" points="110.939,-133.689 121.188,-136.372 114.849,-127.883 110.939,-133.689"/>
<text text-anchor="middle" x="122" y="-109.5" font-family="Helvetica,sans-Serif" font-size="10.00"> m_members</text>
</g>
</g>
</svg>
