<?xml version="1.0" encoding="UTF-8" standalone="no"?>
<!DOCTYPE svg PUBLIC "-//W3C//DTD SVG 1.1//EN"
 "http://www.w3.org/Graphics/SVG/1.1/DTD/svg11.dtd">
<!-- Generated by graphviz version 2.36.0 (20140111.2315)
 -->
<!-- Title: GameState Pages: 1 -->
<svg width="361pt" height="140pt"
 viewBox="0.00 0.00 361.00 140.00" xmlns="http://www.w3.org/2000/svg" xmlns:xlink="http://www.w3.org/1999/xlink">
<g id="graph0" class="graph" transform="scale(1 1) rotate(0) translate(4 136)">
<title>GameState</title>
<polygon fill="white" stroke="none" points="-4,4 -4,-136 357,-136 357,4 -4,4"/>
<!-- Node1 -->
<g id="node1" class="node"><title>Node1</title>
<polygon fill="#bfbfbf" stroke="black" points="107,-56.5 107,-75.5 173,-75.5 173,-56.5 107,-56.5"/>
<text text-anchor="middle" x="140" y="-63.5" font-family="Helvetica,sans-Serif" font-size="10.00">GameState</text>
</g>
<!-- Node3 -->
<g id="node3" class="node"><title>Node3</title>
<g id="a_node3"><a xlink:href="class_game.html" target="_top" xlink:title="Game">
<polygon fill="white" stroke="black" points="-0.5,-0.5 -0.5,-19.5 42.5,-19.5 42.5,-0.5 -0.5,-0.5"/>
<text text-anchor="middle" x="21" y="-7.5" font-family="Helvetica,sans-Serif" font-size="10.00">Game</text>
</a>
</g>
</g>
<!-- Node1&#45;&gt;Node3 -->
<g id="edge2" class="edge"><title>Node1&#45;&gt;Node3</title>
<path fill="none" stroke="midnightblue" d="M111.863,-52.2321C89.6039,-42.1312 59.1442,-28.3091 39.7677,-19.5164"/>
<polygon fill="midnightblue" stroke="midnightblue" points="110.591,-55.4984 121.144,-56.4435 113.484,-49.124 110.591,-55.4984"/>
</g>
<!-- Node4 -->
<g id="node4" class="node"><title>Node4</title>
<g id="a_node4"><a xlink:href="class_game_play.html" target="_top" xlink:title="GamePlay">
<polygon fill="white" stroke="black" points="61,-0.5 61,-19.5 123,-19.5 123,-0.5 61,-0.5"/>
<text text-anchor="middle" x="92" y="-7.5" font-family="Helvetica,sans-Serif" font-size="10.00">GamePlay</text>
</a>
</g>
</g>
<!-- Node1&#45;&gt;Node4 -->
<g id="edge3" class="edge"><title>Node1&#45;&gt;Node4</title>
<path fill="none" stroke="midnightblue" d="M125.272,-48.4314C116.86,-38.9673 106.651,-27.4827 99.7787,-19.7511"/>
<polygon fill="midnightblue" stroke="midnightblue" points="122.814,-50.9342 132.074,-56.083 128.046,-46.2836 122.814,-50.9342"/>
</g>
<!-- Node5 -->
<g id="node5" class="node"><title>Node5</title>
<g id="a_node5"><a xlink:href="class_game_play_paused.html" target="_top" xlink:title="GamePlayPaused">
<polygon fill="white" stroke="black" points="141.5,-0.5 141.5,-19.5 236.5,-19.5 236.5,-0.5 141.5,-0.5"/>
<text text-anchor="middle" x="189" y="-7.5" font-family="Helvetica,sans-Serif" font-size="10.00">GamePlayPaused</text>
</a>
</g>
</g>
<!-- Node1&#45;&gt;Node5 -->
<g id="edge4" class="edge"><title>Node1&#45;&gt;Node5</title>
<path fill="none" stroke="midnightblue" d="M155.034,-48.4314C163.622,-38.9673 174.043,-27.4827 181.059,-19.7511"/>
<polygon fill="midnightblue" stroke="midnightblue" points="152.219,-46.3254 148.091,-56.083 157.403,-51.0293 152.219,-46.3254"/>
</g>
<!-- Node6 -->
<g id="node6" class="node"><title>Node6</title>
<g id="a_node6"><a xlink:href="class_game_play_running.html" target="_top" xlink:title="GamePlayRunning">
<polygon fill="white" stroke="black" points="255,-0.5 255,-19.5 353,-19.5 353,-0.5 255,-0.5"/>
<text text-anchor="middle" x="304" y="-7.5" font-family="Helvetica,sans-Serif" font-size="10.00">GamePlayRunning</text>
</a>
</g>
</g>
<!-- Node1&#45;&gt;Node6 -->
<g id="edge5" class="edge"><title>Node1&#45;&gt;Node6</title>
<path fill="none" stroke="midnightblue" d="M175.52,-53.3044C206.422,-43.1294 250.473,-28.6246 278.135,-19.5164"/>
<polygon fill="midnightblue" stroke="midnightblue" points="174.39,-49.9915 165.986,-56.4435 176.579,-56.6404 174.39,-49.9915"/>
</g>
<!-- Node2 -->
<g id="node2" class="node"><title>Node2</title>
<g id="a_node2"><a xlink:href="class_state.html" target="_top" xlink:title="State">
<polygon fill="white" stroke="black" points="120,-112.5 120,-131.5 160,-131.5 160,-112.5 120,-112.5"/>
<text text-anchor="middle" x="140" y="-119.5" font-family="Helvetica,sans-Serif" font-size="10.00">State</text>
</a>
</g>
</g>
<!-- Node2&#45;&gt;Node1 -->
<g id="edge1" class="edge"><title>Node2&#45;&gt;Node1</title>
<path fill="none" stroke="midnightblue" d="M140,-101.805C140,-92.9102 140,-82.7798 140,-75.7511"/>
<polygon fill="midnightblue" stroke="midnightblue" points="136.5,-102.083 140,-112.083 143.5,-102.083 136.5,-102.083"/>
</g>
</g>
</svg>
