<?xml version="1.0" encoding="UTF-8" standalone="no"?>
<!DOCTYPE svg PUBLIC "-//W3C//DTD SVG 1.1//EN"
 "http://www.w3.org/Graphics/SVG/1.1/DTD/svg11.dtd">
<!-- Generated by graphviz version 2.36.0 (20140111.2315)
 -->
<!-- Title: VoxelCluster Pages: 1 -->
<svg width="319pt" height="140pt"
 viewBox="0.00 0.00 319.00 140.00" xmlns="http://www.w3.org/2000/svg" xmlns:xlink="http://www.w3.org/1999/xlink">
<g id="graph0" class="graph" transform="scale(1 1) rotate(0) translate(4 136)">
<title>VoxelCluster</title>
<polygon fill="white" stroke="none" points="-4,4 -4,-136 315,-136 315,4 -4,4"/>
<!-- Node1 -->
<g id="node1" class="node"><title>Node1</title>
<polygon fill="#bfbfbf" stroke="black" points="97,-112.5 97,-131.5 169,-131.5 169,-112.5 97,-112.5"/>
<text text-anchor="middle" x="133" y="-119.5" font-family="Helvetica,sans-Serif" font-size="10.00">VoxelCluster</text>
</g>
<!-- Node2 -->
<g id="node2" class="node"><title>Node2</title>
<g id="a_node2"><a xlink:href="class_cross_hair_element.html" target="_top" xlink:title="CrossHairElement">
<polygon fill="white" stroke="black" points="-0.5,-56.5 -0.5,-75.5 94.5,-75.5 94.5,-56.5 -0.5,-56.5"/>
<text text-anchor="middle" x="47" y="-63.5" font-family="Helvetica,sans-Serif" font-size="10.00">CrossHairElement</text>
</a>
</g>
</g>
<!-- Node1&#45;&gt;Node2 -->
<g id="edge1" class="edge"><title>Node1&#45;&gt;Node2</title>
<path fill="none" stroke="midnightblue" d="M110.545,-106.901C94.7756,-96.9986 74.1864,-84.0705 60.7831,-75.6545"/>
<polygon fill="midnightblue" stroke="midnightblue" points="108.852,-109.97 119.183,-112.324 112.575,-104.042 108.852,-109.97"/>
</g>
<!-- Node3 -->
<g id="node3" class="node"><title>Node3</title>
<g id="a_node3"><a xlink:href="class_letter.html" target="_top" xlink:title="Letter">
<polygon fill="white" stroke="black" points="112.5,-56.5 112.5,-75.5 153.5,-75.5 153.5,-56.5 112.5,-56.5"/>
<text text-anchor="middle" x="133" y="-63.5" font-family="Helvetica,sans-Serif" font-size="10.00">Letter</text>
</a>
</g>
</g>
<!-- Node1&#45;&gt;Node3 -->
<g id="edge2" class="edge"><title>Node1&#45;&gt;Node3</title>
<path fill="none" stroke="midnightblue" d="M133,-101.805C133,-92.9102 133,-82.7798 133,-75.7511"/>
<polygon fill="midnightblue" stroke="midnightblue" points="129.5,-102.083 133,-112.083 136.5,-102.083 129.5,-102.083"/>
</g>
<!-- Node4 -->
<g id="node4" class="node"><title>Node4</title>
<g id="a_node4"><a xlink:href="class_world_object.html" target="_top" xlink:title="WorldObject">
<polygon fill="white" stroke="black" points="171.5,-56.5 171.5,-75.5 242.5,-75.5 242.5,-56.5 171.5,-56.5"/>
<text text-anchor="middle" x="207" y="-63.5" font-family="Helvetica,sans-Serif" font-size="10.00">WorldObject</text>
</a>
</g>
</g>
<!-- Node1&#45;&gt;Node4 -->
<g id="edge3" class="edge"><title>Node1&#45;&gt;Node4</title>
<path fill="none" stroke="midnightblue" d="M153.034,-106.38C166.409,-96.6204 183.559,-84.1057 194.894,-75.8339"/>
<polygon fill="midnightblue" stroke="midnightblue" points="150.904,-103.602 144.889,-112.324 155.03,-109.257 150.904,-103.602"/>
</g>
<!-- Node5 -->
<g id="node5" class="node"><title>Node5</title>
<g id="a_node5"><a xlink:href="class_generic_world_object.html" target="_top" xlink:title="GenericWorldObject">
<polygon fill="white" stroke="black" points="23,-0.5 23,-19.5 127,-19.5 127,-0.5 23,-0.5"/>
<text text-anchor="middle" x="75" y="-7.5" font-family="Helvetica,sans-Serif" font-size="10.00">GenericWorldObject</text>
</a>
</g>
</g>
<!-- Node4&#45;&gt;Node5 -->
<g id="edge4" class="edge"><title>Node4&#45;&gt;Node5</title>
<path fill="none" stroke="midnightblue" d="M176.781,-52.6377C152.01,-42.504 117.6,-28.4274 95.8179,-19.5164"/>
<polygon fill="midnightblue" stroke="midnightblue" points="175.503,-55.8966 186.084,-56.4435 178.154,-49.4177 175.503,-55.8966"/>
</g>
<!-- Node6 -->
<g id="node6" class="node"><title>Node6</title>
<g id="a_node6"><a xlink:href="class_projectile.html" target="_top" xlink:title="Projectile">
<polygon fill="white" stroke="red" points="145.5,-0.5 145.5,-19.5 202.5,-19.5 202.5,-0.5 145.5,-0.5"/>
<text text-anchor="middle" x="174" y="-7.5" font-family="Helvetica,sans-Serif" font-size="10.00">Projectile</text>
</a>
</g>
</g>
<!-- Node4&#45;&gt;Node6 -->
<g id="edge5" class="edge"><title>Node4&#45;&gt;Node6</title>
<path fill="none" stroke="midnightblue" d="M196.168,-47.2747C190.528,-38.0454 183.882,-27.1703 179.348,-19.7511"/>
<polygon fill="midnightblue" stroke="midnightblue" points="193.35,-49.3753 201.551,-56.083 199.323,-45.7251 193.35,-49.3753"/>
</g>
<!-- Node7 -->
<g id="node7" class="node"><title>Node7</title>
<g id="a_node7"><a xlink:href="class_ship.html" target="_top" xlink:title="Ship">
<polygon fill="white" stroke="red" points="221,-0.5 221,-19.5 257,-19.5 257,-0.5 221,-0.5"/>
<text text-anchor="middle" x="239" y="-7.5" font-family="Helvetica,sans-Serif" font-size="10.00">Ship</text>
</a>
</g>
</g>
<!-- Node4&#45;&gt;Node7 -->
<g id="edge6" class="edge"><title>Node4&#45;&gt;Node7</title>
<path fill="none" stroke="midnightblue" d="M217.504,-47.2747C222.973,-38.0454 229.418,-27.1703 233.814,-19.7511"/>
<polygon fill="midnightblue" stroke="midnightblue" points="214.371,-45.6957 212.284,-56.083 220.393,-49.2644 214.371,-45.6957"/>
</g>
<!-- Node8 -->
<g id="node8" class="node"><title>Node8</title>
<g id="a_node8"><a xlink:href="class_split.html" target="_top" xlink:title="Split">
<polygon fill="white" stroke="black" points="275,-0.5 275,-19.5 311,-19.5 311,-0.5 275,-0.5"/>
<text text-anchor="middle" x="293" y="-7.5" font-family="Helvetica,sans-Serif" font-size="10.00">Split</text>
</a>
</g>
</g>
<!-- Node4&#45;&gt;Node8 -->
<g id="edge7" class="edge"><title>Node4&#45;&gt;Node8</title>
<path fill="none" stroke="midnightblue" d="M229.455,-50.9005C245.224,-40.9986 265.814,-28.0705 279.217,-19.6545"/>
<polygon fill="midnightblue" stroke="midnightblue" points="227.425,-48.0421 220.817,-56.324 231.148,-53.9704 227.425,-48.0421"/>
</g>
</g>
</svg>
