<?xml version="1.0" encoding="UTF-8" standalone="no"?>
<!DOCTYPE svg PUBLIC "-//W3C//DTD SVG 1.1//EN"
 "http://www.w3.org/Graphics/SVG/1.1/DTD/svg11.dtd">
<!-- Generated by graphviz version 2.36.0 (20140111.2315)
 -->
<!-- Title: ArrowHudgetVoxels Pages: 1 -->
<svg width="994pt" height="244pt"
 viewBox="0.00 0.00 994.00 244.00" xmlns="http://www.w3.org/2000/svg" xmlns:xlink="http://www.w3.org/1999/xlink">
<g id="graph0" class="graph" transform="scale(1 1) rotate(0) translate(4 240)">
<title>ArrowHudgetVoxels</title>
<polygon fill="white" stroke="none" points="-4,4 -4,-240 990,-240 990,4 -4,4"/>
<!-- Node1 -->
<g id="node1" class="node"><title>Node1</title>
<polygon fill="#bfbfbf" stroke="black" points="488,-56.5 488,-75.5 590,-75.5 590,-56.5 488,-56.5"/>
<text text-anchor="middle" x="539" y="-63.5" font-family="Helvetica,sans-Serif" font-size="10.00">ArrowHudgetVoxels</text>
</g>
<!-- Node11 -->
<g id="node11" class="node"><title>Node11</title>
<polygon fill="white" stroke="#bfbfbf" points="644,-80 644,-110 790,-110 790,-80 644,-80"/>
<text text-anchor="start" x="652" y="-98" font-family="Helvetica,sans-Serif" font-size="10.00">std::unique_ptr&lt; ArrowHudget</text>
<text text-anchor="middle" x="717" y="-87" font-family="Helvetica,sans-Serif" font-size="10.00">Voxels &gt;</text>
</g>
<!-- Node1&#45;&gt;Node11 -->
<g id="edge11" class="edge"><title>Node1&#45;&gt;Node11</title>
<path fill="none" stroke="#9a32cd" stroke-dasharray="5,2" d="M600.425,-75.9564C614.429,-78.2639 629.47,-80.7422 643.918,-83.1229"/>
<polygon fill="#9a32cd" stroke="#9a32cd" points="600.871,-72.4827 590.435,-74.3102 599.732,-79.3896 600.871,-72.4827"/>
<text text-anchor="middle" x="616" y="-83" font-family="Helvetica,sans-Serif" font-size="10.00"> ptr</text>
</g>
<!-- Node2 -->
<g id="node2" class="node"><title>Node2</title>
<g id="a_node2"><a xlink:href="class_voxel_cluster.html" target="_top" xlink:title="VoxelCluster">
<polygon fill="white" stroke="black" points="281,-76.5 281,-95.5 353,-95.5 353,-76.5 281,-76.5"/>
<text text-anchor="middle" x="317" y="-83.5" font-family="Helvetica,sans-Serif" font-size="10.00">VoxelCluster</text>
</a>
</g>
</g>
<!-- Node2&#45;&gt;Node1 -->
<g id="edge1" class="edge"><title>Node2&#45;&gt;Node1</title>
<path fill="none" stroke="#9a32cd" stroke-dasharray="5,2" d="M363.643,-81.8507C399.922,-78.5525 450.608,-73.9447 487.984,-70.5469"/>
<polygon fill="#9a32cd" stroke="#9a32cd" points="362.989,-78.3956 353.347,-82.7867 363.623,-85.3668 362.989,-78.3956"/>
<text text-anchor="middle" x="425" y="-84" font-family="Helvetica,sans-Serif" font-size="10.00"> m_arrow</text>
</g>
<!-- Node3 -->
<g id="node3" class="node"><title>Node3</title>
<polygon fill="white" stroke="#bfbfbf" points="0,-137 0,-167 146,-167 146,-137 0,-137"/>
<text text-anchor="start" x="8" y="-155" font-family="Helvetica,sans-Serif" font-size="10.00">std::unique_ptr&lt; VoxelRender</text>
<text text-anchor="middle" x="73" y="-144" font-family="Helvetica,sans-Serif" font-size="10.00">Data &gt;</text>
</g>
<!-- Node3&#45;&gt;Node2 -->
<g id="edge2" class="edge"><title>Node3&#45;&gt;Node2</title>
<path fill="none" stroke="#9a32cd" stroke-dasharray="5,2" d="M156.321,-139.284C187.361,-133.399 222.713,-125.373 254,-115 269.566,-109.84 286.366,-101.816 298.547,-95.5151"/>
<polygon fill="#9a32cd" stroke="#9a32cd" points="155.601,-135.858 146.406,-141.12 156.876,-142.741 155.601,-135.858"/>
<text text-anchor="middle" x="209" y="-141" font-family="Helvetica,sans-Serif" font-size="10.00"> m_voxelRenderData</text>
</g>
<!-- Node4 -->
<g id="node4" class="node"><title>Node4</title>
<g id="a_node4"><a xlink:href="class_transform.html" target="_top" xlink:title="Transform">
<polygon fill="white" stroke="black" points="43.5,-98.5 43.5,-117.5 102.5,-117.5 102.5,-98.5 43.5,-98.5"/>
<text text-anchor="middle" x="73" y="-105.5" font-family="Helvetica,sans-Serif" font-size="10.00">Transform</text>
</a>
</g>
</g>
<!-- Node4&#45;&gt;Node2 -->
<g id="edge3" class="edge"><title>Node4&#45;&gt;Node2</title>
<path fill="none" stroke="#9a32cd" stroke-dasharray="5,2" d="M112.958,-104.458C159.299,-100.246 235.988,-93.2738 280.672,-89.2117"/>
<polygon fill="#9a32cd" stroke="#9a32cd" points="112.353,-100.999 102.711,-105.39 112.987,-107.97 112.353,-100.999"/>
<text text-anchor="middle" x="209" y="-103" font-family="Helvetica,sans-Serif" font-size="10.00"> m_transform</text>
</g>
<!-- Node5 -->
<g id="node5" class="node"><title>Node5</title>
<polygon fill="white" stroke="#bfbfbf" points="15,-49 15,-79 131,-79 131,-49 15,-49"/>
<text text-anchor="start" x="23" y="-67" font-family="Helvetica,sans-Serif" font-size="10.00">std::unordered_map</text>
<text text-anchor="middle" x="73" y="-56" font-family="Helvetica,sans-Serif" font-size="10.00">&lt; glm::ivec3, Voxel * &gt;</text>
</g>
<!-- Node5&#45;&gt;Node2 -->
<g id="edge4" class="edge"><title>Node5&#45;&gt;Node2</title>
<path fill="none" stroke="#9a32cd" stroke-dasharray="5,2" d="M141.483,-67.7181C175.313,-69.8756 216.88,-72.9706 254,-77 262.759,-77.9507 272.182,-79.2009 280.972,-80.4657"/>
<polygon fill="#9a32cd" stroke="#9a32cd" points="141.445,-64.209 131.246,-67.0787 141.009,-71.1954 141.445,-64.209"/>
<text text-anchor="middle" x="209" y="-80" font-family="Helvetica,sans-Serif" font-size="10.00"> m_voxels</text>
</g>
<!-- Node6 -->
<g id="node6" class="node"><title>Node6</title>
<polygon fill="white" stroke="#bfbfbf" points="0,-0 0,-30 146,-30 146,-0 0,-0"/>
<text text-anchor="start" x="8" y="-18" font-family="Helvetica,sans-Serif" font-size="10.00">std::unique_ptr&lt; VoxelCluster</text>
<text text-anchor="middle" x="73" y="-7" font-family="Helvetica,sans-Serif" font-size="10.00">Bounds &gt;</text>
</g>
<!-- Node6&#45;&gt;Node2 -->
<g id="edge5" class="edge"><title>Node6&#45;&gt;Node2</title>
<path fill="none" stroke="#9a32cd" stroke-dasharray="5,2" d="M156.431,-26.7001C187.78,-32.8429 223.314,-41.9052 254,-55 262.843,-58.7737 263.552,-62.4088 272,-67 278.141,-70.3375 284.989,-73.5304 291.42,-76.3143"/>
<polygon fill="#9a32cd" stroke="#9a32cd" points="156.887,-23.2245 146.411,-24.8068 155.588,-30.1027 156.887,-23.2245"/>
<text text-anchor="middle" x="209" y="-58" font-family="Helvetica,sans-Serif" font-size="10.00"> m_bounds</text>
</g>
<!-- Node7 -->
<g id="node7" class="node"><title>Node7</title>
<g id="a_node7"><a xlink:href="class_property.html" target="_top" xlink:title="Property\&lt; float \&gt;">
<polygon fill="white" stroke="red" points="272.5,-38.5 272.5,-57.5 361.5,-57.5 361.5,-38.5 272.5,-38.5"/>
<text text-anchor="middle" x="317" y="-45.5" font-family="Helvetica,sans-Serif" font-size="10.00">Property&lt; float &gt;</text>
</a>
</g>
</g>
<!-- Node7&#45;&gt;Node1 -->
<g id="edge6" class="edge"><title>Node7&#45;&gt;Node1</title>
<path fill="none" stroke="#9a32cd" stroke-dasharray="5,2" d="M372.098,-46.4834C401.206,-46.3173 437.671,-47.1535 470,-51 480.204,-52.2141 491.129,-54.2756 501.17,-56.488"/>
<polygon fill="#9a32cd" stroke="#9a32cd" points="371.693,-42.9872 361.728,-46.5863 371.762,-49.9868 371.693,-42.9872"/>
<text text-anchor="middle" x="425" y="-54" font-family="Helvetica,sans-Serif" font-size="10.00"> prop_arrowDistance</text>
</g>
<!-- Node8 -->
<g id="node8" class="node"><title>Node8</title>
<g id="a_node8"><a xlink:href="class_object_hudget.html" target="_top" xlink:title="ObjectHudget">
<polygon fill="white" stroke="black" points="910,-134.5 910,-153.5 986,-153.5 986,-134.5 910,-134.5"/>
<text text-anchor="middle" x="948" y="-141.5" font-family="Helvetica,sans-Serif" font-size="10.00">ObjectHudget</text>
</a>
</g>
</g>
<!-- Node8&#45;&gt;Node1 -->
<g id="edge7" class="edge"><title>Node8&#45;&gt;Node1</title>
<path fill="none" stroke="#9a32cd" stroke-dasharray="5,2" d="M926.879,-128.167C898.672,-107.148 844.876,-71.2585 792,-59 723.569,-43.1355 641.89,-49.9151 590.474,-57.1811"/>
<polygon fill="#9a32cd" stroke="#9a32cd" points="925.026,-131.154 935.105,-134.42 929.262,-125.582 925.026,-131.154"/>
<text text-anchor="middle" x="717" y="-62" font-family="Helvetica,sans-Serif" font-size="10.00"> m_hudget</text>
</g>
<!-- Node9 -->
<g id="node9" class="node"><title>Node9</title>
<g id="a_node9"><a xlink:href="class_hudget.html" target="_top" xlink:title="Hudget">
<polygon fill="white" stroke="red" points="693.5,-216.5 693.5,-235.5 740.5,-235.5 740.5,-216.5 693.5,-216.5"/>
<text text-anchor="middle" x="717" y="-223.5" font-family="Helvetica,sans-Serif" font-size="10.00">Hudget</text>
</a>
</g>
</g>
<!-- Node9&#45;&gt;Node8 -->
<g id="edge8" class="edge"><title>Node9&#45;&gt;Node8</title>
<path fill="none" stroke="midnightblue" d="M750.531,-224.023C786.673,-220.771 845.994,-212.239 892,-190 910.604,-181.007 928.207,-164.335 938.285,-153.724"/>
<polygon fill="midnightblue" stroke="midnightblue" points="750.222,-220.536 740.541,-224.84 750.793,-227.513 750.222,-220.536"/>
</g>
<!-- Node10 -->
<g id="node10" class="node"><title>Node10</title>
<g id="a_node10"><a xlink:href="class_h_u_d_object_delegate.html" target="_top" xlink:title="HUDObjectDelegate">
<polygon fill="white" stroke="red" points="665,-178.5 665,-197.5 769,-197.5 769,-178.5 665,-178.5"/>
<text text-anchor="middle" x="717" y="-185.5" font-family="Helvetica,sans-Serif" font-size="10.00">HUDObjectDelegate</text>
</a>
</g>
</g>
<!-- Node10&#45;&gt;Node8 -->
<g id="edge9" class="edge"><title>Node10&#45;&gt;Node8</title>
<path fill="none" stroke="#9a32cd" stroke-dasharray="5,2" d="M779.363,-179.323C812.816,-174.204 854.858,-167.138 892,-159 899.251,-157.411 906.974,-155.466 914.27,-153.509"/>
<polygon fill="#9a32cd" stroke="#9a32cd" points="778.637,-175.893 769.272,-180.848 779.683,-182.814 778.637,-175.893"/>
<text text-anchor="middle" x="851" y="-178" font-family="Helvetica,sans-Serif" font-size="10.00"> m_objectDelegate</text>
</g>
<!-- Node11&#45;&gt;Node8 -->
<g id="edge10" class="edge"><title>Node11&#45;&gt;Node8</title>
<path fill="none" stroke="#9a32cd" stroke-dasharray="5,2" d="M800.323,-109.804C829.39,-115.369 862.24,-122.044 892,-129 899.035,-130.644 906.531,-132.571 913.652,-134.484"/>
<polygon fill="#9a32cd" stroke="#9a32cd" points="800.688,-106.311 790.211,-107.883 799.382,-113.188 800.688,-106.311"/>
<text text-anchor="middle" x="851" y="-132" font-family="Helvetica,sans-Serif" font-size="10.00"> m_arrowVoxels</text>
</g>
<!-- Node12 -->
<g id="node12" class="node"><title>Node12</title>
<polygon fill="white" stroke="#bfbfbf" points="642.5,-129 642.5,-159 791.5,-159 791.5,-129 642.5,-129"/>
<text text-anchor="start" x="650.5" y="-147" font-family="Helvetica,sans-Serif" font-size="10.00">std::unique_ptr&lt; ObjectHudget</text>
<text text-anchor="middle" x="717" y="-136" font-family="Helvetica,sans-Serif" font-size="10.00">Voxels &gt;</text>
</g>
<!-- Node12&#45;&gt;Node8 -->
<g id="edge12" class="edge"><title>Node12&#45;&gt;Node8</title>
<path fill="none" stroke="#9a32cd" stroke-dasharray="5,2" d="M802.048,-144C839.159,-144 880.872,-144 909.989,-144"/>
<polygon fill="#9a32cd" stroke="#9a32cd" points="801.718,-140.5 791.718,-144 801.718,-147.5 801.718,-140.5"/>
<text text-anchor="middle" x="851" y="-147" font-family="Helvetica,sans-Serif" font-size="10.00"> m_objectVoxels</text>
</g>
</g>
</svg>
