<?xml version="1.0" encoding="UTF-8" standalone="no"?>
<!DOCTYPE svg PUBLIC "-//W3C//DTD SVG 1.1//EN"
 "http://www.w3.org/Graphics/SVG/1.1/DTD/svg11.dtd">
<!-- Generated by graphviz version 2.36.0 (20140111.2315)
 -->
<!-- Title: AimHelperHudget Pages: 1 -->
<svg width="336pt" height="302pt"
 viewBox="0.00 0.00 336.00 302.00" xmlns="http://www.w3.org/2000/svg" xmlns:xlink="http://www.w3.org/1999/xlink">
<g id="graph0" class="graph" transform="scale(1 1) rotate(0) translate(4 298)">
<title>AimHelperHudget</title>
<polygon fill="white" stroke="none" points="-4,4 -4,-298 332,-298 332,4 -4,4"/>
<!-- Node1 -->
<g id="node1" class="node"><title>Node1</title>
<polygon fill="#bfbfbf" stroke="black" points="74,-148.5 74,-167.5 166,-167.5 166,-148.5 74,-148.5"/>
<text text-anchor="middle" x="120" y="-155.5" font-family="Helvetica,sans-Serif" font-size="10.00">AimHelperHudget</text>
</g>
<!-- Node5 -->
<g id="node5" class="node"><title>Node5</title>
<g id="a_node5"><a xlink:href="class_aim_helper_hudget_voxels.html" target="_top" xlink:title="AimHelperHudgetVoxels">
<polygon fill="white" stroke="red" points="11,-80.5 11,-99.5 133,-99.5 133,-80.5 11,-80.5"/>
<text text-anchor="middle" x="72" y="-87.5" font-family="Helvetica,sans-Serif" font-size="10.00">AimHelperHudgetVoxels</text>
</a>
</g>
</g>
<!-- Node1&#45;&gt;Node5 -->
<g id="edge5" class="edge"><title>Node1&#45;&gt;Node5</title>
<path fill="none" stroke="#9a32cd" stroke-dasharray="5,2" d="M81.7404,-143.55C76.2673,-139.985 71.3621,-135.534 68,-130 62.4163,-120.809 65.2486,-108.107 68.2354,-99.7294"/>
<polygon fill="#9a32cd" stroke="#9a32cd" points="80.2179,-146.707 90.6683,-148.451 83.5862,-140.571 80.2179,-146.707"/>
<text text-anchor="middle" x="113.5" y="-121.5" font-family="Helvetica,sans-Serif" font-size="10.00"> m_aimHelperHudget</text>
</g>
<!-- Node2 -->
<g id="node2" class="node"><title>Node2</title>
<g id="a_node2"><a xlink:href="class_circular_hudget.html" target="_top" xlink:title="CircularHudget">
<polygon fill="white" stroke="black" points="0,-216.5 0,-235.5 80,-235.5 80,-216.5 0,-216.5"/>
<text text-anchor="middle" x="40" y="-223.5" font-family="Helvetica,sans-Serif" font-size="10.00">CircularHudget</text>
</a>
</g>
</g>
<!-- Node2&#45;&gt;Node1 -->
<g id="edge1" class="edge"><title>Node2&#45;&gt;Node1</title>
<path fill="none" stroke="midnightblue" d="M58.5039,-209.734C74.3508,-196.661 96.6013,-178.304 109.539,-167.63"/>
<polygon fill="midnightblue" stroke="midnightblue" points="55.945,-207.308 50.4586,-216.372 60.3997,-212.708 55.945,-207.308"/>
</g>
<!-- Node3 -->
<g id="node3" class="node"><title>Node3</title>
<g id="a_node3"><a xlink:href="class_hudget.html" target="_top" xlink:title="Hudget">
<polygon fill="white" stroke="red" points="16.5,-274.5 16.5,-293.5 63.5,-293.5 63.5,-274.5 16.5,-274.5"/>
<text text-anchor="middle" x="40" y="-281.5" font-family="Helvetica,sans-Serif" font-size="10.00">Hudget</text>
</a>
</g>
</g>
<!-- Node3&#45;&gt;Node2 -->
<g id="edge2" class="edge"><title>Node3&#45;&gt;Node2</title>
<path fill="none" stroke="midnightblue" d="M40,-263.953C40,-254.287 40,-243.031 40,-235.505"/>
<polygon fill="midnightblue" stroke="midnightblue" points="36.5001,-264.25 40,-274.25 43.5001,-264.25 36.5001,-264.25"/>
</g>
<!-- Node4 -->
<g id="node4" class="node"><title>Node4</title>
<polygon fill="white" stroke="#bfbfbf" points="72.5,-1 72.5,-31 207.5,-31 207.5,-1 72.5,-1"/>
<text text-anchor="start" x="80.5" y="-19" font-family="Helvetica,sans-Serif" font-size="10.00">std::unique_ptr&lt; AimHelper</text>
<text text-anchor="middle" x="140" y="-8" font-family="Helvetica,sans-Serif" font-size="10.00">HudgetVoxels &gt;</text>
</g>
<!-- Node4&#45;&gt;Node1 -->
<g id="edge3" class="edge"><title>Node4&#45;&gt;Node1</title>
<path fill="none" stroke="#9a32cd" stroke-dasharray="5,2" d="M152.049,-40.4139C162.517,-64.2499 173.865,-101.63 159,-130 154.872,-137.878 147.286,-143.914 139.894,-148.261"/>
<polygon fill="#9a32cd" stroke="#9a32cd" points="155.098,-38.6723 147.695,-31.0934 148.756,-41.635 155.098,-38.6723"/>
<text text-anchor="middle" x="189" y="-87.5" font-family="Helvetica,sans-Serif" font-size="10.00"> m_voxels</text>
</g>
<!-- Node5&#45;&gt;Node4 -->
<g id="edge4" class="edge"><title>Node5&#45;&gt;Node4</title>
<path fill="none" stroke="#9a32cd" stroke-dasharray="5,2" d="M87.0902,-73.0221C98.9055,-60.5118 115.188,-43.2711 126.559,-31.2316"/>
<polygon fill="#9a32cd" stroke="#9a32cd" points="84.3892,-70.7846 80.0675,-80.4579 89.4783,-75.591 84.3892,-70.7846"/>
<text text-anchor="middle" x="116.5" y="-53.5" font-family="Helvetica,sans-Serif" font-size="10.00"> ptr</text>
</g>
<!-- Node6 -->
<g id="node6" class="node"><title>Node6</title>
<g id="a_node6"><a xlink:href="class_range.html" target="_top" xlink:title="Range">
<polygon fill="white" stroke="black" points="98,-216.5 98,-235.5 142,-235.5 142,-216.5 98,-216.5"/>
<text text-anchor="middle" x="120" y="-223.5" font-family="Helvetica,sans-Serif" font-size="10.00">Range</text>
</a>
</g>
</g>
<!-- Node6&#45;&gt;Node1 -->
<g id="edge6" class="edge"><title>Node6&#45;&gt;Node1</title>
<path fill="none" stroke="#9a32cd" stroke-dasharray="5,2" d="M120,-206.041C120,-193.472 120,-177.563 120,-167.841"/>
<polygon fill="#9a32cd" stroke="#9a32cd" points="116.5,-206.372 120,-216.372 123.5,-206.372 116.5,-206.372"/>
<text text-anchor="middle" x="161" y="-189.5" font-family="Helvetica,sans-Serif" font-size="10.00"> m_distanceRange</text>
</g>
<!-- Node7 -->
<g id="node7" class="node"><title>Node7</title>
<g id="a_node7"><a xlink:href="class_world_object.html" target="_top" xlink:title="WorldObject">
<polygon fill="white" stroke="red" points="189.5,-216.5 189.5,-235.5 260.5,-235.5 260.5,-216.5 189.5,-216.5"/>
<text text-anchor="middle" x="225" y="-223.5" font-family="Helvetica,sans-Serif" font-size="10.00">WorldObject</text>
</a>
</g>
</g>
<!-- Node7&#45;&gt;Node1 -->
<g id="edge7" class="edge"><title>Node7&#45;&gt;Node1</title>
<path fill="none" stroke="#9a32cd" stroke-dasharray="5,2" d="M218.284,-206.973C214.735,-199.577 209.7,-191.483 203,-186 192.446,-177.363 179.054,-171.462 166.125,-167.44"/>
<polygon fill="#9a32cd" stroke="#9a32cd" points="215.112,-208.458 222.222,-216.313 221.562,-205.739 215.112,-208.458"/>
<text text-anchor="middle" x="271" y="-189.5" font-family="Helvetica,sans-Serif" font-size="10.00"> m_lastTargetWorldObject</text>
</g>
</g>
</svg>
