<?xml version="1.0" encoding="UTF-8" standalone="no"?>
<!DOCTYPE svg PUBLIC "-//W3C//DTD SVG 1.1//EN"
 "http://www.w3.org/Graphics/SVG/1.1/DTD/svg11.dtd">
<!-- Generated by graphviz version 2.36.0 (20140111.2315)
 -->
<!-- Title: ContextDependant Pages: 1 -->
<svg width="388pt" height="408pt"
 viewBox="0.00 0.00 388.00 408.00" xmlns="http://www.w3.org/2000/svg" xmlns:xlink="http://www.w3.org/1999/xlink">
<g id="graph0" class="graph" transform="scale(1 1) rotate(0) translate(4 404)">
<title>ContextDependant</title>
<polygon fill="white" stroke="none" points="-4,4 -4,-404 384,-404 384,4 -4,4"/>
<!-- Node1 -->
<g id="node1" class="node"><title>Node1</title>
<polygon fill="#bfbfbf" stroke="black" points="0.5,-190.5 0.5,-209.5 97.5,-209.5 97.5,-190.5 0.5,-190.5"/>
<text text-anchor="middle" x="49" y="-197.5" font-family="Helvetica,sans-Serif" font-size="10.00">ContextDependant</text>
</g>
<!-- Node2 -->
<g id="node2" class="node"><title>Node2</title>
<g id="a_node2"><a xlink:href="class_blit_program.html" target="_top" xlink:title="BlitProgram">
<polygon fill="white" stroke="black" points="157,-380.5 157,-399.5 225,-399.5 225,-380.5 157,-380.5"/>
<text text-anchor="middle" x="191" y="-387.5" font-family="Helvetica,sans-Serif" font-size="10.00">BlitProgram</text>
</a>
</g>
</g>
<!-- Node1&#45;&gt;Node2 -->
<g id="edge1" class="edge"><title>Node1&#45;&gt;Node2</title>
<path fill="none" stroke="midnightblue" d="M54.3997,-219.748C63.2843,-255.116 86.6819,-329.445 134,-371 140.48,-376.691 148.737,-380.692 156.906,-383.501"/>
<polygon fill="midnightblue" stroke="midnightblue" points="57.7343,-218.642 52.0131,-209.725 50.9247,-220.263 57.7343,-218.642"/>
</g>
<!-- Node4 -->
<g id="node4" class="node"><title>Node4</title>
<g id="a_node4"><a xlink:href="class_frame_buffer.html" target="_top" xlink:title="FrameBuffer">
<polygon fill="white" stroke="black" points="156.5,-342.5 156.5,-361.5 225.5,-361.5 225.5,-342.5 156.5,-342.5"/>
<text text-anchor="middle" x="191" y="-349.5" font-family="Helvetica,sans-Serif" font-size="10.00">FrameBuffer</text>
</a>
</g>
</g>
<!-- Node1&#45;&gt;Node4 -->
<g id="edge3" class="edge"><title>Node1&#45;&gt;Node4</title>
<path fill="none" stroke="midnightblue" d="M57.1001,-218.93C68.8072,-247.65 94.8333,-302.142 134,-333 140.532,-338.146 148.537,-341.938 156.429,-344.717"/>
<polygon fill="midnightblue" stroke="midnightblue" points="60.3516,-217.635 53.437,-209.607 53.8364,-220.194 60.3516,-217.635"/>
</g>
<!-- Node5 -->
<g id="node5" class="node"><title>Node5</title>
<g id="a_node5"><a xlink:href="class_post_processing_pass.html" target="_top" xlink:title="PostProcessingPass">
<polygon fill="white" stroke="black" points="137,-304.5 137,-323.5 245,-323.5 245,-304.5 137,-304.5"/>
<text text-anchor="middle" x="191" y="-311.5" font-family="Helvetica,sans-Serif" font-size="10.00">PostProcessingPass</text>
</a>
</g>
</g>
<!-- Node1&#45;&gt;Node5 -->
<g id="edge4" class="edge"><title>Node1&#45;&gt;Node5</title>
<path fill="none" stroke="midnightblue" d="M61.5544,-217.994C76.0632,-239.237 102.862,-274.289 134,-295 139.727,-298.809 146.293,-301.926 152.865,-304.452"/>
<polygon fill="midnightblue" stroke="midnightblue" points="64.3985,-215.95 55.9464,-209.561 58.5697,-219.826 64.3985,-215.95"/>
</g>
<!-- Node7 -->
<g id="node7" class="node"><title>Node7</title>
<g id="a_node7"><a xlink:href="class_screen_quad.html" target="_top" xlink:title="ScreenQuad">
<polygon fill="white" stroke="black" points="155.5,-266.5 155.5,-285.5 226.5,-285.5 226.5,-266.5 155.5,-266.5"/>
<text text-anchor="middle" x="191" y="-273.5" font-family="Helvetica,sans-Serif" font-size="10.00">ScreenQuad</text>
</a>
</g>
</g>
<!-- Node1&#45;&gt;Node7 -->
<g id="edge6" class="edge"><title>Node1&#45;&gt;Node7</title>
<path fill="none" stroke="midnightblue" d="M70.165,-215.973C86.6127,-228.422 110.834,-245.475 134,-257 141.262,-260.613 149.374,-263.805 157.121,-266.492"/>
<polygon fill="midnightblue" stroke="midnightblue" points="71.9415,-212.923 61.8833,-209.594 67.67,-218.469 71.9415,-212.923"/>
</g>
<!-- Node8 -->
<g id="node8" class="node"><title>Node8</title>
<g id="a_node8"><a xlink:href="class_skybox.html" target="_top" xlink:title="Skybox">
<polygon fill="white" stroke="black" points="166,-228.5 166,-247.5 216,-247.5 216,-228.5 166,-228.5"/>
<text text-anchor="middle" x="191" y="-235.5" font-family="Helvetica,sans-Serif" font-size="10.00">Skybox</text>
</a>
</g>
</g>
<!-- Node1&#45;&gt;Node8 -->
<g id="edge7" class="edge"><title>Node1&#45;&gt;Node8</title>
<path fill="none" stroke="midnightblue" d="M95.0811,-212.236C118.538,-218.603 146.288,-226.135 165.704,-231.405"/>
<polygon fill="midnightblue" stroke="midnightblue" points="95.8956,-208.831 85.3279,-209.589 94.0619,-215.586 95.8956,-208.831"/>
</g>
<!-- Node9 -->
<g id="node9" class="node"><title>Node9</title>
<g id="a_node9"><a xlink:href="class_starfield.html" target="_top" xlink:title="Starfield">
<polygon fill="white" stroke="black" points="165,-190.5 165,-209.5 217,-209.5 217,-190.5 165,-190.5"/>
<text text-anchor="middle" x="191" y="-197.5" font-family="Helvetica,sans-Serif" font-size="10.00">Starfield</text>
</a>
</g>
</g>
<!-- Node1&#45;&gt;Node9 -->
<g id="edge8" class="edge"><title>Node1&#45;&gt;Node9</title>
<path fill="none" stroke="midnightblue" d="M107.997,-200C127.816,-200 148.959,-200 164.812,-200"/>
<polygon fill="midnightblue" stroke="midnightblue" points="107.789,-196.5 97.7885,-200 107.788,-203.5 107.789,-196.5"/>
</g>
<!-- Node10 -->
<g id="node10" class="node"><title>Node10</title>
<g id="a_node10"><a xlink:href="class_stereo_view.html" target="_top" xlink:title="StereoView">
<polygon fill="white" stroke="black" points="158,-152.5 158,-171.5 224,-171.5 224,-152.5 158,-152.5"/>
<text text-anchor="middle" x="191" y="-159.5" font-family="Helvetica,sans-Serif" font-size="10.00">StereoView</text>
</a>
</g>
</g>
<!-- Node1&#45;&gt;Node10 -->
<g id="edge9" class="edge"><title>Node1&#45;&gt;Node10</title>
<path fill="none" stroke="midnightblue" d="M95.0243,-187.779C115.381,-182.254 138.98,-175.848 157.562,-170.805"/>
<polygon fill="midnightblue" stroke="midnightblue" points="94.0619,-184.414 85.3279,-190.411 95.8956,-191.169 94.0619,-184.414"/>
</g>
<!-- Node11 -->
<g id="node11" class="node"><title>Node11</title>
<g id="a_node11"><a xlink:href="class_voxel_mesh.html" target="_top" xlink:title="VoxelMesh">
<polygon fill="white" stroke="black" points="158.5,-114.5 158.5,-133.5 223.5,-133.5 223.5,-114.5 158.5,-114.5"/>
<text text-anchor="middle" x="191" y="-121.5" font-family="Helvetica,sans-Serif" font-size="10.00">VoxelMesh</text>
</a>
</g>
</g>
<!-- Node1&#45;&gt;Node11 -->
<g id="edge10" class="edge"><title>Node1&#45;&gt;Node11</title>
<path fill="none" stroke="midnightblue" d="M70.165,-184.027C86.6127,-171.578 110.834,-154.525 134,-143 141.629,-139.204 150.198,-135.873 158.295,-133.103"/>
<polygon fill="midnightblue" stroke="midnightblue" points="67.67,-181.531 61.8833,-190.406 71.9415,-187.077 67.67,-181.531"/>
</g>
<!-- Node12 -->
<g id="node12" class="node"><title>Node12</title>
<g id="a_node12"><a xlink:href="class_voxel_particle_renderer.html" target="_top" xlink:title="VoxelParticleRenderer">
<polygon fill="white" stroke="black" points="134.5,-76.5 134.5,-95.5 247.5,-95.5 247.5,-76.5 134.5,-76.5"/>
<text text-anchor="middle" x="191" y="-83.5" font-family="Helvetica,sans-Serif" font-size="10.00">VoxelParticleRenderer</text>
</a>
</g>
</g>
<!-- Node1&#45;&gt;Node12 -->
<g id="edge11" class="edge"><title>Node1&#45;&gt;Node12</title>
<path fill="none" stroke="midnightblue" d="M61.5544,-182.006C76.0632,-160.763 102.862,-125.711 134,-105 139.727,-101.191 146.293,-98.0737 152.865,-95.5478"/>
<polygon fill="midnightblue" stroke="midnightblue" points="58.5697,-180.174 55.9464,-190.439 64.3985,-184.05 58.5697,-180.174"/>
</g>
<!-- Node13 -->
<g id="node13" class="node"><title>Node13</title>
<g id="a_node13"><a xlink:href="class_voxel_render_data.html" target="_top" xlink:title="VoxelRenderData">
<polygon fill="white" stroke="black" points="145,-38.5 145,-57.5 237,-57.5 237,-38.5 145,-38.5"/>
<text text-anchor="middle" x="191" y="-45.5" font-family="Helvetica,sans-Serif" font-size="10.00">VoxelRenderData</text>
</a>
</g>
</g>
<!-- Node1&#45;&gt;Node13 -->
<g id="edge12" class="edge"><title>Node1&#45;&gt;Node13</title>
<path fill="none" stroke="midnightblue" d="M57.1001,-181.07C68.8072,-152.35 94.8333,-97.8576 134,-67 138.919,-63.1243 144.674,-60.0169 150.586,-57.5316"/>
<polygon fill="midnightblue" stroke="midnightblue" points="53.8364,-179.806 53.437,-190.393 60.3516,-182.365 53.8364,-179.806"/>
</g>
<!-- Node14 -->
<g id="node14" class="node"><title>Node14</title>
<g id="a_node14"><a xlink:href="class_voxel_renderer.html" target="_top" xlink:title="VoxelRenderer">
<polygon fill="white" stroke="black" points="151,-0.5 151,-19.5 231,-19.5 231,-0.5 151,-0.5"/>
<text text-anchor="middle" x="191" y="-7.5" font-family="Helvetica,sans-Serif" font-size="10.00">VoxelRenderer</text>
</a>
</g>
</g>
<!-- Node1&#45;&gt;Node14 -->
<g id="edge13" class="edge"><title>Node1&#45;&gt;Node14</title>
<path fill="none" stroke="midnightblue" d="M54.3997,-180.252C63.2843,-144.884 86.6819,-70.5552 134,-29 138.86,-24.732 144.719,-21.414 150.792,-18.8369"/>
<polygon fill="midnightblue" stroke="midnightblue" points="50.9247,-179.737 52.0131,-190.275 57.7343,-181.358 50.9247,-179.737"/>
</g>
<!-- Node3 -->
<g id="node3" class="node"><title>Node3</title>
<g id="a_node3"><a xlink:href="class_stereo_blit_program.html" target="_top" xlink:title="StereoBlitProgram">
<polygon fill="white" stroke="black" points="284,-380.5 284,-399.5 380,-399.5 380,-380.5 284,-380.5"/>
<text text-anchor="middle" x="332" y="-387.5" font-family="Helvetica,sans-Serif" font-size="10.00">StereoBlitProgram</text>
</a>
</g>
</g>
<!-- Node2&#45;&gt;Node3 -->
<g id="edge2" class="edge"><title>Node2&#45;&gt;Node3</title>
<path fill="none" stroke="midnightblue" d="M235.547,-390C250.874,-390 268.169,-390 283.785,-390"/>
<polygon fill="midnightblue" stroke="midnightblue" points="235.294,-386.5 225.294,-390 235.294,-393.5 235.294,-386.5"/>
</g>
<!-- Node6 -->
<g id="node6" class="node"><title>Node6</title>
<g id="a_node6"><a xlink:href="class_blitter.html" target="_top" xlink:title="Blitter">
<polygon fill="white" stroke="black" points="311,-304.5 311,-323.5 353,-323.5 353,-304.5 311,-304.5"/>
<text text-anchor="middle" x="332" y="-311.5" font-family="Helvetica,sans-Serif" font-size="10.00">Blitter</text>
</a>
</g>
</g>
<!-- Node5&#45;&gt;Node6 -->
<g id="edge5" class="edge"><title>Node5&#45;&gt;Node6</title>
<path fill="none" stroke="midnightblue" d="M255.426,-314C275.497,-314 296.25,-314 310.918,-314"/>
<polygon fill="midnightblue" stroke="midnightblue" points="255.344,-310.5 245.343,-314 255.343,-317.5 255.344,-310.5"/>
</g>
</g>
</svg>
