<?xml version="1.0" encoding="UTF-8" standalone="no"?>
<!DOCTYPE svg PUBLIC "-//W3C//DTD SVG 1.1//EN"
 "http://www.w3.org/Graphics/SVG/1.1/DTD/svg11.dtd">
<!-- Generated by graphviz version 2.36.0 (20140111.2315)
 -->
<!-- Title: HUD Pages: 1 -->
<svg width="1608pt" height="620pt"
 viewBox="0.00 0.00 1608.00 619.66" xmlns="http://www.w3.org/2000/svg" xmlns:xlink="http://www.w3.org/1999/xlink">
<g id="graph0" class="graph" transform="scale(1 1) rotate(0) translate(4 615.661)">
<title>HUD</title>
<polygon fill="white" stroke="none" points="-4,4 -4,-615.661 1604,-615.661 1604,4 -4,4"/>
<!-- Node1 -->
<g id="node1" class="node"><title>Node1</title>
<polygon fill="#bfbfbf" stroke="black" points="890.5,-404.161 890.5,-423.161 927.5,-423.161 927.5,-404.161 890.5,-404.161"/>
<text text-anchor="middle" x="909" y="-411.161" font-family="Helvetica,sans-Serif" font-size="10.00">HUD</text>
</g>
<!-- Node3 -->
<g id="node3" class="node"><title>Node3</title>
<g id="a_node3"><a xlink:href="class_hudget.html" target="_top" xlink:title="Hudget">
<polygon fill="white" stroke="black" points="1055.5,-404.161 1055.5,-423.161 1102.5,-423.161 1102.5,-404.161 1055.5,-404.161"/>
<text text-anchor="middle" x="1079" y="-411.161" font-family="Helvetica,sans-Serif" font-size="10.00">Hudget</text>
</a>
</g>
</g>
<!-- Node1&#45;&gt;Node3 -->
<g id="edge3" class="edge"><title>Node1&#45;&gt;Node3</title>
<path fill="none" stroke="#9a32cd" stroke-dasharray="5,2" d="M937.942,-413.661C970.833,-413.661 1024.82,-413.661 1055.26,-413.661"/>
<polygon fill="#9a32cd" stroke="#9a32cd" points="937.661,-410.161 927.661,-413.661 937.661,-417.161 937.661,-410.161"/>
<text text-anchor="middle" x="963" y="-416.661" font-family="Helvetica,sans-Serif" font-size="10.00"> m_hud</text>
</g>
<!-- Node14 -->
<g id="node14" class="node"><title>Node14</title>
<g id="a_node14"><a xlink:href="class_h_u_d_object_delegate.html" target="_top" xlink:title="HUDObjectDelegate">
<polygon fill="white" stroke="red" points="1027,-591.161 1027,-610.161 1131,-610.161 1131,-591.161 1027,-591.161"/>
<text text-anchor="middle" x="1079" y="-598.161" font-family="Helvetica,sans-Serif" font-size="10.00">HUDObjectDelegate</text>
</a>
</g>
</g>
<!-- Node1&#45;&gt;Node14 -->
<g id="edge18" class="edge"><title>Node1&#45;&gt;Node14</title>
<path fill="none" stroke="#9a32cd" stroke-dasharray="5,2" d="M913.12,-433.316C917.401,-455.111 926.856,-490.391 946,-514.661 975.305,-551.812 1025.28,-578.026 1054.61,-591.118"/>
<polygon fill="#9a32cd" stroke="#9a32cd" points="916.531,-432.507 911.329,-423.277 909.639,-433.736 916.531,-432.507"/>
<text text-anchor="middle" x="963" y="-550.661" font-family="Helvetica,sans-Serif" font-size="10.00"> m_hud</text>
</g>
<!-- Node20 -->
<g id="node20" class="node"><title>Node20</title>
<polygon fill="white" stroke="#bfbfbf" points="1019.5,-120.161 1019.5,-139.161 1138.5,-139.161 1138.5,-120.161 1019.5,-120.161"/>
<text text-anchor="middle" x="1079" y="-127.161" font-family="Helvetica,sans-Serif" font-size="10.00">std::unique_ptr&lt; HUD &gt;</text>
</g>
<!-- Node1&#45;&gt;Node20 -->
<g id="edge27" class="edge"><title>Node1&#45;&gt;Node20</title>
<path fill="none" stroke="#9a32cd" stroke-dasharray="5,2" d="M911.25,-393.637C913.999,-358.592 922.337,-284.376 946,-226.661 961.805,-188.111 963.802,-172.46 998,-148.661 1004.44,-144.176 1011.81,-140.741 1019.41,-138.112"/>
<polygon fill="#9a32cd" stroke="#9a32cd" points="907.736,-393.717 910.518,-403.94 914.718,-394.213 907.736,-393.717"/>
<text text-anchor="middle" x="963" y="-229.661" font-family="Helvetica,sans-Serif" font-size="10.00"> ptr</text>
</g>
<!-- Node2 -->
<g id="node2" class="node"><title>Node2</title>
<polygon fill="white" stroke="#bfbfbf" points="1288,-346.161 1288,-365.161 1392,-365.161 1392,-346.161 1288,-346.161"/>
<text text-anchor="middle" x="1340" y="-353.161" font-family="Helvetica,sans-Serif" font-size="10.00">std::list&lt; Hudget * &gt;</text>
</g>
<!-- Node2&#45;&gt;Node1 -->
<g id="edge1" class="edge"><title>Node2&#45;&gt;Node1</title>
<path fill="none" stroke="#9a32cd" stroke-dasharray="5,2" d="M1277.66,-356.144C1208.89,-357.735 1094.37,-363.538 998,-383.661 972.877,-388.907 945.015,-399.209 927.508,-406.263"/>
<polygon fill="#9a32cd" stroke="#9a32cd" points="1277.96,-359.639 1287.88,-355.931 1277.81,-352.64 1277.96,-359.639"/>
<text text-anchor="middle" x="1079" y="-386.661" font-family="Helvetica,sans-Serif" font-size="10.00"> m_hudgets</text>
</g>
<!-- Node3&#45;&gt;Node2 -->
<g id="edge2" class="edge"><title>Node3&#45;&gt;Node2</title>
<path fill="none" stroke="#9a32cd" stroke-dasharray="5,2" d="M1112.5,-404.015C1131.5,-398.55 1156,-391.8 1178,-386.661 1214.45,-378.145 1255.93,-370.198 1287.66,-364.483"/>
<polygon fill="#9a32cd" stroke="#9a32cd" points="1111.47,-400.672 1102.84,-406.82 1113.42,-407.394 1111.47,-400.672"/>
<text text-anchor="middle" x="1217" y="-389.661" font-family="Helvetica,sans-Serif" font-size="10.00"> elements</text>
</g>
<!-- Node9 -->
<g id="node9" class="node"><title>Node9</title>
<g id="a_node9"><a xlink:href="class_text_field_hudget.html" target="_top" xlink:title="TextFieldHudget">
<polygon fill="white" stroke="red" points="1296.5,-424.161 1296.5,-443.161 1383.5,-443.161 1383.5,-424.161 1296.5,-424.161"/>
<text text-anchor="middle" x="1340" y="-431.161" font-family="Helvetica,sans-Serif" font-size="10.00">TextFieldHudget</text>
</a>
</g>
</g>
<!-- Node3&#45;&gt;Node9 -->
<g id="edge10" class="edge"><title>Node3&#45;&gt;Node9</title>
<path fill="none" stroke="midnightblue" d="M1112.68,-416.184C1159.27,-419.782 1244.85,-426.39 1296.37,-430.369"/>
<polygon fill="midnightblue" stroke="midnightblue" points="1112.77,-412.681 1102.53,-415.401 1112.23,-419.66 1112.77,-412.681"/>
</g>
<!-- Node16 -->
<g id="node16" class="node"><title>Node16</title>
<g id="a_node16"><a xlink:href="class_cross_hair.html" target="_top" xlink:title="CrossHair">
<polygon fill="white" stroke="red" points="1310.5,-385.161 1310.5,-404.161 1369.5,-404.161 1369.5,-385.161 1310.5,-385.161"/>
<text text-anchor="middle" x="1340" y="-392.161" font-family="Helvetica,sans-Serif" font-size="10.00">CrossHair</text>
</a>
</g>
</g>
<!-- Node3&#45;&gt;Node16 -->
<g id="edge22" class="edge"><title>Node3&#45;&gt;Node16</title>
<path fill="none" stroke="midnightblue" d="M1112.68,-411.264C1163.71,-407.52 1261.49,-400.347 1310.1,-396.781"/>
<polygon fill="midnightblue" stroke="midnightblue" points="1112.25,-407.786 1102.53,-412.008 1112.76,-414.767 1112.25,-407.786"/>
</g>
<!-- Node4 -->
<g id="node4" class="node"><title>Node4</title>
<polygon fill="white" stroke="#bfbfbf" points="656.5,-416.661 656.5,-446.661 791.5,-446.661 791.5,-416.661 656.5,-416.661"/>
<text text-anchor="start" x="664.5" y="-434.661" font-family="Helvetica,sans-Serif" font-size="10.00">std::unique_ptr&lt; AimHelper</text>
<text text-anchor="middle" x="724" y="-423.661" font-family="Helvetica,sans-Serif" font-size="10.00">Hudget &gt;</text>
</g>
<!-- Node4&#45;&gt;Node1 -->
<g id="edge4" class="edge"><title>Node4&#45;&gt;Node1</title>
<path fill="none" stroke="#9a32cd" stroke-dasharray="5,2" d="M801.652,-424.121C834.424,-420.898 869.806,-417.418 890.374,-415.395"/>
<polygon fill="#9a32cd" stroke="#9a32cd" points="801.194,-420.649 791.585,-425.112 801.879,-427.616 801.194,-420.649"/>
<text text-anchor="middle" x="841" y="-426.661" font-family="Helvetica,sans-Serif" font-size="10.00"> m_aimHelper</text>
</g>
<!-- Node5 -->
<g id="node5" class="node"><title>Node5</title>
<g id="a_node5"><a xlink:href="class_aim_helper_hudget.html" target="_top" xlink:title="AimHelperHudget">
<polygon fill="white" stroke="red" points="427,-430.161 427,-449.161 519,-449.161 519,-430.161 427,-430.161"/>
<text text-anchor="middle" x="473" y="-437.161" font-family="Helvetica,sans-Serif" font-size="10.00">AimHelperHudget</text>
</a>
</g>
</g>
<!-- Node5&#45;&gt;Node4 -->
<g id="edge5" class="edge"><title>Node5&#45;&gt;Node4</title>
<path fill="none" stroke="#9a32cd" stroke-dasharray="5,2" d="M529.318,-437.884C566.791,-436.68 616.514,-435.082 656.197,-433.807"/>
<polygon fill="#9a32cd" stroke="#9a32cd" points="528.974,-434.393 519.092,-438.212 529.199,-441.389 528.974,-434.393"/>
<text text-anchor="middle" x="589" y="-440.661" font-family="Helvetica,sans-Serif" font-size="10.00"> ptr</text>
</g>
<!-- Node6 -->
<g id="node6" class="node"><title>Node6</title>
<g id="a_node6"><a xlink:href="class_world_object.html" target="_top" xlink:title="WorldObject">
<polygon fill="white" stroke="red" points="202.5,-522.161 202.5,-541.161 273.5,-541.161 273.5,-522.161 202.5,-522.161"/>
<text text-anchor="middle" x="238" y="-529.161" font-family="Helvetica,sans-Serif" font-size="10.00">WorldObject</text>
</a>
</g>
</g>
<!-- Node6&#45;&gt;Node5 -->
<g id="edge6" class="edge"><title>Node6&#45;&gt;Node5</title>
<path fill="none" stroke="#9a32cd" stroke-dasharray="5,2" d="M273.065,-518.21C320.737,-499.387 406.175,-465.652 447.833,-449.203"/>
<polygon fill="#9a32cd" stroke="#9a32cd" points="271.51,-515.061 263.495,-521.989 274.081,-521.572 271.51,-515.061"/>
<text text-anchor="middle" x="349" y="-512.661" font-family="Helvetica,sans-Serif" font-size="10.00"> m_lastTargetWorldObject</text>
</g>
<!-- Node13 -->
<g id="node13" class="node"><title>Node13</title>
<polygon fill="white" stroke="#bfbfbf" points="1274,-547.661 1274,-577.661 1406,-577.661 1406,-547.661 1274,-547.661"/>
<text text-anchor="start" x="1282" y="-565.661" font-family="Helvetica,sans-Serif" font-size="10.00">std::map&lt; WorldObject</text>
<text text-anchor="middle" x="1340" y="-554.661" font-family="Helvetica,sans-Serif" font-size="10.00"> *, HUDObjectDelegate * &gt;</text>
</g>
<!-- Node6&#45;&gt;Node13 -->
<g id="edge19" class="edge"><title>Node6&#45;&gt;Node13</title>
<path fill="none" stroke="#9a32cd" stroke-dasharray="5,2" d="M283.637,-541.17C330.365,-550.283 405.987,-562.661 472,-562.661 472,-562.661 472,-562.661 1080,-562.661 1145.99,-562.661 1221.43,-562.661 1273.8,-562.661"/>
<polygon fill="#9a32cd" stroke="#9a32cd" points="284.038,-537.681 273.547,-539.165 282.673,-544.547 284.038,-537.681"/>
<text text-anchor="middle" x="841" y="-565.661" font-family="Helvetica,sans-Serif" font-size="10.00"> keys</text>
</g>
<!-- Node7 -->
<g id="node7" class="node"><title>Node7</title>
<g id="a_node7"><a xlink:href="class_handle.html" target="_top" xlink:title="Handle\&lt; WorldObject \&gt;">
<polygon fill="white" stroke="black" points="0.5,-522.161 0.5,-541.161 119.5,-541.161 119.5,-522.161 0.5,-522.161"/>
<text text-anchor="middle" x="60" y="-529.161" font-family="Helvetica,sans-Serif" font-size="10.00">Handle&lt; WorldObject &gt;</text>
</a>
</g>
</g>
<!-- Node7&#45;&gt;Node1 -->
<g id="edge11" class="edge"><title>Node7&#45;&gt;Node1</title>
<path fill="none" stroke="#9a32cd" stroke-dasharray="5,2" d="M71.8967,-512.955C96.1669,-473.979 158.75,-387.661 237,-387.661 237,-387.661 237,-387.661 725,-387.661 786.292,-387.661 857.993,-402.134 890.452,-409.484"/>
<polygon fill="#9a32cd" stroke="#9a32cd" points="68.7495,-511.396 66.5656,-521.763 74.738,-515.021 68.7495,-511.396"/>
<text text-anchor="middle" x="473" y="-390.661" font-family="Helvetica,sans-Serif" font-size="10.00"> m_target</text>
</g>
<!-- Node7&#45;&gt;Node6 -->
<g id="edge7" class="edge"><title>Node7&#45;&gt;Node6</title>
<path fill="none" stroke="#9a32cd" stroke-dasharray="5,2" d="M129.726,-531.661C154.561,-531.661 181.55,-531.661 202.244,-531.661"/>
<polygon fill="#9a32cd" stroke="#9a32cd" points="129.605,-528.161 119.605,-531.661 129.605,-535.161 129.605,-528.161"/>
<text text-anchor="middle" x="161" y="-534.661" font-family="Helvetica,sans-Serif" font-size="10.00"> m_handle</text>
</g>
<!-- Node7&#45;&gt;Node14 -->
<g id="edge17" class="edge"><title>Node7&#45;&gt;Node14</title>
<path fill="none" stroke="#9a32cd" stroke-dasharray="5,2" d="M83.5764,-546.841C116.039,-567.156 178.452,-600.661 237,-600.661 237,-600.661 237,-600.661 910,-600.661 949.229,-600.661 993.611,-600.661 1026.9,-600.661"/>
<polygon fill="#9a32cd" stroke="#9a32cd" points="85.1779,-543.71 74.8713,-541.255 81.3976,-549.601 85.1779,-543.71"/>
<text text-anchor="middle" x="589" y="-603.661" font-family="Helvetica,sans-Serif" font-size="10.00"> m_worldObjectHandle</text>
</g>
<!-- Node8 -->
<g id="node8" class="node"><title>Node8</title>
<polygon fill="white" stroke="#bfbfbf" points="1464,-437.661 1464,-467.661 1594,-467.661 1594,-437.661 1464,-437.661"/>
<text text-anchor="start" x="1472" y="-455.661" font-family="Helvetica,sans-Serif" font-size="10.00">std::unique_ptr&lt; TextField</text>
<text text-anchor="middle" x="1529" y="-444.661" font-family="Helvetica,sans-Serif" font-size="10.00">Hudget &gt;</text>
</g>
<!-- Node8&#45;&gt;Node1 -->
<g id="edge8" class="edge"><title>Node8&#45;&gt;Node1</title>
<path fill="none" stroke="#9a32cd" stroke-dasharray="5,2" d="M1453.95,-457.397C1443.89,-457.697 1433.69,-457.822 1424,-457.661 1234.37,-454.501 1187.13,-446.788 998,-432.661 974.885,-430.934 968.538,-434.076 946,-428.661 939.812,-427.174 933.314,-424.757 927.569,-422.293"/>
<polygon fill="#9a32cd" stroke="#9a32cd" points="1454.07,-460.895 1463.94,-457.044 1453.83,-453.9 1454.07,-460.895"/>
<text text-anchor="middle" x="1217" y="-466.661" font-family="Helvetica,sans-Serif" font-size="10.00"> m_speedLabel</text>
<text text-anchor="middle" x="1217" y="-455.661" font-family="Helvetica,sans-Serif" font-size="10.00">m_targetName</text>
</g>
<!-- Node9&#45;&gt;Node8 -->
<g id="edge9" class="edge"><title>Node9&#45;&gt;Node8</title>
<path fill="none" stroke="#9a32cd" stroke-dasharray="5,2" d="M1393.91,-439.037C1415.59,-441.24 1440.9,-443.811 1463.64,-446.122"/>
<polygon fill="#9a32cd" stroke="#9a32cd" points="1394.2,-435.549 1383.9,-438.02 1393.5,-442.513 1394.2,-435.549"/>
<text text-anchor="middle" x="1432" y="-446.661" font-family="Helvetica,sans-Serif" font-size="10.00"> ptr</text>
</g>
<!-- Node10 -->
<g id="node10" class="node"><title>Node10</title>
<polygon fill="white" stroke="#bfbfbf" points="657,-465.661 657,-495.661 791,-495.661 791,-465.661 657,-465.661"/>
<text text-anchor="start" x="665" y="-483.661" font-family="Helvetica,sans-Serif" font-size="10.00">std::unique_ptr&lt; WorldTree</text>
<text text-anchor="middle" x="724" y="-472.661" font-family="Helvetica,sans-Serif" font-size="10.00">Scanner &gt;</text>
</g>
<!-- Node10&#45;&gt;Node1 -->
<g id="edge12" class="edge"><title>Node10&#45;&gt;Node1</title>
<path fill="none" stroke="#9a32cd" stroke-dasharray="5,2" d="M800.956,-464.069C824.333,-457.622 849.755,-449.205 872,-438.661 880.664,-434.554 889.52,-428.434 896.281,-423.277"/>
<polygon fill="#9a32cd" stroke="#9a32cd" points="799.833,-460.747 791.078,-466.712 801.643,-467.509 799.833,-460.747"/>
<text text-anchor="middle" x="841" y="-463.661" font-family="Helvetica,sans-Serif" font-size="10.00"> m_scanner</text>
</g>
<!-- Node11 -->
<g id="node11" class="node"><title>Node11</title>
<g id="a_node11"><a xlink:href="class_world_tree_scanner.html" target="_top" xlink:title="WorldTreeScanner">
<polygon fill="white" stroke="red" points="424.5,-471.161 424.5,-490.161 521.5,-490.161 521.5,-471.161 424.5,-471.161"/>
<text text-anchor="middle" x="473" y="-478.161" font-family="Helvetica,sans-Serif" font-size="10.00">WorldTreeScanner</text>
</a>
</g>
</g>
<!-- Node11&#45;&gt;Node10 -->
<g id="edge13" class="edge"><title>Node11&#45;&gt;Node10</title>
<path fill="none" stroke="#9a32cd" stroke-dasharray="5,2" d="M531.916,-480.661C569.205,-480.661 617.785,-480.661 656.63,-480.661"/>
<polygon fill="#9a32cd" stroke="#9a32cd" points="531.715,-477.161 521.715,-480.661 531.715,-484.161 531.715,-477.161"/>
<text text-anchor="middle" x="589" y="-483.661" font-family="Helvetica,sans-Serif" font-size="10.00"> ptr</text>
</g>
<!-- Node12 -->
<g id="node12" class="node"><title>Node12</title>
<g id="a_node12"><a xlink:href="class_sphere.html" target="_top" xlink:title="Sphere">
<polygon fill="white" stroke="red" points="700.5,-340.161 700.5,-359.161 747.5,-359.161 747.5,-340.161 700.5,-340.161"/>
<text text-anchor="middle" x="724" y="-347.161" font-family="Helvetica,sans-Serif" font-size="10.00">Sphere</text>
</a>
</g>
</g>
<!-- Node12&#45;&gt;Node1 -->
<g id="edge14" class="edge"><title>Node12&#45;&gt;Node1</title>
<path fill="none" stroke="#9a32cd" stroke-dasharray="5,2" d="M757.634,-345.048C789.067,-342.251 836.886,-342.455 872,-362.661 888.157,-371.958 898.854,-391.785 904.134,-403.794"/>
<polygon fill="#9a32cd" stroke="#9a32cd" points="757.228,-341.571 747.644,-346.087 757.953,-348.534 757.228,-341.571"/>
<text text-anchor="middle" x="841" y="-365.661" font-family="Helvetica,sans-Serif" font-size="10.00"> m_sphere</text>
</g>
<!-- Node13&#45;&gt;Node1 -->
<g id="edge15" class="edge"><title>Node13&#45;&gt;Node1</title>
<path fill="none" stroke="#9a32cd" stroke-dasharray="5,2" d="M1263.65,-548.839C1153.14,-528.323 958.716,-491.2 946,-481.661 926.338,-466.912 916.343,-438.236 912.275,-423.272"/>
<polygon fill="#9a32cd" stroke="#9a32cd" points="1263.28,-552.33 1273.75,-550.711 1264.55,-545.447 1263.28,-552.33"/>
<text text-anchor="middle" x="1079" y="-531.661" font-family="Helvetica,sans-Serif" font-size="10.00"> m_objectDelegates</text>
</g>
<!-- Node14&#45;&gt;Node13 -->
<g id="edge16" class="edge"><title>Node14&#45;&gt;Node13</title>
<path fill="none" stroke="#9a32cd" stroke-dasharray="5,2" d="M1141.44,-592.153C1175.26,-587.414 1217.96,-581.341 1256,-575.661 1261.77,-574.799 1267.76,-573.889 1273.77,-572.968"/>
<polygon fill="#9a32cd" stroke="#9a32cd" points="1140.66,-588.727 1131.24,-593.579 1141.63,-595.66 1140.66,-588.727"/>
<text text-anchor="middle" x="1217" y="-590.661" font-family="Helvetica,sans-Serif" font-size="10.00"> elements</text>
</g>
<!-- Node15 -->
<g id="node15" class="node"><title>Node15</title>
<polygon fill="white" stroke="#bfbfbf" points="1458,-212.161 1458,-231.161 1600,-231.161 1600,-212.161 1458,-212.161"/>
<text text-anchor="middle" x="1529" y="-219.161" font-family="Helvetica,sans-Serif" font-size="10.00">std::unique_ptr&lt; CrossHair &gt;</text>
</g>
<!-- Node15&#45;&gt;Node1 -->
<g id="edge20" class="edge"><title>Node15&#45;&gt;Node1</title>
<path fill="none" stroke="#9a32cd" stroke-dasharray="5,2" d="M1510.61,-205.013C1440.92,-140.352 1177.01,84.7523 998,-34.6609 933.377,-77.7691 913.841,-349.342 910.539,-404.061"/>
<polygon fill="#9a32cd" stroke="#9a32cd" points="1508.44,-207.777 1518.13,-212.07 1513.23,-202.674 1508.44,-207.777"/>
<text text-anchor="middle" x="1217" y="-34.6609" font-family="Helvetica,sans-Serif" font-size="10.00"> m_crossHair</text>
</g>
<!-- Node16&#45;&gt;Node15 -->
<g id="edge21" class="edge"><title>Node16&#45;&gt;Node15</title>
<path fill="none" stroke="#9a32cd" stroke-dasharray="5,2" d="M1379.34,-387.005C1388.57,-384.076 1398.05,-380.08 1406,-374.661 1464.68,-334.682 1508.86,-258.004 1523.11,-231.196"/>
<polygon fill="#9a32cd" stroke="#9a32cd" points="1378.18,-383.695 1369.51,-389.782 1380.09,-390.431 1378.18,-383.695"/>
<text text-anchor="middle" x="1432" y="-361.661" font-family="Helvetica,sans-Serif" font-size="10.00"> ptr</text>
</g>
<!-- Node17 -->
<g id="node17" class="node"><title>Node17</title>
<g id="a_node17"><a xlink:href="class_player.html" target="_top" xlink:title="Player">
<polygon fill="white" stroke="black" points="1318,-177.161 1318,-196.161 1362,-196.161 1362,-177.161 1318,-177.161"/>
<text text-anchor="middle" x="1340" y="-184.161" font-family="Helvetica,sans-Serif" font-size="10.00">Player</text>
</a>
</g>
</g>
<!-- Node17&#45;&gt;Node1 -->
<g id="edge23" class="edge"><title>Node17&#45;&gt;Node1</title>
<path fill="none" stroke="#9a32cd" stroke-dasharray="5,2" d="M1308.13,-197.797C1292.63,-203.107 1273.48,-209.248 1256,-213.661 1199.5,-227.929 1045.62,-227.061 998,-260.661 945.673,-297.586 920.133,-376.197 912.518,-403.817"/>
<polygon fill="#9a32cd" stroke="#9a32cd" points="1309.44,-201.046 1317.73,-194.453 1307.14,-194.435 1309.44,-201.046"/>
<text text-anchor="middle" x="1079" y="-263.661" font-family="Helvetica,sans-Serif" font-size="10.00"> m_player</text>
</g>
<!-- Node18 -->
<g id="node18" class="node"><title>Node18</title>
<g id="a_node18"><a xlink:href="class_game_play.html" target="_top" xlink:title="GamePlay">
<polygon fill="white" stroke="red" points="1048,-44.1609 1048,-63.1609 1110,-63.1609 1110,-44.1609 1048,-44.1609"/>
<text text-anchor="middle" x="1079" y="-51.1609" font-family="Helvetica,sans-Serif" font-size="10.00">GamePlay</text>
</a>
</g>
</g>
<!-- Node18&#45;&gt;Node17 -->
<g id="edge24" class="edge"><title>Node18&#45;&gt;Node17</title>
<path fill="none" stroke="#9a32cd" stroke-dasharray="5,2" d="M1120.16,-54.8505C1157.64,-57.5678 1213.95,-65.8815 1256,-90.6609 1293.2,-112.586 1322.09,-157.212 1333.59,-176.926"/>
<polygon fill="#9a32cd" stroke="#9a32cd" points="1120.31,-51.3533 1110.11,-54.2234 1119.87,-58.3397 1120.31,-51.3533"/>
<text text-anchor="middle" x="1217" y="-93.6609" font-family="Helvetica,sans-Serif" font-size="10.00"> m_gamePlay</text>
</g>
<!-- Node19 -->
<g id="node19" class="node"><title>Node19</title>
<polygon fill="white" stroke="#bfbfbf" points="998,-319.161 998,-338.161 1160,-338.161 1160,-319.161 998,-319.161"/>
<text text-anchor="middle" x="1079" y="-326.161" font-family="Helvetica,sans-Serif" font-size="10.00">std::unique_ptr&lt; TargetSelector &gt;</text>
</g>
<!-- Node19&#45;&gt;Node17 -->
<g id="edge25" class="edge"><title>Node19&#45;&gt;Node17</title>
<path fill="none" stroke="#9a32cd" stroke-dasharray="5,2" d="M1170.51,-329.013C1199.51,-325.659 1230.65,-318.14 1256,-302.661 1298.69,-276.592 1325.69,-219.439 1335.18,-196.488"/>
<polygon fill="#9a32cd" stroke="#9a32cd" points="1169.95,-325.552 1160.35,-330.033 1170.65,-332.517 1169.95,-325.552"/>
<text text-anchor="middle" x="1217" y="-331.661" font-family="Helvetica,sans-Serif" font-size="10.00"> m_targetSelector</text>
</g>
<!-- Node20&#45;&gt;Node17 -->
<g id="edge26" class="edge"><title>Node20&#45;&gt;Node17</title>
<path fill="none" stroke="#9a32cd" stroke-dasharray="5,2" d="M1148.68,-138.341C1181.43,-143.149 1221.01,-149.937 1256,-158.661 1277.4,-163.995 1301.18,-172.27 1317.79,-178.442"/>
<polygon fill="#9a32cd" stroke="#9a32cd" points="1149.15,-134.872 1138.75,-136.912 1148.15,-141.801 1149.15,-134.872"/>
<text text-anchor="middle" x="1217" y="-161.661" font-family="Helvetica,sans-Serif" font-size="10.00"> m_hud</text>
</g>
<!-- Node21 -->
<g id="node21" class="node"><title>Node21</title>
<polygon fill="white" stroke="#bfbfbf" points="1001.5,-281.161 1001.5,-300.161 1156.5,-300.161 1156.5,-281.161 1001.5,-281.161"/>
<text text-anchor="middle" x="1079" y="-288.161" font-family="Helvetica,sans-Serif" font-size="10.00">std::unique_ptr&lt; CameraDolly &gt;</text>
</g>
<!-- Node21&#45;&gt;Node17 -->
<g id="edge28" class="edge"><title>Node21&#45;&gt;Node17</title>
<path fill="none" stroke="#9a32cd" stroke-dasharray="5,2" d="M1166.9,-288.949C1196.34,-285.649 1228.67,-278.895 1256,-265.661 1290.02,-249.189 1319.26,-213.651 1332.08,-196.422"/>
<polygon fill="#9a32cd" stroke="#9a32cd" points="1166.23,-285.499 1156.63,-289.977 1166.92,-292.464 1166.23,-285.499"/>
<text text-anchor="middle" x="1217" y="-290.661" font-family="Helvetica,sans-Serif" font-size="10.00"> m_cameraDolly</text>
</g>
<!-- Node22 -->
<g id="node22" class="node"><title>Node22</title>
<polygon fill="white" stroke="#bfbfbf" points="1016.5,-82.1609 1016.5,-101.161 1141.5,-101.161 1141.5,-82.1609 1016.5,-82.1609"/>
<text text-anchor="middle" x="1079" y="-89.1609" font-family="Helvetica,sans-Serif" font-size="10.00">std::unique_ptr&lt; Aimer &gt;</text>
</g>
<!-- Node22&#45;&gt;Node17 -->
<g id="edge29" class="edge"><title>Node22&#45;&gt;Node17</title>
<path fill="none" stroke="#9a32cd" stroke-dasharray="5,2" d="M1151.68,-100.038C1184.43,-105.536 1223.15,-114.44 1256,-128.661 1284.39,-140.953 1312.98,-163.757 1328.07,-176.81"/>
<polygon fill="#9a32cd" stroke="#9a32cd" points="1152.15,-96.5691 1141.72,-98.4395 1151.04,-103.481 1152.15,-96.5691"/>
<text text-anchor="middle" x="1217" y="-131.661" font-family="Helvetica,sans-Serif" font-size="10.00"> m_aimer</text>
</g>
<!-- Node23 -->
<g id="node23" class="node"><title>Node23</title>
<g id="a_node23"><a xlink:href="class_handle.html" target="_top" xlink:title="Handle\&lt; Ship \&gt;">
<polygon fill="white" stroke="black" points="1037,-196.161 1037,-215.161 1121,-215.161 1121,-196.161 1037,-196.161"/>
<text text-anchor="middle" x="1079" y="-203.161" font-family="Helvetica,sans-Serif" font-size="10.00">Handle&lt; Ship &gt;</text>
</a>
</g>
</g>
<!-- Node23&#45;&gt;Node17 -->
<g id="edge30" class="edge"><title>Node23&#45;&gt;Node17</title>
<path fill="none" stroke="#9a32cd" stroke-dasharray="5,2" d="M1131.28,-201.899C1188.26,-197.719 1277.53,-191.17 1317.91,-188.208"/>
<polygon fill="#9a32cd" stroke="#9a32cd" points="1130.76,-198.428 1121.04,-202.65 1131.27,-205.409 1130.76,-198.428"/>
<text text-anchor="middle" x="1217" y="-201.661" font-family="Helvetica,sans-Serif" font-size="10.00"> m_ship</text>
</g>
<!-- Node24 -->
<g id="node24" class="node"><title>Node24</title>
<g id="a_node24"><a xlink:href="class_abstract_move.html" target="_top" xlink:title="AbstractMove">
<polygon fill="white" stroke="black" points="1041,-158.161 1041,-177.161 1117,-177.161 1117,-158.161 1041,-158.161"/>
<text text-anchor="middle" x="1079" y="-165.161" font-family="Helvetica,sans-Serif" font-size="10.00">AbstractMove</text>
</a>
</g>
</g>
<!-- Node24&#45;&gt;Node17 -->
<g id="edge31" class="edge"><title>Node24&#45;&gt;Node17</title>
<path fill="none" stroke="#9a32cd" stroke-dasharray="5,2" d="M1127.17,-170.177C1162.63,-172.173 1212.39,-175.197 1256,-178.661 1277.07,-180.334 1301.1,-182.701 1317.87,-184.426"/>
<polygon fill="#9a32cd" stroke="#9a32cd" points="1127.29,-166.678 1117.11,-169.616 1126.9,-173.667 1127.29,-166.678"/>
<text text-anchor="middle" x="1217" y="-181.661" font-family="Helvetica,sans-Serif" font-size="10.00"> m_engineState</text>
</g>
<!-- Node25 -->
<g id="node25" class="node"><title>Node25</title>
<g id="a_node25"><a xlink:href="class_viewer.html" target="_top" xlink:title="Viewer">
<polygon fill="white" stroke="red" points="701,-515.161 701,-534.161 747,-534.161 747,-515.161 701,-515.161"/>
<text text-anchor="middle" x="724" y="-522.161" font-family="Helvetica,sans-Serif" font-size="10.00">Viewer</text>
</a>
</g>
</g>
<!-- Node25&#45;&gt;Node1 -->
<g id="edge32" class="edge"><title>Node25&#45;&gt;Node1</title>
<path fill="none" stroke="#9a32cd" stroke-dasharray="5,2" d="M757.356,-520.84C789.582,-515.562 838.899,-503.33 872,-475.661 888.999,-461.452 899.763,-437.028 904.745,-423.463"/>
<polygon fill="#9a32cd" stroke="#9a32cd" points="756.499,-517.429 747.13,-522.375 757.539,-524.351 756.499,-517.429"/>
<text text-anchor="middle" x="841" y="-510.661" font-family="Helvetica,sans-Serif" font-size="10.00"> m_viewer</text>
</g>
</g>
</svg>
