<?xml version="1.0" encoding="UTF-8" standalone="no"?>
<!DOCTYPE svg PUBLIC "-//W3C//DTD SVG 1.1//EN"
 "http://www.w3.org/Graphics/SVG/1.1/DTD/svg11.dtd">
<!-- Generated by graphviz version 2.36.0 (20140111.2315)
 -->
<!-- Title: VoxelCollision Pages: 1 -->
<svg width="191pt" height="242pt"
 viewBox="0.00 0.00 191.00 242.00" xmlns="http://www.w3.org/2000/svg" xmlns:xlink="http://www.w3.org/1999/xlink">
<g id="graph0" class="graph" transform="scale(1 1) rotate(0) translate(4 238)">
<title>VoxelCollision</title>
<polygon fill="white" stroke="none" points="-4,4 -4,-238 187,-238 187,4 -4,4"/>
<!-- Node1 -->
<g id="node1" class="node"><title>Node1</title>
<polygon fill="#bfbfbf" stroke="black" points="23,-0.5 23,-19.5 101,-19.5 101,-0.5 23,-0.5"/>
<text text-anchor="middle" x="62" y="-7.5" font-family="Helvetica,sans-Serif" font-size="10.00">VoxelCollision</text>
</g>
<!-- Node2 -->
<g id="node2" class="node"><title>Node2</title>
<g id="a_node2"><a xlink:href="class_voxel_collision_participant.html" target="_top" xlink:title="VoxelCollisionParticipant">
<polygon fill="white" stroke="black" points="-0.5,-78.5 -0.5,-97.5 124.5,-97.5 124.5,-78.5 -0.5,-78.5"/>
<text text-anchor="middle" x="62" y="-85.5" font-family="Helvetica,sans-Serif" font-size="10.00">VoxelCollisionParticipant</text>
</a>
</g>
</g>
<!-- Node2&#45;&gt;Node1 -->
<g id="edge1" class="edge"><title>Node2&#45;&gt;Node1</title>
<path fill="none" stroke="#9a32cd" stroke-dasharray="5,2" d="M62,-68.2239C62,-52.6974 62,-31.3582 62,-19.6165"/>
<polygon fill="#9a32cd" stroke="#9a32cd" points="58.5001,-68.2818 62,-78.2818 65.5001,-68.2819 58.5001,-68.2818"/>
<text text-anchor="middle" x="73" y="-52" font-family="Helvetica,sans-Serif" font-size="10.00"> m_a</text>
<text text-anchor="middle" x="73" y="-41" font-family="Helvetica,sans-Serif" font-size="10.00">m_b</text>
</g>
<!-- Node3 -->
<g id="node3" class="node"><title>Node3</title>
<g id="a_node3"><a xlink:href="class_voxel.html" target="_top" xlink:title="Voxel">
<polygon fill="white" stroke="red" points="56.5,-214.5 56.5,-233.5 97.5,-233.5 97.5,-214.5 56.5,-214.5"/>
<text text-anchor="middle" x="77" y="-221.5" font-family="Helvetica,sans-Serif" font-size="10.00">Voxel</text>
</a>
</g>
</g>
<!-- Node3&#45;&gt;Node2 -->
<g id="edge2" class="edge"><title>Node3&#45;&gt;Node2</title>
<path fill="none" stroke="#9a32cd" stroke-dasharray="5,2" d="M68.5328,-205.064C63.8134,-194.061 58.4136,-179.533 56,-166 51.621,-141.447 56.7726,-111.925 59.9173,-97.6158"/>
<polygon fill="#9a32cd" stroke="#9a32cd" points="65.4324,-206.703 72.7295,-214.384 71.8153,-203.829 65.4324,-206.703"/>
<text text-anchor="middle" x="75.5" y="-153.5" font-family="Helvetica,sans-Serif" font-size="10.00"> m_voxel</text>
</g>
<!-- Node4 -->
<g id="node4" class="node"><title>Node4</title>
<g id="a_node4"><a xlink:href="class_world_object.html" target="_top" xlink:title="WorldObject">
<polygon fill="white" stroke="red" points="103.5,-146.5 103.5,-165.5 174.5,-165.5 174.5,-146.5 103.5,-146.5"/>
<text text-anchor="middle" x="139" y="-153.5" font-family="Helvetica,sans-Serif" font-size="10.00">WorldObject</text>
</a>
</g>
</g>
<!-- Node3&#45;&gt;Node4 -->
<g id="edge4" class="edge"><title>Node3&#45;&gt;Node4</title>
<path fill="none" stroke="#9a32cd" stroke-dasharray="5,2" d="M91.9858,-207.047C104.138,-194.111 120.816,-176.357 130.695,-165.841"/>
<polygon fill="#9a32cd" stroke="#9a32cd" points="89.4012,-204.687 85.1054,-214.372 94.5032,-209.48 89.4012,-204.687"/>
<text text-anchor="middle" x="148" y="-187.5" font-family="Helvetica,sans-Serif" font-size="10.00"> m_crucialVoxel</text>
</g>
<!-- Node4&#45;&gt;Node2 -->
<g id="edge3" class="edge"><title>Node4&#45;&gt;Node2</title>
<path fill="none" stroke="#9a32cd" stroke-dasharray="5,2" d="M121.237,-139.774C106.081,-126.784 84.8143,-108.555 72.3146,-97.8411"/>
<polygon fill="#9a32cd" stroke="#9a32cd" points="119.063,-142.521 128.934,-146.372 123.619,-137.206 119.063,-142.521"/>
<text text-anchor="middle" x="141" y="-119.5" font-family="Helvetica,sans-Serif" font-size="10.00"> m_worldObject</text>
</g>
</g>
</svg>
