<?xml version="1.0" encoding="UTF-8" standalone="no"?>
<!DOCTYPE svg PUBLIC "-//W3C//DTD SVG 1.1//EN"
 "http://www.w3.org/Graphics/SVG/1.1/DTD/svg11.dtd">
<!-- Generated by graphviz version 2.36.0 (20140111.2315)
 -->
<!-- Title: GamePlayScene Pages: 1 -->
<!--zoomable 329 -->
<svg id="main" version="1.1" xmlns="http://www.w3.org/2000/svg" xmlns:xlink="http://www.w3.org/1999/xlink" xml:space="preserve" onload="init(evt)">
<style type="text/css"><![CDATA[
.edge:hover path { stroke: red; }
.edge:hover polygon { stroke: red; fill: red; }
]]></style>
<script type="text/javascript"><![CDATA[
var edges = document.getElementsByTagName('g');
if (edges && edges.length) {
  for (var i=0;i<edges.length;i++) {
    if (edges[i].id.substr(0,4)=='edge') {
      edges[i].setAttribute('class','edge');
    }
  }
}
]]></script>
        <defs>
                <circle id="rim" cx="0" cy="0" r="7"/>
                <circle id="rim2" cx="0" cy="0" r="3.5"/>
                <g id="zoomPlus">
                        <use xlink:href="#rim" fill="#404040">
                                <set attributeName="fill" to="#808080" begin="zoomplus.mouseover" end="zoomplus.mouseout"/>
                        </use>
                        <path d="M-4,0h8M0,-4v8" fill="none" stroke="white" stroke-width="1.5" pointer-events="none"/>
                </g>
                <g id="zoomMin">
                        <use xlink:href="#rim" fill="#404040">
                                <set attributeName="fill" to="#808080" begin="zoomminus.mouseover" end="zoomminus.mouseout"/>
                        </use>
                        <path d="M-4,0h8" fill="none" stroke="white" stroke-width="1.5" pointer-events="none"/>
                </g>
                <g id="dirArrow">
                        <path fill="none" stroke="white" stroke-width="1.5" d="M0,-3.0v7 M-2.5,-0.5L0,-3.0L2.5,-0.5"/>
                </g>
               <g id="resetDef">
                       <use xlink:href="#rim2" fill="#404040">
                               <set attributeName="fill" to="#808080" begin="reset.mouseover" end="reset.mouseout"/>
                       </use>
               </g>
        </defs>

<script type="text/javascript">
var viewWidth = 1262;
var viewHeight = 329;
var sectionId = 'dynsection-1';
</script>
<script xlink:href="svgpan.js"/>
<svg id="graph" class="graph">
<g id="viewport">
<title>GamePlayScene</title>
<polygon fill="white" stroke="none" points="-4,4 -4,-325.36 1258,-325.36 1258,4 -4,4"/>
<!-- Node1 -->
<g id="node1" class="node"><title>Node1</title>
<polygon fill="#bfbfbf" stroke="black" points="414,-76.5 414,-95.5 504,-95.5 504,-76.5 414,-76.5"/>
<text text-anchor="middle" x="459" y="-83.5" font-family="Helvetica,sans-Serif" font-size="10.00">GamePlayScene</text>
</g>
<!-- Node6 -->
<g id="node6" class="node"><title>Node6</title>
<polygon fill="white" stroke="#bfbfbf" points="568,-116 568,-146 704,-146 704,-116 568,-116"/>
<text text-anchor="start" x="576" y="-134" font-family="Helvetica,sans-Serif" font-size="10.00">std::unique_ptr&lt; GamePlay</text>
<text text-anchor="middle" x="636" y="-123" font-family="Helvetica,sans-Serif" font-size="10.00">Scene &gt;</text>
</g>
<!-- Node1&#45;&gt;Node6 -->
<g id="edge9" class="edge"><title>Node1&#45;&gt;Node6</title>
<path fill="none" stroke="#9a32cd" stroke-dasharray="5,2" d="M506.947,-98.0722C528.365,-103.58 553.945,-110.157 576.591,-115.98"/>
<polygon fill="#9a32cd" stroke="#9a32cd" points="507.67,-94.6441 497.113,-95.5433 505.926,-101.424 507.67,-94.6441"/>
<text text-anchor="middle" x="530" y="-109" font-family="Helvetica,sans-Serif" font-size="10.00"> ptr</text>
</g>
<!-- Node2 -->
<g id="node2" class="node"><title>Node2</title>
<g id="a_node2"><a xlink:href="class_scene.html" target="_top" xlink:title="Scene">
<polygon fill="white" stroke="black" points="194,-152.5 194,-171.5 238,-171.5 238,-152.5 194,-152.5"/>
<text text-anchor="middle" x="216" y="-159.5" font-family="Helvetica,sans-Serif" font-size="10.00">Scene</text>
</a>
</g>
</g>
<!-- Node2&#45;&gt;Node1 -->
<g id="edge1" class="edge"><title>Node2&#45;&gt;Node1</title>
<path fill="none" stroke="midnightblue" d="M248.252,-159.921C284.863,-156.623 346.769,-148.326 396,-128 415.468,-119.962 435.125,-105.278 446.935,-95.5785"/>
<polygon fill="midnightblue" stroke="midnightblue" points="247.862,-156.441 238.187,-160.758 248.443,-163.417 247.862,-156.441"/>
</g>
<!-- Node3 -->
<g id="node3" class="node"><title>Node3</title>
<g id="a_node3"><a xlink:href="class_game_play.html" target="_top" xlink:title="GamePlay">
<polygon fill="white" stroke="black" points="806,-151.5 806,-170.5 868,-170.5 868,-151.5 806,-151.5"/>
<text text-anchor="middle" x="837" y="-158.5" font-family="Helvetica,sans-Serif" font-size="10.00">GamePlay</text>
</a>
</g>
</g>
<!-- Node3&#45;&gt;Node1 -->
<g id="edge2" class="edge"><title>Node3&#45;&gt;Node1</title>
<path fill="none" stroke="#9a32cd" stroke-dasharray="5,2" d="M814.924,-145.37C791.946,-129.335 753.435,-105.32 716,-95 643.974,-75.1443 556.232,-77.4732 504.42,-81.4206"/>
<polygon fill="#9a32cd" stroke="#9a32cd" points="813.04,-148.326 823.214,-151.283 817.105,-142.627 813.04,-148.326"/>
<text text-anchor="middle" x="636" y="-98" font-family="Helvetica,sans-Serif" font-size="10.00"> m_gamePlay</text>
</g>
<!-- Node5 -->
<g id="node5" class="node"><title>Node5</title>
<g id="a_node5"><a xlink:href="class_game.html" target="_top" xlink:title="Game">
<polygon fill="white" stroke="red" points="1003.5,-78.5 1003.5,-97.5 1046.5,-97.5 1046.5,-78.5 1003.5,-78.5"/>
<text text-anchor="middle" x="1025" y="-85.5" font-family="Helvetica,sans-Serif" font-size="10.00">Game</text>
</a>
</g>
</g>
<!-- Node3&#45;&gt;Node5 -->
<g id="edge7" class="edge"><title>Node3&#45;&gt;Node5</title>
<path fill="none" stroke="#9a32cd" stroke-dasharray="5,2" d="M844.646,-141.601C851.817,-124.045 865.105,-99.2684 886,-88 923.325,-67.8717 975.006,-75.5771 1003.35,-82.2495"/>
<polygon fill="#9a32cd" stroke="#9a32cd" points="841.2,-140.821 840.958,-151.413 847.752,-143.284 841.2,-140.821"/>
<text text-anchor="middle" x="922" y="-91" font-family="Helvetica,sans-Serif" font-size="10.00"> m_gamePlay</text>
</g>
<!-- Node9 -->
<g id="node9" class="node"><title>Node9</title>
<g id="a_node9"><a xlink:href="class_player.html" target="_top" xlink:title="Player">
<polygon fill="white" stroke="red" points="1003,-19.5 1003,-38.5 1047,-38.5 1047,-19.5 1003,-19.5"/>
<text text-anchor="middle" x="1025" y="-26.5" font-family="Helvetica,sans-Serif" font-size="10.00">Player</text>
</a>
</g>
</g>
<!-- Node3&#45;&gt;Node9 -->
<g id="edge13" class="edge"><title>Node3&#45;&gt;Node9</title>
<path fill="none" stroke="#9a32cd" stroke-dasharray="5,2" d="M842.033,-141.374C847.775,-118.544 860.559,-81.3876 886,-61 920.162,-33.6243 973.535,-28.8472 1002.89,-28.4776"/>
<polygon fill="#9a32cd" stroke="#9a32cd" points="838.582,-140.764 839.756,-151.294 845.405,-142.33 838.582,-140.764"/>
<text text-anchor="middle" x="922" y="-64" font-family="Helvetica,sans-Serif" font-size="10.00"> m_gamePlay</text>
</g>
<!-- Node10 -->
<g id="node10" class="node"><title>Node10</title>
<g id="a_node10"><a xlink:href="class_game_play_running.html" target="_top" xlink:title="GamePlayRunning">
<polygon fill="white" stroke="red" points="976,-298.5 976,-317.5 1074,-317.5 1074,-298.5 976,-298.5"/>
<text text-anchor="middle" x="1025" y="-305.5" font-family="Helvetica,sans-Serif" font-size="10.00">GamePlayRunning</text>
</a>
</g>
</g>
<!-- Node3&#45;&gt;Node10 -->
<g id="edge16" class="edge"><title>Node3&#45;&gt;Node10</title>
<path fill="none" stroke="#9a32cd" stroke-dasharray="5,2" d="M839.625,-180.872C843.051,-208.957 853.62,-259.755 886,-286 899.57,-296.999 941.538,-302.585 975.662,-305.368"/>
<polygon fill="#9a32cd" stroke="#9a32cd" points="843.081,-180.271 838.577,-170.681 836.118,-180.987 843.081,-180.271"/>
<text text-anchor="middle" x="922" y="-306" font-family="Helvetica,sans-Serif" font-size="10.00"> m_gamePlay</text>
</g>
<!-- Node11 -->
<g id="node11" class="node"><title>Node11</title>
<g id="a_node11"><a xlink:href="class_game_play_paused.html" target="_top" xlink:title="GamePlayPaused">
<polygon fill="white" stroke="red" points="977.5,-205.5 977.5,-224.5 1072.5,-224.5 1072.5,-205.5 977.5,-205.5"/>
<text text-anchor="middle" x="1025" y="-212.5" font-family="Helvetica,sans-Serif" font-size="10.00">GamePlayPaused</text>
</a>
</g>
</g>
<!-- Node3&#45;&gt;Node11 -->
<g id="edge19" class="edge"><title>Node3&#45;&gt;Node11</title>
<path fill="none" stroke="#9a32cd" stroke-dasharray="5,2" d="M857.661,-176.897C865.957,-182.838 876,-189.086 886,-193 915.144,-204.406 949.957,-209.903 977.326,-212.55"/>
<polygon fill="#9a32cd" stroke="#9a32cd" points="859.522,-173.917 849.429,-170.695 855.31,-179.508 859.522,-173.917"/>
<text text-anchor="middle" x="922" y="-213" font-family="Helvetica,sans-Serif" font-size="10.00"> m_gamePlay</text>
</g>
<!-- Node4 -->
<g id="node4" class="node"><title>Node4</title>
<g id="a_node4"><a xlink:href="class_game_state.html" target="_top" xlink:title="GameState">
<polygon fill="white" stroke="red" points="603,-217.5 603,-236.5 669,-236.5 669,-217.5 603,-217.5"/>
<text text-anchor="middle" x="636" y="-224.5" font-family="Helvetica,sans-Serif" font-size="10.00">GameState</text>
</a>
</g>
</g>
<!-- Node4&#45;&gt;Node3 -->
<g id="edge3" class="edge"><title>Node4&#45;&gt;Node3</title>
<path fill="none" stroke="midnightblue" d="M679.161,-216.487C709.746,-208.434 751.908,-196.447 788,-183 797.621,-179.415 808.011,-174.756 816.656,-170.649"/>
<polygon fill="midnightblue" stroke="midnightblue" points="678.054,-213.159 669.257,-219.064 679.817,-219.933 678.054,-213.159"/>
</g>
<!-- Node4&#45;&gt;Node4 -->
<g id="edge4" class="edge"><title>Node4&#45;&gt;Node4</title>
<path fill="none" stroke="#9a32cd" stroke-dasharray="5,2" d="M616.371,-246.4C617.682,-251.315 624.225,-255 636,-255 654.84,-255 660.286,-245.565 652.338,-236.757"/>
<polygon fill="#9a32cd" stroke="#9a32cd" points="619.745,-247.352 619.662,-236.757 613.12,-245.091 619.745,-247.352"/>
<text text-anchor="middle" x="636" y="-258" font-family="Helvetica,sans-Serif" font-size="10.00"> m_parentGameState</text>
</g>
<!-- Node4&#45;&gt;Node5 -->
<g id="edge6" class="edge"><title>Node4&#45;&gt;Node5</title>
<path fill="none" stroke="midnightblue" d="M678.8,-217.09C692.21,-212.103 706.128,-204.746 716,-194 733.687,-174.748 716.448,-157.375 734,-138 783.447,-83.4179 813.89,-86.9798 886,-72 927.09,-63.4642 976.076,-73.9234 1003.24,-81.4995"/>
<polygon fill="midnightblue" stroke="midnightblue" points="677.557,-213.815 669.191,-220.317 679.785,-220.451 677.557,-213.815"/>
</g>
<!-- Node4&#45;&gt;Node10 -->
<g id="edge15" class="edge"><title>Node4&#45;&gt;Node10</title>
<path fill="none" stroke="midnightblue" d="M665.221,-241.043C710.46,-262.687 802.61,-303.239 886,-318 915.567,-323.234 949.162,-320.972 975.801,-317.287"/>
<polygon fill="midnightblue" stroke="midnightblue" points="666.569,-237.807 656.043,-236.602 663.52,-244.108 666.569,-237.807"/>
</g>
<!-- Node4&#45;&gt;Node11 -->
<g id="edge18" class="edge"><title>Node4&#45;&gt;Node11</title>
<path fill="none" stroke="midnightblue" d="M679.519,-228.679C741.055,-230.669 858.473,-232.809 958,-225 964.239,-224.51 970.782,-223.783 977.225,-222.939"/>
<polygon fill="midnightblue" stroke="midnightblue" points="679.527,-225.178 669.415,-228.338 679.291,-232.174 679.527,-225.178"/>
</g>
<!-- Node5&#45;&gt;Node3 -->
<g id="edge5" class="edge"><title>Node5&#45;&gt;Node3</title>
<path fill="none" stroke="#9a32cd" stroke-dasharray="5,2" d="M993.237,-94.2298C958.588,-101.521 904.675,-113.77 886,-123 871.136,-130.346 856.563,-142.85 847.446,-151.498"/>
<polygon fill="#9a32cd" stroke="#9a32cd" points="994.233,-97.5976 1003.31,-92.1351 992.808,-90.7442 994.233,-97.5976"/>
<text text-anchor="middle" x="922" y="-126" font-family="Helvetica,sans-Serif" font-size="10.00"> m_game</text>
</g>
<!-- Node6&#45;&gt;Node3 -->
<g id="edge8" class="edge"><title>Node6&#45;&gt;Node3</title>
<path fill="none" stroke="#9a32cd" stroke-dasharray="5,2" d="M714.139,-139.197C737.902,-142.127 764.097,-145.768 788,-150 793.809,-151.028 799.973,-152.302 805.88,-153.613"/>
<polygon fill="#9a32cd" stroke="#9a32cd" points="714.465,-135.711 704.117,-137.985 713.625,-142.66 714.465,-135.711"/>
<text text-anchor="middle" x="761" y="-153" font-family="Helvetica,sans-Serif" font-size="10.00"> m_scene</text>
</g>
<!-- Node7 -->
<g id="node7" class="node"><title>Node7</title>
<polygon fill="white" stroke="#bfbfbf" points="556,-165.5 556,-184.5 716,-184.5 716,-165.5 556,-165.5"/>
<text text-anchor="middle" x="636" y="-172.5" font-family="Helvetica,sans-Serif" font-size="10.00">std::unique_ptr&lt; BaseScenario &gt;</text>
</g>
<!-- Node7&#45;&gt;Node3 -->
<g id="edge10" class="edge"><title>Node7&#45;&gt;Node3</title>
<path fill="none" stroke="#9a32cd" stroke-dasharray="5,2" d="M726.246,-168.721C754.763,-166.715 784.416,-164.629 805.7,-163.132"/>
<polygon fill="#9a32cd" stroke="#9a32cd" points="725.952,-165.233 716.222,-169.427 726.443,-172.216 725.952,-165.233"/>
<text text-anchor="middle" x="761" y="-171" font-family="Helvetica,sans-Serif" font-size="10.00"> m_scenario</text>
</g>
<!-- Node8 -->
<g id="node8" class="node"><title>Node8</title>
<polygon fill="white" stroke="#bfbfbf" points="1126.5,-102.5 1126.5,-121.5 1253.5,-121.5 1253.5,-102.5 1126.5,-102.5"/>
<text text-anchor="middle" x="1190" y="-109.5" font-family="Helvetica,sans-Serif" font-size="10.00">std::unique_ptr&lt; Player &gt;</text>
</g>
<!-- Node8&#45;&gt;Node3 -->
<g id="edge11" class="edge"><title>Node8&#45;&gt;Node3</title>
<path fill="none" stroke="#9a32cd" stroke-dasharray="5,2" d="M1116.14,-122.171C1039.6,-132.856 922.896,-149.148 868.23,-156.78"/>
<polygon fill="#9a32cd" stroke="#9a32cd" points="1116.78,-125.616 1126.2,-120.767 1115.81,-118.683 1116.78,-125.616"/>
<text text-anchor="middle" x="1025" y="-145" font-family="Helvetica,sans-Serif" font-size="10.00"> m_player</text>
</g>
<!-- Node9&#45;&gt;Node1 -->
<g id="edge25" class="edge"><title>Node9&#45;&gt;Node1</title>
<path fill="none" stroke="#9a32cd" stroke-dasharray="5,2" d="M992.573,-27.8538C964.578,-27.1058 922.515,-26.6523 886,-29 745.822,-38.0125 581.448,-64.5926 504.264,-78.0301"/>
<polygon fill="#9a32cd" stroke="#9a32cd" points="992.832,-31.3629 1002.93,-28.1614 993.04,-24.366 992.832,-31.3629"/>
<text text-anchor="middle" x="761" y="-47" font-family="Helvetica,sans-Serif" font-size="10.00"> m_player</text>
</g>
<!-- Node9&#45;&gt;Node8 -->
<g id="edge12" class="edge"><title>Node9&#45;&gt;Node8</title>
<path fill="none" stroke="#9a32cd" stroke-dasharray="5,2" d="M1053.87,-43.1898C1087.09,-60.1087 1141.71,-87.9192 1170.27,-102.462"/>
<polygon fill="#9a32cd" stroke="#9a32cd" points="1055.2,-39.9399 1044.7,-38.5212 1052.02,-46.1778 1055.2,-39.9399"/>
<text text-anchor="middle" x="1100" y="-74" font-family="Helvetica,sans-Serif" font-size="10.00"> ptr</text>
</g>
<!-- Node10&#45;&gt;Node3 -->
<g id="edge14" class="edge"><title>Node10&#45;&gt;Node3</title>
<path fill="none" stroke="#9a32cd" stroke-dasharray="5,2" d="M997.047,-293.417C962.308,-274.347 904.209,-241.44 886,-225 867.65,-208.433 851.612,-183.963 843.542,-170.59"/>
<polygon fill="#9a32cd" stroke="#9a32cd" points="995.719,-296.68 1006.17,-298.404 999.076,-290.537 995.719,-296.68"/>
<text text-anchor="middle" x="922" y="-274" font-family="Helvetica,sans-Serif" font-size="10.00"> m_runningState</text>
</g>
<!-- Node11&#45;&gt;Node3 -->
<g id="edge17" class="edge"><title>Node11&#45;&gt;Node3</title>
<path fill="none" stroke="#9a32cd" stroke-dasharray="5,2" d="M999.033,-200.36C986.986,-193.864 972.112,-186.652 958,-182 928.272,-172.2 892.809,-166.712 868.179,-163.826"/>
<polygon fill="#9a32cd" stroke="#9a32cd" points="997.58,-203.556 1008.02,-205.354 1000.98,-197.437 997.58,-203.556"/>
<text text-anchor="middle" x="922" y="-185" font-family="Helvetica,sans-Serif" font-size="10.00"> m_pausedState</text>
</g>
<!-- Node12 -->
<g id="node12" class="node"><title>Node12</title>
<polygon fill="white" stroke="#bfbfbf" points="134,-114.5 134,-133.5 298,-133.5 298,-114.5 134,-114.5"/>
<text text-anchor="middle" x="216" y="-121.5" font-family="Helvetica,sans-Serif" font-size="10.00">std::unique_ptr&lt; RenderPipeline &gt;</text>
</g>
<!-- Node12&#45;&gt;Node1 -->
<g id="edge20" class="edge"><title>Node12&#45;&gt;Node1</title>
<path fill="none" stroke="#9a32cd" stroke-dasharray="5,2" d="M308.55,-113.316C336.684,-109.606 367.69,-105.084 396,-100 403.168,-98.7127 410.762,-97.1587 418.084,-95.5609"/>
<polygon fill="#9a32cd" stroke="#9a32cd" points="307.79,-109.885 298.325,-114.646 308.693,-116.827 307.79,-109.885"/>
<text text-anchor="middle" x="356" y="-116" font-family="Helvetica,sans-Serif" font-size="10.00"> m_renderPipeline</text>
</g>
<!-- Node13 -->
<g id="node13" class="node"><title>Node13</title>
<g id="a_node13"><a xlink:href="class_render_pipeline.html" target="_top" xlink:title="RenderPipeline">
<polygon fill="white" stroke="red" points="0,-114.5 0,-133.5 82,-133.5 82,-114.5 0,-114.5"/>
<text text-anchor="middle" x="41" y="-121.5" font-family="Helvetica,sans-Serif" font-size="10.00">RenderPipeline</text>
</a>
</g>
</g>
<!-- Node13&#45;&gt;Node12 -->
<g id="edge21" class="edge"><title>Node13&#45;&gt;Node12</title>
<path fill="none" stroke="#9a32cd" stroke-dasharray="5,2" d="M92.2609,-124C105.295,-124 119.669,-124 133.85,-124"/>
<polygon fill="#9a32cd" stroke="#9a32cd" points="92.1245,-120.5 82.1245,-124 92.1245,-127.5 92.1245,-120.5"/>
<text text-anchor="middle" x="108" y="-127" font-family="Helvetica,sans-Serif" font-size="10.00"> ptr</text>
</g>
<!-- Node14 -->
<g id="node14" class="node"><title>Node14</title>
<g id="a_node14"><a xlink:href="class_property.html" target="_top" xlink:title="Property\&lt; glm::vec3 \&gt;">
<polygon fill="white" stroke="red" points="159.5,-76.5 159.5,-95.5 272.5,-95.5 272.5,-76.5 159.5,-76.5"/>
<text text-anchor="middle" x="216" y="-83.5" font-family="Helvetica,sans-Serif" font-size="10.00">Property&lt; glm::vec3 &gt;</text>
</a>
</g>
</g>
<!-- Node14&#45;&gt;Node1 -->
<g id="edge22" class="edge"><title>Node14&#45;&gt;Node1</title>
<path fill="none" stroke="#9a32cd" stroke-dasharray="5,2" d="M282.666,-86C324.371,-86 377.213,-86 413.931,-86"/>
<polygon fill="#9a32cd" stroke="#9a32cd" points="282.593,-82.5001 272.593,-86 282.593,-89.5001 282.593,-82.5001"/>
<text text-anchor="middle" x="356" y="-89" font-family="Helvetica,sans-Serif" font-size="10.00"> m_defaultLightDir</text>
</g>
<!-- Node15 -->
<g id="node15" class="node"><title>Node15</title>
<polygon fill="white" stroke="#bfbfbf" points="140,-38.5 140,-57.5 292,-57.5 292,-38.5 140,-38.5"/>
<text text-anchor="middle" x="216" y="-45.5" font-family="Helvetica,sans-Serif" font-size="10.00">std::unique_ptr&lt; FrameBuffer &gt;</text>
</g>
<!-- Node15&#45;&gt;Node1 -->
<g id="edge23" class="edge"><title>Node15&#45;&gt;Node1</title>
<path fill="none" stroke="#9a32cd" stroke-dasharray="5,2" d="M302.133,-57.0056C331.933,-60.6686 365.55,-65.3777 396,-71 404.277,-72.5282 413.103,-74.471 421.424,-76.4477"/>
<polygon fill="#9a32cd" stroke="#9a32cd" points="302.531,-53.5283 292.184,-55.8036 301.692,-60.4777 302.531,-53.5283"/>
<text text-anchor="middle" x="356" y="-74" font-family="Helvetica,sans-Serif" font-size="10.00"> m_framebuffer</text>
</g>
<!-- Node16 -->
<g id="node16" class="node"><title>Node16</title>
<g id="a_node16"><a xlink:href="class_frame_buffer.html" target="_top" xlink:title="FrameBuffer">
<polygon fill="white" stroke="red" points="6.5,-38.5 6.5,-57.5 75.5,-57.5 75.5,-38.5 6.5,-38.5"/>
<text text-anchor="middle" x="41" y="-45.5" font-family="Helvetica,sans-Serif" font-size="10.00">FrameBuffer</text>
</a>
</g>
</g>
<!-- Node16&#45;&gt;Node15 -->
<g id="edge24" class="edge"><title>Node16&#45;&gt;Node15</title>
<path fill="none" stroke="#9a32cd" stroke-dasharray="5,2" d="M86.0834,-48C102.424,-48 121.449,-48 139.786,-48"/>
<polygon fill="#9a32cd" stroke="#9a32cd" points="85.7669,-44.5001 75.7668,-48 85.7668,-51.5001 85.7669,-44.5001"/>
<text text-anchor="middle" x="108" y="-51" font-family="Helvetica,sans-Serif" font-size="10.00"> ptr</text>
</g>
<!-- Node17 -->
<g id="node17" class="node"><title>Node17</title>
<polygon fill="white" stroke="#bfbfbf" points="153.5,-0.5 153.5,-19.5 278.5,-19.5 278.5,-0.5 153.5,-0.5"/>
<text text-anchor="middle" x="216" y="-7.5" font-family="Helvetica,sans-Serif" font-size="10.00">std::unique_ptr&lt; Blitter &gt;</text>
</g>
<!-- Node17&#45;&gt;Node1 -->
<g id="edge26" class="edge"><title>Node17&#45;&gt;Node1</title>
<path fill="none" stroke="#9a32cd" stroke-dasharray="5,2" d="M289.012,-16.8771C322.464,-21.7679 362.216,-30.0515 396,-44 415.468,-52.0378 435.125,-66.7218 446.935,-76.4215"/>
<polygon fill="#9a32cd" stroke="#9a32cd" points="289.233,-13.3743 278.847,-15.4657 288.27,-20.3078 289.233,-13.3743"/>
<text text-anchor="middle" x="356" y="-47" font-family="Helvetica,sans-Serif" font-size="10.00"> m_outputBlitter</text>
</g>
<!-- Node18 -->
<g id="node18" class="node"><title>Node18</title>
<g id="a_node18"><a xlink:href="class_blitter.html" target="_top" xlink:title="Blitter">
<polygon fill="white" stroke="red" points="20,-0.5 20,-19.5 62,-19.5 62,-0.5 20,-0.5"/>
<text text-anchor="middle" x="41" y="-7.5" font-family="Helvetica,sans-Serif" font-size="10.00">Blitter</text>
</a>
</g>
</g>
<!-- Node18&#45;&gt;Node17 -->
<g id="edge27" class="edge"><title>Node18&#45;&gt;Node17</title>
<path fill="none" stroke="#9a32cd" stroke-dasharray="5,2" d="M72.4004,-10C94.7626,-10 125.922,-10 153.411,-10"/>
<polygon fill="#9a32cd" stroke="#9a32cd" points="72.1839,-6.5001 62.1839,-10 72.1838,-13.5001 72.1839,-6.5001"/>
<text text-anchor="middle" x="108" y="-13" font-family="Helvetica,sans-Serif" font-size="10.00"> ptr</text>
</g>
</g>
</svg>
        <g id="navigator" transform="translate(0 0)" fill="#404254">
                <rect fill="#f2f5e9" fill-opacity="0.5" stroke="#606060" stroke-width=".5" x="0" y="0" width="60" height="60"/>
                <use id="zoomplus" xlink:href="#zoomPlus" x="17" y="9" onmousedown="handleZoom(evt,'in')"/>
                <use id="zoomminus" xlink:href="#zoomMin" x="42" y="9" onmousedown="handleZoom(evt,'out')"/>
                <use id="reset" xlink:href="#resetDef" x="30" y="36" onmousedown="handleReset()"/>
                <g id="arrowUp" xlink:href="#dirArrow" transform="translate(30 24)" onmousedown="handlePan(0,-1)">
                  <use xlink:href="#rim" fill="#404040">
                        <set attributeName="fill" to="#808080" begin="arrowUp.mouseover" end="arrowUp.mouseout"/>
                  </use>
                  <path fill="none" stroke="white" stroke-width="1.5" d="M0,-3.0v7 M-2.5,-0.5L0,-3.0L2.5,-0.5"/>
                </g>
                <g id="arrowRight" xlink:href="#dirArrow" transform="rotate(90) translate(36 -43)" onmousedown="handlePan(1,0)">
                  <use xlink:href="#rim" fill="#404040">
                        <set attributeName="fill" to="#808080" begin="arrowRight.mouseover" end="arrowRight.mouseout"/>
                  </use>
                  <path fill="none" stroke="white" stroke-width="1.5" d="M0,-3.0v7 M-2.5,-0.5L0,-3.0L2.5,-0.5"/>
                </g>
                <g id="arrowDown" xlink:href="#dirArrow" transform="rotate(180) translate(-30 -48)" onmousedown="handlePan(0,1)">
                  <use xlink:href="#rim" fill="#404040">
                        <set attributeName="fill" to="#808080" begin="arrowDown.mouseover" end="arrowDown.mouseout"/>
                  </use>
                  <path fill="none" stroke="white" stroke-width="1.5" d="M0,-3.0v7 M-2.5,-0.5L0,-3.0L2.5,-0.5"/>
                </g>
                <g id="arrowLeft" xlink:href="#dirArrow" transform="rotate(270) translate(-36 17)" onmousedown="handlePan(-1,0)">
                  <use xlink:href="#rim" fill="#404040">
                        <set attributeName="fill" to="#808080" begin="arrowLeft.mouseover" end="arrowLeft.mouseout"/>
                  </use>
                  <path fill="none" stroke="white" stroke-width="1.5" d="M0,-3.0v7 M-2.5,-0.5L0,-3.0L2.5,-0.5"/>
                </g>
        </g>
        <svg viewBox="0 0 15 15" width="100%" height="30px" preserveAspectRatio="xMaxYMin meet">
         <g id="arrow_out" transform="scale(0.3 0.3)">
          <a xlink:href="class_game_play_scene__coll__graph_org.svg" target="_base">
           <rect id="button" ry="5" rx="5" y="6" x="6" height="38" width="38"
                fill="#f2f5e9" fill-opacity="0.5" stroke="#606060" stroke-width="1.0"/>
           <path id="arrow"
             d="M 11.500037,31.436501 C 11.940474,20.09759 22.043105,11.32322 32.158766,21.979434 L 37.068811,17.246167 C 37.068811,17.246167 37.088388,32 37.088388,32 L 22.160133,31.978069 C 22.160133,31.978069 26.997745,27.140456 26.997745,27.140456 C 18.528582,18.264221 13.291696,25.230495 11.500037,31.436501 z"
             style="fill:#404040;"/>
          </a>
         </g>
        </svg>
</svg>
