<?xml version="1.0" encoding="UTF-8" standalone="no"?>
<!DOCTYPE svg PUBLIC "-//W3C//DTD SVG 1.1//EN"
 "http://www.w3.org/Graphics/SVG/1.1/DTD/svg11.dtd">
<!-- Generated by graphviz version 2.36.0 (20140111.2315)
 -->
<!-- Title: src Pages: 1 -->
<!--zoomable 76 -->
<svg id="main" version="1.1" xmlns="http://www.w3.org/2000/svg" xmlns:xlink="http://www.w3.org/1999/xlink" xml:space="preserve" onload="init(evt)">
<style type="text/css"><![CDATA[
.edge:hover path { stroke: red; }
.edge:hover polygon { stroke: red; fill: red; }
]]></style>
<script type="text/javascript"><![CDATA[
var edges = document.getElementsByTagName('g');
if (edges && edges.length) {
  for (var i=0;i<edges.length;i++) {
    if (edges[i].id.substr(0,4)=='edge') {
      edges[i].setAttribute('class','edge');
    }
  }
}
]]></script>
        <defs>
                <circle id="rim" cx="0" cy="0" r="7"/>
                <circle id="rim2" cx="0" cy="0" r="3.5"/>
                <g id="zoomPlus">
                        <use xlink:href="#rim" fill="#404040">
                                <set attributeName="fill" to="#808080" begin="zoomplus.mouseover" end="zoomplus.mouseout"/>
                        </use>
                        <path d="M-4,0h8M0,-4v8" fill="none" stroke="white" stroke-width="1.5" pointer-events="none"/>
                </g>
                <g id="zoomMin">
                        <use xlink:href="#rim" fill="#404040">
                                <set attributeName="fill" to="#808080" begin="zoomminus.mouseover" end="zoomminus.mouseout"/>
                        </use>
                        <path d="M-4,0h8" fill="none" stroke="white" stroke-width="1.5" pointer-events="none"/>
                </g>
                <g id="dirArrow">
                        <path fill="none" stroke="white" stroke-width="1.5" d="M0,-3.0v7 M-2.5,-0.5L0,-3.0L2.5,-0.5"/>
                </g>
               <g id="resetDef">
                       <use xlink:href="#rim2" fill="#404040">
                               <set attributeName="fill" to="#808080" begin="reset.mouseover" end="reset.mouseout"/>
                       </use>
               </g>
        </defs>

<script type="text/javascript">
var viewWidth = 1802;
var viewHeight = 76;
var sectionId = 'dynsection-0';
</script>
<script xlink:href="svgpan.js"/>
<svg id="graph" class="graph">
<g id="viewport">
<title>src</title>
<polygon fill="white" stroke="none" points="-4,4 -4,-72 1798,-72 1798,4 -4,4"/>
<g id="clust1" class="cluster"><title>clusterdir_68267d1309a1af8e8297ef4c3efbcdba</title>
<g id="a_clust1"><a xlink:href="dir_68267d1309a1af8e8297ef4c3efbcdba.html" target="_top">
<polygon fill="#eeeeff" stroke="black" points="8,-8 8,-60 1786,-60 1786,-8 8,-8"/>
</a>
</g>
</g>
<!-- dir_68267d1309a1af8e8297ef4c3efbcdba -->
<g id="node1" class="node"><title>dir_68267d1309a1af8e8297ef4c3efbcdba</title>
<text text-anchor="middle" x="1751" y="-31.5" font-family="Helvetica,sans-Serif" font-size="10.00">src</text>
</g>
<!-- dir_128a93aeeff33a8423f079f46929dbb3 -->
<g id="node2" class="node"><title>dir_128a93aeeff33a8423f079f46929dbb3</title>
<g id="a_node2"><a xlink:href="dir_128a93aeeff33a8423f079f46929dbb3.html" target="_top" xlink:title="ai">
<polygon fill="white" stroke="red" points="1706,-52 1652,-52 1652,-16 1706,-16 1706,-52"/>
<text text-anchor="middle" x="1679" y="-31.5" font-family="Helvetica,sans-Serif" font-size="10.00">ai</text>
</a>
</g>
</g>
<!-- dir_34519bff5ae72130fe71a8620cbf1fc0 -->
<g id="node3" class="node"><title>dir_34519bff5ae72130fe71a8620cbf1fc0</title>
<g id="a_node3"><a xlink:href="dir_34519bff5ae72130fe71a8620cbf1fc0.html" target="_top" xlink:title="camera">
<polygon fill="white" stroke="black" points="1634,-52 1580,-52 1580,-16 1634,-16 1634,-52"/>
<text text-anchor="middle" x="1607" y="-31.5" font-family="Helvetica,sans-Serif" font-size="10.00">camera</text>
</a>
</g>
</g>
<!-- dir_7bdefc09624a65e4879833850a61ce04 -->
<g id="node4" class="node"><title>dir_7bdefc09624a65e4879833850a61ce04</title>
<g id="a_node4"><a xlink:href="dir_7bdefc09624a65e4879833850a61ce04.html" target="_top" xlink:title="collision">
<polygon fill="white" stroke="black" points="1562,-52 1508,-52 1508,-16 1562,-16 1562,-52"/>
<text text-anchor="middle" x="1535" y="-31.5" font-family="Helvetica,sans-Serif" font-size="10.00">collision</text>
</a>
</g>
</g>
<!-- dir_25685f9c6d837c57f295dee081495707 -->
<g id="node5" class="node"><title>dir_25685f9c6d837c57f295dee081495707</title>
<g id="a_node5"><a xlink:href="dir_25685f9c6d837c57f295dee081495707.html" target="_top" xlink:title="display">
<polygon fill="white" stroke="red" points="1490,-52 1436,-52 1436,-16 1490,-16 1490,-52"/>
<text text-anchor="middle" x="1463" y="-31.5" font-family="Helvetica,sans-Serif" font-size="10.00">display</text>
</a>
</g>
</g>
<!-- dir_4c1ae83e7735d5d6c7036f37fb821762 -->
<g id="node6" class="node"><title>dir_4c1ae83e7735d5d6c7036f37fb821762</title>
<g id="a_node6"><a xlink:href="dir_4c1ae83e7735d5d6c7036f37fb821762.html" target="_top" xlink:title="equipment">
<polygon fill="white" stroke="red" points="1418,-52 1356,-52 1356,-16 1418,-16 1418,-52"/>
<text text-anchor="middle" x="1387" y="-31.5" font-family="Helvetica,sans-Serif" font-size="10.00">equipment</text>
</a>
</g>
</g>
<!-- dir_09285d76a3efc6ee8946ffb4d7669556 -->
<g id="node7" class="node"><title>dir_09285d76a3efc6ee8946ffb4d7669556</title>
<g id="a_node7"><a xlink:href="dir_09285d76a3efc6ee8946ffb4d7669556.html" target="_top" xlink:title="etc">
<polygon fill="white" stroke="red" points="1338,-52 1284,-52 1284,-16 1338,-16 1338,-52"/>
<text text-anchor="middle" x="1311" y="-31.5" font-family="Helvetica,sans-Serif" font-size="10.00">etc</text>
</a>
</g>
</g>
<!-- dir_5357e5f4a5e05f9ad3166f91e4fef869 -->
<g id="node8" class="node"><title>dir_5357e5f4a5e05f9ad3166f91e4fef869</title>
<g id="a_node8"><a xlink:href="dir_5357e5f4a5e05f9ad3166f91e4fef869.html" target="_top" xlink:title="factions">
<polygon fill="white" stroke="black" points="1266,-52 1212,-52 1212,-16 1266,-16 1266,-52"/>
<text text-anchor="middle" x="1239" y="-31.5" font-family="Helvetica,sans-Serif" font-size="10.00">factions</text>
</a>
</g>
</g>
<!-- dir_31d4ea8148997abe7a56a5b07f2fed83 -->
<g id="node9" class="node"><title>dir_31d4ea8148997abe7a56a5b07f2fed83</title>
<g id="a_node9"><a xlink:href="dir_31d4ea8148997abe7a56a5b07f2fed83.html" target="_top" xlink:title="gamestate">
<polygon fill="white" stroke="red" points="1194,-52 1132,-52 1132,-16 1194,-16 1194,-52"/>
<text text-anchor="middle" x="1163" y="-31.5" font-family="Helvetica,sans-Serif" font-size="10.00">gamestate</text>
</a>
</g>
</g>
<!-- dir_405fd32de3649961a5f009c7a3fe84df -->
<g id="node10" class="node"><title>dir_405fd32de3649961a5f009c7a3fe84df</title>
<g id="a_node10"><a xlink:href="dir_405fd32de3649961a5f009c7a3fe84df.html" target="_top" xlink:title="geometry">
<polygon fill="white" stroke="black" points="1113.25,-52 1056.75,-52 1056.75,-16 1113.25,-16 1113.25,-52"/>
<text text-anchor="middle" x="1085" y="-31.5" font-family="Helvetica,sans-Serif" font-size="10.00">geometry</text>
</a>
</g>
</g>
<!-- dir_d365e15d984c8d0205117ee0c40d6716 -->
<g id="node11" class="node"><title>dir_d365e15d984c8d0205117ee0c40d6716</title>
<g id="a_node11"><a xlink:href="dir_d365e15d984c8d0205117ee0c40d6716.html" target="_top" xlink:title="input">
<polygon fill="white" stroke="black" points="1038,-52 984,-52 984,-16 1038,-16 1038,-52"/>
<text text-anchor="middle" x="1011" y="-31.5" font-family="Helvetica,sans-Serif" font-size="10.00">input</text>
</a>
</g>
</g>
<!-- dir_8250e12e5a19acb8ece30f1703b6dc16 -->
<g id="node12" class="node"><title>dir_8250e12e5a19acb8ece30f1703b6dc16</title>
<g id="a_node12"><a xlink:href="dir_8250e12e5a19acb8ece30f1703b6dc16.html" target="_top" xlink:title="physics">
<polygon fill="white" stroke="black" points="966,-52 912,-52 912,-16 966,-16 966,-52"/>
<text text-anchor="middle" x="939" y="-31.5" font-family="Helvetica,sans-Serif" font-size="10.00">physics</text>
</a>
</g>
</g>
<!-- dir_7156828c8d148b9c7ab68f09210221be -->
<g id="node13" class="node"><title>dir_7156828c8d148b9c7ab68f09210221be</title>
<g id="a_node13"><a xlink:href="dir_7156828c8d148b9c7ab68f09210221be.html" target="_top" xlink:title="programs">
<polygon fill="white" stroke="black" points="893.25,-52 836.75,-52 836.75,-16 893.25,-16 893.25,-52"/>
<text text-anchor="middle" x="865" y="-31.5" font-family="Helvetica,sans-Serif" font-size="10.00">programs</text>
</a>
</g>
</g>
<!-- dir_8ceb8a2b157fccb14fc1358241bcf28b -->
<g id="node14" class="node"><title>dir_8ceb8a2b157fccb14fc1358241bcf28b</title>
<g id="a_node14"><a xlink:href="dir_8ceb8a2b157fccb14fc1358241bcf28b.html" target="_top" xlink:title="property">
<polygon fill="white" stroke="black" points="818,-52 764,-52 764,-16 818,-16 818,-52"/>
<text text-anchor="middle" x="791" y="-31.5" font-family="Helvetica,sans-Serif" font-size="10.00">property</text>
</a>
</g>
</g>
<!-- dir_b8641f383bb3a55bd12c64e8208632c3 -->
<g id="node15" class="node"><title>dir_b8641f383bb3a55bd12c64e8208632c3</title>
<g id="a_node15"><a xlink:href="dir_b8641f383bb3a55bd12c64e8208632c3.html" target="_top" xlink:title="resource">
<polygon fill="white" stroke="black" points="746,-52 692,-52 692,-16 746,-16 746,-52"/>
<text text-anchor="middle" x="719" y="-31.5" font-family="Helvetica,sans-Serif" font-size="10.00">resource</text>
</a>
</g>
</g>
<!-- dir_ce641ecd0feac39632e1be43a1a6a10e -->
<g id="node16" class="node"><title>dir_ce641ecd0feac39632e1be43a1a6a10e</title>
<g id="a_node16"><a xlink:href="dir_ce641ecd0feac39632e1be43a1a6a10e.html" target="_top" xlink:title="scenarios">
<polygon fill="white" stroke="black" points="673.25,-52 614.75,-52 614.75,-16 673.25,-16 673.25,-52"/>
<text text-anchor="middle" x="644" y="-31.5" font-family="Helvetica,sans-Serif" font-size="10.00">scenarios</text>
</a>
</g>
</g>
<!-- dir_06983a04f4bcdd04d40946e8be932ce3 -->
<g id="node17" class="node"><title>dir_06983a04f4bcdd04d40946e8be932ce3</title>
<g id="a_node17"><a xlink:href="dir_06983a04f4bcdd04d40946e8be932ce3.html" target="_top" xlink:title="sound">
<polygon fill="white" stroke="black" points="596,-52 542,-52 542,-16 596,-16 596,-52"/>
<text text-anchor="middle" x="569" y="-31.5" font-family="Helvetica,sans-Serif" font-size="10.00">sound</text>
</a>
</g>
</g>
<!-- dir_da5c6b39c0a2f54e57df6799511cd3ab -->
<g id="node18" class="node"><title>dir_da5c6b39c0a2f54e57df6799511cd3ab</title>
<g id="a_node18"><a xlink:href="dir_da5c6b39c0a2f54e57df6799511cd3ab.html" target="_top" xlink:title="ui">
<polygon fill="white" stroke="red" points="524,-52 470,-52 470,-16 524,-16 524,-52"/>
<text text-anchor="middle" x="497" y="-31.5" font-family="Helvetica,sans-Serif" font-size="10.00">ui</text>
</a>
</g>
</g>
<!-- dir_313caf1132e152dd9b58bea13a4052ca -->
<g id="node19" class="node"><title>dir_313caf1132e152dd9b58bea13a4052ca</title>
<g id="a_node19"><a xlink:href="dir_313caf1132e152dd9b58bea13a4052ca.html" target="_top" xlink:title="utils">
<polygon fill="white" stroke="red" points="452,-52 398,-52 398,-16 452,-16 452,-52"/>
<text text-anchor="middle" x="425" y="-31.5" font-family="Helvetica,sans-Serif" font-size="10.00">utils</text>
</a>
</g>
</g>
<!-- dir_3b34176ba99fd1dbf8af37e0aa0e80ab -->
<g id="node20" class="node"><title>dir_3b34176ba99fd1dbf8af37e0aa0e80ab</title>
<g id="a_node20"><a xlink:href="dir_3b34176ba99fd1dbf8af37e0aa0e80ab.html" target="_top" xlink:title="voxel">
<polygon fill="white" stroke="red" points="380,-52 326,-52 326,-16 380,-16 380,-52"/>
<text text-anchor="middle" x="353" y="-31.5" font-family="Helvetica,sans-Serif" font-size="10.00">voxel</text>
</a>
</g>
</g>
<!-- dir_54de17332df5908a4e55d8cfcc1ad9a6 -->
<g id="node21" class="node"><title>dir_54de17332df5908a4e55d8cfcc1ad9a6</title>
<g id="a_node21"><a xlink:href="dir_54de17332df5908a4e55d8cfcc1ad9a6.html" target="_top" xlink:title="voxeleffect">
<polygon fill="white" stroke="red" points="308,-52 246,-52 246,-16 308,-16 308,-52"/>
<text text-anchor="middle" x="277" y="-31.5" font-family="Helvetica,sans-Serif" font-size="10.00">voxeleffect</text>
</a>
</g>
</g>
<!-- dir_6826d79532171ff2338799cfd298b875 -->
<g id="node22" class="node"><title>dir_6826d79532171ff2338799cfd298b875</title>
<g id="a_node22"><a xlink:href="dir_6826d79532171ff2338799cfd298b875.html" target="_top" xlink:title="world">
<polygon fill="white" stroke="red" points="228,-52 174,-52 174,-16 228,-16 228,-52"/>
<text text-anchor="middle" x="201" y="-31.5" font-family="Helvetica,sans-Serif" font-size="10.00">world</text>
</a>
</g>
</g>
<!-- dir_b8b87a3ff4d0369902fe7a86e04ac30b -->
<g id="node23" class="node"><title>dir_b8b87a3ff4d0369902fe7a86e04ac30b</title>
<g id="a_node23"><a xlink:href="dir_b8b87a3ff4d0369902fe7a86e04ac30b.html" target="_top" xlink:title="worldobject">
<polygon fill="white" stroke="red" points="155.25,-52 90.75,-52 90.75,-16 155.25,-16 155.25,-52"/>
<text text-anchor="middle" x="123" y="-31.5" font-family="Helvetica,sans-Serif" font-size="10.00">worldobject</text>
</a>
</g>
</g>
<!-- dir_85c53fc97d906ef66ae29f7ce243c4d9 -->
<g id="node24" class="node"><title>dir_85c53fc97d906ef66ae29f7ce243c4d9</title>
<g id="a_node24"><a xlink:href="dir_85c53fc97d906ef66ae29f7ce243c4d9.html" target="_top" xlink:title="worldtree">
<polygon fill="white" stroke="black" points="72,-52 16,-52 16,-16 72,-16 72,-52"/>
<text text-anchor="middle" x="44" y="-31.5" font-family="Helvetica,sans-Serif" font-size="10.00">worldtree</text>
</a>
</g>
</g>
</g>
</svg>
        <g id="navigator" transform="translate(0 0)" fill="#404254">
                <rect fill="#f2f5e9" fill-opacity="0.5" stroke="#606060" stroke-width=".5" x="0" y="0" width="60" height="60"/>
                <use id="zoomplus" xlink:href="#zoomPlus" x="17" y="9" onmousedown="handleZoom(evt,'in')"/>
                <use id="zoomminus" xlink:href="#zoomMin" x="42" y="9" onmousedown="handleZoom(evt,'out')"/>
                <use id="reset" xlink:href="#resetDef" x="30" y="36" onmousedown="handleReset()"/>
                <g id="arrowUp" xlink:href="#dirArrow" transform="translate(30 24)" onmousedown="handlePan(0,-1)">
                  <use xlink:href="#rim" fill="#404040">
                        <set attributeName="fill" to="#808080" begin="arrowUp.mouseover" end="arrowUp.mouseout"/>
                  </use>
                  <path fill="none" stroke="white" stroke-width="1.5" d="M0,-3.0v7 M-2.5,-0.5L0,-3.0L2.5,-0.5"/>
                </g>
                <g id="arrowRight" xlink:href="#dirArrow" transform="rotate(90) translate(36 -43)" onmousedown="handlePan(1,0)">
                  <use xlink:href="#rim" fill="#404040">
                        <set attributeName="fill" to="#808080" begin="arrowRight.mouseover" end="arrowRight.mouseout"/>
                  </use>
                  <path fill="none" stroke="white" stroke-width="1.5" d="M0,-3.0v7 M-2.5,-0.5L0,-3.0L2.5,-0.5"/>
                </g>
                <g id="arrowDown" xlink:href="#dirArrow" transform="rotate(180) translate(-30 -48)" onmousedown="handlePan(0,1)">
                  <use xlink:href="#rim" fill="#404040">
                        <set attributeName="fill" to="#808080" begin="arrowDown.mouseover" end="arrowDown.mouseout"/>
                  </use>
                  <path fill="none" stroke="white" stroke-width="1.5" d="M0,-3.0v7 M-2.5,-0.5L0,-3.0L2.5,-0.5"/>
                </g>
                <g id="arrowLeft" xlink:href="#dirArrow" transform="rotate(270) translate(-36 17)" onmousedown="handlePan(-1,0)">
                  <use xlink:href="#rim" fill="#404040">
                        <set attributeName="fill" to="#808080" begin="arrowLeft.mouseover" end="arrowLeft.mouseout"/>
                  </use>
                  <path fill="none" stroke="white" stroke-width="1.5" d="M0,-3.0v7 M-2.5,-0.5L0,-3.0L2.5,-0.5"/>
                </g>
        </g>
        <svg viewBox="0 0 15 15" width="100%" height="30px" preserveAspectRatio="xMaxYMin meet">
         <g id="arrow_out" transform="scale(0.3 0.3)">
          <a xlink:href="dir_68267d1309a1af8e8297ef4c3efbcdba_dep_org.svg" target="_base">
           <rect id="button" ry="5" rx="5" y="6" x="6" height="38" width="38"
                fill="#f2f5e9" fill-opacity="0.5" stroke="#606060" stroke-width="1.0"/>
           <path id="arrow"
             d="M 11.500037,31.436501 C 11.940474,20.09759 22.043105,11.32322 32.158766,21.979434 L 37.068811,17.246167 C 37.068811,17.246167 37.088388,32 37.088388,32 L 22.160133,31.978069 C 22.160133,31.978069 26.997745,27.140456 26.997745,27.140456 C 18.528582,18.264221 13.291696,25.230495 11.500037,31.436501 z"
             style="fill:#404040;"/>
          </a>
         </g>
        </svg>
</svg>
