<?xml version="1.0" encoding="UTF-8" standalone="no"?>
<!DOCTYPE svg PUBLIC "-//W3C//DTD SVG 1.1//EN"
 "http://www.w3.org/Graphics/SVG/1.1/DTD/svg11.dtd">
<!-- Generated by graphviz version 2.36.0 (20140111.2315)
 -->
<!-- Title: test Pages: 1 -->
<svg width="1500pt" height="76pt"
 viewBox="0.00 0.00 1500.00 76.00" xmlns="http://www.w3.org/2000/svg" xmlns:xlink="http://www.w3.org/1999/xlink">
<g id="graph0" class="graph" transform="scale(1 1) rotate(0) translate(4 72)">
<title>test</title>
<polygon fill="white" stroke="none" points="-4,4 -4,-72 1496,-72 1496,4 -4,4"/>
<g id="clust1" class="cluster"><title>clusterdir_13e138d54eb8818da29c3992edef070a</title>
<g id="a_clust1"><a xlink:href="dir_13e138d54eb8818da29c3992edef070a.html" target="_top">
<polygon fill="#eeeeff" stroke="black" points="8,-8 8,-60 1484,-60 1484,-8 8,-8"/>
</a>
</g>
</g>
<!-- dir_13e138d54eb8818da29c3992edef070a -->
<g id="node1" class="node"><title>dir_13e138d54eb8818da29c3992edef070a</title>
<text text-anchor="middle" x="1449" y="-31.5" font-family="Helvetica,sans-Serif" font-size="10.00">test</text>
</g>
<!-- dir_5bb86c0def511a11b818997697d27160 -->
<g id="node2" class="node"><title>dir_5bb86c0def511a11b818997697d27160</title>
<g id="a_node2"><a xlink:href="dir_5bb86c0def511a11b818997697d27160.html" target="_top" xlink:title="ai">
<polygon fill="white" stroke="black" points="1404,-52 1350,-52 1350,-16 1404,-16 1404,-52"/>
<text text-anchor="middle" x="1377" y="-31.5" font-family="Helvetica,sans-Serif" font-size="10.00">ai</text>
</a>
</g>
</g>
<!-- dir_eb27289f87ea6696b5abab7b83f0369e -->
<g id="node3" class="node"><title>dir_eb27289f87ea6696b5abab7b83f0369e</title>
<g id="a_node3"><a xlink:href="dir_eb27289f87ea6696b5abab7b83f0369e.html" target="_top" xlink:title="bandit_extension">
<polygon fill="white" stroke="black" points="1332,-52 1242,-52 1242,-16 1332,-16 1332,-52"/>
<text text-anchor="middle" x="1287" y="-31.5" font-family="Helvetica,sans-Serif" font-size="10.00">bandit_extension</text>
</a>
</g>
</g>
<!-- dir_08394c3dd6e492bd300266eec0433a42 -->
<g id="node4" class="node"><title>dir_08394c3dd6e492bd300266eec0433a42</title>
<g id="a_node4"><a xlink:href="dir_08394c3dd6e492bd300266eec0433a42.html" target="_top" xlink:title="collision">
<polygon fill="white" stroke="black" points="1224,-52 1170,-52 1170,-16 1224,-16 1224,-52"/>
<text text-anchor="middle" x="1197" y="-31.5" font-family="Helvetica,sans-Serif" font-size="10.00">collision</text>
</a>
</g>
</g>
<!-- dir_d45b39369be9dda70241e08964356300 -->
<g id="node5" class="node"><title>dir_d45b39369be9dda70241e08964356300</title>
<g id="a_node5"><a xlink:href="dir_d45b39369be9dda70241e08964356300.html" target="_top" xlink:title="damageforwarder">
<polygon fill="white" stroke="black" points="1152,-52 1062,-52 1062,-16 1152,-16 1152,-52"/>
<text text-anchor="middle" x="1107" y="-31.5" font-family="Helvetica,sans-Serif" font-size="10.00">damageforwarder</text>
</a>
</g>
</g>
<!-- dir_42090c1b795f4706cfb1e5d40af88688 -->
<g id="node6" class="node"><title>dir_42090c1b795f4706cfb1e5d40af88688</title>
<g id="a_node6"><a xlink:href="dir_42090c1b795f4706cfb1e5d40af88688.html" target="_top" xlink:title="directoryreader">
<polygon fill="white" stroke="black" points="1043.25,-52 962.75,-52 962.75,-16 1043.25,-16 1043.25,-52"/>
<text text-anchor="middle" x="1003" y="-31.5" font-family="Helvetica,sans-Serif" font-size="10.00">directoryreader</text>
</a>
</g>
</g>
<!-- dir_d49d4fe2bb593f3112f8bcbe6fb5f73b -->
<g id="node7" class="node"><title>dir_d49d4fe2bb593f3112f8bcbe6fb5f73b</title>
<g id="a_node7"><a xlink:href="dir_d49d4fe2bb593f3112f8bcbe6fb5f73b.html" target="_top" xlink:title="geometry">
<polygon fill="white" stroke="black" points="944.25,-52 887.75,-52 887.75,-16 944.25,-16 944.25,-52"/>
<text text-anchor="middle" x="916" y="-31.5" font-family="Helvetica,sans-Serif" font-size="10.00">geometry</text>
</a>
</g>
</g>
<!-- dir_b0aa0404f5d19c2eacadd69408b92ce2 -->
<g id="node8" class="node"><title>dir_b0aa0404f5d19c2eacadd69408b92ce2</title>
<g id="a_node8"><a xlink:href="dir_b0aa0404f5d19c2eacadd69408b92ce2.html" target="_top" xlink:title="loader">
<polygon fill="white" stroke="black" points="869,-52 815,-52 815,-16 869,-16 869,-52"/>
<text text-anchor="middle" x="842" y="-31.5" font-family="Helvetica,sans-Serif" font-size="10.00">loader</text>
</a>
</g>
</g>
<!-- dir_46412a18458982272b318c260e49685b -->
<g id="node9" class="node"><title>dir_46412a18458982272b318c260e49685b</title>
<g id="a_node9"><a xlink:href="dir_46412a18458982272b318c260e49685b.html" target="_top" xlink:title="perftest">
<polygon fill="white" stroke="black" points="797,-52 743,-52 743,-16 797,-16 797,-52"/>
<text text-anchor="middle" x="770" y="-31.5" font-family="Helvetica,sans-Serif" font-size="10.00">perftest</text>
</a>
</g>
</g>
<!-- dir_1d8d28f8b7e641dc830e382cb5f7e5c5 -->
<g id="node10" class="node"><title>dir_1d8d28f8b7e641dc830e382cb5f7e5c5</title>
<g id="a_node10"><a xlink:href="dir_1d8d28f8b7e641dc830e382cb5f7e5c5.html" target="_top" xlink:title="property">
<polygon fill="white" stroke="black" points="725,-52 671,-52 671,-16 725,-16 725,-52"/>
<text text-anchor="middle" x="698" y="-31.5" font-family="Helvetica,sans-Serif" font-size="10.00">property</text>
</a>
</g>
</g>
<!-- dir_63fa565dc5f830e3d3c9b4b3141700eb -->
<g id="node11" class="node"><title>dir_63fa565dc5f830e3d3c9b4b3141700eb</title>
<g id="a_node11"><a xlink:href="dir_63fa565dc5f830e3d3c9b4b3141700eb.html" target="_top" xlink:title="splitting">
<polygon fill="white" stroke="black" points="653,-52 599,-52 599,-16 653,-16 653,-52"/>
<text text-anchor="middle" x="626" y="-31.5" font-family="Helvetica,sans-Serif" font-size="10.00">splitting</text>
</a>
</g>
</g>
<!-- dir_7b89290bb6fb2552f6509fd958201c82 -->
<g id="node12" class="node"><title>dir_7b89290bb6fb2552f6509fd958201c82</title>
<g id="a_node12"><a xlink:href="dir_7b89290bb6fb2552f6509fd958201c82.html" target="_top" xlink:title="statemachine">
<polygon fill="white" stroke="black" points="580.25,-52 505.75,-52 505.75,-16 580.25,-16 580.25,-52"/>
<text text-anchor="middle" x="543" y="-31.5" font-family="Helvetica,sans-Serif" font-size="10.00">statemachine</text>
</a>
</g>
</g>
<!-- dir_3ce98eb6a5ee69074ca4ed45a602e48c -->
<g id="node13" class="node"><title>dir_3ce98eb6a5ee69074ca4ed45a602e48c</title>
<g id="a_node13"><a xlink:href="dir_3ce98eb6a5ee69074ca4ed45a602e48c.html" target="_top" xlink:title="threading">
<polygon fill="white" stroke="black" points="487,-52 431,-52 431,-16 487,-16 487,-52"/>
<text text-anchor="middle" x="459" y="-31.5" font-family="Helvetica,sans-Serif" font-size="10.00">threading</text>
</a>
</g>
</g>
<!-- dir_f74fd1ee434247d3133ab110dd785d66 -->
<g id="node14" class="node"><title>dir_f74fd1ee434247d3133ab110dd785d66</title>
<g id="a_node14"><a xlink:href="dir_f74fd1ee434247d3133ab110dd785d66.html" target="_top" xlink:title="voxelcluster">
<polygon fill="white" stroke="black" points="413,-52 345,-52 345,-16 413,-16 413,-52"/>
<text text-anchor="middle" x="379" y="-31.5" font-family="Helvetica,sans-Serif" font-size="10.00">voxelcluster</text>
</a>
</g>
</g>
<!-- dir_3aa378f5cb82f86502ab52e70bee38af -->
<g id="node15" class="node"><title>dir_3aa378f5cb82f86502ab52e70bee38af</title>
<g id="a_node15"><a xlink:href="dir_3aa378f5cb82f86502ab52e70bee38af.html" target="_top" xlink:title="voxeltree">
<polygon fill="white" stroke="black" points="326.25,-52 271.75,-52 271.75,-16 326.25,-16 326.25,-52"/>
<text text-anchor="middle" x="299" y="-31.5" font-family="Helvetica,sans-Serif" font-size="10.00">voxeltree</text>
</a>
</g>
</g>
<!-- dir_15abf5c7dd252caf1775c0c2e99cca1a -->
<g id="node16" class="node"><title>dir_15abf5c7dd252caf1775c0c2e99cca1a</title>
<g id="a_node16"><a xlink:href="dir_15abf5c7dd252caf1775c0c2e99cca1a.html" target="_top" xlink:title="worldobject">
<polygon fill="white" stroke="black" points="253.25,-52 188.75,-52 188.75,-16 253.25,-16 253.25,-52"/>
<text text-anchor="middle" x="221" y="-31.5" font-family="Helvetica,sans-Serif" font-size="10.00">worldobject</text>
</a>
</g>
</g>
<!-- dir_921827527863b63bcfcd4a7876417ea7 -->
<g id="node17" class="node"><title>dir_921827527863b63bcfcd4a7876417ea7</title>
<g id="a_node17"><a xlink:href="dir_921827527863b63bcfcd4a7876417ea7.html" target="_top" xlink:title="worldtransform">
<polygon fill="white" stroke="black" points="170,-52 90,-52 90,-16 170,-16 170,-52"/>
<text text-anchor="middle" x="130" y="-31.5" font-family="Helvetica,sans-Serif" font-size="10.00">worldtransform</text>
</a>
</g>
</g>
<!-- dir_235a536c0e408d5557884a0008838f40 -->
<g id="node18" class="node"><title>dir_235a536c0e408d5557884a0008838f40</title>
<g id="a_node18"><a xlink:href="dir_235a536c0e408d5557884a0008838f40.html" target="_top" xlink:title="worldtree">
<polygon fill="white" stroke="black" points="72,-52 16,-52 16,-16 72,-16 72,-52"/>
<text text-anchor="middle" x="44" y="-31.5" font-family="Helvetica,sans-Serif" font-size="10.00">worldtree</text>
</a>
</g>
</g>
</g>
</svg>
