<?xml version="1.0" encoding="UTF-8" standalone="no"?>
<!DOCTYPE svg PUBLIC "-//W3C//DTD SVG 1.1//EN"
 "http://www.w3.org/Graphics/SVG/1.1/DTD/svg11.dtd">
<!-- Generated by graphviz version 2.36.0 (20140111.2315)
 -->
<!-- Title: Graphical Class Hierarchy Pages: 1 -->
<svg width="386pt" height="408pt"
 viewBox="0.00 0.00 386.00 408.00" xmlns="http://www.w3.org/2000/svg" xmlns:xlink="http://www.w3.org/1999/xlink">
<g id="graph0" class="graph" transform="scale(1 1) rotate(0) translate(4 404)">
<title>Graphical Class Hierarchy</title>
<polygon fill="white" stroke="none" points="-4,4 -4,-404 382,-404 382,4 -4,4"/>
<!-- Node1 -->
<g id="node1" class="node"><title>Node1</title>
<polygon fill="white" stroke="#bfbfbf" points="212.5,-380.5 212.5,-399.5 241.5,-399.5 241.5,-380.5 212.5,-380.5"/>
<text text-anchor="middle" x="227" y="-387.5" font-family="Helvetica,sans-Serif" font-size="10.00">A</text>
</g>
<!-- Node2 -->
<g id="node2" class="node"><title>Node2</title>
<g id="a_node2"><a xlink:href="class_style_guide.html" target="_top" xlink:title="StyleGuide">
<polygon fill="white" stroke="black" points="312.5,-190.5 312.5,-209.5 377.5,-209.5 377.5,-190.5 312.5,-190.5"/>
<text text-anchor="middle" x="345" y="-197.5" font-family="Helvetica,sans-Serif" font-size="10.00">StyleGuide</text>
</a>
</g>
</g>
<!-- Node1&#45;&gt;Node2 -->
<g id="edge1" class="edge"><title>Node1&#45;&gt;Node2</title>
<path fill="none" stroke="midnightblue" d="M251.745,-384.808C260.281,-381.939 269.417,-377.573 276,-371 323.705,-323.37 338.966,-238.089 342.857,-209.579"/>
<polygon fill="midnightblue" stroke="midnightblue" points="250.51,-381.52 241.842,-387.612 252.417,-388.255 250.51,-381.52"/>
</g>
<!-- Node3 -->
<g id="node3" class="node"><title>Node3</title>
<g id="a_node3"><a xlink:href="class_state.html" target="_top" xlink:title="State">
<polygon fill="white" stroke="black" points="0,-190.5 0,-209.5 40,-209.5 40,-190.5 0,-190.5"/>
<text text-anchor="middle" x="20" y="-197.5" font-family="Helvetica,sans-Serif" font-size="10.00">State</text>
</a>
</g>
</g>
<!-- Node4 -->
<g id="node4" class="node"><title>Node4</title>
<g id="a_node4"><a xlink:href="class_game_state.html" target="_top" xlink:title="GameState">
<polygon fill="white" stroke="black" points="76,-266.5 76,-285.5 142,-285.5 142,-266.5 76,-266.5"/>
<text text-anchor="middle" x="109" y="-273.5" font-family="Helvetica,sans-Serif" font-size="10.00">GameState</text>
</a>
</g>
</g>
<!-- Node3&#45;&gt;Node4 -->
<g id="edge2" class="edge"><title>Node3&#45;&gt;Node4</title>
<path fill="none" stroke="midnightblue" d="M39.8796,-216.493C57.3553,-231.759 82.7352,-253.93 97.0709,-266.453"/>
<polygon fill="midnightblue" stroke="midnightblue" points="41.8524,-213.568 32.0186,-209.625 37.2471,-218.84 41.8524,-213.568"/>
</g>
<!-- Node9 -->
<g id="node9" class="node"><title>Node9</title>
<g id="a_node9"><a xlink:href="class_test_state.html" target="_top" xlink:title="TestState">
<polygon fill="white" stroke="black" points="79.5,-114.5 79.5,-133.5 138.5,-133.5 138.5,-114.5 79.5,-114.5"/>
<text text-anchor="middle" x="109" y="-121.5" font-family="Helvetica,sans-Serif" font-size="10.00">TestState</text>
</a>
</g>
</g>
<!-- Node3&#45;&gt;Node9 -->
<g id="edge7" class="edge"><title>Node3&#45;&gt;Node9</title>
<path fill="none" stroke="midnightblue" d="M39.8796,-183.507C57.3553,-168.241 82.7352,-146.07 97.0709,-133.547"/>
<polygon fill="midnightblue" stroke="midnightblue" points="37.2471,-181.16 32.0186,-190.375 41.8524,-186.432 37.2471,-181.16"/>
</g>
<!-- Node5 -->
<g id="node5" class="node"><title>Node5</title>
<g id="a_node5"><a xlink:href="class_game.html" target="_top" xlink:title="Game">
<polygon fill="white" stroke="black" points="205.5,-342.5 205.5,-361.5 248.5,-361.5 248.5,-342.5 205.5,-342.5"/>
<text text-anchor="middle" x="227" y="-349.5" font-family="Helvetica,sans-Serif" font-size="10.00">Game</text>
</a>
</g>
</g>
<!-- Node4&#45;&gt;Node5 -->
<g id="edge3" class="edge"><title>Node4&#45;&gt;Node5</title>
<path fill="none" stroke="midnightblue" d="M126.69,-292.641C139.784,-305.01 158.93,-321.64 178,-333 186.47,-338.046 196.523,-342.263 205.235,-345.433"/>
<polygon fill="midnightblue" stroke="midnightblue" points="128.998,-290.004 119.373,-285.576 124.135,-295.04 128.998,-290.004"/>
</g>
<!-- Node6 -->
<g id="node6" class="node"><title>Node6</title>
<g id="a_node6"><a xlink:href="class_game_play.html" target="_top" xlink:title="GamePlay">
<polygon fill="white" stroke="black" points="196,-304.5 196,-323.5 258,-323.5 258,-304.5 196,-304.5"/>
<text text-anchor="middle" x="227" y="-311.5" font-family="Helvetica,sans-Serif" font-size="10.00">GamePlay</text>
</a>
</g>
</g>
<!-- Node4&#45;&gt;Node6 -->
<g id="edge4" class="edge"><title>Node4&#45;&gt;Node6</title>
<path fill="none" stroke="midnightblue" d="M149.153,-288.826C164.718,-293.925 182.314,-299.689 196.738,-304.414"/>
<polygon fill="midnightblue" stroke="midnightblue" points="149.864,-285.376 139.272,-285.589 147.685,-292.028 149.864,-285.376"/>
</g>
<!-- Node7 -->
<g id="node7" class="node"><title>Node7</title>
<g id="a_node7"><a xlink:href="class_game_play_paused.html" target="_top" xlink:title="GamePlayPaused">
<polygon fill="white" stroke="black" points="179.5,-266.5 179.5,-285.5 274.5,-285.5 274.5,-266.5 179.5,-266.5"/>
<text text-anchor="middle" x="227" y="-273.5" font-family="Helvetica,sans-Serif" font-size="10.00">GamePlayPaused</text>
</a>
</g>
</g>
<!-- Node4&#45;&gt;Node7 -->
<g id="edge5" class="edge"><title>Node4&#45;&gt;Node7</title>
<path fill="none" stroke="midnightblue" d="M152.092,-276C160.942,-276 170.327,-276 179.333,-276"/>
<polygon fill="midnightblue" stroke="midnightblue" points="152.005,-272.5 142.005,-276 152.005,-279.5 152.005,-272.5"/>
</g>
<!-- Node8 -->
<g id="node8" class="node"><title>Node8</title>
<g id="a_node8"><a xlink:href="class_game_play_running.html" target="_top" xlink:title="GamePlayRunning">
<polygon fill="white" stroke="black" points="178,-228.5 178,-247.5 276,-247.5 276,-228.5 178,-228.5"/>
<text text-anchor="middle" x="227" y="-235.5" font-family="Helvetica,sans-Serif" font-size="10.00">GamePlayRunning</text>
</a>
</g>
</g>
<!-- Node4&#45;&gt;Node8 -->
<g id="edge6" class="edge"><title>Node4&#45;&gt;Node8</title>
<path fill="none" stroke="midnightblue" d="M149.153,-263.174C164.718,-258.075 182.314,-252.311 196.738,-247.586"/>
<polygon fill="midnightblue" stroke="midnightblue" points="147.685,-259.972 139.272,-266.411 149.864,-266.624 147.685,-259.972"/>
</g>
<!-- Node10 -->
<g id="node10" class="node"><title>Node10</title>
<g id="a_node10"><a xlink:href="class_b.html" target="_top" xlink:title="B">
<polygon fill="white" stroke="black" points="212.5,-190.5 212.5,-209.5 241.5,-209.5 241.5,-190.5 212.5,-190.5"/>
<text text-anchor="middle" x="227" y="-197.5" font-family="Helvetica,sans-Serif" font-size="10.00">B</text>
</a>
</g>
</g>
<!-- Node9&#45;&gt;Node10 -->
<g id="edge8" class="edge"><title>Node9&#45;&gt;Node10</title>
<path fill="none" stroke="midnightblue" d="M126.69,-140.641C139.784,-153.01 158.93,-169.64 178,-181 188.934,-187.513 202.506,-192.647 212.426,-195.927"/>
<polygon fill="midnightblue" stroke="midnightblue" points="128.998,-138.004 119.373,-133.576 124.135,-143.04 128.998,-138.004"/>
</g>
<!-- Node11 -->
<g id="node11" class="node"><title>Node11</title>
<g id="a_node11"><a xlink:href="class_c.html" target="_top" xlink:title="C">
<polygon fill="white" stroke="black" points="212.5,-152.5 212.5,-171.5 241.5,-171.5 241.5,-152.5 212.5,-152.5"/>
<text text-anchor="middle" x="227" y="-159.5" font-family="Helvetica,sans-Serif" font-size="10.00">C</text>
</a>
</g>
</g>
<!-- Node9&#45;&gt;Node11 -->
<g id="edge10" class="edge"><title>Node9&#45;&gt;Node11</title>
<path fill="none" stroke="midnightblue" d="M148.437,-136.592C170.455,-143.804 196.734,-152.413 212.358,-157.531"/>
<polygon fill="midnightblue" stroke="midnightblue" points="149.267,-133.18 138.674,-133.393 147.088,-139.832 149.267,-133.18"/>
</g>
<!-- Node12 -->
<g id="node12" class="node"><title>Node12</title>
<g id="a_node12"><a xlink:href="class_d.html" target="_top" xlink:title="D">
<polygon fill="white" stroke="black" points="212.5,-114.5 212.5,-133.5 241.5,-133.5 241.5,-114.5 212.5,-114.5"/>
<text text-anchor="middle" x="227" y="-121.5" font-family="Helvetica,sans-Serif" font-size="10.00">D</text>
</a>
</g>
</g>
<!-- Node9&#45;&gt;Node12 -->
<g id="edge12" class="edge"><title>Node9&#45;&gt;Node12</title>
<path fill="none" stroke="midnightblue" d="M148.735,-124C170.692,-124 196.804,-124 212.358,-124"/>
<polygon fill="midnightblue" stroke="midnightblue" points="148.674,-120.5 138.674,-124 148.674,-127.5 148.674,-120.5"/>
</g>
<!-- Node13 -->
<g id="node13" class="node"><title>Node13</title>
<g id="a_node13"><a xlink:href="class_e.html" target="_top" xlink:title="E">
<polygon fill="white" stroke="black" points="212.5,-76.5 212.5,-95.5 241.5,-95.5 241.5,-76.5 212.5,-76.5"/>
<text text-anchor="middle" x="227" y="-83.5" font-family="Helvetica,sans-Serif" font-size="10.00">E</text>
</a>
</g>
</g>
<!-- Node9&#45;&gt;Node13 -->
<g id="edge13" class="edge"><title>Node9&#45;&gt;Node13</title>
<path fill="none" stroke="midnightblue" d="M148.437,-111.408C170.455,-104.196 196.734,-95.5871 212.358,-90.4691"/>
<polygon fill="midnightblue" stroke="midnightblue" points="147.088,-108.168 138.674,-114.607 149.267,-114.82 147.088,-108.168"/>
</g>
<!-- Node14 -->
<g id="node14" class="node"><title>Node14</title>
<g id="a_node14"><a xlink:href="class_f.html" target="_top" xlink:title="F">
<polygon fill="white" stroke="black" points="212.5,-38.5 212.5,-57.5 241.5,-57.5 241.5,-38.5 212.5,-38.5"/>
<text text-anchor="middle" x="227" y="-45.5" font-family="Helvetica,sans-Serif" font-size="10.00">F</text>
</a>
</g>
</g>
<!-- Node9&#45;&gt;Node14 -->
<g id="edge14" class="edge"><title>Node9&#45;&gt;Node14</title>
<path fill="none" stroke="midnightblue" d="M126.69,-107.359C139.784,-94.9905 158.93,-78.3602 178,-67 188.934,-60.4866 202.506,-55.3531 212.426,-52.0728"/>
<polygon fill="midnightblue" stroke="midnightblue" points="124.135,-104.96 119.373,-114.424 128.998,-109.996 124.135,-104.96"/>
</g>
<!-- Node15 -->
<g id="node15" class="node"><title>Node15</title>
<g id="a_node15"><a xlink:href="class_g.html" target="_top" xlink:title="G">
<polygon fill="white" stroke="black" points="212.5,-0.5 212.5,-19.5 241.5,-19.5 241.5,-0.5 212.5,-0.5"/>
<text text-anchor="middle" x="227" y="-7.5" font-family="Helvetica,sans-Serif" font-size="10.00">G</text>
</a>
</g>
</g>
<!-- Node9&#45;&gt;Node15 -->
<g id="edge15" class="edge"><title>Node9&#45;&gt;Node15</title>
<path fill="none" stroke="midnightblue" d="M119.168,-105.28C130.385,-84.1221 151.232,-49.9135 178,-29 188.17,-21.0543 202.086,-16.0358 212.316,-13.1654"/>
<polygon fill="midnightblue" stroke="midnightblue" points="116.019,-103.749 114.578,-114.245 122.25,-106.939 116.019,-103.749"/>
</g>
<!-- Node10&#45;&gt;Node2 -->
<g id="edge9" class="edge"><title>Node10&#45;&gt;Node2</title>
<path fill="none" stroke="midnightblue" d="M252.213,-200C269.667,-200 293.386,-200 312.341,-200"/>
<polygon fill="midnightblue" stroke="midnightblue" points="251.762,-196.5 241.762,-200 251.762,-203.5 251.762,-196.5"/>
</g>
<!-- Node11&#45;&gt;Node2 -->
<g id="edge11" class="edge"><title>Node11&#45;&gt;Node2</title>
<path fill="none" stroke="#8b1a1a" d="M251.327,-169.642C269.587,-175.623 295.09,-183.978 314.721,-190.409"/>
<polygon fill="#8b1a1a" stroke="#8b1a1a" points="252.355,-166.295 241.762,-166.508 250.176,-172.948 252.355,-166.295"/>
</g>
</g>
</svg>
