<?xml version="1.0" encoding="UTF-8" standalone="no"?>
<!DOCTYPE svg PUBLIC "-//W3C//DTD SVG 1.1//EN"
 "http://www.w3.org/Graphics/SVG/1.1/DTD/svg11.dtd">
<!-- Generated by graphviz version 2.36.0 (20140111.2315)
 -->
<!-- Title: Graphical Class Hierarchy Pages: 1 -->
<svg width="204pt" height="256pt"
 viewBox="0.00 0.00 204.00 256.00" xmlns="http://www.w3.org/2000/svg" xmlns:xlink="http://www.w3.org/1999/xlink">
<g id="graph0" class="graph" transform="scale(1 1) rotate(0) translate(4 252)">
<title>Graphical Class Hierarchy</title>
<polygon fill="white" stroke="none" points="-4,4 -4,-252 200,-252 200,4 -4,4"/>
<!-- Node1 -->
<g id="node1" class="node"><title>Node1</title>
<g id="a_node1"><a xlink:href="class_abstract_shape.html" target="_top" xlink:title="AbstractShape">
<polygon fill="white" stroke="black" points="0.5,-114.5 0.5,-133.5 81.5,-133.5 81.5,-114.5 0.5,-114.5"/>
<text text-anchor="middle" x="41" y="-121.5" font-family="Helvetica,sans-Serif" font-size="10.00">AbstractShape</text>
</a>
</g>
</g>
<!-- Node2 -->
<g id="node2" class="node"><title>Node2</title>
<g id="a_node2"><a xlink:href="class_capsule.html" target="_top" xlink:title="Capsule">
<polygon fill="white" stroke="black" points="131,-228.5 131,-247.5 183,-247.5 183,-228.5 131,-228.5"/>
<text text-anchor="middle" x="157" y="-235.5" font-family="Helvetica,sans-Serif" font-size="10.00">Capsule</text>
</a>
</g>
</g>
<!-- Node1&#45;&gt;Node2 -->
<g id="edge1" class="edge"><title>Node1&#45;&gt;Node2</title>
<path fill="none" stroke="midnightblue" d="M53.1361,-142.286C66.4798,-163.006 90.5093,-196.776 118,-219 122.474,-222.617 127.749,-225.794 132.923,-228.463"/>
<polygon fill="midnightblue" stroke="midnightblue" points="56.0691,-140.375 47.7831,-133.772 50.1432,-144.101 56.0691,-140.375"/>
</g>
<!-- Node3 -->
<g id="node3" class="node"><title>Node3</title>
<g id="a_node3"><a xlink:href="class_line.html" target="_top" xlink:title="Line">
<polygon fill="white" stroke="black" points="139.5,-190.5 139.5,-209.5 174.5,-209.5 174.5,-190.5 139.5,-190.5"/>
<text text-anchor="middle" x="157" y="-197.5" font-family="Helvetica,sans-Serif" font-size="10.00">Line</text>
</a>
</g>
</g>
<!-- Node1&#45;&gt;Node3 -->
<g id="edge2" class="edge"><title>Node1&#45;&gt;Node3</title>
<path fill="none" stroke="midnightblue" d="M61.3794,-140.069C76.3409,-152.09 97.8277,-168.533 118,-181 124.776,-185.188 132.598,-189.224 139.378,-192.491"/>
<polygon fill="midnightblue" stroke="midnightblue" points="63.3502,-137.161 53.3836,-133.566 58.9335,-142.591 63.3502,-137.161"/>
</g>
<!-- Node4 -->
<g id="node4" class="node"><title>Node4</title>
<g id="a_node4"><a xlink:href="class_point.html" target="_top" xlink:title="Point">
<polygon fill="white" stroke="black" points="137.5,-152.5 137.5,-171.5 176.5,-171.5 176.5,-152.5 137.5,-152.5"/>
<text text-anchor="middle" x="157" y="-159.5" font-family="Helvetica,sans-Serif" font-size="10.00">Point</text>
</a>
</g>
</g>
<!-- Node1&#45;&gt;Node4 -->
<g id="edge3" class="edge"><title>Node1&#45;&gt;Node4</title>
<path fill="none" stroke="midnightblue" d="M80.4411,-136.814C99.589,-143.196 121.873,-150.624 137.255,-155.752"/>
<polygon fill="midnightblue" stroke="midnightblue" points="81.3607,-133.431 70.767,-133.589 79.147,-140.072 81.3607,-133.431"/>
</g>
<!-- Node5 -->
<g id="node5" class="node"><title>Node5</title>
<g id="a_node5"><a xlink:href="class_ray.html" target="_top" xlink:title="Ray">
<polygon fill="white" stroke="black" points="140,-114.5 140,-133.5 174,-133.5 174,-114.5 140,-114.5"/>
<text text-anchor="middle" x="157" y="-121.5" font-family="Helvetica,sans-Serif" font-size="10.00">Ray</text>
</a>
</g>
</g>
<!-- Node1&#45;&gt;Node5 -->
<g id="edge4" class="edge"><title>Node1&#45;&gt;Node5</title>
<path fill="none" stroke="midnightblue" d="M91.6348,-124C109.028,-124 127.351,-124 139.98,-124"/>
<polygon fill="midnightblue" stroke="midnightblue" points="91.5518,-120.5 81.5517,-124 91.5517,-127.5 91.5518,-120.5"/>
</g>
<!-- Node6 -->
<g id="node6" class="node"><title>Node6</title>
<g id="a_node6"><a xlink:href="class_sphere.html" target="_top" xlink:title="Sphere">
<polygon fill="white" stroke="black" points="133.5,-76.5 133.5,-95.5 180.5,-95.5 180.5,-76.5 133.5,-76.5"/>
<text text-anchor="middle" x="157" y="-83.5" font-family="Helvetica,sans-Serif" font-size="10.00">Sphere</text>
</a>
</g>
</g>
<!-- Node1&#45;&gt;Node6 -->
<g id="edge5" class="edge"><title>Node1&#45;&gt;Node6</title>
<path fill="none" stroke="midnightblue" d="M80.7248,-111.092C98.2408,-105.253 118.332,-98.5561 133.349,-93.5502"/>
<polygon fill="midnightblue" stroke="midnightblue" points="79.147,-107.928 70.767,-114.411 81.3607,-114.569 79.147,-107.928"/>
</g>
<!-- Node7 -->
<g id="node7" class="node"><title>Node7</title>
<g id="a_node7"><a xlink:href="class_t_a_a_b_b.html" target="_top" xlink:title="TAABB\&lt; T \&gt;">
<polygon fill="white" stroke="black" points="121,-38.5 121,-57.5 193,-57.5 193,-38.5 121,-38.5"/>
<text text-anchor="middle" x="157" y="-45.5" font-family="Helvetica,sans-Serif" font-size="10.00">TAABB&lt; T &gt;</text>
</a>
</g>
</g>
<!-- Node1&#45;&gt;Node7 -->
<g id="edge6" class="edge"><title>Node1&#45;&gt;Node7</title>
<path fill="none" stroke="midnightblue" d="M61.3794,-107.931C76.3409,-95.9105 97.8277,-79.4671 118,-67 123.396,-63.6651 129.455,-60.4267 135.123,-57.5962"/>
<polygon fill="midnightblue" stroke="midnightblue" points="58.9335,-105.409 53.3836,-114.434 63.3502,-110.839 58.9335,-105.409"/>
</g>
<!-- Node8 -->
<g id="node8" class="node"><title>Node8</title>
<g id="a_node8"><a xlink:href="class_t_a_a_b_b.html" target="_top" xlink:title="TAABB\&lt; int \&gt;">
<polygon fill="white" stroke="black" points="118.5,-0.5 118.5,-19.5 195.5,-19.5 195.5,-0.5 118.5,-0.5"/>
<text text-anchor="middle" x="157" y="-7.5" font-family="Helvetica,sans-Serif" font-size="10.00">TAABB&lt; int &gt;</text>
</a>
</g>
</g>
<!-- Node1&#45;&gt;Node8 -->
<g id="edge7" class="edge"><title>Node1&#45;&gt;Node8</title>
<path fill="none" stroke="midnightblue" d="M53.1361,-105.714C66.4798,-84.9943 90.5093,-51.224 118,-29 122.474,-25.3831 127.749,-22.2064 132.923,-19.5374"/>
<polygon fill="midnightblue" stroke="midnightblue" points="50.1432,-103.899 47.7831,-114.228 56.0691,-107.625 50.1432,-103.899"/>
</g>
</g>
</svg>
