<?xml version="1.0" encoding="UTF-8" standalone="no"?>
<!DOCTYPE svg PUBLIC "-//W3C//DTD SVG 1.1//EN"
 "http://www.w3.org/Graphics/SVG/1.1/DTD/svg11.dtd">
<!-- Generated by graphviz version 2.36.0 (20140111.2315)
 -->
<!-- Title: Graphical Class Hierarchy Pages: 1 -->
<svg width="444pt" height="104pt"
 viewBox="0.00 0.00 444.00 104.00" xmlns="http://www.w3.org/2000/svg" xmlns:xlink="http://www.w3.org/1999/xlink">
<g id="graph0" class="graph" transform="scale(1 1) rotate(0) translate(4 100)">
<title>Graphical Class Hierarchy</title>
<polygon fill="white" stroke="none" points="-4,4 -4,-100 440,-100 440,4 -4,4"/>
<!-- Node1 -->
<g id="node1" class="node"><title>Node1</title>
<g id="a_node1"><a xlink:href="class_equipment.html" target="_top" xlink:title="Equipment">
<polygon fill="white" stroke="black" points="0.5,-57.5 0.5,-76.5 63.5,-76.5 63.5,-57.5 0.5,-57.5"/>
<text text-anchor="middle" x="32" y="-64.5" font-family="Helvetica,sans-Serif" font-size="10.00">Equipment</text>
</a>
</g>
</g>
<!-- Node2 -->
<g id="node2" class="node"><title>Node2</title>
<g id="a_node2"><a xlink:href="class_engine.html" target="_top" xlink:title="Engine">
<polygon fill="white" stroke="black" points="103.5,-76.5 103.5,-95.5 150.5,-95.5 150.5,-76.5 103.5,-76.5"/>
<text text-anchor="middle" x="127" y="-83.5" font-family="Helvetica,sans-Serif" font-size="10.00">Engine</text>
</a>
</g>
</g>
<!-- Node1&#45;&gt;Node2 -->
<g id="edge1" class="edge"><title>Node1&#45;&gt;Node2</title>
<path fill="none" stroke="midnightblue" d="M73.6638,-75.3077C83.8171,-77.382 94.3476,-79.5334 103.278,-81.3578"/>
<polygon fill="midnightblue" stroke="midnightblue" points="74.2077,-71.8465 63.7094,-73.274 72.8064,-78.7049 74.2077,-71.8465"/>
</g>
<!-- Node4 -->
<g id="node4" class="node"><title>Node4</title>
<g id="a_node4"><a xlink:href="class_weapon.html" target="_top" xlink:title="Weapon">
<polygon fill="white" stroke="black" points="100.5,-38.5 100.5,-57.5 153.5,-57.5 153.5,-38.5 100.5,-38.5"/>
<text text-anchor="middle" x="127" y="-45.5" font-family="Helvetica,sans-Serif" font-size="10.00">Weapon</text>
</a>
</g>
</g>
<!-- Node1&#45;&gt;Node4 -->
<g id="edge3" class="edge"><title>Node1&#45;&gt;Node4</title>
<path fill="none" stroke="midnightblue" d="M73.7054,-58.6838C82.7361,-56.8389 92.063,-54.9334 100.295,-53.2516"/>
<polygon fill="midnightblue" stroke="midnightblue" points="72.8064,-55.2951 63.7094,-60.726 74.2077,-62.1535 72.8064,-55.2951"/>
</g>
<!-- Node3 -->
<g id="node3" class="node"><title>Node3</title>
<g id="a_node3"><a xlink:href="class_generic_engine.html" target="_top" xlink:title="GenericEngine">
<polygon fill="white" stroke="black" points="194,-76.5 194,-95.5 274,-95.5 274,-76.5 194,-76.5"/>
<text text-anchor="middle" x="234" y="-83.5" font-family="Helvetica,sans-Serif" font-size="10.00">GenericEngine</text>
</a>
</g>
</g>
<!-- Node2&#45;&gt;Node3 -->
<g id="edge2" class="edge"><title>Node2&#45;&gt;Node3</title>
<path fill="none" stroke="midnightblue" d="M160.593,-86C171.16,-86 182.99,-86 193.975,-86"/>
<polygon fill="midnightblue" stroke="midnightblue" points="160.525,-82.5001 150.525,-86 160.525,-89.5001 160.525,-82.5001"/>
</g>
<!-- Node5 -->
<g id="node5" class="node"><title>Node5</title>
<g id="a_node5"><a xlink:href="class_gun.html" target="_top" xlink:title="Gun">
<polygon fill="white" stroke="black" points="216.5,-38.5 216.5,-57.5 251.5,-57.5 251.5,-38.5 216.5,-38.5"/>
<text text-anchor="middle" x="234" y="-45.5" font-family="Helvetica,sans-Serif" font-size="10.00">Gun</text>
</a>
</g>
</g>
<!-- Node4&#45;&gt;Node5 -->
<g id="edge4" class="edge"><title>Node4&#45;&gt;Node5</title>
<path fill="none" stroke="midnightblue" d="M163.784,-48C181.62,-48 202.33,-48 216.416,-48"/>
<polygon fill="midnightblue" stroke="midnightblue" points="163.686,-44.5001 153.686,-48 163.686,-51.5001 163.686,-44.5001"/>
</g>
<!-- Node7 -->
<g id="node7" class="node"><title>Node7</title>
<g id="a_node7"><a xlink:href="class_rocket_launcher.html" target="_top" xlink:title="RocketLauncher">
<polygon fill="white" stroke="black" points="190.5,-0.5 190.5,-19.5 277.5,-19.5 277.5,-0.5 190.5,-0.5"/>
<text text-anchor="middle" x="234" y="-7.5" font-family="Helvetica,sans-Serif" font-size="10.00">RocketLauncher</text>
</a>
</g>
</g>
<!-- Node4&#45;&gt;Node7 -->
<g id="edge6" class="edge"><title>Node4&#45;&gt;Node7</title>
<path fill="none" stroke="midnightblue" d="M163.123,-35.2887C177.279,-30.1656 193.335,-24.3551 206.483,-19.5967"/>
<polygon fill="midnightblue" stroke="midnightblue" points="161.898,-32.0099 153.686,-38.7042 164.28,-38.5921 161.898,-32.0099"/>
</g>
<!-- Node6 -->
<g id="node6" class="node"><title>Node6</title>
<g id="a_node6"><a xlink:href="class_generic_gun.html" target="_top" xlink:title="GenericGun">
<polygon fill="white" stroke="black" points="341,-38.5 341,-57.5 409,-57.5 409,-38.5 341,-38.5"/>
<text text-anchor="middle" x="375" y="-45.5" font-family="Helvetica,sans-Serif" font-size="10.00">GenericGun</text>
</a>
</g>
</g>
<!-- Node5&#45;&gt;Node6 -->
<g id="edge5" class="edge"><title>Node5&#45;&gt;Node6</title>
<path fill="none" stroke="midnightblue" d="M261.959,-48C284.463,-48 316.638,-48 340.739,-48"/>
<polygon fill="midnightblue" stroke="midnightblue" points="261.767,-44.5001 251.767,-48 261.767,-51.5001 261.767,-44.5001"/>
</g>
<!-- Node8 -->
<g id="node8" class="node"><title>Node8</title>
<g id="a_node8"><a xlink:href="class_generic_rocket_launcher.html" target="_top" xlink:title="GenericRocketLauncher">
<polygon fill="white" stroke="black" points="314.5,-0.5 314.5,-19.5 435.5,-19.5 435.5,-0.5 314.5,-0.5"/>
<text text-anchor="middle" x="375" y="-7.5" font-family="Helvetica,sans-Serif" font-size="10.00">GenericRocketLauncher</text>
</a>
</g>
</g>
<!-- Node7&#45;&gt;Node8 -->
<g id="edge7" class="edge"><title>Node7&#45;&gt;Node8</title>
<path fill="none" stroke="midnightblue" d="M288.122,-10C296.728,-10 305.689,-10 314.436,-10"/>
<polygon fill="midnightblue" stroke="midnightblue" points="287.839,-6.5001 277.839,-10 287.839,-13.5001 287.839,-6.5001"/>
</g>
</g>
</svg>
