<?xml version="1.0" encoding="UTF-8" standalone="no"?>
<!DOCTYPE svg PUBLIC "-//W3C//DTD SVG 1.1//EN"
 "http://www.w3.org/Graphics/SVG/1.1/DTD/svg11.dtd">
<!-- Generated by graphviz version 2.36.0 (20140111.2315)
 -->
<!-- Title: Graphical Class Hierarchy Pages: 1 -->
<svg width="234pt" height="142pt"
 viewBox="0.00 0.00 234.00 142.00" xmlns="http://www.w3.org/2000/svg" xmlns:xlink="http://www.w3.org/1999/xlink">
<g id="graph0" class="graph" transform="scale(1 1) rotate(0) translate(4 138)">
<title>Graphical Class Hierarchy</title>
<polygon fill="white" stroke="none" points="-4,4 -4,-138 230,-138 230,4 -4,4"/>
<!-- Node1 -->
<g id="node1" class="node"><title>Node1</title>
<g id="a_node1"><a xlink:href="class_base_scenario.html" target="_top" xlink:title="BaseScenario">
<polygon fill="white" stroke="black" points="0.5,-57.5 0.5,-76.5 77.5,-76.5 77.5,-57.5 0.5,-57.5"/>
<text text-anchor="middle" x="39" y="-64.5" font-family="Helvetica,sans-Serif" font-size="10.00">BaseScenario</text>
</a>
</g>
</g>
<!-- Node2 -->
<g id="node2" class="node"><title>Node2</title>
<g id="a_node2"><a xlink:href="class_battle_scenario.html" target="_top" xlink:title="BattleScenario">
<polygon fill="white" stroke="black" points="130,-114.5 130,-133.5 210,-133.5 210,-114.5 130,-114.5"/>
<text text-anchor="middle" x="170" y="-121.5" font-family="Helvetica,sans-Serif" font-size="10.00">BattleScenario</text>
</a>
</g>
</g>
<!-- Node1&#45;&gt;Node2 -->
<g id="edge1" class="edge"><title>Node1&#45;&gt;Node2</title>
<path fill="none" stroke="midnightblue" d="M66.0449,-81.5222C80.0318,-89.0263 97.7044,-98.0428 114,-105 121.897,-108.372 130.614,-111.599 138.735,-114.406"/>
<polygon fill="midnightblue" stroke="midnightblue" points="67.4701,-78.3133 57.0126,-76.6126 64.127,-84.4634 67.4701,-78.3133"/>
</g>
<!-- Node3 -->
<g id="node3" class="node"><title>Node3</title>
<g id="a_node3"><a xlink:href="class_frozen_game_scenario.html" target="_top" xlink:title="FrozenGameScenario">
<polygon fill="white" stroke="black" points="114.5,-76.5 114.5,-95.5 225.5,-95.5 225.5,-76.5 114.5,-76.5"/>
<text text-anchor="middle" x="170" y="-83.5" font-family="Helvetica,sans-Serif" font-size="10.00">FrozenGameScenario</text>
</a>
</g>
</g>
<!-- Node1&#45;&gt;Node3 -->
<g id="edge2" class="edge"><title>Node1&#45;&gt;Node3</title>
<path fill="none" stroke="midnightblue" d="M87.6067,-74.0118C96.2879,-75.2905 105.408,-76.6338 114.276,-77.9399"/>
<polygon fill="midnightblue" stroke="midnightblue" points="88.0622,-70.5413 77.6589,-72.5467 87.0422,-77.4665 88.0622,-70.5413"/>
</g>
<!-- Node4 -->
<g id="node4" class="node"><title>Node4</title>
<g id="a_node4"><a xlink:href="class_game_scenario.html" target="_top" xlink:title="GameScenario">
<polygon fill="white" stroke="black" points="129.5,-38.5 129.5,-57.5 210.5,-57.5 210.5,-38.5 129.5,-38.5"/>
<text text-anchor="middle" x="170" y="-45.5" font-family="Helvetica,sans-Serif" font-size="10.00">GameScenario</text>
</a>
</g>
</g>
<!-- Node1&#45;&gt;Node4 -->
<g id="edge3" class="edge"><title>Node1&#45;&gt;Node4</title>
<path fill="none" stroke="midnightblue" d="M87.8347,-59.9546C101.471,-57.9461 116.175,-55.7804 129.272,-53.8514"/>
<polygon fill="midnightblue" stroke="midnightblue" points="87.0422,-56.5335 77.6589,-61.4533 88.0622,-63.4588 87.0422,-56.5335"/>
</g>
<!-- Node5 -->
<g id="node5" class="node"><title>Node5</title>
<g id="a_node5"><a xlink:href="class_pirate_scenario.html" target="_top" xlink:title="PirateScenario">
<polygon fill="white" stroke="black" points="130,-0.5 130,-19.5 210,-19.5 210,-0.5 130,-0.5"/>
<text text-anchor="middle" x="170" y="-7.5" font-family="Helvetica,sans-Serif" font-size="10.00">PirateScenario</text>
</a>
</g>
</g>
<!-- Node1&#45;&gt;Node5 -->
<g id="edge4" class="edge"><title>Node1&#45;&gt;Node5</title>
<path fill="none" stroke="midnightblue" d="M66.0449,-52.4778C80.0318,-44.9737 97.7044,-35.9572 114,-29 121.897,-25.6283 130.614,-22.401 138.735,-19.5939"/>
<polygon fill="midnightblue" stroke="midnightblue" points="64.127,-49.5366 57.0126,-57.3874 67.4701,-55.6867 64.127,-49.5366"/>
</g>
</g>
</svg>
