<?xml version="1.0" encoding="UTF-8" standalone="no"?>
<!DOCTYPE svg PUBLIC "-//W3C//DTD SVG 1.1//EN"
 "http://www.w3.org/Graphics/SVG/1.1/DTD/svg11.dtd">
<!-- Generated by graphviz version 2.36.0 (20140111.2315)
 -->
<!-- Title: Graphical Class Hierarchy Pages: 1 -->
<svg width="172pt" height="104pt"
 viewBox="0.00 0.00 172.00 104.00" xmlns="http://www.w3.org/2000/svg" xmlns:xlink="http://www.w3.org/1999/xlink">
<g id="graph0" class="graph" transform="scale(1 1) rotate(0) translate(4 100)">
<title>Graphical Class Hierarchy</title>
<polygon fill="white" stroke="none" points="-4,4 -4,-100 168,-100 168,4 -4,4"/>
<!-- Node1 -->
<g id="node1" class="node"><title>Node1</title>
<g id="a_node1"><a xlink:href="class_faction.html" target="_top" xlink:title="Faction">
<polygon fill="white" stroke="black" points="0.5,-38.5 0.5,-57.5 49.5,-57.5 49.5,-38.5 0.5,-38.5"/>
<text text-anchor="middle" x="25" y="-45.5" font-family="Helvetica,sans-Serif" font-size="10.00">Faction</text>
</a>
</g>
</g>
<!-- Node2 -->
<g id="node2" class="node"><title>Node2</title>
<g id="a_node2"><a xlink:href="class_pirate_faction.html" target="_top" xlink:title="PirateFaction">
<polygon fill="white" stroke="black" points="88,-76.5 88,-95.5 162,-95.5 162,-76.5 88,-76.5"/>
<text text-anchor="middle" x="125" y="-83.5" font-family="Helvetica,sans-Serif" font-size="10.00">PirateFaction</text>
</a>
</g>
</g>
<!-- Node1&#45;&gt;Node2 -->
<g id="edge1" class="edge"><title>Node1&#45;&gt;Node2</title>
<path fill="none" stroke="midnightblue" d="M59.3765,-60.9419C72.5218,-66.0391 87.3427,-71.7859 99.472,-76.4891"/>
<polygon fill="midnightblue" stroke="midnightblue" points="60.3121,-57.5508 49.7231,-57.1987 57.7813,-64.0773 60.3121,-57.5508"/>
</g>
<!-- Node3 -->
<g id="node3" class="node"><title>Node3</title>
<g id="a_node3"><a xlink:href="class_player_faction.html" target="_top" xlink:title="PlayerFaction">
<polygon fill="white" stroke="black" points="86.5,-38.5 86.5,-57.5 163.5,-57.5 163.5,-38.5 86.5,-38.5"/>
<text text-anchor="middle" x="125" y="-45.5" font-family="Helvetica,sans-Serif" font-size="10.00">PlayerFaction</text>
</a>
</g>
</g>
<!-- Node1&#45;&gt;Node3 -->
<g id="edge2" class="edge"><title>Node1&#45;&gt;Node3</title>
<path fill="none" stroke="midnightblue" d="M59.7578,-48C68.3318,-48 77.5974,-48 86.3515,-48"/>
<polygon fill="midnightblue" stroke="midnightblue" points="59.7231,-44.5001 49.7231,-48 59.723,-51.5001 59.7231,-44.5001"/>
</g>
<!-- Node4 -->
<g id="node4" class="node"><title>Node4</title>
<g id="a_node4"><a xlink:href="class_police_faction.html" target="_top" xlink:title="PoliceFaction">
<polygon fill="white" stroke="black" points="87,-0.5 87,-19.5 163,-19.5 163,-0.5 87,-0.5"/>
<text text-anchor="middle" x="125" y="-7.5" font-family="Helvetica,sans-Serif" font-size="10.00">PoliceFaction</text>
</a>
</g>
</g>
<!-- Node1&#45;&gt;Node4 -->
<g id="edge3" class="edge"><title>Node1&#45;&gt;Node4</title>
<path fill="none" stroke="midnightblue" d="M59.3765,-35.0581C72.5218,-29.9609 87.3427,-24.2141 99.472,-19.5109"/>
<polygon fill="midnightblue" stroke="midnightblue" points="57.7813,-31.9227 49.7231,-38.8013 60.3121,-38.4492 57.7813,-31.9227"/>
</g>
</g>
</svg>
