<?xml version="1.0" encoding="UTF-8" standalone="no"?>
<!DOCTYPE svg PUBLIC "-//W3C//DTD SVG 1.1//EN"
 "http://www.w3.org/Graphics/SVG/1.1/DTD/svg11.dtd">
<!-- Generated by graphviz version 2.36.0 (20140111.2315)
 -->
<!-- Title: Graphical Class Hierarchy Pages: 1 -->
<svg width="308pt" height="142pt"
 viewBox="0.00 0.00 308.00 142.00" xmlns="http://www.w3.org/2000/svg" xmlns:xlink="http://www.w3.org/1999/xlink">
<g id="graph0" class="graph" transform="scale(1 1) rotate(0) translate(4 138)">
<title>Graphical Class Hierarchy</title>
<polygon fill="white" stroke="none" points="-4,4 -4,-138 304,-138 304,4 -4,4"/>
<!-- Node1 -->
<g id="node1" class="node"><title>Node1</title>
<g id="a_node1"><a xlink:href="class_hudget.html" target="_top" xlink:title="Hudget">
<polygon fill="white" stroke="black" points="0.5,-57.5 0.5,-76.5 47.5,-76.5 47.5,-57.5 0.5,-57.5"/>
<text text-anchor="middle" x="24" y="-64.5" font-family="Helvetica,sans-Serif" font-size="10.00">Hudget</text>
</a>
</g>
</g>
<!-- Node2 -->
<g id="node2" class="node"><title>Node2</title>
<g id="a_node2"><a xlink:href="class_circular_hudget.html" target="_top" xlink:title="CircularHudget">
<polygon fill="white" stroke="black" points="88,-114.5 88,-133.5 168,-133.5 168,-114.5 88,-114.5"/>
<text text-anchor="middle" x="128" y="-121.5" font-family="Helvetica,sans-Serif" font-size="10.00">CircularHudget</text>
</a>
</g>
</g>
<!-- Node1&#45;&gt;Node2 -->
<g id="edge1" class="edge"><title>Node1&#45;&gt;Node2</title>
<path fill="none" stroke="midnightblue" d="M47.1416,-82.4289C58.0049,-89.6937 71.4301,-98.2285 84,-105 90.1794,-108.329 97.0597,-111.565 103.473,-114.396"/>
<polygon fill="midnightblue" stroke="midnightblue" points="48.9329,-79.4146 38.6939,-76.6917 45.0001,-85.2054 48.9329,-79.4146"/>
</g>
<!-- Node4 -->
<g id="node4" class="node"><title>Node4</title>
<g id="a_node4"><a xlink:href="class_cross_hair.html" target="_top" xlink:title="CrossHair">
<polygon fill="white" stroke="black" points="98.5,-76.5 98.5,-95.5 157.5,-95.5 157.5,-76.5 98.5,-76.5"/>
<text text-anchor="middle" x="128" y="-83.5" font-family="Helvetica,sans-Serif" font-size="10.00">CrossHair</text>
</a>
</g>
</g>
<!-- Node1&#45;&gt;Node4 -->
<g id="edge3" class="edge"><title>Node1&#45;&gt;Node4</title>
<path fill="none" stroke="midnightblue" d="M57.6251,-73.0772C70.6723,-75.5076 85.5716,-78.2829 98.2096,-80.6371"/>
<polygon fill="midnightblue" stroke="midnightblue" points="58.109,-69.6072 47.6371,-71.2167 56.827,-76.4889 58.109,-69.6072"/>
</g>
<!-- Node5 -->
<g id="node5" class="node"><title>Node5</title>
<g id="a_node5"><a xlink:href="class_object_hudget.html" target="_top" xlink:title="ObjectHudget">
<polygon fill="white" stroke="black" points="90,-38.5 90,-57.5 166,-57.5 166,-38.5 90,-38.5"/>
<text text-anchor="middle" x="128" y="-45.5" font-family="Helvetica,sans-Serif" font-size="10.00">ObjectHudget</text>
</a>
</g>
</g>
<!-- Node1&#45;&gt;Node5 -->
<g id="edge4" class="edge"><title>Node1&#45;&gt;Node5</title>
<path fill="none" stroke="midnightblue" d="M57.735,-60.9023C67.8893,-59.0108 79.1567,-56.912 89.6027,-54.9662"/>
<polygon fill="midnightblue" stroke="midnightblue" points="56.827,-57.5111 47.6371,-62.7833 58.109,-64.3928 56.827,-57.5111"/>
</g>
<!-- Node6 -->
<g id="node6" class="node"><title>Node6</title>
<g id="a_node6"><a xlink:href="class_text_field_hudget.html" target="_top" xlink:title="TextFieldHudget">
<polygon fill="white" stroke="black" points="84.5,-0.5 84.5,-19.5 171.5,-19.5 171.5,-0.5 84.5,-0.5"/>
<text text-anchor="middle" x="128" y="-7.5" font-family="Helvetica,sans-Serif" font-size="10.00">TextFieldHudget</text>
</a>
</g>
</g>
<!-- Node1&#45;&gt;Node6 -->
<g id="edge5" class="edge"><title>Node1&#45;&gt;Node6</title>
<path fill="none" stroke="midnightblue" d="M47.1416,-51.5711C58.0049,-44.3063 71.4301,-35.7715 84,-29 90.1794,-25.6712 97.0597,-22.4347 103.473,-19.6041"/>
<polygon fill="midnightblue" stroke="midnightblue" points="45.0001,-48.7946 38.6939,-57.3083 48.9329,-54.5854 45.0001,-48.7946"/>
</g>
<!-- Node3 -->
<g id="node3" class="node"><title>Node3</title>
<g id="a_node3"><a xlink:href="class_aim_helper_hudget.html" target="_top" xlink:title="AimHelperHudget">
<polygon fill="white" stroke="black" points="208,-114.5 208,-133.5 300,-133.5 300,-114.5 208,-114.5"/>
<text text-anchor="middle" x="254" y="-121.5" font-family="Helvetica,sans-Serif" font-size="10.00">AimHelperHudget</text>
</a>
</g>
</g>
<!-- Node2&#45;&gt;Node3 -->
<g id="edge2" class="edge"><title>Node2&#45;&gt;Node3</title>
<path fill="none" stroke="midnightblue" d="M178.251,-124C188.059,-124 198.312,-124 207.97,-124"/>
<polygon fill="midnightblue" stroke="midnightblue" points="178.234,-120.5 168.234,-124 178.234,-127.5 178.234,-120.5"/>
</g>
</g>
</svg>
