<?xml version="1.0" encoding="UTF-8" standalone="no"?>
<!DOCTYPE svg PUBLIC "-//W3C//DTD SVG 1.1//EN"
 "http://www.w3.org/Graphics/SVG/1.1/DTD/svg11.dtd">
<!-- Generated by graphviz version 2.36.0 (20140111.2315)
 -->
<!-- Title: Graphical Class Hierarchy Pages: 1 -->
<svg width="208pt" height="142pt"
 viewBox="0.00 0.00 208.00 142.00" xmlns="http://www.w3.org/2000/svg" xmlns:xlink="http://www.w3.org/1999/xlink">
<g id="graph0" class="graph" transform="scale(1 1) rotate(0) translate(4 138)">
<title>Graphical Class Hierarchy</title>
<polygon fill="white" stroke="none" points="-4,4 -4,-138 204,-138 204,4 -4,4"/>
<!-- Node1 -->
<g id="node1" class="node"><title>Node1</title>
<g id="a_node1"><a xlink:href="class_ai_task.html" target="_top" xlink:title="AiTask">
<polygon fill="white" stroke="black" points="0.5,-57.5 0.5,-76.5 47.5,-76.5 47.5,-57.5 0.5,-57.5"/>
<text text-anchor="middle" x="24" y="-64.5" font-family="Helvetica,sans-Serif" font-size="10.00">AiTask</text>
</a>
</g>
</g>
<!-- Node2 -->
<g id="node2" class="node"><title>Node2</title>
<g id="a_node2"><a xlink:href="class_direct_suicide_task.html" target="_top" xlink:title="DirectSuicideTask">
<polygon fill="white" stroke="black" points="94.5,-114.5 94.5,-133.5 189.5,-133.5 189.5,-114.5 94.5,-114.5"/>
<text text-anchor="middle" x="142" y="-121.5" font-family="Helvetica,sans-Serif" font-size="10.00">DirectSuicideTask</text>
</a>
</g>
</g>
<!-- Node1&#45;&gt;Node2 -->
<g id="edge1" class="edge"><title>Node1&#45;&gt;Node2</title>
<path fill="none" stroke="midnightblue" d="M46.4417,-82.6633C57.3151,-90.1178 70.9532,-98.7463 84,-105 91.431,-108.562 99.7038,-111.735 107.591,-114.42"/>
<polygon fill="midnightblue" stroke="midnightblue" points="48.2266,-79.6399 38.0319,-76.7556 44.2028,-85.3679 48.2266,-79.6399"/>
</g>
<!-- Node3 -->
<g id="node3" class="node"><title>Node3</title>
<g id="a_node3"><a xlink:href="class_fight_task.html" target="_top" xlink:title="FightTask">
<polygon fill="white" stroke="black" points="112.5,-76.5 112.5,-95.5 171.5,-95.5 171.5,-76.5 112.5,-76.5"/>
<text text-anchor="middle" x="142" y="-83.5" font-family="Helvetica,sans-Serif" font-size="10.00">FightTask</text>
</a>
</g>
</g>
<!-- Node1&#45;&gt;Node3 -->
<g id="edge2" class="edge"><title>Node1&#45;&gt;Node3</title>
<path fill="none" stroke="midnightblue" d="M57.7745,-72.3682C74.9212,-75.1767 95.721,-78.5836 112.237,-81.2889"/>
<polygon fill="midnightblue" stroke="midnightblue" points="58.0756,-68.871 47.6413,-70.7085 56.9441,-75.7789 58.0756,-68.871"/>
</g>
<!-- Node4 -->
<g id="node4" class="node"><title>Node4</title>
<g id="a_node4"><a xlink:href="class_fly_to_task.html" target="_top" xlink:title="FlyToTask">
<polygon fill="white" stroke="black" points="111,-38.5 111,-57.5 173,-57.5 173,-38.5 111,-38.5"/>
<text text-anchor="middle" x="142" y="-45.5" font-family="Helvetica,sans-Serif" font-size="10.00">FlyToTask</text>
</a>
</g>
</g>
<!-- Node1&#45;&gt;Node4 -->
<g id="edge3" class="edge"><title>Node1&#45;&gt;Node4</title>
<path fill="none" stroke="midnightblue" d="M57.546,-61.6692C74.2933,-58.9261 94.5726,-55.6045 110.947,-52.9225"/>
<polygon fill="midnightblue" stroke="midnightblue" points="56.9441,-58.2211 47.6413,-63.2915 58.0756,-65.129 56.9441,-58.2211"/>
</g>
<!-- Node5 -->
<g id="node5" class="node"><title>Node5</title>
<g id="a_node5"><a xlink:href="class_formation_member_task.html" target="_top" xlink:title="FormationMemberTask">
<polygon fill="white" stroke="black" points="84,-0.5 84,-19.5 200,-19.5 200,-0.5 84,-0.5"/>
<text text-anchor="middle" x="142" y="-7.5" font-family="Helvetica,sans-Serif" font-size="10.00">FormationMemberTask</text>
</a>
</g>
</g>
<!-- Node1&#45;&gt;Node5 -->
<g id="edge4" class="edge"><title>Node1&#45;&gt;Node5</title>
<path fill="none" stroke="midnightblue" d="M46.4417,-51.3367C57.3151,-43.8822 70.9532,-35.2537 84,-29 91.431,-25.4381 99.7038,-22.2652 107.591,-19.5804"/>
<polygon fill="midnightblue" stroke="midnightblue" points="44.2028,-48.6321 38.0319,-57.2444 48.2266,-54.3601 44.2028,-48.6321"/>
</g>
</g>
</svg>
