<?xml version="1.0" encoding="UTF-8" standalone="no"?>
<!DOCTYPE svg PUBLIC "-//W3C//DTD SVG 1.1//EN"
 "http://www.w3.org/Graphics/SVG/1.1/DTD/svg11.dtd">
<!-- Generated by graphviz version 2.36.0 (20140111.2315)
 -->
<!-- Title: Graphical Class Hierarchy Pages: 1 -->
<svg width="576pt" height="161pt"
 viewBox="0.00 0.00 576.00 161.00" xmlns="http://www.w3.org/2000/svg" xmlns:xlink="http://www.w3.org/1999/xlink">
<g id="graph0" class="graph" transform="scale(1 1) rotate(0) translate(4 157)">
<title>Graphical Class Hierarchy</title>
<polygon fill="white" stroke="none" points="-4,4 -4,-157 572,-157 572,4 -4,4"/>
<!-- Node1 -->
<g id="node1" class="node"><title>Node1</title>
<g id="a_node1"><a xlink:href="class_voxel_cluster.html" target="_top" xlink:title="VoxelCluster">
<polygon fill="white" stroke="black" points="0,-95.5 0,-114.5 72,-114.5 72,-95.5 0,-95.5"/>
<text text-anchor="middle" x="36" y="-102.5" font-family="Helvetica,sans-Serif" font-size="10.00">VoxelCluster</text>
</a>
</g>
</g>
<!-- Node2 -->
<g id="node2" class="node"><title>Node2</title>
<g id="a_node2"><a xlink:href="class_cross_hair_element.html" target="_top" xlink:title="CrossHairElement">
<polygon fill="white" stroke="black" points="108.5,-133.5 108.5,-152.5 203.5,-152.5 203.5,-133.5 108.5,-133.5"/>
<text text-anchor="middle" x="156" y="-140.5" font-family="Helvetica,sans-Serif" font-size="10.00">CrossHairElement</text>
</a>
</g>
</g>
<!-- Node1&#45;&gt;Node2 -->
<g id="edge1" class="edge"><title>Node1&#45;&gt;Node2</title>
<path fill="none" stroke="midnightblue" d="M76.3761,-117.68C92.3198,-122.815 110.421,-128.644 125.233,-133.414"/>
<polygon fill="midnightblue" stroke="midnightblue" points="77.3679,-114.323 66.7764,-114.589 75.2221,-120.986 77.3679,-114.323"/>
</g>
<!-- Node3 -->
<g id="node3" class="node"><title>Node3</title>
<g id="a_node3"><a xlink:href="class_letter.html" target="_top" xlink:title="Letter">
<polygon fill="white" stroke="black" points="135.5,-95.5 135.5,-114.5 176.5,-114.5 176.5,-95.5 135.5,-95.5"/>
<text text-anchor="middle" x="156" y="-102.5" font-family="Helvetica,sans-Serif" font-size="10.00">Letter</text>
</a>
</g>
</g>
<!-- Node1&#45;&gt;Node3 -->
<g id="edge2" class="edge"><title>Node1&#45;&gt;Node3</title>
<path fill="none" stroke="midnightblue" d="M82.3166,-105C100.65,-105 120.85,-105 135.291,-105"/>
<polygon fill="midnightblue" stroke="midnightblue" points="82.0844,-101.5 72.0844,-105 82.0844,-108.5 82.0844,-101.5"/>
</g>
<!-- Node4 -->
<g id="node4" class="node"><title>Node4</title>
<g id="a_node4"><a xlink:href="class_world_object.html" target="_top" xlink:title="WorldObject">
<polygon fill="white" stroke="black" points="120.5,-57.5 120.5,-76.5 191.5,-76.5 191.5,-57.5 120.5,-57.5"/>
<text text-anchor="middle" x="156" y="-64.5" font-family="Helvetica,sans-Serif" font-size="10.00">WorldObject</text>
</a>
</g>
</g>
<!-- Node1&#45;&gt;Node4 -->
<g id="edge3" class="edge"><title>Node1&#45;&gt;Node4</title>
<path fill="none" stroke="midnightblue" d="M76.3761,-92.3196C92.3198,-87.1852 110.421,-81.3559 125.233,-76.5859"/>
<polygon fill="midnightblue" stroke="midnightblue" points="75.2221,-89.0141 66.7764,-95.411 77.3679,-95.6771 75.2221,-89.0141"/>
</g>
<!-- Node5 -->
<g id="node5" class="node"><title>Node5</title>
<g id="a_node5"><a xlink:href="class_generic_world_object.html" target="_top" xlink:title="GenericWorldObject">
<polygon fill="white" stroke="black" points="240,-114.5 240,-133.5 344,-133.5 344,-114.5 240,-114.5"/>
<text text-anchor="middle" x="292" y="-121.5" font-family="Helvetica,sans-Serif" font-size="10.00">GenericWorldObject</text>
</a>
</g>
</g>
<!-- Node4&#45;&gt;Node5 -->
<g id="edge4" class="edge"><title>Node4&#45;&gt;Node5</title>
<path fill="none" stroke="midnightblue" d="M191.348,-80.4135C195.636,-82.2264 199.939,-84.1135 204,-86 220.408,-93.6223 223.489,-97.6044 240,-105 247.502,-108.36 255.795,-111.631 263.475,-114.485"/>
<polygon fill="midnightblue" stroke="midnightblue" points="192.661,-77.1693 182.082,-76.5922 189.992,-83.6406 192.661,-77.1693"/>
</g>
<!-- Node6 -->
<g id="node6" class="node"><title>Node6</title>
<g id="a_node6"><a xlink:href="class_projectile.html" target="_top" xlink:title="Projectile">
<polygon fill="white" stroke="black" points="263.5,-76.5 263.5,-95.5 320.5,-95.5 320.5,-76.5 263.5,-76.5"/>
<text text-anchor="middle" x="292" y="-83.5" font-family="Helvetica,sans-Serif" font-size="10.00">Projectile</text>
</a>
</g>
</g>
<!-- Node4&#45;&gt;Node6 -->
<g id="edge5" class="edge"><title>Node4&#45;&gt;Node6</title>
<path fill="none" stroke="midnightblue" d="M201.547,-73.3164C221.97,-76.2121 245.54,-79.5541 263.357,-82.0805"/>
<polygon fill="midnightblue" stroke="midnightblue" points="201.901,-69.8316 191.508,-71.893 200.918,-76.7623 201.901,-69.8316"/>
</g>
<!-- Node11 -->
<g id="node11" class="node"><title>Node11</title>
<g id="a_node11"><a xlink:href="class_ship.html" target="_top" xlink:title="Ship">
<polygon fill="white" stroke="black" points="274,-38.5 274,-57.5 310,-57.5 310,-38.5 274,-38.5"/>
<text text-anchor="middle" x="292" y="-45.5" font-family="Helvetica,sans-Serif" font-size="10.00">Ship</text>
</a>
</g>
</g>
<!-- Node4&#45;&gt;Node11 -->
<g id="edge10" class="edge"><title>Node4&#45;&gt;Node11</title>
<path fill="none" stroke="midnightblue" d="M201.435,-60.6996C226.191,-57.1893 255.602,-53.0192 273.786,-50.4408"/>
<polygon fill="midnightblue" stroke="midnightblue" points="200.918,-57.2377 191.508,-62.107 201.901,-64.1684 200.918,-57.2377"/>
</g>
<!-- Node13 -->
<g id="node13" class="node"><title>Node13</title>
<g id="a_node13"><a xlink:href="class_split.html" target="_top" xlink:title="Split">
<polygon fill="white" stroke="black" points="274,-0.5 274,-19.5 310,-19.5 310,-0.5 274,-0.5"/>
<text text-anchor="middle" x="292" y="-7.5" font-family="Helvetica,sans-Serif" font-size="10.00">Split</text>
</a>
</g>
</g>
<!-- Node4&#45;&gt;Node13 -->
<g id="edge12" class="edge"><title>Node4&#45;&gt;Node13</title>
<path fill="none" stroke="midnightblue" d="M186.199,-53.0023C202.003,-45.5863 221.936,-36.4886 240,-29 251.172,-24.3685 263.922,-19.6185 273.879,-16.0264"/>
<polygon fill="midnightblue" stroke="midnightblue" points="184.493,-49.9372 176.946,-57.3731 187.483,-56.2665 184.493,-49.9372"/>
</g>
<!-- Node7 -->
<g id="node7" class="node"><title>Node7</title>
<g id="a_node7"><a xlink:href="class_bullet.html" target="_top" xlink:title="Bullet">
<polygon fill="white" stroke="black" points="394.5,-114.5 394.5,-133.5 435.5,-133.5 435.5,-114.5 394.5,-114.5"/>
<text text-anchor="middle" x="415" y="-121.5" font-family="Helvetica,sans-Serif" font-size="10.00">Bullet</text>
</a>
</g>
</g>
<!-- Node6&#45;&gt;Node7 -->
<g id="edge6" class="edge"><title>Node6&#45;&gt;Node7</title>
<path fill="none" stroke="midnightblue" d="M330.408,-97.7478C351.519,-104.378 377.044,-112.394 394.291,-117.81"/>
<polygon fill="midnightblue" stroke="midnightblue" points="331.349,-94.375 320.76,-94.718 329.252,-101.053 331.349,-94.375"/>
</g>
<!-- Node9 -->
<g id="node9" class="node"><title>Node9</title>
<g id="a_node9"><a xlink:href="class_rocket.html" target="_top" xlink:title="Rocket">
<polygon fill="white" stroke="black" points="391.5,-76.5 391.5,-95.5 438.5,-95.5 438.5,-76.5 391.5,-76.5"/>
<text text-anchor="middle" x="415" y="-83.5" font-family="Helvetica,sans-Serif" font-size="10.00">Rocket</text>
</a>
</g>
</g>
<!-- Node6&#45;&gt;Node9 -->
<g id="edge8" class="edge"><title>Node6&#45;&gt;Node9</title>
<path fill="none" stroke="midnightblue" d="M331,-86C350.775,-86 374.29,-86 391.233,-86"/>
<polygon fill="midnightblue" stroke="midnightblue" points="330.76,-82.5001 320.76,-86 330.76,-89.5001 330.76,-82.5001"/>
</g>
<!-- Node8 -->
<g id="node8" class="node"><title>Node8</title>
<g id="a_node8"><a xlink:href="class_generic_bullet.html" target="_top" xlink:title="GenericBullet">
<polygon fill="white" stroke="black" points="489.5,-114.5 489.5,-133.5 564.5,-133.5 564.5,-114.5 489.5,-114.5"/>
<text text-anchor="middle" x="527" y="-121.5" font-family="Helvetica,sans-Serif" font-size="10.00">GenericBullet</text>
</a>
</g>
</g>
<!-- Node7&#45;&gt;Node8 -->
<g id="edge7" class="edge"><title>Node7&#45;&gt;Node8</title>
<path fill="none" stroke="midnightblue" d="M445.762,-124C459.133,-124 475.046,-124 489.161,-124"/>
<polygon fill="midnightblue" stroke="midnightblue" points="445.666,-120.5 435.666,-124 445.666,-127.5 445.666,-120.5"/>
</g>
<!-- Node10 -->
<g id="node10" class="node"><title>Node10</title>
<g id="a_node10"><a xlink:href="class_generic_rocket.html" target="_top" xlink:title="GenericRocket">
<polygon fill="white" stroke="black" points="486.5,-76.5 486.5,-95.5 567.5,-95.5 567.5,-76.5 486.5,-76.5"/>
<text text-anchor="middle" x="527" y="-83.5" font-family="Helvetica,sans-Serif" font-size="10.00">GenericRocket</text>
</a>
</g>
</g>
<!-- Node9&#45;&gt;Node10 -->
<g id="edge9" class="edge"><title>Node9&#45;&gt;Node10</title>
<path fill="none" stroke="midnightblue" d="M448.773,-86C460.513,-86 473.877,-86 486.15,-86"/>
<polygon fill="midnightblue" stroke="midnightblue" points="448.526,-82.5001 438.526,-86 448.526,-89.5001 448.526,-82.5001"/>
</g>
<!-- Node12 -->
<g id="node12" class="node"><title>Node12</title>
<g id="a_node12"><a xlink:href="class_generic_ship.html" target="_top" xlink:title="GenericShip">
<polygon fill="white" stroke="black" points="380,-38.5 380,-57.5 450,-57.5 450,-38.5 380,-38.5"/>
<text text-anchor="middle" x="415" y="-45.5" font-family="Helvetica,sans-Serif" font-size="10.00">GenericShip</text>
</a>
</g>
</g>
<!-- Node11&#45;&gt;Node12 -->
<g id="edge11" class="edge"><title>Node11&#45;&gt;Node12</title>
<path fill="none" stroke="midnightblue" d="M320.223,-48C337.778,-48 360.758,-48 379.577,-48"/>
<polygon fill="midnightblue" stroke="midnightblue" points="320.08,-44.5001 310.08,-48 320.08,-51.5001 320.08,-44.5001"/>
</g>
</g>
</svg>
