<?xml version="1.0" encoding="UTF-8" standalone="no"?>
<!DOCTYPE svg PUBLIC "-//W3C//DTD SVG 1.1//EN"
 "http://www.w3.org/Graphics/SVG/1.1/DTD/svg11.dtd">
<!-- Generated by graphviz version 2.36.0 (20140111.2315)
 -->
<!-- Title: WorldObjectPair Pages: 1 -->
<svg width="484pt" height="327pt"
 viewBox="0.00 0.00 484.00 327.00" xmlns="http://www.w3.org/2000/svg" xmlns:xlink="http://www.w3.org/1999/xlink">
<g id="graph0" class="graph" transform="scale(1 1) rotate(0) translate(4 323)">
<title>WorldObjectPair</title>
<polygon fill="white" stroke="none" points="-4,4 -4,-323 480,-323 480,4 -4,4"/>
<!-- Node1 -->
<g id="node1" class="node"><title>Node1</title>
<polygon fill="#bfbfbf" stroke="black" points="388,-166.5 388,-185.5 476,-185.5 476,-166.5 388,-166.5"/>
<text text-anchor="middle" x="432" y="-173.5" font-family="Helvetica,sans-Serif" font-size="10.00">WorldObjectPair</text>
</g>
<!-- Node2 -->
<g id="node2" class="node"><title>Node2</title>
<g id="a_node2"><a xlink:href="class_world_object.html" target="_top" xlink:title="WorldObject">
<polygon fill="white" stroke="black" points="270.5,-166.5 270.5,-185.5 341.5,-185.5 341.5,-166.5 270.5,-166.5"/>
<text text-anchor="middle" x="306" y="-173.5" font-family="Helvetica,sans-Serif" font-size="10.00">WorldObject</text>
</a>
</g>
</g>
<!-- Node2&#45;&gt;Node1 -->
<g id="edge1" class="edge"><title>Node2&#45;&gt;Node1</title>
<path fill="none" stroke="#9a32cd" stroke-dasharray="5,2" d="M351.612,-176C363.394,-176 376.088,-176 387.794,-176"/>
<polygon fill="#9a32cd" stroke="#9a32cd" points="351.541,-172.5 341.541,-176 351.541,-179.5 351.541,-172.5"/>
<text text-anchor="middle" x="365" y="-190" font-family="Helvetica,sans-Serif" font-size="10.00"> a</text>
<text text-anchor="middle" x="365" y="-179" font-family="Helvetica,sans-Serif" font-size="10.00">b</text>
</g>
<!-- Node3 -->
<g id="node3" class="node"><title>Node3</title>
<g id="a_node3"><a xlink:href="class_voxel_cluster.html" target="_top" xlink:title="VoxelCluster">
<polygon fill="white" stroke="red" points="36,-299.5 36,-318.5 108,-318.5 108,-299.5 36,-299.5"/>
<text text-anchor="middle" x="72" y="-306.5" font-family="Helvetica,sans-Serif" font-size="10.00">VoxelCluster</text>
</a>
</g>
</g>
<!-- Node3&#45;&gt;Node2 -->
<g id="edge2" class="edge"><title>Node3&#45;&gt;Node2</title>
<path fill="none" stroke="midnightblue" d="M118.195,-313.148C157.216,-314.357 213.259,-310.154 252,-282 285.288,-257.809 298.912,-206.719 303.28,-185.525"/>
<polygon fill="midnightblue" stroke="midnightblue" points="118.311,-309.65 108.167,-312.707 118.004,-316.643 118.311,-309.65"/>
</g>
<!-- Node4 -->
<g id="node4" class="node"><title>Node4</title>
<g id="a_node4"><a xlink:href="class_voxel.html" target="_top" xlink:title="Voxel">
<polygon fill="white" stroke="red" points="51.5,-261.5 51.5,-280.5 92.5,-280.5 92.5,-261.5 51.5,-261.5"/>
<text text-anchor="middle" x="72" y="-268.5" font-family="Helvetica,sans-Serif" font-size="10.00">Voxel</text>
</a>
</g>
</g>
<!-- Node4&#45;&gt;Node2 -->
<g id="edge3" class="edge"><title>Node4&#45;&gt;Node2</title>
<path fill="none" stroke="#9a32cd" stroke-dasharray="5,2" d="M102.973,-271.703C140.332,-271.28 204.985,-266.178 252,-239 274.274,-226.124 291.427,-200.209 299.649,-185.956"/>
<polygon fill="#9a32cd" stroke="#9a32cd" points="102.748,-268.203 92.7502,-271.708 102.752,-275.203 102.748,-268.203"/>
<text text-anchor="middle" x="207" y="-270" font-family="Helvetica,sans-Serif" font-size="10.00"> m_crucialVoxel</text>
</g>
<!-- Node5 -->
<g id="node5" class="node"><title>Node5</title>
<polygon fill="white" stroke="#bfbfbf" points="0.5,-223.5 0.5,-242.5 143.5,-242.5 143.5,-223.5 0.5,-223.5"/>
<text text-anchor="middle" x="72" y="-230.5" font-family="Helvetica,sans-Serif" font-size="10.00">std::unique_ptr&lt; ObjectInfo &gt;</text>
</g>
<!-- Node5&#45;&gt;Node2 -->
<g id="edge4" class="edge"><title>Node5&#45;&gt;Node2</title>
<path fill="none" stroke="#9a32cd" stroke-dasharray="5,2" d="M153.862,-224.775C185.045,-220.23 220.678,-213.331 252,-203 265.141,-198.665 279.046,-191.471 289.315,-185.598"/>
<polygon fill="#9a32cd" stroke="#9a32cd" points="153.323,-221.316 143.905,-226.17 154.294,-228.249 153.323,-221.316"/>
<text text-anchor="middle" x="207" y="-227" font-family="Helvetica,sans-Serif" font-size="10.00"> m_objectInfo</text>
</g>
<!-- Node6 -->
<g id="node6" class="node"><title>Node6</title>
<g id="a_node6"><a xlink:href="class_handle.html" target="_top" xlink:title="Handle\&lt; WorldObject \&gt;">
<polygon fill="white" stroke="black" points="12.5,-185.5 12.5,-204.5 131.5,-204.5 131.5,-185.5 12.5,-185.5"/>
<text text-anchor="middle" x="72" y="-192.5" font-family="Helvetica,sans-Serif" font-size="10.00">Handle&lt; WorldObject &gt;</text>
</a>
</g>
</g>
<!-- Node6&#45;&gt;Node2 -->
<g id="edge5" class="edge"><title>Node6&#45;&gt;Node2</title>
<path fill="none" stroke="#9a32cd" stroke-dasharray="5,2" d="M141.513,-189.389C183.846,-185.922 236.377,-181.62 270.283,-178.843"/>
<polygon fill="#9a32cd" stroke="#9a32cd" points="141.224,-185.901 131.543,-190.205 141.796,-192.877 141.224,-185.901"/>
<text text-anchor="middle" x="207" y="-191" font-family="Helvetica,sans-Serif" font-size="10.00"> m_handle</text>
</g>
<!-- Node7 -->
<g id="node7" class="node"><title>Node7</title>
<polygon fill="white" stroke="#bfbfbf" points="5,-147.5 5,-166.5 139,-166.5 139,-147.5 5,-147.5"/>
<text text-anchor="middle" x="72" y="-154.5" font-family="Helvetica,sans-Serif" font-size="10.00">std::unique_ptr&lt; Physics &gt;</text>
</g>
<!-- Node7&#45;&gt;Node2 -->
<g id="edge6" class="edge"><title>Node7&#45;&gt;Node2</title>
<path fill="none" stroke="#9a32cd" stroke-dasharray="5,2" d="M149.202,-158.542C181.055,-159.78 218.404,-162.005 252,-166 257.951,-166.708 264.239,-167.686 270.323,-168.757"/>
<polygon fill="#9a32cd" stroke="#9a32cd" points="149.185,-155.039 139.065,-158.174 148.931,-162.035 149.185,-155.039"/>
<text text-anchor="middle" x="207" y="-169" font-family="Helvetica,sans-Serif" font-size="10.00"> m_physics</text>
</g>
<!-- Node8 -->
<g id="node8" class="node"><title>Node8</title>
<polygon fill="white" stroke="#bfbfbf" points="8.5,-98 8.5,-128 135.5,-128 135.5,-98 8.5,-98"/>
<text text-anchor="start" x="16.5" y="-116" font-family="Helvetica,sans-Serif" font-size="10.00">std::unique_ptr&lt; Collision</text>
<text text-anchor="middle" x="72" y="-105" font-family="Helvetica,sans-Serif" font-size="10.00">Filter &gt;</text>
</g>
<!-- Node8&#45;&gt;Node2 -->
<g id="edge7" class="edge"><title>Node8&#45;&gt;Node2</title>
<path fill="none" stroke="#9a32cd" stroke-dasharray="5,2" d="M145.792,-120.105C178.913,-124.824 218.176,-132.535 252,-145 266.403,-150.308 281.372,-159.453 291.713,-166.439"/>
<polygon fill="#9a32cd" stroke="#9a32cd" points="146.104,-116.615 135.723,-118.734 145.16,-123.551 146.104,-116.615"/>
<text text-anchor="middle" x="207" y="-148" font-family="Helvetica,sans-Serif" font-size="10.00"> m_collisionFilter</text>
</g>
<!-- Node9 -->
<g id="node9" class="node"><title>Node9</title>
<polygon fill="white" stroke="#bfbfbf" points="8.5,-49 8.5,-79 135.5,-79 135.5,-49 8.5,-49"/>
<text text-anchor="start" x="16.5" y="-67" font-family="Helvetica,sans-Serif" font-size="10.00">std::unique_ptr&lt; Collision</text>
<text text-anchor="middle" x="72" y="-56" font-family="Helvetica,sans-Serif" font-size="10.00">Detector &gt;</text>
</g>
<!-- Node9&#45;&gt;Node2 -->
<g id="edge8" class="edge"><title>Node9&#45;&gt;Node2</title>
<path fill="none" stroke="#9a32cd" stroke-dasharray="5,2" d="M145.803,-71.3266C180.14,-77.4186 220.406,-88.574 252,-109 274.668,-123.655 291.893,-151.336 299.957,-166.115"/>
<polygon fill="#9a32cd" stroke="#9a32cd" points="146.26,-67.8547 135.822,-69.6666 145.112,-74.7599 146.26,-67.8547"/>
<text text-anchor="middle" x="207" y="-112" font-family="Helvetica,sans-Serif" font-size="10.00"> m_collisionDetector</text>
</g>
<!-- Node10 -->
<g id="node10" class="node"><title>Node10</title>
<polygon fill="white" stroke="#bfbfbf" points="0,-0 0,-30 144,-30 144,-0 0,-0"/>
<text text-anchor="start" x="8" y="-18" font-family="Helvetica,sans-Serif" font-size="10.00">std::unique_ptr&lt; WorldObject</text>
<text text-anchor="middle" x="72" y="-7" font-family="Helvetica,sans-Serif" font-size="10.00">Components &gt;</text>
</g>
<!-- Node10&#45;&gt;Node2 -->
<g id="edge9" class="edge"><title>Node10&#45;&gt;Node2</title>
<path fill="none" stroke="#9a32cd" stroke-dasharray="5,2" d="M154.312,-20.1214C187.676,-25.8511 224.773,-37.3327 252,-60 286.203,-88.4744 299.369,-143.746 303.448,-166.181"/>
<polygon fill="#9a32cd" stroke="#9a32cd" points="154.514,-16.6104 144.093,-18.5218 153.432,-23.5262 154.514,-16.6104"/>
<text text-anchor="middle" x="207" y="-63" font-family="Helvetica,sans-Serif" font-size="10.00"> m_components</text>
</g>
</g>
</svg>
