<?xml version="1.0" encoding="UTF-8" standalone="no"?>
<!DOCTYPE svg PUBLIC "-//W3C//DTD SVG 1.1//EN"
 "http://www.w3.org/Graphics/SVG/1.1/DTD/svg11.dtd">
<!-- Generated by graphviz version 2.36.0 (20140111.2315)
 -->
<!-- Title: SplitDetector::VoxelGroup Pages: 1 -->
<svg width="301pt" height="174pt"
 viewBox="0.00 0.00 301.00 174.00" xmlns="http://www.w3.org/2000/svg" xmlns:xlink="http://www.w3.org/1999/xlink">
<g id="graph0" class="graph" transform="scale(1 1) rotate(0) translate(4 170)">
<title>SplitDetector::VoxelGroup</title>
<polygon fill="white" stroke="none" points="-4,4 -4,-170 297,-170 297,4 -4,4"/>
<!-- Node1 -->
<g id="node1" class="node"><title>Node1</title>
<polygon fill="#bfbfbf" stroke="black" points="0,-0.5 0,-19.5 130,-19.5 130,-0.5 0,-0.5"/>
<text text-anchor="middle" x="65" y="-7.5" font-family="Helvetica,sans-Serif" font-size="10.00">SplitDetector::VoxelGroup</text>
</g>
<!-- Node2 -->
<g id="node2" class="node"><title>Node2</title>
<g id="a_node2"><a xlink:href="class_voxel.html" target="_top" xlink:title="Voxel">
<polygon fill="white" stroke="black" points="107.5,-68.5 107.5,-87.5 148.5,-87.5 148.5,-68.5 107.5,-68.5"/>
<text text-anchor="middle" x="128" y="-75.5" font-family="Helvetica,sans-Serif" font-size="10.00">Voxel</text>
</a>
</g>
</g>
<!-- Node2&#45;&gt;Node1 -->
<g id="edge1" class="edge"><title>Node2&#45;&gt;Node1</title>
<path fill="none" stroke="#9a32cd" stroke-dasharray="5,2" d="M106.708,-62.1639C101.971,-58.4393 97.1326,-54.2773 93,-50 83.8493,-40.5289 75.3282,-27.8928 70.1453,-19.6062"/>
<polygon fill="#9a32cd" stroke="#9a32cd" points="104.848,-65.1432 114.954,-68.326 109.039,-59.536 104.848,-65.1432"/>
<text text-anchor="middle" x="105.5" y="-41.5" font-family="Helvetica,sans-Serif" font-size="10.00"> voxel</text>
</g>
<!-- Node5 -->
<g id="node5" class="node"><title>Node5</title>
<g id="a_node5"><a xlink:href="class_voxel_tree_node.html" target="_top" xlink:title="VoxelTreeNode">
<polygon fill="white" stroke="red" points="148.5,-0.5 148.5,-19.5 231.5,-19.5 231.5,-0.5 148.5,-0.5"/>
<text text-anchor="middle" x="190" y="-7.5" font-family="Helvetica,sans-Serif" font-size="10.00">VoxelTreeNode</text>
</a>
</g>
</g>
<!-- Node2&#45;&gt;Node5 -->
<g id="edge5" class="edge"><title>Node2&#45;&gt;Node5</title>
<path fill="none" stroke="#9a32cd" stroke-dasharray="5,2" d="M121.968,-58.4908C120.835,-51.5572 121.042,-43.9307 125,-38 130.698,-29.4626 139.655,-23.6209 149.119,-19.625"/>
<polygon fill="#9a32cd" stroke="#9a32cd" points="118.65,-59.6434 124.506,-68.4727 125.434,-57.9186 118.65,-59.6434"/>
<text text-anchor="middle" x="144.5" y="-41.5" font-family="Helvetica,sans-Serif" font-size="10.00"> m_voxel</text>
</g>
<!-- Node3 -->
<g id="node3" class="node"><title>Node3</title>
<g id="a_node3"><a xlink:href="class_visuals.html" target="_top" xlink:title="Visuals">
<polygon fill="white" stroke="black" points="60.5,-146.5 60.5,-165.5 109.5,-165.5 109.5,-146.5 60.5,-146.5"/>
<text text-anchor="middle" x="85" y="-153.5" font-family="Helvetica,sans-Serif" font-size="10.00">Visuals</text>
</a>
</g>
</g>
<!-- Node3&#45;&gt;Node2 -->
<g id="edge2" class="edge"><title>Node3&#45;&gt;Node2</title>
<path fill="none" stroke="#9a32cd" stroke-dasharray="5,2" d="M90.3937,-136.602C93.6064,-127.085 98.1952,-115.505 104,-106 108.053,-99.363 113.811,-92.8209 118.671,-87.8389"/>
<polygon fill="#9a32cd" stroke="#9a32cd" points="87.0213,-135.658 87.3596,-146.248 93.6988,-137.759 87.0213,-135.658"/>
<text text-anchor="middle" x="127" y="-114.5" font-family="Helvetica,sans-Serif" font-size="10.00"> m_visuals</text>
</g>
<!-- Node4 -->
<g id="node4" class="node"><title>Node4</title>
<g id="a_node4"><a xlink:href="class_property.html" target="_top" xlink:title="Property\&lt; float \&gt;">
<polygon fill="white" stroke="red" points="127.5,-146.5 127.5,-165.5 216.5,-165.5 216.5,-146.5 127.5,-146.5"/>
<text text-anchor="middle" x="172" y="-153.5" font-family="Helvetica,sans-Serif" font-size="10.00">Property&lt; float &gt;</text>
</a>
</g>
</g>
<!-- Node4&#45;&gt;Node2 -->
<g id="edge3" class="edge"><title>Node4&#45;&gt;Node2</title>
<path fill="none" stroke="#9a32cd" stroke-dasharray="5,2" d="M165.144,-136.751C161.256,-127.276 155.977,-115.687 150,-106 145.936,-99.4134 140.436,-92.6634 135.952,-87.56"/>
<polygon fill="#9a32cd" stroke="#9a32cd" points="161.994,-138.306 168.905,-146.337 168.51,-135.749 161.994,-138.306"/>
<text text-anchor="middle" x="193" y="-120" font-family="Helvetica,sans-Serif" font-size="10.00"> s_defaultHp</text>
<text text-anchor="middle" x="193" y="-109" font-family="Helvetica,sans-Serif" font-size="10.00">s_defaultMass</text>
</g>
<!-- Node5&#45;&gt;Node2 -->
<g id="edge4" class="edge"><title>Node5&#45;&gt;Node2</title>
<path fill="none" stroke="#9a32cd" stroke-dasharray="5,2" d="M181.964,-29.21C178.335,-36.1945 173.597,-43.9356 168,-50 161.181,-57.3884 151.966,-63.7828 144.099,-68.4917"/>
<polygon fill="#9a32cd" stroke="#9a32cd" points="185.306,-30.3338 186.459,-19.8019 178.99,-27.3164 185.306,-30.3338"/>
<text text-anchor="middle" x="217" y="-41.5" font-family="Helvetica,sans-Serif" font-size="10.00"> m_voxelTreeNode</text>
</g>
<!-- Node5&#45;&gt;Node5 -->
<g id="edge6" class="edge"><title>Node5&#45;&gt;Node5</title>
<path fill="none" stroke="#9a32cd" stroke-dasharray="5,2" d="M241.85,-14.9574C246.254,-13.8984 249,-12.2459 249,-10 249,-6.31445 241.605,-4.22694 231.625,-3.73745"/>
<polygon fill="#9a32cd" stroke="#9a32cd" points="241.101,-11.5245 231.625,-16.2626 241.988,-18.4682 241.101,-11.5245"/>
<text text-anchor="middle" x="271" y="-7.5" font-family="Helvetica,sans-Serif" font-size="10.00"> m_parent</text>
</g>
</g>
</svg>
