<?xml version="1.0" encoding="UTF-8" standalone="no"?>
<!DOCTYPE svg PUBLIC "-//W3C//DTD SVG 1.1//EN"
 "http://www.w3.org/Graphics/SVG/1.1/DTD/svg11.dtd">
<!-- Generated by graphviz version 2.36.0 (20140111.2315)
 -->
<!-- Title: ColorCoder Pages: 1 -->
<svg width="146pt" height="208pt"
 viewBox="0.00 0.00 146.00 208.00" xmlns="http://www.w3.org/2000/svg" xmlns:xlink="http://www.w3.org/1999/xlink">
<g id="graph0" class="graph" transform="scale(1 1) rotate(0) translate(4 204)">
<title>ColorCoder</title>
<polygon fill="white" stroke="none" points="-4,4 -4,-204 142,-204 142,4 -4,4"/>
<!-- Node1 -->
<g id="node1" class="node"><title>Node1</title>
<polygon fill="#bfbfbf" stroke="black" points="20.5,-0.5 20.5,-19.5 85.5,-19.5 85.5,-0.5 20.5,-0.5"/>
<text text-anchor="middle" x="53" y="-7.5" font-family="Helvetica,sans-Serif" font-size="10.00">ColorCoder</text>
</g>
<!-- Node2 -->
<g id="node2" class="node"><title>Node2</title>
<g id="a_node2"><a xlink:href="class_property.html" target="_top" xlink:title="Property\&lt; uint32_t \&gt;">
<polygon fill="white" stroke="black" points="0,-112.5 0,-131.5 106,-131.5 106,-112.5 0,-112.5"/>
<text text-anchor="middle" x="53" y="-119.5" font-family="Helvetica,sans-Serif" font-size="10.00">Property&lt; uint32_t &gt;</text>
</a>
</g>
</g>
<!-- Node2&#45;&gt;Node1 -->
<g id="edge1" class="edge"><title>Node2&#45;&gt;Node1</title>
<path fill="none" stroke="#9a32cd" stroke-dasharray="5,2" d="M53,-102.348C53,-78.2538 53,-37.3079 53,-19.5914"/>
<polygon fill="#9a32cd" stroke="#9a32cd" points="49.5001,-102.368 53,-112.368 56.5001,-102.369 49.5001,-102.368"/>
<text text-anchor="middle" x="95.5" y="-85.5" font-family="Helvetica,sans-Serif" font-size="10.00"> m_crucialPrefix</text>
<text text-anchor="middle" x="95.5" y="-74.5" font-family="Helvetica,sans-Serif" font-size="10.00">m_cockpitPrefix</text>
<text text-anchor="middle" x="95.5" y="-63.5" font-family="Helvetica,sans-Serif" font-size="10.00">m_hardpointPrefix</text>
<text text-anchor="middle" x="95.5" y="-52.5" font-family="Helvetica,sans-Serif" font-size="10.00">m_engineSlotPrefix</text>
<text text-anchor="middle" x="95.5" y="-41.5" font-family="Helvetica,sans-Serif" font-size="10.00">m_fuelPrefix</text>
</g>
<!-- Node3 -->
<g id="node3" class="node"><title>Node3</title>
<g id="a_node3"><a xlink:title="STL class. ">
<polygon fill="white" stroke="#bfbfbf" points="23,-180.5 23,-199.5 83,-199.5 83,-180.5 23,-180.5"/>
<text text-anchor="middle" x="53" y="-187.5" font-family="Helvetica,sans-Serif" font-size="10.00">std::string</text>
</a>
</g>
</g>
<!-- Node3&#45;&gt;Node2 -->
<g id="edge2" class="edge"><title>Node3&#45;&gt;Node2</title>
<path fill="none" stroke="#9a32cd" stroke-dasharray="5,2" d="M53,-170.041C53,-157.472 53,-141.563 53,-131.841"/>
<polygon fill="#9a32cd" stroke="#9a32cd" points="49.5001,-170.372 53,-180.372 56.5001,-170.372 49.5001,-170.372"/>
<text text-anchor="middle" x="73.5" y="-153.5" font-family="Helvetica,sans-Serif" font-size="10.00"> m_name</text>
</g>
</g>
</svg>
