<?xml version="1.0" encoding="UTF-8" standalone="no"?>
<!DOCTYPE svg PUBLIC "-//W3C//DTD SVG 1.1//EN"
 "http://www.w3.org/Graphics/SVG/1.1/DTD/svg11.dtd">
<!-- Generated by graphviz version 2.36.0 (20140111.2315)
 -->
<!-- Title: GamePlayRunningInput Pages: 1 -->
<svg width="1154pt" height="489pt"
 viewBox="0.00 0.00 1154.00 489.00" xmlns="http://www.w3.org/2000/svg" xmlns:xlink="http://www.w3.org/1999/xlink">
<g id="graph0" class="graph" transform="scale(1 1) rotate(0) translate(4 485)">
<title>GamePlayRunningInput</title>
<polygon fill="white" stroke="none" points="-4,4 -4,-485 1150,-485 1150,4 -4,4"/>
<!-- Node1 -->
<g id="node1" class="node"><title>Node1</title>
<polygon fill="#bfbfbf" stroke="black" points="1026.5,-246.5 1026.5,-265.5 1145.5,-265.5 1145.5,-246.5 1026.5,-246.5"/>
<text text-anchor="middle" x="1086" y="-253.5" font-family="Helvetica,sans-Serif" font-size="10.00">GamePlayRunningInput</text>
</g>
<!-- Node2 -->
<g id="node2" class="node"><title>Node2</title>
<g id="a_node2"><a xlink:href="struct_secondary_input_values.html" target="_top" xlink:title="SecondaryInputValues">
<polygon fill="white" stroke="black" points="735,-461.5 735,-480.5 849,-480.5 849,-461.5 735,-461.5"/>
<text text-anchor="middle" x="792" y="-468.5" font-family="Helvetica,sans-Serif" font-size="10.00">SecondaryInputValues</text>
</a>
</g>
</g>
<!-- Node2&#45;&gt;Node1 -->
<g id="edge1" class="edge"><title>Node2&#45;&gt;Node1</title>
<path fill="none" stroke="#9a32cd" stroke-dasharray="5,2" d="M848.49,-458.462C857.941,-455.348 867.456,-451.561 876,-447 968.796,-397.464 1052.5,-297.277 1077.46,-265.736"/>
<polygon fill="#9a32cd" stroke="#9a32cd" points="847.238,-455.185 838.706,-461.466 849.293,-461.876 847.238,-455.185"/>
<text text-anchor="middle" x="951" y="-438" font-family="Helvetica,sans-Serif" font-size="10.00"> m_secondaryInputValues</text>
</g>
<!-- Node3 -->
<g id="node3" class="node"><title>Node3</title>
<g id="a_node3"><a xlink:href="class_action_key_mapping.html" target="_top" xlink:title="ActionKeyMapping">
<polygon fill="white" stroke="black" points="432,-298.5 432,-317.5 530,-317.5 530,-298.5 432,-298.5"/>
<text text-anchor="middle" x="481" y="-305.5" font-family="Helvetica,sans-Serif" font-size="10.00">ActionKeyMapping</text>
</a>
</g>
</g>
<!-- Node3&#45;&gt;Node1 -->
<g id="edge2" class="edge"><title>Node3&#45;&gt;Node1</title>
<path fill="none" stroke="#9a32cd" stroke-dasharray="5,2" d="M540.483,-311.481C638.462,-315.927 841.424,-319.194 1008,-283 1026.83,-278.909 1047.38,-271.545 1062.51,-265.54"/>
<polygon fill="#9a32cd" stroke="#9a32cd" points="540.353,-307.971 530.198,-310.992 540.021,-314.963 540.353,-307.971"/>
<text text-anchor="middle" x="792" y="-426" font-family="Helvetica,sans-Serif" font-size="10.00"> moveRightAction</text>
<text text-anchor="middle" x="792" y="-415" font-family="Helvetica,sans-Serif" font-size="10.00">moveLeftAction</text>
<text text-anchor="middle" x="792" y="-404" font-family="Helvetica,sans-Serif" font-size="10.00">rocketAction</text>
<text text-anchor="middle" x="792" y="-393" font-family="Helvetica,sans-Serif" font-size="10.00">rotateDownAction</text>
<text text-anchor="middle" x="792" y="-382" font-family="Helvetica,sans-Serif" font-size="10.00">rotateRightAction</text>
<text text-anchor="middle" x="792" y="-371" font-family="Helvetica,sans-Serif" font-size="10.00">rotateCClockwiseAction</text>
<text text-anchor="middle" x="792" y="-360" font-family="Helvetica,sans-Serif" font-size="10.00">rotateLeftAction</text>
<text text-anchor="middle" x="792" y="-349" font-family="Helvetica,sans-Serif" font-size="10.00">fireAction</text>
<text text-anchor="middle" x="792" y="-338" font-family="Helvetica,sans-Serif" font-size="10.00">rotateUpAction</text>
<text text-anchor="middle" x="792" y="-327" font-family="Helvetica,sans-Serif" font-size="10.00">rotateClockwiseAction</text>
<text text-anchor="middle" x="792" y="-316" font-family="Helvetica,sans-Serif" font-size="10.00">...</text>
</g>
<!-- Node7 -->
<g id="node7" class="node"><title>Node7</title>
<polygon fill="white" stroke="#bfbfbf" points="708,-266.5 708,-285.5 876,-285.5 876,-266.5 708,-266.5"/>
<text text-anchor="middle" x="792" y="-273.5" font-family="Helvetica,sans-Serif" font-size="10.00">std::vector&lt; ActionKeyMapping * &gt;</text>
</g>
<!-- Node3&#45;&gt;Node7 -->
<g id="edge9" class="edge"><title>Node3&#45;&gt;Node7</title>
<path fill="none" stroke="#9a32cd" stroke-dasharray="5,2" d="M540.36,-301.327C553.402,-299.87 567.17,-298.358 580,-297 622.1,-292.542 668.955,-287.852 707.797,-284.037"/>
<polygon fill="#9a32cd" stroke="#9a32cd" points="539.635,-297.887 530.088,-302.48 540.416,-304.843 539.635,-297.887"/>
<text text-anchor="middle" x="635" y="-300" font-family="Helvetica,sans-Serif" font-size="10.00"> elements</text>
</g>
<!-- Node4 -->
<g id="node4" class="node"><title>Node4</title>
<g id="a_node4"><a xlink:title="STL class. ">
<polygon fill="white" stroke="#bfbfbf" points="0,-266.5 0,-285.5 60,-285.5 60,-266.5 0,-266.5"/>
<text text-anchor="middle" x="30" y="-273.5" font-family="Helvetica,sans-Serif" font-size="10.00">std::string</text>
</a>
</g>
</g>
<!-- Node4&#45;&gt;Node3 -->
<g id="edge3" class="edge"><title>Node4&#45;&gt;Node3</title>
<path fill="none" stroke="#9a32cd" stroke-dasharray="5,2" d="M67.4153,-288.51C70.9646,-289.461 74.534,-290.315 78,-291 203.747,-315.868 355.771,-313.82 431.792,-310.665"/>
<polygon fill="#9a32cd" stroke="#9a32cd" points="68.1477,-285.078 57.5676,-285.636 66.1865,-291.798 68.1477,-285.078"/>
<text text-anchor="middle" x="203" y="-314" font-family="Helvetica,sans-Serif" font-size="10.00"> m_name</text>
</g>
<!-- Node5 -->
<g id="node5" class="node"><title>Node5</title>
<g id="a_node5"><a xlink:href="class_property.html" target="_top" xlink:title="Property\&lt; InputMapping \&gt;">
<polygon fill="white" stroke="red" points="138.5,-266.5 138.5,-285.5 267.5,-285.5 267.5,-266.5 138.5,-266.5"/>
<text text-anchor="middle" x="203" y="-273.5" font-family="Helvetica,sans-Serif" font-size="10.00">Property&lt; InputMapping &gt;</text>
</a>
</g>
</g>
<!-- Node4&#45;&gt;Node5 -->
<g id="edge5" class="edge"><title>Node4&#45;&gt;Node5</title>
<path fill="none" stroke="#9a32cd" stroke-dasharray="5,2" d="M70.084,-276C90.2906,-276 115.46,-276 138.381,-276"/>
<polygon fill="#9a32cd" stroke="#9a32cd" points="70.0079,-272.5 60.0078,-276 70.0078,-279.5 70.0079,-272.5"/>
<text text-anchor="middle" x="99" y="-279" font-family="Helvetica,sans-Serif" font-size="10.00"> m_name</text>
</g>
<!-- Node6 -->
<g id="node6" class="node"><title>Node6</title>
<g id="a_node6"><a xlink:href="class_property.html" target="_top" xlink:title="Property\&lt; float \&gt;">
<polygon fill="white" stroke="black" points="289.5,-228.5 289.5,-247.5 378.5,-247.5 378.5,-228.5 289.5,-228.5"/>
<text text-anchor="middle" x="334" y="-235.5" font-family="Helvetica,sans-Serif" font-size="10.00">Property&lt; float &gt;</text>
</a>
</g>
</g>
<!-- Node4&#45;&gt;Node6 -->
<g id="edge7" class="edge"><title>Node4&#45;&gt;Node6</title>
<path fill="none" stroke="#9a32cd" stroke-dasharray="5,2" d="M67.4214,-263.521C70.9695,-262.564 74.5369,-261.7 78,-261 151.197,-246.205 238.142,-240.923 289.268,-239.04"/>
<polygon fill="#9a32cd" stroke="#9a32cd" points="66.1888,-260.235 57.5756,-266.404 68.1562,-266.952 66.1888,-260.235"/>
<text text-anchor="middle" x="99" y="-264" font-family="Helvetica,sans-Serif" font-size="10.00"> m_name</text>
</g>
<!-- Node5&#45;&gt;Node3 -->
<g id="edge4" class="edge"><title>Node5&#45;&gt;Node3</title>
<path fill="none" stroke="#9a32cd" stroke-dasharray="5,2" d="M277.887,-277.426C309.997,-278.748 347.976,-281.258 382,-286 402.725,-288.888 425.553,-293.903 443.959,-298.416"/>
<polygon fill="#9a32cd" stroke="#9a32cd" points="277.806,-273.921 267.68,-277.038 277.54,-280.916 277.806,-273.921"/>
<text text-anchor="middle" x="334" y="-300" font-family="Helvetica,sans-Serif" font-size="10.00"> m_primaryMapping</text>
<text text-anchor="middle" x="334" y="-289" font-family="Helvetica,sans-Serif" font-size="10.00">m_secondaryMapping</text>
</g>
<!-- Node6&#45;&gt;Node1 -->
<g id="edge6" class="edge"><title>Node6&#45;&gt;Node1</title>
<path fill="none" stroke="#9a32cd" stroke-dasharray="5,2" d="M388.774,-239.291C525.296,-242.567 884.499,-251.188 1026.26,-254.59"/>
<polygon fill="#9a32cd" stroke="#9a32cd" points="388.646,-235.787 378.565,-239.046 388.478,-242.785 388.646,-235.787"/>
<text text-anchor="middle" x="635" y="-271" font-family="Helvetica,sans-Serif" font-size="10.00"> prop_deadzoneMouse</text>
<text text-anchor="middle" x="635" y="-260" font-family="Helvetica,sans-Serif" font-size="10.00">prop_deadzoneGamepad</text>
<text text-anchor="middle" x="635" y="-249" font-family="Helvetica,sans-Serif" font-size="10.00">prop_maxClickTime</text>
</g>
<!-- Node7&#45;&gt;Node1 -->
<g id="edge8" class="edge"><title>Node7&#45;&gt;Node1</title>
<path fill="none" stroke="#9a32cd" stroke-dasharray="5,2" d="M886.538,-269.593C932.374,-266.454 986.165,-262.77 1026.18,-260.029"/>
<polygon fill="#9a32cd" stroke="#9a32cd" points="886.022,-266.12 876.285,-270.296 886.501,-273.104 886.022,-266.12"/>
<text text-anchor="middle" x="951" y="-271" font-family="Helvetica,sans-Serif" font-size="10.00"> m_actions</text>
</g>
<!-- Node8 -->
<g id="node8" class="node"><title>Node8</title>
<g id="a_node8"><a xlink:href="class_input_configurator.html" target="_top" xlink:title="InputConfigurator">
<polygon fill="white" stroke="black" points="747.5,-190.5 747.5,-209.5 836.5,-209.5 836.5,-190.5 747.5,-190.5"/>
<text text-anchor="middle" x="792" y="-197.5" font-family="Helvetica,sans-Serif" font-size="10.00">InputConfigurator</text>
</a>
</g>
</g>
<!-- Node8&#45;&gt;Node1 -->
<g id="edge10" class="edge"><title>Node8&#45;&gt;Node1</title>
<path fill="none" stroke="#9a32cd" stroke-dasharray="5,2" d="M847.038,-196.688C891.219,-195.53 954.841,-197.435 1008,-213 1032.39,-220.142 1057.53,-236.102 1072.19,-246.441"/>
<polygon fill="#9a32cd" stroke="#9a32cd" points="846.684,-193.198 836.803,-197.02 846.911,-200.194 846.684,-193.198"/>
<text text-anchor="middle" x="951" y="-216" font-family="Helvetica,sans-Serif" font-size="10.00"> m_inputConfigurator</text>
</g>
<!-- Node9 -->
<g id="node9" class="node"><title>Node9</title>
<g id="a_node9"><a xlink:href="class_player.html" target="_top" xlink:title="Player">
<polygon fill="white" stroke="black" points="770,-114.5 770,-133.5 814,-133.5 814,-114.5 770,-114.5"/>
<text text-anchor="middle" x="792" y="-121.5" font-family="Helvetica,sans-Serif" font-size="10.00">Player</text>
</a>
</g>
</g>
<!-- Node9&#45;&gt;Node1 -->
<g id="edge11" class="edge"><title>Node9&#45;&gt;Node1</title>
<path fill="none" stroke="#9a32cd" stroke-dasharray="5,2" d="M824.12,-127.689C867.63,-133.888 948.036,-149.2 1008,-183 1037.85,-199.824 1064.97,-230.737 1077.57,-246.384"/>
<polygon fill="#9a32cd" stroke="#9a32cd" points="824.521,-124.211 814.142,-126.336 823.581,-131.148 824.521,-124.211"/>
<text text-anchor="middle" x="951" y="-186" font-family="Helvetica,sans-Serif" font-size="10.00"> m_player</text>
</g>
<!-- Node10 -->
<g id="node10" class="node"><title>Node10</title>
<polygon fill="white" stroke="#bfbfbf" points="400,-190.5 400,-209.5 562,-209.5 562,-190.5 400,-190.5"/>
<text text-anchor="middle" x="481" y="-197.5" font-family="Helvetica,sans-Serif" font-size="10.00">std::unique_ptr&lt; TargetSelector &gt;</text>
</g>
<!-- Node10&#45;&gt;Node9 -->
<g id="edge12" class="edge"><title>Node10&#45;&gt;Node9</title>
<path fill="none" stroke="#9a32cd" stroke-dasharray="5,2" d="M572.268,-190.583C609.212,-185.468 652.099,-177.895 690,-167 719.855,-158.418 752.638,-143.332 772.517,-133.503"/>
<polygon fill="#9a32cd" stroke="#9a32cd" points="571.46,-187.16 562.015,-191.962 572.392,-194.098 571.46,-187.16"/>
<text text-anchor="middle" x="635" y="-193" font-family="Helvetica,sans-Serif" font-size="10.00"> m_targetSelector</text>
</g>
<!-- Node11 -->
<g id="node11" class="node"><title>Node11</title>
<polygon fill="white" stroke="#bfbfbf" points="421.5,-152.5 421.5,-171.5 540.5,-171.5 540.5,-152.5 421.5,-152.5"/>
<text text-anchor="middle" x="481" y="-159.5" font-family="Helvetica,sans-Serif" font-size="10.00">std::unique_ptr&lt; HUD &gt;</text>
</g>
<!-- Node11&#45;&gt;Node9 -->
<g id="edge13" class="edge"><title>Node11&#45;&gt;Node9</title>
<path fill="none" stroke="#9a32cd" stroke-dasharray="5,2" d="M550.841,-155.039C591.392,-150.776 643.664,-145 690,-139 717.601,-135.426 749.335,-130.594 769.752,-127.391"/>
<polygon fill="#9a32cd" stroke="#9a32cd" points="550.376,-151.569 540.795,-156.09 551.104,-158.531 550.376,-151.569"/>
<text text-anchor="middle" x="635" y="-155" font-family="Helvetica,sans-Serif" font-size="10.00"> m_hud</text>
</g>
<!-- Node12 -->
<g id="node12" class="node"><title>Node12</title>
<polygon fill="white" stroke="#bfbfbf" points="403.5,-114.5 403.5,-133.5 558.5,-133.5 558.5,-114.5 403.5,-114.5"/>
<text text-anchor="middle" x="481" y="-121.5" font-family="Helvetica,sans-Serif" font-size="10.00">std::unique_ptr&lt; CameraDolly &gt;</text>
</g>
<!-- Node12&#45;&gt;Node9 -->
<g id="edge14" class="edge"><title>Node12&#45;&gt;Node9</title>
<path fill="none" stroke="#9a32cd" stroke-dasharray="5,2" d="M568.787,-124C637.785,-124 729.243,-124 769.931,-124"/>
<polygon fill="#9a32cd" stroke="#9a32cd" points="568.779,-120.5 558.779,-124 568.779,-127.5 568.779,-120.5"/>
<text text-anchor="middle" x="635" y="-127" font-family="Helvetica,sans-Serif" font-size="10.00"> m_cameraDolly</text>
</g>
<!-- Node13 -->
<g id="node13" class="node"><title>Node13</title>
<polygon fill="white" stroke="#bfbfbf" points="418.5,-76.5 418.5,-95.5 543.5,-95.5 543.5,-76.5 418.5,-76.5"/>
<text text-anchor="middle" x="481" y="-83.5" font-family="Helvetica,sans-Serif" font-size="10.00">std::unique_ptr&lt; Aimer &gt;</text>
</g>
<!-- Node13&#45;&gt;Node9 -->
<g id="edge15" class="edge"><title>Node13&#45;&gt;Node9</title>
<path fill="none" stroke="#9a32cd" stroke-dasharray="5,2" d="M553.473,-93.2379C593.638,-97.4721 644.661,-103.129 690,-109 717.601,-112.574 749.335,-117.406 769.752,-120.609"/>
<polygon fill="#9a32cd" stroke="#9a32cd" points="553.817,-89.7548 543.506,-92.1928 553.087,-96.7166 553.817,-89.7548"/>
<text text-anchor="middle" x="635" y="-112" font-family="Helvetica,sans-Serif" font-size="10.00"> m_aimer</text>
</g>
<!-- Node14 -->
<g id="node14" class="node"><title>Node14</title>
<g id="a_node14"><a xlink:href="class_handle.html" target="_top" xlink:title="Handle\&lt; Ship \&gt;">
<polygon fill="white" stroke="black" points="439,-38.5 439,-57.5 523,-57.5 523,-38.5 439,-38.5"/>
<text text-anchor="middle" x="481" y="-45.5" font-family="Helvetica,sans-Serif" font-size="10.00">Handle&lt; Ship &gt;</text>
</a>
</g>
</g>
<!-- Node14&#45;&gt;Node9 -->
<g id="edge16" class="edge"><title>Node14&#45;&gt;Node9</title>
<path fill="none" stroke="#9a32cd" stroke-dasharray="5,2" d="M533.386,-53.0372C575.932,-58.0044 637.667,-67.0614 690,-82 719.4,-90.3924 751.768,-104.841 771.743,-114.408"/>
<polygon fill="#9a32cd" stroke="#9a32cd" points="533.6,-49.5391 523.269,-51.891 532.812,-56.4946 533.6,-49.5391"/>
<text text-anchor="middle" x="635" y="-85" font-family="Helvetica,sans-Serif" font-size="10.00"> m_ship</text>
</g>
<!-- Node15 -->
<g id="node15" class="node"><title>Node15</title>
<g id="a_node15"><a xlink:href="class_abstract_move.html" target="_top" xlink:title="AbstractMove">
<polygon fill="white" stroke="black" points="443,-0.5 443,-19.5 519,-19.5 519,-0.5 443,-0.5"/>
<text text-anchor="middle" x="481" y="-7.5" font-family="Helvetica,sans-Serif" font-size="10.00">AbstractMove</text>
</a>
</g>
</g>
<!-- Node15&#45;&gt;Node9 -->
<g id="edge17" class="edge"><title>Node15&#45;&gt;Node9</title>
<path fill="none" stroke="#9a32cd" stroke-dasharray="5,2" d="M529.272,-11.3491C572.711,-14.0948 638.041,-22.0926 690,-45 728.702,-62.0631 765.591,-97.3147 782.039,-114.357"/>
<polygon fill="#9a32cd" stroke="#9a32cd" points="529.446,-7.85349 519.265,-10.7851 529.052,-14.8424 529.446,-7.85349"/>
<text text-anchor="middle" x="635" y="-48" font-family="Helvetica,sans-Serif" font-size="10.00"> m_engineState</text>
</g>
</g>
</svg>
