<?xml version="1.0" encoding="UTF-8" standalone="no"?>
<!DOCTYPE svg PUBLIC "-//W3C//DTD SVG 1.1//EN"
 "http://www.w3.org/Graphics/SVG/1.1/DTD/svg11.dtd">
<!-- Generated by graphviz version 2.36.0 (20140111.2315)
 -->
<!-- Title: ClusterCache Pages: 1 -->
<svg width="524pt" height="156pt"
 viewBox="0.00 0.00 524.00 156.00" xmlns="http://www.w3.org/2000/svg" xmlns:xlink="http://www.w3.org/1999/xlink">
<g id="graph0" class="graph" transform="scale(1 1) rotate(0) translate(4 152)">
<title>ClusterCache</title>
<polygon fill="white" stroke="none" points="-4,4 -4,-152 520,-152 520,4 -4,4"/>
<!-- Node1 -->
<g id="node1" class="node"><title>Node1</title>
<polygon fill="#bfbfbf" stroke="black" points="440.5,-49.5 440.5,-68.5 515.5,-68.5 515.5,-49.5 440.5,-49.5"/>
<text text-anchor="middle" x="478" y="-56.5" font-family="Helvetica,sans-Serif" font-size="10.00">ClusterCache</text>
</g>
<!-- Node1&#45;&gt;Node1 -->
<g id="edge8" class="edge"><title>Node1&#45;&gt;Node1</title>
<path fill="none" stroke="#9a32cd" stroke-dasharray="5,2" d="M461.705,-78.4C462.793,-83.3146 468.225,-87 478,-87 493.641,-87 498.162,-77.5653 491.563,-68.7571"/>
<polygon fill="#9a32cd" stroke="#9a32cd" points="465.078,-79.3325 464.437,-68.7571 458.343,-77.4242 465.078,-79.3325"/>
<text text-anchor="middle" x="478" y="-90" font-family="Helvetica,sans-Serif" font-size="10.00"> s_instance</text>
</g>
<!-- Node2 -->
<g id="node2" class="node"><title>Node2</title>
<polygon fill="white" stroke="#bfbfbf" points="201,-88 201,-118 331,-118 331,-88 201,-88"/>
<text text-anchor="start" x="209" y="-106" font-family="Helvetica,sans-Serif" font-size="10.00">std::map&lt; std::string,</text>
<text text-anchor="middle" x="266" y="-95" font-family="Helvetica,sans-Serif" font-size="10.00"> std::vector&lt; Voxel * &gt; * &gt;</text>
</g>
<!-- Node2&#45;&gt;Node1 -->
<g id="edge1" class="edge"><title>Node2&#45;&gt;Node1</title>
<path fill="none" stroke="#9a32cd" stroke-dasharray="5,2" d="M341.371,-90.3529C367.012,-85.6571 395.853,-80.0011 422,-74 429.042,-72.3838 436.54,-70.4696 443.662,-68.5588"/>
<polygon fill="#9a32cd" stroke="#9a32cd" points="340.558,-86.9431 331.343,-92.1707 341.807,-93.8309 340.558,-86.9431"/>
<text text-anchor="middle" x="390" y="-91" font-family="Helvetica,sans-Serif" font-size="10.00"> m_items</text>
</g>
<!-- Node3 -->
<g id="node3" class="node"><title>Node3</title>
<polygon fill="white" stroke="#bfbfbf" points="0.5,-128.5 0.5,-147.5 111.5,-147.5 111.5,-128.5 0.5,-128.5"/>
<text text-anchor="middle" x="56" y="-135.5" font-family="Helvetica,sans-Serif" font-size="10.00">std::vector&lt; Voxel * &gt;</text>
</g>
<!-- Node3&#45;&gt;Node2 -->
<g id="edge2" class="edge"><title>Node3&#45;&gt;Node2</title>
<path fill="none" stroke="#9a32cd" stroke-dasharray="5,2" d="M121.817,-127.093C146.953,-122.864 175.667,-118.032 200.75,-113.811"/>
<polygon fill="#9a32cd" stroke="#9a32cd" points="120.93,-123.693 111.65,-128.804 122.092,-130.596 120.93,-123.693"/>
<text text-anchor="middle" x="152" y="-128" font-family="Helvetica,sans-Serif" font-size="10.00"> elements</text>
</g>
<!-- Node4 -->
<g id="node4" class="node"><title>Node4</title>
<g id="a_node4"><a xlink:title="STL class. ">
<polygon fill="white" stroke="#bfbfbf" points="26,-90.5 26,-109.5 86,-109.5 86,-90.5 26,-90.5"/>
<text text-anchor="middle" x="56" y="-97.5" font-family="Helvetica,sans-Serif" font-size="10.00">std::string</text>
</a>
</g>
</g>
<!-- Node4&#45;&gt;Node2 -->
<g id="edge3" class="edge"><title>Node4&#45;&gt;Node2</title>
<path fill="none" stroke="#9a32cd" stroke-dasharray="5,2" d="M96.6378,-100.572C126.011,-100.995 166.671,-101.582 200.674,-102.072"/>
<polygon fill="#9a32cd" stroke="#9a32cd" points="96.4096,-97.0681 86.3602,-100.423 96.3086,-104.067 96.4096,-97.0681"/>
<text text-anchor="middle" x="152" y="-105" font-family="Helvetica,sans-Serif" font-size="10.00"> keys</text>
</g>
<!-- Node5 -->
<g id="node5" class="node"><title>Node5</title>
<polygon fill="white" stroke="#bfbfbf" points="192.5,-49.5 192.5,-68.5 339.5,-68.5 339.5,-49.5 192.5,-49.5"/>
<text text-anchor="middle" x="266" y="-56.5" font-family="Helvetica,sans-Serif" font-size="10.00">std::unique_ptr&lt; ColorCoder &gt;</text>
</g>
<!-- Node5&#45;&gt;Node1 -->
<g id="edge4" class="edge"><title>Node5&#45;&gt;Node1</title>
<path fill="none" stroke="#9a32cd" stroke-dasharray="5,2" d="M349.661,-59C381.111,-59 415.364,-59 440.416,-59"/>
<polygon fill="#9a32cd" stroke="#9a32cd" points="349.564,-55.5001 339.564,-59 349.564,-62.5001 349.564,-55.5001"/>
<text text-anchor="middle" x="390" y="-62" font-family="Helvetica,sans-Serif" font-size="10.00"> m_colorCoder</text>
</g>
<!-- Node6 -->
<g id="node6" class="node"><title>Node6</title>
<g id="a_node6"><a xlink:href="class_color_coder.html" target="_top" xlink:title="ColorCoder">
<polygon fill="white" stroke="red" points="23.5,-49.5 23.5,-68.5 88.5,-68.5 88.5,-49.5 23.5,-49.5"/>
<text text-anchor="middle" x="56" y="-56.5" font-family="Helvetica,sans-Serif" font-size="10.00">ColorCoder</text>
</a>
</g>
</g>
<!-- Node6&#45;&gt;Node5 -->
<g id="edge5" class="edge"><title>Node6&#45;&gt;Node5</title>
<path fill="none" stroke="#9a32cd" stroke-dasharray="5,2" d="M98.7377,-59C125.444,-59 160.819,-59 192.071,-59"/>
<polygon fill="#9a32cd" stroke="#9a32cd" points="98.5908,-55.5001 88.5907,-59 98.5907,-62.5001 98.5908,-55.5001"/>
<text text-anchor="middle" x="152" y="-62" font-family="Helvetica,sans-Serif" font-size="10.00"> ptr</text>
</g>
<!-- Node7 -->
<g id="node7" class="node"><title>Node7</title>
<polygon fill="white" stroke="#bfbfbf" points="205.5,-0 205.5,-30 326.5,-30 326.5,-0 205.5,-0"/>
<text text-anchor="start" x="213.5" y="-18" font-family="Helvetica,sans-Serif" font-size="10.00">std::unique_ptr&lt; Cluster</text>
<text text-anchor="middle" x="266" y="-7" font-family="Helvetica,sans-Serif" font-size="10.00">Loader &gt;</text>
</g>
<!-- Node7&#45;&gt;Node1 -->
<g id="edge6" class="edge"><title>Node7&#45;&gt;Node1</title>
<path fill="none" stroke="#9a32cd" stroke-dasharray="5,2" d="M336.888,-26.8299C363.616,-31.6799 394.318,-37.6465 422,-44 429.042,-45.6162 436.54,-47.5304 443.662,-49.4412"/>
<polygon fill="#9a32cd" stroke="#9a32cd" points="337.315,-23.3507 326.854,-25.0274 336.078,-30.2404 337.315,-23.3507"/>
<text text-anchor="middle" x="390" y="-47" font-family="Helvetica,sans-Serif" font-size="10.00"> m_loader</text>
</g>
<!-- Node8 -->
<g id="node8" class="node"><title>Node8</title>
<g id="a_node8"><a xlink:href="class_cluster_loader.html" target="_top" xlink:title="ClusterLoader">
<polygon fill="white" stroke="black" points="17.5,-5.5 17.5,-24.5 94.5,-24.5 94.5,-5.5 17.5,-5.5"/>
<text text-anchor="middle" x="56" y="-12.5" font-family="Helvetica,sans-Serif" font-size="10.00">ClusterLoader</text>
</a>
</g>
</g>
<!-- Node8&#45;&gt;Node7 -->
<g id="edge7" class="edge"><title>Node8&#45;&gt;Node7</title>
<path fill="none" stroke="#9a32cd" stroke-dasharray="5,2" d="M104.828,-15C134.665,-15 173.315,-15 205.172,-15"/>
<polygon fill="#9a32cd" stroke="#9a32cd" points="104.667,-11.5001 94.6672,-15 104.667,-18.5001 104.667,-11.5001"/>
<text text-anchor="middle" x="152" y="-18" font-family="Helvetica,sans-Serif" font-size="10.00"> ptr</text>
</g>
</g>
</svg>
