<?xml version="1.0" encoding="UTF-8" standalone="no"?>
<!DOCTYPE svg PUBLIC "-//W3C//DTD SVG 1.1//EN"
 "http://www.w3.org/Graphics/SVG/1.1/DTD/svg11.dtd">
<!-- Generated by graphviz version 2.36.0 (20140111.2315)
 -->
<!-- Title: WorldTreeNode Pages: 1 -->
<!--zoomable 173 -->
<svg id="main" version="1.1" xmlns="http://www.w3.org/2000/svg" xmlns:xlink="http://www.w3.org/1999/xlink" xml:space="preserve" onload="init(evt)">
<style type="text/css"><![CDATA[
.edge:hover path { stroke: red; }
.edge:hover polygon { stroke: red; fill: red; }
]]></style>
<script type="text/javascript"><![CDATA[
var edges = document.getElementsByTagName('g');
if (edges && edges.length) {
  for (var i=0;i<edges.length;i++) {
    if (edges[i].id.substr(0,4)=='edge') {
      edges[i].setAttribute('class','edge');
    }
  }
}
]]></script>
        <defs>
                <circle id="rim" cx="0" cy="0" r="7"/>
                <circle id="rim2" cx="0" cy="0" r="3.5"/>
                <g id="zoomPlus">
                        <use xlink:href="#rim" fill="#404040">
                                <set attributeName="fill" to="#808080" begin="zoomplus.mouseover" end="zoomplus.mouseout"/>
                        </use>
                        <path d="M-4,0h8M0,-4v8" fill="none" stroke="white" stroke-width="1.5" pointer-events="none"/>
                </g>
                <g id="zoomMin">
                        <use xlink:href="#rim" fill="#404040">
                                <set attributeName="fill" to="#808080" begin="zoomminus.mouseover" end="zoomminus.mouseout"/>
                        </use>
                        <path d="M-4,0h8" fill="none" stroke="white" stroke-width="1.5" pointer-events="none"/>
                </g>
                <g id="dirArrow">
                        <path fill="none" stroke="white" stroke-width="1.5" d="M0,-3.0v7 M-2.5,-0.5L0,-3.0L2.5,-0.5"/>
                </g>
               <g id="resetDef">
                       <use xlink:href="#rim2" fill="#404040">
                               <set attributeName="fill" to="#808080" begin="reset.mouseover" end="reset.mouseout"/>
                       </use>
               </g>
        </defs>

<script type="text/javascript">
var viewWidth = 964;
var viewHeight = 173;
var sectionId = 'dynsection-0';
</script>
<script xlink:href="svgpan.js"/>
<svg id="graph" class="graph">
<g id="viewport">
<title>WorldTreeNode</title>
<polygon fill="white" stroke="none" points="-4,4 -4,-169 960,-169 960,4 -4,4"/>
<!-- Node1 -->
<g id="node1" class="node"><title>Node1</title>
<polygon fill="#bfbfbf" stroke="black" points="152.5,-77.5 152.5,-96.5 235.5,-96.5 235.5,-77.5 152.5,-77.5"/>
<text text-anchor="middle" x="194" y="-84.5" font-family="Helvetica,sans-Serif" font-size="10.00">WorldTreeNode</text>
</g>
<!-- Node1&#45;&gt;Node1 -->
<g id="edge1" class="edge"><title>Node1&#45;&gt;Node1</title>
<path fill="none" stroke="#9a32cd" stroke-dasharray="5,2" d="M179.636,-106.766C180.764,-111.497 185.552,-115 194,-115 207.863,-115 211.871,-105.565 206.022,-96.7571"/>
<polygon fill="#9a32cd" stroke="#9a32cd" points="183.107,-107.292 181.978,-96.7571 176.292,-105.697 183.107,-107.292"/>
<text text-anchor="middle" x="194" y="-118" font-family="Helvetica,sans-Serif" font-size="10.00"> m_parent</text>
</g>
<!-- Node2 -->
<g id="node2" class="node"><title>Node2</title>
<polygon fill="white" stroke="#bfbfbf" points="365,-111.5 365,-130.5 505,-130.5 505,-111.5 365,-111.5"/>
<text text-anchor="middle" x="435" y="-118.5" font-family="Helvetica,sans-Serif" font-size="10.00">std::list&lt; WorldTreeNode * &gt;</text>
</g>
<!-- Node1&#45;&gt;Node2 -->
<g id="edge3" class="edge"><title>Node1&#45;&gt;Node2</title>
<path fill="none" stroke="#9a32cd" stroke-dasharray="5,2" d="M214.606,-102.739C225.515,-110.481 239.741,-118.993 254,-123 290.856,-133.356 333.656,-133.343 368.271,-130.514"/>
<polygon fill="#9a32cd" stroke="#9a32cd" points="216.401,-99.7114 206.295,-96.533 212.213,-105.32 216.401,-99.7114"/>
<text text-anchor="middle" x="297" y="-135" font-family="Helvetica,sans-Serif" font-size="10.00"> elements</text>
</g>
<!-- Node3 -->
<g id="node3" class="node"><title>Node3</title>
<polygon fill="white" stroke="#bfbfbf" points="358.5,-61.5 358.5,-80.5 511.5,-80.5 511.5,-61.5 358.5,-61.5"/>
<text text-anchor="middle" x="435" y="-68.5" font-family="Helvetica,sans-Serif" font-size="10.00">std::vector&lt; WorldTreeNode * &gt;</text>
</g>
<!-- Node1&#45;&gt;Node3 -->
<g id="edge5" class="edge"><title>Node1&#45;&gt;Node3</title>
<path fill="none" stroke="#9a32cd" stroke-dasharray="5,2" d="M245.784,-83.6002C278.521,-81.4086 321.68,-78.5194 358.41,-76.0604"/>
<polygon fill="#9a32cd" stroke="#9a32cd" points="245.287,-80.1256 235.543,-84.2858 245.755,-87.1099 245.287,-80.1256"/>
<text text-anchor="middle" x="297" y="-85" font-family="Helvetica,sans-Serif" font-size="10.00"> elements</text>
</g>
<!-- Node5 -->
<g id="node5" class="node"><title>Node5</title>
<g id="a_node5"><a xlink:href="class_world_tree_geode.html" target="_top" xlink:title="WorldTreeGeode">
<polygon fill="white" stroke="red" points="640.5,-43.5 640.5,-62.5 729.5,-62.5 729.5,-43.5 640.5,-43.5"/>
<text text-anchor="middle" x="685" y="-50.5" font-family="Helvetica,sans-Serif" font-size="10.00">WorldTreeGeode</text>
</a>
</g>
</g>
<!-- Node1&#45;&gt;Node5 -->
<g id="edge8" class="edge"><title>Node1&#45;&gt;Node5</title>
<path fill="none" stroke="#9a32cd" stroke-dasharray="5,2" d="M211.422,-70.2982C222.424,-60.3218 237.817,-48.5433 254,-43 391.578,4.12498 568.687,-26.2372 645.56,-43.4637"/>
<polygon fill="#9a32cd" stroke="#9a32cd" points="208.749,-68.0107 203.923,-77.4428 213.577,-73.0787 208.749,-68.0107"/>
<text text-anchor="middle" x="435" y="-24" font-family="Helvetica,sans-Serif" font-size="10.00"> m_containingNode</text>
</g>
<!-- Node2&#45;&gt;Node1 -->
<g id="edge2" class="edge"><title>Node2&#45;&gt;Node1</title>
<path fill="none" stroke="#9a32cd" stroke-dasharray="5,2" d="M354.678,-111.038C323.288,-106.936 286.909,-101.981 254,-97 248.042,-96.0982 241.755,-95.0917 235.595,-94.0743"/>
<polygon fill="#9a32cd" stroke="#9a32cd" points="354.315,-114.521 364.683,-112.339 355.218,-107.579 354.315,-114.521"/>
<text text-anchor="middle" x="297" y="-111" font-family="Helvetica,sans-Serif" font-size="10.00"> m_activeSubnodes</text>
</g>
<!-- Node2&#45;&gt;Node5 -->
<g id="edge9" class="edge"><title>Node2&#45;&gt;Node5</title>
<path fill="none" stroke="#9a32cd" stroke-dasharray="5,2" d="M480.61,-108.768C528.914,-95.5236 604.955,-74.6737 649.091,-62.5718"/>
<polygon fill="#9a32cd" stroke="#9a32cd" points="479.463,-105.453 470.744,-111.473 481.314,-112.204 479.463,-105.453"/>
<text text-anchor="middle" x="576" y="-98" font-family="Helvetica,sans-Serif" font-size="10.00"> m_intersectingLeafs</text>
</g>
<!-- Node3&#45;&gt;Node1 -->
<g id="edge4" class="edge"><title>Node3&#45;&gt;Node1</title>
<path fill="none" stroke="#9a32cd" stroke-dasharray="5,2" d="M392.346,-59.0154C355.437,-50.286 300.366,-41.9143 254,-54 236.737,-58.4997 219.174,-69.2898 207.753,-77.3141"/>
<polygon fill="#9a32cd" stroke="#9a32cd" points="391.704,-62.4622 402.253,-61.4704 393.388,-55.6677 391.704,-62.4622"/>
<text text-anchor="middle" x="297" y="-57" font-family="Helvetica,sans-Serif" font-size="10.00"> m_subnodes</text>
</g>
<!-- Node4 -->
<g id="node4" class="node"><title>Node4</title>
<polygon fill="white" stroke="#bfbfbf" points="810,-124.5 810,-143.5 956,-143.5 956,-124.5 810,-124.5"/>
<text text-anchor="middle" x="883" y="-131.5" font-family="Helvetica,sans-Serif" font-size="10.00">std::list&lt; WorldTreeGeode * &gt;</text>
</g>
<!-- Node4&#45;&gt;Node1 -->
<g id="edge6" class="edge"><title>Node4&#45;&gt;Node1</title>
<path fill="none" stroke="#9a32cd" stroke-dasharray="5,2" d="M799.671,-136.589C693.462,-139.787 502.978,-145.046 340,-147 301.781,-147.458 289.251,-161.775 254,-147 229.478,-136.722 210.003,-110.732 200.793,-96.5655"/>
<polygon fill="#9a32cd" stroke="#9a32cd" points="799.793,-140.087 809.683,-136.286 799.582,-133.09 799.793,-140.087"/>
<text text-anchor="middle" x="576" y="-157" font-family="Helvetica,sans-Serif" font-size="10.00"> m_passiveGeodes</text>
<text text-anchor="middle" x="576" y="-146" font-family="Helvetica,sans-Serif" font-size="10.00">m_normalGeodes</text>
</g>
<!-- Node5&#45;&gt;Node4 -->
<g id="edge7" class="edge"><title>Node5&#45;&gt;Node4</title>
<path fill="none" stroke="#9a32cd" stroke-dasharray="5,2" d="M718.726,-66.5245C758.331,-82.892 824.02,-110.039 858.777,-124.403"/>
<polygon fill="#9a32cd" stroke="#9a32cd" points="719.832,-63.1946 709.253,-62.6098 717.159,-69.6639 719.832,-63.1946"/>
<text text-anchor="middle" x="770" y="-98" font-family="Helvetica,sans-Serif" font-size="10.00"> elements</text>
</g>
<!-- Node6 -->
<g id="node6" class="node"><title>Node6</title>
<g id="a_node6"><a xlink:href="class_t_a_a_b_b.html" target="_top" xlink:title="TAABB\&lt; int \&gt;">
<polygon fill="white" stroke="red" points="0.5,-0.5 0.5,-19.5 77.5,-19.5 77.5,-0.5 0.5,-0.5"/>
<text text-anchor="middle" x="39" y="-7.5" font-family="Helvetica,sans-Serif" font-size="10.00">TAABB&lt; int &gt;</text>
</a>
</g>
</g>
<!-- Node6&#45;&gt;Node1 -->
<g id="edge11" class="edge"><title>Node6&#45;&gt;Node1</title>
<path fill="none" stroke="#9a32cd" stroke-dasharray="5,2" d="M68.3673,-24.2763C99.042,-39.714 147.106,-63.9029 173.691,-77.2826"/>
<polygon fill="#9a32cd" stroke="#9a32cd" points="69.5742,-20.9655 59.0682,-19.5964 66.4273,-27.2183 69.5742,-20.9655"/>
<text text-anchor="middle" x="115" y="-58" font-family="Helvetica,sans-Serif" font-size="10.00"> m_aabb</text>
</g>
<!-- Node6&#45;&gt;Node5 -->
<g id="edge10" class="edge"><title>Node6&#45;&gt;Node5</title>
<path fill="none" stroke="#9a32cd" stroke-dasharray="5,2" d="M88.1424,-9.42166C131.514,-8.93121 197.022,-8.26625 254,-8 368.687,-7.46409 397.435,-7.69113 512,-13 560.935,-15.2676 574.871,-6.63458 622,-20 639.597,-24.9902 657.858,-35.4622 669.964,-43.2787"/>
<polygon fill="#9a32cd" stroke="#9a32cd" points="87.842,-5.92477 77.8828,-9.53909 87.9222,-12.9243 87.842,-5.92477"/>
<text text-anchor="middle" x="297" y="-11" font-family="Helvetica,sans-Serif" font-size="10.00"> m_aabb</text>
</g>
</g>
</svg>
        <g id="navigator" transform="translate(0 0)" fill="#404254">
                <rect fill="#f2f5e9" fill-opacity="0.5" stroke="#606060" stroke-width=".5" x="0" y="0" width="60" height="60"/>
                <use id="zoomplus" xlink:href="#zoomPlus" x="17" y="9" onmousedown="handleZoom(evt,'in')"/>
                <use id="zoomminus" xlink:href="#zoomMin" x="42" y="9" onmousedown="handleZoom(evt,'out')"/>
                <use id="reset" xlink:href="#resetDef" x="30" y="36" onmousedown="handleReset()"/>
                <g id="arrowUp" xlink:href="#dirArrow" transform="translate(30 24)" onmousedown="handlePan(0,-1)">
                  <use xlink:href="#rim" fill="#404040">
                        <set attributeName="fill" to="#808080" begin="arrowUp.mouseover" end="arrowUp.mouseout"/>
                  </use>
                  <path fill="none" stroke="white" stroke-width="1.5" d="M0,-3.0v7 M-2.5,-0.5L0,-3.0L2.5,-0.5"/>
                </g>
                <g id="arrowRight" xlink:href="#dirArrow" transform="rotate(90) translate(36 -43)" onmousedown="handlePan(1,0)">
                  <use xlink:href="#rim" fill="#404040">
                        <set attributeName="fill" to="#808080" begin="arrowRight.mouseover" end="arrowRight.mouseout"/>
                  </use>
                  <path fill="none" stroke="white" stroke-width="1.5" d="M0,-3.0v7 M-2.5,-0.5L0,-3.0L2.5,-0.5"/>
                </g>
                <g id="arrowDown" xlink:href="#dirArrow" transform="rotate(180) translate(-30 -48)" onmousedown="handlePan(0,1)">
                  <use xlink:href="#rim" fill="#404040">
                        <set attributeName="fill" to="#808080" begin="arrowDown.mouseover" end="arrowDown.mouseout"/>
                  </use>
                  <path fill="none" stroke="white" stroke-width="1.5" d="M0,-3.0v7 M-2.5,-0.5L0,-3.0L2.5,-0.5"/>
                </g>
                <g id="arrowLeft" xlink:href="#dirArrow" transform="rotate(270) translate(-36 17)" onmousedown="handlePan(-1,0)">
                  <use xlink:href="#rim" fill="#404040">
                        <set attributeName="fill" to="#808080" begin="arrowLeft.mouseover" end="arrowLeft.mouseout"/>
                  </use>
                  <path fill="none" stroke="white" stroke-width="1.5" d="M0,-3.0v7 M-2.5,-0.5L0,-3.0L2.5,-0.5"/>
                </g>
        </g>
        <svg viewBox="0 0 15 15" width="100%" height="30px" preserveAspectRatio="xMaxYMin meet">
         <g id="arrow_out" transform="scale(0.3 0.3)">
          <a xlink:href="class_world_tree_node__coll__graph_org.svg" target="_base">
           <rect id="button" ry="5" rx="5" y="6" x="6" height="38" width="38"
                fill="#f2f5e9" fill-opacity="0.5" stroke="#606060" stroke-width="1.0"/>
           <path id="arrow"
             d="M 11.500037,31.436501 C 11.940474,20.09759 22.043105,11.32322 32.158766,21.979434 L 37.068811,17.246167 C 37.068811,17.246167 37.088388,32 37.088388,32 L 22.160133,31.978069 C 22.160133,31.978069 26.997745,27.140456 26.997745,27.140456 C 18.528582,18.264221 13.291696,25.230495 11.500037,31.436501 z"
             style="fill:#404040;"/>
          </a>
         </g>
        </svg>
</svg>
