<?xml version="1.0" encoding="UTF-8" standalone="no"?>
<!DOCTYPE svg PUBLIC "-//W3C//DTD SVG 1.1//EN"
 "http://www.w3.org/Graphics/SVG/1.1/DTD/svg11.dtd">
<!-- Generated by graphviz version 2.36.0 (20140111.2315)
 -->
<!-- Title: WorldObject Pages: 1 -->
<svg width="296pt" height="196pt"
 viewBox="0.00 0.00 296.00 196.00" xmlns="http://www.w3.org/2000/svg" xmlns:xlink="http://www.w3.org/1999/xlink">
<g id="graph0" class="graph" transform="scale(1 1) rotate(0) translate(4 192)">
<title>WorldObject</title>
<polygon fill="white" stroke="none" points="-4,4 -4,-192 292,-192 292,4 -4,4"/>
<!-- Node1 -->
<g id="node1" class="node"><title>Node1</title>
<polygon fill="#bfbfbf" stroke="black" points="147.5,-112.5 147.5,-131.5 218.5,-131.5 218.5,-112.5 147.5,-112.5"/>
<text text-anchor="middle" x="183" y="-119.5" font-family="Helvetica,sans-Serif" font-size="10.00">WorldObject</text>
</g>
<!-- Node4 -->
<g id="node4" class="node"><title>Node4</title>
<g id="a_node4"><a xlink:href="class_generic_world_object.html" target="_top" xlink:title="GenericWorldObject">
<polygon fill="white" stroke="black" points="0,-56.5 0,-75.5 104,-75.5 104,-56.5 0,-56.5"/>
<text text-anchor="middle" x="52" y="-63.5" font-family="Helvetica,sans-Serif" font-size="10.00">GenericWorldObject</text>
</a>
</g>
</g>
<!-- Node1&#45;&gt;Node4 -->
<g id="edge3" class="edge"><title>Node1&#45;&gt;Node4</title>
<path fill="none" stroke="midnightblue" d="M152.683,-108.503C128.124,-98.3795 94.182,-84.388 72.6602,-75.5164"/>
<polygon fill="midnightblue" stroke="midnightblue" points="151.663,-111.868 162.243,-112.444 154.331,-105.397 151.663,-111.868"/>
</g>
<!-- Node5 -->
<g id="node5" class="node"><title>Node5</title>
<g id="a_node5"><a xlink:href="class_projectile.html" target="_top" xlink:title="Projectile">
<polygon fill="white" stroke="black" points="122.5,-56.5 122.5,-75.5 179.5,-75.5 179.5,-56.5 122.5,-56.5"/>
<text text-anchor="middle" x="151" y="-63.5" font-family="Helvetica,sans-Serif" font-size="10.00">Projectile</text>
</a>
</g>
</g>
<!-- Node1&#45;&gt;Node5 -->
<g id="edge4" class="edge"><title>Node1&#45;&gt;Node5</title>
<path fill="none" stroke="midnightblue" d="M172.496,-103.275C167.027,-94.0454 160.582,-83.1703 156.186,-75.7511"/>
<polygon fill="midnightblue" stroke="midnightblue" points="169.607,-105.264 177.716,-112.083 175.629,-101.696 169.607,-105.264"/>
</g>
<!-- Node8 -->
<g id="node8" class="node"><title>Node8</title>
<g id="a_node8"><a xlink:href="class_ship.html" target="_top" xlink:title="Ship">
<polygon fill="white" stroke="black" points="198,-56.5 198,-75.5 234,-75.5 234,-56.5 198,-56.5"/>
<text text-anchor="middle" x="216" y="-63.5" font-family="Helvetica,sans-Serif" font-size="10.00">Ship</text>
</a>
</g>
</g>
<!-- Node1&#45;&gt;Node8 -->
<g id="edge7" class="edge"><title>Node1&#45;&gt;Node8</title>
<path fill="none" stroke="midnightblue" d="M193.832,-103.275C199.472,-94.0454 206.118,-83.1703 210.652,-75.7511"/>
<polygon fill="midnightblue" stroke="midnightblue" points="190.677,-101.725 188.449,-112.083 196.65,-105.375 190.677,-101.725"/>
</g>
<!-- Node10 -->
<g id="node10" class="node"><title>Node10</title>
<g id="a_node10"><a xlink:href="class_split.html" target="_top" xlink:title="Split">
<polygon fill="white" stroke="black" points="252,-56.5 252,-75.5 288,-75.5 288,-56.5 252,-56.5"/>
<text text-anchor="middle" x="270" y="-63.5" font-family="Helvetica,sans-Serif" font-size="10.00">Split</text>
</a>
</g>
</g>
<!-- Node1&#45;&gt;Node10 -->
<g id="edge9" class="edge"><title>Node1&#45;&gt;Node10</title>
<path fill="none" stroke="midnightblue" d="M205.716,-106.901C221.669,-96.9986 242.497,-84.0705 256.057,-75.6545"/>
<polygon fill="midnightblue" stroke="midnightblue" points="203.629,-104.077 196.978,-112.324 207.32,-110.024 203.629,-104.077"/>
</g>
<!-- Node2 -->
<g id="node2" class="node"><title>Node2</title>
<g id="a_node2"><a xlink:href="class_voxel_cluster.html" target="_top" xlink:title="VoxelCluster">
<polygon fill="white" stroke="black" points="105,-168.5 105,-187.5 177,-187.5 177,-168.5 105,-168.5"/>
<text text-anchor="middle" x="141" y="-175.5" font-family="Helvetica,sans-Serif" font-size="10.00">VoxelCluster</text>
</a>
</g>
</g>
<!-- Node2&#45;&gt;Node1 -->
<g id="edge1" class="edge"><title>Node2&#45;&gt;Node1</title>
<path fill="none" stroke="midnightblue" d="M154.11,-160.144C161.428,-150.736 170.241,-139.405 176.194,-131.751"/>
<polygon fill="midnightblue" stroke="midnightblue" points="151.312,-158.041 147.935,-168.083 156.838,-162.338 151.312,-158.041"/>
</g>
<!-- Node3 -->
<g id="node3" class="node"><title>Node3</title>
<g id="a_node3"><a xlink:href="class_scriptable.html" target="_top" xlink:title="Scriptable">
<polygon fill="white" stroke="black" points="195,-168.5 195,-187.5 255,-187.5 255,-168.5 195,-168.5"/>
<text text-anchor="middle" x="225" y="-175.5" font-family="Helvetica,sans-Serif" font-size="10.00">Scriptable</text>
</a>
</g>
</g>
<!-- Node3&#45;&gt;Node1 -->
<g id="edge2" class="edge"><title>Node3&#45;&gt;Node1</title>
<path fill="none" stroke="midnightblue" d="M211.89,-160.144C204.572,-150.736 195.759,-139.405 189.806,-131.751"/>
<polygon fill="midnightblue" stroke="midnightblue" points="209.162,-162.338 218.065,-168.083 214.688,-158.041 209.162,-162.338"/>
</g>
<!-- Node6 -->
<g id="node6" class="node"><title>Node6</title>
<g id="a_node6"><a xlink:href="class_bullet.html" target="_top" xlink:title="Bullet">
<polygon fill="white" stroke="red" points="68.5,-0.5 68.5,-19.5 109.5,-19.5 109.5,-0.5 68.5,-0.5"/>
<text text-anchor="middle" x="89" y="-7.5" font-family="Helvetica,sans-Serif" font-size="10.00">Bullet</text>
</a>
</g>
</g>
<!-- Node5&#45;&gt;Node6 -->
<g id="edge5" class="edge"><title>Node5&#45;&gt;Node6</title>
<path fill="none" stroke="midnightblue" d="M133.246,-49.5372C122.192,-39.9087 108.369,-27.8694 99.1426,-19.8339"/>
<polygon fill="midnightblue" stroke="midnightblue" points="131.199,-52.3954 141.039,-56.324 135.797,-47.1168 131.199,-52.3954"/>
</g>
<!-- Node7 -->
<g id="node7" class="node"><title>Node7</title>
<g id="a_node7"><a xlink:href="class_rocket.html" target="_top" xlink:title="Rocket">
<polygon fill="white" stroke="red" points="127.5,-0.5 127.5,-19.5 174.5,-19.5 174.5,-0.5 127.5,-0.5"/>
<text text-anchor="middle" x="151" y="-7.5" font-family="Helvetica,sans-Serif" font-size="10.00">Rocket</text>
</a>
</g>
</g>
<!-- Node5&#45;&gt;Node7 -->
<g id="edge6" class="edge"><title>Node5&#45;&gt;Node7</title>
<path fill="none" stroke="midnightblue" d="M151,-45.8045C151,-36.9102 151,-26.7798 151,-19.7511"/>
<polygon fill="midnightblue" stroke="midnightblue" points="147.5,-46.083 151,-56.083 154.5,-46.083 147.5,-46.083"/>
</g>
<!-- Node9 -->
<g id="node9" class="node"><title>Node9</title>
<g id="a_node9"><a xlink:href="class_generic_ship.html" target="_top" xlink:title="GenericShip">
<polygon fill="white" stroke="black" points="193,-0.5 193,-19.5 263,-19.5 263,-0.5 193,-0.5"/>
<text text-anchor="middle" x="228" y="-7.5" font-family="Helvetica,sans-Serif" font-size="10.00">GenericShip</text>
</a>
</g>
</g>
<!-- Node8&#45;&gt;Node9 -->
<g id="edge8" class="edge"><title>Node8&#45;&gt;Node9</title>
<path fill="none" stroke="midnightblue" d="M220.2,-46.1005C222.192,-37.1357 224.476,-26.8579 226.055,-19.7511"/>
<polygon fill="midnightblue" stroke="midnightblue" points="216.734,-45.5618 217.982,-56.083 223.568,-47.0804 216.734,-45.5618"/>
</g>
</g>
</svg>
