<?xml version="1.0" encoding="UTF-8" standalone="no"?>
<!DOCTYPE svg PUBLIC "-//W3C//DTD SVG 1.1//EN"
 "http://www.w3.org/Graphics/SVG/1.1/DTD/svg11.dtd">
<!-- Generated by graphviz version 2.36.0 (20140111.2315)
 -->
<!-- Title: Aimer Pages: 1 -->
<svg width="884pt" height="388pt"
 viewBox="0.00 0.00 884.00 388.00" xmlns="http://www.w3.org/2000/svg" xmlns:xlink="http://www.w3.org/1999/xlink">
<g id="graph0" class="graph" transform="scale(1 1) rotate(0) translate(4 384)">
<title>Aimer</title>
<polygon fill="white" stroke="none" points="-4,4 -4,-384 880,-384 880,4 -4,4"/>
<!-- Node1 -->
<g id="node1" class="node"><title>Node1</title>
<polygon fill="#bfbfbf" stroke="black" points="834,-43.5 834,-62.5 876,-62.5 876,-43.5 834,-43.5"/>
<text text-anchor="middle" x="855" y="-50.5" font-family="Helvetica,sans-Serif" font-size="10.00">Aimer</text>
</g>
<!-- Node2 -->
<g id="node2" class="node"><title>Node2</title>
<g id="a_node2"><a xlink:href="class_property.html" target="_top" xlink:title="Property\&lt; float \&gt;">
<polygon fill="white" stroke="black" points="180.5,-0.5 180.5,-19.5 269.5,-19.5 269.5,-0.5 180.5,-0.5"/>
<text text-anchor="middle" x="225" y="-7.5" font-family="Helvetica,sans-Serif" font-size="10.00">Property&lt; float &gt;</text>
</a>
</g>
</g>
<!-- Node2&#45;&gt;Node1 -->
<g id="edge1" class="edge"><title>Node2&#45;&gt;Node1</title>
<path fill="none" stroke="#9a32cd" stroke-dasharray="5,2" d="M279.851,-7.3526C358.992,-4.14937 511.273,-0.602203 640,-13 712.046,-19.9389 796.053,-38.8795 833.812,-47.9833"/>
<polygon fill="#9a32cd" stroke="#9a32cd" points="279.487,-3.86469 269.642,-7.7805 279.78,-10.8586 279.487,-3.86469"/>
<text text-anchor="middle" x="586" y="-27" font-family="Helvetica,sans-Serif" font-size="10.00"> m_infityAimInterpolation</text>
<text text-anchor="middle" x="586" y="-16" font-family="Helvetica,sans-Serif" font-size="10.00">m_infityAimDistance</text>
</g>
<!-- Node7 -->
<g id="node7" class="node"><title>Node7</title>
<g id="a_node7"><a xlink:href="class_voxel.html" target="_top" xlink:title="Voxel">
<polygon fill="white" stroke="red" points="421.5,-360.5 421.5,-379.5 462.5,-379.5 462.5,-360.5 421.5,-360.5"/>
<text text-anchor="middle" x="442" y="-367.5" font-family="Helvetica,sans-Serif" font-size="10.00">Voxel</text>
</a>
</g>
</g>
<!-- Node2&#45;&gt;Node7 -->
<g id="edge7" class="edge"><title>Node2&#45;&gt;Node7</title>
<path fill="none" stroke="#9a32cd" stroke-dasharray="5,2" d="M228.311,-29.7039C236.241,-88.147 267.763,-261.989 370,-351 384.243,-363.401 405.748,-367.813 421.358,-369.33"/>
<polygon fill="#9a32cd" stroke="#9a32cd" points="231.762,-29.0908 227.026,-19.6132 224.818,-29.9753 231.762,-29.0908"/>
<text text-anchor="middle" x="320" y="-344" font-family="Helvetica,sans-Serif" font-size="10.00"> s_defaultHp</text>
<text text-anchor="middle" x="320" y="-333" font-family="Helvetica,sans-Serif" font-size="10.00">s_defaultMass</text>
</g>
<!-- Node3 -->
<g id="node3" class="node"><title>Node3</title>
<g id="a_node3"><a xlink:href="class_property_impl.html" target="_top" xlink:title="PropertyImpl\&lt; float \&gt;">
<polygon fill="white" stroke="red" points="0.5,-0.5 0.5,-19.5 107.5,-19.5 107.5,-0.5 0.5,-0.5"/>
<text text-anchor="middle" x="54" y="-7.5" font-family="Helvetica,sans-Serif" font-size="10.00">PropertyImpl&lt; float &gt;</text>
</a>
</g>
</g>
<!-- Node3&#45;&gt;Node2 -->
<g id="edge2" class="edge"><title>Node3&#45;&gt;Node2</title>
<path fill="none" stroke="#9a32cd" stroke-dasharray="5,2" d="M117.6,-10C138.442,-10 161.193,-10 180.288,-10"/>
<polygon fill="#9a32cd" stroke="#9a32cd" points="117.546,-6.5001 107.546,-10 117.546,-13.5001 117.546,-6.5001"/>
<text text-anchor="middle" x="144" y="-13" font-family="Helvetica,sans-Serif" font-size="10.00"> m_impl</text>
</g>
<!-- Node4 -->
<g id="node4" class="node"><title>Node4</title>
<g id="a_node4"><a xlink:href="class_world_object.html" target="_top" xlink:title="WorldObject">
<polygon fill="white" stroke="black" points="658.5,-189.5 658.5,-208.5 729.5,-208.5 729.5,-189.5 658.5,-189.5"/>
<text text-anchor="middle" x="694" y="-196.5" font-family="Helvetica,sans-Serif" font-size="10.00">WorldObject</text>
</a>
</g>
</g>
<!-- Node4&#45;&gt;Node1 -->
<g id="edge3" class="edge"><title>Node4&#45;&gt;Node1</title>
<path fill="none" stroke="#9a32cd" stroke-dasharray="5,2" d="M713.06,-182.416C746.379,-151.821 816.556,-87.3824 843.321,-62.8062"/>
<polygon fill="#9a32cd" stroke="#9a32cd" points="710.431,-180.079 705.432,-189.421 715.165,-185.235 710.431,-180.079"/>
<text text-anchor="middle" x="782" y="-151" font-family="Helvetica,sans-Serif" font-size="10.00"> m_worldObject</text>
</g>
<!-- Node5 -->
<g id="node5" class="node"><title>Node5</title>
<g id="a_node5"><a xlink:href="class_voxel_cluster.html" target="_top" xlink:title="VoxelCluster">
<polygon fill="white" stroke="red" points="406,-322.5 406,-341.5 478,-341.5 478,-322.5 406,-322.5"/>
<text text-anchor="middle" x="442" y="-329.5" font-family="Helvetica,sans-Serif" font-size="10.00">VoxelCluster</text>
</a>
</g>
</g>
<!-- Node5&#45;&gt;Node4 -->
<g id="edge4" class="edge"><title>Node5&#45;&gt;Node4</title>
<path fill="none" stroke="midnightblue" d="M488.299,-333.733C531.217,-333.128 595.546,-326.156 640,-294 669.993,-272.305 685.127,-228.143 690.573,-208.634"/>
<polygon fill="midnightblue" stroke="midnightblue" points="488.132,-330.233 478.143,-333.763 488.153,-337.233 488.132,-330.233"/>
</g>
<!-- Node6 -->
<g id="node6" class="node"><title>Node6</title>
<g id="a_node6"><a xlink:href="class_scriptable.html" target="_top" xlink:title="Scriptable">
<polygon fill="white" stroke="black" points="412,-284.5 412,-303.5 472,-303.5 472,-284.5 412,-284.5"/>
<text text-anchor="middle" x="442" y="-291.5" font-family="Helvetica,sans-Serif" font-size="10.00">Scriptable</text>
</a>
</g>
</g>
<!-- Node6&#45;&gt;Node4 -->
<g id="edge5" class="edge"><title>Node6&#45;&gt;Node4</title>
<path fill="none" stroke="midnightblue" d="M482.233,-296.067C524.04,-296.517 590.843,-292.076 640,-264 663.011,-250.857 680.091,-223.549 688.043,-208.859"/>
<polygon fill="midnightblue" stroke="midnightblue" points="482.239,-292.566 472.169,-295.858 482.094,-299.565 482.239,-292.566"/>
</g>
<!-- Node7&#45;&gt;Node4 -->
<g id="edge6" class="edge"><title>Node7&#45;&gt;Node4</title>
<path fill="none" stroke="#9a32cd" stroke-dasharray="5,2" d="M472.751,-371.39C514.83,-371.748 591.945,-366.279 640,-326 677.353,-294.691 688.83,-232.635 691.952,-208.716"/>
<polygon fill="#9a32cd" stroke="#9a32cd" points="472.67,-367.887 462.601,-371.183 472.528,-374.886 472.67,-367.887"/>
<text text-anchor="middle" x="586" y="-370" font-family="Helvetica,sans-Serif" font-size="10.00"> m_crucialVoxel</text>
</g>
<!-- Node8 -->
<g id="node8" class="node"><title>Node8</title>
<polygon fill="white" stroke="#bfbfbf" points="370.5,-246.5 370.5,-265.5 513.5,-265.5 513.5,-246.5 370.5,-246.5"/>
<text text-anchor="middle" x="442" y="-253.5" font-family="Helvetica,sans-Serif" font-size="10.00">std::unique_ptr&lt; ObjectInfo &gt;</text>
</g>
<!-- Node8&#45;&gt;Node4 -->
<g id="edge8" class="edge"><title>Node8&#45;&gt;Node4</title>
<path fill="none" stroke="#9a32cd" stroke-dasharray="5,2" d="M523.568,-249.618C559.779,-245.26 602.671,-238.005 640,-226 653.173,-221.764 667.077,-214.565 677.337,-208.665"/>
<polygon fill="#9a32cd" stroke="#9a32cd" points="523.077,-246.152 513.542,-250.772 523.877,-253.106 523.077,-246.152"/>
<text text-anchor="middle" x="586" y="-252" font-family="Helvetica,sans-Serif" font-size="10.00"> m_objectInfo</text>
</g>
<!-- Node9 -->
<g id="node9" class="node"><title>Node9</title>
<g id="a_node9"><a xlink:href="class_handle.html" target="_top" xlink:title="Handle\&lt; WorldObject \&gt;">
<polygon fill="white" stroke="black" points="382.5,-208.5 382.5,-227.5 501.5,-227.5 501.5,-208.5 382.5,-208.5"/>
<text text-anchor="middle" x="442" y="-215.5" font-family="Helvetica,sans-Serif" font-size="10.00">Handle&lt; WorldObject &gt;</text>
</a>
</g>
</g>
<!-- Node9&#45;&gt;Node4 -->
<g id="edge9" class="edge"><title>Node9&#45;&gt;Node4</title>
<path fill="none" stroke="#9a32cd" stroke-dasharray="5,2" d="M511.838,-212.768C559.356,-209.157 620.543,-204.507 658.254,-201.641"/>
<polygon fill="#9a32cd" stroke="#9a32cd" points="511.32,-209.298 501.614,-213.545 511.85,-216.277 511.32,-209.298"/>
<text text-anchor="middle" x="586" y="-214" font-family="Helvetica,sans-Serif" font-size="10.00"> m_handle</text>
</g>
<!-- Node10 -->
<g id="node10" class="node"><title>Node10</title>
<polygon fill="white" stroke="#bfbfbf" points="375,-170.5 375,-189.5 509,-189.5 509,-170.5 375,-170.5"/>
<text text-anchor="middle" x="442" y="-177.5" font-family="Helvetica,sans-Serif" font-size="10.00">std::unique_ptr&lt; Physics &gt;</text>
</g>
<!-- Node10&#45;&gt;Node4 -->
<g id="edge10" class="edge"><title>Node10&#45;&gt;Node4</title>
<path fill="none" stroke="#9a32cd" stroke-dasharray="5,2" d="M519.406,-180.989C555.992,-182.1 600.368,-184.379 640,-189 645.952,-189.694 652.241,-190.666 658.326,-191.734"/>
<polygon fill="#9a32cd" stroke="#9a32cd" points="519.398,-177.487 509.304,-180.705 519.202,-184.484 519.398,-177.487"/>
<text text-anchor="middle" x="586" y="-192" font-family="Helvetica,sans-Serif" font-size="10.00"> m_physics</text>
</g>
<!-- Node11 -->
<g id="node11" class="node"><title>Node11</title>
<polygon fill="white" stroke="#bfbfbf" points="378.5,-121 378.5,-151 505.5,-151 505.5,-121 378.5,-121"/>
<text text-anchor="start" x="386.5" y="-139" font-family="Helvetica,sans-Serif" font-size="10.00">std::unique_ptr&lt; Collision</text>
<text text-anchor="middle" x="442" y="-128" font-family="Helvetica,sans-Serif" font-size="10.00">Filter &gt;</text>
</g>
<!-- Node11&#45;&gt;Node4 -->
<g id="edge11" class="edge"><title>Node11&#45;&gt;Node4</title>
<path fill="none" stroke="#9a32cd" stroke-dasharray="5,2" d="M515.719,-140.687C553.647,-144.801 600.287,-152.52 640,-167 654.743,-172.376 669.909,-182.028 680.219,-189.33"/>
<polygon fill="#9a32cd" stroke="#9a32cd" points="516.075,-137.205 505.771,-139.668 515.362,-144.169 516.075,-137.205"/>
<text text-anchor="middle" x="586" y="-170" font-family="Helvetica,sans-Serif" font-size="10.00"> m_collisionFilter</text>
</g>
<!-- Node12 -->
<g id="node12" class="node"><title>Node12</title>
<polygon fill="white" stroke="#bfbfbf" points="378.5,-72 378.5,-102 505.5,-102 505.5,-72 378.5,-72"/>
<text text-anchor="start" x="386.5" y="-90" font-family="Helvetica,sans-Serif" font-size="10.00">std::unique_ptr&lt; Collision</text>
<text text-anchor="middle" x="442" y="-79" font-family="Helvetica,sans-Serif" font-size="10.00">Detector &gt;</text>
</g>
<!-- Node12&#45;&gt;Node4 -->
<g id="edge12" class="edge"><title>Node12&#45;&gt;Node4</title>
<path fill="none" stroke="#9a32cd" stroke-dasharray="5,2" d="M515.93,-89.7734C555.259,-94.1889 603.142,-104.512 640,-128 664.128,-143.376 681.173,-173.889 688.691,-189.426"/>
<polygon fill="#9a32cd" stroke="#9a32cd" points="516.17,-86.2798 505.867,-88.7498 515.461,-93.2438 516.17,-86.2798"/>
<text text-anchor="middle" x="586" y="-131" font-family="Helvetica,sans-Serif" font-size="10.00"> m_collisionDetector</text>
</g>
<!-- Node13 -->
<g id="node13" class="node"><title>Node13</title>
<polygon fill="white" stroke="#bfbfbf" points="370,-23 370,-53 514,-53 514,-23 370,-23"/>
<text text-anchor="start" x="378" y="-41" font-family="Helvetica,sans-Serif" font-size="10.00">std::unique_ptr&lt; WorldObject</text>
<text text-anchor="middle" x="442" y="-30" font-family="Helvetica,sans-Serif" font-size="10.00">Components &gt;</text>
</g>
<!-- Node13&#45;&gt;Node4 -->
<g id="edge13" class="edge"><title>Node13&#45;&gt;Node4</title>
<path fill="none" stroke="#9a32cd" stroke-dasharray="5,2" d="M524.227,-37.705C562.938,-41.4583 607.718,-51.941 640,-78 676.226,-107.243 688.326,-166.193 691.784,-189.349"/>
<polygon fill="#9a32cd" stroke="#9a32cd" points="524.264,-34.1961 514.008,-36.8537 523.683,-41.1719 524.264,-34.1961"/>
<text text-anchor="middle" x="586" y="-81" font-family="Helvetica,sans-Serif" font-size="10.00"> m_components</text>
</g>
</g>
</svg>
