<?xml version="1.0" encoding="UTF-8" standalone="no"?>
<!DOCTYPE svg PUBLIC "-//W3C//DTD SVG 1.1//EN"
 "http://www.w3.org/Graphics/SVG/1.1/DTD/svg11.dtd">
<!-- Generated by graphviz version 2.36.0 (20140111.2315)
 -->
<!-- Title: Voxel Pages: 1 -->
<!--zoomable 199 -->
<svg id="main" version="1.1" xmlns="http://www.w3.org/2000/svg" xmlns:xlink="http://www.w3.org/1999/xlink" xml:space="preserve" onload="init(evt)">
<style type="text/css"><![CDATA[
.edge:hover path { stroke: red; }
.edge:hover polygon { stroke: red; fill: red; }
]]></style>
<script type="text/javascript"><![CDATA[
var edges = document.getElementsByTagName('g');
if (edges && edges.length) {
  for (var i=0;i<edges.length;i++) {
    if (edges[i].id.substr(0,4)=='edge') {
      edges[i].setAttribute('class','edge');
    }
  }
}
]]></script>
        <defs>
                <circle id="rim" cx="0" cy="0" r="7"/>
                <circle id="rim2" cx="0" cy="0" r="3.5"/>
                <g id="zoomPlus">
                        <use xlink:href="#rim" fill="#404040">
                                <set attributeName="fill" to="#808080" begin="zoomplus.mouseover" end="zoomplus.mouseout"/>
                        </use>
                        <path d="M-4,0h8M0,-4v8" fill="none" stroke="white" stroke-width="1.5" pointer-events="none"/>
                </g>
                <g id="zoomMin">
                        <use xlink:href="#rim" fill="#404040">
                                <set attributeName="fill" to="#808080" begin="zoomminus.mouseover" end="zoomminus.mouseout"/>
                        </use>
                        <path d="M-4,0h8" fill="none" stroke="white" stroke-width="1.5" pointer-events="none"/>
                </g>
                <g id="dirArrow">
                        <path fill="none" stroke="white" stroke-width="1.5" d="M0,-3.0v7 M-2.5,-0.5L0,-3.0L2.5,-0.5"/>
                </g>
               <g id="resetDef">
                       <use xlink:href="#rim2" fill="#404040">
                               <set attributeName="fill" to="#808080" begin="reset.mouseover" end="reset.mouseout"/>
                       </use>
               </g>
        </defs>

<script type="text/javascript">
var viewWidth = 956;
var viewHeight = 199;
var sectionId = 'dynsection-1';
</script>
<script xlink:href="svgpan.js"/>
<svg id="graph" class="graph">
<g id="viewport">
<title>Voxel</title>
<polygon fill="white" stroke="none" points="-4,4 -4,-194.666 952,-194.666 952,4 -4,4"/>
<!-- Node1 -->
<g id="node1" class="node"><title>Node1</title>
<polygon fill="#bfbfbf" stroke="black" points="380.5,-32.166 380.5,-51.166 421.5,-51.166 421.5,-32.166 380.5,-32.166"/>
<text text-anchor="middle" x="401" y="-39.166" font-family="Helvetica,sans-Serif" font-size="10.00">Voxel</text>
</g>
<!-- Node5 -->
<g id="node5" class="node"><title>Node5</title>
<g id="a_node5"><a xlink:href="class_voxel_tree_node.html" target="_top" xlink:title="VoxelTreeNode">
<polygon fill="white" stroke="black" points="590.5,-87.166 590.5,-106.166 673.5,-106.166 673.5,-87.166 590.5,-87.166"/>
<text text-anchor="middle" x="632" y="-94.166" font-family="Helvetica,sans-Serif" font-size="10.00">VoxelTreeNode</text>
</a>
</g>
</g>
<!-- Node1&#45;&gt;Node5 -->
<g id="edge5" class="edge"><title>Node1&#45;&gt;Node5</title>
<path fill="none" stroke="#9a32cd" stroke-dasharray="5,2" d="M431.929,-47.7825C465.989,-54.876 523.22,-67.1987 572,-79.666 580.882,-81.936 590.455,-84.5994 599.252,-87.1356"/>
<polygon fill="#9a32cd" stroke="#9a32cd" points="432.227,-44.2699 421.725,-45.6696 430.807,-51.1245 432.227,-44.2699"/>
<text text-anchor="middle" x="511" y="-82.666" font-family="Helvetica,sans-Serif" font-size="10.00"> m_voxel</text>
</g>
<!-- Node2 -->
<g id="node2" class="node"><title>Node2</title>
<g id="a_node2"><a xlink:href="class_visuals.html" target="_top" xlink:title="Visuals">
<polygon fill="white" stroke="black" points="200.5,-55.166 200.5,-74.166 249.5,-74.166 249.5,-55.166 200.5,-55.166"/>
<text text-anchor="middle" x="225" y="-62.166" font-family="Helvetica,sans-Serif" font-size="10.00">Visuals</text>
</a>
</g>
</g>
<!-- Node2&#45;&gt;Node1 -->
<g id="edge1" class="edge"><title>Node2&#45;&gt;Node1</title>
<path fill="none" stroke="#9a32cd" stroke-dasharray="5,2" d="M259.847,-60.1919C295.76,-55.4448 351.264,-48.108 380.481,-44.246"/>
<polygon fill="#9a32cd" stroke="#9a32cd" points="259.284,-56.7358 249.829,-61.5161 260.202,-63.6754 259.284,-56.7358"/>
<text text-anchor="middle" x="320" y="-58.666" font-family="Helvetica,sans-Serif" font-size="10.00"> m_visuals</text>
</g>
<!-- Node3 -->
<g id="node3" class="node"><title>Node3</title>
<g id="a_node3"><a xlink:href="class_property.html" target="_top" xlink:title="Property\&lt; float \&gt;">
<polygon fill="white" stroke="black" points="180.5,-10.166 180.5,-29.166 269.5,-29.166 269.5,-10.166 180.5,-10.166"/>
<text text-anchor="middle" x="225" y="-17.166" font-family="Helvetica,sans-Serif" font-size="10.00">Property&lt; float &gt;</text>
</a>
</g>
</g>
<!-- Node3&#45;&gt;Node1 -->
<g id="edge2" class="edge"><title>Node3&#45;&gt;Node1</title>
<path fill="none" stroke="#9a32cd" stroke-dasharray="5,2" d="M279.692,-15.3599C302.248,-14.7671 328.623,-15.6792 352,-20.666 362.675,-22.9432 373.889,-27.6998 382.791,-32.1109"/>
<polygon fill="#9a32cd" stroke="#9a32cd" points="279.487,-11.865 269.622,-15.7289 279.744,-18.8603 279.487,-11.865"/>
<text text-anchor="middle" x="320" y="-34.666" font-family="Helvetica,sans-Serif" font-size="10.00"> s_defaultHp</text>
<text text-anchor="middle" x="320" y="-23.666" font-family="Helvetica,sans-Serif" font-size="10.00">s_defaultMass</text>
</g>
<!-- Node4 -->
<g id="node4" class="node"><title>Node4</title>
<g id="a_node4"><a xlink:href="class_property_impl.html" target="_top" xlink:title="PropertyImpl\&lt; float \&gt;">
<polygon fill="white" stroke="red" points="0.5,-10.166 0.5,-29.166 107.5,-29.166 107.5,-10.166 0.5,-10.166"/>
<text text-anchor="middle" x="54" y="-17.166" font-family="Helvetica,sans-Serif" font-size="10.00">PropertyImpl&lt; float &gt;</text>
</a>
</g>
</g>
<!-- Node4&#45;&gt;Node3 -->
<g id="edge3" class="edge"><title>Node4&#45;&gt;Node3</title>
<path fill="none" stroke="#9a32cd" stroke-dasharray="5,2" d="M117.6,-19.666C138.442,-19.666 161.193,-19.666 180.288,-19.666"/>
<polygon fill="#9a32cd" stroke="#9a32cd" points="117.546,-16.1661 107.546,-19.666 117.546,-23.1661 117.546,-16.1661"/>
<text text-anchor="middle" x="144" y="-22.666" font-family="Helvetica,sans-Serif" font-size="10.00"> m_impl</text>
</g>
<!-- Node5&#45;&gt;Node1 -->
<g id="edge4" class="edge"><title>Node5&#45;&gt;Node1</title>
<path fill="none" stroke="#9a32cd" stroke-dasharray="5,2" d="M621.012,-78.3794C611.01,-62.1739 593.961,-39.5892 572,-29.666 521.715,-6.94398 454.472,-23.6975 421.667,-34.4688"/>
<polygon fill="#9a32cd" stroke="#9a32cd" points="618.005,-80.1705 626.071,-87.0398 624.049,-76.6397 618.005,-80.1705"/>
<text text-anchor="middle" x="511" y="-32.666" font-family="Helvetica,sans-Serif" font-size="10.00"> m_voxelTreeNode</text>
</g>
<!-- Node5&#45;&gt;Node5 -->
<g id="edge13" class="edge"><title>Node5&#45;&gt;Node5</title>
<path fill="none" stroke="#9a32cd" stroke-dasharray="5,2" d="M613.112,-116.066C614.373,-120.981 620.669,-124.666 632,-124.666 650.129,-124.666 655.369,-115.231 647.721,-106.423"/>
<polygon fill="#9a32cd" stroke="#9a32cd" points="616.484,-117.016 616.279,-106.423 609.833,-114.832 616.484,-117.016"/>
<text text-anchor="middle" x="632" y="-127.666" font-family="Helvetica,sans-Serif" font-size="10.00"> m_parent</text>
</g>
<!-- Node6 -->
<g id="node6" class="node"><title>Node6</title>
<g id="a_node6"><a xlink:href="class_voxel_tree.html" target="_top" xlink:title="VoxelTree">
<polygon fill="white" stroke="red" points="842,-155.166 842,-174.166 902,-174.166 902,-155.166 842,-155.166"/>
<text text-anchor="middle" x="872" y="-162.166" font-family="Helvetica,sans-Serif" font-size="10.00">VoxelTree</text>
</a>
</g>
</g>
<!-- Node5&#45;&gt;Node6 -->
<g id="edge7" class="edge"><title>Node5&#45;&gt;Node6</title>
<path fill="none" stroke="#9a32cd" stroke-dasharray="5,2" d="M646.61,-114.673C657.387,-127.435 673.646,-143.658 692,-151.666 741.12,-173.098 805.039,-171.599 841.696,-168.308"/>
<polygon fill="#9a32cd" stroke="#9a32cd" points="649.06,-112.135 640.066,-106.535 643.605,-116.521 649.06,-112.135"/>
<text text-anchor="middle" x="735" y="-182.666" font-family="Helvetica,sans-Serif" font-size="10.00"> m_currentRoot</text>
<text text-anchor="middle" x="735" y="-171.666" font-family="Helvetica,sans-Serif" font-size="10.00">m_shadowRoot</text>
</g>
<!-- Node8 -->
<g id="node8" class="node"><title>Node8</title>
<polygon fill="white" stroke="#bfbfbf" points="796,-79.166 796,-98.166 948,-98.166 948,-79.166 796,-79.166"/>
<text text-anchor="middle" x="872" y="-86.166" font-family="Helvetica,sans-Serif" font-size="10.00">std::vector&lt; VoxelTreeNode * &gt;</text>
</g>
<!-- Node5&#45;&gt;Node8 -->
<g id="edge10" class="edge"><title>Node5&#45;&gt;Node8</title>
<path fill="none" stroke="#9a32cd" stroke-dasharray="5,2" d="M683.849,-94.9567C716.465,-93.8604 759.383,-92.4178 795.892,-91.1906"/>
<polygon fill="#9a32cd" stroke="#9a32cd" points="683.52,-91.4657 673.643,-95.2998 683.755,-98.4618 683.52,-91.4657"/>
<text text-anchor="middle" x="735" y="-96.666" font-family="Helvetica,sans-Serif" font-size="10.00"> elements</text>
</g>
<!-- Node11 -->
<g id="node11" class="node"><title>Node11</title>
<polygon fill="white" stroke="#bfbfbf" points="802,-26.166 802,-45.166 942,-45.166 942,-26.166 802,-26.166"/>
<text text-anchor="middle" x="872" y="-33.166" font-family="Helvetica,sans-Serif" font-size="10.00">std::list&lt; VoxelTreeNode * &gt;</text>
</g>
<!-- Node5&#45;&gt;Node11 -->
<g id="edge15" class="edge"><title>Node5&#45;&gt;Node11</title>
<path fill="none" stroke="#9a32cd" stroke-dasharray="5,2" d="M654.194,-81.3374C665.007,-74.2519 678.666,-66.3802 692,-61.666 727.084,-49.2622 768.042,-42.7706 801.918,-39.3756"/>
<polygon fill="#9a32cd" stroke="#9a32cd" points="652.147,-78.4971 645.85,-87.0178 656.086,-84.2836 652.147,-78.4971"/>
<text text-anchor="middle" x="735" y="-64.666" font-family="Helvetica,sans-Serif" font-size="10.00"> elements</text>
</g>
<!-- Node6&#45;&gt;Node5 -->
<g id="edge6" class="edge"><title>Node6&#45;&gt;Node5</title>
<path fill="none" stroke="#9a32cd" stroke-dasharray="5,2" d="M832.354,-153.624C786.256,-140.453 709.966,-118.656 666.343,-106.193"/>
<polygon fill="#9a32cd" stroke="#9a32cd" points="831.412,-156.995 841.989,-156.377 833.335,-150.264 831.412,-156.995"/>
<text text-anchor="middle" x="735" y="-139.666" font-family="Helvetica,sans-Serif" font-size="10.00"> m_voxelTree</text>
</g>
<!-- Node7 -->
<g id="node7" class="node"><title>Node7</title>
<g id="a_node7"><a xlink:href="class_grid_a_a_b_b.html" target="_top" xlink:title="GridAABB">
<polygon fill="white" stroke="black" points="370,-161.166 370,-180.166 432,-180.166 432,-161.166 370,-161.166"/>
<text text-anchor="middle" x="401" y="-168.166" font-family="Helvetica,sans-Serif" font-size="10.00">GridAABB</text>
</a>
</g>
</g>
<!-- Node7&#45;&gt;Node5 -->
<g id="edge8" class="edge"><title>Node7&#45;&gt;Node5</title>
<path fill="none" stroke="#9a32cd" stroke-dasharray="5,2" d="M442.578,-169.598C478.058,-167.376 530.284,-160.933 572,-142.666 591.75,-134.018 610.695,-117.244 621.574,-106.518"/>
<polygon fill="#9a32cd" stroke="#9a32cd" points="441.933,-166.127 432.135,-170.16 442.309,-173.117 441.933,-166.127"/>
<text text-anchor="middle" x="511" y="-171.666" font-family="Helvetica,sans-Serif" font-size="10.00"> m_gridAABB</text>
</g>
<!-- Node8&#45;&gt;Node5 -->
<g id="edge9" class="edge"><title>Node8&#45;&gt;Node5</title>
<path fill="none" stroke="#9a32cd" stroke-dasharray="5,2" d="M785.505,-78.7084C755.803,-76.8722 722.341,-76.6249 692,-80.666 682.111,-81.983 671.53,-84.4901 662.097,-87.1357"/>
<polygon fill="#9a32cd" stroke="#9a32cd" points="785.626,-82.2249 795.842,-79.4197 786.106,-75.2414 785.626,-82.2249"/>
<text text-anchor="middle" x="735" y="-83.666" font-family="Helvetica,sans-Serif" font-size="10.00"> m_subnodes</text>
</g>
<!-- Node9 -->
<g id="node9" class="node"><title>Node9</title>
<g id="a_node9"><a xlink:href="class_transform.html" target="_top" xlink:title="Transform">
<polygon fill="white" stroke="black" points="371.5,-123.166 371.5,-142.166 430.5,-142.166 430.5,-123.166 371.5,-123.166"/>
<text text-anchor="middle" x="401" y="-130.166" font-family="Helvetica,sans-Serif" font-size="10.00">Transform</text>
</a>
</g>
</g>
<!-- Node9&#45;&gt;Node5 -->
<g id="edge11" class="edge"><title>Node9&#45;&gt;Node5</title>
<path fill="none" stroke="#9a32cd" stroke-dasharray="5,2" d="M440.864,-128.803C475.437,-125.09 527.297,-118.839 572,-110.666 578.938,-109.397 586.286,-107.834 593.354,-106.217"/>
<polygon fill="#9a32cd" stroke="#9a32cd" points="440.294,-125.344 430.716,-129.873 441.028,-132.305 440.294,-125.344"/>
<text text-anchor="middle" x="511" y="-130.666" font-family="Helvetica,sans-Serif" font-size="10.00"> m_cachedSphereTransform</text>
</g>
<!-- Node10 -->
<g id="node10" class="node"><title>Node10</title>
<g id="a_node10"><a xlink:href="class_sphere.html" target="_top" xlink:title="Sphere">
<polygon fill="white" stroke="red" points="377.5,-85.166 377.5,-104.166 424.5,-104.166 424.5,-85.166 377.5,-85.166"/>
<text text-anchor="middle" x="401" y="-92.166" font-family="Helvetica,sans-Serif" font-size="10.00">Sphere</text>
</a>
</g>
</g>
<!-- Node10&#45;&gt;Node5 -->
<g id="edge12" class="edge"><title>Node10&#45;&gt;Node5</title>
<path fill="none" stroke="#9a32cd" stroke-dasharray="5,2" d="M434.797,-94.9524C475.775,-95.3103 545.894,-95.9227 590.27,-96.3102"/>
<polygon fill="#9a32cd" stroke="#9a32cd" points="434.825,-91.4526 424.795,-94.865 434.764,-98.4523 434.825,-91.4526"/>
<text text-anchor="middle" x="511" y="-98.666" font-family="Helvetica,sans-Serif" font-size="10.00"> m_sphere</text>
</g>
<!-- Node11&#45;&gt;Node5 -->
<g id="edge14" class="edge"><title>Node11&#45;&gt;Node5</title>
<path fill="none" stroke="#9a32cd" stroke-dasharray="5,2" d="M841.765,-22.0351C804.753,-6.90885 740.031,12.2927 692,-12.666 661.322,-28.6077 643.258,-68.6272 636.307,-87.0766"/>
<polygon fill="#9a32cd" stroke="#9a32cd" points="840.861,-25.4543 851.433,-26.1534 843.604,-19.0143 840.861,-25.4543"/>
<text text-anchor="middle" x="735" y="-15.666" font-family="Helvetica,sans-Serif" font-size="10.00"> m_activeSubnodes</text>
</g>
</g>
</svg>
        <g id="navigator" transform="translate(0 0)" fill="#404254">
                <rect fill="#f2f5e9" fill-opacity="0.5" stroke="#606060" stroke-width=".5" x="0" y="0" width="60" height="60"/>
                <use id="zoomplus" xlink:href="#zoomPlus" x="17" y="9" onmousedown="handleZoom(evt,'in')"/>
                <use id="zoomminus" xlink:href="#zoomMin" x="42" y="9" onmousedown="handleZoom(evt,'out')"/>
                <use id="reset" xlink:href="#resetDef" x="30" y="36" onmousedown="handleReset()"/>
                <g id="arrowUp" xlink:href="#dirArrow" transform="translate(30 24)" onmousedown="handlePan(0,-1)">
                  <use xlink:href="#rim" fill="#404040">
                        <set attributeName="fill" to="#808080" begin="arrowUp.mouseover" end="arrowUp.mouseout"/>
                  </use>
                  <path fill="none" stroke="white" stroke-width="1.5" d="M0,-3.0v7 M-2.5,-0.5L0,-3.0L2.5,-0.5"/>
                </g>
                <g id="arrowRight" xlink:href="#dirArrow" transform="rotate(90) translate(36 -43)" onmousedown="handlePan(1,0)">
                  <use xlink:href="#rim" fill="#404040">
                        <set attributeName="fill" to="#808080" begin="arrowRight.mouseover" end="arrowRight.mouseout"/>
                  </use>
                  <path fill="none" stroke="white" stroke-width="1.5" d="M0,-3.0v7 M-2.5,-0.5L0,-3.0L2.5,-0.5"/>
                </g>
                <g id="arrowDown" xlink:href="#dirArrow" transform="rotate(180) translate(-30 -48)" onmousedown="handlePan(0,1)">
                  <use xlink:href="#rim" fill="#404040">
                        <set attributeName="fill" to="#808080" begin="arrowDown.mouseover" end="arrowDown.mouseout"/>
                  </use>
                  <path fill="none" stroke="white" stroke-width="1.5" d="M0,-3.0v7 M-2.5,-0.5L0,-3.0L2.5,-0.5"/>
                </g>
                <g id="arrowLeft" xlink:href="#dirArrow" transform="rotate(270) translate(-36 17)" onmousedown="handlePan(-1,0)">
                  <use xlink:href="#rim" fill="#404040">
                        <set attributeName="fill" to="#808080" begin="arrowLeft.mouseover" end="arrowLeft.mouseout"/>
                  </use>
                  <path fill="none" stroke="white" stroke-width="1.5" d="M0,-3.0v7 M-2.5,-0.5L0,-3.0L2.5,-0.5"/>
                </g>
        </g>
        <svg viewBox="0 0 15 15" width="100%" height="30px" preserveAspectRatio="xMaxYMin meet">
         <g id="arrow_out" transform="scale(0.3 0.3)">
          <a xlink:href="class_voxel__coll__graph_org.svg" target="_base">
           <rect id="button" ry="5" rx="5" y="6" x="6" height="38" width="38"
                fill="#f2f5e9" fill-opacity="0.5" stroke="#606060" stroke-width="1.0"/>
           <path id="arrow"
             d="M 11.500037,31.436501 C 11.940474,20.09759 22.043105,11.32322 32.158766,21.979434 L 37.068811,17.246167 C 37.068811,17.246167 37.088388,32 37.088388,32 L 22.160133,31.978069 C 22.160133,31.978069 26.997745,27.140456 26.997745,27.140456 C 18.528582,18.264221 13.291696,25.230495 11.500037,31.436501 z"
             style="fill:#404040;"/>
          </a>
         </g>
        </svg>
</svg>
