<?xml version="1.0" encoding="UTF-8" standalone="no"?>
<!DOCTYPE svg PUBLIC "-//W3C//DTD SVG 1.1//EN"
 "http://www.w3.org/Graphics/SVG/1.1/DTD/svg11.dtd">
<!-- Generated by graphviz version 2.36.0 (20140111.2315)
 -->
<!-- Title: Aimer Pages: 1 -->
<!--zoomable 388 -->
<svg id="main" version="1.1" xmlns="http://www.w3.org/2000/svg" xmlns:xlink="http://www.w3.org/1999/xlink" xml:space="preserve" onload="init(evt)">
<style type="text/css"><![CDATA[
.edge:hover path { stroke: red; }
.edge:hover polygon { stroke: red; fill: red; }
]]></style>
<script type="text/javascript"><![CDATA[
var edges = document.getElementsByTagName('g');
if (edges && edges.length) {
  for (var i=0;i<edges.length;i++) {
    if (edges[i].id.substr(0,4)=='edge') {
      edges[i].setAttribute('class','edge');
    }
  }
}
]]></script>
        <defs>
                <circle id="rim" cx="0" cy="0" r="7"/>
                <circle id="rim2" cx="0" cy="0" r="3.5"/>
                <g id="zoomPlus">
                        <use xlink:href="#rim" fill="#404040">
                                <set attributeName="fill" to="#808080" begin="zoomplus.mouseover" end="zoomplus.mouseout"/>
                        </use>
                        <path d="M-4,0h8M0,-4v8" fill="none" stroke="white" stroke-width="1.5" pointer-events="none"/>
                </g>
                <g id="zoomMin">
                        <use xlink:href="#rim" fill="#404040">
                                <set attributeName="fill" to="#808080" begin="zoomminus.mouseover" end="zoomminus.mouseout"/>
                        </use>
                        <path d="M-4,0h8" fill="none" stroke="white" stroke-width="1.5" pointer-events="none"/>
                </g>
                <g id="dirArrow">
                        <path fill="none" stroke="white" stroke-width="1.5" d="M0,-3.0v7 M-2.5,-0.5L0,-3.0L2.5,-0.5"/>
                </g>
               <g id="resetDef">
                       <use xlink:href="#rim2" fill="#404040">
                               <set attributeName="fill" to="#808080" begin="reset.mouseover" end="reset.mouseout"/>
                       </use>
               </g>
        </defs>

<script type="text/javascript">
var viewWidth = 842;
var viewHeight = 388;
var sectionId = 'dynsection-0';
</script>
<script xlink:href="svgpan.js"/>
<svg id="graph" class="graph">
<g id="viewport">
<title>Aimer</title>
<polygon fill="white" stroke="none" points="-4,4 -4,-384 838,-384 838,4 -4,4"/>
<!-- Node1 -->
<g id="node1" class="node"><title>Node1</title>
<polygon fill="#bfbfbf" stroke="black" points="792,-43.5 792,-62.5 834,-62.5 834,-43.5 792,-43.5"/>
<text text-anchor="middle" x="813" y="-50.5" font-family="Helvetica,sans-Serif" font-size="10.00">Aimer</text>
</g>
<!-- Node2 -->
<g id="node2" class="node"><title>Node2</title>
<g id="a_node2"><a xlink:href="class_property.html" target="_top" xlink:title="Property\&lt; float \&gt;">
<polygon fill="white" stroke="black" points="138.5,-0.5 138.5,-19.5 227.5,-19.5 227.5,-0.5 138.5,-0.5"/>
<text text-anchor="middle" x="183" y="-7.5" font-family="Helvetica,sans-Serif" font-size="10.00">Property&lt; float &gt;</text>
</a>
</g>
</g>
<!-- Node2&#45;&gt;Node1 -->
<g id="edge1" class="edge"><title>Node2&#45;&gt;Node1</title>
<path fill="none" stroke="#9a32cd" stroke-dasharray="5,2" d="M237.851,-7.3526C316.992,-4.14937 469.273,-0.602203 598,-13 670.046,-19.9389 754.053,-38.8795 791.812,-47.9833"/>
<polygon fill="#9a32cd" stroke="#9a32cd" points="237.487,-3.86469 227.642,-7.7805 237.78,-10.8586 237.487,-3.86469"/>
<text text-anchor="middle" x="544" y="-27" font-family="Helvetica,sans-Serif" font-size="10.00"> m_infityAimInterpolation</text>
<text text-anchor="middle" x="544" y="-16" font-family="Helvetica,sans-Serif" font-size="10.00">m_infityAimDistance</text>
</g>
<!-- Node7 -->
<g id="node7" class="node"><title>Node7</title>
<g id="a_node7"><a xlink:href="class_voxel.html" target="_top" xlink:title="Voxel">
<polygon fill="white" stroke="red" points="379.5,-360.5 379.5,-379.5 420.5,-379.5 420.5,-360.5 379.5,-360.5"/>
<text text-anchor="middle" x="400" y="-367.5" font-family="Helvetica,sans-Serif" font-size="10.00">Voxel</text>
</a>
</g>
</g>
<!-- Node2&#45;&gt;Node7 -->
<g id="edge7" class="edge"><title>Node2&#45;&gt;Node7</title>
<path fill="none" stroke="#9a32cd" stroke-dasharray="5,2" d="M186.311,-29.7039C194.241,-88.147 225.763,-261.989 328,-351 342.243,-363.401 363.748,-367.813 379.358,-369.33"/>
<polygon fill="#9a32cd" stroke="#9a32cd" points="189.762,-29.0908 185.026,-19.6132 182.818,-29.9753 189.762,-29.0908"/>
<text text-anchor="middle" x="278" y="-344" font-family="Helvetica,sans-Serif" font-size="10.00"> s_defaultHp</text>
<text text-anchor="middle" x="278" y="-333" font-family="Helvetica,sans-Serif" font-size="10.00">s_defaultMass</text>
</g>
<!-- Node3 -->
<g id="node3" class="node"><title>Node3</title>
<g id="a_node3"><a xlink:title="STL class. ">
<polygon fill="white" stroke="#bfbfbf" points="0,-0.5 0,-19.5 60,-19.5 60,-0.5 0,-0.5"/>
<text text-anchor="middle" x="30" y="-7.5" font-family="Helvetica,sans-Serif" font-size="10.00">std::string</text>
</a>
</g>
</g>
<!-- Node3&#45;&gt;Node2 -->
<g id="edge2" class="edge"><title>Node3&#45;&gt;Node2</title>
<path fill="none" stroke="#9a32cd" stroke-dasharray="5,2" d="M70.2421,-10C91.1307,-10 116.875,-10 138.388,-10"/>
<polygon fill="#9a32cd" stroke="#9a32cd" points="70.1144,-6.5001 60.1143,-10 70.1143,-13.5001 70.1144,-6.5001"/>
<text text-anchor="middle" x="99" y="-13" font-family="Helvetica,sans-Serif" font-size="10.00"> m_name</text>
</g>
<!-- Node4 -->
<g id="node4" class="node"><title>Node4</title>
<g id="a_node4"><a xlink:href="class_world_object.html" target="_top" xlink:title="WorldObject">
<polygon fill="white" stroke="black" points="616.5,-189.5 616.5,-208.5 687.5,-208.5 687.5,-189.5 616.5,-189.5"/>
<text text-anchor="middle" x="652" y="-196.5" font-family="Helvetica,sans-Serif" font-size="10.00">WorldObject</text>
</a>
</g>
</g>
<!-- Node4&#45;&gt;Node1 -->
<g id="edge3" class="edge"><title>Node4&#45;&gt;Node1</title>
<path fill="none" stroke="#9a32cd" stroke-dasharray="5,2" d="M671.06,-182.416C704.379,-151.821 774.556,-87.3824 801.321,-62.8062"/>
<polygon fill="#9a32cd" stroke="#9a32cd" points="668.431,-180.079 663.432,-189.421 673.165,-185.235 668.431,-180.079"/>
<text text-anchor="middle" x="740" y="-151" font-family="Helvetica,sans-Serif" font-size="10.00"> m_worldObject</text>
</g>
<!-- Node5 -->
<g id="node5" class="node"><title>Node5</title>
<g id="a_node5"><a xlink:href="class_voxel_cluster.html" target="_top" xlink:title="VoxelCluster">
<polygon fill="white" stroke="red" points="364,-322.5 364,-341.5 436,-341.5 436,-322.5 364,-322.5"/>
<text text-anchor="middle" x="400" y="-329.5" font-family="Helvetica,sans-Serif" font-size="10.00">VoxelCluster</text>
</a>
</g>
</g>
<!-- Node5&#45;&gt;Node4 -->
<g id="edge4" class="edge"><title>Node5&#45;&gt;Node4</title>
<path fill="none" stroke="midnightblue" d="M446.299,-333.733C489.217,-333.128 553.546,-326.156 598,-294 627.993,-272.305 643.127,-228.143 648.573,-208.634"/>
<polygon fill="midnightblue" stroke="midnightblue" points="446.132,-330.233 436.143,-333.763 446.153,-337.233 446.132,-330.233"/>
</g>
<!-- Node6 -->
<g id="node6" class="node"><title>Node6</title>
<g id="a_node6"><a xlink:href="class_scriptable.html" target="_top" xlink:title="Scriptable">
<polygon fill="white" stroke="black" points="370,-284.5 370,-303.5 430,-303.5 430,-284.5 370,-284.5"/>
<text text-anchor="middle" x="400" y="-291.5" font-family="Helvetica,sans-Serif" font-size="10.00">Scriptable</text>
</a>
</g>
</g>
<!-- Node6&#45;&gt;Node4 -->
<g id="edge5" class="edge"><title>Node6&#45;&gt;Node4</title>
<path fill="none" stroke="midnightblue" d="M440.233,-296.067C482.04,-296.517 548.843,-292.076 598,-264 621.011,-250.857 638.091,-223.549 646.043,-208.859"/>
<polygon fill="midnightblue" stroke="midnightblue" points="440.239,-292.566 430.169,-295.858 440.094,-299.565 440.239,-292.566"/>
</g>
<!-- Node7&#45;&gt;Node4 -->
<g id="edge6" class="edge"><title>Node7&#45;&gt;Node4</title>
<path fill="none" stroke="#9a32cd" stroke-dasharray="5,2" d="M430.751,-371.39C472.83,-371.748 549.945,-366.279 598,-326 635.353,-294.691 646.83,-232.635 649.952,-208.716"/>
<polygon fill="#9a32cd" stroke="#9a32cd" points="430.67,-367.887 420.601,-371.183 430.528,-374.886 430.67,-367.887"/>
<text text-anchor="middle" x="544" y="-370" font-family="Helvetica,sans-Serif" font-size="10.00"> m_crucialVoxel</text>
</g>
<!-- Node8 -->
<g id="node8" class="node"><title>Node8</title>
<polygon fill="white" stroke="#bfbfbf" points="328.5,-246.5 328.5,-265.5 471.5,-265.5 471.5,-246.5 328.5,-246.5"/>
<text text-anchor="middle" x="400" y="-253.5" font-family="Helvetica,sans-Serif" font-size="10.00">std::unique_ptr&lt; ObjectInfo &gt;</text>
</g>
<!-- Node8&#45;&gt;Node4 -->
<g id="edge8" class="edge"><title>Node8&#45;&gt;Node4</title>
<path fill="none" stroke="#9a32cd" stroke-dasharray="5,2" d="M481.568,-249.618C517.779,-245.26 560.671,-238.005 598,-226 611.173,-221.764 625.077,-214.565 635.337,-208.665"/>
<polygon fill="#9a32cd" stroke="#9a32cd" points="481.077,-246.152 471.542,-250.772 481.877,-253.106 481.077,-246.152"/>
<text text-anchor="middle" x="544" y="-252" font-family="Helvetica,sans-Serif" font-size="10.00"> m_objectInfo</text>
</g>
<!-- Node9 -->
<g id="node9" class="node"><title>Node9</title>
<g id="a_node9"><a xlink:href="class_handle.html" target="_top" xlink:title="Handle\&lt; WorldObject \&gt;">
<polygon fill="white" stroke="black" points="340.5,-208.5 340.5,-227.5 459.5,-227.5 459.5,-208.5 340.5,-208.5"/>
<text text-anchor="middle" x="400" y="-215.5" font-family="Helvetica,sans-Serif" font-size="10.00">Handle&lt; WorldObject &gt;</text>
</a>
</g>
</g>
<!-- Node9&#45;&gt;Node4 -->
<g id="edge9" class="edge"><title>Node9&#45;&gt;Node4</title>
<path fill="none" stroke="#9a32cd" stroke-dasharray="5,2" d="M469.838,-212.768C517.356,-209.157 578.543,-204.507 616.254,-201.641"/>
<polygon fill="#9a32cd" stroke="#9a32cd" points="469.32,-209.298 459.614,-213.545 469.85,-216.277 469.32,-209.298"/>
<text text-anchor="middle" x="544" y="-214" font-family="Helvetica,sans-Serif" font-size="10.00"> m_handle</text>
</g>
<!-- Node10 -->
<g id="node10" class="node"><title>Node10</title>
<polygon fill="white" stroke="#bfbfbf" points="333,-170.5 333,-189.5 467,-189.5 467,-170.5 333,-170.5"/>
<text text-anchor="middle" x="400" y="-177.5" font-family="Helvetica,sans-Serif" font-size="10.00">std::unique_ptr&lt; Physics &gt;</text>
</g>
<!-- Node10&#45;&gt;Node4 -->
<g id="edge10" class="edge"><title>Node10&#45;&gt;Node4</title>
<path fill="none" stroke="#9a32cd" stroke-dasharray="5,2" d="M477.406,-180.989C513.992,-182.1 558.368,-184.379 598,-189 603.952,-189.694 610.241,-190.666 616.326,-191.734"/>
<polygon fill="#9a32cd" stroke="#9a32cd" points="477.398,-177.487 467.304,-180.705 477.202,-184.484 477.398,-177.487"/>
<text text-anchor="middle" x="544" y="-192" font-family="Helvetica,sans-Serif" font-size="10.00"> m_physics</text>
</g>
<!-- Node11 -->
<g id="node11" class="node"><title>Node11</title>
<polygon fill="white" stroke="#bfbfbf" points="336.5,-121 336.5,-151 463.5,-151 463.5,-121 336.5,-121"/>
<text text-anchor="start" x="344.5" y="-139" font-family="Helvetica,sans-Serif" font-size="10.00">std::unique_ptr&lt; Collision</text>
<text text-anchor="middle" x="400" y="-128" font-family="Helvetica,sans-Serif" font-size="10.00">Filter &gt;</text>
</g>
<!-- Node11&#45;&gt;Node4 -->
<g id="edge11" class="edge"><title>Node11&#45;&gt;Node4</title>
<path fill="none" stroke="#9a32cd" stroke-dasharray="5,2" d="M473.719,-140.687C511.647,-144.801 558.287,-152.52 598,-167 612.743,-172.376 627.909,-182.028 638.219,-189.33"/>
<polygon fill="#9a32cd" stroke="#9a32cd" points="474.075,-137.205 463.771,-139.668 473.362,-144.169 474.075,-137.205"/>
<text text-anchor="middle" x="544" y="-170" font-family="Helvetica,sans-Serif" font-size="10.00"> m_collisionFilter</text>
</g>
<!-- Node12 -->
<g id="node12" class="node"><title>Node12</title>
<polygon fill="white" stroke="#bfbfbf" points="336.5,-72 336.5,-102 463.5,-102 463.5,-72 336.5,-72"/>
<text text-anchor="start" x="344.5" y="-90" font-family="Helvetica,sans-Serif" font-size="10.00">std::unique_ptr&lt; Collision</text>
<text text-anchor="middle" x="400" y="-79" font-family="Helvetica,sans-Serif" font-size="10.00">Detector &gt;</text>
</g>
<!-- Node12&#45;&gt;Node4 -->
<g id="edge12" class="edge"><title>Node12&#45;&gt;Node4</title>
<path fill="none" stroke="#9a32cd" stroke-dasharray="5,2" d="M473.93,-89.7734C513.259,-94.1889 561.142,-104.512 598,-128 622.128,-143.376 639.173,-173.889 646.691,-189.426"/>
<polygon fill="#9a32cd" stroke="#9a32cd" points="474.17,-86.2798 463.867,-88.7498 473.461,-93.2438 474.17,-86.2798"/>
<text text-anchor="middle" x="544" y="-131" font-family="Helvetica,sans-Serif" font-size="10.00"> m_collisionDetector</text>
</g>
<!-- Node13 -->
<g id="node13" class="node"><title>Node13</title>
<polygon fill="white" stroke="#bfbfbf" points="328,-23 328,-53 472,-53 472,-23 328,-23"/>
<text text-anchor="start" x="336" y="-41" font-family="Helvetica,sans-Serif" font-size="10.00">std::unique_ptr&lt; WorldObject</text>
<text text-anchor="middle" x="400" y="-30" font-family="Helvetica,sans-Serif" font-size="10.00">Components &gt;</text>
</g>
<!-- Node13&#45;&gt;Node4 -->
<g id="edge13" class="edge"><title>Node13&#45;&gt;Node4</title>
<path fill="none" stroke="#9a32cd" stroke-dasharray="5,2" d="M482.227,-37.705C520.938,-41.4583 565.718,-51.941 598,-78 634.226,-107.243 646.326,-166.193 649.784,-189.349"/>
<polygon fill="#9a32cd" stroke="#9a32cd" points="482.264,-34.1961 472.008,-36.8537 481.683,-41.1719 482.264,-34.1961"/>
<text text-anchor="middle" x="544" y="-81" font-family="Helvetica,sans-Serif" font-size="10.00"> m_components</text>
</g>
</g>
</svg>
        <g id="navigator" transform="translate(0 0)" fill="#404254">
                <rect fill="#f2f5e9" fill-opacity="0.5" stroke="#606060" stroke-width=".5" x="0" y="0" width="60" height="60"/>
                <use id="zoomplus" xlink:href="#zoomPlus" x="17" y="9" onmousedown="handleZoom(evt,'in')"/>
                <use id="zoomminus" xlink:href="#zoomMin" x="42" y="9" onmousedown="handleZoom(evt,'out')"/>
                <use id="reset" xlink:href="#resetDef" x="30" y="36" onmousedown="handleReset()"/>
                <g id="arrowUp" xlink:href="#dirArrow" transform="translate(30 24)" onmousedown="handlePan(0,-1)">
                  <use xlink:href="#rim" fill="#404040">
                        <set attributeName="fill" to="#808080" begin="arrowUp.mouseover" end="arrowUp.mouseout"/>
                  </use>
                  <path fill="none" stroke="white" stroke-width="1.5" d="M0,-3.0v7 M-2.5,-0.5L0,-3.0L2.5,-0.5"/>
                </g>
                <g id="arrowRight" xlink:href="#dirArrow" transform="rotate(90) translate(36 -43)" onmousedown="handlePan(1,0)">
                  <use xlink:href="#rim" fill="#404040">
                        <set attributeName="fill" to="#808080" begin="arrowRight.mouseover" end="arrowRight.mouseout"/>
                  </use>
                  <path fill="none" stroke="white" stroke-width="1.5" d="M0,-3.0v7 M-2.5,-0.5L0,-3.0L2.5,-0.5"/>
                </g>
                <g id="arrowDown" xlink:href="#dirArrow" transform="rotate(180) translate(-30 -48)" onmousedown="handlePan(0,1)">
                  <use xlink:href="#rim" fill="#404040">
                        <set attributeName="fill" to="#808080" begin="arrowDown.mouseover" end="arrowDown.mouseout"/>
                  </use>
                  <path fill="none" stroke="white" stroke-width="1.5" d="M0,-3.0v7 M-2.5,-0.5L0,-3.0L2.5,-0.5"/>
                </g>
                <g id="arrowLeft" xlink:href="#dirArrow" transform="rotate(270) translate(-36 17)" onmousedown="handlePan(-1,0)">
                  <use xlink:href="#rim" fill="#404040">
                        <set attributeName="fill" to="#808080" begin="arrowLeft.mouseover" end="arrowLeft.mouseout"/>
                  </use>
                  <path fill="none" stroke="white" stroke-width="1.5" d="M0,-3.0v7 M-2.5,-0.5L0,-3.0L2.5,-0.5"/>
                </g>
        </g>
        <svg viewBox="0 0 15 15" width="100%" height="30px" preserveAspectRatio="xMaxYMin meet">
         <g id="arrow_out" transform="scale(0.3 0.3)">
          <a xlink:href="class_aimer__coll__graph_org.svg" target="_base">
           <rect id="button" ry="5" rx="5" y="6" x="6" height="38" width="38"
                fill="#f2f5e9" fill-opacity="0.5" stroke="#606060" stroke-width="1.0"/>
           <path id="arrow"
             d="M 11.500037,31.436501 C 11.940474,20.09759 22.043105,11.32322 32.158766,21.979434 L 37.068811,17.246167 C 37.068811,17.246167 37.088388,32 37.088388,32 L 22.160133,31.978069 C 22.160133,31.978069 26.997745,27.140456 26.997745,27.140456 C 18.528582,18.264221 13.291696,25.230495 11.500037,31.436501 z"
             style="fill:#404040;"/>
          </a>
         </g>
        </svg>
</svg>
