<?xml version="1.0" encoding="UTF-8" standalone="no"?>
<!DOCTYPE svg PUBLIC "-//W3C//DTD SVG 1.1//EN"
 "http://www.w3.org/Graphics/SVG/1.1/DTD/svg11.dtd">
<!-- Generated by graphviz version 2.36.0 (20140111.2315)
 -->
<!-- Title: VoxelParticleRenderer Pages: 1 -->
<!--zoomable 252 -->
<svg id="main" version="1.1" xmlns="http://www.w3.org/2000/svg" xmlns:xlink="http://www.w3.org/1999/xlink" xml:space="preserve" onload="init(evt)">
<style type="text/css"><![CDATA[
.edge:hover path { stroke: red; }
.edge:hover polygon { stroke: red; fill: red; }
]]></style>
<script type="text/javascript"><![CDATA[
var edges = document.getElementsByTagName('g');
if (edges && edges.length) {
  for (var i=0;i<edges.length;i++) {
    if (edges[i].id.substr(0,4)=='edge') {
      edges[i].setAttribute('class','edge');
    }
  }
}
]]></script>
        <defs>
                <circle id="rim" cx="0" cy="0" r="7"/>
                <circle id="rim2" cx="0" cy="0" r="3.5"/>
                <g id="zoomPlus">
                        <use xlink:href="#rim" fill="#404040">
                                <set attributeName="fill" to="#808080" begin="zoomplus.mouseover" end="zoomplus.mouseout"/>
                        </use>
                        <path d="M-4,0h8M0,-4v8" fill="none" stroke="white" stroke-width="1.5" pointer-events="none"/>
                </g>
                <g id="zoomMin">
                        <use xlink:href="#rim" fill="#404040">
                                <set attributeName="fill" to="#808080" begin="zoomminus.mouseover" end="zoomminus.mouseout"/>
                        </use>
                        <path d="M-4,0h8" fill="none" stroke="white" stroke-width="1.5" pointer-events="none"/>
                </g>
                <g id="dirArrow">
                        <path fill="none" stroke="white" stroke-width="1.5" d="M0,-3.0v7 M-2.5,-0.5L0,-3.0L2.5,-0.5"/>
                </g>
               <g id="resetDef">
                       <use xlink:href="#rim2" fill="#404040">
                               <set attributeName="fill" to="#808080" begin="reset.mouseover" end="reset.mouseout"/>
                       </use>
               </g>
        </defs>

<script type="text/javascript">
var viewWidth = 1158;
var viewHeight = 252;
var sectionId = 'dynsection-1';
</script>
<script xlink:href="svgpan.js"/>
<svg id="graph" class="graph">
<g id="viewport">
<title>VoxelParticleRenderer</title>
<polygon fill="white" stroke="none" points="-4,4 -4,-248.079 1154,-248.079 1154,4 -4,4"/>
<!-- Node1 -->
<g id="node1" class="node"><title>Node1</title>
<polygon fill="#bfbfbf" stroke="black" points="574.5,-151.5 574.5,-170.5 687.5,-170.5 687.5,-151.5 574.5,-151.5"/>
<text text-anchor="middle" x="631" y="-158.5" font-family="Helvetica,sans-Serif" font-size="10.00">VoxelParticleRenderer</text>
</g>
<!-- Node6 -->
<g id="node6" class="node"><title>Node6</title>
<polygon fill="white" stroke="#bfbfbf" points="740,-184 740,-214 888,-214 888,-184 740,-184"/>
<text text-anchor="start" x="748" y="-202" font-family="Helvetica,sans-Serif" font-size="10.00">std::unique_ptr&lt; VoxelParticle</text>
<text text-anchor="middle" x="814" y="-191" font-family="Helvetica,sans-Serif" font-size="10.00">Renderer &gt;</text>
</g>
<!-- Node1&#45;&gt;Node6 -->
<g id="edge7" class="edge"><title>Node1&#45;&gt;Node6</title>
<path fill="none" stroke="#9a32cd" stroke-dasharray="5,2" d="M687.905,-172.737C704.771,-176.278 723.524,-180.215 741.269,-183.94"/>
<polygon fill="#9a32cd" stroke="#9a32cd" points="688.18,-169.218 677.674,-170.589 686.741,-176.069 688.18,-169.218"/>
<text text-anchor="middle" x="714" y="-181" font-family="Helvetica,sans-Serif" font-size="10.00"> ptr</text>
</g>
<!-- Node2 -->
<g id="node2" class="node"><title>Node2</title>
<g id="a_node2"><a xlink:href="class_context_dependant.html" target="_top" xlink:title="ContextDependant">
<polygon fill="white" stroke="black" points="0.5,-195.5 0.5,-214.5 97.5,-214.5 97.5,-195.5 0.5,-195.5"/>
<text text-anchor="middle" x="49" y="-202.5" font-family="Helvetica,sans-Serif" font-size="10.00">ContextDependant</text>
</a>
</g>
</g>
<!-- Node2&#45;&gt;Node1 -->
<g id="edge1" class="edge"><title>Node2&#45;&gt;Node1</title>
<path fill="none" stroke="midnightblue" d="M107.826,-204.365C202.072,-202.73 394.506,-196.887 556,-176 566.53,-174.638 577.805,-172.636 588.299,-170.536"/>
<polygon fill="midnightblue" stroke="midnightblue" points="107.589,-200.868 97.6473,-204.532 107.703,-207.868 107.589,-200.868"/>
</g>
<!-- Node3 -->
<g id="node3" class="node"><title>Node3</title>
<g id="a_node3"><a xlink:href="class_voxel_particle_engine.html" target="_top" xlink:title="VoxelParticleEngine">
<polygon fill="white" stroke="black" points="1046,-121.5 1046,-140.5 1150,-140.5 1150,-121.5 1046,-121.5"/>
<text text-anchor="middle" x="1098" y="-128.5" font-family="Helvetica,sans-Serif" font-size="10.00">VoxelParticleEngine</text>
</a>
</g>
</g>
<!-- Node2&#45;&gt;Node3 -->
<g id="edge3" class="edge"><title>Node2&#45;&gt;Node3</title>
<path fill="none" stroke="#8b1a1a" d="M80.016,-218.464C107.138,-229.393 148.445,-243 186,-243 186,-243 186,-243 815,-243 911.009,-243 943.769,-253.074 1028,-207 1057.55,-190.836 1081.08,-157.115 1091.37,-140.571"/>
<polygon fill="#8b1a1a" stroke="#8b1a1a" points="81.2762,-215.198 70.6988,-214.589 78.5879,-221.661 81.2762,-215.198"/>
</g>
<!-- Node9 -->
<g id="node9" class="node"><title>Node9</title>
<g id="a_node9"><a xlink:href="class_voxel_mesh.html" target="_top" xlink:title="VoxelMesh">
<polygon fill="white" stroke="black" points="154.5,-107.5 154.5,-126.5 219.5,-126.5 219.5,-107.5 154.5,-107.5"/>
<text text-anchor="middle" x="187" y="-114.5" font-family="Helvetica,sans-Serif" font-size="10.00">VoxelMesh</text>
</a>
</g>
</g>
<!-- Node2&#45;&gt;Node9 -->
<g id="edge11" class="edge"><title>Node2&#45;&gt;Node9</title>
<path fill="none" stroke="midnightblue" d="M67.5753,-188.13C84.1571,-172.916 110.249,-150.732 136,-136 142.287,-132.403 149.385,-129.234 156.215,-126.567"/>
<polygon fill="midnightblue" stroke="midnightblue" points="64.7401,-185.989 59.8231,-195.373 69.5193,-191.103 64.7401,-185.989"/>
</g>
<!-- Node3&#45;&gt;Node1 -->
<g id="edge2" class="edge"><title>Node3&#45;&gt;Node1</title>
<path fill="none" stroke="#9a32cd" stroke-dasharray="5,2" d="M1035.7,-139.243C1033.1,-139.515 1030.53,-139.769 1028,-140 906.821,-151.1 764.203,-156.883 687.515,-159.4"/>
<polygon fill="#9a32cd" stroke="#9a32cd" points="1036.25,-142.704 1045.8,-138.122 1035.48,-135.747 1036.25,-142.704"/>
<text text-anchor="middle" x="814" y="-160" font-family="Helvetica,sans-Serif" font-size="10.00"> m_engine</text>
</g>
<!-- Node4 -->
<g id="node4" class="node"><title>Node4</title>
<polygon fill="white" stroke="#bfbfbf" points="769.5,-98.5 769.5,-117.5 858.5,-117.5 858.5,-98.5 769.5,-98.5"/>
<text text-anchor="middle" x="814" y="-105.5" font-family="Helvetica,sans-Serif" font-size="10.00">std::stack&lt; int &gt;</text>
</g>
<!-- Node4&#45;&gt;Node3 -->
<g id="edge4" class="edge"><title>Node4&#45;&gt;Node3</title>
<path fill="none" stroke="#9a32cd" stroke-dasharray="5,2" d="M868.924,-112.398C919.937,-116.559 995.94,-122.757 1045.98,-126.839"/>
<polygon fill="#9a32cd" stroke="#9a32cd" points="869.005,-108.893 858.753,-111.569 868.435,-115.87 869.005,-108.893"/>
<text text-anchor="middle" x="967" y="-128" font-family="Helvetica,sans-Serif" font-size="10.00"> m_freeParticleBufferIndices</text>
</g>
<!-- Node5 -->
<g id="node5" class="node"><title>Node5</title>
<polygon fill="white" stroke="#bfbfbf" points="750,-49 750,-79 878,-79 878,-49 750,-49"/>
<text text-anchor="start" x="758" y="-67" font-family="Helvetica,sans-Serif" font-size="10.00">std::vector&lt; VoxelParticle</text>
<text text-anchor="middle" x="814" y="-56" font-family="Helvetica,sans-Serif" font-size="10.00">Data &gt;</text>
</g>
<!-- Node5&#45;&gt;Node3 -->
<g id="edge5" class="edge"><title>Node5&#45;&gt;Node3</title>
<path fill="none" stroke="#9a32cd" stroke-dasharray="5,2" d="M888.393,-72.3566C929.922,-78.1715 982.495,-87.3681 1028,-101 1045.64,-106.285 1064.78,-114.849 1078.42,-121.477"/>
<polygon fill="#9a32cd" stroke="#9a32cd" points="888.737,-68.8713 878.356,-70.9867 887.79,-75.807 888.737,-68.8713"/>
<text text-anchor="middle" x="967" y="-104" font-family="Helvetica,sans-Serif" font-size="10.00"> m_cpuParticleBuffer</text>
</g>
<!-- Node6&#45;&gt;Node3 -->
<g id="edge6" class="edge"><title>Node6&#45;&gt;Node3</title>
<path fill="none" stroke="#9a32cd" stroke-dasharray="5,2" d="M898.389,-193.62C938.352,-189.347 986.448,-181.695 1028,-168 1048.01,-161.405 1069.08,-149.232 1082.6,-140.654"/>
<polygon fill="#9a32cd" stroke="#9a32cd" points="898.007,-190.14 888.413,-194.635 898.716,-197.104 898.007,-190.14"/>
<text text-anchor="middle" x="967" y="-195" font-family="Helvetica,sans-Serif" font-size="10.00"> m_renderer</text>
</g>
<!-- Node7 -->
<g id="node7" class="node"><title>Node7</title>
<polygon fill="white" stroke="#bfbfbf" points="740,-0 740,-30 888,-30 888,-0 740,-0"/>
<text text-anchor="start" x="748" y="-18" font-family="Helvetica,sans-Serif" font-size="10.00">std::unique_ptr&lt; VoxelParticle</text>
<text text-anchor="middle" x="814" y="-7" font-family="Helvetica,sans-Serif" font-size="10.00">Remover &gt;</text>
</g>
<!-- Node7&#45;&gt;Node3 -->
<g id="edge8" class="edge"><title>Node7&#45;&gt;Node3</title>
<path fill="none" stroke="#9a32cd" stroke-dasharray="5,2" d="M898.163,-21.6913C939.228,-27.7252 988.338,-39.1961 1028,-61 1055.51,-76.126 1079.12,-105.67 1090.23,-121.093"/>
<polygon fill="#9a32cd" stroke="#9a32cd" points="898.565,-18.2137 888.179,-20.3069 897.604,-25.1473 898.565,-18.2137"/>
<text text-anchor="middle" x="967" y="-64" font-family="Helvetica,sans-Serif" font-size="10.00"> m_remover</text>
</g>
<!-- Node8 -->
<g id="node8" class="node"><title>Node8</title>
<polygon fill="white" stroke="#bfbfbf" points="310,-112.5 310,-131.5 458,-131.5 458,-112.5 310,-112.5"/>
<text text-anchor="middle" x="384" y="-119.5" font-family="Helvetica,sans-Serif" font-size="10.00">std::unique_ptr&lt; VoxelMesh &gt;</text>
</g>
<!-- Node8&#45;&gt;Node1 -->
<g id="edge9" class="edge"><title>Node8&#45;&gt;Node1</title>
<path fill="none" stroke="#9a32cd" stroke-dasharray="5,2" d="M468.49,-132.687C496.374,-136.531 527.579,-141.13 556,-146 565.432,-147.616 575.502,-149.53 585.079,-151.441"/>
<polygon fill="#9a32cd" stroke="#9a32cd" points="468.76,-129.192 458.379,-131.306 467.813,-136.127 468.76,-129.192"/>
<text text-anchor="middle" x="516" y="-149" font-family="Helvetica,sans-Serif" font-size="10.00"> m_voxelMesh</text>
</g>
<!-- Node9&#45;&gt;Node8 -->
<g id="edge10" class="edge"><title>Node9&#45;&gt;Node8</title>
<path fill="none" stroke="#9a32cd" stroke-dasharray="5,2" d="M229.993,-118.077C253.299,-118.674 282.95,-119.435 309.932,-120.126"/>
<polygon fill="#9a32cd" stroke="#9a32cd" points="229.851,-114.572 219.764,-117.814 229.671,-121.57 229.851,-114.572"/>
<text text-anchor="middle" x="274" y="-123" font-family="Helvetica,sans-Serif" font-size="10.00"> ptr</text>
</g>
<!-- Node10 -->
<g id="node10" class="node"><title>Node10</title>
<g id="a_node10"><a xlink:href="class_property.html" target="_top" xlink:title="Property\&lt; glm::vec3 \&gt;">
<polygon fill="white" stroke="black" points="327.5,-151.5 327.5,-170.5 440.5,-170.5 440.5,-151.5 327.5,-151.5"/>
<text text-anchor="middle" x="384" y="-158.5" font-family="Helvetica,sans-Serif" font-size="10.00">Property&lt; glm::vec3 &gt;</text>
</a>
</g>
</g>
<!-- Node10&#45;&gt;Node1 -->
<g id="edge12" class="edge"><title>Node10&#45;&gt;Node1</title>
<path fill="none" stroke="#9a32cd" stroke-dasharray="5,2" d="M450.688,-161C489.259,-161 537.483,-161 574.202,-161"/>
<polygon fill="#9a32cd" stroke="#9a32cd" points="450.594,-157.5 440.594,-161 450.594,-164.5 450.594,-157.5"/>
<text text-anchor="middle" x="516" y="-164" font-family="Helvetica,sans-Serif" font-size="10.00"> m_defaultLightDir</text>
</g>
<!-- Node11 -->
<g id="node11" class="node"><title>Node11</title>
<g id="a_node11"><a xlink:href="class_property_impl.html" target="_top" xlink:title="PropertyImpl\&lt; glm::\lvec3 \&gt;">
<polygon fill="white" stroke="red" points="136,-146 136,-176 238,-176 238,-146 136,-146"/>
<text text-anchor="start" x="144" y="-164" font-family="Helvetica,sans-Serif" font-size="10.00">PropertyImpl&lt; glm::</text>
<text text-anchor="middle" x="187" y="-153" font-family="Helvetica,sans-Serif" font-size="10.00">vec3 &gt;</text>
</a>
</g>
</g>
<!-- Node11&#45;&gt;Node10 -->
<g id="edge13" class="edge"><title>Node11&#45;&gt;Node10</title>
<path fill="none" stroke="#9a32cd" stroke-dasharray="5,2" d="M248.404,-161C273.637,-161 302.767,-161 327.459,-161"/>
<polygon fill="#9a32cd" stroke="#9a32cd" points="248.217,-157.5 238.217,-161 248.217,-164.5 248.217,-157.5"/>
<text text-anchor="middle" x="274" y="-164" font-family="Helvetica,sans-Serif" font-size="10.00"> m_impl</text>
</g>
</g>
</svg>
        <g id="navigator" transform="translate(0 0)" fill="#404254">
                <rect fill="#f2f5e9" fill-opacity="0.5" stroke="#606060" stroke-width=".5" x="0" y="0" width="60" height="60"/>
                <use id="zoomplus" xlink:href="#zoomPlus" x="17" y="9" onmousedown="handleZoom(evt,'in')"/>
                <use id="zoomminus" xlink:href="#zoomMin" x="42" y="9" onmousedown="handleZoom(evt,'out')"/>
                <use id="reset" xlink:href="#resetDef" x="30" y="36" onmousedown="handleReset()"/>
                <g id="arrowUp" xlink:href="#dirArrow" transform="translate(30 24)" onmousedown="handlePan(0,-1)">
                  <use xlink:href="#rim" fill="#404040">
                        <set attributeName="fill" to="#808080" begin="arrowUp.mouseover" end="arrowUp.mouseout"/>
                  </use>
                  <path fill="none" stroke="white" stroke-width="1.5" d="M0,-3.0v7 M-2.5,-0.5L0,-3.0L2.5,-0.5"/>
                </g>
                <g id="arrowRight" xlink:href="#dirArrow" transform="rotate(90) translate(36 -43)" onmousedown="handlePan(1,0)">
                  <use xlink:href="#rim" fill="#404040">
                        <set attributeName="fill" to="#808080" begin="arrowRight.mouseover" end="arrowRight.mouseout"/>
                  </use>
                  <path fill="none" stroke="white" stroke-width="1.5" d="M0,-3.0v7 M-2.5,-0.5L0,-3.0L2.5,-0.5"/>
                </g>
                <g id="arrowDown" xlink:href="#dirArrow" transform="rotate(180) translate(-30 -48)" onmousedown="handlePan(0,1)">
                  <use xlink:href="#rim" fill="#404040">
                        <set attributeName="fill" to="#808080" begin="arrowDown.mouseover" end="arrowDown.mouseout"/>
                  </use>
                  <path fill="none" stroke="white" stroke-width="1.5" d="M0,-3.0v7 M-2.5,-0.5L0,-3.0L2.5,-0.5"/>
                </g>
                <g id="arrowLeft" xlink:href="#dirArrow" transform="rotate(270) translate(-36 17)" onmousedown="handlePan(-1,0)">
                  <use xlink:href="#rim" fill="#404040">
                        <set attributeName="fill" to="#808080" begin="arrowLeft.mouseover" end="arrowLeft.mouseout"/>
                  </use>
                  <path fill="none" stroke="white" stroke-width="1.5" d="M0,-3.0v7 M-2.5,-0.5L0,-3.0L2.5,-0.5"/>
                </g>
        </g>
        <svg viewBox="0 0 15 15" width="100%" height="30px" preserveAspectRatio="xMaxYMin meet">
         <g id="arrow_out" transform="scale(0.3 0.3)">
          <a xlink:href="class_voxel_particle_renderer__coll__graph_org.svg" target="_base">
           <rect id="button" ry="5" rx="5" y="6" x="6" height="38" width="38"
                fill="#f2f5e9" fill-opacity="0.5" stroke="#606060" stroke-width="1.0"/>
           <path id="arrow"
             d="M 11.500037,31.436501 C 11.940474,20.09759 22.043105,11.32322 32.158766,21.979434 L 37.068811,17.246167 C 37.068811,17.246167 37.088388,32 37.088388,32 L 22.160133,31.978069 C 22.160133,31.978069 26.997745,27.140456 26.997745,27.140456 C 18.528582,18.264221 13.291696,25.230495 11.500037,31.436501 z"
             style="fill:#404040;"/>
          </a>
         </g>
        </svg>
</svg>
