<?xml version="1.0" encoding="UTF-8" standalone="no"?>
<!DOCTYPE svg PUBLIC "-//W3C//DTD SVG 1.1//EN"
 "http://www.w3.org/Graphics/SVG/1.1/DTD/svg11.dtd">
<!-- Generated by graphviz version 2.36.0 (20140111.2315)
 -->
<!-- Title: SpecialVoxel Pages: 1 -->
<svg width="458pt" height="140pt"
 viewBox="0.00 0.00 458.00 140.00" xmlns="http://www.w3.org/2000/svg" xmlns:xlink="http://www.w3.org/1999/xlink">
<g id="graph0" class="graph" transform="scale(1 1) rotate(0) translate(4 136)">
<title>SpecialVoxel</title>
<polygon fill="white" stroke="none" points="-4,4 -4,-136 454,-136 454,4 -4,4"/>
<!-- Node1 -->
<g id="node1" class="node"><title>Node1</title>
<polygon fill="#bfbfbf" stroke="black" points="189,-56.5 189,-75.5 263,-75.5 263,-56.5 189,-56.5"/>
<text text-anchor="middle" x="226" y="-63.5" font-family="Helvetica,sans-Serif" font-size="10.00">SpecialVoxel</text>
</g>
<!-- Node3 -->
<g id="node3" class="node"><title>Node3</title>
<g id="a_node3"><a xlink:href="class_cockpit_voxel.html" target="_top" xlink:title="CockpitVoxel">
<polygon fill="white" stroke="black" points="0,-0.5 0,-19.5 74,-19.5 74,-0.5 0,-0.5"/>
<text text-anchor="middle" x="37" y="-7.5" font-family="Helvetica,sans-Serif" font-size="10.00">CockpitVoxel</text>
</a>
</g>
</g>
<!-- Node1&#45;&gt;Node3 -->
<g id="edge2" class="edge"><title>Node1&#45;&gt;Node3</title>
<path fill="none" stroke="midnightblue" d="M185.987,-53.5677C150.333,-43.381 98.962,-28.7034 66.8075,-19.5164"/>
<polygon fill="midnightblue" stroke="midnightblue" points="185.476,-57.0616 196.052,-56.4435 187.399,-50.3309 185.476,-57.0616"/>
</g>
<!-- Node4 -->
<g id="node4" class="node"><title>Node4</title>
<g id="a_node4"><a xlink:href="class_crucial_voxel.html" target="_top" xlink:title="CrucialVoxel">
<polygon fill="white" stroke="black" points="92.5,-0.5 92.5,-19.5 163.5,-19.5 163.5,-0.5 92.5,-0.5"/>
<text text-anchor="middle" x="128" y="-7.5" font-family="Helvetica,sans-Serif" font-size="10.00">CrucialVoxel</text>
</a>
</g>
</g>
<!-- Node1&#45;&gt;Node4 -->
<g id="edge3" class="edge"><title>Node1&#45;&gt;Node4</title>
<path fill="none" stroke="midnightblue" d="M201.414,-51.4526C183.322,-41.4835 159.265,-28.2279 143.706,-19.6545"/>
<polygon fill="midnightblue" stroke="midnightblue" points="199.807,-54.5633 210.255,-56.324 203.185,-48.4324 199.807,-54.5633"/>
</g>
<!-- Node5 -->
<g id="node5" class="node"><title>Node5</title>
<g id="a_node5"><a xlink:href="class_engine_slot_voxel.html" target="_top" xlink:title="EngineSlotVoxel">
<polygon fill="white" stroke="black" points="181.5,-0.5 181.5,-19.5 270.5,-19.5 270.5,-0.5 181.5,-0.5"/>
<text text-anchor="middle" x="226" y="-7.5" font-family="Helvetica,sans-Serif" font-size="10.00">EngineSlotVoxel</text>
</a>
</g>
</g>
<!-- Node1&#45;&gt;Node5 -->
<g id="edge4" class="edge"><title>Node1&#45;&gt;Node5</title>
<path fill="none" stroke="midnightblue" d="M226,-45.8045C226,-36.9102 226,-26.7798 226,-19.7511"/>
<polygon fill="midnightblue" stroke="midnightblue" points="222.5,-46.083 226,-56.083 229.5,-46.083 222.5,-46.083"/>
</g>
<!-- Node6 -->
<g id="node6" class="node"><title>Node6</title>
<g id="a_node6"><a xlink:href="class_fuel_voxel.html" target="_top" xlink:title="FuelVoxel">
<polygon fill="white" stroke="black" points="289,-0.5 289,-19.5 349,-19.5 349,-0.5 289,-0.5"/>
<text text-anchor="middle" x="319" y="-7.5" font-family="Helvetica,sans-Serif" font-size="10.00">FuelVoxel</text>
</a>
</g>
</g>
<!-- Node1&#45;&gt;Node6 -->
<g id="edge5" class="edge"><title>Node1&#45;&gt;Node6</title>
<path fill="none" stroke="midnightblue" d="M249.806,-51.1774C266.919,-41.2407 289.465,-28.1492 304.095,-19.6545"/>
<polygon fill="midnightblue" stroke="midnightblue" points="247.832,-48.2758 240.942,-56.324 251.347,-54.3293 247.832,-48.2758"/>
</g>
<!-- Node7 -->
<g id="node7" class="node"><title>Node7</title>
<g id="a_node7"><a xlink:href="class_hardpoint_voxel.html" target="_top" xlink:title="HardpointVoxel">
<polygon fill="white" stroke="black" points="367.5,-0.5 367.5,-19.5 450.5,-19.5 450.5,-0.5 367.5,-0.5"/>
<text text-anchor="middle" x="409" y="-7.5" font-family="Helvetica,sans-Serif" font-size="10.00">HardpointVoxel</text>
</a>
</g>
</g>
<!-- Node1&#45;&gt;Node7 -->
<g id="edge6" class="edge"><title>Node1&#45;&gt;Node7</title>
<path fill="none" stroke="midnightblue" d="M264.743,-53.5677C299.265,-43.381 349.005,-28.7034 380.139,-19.5164"/>
<polygon fill="midnightblue" stroke="midnightblue" points="263.597,-50.2564 254.997,-56.4435 265.579,-56.9702 263.597,-50.2564"/>
</g>
<!-- Node2 -->
<g id="node2" class="node"><title>Node2</title>
<g id="a_node2"><a xlink:href="class_voxel.html" target="_top" xlink:title="Voxel">
<polygon fill="white" stroke="black" points="205.5,-112.5 205.5,-131.5 246.5,-131.5 246.5,-112.5 205.5,-112.5"/>
<text text-anchor="middle" x="226" y="-119.5" font-family="Helvetica,sans-Serif" font-size="10.00">Voxel</text>
</a>
</g>
</g>
<!-- Node2&#45;&gt;Node1 -->
<g id="edge1" class="edge"><title>Node2&#45;&gt;Node1</title>
<path fill="none" stroke="midnightblue" d="M226,-101.805C226,-92.9102 226,-82.7798 226,-75.7511"/>
<polygon fill="midnightblue" stroke="midnightblue" points="222.5,-102.083 226,-112.083 229.5,-102.083 222.5,-102.083"/>
</g>
</g>
</svg>
