<?xml version="1.0" encoding="UTF-8" standalone="no"?>
<!DOCTYPE svg PUBLIC "-//W3C//DTD SVG 1.1//EN"
 "http://www.w3.org/Graphics/SVG/1.1/DTD/svg11.dtd">
<!-- Generated by graphviz version 2.36.0 (20140111.2315)
 -->
<!-- Title: LuaFunction&lt; N, Return, Args &gt; Pages: 1 -->
<svg width="195pt" height="178pt"
 viewBox="0.00 0.00 195.00 178.00" xmlns="http://www.w3.org/2000/svg" xmlns:xlink="http://www.w3.org/1999/xlink">
<g id="graph0" class="graph" transform="scale(1 1) rotate(0) translate(4 174)">
<title>LuaFunction&lt; N, Return, Args &gt;</title>
<polygon fill="white" stroke="none" points="-4,4 -4,-174 191,-174 191,4 -4,4"/>
<!-- Node1 -->
<g id="node1" class="node"><title>Node1</title>
<polygon fill="#bfbfbf" stroke="black" points="15.5,-1 15.5,-31 138.5,-31 138.5,-1 15.5,-1"/>
<text text-anchor="start" x="23.5" y="-19" font-family="Helvetica,sans-Serif" font-size="10.00">LuaFunction&lt; N, Return,</text>
<text text-anchor="middle" x="77" y="-8" font-family="Helvetica,sans-Serif" font-size="10.00"> Args &gt;</text>
</g>
<!-- Node2 -->
<g id="node2" class="node"><title>Node2</title>
<g id="a_node2"><a xlink:href="struct_base_lua_function.html" target="_top" xlink:title="BaseLuaFunction">
<polygon fill="white" stroke="black" points="0,-80.5 0,-99.5 92,-99.5 92,-80.5 0,-80.5"/>
<text text-anchor="middle" x="46" y="-87.5" font-family="Helvetica,sans-Serif" font-size="10.00">BaseLuaFunction</text>
</a>
</g>
</g>
<!-- Node2&#45;&gt;Node1 -->
<g id="edge1" class="edge"><title>Node2&#45;&gt;Node1</title>
<path fill="none" stroke="midnightblue" d="M53.6622,-71.2038C58.9676,-58.8816 65.9357,-42.6978 70.8725,-31.2316"/>
<polygon fill="midnightblue" stroke="midnightblue" points="50.4178,-69.8889 49.6778,-80.4579 56.8472,-72.6572 50.4178,-69.8889"/>
</g>
<!-- Node3 -->
<g id="node3" class="node"><title>Node3</title>
<g id="a_node3"><a xlink:title="STL class. ">
<polygon fill="white" stroke="#bfbfbf" points="110,-80.5 110,-99.5 170,-99.5 170,-80.5 110,-80.5"/>
<text text-anchor="middle" x="140" y="-87.5" font-family="Helvetica,sans-Serif" font-size="10.00">std::string</text>
</a>
</g>
</g>
<!-- Node3&#45;&gt;Node1 -->
<g id="edge2" class="edge"><title>Node3&#45;&gt;Node1</title>
<path fill="none" stroke="#9a32cd" stroke-dasharray="5,2" d="M125.705,-72.6634C114.786,-60.1839 99.8869,-43.1565 89.4527,-31.2316"/>
<polygon fill="#9a32cd" stroke="#9a32cd" points="123.307,-75.2369 132.526,-80.4579 128.575,-70.6273 123.307,-75.2369"/>
<text text-anchor="middle" x="135.5" y="-53.5" font-family="Helvetica,sans-Serif" font-size="10.00"> m_name</text>
</g>
<!-- Node4 -->
<g id="node4" class="node"><title>Node4</title>
<g id="a_node4"><a xlink:title="STL class. ">
<polygon fill="white" stroke="#bfbfbf" points="92.5,-139 92.5,-169 187.5,-169 187.5,-139 92.5,-139"/>
<text text-anchor="start" x="100.5" y="-157" font-family="Helvetica,sans-Serif" font-size="10.00">std::basic_string&lt;</text>
<text text-anchor="middle" x="140" y="-146" font-family="Helvetica,sans-Serif" font-size="10.00"> char &gt;</text>
</a>
</g>
</g>
<!-- Node4&#45;&gt;Node3 -->
<g id="edge3" class="edge"><title>Node4&#45;&gt;Node3</title>
<path fill="none" stroke="midnightblue" d="M140,-128.871C140,-118.663 140,-107.408 140,-99.8419"/>
<polygon fill="midnightblue" stroke="midnightblue" points="136.5,-128.931 140,-138.931 143.5,-128.931 136.5,-128.931"/>
</g>
</g>
</svg>
