<?xml version="1.0" encoding="UTF-8" standalone="no"?>
<!DOCTYPE svg PUBLIC "-//W3C//DTD SVG 1.1//EN"
 "http://www.w3.org/Graphics/SVG/1.1/DTD/svg11.dtd">
<!-- Generated by graphviz version 2.36.0 (20140111.2315)
 -->
<!-- Title: VoxelParticleEngine Pages: 1 -->
<svg width="1004pt" height="160pt"
 viewBox="0.00 0.00 1004.00 160.00" xmlns="http://www.w3.org/2000/svg" xmlns:xlink="http://www.w3.org/1999/xlink">
<g id="graph0" class="graph" transform="scale(1 1) rotate(0) translate(4 156)">
<title>VoxelParticleEngine</title>
<polygon fill="white" stroke="none" points="-4,4 -4,-156 1000,-156 1000,4 -4,4"/>
<!-- Node1 -->
<g id="node1" class="node"><title>Node1</title>
<polygon fill="#bfbfbf" stroke="black" points="462,-69.5 462,-88.5 566,-88.5 566,-69.5 462,-69.5"/>
<text text-anchor="middle" x="514" y="-76.5" font-family="Helvetica,sans-Serif" font-size="10.00">VoxelParticleEngine</text>
</g>
<!-- Node6 -->
<g id="node6" class="node"><title>Node6</title>
<g id="a_node6"><a xlink:href="class_voxel_particle_renderer.html" target="_top" xlink:title="VoxelParticleRenderer">
<polygon fill="white" stroke="red" points="682.5,-132.5 682.5,-151.5 795.5,-151.5 795.5,-132.5 682.5,-132.5"/>
<text text-anchor="middle" x="739" y="-139.5" font-family="Helvetica,sans-Serif" font-size="10.00">VoxelParticleRenderer</text>
</a>
</g>
</g>
<!-- Node1&#45;&gt;Node6 -->
<g id="edge6" class="edge"><title>Node1&#45;&gt;Node6</title>
<path fill="none" stroke="#9a32cd" stroke-dasharray="5,2" d="M537.603,-94.0344C550.65,-102.038 567.667,-111.366 584,-117 615.623,-127.908 652.575,-134.11 682.355,-137.608"/>
<polygon fill="#9a32cd" stroke="#9a32cd" points="539.192,-90.8986 528.87,-88.5122 535.451,-96.815 539.192,-90.8986"/>
<text text-anchor="middle" x="624" y="-138" font-family="Helvetica,sans-Serif" font-size="10.00"> m_engine</text>
</g>
<!-- Node8 -->
<g id="node8" class="node"><title>Node8</title>
<g id="a_node8"><a xlink:href="class_voxel_particle_remover.html" target="_top" xlink:title="VoxelParticleRemover">
<polygon fill="white" stroke="red" points="683,-0.5 683,-19.5 795,-19.5 795,-0.5 683,-0.5"/>
<text text-anchor="middle" x="739" y="-7.5" font-family="Helvetica,sans-Serif" font-size="10.00">VoxelParticleRemover</text>
</a>
</g>
</g>
<!-- Node1&#45;&gt;Node8 -->
<g id="edge9" class="edge"><title>Node1&#45;&gt;Node8</title>
<path fill="none" stroke="#9a32cd" stroke-dasharray="5,2" d="M533.092,-62.8079C546.261,-51.9727 565.04,-38.3904 584,-31 615.427,-18.7506 652.88,-13.4567 682.981,-11.2463"/>
<polygon fill="#9a32cd" stroke="#9a32cd" points="530.649,-60.2914 525.304,-69.4388 535.187,-65.6215 530.649,-60.2914"/>
<text text-anchor="middle" x="624" y="-34" font-family="Helvetica,sans-Serif" font-size="10.00"> m_particleEngine</text>
</g>
<!-- Node2 -->
<g id="node2" class="node"><title>Node2</title>
<polygon fill="white" stroke="#bfbfbf" points="195.5,-89.5 195.5,-108.5 284.5,-108.5 284.5,-89.5 195.5,-89.5"/>
<text text-anchor="middle" x="240" y="-96.5" font-family="Helvetica,sans-Serif" font-size="10.00">std::stack&lt; int &gt;</text>
</g>
<!-- Node2&#45;&gt;Node1 -->
<g id="edge1" class="edge"><title>Node2&#45;&gt;Node1</title>
<path fill="none" stroke="#9a32cd" stroke-dasharray="5,2" d="M294.708,-95.0509C343.276,-91.4797 414.281,-86.2587 461.994,-82.7505"/>
<polygon fill="#9a32cd" stroke="#9a32cd" points="294.418,-91.5627 284.702,-95.7867 294.931,-98.5438 294.418,-91.5627"/>
<text text-anchor="middle" x="383" y="-96" font-family="Helvetica,sans-Serif" font-size="10.00"> m_freeParticleBufferIndices</text>
</g>
<!-- Node3 -->
<g id="node3" class="node"><title>Node3</title>
<polygon fill="white" stroke="#bfbfbf" points="176,-40 176,-70 304,-70 304,-40 176,-40"/>
<text text-anchor="start" x="184" y="-58" font-family="Helvetica,sans-Serif" font-size="10.00">std::vector&lt; VoxelParticle</text>
<text text-anchor="middle" x="240" y="-47" font-family="Helvetica,sans-Serif" font-size="10.00">Data &gt;</text>
</g>
<!-- Node3&#45;&gt;Node1 -->
<g id="edge2" class="edge"><title>Node3&#45;&gt;Node1</title>
<path fill="none" stroke="#9a32cd" stroke-dasharray="5,2" d="M314.292,-59.4224C352.924,-62.0044 401.078,-65.6184 444,-70 449.769,-70.5889 455.8,-71.2733 461.792,-71.9968"/>
<polygon fill="#9a32cd" stroke="#9a32cd" points="314.382,-55.9208 304.173,-58.7551 313.921,-62.9057 314.382,-55.9208"/>
<text text-anchor="middle" x="383" y="-73" font-family="Helvetica,sans-Serif" font-size="10.00"> m_cpuParticleBuffer</text>
</g>
<!-- Node4 -->
<g id="node4" class="node"><title>Node4</title>
<g id="a_node4"><a xlink:href="struct_voxel_particle_data.html" target="_top" xlink:title="VoxelParticleData">
<polygon fill="white" stroke="black" points="0.5,-45.5 0.5,-64.5 95.5,-64.5 95.5,-45.5 0.5,-45.5"/>
<text text-anchor="middle" x="48" y="-52.5" font-family="Helvetica,sans-Serif" font-size="10.00">VoxelParticleData</text>
</a>
</g>
</g>
<!-- Node4&#45;&gt;Node3 -->
<g id="edge3" class="edge"><title>Node4&#45;&gt;Node3</title>
<path fill="none" stroke="#9a32cd" stroke-dasharray="5,2" d="M106.127,-55C128.072,-55 153.241,-55 175.731,-55"/>
<polygon fill="#9a32cd" stroke="#9a32cd" points="105.966,-51.5001 95.9663,-55 105.966,-58.5001 105.966,-51.5001"/>
<text text-anchor="middle" x="136" y="-58" font-family="Helvetica,sans-Serif" font-size="10.00"> elements</text>
</g>
<!-- Node5 -->
<g id="node5" class="node"><title>Node5</title>
<polygon fill="white" stroke="#bfbfbf" points="848,-97 848,-127 996,-127 996,-97 848,-97"/>
<text text-anchor="start" x="856" y="-115" font-family="Helvetica,sans-Serif" font-size="10.00">std::unique_ptr&lt; VoxelParticle</text>
<text text-anchor="middle" x="922" y="-104" font-family="Helvetica,sans-Serif" font-size="10.00">Renderer &gt;</text>
</g>
<!-- Node5&#45;&gt;Node1 -->
<g id="edge4" class="edge"><title>Node5&#45;&gt;Node1</title>
<path fill="none" stroke="#9a32cd" stroke-dasharray="5,2" d="M837.66,-105.226C756.02,-98.5903 634.225,-88.6907 566.009,-83.1461"/>
<polygon fill="#9a32cd" stroke="#9a32cd" points="837.657,-108.737 847.908,-106.059 838.224,-101.76 837.657,-108.737"/>
<text text-anchor="middle" x="739" y="-105" font-family="Helvetica,sans-Serif" font-size="10.00"> m_renderer</text>
</g>
<!-- Node6&#45;&gt;Node5 -->
<g id="edge5" class="edge"><title>Node6&#45;&gt;Node5</title>
<path fill="none" stroke="#9a32cd" stroke-dasharray="5,2" d="M805.984,-131.063C819.555,-128.814 833.922,-126.433 847.733,-124.144"/>
<polygon fill="#9a32cd" stroke="#9a32cd" points="805.076,-127.666 795.783,-132.754 806.221,-134.572 805.076,-127.666"/>
<text text-anchor="middle" x="822" y="-133" font-family="Helvetica,sans-Serif" font-size="10.00"> ptr</text>
</g>
<!-- Node7 -->
<g id="node7" class="node"><title>Node7</title>
<polygon fill="white" stroke="#bfbfbf" points="848,-31 848,-61 996,-61 996,-31 848,-31"/>
<text text-anchor="start" x="856" y="-49" font-family="Helvetica,sans-Serif" font-size="10.00">std::unique_ptr&lt; VoxelParticle</text>
<text text-anchor="middle" x="922" y="-38" font-family="Helvetica,sans-Serif" font-size="10.00">Remover &gt;</text>
</g>
<!-- Node7&#45;&gt;Node1 -->
<g id="edge7" class="edge"><title>Node7&#45;&gt;Node1</title>
<path fill="none" stroke="#9a32cd" stroke-dasharray="5,2" d="M837.66,-52.7739C756.02,-59.4097 634.225,-69.3093 566.009,-74.8539"/>
<polygon fill="#9a32cd" stroke="#9a32cd" points="838.224,-56.2397 847.908,-51.941 837.657,-49.2627 838.224,-56.2397"/>
<text text-anchor="middle" x="739" y="-69" font-family="Helvetica,sans-Serif" font-size="10.00"> m_remover</text>
</g>
<!-- Node8&#45;&gt;Node7 -->
<g id="edge8" class="edge"><title>Node8&#45;&gt;Node7</title>
<path fill="none" stroke="#9a32cd" stroke-dasharray="5,2" d="M798.176,-21.5709C813.986,-24.7154 831.31,-28.1611 847.834,-31.4476"/>
<polygon fill="#9a32cd" stroke="#9a32cd" points="798.52,-18.0709 788.029,-19.5528 797.155,-24.9364 798.52,-18.0709"/>
<text text-anchor="middle" x="822" y="-30" font-family="Helvetica,sans-Serif" font-size="10.00"> ptr</text>
</g>
</g>
</svg>
