<?xml version="1.0" encoding="UTF-8" standalone="no"?>
<!DOCTYPE svg PUBLIC "-//W3C//DTD SVG 1.1//EN"
 "http://www.w3.org/Graphics/SVG/1.1/DTD/svg11.dtd">
<!-- Generated by graphviz version 2.36.0 (20140111.2315)
 -->
<!-- Title: PirateFaction Pages: 1 -->
<svg width="698pt" height="104pt"
 viewBox="0.00 0.00 698.00 104.00" xmlns="http://www.w3.org/2000/svg" xmlns:xlink="http://www.w3.org/1999/xlink">
<g id="graph0" class="graph" transform="scale(1 1) rotate(0) translate(4 100)">
<title>PirateFaction</title>
<polygon fill="white" stroke="none" points="-4,4 -4,-100 694,-100 694,4 -4,4"/>
<!-- Node1 -->
<g id="node1" class="node"><title>Node1</title>
<polygon fill="#bfbfbf" stroke="black" points="0,-55.5 0,-74.5 74,-74.5 74,-55.5 0,-55.5"/>
<text text-anchor="middle" x="37" y="-62.5" font-family="Helvetica,sans-Serif" font-size="10.00">PirateFaction</text>
</g>
<!-- Node5 -->
<g id="node5" class="node"><title>Node5</title>
<g id="a_node5"><a xlink:href="class_faction_matrix.html" target="_top" xlink:title="FactionMatrix">
<polygon fill="white" stroke="red" points="184,-76.5 184,-95.5 260,-95.5 260,-76.5 184,-76.5"/>
<text text-anchor="middle" x="222" y="-83.5" font-family="Helvetica,sans-Serif" font-size="10.00">FactionMatrix</text>
</a>
</g>
</g>
<!-- Node1&#45;&gt;Node5 -->
<g id="edge6" class="edge"><title>Node1&#45;&gt;Node5</title>
<path fill="none" stroke="#9a32cd" stroke-dasharray="5,2" d="M84.2464,-70.307C115.13,-73.851 155.206,-78.4499 183.979,-81.7517"/>
<polygon fill="#9a32cd" stroke="#9a32cd" points="84.4888,-66.8119 74.1549,-69.1489 83.6907,-73.7663 84.4888,-66.8119"/>
<text text-anchor="middle" x="129" y="-82" font-family="Helvetica,sans-Serif" font-size="10.00"> m_pirateFaction</text>
</g>
<!-- Node2 -->
<g id="node2" class="node"><title>Node2</title>
<g id="a_node2"><a xlink:href="class_faction.html" target="_top" xlink:title="Faction">
<polygon fill="white" stroke="black" points="370.5,-38.5 370.5,-57.5 419.5,-57.5 419.5,-38.5 370.5,-38.5"/>
<text text-anchor="middle" x="395" y="-45.5" font-family="Helvetica,sans-Serif" font-size="10.00">Faction</text>
</a>
</g>
</g>
<!-- Node2&#45;&gt;Node1 -->
<g id="edge1" class="edge"><title>Node2&#45;&gt;Node1</title>
<path fill="none" stroke="midnightblue" d="M360.465,-49.6014C293.39,-52.8044 143.225,-59.9752 74.0943,-63.2764"/>
<polygon fill="midnightblue" stroke="midnightblue" points="360.67,-53.0957 370.491,-49.1226 360.336,-46.1037 360.67,-53.0957"/>
</g>
<!-- Node4 -->
<g id="node4" class="node"><title>Node4</title>
<polygon fill="white" stroke="#bfbfbf" points="510.5,-33 510.5,-63 689.5,-63 689.5,-33 510.5,-33"/>
<text text-anchor="start" x="518.5" y="-51" font-family="Helvetica,sans-Serif" font-size="10.00">std::map&lt; Faction *,</text>
<text text-anchor="middle" x="600" y="-40" font-family="Helvetica,sans-Serif" font-size="10.00"> std::shared_ptr&lt; FactionRelation &gt; &gt;</text>
</g>
<!-- Node2&#45;&gt;Node4 -->
<g id="edge4" class="edge"><title>Node2&#45;&gt;Node4</title>
<path fill="none" stroke="#9a32cd" stroke-dasharray="5,2" d="M429.835,-48C451.873,-48 481.727,-48 510.222,-48"/>
<polygon fill="#9a32cd" stroke="#9a32cd" points="429.684,-44.5001 419.684,-48 429.684,-51.5001 429.684,-44.5001"/>
<text text-anchor="middle" x="465" y="-51" font-family="Helvetica,sans-Serif" font-size="10.00"> keys</text>
</g>
<!-- Node3 -->
<g id="node3" class="node"><title>Node3</title>
<g id="a_node3"><a xlink:title="STL class. ">
<polygon fill="white" stroke="#bfbfbf" points="192,-0.5 192,-19.5 252,-19.5 252,-0.5 192,-0.5"/>
<text text-anchor="middle" x="222" y="-7.5" font-family="Helvetica,sans-Serif" font-size="10.00">std::string</text>
</a>
</g>
</g>
<!-- Node3&#45;&gt;Node2 -->
<g id="edge2" class="edge"><title>Node3&#45;&gt;Node2</title>
<path fill="none" stroke="#9a32cd" stroke-dasharray="5,2" d="M262.201,-3.83983C288.46,-1.32186 323.338,-1.14387 352,-12 366.01,-17.3066 378.542,-29.514 386.194,-38.2412"/>
<polygon fill="#9a32cd" stroke="#9a32cd" points="261.787,-0.364216 252.234,-4.94592 262.559,-7.32151 261.787,-0.364216"/>
<text text-anchor="middle" x="315" y="-26" font-family="Helvetica,sans-Serif" font-size="10.00"> m_printName</text>
<text text-anchor="middle" x="315" y="-15" font-family="Helvetica,sans-Serif" font-size="10.00">m_key</text>
</g>
<!-- Node4&#45;&gt;Node2 -->
<g id="edge3" class="edge"><title>Node4&#45;&gt;Node2</title>
<path fill="none" stroke="#9a32cd" stroke-dasharray="5,2" d="M522.002,-31.5895C495.272,-28.2053 465.19,-26.9963 438,-32 430.786,-33.3275 423.208,-35.8373 416.504,-38.4822"/>
<polygon fill="#9a32cd" stroke="#9a32cd" points="521.684,-35.0787 532.07,-32.9846 522.645,-28.145 521.684,-35.0787"/>
<text text-anchor="middle" x="465" y="-35" font-family="Helvetica,sans-Serif" font-size="10.00"> m_relations</text>
</g>
<!-- Node5&#45;&gt;Node2 -->
<g id="edge5" class="edge"><title>Node5&#45;&gt;Node2</title>
<path fill="none" stroke="#9a32cd" stroke-dasharray="5,2" d="M270.335,-78.0997C294.849,-73.6876 325.185,-67.7271 352,-61 357.923,-59.5141 364.245,-57.6874 370.14,-55.8779"/>
<polygon fill="#9a32cd" stroke="#9a32cd" points="269.449,-74.7022 260.213,-79.8935 270.671,-81.5948 269.449,-74.7022"/>
<text text-anchor="middle" x="315" y="-79" font-family="Helvetica,sans-Serif" font-size="10.00"> m_factionMatrix</text>
</g>
</g>
</svg>
