<?xml version="1.0" encoding="UTF-8" standalone="no"?>
<!DOCTYPE svg PUBLIC "-//W3C//DTD SVG 1.1//EN"
 "http://www.w3.org/Graphics/SVG/1.1/DTD/svg11.dtd">
<!-- Generated by graphviz version 2.36.0 (20140111.2315)
 -->
<!-- Title: VoxelParticleSpawnBase Pages: 1 -->
<svg width="662pt" height="175pt"
 viewBox="0.00 0.00 662.00 175.00" xmlns="http://www.w3.org/2000/svg" xmlns:xlink="http://www.w3.org/1999/xlink">
<g id="graph0" class="graph" transform="scale(1 1) rotate(0) translate(4 171)">
<title>VoxelParticleSpawnBase</title>
<polygon fill="white" stroke="none" points="-4,4 -4,-171 658,-171 658,4 -4,4"/>
<!-- Node1 -->
<g id="node1" class="node"><title>Node1</title>
<polygon fill="#bfbfbf" stroke="black" points="528,-42.5 528,-61.5 654,-61.5 654,-42.5 528,-42.5"/>
<text text-anchor="middle" x="591" y="-49.5" font-family="Helvetica,sans-Serif" font-size="10.00">VoxelParticleSpawnBase</text>
</g>
<!-- Node2 -->
<g id="node2" class="node"><title>Node2</title>
<g id="a_node2"><a xlink:href="class_voxel_cluster.html" target="_top" xlink:title="VoxelCluster">
<polygon fill="white" stroke="black" points="281,-76.5 281,-95.5 353,-95.5 353,-76.5 281,-76.5"/>
<text text-anchor="middle" x="317" y="-83.5" font-family="Helvetica,sans-Serif" font-size="10.00">VoxelCluster</text>
</a>
</g>
</g>
<!-- Node2&#45;&gt;Node1 -->
<g id="edge1" class="edge"><title>Node2&#45;&gt;Node1</title>
<path fill="none" stroke="#9a32cd" stroke-dasharray="5,2" d="M363.051,-81.2857C401.995,-77.1034 459.773,-70.6426 510,-64 515.848,-63.2266 521.93,-62.384 528.012,-61.5157"/>
<polygon fill="#9a32cd" stroke="#9a32cd" points="362.652,-77.8083 353.081,-82.3508 363.396,-84.7687 362.652,-77.8083"/>
<text text-anchor="middle" x="445" y="-83" font-family="Helvetica,sans-Serif" font-size="10.00"> m_creator</text>
</g>
<!-- Node3 -->
<g id="node3" class="node"><title>Node3</title>
<polygon fill="white" stroke="#bfbfbf" points="0,-137 0,-167 146,-167 146,-137 0,-137"/>
<text text-anchor="start" x="8" y="-155" font-family="Helvetica,sans-Serif" font-size="10.00">std::unique_ptr&lt; VoxelRender</text>
<text text-anchor="middle" x="73" y="-144" font-family="Helvetica,sans-Serif" font-size="10.00">Data &gt;</text>
</g>
<!-- Node3&#45;&gt;Node2 -->
<g id="edge2" class="edge"><title>Node3&#45;&gt;Node2</title>
<path fill="none" stroke="#9a32cd" stroke-dasharray="5,2" d="M156.321,-139.284C187.361,-133.399 222.713,-125.373 254,-115 269.566,-109.84 286.366,-101.816 298.547,-95.5151"/>
<polygon fill="#9a32cd" stroke="#9a32cd" points="155.601,-135.858 146.406,-141.12 156.876,-142.741 155.601,-135.858"/>
<text text-anchor="middle" x="209" y="-141" font-family="Helvetica,sans-Serif" font-size="10.00"> m_voxelRenderData</text>
</g>
<!-- Node4 -->
<g id="node4" class="node"><title>Node4</title>
<g id="a_node4"><a xlink:href="class_transform.html" target="_top" xlink:title="Transform">
<polygon fill="white" stroke="black" points="43.5,-98.5 43.5,-117.5 102.5,-117.5 102.5,-98.5 43.5,-98.5"/>
<text text-anchor="middle" x="73" y="-105.5" font-family="Helvetica,sans-Serif" font-size="10.00">Transform</text>
</a>
</g>
</g>
<!-- Node4&#45;&gt;Node2 -->
<g id="edge3" class="edge"><title>Node4&#45;&gt;Node2</title>
<path fill="none" stroke="#9a32cd" stroke-dasharray="5,2" d="M112.958,-104.458C159.299,-100.246 235.988,-93.2738 280.672,-89.2117"/>
<polygon fill="#9a32cd" stroke="#9a32cd" points="112.353,-100.999 102.711,-105.39 112.987,-107.97 112.353,-100.999"/>
<text text-anchor="middle" x="209" y="-103" font-family="Helvetica,sans-Serif" font-size="10.00"> m_transform</text>
</g>
<!-- Node5 -->
<g id="node5" class="node"><title>Node5</title>
<polygon fill="white" stroke="#bfbfbf" points="15,-49 15,-79 131,-79 131,-49 15,-49"/>
<text text-anchor="start" x="23" y="-67" font-family="Helvetica,sans-Serif" font-size="10.00">std::unordered_map</text>
<text text-anchor="middle" x="73" y="-56" font-family="Helvetica,sans-Serif" font-size="10.00">&lt; glm::ivec3, Voxel * &gt;</text>
</g>
<!-- Node5&#45;&gt;Node2 -->
<g id="edge4" class="edge"><title>Node5&#45;&gt;Node2</title>
<path fill="none" stroke="#9a32cd" stroke-dasharray="5,2" d="M141.483,-67.7181C175.313,-69.8756 216.88,-72.9706 254,-77 262.759,-77.9507 272.182,-79.2009 280.972,-80.4657"/>
<polygon fill="#9a32cd" stroke="#9a32cd" points="141.445,-64.209 131.246,-67.0787 141.009,-71.1954 141.445,-64.209"/>
<text text-anchor="middle" x="209" y="-80" font-family="Helvetica,sans-Serif" font-size="10.00"> m_voxels</text>
</g>
<!-- Node6 -->
<g id="node6" class="node"><title>Node6</title>
<polygon fill="white" stroke="#bfbfbf" points="0,-0 0,-30 146,-30 146,-0 0,-0"/>
<text text-anchor="start" x="8" y="-18" font-family="Helvetica,sans-Serif" font-size="10.00">std::unique_ptr&lt; VoxelCluster</text>
<text text-anchor="middle" x="73" y="-7" font-family="Helvetica,sans-Serif" font-size="10.00">Bounds &gt;</text>
</g>
<!-- Node6&#45;&gt;Node2 -->
<g id="edge5" class="edge"><title>Node6&#45;&gt;Node2</title>
<path fill="none" stroke="#9a32cd" stroke-dasharray="5,2" d="M156.042,-28.8207C187.194,-35.2093 222.695,-43.8856 254,-55 270.104,-60.7176 287.419,-69.6302 299.646,-76.4343"/>
<polygon fill="#9a32cd" stroke="#9a32cd" points="156.584,-25.3599 146.091,-26.8267 155.208,-32.2234 156.584,-25.3599"/>
<text text-anchor="middle" x="209" y="-58" font-family="Helvetica,sans-Serif" font-size="10.00"> m_bounds</text>
</g>
<!-- Node7 -->
<g id="node7" class="node"><title>Node7</title>
<g id="a_node7"><a xlink:href="class_property.html" target="_top" xlink:title="Property\&lt; float \&gt;">
<polygon fill="white" stroke="red" points="272.5,-9.5 272.5,-28.5 361.5,-28.5 361.5,-9.5 272.5,-9.5"/>
<text text-anchor="middle" x="317" y="-16.5" font-family="Helvetica,sans-Serif" font-size="10.00">Property&lt; float &gt;</text>
</a>
</g>
</g>
<!-- Node7&#45;&gt;Node1 -->
<g id="edge6" class="edge"><title>Node7&#45;&gt;Node1</title>
<path fill="none" stroke="#9a32cd" stroke-dasharray="5,2" d="M371.575,-13.9659C410.38,-11.6024 463.901,-10.9975 510,-20 532.169,-24.3293 556.019,-34.6847 571.854,-42.451"/>
<polygon fill="#9a32cd" stroke="#9a32cd" points="371.284,-10.4774 361.54,-14.636 371.751,-17.4618 371.284,-10.4774"/>
<text text-anchor="middle" x="445" y="-56" font-family="Helvetica,sans-Serif" font-size="10.00"> m_particleAngularDampening</text>
<text text-anchor="middle" x="445" y="-45" font-family="Helvetica,sans-Serif" font-size="10.00">m_particleDampening</text>
<text text-anchor="middle" x="445" y="-34" font-family="Helvetica,sans-Serif" font-size="10.00">m_particleAngularBaseForce</text>
<text text-anchor="middle" x="445" y="-23" font-family="Helvetica,sans-Serif" font-size="10.00">m_particleBaseForce</text>
</g>
</g>
</svg>
