<?xml version="1.0" encoding="UTF-8" standalone="no"?>
<!DOCTYPE svg PUBLIC "-//W3C//DTD SVG 1.1//EN"
 "http://www.w3.org/Graphics/SVG/1.1/DTD/svg11.dtd">
<!-- Generated by graphviz version 2.36.0 (20140111.2315)
 -->
<!-- Title: TextFieldHudget Pages: 1 -->
<svg width="198pt" height="312pt"
 viewBox="0.00 0.00 198.00 312.00" xmlns="http://www.w3.org/2000/svg" xmlns:xlink="http://www.w3.org/1999/xlink">
<g id="graph0" class="graph" transform="scale(1 1) rotate(0) translate(4 308)">
<title>TextFieldHudget</title>
<polygon fill="white" stroke="none" points="-4,4 -4,-308 194,-308 194,4 -4,4"/>
<!-- Node1 -->
<g id="node1" class="node"><title>Node1</title>
<polygon fill="#bfbfbf" stroke="black" points="92.5,-148.5 92.5,-167.5 179.5,-167.5 179.5,-148.5 92.5,-148.5"/>
<text text-anchor="middle" x="136" y="-155.5" font-family="Helvetica,sans-Serif" font-size="10.00">TextFieldHudget</text>
</g>
<!-- Node5 -->
<g id="node5" class="node"><title>Node5</title>
<g id="a_node5"><a xlink:href="class_text_field_hudget_voxels.html" target="_top" xlink:title="TextFieldHudgetVoxels">
<polygon fill="white" stroke="red" points="-0.5,-80.5 -0.5,-99.5 116.5,-99.5 116.5,-80.5 -0.5,-80.5"/>
<text text-anchor="middle" x="58" y="-87.5" font-family="Helvetica,sans-Serif" font-size="10.00">TextFieldHudgetVoxels</text>
</a>
</g>
</g>
<!-- Node1&#45;&gt;Node5 -->
<g id="edge5" class="edge"><title>Node1&#45;&gt;Node5</title>
<path fill="none" stroke="#9a32cd" stroke-dasharray="5,2" d="M82.8595,-147.857C73.5426,-143.867 64.9431,-138.158 59,-130 52.6191,-121.241 53.8237,-108.196 55.6245,-99.6446"/>
<polygon fill="#9a32cd" stroke="#9a32cd" points="81.7496,-151.178 92.3437,-151.302 84.1394,-144.598 81.7496,-151.178"/>
<text text-anchor="middle" x="101.5" y="-121.5" font-family="Helvetica,sans-Serif" font-size="10.00"> m_textFieldHudget</text>
</g>
<!-- Node2 -->
<g id="node2" class="node"><title>Node2</title>
<g id="a_node2"><a xlink:href="class_hudget.html" target="_top" xlink:title="Hudget">
<polygon fill="white" stroke="black" points="112.5,-216.5 112.5,-235.5 159.5,-235.5 159.5,-216.5 112.5,-216.5"/>
<text text-anchor="middle" x="136" y="-223.5" font-family="Helvetica,sans-Serif" font-size="10.00">Hudget</text>
</a>
</g>
</g>
<!-- Node2&#45;&gt;Node1 -->
<g id="edge1" class="edge"><title>Node2&#45;&gt;Node1</title>
<path fill="none" stroke="midnightblue" d="M136,-206.041C136,-193.472 136,-177.563 136,-167.841"/>
<polygon fill="midnightblue" stroke="midnightblue" points="132.5,-206.372 136,-216.372 139.5,-206.372 132.5,-206.372"/>
</g>
<!-- Node3 -->
<g id="node3" class="node"><title>Node3</title>
<g id="a_node3"><a xlink:href="class_h_u_d.html" target="_top" xlink:title="HUD">
<polygon fill="white" stroke="red" points="117.5,-284.5 117.5,-303.5 154.5,-303.5 154.5,-284.5 117.5,-284.5"/>
<text text-anchor="middle" x="136" y="-291.5" font-family="Helvetica,sans-Serif" font-size="10.00">HUD</text>
</a>
</g>
</g>
<!-- Node3&#45;&gt;Node2 -->
<g id="edge2" class="edge"><title>Node3&#45;&gt;Node2</title>
<path fill="none" stroke="#9a32cd" stroke-dasharray="5,2" d="M136,-274.041C136,-261.472 136,-245.563 136,-235.841"/>
<polygon fill="#9a32cd" stroke="#9a32cd" points="132.5,-274.372 136,-284.372 139.5,-274.372 132.5,-274.372"/>
<text text-anchor="middle" x="152.5" y="-257.5" font-family="Helvetica,sans-Serif" font-size="10.00"> m_hud</text>
</g>
<!-- Node4 -->
<g id="node4" class="node"><title>Node4</title>
<polygon fill="white" stroke="#bfbfbf" points="60,-1 60,-31 190,-31 190,-1 60,-1"/>
<text text-anchor="start" x="68" y="-19" font-family="Helvetica,sans-Serif" font-size="10.00">std::unique_ptr&lt; TextField</text>
<text text-anchor="middle" x="125" y="-8" font-family="Helvetica,sans-Serif" font-size="10.00">HudgetVoxels &gt;</text>
</g>
<!-- Node4&#45;&gt;Node1 -->
<g id="edge3" class="edge"><title>Node4&#45;&gt;Node1</title>
<path fill="none" stroke="#9a32cd" stroke-dasharray="5,2" d="M133.343,-40.7768C140.325,-63.6104 148.482,-99.0984 144,-130 143.102,-136.193 141.102,-142.943 139.326,-148.145"/>
<polygon fill="#9a32cd" stroke="#9a32cd" points="136.668,-39.6815 130.268,-31.2381 130.005,-41.8297 136.668,-39.6815"/>
<text text-anchor="middle" x="167" y="-87.5" font-family="Helvetica,sans-Serif" font-size="10.00"> m_voxels</text>
</g>
<!-- Node5&#45;&gt;Node4 -->
<g id="edge4" class="edge"><title>Node5&#45;&gt;Node4</title>
<path fill="none" stroke="#9a32cd" stroke-dasharray="5,2" d="M72.8683,-73.0221C84.5099,-60.5118 100.553,-43.2711 111.757,-31.2316"/>
<polygon fill="#9a32cd" stroke="#9a32cd" points="70.199,-70.7529 65.9489,-80.4579 75.3235,-75.5215 70.199,-70.7529"/>
<text text-anchor="middle" x="101.5" y="-53.5" font-family="Helvetica,sans-Serif" font-size="10.00"> ptr</text>
</g>
<!-- Node6 -->
<g id="node6" class="node"><title>Node6</title>
<g id="a_node6"><a xlink:title="STL class. ">
<polygon fill="white" stroke="#bfbfbf" points="14,-216.5 14,-235.5 74,-235.5 74,-216.5 14,-216.5"/>
<text text-anchor="middle" x="44" y="-223.5" font-family="Helvetica,sans-Serif" font-size="10.00">std::string</text>
</a>
</g>
</g>
<!-- Node6&#45;&gt;Node1 -->
<g id="edge7" class="edge"><title>Node6&#45;&gt;Node1</title>
<path fill="none" stroke="#9a32cd" stroke-dasharray="5,2" d="M57.9011,-208.913C64.9347,-201.371 73.8974,-192.613 83,-186 93.0255,-178.717 105.298,-172.329 115.507,-167.597"/>
<polygon fill="#9a32cd" stroke="#9a32cd" points="55.1979,-206.684 51.1107,-216.459 60.4014,-211.367 55.1979,-206.684"/>
<text text-anchor="middle" x="107.5" y="-189.5" font-family="Helvetica,sans-Serif" font-size="10.00"> m_content</text>
</g>
<!-- Node6&#45;&gt;Node5 -->
<g id="edge6" class="edge"><title>Node6&#45;&gt;Node5</title>
<path fill="none" stroke="#9a32cd" stroke-dasharray="5,2" d="M38.1908,-206.42C34.1006,-190.749 30.0062,-167.777 34,-148 37.6557,-129.897 47.233,-110.389 53.1246,-99.5364"/>
<polygon fill="#9a32cd" stroke="#9a32cd" points="34.9294,-207.744 41.0526,-216.39 41.6577,-205.812 34.9294,-207.744"/>
<text text-anchor="middle" x="58.5" y="-155.5" font-family="Helvetica,sans-Serif" font-size="10.00"> m_content</text>
</g>
</g>
</svg>
