<?xml version="1.0" encoding="UTF-8" standalone="no"?>
<!DOCTYPE svg PUBLIC "-//W3C//DTD SVG 1.1//EN"
 "http://www.w3.org/Graphics/SVG/1.1/DTD/svg11.dtd">
<!-- Generated by graphviz version 2.36.0 (20140111.2315)
 -->
<!-- Title: DefendAreaTask Pages: 1 -->
<svg width="632pt" height="183pt"
 viewBox="0.00 0.00 632.00 183.00" xmlns="http://www.w3.org/2000/svg" xmlns:xlink="http://www.w3.org/1999/xlink">
<g id="graph0" class="graph" transform="scale(1 1) rotate(0) translate(4 179)">
<title>DefendAreaTask</title>
<polygon fill="white" stroke="none" points="-4,4 -4,-179 628,-179 628,4 -4,4"/>
<!-- Node1 -->
<g id="node1" class="node"><title>Node1</title>
<polygon fill="#bfbfbf" stroke="black" points="536,-71.5 536,-90.5 624,-90.5 624,-71.5 536,-71.5"/>
<text text-anchor="middle" x="580" y="-78.5" font-family="Helvetica,sans-Serif" font-size="10.00">DefendAreaTask</text>
</g>
<!-- Node2 -->
<g id="node2" class="node"><title>Node2</title>
<g id="a_node2"><a xlink:href="class_ai_group_task.html" target="_top" xlink:title="AiGroupTask">
<polygon fill="white" stroke="black" points="325.5,-138.5 325.5,-157.5 398.5,-157.5 398.5,-138.5 325.5,-138.5"/>
<text text-anchor="middle" x="362" y="-145.5" font-family="Helvetica,sans-Serif" font-size="10.00">AiGroupTask</text>
</a>
</g>
</g>
<!-- Node2&#45;&gt;Node1 -->
<g id="edge1" class="edge"><title>Node2&#45;&gt;Node1</title>
<path fill="none" stroke="midnightblue" d="M408.909,-139.836C440.175,-133.602 482.22,-123.886 518,-111 533.434,-105.441 550.091,-97.0746 562.093,-90.5879"/>
<polygon fill="midnightblue" stroke="midnightblue" points="407.889,-136.469 398.743,-141.817 409.228,-143.34 407.889,-136.469"/>
</g>
<!-- Node3 -->
<g id="node3" class="node"><title>Node3</title>
<g id="a_node3"><a xlink:href="class_scriptable.html" target="_top" xlink:title="Scriptable">
<polygon fill="white" stroke="black" points="0,-155.5 0,-174.5 60,-174.5 60,-155.5 0,-155.5"/>
<text text-anchor="middle" x="30" y="-162.5" font-family="Helvetica,sans-Serif" font-size="10.00">Scriptable</text>
</a>
</g>
</g>
<!-- Node3&#45;&gt;Node2 -->
<g id="edge2" class="edge"><title>Node3&#45;&gt;Node2</title>
<path fill="none" stroke="midnightblue" d="M70.044,-166.986C73.4108,-167.039 76.765,-167.049 80,-167 168.919,-165.667 191.468,-169.397 280,-161 294.888,-159.588 311.189,-157.147 325.241,-154.759"/>
<polygon fill="midnightblue" stroke="midnightblue" points="70.102,-163.487 60.0125,-166.72 69.9159,-170.484 70.102,-163.487"/>
</g>
<!-- Node4 -->
<g id="node4" class="node"><title>Node4</title>
<g id="a_node4"><a xlink:href="class_squad.html" target="_top" xlink:title="Squad">
<polygon fill="white" stroke="red" points="136,-133.5 136,-152.5 180,-152.5 180,-133.5 136,-133.5"/>
<text text-anchor="middle" x="158" y="-140.5" font-family="Helvetica,sans-Serif" font-size="10.00">Squad</text>
</a>
</g>
</g>
<!-- Node3&#45;&gt;Node4 -->
<g id="edge4" class="edge"><title>Node3&#45;&gt;Node4</title>
<path fill="none" stroke="midnightblue" d="M70.1387,-158.166C91.8132,-154.382 117.909,-149.825 135.804,-146.701"/>
<polygon fill="midnightblue" stroke="midnightblue" points="69.4726,-154.73 60.2236,-159.897 70.6766,-161.625 69.4726,-154.73"/>
</g>
<!-- Node4&#45;&gt;Node2 -->
<g id="edge3" class="edge"><title>Node4&#45;&gt;Node2</title>
<path fill="none" stroke="#9a32cd" stroke-dasharray="5,2" d="M190.297,-143.775C226.756,-144.677 286.869,-146.165 325.166,-147.113"/>
<polygon fill="#9a32cd" stroke="#9a32cd" points="190.319,-140.274 180.236,-143.526 190.146,-147.272 190.319,-140.274"/>
<text text-anchor="middle" x="258" y="-149" font-family="Helvetica,sans-Serif" font-size="10.00"> m_squad</text>
</g>
<!-- Node5 -->
<g id="node5" class="node"><title>Node5</title>
<polygon fill="white" stroke="#bfbfbf" points="311.5,-89 311.5,-119 412.5,-119 412.5,-89 311.5,-89"/>
<text text-anchor="start" x="319.5" y="-107" font-family="Helvetica,sans-Serif" font-size="10.00">std::vector&lt; Handle</text>
<text text-anchor="middle" x="362" y="-96" font-family="Helvetica,sans-Serif" font-size="10.00">&lt; WorldObject &gt; &gt;</text>
</g>
<!-- Node5&#45;&gt;Node1 -->
<g id="edge5" class="edge"><title>Node5&#45;&gt;Node1</title>
<path fill="none" stroke="#9a32cd" stroke-dasharray="5,2" d="M422.893,-97.6225C458.751,-93.8043 503.501,-89.0392 535.884,-85.591"/>
<polygon fill="#9a32cd" stroke="#9a32cd" points="422.128,-94.1841 412.555,-98.7233 422.869,-101.145 422.128,-94.1841"/>
<text text-anchor="middle" x="481" y="-99" font-family="Helvetica,sans-Serif" font-size="10.00"> m_enemies</text>
</g>
<!-- Node6 -->
<g id="node6" class="node"><title>Node6</title>
<g id="a_node6"><a xlink:href="class_handle.html" target="_top" xlink:title="Handle\&lt; WorldObject \&gt;">
<polygon fill="white" stroke="black" points="98.5,-94.5 98.5,-113.5 217.5,-113.5 217.5,-94.5 98.5,-94.5"/>
<text text-anchor="middle" x="158" y="-101.5" font-family="Helvetica,sans-Serif" font-size="10.00">Handle&lt; WorldObject &gt;</text>
</a>
</g>
</g>
<!-- Node6&#45;&gt;Node5 -->
<g id="edge6" class="edge"><title>Node6&#45;&gt;Node5</title>
<path fill="none" stroke="#9a32cd" stroke-dasharray="5,2" d="M228.003,-104C255.388,-104 286.272,-104 311.382,-104"/>
<polygon fill="#9a32cd" stroke="#9a32cd" points="227.698,-100.5 217.698,-104 227.698,-107.5 227.698,-100.5"/>
<text text-anchor="middle" x="258" y="-107" font-family="Helvetica,sans-Serif" font-size="10.00"> elements</text>
</g>
<!-- Node7 -->
<g id="node7" class="node"><title>Node7</title>
<polygon fill="white" stroke="#bfbfbf" points="308,-49.5 308,-68.5 416,-68.5 416,-49.5 308,-49.5"/>
<text text-anchor="middle" x="362" y="-56.5" font-family="Helvetica,sans-Serif" font-size="10.00">std::list&lt; glm::vec3 &gt;</text>
</g>
<!-- Node7&#45;&gt;Node1 -->
<g id="edge7" class="edge"><title>Node7&#45;&gt;Node1</title>
<path fill="none" stroke="#9a32cd" stroke-dasharray="5,2" d="M426.254,-54.7934C454.512,-54.0958 488.114,-54.9005 518,-60 531.249,-62.2607 545.48,-67.0162 556.862,-71.431"/>
<polygon fill="#9a32cd" stroke="#9a32cd" points="425.986,-51.3 416.102,-55.1132 426.207,-58.2965 425.986,-51.3"/>
<text text-anchor="middle" x="481" y="-74" font-family="Helvetica,sans-Serif" font-size="10.00"> m_points</text>
<text text-anchor="middle" x="481" y="-63" font-family="Helvetica,sans-Serif" font-size="10.00">m_currentPoint</text>
</g>
<!-- Node8 -->
<g id="node8" class="node"><title>Node8</title>
<polygon fill="white" stroke="#bfbfbf" points="298.5,-0 298.5,-30 425.5,-30 425.5,-0 298.5,-0"/>
<text text-anchor="start" x="306.5" y="-18" font-family="Helvetica,sans-Serif" font-size="10.00">std::unique_ptr&lt; Collision</text>
<text text-anchor="middle" x="362" y="-7" font-family="Helvetica,sans-Serif" font-size="10.00">Filter &gt;</text>
</g>
<!-- Node8&#45;&gt;Node1 -->
<g id="edge8" class="edge"><title>Node8&#45;&gt;Node1</title>
<path fill="none" stroke="#9a32cd" stroke-dasharray="5,2" d="M435.733,-20.18C462.294,-23.7563 492.145,-29.7975 518,-40 536.991,-47.4939 556.071,-61.6361 567.711,-71.1888"/>
<polygon fill="#9a32cd" stroke="#9a32cd" points="436.087,-16.6971 425.73,-18.9265 435.217,-23.6428 436.087,-16.6971"/>
<text text-anchor="middle" x="481" y="-43" font-family="Helvetica,sans-Serif" font-size="10.00"> m_collisionFilter</text>
</g>
</g>
</svg>
