<?xml version="1.0" encoding="UTF-8" standalone="no"?>
<!DOCTYPE svg PUBLIC "-//W3C//DTD SVG 1.1//EN"
 "http://www.w3.org/Graphics/SVG/1.1/DTD/svg11.dtd">
<!-- Generated by graphviz version 2.36.0 (20140111.2315)
 -->
<!-- Title: ContextDependant Pages: 1 -->
<svg width="388pt" height="446pt"
 viewBox="0.00 0.00 388.00 446.00" xmlns="http://www.w3.org/2000/svg" xmlns:xlink="http://www.w3.org/1999/xlink">
<g id="graph0" class="graph" transform="scale(1 1) rotate(0) translate(4 442)">
<title>ContextDependant</title>
<polygon fill="white" stroke="none" points="-4,4 -4,-442 384,-442 384,4 -4,4"/>
<!-- Node1 -->
<g id="node1" class="node"><title>Node1</title>
<polygon fill="#bfbfbf" stroke="black" points="0.5,-209.5 0.5,-228.5 97.5,-228.5 97.5,-209.5 0.5,-209.5"/>
<text text-anchor="middle" x="49" y="-216.5" font-family="Helvetica,sans-Serif" font-size="10.00">ContextDependant</text>
</g>
<!-- Node2 -->
<g id="node2" class="node"><title>Node2</title>
<g id="a_node2"><a xlink:href="class_blit_program.html" target="_top" xlink:title="BlitProgram">
<polygon fill="white" stroke="black" points="157,-418.5 157,-437.5 225,-437.5 225,-418.5 157,-418.5"/>
<text text-anchor="middle" x="191" y="-425.5" font-family="Helvetica,sans-Serif" font-size="10.00">BlitProgram</text>
</a>
</g>
</g>
<!-- Node1&#45;&gt;Node2 -->
<g id="edge1" class="edge"><title>Node1&#45;&gt;Node2</title>
<path fill="none" stroke="midnightblue" d="M53.3251,-238.807C60.7823,-277.134 82.4055,-361.813 134,-409 140.364,-414.82 148.581,-418.867 156.749,-421.676"/>
<polygon fill="midnightblue" stroke="midnightblue" points="56.7542,-238.102 51.5156,-228.893 49.868,-239.359 56.7542,-238.102"/>
</g>
<!-- Node4 -->
<g id="node4" class="node"><title>Node4</title>
<g id="a_node4"><a xlink:href="class_frame_buffer.html" target="_top" xlink:title="FrameBuffer">
<polygon fill="white" stroke="black" points="156.5,-380.5 156.5,-399.5 225.5,-399.5 225.5,-380.5 156.5,-380.5"/>
<text text-anchor="middle" x="191" y="-387.5" font-family="Helvetica,sans-Serif" font-size="10.00">FrameBuffer</text>
</a>
</g>
</g>
<!-- Node1&#45;&gt;Node4 -->
<g id="edge3" class="edge"><title>Node1&#45;&gt;Node4</title>
<path fill="none" stroke="midnightblue" d="M55.6124,-238.356C65.8982,-270.483 90.7799,-334.853 134,-371 140.379,-376.335 148.328,-380.196 156.214,-382.982"/>
<polygon fill="midnightblue" stroke="midnightblue" points="58.9554,-237.319 52.6783,-228.784 52.2628,-239.371 58.9554,-237.319"/>
</g>
<!-- Node5 -->
<g id="node5" class="node"><title>Node5</title>
<g id="a_node5"><a xlink:href="class_post_processing_pass.html" target="_top" xlink:title="PostProcessingPass">
<polygon fill="white" stroke="black" points="137,-342.5 137,-361.5 245,-361.5 245,-342.5 137,-342.5"/>
<text text-anchor="middle" x="191" y="-349.5" font-family="Helvetica,sans-Serif" font-size="10.00">PostProcessingPass</text>
</a>
</g>
</g>
<!-- Node1&#45;&gt;Node5 -->
<g id="edge4" class="edge"><title>Node1&#45;&gt;Node5</title>
<path fill="none" stroke="midnightblue" d="M59.2997,-238.052C72.5347,-263.264 99.1181,-307.49 134,-333 139.221,-336.818 145.263,-339.908 151.407,-342.396"/>
<polygon fill="midnightblue" stroke="midnightblue" points="62.2544,-236.14 54.6027,-228.812 56.0144,-239.312 62.2544,-236.14"/>
</g>
<!-- Node7 -->
<g id="node7" class="node"><title>Node7</title>
<g id="a_node7"><a xlink:href="class_screen_quad.html" target="_top" xlink:title="ScreenQuad">
<polygon fill="white" stroke="black" points="155.5,-304.5 155.5,-323.5 226.5,-323.5 226.5,-304.5 155.5,-304.5"/>
<text text-anchor="middle" x="191" y="-311.5" font-family="Helvetica,sans-Serif" font-size="10.00">ScreenQuad</text>
</a>
</g>
</g>
<!-- Node1&#45;&gt;Node7 -->
<g id="edge6" class="edge"><title>Node1&#45;&gt;Node7</title>
<path fill="none" stroke="midnightblue" d="M64.9266,-236.097C80.6119,-253.13 106.752,-278.988 134,-295 140.55,-298.849 147.993,-302.06 155.264,-304.681"/>
<polygon fill="midnightblue" stroke="midnightblue" points="67.4005,-233.614 58.1072,-228.527 62.1994,-238.299 67.4005,-233.614"/>
</g>
<!-- Node8 -->
<g id="node8" class="node"><title>Node8</title>
<g id="a_node8"><a xlink:href="class_skybox.html" target="_top" xlink:title="Skybox">
<polygon fill="white" stroke="black" points="166,-266.5 166,-285.5 216,-285.5 216,-266.5 166,-266.5"/>
<text text-anchor="middle" x="191" y="-273.5" font-family="Helvetica,sans-Serif" font-size="10.00">Skybox</text>
</a>
</g>
</g>
<!-- Node1&#45;&gt;Node8 -->
<g id="edge7" class="edge"><title>Node1&#45;&gt;Node8</title>
<path fill="none" stroke="midnightblue" d="M79.1585,-233.038C95.1822,-240.537 115.506,-249.7 134,-257 144.313,-261.071 155.892,-265.089 165.832,-268.374"/>
<polygon fill="midnightblue" stroke="midnightblue" points="80.3291,-229.72 69.792,-228.616 77.3403,-236.05 80.3291,-229.72"/>
</g>
<!-- Node9 -->
<g id="node9" class="node"><title>Node9</title>
<g id="a_node9"><a xlink:href="class_starfield.html" target="_top" xlink:title="Starfield">
<polygon fill="white" stroke="black" points="165,-228.5 165,-247.5 217,-247.5 217,-228.5 165,-228.5"/>
<text text-anchor="middle" x="191" y="-235.5" font-family="Helvetica,sans-Serif" font-size="10.00">Starfield</text>
</a>
</g>
</g>
<!-- Node1&#45;&gt;Node9 -->
<g id="edge8" class="edge"><title>Node1&#45;&gt;Node9</title>
<path fill="none" stroke="midnightblue" d="M107.724,-226.834C127.622,-229.534 148.886,-232.42 164.812,-234.582"/>
<polygon fill="midnightblue" stroke="midnightblue" points="108.168,-223.362 97.7885,-225.486 107.227,-230.299 108.168,-223.362"/>
</g>
<!-- Node10 -->
<g id="node10" class="node"><title>Node10</title>
<g id="a_node10"><a xlink:href="class_stereo_view.html" target="_top" xlink:title="StereoView">
<polygon fill="white" stroke="black" points="158,-190.5 158,-209.5 224,-209.5 224,-190.5 158,-190.5"/>
<text text-anchor="middle" x="191" y="-197.5" font-family="Helvetica,sans-Serif" font-size="10.00">StereoView</text>
</a>
</g>
</g>
<!-- Node1&#45;&gt;Node10 -->
<g id="edge9" class="edge"><title>Node1&#45;&gt;Node10</title>
<path fill="none" stroke="midnightblue" d="M107.717,-211.167C124.832,-208.844 142.959,-206.384 157.83,-204.366"/>
<polygon fill="midnightblue" stroke="midnightblue" points="107.227,-207.701 97.7885,-212.514 108.168,-214.638 107.227,-207.701"/>
</g>
<!-- Node11 -->
<g id="node11" class="node"><title>Node11</title>
<g id="a_node11"><a xlink:href="class_voxel_mesh.html" target="_top" xlink:title="VoxelMesh">
<polygon fill="white" stroke="black" points="158.5,-152.5 158.5,-171.5 223.5,-171.5 223.5,-152.5 158.5,-152.5"/>
<text text-anchor="middle" x="191" y="-159.5" font-family="Helvetica,sans-Serif" font-size="10.00">VoxelMesh</text>
</a>
</g>
</g>
<!-- Node1&#45;&gt;Node11 -->
<g id="edge10" class="edge"><title>Node1&#45;&gt;Node11</title>
<path fill="none" stroke="midnightblue" d="M79.1585,-204.962C95.1822,-197.463 115.506,-188.3 134,-181 142.404,-177.683 151.647,-174.401 160.16,-171.522"/>
<polygon fill="midnightblue" stroke="midnightblue" points="77.3403,-201.95 69.792,-209.384 80.3291,-208.28 77.3403,-201.95"/>
</g>
<!-- Node12 -->
<g id="node12" class="node"><title>Node12</title>
<g id="a_node12"><a xlink:href="class_voxel_particle_engine.html" target="_top" xlink:title="VoxelParticleEngine">
<polygon fill="white" stroke="black" points="139,-114.5 139,-133.5 243,-133.5 243,-114.5 139,-114.5"/>
<text text-anchor="middle" x="191" y="-121.5" font-family="Helvetica,sans-Serif" font-size="10.00">VoxelParticleEngine</text>
</a>
</g>
</g>
<!-- Node1&#45;&gt;Node12 -->
<g id="edge11" class="edge"><title>Node1&#45;&gt;Node12</title>
<path fill="none" stroke="#8b1a1a" d="M64.9266,-201.903C80.6119,-184.87 106.752,-159.012 134,-143 140.373,-139.255 147.591,-136.114 154.674,-133.533"/>
<polygon fill="#8b1a1a" stroke="#8b1a1a" points="62.1994,-199.701 58.1072,-209.473 67.4005,-204.386 62.1994,-199.701"/>
</g>
<!-- Node13 -->
<g id="node13" class="node"><title>Node13</title>
<g id="a_node13"><a xlink:href="class_voxel_particle_renderer.html" target="_top" xlink:title="VoxelParticleRenderer">
<polygon fill="white" stroke="black" points="134.5,-76.5 134.5,-95.5 247.5,-95.5 247.5,-76.5 134.5,-76.5"/>
<text text-anchor="middle" x="191" y="-83.5" font-family="Helvetica,sans-Serif" font-size="10.00">VoxelParticleRenderer</text>
</a>
</g>
</g>
<!-- Node1&#45;&gt;Node13 -->
<g id="edge12" class="edge"><title>Node1&#45;&gt;Node13</title>
<path fill="none" stroke="midnightblue" d="M59.2997,-199.948C72.5347,-174.736 99.1181,-130.51 134,-105 139.221,-101.182 145.263,-98.0924 151.407,-95.6041"/>
<polygon fill="midnightblue" stroke="midnightblue" points="56.0144,-198.688 54.6027,-209.188 62.2544,-201.86 56.0144,-198.688"/>
</g>
<!-- Node14 -->
<g id="node14" class="node"><title>Node14</title>
<g id="a_node14"><a xlink:href="class_voxel_render_data.html" target="_top" xlink:title="VoxelRenderData">
<polygon fill="white" stroke="black" points="145,-38.5 145,-57.5 237,-57.5 237,-38.5 145,-38.5"/>
<text text-anchor="middle" x="191" y="-45.5" font-family="Helvetica,sans-Serif" font-size="10.00">VoxelRenderData</text>
</a>
</g>
</g>
<!-- Node1&#45;&gt;Node14 -->
<g id="edge13" class="edge"><title>Node1&#45;&gt;Node14</title>
<path fill="none" stroke="midnightblue" d="M55.6124,-199.644C65.8982,-167.517 90.7799,-103.147 134,-67 138.646,-63.114 144.126,-60.0099 149.807,-57.5339"/>
<polygon fill="midnightblue" stroke="midnightblue" points="52.2628,-198.629 52.6783,-209.216 58.9554,-200.681 52.2628,-198.629"/>
</g>
<!-- Node15 -->
<g id="node15" class="node"><title>Node15</title>
<g id="a_node15"><a xlink:href="class_voxel_renderer.html" target="_top" xlink:title="VoxelRenderer">
<polygon fill="white" stroke="black" points="151,-0.5 151,-19.5 231,-19.5 231,-0.5 151,-0.5"/>
<text text-anchor="middle" x="191" y="-7.5" font-family="Helvetica,sans-Serif" font-size="10.00">VoxelRenderer</text>
</a>
</g>
</g>
<!-- Node1&#45;&gt;Node15 -->
<g id="edge14" class="edge"><title>Node1&#45;&gt;Node15</title>
<path fill="none" stroke="midnightblue" d="M53.3251,-199.193C60.7823,-160.866 82.4055,-76.1873 134,-29 138.849,-24.5656 144.773,-21.1609 150.932,-18.5482"/>
<polygon fill="midnightblue" stroke="midnightblue" points="49.868,-198.641 51.5156,-209.107 56.7542,-199.898 49.868,-198.641"/>
</g>
<!-- Node3 -->
<g id="node3" class="node"><title>Node3</title>
<g id="a_node3"><a xlink:href="class_stereo_blit_program.html" target="_top" xlink:title="StereoBlitProgram">
<polygon fill="white" stroke="black" points="284,-418.5 284,-437.5 380,-437.5 380,-418.5 284,-418.5"/>
<text text-anchor="middle" x="332" y="-425.5" font-family="Helvetica,sans-Serif" font-size="10.00">StereoBlitProgram</text>
</a>
</g>
</g>
<!-- Node2&#45;&gt;Node3 -->
<g id="edge2" class="edge"><title>Node2&#45;&gt;Node3</title>
<path fill="none" stroke="midnightblue" d="M235.547,-428C250.874,-428 268.169,-428 283.785,-428"/>
<polygon fill="midnightblue" stroke="midnightblue" points="235.294,-424.5 225.294,-428 235.294,-431.5 235.294,-424.5"/>
</g>
<!-- Node6 -->
<g id="node6" class="node"><title>Node6</title>
<g id="a_node6"><a xlink:href="class_blitter.html" target="_top" xlink:title="Blitter">
<polygon fill="white" stroke="black" points="311,-342.5 311,-361.5 353,-361.5 353,-342.5 311,-342.5"/>
<text text-anchor="middle" x="332" y="-349.5" font-family="Helvetica,sans-Serif" font-size="10.00">Blitter</text>
</a>
</g>
</g>
<!-- Node5&#45;&gt;Node6 -->
<g id="edge5" class="edge"><title>Node5&#45;&gt;Node6</title>
<path fill="none" stroke="midnightblue" d="M255.426,-352C275.497,-352 296.25,-352 310.918,-352"/>
<polygon fill="midnightblue" stroke="midnightblue" points="255.344,-348.5 245.343,-352 255.343,-355.5 255.344,-348.5"/>
</g>
</g>
</svg>
