<?xml version="1.0" encoding="UTF-8" standalone="no"?>
<!DOCTYPE svg PUBLIC "-//W3C//DTD SVG 1.1//EN"
 "http://www.w3.org/Graphics/SVG/1.1/DTD/svg11.dtd">
<!-- Generated by graphviz version 2.36.0 (20140111.2315)
 -->
<!-- Title: Script Pages: 1 -->
<svg width="255pt" height="176pt"
 viewBox="0.00 0.00 255.00 176.00" xmlns="http://www.w3.org/2000/svg" xmlns:xlink="http://www.w3.org/1999/xlink">
<g id="graph0" class="graph" transform="scale(1 1) rotate(0) translate(4 172)">
<title>Script</title>
<polygon fill="white" stroke="none" points="-4,4 -4,-172 251,-172 251,4 -4,4"/>
<!-- Node1 -->
<g id="node1" class="node"><title>Node1</title>
<polygon fill="#bfbfbf" stroke="black" points="91,-0.5 91,-19.5 133,-19.5 133,-0.5 91,-0.5"/>
<text text-anchor="middle" x="112" y="-7.5" font-family="Helvetica,sans-Serif" font-size="10.00">Script</text>
</g>
<!-- Node2 -->
<g id="node2" class="node"><title>Node2</title>
<g id="a_node2"><a xlink:title="STL class. ">
<polygon fill="white" stroke="#bfbfbf" points="17,-68.5 17,-87.5 77,-87.5 77,-68.5 17,-68.5"/>
<text text-anchor="middle" x="47" y="-75.5" font-family="Helvetica,sans-Serif" font-size="10.00">std::string</text>
</a>
</g>
</g>
<!-- Node2&#45;&gt;Node1 -->
<g id="edge1" class="edge"><title>Node2&#45;&gt;Node1</title>
<path fill="none" stroke="#9a32cd" stroke-dasharray="5,2" d="M50.7019,-58.2576C52.8076,-51.2937 56.0519,-43.7072 61,-38 68.8753,-28.9164 80.5736,-22.4161 90.7803,-18.0731"/>
<polygon fill="#9a32cd" stroke="#9a32cd" points="47.2147,-57.7848 48.2488,-68.3291 54.0159,-59.4414 47.2147,-57.7848"/>
<text text-anchor="middle" x="97" y="-41.5" font-family="Helvetica,sans-Serif" font-size="10.00"> m_debugStatus</text>
</g>
<!-- Node3 -->
<g id="node3" class="node"><title>Node3</title>
<g id="a_node3"><a xlink:title="STL class. ">
<polygon fill="white" stroke="#bfbfbf" points="-0.5,-137 -0.5,-167 94.5,-167 94.5,-137 -0.5,-137"/>
<text text-anchor="start" x="7.5" y="-155" font-family="Helvetica,sans-Serif" font-size="10.00">std::basic_string&lt;</text>
<text text-anchor="middle" x="47" y="-144" font-family="Helvetica,sans-Serif" font-size="10.00"> char &gt;</text>
</a>
</g>
</g>
<!-- Node3&#45;&gt;Node2 -->
<g id="edge2" class="edge"><title>Node3&#45;&gt;Node2</title>
<path fill="none" stroke="midnightblue" d="M47,-126.688C47,-113.253 47,-97.3805 47,-87.7589"/>
<polygon fill="midnightblue" stroke="midnightblue" points="43.5001,-126.775 47,-136.775 50.5001,-126.775 43.5001,-126.775"/>
</g>
<!-- Node4 -->
<g id="node4" class="node"><title>Node4</title>
<polygon fill="white" stroke="#bfbfbf" points="95,-68.5 95,-87.5 247,-87.5 247,-68.5 95,-68.5"/>
<text text-anchor="middle" x="171" y="-75.5" font-family="Helvetica,sans-Serif" font-size="10.00">std::unique_ptr&lt; LuaWrapper &gt;</text>
</g>
<!-- Node4&#45;&gt;Node1 -->
<g id="edge3" class="edge"><title>Node4&#45;&gt;Node1</title>
<path fill="none" stroke="#9a32cd" stroke-dasharray="5,2" d="M156.596,-60.2565C150.585,-53.327 143.501,-45.235 137,-38 131.535,-31.9175 125.285,-25.1675 120.401,-19.9381"/>
<polygon fill="#9a32cd" stroke="#9a32cd" points="154.325,-62.9818 163.512,-68.2603 159.622,-58.4052 154.325,-62.9818"/>
<text text-anchor="middle" x="162" y="-41.5" font-family="Helvetica,sans-Serif" font-size="10.00"> m_lua</text>
</g>
<!-- Node5 -->
<g id="node5" class="node"><title>Node5</title>
<g id="a_node5"><a xlink:href="class_lua_wrapper.html" target="_top" xlink:title="LuaWrapper">
<polygon fill="white" stroke="red" points="136.5,-142.5 136.5,-161.5 205.5,-161.5 205.5,-142.5 136.5,-142.5"/>
<text text-anchor="middle" x="171" y="-149.5" font-family="Helvetica,sans-Serif" font-size="10.00">LuaWrapper</text>
</a>
</g>
</g>
<!-- Node5&#45;&gt;Node4 -->
<g id="edge4" class="edge"><title>Node5&#45;&gt;Node4</title>
<path fill="none" stroke="#9a32cd" stroke-dasharray="5,2" d="M171,-132.156C171,-117.712 171,-98.4594 171,-87.531"/>
<polygon fill="#9a32cd" stroke="#9a32cd" points="167.5,-132.458 171,-142.458 174.5,-132.458 167.5,-132.458"/>
<text text-anchor="middle" x="178.5" y="-109.5" font-family="Helvetica,sans-Serif" font-size="10.00"> ptr</text>
</g>
</g>
</svg>
