<?xml version="1.0" encoding="UTF-8" standalone="no"?>
<!DOCTYPE svg PUBLIC "-//W3C//DTD SVG 1.1//EN"
 "http://www.w3.org/Graphics/SVG/1.1/DTD/svg11.dtd">
<!-- Generated by graphviz version 2.36.0 (20140111.2315)
 -->
<!-- Title: GamePlay Pages: 1 -->
<!--zoomable 561 -->
<svg id="main" version="1.1" xmlns="http://www.w3.org/2000/svg" xmlns:xlink="http://www.w3.org/1999/xlink" xml:space="preserve" onload="init(evt)">
<style type="text/css"><![CDATA[
.edge:hover path { stroke: red; }
.edge:hover polygon { stroke: red; fill: red; }
]]></style>
<script type="text/javascript"><![CDATA[
var edges = document.getElementsByTagName('g');
if (edges && edges.length) {
  for (var i=0;i<edges.length;i++) {
    if (edges[i].id.substr(0,4)=='edge') {
      edges[i].setAttribute('class','edge');
    }
  }
}
]]></script>
        <defs>
                <circle id="rim" cx="0" cy="0" r="7"/>
                <circle id="rim2" cx="0" cy="0" r="3.5"/>
                <g id="zoomPlus">
                        <use xlink:href="#rim" fill="#404040">
                                <set attributeName="fill" to="#808080" begin="zoomplus.mouseover" end="zoomplus.mouseout"/>
                        </use>
                        <path d="M-4,0h8M0,-4v8" fill="none" stroke="white" stroke-width="1.5" pointer-events="none"/>
                </g>
                <g id="zoomMin">
                        <use xlink:href="#rim" fill="#404040">
                                <set attributeName="fill" to="#808080" begin="zoomminus.mouseover" end="zoomminus.mouseout"/>
                        </use>
                        <path d="M-4,0h8" fill="none" stroke="white" stroke-width="1.5" pointer-events="none"/>
                </g>
                <g id="dirArrow">
                        <path fill="none" stroke="white" stroke-width="1.5" d="M0,-3.0v7 M-2.5,-0.5L0,-3.0L2.5,-0.5"/>
                </g>
               <g id="resetDef">
                       <use xlink:href="#rim2" fill="#404040">
                               <set attributeName="fill" to="#808080" begin="reset.mouseover" end="reset.mouseout"/>
                       </use>
               </g>
        </defs>

<script type="text/javascript">
var viewWidth = 782;
var viewHeight = 561;
var sectionId = 'dynsection-1';
</script>
<script xlink:href="svgpan.js"/>
<svg id="graph" class="graph">
<g id="viewport">
<title>GamePlay</title>
<polygon fill="white" stroke="none" points="-4,4 -4,-556.857 778,-556.857 778,4 -4,4"/>
<!-- Node1 -->
<g id="node1" class="node"><title>Node1</title>
<polygon fill="#bfbfbf" stroke="black" points="245,-305.357 245,-324.357 307,-324.357 307,-305.357 245,-305.357"/>
<text text-anchor="middle" x="276" y="-312.357" font-family="Helvetica,sans-Serif" font-size="10.00">GamePlay</text>
</g>
<!-- Node4 -->
<g id="node4" class="node"><title>Node4</title>
<g id="a_node4"><a xlink:href="class_game.html" target="_top" xlink:title="Game">
<polygon fill="white" stroke="black" points="491.5,-482.357 491.5,-501.357 534.5,-501.357 534.5,-482.357 491.5,-482.357"/>
<text text-anchor="middle" x="513" y="-489.357" font-family="Helvetica,sans-Serif" font-size="10.00">Game</text>
</a>
</g>
</g>
<!-- Node1&#45;&gt;Node4 -->
<g id="edge7" class="edge"><title>Node1&#45;&gt;Node4</title>
<path fill="none" stroke="#9a32cd" stroke-dasharray="5,2" d="M283.05,-334.252C293.746,-365.212 319.021,-425.499 362,-456.857 372.45,-464.481 452.801,-480.576 491.412,-487.98"/>
<polygon fill="#9a32cd" stroke="#9a32cd" points="286.328,-333.018 279.869,-324.619 279.681,-335.213 286.328,-333.018"/>
<text text-anchor="middle" x="404" y="-480.857" font-family="Helvetica,sans-Serif" font-size="10.00"> m_gamePlay</text>
</g>
<!-- Node7 -->
<g id="node7" class="node"><title>Node7</title>
<g id="a_node7"><a xlink:href="class_game_play_scene.html" target="_top" xlink:title="GamePlayScene">
<polygon fill="white" stroke="red" points="468,-368.357 468,-387.357 558,-387.357 558,-368.357 468,-368.357"/>
<text text-anchor="middle" x="513" y="-375.357" font-family="Helvetica,sans-Serif" font-size="10.00">GamePlayScene</text>
</a>
</g>
</g>
<!-- Node1&#45;&gt;Node7 -->
<g id="edge12" class="edge"><title>Node1&#45;&gt;Node7</title>
<path fill="none" stroke="#9a32cd" stroke-dasharray="5,2" d="M303.729,-328.928C320.14,-337.027 341.818,-346.773 362,-352.857 396.756,-363.334 437.45,-369.768 467.676,-373.48"/>
<polygon fill="#9a32cd" stroke="#9a32cd" points="305.23,-325.766 294.725,-324.39 302.08,-332.016 305.23,-325.766"/>
<text text-anchor="middle" x="404" y="-373.857" font-family="Helvetica,sans-Serif" font-size="10.00"> m_gamePlay</text>
</g>
<!-- Node9 -->
<g id="node9" class="node"><title>Node9</title>
<g id="a_node9"><a xlink:href="class_base_scenario.html" target="_top" xlink:title="BaseScenario">
<polygon fill="white" stroke="red" points="474.5,-283.357 474.5,-302.357 551.5,-302.357 551.5,-283.357 474.5,-283.357"/>
<text text-anchor="middle" x="513" y="-290.357" font-family="Helvetica,sans-Serif" font-size="10.00">BaseScenario</text>
</a>
</g>
</g>
<!-- Node1&#45;&gt;Node9 -->
<g id="edge15" class="edge"><title>Node1&#45;&gt;Node9</title>
<path fill="none" stroke="#9a32cd" stroke-dasharray="5,2" d="M317.289,-311.085C361.257,-306.969 431.105,-300.43 474.105,-296.404"/>
<polygon fill="#9a32cd" stroke="#9a32cd" points="316.871,-307.609 307.241,-312.026 317.524,-314.578 316.871,-307.609"/>
<text text-anchor="middle" x="404" y="-309.857" font-family="Helvetica,sans-Serif" font-size="10.00"> m_gamePlay</text>
</g>
<!-- Node10 -->
<g id="node10" class="node"><title>Node10</title>
<g id="a_node10"><a xlink:href="class_game_play_running.html" target="_top" xlink:title="GamePlayRunning">
<polygon fill="white" stroke="black" points="464,-76.3566 464,-95.3566 562,-95.3566 562,-76.3566 464,-76.3566"/>
<text text-anchor="middle" x="513" y="-83.3566" font-family="Helvetica,sans-Serif" font-size="10.00">GamePlayRunning</text>
</a>
</g>
</g>
<!-- Node1&#45;&gt;Node10 -->
<g id="edge18" class="edge"><title>Node1&#45;&gt;Node10</title>
<path fill="none" stroke="#9a32cd" stroke-dasharray="5,2" d="M283.042,-295.261C297.172,-250.655 333.35,-143.566 362,-119.857 369.946,-113.281 422.935,-102.259 463.705,-94.5517"/>
<polygon fill="#9a32cd" stroke="#9a32cd" points="279.66,-294.35 280.013,-304.939 286.34,-296.441 279.66,-294.35"/>
<text text-anchor="middle" x="404" y="-122.857" font-family="Helvetica,sans-Serif" font-size="10.00"> m_gamePlay</text>
</g>
<!-- Node13 -->
<g id="node13" class="node"><title>Node13</title>
<g id="a_node13"><a xlink:href="class_game_play_paused.html" target="_top" xlink:title="GamePlayPaused">
<polygon fill="white" stroke="black" points="465.5,-203.357 465.5,-222.357 560.5,-222.357 560.5,-203.357 465.5,-203.357"/>
<text text-anchor="middle" x="513" y="-210.357" font-family="Helvetica,sans-Serif" font-size="10.00">GamePlayPaused</text>
</a>
</g>
</g>
<!-- Node1&#45;&gt;Node13 -->
<g id="edge23" class="edge"><title>Node1&#45;&gt;Node13</title>
<path fill="none" stroke="#9a32cd" stroke-dasharray="5,2" d="M312.833,-301.86C327.96,-296.464 345.792,-290.223 362,-284.857 399.1,-272.573 410.885,-276.011 446,-258.857 466.581,-248.802 487.879,-232.752 500.529,-222.514"/>
<polygon fill="#9a32cd" stroke="#9a32cd" points="311.561,-298.598 303.327,-305.266 313.922,-305.188 311.561,-298.598"/>
<text text-anchor="middle" x="404" y="-287.857" font-family="Helvetica,sans-Serif" font-size="10.00"> m_gamePlay</text>
</g>
<!-- Node2 -->
<g id="node2" class="node"><title>Node2</title>
<g id="a_node2"><a xlink:href="class_game_state.html" target="_top" xlink:title="GameState">
<polygon fill="white" stroke="black" points="104,-210.357 104,-229.357 170,-229.357 170,-210.357 104,-210.357"/>
<text text-anchor="middle" x="137" y="-217.357" font-family="Helvetica,sans-Serif" font-size="10.00">GameState</text>
</a>
</g>
</g>
<!-- Node2&#45;&gt;Node1 -->
<g id="edge1" class="edge"><title>Node2&#45;&gt;Node1</title>
<path fill="none" stroke="midnightblue" d="M160.396,-235.386C188.921,-255.167 237.354,-288.751 261.073,-305.199"/>
<polygon fill="midnightblue" stroke="midnightblue" points="162.102,-232.311 151.89,-229.489 158.113,-238.063 162.102,-232.311"/>
</g>
<!-- Node2&#45;&gt;Node2 -->
<g id="edge4" class="edge"><title>Node2&#45;&gt;Node2</title>
<path fill="none" stroke="#9a32cd" stroke-dasharray="5,2" d="M127.424,-239.623C128.176,-244.353 131.368,-247.857 137,-247.857 146.242,-247.857 148.914,-238.422 145.015,-229.614"/>
<polygon fill="#9a32cd" stroke="#9a32cd" points="130.902,-240.034 128.985,-229.614 123.986,-238.955 130.902,-240.034"/>
<text text-anchor="middle" x="137" y="-250.857" font-family="Helvetica,sans-Serif" font-size="10.00"> m_parentGameState</text>
</g>
<!-- Node2&#45;&gt;Node4 -->
<g id="edge6" class="edge"><title>Node2&#45;&gt;Node4</title>
<path fill="none" stroke="midnightblue" d="M145.98,-238.825C169.525,-291.862 244.504,-441.062 362,-490.857 405.04,-509.097 461.47,-502.25 491.351,-496.529"/>
<polygon fill="midnightblue" stroke="midnightblue" points="149.15,-237.338 141.959,-229.557 142.728,-240.124 149.15,-237.338"/>
</g>
<!-- Node2&#45;&gt;Node10 -->
<g id="edge17" class="edge"><title>Node2&#45;&gt;Node10</title>
<path fill="none" stroke="midnightblue" d="M138.543,-200.043C140.832,-160.334 152.257,-71.5111 208,-32.8566 295,27.4725 346.104,-7.79131 446,-42.8566 467.162,-50.285 488.297,-65.843 500.754,-76.0659"/>
<polygon fill="midnightblue" stroke="midnightblue" points="135.036,-200.129 138.098,-210.271 142.03,-200.433 135.036,-200.129"/>
</g>
<!-- Node2&#45;&gt;Node13 -->
<g id="edge22" class="edge"><title>Node2&#45;&gt;Node13</title>
<path fill="none" stroke="midnightblue" d="M180.191,-210.334C239.681,-198.26 351.511,-180.527 446,-193.857 459.224,-195.722 473.509,-199.592 485.397,-203.355"/>
<polygon fill="midnightblue" stroke="midnightblue" points="179.135,-206.979 170.056,-212.44 180.559,-213.832 179.135,-206.979"/>
</g>
<!-- Node3 -->
<g id="node3" class="node"><title>Node3</title>
<g id="a_node3"><a xlink:href="class_state.html" target="_top" xlink:title="State">
<polygon fill="white" stroke="red" points="24,-210.357 24,-229.357 64,-229.357 64,-210.357 24,-210.357"/>
<text text-anchor="middle" x="44" y="-217.357" font-family="Helvetica,sans-Serif" font-size="10.00">State</text>
</a>
</g>
</g>
<!-- Node3&#45;&gt;Node2 -->
<g id="edge2" class="edge"><title>Node3&#45;&gt;Node2</title>
<path fill="none" stroke="midnightblue" d="M74.3685,-219.857C83.7761,-219.857 94.2405,-219.857 103.837,-219.857"/>
<polygon fill="midnightblue" stroke="midnightblue" points="74.2988,-216.357 64.2988,-219.857 74.2987,-223.357 74.2988,-216.357"/>
</g>
<!-- Node3&#45;&gt;Node3 -->
<g id="edge3" class="edge"><title>Node3&#45;&gt;Node3</title>
<path fill="none" stroke="#9a32cd" stroke-dasharray="5,2" d="M36.6338,-239.623C37.2123,-244.353 39.6677,-247.857 44,-247.857 51.1094,-247.857 53.1644,-238.422 50.1652,-229.614"/>
<polygon fill="#9a32cd" stroke="#9a32cd" points="40.1184,-239.96 37.8348,-229.614 33.1683,-239.125 40.1184,-239.96"/>
<text text-anchor="middle" x="44" y="-283.857" font-family="Helvetica,sans-Serif" font-size="10.00"> m_currentSubState</text>
<text text-anchor="middle" x="44" y="-272.857" font-family="Helvetica,sans-Serif" font-size="10.00">m_initialSubState</text>
<text text-anchor="middle" x="44" y="-261.857" font-family="Helvetica,sans-Serif" font-size="10.00">m_finalSubState</text>
<text text-anchor="middle" x="44" y="-250.857" font-family="Helvetica,sans-Serif" font-size="10.00">m_parentState</text>
</g>
<!-- Node4&#45;&gt;Node1 -->
<g id="edge5" class="edge"><title>Node4&#45;&gt;Node1</title>
<path fill="none" stroke="#9a32cd" stroke-dasharray="5,2" d="M492.654,-475.715C480.044,-465.889 462.854,-453.75 446,-445.857 410.946,-429.441 394.257,-444.251 362,-422.857 322.43,-396.612 293.017,-345.909 281.88,-324.632"/>
<polygon fill="#9a32cd" stroke="#9a32cd" points="490.597,-478.552 500.592,-482.068 494.971,-473.087 490.597,-478.552"/>
<text text-anchor="middle" x="404" y="-448.857" font-family="Helvetica,sans-Serif" font-size="10.00"> m_game</text>
</g>
<!-- Node4&#45;&gt;Node4 -->
<g id="edge8" class="edge"><title>Node4&#45;&gt;Node4</title>
<path fill="none" stroke="#9a32cd" stroke-dasharray="5,2" d="M499.372,-511.623C500.443,-516.353 504.985,-519.857 513,-519.857 526.152,-519.857 529.954,-510.422 524.406,-501.614"/>
<polygon fill="#9a32cd" stroke="#9a32cd" points="502.844,-512.135 501.594,-501.614 496.01,-510.617 502.844,-512.135"/>
<text text-anchor="middle" x="513" y="-522.857" font-family="Helvetica,sans-Serif" font-size="10.00"> s_instance</text>
</g>
<!-- Node5 -->
<g id="node5" class="node"><title>Node5</title>
<polygon fill="white" stroke="#bfbfbf" points="212,-533.357 212,-552.357 340,-552.357 340,-533.357 212,-533.357"/>
<text text-anchor="middle" x="276" y="-540.357" font-family="Helvetica,sans-Serif" font-size="10.00">std::unique_ptr&lt; Viewer &gt;</text>
</g>
<!-- Node5&#45;&gt;Node4 -->
<g id="edge9" class="edge"><title>Node5&#45;&gt;Node4</title>
<path fill="none" stroke="#9a32cd" stroke-dasharray="5,2" d="M350.326,-536.444C380.325,-532.79 415.163,-527.215 446,-518.857 462.012,-514.517 479.344,-507.322 492.228,-501.451"/>
<polygon fill="#9a32cd" stroke="#9a32cd" points="349.877,-532.972 340.351,-537.61 350.69,-539.925 349.877,-532.972"/>
<text text-anchor="middle" x="404" y="-536.857" font-family="Helvetica,sans-Serif" font-size="10.00"> m_viewer</text>
</g>
<!-- Node6 -->
<g id="node6" class="node"><title>Node6</title>
<polygon fill="white" stroke="#bfbfbf" points="626,-373.857 626,-403.857 762,-403.857 762,-373.857 626,-373.857"/>
<text text-anchor="start" x="634" y="-391.857" font-family="Helvetica,sans-Serif" font-size="10.00">std::unique_ptr&lt; GamePlay</text>
<text text-anchor="middle" x="694" y="-380.857" font-family="Helvetica,sans-Serif" font-size="10.00">Scene &gt;</text>
</g>
<!-- Node6&#45;&gt;Node1 -->
<g id="edge10" class="edge"><title>Node6&#45;&gt;Node1</title>
<path fill="none" stroke="#9a32cd" stroke-dasharray="5,2" d="M615.932,-404.299C546.598,-414.519 443.419,-420.44 362,-385.857 328.906,-371.8 298.805,-340.395 284.984,-324.486"/>
<polygon fill="#9a32cd" stroke="#9a32cd" points="616.557,-407.744 625.909,-402.765 615.493,-400.826 616.557,-407.744"/>
<text text-anchor="middle" x="513" y="-415.857" font-family="Helvetica,sans-Serif" font-size="10.00"> m_scene</text>
</g>
<!-- Node7&#45;&gt;Node6 -->
<g id="edge11" class="edge"><title>Node7&#45;&gt;Node6</title>
<path fill="none" stroke="#9a32cd" stroke-dasharray="5,2" d="M568.348,-381.196C586.486,-382.311 606.914,-383.566 625.903,-384.733"/>
<polygon fill="#9a32cd" stroke="#9a32cd" points="568.443,-377.696 558.247,-380.576 568.014,-384.683 568.443,-377.696"/>
<text text-anchor="middle" x="588" y="-385.857" font-family="Helvetica,sans-Serif" font-size="10.00"> ptr</text>
</g>
<!-- Node8 -->
<g id="node8" class="node"><title>Node8</title>
<polygon fill="white" stroke="#bfbfbf" points="614,-319.357 614,-338.357 774,-338.357 774,-319.357 614,-319.357"/>
<text text-anchor="middle" x="694" y="-326.357" font-family="Helvetica,sans-Serif" font-size="10.00">std::unique_ptr&lt; BaseScenario &gt;</text>
</g>
<!-- Node8&#45;&gt;Node1 -->
<g id="edge13" class="edge"><title>Node8&#45;&gt;Node1</title>
<path fill="none" stroke="#9a32cd" stroke-dasharray="5,2" d="M603.651,-328.442C537.01,-327.774 443.761,-326.084 362,-321.857 343.812,-320.916 323.479,-319.264 307.261,-317.8"/>
<polygon fill="#9a32cd" stroke="#9a32cd" points="603.666,-331.942 613.698,-328.537 603.732,-324.942 603.666,-331.942"/>
<text text-anchor="middle" x="513" y="-331.857" font-family="Helvetica,sans-Serif" font-size="10.00"> m_scenario</text>
</g>
<!-- Node9&#45;&gt;Node8 -->
<g id="edge14" class="edge"><title>Node9&#45;&gt;Node8</title>
<path fill="none" stroke="#9a32cd" stroke-dasharray="5,2" d="M561.528,-302.415C587.53,-307.645 619.642,-314.103 645.621,-319.328"/>
<polygon fill="#9a32cd" stroke="#9a32cd" points="562.018,-298.944 551.524,-300.403 560.638,-305.806 562.018,-298.944"/>
<text text-anchor="middle" x="588" y="-311.857" font-family="Helvetica,sans-Serif" font-size="10.00"> ptr</text>
</g>
<!-- Node10&#45;&gt;Node1 -->
<g id="edge16" class="edge"><title>Node10&#45;&gt;Node1</title>
<path fill="none" stroke="#9a32cd" stroke-dasharray="5,2" d="M501.026,-104.196C489.264,-122.644 469.13,-150.989 446,-169.857 413.656,-196.24 394.658,-185.863 362,-211.857 326.445,-240.156 295.508,-285.498 282.96,-305.198"/>
<polygon fill="#9a32cd" stroke="#9a32cd" points="504.09,-105.896 506.386,-95.5532 498.141,-102.207 504.09,-105.896"/>
<text text-anchor="middle" x="404" y="-214.857" font-family="Helvetica,sans-Serif" font-size="10.00"> m_runningState</text>
</g>
<!-- Node11 -->
<g id="node11" class="node"><title>Node11</title>
<g id="a_node11"><a xlink:href="class_key_trigger.html" target="_top" xlink:title="KeyTrigger">
<polygon fill="white" stroke="red" points="244.5,-112.357 244.5,-131.357 307.5,-131.357 307.5,-112.357 244.5,-112.357"/>
<text text-anchor="middle" x="276" y="-119.357" font-family="Helvetica,sans-Serif" font-size="10.00">KeyTrigger</text>
</a>
</g>
</g>
<!-- Node11&#45;&gt;Node10 -->
<g id="edge19" class="edge"><title>Node11&#45;&gt;Node10</title>
<path fill="none" stroke="#9a32cd" stroke-dasharray="5,2" d="M303.57,-107.815C319.925,-99.9683 341.598,-90.9635 362,-86.8566 395.572,-80.0989 434.233,-80.0198 463.896,-81.5412"/>
<polygon fill="#9a32cd" stroke="#9a32cd" points="302.012,-104.681 294.605,-112.256 305.119,-110.954 302.012,-104.681"/>
<text text-anchor="middle" x="404" y="-89.8566" font-family="Helvetica,sans-Serif" font-size="10.00"> m_pauseTrigger</text>
</g>
<!-- Node11&#45;&gt;Node13 -->
<g id="edge24" class="edge"><title>Node11&#45;&gt;Node13</title>
<path fill="none" stroke="#9a32cd" stroke-dasharray="5,2" d="M317.567,-127.288C360.134,-133.425 423.88,-143.982 446,-154.857 470.367,-166.835 492.757,-190.197 504.139,-203.321"/>
<polygon fill="#9a32cd" stroke="#9a32cd" points="317.897,-123.8 307.505,-125.862 316.915,-130.731 317.897,-123.8"/>
<text text-anchor="middle" x="404" y="-157.857" font-family="Helvetica,sans-Serif" font-size="10.00"> m_continueTrigger</text>
</g>
<!-- Node12 -->
<g id="node12" class="node"><title>Node12</title>
<polygon fill="white" stroke="#bfbfbf" points="208,-42.8566 208,-72.8566 344,-72.8566 344,-42.8566 208,-42.8566"/>
<text text-anchor="start" x="216" y="-60.8566" font-family="Helvetica,sans-Serif" font-size="10.00">std::unique_ptr&lt; GamePlay</text>
<text text-anchor="middle" x="276" y="-49.8566" font-family="Helvetica,sans-Serif" font-size="10.00">RunningInput &gt;</text>
</g>
<!-- Node12&#45;&gt;Node10 -->
<g id="edge20" class="edge"><title>Node12&#45;&gt;Node10</title>
<path fill="none" stroke="#9a32cd" stroke-dasharray="5,2" d="M354.141,-47.2071C383.266,-45.3597 416.484,-45.8889 446,-52.8566 464.952,-57.3305 484.666,-68.1254 497.556,-76.158"/>
<polygon fill="#9a32cd" stroke="#9a32cd" points="353.738,-43.7271 344.022,-47.9529 354.253,-50.7082 353.738,-43.7271"/>
<text text-anchor="middle" x="404" y="-55.8566" font-family="Helvetica,sans-Serif" font-size="10.00"> m_input</text>
</g>
<!-- Node13&#45;&gt;Node1 -->
<g id="edge21" class="edge"><title>Node13&#45;&gt;Node1</title>
<path fill="none" stroke="#9a32cd" stroke-dasharray="5,2" d="M455.229,-223.44C420.015,-230.516 378.45,-239.943 362,-247.857 331.182,-262.682 301.222,-290.291 286.476,-305.014"/>
<polygon fill="#9a32cd" stroke="#9a32cd" points="456.312,-226.794 465.441,-221.417 454.952,-219.927 456.312,-226.794"/>
<text text-anchor="middle" x="404" y="-250.857" font-family="Helvetica,sans-Serif" font-size="10.00"> m_pausedState</text>
</g>
</g>
</svg>
        <g id="navigator" transform="translate(0 0)" fill="#404254">
                <rect fill="#f2f5e9" fill-opacity="0.5" stroke="#606060" stroke-width=".5" x="0" y="0" width="60" height="60"/>
                <use id="zoomplus" xlink:href="#zoomPlus" x="17" y="9" onmousedown="handleZoom(evt,'in')"/>
                <use id="zoomminus" xlink:href="#zoomMin" x="42" y="9" onmousedown="handleZoom(evt,'out')"/>
                <use id="reset" xlink:href="#resetDef" x="30" y="36" onmousedown="handleReset()"/>
                <g id="arrowUp" xlink:href="#dirArrow" transform="translate(30 24)" onmousedown="handlePan(0,-1)">
                  <use xlink:href="#rim" fill="#404040">
                        <set attributeName="fill" to="#808080" begin="arrowUp.mouseover" end="arrowUp.mouseout"/>
                  </use>
                  <path fill="none" stroke="white" stroke-width="1.5" d="M0,-3.0v7 M-2.5,-0.5L0,-3.0L2.5,-0.5"/>
                </g>
                <g id="arrowRight" xlink:href="#dirArrow" transform="rotate(90) translate(36 -43)" onmousedown="handlePan(1,0)">
                  <use xlink:href="#rim" fill="#404040">
                        <set attributeName="fill" to="#808080" begin="arrowRight.mouseover" end="arrowRight.mouseout"/>
                  </use>
                  <path fill="none" stroke="white" stroke-width="1.5" d="M0,-3.0v7 M-2.5,-0.5L0,-3.0L2.5,-0.5"/>
                </g>
                <g id="arrowDown" xlink:href="#dirArrow" transform="rotate(180) translate(-30 -48)" onmousedown="handlePan(0,1)">
                  <use xlink:href="#rim" fill="#404040">
                        <set attributeName="fill" to="#808080" begin="arrowDown.mouseover" end="arrowDown.mouseout"/>
                  </use>
                  <path fill="none" stroke="white" stroke-width="1.5" d="M0,-3.0v7 M-2.5,-0.5L0,-3.0L2.5,-0.5"/>
                </g>
                <g id="arrowLeft" xlink:href="#dirArrow" transform="rotate(270) translate(-36 17)" onmousedown="handlePan(-1,0)">
                  <use xlink:href="#rim" fill="#404040">
                        <set attributeName="fill" to="#808080" begin="arrowLeft.mouseover" end="arrowLeft.mouseout"/>
                  </use>
                  <path fill="none" stroke="white" stroke-width="1.5" d="M0,-3.0v7 M-2.5,-0.5L0,-3.0L2.5,-0.5"/>
                </g>
        </g>
        <svg viewBox="0 0 15 15" width="100%" height="30px" preserveAspectRatio="xMaxYMin meet">
         <g id="arrow_out" transform="scale(0.3 0.3)">
          <a xlink:href="class_game_play__coll__graph_org.svg" target="_base">
           <rect id="button" ry="5" rx="5" y="6" x="6" height="38" width="38"
                fill="#f2f5e9" fill-opacity="0.5" stroke="#606060" stroke-width="1.0"/>
           <path id="arrow"
             d="M 11.500037,31.436501 C 11.940474,20.09759 22.043105,11.32322 32.158766,21.979434 L 37.068811,17.246167 C 37.068811,17.246167 37.088388,32 37.088388,32 L 22.160133,31.978069 C 22.160133,31.978069 26.997745,27.140456 26.997745,27.140456 C 18.528582,18.264221 13.291696,25.230495 11.500037,31.436501 z"
             style="fill:#404040;"/>
          </a>
         </g>
        </svg>
</svg>
