<?xml version="1.0" encoding="UTF-8" standalone="no"?>
<!DOCTYPE svg PUBLIC "-//W3C//DTD SVG 1.1//EN"
 "http://www.w3.org/Graphics/SVG/1.1/DTD/svg11.dtd">
<!-- Generated by graphviz version 2.36.0 (20140111.2315)
 -->
<!-- Title: Weapon Pages: 1 -->
<svg width="277pt" height="164pt"
 viewBox="0.00 0.00 277.00 164.00" xmlns="http://www.w3.org/2000/svg" xmlns:xlink="http://www.w3.org/1999/xlink">
<g id="graph0" class="graph" transform="scale(1 1) rotate(0) translate(4 160)">
<title>Weapon</title>
<polygon fill="white" stroke="none" points="-4,4 -4,-160 273,-160 273,4 -4,4"/>
<!-- Node1 -->
<g id="node1" class="node"><title>Node1</title>
<polygon fill="#bfbfbf" stroke="black" points="60.5,-0.5 60.5,-19.5 113.5,-19.5 113.5,-0.5 60.5,-0.5"/>
<text text-anchor="middle" x="87" y="-7.5" font-family="Helvetica,sans-Serif" font-size="10.00">Weapon</text>
</g>
<!-- Node2 -->
<g id="node2" class="node"><title>Node2</title>
<g id="a_node2"><a xlink:href="class_equipment.html" target="_top" xlink:title="Equipment">
<polygon fill="white" stroke="black" points="6.5,-68.5 6.5,-87.5 69.5,-87.5 69.5,-68.5 6.5,-68.5"/>
<text text-anchor="middle" x="38" y="-75.5" font-family="Helvetica,sans-Serif" font-size="10.00">Equipment</text>
</a>
</g>
</g>
<!-- Node2&#45;&gt;Node1 -->
<g id="edge1" class="edge"><title>Node2&#45;&gt;Node1</title>
<path fill="none" stroke="midnightblue" d="M50.391,-60.3101C59.9433,-47.4437 72.7764,-30.1583 80.4361,-19.8411"/>
<polygon fill="midnightblue" stroke="midnightblue" points="47.5567,-58.2562 44.4059,-68.3717 53.1771,-62.4289 47.5567,-58.2562"/>
</g>
<!-- Node3 -->
<g id="node3" class="node"><title>Node3</title>
<g id="a_node3"><a xlink:title="STL class. ">
<polygon fill="white" stroke="#bfbfbf" points="0,-136.5 0,-155.5 60,-155.5 60,-136.5 0,-136.5"/>
<text text-anchor="middle" x="30" y="-143.5" font-family="Helvetica,sans-Serif" font-size="10.00">std::string</text>
</a>
</g>
</g>
<!-- Node3&#45;&gt;Node2 -->
<g id="edge2" class="edge"><title>Node3&#45;&gt;Node2</title>
<path fill="none" stroke="#9a32cd" stroke-dasharray="5,2" d="M32.2515,-126.425C33.7821,-113.798 35.7379,-97.6623 36.9283,-87.8411"/>
<polygon fill="#9a32cd" stroke="#9a32cd" points="28.7747,-126.023 31.0459,-136.372 35.7238,-126.866 28.7747,-126.023"/>
<text text-anchor="middle" x="74.5" y="-109.5" font-family="Helvetica,sans-Serif" font-size="10.00"> m_equipmentKey</text>
</g>
<!-- Node4 -->
<g id="node4" class="node"><title>Node4</title>
<g id="a_node4"><a xlink:href="class_hardpoint.html" target="_top" xlink:title="Hardpoint">
<polygon fill="white" stroke="black" points="95,-68.5 95,-87.5 153,-87.5 153,-68.5 95,-68.5"/>
<text text-anchor="middle" x="124" y="-75.5" font-family="Helvetica,sans-Serif" font-size="10.00">Hardpoint</text>
</a>
</g>
</g>
<!-- Node4&#45;&gt;Node1 -->
<g id="edge3" class="edge"><title>Node4&#45;&gt;Node1</title>
<path fill="none" stroke="#9a32cd" stroke-dasharray="5,2" d="M114.225,-59.563C107.059,-46.7815 97.629,-29.9599 91.9564,-19.8411"/>
<polygon fill="#9a32cd" stroke="#9a32cd" points="111.22,-61.3604 119.163,-68.3717 117.326,-57.9373 111.22,-61.3604"/>
<text text-anchor="middle" x="137.5" y="-41.5" font-family="Helvetica,sans-Serif" font-size="10.00"> m_hardpoint</text>
</g>
<!-- Node5 -->
<g id="node5" class="node"><title>Node5</title>
<g id="a_node5"><a xlink:href="class_world_object_slot.html" target="_top" xlink:title="WorldObjectSlot">
<polygon fill="white" stroke="red" points="80,-136.5 80,-155.5 168,-155.5 168,-136.5 80,-136.5"/>
<text text-anchor="middle" x="124" y="-143.5" font-family="Helvetica,sans-Serif" font-size="10.00">WorldObjectSlot</text>
</a>
</g>
</g>
<!-- Node5&#45;&gt;Node4 -->
<g id="edge4" class="edge"><title>Node5&#45;&gt;Node4</title>
<path fill="none" stroke="midnightblue" d="M124,-126.041C124,-113.472 124,-97.5631 124,-87.8411"/>
<polygon fill="midnightblue" stroke="midnightblue" points="120.5,-126.372 124,-136.372 127.5,-126.372 120.5,-126.372"/>
</g>
<!-- Node6 -->
<g id="node6" class="node"><title>Node6</title>
<g id="a_node6"><a xlink:href="class_hardpoint_voxel.html" target="_top" xlink:title="HardpointVoxel">
<polygon fill="white" stroke="red" points="186.5,-136.5 186.5,-155.5 269.5,-155.5 269.5,-136.5 186.5,-136.5"/>
<text text-anchor="middle" x="228" y="-143.5" font-family="Helvetica,sans-Serif" font-size="10.00">HardpointVoxel</text>
</a>
</g>
</g>
<!-- Node6&#45;&gt;Node4 -->
<g id="edge5" class="edge"><title>Node6&#45;&gt;Node4</title>
<path fill="none" stroke="#9a32cd" stroke-dasharray="5,2" d="M205.921,-130.988C185.231,-117.858 154.963,-98.6498 137.6,-87.6305"/>
<polygon fill="#9a32cd" stroke="#9a32cd" points="204.085,-133.969 214.404,-136.372 207.836,-128.058 204.085,-133.969"/>
<text text-anchor="middle" x="205.5" y="-109.5" font-family="Helvetica,sans-Serif" font-size="10.00"> m_voxel</text>
</g>
</g>
</svg>
