<?xml version="1.0" encoding="UTF-8" standalone="no"?>
<!DOCTYPE svg PUBLIC "-//W3C//DTD SVG 1.1//EN"
 "http://www.w3.org/Graphics/SVG/1.1/DTD/svg11.dtd">
<!-- Generated by graphviz version 2.36.0 (20140111.2315)
 -->
<!-- Title: GamePlayScene Pages: 1 -->
<svg width="1082pt" height="281pt"
 viewBox="0.00 0.00 1082.00 280.78" xmlns="http://www.w3.org/2000/svg" xmlns:xlink="http://www.w3.org/1999/xlink">
<g id="graph0" class="graph" transform="scale(1 1) rotate(0) translate(4 276.785)">
<title>GamePlayScene</title>
<polygon fill="white" stroke="none" points="-4,4 -4,-276.785 1078,-276.785 1078,4 -4,4"/>
<!-- Node1 -->
<g id="node1" class="node"><title>Node1</title>
<polygon fill="#bfbfbf" stroke="black" points="414,-94.2848 414,-113.285 504,-113.285 504,-94.2848 414,-94.2848"/>
<text text-anchor="middle" x="459" y="-101.285" font-family="Helvetica,sans-Serif" font-size="10.00">GamePlayScene</text>
</g>
<!-- Node6 -->
<g id="node6" class="node"><title>Node6</title>
<polygon fill="white" stroke="#bfbfbf" points="568,-49.7848 568,-79.7848 704,-79.7848 704,-49.7848 568,-49.7848"/>
<text text-anchor="start" x="576" y="-67.7848" font-family="Helvetica,sans-Serif" font-size="10.00">std::unique_ptr&lt; GamePlay</text>
<text text-anchor="middle" x="636" y="-56.7848" font-family="Helvetica,sans-Serif" font-size="10.00">Scene &gt;</text>
</g>
<!-- Node1&#45;&gt;Node6 -->
<g id="edge10" class="edge"><title>Node1&#45;&gt;Node6</title>
<path fill="none" stroke="#9a32cd" stroke-dasharray="5,2" d="M512.724,-92.0349C530.032,-88.1777 549.507,-83.8374 567.742,-79.7736"/>
<polygon fill="#9a32cd" stroke="#9a32cd" points="511.809,-88.6528 502.81,-94.2443 513.332,-95.4852 511.809,-88.6528"/>
<text text-anchor="middle" x="530" y="-92.7848" font-family="Helvetica,sans-Serif" font-size="10.00"> ptr</text>
</g>
<!-- Node2 -->
<g id="node2" class="node"><title>Node2</title>
<g id="a_node2"><a xlink:href="class_scene.html" target="_top" xlink:title="Scene">
<polygon fill="white" stroke="black" points="194,-170.285 194,-189.285 238,-189.285 238,-170.285 194,-170.285"/>
<text text-anchor="middle" x="216" y="-177.285" font-family="Helvetica,sans-Serif" font-size="10.00">Scene</text>
</a>
</g>
</g>
<!-- Node2&#45;&gt;Node1 -->
<g id="edge1" class="edge"><title>Node2&#45;&gt;Node1</title>
<path fill="none" stroke="midnightblue" d="M248.214,-177.392C284.788,-173.758 346.66,-164.99 396,-144.785 415.107,-136.96 434.549,-122.901 446.444,-113.456"/>
<polygon fill="midnightblue" stroke="midnightblue" points="247.793,-173.916 238.159,-178.324 248.439,-180.886 247.793,-173.916"/>
</g>
<!-- Node3 -->
<g id="node3" class="node"><title>Node3</title>
<g id="a_node3"><a xlink:href="class_game_play.html" target="_top" xlink:title="GamePlay">
<polygon fill="white" stroke="black" points="806,-102.285 806,-121.285 868,-121.285 868,-102.285 806,-102.285"/>
<text text-anchor="middle" x="837" y="-109.285" font-family="Helvetica,sans-Serif" font-size="10.00">GamePlay</text>
</a>
</g>
</g>
<!-- Node3&#45;&gt;Node1 -->
<g id="edge2" class="edge"><title>Node3&#45;&gt;Node1</title>
<path fill="none" stroke="#9a32cd" stroke-dasharray="5,2" d="M795.655,-110.926C724.65,-109.416 577.912,-106.294 504.238,-104.726"/>
<polygon fill="#9a32cd" stroke="#9a32cd" points="795.899,-114.432 805.972,-111.146 796.048,-107.434 795.899,-114.432"/>
<text text-anchor="middle" x="636" y="-112.785" font-family="Helvetica,sans-Serif" font-size="10.00"> m_gamePlay</text>
</g>
<!-- Node5 -->
<g id="node5" class="node"><title>Node5</title>
<g id="a_node5"><a xlink:href="class_game.html" target="_top" xlink:title="Game">
<polygon fill="white" stroke="red" points="1003.5,-224.285 1003.5,-243.285 1046.5,-243.285 1046.5,-224.285 1003.5,-224.285"/>
<text text-anchor="middle" x="1025" y="-231.285" font-family="Helvetica,sans-Serif" font-size="10.00">Game</text>
</a>
</g>
</g>
<!-- Node3&#45;&gt;Node5 -->
<g id="edge7" class="edge"><title>Node3&#45;&gt;Node5</title>
<path fill="none" stroke="#9a32cd" stroke-dasharray="5,2" d="M860.722,-127.001C868.703,-132.327 877.738,-138.337 886,-143.785 930.654,-173.229 983.706,-207.68 1009.06,-224.112"/>
<polygon fill="#9a32cd" stroke="#9a32cd" points="862.516,-123.99 852.257,-121.344 858.627,-129.81 862.516,-123.99"/>
<text text-anchor="middle" x="922" y="-192.785" font-family="Helvetica,sans-Serif" font-size="10.00"> m_gamePlay</text>
</g>
<!-- Node8 -->
<g id="node8" class="node"><title>Node8</title>
<g id="a_node8"><a xlink:href="class_game_play_running.html" target="_top" xlink:title="GamePlayRunning">
<polygon fill="white" stroke="red" points="976,-29.2848 976,-48.2848 1074,-48.2848 1074,-29.2848 976,-29.2848"/>
<text text-anchor="middle" x="1025" y="-36.2848" font-family="Helvetica,sans-Serif" font-size="10.00">GamePlayRunning</text>
</a>
</g>
</g>
<!-- Node3&#45;&gt;Node8 -->
<g id="edge14" class="edge"><title>Node3&#45;&gt;Node8</title>
<path fill="none" stroke="#9a32cd" stroke-dasharray="5,2" d="M846.116,-92.7059C853.879,-77.0871 867.195,-55.9686 886,-45.7848 913.212,-31.048 948.04,-29.3856 975.9,-31.3632"/>
<polygon fill="#9a32cd" stroke="#9a32cd" points="842.836,-91.4598 841.815,-102.005 849.19,-94.3985 842.836,-91.4598"/>
<text text-anchor="middle" x="922" y="-48.7848" font-family="Helvetica,sans-Serif" font-size="10.00"> m_gamePlay</text>
</g>
<!-- Node9 -->
<g id="node9" class="node"><title>Node9</title>
<g id="a_node9"><a xlink:href="class_game_play_paused.html" target="_top" xlink:title="GamePlayPaused">
<polygon fill="white" stroke="red" points="977.5,-131.285 977.5,-150.285 1072.5,-150.285 1072.5,-131.285 977.5,-131.285"/>
<text text-anchor="middle" x="1025" y="-138.285" font-family="Helvetica,sans-Serif" font-size="10.00">GamePlayPaused</text>
</a>
</g>
</g>
<!-- Node3&#45;&gt;Node9 -->
<g id="edge17" class="edge"><title>Node3&#45;&gt;Node9</title>
<path fill="none" stroke="#9a32cd" stroke-dasharray="5,2" d="M878.06,-104.018C901.657,-100.862 931.903,-99.2933 958,-105.785 977.635,-110.669 997.848,-122.597 1010.64,-131.171"/>
<polygon fill="#9a32cd" stroke="#9a32cd" points="877.434,-100.573 868.056,-105.503 878.461,-107.497 877.434,-100.573"/>
<text text-anchor="middle" x="922" y="-108.785" font-family="Helvetica,sans-Serif" font-size="10.00"> m_gamePlay</text>
</g>
<!-- Node4 -->
<g id="node4" class="node"><title>Node4</title>
<g id="a_node4"><a xlink:href="class_game_state.html" target="_top" xlink:title="GameState">
<polygon fill="white" stroke="red" points="603,-152.285 603,-171.285 669,-171.285 669,-152.285 603,-152.285"/>
<text text-anchor="middle" x="636" y="-159.285" font-family="Helvetica,sans-Serif" font-size="10.00">GameState</text>
</a>
</g>
</g>
<!-- Node4&#45;&gt;Node3 -->
<g id="edge3" class="edge"><title>Node4&#45;&gt;Node3</title>
<path fill="none" stroke="midnightblue" d="M678.905,-153.527C709.367,-147.239 751.486,-137.954 788,-127.785 794.854,-125.876 802.177,-123.573 808.984,-121.317"/>
<polygon fill="midnightblue" stroke="midnightblue" points="678.144,-150.11 669.047,-155.541 679.545,-156.968 678.144,-150.11"/>
</g>
<!-- Node4&#45;&gt;Node4 -->
<g id="edge4" class="edge"><title>Node4&#45;&gt;Node4</title>
<path fill="none" stroke="#9a32cd" stroke-dasharray="5,2" d="M616.371,-181.185C617.682,-186.099 624.225,-189.785 636,-189.785 654.84,-189.785 660.286,-180.35 652.338,-171.542"/>
<polygon fill="#9a32cd" stroke="#9a32cd" points="619.745,-182.136 619.662,-171.542 613.12,-179.875 619.745,-182.136"/>
<text text-anchor="middle" x="636" y="-192.785" font-family="Helvetica,sans-Serif" font-size="10.00"> m_parentGameState</text>
</g>
<!-- Node4&#45;&gt;Node5 -->
<g id="edge6" class="edge"><title>Node4&#45;&gt;Node5</title>
<path fill="none" stroke="midnightblue" d="M667.85,-175.501C714.13,-195.251 804.779,-230.755 886,-243.785 927.269,-250.405 976.191,-243.406 1003.3,-238.243"/>
<polygon fill="midnightblue" stroke="midnightblue" points="668.969,-172.172 658.4,-171.423 666.195,-178.599 668.969,-172.172"/>
</g>
<!-- Node4&#45;&gt;Node8 -->
<g id="edge13" class="edge"><title>Node4&#45;&gt;Node8</title>
<path fill="none" stroke="midnightblue" d="M678.49,-150.679C692.295,-145.04 706.544,-136.76 716,-124.785 740.47,-93.796 704.302,-63.8064 734,-37.7848 809.925,28.7408 944.809,-9.5531 999.725,-29.2839"/>
<polygon fill="midnightblue" stroke="midnightblue" points="677.227,-147.414 669.068,-154.174 679.661,-153.977 677.227,-147.414"/>
</g>
<!-- Node4&#45;&gt;Node9 -->
<g id="edge16" class="edge"><title>Node4&#45;&gt;Node9</title>
<path fill="none" stroke="midnightblue" d="M679.546,-159.476C752.633,-155.51 901.471,-147.434 977.314,-143.318"/>
<polygon fill="midnightblue" stroke="midnightblue" points="679.125,-155.994 669.33,-160.03 679.505,-162.983 679.125,-155.994"/>
</g>
<!-- Node5&#45;&gt;Node3 -->
<g id="edge5" class="edge"><title>Node5&#45;&gt;Node3</title>
<path fill="none" stroke="#9a32cd" stroke-dasharray="5,2" d="M993.007,-232.155C957.617,-229.733 902.481,-224.073 886,-211.785 855.432,-188.993 843.435,-141.637 839.568,-121.348"/>
<polygon fill="#9a32cd" stroke="#9a32cd" points="993.09,-235.667 1003.29,-232.807 993.533,-228.681 993.09,-235.667"/>
<text text-anchor="middle" x="922" y="-231.785" font-family="Helvetica,sans-Serif" font-size="10.00"> m_game</text>
</g>
<!-- Node5&#45;&gt;Node5 -->
<g id="edge8" class="edge"><title>Node5&#45;&gt;Node5</title>
<path fill="none" stroke="#9a32cd" stroke-dasharray="5,2" d="M1006.11,-253.185C1007.37,-258.099 1013.67,-261.785 1025,-261.785 1043.13,-261.785 1048.37,-252.35 1040.72,-243.542"/>
<polygon fill="#9a32cd" stroke="#9a32cd" points="1009.48,-254.135 1009.28,-243.542 1002.83,-251.951 1009.48,-254.135"/>
<text text-anchor="middle" x="1025" y="-264.785" font-family="Helvetica,sans-Serif" font-size="10.00"> s_instance</text>
</g>
<!-- Node6&#45;&gt;Node3 -->
<g id="edge9" class="edge"><title>Node6&#45;&gt;Node3</title>
<path fill="none" stroke="#9a32cd" stroke-dasharray="5,2" d="M714.328,-75.2818C738.203,-79.4089 764.414,-84.8525 788,-91.7848 797.354,-94.5341 807.359,-98.5233 815.8,-102.217"/>
<polygon fill="#9a32cd" stroke="#9a32cd" points="714.694,-71.7944 704.253,-73.5931 713.537,-78.6981 714.694,-71.7944"/>
<text text-anchor="middle" x="761" y="-94.7848" font-family="Helvetica,sans-Serif" font-size="10.00"> m_scene</text>
</g>
<!-- Node7 -->
<g id="node7" class="node"><title>Node7</title>
<polygon fill="white" stroke="#bfbfbf" points="556,-11.2848 556,-30.2848 716,-30.2848 716,-11.2848 556,-11.2848"/>
<text text-anchor="middle" x="636" y="-18.2848" font-family="Helvetica,sans-Serif" font-size="10.00">std::unique_ptr&lt; BaseScenario &gt;</text>
</g>
<!-- Node7&#45;&gt;Node3 -->
<g id="edge11" class="edge"><title>Node7&#45;&gt;Node3</title>
<path fill="none" stroke="#9a32cd" stroke-dasharray="5,2" d="M706.103,-32.6227C733.031,-39.299 763.294,-49.4826 788,-64.7848 804.459,-74.9791 819.756,-91.7148 828.476,-102.222"/>
<polygon fill="#9a32cd" stroke="#9a32cd" points="706.886,-29.2114 696.349,-30.3187 705.277,-36.0239 706.886,-29.2114"/>
<text text-anchor="middle" x="761" y="-67.7848" font-family="Helvetica,sans-Serif" font-size="10.00"> m_scenario</text>
</g>
<!-- Node8&#45;&gt;Node3 -->
<g id="edge12" class="edge"><title>Node8&#45;&gt;Node3</title>
<path fill="none" stroke="#9a32cd" stroke-dasharray="5,2" d="M982.773,-51.3871C955.028,-60.2889 917.839,-73.0426 886,-86.7848 875.475,-91.3273 864.081,-97.218 855.036,-102.14"/>
<polygon fill="#9a32cd" stroke="#9a32cd" points="984.067,-54.6483 992.54,-48.287 981.949,-47.9764 984.067,-54.6483"/>
<text text-anchor="middle" x="922" y="-89.7848" font-family="Helvetica,sans-Serif" font-size="10.00"> m_runningState</text>
</g>
<!-- Node9&#45;&gt;Node3 -->
<g id="edge15" class="edge"><title>Node9&#45;&gt;Node3</title>
<path fill="none" stroke="#9a32cd" stroke-dasharray="5,2" d="M967.037,-131.903C934.482,-126.828 894.957,-120.665 868.298,-116.509"/>
<polygon fill="#9a32cd" stroke="#9a32cd" points="966.917,-135.427 977.337,-133.509 967.996,-128.511 966.917,-135.427"/>
<text text-anchor="middle" x="922" y="-131.785" font-family="Helvetica,sans-Serif" font-size="10.00"> m_pausedState</text>
</g>
<!-- Node10 -->
<g id="node10" class="node"><title>Node10</title>
<polygon fill="white" stroke="#bfbfbf" points="134,-132.285 134,-151.285 298,-151.285 298,-132.285 134,-132.285"/>
<text text-anchor="middle" x="216" y="-139.285" font-family="Helvetica,sans-Serif" font-size="10.00">std::unique_ptr&lt; RenderPipeline &gt;</text>
</g>
<!-- Node10&#45;&gt;Node1 -->
<g id="edge18" class="edge"><title>Node10&#45;&gt;Node1</title>
<path fill="none" stroke="#9a32cd" stroke-dasharray="5,2" d="M308.55,-131.101C336.684,-127.391 367.69,-122.869 396,-117.785 403.168,-116.498 410.762,-114.943 418.084,-113.346"/>
<polygon fill="#9a32cd" stroke="#9a32cd" points="307.79,-127.67 298.325,-132.431 308.693,-134.612 307.79,-127.67"/>
<text text-anchor="middle" x="356" y="-132.785" font-family="Helvetica,sans-Serif" font-size="10.00"> m_renderPipeline</text>
</g>
<!-- Node11 -->
<g id="node11" class="node"><title>Node11</title>
<g id="a_node11"><a xlink:href="class_render_pipeline.html" target="_top" xlink:title="RenderPipeline">
<polygon fill="white" stroke="red" points="0,-132.285 0,-151.285 82,-151.285 82,-132.285 0,-132.285"/>
<text text-anchor="middle" x="41" y="-139.285" font-family="Helvetica,sans-Serif" font-size="10.00">RenderPipeline</text>
</a>
</g>
</g>
<!-- Node11&#45;&gt;Node10 -->
<g id="edge19" class="edge"><title>Node11&#45;&gt;Node10</title>
<path fill="none" stroke="#9a32cd" stroke-dasharray="5,2" d="M92.2609,-141.785C105.295,-141.785 119.669,-141.785 133.85,-141.785"/>
<polygon fill="#9a32cd" stroke="#9a32cd" points="92.1245,-138.285 82.1245,-141.785 92.1245,-145.285 92.1245,-138.285"/>
<text text-anchor="middle" x="108" y="-144.785" font-family="Helvetica,sans-Serif" font-size="10.00"> ptr</text>
</g>
<!-- Node12 -->
<g id="node12" class="node"><title>Node12</title>
<g id="a_node12"><a xlink:href="class_property.html" target="_top" xlink:title="Property\&lt; glm::vec3 \&gt;">
<polygon fill="white" stroke="red" points="159.5,-94.2848 159.5,-113.285 272.5,-113.285 272.5,-94.2848 159.5,-94.2848"/>
<text text-anchor="middle" x="216" y="-101.285" font-family="Helvetica,sans-Serif" font-size="10.00">Property&lt; glm::vec3 &gt;</text>
</a>
</g>
</g>
<!-- Node12&#45;&gt;Node1 -->
<g id="edge20" class="edge"><title>Node12&#45;&gt;Node1</title>
<path fill="none" stroke="#9a32cd" stroke-dasharray="5,2" d="M282.666,-103.785C324.371,-103.785 377.213,-103.785 413.931,-103.785"/>
<polygon fill="#9a32cd" stroke="#9a32cd" points="282.593,-100.285 272.593,-103.785 282.593,-107.285 282.593,-100.285"/>
<text text-anchor="middle" x="356" y="-106.785" font-family="Helvetica,sans-Serif" font-size="10.00"> m_defaultLightDir</text>
</g>
<!-- Node13 -->
<g id="node13" class="node"><title>Node13</title>
<polygon fill="white" stroke="#bfbfbf" points="140,-56.2848 140,-75.2848 292,-75.2848 292,-56.2848 140,-56.2848"/>
<text text-anchor="middle" x="216" y="-63.2848" font-family="Helvetica,sans-Serif" font-size="10.00">std::unique_ptr&lt; FrameBuffer &gt;</text>
</g>
<!-- Node13&#45;&gt;Node1 -->
<g id="edge21" class="edge"><title>Node13&#45;&gt;Node1</title>
<path fill="none" stroke="#9a32cd" stroke-dasharray="5,2" d="M302.133,-74.7903C331.933,-78.4534 365.55,-83.1625 396,-88.7848 404.277,-90.313 413.103,-92.2558 421.424,-94.2324"/>
<polygon fill="#9a32cd" stroke="#9a32cd" points="302.531,-71.313 292.184,-73.5884 301.692,-78.2625 302.531,-71.313"/>
<text text-anchor="middle" x="356" y="-91.7848" font-family="Helvetica,sans-Serif" font-size="10.00"> m_framebuffer</text>
</g>
<!-- Node14 -->
<g id="node14" class="node"><title>Node14</title>
<g id="a_node14"><a xlink:href="class_frame_buffer.html" target="_top" xlink:title="FrameBuffer">
<polygon fill="white" stroke="red" points="6.5,-56.2848 6.5,-75.2848 75.5,-75.2848 75.5,-56.2848 6.5,-56.2848"/>
<text text-anchor="middle" x="41" y="-63.2848" font-family="Helvetica,sans-Serif" font-size="10.00">FrameBuffer</text>
</a>
</g>
</g>
<!-- Node14&#45;&gt;Node13 -->
<g id="edge22" class="edge"><title>Node14&#45;&gt;Node13</title>
<path fill="none" stroke="#9a32cd" stroke-dasharray="5,2" d="M86.0834,-65.7848C102.424,-65.7848 121.449,-65.7848 139.786,-65.7848"/>
<polygon fill="#9a32cd" stroke="#9a32cd" points="85.7669,-62.2849 75.7668,-65.7848 85.7668,-69.2849 85.7669,-62.2849"/>
<text text-anchor="middle" x="108" y="-68.7848" font-family="Helvetica,sans-Serif" font-size="10.00"> ptr</text>
</g>
<!-- Node15 -->
<g id="node15" class="node"><title>Node15</title>
<polygon fill="white" stroke="#bfbfbf" points="153.5,-18.2848 153.5,-37.2848 278.5,-37.2848 278.5,-18.2848 153.5,-18.2848"/>
<text text-anchor="middle" x="216" y="-25.2848" font-family="Helvetica,sans-Serif" font-size="10.00">std::unique_ptr&lt; Blitter &gt;</text>
</g>
<!-- Node15&#45;&gt;Node1 -->
<g id="edge23" class="edge"><title>Node15&#45;&gt;Node1</title>
<path fill="none" stroke="#9a32cd" stroke-dasharray="5,2" d="M289.012,-34.6619C322.464,-39.5527 362.216,-47.8363 396,-61.7848 415.468,-69.8226 435.125,-84.5065 446.935,-94.2063"/>
<polygon fill="#9a32cd" stroke="#9a32cd" points="289.233,-31.159 278.847,-33.2504 288.27,-38.0925 289.233,-31.159"/>
<text text-anchor="middle" x="356" y="-64.7848" font-family="Helvetica,sans-Serif" font-size="10.00"> m_outputBlitter</text>
</g>
<!-- Node16 -->
<g id="node16" class="node"><title>Node16</title>
<g id="a_node16"><a xlink:href="class_blitter.html" target="_top" xlink:title="Blitter">
<polygon fill="white" stroke="red" points="20,-18.2848 20,-37.2848 62,-37.2848 62,-18.2848 20,-18.2848"/>
<text text-anchor="middle" x="41" y="-25.2848" font-family="Helvetica,sans-Serif" font-size="10.00">Blitter</text>
</a>
</g>
</g>
<!-- Node16&#45;&gt;Node15 -->
<g id="edge24" class="edge"><title>Node16&#45;&gt;Node15</title>
<path fill="none" stroke="#9a32cd" stroke-dasharray="5,2" d="M72.4004,-27.7848C94.7626,-27.7848 125.922,-27.7848 153.411,-27.7848"/>
<polygon fill="#9a32cd" stroke="#9a32cd" points="72.1839,-24.2849 62.1839,-27.7848 72.1838,-31.2849 72.1839,-24.2849"/>
<text text-anchor="middle" x="108" y="-30.7848" font-family="Helvetica,sans-Serif" font-size="10.00"> ptr</text>
</g>
</g>
</svg>
