<?xml version="1.0" encoding="UTF-8" standalone="no"?>
<!DOCTYPE svg PUBLIC "-//W3C//DTD SVG 1.1//EN"
 "http://www.w3.org/Graphics/SVG/1.1/DTD/svg11.dtd">
<!-- Generated by graphviz version 2.36.0 (20140111.2315)
 -->
<!-- Title: Bindings Pages: 1 -->
<!--zoomable 243 -->
<svg id="main" version="1.1" xmlns="http://www.w3.org/2000/svg" xmlns:xlink="http://www.w3.org/1999/xlink" xml:space="preserve" onload="init(evt)">
<style type="text/css"><![CDATA[
.edge:hover path { stroke: red; }
.edge:hover polygon { stroke: red; fill: red; }
]]></style>
<script type="text/javascript"><![CDATA[
var edges = document.getElementsByTagName('g');
if (edges && edges.length) {
  for (var i=0;i<edges.length;i++) {
    if (edges[i].id.substr(0,4)=='edge') {
      edges[i].setAttribute('class','edge');
    }
  }
}
]]></script>
        <defs>
                <circle id="rim" cx="0" cy="0" r="7"/>
                <circle id="rim2" cx="0" cy="0" r="3.5"/>
                <g id="zoomPlus">
                        <use xlink:href="#rim" fill="#404040">
                                <set attributeName="fill" to="#808080" begin="zoomplus.mouseover" end="zoomplus.mouseout"/>
                        </use>
                        <path d="M-4,0h8M0,-4v8" fill="none" stroke="white" stroke-width="1.5" pointer-events="none"/>
                </g>
                <g id="zoomMin">
                        <use xlink:href="#rim" fill="#404040">
                                <set attributeName="fill" to="#808080" begin="zoomminus.mouseover" end="zoomminus.mouseout"/>
                        </use>
                        <path d="M-4,0h8" fill="none" stroke="white" stroke-width="1.5" pointer-events="none"/>
                </g>
                <g id="dirArrow">
                        <path fill="none" stroke="white" stroke-width="1.5" d="M0,-3.0v7 M-2.5,-0.5L0,-3.0L2.5,-0.5"/>
                </g>
               <g id="resetDef">
                       <use xlink:href="#rim2" fill="#404040">
                               <set attributeName="fill" to="#808080" begin="reset.mouseover" end="reset.mouseout"/>
                       </use>
               </g>
        </defs>

<script type="text/javascript">
var viewWidth = 602;
var viewHeight = 243;
var sectionId = 'dynsection-1';
</script>
<script xlink:href="svgpan.js"/>
<svg id="graph" class="graph">
<g id="viewport">
<title>Bindings</title>
<polygon fill="white" stroke="none" points="-4,4 -4,-239 598,-239 598,4 -4,4"/>
<!-- Node1 -->
<g id="node1" class="node"><title>Node1</title>
<polygon fill="#bfbfbf" stroke="black" points="504,-116.5 504,-135.5 558,-135.5 558,-116.5 504,-116.5"/>
<text text-anchor="middle" x="531" y="-123.5" font-family="Helvetica,sans-Serif" font-size="10.00">Bindings</text>
</g>
<!-- Node2 -->
<g id="node2" class="node"><title>Node2</title>
<g id="a_node2"><a xlink:href="class_lua_wrapper.html" target="_top" xlink:title="LuaWrapper">
<polygon fill="white" stroke="black" points="289.5,-166.5 289.5,-185.5 358.5,-185.5 358.5,-166.5 289.5,-166.5"/>
<text text-anchor="middle" x="324" y="-173.5" font-family="Helvetica,sans-Serif" font-size="10.00">LuaWrapper</text>
</a>
</g>
</g>
<!-- Node2&#45;&gt;Node1 -->
<g id="edge1" class="edge"><title>Node2&#45;&gt;Node1</title>
<path fill="none" stroke="#9a32cd" stroke-dasharray="5,2" d="M355.766,-162.677C362.971,-159.875 370.682,-157.127 378,-155 421.339,-142.402 473.257,-133.85 503.829,-129.459"/>
<polygon fill="#9a32cd" stroke="#9a32cd" points="354.304,-159.492 346.339,-166.479 356.922,-165.984 354.304,-159.492"/>
<text text-anchor="middle" x="414" y="-158" font-family="Helvetica,sans-Serif" font-size="10.00"> m_lua</text>
</g>
<!-- Node5 -->
<g id="node5" class="node"><title>Node5</title>
<polygon fill="white" stroke="#bfbfbf" points="468,-173.5 468,-192.5 594,-192.5 594,-173.5 468,-173.5"/>
<text text-anchor="middle" x="531" y="-180.5" font-family="Helvetica,sans-Serif" font-size="10.00">std::list&lt; LuaWrapper * &gt;</text>
</g>
<!-- Node2&#45;&gt;Node5 -->
<g id="edge5" class="edge"><title>Node2&#45;&gt;Node5</title>
<path fill="none" stroke="#9a32cd" stroke-dasharray="5,2" d="M368.676,-172.442C371.83,-172.266 374.963,-172.114 378,-172 409.977,-170.795 418.075,-169.815 450,-172 455.735,-172.392 461.684,-172.941 467.633,-173.586"/>
<polygon fill="#9a32cd" stroke="#9a32cd" points="368.382,-168.954 358.623,-173.079 368.825,-175.94 368.382,-168.954"/>
<text text-anchor="middle" x="414" y="-175" font-family="Helvetica,sans-Serif" font-size="10.00"> elements</text>
</g>
<!-- Node3 -->
<g id="node3" class="node"><title>Node3</title>
<polygon fill="white" stroke="#bfbfbf" points="0.5,-205 0.5,-235 187.5,-235 187.5,-205 0.5,-205"/>
<text text-anchor="start" x="8.5" y="-223" font-family="Helvetica,sans-Serif" font-size="10.00">std::map&lt; std::string,</text>
<text text-anchor="middle" x="94" y="-212" font-family="Helvetica,sans-Serif" font-size="10.00"> std::unique_ptr&lt; BaseLuaFunction &gt; &gt;</text>
</g>
<!-- Node3&#45;&gt;Node2 -->
<g id="edge2" class="edge"><title>Node3&#45;&gt;Node2</title>
<path fill="none" stroke="#9a32cd" stroke-dasharray="5,2" d="M197.681,-204.952C221.521,-200.914 246.727,-196.205 270,-191 276.999,-189.435 284.446,-187.499 291.478,-185.545"/>
<polygon fill="#9a32cd" stroke="#9a32cd" points="196.845,-201.543 187.557,-206.64 197.997,-208.447 196.845,-201.543"/>
<text text-anchor="middle" x="238" y="-206" font-family="Helvetica,sans-Serif" font-size="10.00"> m_functions</text>
</g>
<!-- Node4 -->
<g id="node4" class="node"><title>Node4</title>
<polygon fill="white" stroke="#bfbfbf" points="32.5,-166.5 32.5,-185.5 155.5,-185.5 155.5,-166.5 32.5,-166.5"/>
<text text-anchor="middle" x="94" y="-173.5" font-family="Helvetica,sans-Serif" font-size="10.00">std::vector&lt; std::string &gt;</text>
</g>
<!-- Node4&#45;&gt;Node2 -->
<g id="edge3" class="edge"><title>Node4&#45;&gt;Node2</title>
<path fill="none" stroke="#9a32cd" stroke-dasharray="5,2" d="M165.511,-176C206.778,-176 256.987,-176 289.449,-176"/>
<polygon fill="#9a32cd" stroke="#9a32cd" points="165.501,-172.5 155.501,-176 165.501,-179.5 165.501,-172.5"/>
<text text-anchor="middle" x="238" y="-179" font-family="Helvetica,sans-Serif" font-size="10.00"> m_scripts</text>
</g>
<!-- Node5&#45;&gt;Node2 -->
<g id="edge4" class="edge"><title>Node5&#45;&gt;Node2</title>
<path fill="none" stroke="#9a32cd" stroke-dasharray="5,2" d="M457.558,-186.82C432.34,-187.391 403.887,-187.182 378,-185 371.676,-184.467 364.972,-183.582 358.536,-182.57"/>
<polygon fill="#9a32cd" stroke="#9a32cd" points="457.881,-190.313 467.782,-186.543 457.691,-183.316 457.881,-190.313"/>
<text text-anchor="middle" x="414" y="-190" font-family="Helvetica,sans-Serif" font-size="10.00"> s_instances</text>
</g>
<!-- Node6 -->
<g id="node6" class="node"><title>Node6</title>
<g id="a_node6"><a xlink:href="class_script_engine.html" target="_top" xlink:title="ScriptEngine">
<polygon fill="white" stroke="black" points="288,-75.5 288,-94.5 360,-94.5 360,-75.5 288,-75.5"/>
<text text-anchor="middle" x="324" y="-82.5" font-family="Helvetica,sans-Serif" font-size="10.00">ScriptEngine</text>
</a>
</g>
</g>
<!-- Node6&#45;&gt;Node1 -->
<g id="edge6" class="edge"><title>Node6&#45;&gt;Node1</title>
<path fill="none" stroke="#9a32cd" stroke-dasharray="5,2" d="M370.389,-90.5911C394.212,-93.855 423.816,-98.43 450,-104 468.175,-107.866 488.347,-113.422 503.888,-117.984"/>
<polygon fill="#9a32cd" stroke="#9a32cd" points="370.598,-87.088 360.222,-89.2293 369.669,-94.026 370.598,-87.088"/>
<text text-anchor="middle" x="414" y="-107" font-family="Helvetica,sans-Serif" font-size="10.00"> m_scriptEngine</text>
</g>
<!-- Node7 -->
<g id="node7" class="node"><title>Node7</title>
<polygon fill="white" stroke="#bfbfbf" points="28.5,-117 28.5,-147 159.5,-147 159.5,-117 28.5,-117"/>
<text text-anchor="start" x="36.5" y="-135" font-family="Helvetica,sans-Serif" font-size="10.00">std::vector&lt; std::shared</text>
<text text-anchor="middle" x="94" y="-124" font-family="Helvetica,sans-Serif" font-size="10.00">_ptr&lt; GamePlayScript &gt; &gt;</text>
</g>
<!-- Node7&#45;&gt;Node6 -->
<g id="edge7" class="edge"><title>Node7&#45;&gt;Node6</title>
<path fill="none" stroke="#9a32cd" stroke-dasharray="5,2" d="M169.632,-119.961C200.795,-114.519 237.289,-107.602 270,-100 276.893,-98.3982 284.229,-96.4691 291.177,-94.5357"/>
<polygon fill="#9a32cd" stroke="#9a32cd" points="168.971,-116.524 159.714,-121.676 170.164,-123.421 168.971,-116.524"/>
<text text-anchor="middle" x="238" y="-117" font-family="Helvetica,sans-Serif" font-size="10.00"> m_scripts</text>
</g>
<!-- Node8 -->
<g id="node8" class="node"><title>Node8</title>
<polygon fill="white" stroke="#bfbfbf" points="42.5,-68 42.5,-98 145.5,-98 145.5,-68 42.5,-68"/>
<text text-anchor="start" x="50.5" y="-86" font-family="Helvetica,sans-Serif" font-size="10.00">std::unordered_map</text>
<text text-anchor="middle" x="94" y="-75" font-family="Helvetica,sans-Serif" font-size="10.00">&lt; int, Scriptable * &gt;</text>
</g>
<!-- Node8&#45;&gt;Node6 -->
<g id="edge8" class="edge"><title>Node8&#45;&gt;Node6</title>
<path fill="none" stroke="#9a32cd" stroke-dasharray="5,2" d="M155.755,-83.5329C197.914,-83.9028 252.603,-84.3825 287.754,-84.6908"/>
<polygon fill="#9a32cd" stroke="#9a32cd" points="155.631,-80.0318 145.601,-83.4439 155.569,-87.0315 155.631,-80.0318"/>
<text text-anchor="middle" x="238" y="-88" font-family="Helvetica,sans-Serif" font-size="10.00"> m_scriptables</text>
</g>
<!-- Node9 -->
<g id="node9" class="node"><title>Node9</title>
<g id="a_node9"><a xlink:href="class_world.html" target="_top" xlink:title="World">
<polygon fill="white" stroke="red" points="73,-0.5 73,-19.5 115,-19.5 115,-0.5 73,-0.5"/>
<text text-anchor="middle" x="94" y="-7.5" font-family="Helvetica,sans-Serif" font-size="10.00">World</text>
</a>
</g>
</g>
<!-- Node9&#45;&gt;Node6 -->
<g id="edge9" class="edge"><title>Node9&#45;&gt;Node6</title>
<path fill="none" stroke="#9a32cd" stroke-dasharray="5,2" d="M124.782,-19.7968C168.741,-34.2568 250.473,-61.1424 293.986,-75.456"/>
<polygon fill="#9a32cd" stroke="#9a32cd" points="125.826,-16.4558 115.233,-16.6557 123.639,-23.1053 125.826,-16.4558"/>
<text text-anchor="middle" x="238" y="-70" font-family="Helvetica,sans-Serif" font-size="10.00"> m_world</text>
</g>
<!-- Node9&#45;&gt;Node9 -->
<g id="edge10" class="edge"><title>Node9&#45;&gt;Node9</title>
<path fill="none" stroke="#9a32cd" stroke-dasharray="5,2" d="M67.0026,-27.3288C66.8251,-33.2417 75.8242,-38 94,-38 120.438,-38 127.46,-27.9329 115.067,-18.8883"/>
<polygon fill="#9a32cd" stroke="#9a32cd" points="70.0477,-29.0828 72.9326,-18.8883 64.32,-25.0587 70.0477,-29.0828"/>
<text text-anchor="middle" x="94" y="-41" font-family="Helvetica,sans-Serif" font-size="10.00"> s_instance</text>
</g>
</g>
</svg>
        <g id="navigator" transform="translate(0 0)" fill="#404254">
                <rect fill="#f2f5e9" fill-opacity="0.5" stroke="#606060" stroke-width=".5" x="0" y="0" width="60" height="60"/>
                <use id="zoomplus" xlink:href="#zoomPlus" x="17" y="9" onmousedown="handleZoom(evt,'in')"/>
                <use id="zoomminus" xlink:href="#zoomMin" x="42" y="9" onmousedown="handleZoom(evt,'out')"/>
                <use id="reset" xlink:href="#resetDef" x="30" y="36" onmousedown="handleReset()"/>
                <g id="arrowUp" xlink:href="#dirArrow" transform="translate(30 24)" onmousedown="handlePan(0,-1)">
                  <use xlink:href="#rim" fill="#404040">
                        <set attributeName="fill" to="#808080" begin="arrowUp.mouseover" end="arrowUp.mouseout"/>
                  </use>
                  <path fill="none" stroke="white" stroke-width="1.5" d="M0,-3.0v7 M-2.5,-0.5L0,-3.0L2.5,-0.5"/>
                </g>
                <g id="arrowRight" xlink:href="#dirArrow" transform="rotate(90) translate(36 -43)" onmousedown="handlePan(1,0)">
                  <use xlink:href="#rim" fill="#404040">
                        <set attributeName="fill" to="#808080" begin="arrowRight.mouseover" end="arrowRight.mouseout"/>
                  </use>
                  <path fill="none" stroke="white" stroke-width="1.5" d="M0,-3.0v7 M-2.5,-0.5L0,-3.0L2.5,-0.5"/>
                </g>
                <g id="arrowDown" xlink:href="#dirArrow" transform="rotate(180) translate(-30 -48)" onmousedown="handlePan(0,1)">
                  <use xlink:href="#rim" fill="#404040">
                        <set attributeName="fill" to="#808080" begin="arrowDown.mouseover" end="arrowDown.mouseout"/>
                  </use>
                  <path fill="none" stroke="white" stroke-width="1.5" d="M0,-3.0v7 M-2.5,-0.5L0,-3.0L2.5,-0.5"/>
                </g>
                <g id="arrowLeft" xlink:href="#dirArrow" transform="rotate(270) translate(-36 17)" onmousedown="handlePan(-1,0)">
                  <use xlink:href="#rim" fill="#404040">
                        <set attributeName="fill" to="#808080" begin="arrowLeft.mouseover" end="arrowLeft.mouseout"/>
                  </use>
                  <path fill="none" stroke="white" stroke-width="1.5" d="M0,-3.0v7 M-2.5,-0.5L0,-3.0L2.5,-0.5"/>
                </g>
        </g>
        <svg viewBox="0 0 15 15" width="100%" height="30px" preserveAspectRatio="xMaxYMin meet">
         <g id="arrow_out" transform="scale(0.3 0.3)">
          <a xlink:href="class_bindings__coll__graph_org.svg" target="_base">
           <rect id="button" ry="5" rx="5" y="6" x="6" height="38" width="38"
                fill="#f2f5e9" fill-opacity="0.5" stroke="#606060" stroke-width="1.0"/>
           <path id="arrow"
             d="M 11.500037,31.436501 C 11.940474,20.09759 22.043105,11.32322 32.158766,21.979434 L 37.068811,17.246167 C 37.068811,17.246167 37.088388,32 37.088388,32 L 22.160133,31.978069 C 22.160133,31.978069 26.997745,27.140456 26.997745,27.140456 C 18.528582,18.264221 13.291696,25.230495 11.500037,31.436501 z"
             style="fill:#404040;"/>
          </a>
         </g>
        </svg>
</svg>
