<?xml version="1.0" encoding="UTF-8" standalone="no"?>
<!DOCTYPE svg PUBLIC "-//W3C//DTD SVG 1.1//EN"
 "http://www.w3.org/Graphics/SVG/1.1/DTD/svg11.dtd">
<!-- Generated by graphviz version 2.36.0 (20140111.2315)
 -->
<!-- Title: WorldTreeScanner Pages: 1 -->
<svg width="172pt" height="186pt"
 viewBox="0.00 0.00 172.00 186.00" xmlns="http://www.w3.org/2000/svg" xmlns:xlink="http://www.w3.org/1999/xlink">
<g id="graph0" class="graph" transform="scale(1 1) rotate(0) translate(4 182)">
<title>WorldTreeScanner</title>
<polygon fill="white" stroke="none" points="-4,4 -4,-182 168,-182 168,4 -4,4"/>
<!-- Node1 -->
<g id="node1" class="node"><title>Node1</title>
<polygon fill="#bfbfbf" stroke="black" points="15.5,-0.5 15.5,-19.5 112.5,-19.5 112.5,-0.5 15.5,-0.5"/>
<text text-anchor="middle" x="64" y="-7.5" font-family="Helvetica,sans-Serif" font-size="10.00">WorldTreeScanner</text>
</g>
<!-- Node2 -->
<g id="node2" class="node"><title>Node2</title>
<polygon fill="white" stroke="#bfbfbf" points="0,-90.5 0,-109.5 128,-109.5 128,-90.5 0,-90.5"/>
<text text-anchor="middle" x="64" y="-97.5" font-family="Helvetica,sans-Serif" font-size="10.00">std::list&lt; WorldObject * &gt;</text>
</g>
<!-- Node2&#45;&gt;Node1 -->
<g id="edge1" class="edge"><title>Node2&#45;&gt;Node1</title>
<path fill="none" stroke="#9a32cd" stroke-dasharray="5,2" d="M64,-79.9784C64,-61.3096 64,-33.6696 64,-19.7241"/>
<polygon fill="#9a32cd" stroke="#9a32cd" points="60.5001,-80.2405 64,-90.2405 67.5001,-80.2405 60.5001,-80.2405"/>
<text text-anchor="middle" x="114" y="-63.5" font-family="Helvetica,sans-Serif" font-size="10.00"> m_foundWorldObjects</text>
<text text-anchor="middle" x="114" y="-52.5" font-family="Helvetica,sans-Serif" font-size="10.00">m_lostWorldObjects</text>
<text text-anchor="middle" x="114" y="-41.5" font-family="Helvetica,sans-Serif" font-size="10.00">m_worldObjects</text>
</g>
<!-- Node3 -->
<g id="node3" class="node"><title>Node3</title>
<g id="a_node3"><a xlink:href="class_world_object.html" target="_top" xlink:title="WorldObject">
<polygon fill="white" stroke="red" points="28.5,-158.5 28.5,-177.5 99.5,-177.5 99.5,-158.5 28.5,-158.5"/>
<text text-anchor="middle" x="64" y="-165.5" font-family="Helvetica,sans-Serif" font-size="10.00">WorldObject</text>
</a>
</g>
</g>
<!-- Node3&#45;&gt;Node2 -->
<g id="edge2" class="edge"><title>Node3&#45;&gt;Node2</title>
<path fill="none" stroke="#9a32cd" stroke-dasharray="5,2" d="M64,-148.041C64,-135.472 64,-119.563 64,-109.841"/>
<polygon fill="#9a32cd" stroke="#9a32cd" points="60.5001,-148.372 64,-158.372 67.5001,-148.372 60.5001,-148.372"/>
<text text-anchor="middle" x="85.5" y="-131.5" font-family="Helvetica,sans-Serif" font-size="10.00"> elements</text>
</g>
</g>
</svg>
