<?xml version="1.0" encoding="UTF-8" standalone="no"?>
<!DOCTYPE svg PUBLIC "-//W3C//DTD SVG 1.1//EN"
 "http://www.w3.org/Graphics/SVG/1.1/DTD/svg11.dtd">
<!-- Generated by graphviz version 2.36.0 (20140111.2315)
 -->
<!-- Title: Movement Pages: 1 -->
<!--zoomable 242 -->
<svg id="main" version="1.1" xmlns="http://www.w3.org/2000/svg" xmlns:xlink="http://www.w3.org/1999/xlink" xml:space="preserve" onload="init(evt)">
<style type="text/css"><![CDATA[
.edge:hover path { stroke: red; }
.edge:hover polygon { stroke: red; fill: red; }
]]></style>
<script type="text/javascript"><![CDATA[
var edges = document.getElementsByTagName('g');
if (edges && edges.length) {
  for (var i=0;i<edges.length;i++) {
    if (edges[i].id.substr(0,4)=='edge') {
      edges[i].setAttribute('class','edge');
    }
  }
}
]]></script>
        <defs>
                <circle id="rim" cx="0" cy="0" r="7"/>
                <circle id="rim2" cx="0" cy="0" r="3.5"/>
                <g id="zoomPlus">
                        <use xlink:href="#rim" fill="#404040">
                                <set attributeName="fill" to="#808080" begin="zoomplus.mouseover" end="zoomplus.mouseout"/>
                        </use>
                        <path d="M-4,0h8M0,-4v8" fill="none" stroke="white" stroke-width="1.5" pointer-events="none"/>
                </g>
                <g id="zoomMin">
                        <use xlink:href="#rim" fill="#404040">
                                <set attributeName="fill" to="#808080" begin="zoomminus.mouseover" end="zoomminus.mouseout"/>
                        </use>
                        <path d="M-4,0h8" fill="none" stroke="white" stroke-width="1.5" pointer-events="none"/>
                </g>
                <g id="dirArrow">
                        <path fill="none" stroke="white" stroke-width="1.5" d="M0,-3.0v7 M-2.5,-0.5L0,-3.0L2.5,-0.5"/>
                </g>
               <g id="resetDef">
                       <use xlink:href="#rim2" fill="#404040">
                               <set attributeName="fill" to="#808080" begin="reset.mouseover" end="reset.mouseout"/>
                       </use>
               </g>
        </defs>

<script type="text/javascript">
var viewWidth = 598;
var viewHeight = 242;
var sectionId = 'dynsection-0';
</script>
<script xlink:href="svgpan.js"/>
<svg id="graph" class="graph">
<g id="viewport">
<title>Movement</title>
<polygon fill="white" stroke="none" points="-4,4 -4,-238 594.089,-238 594.089,4 -4,4"/>
<!-- Node1 -->
<g id="node1" class="node"><title>Node1</title>
<polygon fill="#bfbfbf" stroke="black" points="199.589,-0.5 199.589,-19.5 260.589,-19.5 260.589,-0.5 199.589,-0.5"/>
<text text-anchor="middle" x="230.089" y="-7.5" font-family="Helvetica,sans-Serif" font-size="10.00">Movement</text>
</g>
<!-- Node2 -->
<g id="node2" class="node"><title>Node2</title>
<g id="a_node2"><a xlink:href="class_collision_detector.html" target="_top" xlink:title="CollisionDetector">
<polygon fill="white" stroke="black" points="195.089,-78.5 195.089,-97.5 285.089,-97.5 285.089,-78.5 195.089,-78.5"/>
<text text-anchor="middle" x="240.089" y="-85.5" font-family="Helvetica,sans-Serif" font-size="10.00">CollisionDetector</text>
</a>
</g>
</g>
<!-- Node2&#45;&gt;Node1 -->
<g id="edge1" class="edge"><title>Node2&#45;&gt;Node1</title>
<path fill="none" stroke="#9a32cd" stroke-dasharray="5,2" d="M233.141,-68.5977C232.306,-65.7543 231.577,-62.824 231.089,-60 228.684,-46.0817 228.978,-29.6106 229.481,-19.7496"/>
<polygon fill="#9a32cd" stroke="#9a32cd" points="229.864,-69.8327 236.397,-78.1742 236.492,-67.5798 229.864,-69.8327"/>
<text text-anchor="middle" x="275.589" y="-46.5" font-family="Helvetica,sans-Serif" font-size="10.00"> m_collisionDetector</text>
</g>
<!-- Node3 -->
<g id="node3" class="node"><title>Node3</title>
<g id="a_node3"><a xlink:href="class_world_tree.html" target="_top" xlink:title="WorldTree">
<polygon fill="white" stroke="red" points="529.589,-146.5 529.589,-165.5 590.589,-165.5 590.589,-146.5 529.589,-146.5"/>
<text text-anchor="middle" x="560.089" y="-153.5" font-family="Helvetica,sans-Serif" font-size="10.00">WorldTree</text>
</a>
</g>
</g>
<!-- Node3&#45;&gt;Node2 -->
<g id="edge2" class="edge"><title>Node3&#45;&gt;Node2</title>
<path fill="none" stroke="#9a32cd" stroke-dasharray="5,2" d="M524.518,-143.488C497.051,-134.938 457.971,-123.505 423.089,-116 416.398,-114.56 337.445,-103.062 285.453,-95.5417"/>
<polygon fill="#9a32cd" stroke="#9a32cd" points="523.493,-146.835 534.082,-146.495 525.592,-140.157 523.493,-146.835"/>
<text text-anchor="middle" x="498.089" y="-119.5" font-family="Helvetica,sans-Serif" font-size="10.00"> m_worldTree</text>
</g>
<!-- Node4 -->
<g id="node4" class="node"><title>Node4</title>
<polygon fill="white" stroke="#bfbfbf" points="11.0891,-146.5 11.0891,-165.5 139.089,-165.5 139.089,-146.5 11.0891,-146.5"/>
<text text-anchor="middle" x="75.0891" y="-153.5" font-family="Helvetica,sans-Serif" font-size="10.00">std::list&lt; VoxelCollision &gt;</text>
</g>
<!-- Node4&#45;&gt;Node2 -->
<g id="edge3" class="edge"><title>Node4&#45;&gt;Node2</title>
<path fill="none" stroke="#9a32cd" stroke-dasharray="5,2" d="M83.6831,-137.576C88.3779,-129.813 94.9144,-121.255 103.089,-116 130.414,-98.4332 166.669,-91.859 195.019,-89.5826"/>
<polygon fill="#9a32cd" stroke="#9a32cd" points="80.6,-135.919 78.8835,-146.374 86.7451,-139.271 80.6,-135.919"/>
<text text-anchor="middle" x="132.089" y="-119.5" font-family="Helvetica,sans-Serif" font-size="10.00"> m_collisions</text>
</g>
<!-- Node5 -->
<g id="node5" class="node"><title>Node5</title>
<g id="a_node5"><a xlink:href="class_world_object.html" target="_top" xlink:title="WorldObject">
<polygon fill="white" stroke="red" points="139.589,-214.5 139.589,-233.5 210.589,-233.5 210.589,-214.5 139.589,-214.5"/>
<text text-anchor="middle" x="175.089" y="-221.5" font-family="Helvetica,sans-Serif" font-size="10.00">WorldObject</text>
</a>
</g>
</g>
<!-- Node5&#45;&gt;Node1 -->
<g id="edge8" class="edge"><title>Node5&#45;&gt;Node1</title>
<path fill="none" stroke="#9a32cd" stroke-dasharray="5,2" d="M129.331,-221.433C73.2875,-217.12 -12.5466,-201.514 2.08907,-146 24.7225,-60.1501 142.818,-27.0152 199.573,-15.9058"/>
<polygon fill="#9a32cd" stroke="#9a32cd" points="129.204,-224.932 139.417,-222.114 129.676,-217.948 129.204,-224.932"/>
<text text-anchor="middle" x="49.0891" y="-119.5" font-family="Helvetica,sans-Serif" font-size="10.00"> m_worldObject</text>
</g>
<!-- Node5&#45;&gt;Node2 -->
<g id="edge4" class="edge"><title>Node5&#45;&gt;Node2</title>
<path fill="none" stroke="#9a32cd" stroke-dasharray="5,2" d="M173.962,-204.107C173.754,-187.914 175.298,-164.365 184.089,-146 193.912,-125.479 214.132,-107.858 227.396,-97.8427"/>
<polygon fill="#9a32cd" stroke="#9a32cd" points="170.476,-204.555 174.344,-214.419 177.471,-204.296 170.476,-204.555"/>
<text text-anchor="middle" x="218.089" y="-153.5" font-family="Helvetica,sans-Serif" font-size="10.00"> m_worldObject</text>
</g>
<!-- Node6 -->
<g id="node6" class="node"><title>Node6</title>
<g id="a_node6"><a xlink:href="class_world_tree_geode.html" target="_top" xlink:title="WorldTreeGeode">
<polygon fill="white" stroke="red" points="261.589,-146.5 261.589,-165.5 350.589,-165.5 350.589,-146.5 261.589,-146.5"/>
<text text-anchor="middle" x="306.089" y="-153.5" font-family="Helvetica,sans-Serif" font-size="10.00">WorldTreeGeode</text>
</a>
</g>
</g>
<!-- Node5&#45;&gt;Node6 -->
<g id="edge6" class="edge"><title>Node5&#45;&gt;Node6</title>
<path fill="none" stroke="#9a32cd" stroke-dasharray="5,2" d="M201.166,-209.862C227.243,-196.724 266.597,-176.897 288.959,-165.63"/>
<polygon fill="#9a32cd" stroke="#9a32cd" points="199.571,-206.747 192.215,-214.372 202.72,-212.998 199.571,-206.747"/>
<text text-anchor="middle" x="287.089" y="-187.5" font-family="Helvetica,sans-Serif" font-size="10.00"> m_worldObject</text>
</g>
<!-- Node6&#45;&gt;Node2 -->
<g id="edge5" class="edge"><title>Node6&#45;&gt;Node2</title>
<path fill="none" stroke="#9a32cd" stroke-dasharray="5,2" d="M290.136,-139.047C277.2,-126.111 259.446,-108.357 248.93,-97.8411"/>
<polygon fill="#9a32cd" stroke="#9a32cd" points="287.915,-141.775 297.461,-146.372 292.865,-136.826 287.915,-141.775"/>
<text text-anchor="middle" x="300.589" y="-119.5" font-family="Helvetica,sans-Serif" font-size="10.00"> m_geode</text>
</g>
<!-- Node7 -->
<g id="node7" class="node"><title>Node7</title>
<polygon fill="white" stroke="#bfbfbf" points="368.589,-146.5 368.589,-165.5 511.589,-165.5 511.589,-146.5 368.589,-146.5"/>
<text text-anchor="middle" x="440.089" y="-153.5" font-family="Helvetica,sans-Serif" font-size="10.00">std::unique_ptr&lt; VoxelTree &gt;</text>
</g>
<!-- Node7&#45;&gt;Node2 -->
<g id="edge7" class="edge"><title>Node7&#45;&gt;Node2</title>
<path fill="none" stroke="#9a32cd" stroke-dasharray="5,2" d="M406.19,-143.151C383.556,-135.301 353.099,-124.858 326.089,-116 306.758,-109.66 284.883,-102.797 268.033,-97.5761"/>
<polygon fill="#9a32cd" stroke="#9a32cd" points="405.093,-146.475 415.688,-146.452 407.391,-139.863 405.093,-146.475"/>
<text text-anchor="middle" x="390.089" y="-119.5" font-family="Helvetica,sans-Serif" font-size="10.00"> m_voxelTree</text>
</g>
<!-- Node8 -->
<g id="node8" class="node"><title>Node8</title>
<g id="a_node8"><a xlink:href="class_transform.html" target="_top" xlink:title="Transform">
<polygon fill="white" stroke="black" points="312.589,-78.5 312.589,-97.5 371.589,-97.5 371.589,-78.5 312.589,-78.5"/>
<text text-anchor="middle" x="342.089" y="-85.5" font-family="Helvetica,sans-Serif" font-size="10.00">Transform</text>
</a>
</g>
</g>
<!-- Node8&#45;&gt;Node1 -->
<g id="edge9" class="edge"><title>Node8&#45;&gt;Node1</title>
<path fill="none" stroke="#9a32cd" stroke-dasharray="5,2" d="M337.905,-68.6781C334.659,-58.3402 329.142,-45.9417 320.089,-38 303.657,-23.5842 279.768,-16.8623 260.731,-13.7295"/>
<polygon fill="#9a32cd" stroke="#9a32cd" points="334.549,-69.6782 340.518,-78.4321 341.311,-67.867 334.549,-69.6782"/>
<text text-anchor="middle" x="380.589" y="-52" font-family="Helvetica,sans-Serif" font-size="10.00"> m_originalTransform</text>
<text text-anchor="middle" x="380.589" y="-41" font-family="Helvetica,sans-Serif" font-size="10.00">m_targetTransform</text>
</g>
</g>
</svg>
        <g id="navigator" transform="translate(0 0)" fill="#404254">
                <rect fill="#f2f5e9" fill-opacity="0.5" stroke="#606060" stroke-width=".5" x="0" y="0" width="60" height="60"/>
                <use id="zoomplus" xlink:href="#zoomPlus" x="17" y="9" onmousedown="handleZoom(evt,'in')"/>
                <use id="zoomminus" xlink:href="#zoomMin" x="42" y="9" onmousedown="handleZoom(evt,'out')"/>
                <use id="reset" xlink:href="#resetDef" x="30" y="36" onmousedown="handleReset()"/>
                <g id="arrowUp" xlink:href="#dirArrow" transform="translate(30 24)" onmousedown="handlePan(0,-1)">
                  <use xlink:href="#rim" fill="#404040">
                        <set attributeName="fill" to="#808080" begin="arrowUp.mouseover" end="arrowUp.mouseout"/>
                  </use>
                  <path fill="none" stroke="white" stroke-width="1.5" d="M0,-3.0v7 M-2.5,-0.5L0,-3.0L2.5,-0.5"/>
                </g>
                <g id="arrowRight" xlink:href="#dirArrow" transform="rotate(90) translate(36 -43)" onmousedown="handlePan(1,0)">
                  <use xlink:href="#rim" fill="#404040">
                        <set attributeName="fill" to="#808080" begin="arrowRight.mouseover" end="arrowRight.mouseout"/>
                  </use>
                  <path fill="none" stroke="white" stroke-width="1.5" d="M0,-3.0v7 M-2.5,-0.5L0,-3.0L2.5,-0.5"/>
                </g>
                <g id="arrowDown" xlink:href="#dirArrow" transform="rotate(180) translate(-30 -48)" onmousedown="handlePan(0,1)">
                  <use xlink:href="#rim" fill="#404040">
                        <set attributeName="fill" to="#808080" begin="arrowDown.mouseover" end="arrowDown.mouseout"/>
                  </use>
                  <path fill="none" stroke="white" stroke-width="1.5" d="M0,-3.0v7 M-2.5,-0.5L0,-3.0L2.5,-0.5"/>
                </g>
                <g id="arrowLeft" xlink:href="#dirArrow" transform="rotate(270) translate(-36 17)" onmousedown="handlePan(-1,0)">
                  <use xlink:href="#rim" fill="#404040">
                        <set attributeName="fill" to="#808080" begin="arrowLeft.mouseover" end="arrowLeft.mouseout"/>
                  </use>
                  <path fill="none" stroke="white" stroke-width="1.5" d="M0,-3.0v7 M-2.5,-0.5L0,-3.0L2.5,-0.5"/>
                </g>
        </g>
        <svg viewBox="0 0 15 15" width="100%" height="30px" preserveAspectRatio="xMaxYMin meet">
         <g id="arrow_out" transform="scale(0.3 0.3)">
          <a xlink:href="class_movement__coll__graph_org.svg" target="_base">
           <rect id="button" ry="5" rx="5" y="6" x="6" height="38" width="38"
                fill="#f2f5e9" fill-opacity="0.5" stroke="#606060" stroke-width="1.0"/>
           <path id="arrow"
             d="M 11.500037,31.436501 C 11.940474,20.09759 22.043105,11.32322 32.158766,21.979434 L 37.068811,17.246167 C 37.068811,17.246167 37.088388,32 37.088388,32 L 22.160133,31.978069 C 22.160133,31.978069 26.997745,27.140456 26.997745,27.140456 C 18.528582,18.264221 13.291696,25.230495 11.500037,31.436501 z"
             style="fill:#404040;"/>
          </a>
         </g>
        </svg>
</svg>
