<?xml version="1.0" encoding="UTF-8" standalone="no"?>
<!DOCTYPE svg PUBLIC "-//W3C//DTD SVG 1.1//EN"
 "http://www.w3.org/Graphics/SVG/1.1/DTD/svg11.dtd">
<!-- Generated by graphviz version 2.36.0 (20140111.2315)
 -->
<!-- Title: God Pages: 1 -->
<svg width="1311pt" height="547pt"
 viewBox="0.00 0.00 1310.50 547.00" xmlns="http://www.w3.org/2000/svg" xmlns:xlink="http://www.w3.org/1999/xlink">
<g id="graph0" class="graph" transform="scale(1 1) rotate(0) translate(4 543)">
<title>God</title>
<polygon fill="white" stroke="none" points="-4,4 -4,-543 1306.5,-543 1306.5,4 -4,4"/>
<!-- Node1 -->
<g id="node1" class="node"><title>Node1</title>
<polygon fill="#bfbfbf" stroke="black" points="890.5,-450.5 890.5,-469.5 925.5,-469.5 925.5,-450.5 890.5,-450.5"/>
<text text-anchor="middle" x="908" y="-457.5" font-family="Helvetica,sans-Serif" font-size="10.00">God</text>
</g>
<!-- Node16 -->
<g id="node16" class="node"><title>Node16</title>
<polygon fill="white" stroke="#bfbfbf" points="997.5,-474.5 997.5,-493.5 1114.5,-493.5 1114.5,-474.5 997.5,-474.5"/>
<text text-anchor="middle" x="1056" y="-481.5" font-family="Helvetica,sans-Serif" font-size="10.00">std::unique_ptr&lt; God &gt;</text>
</g>
<!-- Node1&#45;&gt;Node16 -->
<g id="edge18" class="edge"><title>Node1&#45;&gt;Node16</title>
<path fill="none" stroke="#9a32cd" stroke-dasharray="5,2" d="M935.643,-464.38C952.863,-467.21 975.953,-471.006 997.235,-474.504"/>
<polygon fill="#9a32cd" stroke="#9a32cd" points="936.183,-460.922 925.748,-462.753 935.048,-467.829 936.183,-460.922"/>
<text text-anchor="middle" x="952" y="-470" font-family="Helvetica,sans-Serif" font-size="10.00"> ptr</text>
</g>
<!-- Node2 -->
<g id="node2" class="node"><title>Node2</title>
<polygon fill="white" stroke="#bfbfbf" points="152,-428.5 152,-447.5 280,-447.5 280,-428.5 152,-428.5"/>
<text text-anchor="middle" x="216" y="-435.5" font-family="Helvetica,sans-Serif" font-size="10.00">std::list&lt; WorldObject * &gt;</text>
</g>
<!-- Node2&#45;&gt;Node1 -->
<g id="edge1" class="edge"><title>Node2&#45;&gt;Node1</title>
<path fill="none" stroke="#9a32cd" stroke-dasharray="5,2" d="M271.278,-449.265C280.174,-450.761 289.319,-452.09 298,-453 349.292,-458.379 362.437,-454.987 414,-456 579.316,-459.249 620.655,-459.889 786,-461 824.221,-461.257 833.782,-461.546 872,-461 877.957,-460.915 884.482,-460.748 890.267,-460.575"/>
<polygon fill="#9a32cd" stroke="#9a32cd" points="271.836,-445.809 261.38,-447.518 270.62,-452.703 271.836,-445.809"/>
<text text-anchor="middle" x="566" y="-463" font-family="Helvetica,sans-Serif" font-size="10.00"> m_scheduledRemovals</text>
</g>
<!-- Node5 -->
<g id="node5" class="node"><title>Node5</title>
<g id="a_node5"><a xlink:href="class_spawn_request.html" target="_top" xlink:title="SpawnRequest">
<polygon fill="white" stroke="black" points="414,-427.5 414,-446.5 496,-446.5 496,-427.5 414,-427.5"/>
<text text-anchor="middle" x="455" y="-434.5" font-family="Helvetica,sans-Serif" font-size="10.00">SpawnRequest</text>
</a>
</g>
</g>
<!-- Node2&#45;&gt;Node5 -->
<g id="edge5" class="edge"><title>Node2&#45;&gt;Node5</title>
<path fill="none" stroke="#9a32cd" stroke-dasharray="5,2" d="M290.339,-437.691C330.983,-437.519 379.961,-437.312 413.683,-437.17"/>
<polygon fill="#9a32cd" stroke="#9a32cd" points="290.185,-434.191 280.2,-437.733 290.215,-441.191 290.185,-434.191"/>
<text text-anchor="middle" x="347" y="-441" font-family="Helvetica,sans-Serif" font-size="10.00"> m_worldObjects</text>
</g>
<!-- Node3 -->
<g id="node3" class="node"><title>Node3</title>
<g id="a_node3"><a xlink:href="class_world_object.html" target="_top" xlink:title="WorldObject">
<polygon fill="white" stroke="red" points="0.5,-408.5 0.5,-427.5 71.5,-427.5 71.5,-408.5 0.5,-408.5"/>
<text text-anchor="middle" x="36" y="-415.5" font-family="Helvetica,sans-Serif" font-size="10.00">WorldObject</text>
</a>
</g>
</g>
<!-- Node3&#45;&gt;Node2 -->
<g id="edge2" class="edge"><title>Node3&#45;&gt;Node2</title>
<path fill="none" stroke="#9a32cd" stroke-dasharray="5,2" d="M81.7698,-423.03C102.995,-425.415 128.72,-428.306 151.883,-430.908"/>
<polygon fill="#9a32cd" stroke="#9a32cd" points="82.071,-419.542 71.7427,-421.904 81.2894,-426.498 82.071,-419.542"/>
<text text-anchor="middle" x="112" y="-432" font-family="Helvetica,sans-Serif" font-size="10.00"> elements</text>
</g>
<!-- Node8 -->
<g id="node8" class="node"><title>Node8</title>
<polygon fill="white" stroke="#bfbfbf" points="298,-384 298,-414 396,-414 396,-384 298,-384"/>
<text text-anchor="start" x="306" y="-402" font-family="Helvetica,sans-Serif" font-size="10.00">std::unordered_set</text>
<text text-anchor="middle" x="347" y="-391" font-family="Helvetica,sans-Serif" font-size="10.00">&lt; WorldObject * &gt;</text>
</g>
<!-- Node3&#45;&gt;Node8 -->
<g id="edge9" class="edge"><title>Node3&#45;&gt;Node8</title>
<path fill="none" stroke="#9a32cd" stroke-dasharray="5,2" d="M81.7777,-410.897C84.5562,-410.563 87.3139,-410.26 90,-410 162.175,-403.022 246.225,-400.471 297.767,-399.538"/>
<polygon fill="#9a32cd" stroke="#9a32cd" points="81.1752,-407.446 71.7153,-412.217 82.0856,-414.387 81.1752,-407.446"/>
<text text-anchor="middle" x="112" y="-413" font-family="Helvetica,sans-Serif" font-size="10.00"> keys</text>
</g>
<!-- Node4 -->
<g id="node4" class="node"><title>Node4</title>
<polygon fill="white" stroke="#bfbfbf" points="636,-427.5 636,-446.5 768,-446.5 768,-427.5 636,-427.5"/>
<text text-anchor="middle" x="702" y="-434.5" font-family="Helvetica,sans-Serif" font-size="10.00">std::list&lt; SpawnRequest &gt;</text>
</g>
<!-- Node4&#45;&gt;Node1 -->
<g id="edge3" class="edge"><title>Node4&#45;&gt;Node1</title>
<path fill="none" stroke="#9a32cd" stroke-dasharray="5,2" d="M778.573,-439.555C807.911,-441.396 841.686,-444.561 872,-450 878.096,-451.094 884.654,-452.816 890.426,-454.524"/>
<polygon fill="#9a32cd" stroke="#9a32cd" points="778.581,-436.05 768.393,-438.958 778.171,-443.038 778.581,-436.05"/>
<text text-anchor="middle" x="829" y="-453" font-family="Helvetica,sans-Serif" font-size="10.00"> m_spawnRequests</text>
</g>
<!-- Node5&#45;&gt;Node4 -->
<g id="edge4" class="edge"><title>Node5&#45;&gt;Node4</title>
<path fill="none" stroke="#9a32cd" stroke-dasharray="5,2" d="M506.359,-437C543.83,-437 595.29,-437 635.887,-437"/>
<polygon fill="#9a32cd" stroke="#9a32cd" points="506.182,-433.5 496.182,-437 506.182,-440.5 506.182,-433.5"/>
<text text-anchor="middle" x="566" y="-440" font-family="Helvetica,sans-Serif" font-size="10.00"> elements</text>
</g>
<!-- Node6 -->
<g id="node6" class="node"><title>Node6</title>
<g id="a_node6"><a xlink:href="class_world.html" target="_top" xlink:title="World">
<polygon fill="white" stroke="black" points="1256,-269.5 1256,-288.5 1298,-288.5 1298,-269.5 1256,-269.5"/>
<text text-anchor="middle" x="1277" y="-276.5" font-family="Helvetica,sans-Serif" font-size="10.00">World</text>
</a>
</g>
</g>
<!-- Node6&#45;&gt;Node1 -->
<g id="edge6" class="edge"><title>Node6&#45;&gt;Node1</title>
<path fill="none" stroke="#9a32cd" stroke-dasharray="5,2" d="M1276.62,-298.926C1276.36,-328.616 1271.11,-384.063 1238,-413 1226.03,-423.464 990.598,-450.771 925.534,-458.143"/>
<polygon fill="#9a32cd" stroke="#9a32cd" points="1280.11,-298.551 1276.51,-288.587 1273.11,-298.623 1280.11,-298.551"/>
<text text-anchor="middle" x="1056" y="-455" font-family="Helvetica,sans-Serif" font-size="10.00"> m_world</text>
</g>
<!-- Node6&#45;&gt;Node6 -->
<g id="edge20" class="edge"><title>Node6&#45;&gt;Node6</title>
<path fill="none" stroke="#9a32cd" stroke-dasharray="5,2" d="M1261.9,-298.766C1263.09,-303.497 1268.12,-307 1277,-307 1291.57,-307 1295.79,-297.565 1289.64,-288.757"/>
<polygon fill="#9a32cd" stroke="#9a32cd" points="1265.37,-299.304 1264.36,-288.757 1258.57,-297.631 1265.37,-299.304"/>
<text text-anchor="middle" x="1277" y="-310" font-family="Helvetica,sans-Serif" font-size="10.00"> s_instance</text>
</g>
<!-- Node7 -->
<g id="node7" class="node"><title>Node7</title>
<polygon fill="white" stroke="#bfbfbf" points="984.5,-512.5 984.5,-531.5 1127.5,-531.5 1127.5,-512.5 984.5,-512.5"/>
<text text-anchor="middle" x="1056" y="-519.5" font-family="Helvetica,sans-Serif" font-size="10.00">std::unique_ptr&lt; WorldTree &gt;</text>
</g>
<!-- Node7&#45;&gt;Node6 -->
<g id="edge7" class="edge"><title>Node7&#45;&gt;Node6</title>
<path fill="none" stroke="#9a32cd" stroke-dasharray="5,2" d="M1138.14,-529.631C1173.17,-528.426 1212.01,-520.325 1238,-495 1268.07,-465.706 1274.53,-326.628 1275.75,-288.619"/>
<polygon fill="#9a32cd" stroke="#9a32cd" points="1137.83,-526.135 1127.89,-529.796 1137.94,-533.134 1137.83,-526.135"/>
<text text-anchor="middle" x="1195" y="-531" font-family="Helvetica,sans-Serif" font-size="10.00"> m_worldTree</text>
</g>
<!-- Node8&#45;&gt;Node6 -->
<g id="edge8" class="edge"><title>Node8&#45;&gt;Node6</title>
<path fill="none" stroke="#9a32cd" stroke-dasharray="5,2" d="M406.42,-399C450.099,-399 511.289,-399 565,-399 565,-399 565,-399 1057,-399 1138.4,-399 1174.01,-421.312 1238,-371 1264.49,-350.172 1272.67,-307.694 1275.07,-288.634"/>
<polygon fill="#9a32cd" stroke="#9a32cd" points="406.265,-395.5 396.265,-399 406.265,-402.5 406.265,-395.5"/>
<text text-anchor="middle" x="829" y="-402" font-family="Helvetica,sans-Serif" font-size="10.00"> m_worldObjects</text>
</g>
<!-- Node9 -->
<g id="node9" class="node"><title>Node9</title>
<polygon fill="white" stroke="#bfbfbf" points="992.5,-351.5 992.5,-370.5 1119.5,-370.5 1119.5,-351.5 992.5,-351.5"/>
<text text-anchor="middle" x="1056" y="-358.5" font-family="Helvetica,sans-Serif" font-size="10.00">std::unique_ptr&lt; Player &gt;</text>
</g>
<!-- Node9&#45;&gt;Node6 -->
<g id="edge10" class="edge"><title>Node9&#45;&gt;Node6</title>
<path fill="none" stroke="#9a32cd" stroke-dasharray="5,2" d="M1129.65,-359.049C1164.51,-355.303 1205.62,-346.561 1238,-327 1253.28,-317.767 1264.87,-299.981 1271.03,-288.843"/>
<polygon fill="#9a32cd" stroke="#9a32cd" points="1129.14,-355.581 1119.52,-360.018 1129.81,-362.549 1129.14,-355.581"/>
<text text-anchor="middle" x="1195" y="-359" font-family="Helvetica,sans-Serif" font-size="10.00"> m_player</text>
</g>
<!-- Node10 -->
<g id="node10" class="node"><title>Node10</title>
<polygon fill="white" stroke="#bfbfbf" points="982,-313.5 982,-332.5 1130,-332.5 1130,-313.5 982,-313.5"/>
<text text-anchor="middle" x="1056" y="-320.5" font-family="Helvetica,sans-Serif" font-size="10.00">std::unique_ptr&lt; WorldLogic &gt;</text>
</g>
<!-- Node10&#45;&gt;Node6 -->
<g id="edge11" class="edge"><title>Node10&#45;&gt;Node6</title>
<path fill="none" stroke="#9a32cd" stroke-dasharray="5,2" d="M1140.73,-313.451C1171.62,-308.92 1206.7,-302.575 1238,-294 1243.88,-292.388 1250.1,-290.167 1255.77,-287.927"/>
<polygon fill="#9a32cd" stroke="#9a32cd" points="1139.84,-310.043 1130.43,-314.919 1140.82,-316.973 1139.84,-310.043"/>
<text text-anchor="middle" x="1195" y="-315" font-family="Helvetica,sans-Serif" font-size="10.00"> m_worldLogic</text>
</g>
<!-- Node11 -->
<g id="node11" class="node"><title>Node11</title>
<polygon fill="white" stroke="#bfbfbf" points="1007,-264 1007,-294 1105,-294 1105,-264 1007,-264"/>
<text text-anchor="start" x="1015" y="-282" font-family="Helvetica,sans-Serif" font-size="10.00">std::unordered_set</text>
<text text-anchor="middle" x="1056" y="-271" font-family="Helvetica,sans-Serif" font-size="10.00">&lt; Ship * &gt;</text>
</g>
<!-- Node11&#45;&gt;Node6 -->
<g id="edge12" class="edge"><title>Node11&#45;&gt;Node6</title>
<path fill="none" stroke="#9a32cd" stroke-dasharray="5,2" d="M1115.33,-279C1161.91,-279 1224.41,-279 1255.97,-279"/>
<polygon fill="#9a32cd" stroke="#9a32cd" points="1115.06,-275.5 1105.06,-279 1115.06,-282.5 1115.06,-275.5"/>
<text text-anchor="middle" x="1195" y="-282" font-family="Helvetica,sans-Serif" font-size="10.00"> m_ships</text>
</g>
<!-- Node12 -->
<g id="node12" class="node"><title>Node12</title>
<polygon fill="white" stroke="#bfbfbf" points="990,-225.5 990,-244.5 1122,-244.5 1122,-225.5 990,-225.5"/>
<text text-anchor="middle" x="1056" y="-232.5" font-family="Helvetica,sans-Serif" font-size="10.00">std::unique_ptr&lt; Skybox &gt;</text>
</g>
<!-- Node12&#45;&gt;Node6 -->
<g id="edge13" class="edge"><title>Node12&#45;&gt;Node6</title>
<path fill="none" stroke="#9a32cd" stroke-dasharray="5,2" d="M1132.22,-243.33C1165.05,-247.917 1203.79,-254.626 1238,-264 1243.88,-265.612 1250.1,-267.833 1255.77,-270.073"/>
<polygon fill="#9a32cd" stroke="#9a32cd" points="1132.61,-239.851 1122.23,-241.974 1131.67,-246.787 1132.61,-239.851"/>
<text text-anchor="middle" x="1195" y="-267" font-family="Helvetica,sans-Serif" font-size="10.00"> m_skybox</text>
</g>
<!-- Node13 -->
<g id="node13" class="node"><title>Node13</title>
<polygon fill="white" stroke="#bfbfbf" points="982,-176 982,-206 1130,-206 1130,-176 982,-176"/>
<text text-anchor="start" x="990" y="-194" font-family="Helvetica,sans-Serif" font-size="10.00">std::unique_ptr&lt; VoxelParticle</text>
<text text-anchor="middle" x="1056" y="-183" font-family="Helvetica,sans-Serif" font-size="10.00">Engine &gt;</text>
</g>
<!-- Node13&#45;&gt;Node6 -->
<g id="edge14" class="edge"><title>Node13&#45;&gt;Node6</title>
<path fill="none" stroke="#9a32cd" stroke-dasharray="5,2" d="M1140.3,-198.065C1172.66,-203.726 1208.87,-213.868 1238,-232 1252.97,-241.316 1264.65,-258.646 1270.92,-269.46"/>
<polygon fill="#9a32cd" stroke="#9a32cd" points="1140.82,-194.605 1130.39,-196.448 1139.7,-201.513 1140.82,-194.605"/>
<text text-anchor="middle" x="1195" y="-235" font-family="Helvetica,sans-Serif" font-size="10.00"> m_particleEngine</text>
</g>
<!-- Node14 -->
<g id="node14" class="node"><title>Node14</title>
<polygon fill="white" stroke="#bfbfbf" points="978.5,-137.5 978.5,-156.5 1133.5,-156.5 1133.5,-137.5 978.5,-137.5"/>
<text text-anchor="middle" x="1056" y="-144.5" font-family="Helvetica,sans-Serif" font-size="10.00">std::unique_ptr&lt; ScriptEngine &gt;</text>
</g>
<!-- Node14&#45;&gt;Node6 -->
<g id="edge15" class="edge"><title>Node14&#45;&gt;Node6</title>
<path fill="none" stroke="#9a32cd" stroke-dasharray="5,2" d="M1143.68,-148.931C1176.34,-153.658 1211.88,-164.106 1238,-186 1264.07,-207.847 1272.47,-250.372 1275,-269.397"/>
<polygon fill="#9a32cd" stroke="#9a32cd" points="1144.01,-145.445 1133.64,-147.641 1143.12,-152.387 1144.01,-145.445"/>
<text text-anchor="middle" x="1195" y="-189" font-family="Helvetica,sans-Serif" font-size="10.00"> m_scriptEngine</text>
</g>
<!-- Node15 -->
<g id="node15" class="node"><title>Node15</title>
<polygon fill="white" stroke="#bfbfbf" points="995,-88 995,-118 1117,-118 1117,-88 995,-88"/>
<text text-anchor="start" x="1003" y="-106" font-family="Helvetica,sans-Serif" font-size="10.00">std::unique_ptr&lt; Faction</text>
<text text-anchor="middle" x="1056" y="-95" font-family="Helvetica,sans-Serif" font-size="10.00">Matrix &gt;</text>
</g>
<!-- Node15&#45;&gt;Node6 -->
<g id="edge16" class="edge"><title>Node15&#45;&gt;Node6</title>
<path fill="none" stroke="#9a32cd" stroke-dasharray="5,2" d="M1127.45,-99.2441C1164.69,-101.056 1208.64,-109.781 1238,-137 1276.74,-172.912 1277.68,-243.591 1276.61,-269.332"/>
<polygon fill="#9a32cd" stroke="#9a32cd" points="1127.26,-95.7359 1117.15,-98.9069 1127.03,-102.732 1127.26,-95.7359"/>
<text text-anchor="middle" x="1195" y="-140" font-family="Helvetica,sans-Serif" font-size="10.00"> m_factionMatrix</text>
</g>
<!-- Node16&#45;&gt;Node6 -->
<g id="edge17" class="edge"><title>Node16&#45;&gt;Node6</title>
<path fill="none" stroke="#9a32cd" stroke-dasharray="5,2" d="M1124.72,-482.58C1169.08,-480.201 1221.74,-474.145 1238,-459 1263.36,-435.379 1273.03,-322.469 1275.39,-288.615"/>
<polygon fill="#9a32cd" stroke="#9a32cd" points="1124.35,-479.094 1114.53,-483.072 1124.68,-486.086 1124.35,-479.094"/>
<text text-anchor="middle" x="1195" y="-483" font-family="Helvetica,sans-Serif" font-size="10.00"> m_god</text>
</g>
<!-- Node17 -->
<g id="node17" class="node"><title>Node17</title>
<polygon fill="white" stroke="#bfbfbf" points="994,-39 994,-69 1118,-69 1118,-39 994,-39"/>
<text text-anchor="start" x="1002" y="-57" font-family="Helvetica,sans-Serif" font-size="10.00">std::unique_ptr&lt; Mission</text>
<text text-anchor="middle" x="1056" y="-46" font-family="Helvetica,sans-Serif" font-size="10.00">System &gt;</text>
</g>
<!-- Node17&#45;&gt;Node6 -->
<g id="edge19" class="edge"><title>Node17&#45;&gt;Node6</title>
<path fill="none" stroke="#9a32cd" stroke-dasharray="5,2" d="M1128.54,-49.0766C1165.9,-50.4876 1209.61,-59.0323 1238,-87 1264.39,-112.992 1273.39,-233.947 1275.48,-269.283"/>
<polygon fill="#9a32cd" stroke="#9a32cd" points="1128.27,-45.57 1118.19,-48.8576 1128.12,-52.5685 1128.27,-45.57"/>
<text text-anchor="middle" x="1195" y="-90" font-family="Helvetica,sans-Serif" font-size="10.00"> m_missionSystem</text>
</g>
<!-- Node18 -->
<g id="node18" class="node"><title>Node18</title>
<polygon fill="white" stroke="#bfbfbf" points="982,-0.5 982,-19.5 1130,-19.5 1130,-0.5 982,-0.5"/>
<text text-anchor="middle" x="1056" y="-7.5" font-family="Helvetica,sans-Serif" font-size="10.00">std::unique_ptr&lt; EventPoller &gt;</text>
</g>
<!-- Node18&#45;&gt;Node6 -->
<g id="edge21" class="edge"><title>Node18&#45;&gt;Node6</title>
<path fill="none" stroke="#9a32cd" stroke-dasharray="5,2" d="M1140.45,-2.22794C1174.97,-3.64159 1212.75,-11.9465 1238,-37 1271.58,-70.3269 1275.49,-228.53 1275.94,-269.365"/>
<polygon fill="#9a32cd" stroke="#9a32cd" points="1140.41,1.27367 1130.34,-2.00128 1140.26,-5.72457 1140.41,1.27367"/>
<text text-anchor="middle" x="1195" y="-40" font-family="Helvetica,sans-Serif" font-size="10.00"> m_eventPoller</text>
</g>
</g>
</svg>
