<?xml version="1.0" encoding="UTF-8" standalone="no"?>
<!DOCTYPE svg PUBLIC "-//W3C//DTD SVG 1.1//EN"
 "http://www.w3.org/Graphics/SVG/1.1/DTD/svg11.dtd">
<!-- Generated by graphviz version 2.36.0 (20140111.2315)
 -->
<!-- Title: AimHelperHudgetVoxels Pages: 1 -->
<!--zoomable 181 -->
<svg id="main" version="1.1" xmlns="http://www.w3.org/2000/svg" xmlns:xlink="http://www.w3.org/1999/xlink" xml:space="preserve" onload="init(evt)">
<style type="text/css"><![CDATA[
.edge:hover path { stroke: red; }
.edge:hover polygon { stroke: red; fill: red; }
]]></style>
<script type="text/javascript"><![CDATA[
var edges = document.getElementsByTagName('g');
if (edges && edges.length) {
  for (var i=0;i<edges.length;i++) {
    if (edges[i].id.substr(0,4)=='edge') {
      edges[i].setAttribute('class','edge');
    }
  }
}
]]></script>
        <defs>
                <circle id="rim" cx="0" cy="0" r="7"/>
                <circle id="rim2" cx="0" cy="0" r="3.5"/>
                <g id="zoomPlus">
                        <use xlink:href="#rim" fill="#404040">
                                <set attributeName="fill" to="#808080" begin="zoomplus.mouseover" end="zoomplus.mouseout"/>
                        </use>
                        <path d="M-4,0h8M0,-4v8" fill="none" stroke="white" stroke-width="1.5" pointer-events="none"/>
                </g>
                <g id="zoomMin">
                        <use xlink:href="#rim" fill="#404040">
                                <set attributeName="fill" to="#808080" begin="zoomminus.mouseover" end="zoomminus.mouseout"/>
                        </use>
                        <path d="M-4,0h8" fill="none" stroke="white" stroke-width="1.5" pointer-events="none"/>
                </g>
                <g id="dirArrow">
                        <path fill="none" stroke="white" stroke-width="1.5" d="M0,-3.0v7 M-2.5,-0.5L0,-3.0L2.5,-0.5"/>
                </g>
               <g id="resetDef">
                       <use xlink:href="#rim2" fill="#404040">
                               <set attributeName="fill" to="#808080" begin="reset.mouseover" end="reset.mouseout"/>
                       </use>
               </g>
        </defs>

<script type="text/javascript">
var viewWidth = 1014;
var viewHeight = 181;
var sectionId = 'dynsection-0';
</script>
<script xlink:href="svgpan.js"/>
<svg id="graph" class="graph">
<g id="viewport">
<title>AimHelperHudgetVoxels</title>
<polygon fill="white" stroke="none" points="-4,4 -4,-177.143 1010,-177.143 1010,4 -4,4"/>
<!-- Node1 -->
<g id="node1" class="node"><title>Node1</title>
<polygon fill="#bfbfbf" stroke="black" points="388,-33.6429 388,-52.6429 510,-52.6429 510,-33.6429 388,-33.6429"/>
<text text-anchor="middle" x="449" y="-40.6429" font-family="Helvetica,sans-Serif" font-size="10.00">AimHelperHudgetVoxels</text>
</g>
<!-- Node4 -->
<g id="node4" class="node"><title>Node4</title>
<polygon fill="white" stroke="#bfbfbf" points="660.5,-28.1429 660.5,-58.1429 795.5,-58.1429 795.5,-28.1429 660.5,-28.1429"/>
<text text-anchor="start" x="668.5" y="-46.1429" font-family="Helvetica,sans-Serif" font-size="10.00">std::unique_ptr&lt; AimHelper</text>
<text text-anchor="middle" x="728" y="-35.1429" font-family="Helvetica,sans-Serif" font-size="10.00">HudgetVoxels &gt;</text>
</g>
<!-- Node1&#45;&gt;Node4 -->
<g id="edge4" class="edge"><title>Node1&#45;&gt;Node4</title>
<path fill="none" stroke="#9a32cd" stroke-dasharray="5,2" d="M520.204,-43.1429C563.187,-43.1429 617.876,-43.1429 660.216,-43.1429"/>
<polygon fill="#9a32cd" stroke="#9a32cd" points="520.105,-39.643 510.105,-43.1429 520.105,-46.643 520.105,-39.643"/>
<text text-anchor="middle" x="585" y="-46.1429" font-family="Helvetica,sans-Serif" font-size="10.00"> ptr</text>
</g>
<!-- Node2 -->
<g id="node2" class="node"><title>Node2</title>
<g id="a_node2"><a xlink:href="class_aim_helper_hudget.html" target="_top" xlink:title="AimHelperHudget">
<polygon fill="white" stroke="black" points="914,-77.6429 914,-96.6429 1006,-96.6429 1006,-77.6429 914,-77.6429"/>
<text text-anchor="middle" x="960" y="-84.6429" font-family="Helvetica,sans-Serif" font-size="10.00">AimHelperHudget</text>
</a>
</g>
</g>
<!-- Node2&#45;&gt;Node1 -->
<g id="edge1" class="edge"><title>Node2&#45;&gt;Node1</title>
<path fill="none" stroke="#9a32cd" stroke-dasharray="5,2" d="M938.127,-71.4985C926.194,-63.0039 910.714,-52.7206 896,-45.1429 853.731,-23.3744 842.764,-15.7285 796,-7.14293 681.95,13.7961 544.35,-16.9234 482.678,-33.5919"/>
<polygon fill="#9a32cd" stroke="#9a32cd" points="936.341,-74.5272 946.489,-77.5712 940.454,-68.8631 936.341,-74.5272"/>
<text text-anchor="middle" x="728" y="-10.1429" font-family="Helvetica,sans-Serif" font-size="10.00"> m_aimHelperHudget</text>
</g>
<!-- Node3 -->
<g id="node3" class="node"><title>Node3</title>
<g id="a_node3"><a xlink:href="class_circular_hudget.html" target="_top" xlink:title="CircularHudget">
<polygon fill="white" stroke="red" points="688,-153.643 688,-172.643 768,-172.643 768,-153.643 688,-153.643"/>
<text text-anchor="middle" x="728" y="-160.643" font-family="Helvetica,sans-Serif" font-size="10.00">CircularHudget</text>
</a>
</g>
</g>
<!-- Node3&#45;&gt;Node2 -->
<g id="edge2" class="edge"><title>Node3&#45;&gt;Node2</title>
<path fill="none" stroke="midnightblue" d="M778.276,-158.686C812.364,-154.349 858.209,-145.987 896,-130.143 915.784,-121.848 935.757,-106.832 947.758,-96.9229"/>
<polygon fill="midnightblue" stroke="midnightblue" points="777.609,-155.241 768.097,-159.906 778.442,-162.191 777.609,-155.241"/>
</g>
<!-- Node4&#45;&gt;Node2 -->
<g id="edge3" class="edge"><title>Node4&#45;&gt;Node2</title>
<path fill="none" stroke="#9a32cd" stroke-dasharray="5,2" d="M805.519,-47.5728C834.2,-50.3461 866.882,-54.8466 896,-62.1429 910.839,-65.8612 926.853,-72.2499 939.022,-77.6381"/>
<polygon fill="#9a32cd" stroke="#9a32cd" points="805.83,-44.0867 795.553,-46.662 805.193,-51.0577 805.83,-44.0867"/>
<text text-anchor="middle" x="855" y="-65.1429" font-family="Helvetica,sans-Serif" font-size="10.00"> m_voxels</text>
</g>
<!-- Node5 -->
<g id="node5" class="node"><title>Node5</title>
<g id="a_node5"><a xlink:href="class_range.html" target="_top" xlink:title="Range">
<polygon fill="white" stroke="black" points="706,-115.643 706,-134.643 750,-134.643 750,-115.643 706,-115.643"/>
<text text-anchor="middle" x="728" y="-122.643" font-family="Helvetica,sans-Serif" font-size="10.00">Range</text>
</a>
</g>
</g>
<!-- Node5&#45;&gt;Node2 -->
<g id="edge5" class="edge"><title>Node5&#45;&gt;Node2</title>
<path fill="none" stroke="#9a32cd" stroke-dasharray="5,2" d="M760.31,-121.365C793.954,-117.137 848.94,-109.741 896,-101.143 903.164,-99.8341 910.752,-98.2873 918.086,-96.7078"/>
<polygon fill="#9a32cd" stroke="#9a32cd" points="759.666,-117.918 750.173,-122.624 760.529,-124.864 759.666,-117.918"/>
<text text-anchor="middle" x="855" y="-118.143" font-family="Helvetica,sans-Serif" font-size="10.00"> m_distanceRange</text>
</g>
<!-- Node6 -->
<g id="node6" class="node"><title>Node6</title>
<g id="a_node6"><a xlink:href="class_world_object.html" target="_top" xlink:title="WorldObject">
<polygon fill="white" stroke="red" points="298.5,-76.6429 298.5,-95.6429 369.5,-95.6429 369.5,-76.6429 298.5,-76.6429"/>
<text text-anchor="middle" x="334" y="-83.6429" font-family="Helvetica,sans-Serif" font-size="10.00">WorldObject</text>
</a>
</g>
</g>
<!-- Node6&#45;&gt;Node2 -->
<g id="edge6" class="edge"><title>Node6&#45;&gt;Node2</title>
<path fill="none" stroke="#9a32cd" stroke-dasharray="5,2" d="M380.098,-86.2152C495.144,-86.3996 798.564,-86.8858 913.762,-87.0704"/>
<polygon fill="#9a32cd" stroke="#9a32cd" points="379.892,-82.715 369.886,-86.1988 379.88,-89.715 379.892,-82.715"/>
<text text-anchor="middle" x="585" y="-90.1429" font-family="Helvetica,sans-Serif" font-size="10.00"> m_lastTargetWorldObject</text>
</g>
<!-- Node7 -->
<g id="node7" class="node"><title>Node7</title>
<g id="a_node7"><a xlink:href="class_voxel_cluster.html" target="_top" xlink:title="VoxelCluster">
<polygon fill="white" stroke="red" points="0,-59.6429 0,-78.6429 72,-78.6429 72,-59.6429 0,-59.6429"/>
<text text-anchor="middle" x="36" y="-66.6429" font-family="Helvetica,sans-Serif" font-size="10.00">VoxelCluster</text>
</a>
</g>
</g>
<!-- Node7&#45;&gt;Node6 -->
<g id="edge7" class="edge"><title>Node7&#45;&gt;Node6</title>
<path fill="none" stroke="midnightblue" d="M82.335,-71.7466C141.788,-75.1611 244.809,-81.0779 298.386,-84.155"/>
<polygon fill="midnightblue" stroke="midnightblue" points="82.3017,-68.239 72.1175,-71.1598 81.9003,-75.2275 82.3017,-68.239"/>
</g>
<!-- Node8 -->
<g id="node8" class="node"><title>Node8</title>
<polygon fill="white" stroke="#bfbfbf" points="124.5,-37.6429 124.5,-56.6429 279.5,-56.6429 279.5,-37.6429 124.5,-37.6429"/>
<text text-anchor="middle" x="202" y="-44.6429" font-family="Helvetica,sans-Serif" font-size="10.00">std::unique_ptr&lt; VoxelCluster &gt;</text>
</g>
<!-- Node7&#45;&gt;Node8 -->
<g id="edge9" class="edge"><title>Node7&#45;&gt;Node8</title>
<path fill="none" stroke="#9a32cd" stroke-dasharray="5,2" d="M81.924,-61.3492C84.6545,-60.9267 87.3627,-60.521 90,-60.1429 101.044,-58.5597 112.726,-57.0318 124.203,-55.6143"/>
<polygon fill="#9a32cd" stroke="#9a32cd" points="81.3475,-57.8968 72.026,-62.9327 82.4534,-64.8089 81.3475,-57.8968"/>
<text text-anchor="middle" x="98" y="-63.1429" font-family="Helvetica,sans-Serif" font-size="10.00"> ptr</text>
</g>
<!-- Node8&#45;&gt;Node1 -->
<g id="edge8" class="edge"><title>Node8&#45;&gt;Node1</title>
<path fill="none" stroke="#9a32cd" stroke-dasharray="5,2" d="M289.816,-45.2879C292.576,-45.2377 295.309,-45.1892 298,-45.1429 327.556,-44.6348 360.389,-44.1841 387.784,-43.8398"/>
<polygon fill="#9a32cd" stroke="#9a32cd" points="289.669,-41.79 279.736,-45.4766 289.8,-48.7887 289.669,-41.79"/>
<text text-anchor="middle" x="334" y="-59.1429" font-family="Helvetica,sans-Serif" font-size="10.00"> m_dot</text>
<text text-anchor="middle" x="334" y="-48.1429" font-family="Helvetica,sans-Serif" font-size="10.00">m_circle</text>
</g>
</g>
</svg>
        <g id="navigator" transform="translate(0 0)" fill="#404254">
                <rect fill="#f2f5e9" fill-opacity="0.5" stroke="#606060" stroke-width=".5" x="0" y="0" width="60" height="60"/>
                <use id="zoomplus" xlink:href="#zoomPlus" x="17" y="9" onmousedown="handleZoom(evt,'in')"/>
                <use id="zoomminus" xlink:href="#zoomMin" x="42" y="9" onmousedown="handleZoom(evt,'out')"/>
                <use id="reset" xlink:href="#resetDef" x="30" y="36" onmousedown="handleReset()"/>
                <g id="arrowUp" xlink:href="#dirArrow" transform="translate(30 24)" onmousedown="handlePan(0,-1)">
                  <use xlink:href="#rim" fill="#404040">
                        <set attributeName="fill" to="#808080" begin="arrowUp.mouseover" end="arrowUp.mouseout"/>
                  </use>
                  <path fill="none" stroke="white" stroke-width="1.5" d="M0,-3.0v7 M-2.5,-0.5L0,-3.0L2.5,-0.5"/>
                </g>
                <g id="arrowRight" xlink:href="#dirArrow" transform="rotate(90) translate(36 -43)" onmousedown="handlePan(1,0)">
                  <use xlink:href="#rim" fill="#404040">
                        <set attributeName="fill" to="#808080" begin="arrowRight.mouseover" end="arrowRight.mouseout"/>
                  </use>
                  <path fill="none" stroke="white" stroke-width="1.5" d="M0,-3.0v7 M-2.5,-0.5L0,-3.0L2.5,-0.5"/>
                </g>
                <g id="arrowDown" xlink:href="#dirArrow" transform="rotate(180) translate(-30 -48)" onmousedown="handlePan(0,1)">
                  <use xlink:href="#rim" fill="#404040">
                        <set attributeName="fill" to="#808080" begin="arrowDown.mouseover" end="arrowDown.mouseout"/>
                  </use>
                  <path fill="none" stroke="white" stroke-width="1.5" d="M0,-3.0v7 M-2.5,-0.5L0,-3.0L2.5,-0.5"/>
                </g>
                <g id="arrowLeft" xlink:href="#dirArrow" transform="rotate(270) translate(-36 17)" onmousedown="handlePan(-1,0)">
                  <use xlink:href="#rim" fill="#404040">
                        <set attributeName="fill" to="#808080" begin="arrowLeft.mouseover" end="arrowLeft.mouseout"/>
                  </use>
                  <path fill="none" stroke="white" stroke-width="1.5" d="M0,-3.0v7 M-2.5,-0.5L0,-3.0L2.5,-0.5"/>
                </g>
        </g>
        <svg viewBox="0 0 15 15" width="100%" height="30px" preserveAspectRatio="xMaxYMin meet">
         <g id="arrow_out" transform="scale(0.3 0.3)">
          <a xlink:href="class_aim_helper_hudget_voxels__coll__graph_org.svg" target="_base">
           <rect id="button" ry="5" rx="5" y="6" x="6" height="38" width="38"
                fill="#f2f5e9" fill-opacity="0.5" stroke="#606060" stroke-width="1.0"/>
           <path id="arrow"
             d="M 11.500037,31.436501 C 11.940474,20.09759 22.043105,11.32322 32.158766,21.979434 L 37.068811,17.246167 C 37.068811,17.246167 37.088388,32 37.088388,32 L 22.160133,31.978069 C 22.160133,31.978069 26.997745,27.140456 26.997745,27.140456 C 18.528582,18.264221 13.291696,25.230495 11.500037,31.436501 z"
             style="fill:#404040;"/>
          </a>
         </g>
        </svg>
</svg>
