<?xml version="1.0" encoding="UTF-8" standalone="no"?>
<!DOCTYPE svg PUBLIC "-//W3C//DTD SVG 1.1//EN"
 "http://www.w3.org/Graphics/SVG/1.1/DTD/svg11.dtd">
<!-- Generated by graphviz version 2.36.0 (20140111.2315)
 -->
<!-- Title: ObjectHudgetVoxels Pages: 1 -->
<!--zoomable 325 -->
<svg id="main" version="1.1" xmlns="http://www.w3.org/2000/svg" xmlns:xlink="http://www.w3.org/1999/xlink" xml:space="preserve" onload="init(evt)">
<style type="text/css"><![CDATA[
.edge:hover path { stroke: red; }
.edge:hover polygon { stroke: red; fill: red; }
]]></style>
<script type="text/javascript"><![CDATA[
var edges = document.getElementsByTagName('g');
if (edges && edges.length) {
  for (var i=0;i<edges.length;i++) {
    if (edges[i].id.substr(0,4)=='edge') {
      edges[i].setAttribute('class','edge');
    }
  }
}
]]></script>
        <defs>
                <circle id="rim" cx="0" cy="0" r="7"/>
                <circle id="rim2" cx="0" cy="0" r="3.5"/>
                <g id="zoomPlus">
                        <use xlink:href="#rim" fill="#404040">
                                <set attributeName="fill" to="#808080" begin="zoomplus.mouseover" end="zoomplus.mouseout"/>
                        </use>
                        <path d="M-4,0h8M0,-4v8" fill="none" stroke="white" stroke-width="1.5" pointer-events="none"/>
                </g>
                <g id="zoomMin">
                        <use xlink:href="#rim" fill="#404040">
                                <set attributeName="fill" to="#808080" begin="zoomminus.mouseover" end="zoomminus.mouseout"/>
                        </use>
                        <path d="M-4,0h8" fill="none" stroke="white" stroke-width="1.5" pointer-events="none"/>
                </g>
                <g id="dirArrow">
                        <path fill="none" stroke="white" stroke-width="1.5" d="M0,-3.0v7 M-2.5,-0.5L0,-3.0L2.5,-0.5"/>
                </g>
               <g id="resetDef">
                       <use xlink:href="#rim2" fill="#404040">
                               <set attributeName="fill" to="#808080" begin="reset.mouseover" end="reset.mouseout"/>
                       </use>
               </g>
        </defs>

<script type="text/javascript">
var viewWidth = 672;
var viewHeight = 325;
var sectionId = 'dynsection-0';
</script>
<script xlink:href="svgpan.js"/>
<svg id="graph" class="graph">
<g id="viewport">
<title>ObjectHudgetVoxels</title>
<polygon fill="white" stroke="none" points="-4,4 -4,-321 668,-321 668,4 -4,4"/>
<!-- Node1 -->
<g id="node1" class="node"><title>Node1</title>
<polygon fill="#bfbfbf" stroke="black" points="0,-175.5 0,-194.5 106,-194.5 106,-175.5 0,-175.5"/>
<text text-anchor="middle" x="53" y="-182.5" font-family="Helvetica,sans-Serif" font-size="10.00">ObjectHudgetVoxels</text>
</g>
<!-- Node3 -->
<g id="node3" class="node"><title>Node3</title>
<g id="a_node3"><a xlink:href="class_object_hudget_corner_voxels.html" target="_top" xlink:title="ObjectHudgetCornerVoxels">
<polygon fill="white" stroke="red" points="254,-222.5 254,-241.5 388,-241.5 388,-222.5 254,-222.5"/>
<text text-anchor="middle" x="321" y="-229.5" font-family="Helvetica,sans-Serif" font-size="10.00">ObjectHudgetCornerVoxels</text>
</a>
</g>
</g>
<!-- Node1&#45;&gt;Node3 -->
<g id="edge3" class="edge"><title>Node1&#45;&gt;Node3</title>
<path fill="none" stroke="#9a32cd" stroke-dasharray="5,2" d="M116.265,-196.002C161.707,-204.031 222.687,-214.806 266.059,-222.469"/>
<polygon fill="#9a32cd" stroke="#9a32cd" points="116.692,-192.523 106.236,-194.23 115.474,-199.416 116.692,-192.523"/>
<text text-anchor="middle" x="176" y="-219" font-family="Helvetica,sans-Serif" font-size="10.00"> m_objectHudgetVoxels</text>
</g>
<!-- Node8 -->
<g id="node8" class="node"><title>Node8</title>
<polygon fill="white" stroke="#bfbfbf" points="246.5,-135 246.5,-165 395.5,-165 395.5,-135 246.5,-135"/>
<text text-anchor="start" x="254.5" y="-153" font-family="Helvetica,sans-Serif" font-size="10.00">std::unique_ptr&lt; ObjectHudget</text>
<text text-anchor="middle" x="321" y="-142" font-family="Helvetica,sans-Serif" font-size="10.00">Voxels &gt;</text>
</g>
<!-- Node1&#45;&gt;Node8 -->
<g id="edge9" class="edge"><title>Node1&#45;&gt;Node8</title>
<path fill="none" stroke="#9a32cd" stroke-dasharray="5,2" d="M116.37,-176.041C118.947,-175.687 121.498,-175.338 124,-175 164.453,-169.531 209.649,-163.744 246.437,-159.117"/>
<polygon fill="#9a32cd" stroke="#9a32cd" points="115.778,-172.59 106.355,-177.433 116.742,-179.523 115.778,-172.59"/>
<text text-anchor="middle" x="176" y="-178" font-family="Helvetica,sans-Serif" font-size="10.00"> ptr</text>
</g>
<!-- Node2 -->
<g id="node2" class="node"><title>Node2</title>
<polygon fill="white" stroke="#bfbfbf" points="514.5,-245 514.5,-275 663.5,-275 663.5,-245 514.5,-245"/>
<text text-anchor="start" x="522.5" y="-263" font-family="Helvetica,sans-Serif" font-size="10.00">std::unique_ptr&lt; ObjectHudget</text>
<text text-anchor="middle" x="589" y="-252" font-family="Helvetica,sans-Serif" font-size="10.00">CornerVoxels &gt;</text>
</g>
<!-- Node2&#45;&gt;Node1 -->
<g id="edge1" class="edge"><title>Node2&#45;&gt;Node1</title>
<path fill="none" stroke="#9a32cd" stroke-dasharray="5,2" d="M504.142,-269.695C408.613,-277.404 249.512,-279.961 124,-231 101.511,-222.227 78.7544,-205.49 65.5333,-194.806"/>
<polygon fill="#9a32cd" stroke="#9a32cd" points="504.657,-273.164 514.326,-268.834 504.067,-266.189 504.657,-273.164"/>
<text text-anchor="middle" x="321" y="-309" font-family="Helvetica,sans-Serif" font-size="10.00"> m_rb</text>
<text text-anchor="middle" x="321" y="-298" font-family="Helvetica,sans-Serif" font-size="10.00">m_ru</text>
<text text-anchor="middle" x="321" y="-287" font-family="Helvetica,sans-Serif" font-size="10.00">m_lb</text>
<text text-anchor="middle" x="321" y="-276" font-family="Helvetica,sans-Serif" font-size="10.00">m_lu</text>
</g>
<!-- Node3&#45;&gt;Node2 -->
<g id="edge2" class="edge"><title>Node3&#45;&gt;Node2</title>
<path fill="none" stroke="#9a32cd" stroke-dasharray="5,2" d="M398.182,-240.019C434.649,-243.858 478.133,-248.435 514.276,-252.24"/>
<polygon fill="#9a32cd" stroke="#9a32cd" points="398.406,-236.523 388.095,-238.957 397.673,-243.485 398.406,-236.523"/>
<text text-anchor="middle" x="455" y="-253" font-family="Helvetica,sans-Serif" font-size="10.00"> ptr</text>
</g>
<!-- Node4 -->
<g id="node4" class="node"><title>Node4</title>
<g id="a_node4"><a xlink:href="class_object_hudget.html" target="_top" xlink:title="ObjectHudget">
<polygon fill="white" stroke="black" points="551,-91.5 551,-110.5 627,-110.5 627,-91.5 551,-91.5"/>
<text text-anchor="middle" x="589" y="-98.5" font-family="Helvetica,sans-Serif" font-size="10.00">ObjectHudget</text>
</a>
</g>
</g>
<!-- Node4&#45;&gt;Node1 -->
<g id="edge4" class="edge"><title>Node4&#45;&gt;Node1</title>
<path fill="none" stroke="#9a32cd" stroke-dasharray="5,2" d="M551.69,-88.3147C488.359,-68.1284 354.133,-33.9878 246,-65 168.541,-87.215 92.0172,-150.801 64.6016,-175.255"/>
<polygon fill="#9a32cd" stroke="#9a32cd" points="550.639,-91.6531 561.231,-91.4226 552.807,-84.9974 550.639,-91.6531"/>
<text text-anchor="middle" x="321" y="-68" font-family="Helvetica,sans-Serif" font-size="10.00"> m_hudget</text>
</g>
<!-- Node5 -->
<g id="node5" class="node"><title>Node5</title>
<g id="a_node5"><a xlink:href="class_hudget.html" target="_top" xlink:title="Hudget">
<polygon fill="white" stroke="red" points="297.5,-0.5 297.5,-19.5 344.5,-19.5 344.5,-0.5 297.5,-0.5"/>
<text text-anchor="middle" x="321" y="-7.5" font-family="Helvetica,sans-Serif" font-size="10.00">Hudget</text>
</a>
</g>
</g>
<!-- Node5&#45;&gt;Node4 -->
<g id="edge5" class="edge"><title>Node5&#45;&gt;Node4</title>
<path fill="none" stroke="midnightblue" d="M355.091,-12.2584C390.893,-15.5676 449.139,-23.4969 496,-42 527.414,-54.4039 559.621,-78.0828 576.331,-91.3605"/>
<polygon fill="midnightblue" stroke="midnightblue" points="355,-8.73793 344.738,-11.3731 354.404,-15.7125 355,-8.73793"/>
</g>
<!-- Node6 -->
<g id="node6" class="node"><title>Node6</title>
<g id="a_node6"><a xlink:href="class_h_u_d_object_delegate.html" target="_top" xlink:title="HUDObjectDelegate">
<polygon fill="white" stroke="red" points="269,-184.5 269,-203.5 373,-203.5 373,-184.5 269,-184.5"/>
<text text-anchor="middle" x="321" y="-191.5" font-family="Helvetica,sans-Serif" font-size="10.00">HUDObjectDelegate</text>
</a>
</g>
</g>
<!-- Node6&#45;&gt;Node4 -->
<g id="edge6" class="edge"><title>Node6&#45;&gt;Node4</title>
<path fill="none" stroke="#9a32cd" stroke-dasharray="5,2" d="M378.908,-182.198C413.37,-174.258 457.884,-162.582 496,-148 523.641,-137.426 553.869,-120.958 571.868,-110.586"/>
<polygon fill="#9a32cd" stroke="#9a32cd" points="377.992,-178.817 369.012,-184.439 379.538,-185.644 377.992,-178.817"/>
<text text-anchor="middle" x="455" y="-177" font-family="Helvetica,sans-Serif" font-size="10.00"> m_objectDelegate</text>
</g>
<!-- Node7 -->
<g id="node7" class="node"><title>Node7</title>
<polygon fill="white" stroke="#bfbfbf" points="248,-86 248,-116 394,-116 394,-86 248,-86"/>
<text text-anchor="start" x="256" y="-104" font-family="Helvetica,sans-Serif" font-size="10.00">std::unique_ptr&lt; ArrowHudget</text>
<text text-anchor="middle" x="321" y="-93" font-family="Helvetica,sans-Serif" font-size="10.00">Voxels &gt;</text>
</g>
<!-- Node7&#45;&gt;Node4 -->
<g id="edge7" class="edge"><title>Node7&#45;&gt;Node4</title>
<path fill="none" stroke="#9a32cd" stroke-dasharray="5,2" d="M404.603,-101C453.541,-101 513.163,-101 550.861,-101"/>
<polygon fill="#9a32cd" stroke="#9a32cd" points="404.334,-97.5001 394.334,-101 404.334,-104.5 404.334,-97.5001"/>
<text text-anchor="middle" x="455" y="-104" font-family="Helvetica,sans-Serif" font-size="10.00"> m_arrowVoxels</text>
</g>
<!-- Node8&#45;&gt;Node4 -->
<g id="edge8" class="edge"><title>Node8&#45;&gt;Node4</title>
<path fill="none" stroke="#9a32cd" stroke-dasharray="5,2" d="M405.661,-134.589C454.413,-125.608 513.471,-114.729 550.896,-107.835"/>
<polygon fill="#9a32cd" stroke="#9a32cd" points="404.943,-131.162 395.743,-136.416 406.211,-138.046 404.943,-131.162"/>
<text text-anchor="middle" x="455" y="-136" font-family="Helvetica,sans-Serif" font-size="10.00"> m_objectVoxels</text>
</g>
</g>
</svg>
        <g id="navigator" transform="translate(0 0)" fill="#404254">
                <rect fill="#f2f5e9" fill-opacity="0.5" stroke="#606060" stroke-width=".5" x="0" y="0" width="60" height="60"/>
                <use id="zoomplus" xlink:href="#zoomPlus" x="17" y="9" onmousedown="handleZoom(evt,'in')"/>
                <use id="zoomminus" xlink:href="#zoomMin" x="42" y="9" onmousedown="handleZoom(evt,'out')"/>
                <use id="reset" xlink:href="#resetDef" x="30" y="36" onmousedown="handleReset()"/>
                <g id="arrowUp" xlink:href="#dirArrow" transform="translate(30 24)" onmousedown="handlePan(0,-1)">
                  <use xlink:href="#rim" fill="#404040">
                        <set attributeName="fill" to="#808080" begin="arrowUp.mouseover" end="arrowUp.mouseout"/>
                  </use>
                  <path fill="none" stroke="white" stroke-width="1.5" d="M0,-3.0v7 M-2.5,-0.5L0,-3.0L2.5,-0.5"/>
                </g>
                <g id="arrowRight" xlink:href="#dirArrow" transform="rotate(90) translate(36 -43)" onmousedown="handlePan(1,0)">
                  <use xlink:href="#rim" fill="#404040">
                        <set attributeName="fill" to="#808080" begin="arrowRight.mouseover" end="arrowRight.mouseout"/>
                  </use>
                  <path fill="none" stroke="white" stroke-width="1.5" d="M0,-3.0v7 M-2.5,-0.5L0,-3.0L2.5,-0.5"/>
                </g>
                <g id="arrowDown" xlink:href="#dirArrow" transform="rotate(180) translate(-30 -48)" onmousedown="handlePan(0,1)">
                  <use xlink:href="#rim" fill="#404040">
                        <set attributeName="fill" to="#808080" begin="arrowDown.mouseover" end="arrowDown.mouseout"/>
                  </use>
                  <path fill="none" stroke="white" stroke-width="1.5" d="M0,-3.0v7 M-2.5,-0.5L0,-3.0L2.5,-0.5"/>
                </g>
                <g id="arrowLeft" xlink:href="#dirArrow" transform="rotate(270) translate(-36 17)" onmousedown="handlePan(-1,0)">
                  <use xlink:href="#rim" fill="#404040">
                        <set attributeName="fill" to="#808080" begin="arrowLeft.mouseover" end="arrowLeft.mouseout"/>
                  </use>
                  <path fill="none" stroke="white" stroke-width="1.5" d="M0,-3.0v7 M-2.5,-0.5L0,-3.0L2.5,-0.5"/>
                </g>
        </g>
        <svg viewBox="0 0 15 15" width="100%" height="30px" preserveAspectRatio="xMaxYMin meet">
         <g id="arrow_out" transform="scale(0.3 0.3)">
          <a xlink:href="class_object_hudget_voxels__coll__graph_org.svg" target="_base">
           <rect id="button" ry="5" rx="5" y="6" x="6" height="38" width="38"
                fill="#f2f5e9" fill-opacity="0.5" stroke="#606060" stroke-width="1.0"/>
           <path id="arrow"
             d="M 11.500037,31.436501 C 11.940474,20.09759 22.043105,11.32322 32.158766,21.979434 L 37.068811,17.246167 C 37.068811,17.246167 37.088388,32 37.088388,32 L 22.160133,31.978069 C 22.160133,31.978069 26.997745,27.140456 26.997745,27.140456 C 18.528582,18.264221 13.291696,25.230495 11.500037,31.436501 z"
             style="fill:#404040;"/>
          </a>
         </g>
        </svg>
</svg>
