<?xml version="1.0" encoding="UTF-8" standalone="no"?>
<!DOCTYPE svg PUBLIC "-//W3C//DTD SVG 1.1//EN"
 "http://www.w3.org/Graphics/SVG/1.1/DTD/svg11.dtd">
<!-- Generated by graphviz version 2.36.0 (20140111.2315)
 -->
<!-- Title: VoxelDebrisGenerator Pages: 1 -->
<svg width="268pt" height="186pt"
 viewBox="0.00 0.00 268.00 186.00" xmlns="http://www.w3.org/2000/svg" xmlns:xlink="http://www.w3.org/1999/xlink">
<g id="graph0" class="graph" transform="scale(1 1) rotate(0) translate(4 182)">
<title>VoxelDebrisGenerator</title>
<polygon fill="white" stroke="none" points="-4,4 -4,-182 264,-182 264,4 -4,4"/>
<!-- Node1 -->
<g id="node1" class="node"><title>Node1</title>
<polygon fill="#bfbfbf" stroke="black" points="29,-0.5 29,-19.5 141,-19.5 141,-0.5 29,-0.5"/>
<text text-anchor="middle" x="85" y="-7.5" font-family="Helvetica,sans-Serif" font-size="10.00">VoxelDebrisGenerator</text>
</g>
<!-- Node2 -->
<g id="node2" class="node"><title>Node2</title>
<g id="a_node2"><a xlink:href="class_voxel_particle_spawn_base.html" target="_top" xlink:title="VoxelParticleSpawnBase">
<polygon fill="white" stroke="black" points="22,-58.5 22,-77.5 148,-77.5 148,-58.5 22,-58.5"/>
<text text-anchor="middle" x="85" y="-65.5" font-family="Helvetica,sans-Serif" font-size="10.00">VoxelParticleSpawnBase</text>
</a>
</g>
</g>
<!-- Node2&#45;&gt;Node1 -->
<g id="edge1" class="edge"><title>Node2&#45;&gt;Node1</title>
<path fill="none" stroke="midnightblue" d="M85,-47.953C85,-38.2875 85,-27.0312 85,-19.5052"/>
<polygon fill="midnightblue" stroke="midnightblue" points="81.5001,-48.25 85,-58.25 88.5001,-48.25 81.5001,-48.25"/>
</g>
<!-- Node3 -->
<g id="node3" class="node"><title>Node3</title>
<g id="a_node3"><a xlink:href="class_voxel_cluster.html" target="_top" xlink:title="VoxelCluster">
<polygon fill="white" stroke="red" points="0,-158.5 0,-177.5 72,-177.5 72,-158.5 0,-158.5"/>
<text text-anchor="middle" x="36" y="-165.5" font-family="Helvetica,sans-Serif" font-size="10.00">VoxelCluster</text>
</a>
</g>
</g>
<!-- Node3&#45;&gt;Node2 -->
<g id="edge2" class="edge"><title>Node3&#45;&gt;Node2</title>
<path fill="none" stroke="#9a32cd" stroke-dasharray="5,2" d="M42.3762,-149.018C47.8596,-134.36 56.3884,-113.326 66,-96 69.5591,-89.5844 74.3091,-82.8344 78.1694,-77.6883"/>
<polygon fill="#9a32cd" stroke="#9a32cd" points="39.0855,-147.826 38.9498,-158.42 45.6624,-150.223 39.0855,-147.826"/>
<text text-anchor="middle" x="89.5" y="-115.5" font-family="Helvetica,sans-Serif" font-size="10.00"> m_creator</text>
</g>
<!-- Node4 -->
<g id="node4" class="node"><title>Node4</title>
<g id="a_node4"><a xlink:href="class_property.html" target="_top" xlink:title="Property\&lt; float \&gt;">
<polygon fill="white" stroke="red" points="90.5,-158.5 90.5,-177.5 179.5,-177.5 179.5,-158.5 90.5,-158.5"/>
<text text-anchor="middle" x="135" y="-165.5" font-family="Helvetica,sans-Serif" font-size="10.00">Property&lt; float &gt;</text>
</a>
</g>
</g>
<!-- Node4&#45;&gt;Node2 -->
<g id="edge3" class="edge"><title>Node4&#45;&gt;Node2</title>
<path fill="none" stroke="#9a32cd" stroke-dasharray="5,2" d="M131.818,-148.016C128.696,-133.058 122.923,-112.111 113,-96 108.68,-88.9851 102.118,-82.5242 96.4324,-77.6825"/>
<polygon fill="#9a32cd" stroke="#9a32cd" points="128.427,-148.926 133.713,-158.108 135.307,-147.634 128.427,-148.926"/>
<text text-anchor="middle" x="195" y="-132" font-family="Helvetica,sans-Serif" font-size="10.00"> m_particleAngularDampening</text>
<text text-anchor="middle" x="195" y="-121" font-family="Helvetica,sans-Serif" font-size="10.00">m_particleDampening</text>
<text text-anchor="middle" x="195" y="-110" font-family="Helvetica,sans-Serif" font-size="10.00">m_particleAngularBaseForce</text>
<text text-anchor="middle" x="195" y="-99" font-family="Helvetica,sans-Serif" font-size="10.00">m_particleBaseForce</text>
</g>
</g>
</svg>
