<?xml version="1.0" encoding="UTF-8" standalone="no"?>
<!DOCTYPE svg PUBLIC "-//W3C//DTD SVG 1.1//EN"
 "http://www.w3.org/Graphics/SVG/1.1/DTD/svg11.dtd">
<!-- Generated by graphviz version 2.36.0 (20140111.2315)
 -->
<!-- Title: Starfield Pages: 1 -->
<!--zoomable 193 -->
<svg id="main" version="1.1" xmlns="http://www.w3.org/2000/svg" xmlns:xlink="http://www.w3.org/1999/xlink" xml:space="preserve" onload="init(evt)">
<style type="text/css"><![CDATA[
.edge:hover path { stroke: red; }
.edge:hover polygon { stroke: red; fill: red; }
]]></style>
<script type="text/javascript"><![CDATA[
var edges = document.getElementsByTagName('g');
if (edges && edges.length) {
  for (var i=0;i<edges.length;i++) {
    if (edges[i].id.substr(0,4)=='edge') {
      edges[i].setAttribute('class','edge');
    }
  }
}
]]></script>
        <defs>
                <circle id="rim" cx="0" cy="0" r="7"/>
                <circle id="rim2" cx="0" cy="0" r="3.5"/>
                <g id="zoomPlus">
                        <use xlink:href="#rim" fill="#404040">
                                <set attributeName="fill" to="#808080" begin="zoomplus.mouseover" end="zoomplus.mouseout"/>
                        </use>
                        <path d="M-4,0h8M0,-4v8" fill="none" stroke="white" stroke-width="1.5" pointer-events="none"/>
                </g>
                <g id="zoomMin">
                        <use xlink:href="#rim" fill="#404040">
                                <set attributeName="fill" to="#808080" begin="zoomminus.mouseover" end="zoomminus.mouseout"/>
                        </use>
                        <path d="M-4,0h8" fill="none" stroke="white" stroke-width="1.5" pointer-events="none"/>
                </g>
                <g id="dirArrow">
                        <path fill="none" stroke="white" stroke-width="1.5" d="M0,-3.0v7 M-2.5,-0.5L0,-3.0L2.5,-0.5"/>
                </g>
               <g id="resetDef">
                       <use xlink:href="#rim2" fill="#404040">
                               <set attributeName="fill" to="#808080" begin="reset.mouseover" end="reset.mouseout"/>
                       </use>
               </g>
        </defs>

<script type="text/javascript">
var viewWidth = 642;
var viewHeight = 193;
var sectionId = 'dynsection-1';
</script>
<script xlink:href="svgpan.js"/>
<svg id="graph" class="graph">
<g id="viewport">
<title>Starfield</title>
<polygon fill="white" stroke="none" points="-4,4 -4,-188.982 638,-188.982 638,4 -4,4"/>
<!-- Node1 -->
<g id="node1" class="node"><title>Node1</title>
<polygon fill="#bfbfbf" stroke="black" points="582,-82.5 582,-101.5 634,-101.5 634,-82.5 582,-82.5"/>
<text text-anchor="middle" x="608" y="-89.5" font-family="Helvetica,sans-Serif" font-size="10.00">Starfield</text>
</g>
<!-- Node2 -->
<g id="node2" class="node"><title>Node2</title>
<g id="a_node2"><a xlink:href="class_render_pass.html" target="_top" xlink:title="RenderPass">
<polygon fill="white" stroke="black" points="284,-164.5 284,-183.5 354,-183.5 354,-164.5 284,-164.5"/>
<text text-anchor="middle" x="319" y="-171.5" font-family="Helvetica,sans-Serif" font-size="10.00">RenderPass</text>
</a>
</g>
</g>
<!-- Node2&#45;&gt;Node1 -->
<g id="edge1" class="edge"><title>Node2&#45;&gt;Node1</title>
<path fill="none" stroke="midnightblue" d="M364.379,-181.138C415.985,-187.125 501.997,-189.756 564,-154 584.653,-142.09 597.673,-115.778 603.475,-101.561"/>
<polygon fill="midnightblue" stroke="midnightblue" points="364.581,-177.636 354.223,-179.864 363.709,-184.581 364.581,-177.636"/>
</g>
<!-- Node3 -->
<g id="node3" class="node"><title>Node3</title>
<g id="a_node3"><a xlink:title="STL class. ">
<polygon fill="white" stroke="#bfbfbf" points="0,-126.5 0,-145.5 60,-145.5 60,-126.5 0,-126.5"/>
<text text-anchor="middle" x="30" y="-133.5" font-family="Helvetica,sans-Serif" font-size="10.00">std::string</text>
</a>
</g>
</g>
<!-- Node3&#45;&gt;Node2 -->
<g id="edge2" class="edge"><title>Node3&#45;&gt;Node2</title>
<path fill="none" stroke="#9a32cd" stroke-dasharray="5,2" d="M67.4256,-148.459C70.9728,-149.42 74.5389,-150.29 78,-151 150.373,-165.839 237.033,-171.15 283.878,-173.017"/>
<polygon fill="#9a32cd" stroke="#9a32cd" points="68.1619,-145.028 57.581,-145.569 66.1904,-151.744 68.1619,-145.028"/>
<text text-anchor="middle" x="99" y="-161" font-family="Helvetica,sans-Serif" font-size="10.00"> m_name</text>
</g>
<!-- Node6 -->
<g id="node6" class="node"><title>Node6</title>
<g id="a_node6"><a xlink:href="class_property_impl.html" target="_top" xlink:title="PropertyImpl\&lt; int \&gt;">
<polygon fill="white" stroke="black" points="152,-126.5 152,-145.5 252,-145.5 252,-126.5 152,-126.5"/>
<text text-anchor="middle" x="202" y="-133.5" font-family="Helvetica,sans-Serif" font-size="10.00">PropertyImpl&lt; int &gt;</text>
</a>
</g>
</g>
<!-- Node3&#45;&gt;Node6 -->
<g id="edge6" class="edge"><title>Node3&#45;&gt;Node6</title>
<path fill="none" stroke="#9a32cd" stroke-dasharray="5,2" d="M70.4942,-136C94.757,-136 126.035,-136 151.887,-136"/>
<polygon fill="#9a32cd" stroke="#9a32cd" points="70.2241,-132.5 60.224,-136 70.224,-139.5 70.2241,-132.5"/>
<text text-anchor="middle" x="99" y="-139" font-family="Helvetica,sans-Serif" font-size="10.00"> m_name</text>
</g>
<!-- Node8 -->
<g id="node8" class="node"><title>Node8</title>
<g id="a_node8"><a xlink:href="class_property_impl.html" target="_top" xlink:title="PropertyImpl\&lt; float \&gt;">
<polygon fill="white" stroke="black" points="148.5,-87.5 148.5,-106.5 255.5,-106.5 255.5,-87.5 148.5,-87.5"/>
<text text-anchor="middle" x="202" y="-94.5" font-family="Helvetica,sans-Serif" font-size="10.00">PropertyImpl&lt; float &gt;</text>
</a>
</g>
</g>
<!-- Node3&#45;&gt;Node8 -->
<g id="edge9" class="edge"><title>Node3&#45;&gt;Node8</title>
<path fill="none" stroke="#9a32cd" stroke-dasharray="5,2" d="M68.8953,-123.49C71.9634,-122.605 75.026,-121.762 78,-121 100.868,-115.141 126.446,-109.937 148.329,-105.886"/>
<polygon fill="#9a32cd" stroke="#9a32cd" points="67.7424,-120.182 59.1789,-126.421 69.7636,-126.884 67.7424,-120.182"/>
<text text-anchor="middle" x="99" y="-124" font-family="Helvetica,sans-Serif" font-size="10.00"> m_name</text>
</g>
<!-- Node4 -->
<g id="node4" class="node"><title>Node4</title>
<g id="a_node4"><a xlink:href="class_context_dependant.html" target="_top" xlink:title="ContextDependant">
<polygon fill="white" stroke="black" points="377.5,-49.5 377.5,-68.5 474.5,-68.5 474.5,-49.5 377.5,-49.5"/>
<text text-anchor="middle" x="426" y="-56.5" font-family="Helvetica,sans-Serif" font-size="10.00">ContextDependant</text>
</a>
</g>
</g>
<!-- Node4&#45;&gt;Node1 -->
<g id="edge3" class="edge"><title>Node4&#45;&gt;Node1</title>
<path fill="none" stroke="midnightblue" d="M484.688,-69.5761C517.419,-75.5768 556.725,-82.7829 581.781,-87.3765"/>
<polygon fill="midnightblue" stroke="midnightblue" points="485.231,-66.1175 474.764,-67.7568 483.969,-73.0027 485.231,-66.1175"/>
</g>
<!-- Node5 -->
<g id="node5" class="node"><title>Node5</title>
<g id="a_node5"><a xlink:href="class_property.html" target="_top" xlink:title="Property\&lt; int \&gt;">
<polygon fill="white" stroke="black" points="385,-126.5 385,-145.5 467,-145.5 467,-126.5 385,-126.5"/>
<text text-anchor="middle" x="426" y="-133.5" font-family="Helvetica,sans-Serif" font-size="10.00">Property&lt; int &gt;</text>
</a>
</g>
</g>
<!-- Node5&#45;&gt;Node1 -->
<g id="edge4" class="edge"><title>Node5&#45;&gt;Node1</title>
<path fill="none" stroke="#9a32cd" stroke-dasharray="5,2" d="M477.276,-139.317C503.887,-139.364 536.628,-136.647 564,-126 577.482,-120.756 590.113,-109.753 598.151,-101.678"/>
<polygon fill="#9a32cd" stroke="#9a32cd" points="477.081,-135.814 467.03,-139.165 476.977,-142.813 477.081,-135.814"/>
<text text-anchor="middle" x="531" y="-142" font-family="Helvetica,sans-Serif" font-size="10.00"> m_starCount</text>
</g>
<!-- Node6&#45;&gt;Node5 -->
<g id="edge5" class="edge"><title>Node6&#45;&gt;Node5</title>
<path fill="none" stroke="#9a32cd" stroke-dasharray="5,2" d="M262.373,-136C301.094,-136 350.6,-136 384.765,-136"/>
<polygon fill="#9a32cd" stroke="#9a32cd" points="262.269,-132.5 252.269,-136 262.269,-139.5 262.269,-132.5"/>
<text text-anchor="middle" x="319" y="-139" font-family="Helvetica,sans-Serif" font-size="10.00"> m_impl</text>
</g>
<!-- Node7 -->
<g id="node7" class="node"><title>Node7</title>
<g id="a_node7"><a xlink:href="class_property.html" target="_top" xlink:title="Property\&lt; float \&gt;">
<polygon fill="white" stroke="black" points="381.5,-87.5 381.5,-106.5 470.5,-106.5 470.5,-87.5 381.5,-87.5"/>
<text text-anchor="middle" x="426" y="-94.5" font-family="Helvetica,sans-Serif" font-size="10.00">Property&lt; float &gt;</text>
</a>
</g>
</g>
<!-- Node7&#45;&gt;Node1 -->
<g id="edge7" class="edge"><title>Node7&#45;&gt;Node1</title>
<path fill="none" stroke="#9a32cd" stroke-dasharray="5,2" d="M480.873,-93.6978C486.653,-93.4233 492.447,-93.1818 498,-93 526.75,-92.0588 559.786,-91.8827 581.883,-91.895"/>
<polygon fill="#9a32cd" stroke="#9a32cd" points="480.351,-90.2197 470.542,-94.222 480.706,-97.2107 480.351,-90.2197"/>
<text text-anchor="middle" x="531" y="-118" font-family="Helvetica,sans-Serif" font-size="10.00"> m_fieldRadius</text>
<text text-anchor="middle" x="531" y="-107" font-family="Helvetica,sans-Serif" font-size="10.00">m_starfieldAge</text>
<text text-anchor="middle" x="531" y="-96" font-family="Helvetica,sans-Serif" font-size="10.00">m_starSize</text>
</g>
<!-- Node8&#45;&gt;Node7 -->
<g id="edge8" class="edge"><title>Node8&#45;&gt;Node7</title>
<path fill="none" stroke="#9a32cd" stroke-dasharray="5,2" d="M265.765,-97C302.658,-97 348.377,-97 381.349,-97"/>
<polygon fill="#9a32cd" stroke="#9a32cd" points="265.611,-93.5001 255.611,-97 265.611,-100.5 265.611,-93.5001"/>
<text text-anchor="middle" x="319" y="-100" font-family="Helvetica,sans-Serif" font-size="10.00"> m_impl</text>
</g>
<!-- Node9 -->
<g id="node9" class="node"><title>Node9</title>
<polygon fill="white" stroke="#bfbfbf" points="372.5,-0 372.5,-30 479.5,-30 479.5,-0 372.5,-0"/>
<text text-anchor="start" x="380.5" y="-18" font-family="Helvetica,sans-Serif" font-size="10.00">std::deque&lt; Starfield</text>
<text text-anchor="middle" x="426" y="-7" font-family="Helvetica,sans-Serif" font-size="10.00">::CameraLocation &gt;</text>
</g>
<!-- Node9&#45;&gt;Node1 -->
<g id="edge10" class="edge"><title>Node9&#45;&gt;Node1</title>
<path fill="none" stroke="#9a32cd" stroke-dasharray="5,2" d="M489.293,-29.3654C513.415,-36.2428 540.76,-45.7055 564,-58 576.45,-64.5864 588.877,-74.921 597.146,-82.4687"/>
<polygon fill="#9a32cd" stroke="#9a32cd" points="490.096,-25.9562 479.525,-26.6693 488.234,-32.7039 490.096,-25.9562"/>
<text text-anchor="middle" x="531" y="-61" font-family="Helvetica,sans-Serif" font-size="10.00"> m_locations</text>
</g>
<!-- Node10 -->
<g id="node10" class="node"><title>Node10</title>
<g id="a_node10"><a xlink:href="struct_starfield_1_1_camera_location.html" target="_top" xlink:title="Starfield::CameraLocation">
<polygon fill="white" stroke="black" points="138,-5.5 138,-24.5 266,-24.5 266,-5.5 138,-5.5"/>
<text text-anchor="middle" x="202" y="-12.5" font-family="Helvetica,sans-Serif" font-size="10.00">Starfield::CameraLocation</text>
</a>
</g>
</g>
<!-- Node10&#45;&gt;Node9 -->
<g id="edge11" class="edge"><title>Node10&#45;&gt;Node9</title>
<path fill="none" stroke="#9a32cd" stroke-dasharray="5,2" d="M276.055,-15C307.5,-15 343.563,-15 372.328,-15"/>
<polygon fill="#9a32cd" stroke="#9a32cd" points="276.023,-11.5001 266.022,-15 276.022,-18.5001 276.023,-11.5001"/>
<text text-anchor="middle" x="319" y="-18" font-family="Helvetica,sans-Serif" font-size="10.00"> elements</text>
</g>
</g>
</svg>
        <g id="navigator" transform="translate(0 0)" fill="#404254">
                <rect fill="#f2f5e9" fill-opacity="0.5" stroke="#606060" stroke-width=".5" x="0" y="0" width="60" height="60"/>
                <use id="zoomplus" xlink:href="#zoomPlus" x="17" y="9" onmousedown="handleZoom(evt,'in')"/>
                <use id="zoomminus" xlink:href="#zoomMin" x="42" y="9" onmousedown="handleZoom(evt,'out')"/>
                <use id="reset" xlink:href="#resetDef" x="30" y="36" onmousedown="handleReset()"/>
                <g id="arrowUp" xlink:href="#dirArrow" transform="translate(30 24)" onmousedown="handlePan(0,-1)">
                  <use xlink:href="#rim" fill="#404040">
                        <set attributeName="fill" to="#808080" begin="arrowUp.mouseover" end="arrowUp.mouseout"/>
                  </use>
                  <path fill="none" stroke="white" stroke-width="1.5" d="M0,-3.0v7 M-2.5,-0.5L0,-3.0L2.5,-0.5"/>
                </g>
                <g id="arrowRight" xlink:href="#dirArrow" transform="rotate(90) translate(36 -43)" onmousedown="handlePan(1,0)">
                  <use xlink:href="#rim" fill="#404040">
                        <set attributeName="fill" to="#808080" begin="arrowRight.mouseover" end="arrowRight.mouseout"/>
                  </use>
                  <path fill="none" stroke="white" stroke-width="1.5" d="M0,-3.0v7 M-2.5,-0.5L0,-3.0L2.5,-0.5"/>
                </g>
                <g id="arrowDown" xlink:href="#dirArrow" transform="rotate(180) translate(-30 -48)" onmousedown="handlePan(0,1)">
                  <use xlink:href="#rim" fill="#404040">
                        <set attributeName="fill" to="#808080" begin="arrowDown.mouseover" end="arrowDown.mouseout"/>
                  </use>
                  <path fill="none" stroke="white" stroke-width="1.5" d="M0,-3.0v7 M-2.5,-0.5L0,-3.0L2.5,-0.5"/>
                </g>
                <g id="arrowLeft" xlink:href="#dirArrow" transform="rotate(270) translate(-36 17)" onmousedown="handlePan(-1,0)">
                  <use xlink:href="#rim" fill="#404040">
                        <set attributeName="fill" to="#808080" begin="arrowLeft.mouseover" end="arrowLeft.mouseout"/>
                  </use>
                  <path fill="none" stroke="white" stroke-width="1.5" d="M0,-3.0v7 M-2.5,-0.5L0,-3.0L2.5,-0.5"/>
                </g>
        </g>
        <svg viewBox="0 0 15 15" width="100%" height="30px" preserveAspectRatio="xMaxYMin meet">
         <g id="arrow_out" transform="scale(0.3 0.3)">
          <a xlink:href="class_starfield__coll__graph_org.svg" target="_base">
           <rect id="button" ry="5" rx="5" y="6" x="6" height="38" width="38"
                fill="#f2f5e9" fill-opacity="0.5" stroke="#606060" stroke-width="1.0"/>
           <path id="arrow"
             d="M 11.500037,31.436501 C 11.940474,20.09759 22.043105,11.32322 32.158766,21.979434 L 37.068811,17.246167 C 37.068811,17.246167 37.088388,32 37.088388,32 L 22.160133,31.978069 C 22.160133,31.978069 26.997745,27.140456 26.997745,27.140456 C 18.528582,18.264221 13.291696,25.230495 11.500037,31.436501 z"
             style="fill:#404040;"/>
          </a>
         </g>
        </svg>
</svg>
