<?xml version="1.0" encoding="UTF-8" standalone="no"?>
<!DOCTYPE svg PUBLIC "-//W3C//DTD SVG 1.1//EN"
 "http://www.w3.org/Graphics/SVG/1.1/DTD/svg11.dtd">
<!-- Generated by graphviz version 2.36.0 (20140111.2315)
 -->
<!-- Title: FlyToTask Pages: 1 -->
<svg width="285pt" height="154pt"
 viewBox="0.00 0.00 285.00 154.00" xmlns="http://www.w3.org/2000/svg" xmlns:xlink="http://www.w3.org/1999/xlink">
<g id="graph0" class="graph" transform="scale(1 1) rotate(0) translate(4 150)">
<title>FlyToTask</title>
<polygon fill="white" stroke="none" points="-4,4 -4,-150 281,-150 281,4 -4,4"/>
<!-- Node1 -->
<g id="node1" class="node"><title>Node1</title>
<polygon fill="#bfbfbf" stroke="black" points="95,-0.5 95,-19.5 157,-19.5 157,-0.5 95,-0.5"/>
<text text-anchor="middle" x="126" y="-7.5" font-family="Helvetica,sans-Serif" font-size="10.00">FlyToTask</text>
</g>
<!-- Node2 -->
<g id="node2" class="node"><title>Node2</title>
<g id="a_node2"><a xlink:href="class_ai_task.html" target="_top" xlink:title="AiTask">
<polygon fill="white" stroke="black" points="102.5,-58.5 102.5,-77.5 149.5,-77.5 149.5,-58.5 102.5,-58.5"/>
<text text-anchor="middle" x="126" y="-65.5" font-family="Helvetica,sans-Serif" font-size="10.00">AiTask</text>
</a>
</g>
</g>
<!-- Node2&#45;&gt;Node1 -->
<g id="edge1" class="edge"><title>Node2&#45;&gt;Node1</title>
<path fill="none" stroke="midnightblue" d="M126,-47.953C126,-38.2875 126,-27.0312 126,-19.5052"/>
<polygon fill="midnightblue" stroke="midnightblue" points="122.5,-48.25 126,-58.25 129.5,-48.25 122.5,-48.25"/>
</g>
<!-- Node3 -->
<g id="node3" class="node"><title>Node3</title>
<g id="a_node3"><a xlink:href="class_scriptable.html" target="_top" xlink:title="Scriptable">
<polygon fill="white" stroke="black" points="0,-126.5 0,-145.5 60,-145.5 60,-126.5 0,-126.5"/>
<text text-anchor="middle" x="30" y="-133.5" font-family="Helvetica,sans-Serif" font-size="10.00">Scriptable</text>
</a>
</g>
</g>
<!-- Node3&#45;&gt;Node2 -->
<g id="edge2" class="edge"><title>Node3&#45;&gt;Node2</title>
<path fill="none" stroke="midnightblue" d="M50.8966,-120.634C69.9789,-107.515 97.5622,-88.551 113.447,-77.6305"/>
<polygon fill="midnightblue" stroke="midnightblue" points="48.8079,-117.822 42.5503,-126.372 52.7736,-123.59 48.8079,-117.822"/>
</g>
<!-- Node4 -->
<g id="node4" class="node"><title>Node4</title>
<g id="a_node4"><a xlink:href="class_handle.html" target="_top" xlink:title="Handle\&lt; AiTask \&gt;">
<polygon fill="white" stroke="black" points="78.5,-126.5 78.5,-145.5 173.5,-145.5 173.5,-126.5 78.5,-126.5"/>
<text text-anchor="middle" x="126" y="-133.5" font-family="Helvetica,sans-Serif" font-size="10.00">Handle&lt; AiTask &gt;</text>
</a>
</g>
</g>
<!-- Node4&#45;&gt;Node2 -->
<g id="edge3" class="edge"><title>Node4&#45;&gt;Node2</title>
<path fill="none" stroke="#9a32cd" stroke-dasharray="5,2" d="M126,-116.041C126,-103.472 126,-87.5631 126,-77.8411"/>
<polygon fill="#9a32cd" stroke="#9a32cd" points="122.5,-116.372 126,-126.372 129.5,-116.372 122.5,-116.372"/>
<text text-anchor="middle" x="149" y="-99.5" font-family="Helvetica,sans-Serif" font-size="10.00"> m_handle</text>
</g>
<!-- Node5 -->
<g id="node5" class="node"><title>Node5</title>
<g id="a_node5"><a xlink:href="class_board_computer.html" target="_top" xlink:title="BoardComputer">
<polygon fill="white" stroke="red" points="192,-126.5 192,-145.5 276,-145.5 276,-126.5 192,-126.5"/>
<text text-anchor="middle" x="234" y="-133.5" font-family="Helvetica,sans-Serif" font-size="10.00">BoardComputer</text>
</a>
</g>
</g>
<!-- Node5&#45;&gt;Node2 -->
<g id="edge4" class="edge"><title>Node5&#45;&gt;Node2</title>
<path fill="none" stroke="#9a32cd" stroke-dasharray="5,2" d="M213.343,-120.4C202.408,-112.854 188.657,-103.648 176,-96 165.192,-89.4693 152.692,-82.7193 142.894,-77.6019"/>
<polygon fill="#9a32cd" stroke="#9a32cd" points="211.574,-123.433 221.78,-126.278 215.576,-117.69 211.574,-123.433"/>
<text text-anchor="middle" x="235.5" y="-99.5" font-family="Helvetica,sans-Serif" font-size="10.00"> m_boardComputer</text>
</g>
</g>
</svg>
