<?xml version="1.0" encoding="UTF-8" standalone="no"?>
<!DOCTYPE svg PUBLIC "-//W3C//DTD SVG 1.1//EN"
 "http://www.w3.org/Graphics/SVG/1.1/DTD/svg11.dtd">
<!-- Generated by graphviz version 2.36.0 (20140111.2315)
 -->
<!-- Title: PlayerFaction Pages: 1 -->
<svg width="704pt" height="104pt"
 viewBox="0.00 0.00 704.00 104.00" xmlns="http://www.w3.org/2000/svg" xmlns:xlink="http://www.w3.org/1999/xlink">
<g id="graph0" class="graph" transform="scale(1 1) rotate(0) translate(4 100)">
<title>PlayerFaction</title>
<polygon fill="white" stroke="none" points="-4,4 -4,-100 700,-100 700,4 -4,4"/>
<!-- Node1 -->
<g id="node1" class="node"><title>Node1</title>
<polygon fill="#bfbfbf" stroke="black" points="0.5,-55.5 0.5,-74.5 77.5,-74.5 77.5,-55.5 0.5,-55.5"/>
<text text-anchor="middle" x="39" y="-62.5" font-family="Helvetica,sans-Serif" font-size="10.00">PlayerFaction</text>
</g>
<!-- Node5 -->
<g id="node5" class="node"><title>Node5</title>
<g id="a_node5"><a xlink:href="class_faction_matrix.html" target="_top" xlink:title="FactionMatrix">
<polygon fill="white" stroke="red" points="190,-76.5 190,-95.5 266,-95.5 266,-76.5 190,-76.5"/>
<text text-anchor="middle" x="228" y="-83.5" font-family="Helvetica,sans-Serif" font-size="10.00">FactionMatrix</text>
</a>
</g>
</g>
<!-- Node1&#45;&gt;Node5 -->
<g id="edge6" class="edge"><title>Node1&#45;&gt;Node5</title>
<path fill="none" stroke="#9a32cd" stroke-dasharray="5,2" d="M87.7905,-70.3668C119.522,-73.9302 160.568,-78.5398 189.852,-81.8283"/>
<polygon fill="#9a32cd" stroke="#9a32cd" points="88.1704,-66.8876 77.8422,-69.2497 87.3892,-73.8439 88.1704,-66.8876"/>
<text text-anchor="middle" x="134" y="-82" font-family="Helvetica,sans-Serif" font-size="10.00"> m_playerFaction</text>
</g>
<!-- Node2 -->
<g id="node2" class="node"><title>Node2</title>
<g id="a_node2"><a xlink:href="class_faction.html" target="_top" xlink:title="Faction">
<polygon fill="white" stroke="black" points="376.5,-38.5 376.5,-57.5 425.5,-57.5 425.5,-38.5 376.5,-38.5"/>
<text text-anchor="middle" x="401" y="-45.5" font-family="Helvetica,sans-Serif" font-size="10.00">Faction</text>
</a>
</g>
</g>
<!-- Node2&#45;&gt;Node1 -->
<g id="edge1" class="edge"><title>Node2&#45;&gt;Node1</title>
<path fill="none" stroke="midnightblue" d="M366.317,-49.5906C298.926,-52.773 147.936,-59.903 77.5075,-63.2288"/>
<polygon fill="midnightblue" stroke="midnightblue" points="366.567,-53.0828 376.39,-49.1149 366.236,-46.0906 366.567,-53.0828"/>
</g>
<!-- Node4 -->
<g id="node4" class="node"><title>Node4</title>
<polygon fill="white" stroke="#bfbfbf" points="516.5,-33 516.5,-63 695.5,-63 695.5,-33 516.5,-33"/>
<text text-anchor="start" x="524.5" y="-51" font-family="Helvetica,sans-Serif" font-size="10.00">std::map&lt; Faction *,</text>
<text text-anchor="middle" x="606" y="-40" font-family="Helvetica,sans-Serif" font-size="10.00"> std::shared_ptr&lt; FactionRelation &gt; &gt;</text>
</g>
<!-- Node2&#45;&gt;Node4 -->
<g id="edge4" class="edge"><title>Node2&#45;&gt;Node4</title>
<path fill="none" stroke="#9a32cd" stroke-dasharray="5,2" d="M435.835,-48C457.873,-48 487.727,-48 516.222,-48"/>
<polygon fill="#9a32cd" stroke="#9a32cd" points="435.684,-44.5001 425.684,-48 435.684,-51.5001 435.684,-44.5001"/>
<text text-anchor="middle" x="471" y="-51" font-family="Helvetica,sans-Serif" font-size="10.00"> keys</text>
</g>
<!-- Node3 -->
<g id="node3" class="node"><title>Node3</title>
<g id="a_node3"><a xlink:title="STL class. ">
<polygon fill="white" stroke="#bfbfbf" points="198,-0.5 198,-19.5 258,-19.5 258,-0.5 198,-0.5"/>
<text text-anchor="middle" x="228" y="-7.5" font-family="Helvetica,sans-Serif" font-size="10.00">std::string</text>
</a>
</g>
</g>
<!-- Node3&#45;&gt;Node2 -->
<g id="edge2" class="edge"><title>Node3&#45;&gt;Node2</title>
<path fill="none" stroke="#9a32cd" stroke-dasharray="5,2" d="M268.201,-3.83983C294.46,-1.32186 329.338,-1.14387 358,-12 372.01,-17.3066 384.542,-29.514 392.194,-38.2412"/>
<polygon fill="#9a32cd" stroke="#9a32cd" points="267.787,-0.364216 258.234,-4.94592 268.559,-7.32151 267.787,-0.364216"/>
<text text-anchor="middle" x="321" y="-26" font-family="Helvetica,sans-Serif" font-size="10.00"> m_printName</text>
<text text-anchor="middle" x="321" y="-15" font-family="Helvetica,sans-Serif" font-size="10.00">m_key</text>
</g>
<!-- Node4&#45;&gt;Node2 -->
<g id="edge3" class="edge"><title>Node4&#45;&gt;Node2</title>
<path fill="none" stroke="#9a32cd" stroke-dasharray="5,2" d="M528.002,-31.5895C501.272,-28.2053 471.19,-26.9963 444,-32 436.786,-33.3275 429.208,-35.8373 422.504,-38.4822"/>
<polygon fill="#9a32cd" stroke="#9a32cd" points="527.684,-35.0787 538.07,-32.9846 528.645,-28.145 527.684,-35.0787"/>
<text text-anchor="middle" x="471" y="-35" font-family="Helvetica,sans-Serif" font-size="10.00"> m_relations</text>
</g>
<!-- Node5&#45;&gt;Node2 -->
<g id="edge5" class="edge"><title>Node5&#45;&gt;Node2</title>
<path fill="none" stroke="#9a32cd" stroke-dasharray="5,2" d="M276.335,-78.0997C300.849,-73.6876 331.185,-67.7271 358,-61 363.923,-59.5141 370.245,-57.6874 376.14,-55.8779"/>
<polygon fill="#9a32cd" stroke="#9a32cd" points="275.449,-74.7022 266.213,-79.8935 276.671,-81.5948 275.449,-74.7022"/>
<text text-anchor="middle" x="321" y="-79" font-family="Helvetica,sans-Serif" font-size="10.00"> m_factionMatrix</text>
</g>
</g>
</svg>
