<?xml version="1.0" encoding="UTF-8" standalone="no"?>
<!DOCTYPE svg PUBLIC "-//W3C//DTD SVG 1.1//EN"
 "http://www.w3.org/Graphics/SVG/1.1/DTD/svg11.dtd">
<!-- Generated by graphviz version 2.36.0 (20140111.2315)
 -->
<!-- Title: StereoRenderInfo Pages: 1 -->
<svg width="224pt" height="164pt"
 viewBox="0.00 0.00 224.00 164.00" xmlns="http://www.w3.org/2000/svg" xmlns:xlink="http://www.w3.org/1999/xlink">
<g id="graph0" class="graph" transform="scale(1 1) rotate(0) translate(4 160)">
<title>StereoRenderInfo</title>
<polygon fill="white" stroke="none" points="-4,4 -4,-160 220,-160 220,4 -4,4"/>
<!-- Node1 -->
<g id="node1" class="node"><title>Node1</title>
<polygon fill="#bfbfbf" stroke="black" points="75.5,-0.5 75.5,-19.5 166.5,-19.5 166.5,-0.5 75.5,-0.5"/>
<text text-anchor="middle" x="121" y="-7.5" font-family="Helvetica,sans-Serif" font-size="10.00">StereoRenderInfo</text>
</g>
<!-- Node2 -->
<g id="node2" class="node"><title>Node2</title>
<g id="a_node2"><a xlink:href="class_property.html" target="_top" xlink:title="Property\&lt; float \&gt;">
<polygon fill="white" stroke="black" points="8.5,-68.5 8.5,-87.5 97.5,-87.5 97.5,-68.5 8.5,-68.5"/>
<text text-anchor="middle" x="53" y="-75.5" font-family="Helvetica,sans-Serif" font-size="10.00">Property&lt; float &gt;</text>
</a>
</g>
</g>
<!-- Node2&#45;&gt;Node1 -->
<g id="edge1" class="edge"><title>Node2&#45;&gt;Node1</title>
<path fill="none" stroke="#9a32cd" stroke-dasharray="5,2" d="M59.1305,-58.7783C62.1768,-51.6839 66.4207,-43.8672 72,-38 79.4964,-30.1168 89.8124,-23.9634 99.0459,-19.5352"/>
<polygon fill="#9a32cd" stroke="#9a32cd" points="55.7764,-57.7528 55.5084,-68.3442 62.3228,-60.2316 55.7764,-57.7528"/>
<text text-anchor="middle" x="104" y="-41.5" font-family="Helvetica,sans-Serif" font-size="10.00"> m_eyeZOffset</text>
</g>
<!-- Node3 -->
<g id="node3" class="node"><title>Node3</title>
<g id="a_node3"><a xlink:href="class_property_impl.html" target="_top" xlink:title="PropertyImpl\&lt; float \&gt;">
<polygon fill="white" stroke="red" points="-0.5,-136.5 -0.5,-155.5 106.5,-155.5 106.5,-136.5 -0.5,-136.5"/>
<text text-anchor="middle" x="53" y="-143.5" font-family="Helvetica,sans-Serif" font-size="10.00">PropertyImpl&lt; float &gt;</text>
</a>
</g>
</g>
<!-- Node3&#45;&gt;Node2 -->
<g id="edge2" class="edge"><title>Node3&#45;&gt;Node2</title>
<path fill="none" stroke="#9a32cd" stroke-dasharray="5,2" d="M53,-126.041C53,-113.472 53,-97.5631 53,-87.8411"/>
<polygon fill="#9a32cd" stroke="#9a32cd" points="49.5001,-126.372 53,-136.372 56.5001,-126.372 49.5001,-126.372"/>
<text text-anchor="middle" x="70.5" y="-109.5" font-family="Helvetica,sans-Serif" font-size="10.00"> m_impl</text>
</g>
<!-- Node4 -->
<g id="node4" class="node"><title>Node4</title>
<polygon fill="white" stroke="#bfbfbf" points="116,-68.5 116,-87.5 214,-87.5 214,-68.5 116,-68.5"/>
<text text-anchor="middle" x="165" y="-75.5" font-family="Helvetica,sans-Serif" font-size="10.00">std::vector&lt; float &gt;</text>
</g>
<!-- Node4&#45;&gt;Node1 -->
<g id="edge3" class="edge"><title>Node4&#45;&gt;Node1</title>
<path fill="none" stroke="#9a32cd" stroke-dasharray="5,2" d="M153.625,-59.9377C145.075,-47.112 133.706,-30.0591 126.894,-19.8411"/>
<polygon fill="#9a32cd" stroke="#9a32cd" points="150.789,-61.9926 159.248,-68.3717 156.613,-58.1097 150.789,-61.9926"/>
<text text-anchor="middle" x="181.5" y="-41.5" font-family="Helvetica,sans-Serif" font-size="10.00"> m_distortionKs</text>
</g>
</g>
</svg>
