<?xml version="1.0" encoding="UTF-8" standalone="no"?>
<!DOCTYPE svg PUBLIC "-//W3C//DTD SVG 1.1//EN"
 "http://www.w3.org/Graphics/SVG/1.1/DTD/svg11.dtd">
<!-- Generated by graphviz version 2.36.0 (20140111.2315)
 -->
<!-- Title: MissionScenario Pages: 1 -->
<svg width="213pt" height="164pt"
 viewBox="0.00 0.00 213.00 164.00" xmlns="http://www.w3.org/2000/svg" xmlns:xlink="http://www.w3.org/1999/xlink">
<g id="graph0" class="graph" transform="scale(1 1) rotate(0) translate(4 160)">
<title>MissionScenario</title>
<polygon fill="white" stroke="none" points="-4,4 -4,-160 209,-160 209,4 -4,4"/>
<!-- Node1 -->
<g id="node1" class="node"><title>Node1</title>
<polygon fill="#bfbfbf" stroke="black" points="89.5,-0.5 89.5,-19.5 178.5,-19.5 178.5,-0.5 89.5,-0.5"/>
<text text-anchor="middle" x="134" y="-7.5" font-family="Helvetica,sans-Serif" font-size="10.00">MissionScenario</text>
</g>
<!-- Node2 -->
<g id="node2" class="node"><title>Node2</title>
<g id="a_node2"><a xlink:href="class_base_scenario.html" target="_top" xlink:title="BaseScenario">
<polygon fill="white" stroke="black" points="34.5,-68.5 34.5,-87.5 111.5,-87.5 111.5,-68.5 34.5,-68.5"/>
<text text-anchor="middle" x="73" y="-75.5" font-family="Helvetica,sans-Serif" font-size="10.00">BaseScenario</text>
</a>
</g>
</g>
<!-- Node2&#45;&gt;Node1 -->
<g id="edge1" class="edge"><title>Node2&#45;&gt;Node1</title>
<path fill="none" stroke="midnightblue" d="M88.0836,-60.68C100.009,-47.7768 116.201,-30.2575 125.829,-19.8411"/>
<polygon fill="midnightblue" stroke="midnightblue" points="85.1918,-58.6523 80.9747,-68.3717 90.3325,-63.4035 85.1918,-58.6523"/>
</g>
<!-- Node3 -->
<g id="node3" class="node"><title>Node3</title>
<g id="a_node3"><a xlink:href="class_game_play.html" target="_top" xlink:title="GamePlay">
<polygon fill="white" stroke="red" points="0,-136.5 0,-155.5 62,-155.5 62,-136.5 0,-136.5"/>
<text text-anchor="middle" x="31" y="-143.5" font-family="Helvetica,sans-Serif" font-size="10.00">GamePlay</text>
</a>
</g>
</g>
<!-- Node3&#45;&gt;Node2 -->
<g id="edge2" class="edge"><title>Node3&#45;&gt;Node2</title>
<path fill="none" stroke="#9a32cd" stroke-dasharray="5,2" d="M28.0038,-126.042C27.8181,-119.344 28.671,-111.993 32,-106 36.4697,-97.9534 44.4652,-91.8907 52.2161,-87.5701"/>
<polygon fill="#9a32cd" stroke="#9a32cd" points="24.5568,-126.745 29.0429,-136.343 31.5215,-126.042 24.5568,-126.745"/>
<text text-anchor="middle" x="62.5" y="-109.5" font-family="Helvetica,sans-Serif" font-size="10.00"> m_gamePlay</text>
</g>
<!-- Node4 -->
<g id="node4" class="node"><title>Node4</title>
<g id="a_node4"><a xlink:href="class_world.html" target="_top" xlink:title="World">
<polygon fill="white" stroke="red" points="94,-136.5 94,-155.5 136,-155.5 136,-136.5 94,-136.5"/>
<text text-anchor="middle" x="115" y="-143.5" font-family="Helvetica,sans-Serif" font-size="10.00">World</text>
</a>
</g>
</g>
<!-- Node4&#45;&gt;Node2 -->
<g id="edge3" class="edge"><title>Node4&#45;&gt;Node2</title>
<path fill="none" stroke="#9a32cd" stroke-dasharray="5,2" d="M105.684,-127.411C101.926,-120.611 97.4351,-112.835 93,-106 88.9357,-99.7363 83.9357,-92.9863 79.9518,-87.8022"/>
<polygon fill="#9a32cd" stroke="#9a32cd" points="102.738,-129.322 110.574,-136.453 108.896,-125.992 102.738,-129.322"/>
<text text-anchor="middle" x="121" y="-109.5" font-family="Helvetica,sans-Serif" font-size="10.00"> m_world</text>
</g>
<!-- Node4&#45;&gt;Node4 -->
<g id="edge4" class="edge"><title>Node4&#45;&gt;Node4</title>
<path fill="none" stroke="#9a32cd" stroke-dasharray="5,2" d="M146.406,-151.745C150.945,-150.828 154,-148.914 154,-146 154,-141.219 145.773,-139.127 136.261,-139.725"/>
<polygon fill="#9a32cd" stroke="#9a32cd" points="146.065,-148.258 136.261,-152.275 146.431,-155.248 146.065,-148.258"/>
<text text-anchor="middle" x="179.5" y="-143.5" font-family="Helvetica,sans-Serif" font-size="10.00"> s_instance</text>
</g>
<!-- Node5 -->
<g id="node5" class="node"><title>Node5</title>
<g id="a_node5"><a xlink:href="class_mission.html" target="_top" xlink:title="Mission">
<polygon fill="white" stroke="red" points="130,-68.5 130,-87.5 180,-87.5 180,-68.5 130,-68.5"/>
<text text-anchor="middle" x="155" y="-75.5" font-family="Helvetica,sans-Serif" font-size="10.00">Mission</text>
</a>
</g>
</g>
<!-- Node5&#45;&gt;Node1 -->
<g id="edge5" class="edge"><title>Node5&#45;&gt;Node1</title>
<path fill="none" stroke="#9a32cd" stroke-dasharray="5,2" d="M149.211,-58.8066C145.176,-46.1244 139.97,-29.7615 136.813,-19.8411"/>
<polygon fill="#9a32cd" stroke="#9a32cd" points="145.887,-59.9036 152.255,-68.3717 152.558,-57.7812 145.887,-59.9036"/>
<text text-anchor="middle" x="172.5" y="-41.5" font-family="Helvetica,sans-Serif" font-size="10.00"> m_mission</text>
</g>
</g>
</svg>
