<?xml version="1.0" encoding="UTF-8" standalone="no"?>
<!DOCTYPE svg PUBLIC "-//W3C//DTD SVG 1.1//EN"
 "http://www.w3.org/Graphics/SVG/1.1/DTD/svg11.dtd">
<!-- Generated by graphviz version 2.36.0 (20140111.2315)
 -->
<!-- Title: StereoBlitProgram Pages: 1 -->
<svg width="201pt" height="140pt"
 viewBox="0.00 0.00 201.00 140.00" xmlns="http://www.w3.org/2000/svg" xmlns:xlink="http://www.w3.org/1999/xlink">
<g id="graph0" class="graph" transform="scale(1 1) rotate(0) translate(4 136)">
<title>StereoBlitProgram</title>
<polygon fill="white" stroke="none" points="-4,4 -4,-136 197,-136 197,4 -4,4"/>
<!-- Node1 -->
<g id="node1" class="node"><title>Node1</title>
<polygon fill="#bfbfbf" stroke="black" points="53,-0.5 53,-19.5 149,-19.5 149,-0.5 53,-0.5"/>
<text text-anchor="middle" x="101" y="-7.5" font-family="Helvetica,sans-Serif" font-size="10.00">StereoBlitProgram</text>
</g>
<!-- Node2 -->
<g id="node2" class="node"><title>Node2</title>
<g id="a_node2"><a xlink:href="class_blit_program.html" target="_top" xlink:title="BlitProgram">
<polygon fill="white" stroke="black" points="67,-56.5 67,-75.5 135,-75.5 135,-56.5 67,-56.5"/>
<text text-anchor="middle" x="101" y="-63.5" font-family="Helvetica,sans-Serif" font-size="10.00">BlitProgram</text>
</a>
</g>
</g>
<!-- Node2&#45;&gt;Node1 -->
<g id="edge1" class="edge"><title>Node2&#45;&gt;Node1</title>
<path fill="none" stroke="midnightblue" d="M101,-45.8045C101,-36.9102 101,-26.7798 101,-19.7511"/>
<polygon fill="midnightblue" stroke="midnightblue" points="97.5001,-46.083 101,-56.083 104.5,-46.083 97.5001,-46.083"/>
</g>
<!-- Node3 -->
<g id="node3" class="node"><title>Node3</title>
<g id="a_node3"><a xlink:href="class_context_dependant.html" target="_top" xlink:title="ContextDependant">
<polygon fill="white" stroke="black" points="-0.5,-112.5 -0.5,-131.5 96.5,-131.5 96.5,-112.5 -0.5,-112.5"/>
<text text-anchor="middle" x="48" y="-119.5" font-family="Helvetica,sans-Serif" font-size="10.00">ContextDependant</text>
</a>
</g>
</g>
<!-- Node3&#45;&gt;Node2 -->
<g id="edge2" class="edge"><title>Node3&#45;&gt;Node2</title>
<path fill="none" stroke="midnightblue" d="M63.9809,-104.718C73.3225,-95.1997 84.7459,-83.5608 92.411,-75.7511"/>
<polygon fill="midnightblue" stroke="midnightblue" points="61.2587,-102.494 56.7519,-112.083 66.2545,-107.398 61.2587,-102.494"/>
</g>
<!-- Node4 -->
<g id="node4" class="node"><title>Node4</title>
<polygon fill="white" stroke="#bfbfbf" points="114.5,-112.5 114.5,-131.5 193.5,-131.5 193.5,-112.5 114.5,-112.5"/>
<text text-anchor="middle" x="154" y="-119.5" font-family="Helvetica,sans-Serif" font-size="10.00">glow::Program</text>
</g>
<!-- Node4&#45;&gt;Node2 -->
<g id="edge3" class="edge"><title>Node4&#45;&gt;Node2</title>
<path fill="none" stroke="darkgreen" d="M138.019,-104.718C128.678,-95.1997 117.254,-83.5608 109.589,-75.7511"/>
<polygon fill="darkgreen" stroke="darkgreen" points="135.746,-107.398 145.248,-112.083 140.741,-102.494 135.746,-107.398"/>
</g>
</g>
</svg>
