<?xml version="1.0" encoding="UTF-8" standalone="no"?>
<!DOCTYPE svg PUBLIC "-//W3C//DTD SVG 1.1//EN"
 "http://www.w3.org/Graphics/SVG/1.1/DTD/svg11.dtd">
<!-- Generated by graphviz version 2.36.0 (20140111.2315)
 -->
<!-- Title: BaseScenario Pages: 1 -->
<svg width="524pt" height="84pt"
 viewBox="0.00 0.00 524.00 84.00" xmlns="http://www.w3.org/2000/svg" xmlns:xlink="http://www.w3.org/1999/xlink">
<g id="graph0" class="graph" transform="scale(1 1) rotate(0) translate(4 80)">
<title>BaseScenario</title>
<polygon fill="white" stroke="none" points="-4,4 -4,-80 520,-80 520,4 -4,4"/>
<!-- Node1 -->
<g id="node1" class="node"><title>Node1</title>
<polygon fill="#bfbfbf" stroke="black" points="229.5,-56.5 229.5,-75.5 306.5,-75.5 306.5,-56.5 229.5,-56.5"/>
<text text-anchor="middle" x="268" y="-63.5" font-family="Helvetica,sans-Serif" font-size="10.00">BaseScenario</text>
</g>
<!-- Node2 -->
<g id="node2" class="node"><title>Node2</title>
<g id="a_node2"><a xlink:href="class_battle_scenario.html" target="_top" xlink:title="BattleScenario">
<polygon fill="white" stroke="black" points="0,-0.5 0,-19.5 80,-19.5 80,-0.5 0,-0.5"/>
<text text-anchor="middle" x="40" y="-7.5" font-family="Helvetica,sans-Serif" font-size="10.00">BattleScenario</text>
</a>
</g>
</g>
<!-- Node1&#45;&gt;Node2 -->
<g id="edge1" class="edge"><title>Node1&#45;&gt;Node2</title>
<path fill="none" stroke="midnightblue" d="M221.929,-54.0884C178.854,-43.8865 115.414,-28.8612 75.9583,-19.5164"/>
<polygon fill="midnightblue" stroke="midnightblue" points="221.335,-57.5446 231.873,-56.4435 222.949,-50.733 221.335,-57.5446"/>
</g>
<!-- Node3 -->
<g id="node3" class="node"><title>Node3</title>
<g id="a_node3"><a xlink:href="class_frozen_game_scenario.html" target="_top" xlink:title="FrozenGameScenario">
<polygon fill="white" stroke="black" points="98.5,-0.5 98.5,-19.5 209.5,-19.5 209.5,-0.5 98.5,-0.5"/>
<text text-anchor="middle" x="154" y="-7.5" font-family="Helvetica,sans-Serif" font-size="10.00">FrozenGameScenario</text>
</a>
</g>
</g>
<!-- Node1&#45;&gt;Node3 -->
<g id="edge2" class="edge"><title>Node1&#45;&gt;Node3</title>
<path fill="none" stroke="midnightblue" d="M240.758,-52.096C219.46,-42.0073 190.458,-28.2697 171.979,-19.5164"/>
<polygon fill="midnightblue" stroke="midnightblue" points="239.401,-55.3257 249.936,-56.4435 242.397,-48.9995 239.401,-55.3257"/>
</g>
<!-- Node4 -->
<g id="node4" class="node"><title>Node4</title>
<g id="a_node4"><a xlink:href="class_game_scenario.html" target="_top" xlink:title="GameScenario">
<polygon fill="white" stroke="black" points="227.5,-0.5 227.5,-19.5 308.5,-19.5 308.5,-0.5 227.5,-0.5"/>
<text text-anchor="middle" x="268" y="-7.5" font-family="Helvetica,sans-Serif" font-size="10.00">GameScenario</text>
</a>
</g>
</g>
<!-- Node1&#45;&gt;Node4 -->
<g id="edge3" class="edge"><title>Node1&#45;&gt;Node4</title>
<path fill="none" stroke="midnightblue" d="M268,-45.8045C268,-36.9102 268,-26.7798 268,-19.7511"/>
<polygon fill="midnightblue" stroke="midnightblue" points="264.5,-46.083 268,-56.083 271.5,-46.083 264.5,-46.083"/>
</g>
<!-- Node5 -->
<g id="node5" class="node"><title>Node5</title>
<g id="a_node5"><a xlink:href="class_pirate_scenario.html" target="_top" xlink:title="PirateScenario">
<polygon fill="white" stroke="black" points="327,-0.5 327,-19.5 407,-19.5 407,-0.5 327,-0.5"/>
<text text-anchor="middle" x="367" y="-7.5" font-family="Helvetica,sans-Serif" font-size="10.00">PirateScenario</text>
</a>
</g>
</g>
<!-- Node1&#45;&gt;Node5 -->
<g id="edge4" class="edge"><title>Node1&#45;&gt;Node5</title>
<path fill="none" stroke="midnightblue" d="M292.837,-51.4526C311.114,-41.4835 335.416,-28.2279 351.133,-19.6545"/>
<polygon fill="midnightblue" stroke="midnightblue" points="291.009,-48.4628 283.906,-56.324 294.361,-54.608 291.009,-48.4628"/>
</g>
<!-- Node6 -->
<g id="node6" class="node"><title>Node6</title>
<g id="a_node6"><a xlink:href="class_scripted_scenario.html" target="_top" xlink:title="ScriptedScenario">
<polygon fill="white" stroke="black" points="425.5,-0.5 425.5,-19.5 516.5,-19.5 516.5,-0.5 425.5,-0.5"/>
<text text-anchor="middle" x="471" y="-7.5" font-family="Helvetica,sans-Serif" font-size="10.00">ScriptedScenario</text>
</a>
</g>
</g>
<!-- Node1&#45;&gt;Node6 -->
<g id="edge5" class="edge"><title>Node1&#45;&gt;Node6</title>
<path fill="none" stroke="midnightblue" d="M309.994,-53.8291C348.323,-43.6333 404.152,-28.7823 438.985,-19.5164"/>
<polygon fill="midnightblue" stroke="midnightblue" points="308.93,-50.4904 300.166,-56.4435 310.73,-57.2551 308.93,-50.4904"/>
</g>
</g>
</svg>
