<?xml version="1.0" encoding="UTF-8" standalone="no"?>
<!DOCTYPE svg PUBLIC "-//W3C//DTD SVG 1.1//EN"
 "http://www.w3.org/Graphics/SVG/1.1/DTD/svg11.dtd">
<!-- Generated by graphviz version 2.36.0 (20140111.2315)
 -->
<!-- Title: FactionRelation Pages: 1 -->
<svg width="111pt" height="184pt"
 viewBox="0.00 0.00 111.00 184.00" xmlns="http://www.w3.org/2000/svg" xmlns:xlink="http://www.w3.org/1999/xlink">
<g id="graph0" class="graph" transform="scale(1 1) rotate(0) translate(4 180)">
<title>FactionRelation</title>
<polygon fill="white" stroke="none" points="-4,4 -4,-180 107,-180 107,4 -4,4"/>
<!-- Node1 -->
<g id="node1" class="node"><title>Node1</title>
<polygon fill="#bfbfbf" stroke="black" points="0,-0.5 0,-19.5 84,-19.5 84,-0.5 0,-0.5"/>
<text text-anchor="middle" x="42" y="-7.5" font-family="Helvetica,sans-Serif" font-size="10.00">FactionRelation</text>
</g>
<!-- Node2 -->
<g id="node2" class="node"><title>Node2</title>
<g id="a_node2"><a xlink:href="class_faction.html" target="_top" xlink:title="Faction">
<polygon fill="white" stroke="black" points="17.5,-78.5 17.5,-97.5 66.5,-97.5 66.5,-78.5 17.5,-78.5"/>
<text text-anchor="middle" x="42" y="-85.5" font-family="Helvetica,sans-Serif" font-size="10.00">Faction</text>
</a>
</g>
</g>
<!-- Node2&#45;&gt;Node1 -->
<g id="edge1" class="edge"><title>Node2&#45;&gt;Node1</title>
<path fill="none" stroke="#9a32cd" stroke-dasharray="5,2" d="M42,-68.2239C42,-52.6974 42,-31.3582 42,-19.6165"/>
<polygon fill="#9a32cd" stroke="#9a32cd" points="38.5001,-68.2818 42,-78.2818 45.5001,-68.2819 38.5001,-68.2818"/>
<text text-anchor="middle" x="68" y="-52" font-family="Helvetica,sans-Serif" font-size="10.00"> m_factionA</text>
<text text-anchor="middle" x="68" y="-41" font-family="Helvetica,sans-Serif" font-size="10.00">m_factionB</text>
</g>
<!-- Node3 -->
<g id="node3" class="node"><title>Node3</title>
<g id="a_node3"><a xlink:title="STL class. ">
<polygon fill="white" stroke="#bfbfbf" points="12,-156.5 12,-175.5 72,-175.5 72,-156.5 12,-156.5"/>
<text text-anchor="middle" x="42" y="-163.5" font-family="Helvetica,sans-Serif" font-size="10.00">std::string</text>
</a>
</g>
</g>
<!-- Node3&#45;&gt;Node2 -->
<g id="edge2" class="edge"><title>Node3&#45;&gt;Node2</title>
<path fill="none" stroke="#9a32cd" stroke-dasharray="5,2" d="M42,-146.224C42,-130.697 42,-109.358 42,-97.6165"/>
<polygon fill="#9a32cd" stroke="#9a32cd" points="38.5001,-146.282 42,-156.282 45.5001,-146.282 38.5001,-146.282"/>
<text text-anchor="middle" x="72.5" y="-130" font-family="Helvetica,sans-Serif" font-size="10.00"> m_printName</text>
<text text-anchor="middle" x="72.5" y="-119" font-family="Helvetica,sans-Serif" font-size="10.00">m_key</text>
</g>
</g>
</svg>
