<?xml version="1.0" encoding="UTF-8" standalone="no"?>
<!DOCTYPE svg PUBLIC "-//W3C//DTD SVG 1.1//EN"
 "http://www.w3.org/Graphics/SVG/1.1/DTD/svg11.dtd">
<!-- Generated by graphviz version 2.36.0 (20140111.2315)
 -->
<!-- Title: GamePlayPaused Pages: 1 -->
<!--zoomable 276 -->
<svg id="main" version="1.1" xmlns="http://www.w3.org/2000/svg" xmlns:xlink="http://www.w3.org/1999/xlink" xml:space="preserve" onload="init(evt)">
<style type="text/css"><![CDATA[
.edge:hover path { stroke: red; }
.edge:hover polygon { stroke: red; fill: red; }
]]></style>
<script type="text/javascript"><![CDATA[
var edges = document.getElementsByTagName('g');
if (edges && edges.length) {
  for (var i=0;i<edges.length;i++) {
    if (edges[i].id.substr(0,4)=='edge') {
      edges[i].setAttribute('class','edge');
    }
  }
}
]]></script>
        <defs>
                <circle id="rim" cx="0" cy="0" r="7"/>
                <circle id="rim2" cx="0" cy="0" r="3.5"/>
                <g id="zoomPlus">
                        <use xlink:href="#rim" fill="#404040">
                                <set attributeName="fill" to="#808080" begin="zoomplus.mouseover" end="zoomplus.mouseout"/>
                        </use>
                        <path d="M-4,0h8M0,-4v8" fill="none" stroke="white" stroke-width="1.5" pointer-events="none"/>
                </g>
                <g id="zoomMin">
                        <use xlink:href="#rim" fill="#404040">
                                <set attributeName="fill" to="#808080" begin="zoomminus.mouseover" end="zoomminus.mouseout"/>
                        </use>
                        <path d="M-4,0h8" fill="none" stroke="white" stroke-width="1.5" pointer-events="none"/>
                </g>
                <g id="dirArrow">
                        <path fill="none" stroke="white" stroke-width="1.5" d="M0,-3.0v7 M-2.5,-0.5L0,-3.0L2.5,-0.5"/>
                </g>
               <g id="resetDef">
                       <use xlink:href="#rim2" fill="#404040">
                               <set attributeName="fill" to="#808080" begin="reset.mouseover" end="reset.mouseout"/>
                       </use>
               </g>
        </defs>

<script type="text/javascript">
var viewWidth = 836;
var viewHeight = 276;
var sectionId = 'dynsection-1';
</script>
<script xlink:href="svgpan.js"/>
<svg id="graph" class="graph">
<g id="viewport">
<title>GamePlayPaused</title>
<polygon fill="white" stroke="none" points="-4,4 -4,-272.321 832,-272.321 832,4 -4,4"/>
<!-- Node1 -->
<g id="node1" class="node"><title>Node1</title>
<polygon fill="#bfbfbf" stroke="black" points="322.5,-158.821 322.5,-177.821 417.5,-177.821 417.5,-158.821 322.5,-158.821"/>
<text text-anchor="middle" x="370" y="-165.821" font-family="Helvetica,sans-Serif" font-size="10.00">GamePlayPaused</text>
</g>
<!-- Node4 -->
<g id="node4" class="node"><title>Node4</title>
<g id="a_node4"><a xlink:href="class_game_play.html" target="_top" xlink:title="GamePlay">
<polygon fill="white" stroke="black" points="560,-108.821 560,-127.821 622,-127.821 622,-108.821 560,-108.821"/>
<text text-anchor="middle" x="591" y="-115.821" font-family="Helvetica,sans-Serif" font-size="10.00">GamePlay</text>
</a>
</g>
</g>
<!-- Node1&#45;&gt;Node4 -->
<g id="edge17" class="edge"><title>Node1&#45;&gt;Node4</title>
<path fill="none" stroke="#9a32cd" stroke-dasharray="5,2" d="M425.449,-156.604C459.086,-149.271 503.106,-139.503 542,-130.321 547.768,-128.96 553.914,-127.46 559.815,-125.996"/>
<polygon fill="#9a32cd" stroke="#9a32cd" points="424.389,-153.253 415.361,-158.799 425.877,-160.093 424.389,-153.253"/>
<text text-anchor="middle" x="505" y="-150.321" font-family="Helvetica,sans-Serif" font-size="10.00"> m_pausedState</text>
</g>
<!-- Node2 -->
<g id="node2" class="node"><title>Node2</title>
<g id="a_node2"><a xlink:href="class_game_state.html" target="_top" xlink:title="GameState">
<polygon fill="white" stroke="black" points="104,-100.821 104,-119.821 170,-119.821 170,-100.821 104,-100.821"/>
<text text-anchor="middle" x="137" y="-107.821" font-family="Helvetica,sans-Serif" font-size="10.00">GameState</text>
</a>
</g>
</g>
<!-- Node2&#45;&gt;Node1 -->
<g id="edge1" class="edge"><title>Node2&#45;&gt;Node1</title>
<path fill="none" stroke="midnightblue" d="M180.004,-120.868C223.075,-131.682 289.472,-148.353 331.017,-158.784"/>
<polygon fill="midnightblue" stroke="midnightblue" points="180.671,-117.427 170.12,-118.386 178.966,-124.216 180.671,-117.427"/>
</g>
<!-- Node2&#45;&gt;Node2 -->
<g id="edge4" class="edge"><title>Node2&#45;&gt;Node2</title>
<path fill="none" stroke="#9a32cd" stroke-dasharray="5,2" d="M127.424,-130.088C128.176,-134.818 131.368,-138.321 137,-138.321 146.242,-138.321 148.914,-128.887 145.015,-120.078"/>
<polygon fill="#9a32cd" stroke="#9a32cd" points="130.902,-130.498 128.985,-120.078 123.986,-129.419 130.902,-130.498"/>
<text text-anchor="middle" x="137" y="-141.321" font-family="Helvetica,sans-Serif" font-size="10.00"> m_parentGameState</text>
</g>
<!-- Node2&#45;&gt;Node4 -->
<g id="edge6" class="edge"><title>Node2&#45;&gt;Node4</title>
<path fill="none" stroke="midnightblue" d="M180.598,-107.642C240.694,-104.285 353.781,-99.5224 450,-104.321 487.936,-106.214 531.441,-110.972 559.752,-114.417"/>
<polygon fill="midnightblue" stroke="midnightblue" points="180.145,-104.162 170.361,-108.229 180.546,-111.151 180.145,-104.162"/>
</g>
<!-- Node5 -->
<g id="node5" class="node"><title>Node5</title>
<g id="a_node5"><a xlink:href="class_game.html" target="_top" xlink:title="Game">
<polygon fill="white" stroke="red" points="757.5,-74.8214 757.5,-93.8214 800.5,-93.8214 800.5,-74.8214 757.5,-74.8214"/>
<text text-anchor="middle" x="779" y="-81.8214" font-family="Helvetica,sans-Serif" font-size="10.00">Game</text>
</a>
</g>
</g>
<!-- Node2&#45;&gt;Node5 -->
<g id="edge8" class="edge"><title>Node2&#45;&gt;Node5</title>
<path fill="none" stroke="midnightblue" d="M156.635,-93.9184C183.748,-71.2633 236.677,-31.4773 290,-16.3214 466.083,33.7267 688.787,-47.4172 757.123,-75.3896"/>
<polygon fill="midnightblue" stroke="midnightblue" points="154.113,-91.4691 148.771,-100.619 158.653,-96.7972 154.113,-91.4691"/>
</g>
<!-- Node8 -->
<g id="node8" class="node"><title>Node8</title>
<g id="a_node8"><a xlink:href="class_game_play_running.html" target="_top" xlink:title="GamePlayRunning">
<polygon fill="white" stroke="red" points="730,-189.821 730,-208.821 828,-208.821 828,-189.821 730,-189.821"/>
<text text-anchor="middle" x="779" y="-196.821" font-family="Helvetica,sans-Serif" font-size="10.00">GamePlayRunning</text>
</a>
</g>
</g>
<!-- Node2&#45;&gt;Node8 -->
<g id="edge14" class="edge"><title>Node2&#45;&gt;Node8</title>
<path fill="none" stroke="midnightblue" d="M156.779,-126.624C165.803,-133.913 177.024,-142.217 188,-148.321 230.416,-171.91 242.428,-177.705 290,-187.321 448.452,-219.35 641.711,-210.311 729.934,-203.622"/>
<polygon fill="midnightblue" stroke="midnightblue" points="158.806,-123.758 148.88,-120.052 154.329,-129.139 158.806,-123.758"/>
</g>
<!-- Node3 -->
<g id="node3" class="node"><title>Node3</title>
<g id="a_node3"><a xlink:href="class_state.html" target="_top" xlink:title="State">
<polygon fill="white" stroke="red" points="24,-100.821 24,-119.821 64,-119.821 64,-100.821 24,-100.821"/>
<text text-anchor="middle" x="44" y="-107.821" font-family="Helvetica,sans-Serif" font-size="10.00">State</text>
</a>
</g>
</g>
<!-- Node3&#45;&gt;Node2 -->
<g id="edge2" class="edge"><title>Node3&#45;&gt;Node2</title>
<path fill="none" stroke="midnightblue" d="M74.3685,-110.321C83.7761,-110.321 94.2405,-110.321 103.837,-110.321"/>
<polygon fill="midnightblue" stroke="midnightblue" points="74.2988,-106.821 64.2988,-110.321 74.2987,-113.821 74.2988,-106.821"/>
</g>
<!-- Node3&#45;&gt;Node3 -->
<g id="edge3" class="edge"><title>Node3&#45;&gt;Node3</title>
<path fill="none" stroke="#9a32cd" stroke-dasharray="5,2" d="M36.6338,-130.088C37.2123,-134.818 39.6677,-138.321 44,-138.321 51.1094,-138.321 53.1644,-128.887 50.1652,-120.078"/>
<polygon fill="#9a32cd" stroke="#9a32cd" points="40.1184,-130.424 37.8348,-120.078 33.1683,-129.59 40.1184,-130.424"/>
<text text-anchor="middle" x="44" y="-174.321" font-family="Helvetica,sans-Serif" font-size="10.00"> m_currentSubState</text>
<text text-anchor="middle" x="44" y="-163.321" font-family="Helvetica,sans-Serif" font-size="10.00">m_initialSubState</text>
<text text-anchor="middle" x="44" y="-152.321" font-family="Helvetica,sans-Serif" font-size="10.00">m_finalSubState</text>
<text text-anchor="middle" x="44" y="-141.321" font-family="Helvetica,sans-Serif" font-size="10.00">m_parentState</text>
</g>
<!-- Node4&#45;&gt;Node1 -->
<g id="edge5" class="edge"><title>Node4&#45;&gt;Node1</title>
<path fill="none" stroke="#9a32cd" stroke-dasharray="5,2" d="M577.187,-135.939C568.543,-146.28 556.156,-158.44 542,-164.321 502.374,-180.784 453,-179.937 417.508,-176.075"/>
<polygon fill="#9a32cd" stroke="#9a32cd" points="580.107,-137.888 583.523,-127.859 574.598,-133.568 580.107,-137.888"/>
<text text-anchor="middle" x="505" y="-181.321" font-family="Helvetica,sans-Serif" font-size="10.00"> m_gamePlay</text>
</g>
<!-- Node4&#45;&gt;Node5 -->
<g id="edge9" class="edge"><title>Node4&#45;&gt;Node5</title>
<path fill="none" stroke="#9a32cd" stroke-dasharray="5,2" d="M632.142,-110.984C670.59,-103.955 727.084,-93.6286 757.236,-88.1169"/>
<polygon fill="#9a32cd" stroke="#9a32cd" points="631.506,-107.542 622.298,-112.783 632.764,-114.428 631.506,-107.542"/>
<text text-anchor="middle" x="676" y="-112.321" font-family="Helvetica,sans-Serif" font-size="10.00"> m_gamePlay</text>
</g>
<!-- Node4&#45;&gt;Node8 -->
<g id="edge15" class="edge"><title>Node4&#45;&gt;Node8</title>
<path fill="none" stroke="#9a32cd" stroke-dasharray="5,2" d="M631.993,-125.536C655.965,-130.772 686.617,-139.105 712,-151.321 733.192,-161.521 754.652,-178.676 767.121,-189.477"/>
<polygon fill="#9a32cd" stroke="#9a32cd" points="632.668,-122.102 622.163,-123.48 631.235,-128.954 632.668,-122.102"/>
<text text-anchor="middle" x="676" y="-154.321" font-family="Helvetica,sans-Serif" font-size="10.00"> m_gamePlay</text>
</g>
<!-- Node5&#45;&gt;Node4 -->
<g id="edge7" class="edge"><title>Node5&#45;&gt;Node4</title>
<path fill="none" stroke="#9a32cd" stroke-dasharray="5,2" d="M747.147,-79.4731C718.64,-76.1664 675.465,-74.1652 640,-85.3214 625.337,-89.9339 611.164,-100.703 602.069,-108.691"/>
<polygon fill="#9a32cd" stroke="#9a32cd" points="746.944,-82.9756 757.308,-80.7797 747.836,-76.0328 746.944,-82.9756"/>
<text text-anchor="middle" x="676" y="-88.3214" font-family="Helvetica,sans-Serif" font-size="10.00"> m_game</text>
</g>
<!-- Node5&#45;&gt;Node5 -->
<g id="edge10" class="edge"><title>Node5&#45;&gt;Node5</title>
<path fill="none" stroke="#9a32cd" stroke-dasharray="5,2" d="M760.112,-103.721C761.373,-108.636 767.669,-112.321 779,-112.321 797.129,-112.321 802.369,-102.887 794.721,-94.0785"/>
<polygon fill="#9a32cd" stroke="#9a32cd" points="763.484,-104.671 763.279,-94.0785 756.833,-102.487 763.484,-104.671"/>
<text text-anchor="middle" x="779" y="-115.321" font-family="Helvetica,sans-Serif" font-size="10.00"> s_instance</text>
</g>
<!-- Node6 -->
<g id="node6" class="node"><title>Node6</title>
<polygon fill="white" stroke="#bfbfbf" points="302,-26.3214 302,-56.3214 438,-56.3214 438,-26.3214 302,-26.3214"/>
<text text-anchor="start" x="310" y="-44.3214" font-family="Helvetica,sans-Serif" font-size="10.00">std::unique_ptr&lt; GamePlay</text>
<text text-anchor="middle" x="370" y="-33.3214" font-family="Helvetica,sans-Serif" font-size="10.00">Scene &gt;</text>
</g>
<!-- Node6&#45;&gt;Node4 -->
<g id="edge11" class="edge"><title>Node6&#45;&gt;Node4</title>
<path fill="none" stroke="#9a32cd" stroke-dasharray="5,2" d="M448.459,-37.6906C479.154,-39.2875 513.781,-45.0857 542,-60.3214 562.472,-71.3744 577.681,-95.0975 585.049,-108.528"/>
<polygon fill="#9a32cd" stroke="#9a32cd" points="448.34,-34.1836 438.214,-37.3025 448.075,-41.1786 448.34,-34.1836"/>
<text text-anchor="middle" x="505" y="-63.3214" font-family="Helvetica,sans-Serif" font-size="10.00"> m_scene</text>
</g>
<!-- Node7 -->
<g id="node7" class="node"><title>Node7</title>
<polygon fill="white" stroke="#bfbfbf" points="290,-113.821 290,-132.821 450,-132.821 450,-113.821 290,-113.821"/>
<text text-anchor="middle" x="370" y="-120.821" font-family="Helvetica,sans-Serif" font-size="10.00">std::unique_ptr&lt; BaseScenario &gt;</text>
</g>
<!-- Node7&#45;&gt;Node4 -->
<g id="edge12" class="edge"><title>Node7&#45;&gt;Node4</title>
<path fill="none" stroke="#9a32cd" stroke-dasharray="5,2" d="M460.272,-119.528C462.876,-119.454 465.457,-119.384 468,-119.321 499.339,-118.547 535.218,-118.334 559.913,-118.292"/>
<polygon fill="#9a32cd" stroke="#9a32cd" points="460.021,-116.034 450.134,-119.842 460.238,-123.031 460.021,-116.034"/>
<text text-anchor="middle" x="505" y="-122.321" font-family="Helvetica,sans-Serif" font-size="10.00"> m_scenario</text>
</g>
<!-- Node8&#45;&gt;Node4 -->
<g id="edge13" class="edge"><title>Node8&#45;&gt;Node4</title>
<path fill="none" stroke="#9a32cd" stroke-dasharray="5,2" d="M719.801,-187.668C688.65,-180.822 653.898,-172.027 640,-164.321 623.243,-155.031 608.035,-138.447 599.413,-127.935"/>
<polygon fill="#9a32cd" stroke="#9a32cd" points="719.243,-191.128 729.757,-189.818 720.721,-184.286 719.243,-191.128"/>
<text text-anchor="middle" x="676" y="-189.321" font-family="Helvetica,sans-Serif" font-size="10.00"> m_runningState</text>
</g>
<!-- Node9 -->
<g id="node9" class="node"><title>Node9</title>
<g id="a_node9"><a xlink:href="class_key_trigger.html" target="_top" xlink:title="KeyTrigger">
<polygon fill="white" stroke="red" points="105.5,-248.821 105.5,-267.821 168.5,-267.821 168.5,-248.821 105.5,-248.821"/>
<text text-anchor="middle" x="137" y="-255.821" font-family="Helvetica,sans-Serif" font-size="10.00">KeyTrigger</text>
</a>
</g>
</g>
<!-- Node9&#45;&gt;Node1 -->
<g id="edge18" class="edge"><title>Node9&#45;&gt;Node1</title>
<path fill="none" stroke="#9a32cd" stroke-dasharray="5,2" d="M172.191,-245C219.312,-226.642 303.069,-194.009 344.457,-177.884"/>
<polygon fill="#9a32cd" stroke="#9a32cd" points="170.768,-241.798 162.721,-248.69 173.309,-248.321 170.768,-241.798"/>
<text text-anchor="middle" x="230" y="-240.321" font-family="Helvetica,sans-Serif" font-size="10.00"> m_continueTrigger</text>
</g>
<!-- Node9&#45;&gt;Node8 -->
<g id="edge16" class="edge"><title>Node9&#45;&gt;Node8</title>
<path fill="none" stroke="#9a32cd" stroke-dasharray="5,2" d="M178.687,-256.651C205.253,-255.522 240.691,-253.947 272,-252.321 467.633,-242.162 520.983,-269.773 712,-226.321 728.659,-222.532 746.536,-214.982 759.478,-208.827"/>
<polygon fill="#9a32cd" stroke="#9a32cd" points="178.451,-253.157 168.608,-257.075 178.746,-260.151 178.451,-253.157"/>
<text text-anchor="middle" x="505" y="-254.321" font-family="Helvetica,sans-Serif" font-size="10.00"> m_pauseTrigger</text>
</g>
</g>
</svg>
        <g id="navigator" transform="translate(0 0)" fill="#404254">
                <rect fill="#f2f5e9" fill-opacity="0.5" stroke="#606060" stroke-width=".5" x="0" y="0" width="60" height="60"/>
                <use id="zoomplus" xlink:href="#zoomPlus" x="17" y="9" onmousedown="handleZoom(evt,'in')"/>
                <use id="zoomminus" xlink:href="#zoomMin" x="42" y="9" onmousedown="handleZoom(evt,'out')"/>
                <use id="reset" xlink:href="#resetDef" x="30" y="36" onmousedown="handleReset()"/>
                <g id="arrowUp" xlink:href="#dirArrow" transform="translate(30 24)" onmousedown="handlePan(0,-1)">
                  <use xlink:href="#rim" fill="#404040">
                        <set attributeName="fill" to="#808080" begin="arrowUp.mouseover" end="arrowUp.mouseout"/>
                  </use>
                  <path fill="none" stroke="white" stroke-width="1.5" d="M0,-3.0v7 M-2.5,-0.5L0,-3.0L2.5,-0.5"/>
                </g>
                <g id="arrowRight" xlink:href="#dirArrow" transform="rotate(90) translate(36 -43)" onmousedown="handlePan(1,0)">
                  <use xlink:href="#rim" fill="#404040">
                        <set attributeName="fill" to="#808080" begin="arrowRight.mouseover" end="arrowRight.mouseout"/>
                  </use>
                  <path fill="none" stroke="white" stroke-width="1.5" d="M0,-3.0v7 M-2.5,-0.5L0,-3.0L2.5,-0.5"/>
                </g>
                <g id="arrowDown" xlink:href="#dirArrow" transform="rotate(180) translate(-30 -48)" onmousedown="handlePan(0,1)">
                  <use xlink:href="#rim" fill="#404040">
                        <set attributeName="fill" to="#808080" begin="arrowDown.mouseover" end="arrowDown.mouseout"/>
                  </use>
                  <path fill="none" stroke="white" stroke-width="1.5" d="M0,-3.0v7 M-2.5,-0.5L0,-3.0L2.5,-0.5"/>
                </g>
                <g id="arrowLeft" xlink:href="#dirArrow" transform="rotate(270) translate(-36 17)" onmousedown="handlePan(-1,0)">
                  <use xlink:href="#rim" fill="#404040">
                        <set attributeName="fill" to="#808080" begin="arrowLeft.mouseover" end="arrowLeft.mouseout"/>
                  </use>
                  <path fill="none" stroke="white" stroke-width="1.5" d="M0,-3.0v7 M-2.5,-0.5L0,-3.0L2.5,-0.5"/>
                </g>
        </g>
        <svg viewBox="0 0 15 15" width="100%" height="30px" preserveAspectRatio="xMaxYMin meet">
         <g id="arrow_out" transform="scale(0.3 0.3)">
          <a xlink:href="class_game_play_paused__coll__graph_org.svg" target="_base">
           <rect id="button" ry="5" rx="5" y="6" x="6" height="38" width="38"
                fill="#f2f5e9" fill-opacity="0.5" stroke="#606060" stroke-width="1.0"/>
           <path id="arrow"
             d="M 11.500037,31.436501 C 11.940474,20.09759 22.043105,11.32322 32.158766,21.979434 L 37.068811,17.246167 C 37.068811,17.246167 37.088388,32 37.088388,32 L 22.160133,31.978069 C 22.160133,31.978069 26.997745,27.140456 26.997745,27.140456 C 18.528582,18.264221 13.291696,25.230495 11.500037,31.436501 z"
             style="fill:#404040;"/>
          </a>
         </g>
        </svg>
</svg>
