<?xml version="1.0" encoding="UTF-8" standalone="no"?>
<!DOCTYPE svg PUBLIC "-//W3C//DTD SVG 1.1//EN"
 "http://www.w3.org/Graphics/SVG/1.1/DTD/svg11.dtd">
<!-- Generated by graphviz version 2.36.0 (20140111.2315)
 -->
<!-- Title: VoxelParticleEngine Pages: 1 -->
<svg width="1004pt" height="176pt"
 viewBox="0.00 0.00 1004.00 176.00" xmlns="http://www.w3.org/2000/svg" xmlns:xlink="http://www.w3.org/1999/xlink">
<g id="graph0" class="graph" transform="scale(1 1) rotate(0) translate(4 172)">
<title>VoxelParticleEngine</title>
<polygon fill="white" stroke="none" points="-4,4 -4,-172 1000,-172 1000,4 -4,4"/>
<!-- Node1 -->
<g id="node1" class="node"><title>Node1</title>
<polygon fill="#bfbfbf" stroke="black" points="462,-93.5 462,-112.5 566,-112.5 566,-93.5 462,-93.5"/>
<text text-anchor="middle" x="514" y="-100.5" font-family="Helvetica,sans-Serif" font-size="10.00">VoxelParticleEngine</text>
</g>
<!-- Node7 -->
<g id="node7" class="node"><title>Node7</title>
<g id="a_node7"><a xlink:href="class_voxel_particle_renderer.html" target="_top" xlink:title="VoxelParticleRenderer">
<polygon fill="white" stroke="red" points="682.5,-132.5 682.5,-151.5 795.5,-151.5 795.5,-132.5 682.5,-132.5"/>
<text text-anchor="middle" x="739" y="-139.5" font-family="Helvetica,sans-Serif" font-size="10.00">VoxelParticleRenderer</text>
</a>
</g>
</g>
<!-- Node1&#45;&gt;Node7 -->
<g id="edge8" class="edge"><title>Node1&#45;&gt;Node7</title>
<path fill="none" stroke="#9a32cd" stroke-dasharray="5,2" d="M576.317,-113.724C609.894,-119.596 651.144,-126.81 683.574,-132.482"/>
<polygon fill="#9a32cd" stroke="#9a32cd" points="576.614,-110.223 566.161,-111.947 575.408,-117.118 576.614,-110.223"/>
<text text-anchor="middle" x="624" y="-132" font-family="Helvetica,sans-Serif" font-size="10.00"> m_engine</text>
</g>
<!-- Node9 -->
<g id="node9" class="node"><title>Node9</title>
<g id="a_node9"><a xlink:href="class_voxel_particle_remover.html" target="_top" xlink:title="VoxelParticleRemover">
<polygon fill="white" stroke="red" points="683,-0.5 683,-19.5 795,-19.5 795,-0.5 683,-0.5"/>
<text text-anchor="middle" x="739" y="-7.5" font-family="Helvetica,sans-Serif" font-size="10.00">VoxelParticleRemover</text>
</a>
</g>
</g>
<!-- Node1&#45;&gt;Node9 -->
<g id="edge11" class="edge"><title>Node1&#45;&gt;Node9</title>
<path fill="none" stroke="#9a32cd" stroke-dasharray="5,2" d="M526.928,-84.8124C539.111,-67.864 559.659,-43.3983 584,-31 614.416,-15.5076 652.375,-10.1984 682.996,-8.79137"/>
<polygon fill="#9a32cd" stroke="#9a32cd" points="523.848,-83.1122 521.048,-93.3303 529.609,-87.0885 523.848,-83.1122"/>
<text text-anchor="middle" x="624" y="-34" font-family="Helvetica,sans-Serif" font-size="10.00"> m_particleEngine</text>
</g>
<!-- Node2 -->
<g id="node2" class="node"><title>Node2</title>
<g id="a_node2"><a xlink:href="class_context_dependant.html" target="_top" xlink:title="ContextDependant">
<polygon fill="white" stroke="black" points="191.5,-148.5 191.5,-167.5 288.5,-167.5 288.5,-148.5 191.5,-148.5"/>
<text text-anchor="middle" x="240" y="-155.5" font-family="Helvetica,sans-Serif" font-size="10.00">ContextDependant</text>
</a>
</g>
</g>
<!-- Node2&#45;&gt;Node1 -->
<g id="edge1" class="edge"><title>Node2&#45;&gt;Node1</title>
<path fill="none" stroke="#8b1a1a" d="M298.859,-149.211C339.63,-142.66 395.399,-132.976 444,-122 456.12,-119.263 469.3,-115.765 480.862,-112.518"/>
<polygon fill="#8b1a1a" stroke="#8b1a1a" points="298.155,-145.779 288.83,-150.808 299.256,-152.692 298.155,-145.779"/>
</g>
<!-- Node2&#45;&gt;Node7 -->
<g id="edge7" class="edge"><title>Node2&#45;&gt;Node7</title>
<path fill="none" stroke="midnightblue" d="M298.792,-156.139C395.109,-153.039 587.238,-146.853 682.209,-143.796"/>
<polygon fill="midnightblue" stroke="midnightblue" points="298.537,-152.646 288.654,-156.466 298.762,-159.642 298.537,-152.646"/>
</g>
<!-- Node3 -->
<g id="node3" class="node"><title>Node3</title>
<polygon fill="white" stroke="#bfbfbf" points="195.5,-57.5 195.5,-76.5 284.5,-76.5 284.5,-57.5 195.5,-57.5"/>
<text text-anchor="middle" x="240" y="-64.5" font-family="Helvetica,sans-Serif" font-size="10.00">std::stack&lt; int &gt;</text>
</g>
<!-- Node3&#45;&gt;Node1 -->
<g id="edge2" class="edge"><title>Node3&#45;&gt;Node1</title>
<path fill="none" stroke="#9a32cd" stroke-dasharray="5,2" d="M294.691,-72.5408C335.674,-76.9654 393.498,-83.6288 444,-91 449.775,-91.8429 455.81,-92.7916 461.805,-93.7768"/>
<polygon fill="#9a32cd" stroke="#9a32cd" points="294.965,-69.0503 284.65,-71.4651 294.22,-76.0104 294.965,-69.0503"/>
<text text-anchor="middle" x="383" y="-94" font-family="Helvetica,sans-Serif" font-size="10.00"> m_freeParticleBufferIndices</text>
</g>
<!-- Node4 -->
<g id="node4" class="node"><title>Node4</title>
<polygon fill="white" stroke="#bfbfbf" points="176,-96 176,-126 304,-126 304,-96 176,-96"/>
<text text-anchor="start" x="184" y="-114" font-family="Helvetica,sans-Serif" font-size="10.00">std::vector&lt; VoxelParticle</text>
<text text-anchor="middle" x="240" y="-103" font-family="Helvetica,sans-Serif" font-size="10.00">Data &gt;</text>
</g>
<!-- Node4&#45;&gt;Node1 -->
<g id="edge3" class="edge"><title>Node4&#45;&gt;Node1</title>
<path fill="none" stroke="#9a32cd" stroke-dasharray="5,2" d="M314.13,-108.849C360.74,-107.478 419.982,-105.736 461.639,-104.511"/>
<polygon fill="#9a32cd" stroke="#9a32cd" points="313.979,-105.352 304.086,-109.145 314.185,-112.349 313.979,-105.352"/>
<text text-anchor="middle" x="383" y="-112" font-family="Helvetica,sans-Serif" font-size="10.00"> m_cpuParticleBuffer</text>
</g>
<!-- Node5 -->
<g id="node5" class="node"><title>Node5</title>
<g id="a_node5"><a xlink:href="struct_voxel_particle_data.html" target="_top" xlink:title="VoxelParticleData">
<polygon fill="white" stroke="black" points="0.5,-101.5 0.5,-120.5 95.5,-120.5 95.5,-101.5 0.5,-101.5"/>
<text text-anchor="middle" x="48" y="-108.5" font-family="Helvetica,sans-Serif" font-size="10.00">VoxelParticleData</text>
</a>
</g>
</g>
<!-- Node5&#45;&gt;Node4 -->
<g id="edge4" class="edge"><title>Node5&#45;&gt;Node4</title>
<path fill="none" stroke="#9a32cd" stroke-dasharray="5,2" d="M106.127,-111C128.072,-111 153.241,-111 175.731,-111"/>
<polygon fill="#9a32cd" stroke="#9a32cd" points="105.966,-107.5 95.9663,-111 105.966,-114.5 105.966,-107.5"/>
<text text-anchor="middle" x="136" y="-114" font-family="Helvetica,sans-Serif" font-size="10.00"> elements</text>
</g>
<!-- Node6 -->
<g id="node6" class="node"><title>Node6</title>
<polygon fill="white" stroke="#bfbfbf" points="848,-97 848,-127 996,-127 996,-97 848,-97"/>
<text text-anchor="start" x="856" y="-115" font-family="Helvetica,sans-Serif" font-size="10.00">std::unique_ptr&lt; VoxelParticle</text>
<text text-anchor="middle" x="922" y="-104" font-family="Helvetica,sans-Serif" font-size="10.00">Renderer &gt;</text>
</g>
<!-- Node6&#45;&gt;Node1 -->
<g id="edge5" class="edge"><title>Node6&#45;&gt;Node1</title>
<path fill="none" stroke="#9a32cd" stroke-dasharray="5,2" d="M837.66,-110.153C756.02,-108.343 634.225,-105.643 566.009,-104.131"/>
<polygon fill="#9a32cd" stroke="#9a32cd" points="837.833,-113.657 847.908,-110.38 837.988,-106.659 837.833,-113.657"/>
<text text-anchor="middle" x="739" y="-113" font-family="Helvetica,sans-Serif" font-size="10.00"> m_renderer</text>
</g>
<!-- Node7&#45;&gt;Node6 -->
<g id="edge6" class="edge"><title>Node7&#45;&gt;Node6</title>
<path fill="none" stroke="#9a32cd" stroke-dasharray="5,2" d="M805.984,-131.063C819.555,-128.814 833.922,-126.433 847.733,-124.144"/>
<polygon fill="#9a32cd" stroke="#9a32cd" points="805.076,-127.666 795.783,-132.754 806.221,-134.572 805.076,-127.666"/>
<text text-anchor="middle" x="822" y="-133" font-family="Helvetica,sans-Serif" font-size="10.00"> ptr</text>
</g>
<!-- Node8 -->
<g id="node8" class="node"><title>Node8</title>
<polygon fill="white" stroke="#bfbfbf" points="848,-31 848,-61 996,-61 996,-31 848,-31"/>
<text text-anchor="start" x="856" y="-49" font-family="Helvetica,sans-Serif" font-size="10.00">std::unique_ptr&lt; VoxelParticle</text>
<text text-anchor="middle" x="922" y="-38" font-family="Helvetica,sans-Serif" font-size="10.00">Remover &gt;</text>
</g>
<!-- Node8&#45;&gt;Node1 -->
<g id="edge9" class="edge"><title>Node8&#45;&gt;Node1</title>
<path fill="none" stroke="#9a32cd" stroke-dasharray="5,2" d="M837.66,-57.7004C756.02,-69.1622 634.225,-86.2615 566.009,-95.8386"/>
<polygon fill="#9a32cd" stroke="#9a32cd" points="838.492,-61.1181 847.908,-56.2617 837.518,-54.1861 838.492,-61.1181"/>
<text text-anchor="middle" x="739" y="-83" font-family="Helvetica,sans-Serif" font-size="10.00"> m_remover</text>
</g>
<!-- Node9&#45;&gt;Node8 -->
<g id="edge10" class="edge"><title>Node9&#45;&gt;Node8</title>
<path fill="none" stroke="#9a32cd" stroke-dasharray="5,2" d="M798.176,-21.5709C813.986,-24.7154 831.31,-28.1611 847.834,-31.4476"/>
<polygon fill="#9a32cd" stroke="#9a32cd" points="798.52,-18.0709 788.029,-19.5528 797.155,-24.9364 798.52,-18.0709"/>
<text text-anchor="middle" x="822" y="-30" font-family="Helvetica,sans-Serif" font-size="10.00"> ptr</text>
</g>
</g>
</svg>
