<?xml version="1.0" encoding="UTF-8" standalone="no"?>
<!DOCTYPE svg PUBLIC "-//W3C//DTD SVG 1.1//EN"
 "http://www.w3.org/Graphics/SVG/1.1/DTD/svg11.dtd">
<!-- Generated by graphviz version 2.36.0 (20140111.2315)
 -->
<!-- Title: MonoView Pages: 1 -->
<svg width="312pt" height="164pt"
 viewBox="0.00 0.00 312.00 164.00" xmlns="http://www.w3.org/2000/svg" xmlns:xlink="http://www.w3.org/1999/xlink">
<g id="graph0" class="graph" transform="scale(1 1) rotate(0) translate(4 160)">
<title>MonoView</title>
<polygon fill="white" stroke="none" points="-4,4 -4,-160 308,-160 308,4 -4,4"/>
<!-- Node1 -->
<g id="node1" class="node"><title>Node1</title>
<polygon fill="#bfbfbf" stroke="black" points="78,-0.5 78,-19.5 140,-19.5 140,-0.5 78,-0.5"/>
<text text-anchor="middle" x="109" y="-7.5" font-family="Helvetica,sans-Serif" font-size="10.00">MonoView</text>
</g>
<!-- Node2 -->
<g id="node2" class="node"><title>Node2</title>
<g id="a_node2"><a xlink:href="class_view.html" target="_top" xlink:title="View">
<polygon fill="white" stroke="black" points="8,-68.5 8,-87.5 46,-87.5 46,-68.5 8,-68.5"/>
<text text-anchor="middle" x="27" y="-75.5" font-family="Helvetica,sans-Serif" font-size="10.00">View</text>
</a>
</g>
</g>
<!-- Node2&#45;&gt;Node1 -->
<g id="edge1" class="edge"><title>Node2&#45;&gt;Node1</title>
<path fill="none" stroke="midnightblue" d="M45.517,-62.0961C61.7864,-49.0012 84.8935,-30.4028 98.2773,-19.6305"/>
<polygon fill="midnightblue" stroke="midnightblue" points="43.3157,-59.375 37.7201,-68.3717 47.7048,-64.8281 43.3157,-59.375"/>
</g>
<!-- Node3 -->
<g id="node3" class="node"><title>Node3</title>
<g id="a_node3"><a xlink:href="class_viewport.html" target="_top" xlink:title="Viewport">
<polygon fill="white" stroke="black" points="0,-136.5 0,-155.5 54,-155.5 54,-136.5 0,-136.5"/>
<text text-anchor="middle" x="27" y="-143.5" font-family="Helvetica,sans-Serif" font-size="10.00">Viewport</text>
</a>
</g>
</g>
<!-- Node3&#45;&gt;Node2 -->
<g id="edge2" class="edge"><title>Node3&#45;&gt;Node2</title>
<path fill="none" stroke="#9a32cd" stroke-dasharray="5,2" d="M27,-126.041C27,-113.472 27,-97.5631 27,-87.8411"/>
<polygon fill="#9a32cd" stroke="#9a32cd" points="23.5001,-126.372 27,-136.372 30.5001,-126.372 23.5001,-126.372"/>
<text text-anchor="middle" x="53" y="-109.5" font-family="Helvetica,sans-Serif" font-size="10.00"> m_viewport</text>
</g>
<!-- Node4 -->
<g id="node4" class="node"><title>Node4</title>
<g id="a_node4"><a xlink:href="class_property.html" target="_top" xlink:title="Property\&lt; float \&gt;">
<polygon fill="white" stroke="black" points="64.5,-68.5 64.5,-87.5 153.5,-87.5 153.5,-68.5 64.5,-68.5"/>
<text text-anchor="middle" x="109" y="-75.5" font-family="Helvetica,sans-Serif" font-size="10.00">Property&lt; float &gt;</text>
</a>
</g>
</g>
<!-- Node4&#45;&gt;Node1 -->
<g id="edge3" class="edge"><title>Node4&#45;&gt;Node1</title>
<path fill="none" stroke="#9a32cd" stroke-dasharray="5,2" d="M109,-58.0413C109,-45.4724 109,-29.5631 109,-19.8411"/>
<polygon fill="#9a32cd" stroke="#9a32cd" points="105.5,-58.3716 109,-68.3717 112.5,-58.3717 105.5,-58.3716"/>
<text text-anchor="middle" x="151" y="-41.5" font-family="Helvetica,sans-Serif" font-size="10.00"> m_samplingFactor</text>
</g>
<!-- Node5 -->
<g id="node5" class="node"><title>Node5</title>
<g id="a_node5"><a xlink:title="STL class. ">
<polygon fill="white" stroke="#bfbfbf" points="79,-136.5 79,-155.5 139,-155.5 139,-136.5 79,-136.5"/>
<text text-anchor="middle" x="109" y="-143.5" font-family="Helvetica,sans-Serif" font-size="10.00">std::string</text>
</a>
</g>
</g>
<!-- Node5&#45;&gt;Node4 -->
<g id="edge4" class="edge"><title>Node5&#45;&gt;Node4</title>
<path fill="none" stroke="#9a32cd" stroke-dasharray="5,2" d="M109,-126.041C109,-113.472 109,-97.5631 109,-87.8411"/>
<polygon fill="#9a32cd" stroke="#9a32cd" points="105.5,-126.372 109,-136.372 112.5,-126.372 105.5,-126.372"/>
<text text-anchor="middle" x="129.5" y="-109.5" font-family="Helvetica,sans-Serif" font-size="10.00"> m_name</text>
</g>
<!-- Node6 -->
<g id="node6" class="node"><title>Node6</title>
<polygon fill="white" stroke="#bfbfbf" points="171.5,-68.5 171.5,-87.5 304.5,-87.5 304.5,-68.5 171.5,-68.5"/>
<text text-anchor="middle" x="238" y="-75.5" font-family="Helvetica,sans-Serif" font-size="10.00">std::unique_ptr&lt; Camera &gt;</text>
</g>
<!-- Node6&#45;&gt;Node1 -->
<g id="edge5" class="edge"><title>Node6&#45;&gt;Node1</title>
<path fill="none" stroke="#9a32cd" stroke-dasharray="5,2" d="M224.007,-60.5101C216.656,-52.7377 207.09,-43.8988 197,-38 179.479,-27.7566 157.685,-21.0316 140.169,-16.8551"/>
<polygon fill="#9a32cd" stroke="#9a32cd" points="221.748,-63.2332 231.033,-68.3358 226.957,-58.5566 221.748,-63.2332"/>
<text text-anchor="middle" x="238.5" y="-41.5" font-family="Helvetica,sans-Serif" font-size="10.00"> m_camera</text>
</g>
<!-- Node7 -->
<g id="node7" class="node"><title>Node7</title>
<g id="a_node7"><a xlink:href="class_camera.html" target="_top" xlink:title="Camera">
<polygon fill="white" stroke="red" points="213,-136.5 213,-155.5 263,-155.5 263,-136.5 213,-136.5"/>
<text text-anchor="middle" x="238" y="-143.5" font-family="Helvetica,sans-Serif" font-size="10.00">Camera</text>
</a>
</g>
</g>
<!-- Node7&#45;&gt;Node6 -->
<g id="edge6" class="edge"><title>Node7&#45;&gt;Node6</title>
<path fill="none" stroke="#9a32cd" stroke-dasharray="5,2" d="M238,-126.041C238,-113.472 238,-97.5631 238,-87.8411"/>
<polygon fill="#9a32cd" stroke="#9a32cd" points="234.5,-126.372 238,-136.372 241.5,-126.372 234.5,-126.372"/>
<text text-anchor="middle" x="245.5" y="-109.5" font-family="Helvetica,sans-Serif" font-size="10.00"> ptr</text>
</g>
</g>
</svg>
