<?xml version="1.0" encoding="UTF-8" standalone="no"?>
<!DOCTYPE svg PUBLIC "-//W3C//DTD SVG 1.1//EN"
 "http://www.w3.org/Graphics/SVG/1.1/DTD/svg11.dtd">
<!-- Generated by graphviz version 2.36.0 (20140111.2315)
 -->
<!-- Title: Weapon Pages: 1 -->
<svg width="215pt" height="196pt"
 viewBox="0.00 0.00 215.00 196.00" xmlns="http://www.w3.org/2000/svg" xmlns:xlink="http://www.w3.org/1999/xlink">
<g id="graph0" class="graph" transform="scale(1 1) rotate(0) translate(4 192)">
<title>Weapon</title>
<polygon fill="white" stroke="none" points="-4,4 -4,-192 211,-192 211,4 -4,4"/>
<!-- Node1 -->
<g id="node1" class="node"><title>Node1</title>
<polygon fill="#bfbfbf" stroke="black" points="54.5,-112.5 54.5,-131.5 107.5,-131.5 107.5,-112.5 54.5,-112.5"/>
<text text-anchor="middle" x="81" y="-119.5" font-family="Helvetica,sans-Serif" font-size="10.00">Weapon</text>
</g>
<!-- Node3 -->
<g id="node3" class="node"><title>Node3</title>
<g id="a_node3"><a xlink:href="class_gun.html" target="_top" xlink:title="Gun">
<polygon fill="white" stroke="black" points="24.5,-56.5 24.5,-75.5 59.5,-75.5 59.5,-56.5 24.5,-56.5"/>
<text text-anchor="middle" x="42" y="-63.5" font-family="Helvetica,sans-Serif" font-size="10.00">Gun</text>
</a>
</g>
</g>
<!-- Node1&#45;&gt;Node3 -->
<g id="edge2" class="edge"><title>Node1&#45;&gt;Node3</title>
<path fill="none" stroke="midnightblue" d="M68.6178,-103.855C61.8646,-94.5048 53.7914,-83.3265 48.3202,-75.7511"/>
<polygon fill="midnightblue" stroke="midnightblue" points="65.8676,-106.025 74.5599,-112.083 71.5424,-101.927 65.8676,-106.025"/>
</g>
<!-- Node5 -->
<g id="node5" class="node"><title>Node5</title>
<g id="a_node5"><a xlink:href="class_rocket_launcher.html" target="_top" xlink:title="RocketLauncher">
<polygon fill="white" stroke="black" points="94.5,-56.5 94.5,-75.5 181.5,-75.5 181.5,-56.5 94.5,-56.5"/>
<text text-anchor="middle" x="138" y="-63.5" font-family="Helvetica,sans-Serif" font-size="10.00">RocketLauncher</text>
</a>
</g>
</g>
<!-- Node1&#45;&gt;Node5 -->
<g id="edge4" class="edge"><title>Node1&#45;&gt;Node5</title>
<path fill="none" stroke="midnightblue" d="M97.6215,-105.253C107.734,-95.6731 120.277,-83.7906 128.675,-75.8339"/>
<polygon fill="midnightblue" stroke="midnightblue" points="95.0105,-102.906 90.158,-112.324 99.8247,-107.987 95.0105,-102.906"/>
</g>
<!-- Node2 -->
<g id="node2" class="node"><title>Node2</title>
<g id="a_node2"><a xlink:href="class_equipment.html" target="_top" xlink:title="Equipment">
<polygon fill="white" stroke="black" points="49.5,-168.5 49.5,-187.5 112.5,-187.5 112.5,-168.5 49.5,-168.5"/>
<text text-anchor="middle" x="81" y="-175.5" font-family="Helvetica,sans-Serif" font-size="10.00">Equipment</text>
</a>
</g>
</g>
<!-- Node2&#45;&gt;Node1 -->
<g id="edge1" class="edge"><title>Node2&#45;&gt;Node1</title>
<path fill="none" stroke="midnightblue" d="M81,-157.805C81,-148.91 81,-138.78 81,-131.751"/>
<polygon fill="midnightblue" stroke="midnightblue" points="77.5001,-158.083 81,-168.083 84.5001,-158.083 77.5001,-158.083"/>
</g>
<!-- Node4 -->
<g id="node4" class="node"><title>Node4</title>
<g id="a_node4"><a xlink:href="class_generic_gun.html" target="_top" xlink:title="GenericGun">
<polygon fill="white" stroke="black" points="0,-0.5 0,-19.5 68,-19.5 68,-0.5 0,-0.5"/>
<text text-anchor="middle" x="34" y="-7.5" font-family="Helvetica,sans-Serif" font-size="10.00">GenericGun</text>
</a>
</g>
</g>
<!-- Node3&#45;&gt;Node4 -->
<g id="edge3" class="edge"><title>Node3&#45;&gt;Node4</title>
<path fill="none" stroke="midnightblue" d="M39.2001,-46.1005C37.872,-37.1357 36.3493,-26.8579 35.2965,-19.7511"/>
<polygon fill="midnightblue" stroke="midnightblue" points="35.7512,-46.7039 40.679,-56.083 42.6756,-45.678 35.7512,-46.7039"/>
</g>
<!-- Node6 -->
<g id="node6" class="node"><title>Node6</title>
<g id="a_node6"><a xlink:href="class_generic_rocket_launcher.html" target="_top" xlink:title="GenericRocketLauncher">
<polygon fill="white" stroke="black" points="86.5,-0.5 86.5,-19.5 207.5,-19.5 207.5,-0.5 86.5,-0.5"/>
<text text-anchor="middle" x="147" y="-7.5" font-family="Helvetica,sans-Serif" font-size="10.00">GenericRocketLauncher</text>
</a>
</g>
</g>
<!-- Node5&#45;&gt;Node6 -->
<g id="edge5" class="edge"><title>Node5&#45;&gt;Node6</title>
<path fill="none" stroke="midnightblue" d="M141.15,-46.1005C142.644,-37.1357 144.357,-26.8579 145.541,-19.7511"/>
<polygon fill="midnightblue" stroke="midnightblue" points="137.678,-45.6436 139.486,-56.083 144.583,-46.7945 137.678,-45.6436"/>
</g>
</g>
</svg>
