<?xml version="1.0" encoding="UTF-8" standalone="no"?>
<!DOCTYPE svg PUBLIC "-//W3C//DTD SVG 1.1//EN"
 "http://www.w3.org/Graphics/SVG/1.1/DTD/svg11.dtd">
<!-- Generated by graphviz version 2.36.0 (20140111.2315)
 -->
<!-- Title: GenericEngine Pages: 1 -->
<!--zoomable 181 -->
<svg id="main" version="1.1" xmlns="http://www.w3.org/2000/svg" xmlns:xlink="http://www.w3.org/1999/xlink" xml:space="preserve" onload="init(evt)">
<style type="text/css"><![CDATA[
.edge:hover path { stroke: red; }
.edge:hover polygon { stroke: red; fill: red; }
]]></style>
<script type="text/javascript"><![CDATA[
var edges = document.getElementsByTagName('g');
if (edges && edges.length) {
  for (var i=0;i<edges.length;i++) {
    if (edges[i].id.substr(0,4)=='edge') {
      edges[i].setAttribute('class','edge');
    }
  }
}
]]></script>
        <defs>
                <circle id="rim" cx="0" cy="0" r="7"/>
                <circle id="rim2" cx="0" cy="0" r="3.5"/>
                <g id="zoomPlus">
                        <use xlink:href="#rim" fill="#404040">
                                <set attributeName="fill" to="#808080" begin="zoomplus.mouseover" end="zoomplus.mouseout"/>
                        </use>
                        <path d="M-4,0h8M0,-4v8" fill="none" stroke="white" stroke-width="1.5" pointer-events="none"/>
                </g>
                <g id="zoomMin">
                        <use xlink:href="#rim" fill="#404040">
                                <set attributeName="fill" to="#808080" begin="zoomminus.mouseover" end="zoomminus.mouseout"/>
                        </use>
                        <path d="M-4,0h8" fill="none" stroke="white" stroke-width="1.5" pointer-events="none"/>
                </g>
                <g id="dirArrow">
                        <path fill="none" stroke="white" stroke-width="1.5" d="M0,-3.0v7 M-2.5,-0.5L0,-3.0L2.5,-0.5"/>
                </g>
               <g id="resetDef">
                       <use xlink:href="#rim2" fill="#404040">
                               <set attributeName="fill" to="#808080" begin="reset.mouseover" end="reset.mouseout"/>
                       </use>
               </g>
        </defs>

<script type="text/javascript">
var viewWidth = 684;
var viewHeight = 181;
var sectionId = 'dynsection-1';
</script>
<script xlink:href="svgpan.js"/>
<svg id="graph" class="graph">
<g id="viewport">
<title>GenericEngine</title>
<polygon fill="white" stroke="none" points="-4,4 -4,-177 680,-177 680,4 -4,4"/>
<!-- Node1 -->
<g id="node1" class="node"><title>Node1</title>
<polygon fill="#bfbfbf" stroke="black" points="596,-60.5 596,-79.5 676,-79.5 676,-60.5 596,-60.5"/>
<text text-anchor="middle" x="636" y="-67.5" font-family="Helvetica,sans-Serif" font-size="10.00">GenericEngine</text>
</g>
<!-- Node2 -->
<g id="node2" class="node"><title>Node2</title>
<g id="a_node2"><a xlink:href="class_engine.html" target="_top" xlink:title="Engine">
<polygon fill="white" stroke="black" points="453.5,-82.5 453.5,-101.5 500.5,-101.5 500.5,-82.5 453.5,-82.5"/>
<text text-anchor="middle" x="477" y="-89.5" font-family="Helvetica,sans-Serif" font-size="10.00">Engine</text>
</a>
</g>
</g>
<!-- Node2&#45;&gt;Node1 -->
<g id="edge1" class="edge"><title>Node2&#45;&gt;Node1</title>
<path fill="none" stroke="midnightblue" d="M510.81,-87.4025C535.54,-83.9371 569.55,-79.1713 595.727,-75.5032"/>
<polygon fill="midnightblue" stroke="midnightblue" points="510.247,-83.9471 500.829,-88.801 511.218,-90.8793 510.247,-83.9471"/>
</g>
<!-- Node3 -->
<g id="node3" class="node"><title>Node3</title>
<g id="a_node3"><a xlink:href="class_equipment.html" target="_top" xlink:title="Equipment">
<polygon fill="white" stroke="black" points="213.5,-126.5 213.5,-145.5 276.5,-145.5 276.5,-126.5 213.5,-126.5"/>
<text text-anchor="middle" x="245" y="-133.5" font-family="Helvetica,sans-Serif" font-size="10.00">Equipment</text>
</a>
</g>
</g>
<!-- Node3&#45;&gt;Node2 -->
<g id="edge2" class="edge"><title>Node3&#45;&gt;Node2</title>
<path fill="none" stroke="midnightblue" d="M286.784,-130.551C322.609,-125.462 376.036,-117.14 422,-107 432.357,-104.715 443.684,-101.657 453.277,-98.8977"/>
<polygon fill="midnightblue" stroke="midnightblue" points="286.132,-127.108 276.714,-131.961 287.103,-134.04 286.132,-127.108"/>
</g>
<!-- Node4 -->
<g id="node4" class="node"><title>Node4</title>
<g id="a_node4"><a xlink:title="STL class. ">
<polygon fill="white" stroke="#bfbfbf" points="0,-146.5 0,-165.5 60,-165.5 60,-146.5 0,-146.5"/>
<text text-anchor="middle" x="30" y="-153.5" font-family="Helvetica,sans-Serif" font-size="10.00">std::string</text>
</a>
</g>
</g>
<!-- Node4&#45;&gt;Node3 -->
<g id="edge3" class="edge"><title>Node4&#45;&gt;Node3</title>
<path fill="none" stroke="#9a32cd" stroke-dasharray="5,2" d="M66.1691,-143.617C70.122,-142.572 74.1218,-141.664 78,-141 124.75,-132.998 179.961,-133.215 213.457,-134.393"/>
<polygon fill="#9a32cd" stroke="#9a32cd" points="65.1544,-140.267 56.5361,-146.429 67.1163,-146.986 65.1544,-140.267"/>
<text text-anchor="middle" x="118" y="-144" font-family="Helvetica,sans-Serif" font-size="10.00"> m_equipmentKey</text>
</g>
<!-- Node10 -->
<g id="node10" class="node"><title>Node10</title>
<g id="a_node10"><a xlink:href="class_sound_properties.html" target="_top" xlink:title="SoundProperties">
<polygon fill="white" stroke="black" points="332.5,-153.5 332.5,-172.5 421.5,-172.5 421.5,-153.5 332.5,-153.5"/>
<text text-anchor="middle" x="377" y="-160.5" font-family="Helvetica,sans-Serif" font-size="10.00">SoundProperties</text>
</a>
</g>
</g>
<!-- Node4&#45;&gt;Node10 -->
<g id="edge10" class="edge"><title>Node4&#45;&gt;Node10</title>
<path fill="none" stroke="#9a32cd" stroke-dasharray="5,2" d="M70.3583,-156.799C135.393,-158.118 264.811,-160.744 332.481,-162.117"/>
<polygon fill="#9a32cd" stroke="#9a32cd" points="70.1861,-153.294 60.1172,-156.591 70.0441,-160.293 70.1861,-153.294"/>
<text text-anchor="middle" x="118" y="-162" font-family="Helvetica,sans-Serif" font-size="10.00"> m_sound</text>
</g>
<!-- Node5 -->
<g id="node5" class="node"><title>Node5</title>
<g id="a_node5"><a xlink:href="class_engine_slot.html" target="_top" xlink:title="EngineSlot">
<polygon fill="white" stroke="red" points="213,-38.5 213,-57.5 277,-57.5 277,-38.5 213,-38.5"/>
<text text-anchor="middle" x="245" y="-45.5" font-family="Helvetica,sans-Serif" font-size="10.00">EngineSlot</text>
</a>
</g>
</g>
<!-- Node5&#45;&gt;Node2 -->
<g id="edge4" class="edge"><title>Node5&#45;&gt;Node2</title>
<path fill="none" stroke="#9a32cd" stroke-dasharray="5,2" d="M287.107,-53.4953C322.929,-58.5878 376.173,-66.8905 422,-77 432.357,-79.2847 443.684,-82.3432 453.277,-85.1023"/>
<polygon fill="#9a32cd" stroke="#9a32cd" points="287.421,-50.0052 277.032,-52.0824 286.449,-56.9373 287.421,-50.0052"/>
<text text-anchor="middle" x="377" y="-80" font-family="Helvetica,sans-Serif" font-size="10.00"> m_engineSlot</text>
</g>
<!-- Node6 -->
<g id="node6" class="node"><title>Node6</title>
<g id="a_node6"><a xlink:href="class_abstract_move.html" target="_top" xlink:title="AbstractMove">
<polygon fill="white" stroke="black" points="207,-0.5 207,-19.5 283,-19.5 283,-0.5 207,-0.5"/>
<text text-anchor="middle" x="245" y="-7.5" font-family="Helvetica,sans-Serif" font-size="10.00">AbstractMove</text>
</a>
</g>
</g>
<!-- Node6&#45;&gt;Node2 -->
<g id="edge5" class="edge"><title>Node6&#45;&gt;Node2</title>
<path fill="none" stroke="#9a32cd" stroke-dasharray="5,2" d="M293.385,-10.0738C331.134,-12.267 383.802,-20.2978 422,-46 433.966,-54.0512 429.294,-63.3371 440,-73 443.987,-76.5985 448.78,-79.735 453.548,-82.3666"/>
<polygon fill="#9a32cd" stroke="#9a32cd" points="293.31,-6.56667 283.159,-9.60021 292.986,-13.5592 293.31,-6.56667"/>
<text text-anchor="middle" x="377" y="-49" font-family="Helvetica,sans-Serif" font-size="10.00"> m_state</text>
</g>
<!-- Node7 -->
<g id="node7" class="node"><title>Node7</title>
<polygon fill="white" stroke="#bfbfbf" points="176,-77 176,-107 314,-107 314,-77 176,-77"/>
<text text-anchor="start" x="184" y="-95" font-family="Helvetica,sans-Serif" font-size="10.00">std::unique_ptr&lt; EngineTrail</text>
<text text-anchor="middle" x="245" y="-84" font-family="Helvetica,sans-Serif" font-size="10.00">Generator &gt;</text>
</g>
<!-- Node7&#45;&gt;Node2 -->
<g id="edge6" class="edge"><title>Node7&#45;&gt;Node2</title>
<path fill="none" stroke="#9a32cd" stroke-dasharray="5,2" d="M324.225,-92C369.672,-92 423.684,-92 453.467,-92"/>
<polygon fill="#9a32cd" stroke="#9a32cd" points="324.074,-88.5001 314.074,-92 324.074,-95.5001 324.074,-88.5001"/>
<text text-anchor="middle" x="377" y="-95" font-family="Helvetica,sans-Serif" font-size="10.00"> m_trailGenerator</text>
</g>
<!-- Node8 -->
<g id="node8" class="node"><title>Node8</title>
<g id="a_node8"><a xlink:href="class_visuals.html" target="_top" xlink:title="Visuals">
<polygon fill="white" stroke="black" points="452.5,-44.5 452.5,-63.5 501.5,-63.5 501.5,-44.5 452.5,-44.5"/>
<text text-anchor="middle" x="477" y="-51.5" font-family="Helvetica,sans-Serif" font-size="10.00">Visuals</text>
</a>
</g>
</g>
<!-- Node8&#45;&gt;Node1 -->
<g id="edge7" class="edge"><title>Node8&#45;&gt;Node1</title>
<path fill="none" stroke="#9a32cd" stroke-dasharray="5,2" d="M512.058,-55.65C531.427,-56.7721 556.115,-58.511 578,-61 583.773,-61.6566 589.857,-62.4777 595.813,-63.355"/>
<polygon fill="#9a32cd" stroke="#9a32cd" points="512.073,-52.1456 501.895,-55.0892 511.687,-59.135 512.073,-52.1456"/>
<text text-anchor="middle" x="555" y="-64" font-family="Helvetica,sans-Serif" font-size="10.00"> m_visuals</text>
</g>
<!-- Node9 -->
<g id="node9" class="node"><title>Node9</title>
<g id="a_node9"><a xlink:href="class_engine_power.html" target="_top" xlink:title="EnginePower">
<polygon fill="white" stroke="black" points="440,-6.5 440,-25.5 514,-25.5 514,-6.5 440,-6.5"/>
<text text-anchor="middle" x="477" y="-13.5" font-family="Helvetica,sans-Serif" font-size="10.00">EnginePower</text>
</a>
</g>
</g>
<!-- Node9&#45;&gt;Node1 -->
<g id="edge8" class="edge"><title>Node9&#45;&gt;Node1</title>
<path fill="none" stroke="#9a32cd" stroke-dasharray="5,2" d="M523.928,-26.5654C541.106,-30.9939 560.65,-36.607 578,-43 591.357,-47.9218 605.847,-54.8075 616.875,-60.3933"/>
<polygon fill="#9a32cd" stroke="#9a32cd" points="524.674,-23.1441 514.122,-24.098 522.966,-29.9325 524.674,-23.1441"/>
<text text-anchor="middle" x="555" y="-46" font-family="Helvetica,sans-Serif" font-size="10.00"> m_power</text>
</g>
<!-- Node10&#45;&gt;Node1 -->
<g id="edge9" class="edge"><title>Node10&#45;&gt;Node1</title>
<path fill="none" stroke="#9a32cd" stroke-dasharray="5,2" d="M419.487,-150.497C460.255,-137.885 524.027,-117.283 578,-96 590.648,-91.0126 604.534,-84.6968 615.434,-79.539"/>
<polygon fill="#9a32cd" stroke="#9a32cd" points="418.419,-147.164 409.89,-153.45 420.477,-153.854 418.419,-147.164"/>
<text text-anchor="middle" x="477" y="-147" font-family="Helvetica,sans-Serif" font-size="10.00"> m_engineSound</text>
</g>
</g>
</svg>
        <g id="navigator" transform="translate(0 0)" fill="#404254">
                <rect fill="#f2f5e9" fill-opacity="0.5" stroke="#606060" stroke-width=".5" x="0" y="0" width="60" height="60"/>
                <use id="zoomplus" xlink:href="#zoomPlus" x="17" y="9" onmousedown="handleZoom(evt,'in')"/>
                <use id="zoomminus" xlink:href="#zoomMin" x="42" y="9" onmousedown="handleZoom(evt,'out')"/>
                <use id="reset" xlink:href="#resetDef" x="30" y="36" onmousedown="handleReset()"/>
                <g id="arrowUp" xlink:href="#dirArrow" transform="translate(30 24)" onmousedown="handlePan(0,-1)">
                  <use xlink:href="#rim" fill="#404040">
                        <set attributeName="fill" to="#808080" begin="arrowUp.mouseover" end="arrowUp.mouseout"/>
                  </use>
                  <path fill="none" stroke="white" stroke-width="1.5" d="M0,-3.0v7 M-2.5,-0.5L0,-3.0L2.5,-0.5"/>
                </g>
                <g id="arrowRight" xlink:href="#dirArrow" transform="rotate(90) translate(36 -43)" onmousedown="handlePan(1,0)">
                  <use xlink:href="#rim" fill="#404040">
                        <set attributeName="fill" to="#808080" begin="arrowRight.mouseover" end="arrowRight.mouseout"/>
                  </use>
                  <path fill="none" stroke="white" stroke-width="1.5" d="M0,-3.0v7 M-2.5,-0.5L0,-3.0L2.5,-0.5"/>
                </g>
                <g id="arrowDown" xlink:href="#dirArrow" transform="rotate(180) translate(-30 -48)" onmousedown="handlePan(0,1)">
                  <use xlink:href="#rim" fill="#404040">
                        <set attributeName="fill" to="#808080" begin="arrowDown.mouseover" end="arrowDown.mouseout"/>
                  </use>
                  <path fill="none" stroke="white" stroke-width="1.5" d="M0,-3.0v7 M-2.5,-0.5L0,-3.0L2.5,-0.5"/>
                </g>
                <g id="arrowLeft" xlink:href="#dirArrow" transform="rotate(270) translate(-36 17)" onmousedown="handlePan(-1,0)">
                  <use xlink:href="#rim" fill="#404040">
                        <set attributeName="fill" to="#808080" begin="arrowLeft.mouseover" end="arrowLeft.mouseout"/>
                  </use>
                  <path fill="none" stroke="white" stroke-width="1.5" d="M0,-3.0v7 M-2.5,-0.5L0,-3.0L2.5,-0.5"/>
                </g>
        </g>
        <svg viewBox="0 0 15 15" width="100%" height="30px" preserveAspectRatio="xMaxYMin meet">
         <g id="arrow_out" transform="scale(0.3 0.3)">
          <a xlink:href="class_generic_engine__coll__graph_org.svg" target="_base">
           <rect id="button" ry="5" rx="5" y="6" x="6" height="38" width="38"
                fill="#f2f5e9" fill-opacity="0.5" stroke="#606060" stroke-width="1.0"/>
           <path id="arrow"
             d="M 11.500037,31.436501 C 11.940474,20.09759 22.043105,11.32322 32.158766,21.979434 L 37.068811,17.246167 C 37.068811,17.246167 37.088388,32 37.088388,32 L 22.160133,31.978069 C 22.160133,31.978069 26.997745,27.140456 26.997745,27.140456 C 18.528582,18.264221 13.291696,25.230495 11.500037,31.436501 z"
             style="fill:#404040;"/>
          </a>
         </g>
        </svg>
</svg>
