<?xml version="1.0" encoding="UTF-8" standalone="no"?>
<!DOCTYPE svg PUBLIC "-//W3C//DTD SVG 1.1//EN"
 "http://www.w3.org/Graphics/SVG/1.1/DTD/svg11.dtd">
<!-- Generated by graphviz version 2.36.0 (20140111.2315)
 -->
<!-- Title: WorldLogic Pages: 1 -->
<!--zoomable 724 -->
<svg id="main" version="1.1" xmlns="http://www.w3.org/2000/svg" xmlns:xlink="http://www.w3.org/1999/xlink" xml:space="preserve" onload="init(evt)">
<style type="text/css"><![CDATA[
.edge:hover path { stroke: red; }
.edge:hover polygon { stroke: red; fill: red; }
]]></style>
<script type="text/javascript"><![CDATA[
var edges = document.getElementsByTagName('g');
if (edges && edges.length) {
  for (var i=0;i<edges.length;i++) {
    if (edges[i].id.substr(0,4)=='edge') {
      edges[i].setAttribute('class','edge');
    }
  }
}
]]></script>
        <defs>
                <circle id="rim" cx="0" cy="0" r="7"/>
                <circle id="rim2" cx="0" cy="0" r="3.5"/>
                <g id="zoomPlus">
                        <use xlink:href="#rim" fill="#404040">
                                <set attributeName="fill" to="#808080" begin="zoomplus.mouseover" end="zoomplus.mouseout"/>
                        </use>
                        <path d="M-4,0h8M0,-4v8" fill="none" stroke="white" stroke-width="1.5" pointer-events="none"/>
                </g>
                <g id="zoomMin">
                        <use xlink:href="#rim" fill="#404040">
                                <set attributeName="fill" to="#808080" begin="zoomminus.mouseover" end="zoomminus.mouseout"/>
                        </use>
                        <path d="M-4,0h8" fill="none" stroke="white" stroke-width="1.5" pointer-events="none"/>
                </g>
                <g id="dirArrow">
                        <path fill="none" stroke="white" stroke-width="1.5" d="M0,-3.0v7 M-2.5,-0.5L0,-3.0L2.5,-0.5"/>
                </g>
               <g id="resetDef">
                       <use xlink:href="#rim2" fill="#404040">
                               <set attributeName="fill" to="#808080" begin="reset.mouseover" end="reset.mouseout"/>
                       </use>
               </g>
        </defs>

<script type="text/javascript">
var viewWidth = 1363;
var viewHeight = 724;
var sectionId = 'dynsection-0';
</script>
<script xlink:href="svgpan.js"/>
<svg id="graph" class="graph">
<g id="viewport">
<title>WorldLogic</title>
<polygon fill="white" stroke="none" points="-4,4 -4,-720.086 1358.5,-720.086 1358.5,4 -4,4"/>
<!-- Node1 -->
<g id="node1" class="node"><title>Node1</title>
<polygon fill="#bfbfbf" stroke="black" points="908.5,-396.5 908.5,-415.5 973.5,-415.5 973.5,-396.5 908.5,-396.5"/>
<text text-anchor="middle" x="941" y="-403.5" font-family="Helvetica,sans-Serif" font-size="10.00">WorldLogic</text>
</g>
<!-- Node31 -->
<g id="node31" class="node"><title>Node31</title>
<polygon fill="white" stroke="#bfbfbf" points="1034,-396.5 1034,-415.5 1182,-415.5 1182,-396.5 1034,-396.5"/>
<text text-anchor="middle" x="1108" y="-403.5" font-family="Helvetica,sans-Serif" font-size="10.00">std::unique_ptr&lt; WorldLogic &gt;</text>
</g>
<!-- Node1&#45;&gt;Node31 -->
<g id="edge39" class="edge"><title>Node1&#45;&gt;Node31</title>
<path fill="none" stroke="#9a32cd" stroke-dasharray="5,2" d="M983.919,-406C999.135,-406 1016.8,-406 1033.92,-406"/>
<polygon fill="#9a32cd" stroke="#9a32cd" points="983.814,-402.5 973.814,-406 983.814,-409.5 983.814,-402.5"/>
<text text-anchor="middle" x="1004" y="-409" font-family="Helvetica,sans-Serif" font-size="10.00"> ptr</text>
</g>
<!-- Node2 -->
<g id="node2" class="node"><title>Node2</title>
<g id="a_node2"><a xlink:href="class_wrecker.html" target="_top" xlink:title="Wrecker">
<polygon fill="white" stroke="black" points="644.5,-434.5 644.5,-453.5 697.5,-453.5 697.5,-434.5 644.5,-434.5"/>
<text text-anchor="middle" x="671" y="-441.5" font-family="Helvetica,sans-Serif" font-size="10.00">Wrecker</text>
</a>
</g>
</g>
<!-- Node2&#45;&gt;Node1 -->
<g id="edge1" class="edge"><title>Node2&#45;&gt;Node1</title>
<path fill="none" stroke="#9a32cd" stroke-dasharray="5,2" d="M707.697,-441.555C750.366,-438.274 823.809,-431.489 886,-420 893.333,-418.645 901.141,-416.839 908.473,-414.975"/>
<polygon fill="#9a32cd" stroke="#9a32cd" points="707.249,-438.079 697.537,-442.314 707.77,-445.059 707.249,-438.079"/>
<text text-anchor="middle" x="821" y="-440" font-family="Helvetica,sans-Serif" font-size="10.00"> m_wrecker</text>
</g>
<!-- Node3 -->
<g id="node3" class="node"><title>Node3</title>
<polygon fill="white" stroke="#bfbfbf" points="277,-464.5 277,-483.5 405,-483.5 405,-464.5 277,-464.5"/>
<text text-anchor="middle" x="341" y="-471.5" font-family="Helvetica,sans-Serif" font-size="10.00">std::list&lt; WorldObject * &gt;</text>
</g>
<!-- Node3&#45;&gt;Node2 -->
<g id="edge2" class="edge"><title>Node3&#45;&gt;Node2</title>
<path fill="none" stroke="#9a32cd" stroke-dasharray="5,2" d="M415.284,-467.489C463.742,-463.16 528.668,-457.315 586,-452 605.546,-450.188 627.645,-448.081 644.269,-446.484"/>
<polygon fill="#9a32cd" stroke="#9a32cd" points="414.852,-464.014 405.203,-468.389 415.474,-470.986 414.852,-464.014"/>
<text text-anchor="middle" x="516" y="-478" font-family="Helvetica,sans-Serif" font-size="10.00"> m_newWreckages</text>
<text text-anchor="middle" x="516" y="-467" font-family="Helvetica,sans-Serif" font-size="10.00">m_wreckedObjects</text>
</g>
<!-- Node6 -->
<g id="node6" class="node"><title>Node6</title>
<g id="a_node6"><a xlink:href="class_splitter.html" target="_top" xlink:title="Splitter">
<polygon fill="white" stroke="black" points="647.5,-510.5 647.5,-529.5 694.5,-529.5 694.5,-510.5 647.5,-510.5"/>
<text text-anchor="middle" x="671" y="-517.5" font-family="Helvetica,sans-Serif" font-size="10.00">Splitter</text>
</a>
</g>
</g>
<!-- Node3&#45;&gt;Node6 -->
<g id="edge6" class="edge"><title>Node3&#45;&gt;Node6</title>
<path fill="none" stroke="#9a32cd" stroke-dasharray="5,2" d="M368.821,-488.015C389.336,-497.938 418.656,-510.433 446,-516 518.415,-530.742 606.728,-525.805 647.451,-522.279"/>
<polygon fill="#9a32cd" stroke="#9a32cd" points="370.294,-484.839 359.78,-483.532 367.184,-491.11 370.294,-484.839"/>
<text text-anchor="middle" x="516" y="-528" font-family="Helvetica,sans-Serif" font-size="10.00"> m_splitOffWorldObjects</text>
</g>
<!-- Node16 -->
<g id="node16" class="node"><title>Node16</title>
<g id="a_node16"><a xlink:href="class_voxel_collision_accumulator.html" target="_top" xlink:title="VoxelCollisionAccumulator">
<polygon fill="white" stroke="black" points="604.5,-396.5 604.5,-415.5 737.5,-415.5 737.5,-396.5 604.5,-396.5"/>
<text text-anchor="middle" x="671" y="-403.5" font-family="Helvetica,sans-Serif" font-size="10.00">VoxelCollisionAccumulator</text>
</a>
</g>
</g>
<!-- Node3&#45;&gt;Node16 -->
<g id="edge18" class="edge"><title>Node3&#45;&gt;Node16</title>
<path fill="none" stroke="#9a32cd" stroke-dasharray="5,2" d="M376.065,-460.821C396.158,-453.482 422.229,-444.703 446,-439 453.728,-437.146 541.115,-424.461 604.413,-415.371"/>
<polygon fill="#9a32cd" stroke="#9a32cd" points="374.591,-457.635 366.433,-464.396 377.026,-464.198 374.591,-457.635"/>
<text text-anchor="middle" x="516" y="-442" font-family="Helvetica,sans-Serif" font-size="10.00"> m_worldObjects</text>
</g>
<!-- Node26 -->
<g id="node26" class="node"><title>Node26</title>
<g id="a_node26"><a xlink:href="class_garbage_collector.html" target="_top" xlink:title="GarbageCollector">
<polygon fill="white" stroke="black" points="625,-472.5 625,-491.5 717,-491.5 717,-472.5 625,-472.5"/>
<text text-anchor="middle" x="671" y="-479.5" font-family="Helvetica,sans-Serif" font-size="10.00">GarbageCollector</text>
</a>
</g>
</g>
<!-- Node3&#45;&gt;Node26 -->
<g id="edge32" class="edge"><title>Node3&#45;&gt;Node26</title>
<path fill="none" stroke="#9a32cd" stroke-dasharray="5,2" d="M386.182,-485.998C404.535,-490.398 426.147,-494.831 446,-497 507.854,-503.758 524.02,-502.49 586,-497 598.69,-495.876 612.334,-493.814 624.859,-491.572"/>
<polygon fill="#9a32cd" stroke="#9a32cd" points="386.9,-482.571 376.353,-483.572 385.222,-489.367 386.9,-482.571"/>
<text text-anchor="middle" x="516" y="-504" font-family="Helvetica,sans-Serif" font-size="10.00"> m_garbageVoxelClusters</text>
</g>
<!-- Node4 -->
<g id="node4" class="node"><title>Node4</title>
<g id="a_node4"><a xlink:href="class_world_object.html" target="_top" xlink:title="WorldObject">
<polygon fill="white" stroke="red" points="30.5,-363.5 30.5,-382.5 101.5,-382.5 101.5,-363.5 30.5,-363.5"/>
<text text-anchor="middle" x="66" y="-370.5" font-family="Helvetica,sans-Serif" font-size="10.00">WorldObject</text>
</a>
</g>
</g>
<!-- Node4&#45;&gt;Node3 -->
<g id="edge3" class="edge"><title>Node4&#45;&gt;Node3</title>
<path fill="none" stroke="#9a32cd" stroke-dasharray="5,2" d="M102.129,-385.997C157.797,-406.592 264.999,-446.252 314.186,-464.45"/>
<polygon fill="#9a32cd" stroke="#9a32cd" points="103.276,-382.689 92.6832,-382.502 100.847,-389.254 103.276,-382.689"/>
<text text-anchor="middle" x="193" y="-438" font-family="Helvetica,sans-Serif" font-size="10.00"> elements</text>
</g>
<!-- Node13 -->
<g id="node13" class="node"><title>Node13</title>
<polygon fill="white" stroke="#bfbfbf" points="269,-223 269,-253 413,-253 413,-223 269,-223"/>
<text text-anchor="start" x="277" y="-241" font-family="Helvetica,sans-Serif" font-size="10.00">std::map&lt; WorldObject</text>
<text text-anchor="middle" x="341" y="-230" font-family="Helvetica,sans-Serif" font-size="10.00"> *, WorldObjectModification &gt;</text>
</g>
<!-- Node4&#45;&gt;Node13 -->
<g id="edge14" class="edge"><title>Node4&#45;&gt;Node13</title>
<path fill="none" stroke="#9a32cd" stroke-dasharray="5,2" d="M83.8239,-355.849C99.7318,-340.389 124.851,-317.867 150,-303 188.864,-280.024 237.029,-263.661 275.139,-253.099"/>
<polygon fill="#9a32cd" stroke="#9a32cd" points="81.0335,-353.686 76.3933,-363.211 85.9603,-358.659 81.0335,-353.686"/>
<text text-anchor="middle" x="193" y="-306" font-family="Helvetica,sans-Serif" font-size="10.00"> keys</text>
</g>
<!-- Node24 -->
<g id="node24" class="node"><title>Node24</title>
<g id="a_node24"><a xlink:href="class_damage_forwarder.html" target="_top" xlink:title="DamageForwarder">
<polygon fill="white" stroke="black" points="623.5,-304.5 623.5,-323.5 718.5,-323.5 718.5,-304.5 623.5,-304.5"/>
<text text-anchor="middle" x="671" y="-311.5" font-family="Helvetica,sans-Serif" font-size="10.00">DamageForwarder</text>
</a>
</g>
</g>
<!-- Node4&#45;&gt;Node24 -->
<g id="edge29" class="edge"><title>Node4&#45;&gt;Node24</title>
<path fill="none" stroke="#9a32cd" stroke-dasharray="5,2" d="M111.733,-362.625C149.448,-354.303 204.962,-343.048 254,-337 387.347,-320.554 546.198,-315.865 623.339,-314.53"/>
<polygon fill="#9a32cd" stroke="#9a32cd" points="110.585,-359.295 101.587,-364.888 112.109,-366.127 110.585,-359.295"/>
<text text-anchor="middle" x="341" y="-340" font-family="Helvetica,sans-Serif" font-size="10.00"> m_currentWorldObject</text>
</g>
<!-- Node29 -->
<g id="node29" class="node"><title>Node29</title>
<polygon fill="white" stroke="#bfbfbf" points="467,-685 467,-715 565,-715 565,-685 467,-685"/>
<text text-anchor="start" x="475" y="-703" font-family="Helvetica,sans-Serif" font-size="10.00">std::unordered_set</text>
<text text-anchor="middle" x="516" y="-692" font-family="Helvetica,sans-Serif" font-size="10.00">&lt; WorldObject * &gt;</text>
</g>
<!-- Node4&#45;&gt;Node29 -->
<g id="edge36" class="edge"><title>Node4&#45;&gt;Node29</title>
<path fill="none" stroke="#9a32cd" stroke-dasharray="5,2" d="M71.8835,-392.487C87.2769,-449.323 140.633,-615.221 254,-684 319.206,-723.56 411.232,-718.088 466.796,-709.652"/>
<polygon fill="#9a32cd" stroke="#9a32cd" points="75.2229,-391.423 69.3045,-382.635 68.4511,-393.195 75.2229,-391.423"/>
<text text-anchor="middle" x="193" y="-671" font-family="Helvetica,sans-Serif" font-size="10.00"> keys</text>
</g>
<!-- Node5 -->
<g id="node5" class="node"><title>Node5</title>
<g id="a_node5"><a xlink:href="class_voxel_hangman.html" target="_top" xlink:title="VoxelHangman">
<polygon fill="white" stroke="black" points="629.5,-548.5 629.5,-567.5 712.5,-567.5 712.5,-548.5 629.5,-548.5"/>
<text text-anchor="middle" x="671" y="-555.5" font-family="Helvetica,sans-Serif" font-size="10.00">VoxelHangman</text>
</a>
</g>
</g>
<!-- Node5&#45;&gt;Node1 -->
<g id="edge4" class="edge"><title>Node5&#45;&gt;Node1</title>
<path fill="none" stroke="#9a32cd" stroke-dasharray="5,2" d="M722.603,-565.194C769.583,-569.032 839.135,-567.142 886,-532 925.034,-502.731 936.18,-439.54 939.072,-415.525"/>
<polygon fill="#9a32cd" stroke="#9a32cd" points="722.925,-561.709 712.644,-564.267 722.277,-568.678 722.925,-561.709"/>
<text text-anchor="middle" x="821" y="-569" font-family="Helvetica,sans-Serif" font-size="10.00"> m_voxelHangman</text>
</g>
<!-- Node6&#45;&gt;Node1 -->
<g id="edge5" class="edge"><title>Node6&#45;&gt;Node1</title>
<path fill="none" stroke="#9a32cd" stroke-dasharray="5,2" d="M704.934,-519.625C757.338,-518.462 856.775,-513.768 886,-495 915.654,-475.956 931.464,-434.285 937.314,-415.508"/>
<polygon fill="#9a32cd" stroke="#9a32cd" points="704.742,-516.128 694.811,-519.819 704.876,-523.127 704.742,-516.128"/>
<text text-anchor="middle" x="821" y="-520" font-family="Helvetica,sans-Serif" font-size="10.00"> m_splitter</text>
</g>
<!-- Node7 -->
<g id="node7" class="node"><title>Node7</title>
<g id="a_node7"><a xlink:href="class_split_detector.html" target="_top" xlink:title="SplitDetector">
<polygon fill="white" stroke="black" points="634.5,-598.5 634.5,-617.5 707.5,-617.5 707.5,-598.5 634.5,-598.5"/>
<text text-anchor="middle" x="671" y="-605.5" font-family="Helvetica,sans-Serif" font-size="10.00">SplitDetector</text>
</a>
</g>
</g>
<!-- Node7&#45;&gt;Node1 -->
<g id="edge7" class="edge"><title>Node7&#45;&gt;Node1</title>
<path fill="none" stroke="#9a32cd" stroke-dasharray="5,2" d="M717.703,-614.648C765.31,-618.885 839.334,-617.541 886,-578 936.623,-535.106 940.434,-445.299 940.249,-415.695"/>
<polygon fill="#9a32cd" stroke="#9a32cd" points="717.971,-611.157 707.671,-613.637 717.27,-618.122 717.971,-611.157"/>
<text text-anchor="middle" x="821" y="-619" font-family="Helvetica,sans-Serif" font-size="10.00"> m_splitDetector</text>
</g>
<!-- Node8 -->
<g id="node8" class="node"><title>Node8</title>
<polygon fill="white" stroke="#bfbfbf" points="281.5,-606 281.5,-636 400.5,-636 400.5,-606 281.5,-606"/>
<text text-anchor="start" x="289.5" y="-624" font-family="Helvetica,sans-Serif" font-size="10.00">std::vector&lt; std::shared</text>
<text text-anchor="middle" x="341" y="-613" font-family="Helvetica,sans-Serif" font-size="10.00">_ptr&lt; SplitData &gt; &gt;</text>
</g>
<!-- Node8&#45;&gt;Node7 -->
<g id="edge8" class="edge"><title>Node8&#45;&gt;Node7</title>
<path fill="none" stroke="#9a32cd" stroke-dasharray="5,2" d="M410.86,-618.271C479.015,-615.57 580.68,-611.54 634.156,-609.421"/>
<polygon fill="#9a32cd" stroke="#9a32cd" points="410.493,-614.782 400.64,-618.676 410.771,-621.777 410.493,-614.782"/>
<text text-anchor="middle" x="516" y="-619" font-family="Helvetica,sans-Serif" font-size="10.00"> m_splitDataList</text>
</g>
<!-- Node9 -->
<g id="node9" class="node"><title>Node9</title>
<polygon fill="white" stroke="#bfbfbf" points="277.5,-557 277.5,-587 404.5,-587 404.5,-557 277.5,-557"/>
<text text-anchor="start" x="285.5" y="-575" font-family="Helvetica,sans-Serif" font-size="10.00">std::vector&lt; SplitDetector</text>
<text text-anchor="middle" x="341" y="-564" font-family="Helvetica,sans-Serif" font-size="10.00">::VoxelGroup &gt;</text>
</g>
<!-- Node9&#45;&gt;Node7 -->
<g id="edge9" class="edge"><title>Node9&#45;&gt;Node7</title>
<path fill="none" stroke="#9a32cd" stroke-dasharray="5,2" d="M414.616,-578.302C463.187,-582.725 528.497,-589.068 586,-596 601.942,-597.922 619.536,-600.383 634.486,-602.575"/>
<polygon fill="#9a32cd" stroke="#9a32cd" points="414.789,-574.804 404.514,-577.388 414.158,-581.775 414.789,-574.804"/>
<text text-anchor="middle" x="516" y="-599" font-family="Helvetica,sans-Serif" font-size="10.00"> m_voxelArray</text>
</g>
<!-- Node10 -->
<g id="node10" class="node"><title>Node10</title>
<polygon fill="white" stroke="#bfbfbf" points="280,-655.5 280,-674.5 402,-674.5 402,-655.5 280,-655.5"/>
<text text-anchor="middle" x="341" y="-662.5" font-family="Helvetica,sans-Serif" font-size="10.00">std::stack&lt; glm::ivec3 &gt;</text>
</g>
<!-- Node10&#45;&gt;Node7 -->
<g id="edge10" class="edge"><title>Node10&#45;&gt;Node7</title>
<path fill="none" stroke="#9a32cd" stroke-dasharray="5,2" d="M412.205,-657.647C461.186,-651.925 527.92,-642.946 586,-631 603.624,-627.375 623.014,-622.15 638.72,-617.596"/>
<polygon fill="#9a32cd" stroke="#9a32cd" points="411.566,-654.197 402.032,-658.818 412.367,-661.151 411.566,-654.197"/>
<text text-anchor="middle" x="516" y="-656" font-family="Helvetica,sans-Serif" font-size="10.00"> m_stack</text>
</g>
<!-- Node11 -->
<g id="node11" class="node"><title>Node11</title>
<g id="a_node11"><a xlink:href="class_damager.html" target="_top" xlink:title="Damager">
<polygon fill="white" stroke="black" points="643,-190.5 643,-209.5 699,-209.5 699,-190.5 643,-190.5"/>
<text text-anchor="middle" x="671" y="-197.5" font-family="Helvetica,sans-Serif" font-size="10.00">Damager</text>
</a>
</g>
</g>
<!-- Node11&#45;&gt;Node1 -->
<g id="edge11" class="edge"><title>Node11&#45;&gt;Node1</title>
<path fill="none" stroke="#9a32cd" stroke-dasharray="5,2" d="M697.563,-214.649C714.073,-223.947 736.108,-236.057 756,-246 812.755,-274.369 839.701,-261.614 886,-305 914.437,-331.648 930.984,-376.696 937.178,-396.348"/>
<polygon fill="#9a32cd" stroke="#9a32cd" points="698.965,-211.421 688.539,-209.537 695.515,-217.511 698.965,-211.421"/>
<text text-anchor="middle" x="821" y="-308" font-family="Helvetica,sans-Serif" font-size="10.00"> m_damager</text>
</g>
<!-- Node12 -->
<g id="node12" class="node"><title>Node12</title>
<polygon fill="white" stroke="#bfbfbf" points="0,-106.5 0,-125.5 132,-125.5 132,-106.5 0,-106.5"/>
<text text-anchor="middle" x="66" y="-113.5" font-family="Helvetica,sans-Serif" font-size="10.00">std::list&lt; DamageImpact &gt;</text>
</g>
<!-- Node12&#45;&gt;Node11 -->
<g id="edge12" class="edge"><title>Node12&#45;&gt;Node11</title>
<path fill="none" stroke="#9a32cd" stroke-dasharray="5,2" d="M142.265,-106.88C269.077,-93.1852 518.145,-73.9899 586,-125 601.907,-136.958 590.371,-151.498 604,-166 614.593,-177.271 629.757,-185.446 642.879,-190.951"/>
<polygon fill="#9a32cd" stroke="#9a32cd" points="141.797,-103.41 132.238,-107.979 142.559,-110.369 141.797,-103.41"/>
<text text-anchor="middle" x="341" y="-110" font-family="Helvetica,sans-Serif" font-size="10.00"> m_dampedDeadlyDamageImpacts</text>
<text text-anchor="middle" x="341" y="-99" font-family="Helvetica,sans-Serif" font-size="10.00">m_deadlyDamageImpacts</text>
</g>
<!-- Node25 -->
<g id="node25" class="node"><title>Node25</title>
<g id="a_node25"><a xlink:href="class_voxel_accumulator.html" target="_top" xlink:title="VoxelAccumulator\&lt; Damage\lImpact \&gt;">
<polygon fill="white" stroke="red" points="270.5,-135 270.5,-165 411.5,-165 411.5,-135 270.5,-135"/>
<text text-anchor="start" x="278.5" y="-153" font-family="Helvetica,sans-Serif" font-size="10.00">VoxelAccumulator&lt; Damage</text>
<text text-anchor="middle" x="341" y="-142" font-family="Helvetica,sans-Serif" font-size="10.00">Impact &gt;</text>
</a>
</g>
</g>
<!-- Node12&#45;&gt;Node25 -->
<g id="edge28" class="edge"><title>Node12&#45;&gt;Node25</title>
<path fill="none" stroke="#9a32cd" stroke-dasharray="5,2" d="M142.017,-125.343C182.045,-130.328 230.99,-136.424 270.2,-141.307"/>
<polygon fill="#9a32cd" stroke="#9a32cd" points="142.399,-121.863 132.043,-124.101 141.534,-128.81 142.399,-121.863"/>
<text text-anchor="middle" x="193" y="-140" font-family="Helvetica,sans-Serif" font-size="10.00"> m_accumulatables</text>
</g>
<!-- Node13&#45;&gt;Node11 -->
<g id="edge13" class="edge"><title>Node13&#45;&gt;Node11</title>
<path fill="none" stroke="#9a32cd" stroke-dasharray="5,2" d="M412.302,-219.512C417.688,-217.507 422.978,-215.337 428,-213 436.718,-208.944 436.804,-203.807 446,-201 514.254,-180.168 599.75,-188.687 642.701,-195.183"/>
<polygon fill="#9a32cd" stroke="#9a32cd" points="410.814,-216.325 402.541,-222.943 413.136,-222.929 410.814,-216.325"/>
<text text-anchor="middle" x="516" y="-204" font-family="Helvetica,sans-Serif" font-size="10.00"> m_worldObjectModificationMap</text>
</g>
<!-- Node14 -->
<g id="node14" class="node"><title>Node14</title>
<polygon fill="white" stroke="#bfbfbf" points="292,-272.5 292,-291.5 390,-291.5 390,-272.5 292,-272.5"/>
<text text-anchor="middle" x="341" y="-279.5" font-family="Helvetica,sans-Serif" font-size="10.00">std::list&lt; Voxel * &gt;</text>
</g>
<!-- Node14&#45;&gt;Node11 -->
<g id="edge15" class="edge"><title>Node14&#45;&gt;Node11</title>
<path fill="none" stroke="#9a32cd" stroke-dasharray="5,2" d="M400.444,-279.187C450.736,-275.409 524.664,-266.581 586,-246 612.324,-237.167 640.05,-220.283 656.146,-209.611"/>
<polygon fill="#9a32cd" stroke="#9a32cd" points="400.126,-275.701 390.398,-279.898 400.62,-282.683 400.126,-275.701"/>
<text text-anchor="middle" x="516" y="-277" font-family="Helvetica,sans-Serif" font-size="10.00"> m_deadVoxels</text>
</g>
<!-- Node14&#45;&gt;Node24 -->
<g id="edge30" class="edge"><title>Node14&#45;&gt;Node24</title>
<path fill="none" stroke="#9a32cd" stroke-dasharray="5,2" d="M400.401,-286.295C449.876,-290.108 522.662,-296.131 586,-303 598.136,-304.316 611.233,-305.935 623.391,-307.522"/>
<polygon fill="#9a32cd" stroke="#9a32cd" points="400.448,-282.788 390.21,-285.515 399.914,-289.768 400.448,-282.788"/>
<text text-anchor="middle" x="516" y="-306" font-family="Helvetica,sans-Serif" font-size="10.00"> m_currentNeighbours</text>
</g>
<!-- Node15 -->
<g id="node15" class="node"><title>Node15</title>
<polygon fill="white" stroke="#bfbfbf" points="254.5,-184.5 254.5,-203.5 427.5,-203.5 427.5,-184.5 254.5,-184.5"/>
<text text-anchor="middle" x="341" y="-191.5" font-family="Helvetica,sans-Serif" font-size="10.00">std::list&lt; WorldObjectModification &gt;</text>
</g>
<!-- Node15&#45;&gt;Node11 -->
<g id="edge16" class="edge"><title>Node15&#45;&gt;Node11</title>
<path fill="none" stroke="#9a32cd" stroke-dasharray="5,2" d="M398.515,-182.069C408.408,-179.637 418.554,-176.919 428,-174 436.201,-171.466 437.564,-168.583 446,-167 507.155,-155.527 524.864,-155.422 586,-167 609.554,-171.461 634.958,-182.377 651.587,-190.439"/>
<polygon fill="#9a32cd" stroke="#9a32cd" points="397.655,-178.676 388.742,-184.404 399.281,-185.485 397.655,-178.676"/>
<text text-anchor="middle" x="516" y="-170" font-family="Helvetica,sans-Serif" font-size="10.00"> m_worldObjectModifications</text>
</g>
<!-- Node16&#45;&gt;Node1 -->
<g id="edge17" class="edge"><title>Node16&#45;&gt;Node1</title>
<path fill="none" stroke="#9a32cd" stroke-dasharray="5,2" d="M747.625,-406C800.721,-406 869.015,-406 908.314,-406"/>
<polygon fill="#9a32cd" stroke="#9a32cd" points="747.56,-402.5 737.56,-406 747.56,-409.5 747.56,-402.5"/>
<text text-anchor="middle" x="821" y="-409" font-family="Helvetica,sans-Serif" font-size="10.00"> m_voxelCollisionAccumulator</text>
</g>
<!-- Node17 -->
<g id="node17" class="node"><title>Node17</title>
<polygon fill="white" stroke="#bfbfbf" points="262,-396.5 262,-415.5 420,-415.5 420,-396.5 262,-396.5"/>
<text text-anchor="middle" x="341" y="-403.5" font-family="Helvetica,sans-Serif" font-size="10.00">std::list&lt; WorldObjectCollision &gt;</text>
</g>
<!-- Node17&#45;&gt;Node16 -->
<g id="edge19" class="edge"><title>Node17&#45;&gt;Node16</title>
<path fill="none" stroke="#9a32cd" stroke-dasharray="5,2" d="M430.208,-406C485.032,-406 554.343,-406 604.331,-406"/>
<polygon fill="#9a32cd" stroke="#9a32cd" points="430.147,-402.5 420.147,-406 430.147,-409.5 430.147,-402.5"/>
<text text-anchor="middle" x="516" y="-409" font-family="Helvetica,sans-Serif" font-size="10.00"> m_worldObjectCollisions</text>
</g>
<!-- Node18 -->
<g id="node18" class="node"><title>Node18</title>
<g id="a_node18"><a xlink:href="class_elastic_impulsor.html" target="_top" xlink:title="ElasticImpulsor">
<polygon fill="white" stroke="black" points="629.5,-354.5 629.5,-373.5 712.5,-373.5 712.5,-354.5 629.5,-354.5"/>
<text text-anchor="middle" x="671" y="-361.5" font-family="Helvetica,sans-Serif" font-size="10.00">ElasticImpulsor</text>
</a>
</g>
</g>
<!-- Node18&#45;&gt;Node1 -->
<g id="edge20" class="edge"><title>Node18&#45;&gt;Node1</title>
<path fill="none" stroke="#9a32cd" stroke-dasharray="5,2" d="M722.576,-368.289C766.153,-372.481 830.598,-379.872 886,-391 893.441,-392.495 901.36,-394.471 908.776,-396.497"/>
<polygon fill="#9a32cd" stroke="#9a32cd" points="722.798,-364.794 712.514,-367.342 722.142,-371.763 722.798,-364.794"/>
<text text-anchor="middle" x="821" y="-394" font-family="Helvetica,sans-Serif" font-size="10.00"> m_elasticImpulsor</text>
</g>
<!-- Node19 -->
<g id="node19" class="node"><title>Node19</title>
<g id="a_node19"><a xlink:href="class_property.html" target="_top" xlink:title="Property\&lt; float \&gt;">
<polygon fill="white" stroke="red" points="296.5,-357.5 296.5,-376.5 385.5,-376.5 385.5,-357.5 296.5,-357.5"/>
<text text-anchor="middle" x="341" y="-364.5" font-family="Helvetica,sans-Serif" font-size="10.00">Property&lt; float &gt;</text>
</a>
</g>
</g>
<!-- Node19&#45;&gt;Node18 -->
<g id="edge21" class="edge"><title>Node19&#45;&gt;Node18</title>
<path fill="none" stroke="#9a32cd" stroke-dasharray="5,2" d="M395.677,-366.509C461.171,-365.91 570.434,-364.911 629.362,-364.372"/>
<polygon fill="#9a32cd" stroke="#9a32cd" points="395.523,-363.01 385.556,-366.602 395.587,-370.01 395.523,-363.01"/>
<text text-anchor="middle" x="516" y="-380" font-family="Helvetica,sans-Serif" font-size="10.00"> m_rotationFactor</text>
<text text-anchor="middle" x="516" y="-369" font-family="Helvetica,sans-Serif" font-size="10.00">m_elasticity</text>
</g>
<!-- Node20 -->
<g id="node20" class="node"><title>Node20</title>
<g id="a_node20"><a xlink:href="class_elastic_impulse_generator.html" target="_top" xlink:title="ElasticImpulseGenerator">
<polygon fill="white" stroke="black" points="609.5,-88.5 609.5,-107.5 732.5,-107.5 732.5,-88.5 609.5,-88.5"/>
<text text-anchor="middle" x="671" y="-95.5" font-family="Helvetica,sans-Serif" font-size="10.00">ElasticImpulseGenerator</text>
</a>
</g>
</g>
<!-- Node20&#45;&gt;Node1 -->
<g id="edge22" class="edge"><title>Node20&#45;&gt;Node1</title>
<path fill="none" stroke="#9a32cd" stroke-dasharray="5,2" d="M742.85,-99.7575C789.842,-104.774 849.382,-119.157 886,-158 919.702,-193.75 935.664,-355.4 939.219,-396.482"/>
<polygon fill="#9a32cd" stroke="#9a32cd" points="743.008,-96.2569 732.722,-98.7986 742.348,-103.226 743.008,-96.2569"/>
<text text-anchor="middle" x="821" y="-161" font-family="Helvetica,sans-Serif" font-size="10.00"> m_elasticImpulseGenerator</text>
</g>
<!-- Node21 -->
<g id="node21" class="node"><title>Node21</title>
<polygon fill="white" stroke="#bfbfbf" points="290.5,-38.5 290.5,-57.5 391.5,-57.5 391.5,-38.5 290.5,-38.5"/>
<text text-anchor="middle" x="341" y="-45.5" font-family="Helvetica,sans-Serif" font-size="10.00">std::list&lt; Impulse &gt;</text>
</g>
<!-- Node21&#45;&gt;Node20 -->
<g id="edge23" class="edge"><title>Node21&#45;&gt;Node20</title>
<path fill="none" stroke="#9a32cd" stroke-dasharray="5,2" d="M401.859,-49.0492C451.628,-50.8971 524.067,-55.8552 586,-69 607.279,-73.5164 630.6,-81.8552 647.259,-88.4356"/>
<polygon fill="#9a32cd" stroke="#9a32cd" points="401.709,-45.5422 391.595,-48.7003 401.471,-52.5381 401.709,-45.5422"/>
<text text-anchor="middle" x="516" y="-72" font-family="Helvetica,sans-Serif" font-size="10.00"> m_worldObjectImpulses</text>
</g>
<!-- Node22 -->
<g id="node22" class="node"><title>Node22</title>
<g id="a_node22"><a xlink:href="class_mover.html" target="_top" xlink:title="Mover">
<polygon fill="white" stroke="black" points="650,-27.5 650,-46.5 692,-46.5 692,-27.5 650,-27.5"/>
<text text-anchor="middle" x="671" y="-34.5" font-family="Helvetica,sans-Serif" font-size="10.00">Mover</text>
</a>
</g>
</g>
<!-- Node22&#45;&gt;Node1 -->
<g id="edge24" class="edge"><title>Node22&#45;&gt;Node1</title>
<path fill="none" stroke="#9a32cd" stroke-dasharray="5,2" d="M702.074,-34.3323C748.673,-32.0066 837.948,-35.0809 886,-86 929.889,-132.508 938.402,-348.143 939.768,-396.401"/>
<polygon fill="#9a32cd" stroke="#9a32cd" points="701.766,-30.8445 692.001,-34.954 702.197,-37.8312 701.766,-30.8445"/>
<text text-anchor="middle" x="821" y="-89" font-family="Helvetica,sans-Serif" font-size="10.00"> m_mover</text>
</g>
<!-- Node23 -->
<g id="node23" class="node"><title>Node23</title>
<polygon fill="white" stroke="#bfbfbf" points="277,-0.5 277,-19.5 405,-19.5 405,-0.5 277,-0.5"/>
<text text-anchor="middle" x="341" y="-7.5" font-family="Helvetica,sans-Serif" font-size="10.00">std::list&lt; VoxelCollision &gt;</text>
</g>
<!-- Node23&#45;&gt;Node22 -->
<g id="edge25" class="edge"><title>Node23&#45;&gt;Node22</title>
<path fill="none" stroke="#9a32cd" stroke-dasharray="5,2" d="M415.13,-7.02554C463.787,-6.14256 528.995,-7.06441 586,-15 608.248,-18.0971 633.053,-25.0417 649.903,-30.3059"/>
<polygon fill="#9a32cd" stroke="#9a32cd" points="414.931,-3.52886 405.008,-7.23948 415.079,-10.5273 414.931,-3.52886"/>
<text text-anchor="middle" x="516" y="-18" font-family="Helvetica,sans-Serif" font-size="10.00"> m_voxelCollisions</text>
</g>
<!-- Node24&#45;&gt;Node1 -->
<g id="edge26" class="edge"><title>Node24&#45;&gt;Node1</title>
<path fill="none" stroke="#9a32cd" stroke-dasharray="5,2" d="M728.689,-317.129C773.452,-321.499 836.415,-331.962 886,-357 905.211,-366.7 922.72,-385.125 932.316,-396.41"/>
<polygon fill="#9a32cd" stroke="#9a32cd" points="728.849,-313.63 718.574,-316.215 728.218,-320.601 728.849,-313.63"/>
<text text-anchor="middle" x="821" y="-360" font-family="Helvetica,sans-Serif" font-size="10.00"> m_damageForwarder</text>
</g>
<!-- Node25&#45;&gt;Node24 -->
<g id="edge27" class="edge"><title>Node25&#45;&gt;Node24</title>
<path fill="none" stroke="#9a32cd" stroke-dasharray="5,2" d="M420.501,-169.491C423.127,-171.178 425.639,-173.01 428,-175 441.981,-186.787 431.261,-201.175 446,-212 496.711,-249.243 529.568,-205.177 586,-233 620.706,-250.111 650.383,-286.778 663.216,-304.295"/>
<polygon fill="#9a32cd" stroke="#9a32cd" points="422.208,-166.436 411.776,-164.587 418.778,-172.538 422.208,-166.436"/>
<text text-anchor="middle" x="516" y="-236" font-family="Helvetica,sans-Serif" font-size="10.00"> m_damageImpactAccumulator</text>
</g>
<!-- Node40 -->
<g id="node40" class="node"><title>Node40</title>
<g id="a_node40"><a xlink:href="class_damage_impact_generator.html" target="_top" xlink:title="DamageImpactGenerator">
<polygon fill="white" stroke="black" points="608.5,-137.5 608.5,-156.5 733.5,-156.5 733.5,-137.5 608.5,-137.5"/>
<text text-anchor="middle" x="671" y="-144.5" font-family="Helvetica,sans-Serif" font-size="10.00">DamageImpactGenerator</text>
</a>
</g>
</g>
<!-- Node25&#45;&gt;Node40 -->
<g id="edge50" class="edge"><title>Node25&#45;&gt;Node40</title>
<path fill="none" stroke="#9a32cd" stroke-dasharray="5,2" d="M421.69,-135.627C429.879,-134.554 438.092,-133.642 446,-133 508.018,-127.965 523.99,-127.868 586,-133 597.493,-133.951 609.78,-135.622 621.311,-137.487"/>
<polygon fill="#9a32cd" stroke="#9a32cd" points="421.162,-132.167 411.737,-137.008 422.123,-139.101 421.162,-132.167"/>
<text text-anchor="middle" x="516" y="-136" font-family="Helvetica,sans-Serif" font-size="10.00"> m_damageImpactAccumulator</text>
</g>
<!-- Node26&#45;&gt;Node1 -->
<g id="edge31" class="edge"><title>Node26&#45;&gt;Node1</title>
<path fill="none" stroke="#9a32cd" stroke-dasharray="5,2" d="M727.11,-482.64C771.768,-481.231 835.366,-474.759 886,-452 904.871,-443.518 922.23,-426.358 931.934,-415.563"/>
<polygon fill="#9a32cd" stroke="#9a32cd" points="726.947,-479.143 717.034,-482.883 727.115,-486.141 726.947,-479.143"/>
<text text-anchor="middle" x="821" y="-484" font-family="Helvetica,sans-Serif" font-size="10.00"> m_garbageCollector</text>
</g>
<!-- Node27 -->
<g id="node27" class="node"><title>Node27</title>
<g id="a_node27"><a xlink:href="class_world.html" target="_top" xlink:title="World">
<polygon fill="white" stroke="black" points="1308,-308.5 1308,-327.5 1350,-327.5 1350,-308.5 1308,-308.5"/>
<text text-anchor="middle" x="1329" y="-315.5" font-family="Helvetica,sans-Serif" font-size="10.00">World</text>
</a>
</g>
</g>
<!-- Node27&#45;&gt;Node1 -->
<g id="edge33" class="edge"><title>Node27&#45;&gt;Node1</title>
<path fill="none" stroke="#9a32cd" stroke-dasharray="5,2" d="M1325.54,-337.418C1320.71,-372.198 1308.78,-442.911 1290,-458 1244.95,-494.197 1085.42,-479.38 1030,-463 998.579,-453.713 967.838,-429.306 952.355,-415.633"/>
<polygon fill="#9a32cd" stroke="#9a32cd" points="1329.01,-337.878 1326.86,-327.504 1322.07,-336.955 1329.01,-337.878"/>
<text text-anchor="middle" x="1108" y="-483" font-family="Helvetica,sans-Serif" font-size="10.00"> m_world</text>
</g>
<!-- Node27&#45;&gt;Node27 -->
<g id="edge47" class="edge"><title>Node27&#45;&gt;Node27</title>
<path fill="none" stroke="#9a32cd" stroke-dasharray="5,2" d="M1313.9,-337.766C1315.09,-342.497 1320.12,-346 1329,-346 1343.57,-346 1347.79,-336.565 1341.64,-327.757"/>
<polygon fill="#9a32cd" stroke="#9a32cd" points="1317.37,-338.304 1316.36,-327.757 1310.57,-336.631 1317.37,-338.304"/>
<text text-anchor="middle" x="1329" y="-349" font-family="Helvetica,sans-Serif" font-size="10.00"> s_instance</text>
</g>
<!-- Node28 -->
<g id="node28" class="node"><title>Node28</title>
<polygon fill="white" stroke="#bfbfbf" points="1036.5,-519.5 1036.5,-538.5 1179.5,-538.5 1179.5,-519.5 1036.5,-519.5"/>
<text text-anchor="middle" x="1108" y="-526.5" font-family="Helvetica,sans-Serif" font-size="10.00">std::unique_ptr&lt; WorldTree &gt;</text>
</g>
<!-- Node28&#45;&gt;Node27 -->
<g id="edge34" class="edge"><title>Node28&#45;&gt;Node27</title>
<path fill="none" stroke="#9a32cd" stroke-dasharray="5,2" d="M1189.73,-537.295C1224.69,-536.429 1263.57,-528.785 1290,-504 1316.09,-479.539 1325.25,-362.902 1327.44,-327.932"/>
<polygon fill="#9a32cd" stroke="#9a32cd" points="1189.49,-533.796 1179.51,-537.363 1189.53,-540.796 1189.49,-533.796"/>
<text text-anchor="middle" x="1247" y="-539" font-family="Helvetica,sans-Serif" font-size="10.00"> m_worldTree</text>
</g>
<!-- Node29&#45;&gt;Node27 -->
<g id="edge35" class="edge"><title>Node29&#45;&gt;Node27</title>
<path fill="none" stroke="#9a32cd" stroke-dasharray="5,2" d="M575.347,-691.701C636.261,-683.765 734.629,-673 820,-673 820,-673 820,-673 1109,-673 1206.01,-673 1237.67,-632.691 1290,-551 1314.43,-512.863 1325,-366.928 1327.43,-327.736"/>
<polygon fill="#9a32cd" stroke="#9a32cd" points="574.617,-688.267 565.162,-693.047 575.534,-695.206 574.617,-688.267"/>
<text text-anchor="middle" x="941" y="-676" font-family="Helvetica,sans-Serif" font-size="10.00"> m_worldObjects</text>
</g>
<!-- Node30 -->
<g id="node30" class="node"><title>Node30</title>
<polygon fill="white" stroke="#bfbfbf" points="1044.5,-434.5 1044.5,-453.5 1171.5,-453.5 1171.5,-434.5 1044.5,-434.5"/>
<text text-anchor="middle" x="1108" y="-441.5" font-family="Helvetica,sans-Serif" font-size="10.00">std::unique_ptr&lt; Player &gt;</text>
</g>
<!-- Node30&#45;&gt;Node27 -->
<g id="edge37" class="edge"><title>Node30&#45;&gt;Node27</title>
<path fill="none" stroke="#9a32cd" stroke-dasharray="5,2" d="M1181.78,-446.47C1217.83,-444.071 1259.96,-435.374 1290,-411 1316.41,-389.571 1324.63,-346.828 1327.05,-327.675"/>
<polygon fill="#9a32cd" stroke="#9a32cd" points="1181.59,-442.975 1171.78,-446.987 1181.95,-449.966 1181.59,-442.975"/>
<text text-anchor="middle" x="1247" y="-446" font-family="Helvetica,sans-Serif" font-size="10.00"> m_player</text>
</g>
<!-- Node31&#45;&gt;Node27 -->
<g id="edge38" class="edge"><title>Node31&#45;&gt;Node27</title>
<path fill="none" stroke="#9a32cd" stroke-dasharray="5,2" d="M1192.3,-398.935C1224.66,-393.274 1260.87,-383.132 1290,-365 1304.97,-355.684 1316.65,-338.354 1322.92,-327.54"/>
<polygon fill="#9a32cd" stroke="#9a32cd" points="1191.7,-395.487 1182.39,-400.552 1192.82,-402.395 1191.7,-395.487"/>
<text text-anchor="middle" x="1247" y="-399" font-family="Helvetica,sans-Serif" font-size="10.00"> m_worldLogic</text>
</g>
<!-- Node32 -->
<g id="node32" class="node"><title>Node32</title>
<polygon fill="white" stroke="#bfbfbf" points="1059,-347 1059,-377 1157,-377 1157,-347 1059,-347"/>
<text text-anchor="start" x="1067" y="-365" font-family="Helvetica,sans-Serif" font-size="10.00">std::unordered_set</text>
<text text-anchor="middle" x="1108" y="-354" font-family="Helvetica,sans-Serif" font-size="10.00">&lt; Ship * &gt;</text>
</g>
<!-- Node32&#45;&gt;Node27 -->
<g id="edge40" class="edge"><title>Node32&#45;&gt;Node27</title>
<path fill="none" stroke="#9a32cd" stroke-dasharray="5,2" d="M1167.51,-355.896C1203.29,-351.359 1249.77,-344.021 1290,-333 1295.88,-331.388 1302.1,-329.167 1307.77,-326.927"/>
<polygon fill="#9a32cd" stroke="#9a32cd" points="1166.74,-352.464 1157.24,-357.158 1167.59,-359.411 1166.74,-352.464"/>
<text text-anchor="middle" x="1247" y="-353" font-family="Helvetica,sans-Serif" font-size="10.00"> m_ships</text>
</g>
<!-- Node33 -->
<g id="node33" class="node"><title>Node33</title>
<polygon fill="white" stroke="#bfbfbf" points="1042,-308.5 1042,-327.5 1174,-327.5 1174,-308.5 1042,-308.5"/>
<text text-anchor="middle" x="1108" y="-315.5" font-family="Helvetica,sans-Serif" font-size="10.00">std::unique_ptr&lt; Skybox &gt;</text>
</g>
<!-- Node33&#45;&gt;Node27 -->
<g id="edge41" class="edge"><title>Node33&#45;&gt;Node27</title>
<path fill="none" stroke="#9a32cd" stroke-dasharray="5,2" d="M1184.19,-318C1228,-318 1279.96,-318 1307.87,-318"/>
<polygon fill="#9a32cd" stroke="#9a32cd" points="1184.11,-314.5 1174.11,-318 1184.11,-321.5 1184.11,-314.5"/>
<text text-anchor="middle" x="1247" y="-321" font-family="Helvetica,sans-Serif" font-size="10.00"> m_skybox</text>
</g>
<!-- Node34 -->
<g id="node34" class="node"><title>Node34</title>
<polygon fill="white" stroke="#bfbfbf" points="1034,-259 1034,-289 1182,-289 1182,-259 1034,-259"/>
<text text-anchor="start" x="1042" y="-277" font-family="Helvetica,sans-Serif" font-size="10.00">std::unique_ptr&lt; VoxelParticle</text>
<text text-anchor="middle" x="1108" y="-266" font-family="Helvetica,sans-Serif" font-size="10.00">Engine &gt;</text>
</g>
<!-- Node34&#45;&gt;Node27 -->
<g id="edge42" class="edge"><title>Node34&#45;&gt;Node27</title>
<path fill="none" stroke="#9a32cd" stroke-dasharray="5,2" d="M1192.73,-283.549C1223.62,-288.08 1258.7,-294.425 1290,-303 1295.88,-304.612 1302.1,-306.833 1307.77,-309.073"/>
<polygon fill="#9a32cd" stroke="#9a32cd" points="1192.82,-280.027 1182.43,-282.081 1191.84,-286.957 1192.82,-280.027"/>
<text text-anchor="middle" x="1247" y="-306" font-family="Helvetica,sans-Serif" font-size="10.00"> m_particleEngine</text>
</g>
<!-- Node35 -->
<g id="node35" class="node"><title>Node35</title>
<polygon fill="white" stroke="#bfbfbf" points="1030.5,-220.5 1030.5,-239.5 1185.5,-239.5 1185.5,-220.5 1030.5,-220.5"/>
<text text-anchor="middle" x="1108" y="-227.5" font-family="Helvetica,sans-Serif" font-size="10.00">std::unique_ptr&lt; ScriptEngine &gt;</text>
</g>
<!-- Node35&#45;&gt;Node27 -->
<g id="edge43" class="edge"><title>Node35&#45;&gt;Node27</title>
<path fill="none" stroke="#9a32cd" stroke-dasharray="5,2" d="M1195.69,-236.959C1227.21,-242.527 1261.94,-252.434 1290,-270 1305.14,-279.475 1316.77,-297.186 1322.98,-308.243"/>
<polygon fill="#9a32cd" stroke="#9a32cd" points="1196.02,-233.466 1185.59,-235.3 1194.89,-240.374 1196.02,-233.466"/>
<text text-anchor="middle" x="1247" y="-273" font-family="Helvetica,sans-Serif" font-size="10.00"> m_scriptEngine</text>
</g>
<!-- Node36 -->
<g id="node36" class="node"><title>Node36</title>
<polygon fill="white" stroke="#bfbfbf" points="1047,-171 1047,-201 1169,-201 1169,-171 1047,-171"/>
<text text-anchor="start" x="1055" y="-189" font-family="Helvetica,sans-Serif" font-size="10.00">std::unique_ptr&lt; Faction</text>
<text text-anchor="middle" x="1108" y="-178" font-family="Helvetica,sans-Serif" font-size="10.00">Matrix &gt;</text>
</g>
<!-- Node36&#45;&gt;Node27 -->
<g id="edge44" class="edge"><title>Node36&#45;&gt;Node27</title>
<path fill="none" stroke="#9a32cd" stroke-dasharray="5,2" d="M1179.52,-185.04C1216.16,-188.046 1259.51,-197.531 1290,-223 1316.72,-245.322 1324.8,-289.151 1327.12,-308.469"/>
<polygon fill="#9a32cd" stroke="#9a32cd" points="1179.6,-181.537 1169.39,-184.356 1179.13,-188.521 1179.6,-181.537"/>
<text text-anchor="middle" x="1247" y="-226" font-family="Helvetica,sans-Serif" font-size="10.00"> m_factionMatrix</text>
</g>
<!-- Node37 -->
<g id="node37" class="node"><title>Node37</title>
<polygon fill="white" stroke="#bfbfbf" points="1049.5,-132.5 1049.5,-151.5 1166.5,-151.5 1166.5,-132.5 1049.5,-132.5"/>
<text text-anchor="middle" x="1108" y="-139.5" font-family="Helvetica,sans-Serif" font-size="10.00">std::unique_ptr&lt; God &gt;</text>
</g>
<!-- Node37&#45;&gt;Node27 -->
<g id="edge45" class="edge"><title>Node37&#45;&gt;Node27</title>
<path fill="none" stroke="#9a32cd" stroke-dasharray="5,2" d="M1176.97,-136.817C1214.69,-137.676 1259.93,-145.429 1290,-173 1310.33,-191.642 1323.05,-278.848 1326.82,-308.274"/>
<polygon fill="#9a32cd" stroke="#9a32cd" points="1176.57,-133.314 1166.55,-136.747 1176.52,-140.314 1176.57,-133.314"/>
<text text-anchor="middle" x="1247" y="-176" font-family="Helvetica,sans-Serif" font-size="10.00"> m_god</text>
</g>
<!-- Node38 -->
<g id="node38" class="node"><title>Node38</title>
<polygon fill="white" stroke="#bfbfbf" points="1046,-83 1046,-113 1170,-113 1170,-83 1046,-83"/>
<text text-anchor="start" x="1054" y="-101" font-family="Helvetica,sans-Serif" font-size="10.00">std::unique_ptr&lt; Mission</text>
<text text-anchor="middle" x="1108" y="-90" font-family="Helvetica,sans-Serif" font-size="10.00">System &gt;</text>
</g>
<!-- Node38&#45;&gt;Node27 -->
<g id="edge46" class="edge"><title>Node38&#45;&gt;Node27</title>
<path fill="none" stroke="#9a32cd" stroke-dasharray="5,2" d="M1180.67,-89.5238C1217.85,-89.22 1261.36,-95.8959 1290,-123 1317.31,-148.84 1325.66,-272.077 1327.54,-308.094"/>
<polygon fill="#9a32cd" stroke="#9a32cd" points="1180.28,-86.0325 1170.37,-89.7835 1180.46,-93.0303 1180.28,-86.0325"/>
<text text-anchor="middle" x="1247" y="-126" font-family="Helvetica,sans-Serif" font-size="10.00"> m_missionSystem</text>
</g>
<!-- Node39 -->
<g id="node39" class="node"><title>Node39</title>
<polygon fill="white" stroke="#bfbfbf" points="1034,-44.5 1034,-63.5 1182,-63.5 1182,-44.5 1034,-44.5"/>
<text text-anchor="middle" x="1108" y="-51.5" font-family="Helvetica,sans-Serif" font-size="10.00">std::unique_ptr&lt; EventPoller &gt;</text>
</g>
<!-- Node39&#45;&gt;Node27 -->
<g id="edge48" class="edge"><title>Node39&#45;&gt;Node27</title>
<path fill="none" stroke="#9a32cd" stroke-dasharray="5,2" d="M1173.1,-43.6991C1211.92,-41.308 1259.64,-45.8213 1290,-75 1324.25,-107.918 1327.67,-267.179 1327.98,-308.297"/>
<polygon fill="#9a32cd" stroke="#9a32cd" points="1172.62,-40.2256 1162.92,-44.4928 1173.17,-47.2044 1172.62,-40.2256"/>
<text text-anchor="middle" x="1247" y="-78" font-family="Helvetica,sans-Serif" font-size="10.00"> m_eventPoller</text>
</g>
<!-- Node40&#45;&gt;Node1 -->
<g id="edge49" class="edge"><title>Node40&#45;&gt;Node1</title>
<path fill="none" stroke="#9a32cd" stroke-dasharray="5,2" d="M716.38,-159.454C771.84,-175.833 862.359,-205.523 886,-231 931.633,-280.178 938.727,-367.173 939.811,-396.238"/>
<polygon fill="#9a32cd" stroke="#9a32cd" points="717.037,-156 706.457,-156.555 715.074,-162.719 717.037,-156"/>
<text text-anchor="middle" x="821" y="-234" font-family="Helvetica,sans-Serif" font-size="10.00"> m_damageImpactGenerator</text>
</g>
</g>
</svg>
        <g id="navigator" transform="translate(0 0)" fill="#404254">
                <rect fill="#f2f5e9" fill-opacity="0.5" stroke="#606060" stroke-width=".5" x="0" y="0" width="60" height="60"/>
                <use id="zoomplus" xlink:href="#zoomPlus" x="17" y="9" onmousedown="handleZoom(evt,'in')"/>
                <use id="zoomminus" xlink:href="#zoomMin" x="42" y="9" onmousedown="handleZoom(evt,'out')"/>
                <use id="reset" xlink:href="#resetDef" x="30" y="36" onmousedown="handleReset()"/>
                <g id="arrowUp" xlink:href="#dirArrow" transform="translate(30 24)" onmousedown="handlePan(0,-1)">
                  <use xlink:href="#rim" fill="#404040">
                        <set attributeName="fill" to="#808080" begin="arrowUp.mouseover" end="arrowUp.mouseout"/>
                  </use>
                  <path fill="none" stroke="white" stroke-width="1.5" d="M0,-3.0v7 M-2.5,-0.5L0,-3.0L2.5,-0.5"/>
                </g>
                <g id="arrowRight" xlink:href="#dirArrow" transform="rotate(90) translate(36 -43)" onmousedown="handlePan(1,0)">
                  <use xlink:href="#rim" fill="#404040">
                        <set attributeName="fill" to="#808080" begin="arrowRight.mouseover" end="arrowRight.mouseout"/>
                  </use>
                  <path fill="none" stroke="white" stroke-width="1.5" d="M0,-3.0v7 M-2.5,-0.5L0,-3.0L2.5,-0.5"/>
                </g>
                <g id="arrowDown" xlink:href="#dirArrow" transform="rotate(180) translate(-30 -48)" onmousedown="handlePan(0,1)">
                  <use xlink:href="#rim" fill="#404040">
                        <set attributeName="fill" to="#808080" begin="arrowDown.mouseover" end="arrowDown.mouseout"/>
                  </use>
                  <path fill="none" stroke="white" stroke-width="1.5" d="M0,-3.0v7 M-2.5,-0.5L0,-3.0L2.5,-0.5"/>
                </g>
                <g id="arrowLeft" xlink:href="#dirArrow" transform="rotate(270) translate(-36 17)" onmousedown="handlePan(-1,0)">
                  <use xlink:href="#rim" fill="#404040">
                        <set attributeName="fill" to="#808080" begin="arrowLeft.mouseover" end="arrowLeft.mouseout"/>
                  </use>
                  <path fill="none" stroke="white" stroke-width="1.5" d="M0,-3.0v7 M-2.5,-0.5L0,-3.0L2.5,-0.5"/>
                </g>
        </g>
        <svg viewBox="0 0 15 15" width="100%" height="30px" preserveAspectRatio="xMaxYMin meet">
         <g id="arrow_out" transform="scale(0.3 0.3)">
          <a xlink:href="class_world_logic__coll__graph_org.svg" target="_base">
           <rect id="button" ry="5" rx="5" y="6" x="6" height="38" width="38"
                fill="#f2f5e9" fill-opacity="0.5" stroke="#606060" stroke-width="1.0"/>
           <path id="arrow"
             d="M 11.500037,31.436501 C 11.940474,20.09759 22.043105,11.32322 32.158766,21.979434 L 37.068811,17.246167 C 37.068811,17.246167 37.088388,32 37.088388,32 L 22.160133,31.978069 C 22.160133,31.978069 26.997745,27.140456 26.997745,27.140456 C 18.528582,18.264221 13.291696,25.230495 11.500037,31.436501 z"
             style="fill:#404040;"/>
          </a>
         </g>
        </svg>
</svg>
