<?xml version="1.0" encoding="UTF-8" standalone="no"?>
<!DOCTYPE svg PUBLIC "-//W3C//DTD SVG 1.1//EN"
 "http://www.w3.org/Graphics/SVG/1.1/DTD/svg11.dtd">
<!-- Generated by graphviz version 2.36.0 (20140111.2315)
 -->
<!-- Title: FactionMatrix Pages: 1 -->
<svg width="460pt" height="121pt"
 viewBox="0.00 0.00 460.00 121.00" xmlns="http://www.w3.org/2000/svg" xmlns:xlink="http://www.w3.org/1999/xlink">
<g id="graph0" class="graph" transform="scale(1 1) rotate(0) translate(4 117)">
<title>FactionMatrix</title>
<polygon fill="white" stroke="none" points="-4,4 -4,-117 456,-117 456,4 -4,4"/>
<!-- Node1 -->
<g id="node1" class="node"><title>Node1</title>
<polygon fill="#bfbfbf" stroke="black" points="376,-52.5 376,-71.5 452,-71.5 452,-52.5 376,-52.5"/>
<text text-anchor="middle" x="414" y="-59.5" font-family="Helvetica,sans-Serif" font-size="10.00">FactionMatrix</text>
</g>
<!-- Node2 -->
<g id="node2" class="node"><title>Node2</title>
<polygon fill="white" stroke="#bfbfbf" points="122.5,-61 122.5,-113 285.5,-113 285.5,-61 122.5,-61"/>
<text text-anchor="start" x="130.5" y="-101" font-family="Helvetica,sans-Serif" font-size="10.00">std::unordered_map</text>
<text text-anchor="start" x="130.5" y="-90" font-family="Helvetica,sans-Serif" font-size="10.00">&lt; std::pair&lt; Faction</text>
<text text-anchor="start" x="130.5" y="-79" font-family="Helvetica,sans-Serif" font-size="10.00"> *, Faction * &gt;, std</text>
<text text-anchor="middle" x="204" y="-68" font-family="Helvetica,sans-Serif" font-size="10.00">::shared_ptr&lt; FactionRelation &gt; &gt;</text>
</g>
<!-- Node2&#45;&gt;Node1 -->
<g id="edge1" class="edge"><title>Node2&#45;&gt;Node1</title>
<path fill="none" stroke="#9a32cd" stroke-dasharray="5,2" d="M295.997,-76.0629C324.103,-72.6847 353.496,-69.1519 375.791,-66.4722"/>
<polygon fill="#9a32cd" stroke="#9a32cd" points="295.227,-72.6302 285.716,-77.2986 296.062,-79.5801 295.227,-72.6302"/>
<text text-anchor="middle" x="331" y="-77" font-family="Helvetica,sans-Serif" font-size="10.00"> m_relations</text>
</g>
<!-- Node3 -->
<g id="node3" class="node"><title>Node3</title>
<polygon fill="white" stroke="#bfbfbf" points="143,-0.5 143,-41.5 265,-41.5 265,-0.5 143,-0.5"/>
<text text-anchor="start" x="151" y="-29.5" font-family="Helvetica,sans-Serif" font-size="10.00">std::unordered_map</text>
<text text-anchor="start" x="151" y="-18.5" font-family="Helvetica,sans-Serif" font-size="10.00">&lt; std::string, std::</text>
<text text-anchor="middle" x="204" y="-7.5" font-family="Helvetica,sans-Serif" font-size="10.00">shared_ptr&lt; Faction &gt; &gt;</text>
</g>
<!-- Node3&#45;&gt;Node1 -->
<g id="edge2" class="edge"><title>Node3&#45;&gt;Node1</title>
<path fill="none" stroke="#9a32cd" stroke-dasharray="5,2" d="M274.988,-34.7957C308.753,-41.4512 347.892,-49.1662 375.848,-54.6767"/>
<polygon fill="#9a32cd" stroke="#9a32cd" points="275.65,-31.359 265.162,-32.8589 274.297,-38.2268 275.65,-31.359"/>
<text text-anchor="middle" x="331" y="-55" font-family="Helvetica,sans-Serif" font-size="10.00"> m_factions</text>
</g>
<!-- Node4 -->
<g id="node4" class="node"><title>Node4</title>
<g id="a_node4"><a xlink:title="STL class. ">
<polygon fill="white" stroke="#bfbfbf" points="0,-11.5 0,-30.5 60,-30.5 60,-11.5 0,-11.5"/>
<text text-anchor="middle" x="30" y="-18.5" font-family="Helvetica,sans-Serif" font-size="10.00">std::string</text>
</a>
</g>
</g>
<!-- Node4&#45;&gt;Node3 -->
<g id="edge3" class="edge"><title>Node4&#45;&gt;Node3</title>
<path fill="none" stroke="#9a32cd" stroke-dasharray="5,2" d="M70.2454,-21C91.7478,-21 118.853,-21 142.956,-21"/>
<polygon fill="#9a32cd" stroke="#9a32cd" points="70.1775,-17.5001 60.1775,-21 70.1774,-24.5001 70.1775,-17.5001"/>
<text text-anchor="middle" x="91" y="-24" font-family="Helvetica,sans-Serif" font-size="10.00"> keys</text>
</g>
</g>
</svg>
