<?xml version="1.0" encoding="UTF-8" standalone="no"?>
<!DOCTYPE svg PUBLIC "-//W3C//DTD SVG 1.1//EN"
 "http://www.w3.org/Graphics/SVG/1.1/DTD/svg11.dtd">
<!-- Generated by graphviz version 2.36.0 (20140111.2315)
 -->
<!-- Title: VoxelParticleRenderer Pages: 1 -->
<svg width="1158pt" height="248pt"
 viewBox="0.00 0.00 1158.00 248.00" xmlns="http://www.w3.org/2000/svg" xmlns:xlink="http://www.w3.org/1999/xlink">
<g id="graph0" class="graph" transform="scale(1 1) rotate(0) translate(4 244)">
<title>VoxelParticleRenderer</title>
<polygon fill="white" stroke="none" points="-4,4 -4,-244 1154,-244 1154,4 -4,4"/>
<!-- Node1 -->
<g id="node1" class="node"><title>Node1</title>
<polygon fill="#bfbfbf" stroke="black" points="574.5,-49.5 574.5,-68.5 687.5,-68.5 687.5,-49.5 574.5,-49.5"/>
<text text-anchor="middle" x="631" y="-56.5" font-family="Helvetica,sans-Serif" font-size="10.00">VoxelParticleRenderer</text>
</g>
<!-- Node6 -->
<g id="node6" class="node"><title>Node6</title>
<polygon fill="white" stroke="#bfbfbf" points="740,-73 740,-103 888,-103 888,-73 740,-73"/>
<text text-anchor="start" x="748" y="-91" font-family="Helvetica,sans-Serif" font-size="10.00">std::unique_ptr&lt; VoxelParticle</text>
<text text-anchor="middle" x="814" y="-80" font-family="Helvetica,sans-Serif" font-size="10.00">Renderer &gt;</text>
</g>
<!-- Node1&#45;&gt;Node6 -->
<g id="edge6" class="edge"><title>Node1&#45;&gt;Node6</title>
<path fill="none" stroke="#9a32cd" stroke-dasharray="5,2" d="M697.984,-69.572C711.555,-71.7464 725.922,-74.0483 739.733,-76.2611"/>
<polygon fill="#9a32cd" stroke="#9a32cd" points="698.211,-66.0638 687.783,-67.9376 697.103,-72.9756 698.211,-66.0638"/>
<text text-anchor="middle" x="714" y="-76" font-family="Helvetica,sans-Serif" font-size="10.00"> ptr</text>
</g>
<!-- Node2 -->
<g id="node2" class="node"><title>Node2</title>
<g id="a_node2"><a xlink:href="class_context_dependant.html" target="_top" xlink:title="ContextDependant">
<polygon fill="white" stroke="black" points="0.5,-71.5 0.5,-90.5 97.5,-90.5 97.5,-71.5 0.5,-71.5"/>
<text text-anchor="middle" x="49" y="-78.5" font-family="Helvetica,sans-Serif" font-size="10.00">ContextDependant</text>
</a>
</g>
</g>
<!-- Node2&#45;&gt;Node1 -->
<g id="edge1" class="edge"><title>Node2&#45;&gt;Node1</title>
<path fill="none" stroke="midnightblue" d="M107.868,-82.9913C111.296,-83.0194 114.693,-83.0243 118,-83 269.123,-81.8889 306.931,-82.1931 458,-78 501.575,-76.7905 512.724,-79.2355 556,-74 566.801,-72.6933 578.377,-70.6571 589.09,-68.5019"/>
<polygon fill="midnightblue" stroke="midnightblue" points="107.601,-79.4872 97.5517,-82.8438 107.501,-86.4865 107.601,-79.4872"/>
</g>
<!-- Node9 -->
<g id="node9" class="node"><title>Node9</title>
<g id="a_node9"><a xlink:href="class_voxel_mesh.html" target="_top" xlink:title="VoxelMesh">
<polygon fill="white" stroke="black" points="154.5,-49.5 154.5,-68.5 219.5,-68.5 219.5,-49.5 154.5,-49.5"/>
<text text-anchor="middle" x="187" y="-56.5" font-family="Helvetica,sans-Serif" font-size="10.00">VoxelMesh</text>
</a>
</g>
</g>
<!-- Node2&#45;&gt;Node9 -->
<g id="edge10" class="edge"><title>Node2&#45;&gt;Node9</title>
<path fill="none" stroke="midnightblue" d="M107.453,-71.7061C123.554,-69.1015 140.464,-66.3662 154.452,-64.1034"/>
<polygon fill="midnightblue" stroke="midnightblue" points="106.879,-68.2534 97.5662,-73.3055 107.997,-75.1636 106.879,-68.2534"/>
</g>
<!-- Node3 -->
<g id="node3" class="node"><title>Node3</title>
<g id="a_node3"><a xlink:href="class_voxel_particle_engine.html" target="_top" xlink:title="VoxelParticleEngine">
<polygon fill="white" stroke="black" points="1046,-127.5 1046,-146.5 1150,-146.5 1150,-127.5 1046,-127.5"/>
<text text-anchor="middle" x="1098" y="-134.5" font-family="Helvetica,sans-Serif" font-size="10.00">VoxelParticleEngine</text>
</a>
</g>
</g>
<!-- Node3&#45;&gt;Node1 -->
<g id="edge2" class="edge"><title>Node3&#45;&gt;Node1</title>
<path fill="none" stroke="#9a32cd" stroke-dasharray="5,2" d="M1073.31,-122.07C1060.26,-114.248 1043.6,-104.89 1028,-98 968.09,-71.5359 952.672,-62.3524 888,-52 823.049,-41.6029 805.743,-49.8717 740,-52 723.005,-52.5502 704.528,-53.5862 687.742,-54.6958"/>
<polygon fill="#9a32cd" stroke="#9a32cd" points="1071.74,-125.214 1082.1,-127.438 1075.39,-119.24 1071.74,-125.214"/>
<text text-anchor="middle" x="814" y="-55" font-family="Helvetica,sans-Serif" font-size="10.00"> m_engine</text>
</g>
<!-- Node4 -->
<g id="node4" class="node"><title>Node4</title>
<polygon fill="white" stroke="#bfbfbf" points="769.5,-220.5 769.5,-239.5 858.5,-239.5 858.5,-220.5 769.5,-220.5"/>
<text text-anchor="middle" x="814" y="-227.5" font-family="Helvetica,sans-Serif" font-size="10.00">std::stack&lt; int &gt;</text>
</g>
<!-- Node4&#45;&gt;Node3 -->
<g id="edge3" class="edge"><title>Node4&#45;&gt;Node3</title>
<path fill="none" stroke="#9a32cd" stroke-dasharray="5,2" d="M868.633,-225.561C912.893,-220.417 976.553,-209.553 1028,-187 1051.03,-176.903 1073.9,-158.167 1086.67,-146.718"/>
<polygon fill="#9a32cd" stroke="#9a32cd" points="868.214,-222.086 858.658,-226.661 868.982,-229.044 868.214,-222.086"/>
<text text-anchor="middle" x="967" y="-222" font-family="Helvetica,sans-Serif" font-size="10.00"> m_freeParticleBufferIndices</text>
</g>
<!-- Node5 -->
<g id="node5" class="node"><title>Node5</title>
<polygon fill="white" stroke="#bfbfbf" points="750,-171 750,-201 878,-201 878,-171 750,-171"/>
<text text-anchor="start" x="758" y="-189" font-family="Helvetica,sans-Serif" font-size="10.00">std::vector&lt; VoxelParticle</text>
<text text-anchor="middle" x="814" y="-178" font-family="Helvetica,sans-Serif" font-size="10.00">Data &gt;</text>
</g>
<!-- Node5&#45;&gt;Node3 -->
<g id="edge4" class="edge"><title>Node5&#45;&gt;Node3</title>
<path fill="none" stroke="#9a32cd" stroke-dasharray="5,2" d="M888.024,-175.373C929.223,-169.12 981.594,-160.741 1028,-152 1036.67,-150.366 1045.93,-148.465 1054.75,-146.576"/>
<polygon fill="#9a32cd" stroke="#9a32cd" points="887.436,-171.922 878.07,-176.876 888.481,-178.844 887.436,-171.922"/>
<text text-anchor="middle" x="967" y="-175" font-family="Helvetica,sans-Serif" font-size="10.00"> m_cpuParticleBuffer</text>
</g>
<!-- Node6&#45;&gt;Node3 -->
<g id="edge5" class="edge"><title>Node6&#45;&gt;Node3</title>
<path fill="none" stroke="#9a32cd" stroke-dasharray="5,2" d="M898.224,-100.184C937.65,-106.237 985.345,-113.966 1028,-122 1036.67,-123.634 1045.93,-125.535 1054.75,-127.424"/>
<polygon fill="#9a32cd" stroke="#9a32cd" points="898.538,-96.6911 888.124,-98.6418 897.482,-103.611 898.538,-96.6911"/>
<text text-anchor="middle" x="967" y="-125" font-family="Helvetica,sans-Serif" font-size="10.00"> m_renderer</text>
</g>
<!-- Node7 -->
<g id="node7" class="node"><title>Node7</title>
<polygon fill="white" stroke="#bfbfbf" points="740,-122 740,-152 888,-152 888,-122 740,-122"/>
<text text-anchor="start" x="748" y="-140" font-family="Helvetica,sans-Serif" font-size="10.00">std::unique_ptr&lt; VoxelParticle</text>
<text text-anchor="middle" x="814" y="-129" font-family="Helvetica,sans-Serif" font-size="10.00">Remover &gt;</text>
</g>
<!-- Node7&#45;&gt;Node3 -->
<g id="edge7" class="edge"><title>Node7&#45;&gt;Node3</title>
<path fill="none" stroke="#9a32cd" stroke-dasharray="5,2" d="M898.389,-137C946.215,-137 1004.72,-137 1045.8,-137"/>
<polygon fill="#9a32cd" stroke="#9a32cd" points="898.356,-133.5 888.356,-137 898.356,-140.5 898.356,-133.5"/>
<text text-anchor="middle" x="967" y="-140" font-family="Helvetica,sans-Serif" font-size="10.00"> m_remover</text>
</g>
<!-- Node8 -->
<g id="node8" class="node"><title>Node8</title>
<polygon fill="white" stroke="#bfbfbf" points="310,-49.5 310,-68.5 458,-68.5 458,-49.5 310,-49.5"/>
<text text-anchor="middle" x="384" y="-56.5" font-family="Helvetica,sans-Serif" font-size="10.00">std::unique_ptr&lt; VoxelMesh &gt;</text>
</g>
<!-- Node8&#45;&gt;Node1 -->
<g id="edge8" class="edge"><title>Node8&#45;&gt;Node1</title>
<path fill="none" stroke="#9a32cd" stroke-dasharray="5,2" d="M468.373,-59C503.319,-59 543.01,-59 574.315,-59"/>
<polygon fill="#9a32cd" stroke="#9a32cd" points="468.176,-55.5001 458.176,-59 468.176,-62.5001 468.176,-55.5001"/>
<text text-anchor="middle" x="516" y="-62" font-family="Helvetica,sans-Serif" font-size="10.00"> m_voxelMesh</text>
</g>
<!-- Node9&#45;&gt;Node8 -->
<g id="edge9" class="edge"><title>Node9&#45;&gt;Node8</title>
<path fill="none" stroke="#9a32cd" stroke-dasharray="5,2" d="M229.993,-59C253.299,-59 282.95,-59 309.932,-59"/>
<polygon fill="#9a32cd" stroke="#9a32cd" points="229.764,-55.5001 219.764,-59 229.764,-62.5001 229.764,-55.5001"/>
<text text-anchor="middle" x="274" y="-62" font-family="Helvetica,sans-Serif" font-size="10.00"> ptr</text>
</g>
<!-- Node10 -->
<g id="node10" class="node"><title>Node10</title>
<g id="a_node10"><a xlink:href="class_property.html" target="_top" xlink:title="Property\&lt; glm::vec3 \&gt;">
<polygon fill="white" stroke="black" points="327.5,-8.5 327.5,-27.5 440.5,-27.5 440.5,-8.5 327.5,-8.5"/>
<text text-anchor="middle" x="384" y="-15.5" font-family="Helvetica,sans-Serif" font-size="10.00">Property&lt; glm::vec3 &gt;</text>
</a>
</g>
</g>
<!-- Node10&#45;&gt;Node1 -->
<g id="edge11" class="edge"><title>Node10&#45;&gt;Node1</title>
<path fill="none" stroke="#9a32cd" stroke-dasharray="5,2" d="M450.649,-27.2115C482.513,-31.8788 521.316,-37.8517 556,-44 565.293,-45.6474 575.213,-47.5546 584.671,-49.4452"/>
<polygon fill="#9a32cd" stroke="#9a32cd" points="450.961,-23.7202 440.562,-25.7435 449.953,-30.6472 450.961,-23.7202"/>
<text text-anchor="middle" x="516" y="-47" font-family="Helvetica,sans-Serif" font-size="10.00"> m_defaultLightDir</text>
</g>
<!-- Node11 -->
<g id="node11" class="node"><title>Node11</title>
<g id="a_node11"><a xlink:href="class_property_impl.html" target="_top" xlink:title="PropertyImpl\&lt; glm::\lvec3 \&gt;">
<polygon fill="white" stroke="red" points="136,-0 136,-30 238,-30 238,-0 136,-0"/>
<text text-anchor="start" x="144" y="-18" font-family="Helvetica,sans-Serif" font-size="10.00">PropertyImpl&lt; glm::</text>
<text text-anchor="middle" x="187" y="-7" font-family="Helvetica,sans-Serif" font-size="10.00">vec3 &gt;</text>
</a>
</g>
</g>
<!-- Node11&#45;&gt;Node10 -->
<g id="edge12" class="edge"><title>Node11&#45;&gt;Node10</title>
<path fill="none" stroke="#9a32cd" stroke-dasharray="5,2" d="M248.404,-15.9293C273.637,-16.3175 302.767,-16.7656 327.459,-17.1455"/>
<polygon fill="#9a32cd" stroke="#9a32cd" points="248.27,-12.4269 238.217,-15.7726 248.162,-19.4261 248.27,-12.4269"/>
<text text-anchor="middle" x="274" y="-20" font-family="Helvetica,sans-Serif" font-size="10.00"> m_impl</text>
</g>
</g>
</svg>
