<?xml version="1.0" encoding="UTF-8" standalone="no"?>
<!DOCTYPE svg PUBLIC "-//W3C//DTD SVG 1.1//EN"
 "http://www.w3.org/Graphics/SVG/1.1/DTD/svg11.dtd">
<!-- Generated by graphviz version 2.36.0 (20140111.2315)
 -->
<!-- Title: BoardComputer Pages: 1 -->
<!--zoomable 365 -->
<svg id="main" version="1.1" xmlns="http://www.w3.org/2000/svg" xmlns:xlink="http://www.w3.org/1999/xlink" xml:space="preserve" onload="init(evt)">
<style type="text/css"><![CDATA[
.edge:hover path { stroke: red; }
.edge:hover polygon { stroke: red; fill: red; }
]]></style>
<script type="text/javascript"><![CDATA[
var edges = document.getElementsByTagName('g');
if (edges && edges.length) {
  for (var i=0;i<edges.length;i++) {
    if (edges[i].id.substr(0,4)=='edge') {
      edges[i].setAttribute('class','edge');
    }
  }
}
]]></script>
        <defs>
                <circle id="rim" cx="0" cy="0" r="7"/>
                <circle id="rim2" cx="0" cy="0" r="3.5"/>
                <g id="zoomPlus">
                        <use xlink:href="#rim" fill="#404040">
                                <set attributeName="fill" to="#808080" begin="zoomplus.mouseover" end="zoomplus.mouseout"/>
                        </use>
                        <path d="M-4,0h8M0,-4v8" fill="none" stroke="white" stroke-width="1.5" pointer-events="none"/>
                </g>
                <g id="zoomMin">
                        <use xlink:href="#rim" fill="#404040">
                                <set attributeName="fill" to="#808080" begin="zoomminus.mouseover" end="zoomminus.mouseout"/>
                        </use>
                        <path d="M-4,0h8" fill="none" stroke="white" stroke-width="1.5" pointer-events="none"/>
                </g>
                <g id="dirArrow">
                        <path fill="none" stroke="white" stroke-width="1.5" d="M0,-3.0v7 M-2.5,-0.5L0,-3.0L2.5,-0.5"/>
                </g>
               <g id="resetDef">
                       <use xlink:href="#rim2" fill="#404040">
                               <set attributeName="fill" to="#808080" begin="reset.mouseover" end="reset.mouseout"/>
                       </use>
               </g>
        </defs>

<script type="text/javascript">
var viewWidth = 544;
var viewHeight = 365;
var sectionId = 'dynsection-0';
</script>
<script xlink:href="svgpan.js"/>
<svg id="graph" class="graph">
<g id="viewport">
<title>BoardComputer</title>
<polygon fill="white" stroke="none" points="-4,4 -4,-361 540,-361 540,4 -4,4"/>
<!-- Node1 -->
<g id="node1" class="node"><title>Node1</title>
<polygon fill="#bfbfbf" stroke="black" points="452,-165.5 452,-184.5 536,-184.5 536,-165.5 452,-165.5"/>
<text text-anchor="middle" x="494" y="-172.5" font-family="Helvetica,sans-Serif" font-size="10.00">BoardComputer</text>
</g>
<!-- Node2 -->
<g id="node2" class="node"><title>Node2</title>
<g id="a_node2"><a xlink:href="class_world_object.html" target="_top" xlink:title="WorldObject">
<polygon fill="white" stroke="black" points="272.5,-185.5 272.5,-204.5 343.5,-204.5 343.5,-185.5 272.5,-185.5"/>
<text text-anchor="middle" x="308" y="-192.5" font-family="Helvetica,sans-Serif" font-size="10.00">WorldObject</text>
</a>
</g>
</g>
<!-- Node2&#45;&gt;Node1 -->
<g id="edge1" class="edge"><title>Node2&#45;&gt;Node1</title>
<path fill="none" stroke="#9a32cd" stroke-dasharray="5,2" d="M353.769,-190.134C383.656,-186.885 422.668,-182.645 451.791,-179.479"/>
<polygon fill="#9a32cd" stroke="#9a32cd" points="353.172,-186.678 343.609,-191.238 353.929,-193.637 353.172,-186.678"/>
<text text-anchor="middle" x="399" y="-192" font-family="Helvetica,sans-Serif" font-size="10.00"> m_worldObject</text>
</g>
<!-- Node3 -->
<g id="node3" class="node"><title>Node3</title>
<g id="a_node3"><a xlink:href="class_voxel_cluster.html" target="_top" xlink:title="VoxelCluster">
<polygon fill="white" stroke="red" points="36,-337.5 36,-356.5 108,-356.5 108,-337.5 36,-337.5"/>
<text text-anchor="middle" x="72" y="-344.5" font-family="Helvetica,sans-Serif" font-size="10.00">VoxelCluster</text>
</a>
</g>
</g>
<!-- Node3&#45;&gt;Node2 -->
<g id="edge2" class="edge"><title>Node3&#45;&gt;Node2</title>
<path fill="none" stroke="midnightblue" d="M118.155,-347.74C157.394,-346.113 213.782,-338.041 252,-308 286.478,-280.898 300.721,-226.694 305.249,-204.653"/>
<polygon fill="midnightblue" stroke="midnightblue" points="117.966,-344.244 108.072,-348.032 118.169,-351.241 117.966,-344.244"/>
</g>
<!-- Node4 -->
<g id="node4" class="node"><title>Node4</title>
<g id="a_node4"><a xlink:href="class_scriptable.html" target="_top" xlink:title="Scriptable">
<polygon fill="white" stroke="black" points="42,-299.5 42,-318.5 102,-318.5 102,-299.5 42,-299.5"/>
<text text-anchor="middle" x="72" y="-306.5" font-family="Helvetica,sans-Serif" font-size="10.00">Scriptable</text>
</a>
</g>
</g>
<!-- Node4&#45;&gt;Node2 -->
<g id="edge3" class="edge"><title>Node4&#45;&gt;Node2</title>
<path fill="none" stroke="midnightblue" d="M112.521,-311.142C151.127,-311.337 210.041,-306.404 252,-279 280.021,-260.699 296.948,-222.599 303.66,-204.694"/>
<polygon fill="midnightblue" stroke="midnightblue" points="112.26,-307.637 102.202,-310.966 112.14,-314.636 112.26,-307.637"/>
</g>
<!-- Node5 -->
<g id="node5" class="node"><title>Node5</title>
<g id="a_node5"><a xlink:href="class_voxel.html" target="_top" xlink:title="Voxel">
<polygon fill="white" stroke="red" points="51.5,-261.5 51.5,-280.5 92.5,-280.5 92.5,-261.5 51.5,-261.5"/>
<text text-anchor="middle" x="72" y="-268.5" font-family="Helvetica,sans-Serif" font-size="10.00">Voxel</text>
</a>
</g>
</g>
<!-- Node5&#45;&gt;Node2 -->
<g id="edge4" class="edge"><title>Node5&#45;&gt;Node2</title>
<path fill="none" stroke="#9a32cd" stroke-dasharray="5,2" d="M102.767,-270.138C139.405,-268.094 202.806,-261.313 252,-239 270.263,-230.716 287.699,-214.988 297.872,-204.754"/>
<polygon fill="#9a32cd" stroke="#9a32cd" points="102.561,-266.644 92.7387,-270.615 102.894,-273.636 102.561,-266.644"/>
<text text-anchor="middle" x="207" y="-267" font-family="Helvetica,sans-Serif" font-size="10.00"> m_crucialVoxel</text>
</g>
<!-- Node6 -->
<g id="node6" class="node"><title>Node6</title>
<polygon fill="white" stroke="#bfbfbf" points="0.5,-223.5 0.5,-242.5 143.5,-242.5 143.5,-223.5 0.5,-223.5"/>
<text text-anchor="middle" x="72" y="-230.5" font-family="Helvetica,sans-Serif" font-size="10.00">std::unique_ptr&lt; ObjectInfo &gt;</text>
</g>
<!-- Node6&#45;&gt;Node2 -->
<g id="edge5" class="edge"><title>Node6&#45;&gt;Node2</title>
<path fill="none" stroke="#9a32cd" stroke-dasharray="5,2" d="M153.787,-225.025C184.669,-221.348 220.116,-216.364 252,-210 259.474,-208.508 267.427,-206.557 274.896,-204.557"/>
<polygon fill="#9a32cd" stroke="#9a32cd" points="153.029,-221.59 143.5,-226.222 153.838,-228.543 153.029,-221.59"/>
<text text-anchor="middle" x="207" y="-227" font-family="Helvetica,sans-Serif" font-size="10.00"> m_objectInfo</text>
</g>
<!-- Node7 -->
<g id="node7" class="node"><title>Node7</title>
<g id="a_node7"><a xlink:href="class_handle.html" target="_top" xlink:title="Handle\&lt; WorldObject \&gt;">
<polygon fill="white" stroke="black" points="12.5,-185.5 12.5,-204.5 131.5,-204.5 131.5,-185.5 12.5,-185.5"/>
<text text-anchor="middle" x="72" y="-192.5" font-family="Helvetica,sans-Serif" font-size="10.00">Handle&lt; WorldObject &gt;</text>
</a>
</g>
</g>
<!-- Node7&#45;&gt;Node2 -->
<g id="edge6" class="edge"><title>Node7&#45;&gt;Node2</title>
<path fill="none" stroke="#9a32cd" stroke-dasharray="5,2" d="M141.835,-195C184.682,-195 237.971,-195 272.232,-195"/>
<polygon fill="#9a32cd" stroke="#9a32cd" points="141.746,-191.5 131.746,-195 141.746,-198.5 141.746,-191.5"/>
<text text-anchor="middle" x="207" y="-198" font-family="Helvetica,sans-Serif" font-size="10.00"> m_handle</text>
</g>
<!-- Node8 -->
<g id="node8" class="node"><title>Node8</title>
<polygon fill="white" stroke="#bfbfbf" points="5,-147.5 5,-166.5 139,-166.5 139,-147.5 5,-147.5"/>
<text text-anchor="middle" x="72" y="-154.5" font-family="Helvetica,sans-Serif" font-size="10.00">std::unique_ptr&lt; Physics &gt;</text>
</g>
<!-- Node8&#45;&gt;Node2 -->
<g id="edge7" class="edge"><title>Node8&#45;&gt;Node2</title>
<path fill="none" stroke="#9a32cd" stroke-dasharray="5,2" d="M149.388,-164.456C181.27,-168.178 218.591,-173.331 252,-180 259.474,-181.492 267.427,-183.443 274.896,-185.443"/>
<polygon fill="#9a32cd" stroke="#9a32cd" points="149.572,-160.955 139.239,-163.298 148.778,-167.91 149.572,-160.955"/>
<text text-anchor="middle" x="207" y="-183" font-family="Helvetica,sans-Serif" font-size="10.00"> m_physics</text>
</g>
<!-- Node9 -->
<g id="node9" class="node"><title>Node9</title>
<polygon fill="white" stroke="#bfbfbf" points="8.5,-98 8.5,-128 135.5,-128 135.5,-98 8.5,-98"/>
<text text-anchor="start" x="16.5" y="-116" font-family="Helvetica,sans-Serif" font-size="10.00">std::unique_ptr&lt; Collision</text>
<text text-anchor="middle" x="72" y="-105" font-family="Helvetica,sans-Serif" font-size="10.00">Filter &gt;</text>
</g>
<!-- Node9&#45;&gt;Node2 -->
<g id="edge8" class="edge"><title>Node9&#45;&gt;Node2</title>
<path fill="none" stroke="#9a32cd" stroke-dasharray="5,2" d="M145.556,-117.116C180.016,-121.871 220.458,-131.742 252,-152 263.219,-159.205 259.809,-167.402 270,-176 274.305,-179.632 279.421,-182.815 284.455,-185.485"/>
<polygon fill="#9a32cd" stroke="#9a32cd" points="145.9,-113.632 135.54,-115.853 145.024,-120.577 145.9,-113.632"/>
<text text-anchor="middle" x="207" y="-155" font-family="Helvetica,sans-Serif" font-size="10.00"> m_collisionFilter</text>
</g>
<!-- Node10 -->
<g id="node10" class="node"><title>Node10</title>
<polygon fill="white" stroke="#bfbfbf" points="8.5,-49 8.5,-79 135.5,-79 135.5,-49 8.5,-49"/>
<text text-anchor="start" x="16.5" y="-67" font-family="Helvetica,sans-Serif" font-size="10.00">std::unique_ptr&lt; Collision</text>
<text text-anchor="middle" x="72" y="-56" font-family="Helvetica,sans-Serif" font-size="10.00">Detector &gt;</text>
</g>
<!-- Node10&#45;&gt;Node2 -->
<g id="edge9" class="edge"><title>Node10&#45;&gt;Node2</title>
<path fill="none" stroke="#9a32cd" stroke-dasharray="5,2" d="M145.891,-64.0802C182.196,-67.9364 224.166,-78.7509 252,-106 274.954,-128.472 249.95,-150.902 270,-176 272.975,-179.724 276.875,-182.79 281.025,-185.291"/>
<polygon fill="#9a32cd" stroke="#9a32cd" points="146.092,-60.5842 135.818,-63.1692 145.462,-67.5558 146.092,-60.5842"/>
<text text-anchor="middle" x="207" y="-109" font-family="Helvetica,sans-Serif" font-size="10.00"> m_collisionDetector</text>
</g>
<!-- Node11 -->
<g id="node11" class="node"><title>Node11</title>
<polygon fill="white" stroke="#bfbfbf" points="0,-0 0,-30 144,-30 144,-0 0,-0"/>
<text text-anchor="start" x="8" y="-18" font-family="Helvetica,sans-Serif" font-size="10.00">std::unique_ptr&lt; WorldObject</text>
<text text-anchor="middle" x="72" y="-7" font-family="Helvetica,sans-Serif" font-size="10.00">Components &gt;</text>
</g>
<!-- Node11&#45;&gt;Node2 -->
<g id="edge10" class="edge"><title>Node11&#45;&gt;Node2</title>
<path fill="none" stroke="#9a32cd" stroke-dasharray="5,2" d="M154.439,-12.2373C189.139,-15.492 227.244,-25.7211 252,-52 290.186,-92.5352 237.63,-130.685 270,-176 272.686,-179.761 276.342,-182.828 280.314,-185.315"/>
<polygon fill="#9a32cd" stroke="#9a32cd" points="154.515,-8.73309 144.279,-11.4686 153.986,-15.7131 154.515,-8.73309"/>
<text text-anchor="middle" x="207" y="-55" font-family="Helvetica,sans-Serif" font-size="10.00"> m_components</text>
</g>
<!-- Node12 -->
<g id="node12" class="node"><title>Node12</title>
<g id="a_node12"><a xlink:href="class_abstract_move.html" target="_top" xlink:title="AbstractMove">
<polygon fill="white" stroke="black" points="270,-147.5 270,-166.5 346,-166.5 346,-147.5 270,-147.5"/>
<text text-anchor="middle" x="308" y="-154.5" font-family="Helvetica,sans-Serif" font-size="10.00">AbstractMove</text>
</a>
</g>
</g>
<!-- Node12&#45;&gt;Node1 -->
<g id="edge11" class="edge"><title>Node12&#45;&gt;Node1</title>
<path fill="none" stroke="#9a32cd" stroke-dasharray="5,2" d="M356.15,-155.638C379.645,-155.591 408.429,-156.488 434,-160 442.9,-161.222 452.394,-163.287 461.107,-165.499"/>
<polygon fill="#9a32cd" stroke="#9a32cd" points="356.067,-152.139 346.094,-155.715 356.121,-159.138 356.067,-152.139"/>
<text text-anchor="middle" x="399" y="-163" font-family="Helvetica,sans-Serif" font-size="10.00"> m_engineState</text>
</g>
</g>
</svg>
        <g id="navigator" transform="translate(0 0)" fill="#404254">
                <rect fill="#f2f5e9" fill-opacity="0.5" stroke="#606060" stroke-width=".5" x="0" y="0" width="60" height="60"/>
                <use id="zoomplus" xlink:href="#zoomPlus" x="17" y="9" onmousedown="handleZoom(evt,'in')"/>
                <use id="zoomminus" xlink:href="#zoomMin" x="42" y="9" onmousedown="handleZoom(evt,'out')"/>
                <use id="reset" xlink:href="#resetDef" x="30" y="36" onmousedown="handleReset()"/>
                <g id="arrowUp" xlink:href="#dirArrow" transform="translate(30 24)" onmousedown="handlePan(0,-1)">
                  <use xlink:href="#rim" fill="#404040">
                        <set attributeName="fill" to="#808080" begin="arrowUp.mouseover" end="arrowUp.mouseout"/>
                  </use>
                  <path fill="none" stroke="white" stroke-width="1.5" d="M0,-3.0v7 M-2.5,-0.5L0,-3.0L2.5,-0.5"/>
                </g>
                <g id="arrowRight" xlink:href="#dirArrow" transform="rotate(90) translate(36 -43)" onmousedown="handlePan(1,0)">
                  <use xlink:href="#rim" fill="#404040">
                        <set attributeName="fill" to="#808080" begin="arrowRight.mouseover" end="arrowRight.mouseout"/>
                  </use>
                  <path fill="none" stroke="white" stroke-width="1.5" d="M0,-3.0v7 M-2.5,-0.5L0,-3.0L2.5,-0.5"/>
                </g>
                <g id="arrowDown" xlink:href="#dirArrow" transform="rotate(180) translate(-30 -48)" onmousedown="handlePan(0,1)">
                  <use xlink:href="#rim" fill="#404040">
                        <set attributeName="fill" to="#808080" begin="arrowDown.mouseover" end="arrowDown.mouseout"/>
                  </use>
                  <path fill="none" stroke="white" stroke-width="1.5" d="M0,-3.0v7 M-2.5,-0.5L0,-3.0L2.5,-0.5"/>
                </g>
                <g id="arrowLeft" xlink:href="#dirArrow" transform="rotate(270) translate(-36 17)" onmousedown="handlePan(-1,0)">
                  <use xlink:href="#rim" fill="#404040">
                        <set attributeName="fill" to="#808080" begin="arrowLeft.mouseover" end="arrowLeft.mouseout"/>
                  </use>
                  <path fill="none" stroke="white" stroke-width="1.5" d="M0,-3.0v7 M-2.5,-0.5L0,-3.0L2.5,-0.5"/>
                </g>
        </g>
        <svg viewBox="0 0 15 15" width="100%" height="30px" preserveAspectRatio="xMaxYMin meet">
         <g id="arrow_out" transform="scale(0.3 0.3)">
          <a xlink:href="class_board_computer__coll__graph_org.svg" target="_base">
           <rect id="button" ry="5" rx="5" y="6" x="6" height="38" width="38"
                fill="#f2f5e9" fill-opacity="0.5" stroke="#606060" stroke-width="1.0"/>
           <path id="arrow"
             d="M 11.500037,31.436501 C 11.940474,20.09759 22.043105,11.32322 32.158766,21.979434 L 37.068811,17.246167 C 37.068811,17.246167 37.088388,32 37.088388,32 L 22.160133,31.978069 C 22.160133,31.978069 26.997745,27.140456 26.997745,27.140456 C 18.528582,18.264221 13.291696,25.230495 11.500037,31.436501 z"
             style="fill:#404040;"/>
          </a>
         </g>
        </svg>
</svg>
