<?xml version="1.0" encoding="UTF-8" standalone="no"?>
<!DOCTYPE svg PUBLIC "-//W3C//DTD SVG 1.1//EN"
 "http://www.w3.org/Graphics/SVG/1.1/DTD/svg11.dtd">
<!-- Generated by graphviz version 2.36.0 (20140111.2315)
 -->
<!-- Title: AiTask Pages: 1 -->
<svg width="241pt" height="222pt"
 viewBox="0.00 0.00 241.00 222.00" xmlns="http://www.w3.org/2000/svg" xmlns:xlink="http://www.w3.org/1999/xlink">
<g id="graph0" class="graph" transform="scale(1 1) rotate(0) translate(4 218)">
<title>AiTask</title>
<polygon fill="white" stroke="none" points="-4,4 -4,-218 237,-218 237,4 -4,4"/>
<!-- Node1 -->
<g id="node1" class="node"><title>Node1</title>
<polygon fill="#bfbfbf" stroke="black" points="54.5,-0.5 54.5,-19.5 101.5,-19.5 101.5,-0.5 54.5,-0.5"/>
<text text-anchor="middle" x="78" y="-7.5" font-family="Helvetica,sans-Serif" font-size="10.00">AiTask</text>
</g>
<!-- Node2 -->
<g id="node2" class="node"><title>Node2</title>
<g id="a_node2"><a xlink:href="class_scriptable.html" target="_top" xlink:title="Scriptable">
<polygon fill="white" stroke="black" points="0,-194.5 0,-213.5 60,-213.5 60,-194.5 0,-194.5"/>
<text text-anchor="middle" x="30" y="-201.5" font-family="Helvetica,sans-Serif" font-size="10.00">Scriptable</text>
</a>
</g>
</g>
<!-- Node2&#45;&gt;Node1 -->
<g id="edge1" class="edge"><title>Node2&#45;&gt;Node1</title>
<path fill="none" stroke="midnightblue" d="M25.3208,-184.514C19.4884,-157.795 11.9918,-107.282 27,-68 34.8671,-47.4091 53.9756,-29.5551 66.4389,-19.5466"/>
<polygon fill="midnightblue" stroke="midnightblue" points="21.9509,-185.474 27.648,-194.406 28.7649,-183.871 21.9509,-185.474"/>
</g>
<!-- Node5 -->
<g id="node5" class="node"><title>Node5</title>
<g id="a_node5"><a xlink:href="class_world_object.html" target="_top" xlink:title="WorldObject">
<polygon fill="white" stroke="red" points="36.5,-136.5 36.5,-155.5 107.5,-155.5 107.5,-136.5 36.5,-136.5"/>
<text text-anchor="middle" x="72" y="-143.5" font-family="Helvetica,sans-Serif" font-size="10.00">WorldObject</text>
</a>
</g>
</g>
<!-- Node2&#45;&gt;Node5 -->
<g id="edge5" class="edge"><title>Node2&#45;&gt;Node5</title>
<path fill="none" stroke="midnightblue" d="M42.653,-186.129C50.2335,-176.022 59.5471,-163.604 65.6211,-155.505"/>
<polygon fill="midnightblue" stroke="midnightblue" points="39.7625,-184.15 36.5625,-194.25 45.3625,-188.35 39.7625,-184.15"/>
</g>
<!-- Node3 -->
<g id="node3" class="node"><title>Node3</title>
<g id="a_node3"><a xlink:href="class_handle.html" target="_top" xlink:title="Handle\&lt; AiTask \&gt;">
<polygon fill="white" stroke="black" points="138.5,-68.5 138.5,-87.5 233.5,-87.5 233.5,-68.5 138.5,-68.5"/>
<text text-anchor="middle" x="186" y="-75.5" font-family="Helvetica,sans-Serif" font-size="10.00">Handle&lt; AiTask &gt;</text>
</a>
</g>
</g>
<!-- Node3&#45;&gt;Node1 -->
<g id="edge2" class="edge"><title>Node3&#45;&gt;Node1</title>
<path fill="none" stroke="#9a32cd" stroke-dasharray="5,2" d="M179.311,-58.9394C175.766,-51.5383 170.728,-43.4489 164,-38 146.123,-23.5226 120.42,-16.769 101.773,-13.6424"/>
<polygon fill="#9a32cd" stroke="#9a32cd" points="176.14,-60.4272 183.238,-68.2926 182.594,-57.7173 176.14,-60.4272"/>
<text text-anchor="middle" x="198" y="-41.5" font-family="Helvetica,sans-Serif" font-size="10.00"> m_handle</text>
</g>
<!-- Node4 -->
<g id="node4" class="node"><title>Node4</title>
<g id="a_node4"><a xlink:href="class_board_computer.html" target="_top" xlink:title="BoardComputer">
<polygon fill="white" stroke="black" points="36,-68.5 36,-87.5 120,-87.5 120,-68.5 36,-68.5"/>
<text text-anchor="middle" x="78" y="-75.5" font-family="Helvetica,sans-Serif" font-size="10.00">BoardComputer</text>
</a>
</g>
</g>
<!-- Node4&#45;&gt;Node1 -->
<g id="edge3" class="edge"><title>Node4&#45;&gt;Node1</title>
<path fill="none" stroke="#9a32cd" stroke-dasharray="5,2" d="M78,-58.0413C78,-45.4724 78,-29.5631 78,-19.8411"/>
<polygon fill="#9a32cd" stroke="#9a32cd" points="74.5001,-58.3716 78,-68.3717 81.5001,-58.3717 74.5001,-58.3716"/>
<text text-anchor="middle" x="119.5" y="-41.5" font-family="Helvetica,sans-Serif" font-size="10.00"> m_boardComputer</text>
</g>
<!-- Node5&#45;&gt;Node4 -->
<g id="edge4" class="edge"><title>Node5&#45;&gt;Node4</title>
<path fill="none" stroke="#9a32cd" stroke-dasharray="5,2" d="M72.6098,-125.979C72.9111,-119.617 73.354,-112.493 74,-106 74.6005,-99.9643 75.6005,-93.2143 76.4503,-87.9732"/>
<polygon fill="#9a32cd" stroke="#9a32cd" points="69.0994,-126.179 72.2072,-136.308 76.0941,-126.452 69.0994,-126.179"/>
<text text-anchor="middle" x="108" y="-109.5" font-family="Helvetica,sans-Serif" font-size="10.00"> m_worldObject</text>
</g>
<!-- Node6 -->
<g id="node6" class="node"><title>Node6</title>
<g id="a_node6"><a xlink:href="class_abstract_move.html" target="_top" xlink:title="AbstractMove">
<polygon fill="white" stroke="black" points="126,-136.5 126,-155.5 202,-155.5 202,-136.5 126,-136.5"/>
<text text-anchor="middle" x="164" y="-143.5" font-family="Helvetica,sans-Serif" font-size="10.00">AbstractMove</text>
</a>
</g>
</g>
<!-- Node6&#45;&gt;Node4 -->
<g id="edge6" class="edge"><title>Node6&#45;&gt;Node4</title>
<path fill="none" stroke="#9a32cd" stroke-dasharray="5,2" d="M157.056,-127.239C153.466,-119.892 148.462,-111.762 142,-106 132.729,-97.7333 120.558,-91.7479 109.321,-87.5464"/>
<polygon fill="#9a32cd" stroke="#9a32cd" points="153.878,-128.708 161.082,-136.477 160.295,-125.911 153.878,-128.708"/>
<text text-anchor="middle" x="186.5" y="-109.5" font-family="Helvetica,sans-Serif" font-size="10.00"> m_engineState</text>
</g>
</g>
</svg>
