<?xml version="1.0" encoding="UTF-8" standalone="no"?>
<!DOCTYPE svg PUBLIC "-//W3C//DTD SVG 1.1//EN"
 "http://www.w3.org/Graphics/SVG/1.1/DTD/svg11.dtd">
<!-- Generated by graphviz version 2.36.0 (20140111.2315)
 -->
<!-- Title: AABBEnteredPoll Pages: 1 -->
<svg width="444pt" height="176pt"
 viewBox="0.00 0.00 444.00 176.00" xmlns="http://www.w3.org/2000/svg" xmlns:xlink="http://www.w3.org/1999/xlink">
<g id="graph0" class="graph" transform="scale(1 1) rotate(0) translate(4 172)">
<title>AABBEnteredPoll</title>
<polygon fill="white" stroke="none" points="-4,4 -4,-172 440,-172 440,4 -4,4"/>
<!-- Node1 -->
<g id="node1" class="node"><title>Node1</title>
<polygon fill="#bfbfbf" stroke="black" points="193,-0.5 193,-19.5 287,-19.5 287,-0.5 193,-0.5"/>
<text text-anchor="middle" x="240" y="-7.5" font-family="Helvetica,sans-Serif" font-size="10.00">AABBEnteredPoll</text>
</g>
<!-- Node2 -->
<g id="node2" class="node"><title>Node2</title>
<g id="a_node2"><a xlink:href="class_event_poll.html" target="_top" xlink:title="EventPoll">
<polygon fill="white" stroke="black" points="102.5,-74.5 102.5,-93.5 159.5,-93.5 159.5,-74.5 102.5,-74.5"/>
<text text-anchor="middle" x="131" y="-81.5" font-family="Helvetica,sans-Serif" font-size="10.00">EventPoll</text>
</a>
</g>
</g>
<!-- Node2&#45;&gt;Node1 -->
<g id="edge1" class="edge"><title>Node2&#45;&gt;Node1</title>
<path fill="none" stroke="midnightblue" d="M152.371,-68.8835C174.593,-54.2046 208.657,-31.7037 227.085,-19.531"/>
<polygon fill="midnightblue" stroke="midnightblue" points="150.347,-66.0259 143.932,-74.4579 154.205,-71.8666 150.347,-66.0259"/>
</g>
<!-- Node3 -->
<g id="node3" class="node"><title>Node3</title>
<g id="a_node3"><a xlink:href="class_scriptable.html" target="_top" xlink:title="Scriptable">
<polygon fill="white" stroke="black" points="0,-148.5 0,-167.5 60,-167.5 60,-148.5 0,-148.5"/>
<text text-anchor="middle" x="30" y="-155.5" font-family="Helvetica,sans-Serif" font-size="10.00">Scriptable</text>
</a>
</g>
</g>
<!-- Node3&#45;&gt;Node2 -->
<g id="edge2" class="edge"><title>Node3&#45;&gt;Node2</title>
<path fill="none" stroke="midnightblue" d="M50.354,-142.49C70.9536,-127.805 102.109,-105.596 119.033,-93.531"/>
<polygon fill="midnightblue" stroke="midnightblue" points="48.0938,-139.803 41.9826,-148.458 52.1571,-145.503 48.0938,-139.803"/>
</g>
<!-- Node4 -->
<g id="node4" class="node"><title>Node4</title>
<g id="a_node4"><a xlink:href="class_handle.html" target="_top" xlink:title="Handle\&lt; EventPoll \&gt;">
<polygon fill="white" stroke="black" points="78.5,-148.5 78.5,-167.5 183.5,-167.5 183.5,-148.5 78.5,-148.5"/>
<text text-anchor="middle" x="131" y="-155.5" font-family="Helvetica,sans-Serif" font-size="10.00">Handle&lt; EventPoll &gt;</text>
</a>
</g>
</g>
<!-- Node4&#45;&gt;Node2 -->
<g id="edge3" class="edge"><title>Node4&#45;&gt;Node2</title>
<path fill="none" stroke="#9a32cd" stroke-dasharray="5,2" d="M131,-138.156C131,-123.712 131,-104.459 131,-93.531"/>
<polygon fill="#9a32cd" stroke="#9a32cd" points="127.5,-138.458 131,-148.458 134.5,-138.458 127.5,-138.458"/>
<text text-anchor="middle" x="154" y="-121.5" font-family="Helvetica,sans-Serif" font-size="10.00"> m_handle</text>
</g>
<!-- Node5 -->
<g id="node5" class="node"><title>Node5</title>
<g id="a_node5"><a xlink:href="class_t_a_a_b_b.html" target="_top" xlink:title="TAABB\&lt; glm::mediump\l_float \&gt;">
<polygon fill="white" stroke="black" points="180.5,-69 180.5,-99 299.5,-99 299.5,-69 180.5,-69"/>
<text text-anchor="start" x="188.5" y="-87" font-family="Helvetica,sans-Serif" font-size="10.00">TAABB&lt; glm::mediump</text>
<text text-anchor="middle" x="240" y="-76" font-family="Helvetica,sans-Serif" font-size="10.00">_float &gt;</text>
</a>
</g>
</g>
<!-- Node5&#45;&gt;Node1 -->
<g id="edge4" class="edge"><title>Node5&#45;&gt;Node1</title>
<path fill="none" stroke="#9a32cd" stroke-dasharray="5,2" d="M240,-58.6883C240,-45.2526 240,-29.3805 240,-19.7589"/>
<polygon fill="#9a32cd" stroke="#9a32cd" points="236.5,-58.7751 240,-68.7751 243.5,-58.7752 236.5,-58.7751"/>
<text text-anchor="middle" x="259" y="-41.5" font-family="Helvetica,sans-Serif" font-size="10.00"> m_aabb</text>
</g>
<!-- Node6 -->
<g id="node6" class="node"><title>Node6</title>
<g id="a_node6"><a xlink:href="class_abstract_shape.html" target="_top" xlink:title="AbstractShape">
<polygon fill="white" stroke="black" points="201.5,-148.5 201.5,-167.5 282.5,-167.5 282.5,-148.5 201.5,-148.5"/>
<text text-anchor="middle" x="242" y="-155.5" font-family="Helvetica,sans-Serif" font-size="10.00">AbstractShape</text>
</a>
</g>
</g>
<!-- Node6&#45;&gt;Node5 -->
<g id="edge5" class="edge"><title>Node6&#45;&gt;Node5</title>
<path fill="none" stroke="midnightblue" d="M241.485,-138.46C241.145,-126.236 240.707,-110.468 240.395,-99.2316"/>
<polygon fill="midnightblue" stroke="midnightblue" points="237.986,-138.559 241.763,-148.458 244.984,-138.365 237.986,-138.559"/>
</g>
<!-- Node7 -->
<g id="node7" class="node"><title>Node7</title>
<g id="a_node7"><a xlink:href="class_handle.html" target="_top" xlink:title="Handle\&lt; WorldObject \&gt;">
<polygon fill="white" stroke="black" points="317.5,-74.5 317.5,-93.5 436.5,-93.5 436.5,-74.5 317.5,-74.5"/>
<text text-anchor="middle" x="377" y="-81.5" font-family="Helvetica,sans-Serif" font-size="10.00">Handle&lt; WorldObject &gt;</text>
</a>
</g>
</g>
<!-- Node7&#45;&gt;Node1 -->
<g id="edge6" class="edge"><title>Node7&#45;&gt;Node1</title>
<path fill="none" stroke="#9a32cd" stroke-dasharray="5,2" d="M351.615,-69.6589C323.737,-55.0079 279.806,-31.9201 256.233,-19.531"/>
<polygon fill="#9a32cd" stroke="#9a32cd" points="350.266,-72.9039 360.746,-74.4579 353.523,-66.7075 350.266,-72.9039"/>
<text text-anchor="middle" x="347" y="-41.5" font-family="Helvetica,sans-Serif" font-size="10.00"> m_worldObject</text>
</g>
</g>
</svg>
