<?xml version="1.0" encoding="UTF-8" standalone="no"?>
<!DOCTYPE svg PUBLIC "-//W3C//DTD SVG 1.1//EN"
 "http://www.w3.org/Graphics/SVG/1.1/DTD/svg11.dtd">
<!-- Generated by graphviz version 2.36.0 (20140111.2315)
 -->
<!-- Title: Bindings Pages: 1 -->
<svg width="408pt" height="84pt"
 viewBox="0.00 0.00 408.00 84.00" xmlns="http://www.w3.org/2000/svg" xmlns:xlink="http://www.w3.org/1999/xlink">
<g id="graph0" class="graph" transform="scale(1 1) rotate(0) translate(4 80)">
<title>Bindings</title>
<polygon fill="white" stroke="none" points="-4,4 -4,-80 404,-80 404,4 -4,4"/>
<!-- Node1 -->
<g id="node1" class="node"><title>Node1</title>
<polygon fill="#bfbfbf" stroke="black" points="153,-56.5 153,-75.5 207,-75.5 207,-56.5 153,-56.5"/>
<text text-anchor="middle" x="180" y="-63.5" font-family="Helvetica,sans-Serif" font-size="10.00">Bindings</text>
</g>
<!-- Node2 -->
<g id="node2" class="node"><title>Node2</title>
<g id="a_node2"><a xlink:href="class_ai_bindings.html" target="_top" xlink:title="AiBindings">
<polygon fill="white" stroke="black" points="-0.5,-0.5 -0.5,-19.5 62.5,-19.5 62.5,-0.5 -0.5,-0.5"/>
<text text-anchor="middle" x="31" y="-7.5" font-family="Helvetica,sans-Serif" font-size="10.00">AiBindings</text>
</a>
</g>
</g>
<!-- Node1&#45;&gt;Node2 -->
<g id="edge1" class="edge"><title>Node1&#45;&gt;Node2</title>
<path fill="none" stroke="midnightblue" d="M146.629,-52.9058C118.616,-42.7536 79.3044,-28.5063 54.499,-19.5164"/>
<polygon fill="midnightblue" stroke="midnightblue" points="145.796,-56.3267 156.391,-56.4435 148.181,-49.7456 145.796,-56.3267"/>
</g>
<!-- Node3 -->
<g id="node3" class="node"><title>Node3</title>
<g id="a_node3"><a xlink:href="class_common_bindings.html" target="_top" xlink:title="CommonBindings">
<polygon fill="white" stroke="black" points="80.5,-0.5 80.5,-19.5 173.5,-19.5 173.5,-0.5 80.5,-0.5"/>
<text text-anchor="middle" x="127" y="-7.5" font-family="Helvetica,sans-Serif" font-size="10.00">CommonBindings</text>
</a>
</g>
</g>
<!-- Node1&#45;&gt;Node3 -->
<g id="edge2" class="edge"><title>Node1&#45;&gt;Node3</title>
<path fill="none" stroke="midnightblue" d="M164.019,-48.7175C154.678,-39.1997 143.254,-27.5608 135.589,-19.7511"/>
<polygon fill="midnightblue" stroke="midnightblue" points="161.746,-51.3978 171.248,-56.083 166.741,-46.4945 161.746,-51.3978"/>
</g>
<!-- Node4 -->
<g id="node4" class="node"><title>Node4</title>
<g id="a_node4"><a xlink:href="class_squad_bindings.html" target="_top" xlink:title="SquadBindings">
<polygon fill="white" stroke="black" points="192,-0.5 192,-19.5 274,-19.5 274,-0.5 192,-0.5"/>
<text text-anchor="middle" x="233" y="-7.5" font-family="Helvetica,sans-Serif" font-size="10.00">SquadBindings</text>
</a>
</g>
</g>
<!-- Node1&#45;&gt;Node4 -->
<g id="edge3" class="edge"><title>Node1&#45;&gt;Node4</title>
<path fill="none" stroke="midnightblue" d="M195.981,-48.7175C205.322,-39.1997 216.746,-27.5608 224.411,-19.7511"/>
<polygon fill="midnightblue" stroke="midnightblue" points="193.259,-46.4945 188.752,-56.083 198.254,-51.3978 193.259,-46.4945"/>
</g>
<!-- Node5 -->
<g id="node5" class="node"><title>Node5</title>
<g id="a_node5"><a xlink:href="class_world_object_bindings.html" target="_top" xlink:title="WorldObjectBindings">
<polygon fill="white" stroke="black" points="292,-0.5 292,-19.5 400,-19.5 400,-0.5 292,-0.5"/>
<text text-anchor="middle" x="346" y="-7.5" font-family="Helvetica,sans-Serif" font-size="10.00">WorldObjectBindings</text>
</a>
</g>
</g>
<!-- Node1&#45;&gt;Node5 -->
<g id="edge4" class="edge"><title>Node1&#45;&gt;Node5</title>
<path fill="none" stroke="midnightblue" d="M215.953,-53.3044C247.232,-43.1294 291.821,-28.6246 319.82,-19.5164"/>
<polygon fill="midnightblue" stroke="midnightblue" points="214.73,-50.0217 206.303,-56.4435 216.895,-56.6783 214.73,-50.0217"/>
</g>
</g>
</svg>
