<?xml version="1.0" encoding="UTF-8" standalone="no"?>
<!DOCTYPE svg PUBLIC "-//W3C//DTD SVG 1.1//EN"
 "http://www.w3.org/Graphics/SVG/1.1/DTD/svg11.dtd">
<!-- Generated by graphviz version 2.36.0 (20140111.2315)
 -->
<!-- Title: StereoViewEye Pages: 1 -->
<svg width="418pt" height="164pt"
 viewBox="0.00 0.00 418.00 164.00" xmlns="http://www.w3.org/2000/svg" xmlns:xlink="http://www.w3.org/1999/xlink">
<g id="graph0" class="graph" transform="scale(1 1) rotate(0) translate(4 160)">
<title>StereoViewEye</title>
<polygon fill="white" stroke="none" points="-4,4 -4,-160 414,-160 414,4 -4,4"/>
<!-- Node1 -->
<g id="node1" class="node"><title>Node1</title>
<polygon fill="#bfbfbf" stroke="black" points="131.5,-0.5 131.5,-19.5 214.5,-19.5 214.5,-0.5 131.5,-0.5"/>
<text text-anchor="middle" x="173" y="-7.5" font-family="Helvetica,sans-Serif" font-size="10.00">StereoViewEye</text>
</g>
<!-- Node2 -->
<g id="node2" class="node"><title>Node2</title>
<g id="a_node2"><a xlink:href="class_property.html" target="_top" xlink:title="Property\&lt; float \&gt;">
<polygon fill="white" stroke="black" points="-0.5,-68.5 -0.5,-87.5 88.5,-87.5 88.5,-68.5 -0.5,-68.5"/>
<text text-anchor="middle" x="44" y="-75.5" font-family="Helvetica,sans-Serif" font-size="10.00">Property&lt; float &gt;</text>
</a>
</g>
</g>
<!-- Node2&#45;&gt;Node1 -->
<g id="edge1" class="edge"><title>Node2&#45;&gt;Node1</title>
<path fill="none" stroke="#9a32cd" stroke-dasharray="5,2" d="M57.9933,-60.5101C65.3439,-52.7377 74.9104,-43.8988 85,-38 99.2098,-29.6923 116.231,-23.699 131.5,-19.5025"/>
<polygon fill="#9a32cd" stroke="#9a32cd" points="55.0435,-58.5566 50.9669,-68.3358 60.2521,-63.2332 55.0435,-58.5566"/>
<text text-anchor="middle" x="127" y="-41.5" font-family="Helvetica,sans-Serif" font-size="10.00"> m_samplingFactor</text>
</g>
<!-- Node3 -->
<g id="node3" class="node"><title>Node3</title>
<g id="a_node3"><a xlink:title="STL class. ">
<polygon fill="white" stroke="#bfbfbf" points="14,-136.5 14,-155.5 74,-155.5 74,-136.5 14,-136.5"/>
<text text-anchor="middle" x="44" y="-143.5" font-family="Helvetica,sans-Serif" font-size="10.00">std::string</text>
</a>
</g>
</g>
<!-- Node3&#45;&gt;Node2 -->
<g id="edge2" class="edge"><title>Node3&#45;&gt;Node2</title>
<path fill="none" stroke="#9a32cd" stroke-dasharray="5,2" d="M44,-126.041C44,-113.472 44,-97.5631 44,-87.8411"/>
<polygon fill="#9a32cd" stroke="#9a32cd" points="40.5001,-126.372 44,-136.372 47.5001,-126.372 40.5001,-126.372"/>
<text text-anchor="middle" x="64.5" y="-109.5" font-family="Helvetica,sans-Serif" font-size="10.00"> m_name</text>
</g>
<!-- Node4 -->
<g id="node4" class="node"><title>Node4</title>
<polygon fill="white" stroke="#bfbfbf" points="106.5,-68.5 106.5,-87.5 239.5,-87.5 239.5,-68.5 106.5,-68.5"/>
<text text-anchor="middle" x="173" y="-75.5" font-family="Helvetica,sans-Serif" font-size="10.00">std::unique_ptr&lt; Camera &gt;</text>
</g>
<!-- Node4&#45;&gt;Node1 -->
<g id="edge3" class="edge"><title>Node4&#45;&gt;Node1</title>
<path fill="none" stroke="#9a32cd" stroke-dasharray="5,2" d="M173,-58.0413C173,-45.4724 173,-29.5631 173,-19.8411"/>
<polygon fill="#9a32cd" stroke="#9a32cd" points="169.5,-58.3716 173,-68.3717 176.5,-58.3717 169.5,-58.3716"/>
<text text-anchor="middle" x="197.5" y="-41.5" font-family="Helvetica,sans-Serif" font-size="10.00"> m_camera</text>
</g>
<!-- Node5 -->
<g id="node5" class="node"><title>Node5</title>
<g id="a_node5"><a xlink:href="class_camera.html" target="_top" xlink:title="Camera">
<polygon fill="white" stroke="red" points="148,-136.5 148,-155.5 198,-155.5 198,-136.5 148,-136.5"/>
<text text-anchor="middle" x="173" y="-143.5" font-family="Helvetica,sans-Serif" font-size="10.00">Camera</text>
</a>
</g>
</g>
<!-- Node5&#45;&gt;Node4 -->
<g id="edge4" class="edge"><title>Node5&#45;&gt;Node4</title>
<path fill="none" stroke="#9a32cd" stroke-dasharray="5,2" d="M173,-126.041C173,-113.472 173,-97.5631 173,-87.8411"/>
<polygon fill="#9a32cd" stroke="#9a32cd" points="169.5,-126.372 173,-136.372 176.5,-126.372 169.5,-126.372"/>
<text text-anchor="middle" x="180.5" y="-109.5" font-family="Helvetica,sans-Serif" font-size="10.00"> ptr</text>
</g>
<!-- Node6 -->
<g id="node6" class="node"><title>Node6</title>
<polygon fill="white" stroke="#bfbfbf" points="258,-68.5 258,-87.5 410,-87.5 410,-68.5 258,-68.5"/>
<text text-anchor="middle" x="334" y="-75.5" font-family="Helvetica,sans-Serif" font-size="10.00">std::unique_ptr&lt; FrameBuffer &gt;</text>
</g>
<!-- Node6&#45;&gt;Node1 -->
<g id="edge5" class="edge"><title>Node6&#45;&gt;Node1</title>
<path fill="none" stroke="#9a32cd" stroke-dasharray="5,2" d="M303.596,-64.5361C271.48,-51.3706 221.708,-30.9673 193.798,-19.5259"/>
<polygon fill="#9a32cd" stroke="#9a32cd" points="302.372,-67.817 312.952,-68.3717 305.027,-61.3401 302.372,-67.817"/>
<text text-anchor="middle" x="283" y="-41.5" font-family="Helvetica,sans-Serif" font-size="10.00"> m_fbo</text>
</g>
<!-- Node7 -->
<g id="node7" class="node"><title>Node7</title>
<g id="a_node7"><a xlink:href="class_frame_buffer.html" target="_top" xlink:title="FrameBuffer">
<polygon fill="white" stroke="red" points="299.5,-136.5 299.5,-155.5 368.5,-155.5 368.5,-136.5 299.5,-136.5"/>
<text text-anchor="middle" x="334" y="-143.5" font-family="Helvetica,sans-Serif" font-size="10.00">FrameBuffer</text>
</a>
</g>
</g>
<!-- Node7&#45;&gt;Node6 -->
<g id="edge6" class="edge"><title>Node7&#45;&gt;Node6</title>
<path fill="none" stroke="#9a32cd" stroke-dasharray="5,2" d="M334,-126.041C334,-113.472 334,-97.5631 334,-87.8411"/>
<polygon fill="#9a32cd" stroke="#9a32cd" points="330.5,-126.372 334,-136.372 337.5,-126.372 330.5,-126.372"/>
<text text-anchor="middle" x="341.5" y="-109.5" font-family="Helvetica,sans-Serif" font-size="10.00"> ptr</text>
</g>
</g>
</svg>
