<?xml version="1.0" encoding="UTF-8" standalone="no"?>
<!DOCTYPE svg PUBLIC "-//W3C//DTD SVG 1.1//EN"
 "http://www.w3.org/Graphics/SVG/1.1/DTD/svg11.dtd">
<!-- Generated by graphviz version 2.36.0 (20140111.2315)
 -->
<!-- Title: PropertyCollection&lt; T &gt; Pages: 1 -->
<svg width="498pt" height="140pt"
 viewBox="0.00 0.00 498.00 140.00" xmlns="http://www.w3.org/2000/svg" xmlns:xlink="http://www.w3.org/1999/xlink">
<g id="graph0" class="graph" transform="scale(1 1) rotate(0) translate(4 136)">
<title>PropertyCollection&lt; T &gt;</title>
<polygon fill="white" stroke="none" points="-4,4 -4,-136 494,-136 494,4 -4,4"/>
<!-- Node1 -->
<g id="node1" class="node"><title>Node1</title>
<polygon fill="#bfbfbf" stroke="black" points="370.5,-68.5 370.5,-87.5 489.5,-87.5 489.5,-68.5 370.5,-68.5"/>
<text text-anchor="middle" x="430" y="-75.5" font-family="Helvetica,sans-Serif" font-size="10.00">PropertyCollection&lt; T &gt;</text>
</g>
<!-- Node2 -->
<g id="node2" class="node"><title>Node2</title>
<g id="a_node2"><a xlink:href="class_abstract_property_collection.html" target="_top" xlink:title="AbstractPropertyCollection">
<polygon fill="white" stroke="black" points="140.5,-112.5 140.5,-131.5 273.5,-131.5 273.5,-112.5 140.5,-112.5"/>
<text text-anchor="middle" x="207" y="-119.5" font-family="Helvetica,sans-Serif" font-size="10.00">AbstractPropertyCollection</text>
</a>
</g>
</g>
<!-- Node2&#45;&gt;Node1 -->
<g id="edge1" class="edge"><title>Node2&#45;&gt;Node1</title>
<path fill="none" stroke="midnightblue" d="M265.803,-110.492C301.697,-103.345 347.278,-94.2704 381.14,-87.5287"/>
<polygon fill="midnightblue" stroke="midnightblue" points="265.078,-107.067 255.954,-112.453 266.445,-113.933 265.078,-107.067"/>
</g>
<!-- Node3 -->
<g id="node3" class="node"><title>Node3</title>
<polygon fill="white" stroke="#bfbfbf" points="143,-24.5 143,-43.5 271,-43.5 271,-24.5 143,-24.5"/>
<text text-anchor="middle" x="207" y="-31.5" font-family="Helvetica,sans-Serif" font-size="10.00">std::map&lt; std::string, T &gt;</text>
</g>
<!-- Node3&#45;&gt;Node1 -->
<g id="edge2" class="edge"><title>Node3&#45;&gt;Node1</title>
<path fill="none" stroke="#9a32cd" stroke-dasharray="5,2" d="M265.803,-45.5083C301.697,-52.6546 347.278,-61.7296 381.14,-68.4713"/>
<polygon fill="#9a32cd" stroke="#9a32cd" points="266.445,-42.0674 255.954,-43.5473 265.078,-48.9327 266.445,-42.0674"/>
<text text-anchor="middle" x="322" y="-66" font-family="Helvetica,sans-Serif" font-size="10.00"> m_values</text>
</g>
<!-- Node4 -->
<g id="node4" class="node"><title>Node4</title>
<g id="a_node4"><a xlink:title="STL class. ">
<polygon fill="white" stroke="#bfbfbf" points="0,-53.5 0,-72.5 60,-72.5 60,-53.5 0,-53.5"/>
<text text-anchor="middle" x="30" y="-60.5" font-family="Helvetica,sans-Serif" font-size="10.00">std::string</text>
</a>
</g>
</g>
<!-- Node4&#45;&gt;Node3 -->
<g id="edge3" class="edge"><title>Node4&#45;&gt;Node3</title>
<path fill="none" stroke="#9a32cd" stroke-dasharray="5,2" d="M69.9024,-54.527C72.6391,-53.9912 75.3587,-53.4765 78,-53 99.0033,-49.2106 122.045,-45.6171 142.72,-42.596"/>
<polygon fill="#9a32cd" stroke="#9a32cd" points="69.1328,-51.1117 60.0274,-56.5286 70.5234,-57.9722 69.1328,-51.1117"/>
<text text-anchor="middle" x="100" y="-56" font-family="Helvetica,sans-Serif" font-size="10.00"> keys</text>
</g>
<!-- Node6 -->
<g id="node6" class="node"><title>Node6</title>
<polygon fill="white" stroke="#bfbfbf" points="150.5,-63 150.5,-93 263.5,-93 263.5,-63 150.5,-63"/>
<text text-anchor="start" x="158.5" y="-81" font-family="Helvetica,sans-Serif" font-size="10.00">std::map&lt; std::string,</text>
<text text-anchor="middle" x="207" y="-70" font-family="Helvetica,sans-Serif" font-size="10.00"> PropertyImpl&lt; T &gt; * &gt;</text>
</g>
<!-- Node4&#45;&gt;Node6 -->
<g id="edge6" class="edge"><title>Node4&#45;&gt;Node6</title>
<path fill="none" stroke="#9a32cd" stroke-dasharray="5,2" d="M70.2935,-66.368C93.9141,-68.3926 124.348,-71.0013 150.407,-73.2349"/>
<polygon fill="#9a32cd" stroke="#9a32cd" points="70.5535,-62.8776 60.2911,-65.5107 69.9556,-69.852 70.5535,-62.8776"/>
<text text-anchor="middle" x="100" y="-73" font-family="Helvetica,sans-Serif" font-size="10.00"> keys</text>
</g>
<!-- Node5 -->
<g id="node5" class="node"><title>Node5</title>
<polygon fill="white" stroke="#bfbfbf" points="15.5,-0.5 15.5,-19.5 44.5,-19.5 44.5,-0.5 15.5,-0.5"/>
<text text-anchor="middle" x="30" y="-7.5" font-family="Helvetica,sans-Serif" font-size="10.00">T</text>
</g>
<!-- Node5&#45;&gt;Node3 -->
<g id="edge4" class="edge"><title>Node5&#45;&gt;Node3</title>
<path fill="none" stroke="#9a32cd" stroke-dasharray="5,2" d="M54.779,-8.60593C73.2128,-7.92385 99.3474,-7.828 122,-11 141.017,-13.6629 161.839,-19.3442 177.994,-24.3938"/>
<polygon fill="#9a32cd" stroke="#9a32cd" points="54.4784,-5.11592 44.6485,-9.06863 54.7978,-12.1086 54.4784,-5.11592"/>
<text text-anchor="middle" x="100" y="-14" font-family="Helvetica,sans-Serif" font-size="10.00"> elements</text>
</g>
<!-- Node6&#45;&gt;Node1 -->
<g id="edge5" class="edge"><title>Node6&#45;&gt;Node1</title>
<path fill="none" stroke="#9a32cd" stroke-dasharray="5,2" d="M273.908,-78C304.476,-78 340.516,-78 370.157,-78"/>
<polygon fill="#9a32cd" stroke="#9a32cd" points="273.768,-74.5001 263.768,-78 273.768,-81.5001 273.768,-74.5001"/>
<text text-anchor="middle" x="322" y="-81" font-family="Helvetica,sans-Serif" font-size="10.00"> m_properties</text>
</g>
</g>
</svg>
