<?xml version="1.0" encoding="UTF-8" standalone="no"?>
<!DOCTYPE svg PUBLIC "-//W3C//DTD SVG 1.1//EN"
 "http://www.w3.org/Graphics/SVG/1.1/DTD/svg11.dtd">
<!-- Generated by graphviz version 2.36.0 (20140111.2315)
 -->
<!-- Title: VoxelTreeNode Pages: 1 -->
<svg width="1054pt" height="316pt"
 viewBox="0.00 0.00 1054.00 316.11" xmlns="http://www.w3.org/2000/svg" xmlns:xlink="http://www.w3.org/1999/xlink">
<g id="graph0" class="graph" transform="scale(1 1) rotate(0) translate(4 312.106)">
<title>VoxelTreeNode</title>
<polygon fill="white" stroke="none" points="-4,4 -4,-312.106 1050,-312.106 1050,4 -4,4"/>
<!-- Node1 -->
<g id="node1" class="node"><title>Node1</title>
<polygon fill="#bfbfbf" stroke="black" points="343.5,-99.6058 343.5,-118.606 426.5,-118.606 426.5,-99.6058 343.5,-99.6058"/>
<text text-anchor="middle" x="385" y="-106.606" font-family="Helvetica,sans-Serif" font-size="10.00">VoxelTreeNode</text>
</g>
<!-- Node1&#45;&gt;Node1 -->
<g id="edge15" class="edge"><title>Node1&#45;&gt;Node1</title>
<path fill="none" stroke="#9a32cd" stroke-dasharray="5,2" d="M365.371,-128.506C366.682,-133.42 373.225,-137.106 385,-137.106 403.84,-137.106 409.286,-127.671 401.338,-118.863"/>
<polygon fill="#9a32cd" stroke="#9a32cd" points="368.745,-129.457 368.662,-118.863 362.12,-127.196 368.745,-129.457"/>
<text text-anchor="middle" x="385" y="-140.106" font-family="Helvetica,sans-Serif" font-size="10.00"> m_parent</text>
</g>
<!-- Node2 -->
<g id="node2" class="node"><title>Node2</title>
<g id="a_node2"><a xlink:href="class_voxel.html" target="_top" xlink:title="Voxel">
<polygon fill="white" stroke="black" points="607.5,-209.606 607.5,-228.606 648.5,-228.606 648.5,-209.606 607.5,-209.606"/>
<text text-anchor="middle" x="628" y="-216.606" font-family="Helvetica,sans-Serif" font-size="10.00">Voxel</text>
</a>
</g>
</g>
<!-- Node1&#45;&gt;Node2 -->
<g id="edge4" class="edge"><title>Node1&#45;&gt;Node2</title>
<path fill="none" stroke="#9a32cd" stroke-dasharray="5,2" d="M393.739,-128.192C403.226,-148.911 421.392,-181.168 448,-197.106 474.525,-212.993 566.661,-217.461 607.386,-218.673"/>
<polygon fill="#9a32cd" stroke="#9a32cd" points="396.863,-126.596 389.675,-118.812 390.44,-129.38 396.863,-126.596"/>
<text text-anchor="middle" x="491" y="-217.106" font-family="Helvetica,sans-Serif" font-size="10.00"> m_voxelTreeNode</text>
</g>
<!-- Node5 -->
<g id="node5" class="node"><title>Node5</title>
<g id="a_node5"><a xlink:href="class_voxel_tree.html" target="_top" xlink:title="VoxelTree">
<polygon fill="white" stroke="black" points="986,-142.606 986,-161.606 1046,-161.606 1046,-142.606 986,-142.606"/>
<text text-anchor="middle" x="1016" y="-149.606" font-family="Helvetica,sans-Serif" font-size="10.00">VoxelTree</text>
</a>
</g>
</g>
<!-- Node1&#45;&gt;Node5 -->
<g id="edge8" class="edge"><title>Node1&#45;&gt;Node5</title>
<path fill="none" stroke="#9a32cd" stroke-dasharray="5,2" d="M436.645,-120.387C440.476,-121.037 444.292,-121.622 448,-122.106 652.779,-148.831 902.119,-151.906 985.943,-152.141"/>
<polygon fill="#9a32cd" stroke="#9a32cd" points="437.001,-116.894 426.535,-118.537 435.741,-123.78 437.001,-116.894"/>
<text text-anchor="middle" x="757" y="-161.106" font-family="Helvetica,sans-Serif" font-size="10.00"> m_currentRoot</text>
<text text-anchor="middle" x="757" y="-150.106" font-family="Helvetica,sans-Serif" font-size="10.00">m_shadowRoot</text>
</g>
<!-- Node8 -->
<g id="node8" class="node"><title>Node8</title>
<polygon fill="white" stroke="#bfbfbf" points="552,-95.6058 552,-114.606 704,-114.606 704,-95.6058 552,-95.6058"/>
<text text-anchor="middle" x="628" y="-102.606" font-family="Helvetica,sans-Serif" font-size="10.00">std::vector&lt; VoxelTreeNode * &gt;</text>
</g>
<!-- Node1&#45;&gt;Node8 -->
<g id="edge11" class="edge"><title>Node1&#45;&gt;Node8</title>
<path fill="none" stroke="#9a32cd" stroke-dasharray="5,2" d="M437.014,-108.259C470.289,-107.707 514.302,-106.976 551.587,-106.357"/>
<polygon fill="#9a32cd" stroke="#9a32cd" points="436.55,-104.766 426.61,-108.432 436.667,-111.765 436.55,-104.766"/>
<text text-anchor="middle" x="491" y="-110.106" font-family="Helvetica,sans-Serif" font-size="10.00"> elements</text>
</g>
<!-- Node12 -->
<g id="node12" class="node"><title>Node12</title>
<polygon fill="white" stroke="#bfbfbf" points="558,-34.6058 558,-53.6058 698,-53.6058 698,-34.6058 558,-34.6058"/>
<text text-anchor="middle" x="628" y="-41.6058" font-family="Helvetica,sans-Serif" font-size="10.00">std::list&lt; VoxelTreeNode * &gt;</text>
</g>
<!-- Node1&#45;&gt;Node12 -->
<g id="edge17" class="edge"><title>Node1&#45;&gt;Node12</title>
<path fill="none" stroke="#9a32cd" stroke-dasharray="5,2" d="M408.941,-94.1473C420.282,-87.3824 434.421,-79.8565 448,-75.1058 483.128,-62.8161 523.904,-55.2696 557.657,-50.7048"/>
<polygon fill="#9a32cd" stroke="#9a32cd" points="406.819,-91.3437 400.147,-99.5731 410.495,-97.3011 406.819,-91.3437"/>
<text text-anchor="middle" x="491" y="-78.1058" font-family="Helvetica,sans-Serif" font-size="10.00"> elements</text>
</g>
<!-- Node2&#45;&gt;Node1 -->
<g id="edge1" class="edge"><title>Node2&#45;&gt;Node1</title>
<path fill="none" stroke="#9a32cd" stroke-dasharray="5,2" d="M597.724,-208.043C579.511,-201.329 555.535,-192.795 534,-186.106 496.215,-174.37 482.93,-181.689 448,-163.106 426.325,-151.574 405.788,-131.162 394.644,-119.008"/>
<polygon fill="#9a32cd" stroke="#9a32cd" points="596.605,-211.361 607.198,-211.562 599.043,-204.799 596.605,-211.361"/>
<text text-anchor="middle" x="491" y="-189.106" font-family="Helvetica,sans-Serif" font-size="10.00"> m_voxel</text>
</g>
<!-- Node6 -->
<g id="node6" class="node"><title>Node6</title>
<g id="a_node6"><a xlink:href="class_world_object.html" target="_top" xlink:title="WorldObject">
<polygon fill="white" stroke="red" points="810.5,-189.606 810.5,-208.606 881.5,-208.606 881.5,-189.606 810.5,-189.606"/>
<text text-anchor="middle" x="846" y="-196.606" font-family="Helvetica,sans-Serif" font-size="10.00">WorldObject</text>
</a>
</g>
</g>
<!-- Node2&#45;&gt;Node6 -->
<g id="edge7" class="edge"><title>Node2&#45;&gt;Node6</title>
<path fill="none" stroke="#9a32cd" stroke-dasharray="5,2" d="M658.616,-216.364C698.164,-212.702 768.104,-206.226 810.146,-202.333"/>
<polygon fill="#9a32cd" stroke="#9a32cd" points="658.184,-212.889 648.55,-217.296 658.83,-219.859 658.184,-212.889"/>
<text text-anchor="middle" x="757" y="-213.106" font-family="Helvetica,sans-Serif" font-size="10.00"> m_crucialVoxel</text>
</g>
<!-- Node3 -->
<g id="node3" class="node"><title>Node3</title>
<g id="a_node3"><a xlink:href="class_visuals.html" target="_top" xlink:title="Visuals">
<polygon fill="white" stroke="black" points="360.5,-288.606 360.5,-307.606 409.5,-307.606 409.5,-288.606 360.5,-288.606"/>
<text text-anchor="middle" x="385" y="-295.606" font-family="Helvetica,sans-Serif" font-size="10.00">Visuals</text>
</a>
</g>
</g>
<!-- Node3&#45;&gt;Node2 -->
<g id="edge2" class="edge"><title>Node3&#45;&gt;Node2</title>
<path fill="none" stroke="#9a32cd" stroke-dasharray="5,2" d="M419.764,-294.418C450.27,-290.404 496.067,-282.669 534,-269.106 563.344,-258.613 594.727,-240.007 612.5,-228.69"/>
<polygon fill="#9a32cd" stroke="#9a32cd" points="419.137,-290.969 409.65,-295.685 420.007,-297.915 419.137,-290.969"/>
<text text-anchor="middle" x="491" y="-292.106" font-family="Helvetica,sans-Serif" font-size="10.00"> m_visuals</text>
</g>
<!-- Node4 -->
<g id="node4" class="node"><title>Node4</title>
<g id="a_node4"><a xlink:href="class_property.html" target="_top" xlink:title="Property\&lt; float \&gt;">
<polygon fill="white" stroke="red" points="340.5,-243.606 340.5,-262.606 429.5,-262.606 429.5,-243.606 340.5,-243.606"/>
<text text-anchor="middle" x="385" y="-250.606" font-family="Helvetica,sans-Serif" font-size="10.00">Property&lt; float &gt;</text>
</a>
</g>
</g>
<!-- Node4&#45;&gt;Node2 -->
<g id="edge3" class="edge"><title>Node4&#45;&gt;Node2</title>
<path fill="none" stroke="#9a32cd" stroke-dasharray="5,2" d="M439.581,-245.547C492.709,-238.052 571.251,-226.971 607.438,-221.866"/>
<polygon fill="#9a32cd" stroke="#9a32cd" points="439.056,-242.086 429.643,-246.949 440.034,-249.017 439.056,-242.086"/>
<text text-anchor="middle" x="491" y="-257.106" font-family="Helvetica,sans-Serif" font-size="10.00"> s_defaultHp</text>
<text text-anchor="middle" x="491" y="-246.106" font-family="Helvetica,sans-Serif" font-size="10.00">s_defaultMass</text>
</g>
<!-- Node5&#45;&gt;Node1 -->
<g id="edge5" class="edge"><title>Node5&#45;&gt;Node1</title>
<path fill="none" stroke="#9a32cd" stroke-dasharray="5,2" d="M988.004,-137.887C935.144,-110.778 813.574,-52.0094 704,-25.1058 630.3,-7.01017 609.806,-12.6653 534,-9.10582 495.82,-7.31307 481.397,9.48331 448,-9.10582 412.481,-28.8757 394.719,-78.3359 388.57,-99.3811"/>
<polygon fill="#9a32cd" stroke="#9a32cd" points="986.565,-141.083 997.056,-142.566 989.78,-134.865 986.565,-141.083"/>
<text text-anchor="middle" x="757" y="-54.1058" font-family="Helvetica,sans-Serif" font-size="10.00"> m_voxelTree</text>
</g>
<!-- Node6&#45;&gt;Node5 -->
<g id="edge6" class="edge"><title>Node6&#45;&gt;Node5</title>
<path fill="none" stroke="#9a32cd" stroke-dasharray="5,2" d="M891.522,-187.229C914.412,-181.055 942.738,-173.312 968,-166.106 973.813,-164.448 980.017,-162.632 985.948,-160.875"/>
<polygon fill="#9a32cd" stroke="#9a32cd" points="890.491,-183.882 881.744,-189.86 892.31,-190.641 890.491,-183.882"/>
<text text-anchor="middle" x="934" y="-187.106" font-family="Helvetica,sans-Serif" font-size="10.00"> m_worldObject</text>
</g>
<!-- Node7 -->
<g id="node7" class="node"><title>Node7</title>
<g id="a_node7"><a xlink:href="class_grid_a_a_b_b.html" target="_top" xlink:title="GridAABB">
<polygon fill="white" stroke="black" points="120,-137.606 120,-156.606 182,-156.606 182,-137.606 120,-137.606"/>
<text text-anchor="middle" x="151" y="-144.606" font-family="Helvetica,sans-Serif" font-size="10.00">GridAABB</text>
</a>
</g>
</g>
<!-- Node7&#45;&gt;Node1 -->
<g id="edge9" class="edge"><title>Node7&#45;&gt;Node1</title>
<path fill="none" stroke="#9a32cd" stroke-dasharray="5,2" d="M192.418,-142.824C226.98,-138.879 277.968,-132.388 322,-124.106 330.272,-122.55 339.096,-120.596 347.417,-118.617"/>
<polygon fill="#9a32cd" stroke="#9a32cd" points="191.792,-139.372 182.245,-143.965 192.573,-146.328 191.792,-139.372"/>
<text text-anchor="middle" x="261" y="-144.106" font-family="Helvetica,sans-Serif" font-size="10.00"> m_gridAABB</text>
</g>
<!-- Node8&#45;&gt;Node1 -->
<g id="edge10" class="edge"><title>Node8&#45;&gt;Node1</title>
<path fill="none" stroke="#9a32cd" stroke-dasharray="5,2" d="M559.043,-94.3941C525.523,-90.675 484.542,-88.4667 448,-93.1058 437.634,-94.4219 426.521,-96.9287 416.607,-99.5743"/>
<polygon fill="#9a32cd" stroke="#9a32cd" points="558.852,-97.8957 569.194,-95.5908 559.672,-90.9439 558.852,-97.8957"/>
<text text-anchor="middle" x="491" y="-96.1058" font-family="Helvetica,sans-Serif" font-size="10.00"> m_subnodes</text>
</g>
<!-- Node9 -->
<g id="node9" class="node"><title>Node9</title>
<g id="a_node9"><a xlink:href="class_transform.html" target="_top" xlink:title="Transform">
<polygon fill="white" stroke="black" points="121.5,-99.6058 121.5,-118.606 180.5,-118.606 180.5,-99.6058 121.5,-99.6058"/>
<text text-anchor="middle" x="151" y="-106.606" font-family="Helvetica,sans-Serif" font-size="10.00">Transform</text>
</a>
</g>
</g>
<!-- Node9&#45;&gt;Node1 -->
<g id="edge12" class="edge"><title>Node9&#45;&gt;Node1</title>
<path fill="none" stroke="#9a32cd" stroke-dasharray="5,2" d="M191.102,-109.106C233.398,-109.106 300.513,-109.106 343.389,-109.106"/>
<polygon fill="#9a32cd" stroke="#9a32cd" points="190.914,-105.606 180.914,-109.106 190.914,-112.606 190.914,-105.606"/>
<text text-anchor="middle" x="261" y="-112.106" font-family="Helvetica,sans-Serif" font-size="10.00"> m_cachedSphereTransform</text>
</g>
<!-- Node10 -->
<g id="node10" class="node"><title>Node10</title>
<g id="a_node10"><a xlink:href="class_sphere.html" target="_top" xlink:title="Sphere">
<polygon fill="white" stroke="black" points="127.5,-61.6058 127.5,-80.6058 174.5,-80.6058 174.5,-61.6058 127.5,-61.6058"/>
<text text-anchor="middle" x="151" y="-68.6058" font-family="Helvetica,sans-Serif" font-size="10.00">Sphere</text>
</a>
</g>
</g>
<!-- Node10&#45;&gt;Node1 -->
<g id="edge13" class="edge"><title>Node10&#45;&gt;Node1</title>
<path fill="none" stroke="#9a32cd" stroke-dasharray="5,2" d="M184.611,-74.5085C218.952,-78.3271 274.519,-85.1748 322,-94.1058 330.272,-95.6617 339.096,-97.6158 347.417,-99.5945"/>
<polygon fill="#9a32cd" stroke="#9a32cd" points="184.989,-71.0291 174.668,-73.4218 184.228,-77.9876 184.989,-71.0291"/>
<text text-anchor="middle" x="261" y="-97.1058" font-family="Helvetica,sans-Serif" font-size="10.00"> m_sphere</text>
</g>
<!-- Node11 -->
<g id="node11" class="node"><title>Node11</title>
<g id="a_node11"><a xlink:href="class_abstract_shape.html" target="_top" xlink:title="AbstractShape">
<polygon fill="white" stroke="black" points="0.5,-61.6058 0.5,-80.6058 81.5,-80.6058 81.5,-61.6058 0.5,-61.6058"/>
<text text-anchor="middle" x="41" y="-68.6058" font-family="Helvetica,sans-Serif" font-size="10.00">AbstractShape</text>
</a>
</g>
</g>
<!-- Node11&#45;&gt;Node10 -->
<g id="edge14" class="edge"><title>Node11&#45;&gt;Node10</title>
<path fill="none" stroke="midnightblue" d="M91.9001,-71.1058C104.31,-71.1058 117.011,-71.1058 127.36,-71.1058"/>
<polygon fill="midnightblue" stroke="midnightblue" points="91.602,-67.6059 81.602,-71.1058 91.6019,-74.6059 91.602,-67.6059"/>
</g>
<!-- Node12&#45;&gt;Node1 -->
<g id="edge16" class="edge"><title>Node12&#45;&gt;Node1</title>
<path fill="none" stroke="#9a32cd" stroke-dasharray="5,2" d="M595.434,-30.7924C558.131,-17.2287 495.176,-1.29151 448,-25.1058 416.609,-40.9518 397.19,-81.0207 389.625,-99.4997"/>
<polygon fill="#9a32cd" stroke="#9a32cd" points="594.65,-34.2386 605.241,-34.5201 597.137,-27.6953 594.65,-34.2386"/>
<text text-anchor="middle" x="491" y="-28.1058" font-family="Helvetica,sans-Serif" font-size="10.00"> m_activeSubnodes</text>
</g>
</g>
</svg>
