<?xml version="1.0" encoding="UTF-8" standalone="no"?>
<!DOCTYPE svg PUBLIC "-//W3C//DTD SVG 1.1//EN"
 "http://www.w3.org/Graphics/SVG/1.1/DTD/svg11.dtd">
<!-- Generated by graphviz version 2.36.0 (20140111.2315)
 -->
<!-- Title: VoxelParticleRemoveCheck Pages: 1 -->
<svg width="281pt" height="96pt"
 viewBox="0.00 0.00 281.00 96.00" xmlns="http://www.w3.org/2000/svg" xmlns:xlink="http://www.w3.org/1999/xlink">
<g id="graph0" class="graph" transform="scale(1 1) rotate(0) translate(4 92)">
<title>VoxelParticleRemoveCheck</title>
<polygon fill="white" stroke="none" points="-4,4 -4,-92 277,-92 277,4 -4,4"/>
<!-- Node1 -->
<g id="node1" class="node"><title>Node1</title>
<polygon fill="#bfbfbf" stroke="black" points="69.5,-68.5 69.5,-87.5 206.5,-87.5 206.5,-68.5 69.5,-68.5"/>
<text text-anchor="middle" x="138" y="-75.5" font-family="Helvetica,sans-Serif" font-size="10.00">VoxelParticleRemoveCheck</text>
</g>
<!-- Node2 -->
<g id="node2" class="node"><title>Node2</title>
<g id="a_node2"><a xlink:href="class_voxel_particle_expire_check.html" target="_top" xlink:title="VoxelParticleExpireCheck">
<polygon fill="white" stroke="black" points="0,-6.5 0,-25.5 130,-25.5 130,-6.5 0,-6.5"/>
<text text-anchor="middle" x="65" y="-13.5" font-family="Helvetica,sans-Serif" font-size="10.00">VoxelParticleExpireCheck</text>
</a>
</g>
</g>
<!-- Node1&#45;&gt;Node2 -->
<g id="edge1" class="edge"><title>Node1&#45;&gt;Node2</title>
<path fill="none" stroke="midnightblue" d="M119.563,-61.8464C105.601,-50.3706 86.9238,-35.0195 75.4397,-25.5806"/>
<polygon fill="midnightblue" stroke="midnightblue" points="117.593,-64.7577 127.541,-68.4035 122.038,-59.3499 117.593,-64.7577"/>
</g>
<!-- Node3 -->
<g id="node3" class="node"><title>Node3</title>
<g id="a_node3"><a xlink:href="class_voxel_particle_intersection_check.html" target="_top" xlink:title="VoxelParticleIntersection\lCheck">
<polygon fill="white" stroke="black" points="148.5,-1 148.5,-31 273.5,-31 273.5,-1 148.5,-1"/>
<text text-anchor="start" x="156.5" y="-19" font-family="Helvetica,sans-Serif" font-size="10.00">VoxelParticleIntersection</text>
<text text-anchor="middle" x="211" y="-8" font-family="Helvetica,sans-Serif" font-size="10.00">Check</text>
</a>
</g>
</g>
<!-- Node1&#45;&gt;Node3 -->
<g id="edge2" class="edge"><title>Node1&#45;&gt;Node3</title>
<path fill="none" stroke="midnightblue" d="M156.5,-61.7947C167.962,-52.3738 182.583,-40.3562 193.795,-31.1408"/>
<polygon fill="midnightblue" stroke="midnightblue" points="153.962,-59.3499 148.459,-68.4035 158.407,-64.7577 153.962,-59.3499"/>
</g>
</g>
</svg>
