<?xml version="1.0" encoding="UTF-8" standalone="no"?>
<!DOCTYPE svg PUBLIC "-//W3C//DTD SVG 1.1//EN"
 "http://www.w3.org/Graphics/SVG/1.1/DTD/svg11.dtd">
<!-- Generated by graphviz version 2.36.0 (20140111.2315)
 -->
<!-- Title: MissionScript Pages: 1 -->
<svg width="237pt" height="164pt"
 viewBox="0.00 0.00 237.00 164.00" xmlns="http://www.w3.org/2000/svg" xmlns:xlink="http://www.w3.org/1999/xlink">
<g id="graph0" class="graph" transform="scale(1 1) rotate(0) translate(4 160)">
<title>MissionScript</title>
<polygon fill="white" stroke="none" points="-4,4 -4,-160 233,-160 233,4 -4,4"/>
<!-- Node1 -->
<g id="node1" class="node"><title>Node1</title>
<polygon fill="#bfbfbf" stroke="black" points="123,-0.5 123,-19.5 199,-19.5 199,-0.5 123,-0.5"/>
<text text-anchor="middle" x="161" y="-7.5" font-family="Helvetica,sans-Serif" font-size="10.00">MissionScript</text>
</g>
<!-- Node2 -->
<g id="node2" class="node"><title>Node2</title>
<g id="a_node2"><a xlink:href="class_game_play_script.html" target="_top" xlink:title="GamePlayScript">
<polygon fill="white" stroke="black" points="52,-68.5 52,-87.5 140,-87.5 140,-68.5 52,-68.5"/>
<text text-anchor="middle" x="96" y="-75.5" font-family="Helvetica,sans-Serif" font-size="10.00">GamePlayScript</text>
</a>
</g>
</g>
<!-- Node2&#45;&gt;Node1 -->
<g id="edge1" class="edge"><title>Node2&#45;&gt;Node1</title>
<path fill="none" stroke="midnightblue" d="M111.711,-61.0474C124.451,-48.1111 141.937,-30.3567 152.293,-19.8411"/>
<polygon fill="midnightblue" stroke="midnightblue" points="109.021,-58.7909 104.498,-68.3717 114.008,-63.7027 109.021,-58.7909"/>
</g>
<!-- Node3 -->
<g id="node3" class="node"><title>Node3</title>
<g id="a_node3"><a xlink:href="class_script.html" target="_top" xlink:title="Script">
<polygon fill="white" stroke="red" points="0,-136.5 0,-155.5 42,-155.5 42,-136.5 0,-136.5"/>
<text text-anchor="middle" x="21" y="-143.5" font-family="Helvetica,sans-Serif" font-size="10.00">Script</text>
</a>
</g>
</g>
<!-- Node3&#45;&gt;Node2 -->
<g id="edge2" class="edge"><title>Node3&#45;&gt;Node2</title>
<path fill="none" stroke="midnightblue" d="M38.7134,-129.412C53.4469,-116.447 73.891,-98.4559 85.9533,-87.8411"/>
<polygon fill="midnightblue" stroke="midnightblue" points="35.9999,-127.138 30.8049,-136.372 40.6243,-132.393 35.9999,-127.138"/>
</g>
<!-- Node4 -->
<g id="node4" class="node"><title>Node4</title>
<g id="a_node4"><a xlink:href="class_script_engine.html" target="_top" xlink:title="ScriptEngine">
<polygon fill="white" stroke="red" points="60,-136.5 60,-155.5 132,-155.5 132,-136.5 60,-136.5"/>
<text text-anchor="middle" x="96" y="-143.5" font-family="Helvetica,sans-Serif" font-size="10.00">ScriptEngine</text>
</a>
</g>
</g>
<!-- Node4&#45;&gt;Node2 -->
<g id="edge3" class="edge"><title>Node4&#45;&gt;Node2</title>
<path fill="none" stroke="#9a32cd" stroke-dasharray="5,2" d="M96,-126.041C96,-113.472 96,-97.5631 96,-87.8411"/>
<polygon fill="#9a32cd" stroke="#9a32cd" points="92.5001,-126.372 96,-136.372 99.5001,-126.372 92.5001,-126.372"/>
<text text-anchor="middle" x="131.5" y="-109.5" font-family="Helvetica,sans-Serif" font-size="10.00"> m_scriptEngine</text>
</g>
<!-- Node5 -->
<g id="node5" class="node"><title>Node5</title>
<polygon fill="white" stroke="#bfbfbf" points="151.5,-136.5 151.5,-155.5 228.5,-155.5 228.5,-136.5 151.5,-136.5"/>
<text text-anchor="middle" x="190" y="-143.5" font-family="Helvetica,sans-Serif" font-size="10.00">std::list&lt; int &gt;</text>
</g>
<!-- Node5&#45;&gt;Node2 -->
<g id="edge4" class="edge"><title>Node5&#45;&gt;Node2</title>
<path fill="none" stroke="#9a32cd" stroke-dasharray="5,2" d="M183.167,-127.113C179.596,-119.743 174.577,-111.63 168,-106 158.163,-97.5789 145.443,-91.6631 133.438,-87.5629"/>
<polygon fill="#9a32cd" stroke="#9a32cd" points="179.991,-128.589 187.149,-136.399 186.424,-125.829 179.991,-128.589"/>
<text text-anchor="middle" x="199.5" y="-109.5" font-family="Helvetica,sans-Serif" font-size="10.00"> m_locals</text>
</g>
<!-- Node6 -->
<g id="node6" class="node"><title>Node6</title>
<g id="a_node6"><a xlink:href="class_mission.html" target="_top" xlink:title="Mission">
<polygon fill="white" stroke="red" points="158,-68.5 158,-87.5 208,-87.5 208,-68.5 158,-68.5"/>
<text text-anchor="middle" x="183" y="-75.5" font-family="Helvetica,sans-Serif" font-size="10.00">Mission</text>
</a>
</g>
</g>
<!-- Node6&#45;&gt;Node1 -->
<g id="edge5" class="edge"><title>Node6&#45;&gt;Node1</title>
<path fill="none" stroke="#9a32cd" stroke-dasharray="5,2" d="M176.936,-58.8066C172.708,-46.1244 167.254,-29.7615 163.947,-19.8411"/>
<polygon fill="#9a32cd" stroke="#9a32cd" points="173.641,-59.9916 180.124,-68.3717 180.282,-57.778 173.641,-59.9916"/>
<text text-anchor="middle" x="199.5" y="-41.5" font-family="Helvetica,sans-Serif" font-size="10.00"> m_mission</text>
</g>
</g>
</svg>
