<?xml version="1.0" encoding="UTF-8" standalone="no"?>
<!DOCTYPE svg PUBLIC "-//W3C//DTD SVG 1.1//EN"
 "http://www.w3.org/Graphics/SVG/1.1/DTD/svg11.dtd">
<!-- Generated by graphviz version 2.36.0 (20140111.2315)
 -->
<!-- Title: Hudget Pages: 1 -->
<!--zoomable 452 -->
<svg id="main" version="1.1" xmlns="http://www.w3.org/2000/svg" xmlns:xlink="http://www.w3.org/1999/xlink" xml:space="preserve" onload="init(evt)">
<style type="text/css"><![CDATA[
.edge:hover path { stroke: red; }
.edge:hover polygon { stroke: red; fill: red; }
]]></style>
<script type="text/javascript"><![CDATA[
var edges = document.getElementsByTagName('g');
if (edges && edges.length) {
  for (var i=0;i<edges.length;i++) {
    if (edges[i].id.substr(0,4)=='edge') {
      edges[i].setAttribute('class','edge');
    }
  }
}
]]></script>
        <defs>
                <circle id="rim" cx="0" cy="0" r="7"/>
                <circle id="rim2" cx="0" cy="0" r="3.5"/>
                <g id="zoomPlus">
                        <use xlink:href="#rim" fill="#404040">
                                <set attributeName="fill" to="#808080" begin="zoomplus.mouseover" end="zoomplus.mouseout"/>
                        </use>
                        <path d="M-4,0h8M0,-4v8" fill="none" stroke="white" stroke-width="1.5" pointer-events="none"/>
                </g>
                <g id="zoomMin">
                        <use xlink:href="#rim" fill="#404040">
                                <set attributeName="fill" to="#808080" begin="zoomminus.mouseover" end="zoomminus.mouseout"/>
                        </use>
                        <path d="M-4,0h8" fill="none" stroke="white" stroke-width="1.5" pointer-events="none"/>
                </g>
                <g id="dirArrow">
                        <path fill="none" stroke="white" stroke-width="1.5" d="M0,-3.0v7 M-2.5,-0.5L0,-3.0L2.5,-0.5"/>
                </g>
               <g id="resetDef">
                       <use xlink:href="#rim2" fill="#404040">
                               <set attributeName="fill" to="#808080" begin="reset.mouseover" end="reset.mouseout"/>
                       </use>
               </g>
        </defs>

<script type="text/javascript">
var viewWidth = 418;
var viewHeight = 452;
var sectionId = 'dynsection-1';
</script>
<script xlink:href="svgpan.js"/>
<svg id="graph" class="graph">
<g id="viewport">
<title>Hudget</title>
<polygon fill="white" stroke="none" points="-4,4 -4,-448.288 414,-448.288 414,4 -4,4"/>
<!-- Node1 -->
<g id="node1" class="node"><title>Node1</title>
<polygon fill="#bfbfbf" stroke="black" points="0.5,-392.788 0.5,-411.788 47.5,-411.788 47.5,-392.788 0.5,-392.788"/>
<text text-anchor="middle" x="24" y="-399.788" font-family="Helvetica,sans-Serif" font-size="10.00">Hudget</text>
</g>
<!-- Node3 -->
<g id="node3" class="node"><title>Node3</title>
<g id="a_node3"><a xlink:href="class_cross_hair.html" target="_top" xlink:title="CrossHair">
<polygon fill="white" stroke="red" points="137.5,-415.788 137.5,-434.788 196.5,-434.788 196.5,-415.788 137.5,-415.788"/>
<text text-anchor="middle" x="167" y="-422.788" font-family="Helvetica,sans-Serif" font-size="10.00">CrossHair</text>
</a>
</g>
</g>
<!-- Node1&#45;&gt;Node3 -->
<g id="edge3" class="edge"><title>Node1&#45;&gt;Node3</title>
<path fill="none" stroke="midnightblue" d="M57.7393,-407.628C81.8193,-411.556 114.237,-416.844 137.306,-420.607"/>
<polygon fill="midnightblue" stroke="midnightblue" points="58.0871,-404.139 47.6541,-405.983 56.9601,-411.048 58.0871,-404.139"/>
</g>
<!-- Node2 -->
<g id="node2" class="node"><title>Node2</title>
<g id="a_node2"><a xlink:href="class_h_u_d.html" target="_top" xlink:title="HUD">
<polygon fill="white" stroke="black" points="372.5,-204.788 372.5,-223.788 409.5,-223.788 409.5,-204.788 372.5,-204.788"/>
<text text-anchor="middle" x="391" y="-211.788" font-family="Helvetica,sans-Serif" font-size="10.00">HUD</text>
</a>
</g>
</g>
<!-- Node2&#45;&gt;Node1 -->
<g id="edge1" class="edge"><title>Node2&#45;&gt;Node1</title>
<path fill="none" stroke="#9a32cd" stroke-dasharray="5,2" d="M387.646,-234.157C383.088,-269.063 371.9,-339.225 354,-355.288 348.243,-360.454 121.155,-389.96 47.6808,-399.39"/>
<polygon fill="#9a32cd" stroke="#9a32cd" points="391.126,-234.533 388.893,-224.176 384.18,-233.665 391.126,-234.533"/>
<text text-anchor="middle" x="167" y="-397.288" font-family="Helvetica,sans-Serif" font-size="10.00"> m_hud</text>
</g>
<!-- Node3&#45;&gt;Node2 -->
<g id="edge2" class="edge"><title>Node3&#45;&gt;Node2</title>
<path fill="none" stroke="#9a32cd" stroke-dasharray="5,2" d="M206.617,-432.004C248.558,-436.908 314.794,-437.299 354,-400.288 379.95,-375.791 387.773,-259.179 389.555,-224.217"/>
<polygon fill="#9a32cd" stroke="#9a32cd" points="206.878,-428.509 196.509,-430.68 205.969,-435.449 206.878,-428.509"/>
<text text-anchor="middle" x="310" y="-436.288" font-family="Helvetica,sans-Serif" font-size="10.00"> m_crossHair</text>
</g>
<!-- Node4 -->
<g id="node4" class="node"><title>Node4</title>
<g id="a_node4"><a xlink:href="class_handle.html" target="_top" xlink:title="Handle\&lt; WorldObject \&gt;">
<polygon fill="white" stroke="black" points="107.5,-330.788 107.5,-349.788 226.5,-349.788 226.5,-330.788 107.5,-330.788"/>
<text text-anchor="middle" x="167" y="-337.788" font-family="Helvetica,sans-Serif" font-size="10.00">Handle&lt; WorldObject &gt;</text>
</a>
</g>
</g>
<!-- Node4&#45;&gt;Node2 -->
<g id="edge4" class="edge"><title>Node4&#45;&gt;Node2</title>
<path fill="none" stroke="#9a32cd" stroke-dasharray="5,2" d="M236.63,-343.333C275.034,-341.519 321.561,-333.023 354,-306.288 379.809,-285.017 387.188,-242.771 389.238,-223.846"/>
<polygon fill="#9a32cd" stroke="#9a32cd" points="236.424,-339.838 226.545,-343.668 236.656,-346.834 236.424,-339.838"/>
<text text-anchor="middle" x="310" y="-343.288" font-family="Helvetica,sans-Serif" font-size="10.00"> m_target</text>
</g>
<!-- Node5 -->
<g id="node5" class="node"><title>Node5</title>
<polygon fill="white" stroke="#bfbfbf" points="100,-281.288 100,-311.288 234,-311.288 234,-281.288 100,-281.288"/>
<text text-anchor="start" x="108" y="-299.288" font-family="Helvetica,sans-Serif" font-size="10.00">std::unique_ptr&lt; WorldTree</text>
<text text-anchor="middle" x="167" y="-288.288" font-family="Helvetica,sans-Serif" font-size="10.00">Scanner &gt;</text>
</g>
<!-- Node5&#45;&gt;Node2 -->
<g id="edge5" class="edge"><title>Node5&#45;&gt;Node2</title>
<path fill="none" stroke="#9a32cd" stroke-dasharray="5,2" d="M244.381,-293.68C279.856,-289.534 321.312,-280.283 354,-260.288 368.361,-251.504 379.234,-234.77 385.105,-224.09"/>
<polygon fill="#9a32cd" stroke="#9a32cd" points="243.644,-290.238 234.064,-294.764 244.375,-297.2 243.644,-290.238"/>
<text text-anchor="middle" x="310" y="-294.288" font-family="Helvetica,sans-Serif" font-size="10.00"> m_scanner</text>
</g>
<!-- Node6 -->
<g id="node6" class="node"><title>Node6</title>
<g id="a_node6"><a xlink:href="class_aim_helper_hudget.html" target="_top" xlink:title="AimHelperHudget">
<polygon fill="white" stroke="red" points="121,-242.788 121,-261.788 213,-261.788 213,-242.788 121,-242.788"/>
<text text-anchor="middle" x="167" y="-249.788" font-family="Helvetica,sans-Serif" font-size="10.00">AimHelperHudget</text>
</a>
</g>
</g>
<!-- Node6&#45;&gt;Node2 -->
<g id="edge6" class="edge"><title>Node6&#45;&gt;Node2</title>
<path fill="none" stroke="#9a32cd" stroke-dasharray="5,2" d="M223.559,-249.375C260.925,-246.456 311.019,-240.672 354,-229.288 360.152,-227.659 366.64,-225.203 372.388,-222.748"/>
<polygon fill="#9a32cd" stroke="#9a32cd" points="223.09,-245.9 213.374,-250.125 223.604,-252.881 223.09,-245.9"/>
<text text-anchor="middle" x="310" y="-248.288" font-family="Helvetica,sans-Serif" font-size="10.00"> m_aimHelper</text>
</g>
<!-- Node7 -->
<g id="node7" class="node"><title>Node7</title>
<g id="a_node7"><a xlink:href="class_property.html" target="_top" xlink:title="Property\&lt; bool \&gt;">
<polygon fill="white" stroke="red" points="122.5,-204.788 122.5,-223.788 211.5,-223.788 211.5,-204.788 122.5,-204.788"/>
<text text-anchor="middle" x="167" y="-211.788" font-family="Helvetica,sans-Serif" font-size="10.00">Property&lt; bool &gt;</text>
</a>
</g>
</g>
<!-- Node7&#45;&gt;Node2 -->
<g id="edge7" class="edge"><title>Node7&#45;&gt;Node2</title>
<path fill="none" stroke="#9a32cd" stroke-dasharray="5,2" d="M221.708,-214.288C270.653,-214.288 340.073,-214.288 372.297,-214.288"/>
<polygon fill="#9a32cd" stroke="#9a32cd" points="221.595,-210.788 211.595,-214.288 221.595,-217.788 221.595,-210.788"/>
<text text-anchor="middle" x="310" y="-217.288" font-family="Helvetica,sans-Serif" font-size="10.00"> m_drawHud</text>
</g>
<!-- Node8 -->
<g id="node8" class="node"><title>Node8</title>
<polygon fill="white" stroke="#bfbfbf" points="86.5,-166.788 86.5,-185.788 247.5,-185.788 247.5,-166.788 86.5,-166.788"/>
<text text-anchor="middle" x="167" y="-173.788" font-family="Helvetica,sans-Serif" font-size="10.00">std::unique_ptr&lt; HUDElements &gt;</text>
</g>
<!-- Node8&#45;&gt;Node2 -->
<g id="edge8" class="edge"><title>Node8&#45;&gt;Node2</title>
<path fill="none" stroke="#9a32cd" stroke-dasharray="5,2" d="M257.938,-182.435C288.744,-185.848 323.198,-191.13 354,-199.288 360.152,-200.918 366.64,-203.373 372.388,-205.828"/>
<polygon fill="#9a32cd" stroke="#9a32cd" points="257.954,-178.917 247.642,-181.348 257.219,-185.878 257.954,-178.917"/>
<text text-anchor="middle" x="310" y="-202.288" font-family="Helvetica,sans-Serif" font-size="10.00"> m_elements</text>
</g>
<!-- Node9 -->
<g id="node9" class="node"><title>Node9</title>
<g id="a_node9"><a xlink:href="class_sphere.html" target="_top" xlink:title="Sphere">
<polygon fill="white" stroke="red" points="143.5,-128.788 143.5,-147.788 190.5,-147.788 190.5,-128.788 143.5,-128.788"/>
<text text-anchor="middle" x="167" y="-135.788" font-family="Helvetica,sans-Serif" font-size="10.00">Sphere</text>
</a>
</g>
</g>
<!-- Node9&#45;&gt;Node2 -->
<g id="edge9" class="edge"><title>Node9&#45;&gt;Node2</title>
<path fill="none" stroke="#9a32cd" stroke-dasharray="5,2" d="M200.673,-136.898C239.789,-136.7 306.021,-141.138 354,-169.288 368.325,-177.693 379.209,-194.119 385.092,-204.63"/>
<polygon fill="#9a32cd" stroke="#9a32cd" points="200.576,-133.399 190.632,-137.054 200.686,-140.398 200.576,-133.399"/>
<text text-anchor="middle" x="310" y="-172.288" font-family="Helvetica,sans-Serif" font-size="10.00"> m_sphere</text>
</g>
<!-- Node10 -->
<g id="node10" class="node"><title>Node10</title>
<polygon fill="white" stroke="#bfbfbf" points="101,-79.288 101,-109.288 233,-109.288 233,-79.288 101,-79.288"/>
<text text-anchor="start" x="109" y="-97.288" font-family="Helvetica,sans-Serif" font-size="10.00">std::map&lt; WorldObject</text>
<text text-anchor="middle" x="167" y="-86.288" font-family="Helvetica,sans-Serif" font-size="10.00"> *, HUDObjectDelegate * &gt;</text>
</g>
<!-- Node10&#45;&gt;Node2 -->
<g id="edge10" class="edge"><title>Node10&#45;&gt;Node2</title>
<path fill="none" stroke="#9a32cd" stroke-dasharray="5,2" d="M243.552,-91.4461C280.397,-93.8119 323.274,-102.592 354,-127.288 378.59,-147.052 386.564,-186.464 389,-204.665"/>
<polygon fill="#9a32cd" stroke="#9a32cd" points="243.496,-87.9391 233.335,-90.941 243.15,-94.9306 243.496,-87.9391"/>
<text text-anchor="middle" x="310" y="-130.288" font-family="Helvetica,sans-Serif" font-size="10.00"> m_objectDelegates</text>
</g>
<!-- Node11 -->
<g id="node11" class="node"><title>Node11</title>
<g id="a_node11"><a xlink:href="class_player.html" target="_top" xlink:title="Player">
<polygon fill="white" stroke="red" points="145,-40.788 145,-59.788 189,-59.788 189,-40.788 145,-40.788"/>
<text text-anchor="middle" x="167" y="-47.788" font-family="Helvetica,sans-Serif" font-size="10.00">Player</text>
</a>
</g>
</g>
<!-- Node11&#45;&gt;Node2 -->
<g id="edge11" class="edge"><title>Node11&#45;&gt;Node2</title>
<path fill="none" stroke="#9a32cd" stroke-dasharray="5,2" d="M199.396,-45.6655C240.275,-41.5344 311.505,-41.0719 354,-79.288 391.154,-112.701 391.824,-179.755 390.669,-204.674"/>
<polygon fill="#9a32cd" stroke="#9a32cd" points="198.742,-42.2175 189.207,-46.8359 199.541,-49.1718 198.742,-42.2175"/>
<text text-anchor="middle" x="310" y="-82.288" font-family="Helvetica,sans-Serif" font-size="10.00"> m_player</text>
</g>
<!-- Node12 -->
<g id="node12" class="node"><title>Node12</title>
<g id="a_node12"><a xlink:href="class_viewer.html" target="_top" xlink:title="Viewer">
<polygon fill="white" stroke="red" points="144,-2.78801 144,-21.788 190,-21.788 190,-2.78801 144,-2.78801"/>
<text text-anchor="middle" x="167" y="-9.78801" font-family="Helvetica,sans-Serif" font-size="10.00">Viewer</text>
</a>
</g>
</g>
<!-- Node12&#45;&gt;Node2 -->
<g id="edge12" class="edge"><title>Node12&#45;&gt;Node2</title>
<path fill="none" stroke="#9a32cd" stroke-dasharray="5,2" d="M200.274,-5.15943C241.443,1.87243 312.292,6.73186 354,-31.288 379.963,-54.9557 387.777,-169.989 389.556,-204.488"/>
<polygon fill="#9a32cd" stroke="#9a32cd" points="199.431,-1.75581 190.236,-7.01831 200.706,-8.63878 199.431,-1.75581"/>
<text text-anchor="middle" x="310" y="-34.288" font-family="Helvetica,sans-Serif" font-size="10.00"> m_viewer</text>
</g>
</g>
</svg>
        <g id="navigator" transform="translate(0 0)" fill="#404254">
                <rect fill="#f2f5e9" fill-opacity="0.5" stroke="#606060" stroke-width=".5" x="0" y="0" width="60" height="60"/>
                <use id="zoomplus" xlink:href="#zoomPlus" x="17" y="9" onmousedown="handleZoom(evt,'in')"/>
                <use id="zoomminus" xlink:href="#zoomMin" x="42" y="9" onmousedown="handleZoom(evt,'out')"/>
                <use id="reset" xlink:href="#resetDef" x="30" y="36" onmousedown="handleReset()"/>
                <g id="arrowUp" xlink:href="#dirArrow" transform="translate(30 24)" onmousedown="handlePan(0,-1)">
                  <use xlink:href="#rim" fill="#404040">
                        <set attributeName="fill" to="#808080" begin="arrowUp.mouseover" end="arrowUp.mouseout"/>
                  </use>
                  <path fill="none" stroke="white" stroke-width="1.5" d="M0,-3.0v7 M-2.5,-0.5L0,-3.0L2.5,-0.5"/>
                </g>
                <g id="arrowRight" xlink:href="#dirArrow" transform="rotate(90) translate(36 -43)" onmousedown="handlePan(1,0)">
                  <use xlink:href="#rim" fill="#404040">
                        <set attributeName="fill" to="#808080" begin="arrowRight.mouseover" end="arrowRight.mouseout"/>
                  </use>
                  <path fill="none" stroke="white" stroke-width="1.5" d="M0,-3.0v7 M-2.5,-0.5L0,-3.0L2.5,-0.5"/>
                </g>
                <g id="arrowDown" xlink:href="#dirArrow" transform="rotate(180) translate(-30 -48)" onmousedown="handlePan(0,1)">
                  <use xlink:href="#rim" fill="#404040">
                        <set attributeName="fill" to="#808080" begin="arrowDown.mouseover" end="arrowDown.mouseout"/>
                  </use>
                  <path fill="none" stroke="white" stroke-width="1.5" d="M0,-3.0v7 M-2.5,-0.5L0,-3.0L2.5,-0.5"/>
                </g>
                <g id="arrowLeft" xlink:href="#dirArrow" transform="rotate(270) translate(-36 17)" onmousedown="handlePan(-1,0)">
                  <use xlink:href="#rim" fill="#404040">
                        <set attributeName="fill" to="#808080" begin="arrowLeft.mouseover" end="arrowLeft.mouseout"/>
                  </use>
                  <path fill="none" stroke="white" stroke-width="1.5" d="M0,-3.0v7 M-2.5,-0.5L0,-3.0L2.5,-0.5"/>
                </g>
        </g>
        <svg viewBox="0 0 15 15" width="100%" height="30px" preserveAspectRatio="xMaxYMin meet">
         <g id="arrow_out" transform="scale(0.3 0.3)">
          <a xlink:href="class_hudget__coll__graph_org.svg" target="_base">
           <rect id="button" ry="5" rx="5" y="6" x="6" height="38" width="38"
                fill="#f2f5e9" fill-opacity="0.5" stroke="#606060" stroke-width="1.0"/>
           <path id="arrow"
             d="M 11.500037,31.436501 C 11.940474,20.09759 22.043105,11.32322 32.158766,21.979434 L 37.068811,17.246167 C 37.068811,17.246167 37.088388,32 37.088388,32 L 22.160133,31.978069 C 22.160133,31.978069 26.997745,27.140456 26.997745,27.140456 C 18.528582,18.264221 13.291696,25.230495 11.500037,31.436501 z"
             style="fill:#404040;"/>
          </a>
         </g>
        </svg>
</svg>
