<?xml version="1.0" encoding="UTF-8" standalone="no"?>
<!DOCTYPE svg PUBLIC "-//W3C//DTD SVG 1.1//EN"
 "http://www.w3.org/Graphics/SVG/1.1/DTD/svg11.dtd">
<!-- Generated by graphviz version 2.36.0 (20140111.2315)
 -->
<!-- Title: MissionSystem Pages: 1 -->
<svg width="140pt" height="176pt"
 viewBox="0.00 0.00 140.00 176.00" xmlns="http://www.w3.org/2000/svg" xmlns:xlink="http://www.w3.org/1999/xlink">
<g id="graph0" class="graph" transform="scale(1 1) rotate(0) translate(4 172)">
<title>MissionSystem</title>
<polygon fill="white" stroke="none" points="-4,4 -4,-172 136,-172 136,4 -4,4"/>
<!-- Node1 -->
<g id="node1" class="node"><title>Node1</title>
<polygon fill="#bfbfbf" stroke="black" points="24,-0.5 24,-19.5 108,-19.5 108,-0.5 24,-0.5"/>
<text text-anchor="middle" x="66" y="-7.5" font-family="Helvetica,sans-Serif" font-size="10.00">MissionSystem</text>
</g>
<!-- Node2 -->
<g id="node2" class="node"><title>Node2</title>
<polygon fill="white" stroke="#bfbfbf" points="13,-69 13,-99 119,-99 119,-69 13,-69"/>
<text text-anchor="start" x="21" y="-87" font-family="Helvetica,sans-Serif" font-size="10.00">std::list&lt; std::unique</text>
<text text-anchor="middle" x="66" y="-76" font-family="Helvetica,sans-Serif" font-size="10.00">_ptr&lt; Mission &gt; &gt;</text>
</g>
<!-- Node2&#45;&gt;Node1 -->
<g id="edge1" class="edge"><title>Node2&#45;&gt;Node1</title>
<path fill="none" stroke="#9a32cd" stroke-dasharray="5,2" d="M66,-58.6883C66,-45.2526 66,-29.3805 66,-19.7589"/>
<polygon fill="#9a32cd" stroke="#9a32cd" points="62.5001,-58.7751 66,-68.7751 69.5001,-58.7752 62.5001,-58.7751"/>
<text text-anchor="middle" x="94" y="-41.5" font-family="Helvetica,sans-Serif" font-size="10.00"> m_missions</text>
</g>
<!-- Node3 -->
<g id="node3" class="node"><title>Node3</title>
<polygon fill="white" stroke="#bfbfbf" points="-0.5,-148.5 -0.5,-167.5 132.5,-167.5 132.5,-148.5 -0.5,-148.5"/>
<text text-anchor="middle" x="66" y="-155.5" font-family="Helvetica,sans-Serif" font-size="10.00">std::unique_ptr&lt; Mission &gt;</text>
</g>
<!-- Node3&#45;&gt;Node2 -->
<g id="edge2" class="edge"><title>Node3&#45;&gt;Node2</title>
<path fill="none" stroke="#9a32cd" stroke-dasharray="5,2" d="M66,-138.085C66,-125.915 66,-110.354 66,-99.2316"/>
<polygon fill="#9a32cd" stroke="#9a32cd" points="62.5001,-138.458 66,-148.458 69.5001,-138.458 62.5001,-138.458"/>
<text text-anchor="middle" x="87.5" y="-121.5" font-family="Helvetica,sans-Serif" font-size="10.00"> elements</text>
</g>
</g>
</svg>
