<?xml version="1.0" encoding="UTF-8" standalone="no"?>
<!DOCTYPE svg PUBLIC "-//W3C//DTD SVG 1.1//EN"
 "http://www.w3.org/Graphics/SVG/1.1/DTD/svg11.dtd">
<!-- Generated by graphviz version 2.36.0 (20140111.2315)
 -->
<!-- Title: Character Pages: 1 -->
<!--zoomable 266 -->
<svg id="main" version="1.1" xmlns="http://www.w3.org/2000/svg" xmlns:xlink="http://www.w3.org/1999/xlink" xml:space="preserve" onload="init(evt)">
<style type="text/css"><![CDATA[
.edge:hover path { stroke: red; }
.edge:hover polygon { stroke: red; fill: red; }
]]></style>
<script type="text/javascript"><![CDATA[
var edges = document.getElementsByTagName('g');
if (edges && edges.length) {
  for (var i=0;i<edges.length;i++) {
    if (edges[i].id.substr(0,4)=='edge') {
      edges[i].setAttribute('class','edge');
    }
  }
}
]]></script>
        <defs>
                <circle id="rim" cx="0" cy="0" r="7"/>
                <circle id="rim2" cx="0" cy="0" r="3.5"/>
                <g id="zoomPlus">
                        <use xlink:href="#rim" fill="#404040">
                                <set attributeName="fill" to="#808080" begin="zoomplus.mouseover" end="zoomplus.mouseout"/>
                        </use>
                        <path d="M-4,0h8M0,-4v8" fill="none" stroke="white" stroke-width="1.5" pointer-events="none"/>
                </g>
                <g id="zoomMin">
                        <use xlink:href="#rim" fill="#404040">
                                <set attributeName="fill" to="#808080" begin="zoomminus.mouseover" end="zoomminus.mouseout"/>
                        </use>
                        <path d="M-4,0h8" fill="none" stroke="white" stroke-width="1.5" pointer-events="none"/>
                </g>
                <g id="dirArrow">
                        <path fill="none" stroke="white" stroke-width="1.5" d="M0,-3.0v7 M-2.5,-0.5L0,-3.0L2.5,-0.5"/>
                </g>
               <g id="resetDef">
                       <use xlink:href="#rim2" fill="#404040">
                               <set attributeName="fill" to="#808080" begin="reset.mouseover" end="reset.mouseout"/>
                       </use>
               </g>
        </defs>

<script type="text/javascript">
var viewWidth = 824;
var viewHeight = 266;
var sectionId = 'dynsection-0';
</script>
<script xlink:href="svgpan.js"/>
<svg id="graph" class="graph">
<g id="viewport">
<title>Character</title>
<polygon fill="white" stroke="none" points="-4,4 -4,-261.544 820,-261.544 820,4 -4,4"/>
<!-- Node1 -->
<g id="node1" class="node"><title>Node1</title>
<polygon fill="#bfbfbf" stroke="black" points="320.5,-7.04423 320.5,-26.0442 379.5,-26.0442 379.5,-7.04423 320.5,-7.04423"/>
<text text-anchor="middle" x="350" y="-14.0442" font-family="Helvetica,sans-Serif" font-size="10.00">Character</text>
</g>
<!-- Node7 -->
<g id="node7" class="node"><title>Node7</title>
<polygon fill="white" stroke="#bfbfbf" points="505.5,-27.0442 505.5,-46.0442 646.5,-46.0442 646.5,-27.0442 505.5,-27.0442"/>
<text text-anchor="middle" x="576" y="-34.0442" font-family="Helvetica,sans-Serif" font-size="10.00">std::unique_ptr&lt; Character &gt;</text>
</g>
<!-- Node1&#45;&gt;Node7 -->
<g id="edge8" class="edge"><title>Node1&#45;&gt;Node7</title>
<path fill="none" stroke="#9a32cd" stroke-dasharray="5,2" d="M390.031,-20.0292C421.783,-22.8642 467.39,-26.9361 505.371,-30.3273"/>
<polygon fill="#9a32cd" stroke="#9a32cd" points="390.097,-16.5212 379.826,-19.1179 389.475,-23.4935 390.097,-16.5212"/>
<text text-anchor="middle" x="451" y="-29.5442" font-family="Helvetica,sans-Serif" font-size="10.00"> ptr</text>
</g>
<!-- Node2 -->
<g id="node2" class="node"><title>Node2</title>
<g id="a_node2"><a xlink:href="class_faction.html" target="_top" xlink:title="Faction">
<polygon fill="white" stroke="black" points="158.5,-7.04423 158.5,-26.0442 207.5,-26.0442 207.5,-7.04423 158.5,-7.04423"/>
<text text-anchor="middle" x="183" y="-14.0442" font-family="Helvetica,sans-Serif" font-size="10.00">Faction</text>
</a>
</g>
</g>
<!-- Node2&#45;&gt;Node1 -->
<g id="edge1" class="edge"><title>Node2&#45;&gt;Node1</title>
<path fill="none" stroke="#9a32cd" stroke-dasharray="5,2" d="M217.722,-16.5442C247.966,-16.5442 291.858,-16.5442 320.415,-16.5442"/>
<polygon fill="#9a32cd" stroke="#9a32cd" points="217.641,-13.0443 207.64,-16.5442 217.64,-20.0443 217.641,-13.0443"/>
<text text-anchor="middle" x="249" y="-19.5442" font-family="Helvetica,sans-Serif" font-size="10.00"> m_faction</text>
</g>
<!-- Node3 -->
<g id="node3" class="node"><title>Node3</title>
<g id="a_node3"><a xlink:title="STL class. ">
<polygon fill="white" stroke="#bfbfbf" points="0,-7.04423 0,-26.0442 60,-26.0442 60,-7.04423 0,-7.04423"/>
<text text-anchor="middle" x="30" y="-14.0442" font-family="Helvetica,sans-Serif" font-size="10.00">std::string</text>
</a>
</g>
</g>
<!-- Node3&#45;&gt;Node2 -->
<g id="edge2" class="edge"><title>Node3&#45;&gt;Node2</title>
<path fill="none" stroke="#9a32cd" stroke-dasharray="5,2" d="M70.3559,-16.5442C98.3009,-16.5442 134.892,-16.5442 158.427,-16.5442"/>
<polygon fill="#9a32cd" stroke="#9a32cd" points="70.1144,-13.0443 60.1143,-16.5442 70.1143,-20.0443 70.1144,-13.0443"/>
<text text-anchor="middle" x="109" y="-30.5442" font-family="Helvetica,sans-Serif" font-size="10.00"> m_printName</text>
<text text-anchor="middle" x="109" y="-19.5442" font-family="Helvetica,sans-Serif" font-size="10.00">m_key</text>
</g>
<!-- Node4 -->
<g id="node4" class="node"><title>Node4</title>
<g id="a_node4"><a xlink:href="class_ship.html" target="_top" xlink:title="Ship">
<polygon fill="white" stroke="black" points="780,-103.044 780,-122.044 816,-122.044 816,-103.044 780,-103.044"/>
<text text-anchor="middle" x="798" y="-110.044" font-family="Helvetica,sans-Serif" font-size="10.00">Ship</text>
</a>
</g>
</g>
<!-- Node4&#45;&gt;Node1 -->
<g id="edge3" class="edge"><title>Node4&#45;&gt;Node1</title>
<path fill="none" stroke="#9a32cd" stroke-dasharray="5,2" d="M793.172,-92.9267C788.696,-75.1758 779.547,-49.5797 762,-34.5442 726.302,-3.95623 706.589,-12.8227 660,-6.54423 557.603,7.25498 434.483,-5.35286 379.704,-12.4566"/>
<polygon fill="#9a32cd" stroke="#9a32cd" points="789.783,-93.81 795.389,-102.801 796.614,-92.277 789.783,-93.81"/>
<text text-anchor="middle" x="576" y="-9.54423" font-family="Helvetica,sans-Serif" font-size="10.00"> m_ship</text>
</g>
<!-- Node5 -->
<g id="node5" class="node"><title>Node5</title>
<g id="a_node5"><a xlink:href="class_world_object.html" target="_top" xlink:title="WorldObject">
<polygon fill="white" stroke="red" points="540.5,-179.044 540.5,-198.044 611.5,-198.044 611.5,-179.044 540.5,-179.044"/>
<text text-anchor="middle" x="576" y="-186.044" font-family="Helvetica,sans-Serif" font-size="10.00">WorldObject</text>
</a>
</g>
</g>
<!-- Node5&#45;&gt;Node4 -->
<g id="edge4" class="edge"><title>Node5&#45;&gt;Node4</title>
<path fill="none" stroke="midnightblue" d="M621.732,-189.929C661.26,-189.182 719.126,-183.121 762,-157.544 776.11,-149.127 786.637,-132.705 792.296,-122.198"/>
<polygon fill="midnightblue" stroke="midnightblue" points="621.569,-186.43 611.598,-190.012 621.626,-193.43 621.569,-186.43"/>
</g>
<!-- Node6 -->
<g id="node6" class="node"><title>Node6</title>
<g id="a_node6"><a xlink:href="class_handle.html" target="_top" xlink:title="Handle\&lt; WorldObject \&gt;">
<polygon fill="white" stroke="black" points="290.5,-212.044 290.5,-231.044 409.5,-231.044 409.5,-212.044 290.5,-212.044"/>
<text text-anchor="middle" x="350" y="-219.044" font-family="Helvetica,sans-Serif" font-size="10.00">Handle&lt; WorldObject &gt;</text>
</a>
</g>
</g>
<!-- Node6&#45;&gt;Node4 -->
<g id="edge6" class="edge"><title>Node6&#45;&gt;Node4</title>
<path fill="none" stroke="#9a32cd" stroke-dasharray="5,2" d="M401.4,-233.025C485.831,-249.108 656.914,-267.808 762,-184.544 782.262,-168.49 791.557,-137.756 795.125,-122.149"/>
<polygon fill="#9a32cd" stroke="#9a32cd" points="402.032,-229.582 391.544,-231.084 400.679,-236.451 402.032,-229.582"/>
<text text-anchor="middle" x="576" y="-249.544" font-family="Helvetica,sans-Serif" font-size="10.00"> m_targetObjectHandle</text>
</g>
<!-- Node6&#45;&gt;Node5 -->
<g id="edge5" class="edge"><title>Node6&#45;&gt;Node5</title>
<path fill="none" stroke="#9a32cd" stroke-dasharray="5,2" d="M419.866,-210.768C422.613,-210.352 425.332,-209.943 428,-209.544 466.373,-203.813 510.433,-197.563 540.232,-193.384"/>
<polygon fill="#9a32cd" stroke="#9a32cd" points="419.203,-207.328 409.845,-212.295 420.258,-214.248 419.203,-207.328"/>
<text text-anchor="middle" x="451" y="-212.544" font-family="Helvetica,sans-Serif" font-size="10.00"> m_handle</text>
</g>
<!-- Node7&#45;&gt;Node4 -->
<g id="edge7" class="edge"><title>Node7&#45;&gt;Node4</title>
<path fill="none" stroke="#9a32cd" stroke-dasharray="5,2" d="M656.722,-36.5064C691.154,-39.6456 730.641,-47.7225 762,-66.5442 776.283,-75.1169 786.759,-91.9135 792.36,-102.664"/>
<polygon fill="#9a32cd" stroke="#9a32cd" points="656.93,-33.012 646.686,-35.7155 656.38,-39.9904 656.93,-33.012"/>
<text text-anchor="middle" x="720" y="-69.5442" font-family="Helvetica,sans-Serif" font-size="10.00"> m_character</text>
</g>
<!-- Node8 -->
<g id="node8" class="node"><title>Node8</title>
<polygon fill="white" stroke="#bfbfbf" points="492.5,-141.044 492.5,-160.044 659.5,-160.044 659.5,-141.044 492.5,-141.044"/>
<text text-anchor="middle" x="576" y="-148.044" font-family="Helvetica,sans-Serif" font-size="10.00">std::unique_ptr&lt; BoardComputer &gt;</text>
</g>
<!-- Node8&#45;&gt;Node4 -->
<g id="edge9" class="edge"><title>Node8&#45;&gt;Node4</title>
<path fill="none" stroke="#9a32cd" stroke-dasharray="5,2" d="M669.89,-144.154C699.655,-140.741 732.528,-135.52 762,-127.544 767.998,-125.921 774.311,-123.467 779.898,-121.012"/>
<polygon fill="#9a32cd" stroke="#9a32cd" points="669.485,-140.677 659.925,-145.244 670.246,-147.636 669.485,-140.677"/>
<text text-anchor="middle" x="720" y="-145.544" font-family="Helvetica,sans-Serif" font-size="10.00"> m_boardComputer</text>
</g>
<!-- Node9 -->
<g id="node9" class="node"><title>Node9</title>
<g id="a_node9"><a xlink:href="class_handle.html" target="_top" xlink:title="Handle\&lt; Ship \&gt;">
<polygon fill="white" stroke="black" points="534,-103.044 534,-122.044 618,-122.044 618,-103.044 534,-103.044"/>
<text text-anchor="middle" x="576" y="-110.044" font-family="Helvetica,sans-Serif" font-size="10.00">Handle&lt; Ship &gt;</text>
</a>
</g>
</g>
<!-- Node9&#45;&gt;Node4 -->
<g id="edge10" class="edge"><title>Node9&#45;&gt;Node4</title>
<path fill="none" stroke="#9a32cd" stroke-dasharray="5,2" d="M628.186,-112.544C677.004,-112.544 747.716,-112.544 779.898,-112.544"/>
<polygon fill="#9a32cd" stroke="#9a32cd" points="628.122,-109.044 618.122,-112.544 628.122,-116.044 628.122,-109.044"/>
<text text-anchor="middle" x="720" y="-115.544" font-family="Helvetica,sans-Serif" font-size="10.00"> m_shipHandle</text>
</g>
<!-- Node10 -->
<g id="node10" class="node"><title>Node10</title>
<polygon fill="white" stroke="#bfbfbf" points="501,-65.0442 501,-84.0442 651,-84.0442 651,-65.0442 501,-65.0442"/>
<text text-anchor="middle" x="576" y="-72.0442" font-family="Helvetica,sans-Serif" font-size="10.00">std::unique_ptr&lt; SquadLogic &gt;</text>
</g>
<!-- Node10&#45;&gt;Node4 -->
<g id="edge11" class="edge"><title>Node10&#45;&gt;Node4</title>
<path fill="none" stroke="#9a32cd" stroke-dasharray="5,2" d="M661.478,-80.0077C693.364,-83.3784 729.722,-88.8091 762,-97.5442 767.998,-99.1675 774.311,-101.621 779.898,-104.076"/>
<polygon fill="#9a32cd" stroke="#9a32cd" points="661.593,-76.5017 651.293,-78.9842 660.893,-83.4667 661.593,-76.5017"/>
<text text-anchor="middle" x="720" y="-100.544" font-family="Helvetica,sans-Serif" font-size="10.00"> m_squadLogic</text>
</g>
</g>
</svg>
        <g id="navigator" transform="translate(0 0)" fill="#404254">
                <rect fill="#f2f5e9" fill-opacity="0.5" stroke="#606060" stroke-width=".5" x="0" y="0" width="60" height="60"/>
                <use id="zoomplus" xlink:href="#zoomPlus" x="17" y="9" onmousedown="handleZoom(evt,'in')"/>
                <use id="zoomminus" xlink:href="#zoomMin" x="42" y="9" onmousedown="handleZoom(evt,'out')"/>
                <use id="reset" xlink:href="#resetDef" x="30" y="36" onmousedown="handleReset()"/>
                <g id="arrowUp" xlink:href="#dirArrow" transform="translate(30 24)" onmousedown="handlePan(0,-1)">
                  <use xlink:href="#rim" fill="#404040">
                        <set attributeName="fill" to="#808080" begin="arrowUp.mouseover" end="arrowUp.mouseout"/>
                  </use>
                  <path fill="none" stroke="white" stroke-width="1.5" d="M0,-3.0v7 M-2.5,-0.5L0,-3.0L2.5,-0.5"/>
                </g>
                <g id="arrowRight" xlink:href="#dirArrow" transform="rotate(90) translate(36 -43)" onmousedown="handlePan(1,0)">
                  <use xlink:href="#rim" fill="#404040">
                        <set attributeName="fill" to="#808080" begin="arrowRight.mouseover" end="arrowRight.mouseout"/>
                  </use>
                  <path fill="none" stroke="white" stroke-width="1.5" d="M0,-3.0v7 M-2.5,-0.5L0,-3.0L2.5,-0.5"/>
                </g>
                <g id="arrowDown" xlink:href="#dirArrow" transform="rotate(180) translate(-30 -48)" onmousedown="handlePan(0,1)">
                  <use xlink:href="#rim" fill="#404040">
                        <set attributeName="fill" to="#808080" begin="arrowDown.mouseover" end="arrowDown.mouseout"/>
                  </use>
                  <path fill="none" stroke="white" stroke-width="1.5" d="M0,-3.0v7 M-2.5,-0.5L0,-3.0L2.5,-0.5"/>
                </g>
                <g id="arrowLeft" xlink:href="#dirArrow" transform="rotate(270) translate(-36 17)" onmousedown="handlePan(-1,0)">
                  <use xlink:href="#rim" fill="#404040">
                        <set attributeName="fill" to="#808080" begin="arrowLeft.mouseover" end="arrowLeft.mouseout"/>
                  </use>
                  <path fill="none" stroke="white" stroke-width="1.5" d="M0,-3.0v7 M-2.5,-0.5L0,-3.0L2.5,-0.5"/>
                </g>
        </g>
        <svg viewBox="0 0 15 15" width="100%" height="30px" preserveAspectRatio="xMaxYMin meet">
         <g id="arrow_out" transform="scale(0.3 0.3)">
          <a xlink:href="class_character__coll__graph_org.svg" target="_base">
           <rect id="button" ry="5" rx="5" y="6" x="6" height="38" width="38"
                fill="#f2f5e9" fill-opacity="0.5" stroke="#606060" stroke-width="1.0"/>
           <path id="arrow"
             d="M 11.500037,31.436501 C 11.940474,20.09759 22.043105,11.32322 32.158766,21.979434 L 37.068811,17.246167 C 37.068811,17.246167 37.088388,32 37.088388,32 L 22.160133,31.978069 C 22.160133,31.978069 26.997745,27.140456 26.997745,27.140456 C 18.528582,18.264221 13.291696,25.230495 11.500037,31.436501 z"
             style="fill:#404040;"/>
          </a>
         </g>
        </svg>
</svg>
