<?xml version="1.0" encoding="UTF-8" standalone="no"?>
<!DOCTYPE svg PUBLIC "-//W3C//DTD SVG 1.1//EN"
 "http://www.w3.org/Graphics/SVG/1.1/DTD/svg11.dtd">
<!-- Generated by graphviz version 2.36.0 (20140111.2315)
 -->
<!-- Title: AimHelperHudgetVoxels Pages: 1 -->
<svg width="537pt" height="254pt"
 viewBox="0.00 0.00 537.00 254.00" xmlns="http://www.w3.org/2000/svg" xmlns:xlink="http://www.w3.org/1999/xlink">
<g id="graph0" class="graph" transform="scale(1 1) rotate(0) translate(4 250)">
<title>AimHelperHudgetVoxels</title>
<polygon fill="white" stroke="none" points="-4,4 -4,-250 533,-250 533,4 -4,4"/>
<!-- Node1 -->
<g id="node1" class="node"><title>Node1</title>
<polygon fill="#bfbfbf" stroke="black" points="371,-148.5 371,-167.5 493,-167.5 493,-148.5 371,-148.5"/>
<text text-anchor="middle" x="432" y="-155.5" font-family="Helvetica,sans-Serif" font-size="10.00">AimHelperHudgetVoxels</text>
</g>
<!-- Node4 -->
<g id="node4" class="node"><title>Node4</title>
<polygon fill="white" stroke="#bfbfbf" points="286.5,-69 286.5,-99 421.5,-99 421.5,-69 286.5,-69"/>
<text text-anchor="start" x="294.5" y="-87" font-family="Helvetica,sans-Serif" font-size="10.00">std::unique_ptr&lt; AimHelper</text>
<text text-anchor="middle" x="354" y="-76" font-family="Helvetica,sans-Serif" font-size="10.00">HudgetVoxels &gt;</text>
</g>
<!-- Node1&#45;&gt;Node4 -->
<g id="edge4" class="edge"><title>Node1&#45;&gt;Node4</title>
<path fill="none" stroke="#9a32cd" stroke-dasharray="5,2" d="M415.076,-141.378C401.494,-128.841 382.585,-111.386 369.418,-99.2316"/>
<polygon fill="#9a32cd" stroke="#9a32cd" points="413.024,-144.247 422.746,-148.458 417.772,-139.103 413.024,-144.247"/>
<text text-anchor="middle" x="410.5" y="-121.5" font-family="Helvetica,sans-Serif" font-size="10.00"> ptr</text>
</g>
<!-- Node2 -->
<g id="node2" class="node"><title>Node2</title>
<g id="a_node2"><a xlink:href="class_aim_helper_hudget.html" target="_top" xlink:title="AimHelperHudget">
<polygon fill="white" stroke="black" points="179,-0.5 179,-19.5 271,-19.5 271,-0.5 179,-0.5"/>
<text text-anchor="middle" x="225" y="-7.5" font-family="Helvetica,sans-Serif" font-size="10.00">AimHelperHudget</text>
</a>
</g>
</g>
<!-- Node2&#45;&gt;Node1 -->
<g id="edge1" class="edge"><title>Node2&#45;&gt;Node1</title>
<path fill="none" stroke="#9a32cd" stroke-dasharray="5,2" d="M281.693,-12.0124C316.159,-14.5186 360.264,-21.1852 396,-38 414.235,-46.5799 421.505,-49.7255 430,-68 442.509,-94.9088 437.379,-131.517 434.033,-148.139"/>
<polygon fill="#9a32cd" stroke="#9a32cd" points="281.526,-8.49511 271.326,-11.3616 281.087,-15.4814 281.526,-8.49511"/>
<text text-anchor="middle" x="483.5" y="-81.5" font-family="Helvetica,sans-Serif" font-size="10.00"> m_aimHelperHudget</text>
</g>
<!-- Node3 -->
<g id="node3" class="node"><title>Node3</title>
<g id="a_node3"><a xlink:href="class_circular_hudget.html" target="_top" xlink:title="CircularHudget">
<polygon fill="white" stroke="red" points="0,-74.5 0,-93.5 80,-93.5 80,-74.5 0,-74.5"/>
<text text-anchor="middle" x="40" y="-81.5" font-family="Helvetica,sans-Serif" font-size="10.00">CircularHudget</text>
</a>
</g>
</g>
<!-- Node3&#45;&gt;Node2 -->
<g id="edge2" class="edge"><title>Node3&#45;&gt;Node2</title>
<path fill="none" stroke="midnightblue" d="M63.1055,-69.3614C80.2911,-59.6391 104.554,-46.7861 127,-38 146.227,-30.4739 168.35,-24.1874 186.705,-19.5795"/>
<polygon fill="midnightblue" stroke="midnightblue" points="61.2705,-66.3791 54.3426,-74.3949 64.7572,-72.449 61.2705,-66.3791"/>
</g>
<!-- Node4&#45;&gt;Node2 -->
<g id="edge3" class="edge"><title>Node4&#45;&gt;Node2</title>
<path fill="none" stroke="#9a32cd" stroke-dasharray="5,2" d="M351.266,-58.892C349.268,-51.28 345.845,-43.444 340,-38 321.616,-20.8775 294.494,-13.9594 271.206,-11.4004"/>
<polygon fill="#9a32cd" stroke="#9a32cd" points="347.864,-59.7352 353.202,-68.8875 354.737,-58.4045 347.864,-59.7352"/>
<text text-anchor="middle" x="370" y="-41.5" font-family="Helvetica,sans-Serif" font-size="10.00"> m_voxels</text>
</g>
<!-- Node5 -->
<g id="node5" class="node"><title>Node5</title>
<g id="a_node5"><a xlink:href="class_range.html" target="_top" xlink:title="Range">
<polygon fill="white" stroke="black" points="98,-74.5 98,-93.5 142,-93.5 142,-74.5 98,-74.5"/>
<text text-anchor="middle" x="120" y="-81.5" font-family="Helvetica,sans-Serif" font-size="10.00">Range</text>
</a>
</g>
</g>
<!-- Node5&#45;&gt;Node2 -->
<g id="edge5" class="edge"><title>Node5&#45;&gt;Node2</title>
<path fill="none" stroke="#9a32cd" stroke-dasharray="5,2" d="M123.862,-64.6812C126.656,-55.5376 131.332,-44.9696 139,-38 150.001,-28.0004 164.68,-21.7042 178.793,-17.7398"/>
<polygon fill="#9a32cd" stroke="#9a32cd" points="120.448,-63.9061 121.38,-74.4598 127.233,-65.6279 120.448,-63.9061"/>
<text text-anchor="middle" x="180" y="-41.5" font-family="Helvetica,sans-Serif" font-size="10.00"> m_distanceRange</text>
</g>
<!-- Node6 -->
<g id="node6" class="node"><title>Node6</title>
<g id="a_node6"><a xlink:href="class_world_object.html" target="_top" xlink:title="WorldObject">
<polygon fill="white" stroke="red" points="189.5,-74.5 189.5,-93.5 260.5,-93.5 260.5,-74.5 189.5,-74.5"/>
<text text-anchor="middle" x="225" y="-81.5" font-family="Helvetica,sans-Serif" font-size="10.00">WorldObject</text>
</a>
</g>
</g>
<!-- Node6&#45;&gt;Node2 -->
<g id="edge6" class="edge"><title>Node6&#45;&gt;Node2</title>
<path fill="none" stroke="#9a32cd" stroke-dasharray="5,2" d="M225,-64.1562C225,-49.7123 225,-30.4594 225,-19.531"/>
<polygon fill="#9a32cd" stroke="#9a32cd" points="221.5,-64.4579 225,-74.4579 228.5,-64.4579 221.5,-64.4579"/>
<text text-anchor="middle" x="282" y="-41.5" font-family="Helvetica,sans-Serif" font-size="10.00"> m_lastTargetWorldObject</text>
</g>
<!-- Node7 -->
<g id="node7" class="node"><title>Node7</title>
<polygon fill="white" stroke="#bfbfbf" points="354.5,-226.5 354.5,-245.5 509.5,-245.5 509.5,-226.5 354.5,-226.5"/>
<text text-anchor="middle" x="432" y="-233.5" font-family="Helvetica,sans-Serif" font-size="10.00">std::unique_ptr&lt; VoxelCluster &gt;</text>
</g>
<!-- Node7&#45;&gt;Node1 -->
<g id="edge7" class="edge"><title>Node7&#45;&gt;Node1</title>
<path fill="none" stroke="#9a32cd" stroke-dasharray="5,2" d="M432,-216.224C432,-200.697 432,-179.358 432,-167.616"/>
<polygon fill="#9a32cd" stroke="#9a32cd" points="428.5,-216.282 432,-226.282 435.5,-216.282 428.5,-216.282"/>
<text text-anchor="middle" x="450.5" y="-200" font-family="Helvetica,sans-Serif" font-size="10.00"> m_dot</text>
<text text-anchor="middle" x="450.5" y="-189" font-family="Helvetica,sans-Serif" font-size="10.00">m_circle</text>
</g>
</g>
</svg>
