<?xml version="1.0" encoding="UTF-8" standalone="no"?>
<!DOCTYPE svg PUBLIC "-//W3C//DTD SVG 1.1//EN"
 "http://www.w3.org/Graphics/SVG/1.1/DTD/svg11.dtd">
<!-- Generated by graphviz version 2.36.0 (20140111.2315)
 -->
<!-- Title: VoxelParticleRemover Pages: 1 -->
<!--zoomable 279 -->
<svg id="main" version="1.1" xmlns="http://www.w3.org/2000/svg" xmlns:xlink="http://www.w3.org/1999/xlink" xml:space="preserve" onload="init(evt)">
<style type="text/css"><![CDATA[
.edge:hover path { stroke: red; }
.edge:hover polygon { stroke: red; fill: red; }
]]></style>
<script type="text/javascript"><![CDATA[
var edges = document.getElementsByTagName('g');
if (edges && edges.length) {
  for (var i=0;i<edges.length;i++) {
    if (edges[i].id.substr(0,4)=='edge') {
      edges[i].setAttribute('class','edge');
    }
  }
}
]]></script>
        <defs>
                <circle id="rim" cx="0" cy="0" r="7"/>
                <circle id="rim2" cx="0" cy="0" r="3.5"/>
                <g id="zoomPlus">
                        <use xlink:href="#rim" fill="#404040">
                                <set attributeName="fill" to="#808080" begin="zoomplus.mouseover" end="zoomplus.mouseout"/>
                        </use>
                        <path d="M-4,0h8M0,-4v8" fill="none" stroke="white" stroke-width="1.5" pointer-events="none"/>
                </g>
                <g id="zoomMin">
                        <use xlink:href="#rim" fill="#404040">
                                <set attributeName="fill" to="#808080" begin="zoomminus.mouseover" end="zoomminus.mouseout"/>
                        </use>
                        <path d="M-4,0h8" fill="none" stroke="white" stroke-width="1.5" pointer-events="none"/>
                </g>
                <g id="dirArrow">
                        <path fill="none" stroke="white" stroke-width="1.5" d="M0,-3.0v7 M-2.5,-0.5L0,-3.0L2.5,-0.5"/>
                </g>
               <g id="resetDef">
                       <use xlink:href="#rim2" fill="#404040">
                               <set attributeName="fill" to="#808080" begin="reset.mouseover" end="reset.mouseout"/>
                       </use>
               </g>
        </defs>

<script type="text/javascript">
var viewWidth = 1300;
var viewHeight = 279;
var sectionId = 'dynsection-0';
</script>
<script xlink:href="svgpan.js"/>
<svg id="graph" class="graph">
<g id="viewport">
<title>VoxelParticleRemover</title>
<polygon fill="white" stroke="none" points="-4,4 -4,-275 1296,-275 1296,4 -4,4"/>
<!-- Node1 -->
<g id="node1" class="node"><title>Node1</title>
<polygon fill="#bfbfbf" stroke="black" points="718,-84.5 718,-103.5 830,-103.5 830,-84.5 718,-84.5"/>
<text text-anchor="middle" x="774" y="-91.5" font-family="Helvetica,sans-Serif" font-size="10.00">VoxelParticleRemover</text>
</g>
<!-- Node7 -->
<g id="node7" class="node"><title>Node7</title>
<polygon fill="white" stroke="#bfbfbf" points="882,-126 882,-156 1030,-156 1030,-126 882,-126"/>
<text text-anchor="start" x="890" y="-144" font-family="Helvetica,sans-Serif" font-size="10.00">std::unique_ptr&lt; VoxelParticle</text>
<text text-anchor="middle" x="956" y="-133" font-family="Helvetica,sans-Serif" font-size="10.00">Remover &gt;</text>
</g>
<!-- Node1&#45;&gt;Node7 -->
<g id="edge7" class="edge"><title>Node1&#45;&gt;Node7</title>
<path fill="none" stroke="#9a32cd" stroke-dasharray="5,2" d="M821.352,-106.103C844.53,-112.155 872.803,-119.537 897.366,-125.951"/>
<polygon fill="#9a32cd" stroke="#9a32cd" points="821.986,-102.651 811.426,-103.511 820.217,-109.424 821.986,-102.651"/>
<text text-anchor="middle" x="856" y="-119" font-family="Helvetica,sans-Serif" font-size="10.00"> ptr</text>
</g>
<!-- Node2 -->
<g id="node2" class="node"><title>Node2</title>
<g id="a_node2"><a xlink:href="class_voxel_particle_engine.html" target="_top" xlink:title="VoxelParticleEngine">
<polygon fill="white" stroke="black" points="1188,-157.5 1188,-176.5 1292,-176.5 1292,-157.5 1188,-157.5"/>
<text text-anchor="middle" x="1240" y="-164.5" font-family="Helvetica,sans-Serif" font-size="10.00">VoxelParticleEngine</text>
</a>
</g>
</g>
<!-- Node2&#45;&gt;Node1 -->
<g id="edge1" class="edge"><title>Node2&#45;&gt;Node1</title>
<path fill="none" stroke="#9a32cd" stroke-dasharray="5,2" d="M1202.02,-154.245C1191.69,-150.8 1180.44,-147.155 1170,-144 1108.28,-125.354 1093.69,-116.019 1030,-106 961.701,-95.2557 881.95,-93.15 830.067,-93.1443"/>
<polygon fill="#9a32cd" stroke="#9a32cd" points="1200.99,-157.589 1211.58,-157.463 1203.22,-150.955 1200.99,-157.589"/>
<text text-anchor="middle" x="956" y="-109" font-family="Helvetica,sans-Serif" font-size="10.00"> m_particleEngine</text>
</g>
<!-- Node3 -->
<g id="node3" class="node"><title>Node3</title>
<g id="a_node3"><a xlink:href="class_context_dependant.html" target="_top" xlink:title="ContextDependant">
<polygon fill="white" stroke="black" points="907.5,-251.5 907.5,-270.5 1004.5,-270.5 1004.5,-251.5 907.5,-251.5"/>
<text text-anchor="middle" x="956" y="-258.5" font-family="Helvetica,sans-Serif" font-size="10.00">ContextDependant</text>
</a>
</g>
</g>
<!-- Node3&#45;&gt;Node2 -->
<g id="edge2" class="edge"><title>Node3&#45;&gt;Node2</title>
<path fill="none" stroke="#8b1a1a" d="M1014.76,-263.391C1059.27,-262.996 1121.23,-257.462 1170,-234 1197.69,-220.681 1221.22,-191.896 1232.27,-176.758"/>
<polygon fill="#8b1a1a" stroke="#8b1a1a" points="1014.69,-259.891 1004.69,-263.395 1014.7,-266.891 1014.69,-259.891"/>
</g>
<!-- Node4 -->
<g id="node4" class="node"><title>Node4</title>
<polygon fill="white" stroke="#bfbfbf" points="911.5,-213.5 911.5,-232.5 1000.5,-232.5 1000.5,-213.5 911.5,-213.5"/>
<text text-anchor="middle" x="956" y="-220.5" font-family="Helvetica,sans-Serif" font-size="10.00">std::stack&lt; int &gt;</text>
</g>
<!-- Node4&#45;&gt;Node2 -->
<g id="edge3" class="edge"><title>Node4&#45;&gt;Node2</title>
<path fill="none" stroke="#9a32cd" stroke-dasharray="5,2" d="M1010.73,-221.71C1054.35,-219.535 1117.09,-213.827 1170,-199 1188.69,-193.762 1208.67,-183.988 1222.29,-176.615"/>
<polygon fill="#9a32cd" stroke="#9a32cd" points="1010.45,-218.219 1000.62,-222.168 1010.76,-225.211 1010.45,-218.219"/>
<text text-anchor="middle" x="1109" y="-222" font-family="Helvetica,sans-Serif" font-size="10.00"> m_freeParticleBufferIndices</text>
</g>
<!-- Node5 -->
<g id="node5" class="node"><title>Node5</title>
<polygon fill="white" stroke="#bfbfbf" points="0,-152 0,-182 128,-182 128,-152 0,-152"/>
<text text-anchor="start" x="8" y="-170" font-family="Helvetica,sans-Serif" font-size="10.00">std::vector&lt; VoxelParticle</text>
<text text-anchor="middle" x="64" y="-159" font-family="Helvetica,sans-Serif" font-size="10.00">Data &gt;</text>
</g>
<!-- Node5&#45;&gt;Node2 -->
<g id="edge4" class="edge"><title>Node5&#45;&gt;Node2</title>
<path fill="none" stroke="#9a32cd" stroke-dasharray="5,2" d="M138.459,-176.547C177.715,-180.858 226.911,-185 271,-185 271,-185 271,-185 957,-185 1037.82,-185 1131.41,-177.545 1187.86,-172.231"/>
<polygon fill="#9a32cd" stroke="#9a32cd" points="138.772,-173.06 128.443,-175.42 137.989,-180.016 138.772,-173.06"/>
<text text-anchor="middle" x="654" y="-188" font-family="Helvetica,sans-Serif" font-size="10.00"> m_cpuParticleBuffer</text>
</g>
<!-- Node10 -->
<g id="node10" class="node"><title>Node10</title>
<g id="a_node10"><a xlink:href="class_thread_pool.html" target="_top" xlink:title="ThreadPool\&lt; VoxelParticle\lData \&gt;">
<polygon fill="white" stroke="red" points="206,-126 206,-156 338,-156 338,-126 206,-126"/>
<text text-anchor="start" x="214" y="-144" font-family="Helvetica,sans-Serif" font-size="10.00">ThreadPool&lt; VoxelParticle</text>
<text text-anchor="middle" x="272" y="-133" font-family="Helvetica,sans-Serif" font-size="10.00">Data &gt;</text>
</a>
</g>
</g>
<!-- Node5&#45;&gt;Node10 -->
<g id="edge11" class="edge"><title>Node5&#45;&gt;Node10</title>
<path fill="none" stroke="#9a32cd" stroke-dasharray="5,2" d="M138.181,-157.764C160.232,-154.98 184.279,-151.945 205.776,-149.232"/>
<polygon fill="#9a32cd" stroke="#9a32cd" points="137.69,-154.298 128.207,-159.022 138.566,-161.243 137.69,-154.298"/>
<text text-anchor="middle" x="167" y="-159" font-family="Helvetica,sans-Serif" font-size="10.00"> m_tasks</text>
</g>
<!-- Node6 -->
<g id="node6" class="node"><title>Node6</title>
<polygon fill="white" stroke="#bfbfbf" points="882,-29 882,-59 1030,-59 1030,-29 882,-29"/>
<text text-anchor="start" x="890" y="-47" font-family="Helvetica,sans-Serif" font-size="10.00">std::unique_ptr&lt; VoxelParticle</text>
<text text-anchor="middle" x="956" y="-36" font-family="Helvetica,sans-Serif" font-size="10.00">Renderer &gt;</text>
</g>
<!-- Node6&#45;&gt;Node2 -->
<g id="edge5" class="edge"><title>Node6&#45;&gt;Node2</title>
<path fill="none" stroke="#9a32cd" stroke-dasharray="5,2" d="M1040.35,-39.3765C1081.9,-40.6932 1131.38,-48.0172 1170,-71 1204.75,-91.6792 1226.88,-137.381 1235.23,-157.348"/>
<polygon fill="#9a32cd" stroke="#9a32cd" points="1040.31,-35.8751 1030.24,-39.1679 1040.17,-42.8737 1040.31,-35.8751"/>
<text text-anchor="middle" x="1109" y="-74" font-family="Helvetica,sans-Serif" font-size="10.00"> m_renderer</text>
</g>
<!-- Node7&#45;&gt;Node2 -->
<g id="edge6" class="edge"><title>Node7&#45;&gt;Node2</title>
<path fill="none" stroke="#9a32cd" stroke-dasharray="5,2" d="M1040.53,-148.215C1079.83,-151.67 1127.33,-155.933 1170,-160 1175.75,-160.548 1181.78,-161.137 1187.76,-161.732"/>
<polygon fill="#9a32cd" stroke="#9a32cd" points="1040.73,-144.719 1030.46,-147.332 1040.12,-151.692 1040.73,-144.719"/>
<text text-anchor="middle" x="1109" y="-163" font-family="Helvetica,sans-Serif" font-size="10.00"> m_remover</text>
</g>
<!-- Node8 -->
<g id="node8" class="node"><title>Node8</title>
<polygon fill="white" stroke="#bfbfbf" points="410,-77 410,-107 590,-107 590,-77 410,-77"/>
<text text-anchor="start" x="418" y="-95" font-family="Helvetica,sans-Serif" font-size="10.00">std::vector&lt; std::shared</text>
<text text-anchor="middle" x="500" y="-84" font-family="Helvetica,sans-Serif" font-size="10.00">_ptr&lt; VoxelParticleRemoveCheck &gt; &gt;</text>
</g>
<!-- Node8&#45;&gt;Node1 -->
<g id="edge8" class="edge"><title>Node8&#45;&gt;Node1</title>
<path fill="none" stroke="#9a32cd" stroke-dasharray="5,2" d="M600.309,-92.7302C639.973,-93.0219 684.138,-93.3466 717.875,-93.5947"/>
<polygon fill="#9a32cd" stroke="#9a32cd" points="600.088,-89.2286 590.063,-92.6549 600.037,-96.2284 600.088,-89.2286"/>
<text text-anchor="middle" x="654" y="-97" font-family="Helvetica,sans-Serif" font-size="10.00"> m_checker</text>
</g>
<!-- Node9 -->
<g id="node9" class="node"><title>Node9</title>
<polygon fill="white" stroke="#bfbfbf" points="430.5,-126 430.5,-156 569.5,-156 569.5,-126 430.5,-126"/>
<text text-anchor="start" x="438.5" y="-144" font-family="Helvetica,sans-Serif" font-size="10.00">std::unique_ptr&lt; ThreadPool</text>
<text text-anchor="middle" x="500" y="-133" font-family="Helvetica,sans-Serif" font-size="10.00">&lt; VoxelParticleData &gt; &gt;</text>
</g>
<!-- Node9&#45;&gt;Node1 -->
<g id="edge9" class="edge"><title>Node9&#45;&gt;Node1</title>
<path fill="none" stroke="#9a32cd" stroke-dasharray="5,2" d="M579.855,-129.123C616.458,-123.404 660.515,-116.228 700,-109 709.163,-107.323 718.947,-105.402 728.277,-103.508"/>
<polygon fill="#9a32cd" stroke="#9a32cd" points="579.082,-125.701 569.738,-130.696 580.158,-132.618 579.082,-125.701"/>
<text text-anchor="middle" x="654" y="-126" font-family="Helvetica,sans-Serif" font-size="10.00"> m_threadPool</text>
</g>
<!-- Node10&#45;&gt;Node9 -->
<g id="edge10" class="edge"><title>Node10&#45;&gt;Node9</title>
<path fill="none" stroke="#9a32cd" stroke-dasharray="5,2" d="M348.087,-141C374.679,-141 404.439,-141 430.458,-141"/>
<polygon fill="#9a32cd" stroke="#9a32cd" points="348.065,-137.5 338.065,-141 348.065,-144.5 348.065,-137.5"/>
<text text-anchor="middle" x="374" y="-144" font-family="Helvetica,sans-Serif" font-size="10.00"> ptr</text>
</g>
<!-- Node11 -->
<g id="node11" class="node"><title>Node11</title>
<g id="a_node11"><a xlink:href="class_property.html" target="_top" xlink:title="Property\&lt; float \&gt;">
<polygon fill="white" stroke="black" points="455.5,-38.5 455.5,-57.5 544.5,-57.5 544.5,-38.5 455.5,-38.5"/>
<text text-anchor="middle" x="500" y="-45.5" font-family="Helvetica,sans-Serif" font-size="10.00">Property&lt; float &gt;</text>
</a>
</g>
</g>
<!-- Node11&#45;&gt;Node1 -->
<g id="edge12" class="edge"><title>Node11&#45;&gt;Node1</title>
<path fill="none" stroke="#9a32cd" stroke-dasharray="5,2" d="M554.719,-55.1176C594.858,-60.6734 651.01,-68.9488 700,-78 710.334,-79.9094 721.437,-82.2122 731.788,-84.4685"/>
<polygon fill="#9a32cd" stroke="#9a32cd" points="555,-51.6234 544.617,-53.7298 554.047,-58.5582 555,-51.6234"/>
<text text-anchor="middle" x="654" y="-81" font-family="Helvetica,sans-Serif" font-size="10.00"> m_interval</text>
</g>
<!-- Node12 -->
<g id="node12" class="node"><title>Node12</title>
<g id="a_node12"><a xlink:href="class_property_impl.html" target="_top" xlink:title="PropertyImpl\&lt; float \&gt;">
<polygon fill="white" stroke="red" points="218.5,-38.5 218.5,-57.5 325.5,-57.5 325.5,-38.5 218.5,-38.5"/>
<text text-anchor="middle" x="272" y="-45.5" font-family="Helvetica,sans-Serif" font-size="10.00">PropertyImpl&lt; float &gt;</text>
</a>
</g>
</g>
<!-- Node12&#45;&gt;Node11 -->
<g id="edge13" class="edge"><title>Node12&#45;&gt;Node11</title>
<path fill="none" stroke="#9a32cd" stroke-dasharray="5,2" d="M336.144,-48C374.119,-48 421.489,-48 455.334,-48"/>
<polygon fill="#9a32cd" stroke="#9a32cd" points="335.702,-44.5001 325.702,-48 335.702,-51.5001 335.702,-44.5001"/>
<text text-anchor="middle" x="374" y="-51" font-family="Helvetica,sans-Serif" font-size="10.00"> m_impl</text>
</g>
<!-- Node13 -->
<g id="node13" class="node"><title>Node13</title>
<g id="a_node13"><a xlink:href="class_property.html" target="_top" xlink:title="Property\&lt; bool \&gt;">
<polygon fill="white" stroke="black" points="455.5,-0.5 455.5,-19.5 544.5,-19.5 544.5,-0.5 455.5,-0.5"/>
<text text-anchor="middle" x="500" y="-7.5" font-family="Helvetica,sans-Serif" font-size="10.00">Property&lt; bool &gt;</text>
</a>
</g>
</g>
<!-- Node13&#45;&gt;Node1 -->
<g id="edge14" class="edge"><title>Node13&#45;&gt;Node1</title>
<path fill="none" stroke="#9a32cd" stroke-dasharray="5,2" d="M554.599,-15.2254C595.509,-20.4582 652.699,-30.4919 700,-49 722.876,-57.9513 746.589,-74.0577 760.557,-84.3773"/>
<polygon fill="#9a32cd" stroke="#9a32cd" points="554.916,-11.7382 544.565,-13.9963 554.065,-18.6863 554.916,-11.7382"/>
<text text-anchor="middle" x="654" y="-52" font-family="Helvetica,sans-Serif" font-size="10.00"> m_multithreaded</text>
</g>
<!-- Node14 -->
<g id="node14" class="node"><title>Node14</title>
<g id="a_node14"><a xlink:href="class_property_impl.html" target="_top" xlink:title="PropertyImpl\&lt; bool \&gt;">
<polygon fill="white" stroke="red" points="218.5,-0.5 218.5,-19.5 325.5,-19.5 325.5,-0.5 218.5,-0.5"/>
<text text-anchor="middle" x="272" y="-7.5" font-family="Helvetica,sans-Serif" font-size="10.00">PropertyImpl&lt; bool &gt;</text>
</a>
</g>
</g>
<!-- Node14&#45;&gt;Node13 -->
<g id="edge15" class="edge"><title>Node14&#45;&gt;Node13</title>
<path fill="none" stroke="#9a32cd" stroke-dasharray="5,2" d="M336.144,-10C374.119,-10 421.489,-10 455.334,-10"/>
<polygon fill="#9a32cd" stroke="#9a32cd" points="335.702,-6.5001 325.702,-10 335.702,-13.5001 335.702,-6.5001"/>
<text text-anchor="middle" x="374" y="-13" font-family="Helvetica,sans-Serif" font-size="10.00"> m_impl</text>
</g>
</g>
</svg>
        <g id="navigator" transform="translate(0 0)" fill="#404254">
                <rect fill="#f2f5e9" fill-opacity="0.5" stroke="#606060" stroke-width=".5" x="0" y="0" width="60" height="60"/>
                <use id="zoomplus" xlink:href="#zoomPlus" x="17" y="9" onmousedown="handleZoom(evt,'in')"/>
                <use id="zoomminus" xlink:href="#zoomMin" x="42" y="9" onmousedown="handleZoom(evt,'out')"/>
                <use id="reset" xlink:href="#resetDef" x="30" y="36" onmousedown="handleReset()"/>
                <g id="arrowUp" xlink:href="#dirArrow" transform="translate(30 24)" onmousedown="handlePan(0,-1)">
                  <use xlink:href="#rim" fill="#404040">
                        <set attributeName="fill" to="#808080" begin="arrowUp.mouseover" end="arrowUp.mouseout"/>
                  </use>
                  <path fill="none" stroke="white" stroke-width="1.5" d="M0,-3.0v7 M-2.5,-0.5L0,-3.0L2.5,-0.5"/>
                </g>
                <g id="arrowRight" xlink:href="#dirArrow" transform="rotate(90) translate(36 -43)" onmousedown="handlePan(1,0)">
                  <use xlink:href="#rim" fill="#404040">
                        <set attributeName="fill" to="#808080" begin="arrowRight.mouseover" end="arrowRight.mouseout"/>
                  </use>
                  <path fill="none" stroke="white" stroke-width="1.5" d="M0,-3.0v7 M-2.5,-0.5L0,-3.0L2.5,-0.5"/>
                </g>
                <g id="arrowDown" xlink:href="#dirArrow" transform="rotate(180) translate(-30 -48)" onmousedown="handlePan(0,1)">
                  <use xlink:href="#rim" fill="#404040">
                        <set attributeName="fill" to="#808080" begin="arrowDown.mouseover" end="arrowDown.mouseout"/>
                  </use>
                  <path fill="none" stroke="white" stroke-width="1.5" d="M0,-3.0v7 M-2.5,-0.5L0,-3.0L2.5,-0.5"/>
                </g>
                <g id="arrowLeft" xlink:href="#dirArrow" transform="rotate(270) translate(-36 17)" onmousedown="handlePan(-1,0)">
                  <use xlink:href="#rim" fill="#404040">
                        <set attributeName="fill" to="#808080" begin="arrowLeft.mouseover" end="arrowLeft.mouseout"/>
                  </use>
                  <path fill="none" stroke="white" stroke-width="1.5" d="M0,-3.0v7 M-2.5,-0.5L0,-3.0L2.5,-0.5"/>
                </g>
        </g>
        <svg viewBox="0 0 15 15" width="100%" height="30px" preserveAspectRatio="xMaxYMin meet">
         <g id="arrow_out" transform="scale(0.3 0.3)">
          <a xlink:href="class_voxel_particle_remover__coll__graph_org.svg" target="_base">
           <rect id="button" ry="5" rx="5" y="6" x="6" height="38" width="38"
                fill="#f2f5e9" fill-opacity="0.5" stroke="#606060" stroke-width="1.0"/>
           <path id="arrow"
             d="M 11.500037,31.436501 C 11.940474,20.09759 22.043105,11.32322 32.158766,21.979434 L 37.068811,17.246167 C 37.068811,17.246167 37.088388,32 37.088388,32 L 22.160133,31.978069 C 22.160133,31.978069 26.997745,27.140456 26.997745,27.140456 C 18.528582,18.264221 13.291696,25.230495 11.500037,31.436501 z"
             style="fill:#404040;"/>
          </a>
         </g>
        </svg>
</svg>
