<?xml version="1.0" encoding="UTF-8" standalone="no"?>
<!DOCTYPE svg PUBLIC "-//W3C//DTD SVG 1.1//EN"
 "http://www.w3.org/Graphics/SVG/1.1/DTD/svg11.dtd">
<!-- Generated by graphviz version 2.36.0 (20140111.2315)
 -->
<!-- Title: FormationMemberTask Pages: 1 -->
<!--zoomable 259 -->
<svg id="main" version="1.1" xmlns="http://www.w3.org/2000/svg" xmlns:xlink="http://www.w3.org/1999/xlink" xml:space="preserve" onload="init(evt)">
<style type="text/css"><![CDATA[
.edge:hover path { stroke: red; }
.edge:hover polygon { stroke: red; fill: red; }
]]></style>
<script type="text/javascript"><![CDATA[
var edges = document.getElementsByTagName('g');
if (edges && edges.length) {
  for (var i=0;i<edges.length;i++) {
    if (edges[i].id.substr(0,4)=='edge') {
      edges[i].setAttribute('class','edge');
    }
  }
}
]]></script>
        <defs>
                <circle id="rim" cx="0" cy="0" r="7"/>
                <circle id="rim2" cx="0" cy="0" r="3.5"/>
                <g id="zoomPlus">
                        <use xlink:href="#rim" fill="#404040">
                                <set attributeName="fill" to="#808080" begin="zoomplus.mouseover" end="zoomplus.mouseout"/>
                        </use>
                        <path d="M-4,0h8M0,-4v8" fill="none" stroke="white" stroke-width="1.5" pointer-events="none"/>
                </g>
                <g id="zoomMin">
                        <use xlink:href="#rim" fill="#404040">
                                <set attributeName="fill" to="#808080" begin="zoomminus.mouseover" end="zoomminus.mouseout"/>
                        </use>
                        <path d="M-4,0h8" fill="none" stroke="white" stroke-width="1.5" pointer-events="none"/>
                </g>
                <g id="dirArrow">
                        <path fill="none" stroke="white" stroke-width="1.5" d="M0,-3.0v7 M-2.5,-0.5L0,-3.0L2.5,-0.5"/>
                </g>
               <g id="resetDef">
                       <use xlink:href="#rim2" fill="#404040">
                               <set attributeName="fill" to="#808080" begin="reset.mouseover" end="reset.mouseout"/>
                       </use>
               </g>
        </defs>

<script type="text/javascript">
var viewWidth = 1156;
var viewHeight = 259;
var sectionId = 'dynsection-1';
</script>
<script xlink:href="svgpan.js"/>
<svg id="graph" class="graph">
<g id="viewport">
<title>FormationMemberTask</title>
<polygon fill="white" stroke="none" points="-4,4 -4,-254.823 1152,-254.823 1152,4 -4,4"/>
<!-- Node1 -->
<g id="node1" class="node"><title>Node1</title>
<polygon fill="#bfbfbf" stroke="black" points="1032,-204.323 1032,-223.323 1148,-223.323 1148,-204.323 1032,-204.323"/>
<text text-anchor="middle" x="1090" y="-211.323" font-family="Helvetica,sans-Serif" font-size="10.00">FormationMemberTask</text>
</g>
<!-- Node2 -->
<g id="node2" class="node"><title>Node2</title>
<g id="a_node2"><a xlink:href="class_ai_task.html" target="_top" xlink:title="AiTask">
<polygon fill="white" stroke="black" points="658.5,-231.323 658.5,-250.323 705.5,-250.323 705.5,-231.323 658.5,-231.323"/>
<text text-anchor="middle" x="682" y="-238.323" font-family="Helvetica,sans-Serif" font-size="10.00">AiTask</text>
</a>
</g>
</g>
<!-- Node2&#45;&gt;Node1 -->
<g id="edge1" class="edge"><title>Node2&#45;&gt;Node1</title>
<path fill="none" stroke="midnightblue" d="M715.9,-241.652C775.584,-242.707 905.565,-242.942 1014,-228.823 1024.53,-227.451 1035.81,-225.472 1046.33,-223.399"/>
<polygon fill="midnightblue" stroke="midnightblue" points="715.662,-238.146 705.595,-241.448 715.524,-245.145 715.662,-238.146"/>
</g>
<!-- Node13 -->
<g id="node13" class="node"><title>Node13</title>
<g id="a_node13"><a xlink:href="class_fly_to_task.html" target="_top" xlink:title="FlyToTask">
<polygon fill="white" stroke="black" points="886,-204.323 886,-223.323 948,-223.323 948,-204.323 886,-204.323"/>
<text text-anchor="middle" x="917" y="-211.323" font-family="Helvetica,sans-Serif" font-size="10.00">FlyToTask</text>
</a>
</g>
</g>
<!-- Node2&#45;&gt;Node13 -->
<g id="edge17" class="edge"><title>Node2&#45;&gt;Node13</title>
<path fill="none" stroke="midnightblue" d="M715.934,-237.007C761.222,-231.759 842.076,-222.389 885.85,-217.317"/>
<polygon fill="midnightblue" stroke="midnightblue" points="715.296,-233.557 705.765,-238.185 716.102,-240.511 715.296,-233.557"/>
</g>
<!-- Node3 -->
<g id="node3" class="node"><title>Node3</title>
<g id="a_node3"><a xlink:href="class_scriptable.html" target="_top" xlink:title="Scriptable">
<polygon fill="white" stroke="black" points="30,-123.323 30,-142.323 90,-142.323 90,-123.323 30,-123.323"/>
<text text-anchor="middle" x="60" y="-130.323" font-family="Helvetica,sans-Serif" font-size="10.00">Scriptable</text>
</a>
</g>
</g>
<!-- Node3&#45;&gt;Node2 -->
<g id="edge2" class="edge"><title>Node3&#45;&gt;Node2</title>
<path fill="none" stroke="midnightblue" d="M97.1941,-145.695C155.476,-165.803 274.115,-204.186 378,-221.823 481.668,-239.423 607.773,-241.13 658.386,-241.027"/>
<polygon fill="midnightblue" stroke="midnightblue" points="98.2944,-142.372 87.6996,-142.397 95.997,-148.985 98.2944,-142.372"/>
</g>
<!-- Node6 -->
<g id="node6" class="node"><title>Node6</title>
<g id="a_node6"><a xlink:href="class_world_object.html" target="_top" xlink:title="WorldObject">
<polygon fill="white" stroke="red" points="202.5,-96.323 202.5,-115.323 273.5,-115.323 273.5,-96.323 202.5,-96.323"/>
<text text-anchor="middle" x="238" y="-103.323" font-family="Helvetica,sans-Serif" font-size="10.00">WorldObject</text>
</a>
</g>
</g>
<!-- Node3&#45;&gt;Node6 -->
<g id="edge6" class="edge"><title>Node3&#45;&gt;Node6</title>
<path fill="none" stroke="midnightblue" d="M99.9813,-126.843C130.651,-122.138 172.986,-115.643 202.451,-111.123"/>
<polygon fill="midnightblue" stroke="midnightblue" points="99.4164,-123.389 90.0628,-128.365 100.478,-130.308 99.4164,-123.389"/>
</g>
<!-- Node4 -->
<g id="node4" class="node"><title>Node4</title>
<g id="a_node4"><a xlink:href="class_handle.html" target="_top" xlink:title="Handle\&lt; AiTask \&gt;">
<polygon fill="white" stroke="black" points="380.5,-193.323 380.5,-212.323 475.5,-212.323 475.5,-193.323 380.5,-193.323"/>
<text text-anchor="middle" x="428" y="-200.323" font-family="Helvetica,sans-Serif" font-size="10.00">Handle&lt; AiTask &gt;</text>
</a>
</g>
</g>
<!-- Node4&#45;&gt;Node2 -->
<g id="edge3" class="edge"><title>Node4&#45;&gt;Node2</title>
<path fill="none" stroke="#9a32cd" stroke-dasharray="5,2" d="M485.858,-204.548C514.351,-206.212 549.248,-209.467 580,-215.823 588.258,-217.53 589.88,-219.546 598,-221.823 618.211,-227.491 641.538,-232.717 658.305,-236.247"/>
<polygon fill="#9a32cd" stroke="#9a32cd" points="485.842,-201.042 475.67,-204.004 485.469,-208.032 485.842,-201.042"/>
<text text-anchor="middle" x="538" y="-218.823" font-family="Helvetica,sans-Serif" font-size="10.00"> m_handle</text>
</g>
<!-- Node5 -->
<g id="node5" class="node"><title>Node5</title>
<g id="a_node5"><a xlink:href="class_board_computer.html" target="_top" xlink:title="BoardComputer">
<polygon fill="white" stroke="red" points="386,-117.323 386,-136.323 470,-136.323 470,-117.323 386,-117.323"/>
<text text-anchor="middle" x="428" y="-124.323" font-family="Helvetica,sans-Serif" font-size="10.00">BoardComputer</text>
</a>
</g>
</g>
<!-- Node5&#45;&gt;Node2 -->
<g id="edge4" class="edge"><title>Node5&#45;&gt;Node2</title>
<path fill="none" stroke="#9a32cd" stroke-dasharray="5,2" d="M480.137,-138.974C511.788,-148.563 551.652,-164.615 580,-189.823 592.194,-200.666 584.928,-212.056 598,-221.823 615.407,-234.83 640.191,-239.164 658.14,-240.497"/>
<polygon fill="#9a32cd" stroke="#9a32cd" points="480.754,-135.509 470.175,-136.084 478.804,-142.232 480.754,-135.509"/>
<text text-anchor="middle" x="538" y="-192.823" font-family="Helvetica,sans-Serif" font-size="10.00"> m_boardComputer</text>
</g>
<!-- Node10 -->
<g id="node10" class="node"><title>Node10</title>
<polygon fill="white" stroke="#bfbfbf" points="598.5,-117.323 598.5,-136.323 765.5,-136.323 765.5,-117.323 598.5,-117.323"/>
<text text-anchor="middle" x="682" y="-124.323" font-family="Helvetica,sans-Serif" font-size="10.00">std::unique_ptr&lt; BoardComputer &gt;</text>
</g>
<!-- Node5&#45;&gt;Node10 -->
<g id="edge13" class="edge"><title>Node5&#45;&gt;Node10</title>
<path fill="none" stroke="#9a32cd" stroke-dasharray="5,2" d="M480.2,-126.823C514.147,-126.823 559.447,-126.823 598.429,-126.823"/>
<polygon fill="#9a32cd" stroke="#9a32cd" points="480.049,-123.323 470.049,-126.823 480.049,-130.323 480.049,-123.323"/>
<text text-anchor="middle" x="538" y="-129.823" font-family="Helvetica,sans-Serif" font-size="10.00"> ptr</text>
</g>
<!-- Node6&#45;&gt;Node5 -->
<g id="edge5" class="edge"><title>Node6&#45;&gt;Node5</title>
<path fill="none" stroke="#9a32cd" stroke-dasharray="5,2" d="M283.998,-110.849C314.908,-114.302 355.631,-118.851 385.712,-122.211"/>
<polygon fill="#9a32cd" stroke="#9a32cd" points="284.248,-107.356 273.921,-109.724 283.47,-114.312 284.248,-107.356"/>
<text text-anchor="middle" x="326" y="-120.823" font-family="Helvetica,sans-Serif" font-size="10.00"> m_worldObject</text>
</g>
<!-- Node8 -->
<g id="node8" class="node"><title>Node8</title>
<g id="a_node8"><a xlink:href="class_ship.html" target="_top" xlink:title="Ship">
<polygon fill="white" stroke="black" points="899,-117.323 899,-136.323 935,-136.323 935,-117.323 899,-117.323"/>
<text text-anchor="middle" x="917" y="-124.323" font-family="Helvetica,sans-Serif" font-size="10.00">Ship</text>
</a>
</g>
</g>
<!-- Node6&#45;&gt;Node8 -->
<g id="edge9" class="edge"><title>Node6&#45;&gt;Node8</title>
<path fill="none" stroke="midnightblue" d="M283.804,-104.151C374.795,-101.162 587.718,-96.2371 766,-107.823 814.46,-110.972 871.215,-119.492 898.969,-123.976"/>
<polygon fill="midnightblue" stroke="midnightblue" points="283.456,-100.661 273.58,-104.496 283.692,-107.657 283.456,-100.661"/>
</g>
<!-- Node7 -->
<g id="node7" class="node"><title>Node7</title>
<g id="a_node7"><a xlink:href="class_handle.html" target="_top" xlink:title="Handle\&lt; WorldObject \&gt;">
<polygon fill="white" stroke="black" points="0.5,-69.323 0.5,-88.323 119.5,-88.323 119.5,-69.323 0.5,-69.323"/>
<text text-anchor="middle" x="60" y="-76.323" font-family="Helvetica,sans-Serif" font-size="10.00">Handle&lt; WorldObject &gt;</text>
</a>
</g>
</g>
<!-- Node7&#45;&gt;Node6 -->
<g id="edge7" class="edge"><title>Node7&#45;&gt;Node6</title>
<path fill="none" stroke="#9a32cd" stroke-dasharray="5,2" d="M129.726,-89.3662C154.561,-93.1762 181.55,-97.3165 202.244,-100.491"/>
<polygon fill="#9a32cd" stroke="#9a32cd" points="130.021,-85.8705 119.605,-87.8136 128.959,-92.7896 130.021,-85.8705"/>
<text text-anchor="middle" x="161" y="-99.823" font-family="Helvetica,sans-Serif" font-size="10.00"> m_handle</text>
</g>
<!-- Node7&#45;&gt;Node8 -->
<g id="edge10" class="edge"><title>Node7&#45;&gt;Node8</title>
<path fill="none" stroke="#9a32cd" stroke-dasharray="5,2" d="M107.459,-66.9188C142.746,-58.9161 192.608,-49.823 237,-49.823 237,-49.823 237,-49.823 683,-49.823 767.993,-49.823 862.018,-96.5854 899.382,-117.227"/>
<polygon fill="#9a32cd" stroke="#9a32cd" points="106.401,-63.5714 97.4546,-69.247 107.988,-70.3892 106.401,-63.5714"/>
<text text-anchor="middle" x="428" y="-52.823" font-family="Helvetica,sans-Serif" font-size="10.00"> m_targetObjectHandle</text>
</g>
<!-- Node8&#45;&gt;Node1 -->
<g id="edge8" class="edge"><title>Node8&#45;&gt;Node1</title>
<path fill="none" stroke="#9a32cd" stroke-dasharray="5,2" d="M944.1,-140.102C978.895,-157.804 1039.63,-188.707 1070.24,-204.278"/>
<polygon fill="#9a32cd" stroke="#9a32cd" points="945.521,-136.898 935.021,-135.483 942.347,-143.137 945.521,-136.898"/>
<text text-anchor="middle" x="990" y="-177.823" font-family="Helvetica,sans-Serif" font-size="10.00"> m_ship</text>
</g>
<!-- Node9 -->
<g id="node9" class="node"><title>Node9</title>
<polygon fill="white" stroke="#bfbfbf" points="611.5,-2.32303 611.5,-21.323 752.5,-21.323 752.5,-2.32303 611.5,-2.32303"/>
<text text-anchor="middle" x="682" y="-9.32303" font-family="Helvetica,sans-Serif" font-size="10.00">std::unique_ptr&lt; Character &gt;</text>
</g>
<!-- Node9&#45;&gt;Node8 -->
<g id="edge11" class="edge"><title>Node9&#45;&gt;Node8</title>
<path fill="none" stroke="#9a32cd" stroke-dasharray="5,2" d="M744.332,-1.28991C783.033,1.99394 832.277,-0.354399 868,-24.823 900.132,-46.8317 911.313,-96.2586 914.7,-117.178"/>
<polygon fill="#9a32cd" stroke="#9a32cd" points="743.832,2.17772 734.226,-2.29342 744.523,-4.78802 743.832,2.17772"/>
<text text-anchor="middle" x="826" y="-27.823" font-family="Helvetica,sans-Serif" font-size="10.00"> m_character</text>
</g>
<!-- Node10&#45;&gt;Node8 -->
<g id="edge12" class="edge"><title>Node10&#45;&gt;Node8</title>
<path fill="none" stroke="#9a32cd" stroke-dasharray="5,2" d="M775.835,-126.823C821.842,-126.823 872.988,-126.823 898.917,-126.823"/>
<polygon fill="#9a32cd" stroke="#9a32cd" points="775.803,-123.323 765.803,-126.823 775.803,-130.323 775.803,-123.323"/>
<text text-anchor="middle" x="826" y="-129.823" font-family="Helvetica,sans-Serif" font-size="10.00"> m_boardComputer</text>
</g>
<!-- Node11 -->
<g id="node11" class="node"><title>Node11</title>
<g id="a_node11"><a xlink:href="class_handle.html" target="_top" xlink:title="Handle\&lt; Ship \&gt;">
<polygon fill="white" stroke="black" points="640,-193.323 640,-212.323 724,-212.323 724,-193.323 640,-193.323"/>
<text text-anchor="middle" x="682" y="-200.323" font-family="Helvetica,sans-Serif" font-size="10.00">Handle&lt; Ship &gt;</text>
</a>
</g>
</g>
<!-- Node11&#45;&gt;Node8 -->
<g id="edge14" class="edge"><title>Node11&#45;&gt;Node8</title>
<path fill="none" stroke="#9a32cd" stroke-dasharray="5,2" d="M734.76,-201.161C773.214,-198.171 826.047,-190.271 868,-169.823 884.494,-161.784 899.554,-146.398 908.249,-136.377"/>
<polygon fill="#9a32cd" stroke="#9a32cd" points="734.052,-197.701 724.317,-201.881 734.534,-204.685 734.052,-197.701"/>
<text text-anchor="middle" x="826" y="-197.823" font-family="Helvetica,sans-Serif" font-size="10.00"> m_shipHandle</text>
</g>
<!-- Node12 -->
<g id="node12" class="node"><title>Node12</title>
<polygon fill="white" stroke="#bfbfbf" points="607,-155.323 607,-174.323 757,-174.323 757,-155.323 607,-155.323"/>
<text text-anchor="middle" x="682" y="-162.323" font-family="Helvetica,sans-Serif" font-size="10.00">std::unique_ptr&lt; SquadLogic &gt;</text>
</g>
<!-- Node12&#45;&gt;Node8 -->
<g id="edge15" class="edge"><title>Node12&#45;&gt;Node8</title>
<path fill="none" stroke="#9a32cd" stroke-dasharray="5,2" d="M767.465,-157.544C799.201,-153.968 835.461,-148.87 868,-141.823 878.41,-139.568 889.8,-136.056 898.87,-132.997"/>
<polygon fill="#9a32cd" stroke="#9a32cd" points="766.89,-154.086 757.33,-158.653 767.652,-161.045 766.89,-154.086"/>
<text text-anchor="middle" x="826" y="-157.823" font-family="Helvetica,sans-Serif" font-size="10.00"> m_squadLogic</text>
</g>
<!-- Node13&#45;&gt;Node1 -->
<g id="edge16" class="edge"><title>Node13&#45;&gt;Node1</title>
<path fill="none" stroke="#9a32cd" stroke-dasharray="5,2" d="M958.448,-213.823C980.351,-213.823 1007.78,-213.823 1031.83,-213.823"/>
<polygon fill="#9a32cd" stroke="#9a32cd" points="958.178,-210.323 948.178,-213.823 958.178,-217.323 958.178,-210.323"/>
<text text-anchor="middle" x="990" y="-216.823" font-family="Helvetica,sans-Serif" font-size="10.00"> m_flyTask</text>
</g>
</g>
</svg>
        <g id="navigator" transform="translate(0 0)" fill="#404254">
                <rect fill="#f2f5e9" fill-opacity="0.5" stroke="#606060" stroke-width=".5" x="0" y="0" width="60" height="60"/>
                <use id="zoomplus" xlink:href="#zoomPlus" x="17" y="9" onmousedown="handleZoom(evt,'in')"/>
                <use id="zoomminus" xlink:href="#zoomMin" x="42" y="9" onmousedown="handleZoom(evt,'out')"/>
                <use id="reset" xlink:href="#resetDef" x="30" y="36" onmousedown="handleReset()"/>
                <g id="arrowUp" xlink:href="#dirArrow" transform="translate(30 24)" onmousedown="handlePan(0,-1)">
                  <use xlink:href="#rim" fill="#404040">
                        <set attributeName="fill" to="#808080" begin="arrowUp.mouseover" end="arrowUp.mouseout"/>
                  </use>
                  <path fill="none" stroke="white" stroke-width="1.5" d="M0,-3.0v7 M-2.5,-0.5L0,-3.0L2.5,-0.5"/>
                </g>
                <g id="arrowRight" xlink:href="#dirArrow" transform="rotate(90) translate(36 -43)" onmousedown="handlePan(1,0)">
                  <use xlink:href="#rim" fill="#404040">
                        <set attributeName="fill" to="#808080" begin="arrowRight.mouseover" end="arrowRight.mouseout"/>
                  </use>
                  <path fill="none" stroke="white" stroke-width="1.5" d="M0,-3.0v7 M-2.5,-0.5L0,-3.0L2.5,-0.5"/>
                </g>
                <g id="arrowDown" xlink:href="#dirArrow" transform="rotate(180) translate(-30 -48)" onmousedown="handlePan(0,1)">
                  <use xlink:href="#rim" fill="#404040">
                        <set attributeName="fill" to="#808080" begin="arrowDown.mouseover" end="arrowDown.mouseout"/>
                  </use>
                  <path fill="none" stroke="white" stroke-width="1.5" d="M0,-3.0v7 M-2.5,-0.5L0,-3.0L2.5,-0.5"/>
                </g>
                <g id="arrowLeft" xlink:href="#dirArrow" transform="rotate(270) translate(-36 17)" onmousedown="handlePan(-1,0)">
                  <use xlink:href="#rim" fill="#404040">
                        <set attributeName="fill" to="#808080" begin="arrowLeft.mouseover" end="arrowLeft.mouseout"/>
                  </use>
                  <path fill="none" stroke="white" stroke-width="1.5" d="M0,-3.0v7 M-2.5,-0.5L0,-3.0L2.5,-0.5"/>
                </g>
        </g>
        <svg viewBox="0 0 15 15" width="100%" height="30px" preserveAspectRatio="xMaxYMin meet">
         <g id="arrow_out" transform="scale(0.3 0.3)">
          <a xlink:href="class_formation_member_task__coll__graph_org.svg" target="_base">
           <rect id="button" ry="5" rx="5" y="6" x="6" height="38" width="38"
                fill="#f2f5e9" fill-opacity="0.5" stroke="#606060" stroke-width="1.0"/>
           <path id="arrow"
             d="M 11.500037,31.436501 C 11.940474,20.09759 22.043105,11.32322 32.158766,21.979434 L 37.068811,17.246167 C 37.068811,17.246167 37.088388,32 37.088388,32 L 22.160133,31.978069 C 22.160133,31.978069 26.997745,27.140456 26.997745,27.140456 C 18.528582,18.264221 13.291696,25.230495 11.500037,31.436501 z"
             style="fill:#404040;"/>
          </a>
         </g>
        </svg>
</svg>
