<?xml version="1.0" encoding="UTF-8" standalone="no"?>
<!DOCTYPE svg PUBLIC "-//W3C//DTD SVG 1.1//EN"
 "http://www.w3.org/Graphics/SVG/1.1/DTD/svg11.dtd">
<!-- Generated by graphviz version 2.36.0 (20140111.2315)
 -->
<!-- Title: WorldObjectSlot Pages: 1 -->
<svg width="542pt" height="204pt"
 viewBox="0.00 0.00 542.00 204.00" xmlns="http://www.w3.org/2000/svg" xmlns:xlink="http://www.w3.org/1999/xlink">
<g id="graph0" class="graph" transform="scale(1 1) rotate(0) translate(4 200)">
<title>WorldObjectSlot</title>
<polygon fill="white" stroke="none" points="-4,4 -4,-200 538,-200 538,4 -4,4"/>
<!-- Node1 -->
<g id="node1" class="node"><title>Node1</title>
<polygon fill="#bfbfbf" stroke="black" points="446,-125.5 446,-144.5 534,-144.5 534,-125.5 446,-125.5"/>
<text text-anchor="middle" x="490" y="-132.5" font-family="Helvetica,sans-Serif" font-size="10.00">WorldObjectSlot</text>
</g>
<!-- Node2 -->
<g id="node2" class="node"><title>Node2</title>
<polygon fill="white" stroke="#bfbfbf" points="222,-149 222,-179 332,-179 332,-149 222,-149"/>
<text text-anchor="start" x="230" y="-167" font-family="Helvetica,sans-Serif" font-size="10.00">std::map&lt; std::string,</text>
<text text-anchor="middle" x="277" y="-156" font-family="Helvetica,sans-Serif" font-size="10.00"> bool &gt;</text>
</g>
<!-- Node2&#45;&gt;Node1 -->
<g id="edge1" class="edge"><title>Node2&#45;&gt;Node1</title>
<path fill="none" stroke="#9a32cd" stroke-dasharray="5,2" d="M342.238,-155.171C375.763,-150.563 415.888,-145.049 445.703,-140.951"/>
<polygon fill="#9a32cd" stroke="#9a32cd" points="341.494,-151.74 332.064,-156.569 342.447,-158.675 341.494,-151.74"/>
<text text-anchor="middle" x="393" y="-155" font-family="Helvetica,sans-Serif" font-size="10.00"> m_mountables</text>
</g>
<!-- Node3 -->
<g id="node3" class="node"><title>Node3</title>
<g id="a_node3"><a xlink:title="STL class. ">
<polygon fill="white" stroke="#bfbfbf" points="24,-176.5 24,-195.5 84,-195.5 84,-176.5 24,-176.5"/>
<text text-anchor="middle" x="54" y="-183.5" font-family="Helvetica,sans-Serif" font-size="10.00">std::string</text>
</a>
</g>
</g>
<!-- Node3&#45;&gt;Node2 -->
<g id="edge2" class="edge"><title>Node3&#45;&gt;Node2</title>
<path fill="none" stroke="#9a32cd" stroke-dasharray="5,2" d="M94.3347,-182.084C129.844,-178.55 182.416,-173.316 221.882,-169.387"/>
<polygon fill="#9a32cd" stroke="#9a32cd" points="93.9512,-178.605 84.3471,-183.079 94.6446,-185.571 93.9512,-178.605"/>
<text text-anchor="middle" x="161" y="-181" font-family="Helvetica,sans-Serif" font-size="10.00"> keys</text>
</g>
<!-- Node4 -->
<g id="node4" class="node"><title>Node4</title>
<g id="a_node4"><a xlink:href="class_world_object_components.html" target="_top" xlink:title="WorldObjectComponents">
<polygon fill="white" stroke="black" points="214.5,-88.5 214.5,-107.5 339.5,-107.5 339.5,-88.5 214.5,-88.5"/>
<text text-anchor="middle" x="277" y="-95.5" font-family="Helvetica,sans-Serif" font-size="10.00">WorldObjectComponents</text>
</a>
</g>
</g>
<!-- Node4&#45;&gt;Node1 -->
<g id="edge3" class="edge"><title>Node4&#45;&gt;Node1</title>
<path fill="none" stroke="#9a32cd" stroke-dasharray="5,2" d="M342.51,-109.312C376.022,-115.189 416.068,-122.211 445.814,-127.427"/>
<polygon fill="#9a32cd" stroke="#9a32cd" points="342.792,-105.808 332.338,-107.528 341.583,-112.703 342.792,-105.808"/>
<text text-anchor="middle" x="393" y="-128" font-family="Helvetica,sans-Serif" font-size="10.00"> m_components</text>
</g>
<!-- Node5 -->
<g id="node5" class="node"><title>Node5</title>
<polygon fill="white" stroke="#bfbfbf" points="0.5,-127 0.5,-157 107.5,-157 107.5,-127 0.5,-127"/>
<text text-anchor="start" x="8.5" y="-145" font-family="Helvetica,sans-Serif" font-size="10.00">std::list&lt; std::shared</text>
<text text-anchor="middle" x="54" y="-134" font-family="Helvetica,sans-Serif" font-size="10.00">_ptr&lt; Hardpoint &gt; &gt;</text>
</g>
<!-- Node5&#45;&gt;Node4 -->
<g id="edge4" class="edge"><title>Node5&#45;&gt;Node4</title>
<path fill="none" stroke="#9a32cd" stroke-dasharray="5,2" d="M117.798,-129.497C152.899,-122.509 195.946,-113.938 228.27,-107.503"/>
<polygon fill="#9a32cd" stroke="#9a32cd" points="116.778,-126.131 107.654,-131.517 118.145,-132.997 116.778,-126.131"/>
<text text-anchor="middle" x="161" y="-131" font-family="Helvetica,sans-Serif" font-size="10.00"> m_hardpoints</text>
</g>
<!-- Node6 -->
<g id="node6" class="node"><title>Node6</title>
<g id="a_node6"><a xlink:href="class_world_object.html" target="_top" xlink:title="WorldObject">
<polygon fill="white" stroke="red" points="18.5,-88.5 18.5,-107.5 89.5,-107.5 89.5,-88.5 18.5,-88.5"/>
<text text-anchor="middle" x="54" y="-95.5" font-family="Helvetica,sans-Serif" font-size="10.00">WorldObject</text>
</a>
</g>
</g>
<!-- Node6&#45;&gt;Node4 -->
<g id="edge5" class="edge"><title>Node6&#45;&gt;Node4</title>
<path fill="none" stroke="#9a32cd" stroke-dasharray="5,2" d="M99.759,-98C132.665,-98 177.793,-98 214.145,-98"/>
<polygon fill="#9a32cd" stroke="#9a32cd" points="99.5313,-94.5001 89.5313,-98 99.5312,-101.5 99.5313,-94.5001"/>
<text text-anchor="middle" x="161" y="-101" font-family="Helvetica,sans-Serif" font-size="10.00"> m_worldObject</text>
</g>
<!-- Node7 -->
<g id="node7" class="node"><title>Node7</title>
<polygon fill="white" stroke="#bfbfbf" points="0.5,-39 0.5,-69 107.5,-69 107.5,-39 0.5,-39"/>
<text text-anchor="start" x="8.5" y="-57" font-family="Helvetica,sans-Serif" font-size="10.00">std::list&lt; std::shared</text>
<text text-anchor="middle" x="54" y="-46" font-family="Helvetica,sans-Serif" font-size="10.00">_ptr&lt; EngineSlot &gt; &gt;</text>
</g>
<!-- Node7&#45;&gt;Node4 -->
<g id="edge6" class="edge"><title>Node7&#45;&gt;Node4</title>
<path fill="none" stroke="#9a32cd" stroke-dasharray="5,2" d="M117.798,-66.5029C152.899,-73.4911 195.946,-82.0616 228.27,-88.4972"/>
<polygon fill="#9a32cd" stroke="#9a32cd" points="118.145,-63.0033 107.654,-64.4832 116.778,-69.8685 118.145,-63.0033"/>
<text text-anchor="middle" x="161" y="-85" font-family="Helvetica,sans-Serif" font-size="10.00"> m_engineSlots</text>
</g>
<!-- Node8 -->
<g id="node8" class="node"><title>Node8</title>
<g id="a_node8"><a xlink:href="class_abstract_move.html" target="_top" xlink:title="AbstractMove">
<polygon fill="white" stroke="black" points="16,-0.5 16,-19.5 92,-19.5 92,-0.5 16,-0.5"/>
<text text-anchor="middle" x="54" y="-7.5" font-family="Helvetica,sans-Serif" font-size="10.00">AbstractMove</text>
</a>
</g>
</g>
<!-- Node8&#45;&gt;Node4 -->
<g id="edge7" class="edge"><title>Node8&#45;&gt;Node4</title>
<path fill="none" stroke="#9a32cd" stroke-dasharray="5,2" d="M102.113,-22.1458C129.923,-29.9416 165.533,-41.0229 196,-54 219.479,-64.0005 245.068,-78.8253 260.826,-88.4509"/>
<polygon fill="#9a32cd" stroke="#9a32cd" points="102.814,-18.7087 92.2434,-19.4249 100.953,-25.4569 102.814,-18.7087"/>
<text text-anchor="middle" x="161" y="-57" font-family="Helvetica,sans-Serif" font-size="10.00"> m_engineState</text>
</g>
</g>
</svg>
