<?xml version="1.0" encoding="UTF-8" standalone="no"?>
<!DOCTYPE svg PUBLIC "-//W3C//DTD SVG 1.1//EN"
 "http://www.w3.org/Graphics/SVG/1.1/DTD/svg11.dtd">
<!-- Generated by graphviz version 2.36.0 (20140111.2315)
 -->
<!-- Title: BaseScenario Pages: 1 -->
<svg width="234pt" height="218pt"
 viewBox="0.00 0.00 234.00 218.00" xmlns="http://www.w3.org/2000/svg" xmlns:xlink="http://www.w3.org/1999/xlink">
<g id="graph0" class="graph" transform="scale(1 1) rotate(0) translate(4 214)">
<title>BaseScenario</title>
<polygon fill="white" stroke="none" points="-4,4 -4,-214 230,-214 230,4 -4,4"/>
<!-- Node1 -->
<g id="node1" class="node"><title>Node1</title>
<polygon fill="#bfbfbf" stroke="black" points="0.5,-95.5 0.5,-114.5 77.5,-114.5 77.5,-95.5 0.5,-95.5"/>
<text text-anchor="middle" x="39" y="-102.5" font-family="Helvetica,sans-Serif" font-size="10.00">BaseScenario</text>
</g>
<!-- Node2 -->
<g id="node2" class="node"><title>Node2</title>
<g id="a_node2"><a xlink:href="class_battle_scenario.html" target="_top" xlink:title="BattleScenario">
<polygon fill="white" stroke="black" points="130,-190.5 130,-209.5 210,-209.5 210,-190.5 130,-190.5"/>
<text text-anchor="middle" x="170" y="-197.5" font-family="Helvetica,sans-Serif" font-size="10.00">BattleScenario</text>
</a>
</g>
</g>
<!-- Node1&#45;&gt;Node2 -->
<g id="edge1" class="edge"><title>Node1&#45;&gt;Node2</title>
<path fill="none" stroke="midnightblue" d="M53.1124,-122.628C66.6521,-139.711 89.2423,-165.282 114,-181 119.97,-184.79 126.787,-187.928 133.542,-190.487"/>
<polygon fill="midnightblue" stroke="midnightblue" points="55.7723,-120.345 46.8935,-114.564 50.2294,-124.62 55.7723,-120.345"/>
</g>
<!-- Node3 -->
<g id="node3" class="node"><title>Node3</title>
<g id="a_node3"><a xlink:href="class_frozen_game_scenario.html" target="_top" xlink:title="FrozenGameScenario">
<polygon fill="white" stroke="black" points="114.5,-152.5 114.5,-171.5 225.5,-171.5 225.5,-152.5 114.5,-152.5"/>
<text text-anchor="middle" x="170" y="-159.5" font-family="Helvetica,sans-Serif" font-size="10.00">FrozenGameScenario</text>
</a>
</g>
</g>
<!-- Node1&#45;&gt;Node3 -->
<g id="edge2" class="edge"><title>Node1&#45;&gt;Node3</title>
<path fill="none" stroke="midnightblue" d="M66.0449,-119.522C80.0318,-127.026 97.7044,-136.043 114,-143 121.897,-146.372 130.614,-149.599 138.735,-152.406"/>
<polygon fill="midnightblue" stroke="midnightblue" points="67.4701,-116.313 57.0126,-114.613 64.127,-122.463 67.4701,-116.313"/>
</g>
<!-- Node4 -->
<g id="node4" class="node"><title>Node4</title>
<g id="a_node4"><a xlink:href="class_game_scenario.html" target="_top" xlink:title="GameScenario">
<polygon fill="white" stroke="black" points="129.5,-114.5 129.5,-133.5 210.5,-133.5 210.5,-114.5 129.5,-114.5"/>
<text text-anchor="middle" x="170" y="-121.5" font-family="Helvetica,sans-Serif" font-size="10.00">GameScenario</text>
</a>
</g>
</g>
<!-- Node1&#45;&gt;Node4 -->
<g id="edge3" class="edge"><title>Node1&#45;&gt;Node4</title>
<path fill="none" stroke="midnightblue" d="M87.8347,-112.045C101.471,-114.054 116.175,-116.22 129.272,-118.149"/>
<polygon fill="midnightblue" stroke="midnightblue" points="88.0622,-108.541 77.6589,-110.547 87.0422,-115.467 88.0622,-108.541"/>
</g>
<!-- Node5 -->
<g id="node5" class="node"><title>Node5</title>
<g id="a_node5"><a xlink:href="class_mission_scenario.html" target="_top" xlink:title="MissionScenario">
<polygon fill="white" stroke="black" points="125.5,-76.5 125.5,-95.5 214.5,-95.5 214.5,-76.5 125.5,-76.5"/>
<text text-anchor="middle" x="170" y="-83.5" font-family="Helvetica,sans-Serif" font-size="10.00">MissionScenario</text>
</a>
</g>
</g>
<!-- Node1&#45;&gt;Node5 -->
<g id="edge4" class="edge"><title>Node1&#45;&gt;Node5</title>
<path fill="none" stroke="midnightblue" d="M87.7096,-97.973C99.9692,-96.1673 113.099,-94.2336 125.152,-92.4582"/>
<polygon fill="midnightblue" stroke="midnightblue" points="87.0422,-94.5335 77.6589,-99.4533 88.0622,-101.459 87.0422,-94.5335"/>
</g>
<!-- Node6 -->
<g id="node6" class="node"><title>Node6</title>
<g id="a_node6"><a xlink:href="class_pirate_scenario.html" target="_top" xlink:title="PirateScenario">
<polygon fill="white" stroke="black" points="130,-38.5 130,-57.5 210,-57.5 210,-38.5 130,-38.5"/>
<text text-anchor="middle" x="170" y="-45.5" font-family="Helvetica,sans-Serif" font-size="10.00">PirateScenario</text>
</a>
</g>
</g>
<!-- Node1&#45;&gt;Node6 -->
<g id="edge5" class="edge"><title>Node1&#45;&gt;Node6</title>
<path fill="none" stroke="midnightblue" d="M66.0449,-90.4778C80.0318,-82.9737 97.7044,-73.9572 114,-67 121.897,-63.6283 130.614,-60.401 138.735,-57.5939"/>
<polygon fill="midnightblue" stroke="midnightblue" points="64.127,-87.5366 57.0126,-95.3874 67.4701,-93.6867 64.127,-87.5366"/>
</g>
<!-- Node7 -->
<g id="node7" class="node"><title>Node7</title>
<g id="a_node7"><a xlink:href="class_scripted_scenario.html" target="_top" xlink:title="ScriptedScenario">
<polygon fill="white" stroke="black" points="124.5,-0.5 124.5,-19.5 215.5,-19.5 215.5,-0.5 124.5,-0.5"/>
<text text-anchor="middle" x="170" y="-7.5" font-family="Helvetica,sans-Serif" font-size="10.00">ScriptedScenario</text>
</a>
</g>
</g>
<!-- Node1&#45;&gt;Node7 -->
<g id="edge6" class="edge"><title>Node1&#45;&gt;Node7</title>
<path fill="none" stroke="midnightblue" d="M53.1124,-87.3725C66.6521,-70.2887 89.2423,-44.7182 114,-29 119.97,-25.2097 126.787,-22.0716 133.542,-19.5125"/>
<polygon fill="midnightblue" stroke="midnightblue" points="50.2294,-85.3796 46.8935,-95.4355 55.7723,-89.6547 50.2294,-85.3796"/>
</g>
</g>
</svg>
