<?xml version="1.0" encoding="UTF-8" standalone="no"?>
<!DOCTYPE svg PUBLIC "-//W3C//DTD SVG 1.1//EN"
 "http://www.w3.org/Graphics/SVG/1.1/DTD/svg11.dtd">
<!-- Generated by graphviz version 2.36.0 (20140111.2315)
 -->
<!-- Title: Sound Pages: 1 -->
<svg width="106pt" height="108pt"
 viewBox="0.00 0.00 106.00 108.00" xmlns="http://www.w3.org/2000/svg" xmlns:xlink="http://www.w3.org/1999/xlink">
<g id="graph0" class="graph" transform="scale(1 1) rotate(0) translate(4 104)">
<title>Sound</title>
<polygon fill="white" stroke="none" points="-4,4 -4,-104 102,-104 102,4 -4,4"/>
<!-- Node1 -->
<g id="node1" class="node"><title>Node1</title>
<polygon fill="#bfbfbf" stroke="black" points="27,-0.5 27,-19.5 71,-19.5 71,-0.5 27,-0.5"/>
<text text-anchor="middle" x="49" y="-7.5" font-family="Helvetica,sans-Serif" font-size="10.00">Sound</text>
</g>
<!-- Node2 -->
<g id="node2" class="node"><title>Node2</title>
<polygon fill="white" stroke="#bfbfbf" points="0,-69 0,-99 98,-99 98,-69 0,-69"/>
<text text-anchor="start" x="8" y="-87" font-family="Helvetica,sans-Serif" font-size="10.00">std::unique_ptr&lt; sf</text>
<text text-anchor="middle" x="49" y="-76" font-family="Helvetica,sans-Serif" font-size="10.00">::Sound &gt;</text>
</g>
<!-- Node2&#45;&gt;Node1 -->
<g id="edge1" class="edge"><title>Node2&#45;&gt;Node1</title>
<path fill="none" stroke="#9a32cd" stroke-dasharray="5,2" d="M49,-58.6883C49,-45.2526 49,-29.3805 49,-19.7589"/>
<polygon fill="#9a32cd" stroke="#9a32cd" points="45.5001,-58.7751 49,-68.7751 52.5001,-58.7752 45.5001,-58.7751"/>
<text text-anchor="middle" x="70.5" y="-41.5" font-family="Helvetica,sans-Serif" font-size="10.00"> m_sound</text>
</g>
</g>
</svg>
