<?xml version="1.0" encoding="UTF-8" standalone="no"?>
<!DOCTYPE svg PUBLIC "-//W3C//DTD SVG 1.1//EN"
 "http://www.w3.org/Graphics/SVG/1.1/DTD/svg11.dtd">
<!-- Generated by graphviz version 2.36.0 (20140111.2315)
 -->
<!-- Title: Timer Pages: 1 -->
<svg width="191pt" height="154pt"
 viewBox="0.00 0.00 191.00 154.00" xmlns="http://www.w3.org/2000/svg" xmlns:xlink="http://www.w3.org/1999/xlink">
<g id="graph0" class="graph" transform="scale(1 1) rotate(0) translate(4 150)">
<title>Timer</title>
<polygon fill="white" stroke="none" points="-4,4 -4,-150 187,-150 187,4 -4,4"/>
<!-- Node1 -->
<g id="node1" class="node"><title>Node1</title>
<polygon fill="#bfbfbf" stroke="black" points="59.5,-0.5 59.5,-19.5 100.5,-19.5 100.5,-0.5 59.5,-0.5"/>
<text text-anchor="middle" x="80" y="-7.5" font-family="Helvetica,sans-Serif" font-size="10.00">Timer</text>
</g>
<!-- Node2 -->
<g id="node2" class="node"><title>Node2</title>
<g id="a_node2"><a xlink:href="class_event_poll.html" target="_top" xlink:title="EventPoll">
<polygon fill="white" stroke="black" points="51.5,-58.5 51.5,-77.5 108.5,-77.5 108.5,-58.5 51.5,-58.5"/>
<text text-anchor="middle" x="80" y="-65.5" font-family="Helvetica,sans-Serif" font-size="10.00">EventPoll</text>
</a>
</g>
</g>
<!-- Node2&#45;&gt;Node1 -->
<g id="edge1" class="edge"><title>Node2&#45;&gt;Node1</title>
<path fill="none" stroke="midnightblue" d="M80,-47.953C80,-38.2875 80,-27.0312 80,-19.5052"/>
<polygon fill="midnightblue" stroke="midnightblue" points="76.5001,-48.25 80,-58.25 83.5001,-48.25 76.5001,-48.25"/>
</g>
<!-- Node3 -->
<g id="node3" class="node"><title>Node3</title>
<g id="a_node3"><a xlink:href="class_scriptable.html" target="_top" xlink:title="Scriptable">
<polygon fill="white" stroke="black" points="0,-126.5 0,-145.5 60,-145.5 60,-126.5 0,-126.5"/>
<text text-anchor="middle" x="30" y="-133.5" font-family="Helvetica,sans-Serif" font-size="10.00">Scriptable</text>
</a>
</g>
</g>
<!-- Node3&#45;&gt;Node2 -->
<g id="edge2" class="edge"><title>Node3&#45;&gt;Node2</title>
<path fill="none" stroke="midnightblue" d="M42.6439,-118.31C52.3911,-105.444 65.4861,-88.1583 73.3022,-77.8411"/>
<polygon fill="midnightblue" stroke="midnightblue" points="39.7854,-116.287 36.5366,-126.372 45.3651,-120.514 39.7854,-116.287"/>
</g>
<!-- Node4 -->
<g id="node4" class="node"><title>Node4</title>
<g id="a_node4"><a xlink:href="class_handle.html" target="_top" xlink:title="Handle\&lt; EventPoll \&gt;">
<polygon fill="white" stroke="black" points="78.5,-126.5 78.5,-145.5 183.5,-145.5 183.5,-126.5 78.5,-126.5"/>
<text text-anchor="middle" x="131" y="-133.5" font-family="Helvetica,sans-Serif" font-size="10.00">Handle&lt; EventPoll &gt;</text>
</a>
</g>
</g>
<!-- Node4&#45;&gt;Node2 -->
<g id="edge3" class="edge"><title>Node4&#45;&gt;Node2</title>
<path fill="none" stroke="#9a32cd" stroke-dasharray="5,2" d="M118.103,-118.31C108.161,-105.444 94.8042,-88.1583 86.8318,-77.8411"/>
<polygon fill="#9a32cd" stroke="#9a32cd" points="115.449,-120.599 124.333,-126.372 120.988,-116.319 115.449,-120.599"/>
<text text-anchor="middle" x="134" y="-99.5" font-family="Helvetica,sans-Serif" font-size="10.00"> m_handle</text>
</g>
</g>
</svg>
