<?xml version="1.0" encoding="UTF-8" standalone="no"?>
<!DOCTYPE svg PUBLIC "-//W3C//DTD SVG 1.1//EN"
 "http://www.w3.org/Graphics/SVG/1.1/DTD/svg11.dtd">
<!-- Generated by graphviz version 2.36.0 (20140111.2315)
 -->
<!-- Title: VoxelParticleRenderer Pages: 1 -->
<!--zoomable 237 -->
<svg id="main" version="1.1" xmlns="http://www.w3.org/2000/svg" xmlns:xlink="http://www.w3.org/1999/xlink" xml:space="preserve" onload="init(evt)">
<style type="text/css"><![CDATA[
.edge:hover path { stroke: red; }
.edge:hover polygon { stroke: red; fill: red; }
]]></style>
<script type="text/javascript"><![CDATA[
var edges = document.getElementsByTagName('g');
if (edges && edges.length) {
  for (var i=0;i<edges.length;i++) {
    if (edges[i].id.substr(0,4)=='edge') {
      edges[i].setAttribute('class','edge');
    }
  }
}
]]></script>
        <defs>
                <circle id="rim" cx="0" cy="0" r="7"/>
                <circle id="rim2" cx="0" cy="0" r="3.5"/>
                <g id="zoomPlus">
                        <use xlink:href="#rim" fill="#404040">
                                <set attributeName="fill" to="#808080" begin="zoomplus.mouseover" end="zoomplus.mouseout"/>
                        </use>
                        <path d="M-4,0h8M0,-4v8" fill="none" stroke="white" stroke-width="1.5" pointer-events="none"/>
                </g>
                <g id="zoomMin">
                        <use xlink:href="#rim" fill="#404040">
                                <set attributeName="fill" to="#808080" begin="zoomminus.mouseover" end="zoomminus.mouseout"/>
                        </use>
                        <path d="M-4,0h8" fill="none" stroke="white" stroke-width="1.5" pointer-events="none"/>
                </g>
                <g id="dirArrow">
                        <path fill="none" stroke="white" stroke-width="1.5" d="M0,-3.0v7 M-2.5,-0.5L0,-3.0L2.5,-0.5"/>
                </g>
               <g id="resetDef">
                       <use xlink:href="#rim2" fill="#404040">
                               <set attributeName="fill" to="#808080" begin="reset.mouseover" end="reset.mouseout"/>
                       </use>
               </g>
        </defs>

<script type="text/javascript">
var viewWidth = 1128;
var viewHeight = 237;
var sectionId = 'dynsection-1';
</script>
<script xlink:href="svgpan.js"/>
<svg id="graph" class="graph">
<g id="viewport">
<title>VoxelParticleRenderer</title>
<polygon fill="white" stroke="none" points="-4,4 -4,-233 1124,-233 1124,4 -4,4"/>
<!-- Node1 -->
<g id="node1" class="node"><title>Node1</title>
<polygon fill="#bfbfbf" stroke="black" points="544.5,-38.5 544.5,-57.5 657.5,-57.5 657.5,-38.5 544.5,-38.5"/>
<text text-anchor="middle" x="601" y="-45.5" font-family="Helvetica,sans-Serif" font-size="10.00">VoxelParticleRenderer</text>
</g>
<!-- Node6 -->
<g id="node6" class="node"><title>Node6</title>
<polygon fill="white" stroke="#bfbfbf" points="710,-62 710,-92 858,-92 858,-62 710,-62"/>
<text text-anchor="start" x="718" y="-80" font-family="Helvetica,sans-Serif" font-size="10.00">std::unique_ptr&lt; VoxelParticle</text>
<text text-anchor="middle" x="784" y="-69" font-family="Helvetica,sans-Serif" font-size="10.00">Renderer &gt;</text>
</g>
<!-- Node1&#45;&gt;Node6 -->
<g id="edge6" class="edge"><title>Node1&#45;&gt;Node6</title>
<path fill="none" stroke="#9a32cd" stroke-dasharray="5,2" d="M667.984,-58.572C681.555,-60.7464 695.922,-63.0483 709.733,-65.2611"/>
<polygon fill="#9a32cd" stroke="#9a32cd" points="668.211,-55.0638 657.783,-56.9376 667.103,-61.9756 668.211,-55.0638"/>
<text text-anchor="middle" x="684" y="-65" font-family="Helvetica,sans-Serif" font-size="10.00"> ptr</text>
</g>
<!-- Node2 -->
<g id="node2" class="node"><title>Node2</title>
<g id="a_node2"><a xlink:href="class_context_dependant.html" target="_top" xlink:title="ContextDependant">
<polygon fill="white" stroke="black" points="0.5,-60.5 0.5,-79.5 97.5,-79.5 97.5,-60.5 0.5,-60.5"/>
<text text-anchor="middle" x="49" y="-67.5" font-family="Helvetica,sans-Serif" font-size="10.00">ContextDependant</text>
</a>
</g>
</g>
<!-- Node2&#45;&gt;Node1 -->
<g id="edge1" class="edge"><title>Node2&#45;&gt;Node1</title>
<path fill="none" stroke="midnightblue" d="M107.762,-73.0633C197.592,-76.9476 376.043,-81.1415 526,-63 536.801,-61.6933 548.377,-59.6571 559.09,-57.5019"/>
<polygon fill="midnightblue" stroke="midnightblue" points="107.663,-69.5554 97.5161,-72.6048 107.35,-76.5484 107.663,-69.5554"/>
</g>
<!-- Node9 -->
<g id="node9" class="node"><title>Node9</title>
<g id="a_node9"><a xlink:href="class_voxel_mesh.html" target="_top" xlink:title="VoxelMesh">
<polygon fill="white" stroke="black" points="136.5,-38.5 136.5,-57.5 201.5,-57.5 201.5,-38.5 136.5,-38.5"/>
<text text-anchor="middle" x="169" y="-45.5" font-family="Helvetica,sans-Serif" font-size="10.00">VoxelMesh</text>
</a>
</g>
</g>
<!-- Node2&#45;&gt;Node9 -->
<g id="edge10" class="edge"><title>Node2&#45;&gt;Node9</title>
<path fill="none" stroke="midnightblue" d="M107.544,-59.2715C117.493,-57.4166 127.497,-55.5514 136.424,-53.887"/>
<polygon fill="midnightblue" stroke="midnightblue" points="106.844,-55.8416 97.655,-61.1152 108.127,-62.723 106.844,-55.8416"/>
</g>
<!-- Node3 -->
<g id="node3" class="node"><title>Node3</title>
<g id="a_node3"><a xlink:href="class_voxel_particle_engine.html" target="_top" xlink:title="VoxelParticleEngine">
<polygon fill="white" stroke="black" points="1016,-116.5 1016,-135.5 1120,-135.5 1120,-116.5 1016,-116.5"/>
<text text-anchor="middle" x="1068" y="-123.5" font-family="Helvetica,sans-Serif" font-size="10.00">VoxelParticleEngine</text>
</a>
</g>
</g>
<!-- Node3&#45;&gt;Node1 -->
<g id="edge2" class="edge"><title>Node3&#45;&gt;Node1</title>
<path fill="none" stroke="#9a32cd" stroke-dasharray="5,2" d="M1043.31,-111.07C1030.26,-103.248 1013.6,-93.8901 998,-87 938.09,-60.5359 922.672,-51.3524 858,-41 793.049,-30.6029 775.743,-38.8717 710,-41 693.005,-41.5502 674.528,-42.5862 657.742,-43.6958"/>
<polygon fill="#9a32cd" stroke="#9a32cd" points="1041.74,-114.214 1052.1,-116.438 1045.39,-108.24 1041.74,-114.214"/>
<text text-anchor="middle" x="784" y="-44" font-family="Helvetica,sans-Serif" font-size="10.00"> m_engine</text>
</g>
<!-- Node4 -->
<g id="node4" class="node"><title>Node4</title>
<polygon fill="white" stroke="#bfbfbf" points="739.5,-209.5 739.5,-228.5 828.5,-228.5 828.5,-209.5 739.5,-209.5"/>
<text text-anchor="middle" x="784" y="-216.5" font-family="Helvetica,sans-Serif" font-size="10.00">std::stack&lt; int &gt;</text>
</g>
<!-- Node4&#45;&gt;Node3 -->
<g id="edge3" class="edge"><title>Node4&#45;&gt;Node3</title>
<path fill="none" stroke="#9a32cd" stroke-dasharray="5,2" d="M838.633,-214.561C882.893,-209.417 946.553,-198.553 998,-176 1021.03,-165.903 1043.9,-147.167 1056.67,-135.718"/>
<polygon fill="#9a32cd" stroke="#9a32cd" points="838.214,-211.086 828.658,-215.661 838.982,-218.044 838.214,-211.086"/>
<text text-anchor="middle" x="937" y="-211" font-family="Helvetica,sans-Serif" font-size="10.00"> m_freeParticleBufferIndices</text>
</g>
<!-- Node5 -->
<g id="node5" class="node"><title>Node5</title>
<polygon fill="white" stroke="#bfbfbf" points="720,-160 720,-190 848,-190 848,-160 720,-160"/>
<text text-anchor="start" x="728" y="-178" font-family="Helvetica,sans-Serif" font-size="10.00">std::vector&lt; VoxelParticle</text>
<text text-anchor="middle" x="784" y="-167" font-family="Helvetica,sans-Serif" font-size="10.00">Data &gt;</text>
</g>
<!-- Node5&#45;&gt;Node3 -->
<g id="edge4" class="edge"><title>Node5&#45;&gt;Node3</title>
<path fill="none" stroke="#9a32cd" stroke-dasharray="5,2" d="M858.024,-164.373C899.223,-158.12 951.594,-149.741 998,-141 1006.67,-139.366 1015.93,-137.465 1024.75,-135.576"/>
<polygon fill="#9a32cd" stroke="#9a32cd" points="857.436,-160.922 848.07,-165.876 858.481,-167.844 857.436,-160.922"/>
<text text-anchor="middle" x="937" y="-164" font-family="Helvetica,sans-Serif" font-size="10.00"> m_cpuParticleBuffer</text>
</g>
<!-- Node6&#45;&gt;Node3 -->
<g id="edge5" class="edge"><title>Node6&#45;&gt;Node3</title>
<path fill="none" stroke="#9a32cd" stroke-dasharray="5,2" d="M868.224,-89.1835C907.65,-95.2366 955.345,-102.966 998,-111 1006.67,-112.634 1015.93,-114.535 1024.75,-116.424"/>
<polygon fill="#9a32cd" stroke="#9a32cd" points="868.538,-85.6911 858.124,-87.6418 867.482,-92.6109 868.538,-85.6911"/>
<text text-anchor="middle" x="937" y="-114" font-family="Helvetica,sans-Serif" font-size="10.00"> m_renderer</text>
</g>
<!-- Node7 -->
<g id="node7" class="node"><title>Node7</title>
<polygon fill="white" stroke="#bfbfbf" points="710,-111 710,-141 858,-141 858,-111 710,-111"/>
<text text-anchor="start" x="718" y="-129" font-family="Helvetica,sans-Serif" font-size="10.00">std::unique_ptr&lt; VoxelParticle</text>
<text text-anchor="middle" x="784" y="-118" font-family="Helvetica,sans-Serif" font-size="10.00">Remover &gt;</text>
</g>
<!-- Node7&#45;&gt;Node3 -->
<g id="edge7" class="edge"><title>Node7&#45;&gt;Node3</title>
<path fill="none" stroke="#9a32cd" stroke-dasharray="5,2" d="M868.389,-126C916.215,-126 974.72,-126 1015.8,-126"/>
<polygon fill="#9a32cd" stroke="#9a32cd" points="868.356,-122.5 858.356,-126 868.356,-129.5 868.356,-122.5"/>
<text text-anchor="middle" x="937" y="-129" font-family="Helvetica,sans-Serif" font-size="10.00"> m_remover</text>
</g>
<!-- Node8 -->
<g id="node8" class="node"><title>Node8</title>
<polygon fill="white" stroke="#bfbfbf" points="280,-38.5 280,-57.5 428,-57.5 428,-38.5 280,-38.5"/>
<text text-anchor="middle" x="354" y="-45.5" font-family="Helvetica,sans-Serif" font-size="10.00">std::unique_ptr&lt; VoxelMesh &gt;</text>
</g>
<!-- Node8&#45;&gt;Node1 -->
<g id="edge8" class="edge"><title>Node8&#45;&gt;Node1</title>
<path fill="none" stroke="#9a32cd" stroke-dasharray="5,2" d="M438.373,-48C473.319,-48 513.01,-48 544.315,-48"/>
<polygon fill="#9a32cd" stroke="#9a32cd" points="438.176,-44.5001 428.176,-48 438.176,-51.5001 438.176,-44.5001"/>
<text text-anchor="middle" x="486" y="-51" font-family="Helvetica,sans-Serif" font-size="10.00"> m_voxelMesh</text>
</g>
<!-- Node9&#45;&gt;Node8 -->
<g id="edge9" class="edge"><title>Node9&#45;&gt;Node8</title>
<path fill="none" stroke="#9a32cd" stroke-dasharray="5,2" d="M211.934,-48C232.027,-48 256.686,-48 279.737,-48"/>
<polygon fill="#9a32cd" stroke="#9a32cd" points="211.876,-44.5001 201.876,-48 211.876,-51.5001 211.876,-44.5001"/>
<text text-anchor="middle" x="241" y="-51" font-family="Helvetica,sans-Serif" font-size="10.00"> ptr</text>
</g>
<!-- Node10 -->
<g id="node10" class="node"><title>Node10</title>
<g id="a_node10"><a xlink:href="class_property.html" target="_top" xlink:title="Property\&lt; glm::vec3 \&gt;">
<polygon fill="white" stroke="black" points="297.5,-0.5 297.5,-19.5 410.5,-19.5 410.5,-0.5 297.5,-0.5"/>
<text text-anchor="middle" x="354" y="-7.5" font-family="Helvetica,sans-Serif" font-size="10.00">Property&lt; glm::vec3 &gt;</text>
</a>
</g>
</g>
<!-- Node10&#45;&gt;Node1 -->
<g id="edge11" class="edge"><title>Node10&#45;&gt;Node1</title>
<path fill="none" stroke="#9a32cd" stroke-dasharray="5,2" d="M420.679,-17.7994C452.55,-21.8476 491.35,-27.1644 526,-33 535.566,-34.611 545.784,-36.5439 555.479,-38.4782"/>
<polygon fill="#9a32cd" stroke="#9a32cd" points="420.947,-14.3056 410.589,-16.5305 420.074,-21.2509 420.947,-14.3056"/>
<text text-anchor="middle" x="486" y="-36" font-family="Helvetica,sans-Serif" font-size="10.00"> m_defaultLightDir</text>
</g>
<!-- Node11 -->
<g id="node11" class="node"><title>Node11</title>
<g id="a_node11"><a xlink:title="STL class. ">
<polygon fill="white" stroke="#bfbfbf" points="139,-0.5 139,-19.5 199,-19.5 199,-0.5 139,-0.5"/>
<text text-anchor="middle" x="169" y="-7.5" font-family="Helvetica,sans-Serif" font-size="10.00">std::string</text>
</a>
</g>
</g>
<!-- Node11&#45;&gt;Node10 -->
<g id="edge12" class="edge"><title>Node11&#45;&gt;Node10</title>
<path fill="none" stroke="#9a32cd" stroke-dasharray="5,2" d="M209.519,-10C235.21,-10 269.082,-10 297.463,-10"/>
<polygon fill="#9a32cd" stroke="#9a32cd" points="209.402,-6.5001 199.402,-10 209.402,-13.5001 209.402,-6.5001"/>
<text text-anchor="middle" x="241" y="-13" font-family="Helvetica,sans-Serif" font-size="10.00"> m_name</text>
</g>
</g>
</svg>
        <g id="navigator" transform="translate(0 0)" fill="#404254">
                <rect fill="#f2f5e9" fill-opacity="0.5" stroke="#606060" stroke-width=".5" x="0" y="0" width="60" height="60"/>
                <use id="zoomplus" xlink:href="#zoomPlus" x="17" y="9" onmousedown="handleZoom(evt,'in')"/>
                <use id="zoomminus" xlink:href="#zoomMin" x="42" y="9" onmousedown="handleZoom(evt,'out')"/>
                <use id="reset" xlink:href="#resetDef" x="30" y="36" onmousedown="handleReset()"/>
                <g id="arrowUp" xlink:href="#dirArrow" transform="translate(30 24)" onmousedown="handlePan(0,-1)">
                  <use xlink:href="#rim" fill="#404040">
                        <set attributeName="fill" to="#808080" begin="arrowUp.mouseover" end="arrowUp.mouseout"/>
                  </use>
                  <path fill="none" stroke="white" stroke-width="1.5" d="M0,-3.0v7 M-2.5,-0.5L0,-3.0L2.5,-0.5"/>
                </g>
                <g id="arrowRight" xlink:href="#dirArrow" transform="rotate(90) translate(36 -43)" onmousedown="handlePan(1,0)">
                  <use xlink:href="#rim" fill="#404040">
                        <set attributeName="fill" to="#808080" begin="arrowRight.mouseover" end="arrowRight.mouseout"/>
                  </use>
                  <path fill="none" stroke="white" stroke-width="1.5" d="M0,-3.0v7 M-2.5,-0.5L0,-3.0L2.5,-0.5"/>
                </g>
                <g id="arrowDown" xlink:href="#dirArrow" transform="rotate(180) translate(-30 -48)" onmousedown="handlePan(0,1)">
                  <use xlink:href="#rim" fill="#404040">
                        <set attributeName="fill" to="#808080" begin="arrowDown.mouseover" end="arrowDown.mouseout"/>
                  </use>
                  <path fill="none" stroke="white" stroke-width="1.5" d="M0,-3.0v7 M-2.5,-0.5L0,-3.0L2.5,-0.5"/>
                </g>
                <g id="arrowLeft" xlink:href="#dirArrow" transform="rotate(270) translate(-36 17)" onmousedown="handlePan(-1,0)">
                  <use xlink:href="#rim" fill="#404040">
                        <set attributeName="fill" to="#808080" begin="arrowLeft.mouseover" end="arrowLeft.mouseout"/>
                  </use>
                  <path fill="none" stroke="white" stroke-width="1.5" d="M0,-3.0v7 M-2.5,-0.5L0,-3.0L2.5,-0.5"/>
                </g>
        </g>
        <svg viewBox="0 0 15 15" width="100%" height="30px" preserveAspectRatio="xMaxYMin meet">
         <g id="arrow_out" transform="scale(0.3 0.3)">
          <a xlink:href="class_voxel_particle_renderer__coll__graph_org.svg" target="_base">
           <rect id="button" ry="5" rx="5" y="6" x="6" height="38" width="38"
                fill="#f2f5e9" fill-opacity="0.5" stroke="#606060" stroke-width="1.0"/>
           <path id="arrow"
             d="M 11.500037,31.436501 C 11.940474,20.09759 22.043105,11.32322 32.158766,21.979434 L 37.068811,17.246167 C 37.068811,17.246167 37.088388,32 37.088388,32 L 22.160133,31.978069 C 22.160133,31.978069 26.997745,27.140456 26.997745,27.140456 C 18.528582,18.264221 13.291696,25.230495 11.500037,31.436501 z"
             style="fill:#404040;"/>
          </a>
         </g>
        </svg>
</svg>
