<?xml version="1.0" encoding="UTF-8" standalone="no"?>
<!DOCTYPE svg PUBLIC "-//W3C//DTD SVG 1.1//EN"
 "http://www.w3.org/Graphics/SVG/1.1/DTD/svg11.dtd">
<!-- Generated by graphviz version 2.36.0 (20140111.2315)
 -->
<!-- Title: DamageImpactGenerator Pages: 1 -->
<svg width="323pt" height="188pt"
 viewBox="0.00 0.00 323.00 188.00" xmlns="http://www.w3.org/2000/svg" xmlns:xlink="http://www.w3.org/1999/xlink">
<g id="graph0" class="graph" transform="scale(1 1) rotate(0) translate(4 184)">
<title>DamageImpactGenerator</title>
<polygon fill="white" stroke="none" points="-4,4 -4,-184 319,-184 319,4 -4,4"/>
<!-- Node1 -->
<g id="node1" class="node"><title>Node1</title>
<polygon fill="#bfbfbf" stroke="black" points="74.5,-0.5 74.5,-19.5 199.5,-19.5 199.5,-0.5 74.5,-0.5"/>
<text text-anchor="middle" x="137" y="-7.5" font-family="Helvetica,sans-Serif" font-size="10.00">DamageImpactGenerator</text>
</g>
<!-- Node2 -->
<g id="node2" class="node"><title>Node2</title>
<g id="a_node2"><a xlink:href="class_voxel_accumulator.html" target="_top" xlink:title="VoxelAccumulator\&lt; Damage\lImpact \&gt;">
<polygon fill="white" stroke="black" points="66.5,-69 66.5,-99 207.5,-99 207.5,-69 66.5,-69"/>
<text text-anchor="start" x="74.5" y="-87" font-family="Helvetica,sans-Serif" font-size="10.00">VoxelAccumulator&lt; Damage</text>
<text text-anchor="middle" x="137" y="-76" font-family="Helvetica,sans-Serif" font-size="10.00">Impact &gt;</text>
</a>
</g>
</g>
<!-- Node2&#45;&gt;Node1 -->
<g id="edge1" class="edge"><title>Node2&#45;&gt;Node1</title>
<path fill="none" stroke="#9a32cd" stroke-dasharray="5,2" d="M137,-58.6883C137,-45.2526 137,-29.3805 137,-19.7589"/>
<polygon fill="#9a32cd" stroke="#9a32cd" points="133.5,-58.7751 137,-68.7751 140.5,-58.7752 133.5,-58.7751"/>
<text text-anchor="middle" x="205" y="-41.5" font-family="Helvetica,sans-Serif" font-size="10.00"> m_damageImpactAccumulator</text>
</g>
<!-- Node3 -->
<g id="node3" class="node"><title>Node3</title>
<polygon fill="white" stroke="#bfbfbf" points="0,-154.5 0,-173.5 132,-173.5 132,-154.5 0,-154.5"/>
<text text-anchor="middle" x="66" y="-161.5" font-family="Helvetica,sans-Serif" font-size="10.00">std::list&lt; DamageImpact &gt;</text>
</g>
<!-- Node3&#45;&gt;Node2 -->
<g id="edge2" class="edge"><title>Node3&#45;&gt;Node2</title>
<path fill="none" stroke="#9a32cd" stroke-dasharray="5,2" d="M78.0459,-146.155C84.5199,-137.464 92.833,-126.856 101,-118 106.978,-111.518 114.04,-104.856 120.319,-99.2307"/>
<polygon fill="#9a32cd" stroke="#9a32cd" points="75.121,-144.226 72.0484,-154.365 80.7734,-148.355 75.121,-144.226"/>
<text text-anchor="middle" x="143.5" y="-121.5" font-family="Helvetica,sans-Serif" font-size="10.00"> m_accumulatables</text>
</g>
<!-- Node4 -->
<g id="node4" class="node"><title>Node4</title>
<polygon fill="white" stroke="#bfbfbf" points="150,-149 150,-179 266,-179 266,-149 150,-149"/>
<text text-anchor="start" x="158" y="-167" font-family="Helvetica,sans-Serif" font-size="10.00">std::map&lt; const Voxel</text>
<text text-anchor="middle" x="208" y="-156" font-family="Helvetica,sans-Serif" font-size="10.00"> *, DamageImpact &gt;</text>
</g>
<!-- Node4&#45;&gt;Node2 -->
<g id="edge3" class="edge"><title>Node4&#45;&gt;Node2</title>
<path fill="none" stroke="#9a32cd" stroke-dasharray="5,2" d="M199.264,-139.355C195.842,-132.013 191.418,-124.222 186,-118 179.602,-110.652 171.204,-104.213 163.173,-99.0203"/>
<polygon fill="#9a32cd" stroke="#9a32cd" points="196.185,-141.059 203.309,-148.9 202.63,-138.327 196.185,-141.059"/>
<text text-anchor="middle" x="254" y="-121.5" font-family="Helvetica,sans-Serif" font-size="10.00"> m_voxelAccumulatableMap</text>
</g>
</g>
</svg>
