<?xml version="1.0" encoding="UTF-8" standalone="no"?>
<!DOCTYPE svg PUBLIC "-//W3C//DTD SVG 1.1//EN"
 "http://www.w3.org/Graphics/SVG/1.1/DTD/svg11.dtd">
<!-- Generated by graphviz version 2.36.0 (20140111.2315)
 -->
<!-- Title: StereoViewEye Pages: 1 -->
<svg width="444pt" height="176pt"
 viewBox="0.00 0.00 444.00 176.00" xmlns="http://www.w3.org/2000/svg" xmlns:xlink="http://www.w3.org/1999/xlink">
<g id="graph0" class="graph" transform="scale(1 1) rotate(0) translate(4 172)">
<title>StereoViewEye</title>
<polygon fill="white" stroke="none" points="-4,4 -4,-172 440,-172 440,4 -4,4"/>
<!-- Node1 -->
<g id="node1" class="node"><title>Node1</title>
<polygon fill="#bfbfbf" stroke="black" points="185.5,-0.5 185.5,-19.5 268.5,-19.5 268.5,-0.5 185.5,-0.5"/>
<text text-anchor="middle" x="227" y="-7.5" font-family="Helvetica,sans-Serif" font-size="10.00">StereoViewEye</text>
</g>
<!-- Node2 -->
<g id="node2" class="node"><title>Node2</title>
<polygon fill="white" stroke="#bfbfbf" points="-0.5,-68.5 -0.5,-87.5 132.5,-87.5 132.5,-68.5 -0.5,-68.5"/>
<text text-anchor="middle" x="66" y="-75.5" font-family="Helvetica,sans-Serif" font-size="10.00">std::unique_ptr&lt; Camera &gt;</text>
</g>
<!-- Node2&#45;&gt;Node1 -->
<g id="edge1" class="edge"><title>Node2&#45;&gt;Node1</title>
<path fill="none" stroke="#9a32cd" stroke-dasharray="5,2" d="M96.4044,-64.5361C128.52,-51.3706 178.292,-30.9673 206.202,-19.5259"/>
<polygon fill="#9a32cd" stroke="#9a32cd" points="94.9731,-61.3401 87.0479,-68.3717 97.6283,-67.817 94.9731,-61.3401"/>
<text text-anchor="middle" x="185.5" y="-41.5" font-family="Helvetica,sans-Serif" font-size="10.00"> m_camera</text>
</g>
<!-- Node3 -->
<g id="node3" class="node"><title>Node3</title>
<g id="a_node3"><a xlink:href="class_camera.html" target="_top" xlink:title="Camera">
<polygon fill="white" stroke="red" points="41,-142.5 41,-161.5 91,-161.5 91,-142.5 41,-142.5"/>
<text text-anchor="middle" x="66" y="-149.5" font-family="Helvetica,sans-Serif" font-size="10.00">Camera</text>
</a>
</g>
</g>
<!-- Node3&#45;&gt;Node2 -->
<g id="edge2" class="edge"><title>Node3&#45;&gt;Node2</title>
<path fill="none" stroke="#9a32cd" stroke-dasharray="5,2" d="M66,-132.156C66,-117.712 66,-98.4594 66,-87.531"/>
<polygon fill="#9a32cd" stroke="#9a32cd" points="62.5001,-132.458 66,-142.458 69.5001,-132.458 62.5001,-132.458"/>
<text text-anchor="middle" x="73.5" y="-109.5" font-family="Helvetica,sans-Serif" font-size="10.00"> ptr</text>
</g>
<!-- Node4 -->
<g id="node4" class="node"><title>Node4</title>
<polygon fill="white" stroke="#bfbfbf" points="151,-68.5 151,-87.5 303,-87.5 303,-68.5 151,-68.5"/>
<text text-anchor="middle" x="227" y="-75.5" font-family="Helvetica,sans-Serif" font-size="10.00">std::unique_ptr&lt; FrameBuffer &gt;</text>
</g>
<!-- Node4&#45;&gt;Node1 -->
<g id="edge3" class="edge"><title>Node4&#45;&gt;Node1</title>
<path fill="none" stroke="#9a32cd" stroke-dasharray="5,2" d="M227,-58.0413C227,-45.4724 227,-29.5631 227,-19.8411"/>
<polygon fill="#9a32cd" stroke="#9a32cd" points="223.5,-58.3716 227,-68.3717 230.5,-58.3717 223.5,-58.3716"/>
<text text-anchor="middle" x="242" y="-41.5" font-family="Helvetica,sans-Serif" font-size="10.00"> m_fbo</text>
</g>
<!-- Node5 -->
<g id="node5" class="node"><title>Node5</title>
<g id="a_node5"><a xlink:href="class_frame_buffer.html" target="_top" xlink:title="FrameBuffer">
<polygon fill="white" stroke="red" points="192.5,-142.5 192.5,-161.5 261.5,-161.5 261.5,-142.5 192.5,-142.5"/>
<text text-anchor="middle" x="227" y="-149.5" font-family="Helvetica,sans-Serif" font-size="10.00">FrameBuffer</text>
</a>
</g>
</g>
<!-- Node5&#45;&gt;Node4 -->
<g id="edge4" class="edge"><title>Node5&#45;&gt;Node4</title>
<path fill="none" stroke="#9a32cd" stroke-dasharray="5,2" d="M227,-132.156C227,-117.712 227,-98.4594 227,-87.531"/>
<polygon fill="#9a32cd" stroke="#9a32cd" points="223.5,-132.458 227,-142.458 230.5,-132.458 223.5,-132.458"/>
<text text-anchor="middle" x="234.5" y="-109.5" font-family="Helvetica,sans-Serif" font-size="10.00"> ptr</text>
</g>
<!-- Node6 -->
<g id="node6" class="node"><title>Node6</title>
<g id="a_node6"><a xlink:href="class_property.html" target="_top" xlink:title="Property\&lt; std::string \&gt;">
<polygon fill="white" stroke="black" points="321.5,-68.5 321.5,-87.5 436.5,-87.5 436.5,-68.5 321.5,-68.5"/>
<text text-anchor="middle" x="379" y="-75.5" font-family="Helvetica,sans-Serif" font-size="10.00">Property&lt; std::string &gt;</text>
</a>
</g>
</g>
<!-- Node6&#45;&gt;Node1 -->
<g id="edge5" class="edge"><title>Node6&#45;&gt;Node1</title>
<path fill="none" stroke="#9a32cd" stroke-dasharray="5,2" d="M349.929,-64.3772C319.69,-51.2472 273.165,-31.0452 246.876,-19.6305"/>
<polygon fill="#9a32cd" stroke="#9a32cd" points="348.562,-67.5992 359.129,-68.3717 351.35,-61.1783 348.562,-67.5992"/>
<text text-anchor="middle" x="350" y="-41.5" font-family="Helvetica,sans-Serif" font-size="10.00"> m_antialiasing</text>
</g>
<!-- Node7 -->
<g id="node7" class="node"><title>Node7</title>
<g id="a_node7"><a xlink:href="class_property_impl.html" target="_top" xlink:title="PropertyImpl\&lt; std::\lstring \&gt;">
<polygon fill="white" stroke="red" points="329,-137 329,-167 429,-167 429,-137 329,-137"/>
<text text-anchor="start" x="337" y="-155" font-family="Helvetica,sans-Serif" font-size="10.00">PropertyImpl&lt; std::</text>
<text text-anchor="middle" x="379" y="-144" font-family="Helvetica,sans-Serif" font-size="10.00">string &gt;</text>
</a>
</g>
</g>
<!-- Node7&#45;&gt;Node6 -->
<g id="edge6" class="edge"><title>Node7&#45;&gt;Node6</title>
<path fill="none" stroke="#9a32cd" stroke-dasharray="5,2" d="M379,-126.688C379,-113.253 379,-97.3805 379,-87.7589"/>
<polygon fill="#9a32cd" stroke="#9a32cd" points="375.5,-126.775 379,-136.775 382.5,-126.775 375.5,-126.775"/>
<text text-anchor="middle" x="396.5" y="-109.5" font-family="Helvetica,sans-Serif" font-size="10.00"> m_impl</text>
</g>
</g>
</svg>
