<?xml version="1.0" encoding="UTF-8" standalone="no"?>
<!DOCTYPE svg PUBLIC "-//W3C//DTD SVG 1.1//EN"
 "http://www.w3.org/Graphics/SVG/1.1/DTD/svg11.dtd">
<!-- Generated by graphviz version 2.36.0 (20140111.2315)
 -->
<!-- Title: HudgetAnimation Pages: 1 -->
<svg width="99pt" height="164pt"
 viewBox="0.00 0.00 99.00 164.00" xmlns="http://www.w3.org/2000/svg" xmlns:xlink="http://www.w3.org/1999/xlink">
<g id="graph0" class="graph" transform="scale(1 1) rotate(0) translate(4 160)">
<title>HudgetAnimation</title>
<polygon fill="white" stroke="none" points="-4,4 -4,-160 95,-160 95,4 -4,4"/>
<!-- Node1 -->
<g id="node1" class="node"><title>Node1</title>
<polygon fill="#bfbfbf" stroke="black" points="-0.5,-0.5 -0.5,-19.5 90.5,-19.5 90.5,-0.5 -0.5,-0.5"/>
<text text-anchor="middle" x="45" y="-7.5" font-family="Helvetica,sans-Serif" font-size="10.00">HudgetAnimation</text>
</g>
<!-- Node2 -->
<g id="node2" class="node"><title>Node2</title>
<g id="a_node2"><a xlink:href="class_hudget.html" target="_top" xlink:title="Hudget">
<polygon fill="white" stroke="black" points="21.5,-68.5 21.5,-87.5 68.5,-87.5 68.5,-68.5 21.5,-68.5"/>
<text text-anchor="middle" x="45" y="-75.5" font-family="Helvetica,sans-Serif" font-size="10.00">Hudget</text>
</a>
</g>
</g>
<!-- Node2&#45;&gt;Node1 -->
<g id="edge1" class="edge"><title>Node2&#45;&gt;Node1</title>
<path fill="none" stroke="#9a32cd" stroke-dasharray="5,2" d="M45,-58.0413C45,-45.4724 45,-29.5631 45,-19.8411"/>
<polygon fill="#9a32cd" stroke="#9a32cd" points="41.5001,-58.3716 45,-68.3717 48.5001,-58.3717 41.5001,-58.3716"/>
<text text-anchor="middle" x="68" y="-41.5" font-family="Helvetica,sans-Serif" font-size="10.00"> m_hudget</text>
</g>
<!-- Node3 -->
<g id="node3" class="node"><title>Node3</title>
<g id="a_node3"><a xlink:href="class_h_u_d.html" target="_top" xlink:title="HUD">
<polygon fill="white" stroke="red" points="26.5,-136.5 26.5,-155.5 63.5,-155.5 63.5,-136.5 26.5,-136.5"/>
<text text-anchor="middle" x="45" y="-143.5" font-family="Helvetica,sans-Serif" font-size="10.00">HUD</text>
</a>
</g>
</g>
<!-- Node3&#45;&gt;Node2 -->
<g id="edge2" class="edge"><title>Node3&#45;&gt;Node2</title>
<path fill="none" stroke="#9a32cd" stroke-dasharray="5,2" d="M45,-126.041C45,-113.472 45,-97.5631 45,-87.8411"/>
<polygon fill="#9a32cd" stroke="#9a32cd" points="41.5001,-126.372 45,-136.372 48.5001,-126.372 41.5001,-126.372"/>
<text text-anchor="middle" x="61.5" y="-109.5" font-family="Helvetica,sans-Serif" font-size="10.00"> m_hud</text>
</g>
</g>
</svg>
