<?xml version="1.0" encoding="UTF-8" standalone="no"?>
<!DOCTYPE svg PUBLIC "-//W3C//DTD SVG 1.1//EN"
 "http://www.w3.org/Graphics/SVG/1.1/DTD/svg11.dtd">
<!-- Generated by graphviz version 2.36.0 (20140111.2315)
 -->
<!-- Title: CameraFollowHelper Pages: 1 -->
<svg width="257pt" height="176pt"
 viewBox="0.00 0.00 257.00 176.00" xmlns="http://www.w3.org/2000/svg" xmlns:xlink="http://www.w3.org/1999/xlink">
<g id="graph0" class="graph" transform="scale(1 1) rotate(0) translate(4 172)">
<title>CameraFollowHelper</title>
<polygon fill="white" stroke="none" points="-4,4 -4,-172 253,-172 253,4 -4,4"/>
<!-- Node1 -->
<g id="node1" class="node"><title>Node1</title>
<polygon fill="#bfbfbf" stroke="black" points="55,-0.5 55,-19.5 161,-19.5 161,-0.5 55,-0.5"/>
<text text-anchor="middle" x="108" y="-7.5" font-family="Helvetica,sans-Serif" font-size="10.00">CameraFollowHelper</text>
</g>
<!-- Node2 -->
<g id="node2" class="node"><title>Node2</title>
<g id="a_node2"><a xlink:href="class_handle.html" target="_top" xlink:title="Handle\&lt; WorldObject \&gt;">
<polygon fill="white" stroke="black" points="-0.5,-68.5 -0.5,-87.5 118.5,-87.5 118.5,-68.5 -0.5,-68.5"/>
<text text-anchor="middle" x="59" y="-75.5" font-family="Helvetica,sans-Serif" font-size="10.00">Handle&lt; WorldObject &gt;</text>
</a>
</g>
</g>
<!-- Node2&#45;&gt;Node1 -->
<g id="edge1" class="edge"><title>Node2&#45;&gt;Node1</title>
<path fill="none" stroke="#9a32cd" stroke-dasharray="5,2" d="M71.391,-60.3101C80.9433,-47.4437 93.7764,-30.1583 101.436,-19.8411"/>
<polygon fill="#9a32cd" stroke="#9a32cd" points="68.5567,-58.2562 65.4059,-68.3717 74.1771,-62.4289 68.5567,-58.2562"/>
<text text-anchor="middle" x="108" y="-41.5" font-family="Helvetica,sans-Serif" font-size="10.00"> m_target</text>
</g>
<!-- Node3 -->
<g id="node3" class="node"><title>Node3</title>
<g id="a_node3"><a xlink:href="class_property.html" target="_top" xlink:title="Property\&lt; glm::vec3 \&gt;">
<polygon fill="white" stroke="black" points="136.5,-68.5 136.5,-87.5 249.5,-87.5 249.5,-68.5 136.5,-68.5"/>
<text text-anchor="middle" x="193" y="-75.5" font-family="Helvetica,sans-Serif" font-size="10.00">Property&lt; glm::vec3 &gt;</text>
</a>
</g>
</g>
<!-- Node3&#45;&gt;Node1 -->
<g id="edge2" class="edge"><title>Node3&#45;&gt;Node1</title>
<path fill="none" stroke="#9a32cd" stroke-dasharray="5,2" d="M173.806,-62.0961C156.941,-49.0012 132.988,-30.4028 119.115,-19.6305"/>
<polygon fill="#9a32cd" stroke="#9a32cd" points="171.843,-65.0031 181.888,-68.3717 176.136,-59.4742 171.843,-65.0031"/>
<text text-anchor="middle" x="195.5" y="-41.5" font-family="Helvetica,sans-Serif" font-size="10.00"> m_cameraOffset</text>
</g>
<!-- Node4 -->
<g id="node4" class="node"><title>Node4</title>
<g id="a_node4"><a xlink:href="class_property_impl.html" target="_top" xlink:title="PropertyImpl\&lt; glm::\lvec3 \&gt;">
<polygon fill="white" stroke="red" points="142,-137 142,-167 244,-167 244,-137 142,-137"/>
<text text-anchor="start" x="150" y="-155" font-family="Helvetica,sans-Serif" font-size="10.00">PropertyImpl&lt; glm::</text>
<text text-anchor="middle" x="193" y="-144" font-family="Helvetica,sans-Serif" font-size="10.00">vec3 &gt;</text>
</a>
</g>
</g>
<!-- Node4&#45;&gt;Node3 -->
<g id="edge3" class="edge"><title>Node4&#45;&gt;Node3</title>
<path fill="none" stroke="#9a32cd" stroke-dasharray="5,2" d="M193,-126.688C193,-113.253 193,-97.3805 193,-87.7589"/>
<polygon fill="#9a32cd" stroke="#9a32cd" points="189.5,-126.775 193,-136.775 196.5,-126.775 189.5,-126.775"/>
<text text-anchor="middle" x="210.5" y="-109.5" font-family="Helvetica,sans-Serif" font-size="10.00"> m_impl</text>
</g>
</g>
</svg>
