<?xml version="1.0" encoding="UTF-8" standalone="no"?>
<!DOCTYPE svg PUBLIC "-//W3C//DTD SVG 1.1//EN"
 "http://www.w3.org/Graphics/SVG/1.1/DTD/svg11.dtd">
<!-- Generated by graphviz version 2.36.0 (20140111.2315)
 -->
<!-- Title: PirateScenario Pages: 1 -->
<svg width="213pt" height="154pt"
 viewBox="0.00 0.00 213.00 154.00" xmlns="http://www.w3.org/2000/svg" xmlns:xlink="http://www.w3.org/1999/xlink">
<g id="graph0" class="graph" transform="scale(1 1) rotate(0) translate(4 150)">
<title>PirateScenario</title>
<polygon fill="white" stroke="none" points="-4,4 -4,-150 209,-150 209,4 -4,4"/>
<!-- Node1 -->
<g id="node1" class="node"><title>Node1</title>
<polygon fill="#bfbfbf" stroke="black" points="33,-0.5 33,-19.5 113,-19.5 113,-0.5 33,-0.5"/>
<text text-anchor="middle" x="73" y="-7.5" font-family="Helvetica,sans-Serif" font-size="10.00">PirateScenario</text>
</g>
<!-- Node2 -->
<g id="node2" class="node"><title>Node2</title>
<g id="a_node2"><a xlink:href="class_base_scenario.html" target="_top" xlink:title="BaseScenario">
<polygon fill="white" stroke="black" points="34.5,-58.5 34.5,-77.5 111.5,-77.5 111.5,-58.5 34.5,-58.5"/>
<text text-anchor="middle" x="73" y="-65.5" font-family="Helvetica,sans-Serif" font-size="10.00">BaseScenario</text>
</a>
</g>
</g>
<!-- Node2&#45;&gt;Node1 -->
<g id="edge1" class="edge"><title>Node2&#45;&gt;Node1</title>
<path fill="none" stroke="midnightblue" d="M73,-47.953C73,-38.2875 73,-27.0312 73,-19.5052"/>
<polygon fill="midnightblue" stroke="midnightblue" points="69.5001,-48.25 73,-58.25 76.5001,-48.25 69.5001,-48.25"/>
</g>
<!-- Node3 -->
<g id="node3" class="node"><title>Node3</title>
<g id="a_node3"><a xlink:href="class_game_play.html" target="_top" xlink:title="GamePlay">
<polygon fill="white" stroke="red" points="0,-126.5 0,-145.5 62,-145.5 62,-126.5 0,-126.5"/>
<text text-anchor="middle" x="31" y="-133.5" font-family="Helvetica,sans-Serif" font-size="10.00">GamePlay</text>
</a>
</g>
</g>
<!-- Node3&#45;&gt;Node2 -->
<g id="edge2" class="edge"><title>Node3&#45;&gt;Node2</title>
<path fill="none" stroke="#9a32cd" stroke-dasharray="5,2" d="M28.0038,-116.042C27.8181,-109.344 28.671,-101.993 32,-96 36.4697,-87.9534 44.4652,-81.8907 52.2161,-77.5701"/>
<polygon fill="#9a32cd" stroke="#9a32cd" points="24.5568,-116.745 29.0429,-126.343 31.5215,-116.042 24.5568,-116.745"/>
<text text-anchor="middle" x="62.5" y="-99.5" font-family="Helvetica,sans-Serif" font-size="10.00"> m_gamePlay</text>
</g>
<!-- Node4 -->
<g id="node4" class="node"><title>Node4</title>
<g id="a_node4"><a xlink:href="class_world.html" target="_top" xlink:title="World">
<polygon fill="white" stroke="red" points="94,-126.5 94,-145.5 136,-145.5 136,-126.5 94,-126.5"/>
<text text-anchor="middle" x="115" y="-133.5" font-family="Helvetica,sans-Serif" font-size="10.00">World</text>
</a>
</g>
</g>
<!-- Node4&#45;&gt;Node2 -->
<g id="edge3" class="edge"><title>Node4&#45;&gt;Node2</title>
<path fill="none" stroke="#9a32cd" stroke-dasharray="5,2" d="M105.684,-117.411C101.926,-110.611 97.4351,-102.835 93,-96 88.9357,-89.7363 83.9357,-82.9863 79.9518,-77.8022"/>
<polygon fill="#9a32cd" stroke="#9a32cd" points="102.738,-119.322 110.574,-126.453 108.896,-115.992 102.738,-119.322"/>
<text text-anchor="middle" x="120" y="-99.5" font-family="Helvetica,sans-Serif" font-size="10.00"> m_world</text>
</g>
<!-- Node4&#45;&gt;Node4 -->
<g id="edge4" class="edge"><title>Node4&#45;&gt;Node4</title>
<path fill="none" stroke="#9a32cd" stroke-dasharray="5,2" d="M146.406,-141.745C150.945,-140.828 154,-138.914 154,-136 154,-131.219 145.773,-129.127 136.261,-129.725"/>
<polygon fill="#9a32cd" stroke="#9a32cd" points="146.065,-138.258 136.261,-142.275 146.431,-145.248 146.065,-138.258"/>
<text text-anchor="middle" x="179.5" y="-133.5" font-family="Helvetica,sans-Serif" font-size="10.00"> s_instance</text>
</g>
</g>
</svg>
