<?xml version="1.0" encoding="UTF-8" standalone="no"?>
<!DOCTYPE svg PUBLIC "-//W3C//DTD SVG 1.1//EN"
 "http://www.w3.org/Graphics/SVG/1.1/DTD/svg11.dtd">
<!-- Generated by graphviz version 2.36.0 (20140111.2315)
 -->
<!-- Title: Scriptable Pages: 1 -->
<svg width="346pt" height="522pt"
 viewBox="0.00 0.00 346.00 522.00" xmlns="http://www.w3.org/2000/svg" xmlns:xlink="http://www.w3.org/1999/xlink">
<g id="graph0" class="graph" transform="scale(1 1) rotate(0) translate(4 518)">
<title>Scriptable</title>
<polygon fill="white" stroke="none" points="-4,4 -4,-518 342,-518 342,4 -4,4"/>
<!-- Node1 -->
<g id="node1" class="node"><title>Node1</title>
<polygon fill="#bfbfbf" stroke="black" points="0,-180.5 0,-199.5 60,-199.5 60,-180.5 0,-180.5"/>
<text text-anchor="middle" x="30" y="-187.5" font-family="Helvetica,sans-Serif" font-size="10.00">Scriptable</text>
</g>
<!-- Node2 -->
<g id="node2" class="node"><title>Node2</title>
<g id="a_node2"><a xlink:href="class_ai_group_task.html" target="_top" xlink:title="AiGroupTask">
<polygon fill="white" stroke="black" points="96.5,-456.5 96.5,-475.5 169.5,-475.5 169.5,-456.5 96.5,-456.5"/>
<text text-anchor="middle" x="133" y="-463.5" font-family="Helvetica,sans-Serif" font-size="10.00">AiGroupTask</text>
</a>
</g>
</g>
<!-- Node1&#45;&gt;Node2 -->
<g id="edge1" class="edge"><title>Node1&#45;&gt;Node2</title>
<path fill="none" stroke="midnightblue" d="M37.9336,-209.66C49.6985,-242.938 74.4,-312.463 96,-371 107.54,-402.274 121.663,-439.15 128.264,-456.311"/>
<polygon fill="midnightblue" stroke="midnightblue" points="41.0932,-208.096 34.4629,-199.832 34.4927,-210.427 41.0932,-208.096"/>
</g>
<!-- Node5 -->
<g id="node5" class="node"><title>Node5</title>
<g id="a_node5"><a xlink:href="class_ai_task.html" target="_top" xlink:title="AiTask">
<polygon fill="white" stroke="black" points="109.5,-342.5 109.5,-361.5 156.5,-361.5 156.5,-342.5 109.5,-342.5"/>
<text text-anchor="middle" x="133" y="-349.5" font-family="Helvetica,sans-Serif" font-size="10.00">AiTask</text>
</a>
</g>
</g>
<!-- Node1&#45;&gt;Node5 -->
<g id="edge4" class="edge"><title>Node1&#45;&gt;Node5</title>
<path fill="none" stroke="midnightblue" d="M42.3667,-208.232C63.7726,-242.566 109.393,-315.74 125.888,-342.197"/>
<polygon fill="midnightblue" stroke="midnightblue" points="45.2762,-206.283 37.0155,-199.649 39.3361,-209.986 45.2762,-206.283"/>
</g>
<!-- Node10 -->
<g id="node10" class="node"><title>Node10</title>
<g id="a_node10"><a xlink:href="class_event_poll.html" target="_top" xlink:title="EventPoll">
<polygon fill="white" stroke="black" points="104.5,-199.5 104.5,-218.5 161.5,-218.5 161.5,-199.5 104.5,-199.5"/>
<text text-anchor="middle" x="133" y="-206.5" font-family="Helvetica,sans-Serif" font-size="10.00">EventPoll</text>
</a>
</g>
</g>
<!-- Node1&#45;&gt;Node10 -->
<g id="edge9" class="edge"><title>Node1&#45;&gt;Node10</title>
<path fill="none" stroke="midnightblue" d="M70.3248,-197.398C81.6529,-199.529 93.7709,-201.808 104.241,-203.778"/>
<polygon fill="midnightblue" stroke="midnightblue" points="70.6881,-193.905 60.2134,-195.496 69.3939,-200.784 70.6881,-193.905"/>
</g>
<!-- Node16 -->
<g id="node16" class="node"><title>Node16</title>
<g id="a_node16"><a xlink:href="class_mission.html" target="_top" xlink:title="Mission">
<polygon fill="white" stroke="black" points="108,-161.5 108,-180.5 158,-180.5 158,-161.5 108,-161.5"/>
<text text-anchor="middle" x="133" y="-168.5" font-family="Helvetica,sans-Serif" font-size="10.00">Mission</text>
</a>
</g>
</g>
<!-- Node1&#45;&gt;Node16 -->
<g id="edge15" class="edge"><title>Node1&#45;&gt;Node16</title>
<path fill="none" stroke="midnightblue" d="M70.15,-182.635C82.8949,-180.238 96.6568,-177.649 107.956,-175.523"/>
<polygon fill="midnightblue" stroke="midnightblue" points="69.3939,-179.216 60.2134,-184.504 70.6881,-186.095 69.3939,-179.216"/>
</g>
<!-- Node17 -->
<g id="node17" class="node"><title>Node17</title>
<g id="a_node17"><a xlink:href="class_squad.html" target="_top" xlink:title="Squad">
<polygon fill="white" stroke="black" points="111,-123.5 111,-142.5 155,-142.5 155,-123.5 111,-123.5"/>
<text text-anchor="middle" x="133" y="-130.5" font-family="Helvetica,sans-Serif" font-size="10.00">Squad</text>
</a>
</g>
</g>
<!-- Node1&#45;&gt;Node17 -->
<g id="edge16" class="edge"><title>Node1&#45;&gt;Node17</title>
<path fill="none" stroke="midnightblue" d="M55.5671,-175.3C67.6706,-168.144 82.5254,-159.49 96,-152 101.683,-148.841 107.93,-145.499 113.603,-142.513"/>
<polygon fill="midnightblue" stroke="midnightblue" points="53.7283,-172.321 46.9163,-180.435 57.3019,-178.34 53.7283,-172.321"/>
</g>
<!-- Node18 -->
<g id="node18" class="node"><title>Node18</title>
<g id="a_node18"><a xlink:href="class_world_object.html" target="_top" xlink:title="WorldObject">
<polygon fill="white" stroke="black" points="97.5,-66.5 97.5,-85.5 168.5,-85.5 168.5,-66.5 97.5,-66.5"/>
<text text-anchor="middle" x="133" y="-73.5" font-family="Helvetica,sans-Serif" font-size="10.00">WorldObject</text>
</a>
</g>
</g>
<!-- Node1&#45;&gt;Node18 -->
<g id="edge17" class="edge"><title>Node1&#45;&gt;Node18</title>
<path fill="none" stroke="midnightblue" d="M45.7564,-172.235C58.7709,-156.691 78.3576,-133.597 96,-114 104.877,-104.139 115.338,-93.1662 122.689,-85.5568"/>
<polygon fill="midnightblue" stroke="midnightblue" points="42.9765,-170.103 39.2563,-180.023 48.3508,-174.588 42.9765,-170.103"/>
</g>
<!-- Node3 -->
<g id="node3" class="node"><title>Node3</title>
<g id="a_node3"><a xlink:href="class_defend_area_task.html" target="_top" xlink:title="DefendAreaTask">
<polygon fill="white" stroke="black" points="228,-494.5 228,-513.5 316,-513.5 316,-494.5 228,-494.5"/>
<text text-anchor="middle" x="272" y="-501.5" font-family="Helvetica,sans-Serif" font-size="10.00">DefendAreaTask</text>
</a>
</g>
</g>
<!-- Node2&#45;&gt;Node3 -->
<g id="edge2" class="edge"><title>Node2&#45;&gt;Node3</title>
<path fill="none" stroke="midnightblue" d="M178.411,-478.318C197.234,-483.539 218.838,-489.532 236.44,-494.414"/>
<polygon fill="midnightblue" stroke="midnightblue" points="179.143,-474.889 168.571,-475.589 177.272,-481.635 179.143,-474.889"/>
</g>
<!-- Node4 -->
<g id="node4" class="node"><title>Node4</title>
<g id="a_node4"><a xlink:href="class_patrol_waypoints_task.html" target="_top" xlink:title="PatrolWaypointsTask">
<polygon fill="white" stroke="black" points="217,-456.5 217,-475.5 327,-475.5 327,-456.5 217,-456.5"/>
<text text-anchor="middle" x="272" y="-463.5" font-family="Helvetica,sans-Serif" font-size="10.00">PatrolWaypointsTask</text>
</a>
</g>
</g>
<!-- Node2&#45;&gt;Node4 -->
<g id="edge3" class="edge"><title>Node2&#45;&gt;Node4</title>
<path fill="none" stroke="midnightblue" d="M179.795,-466C191.705,-466 204.646,-466 216.938,-466"/>
<polygon fill="midnightblue" stroke="midnightblue" points="179.638,-462.5 169.638,-466 179.637,-469.5 179.638,-462.5"/>
</g>
<!-- Node6 -->
<g id="node6" class="node"><title>Node6</title>
<g id="a_node6"><a xlink:href="class_direct_suicide_task.html" target="_top" xlink:title="DirectSuicideTask">
<polygon fill="white" stroke="black" points="224.5,-418.5 224.5,-437.5 319.5,-437.5 319.5,-418.5 224.5,-418.5"/>
<text text-anchor="middle" x="272" y="-425.5" font-family="Helvetica,sans-Serif" font-size="10.00">DirectSuicideTask</text>
</a>
</g>
</g>
<!-- Node5&#45;&gt;Node6 -->
<g id="edge5" class="edge"><title>Node5&#45;&gt;Node6</title>
<path fill="none" stroke="midnightblue" d="M151.158,-368.751C164.965,-381.404 185.399,-398.353 206,-409 213.311,-412.779 221.484,-415.911 229.501,-418.469"/>
<polygon fill="midnightblue" stroke="midnightblue" points="153.528,-366.175 143.844,-361.878 148.734,-371.276 153.528,-366.175"/>
</g>
<!-- Node7 -->
<g id="node7" class="node"><title>Node7</title>
<g id="a_node7"><a xlink:href="class_fight_task.html" target="_top" xlink:title="FightTask">
<polygon fill="white" stroke="black" points="242.5,-380.5 242.5,-399.5 301.5,-399.5 301.5,-380.5 242.5,-380.5"/>
<text text-anchor="middle" x="272" y="-387.5" font-family="Helvetica,sans-Serif" font-size="10.00">FightTask</text>
</a>
</g>
</g>
<!-- Node5&#45;&gt;Node7 -->
<g id="edge6" class="edge"><title>Node5&#45;&gt;Node7</title>
<path fill="none" stroke="midnightblue" d="M166.282,-360.954C189.29,-367.336 219.951,-375.84 242.145,-381.996"/>
<polygon fill="midnightblue" stroke="midnightblue" points="167.194,-357.575 156.623,-358.275 165.323,-364.32 167.194,-357.575"/>
</g>
<!-- Node8 -->
<g id="node8" class="node"><title>Node8</title>
<g id="a_node8"><a xlink:href="class_fly_to_task.html" target="_top" xlink:title="FlyToTask">
<polygon fill="white" stroke="black" points="241,-342.5 241,-361.5 303,-361.5 303,-342.5 241,-342.5"/>
<text text-anchor="middle" x="272" y="-349.5" font-family="Helvetica,sans-Serif" font-size="10.00">FlyToTask</text>
</a>
</g>
</g>
<!-- Node5&#45;&gt;Node8 -->
<g id="edge7" class="edge"><title>Node5&#45;&gt;Node8</title>
<path fill="none" stroke="midnightblue" d="M166.726,-352C189.253,-352 218.955,-352 240.895,-352"/>
<polygon fill="midnightblue" stroke="midnightblue" points="166.623,-348.5 156.623,-352 166.623,-355.5 166.623,-348.5"/>
</g>
<!-- Node9 -->
<g id="node9" class="node"><title>Node9</title>
<g id="a_node9"><a xlink:href="class_formation_member_task.html" target="_top" xlink:title="FormationMemberTask">
<polygon fill="white" stroke="black" points="214,-304.5 214,-323.5 330,-323.5 330,-304.5 214,-304.5"/>
<text text-anchor="middle" x="272" y="-311.5" font-family="Helvetica,sans-Serif" font-size="10.00">FormationMemberTask</text>
</a>
</g>
</g>
<!-- Node5&#45;&gt;Node9 -->
<g id="edge8" class="edge"><title>Node5&#45;&gt;Node9</title>
<path fill="none" stroke="midnightblue" d="M166.415,-343.009C187.519,-337.155 215.019,-329.528 236.523,-323.563"/>
<polygon fill="midnightblue" stroke="midnightblue" points="165.323,-339.68 156.623,-345.725 167.194,-346.425 165.323,-339.68"/>
</g>
<!-- Node11 -->
<g id="node11" class="node"><title>Node11</title>
<g id="a_node11"><a xlink:href="class_a_a_b_b_entered_poll.html" target="_top" xlink:title="AABBEnteredPoll">
<polygon fill="white" stroke="black" points="225,-266.5 225,-285.5 319,-285.5 319,-266.5 225,-266.5"/>
<text text-anchor="middle" x="272" y="-273.5" font-family="Helvetica,sans-Serif" font-size="10.00">AABBEnteredPoll</text>
</a>
</g>
</g>
<!-- Node10&#45;&gt;Node11 -->
<g id="edge10" class="edge"><title>Node10&#45;&gt;Node11</title>
<path fill="none" stroke="midnightblue" d="M154.119,-224.838C168.039,-235.17 187.347,-248.305 206,-257 213.886,-260.676 222.643,-263.814 231.11,-266.418"/>
<polygon fill="midnightblue" stroke="midnightblue" points="155.891,-221.789 145.811,-218.527 151.657,-227.363 155.891,-221.789"/>
</g>
<!-- Node12 -->
<g id="node12" class="node"><title>Node12</title>
<g id="a_node12"><a xlink:href="class_ai_task_finished_poll.html" target="_top" xlink:title="AiTaskFinishedPoll">
<polygon fill="white" stroke="black" points="222,-228.5 222,-247.5 322,-247.5 322,-228.5 222,-228.5"/>
<text text-anchor="middle" x="272" y="-235.5" font-family="Helvetica,sans-Serif" font-size="10.00">AiTaskFinishedPoll</text>
</a>
</g>
</g>
<!-- Node10&#45;&gt;Node12 -->
<g id="edge11" class="edge"><title>Node10&#45;&gt;Node12</title>
<path fill="none" stroke="midnightblue" d="M171.739,-216.989C188.551,-220.547 208.483,-224.766 226.058,-228.487"/>
<polygon fill="midnightblue" stroke="midnightblue" points="172.232,-213.515 161.724,-214.869 170.782,-220.364 172.232,-213.515"/>
</g>
<!-- Node13 -->
<g id="node13" class="node"><title>Node13</title>
<g id="a_node13"><a xlink:href="class_mission_state_poll.html" target="_top" xlink:title="MissionStatePoll">
<polygon fill="white" stroke="black" points="227,-190.5 227,-209.5 317,-209.5 317,-190.5 227,-190.5"/>
<text text-anchor="middle" x="272" y="-197.5" font-family="Helvetica,sans-Serif" font-size="10.00">MissionStatePoll</text>
</a>
</g>
</g>
<!-- Node10&#45;&gt;Node13 -->
<g id="edge12" class="edge"><title>Node10&#45;&gt;Node13</title>
<path fill="none" stroke="midnightblue" d="M171.873,-206.512C188.915,-205.392 209.141,-204.064 226.866,-202.899"/>
<polygon fill="midnightblue" stroke="midnightblue" points="171.473,-203.031 161.724,-207.179 171.932,-210.016 171.473,-203.031"/>
</g>
<!-- Node14 -->
<g id="node14" class="node"><title>Node14</title>
<g id="a_node14"><a xlink:href="class_timer.html" target="_top" xlink:title="Timer">
<polygon fill="white" stroke="red" points="251.5,-152.5 251.5,-171.5 292.5,-171.5 292.5,-152.5 251.5,-152.5"/>
<text text-anchor="middle" x="272" y="-159.5" font-family="Helvetica,sans-Serif" font-size="10.00">Timer</text>
</a>
</g>
</g>
<!-- Node10&#45;&gt;Node14 -->
<g id="edge13" class="edge"><title>Node10&#45;&gt;Node14</title>
<path fill="none" stroke="midnightblue" d="M166.548,-195.655C178.827,-190.802 192.974,-185.427 206,-181 221.028,-175.892 238.282,-170.888 251.235,-167.298"/>
<polygon fill="midnightblue" stroke="midnightblue" points="165.147,-192.445 157.159,-199.406 167.744,-198.946 165.147,-192.445"/>
</g>
<!-- Node15 -->
<g id="node15" class="node"><title>Node15</title>
<g id="a_node15"><a xlink:href="class_world_object_destroyed_poll.html" target="_top" xlink:title="WorldObjectDestroyedPoll">
<polygon fill="white" stroke="black" points="206.5,-114.5 206.5,-133.5 337.5,-133.5 337.5,-114.5 206.5,-114.5"/>
<text text-anchor="middle" x="272" y="-121.5" font-family="Helvetica,sans-Serif" font-size="10.00">WorldObjectDestroyedPoll</text>
</a>
</g>
</g>
<!-- Node10&#45;&gt;Node15 -->
<g id="edge14" class="edge"><title>Node10&#45;&gt;Node15</title>
<path fill="none" stroke="midnightblue" d="M164.541,-194.13C166.45,-192.823 168.289,-191.445 170,-190 190.101,-173.021 184.295,-157.874 206,-143 211.625,-139.145 218.038,-136.062 224.592,-133.598"/>
<polygon fill="midnightblue" stroke="midnightblue" points="162.633,-191.193 155.903,-199.376 166.267,-197.177 162.633,-191.193"/>
</g>
<!-- Node19 -->
<g id="node19" class="node"><title>Node19</title>
<g id="a_node19"><a xlink:href="class_generic_world_object.html" target="_top" xlink:title="GenericWorldObject">
<polygon fill="white" stroke="black" points="220,-76.5 220,-95.5 324,-95.5 324,-76.5 220,-76.5"/>
<text text-anchor="middle" x="272" y="-83.5" font-family="Helvetica,sans-Serif" font-size="10.00">GenericWorldObject</text>
</a>
</g>
</g>
<!-- Node18&#45;&gt;Node19 -->
<g id="edge18" class="edge"><title>Node18&#45;&gt;Node19</title>
<path fill="none" stroke="midnightblue" d="M178.775,-79.2682C191.907,-80.2268 206.367,-81.2823 219.865,-82.2675"/>
<polygon fill="midnightblue" stroke="midnightblue" points="178.799,-75.7608 168.571,-78.5234 178.29,-82.7422 178.799,-75.7608"/>
</g>
<!-- Node20 -->
<g id="node20" class="node"><title>Node20</title>
<g id="a_node20"><a xlink:href="class_projectile.html" target="_top" xlink:title="Projectile">
<polygon fill="white" stroke="red" points="243.5,-38.5 243.5,-57.5 300.5,-57.5 300.5,-38.5 243.5,-38.5"/>
<text text-anchor="middle" x="272" y="-45.5" font-family="Helvetica,sans-Serif" font-size="10.00">Projectile</text>
</a>
</g>
</g>
<!-- Node18&#45;&gt;Node20 -->
<g id="edge19" class="edge"><title>Node18&#45;&gt;Node20</title>
<path fill="none" stroke="midnightblue" d="M178.413,-66.9229C199.778,-62.5563 224.726,-57.4576 243.338,-53.6536"/>
<polygon fill="midnightblue" stroke="midnightblue" points="177.667,-63.5028 168.571,-68.9344 179.069,-70.3611 177.667,-63.5028"/>
</g>
<!-- Node21 -->
<g id="node21" class="node"><title>Node21</title>
<g id="a_node21"><a xlink:href="class_ship.html" target="_top" xlink:title="Ship">
<polygon fill="white" stroke="red" points="254,-0.5 254,-19.5 290,-19.5 290,-0.5 254,-0.5"/>
<text text-anchor="middle" x="272" y="-7.5" font-family="Helvetica,sans-Serif" font-size="10.00">Ship</text>
</a>
</g>
</g>
<!-- Node18&#45;&gt;Node21 -->
<g id="edge20" class="edge"><title>Node18&#45;&gt;Node21</title>
<path fill="none" stroke="midnightblue" d="M154.42,-60.3336C168.342,-50.2544 187.535,-37.4988 206,-29 221.593,-21.8232 240.542,-16.6526 253.947,-13.5341"/>
<polygon fill="midnightblue" stroke="midnightblue" points="152.047,-57.7354 146.093,-66.4989 156.213,-63.3612 152.047,-57.7354"/>
</g>
</g>
</svg>
