<?xml version="1.0" encoding="UTF-8" standalone="no"?>
<!DOCTYPE svg PUBLIC "-//W3C//DTD SVG 1.1//EN"
 "http://www.w3.org/Graphics/SVG/1.1/DTD/svg11.dtd">
<!-- Generated by graphviz version 2.36.0 (20140111.2315)
 -->
<!-- Title: FightTask Pages: 1 -->
<!--zoomable 260 -->
<svg id="main" version="1.1" xmlns="http://www.w3.org/2000/svg" xmlns:xlink="http://www.w3.org/1999/xlink" xml:space="preserve" onload="init(evt)">
<style type="text/css"><![CDATA[
.edge:hover path { stroke: red; }
.edge:hover polygon { stroke: red; fill: red; }
]]></style>
<script type="text/javascript"><![CDATA[
var edges = document.getElementsByTagName('g');
if (edges && edges.length) {
  for (var i=0;i<edges.length;i++) {
    if (edges[i].id.substr(0,4)=='edge') {
      edges[i].setAttribute('class','edge');
    }
  }
}
]]></script>
        <defs>
                <circle id="rim" cx="0" cy="0" r="7"/>
                <circle id="rim2" cx="0" cy="0" r="3.5"/>
                <g id="zoomPlus">
                        <use xlink:href="#rim" fill="#404040">
                                <set attributeName="fill" to="#808080" begin="zoomplus.mouseover" end="zoomplus.mouseout"/>
                        </use>
                        <path d="M-4,0h8M0,-4v8" fill="none" stroke="white" stroke-width="1.5" pointer-events="none"/>
                </g>
                <g id="zoomMin">
                        <use xlink:href="#rim" fill="#404040">
                                <set attributeName="fill" to="#808080" begin="zoomminus.mouseover" end="zoomminus.mouseout"/>
                        </use>
                        <path d="M-4,0h8" fill="none" stroke="white" stroke-width="1.5" pointer-events="none"/>
                </g>
                <g id="dirArrow">
                        <path fill="none" stroke="white" stroke-width="1.5" d="M0,-3.0v7 M-2.5,-0.5L0,-3.0L2.5,-0.5"/>
                </g>
               <g id="resetDef">
                       <use xlink:href="#rim2" fill="#404040">
                               <set attributeName="fill" to="#808080" begin="reset.mouseover" end="reset.mouseout"/>
                       </use>
               </g>
        </defs>

<script type="text/javascript">
var viewWidth = 900;
var viewHeight = 260;
var sectionId = 'dynsection-1';
</script>
<script xlink:href="svgpan.js"/>
<svg id="graph" class="graph">
<g id="viewport">
<title>FightTask</title>
<polygon fill="white" stroke="none" points="-4,4 -4,-256 896,-256 896,4 -4,4"/>
<!-- Node1 -->
<g id="node1" class="node"><title>Node1</title>
<polygon fill="#bfbfbf" stroke="black" points="813.5,-172.5 813.5,-191.5 872.5,-191.5 872.5,-172.5 813.5,-172.5"/>
<text text-anchor="middle" x="843" y="-179.5" font-family="Helvetica,sans-Serif" font-size="10.00">FightTask</text>
</g>
<!-- Node2 -->
<g id="node2" class="node"><title>Node2</title>
<g id="a_node2"><a xlink:href="class_ai_task.html" target="_top" xlink:title="AiTask">
<polygon fill="white" stroke="black" points="648.5,-145.5 648.5,-164.5 695.5,-164.5 695.5,-145.5 648.5,-145.5"/>
<text text-anchor="middle" x="672" y="-152.5" font-family="Helvetica,sans-Serif" font-size="10.00">AiTask</text>
</a>
</g>
</g>
<!-- Node2&#45;&gt;Node1 -->
<g id="edge1" class="edge"><title>Node2&#45;&gt;Node1</title>
<path fill="none" stroke="midnightblue" d="M705.752,-160.233C736.992,-165.224 783.577,-172.666 813.37,-177.426"/>
<polygon fill="midnightblue" stroke="midnightblue" points="706.219,-156.763 695.792,-158.641 705.115,-163.675 706.219,-156.763"/>
</g>
<!-- Node3 -->
<g id="node3" class="node"><title>Node3</title>
<g id="a_node3"><a xlink:href="class_scriptable.html" target="_top" xlink:title="Scriptable">
<polygon fill="white" stroke="black" points="30,-111.5 30,-130.5 90,-130.5 90,-111.5 30,-111.5"/>
<text text-anchor="middle" x="60" y="-118.5" font-family="Helvetica,sans-Serif" font-size="10.00">Scriptable</text>
</a>
</g>
</g>
<!-- Node3&#45;&gt;Node2 -->
<g id="edge2" class="edge"><title>Node3&#45;&gt;Node2</title>
<path fill="none" stroke="midnightblue" d="M100.22,-116.079C180.66,-106.773 370.047,-88.9089 528,-105 574.046,-109.691 587.54,-107.579 630,-126 641.038,-130.789 652.09,-138.842 659.933,-145.248"/>
<polygon fill="midnightblue" stroke="midnightblue" points="99.578,-112.63 90.0564,-117.277 100.397,-119.582 99.578,-112.63"/>
</g>
<!-- Node6 -->
<g id="node6" class="node"><title>Node6</title>
<g id="a_node6"><a xlink:href="class_world_object.html" target="_top" xlink:title="WorldObject">
<polygon fill="white" stroke="red" points="202.5,-155.5 202.5,-174.5 273.5,-174.5 273.5,-155.5 202.5,-155.5"/>
<text text-anchor="middle" x="238" y="-162.5" font-family="Helvetica,sans-Serif" font-size="10.00">WorldObject</text>
</a>
</g>
</g>
<!-- Node3&#45;&gt;Node6 -->
<g id="edge6" class="edge"><title>Node3&#45;&gt;Node6</title>
<path fill="none" stroke="midnightblue" d="M99.9813,-130.745C130.651,-138.413 172.986,-148.997 202.451,-156.363"/>
<polygon fill="midnightblue" stroke="midnightblue" points="100.613,-127.296 90.0628,-128.266 98.9153,-134.087 100.613,-127.296"/>
</g>
<!-- Node4 -->
<g id="node4" class="node"><title>Node4</title>
<g id="a_node4"><a xlink:href="class_handle.html" target="_top" xlink:title="Handle\&lt; AiTask \&gt;">
<polygon fill="white" stroke="black" points="422.5,-152.5 422.5,-171.5 517.5,-171.5 517.5,-152.5 422.5,-152.5"/>
<text text-anchor="middle" x="470" y="-159.5" font-family="Helvetica,sans-Serif" font-size="10.00">Handle&lt; AiTask &gt;</text>
</a>
</g>
</g>
<!-- Node4&#45;&gt;Node2 -->
<g id="edge3" class="edge"><title>Node4&#45;&gt;Node2</title>
<path fill="none" stroke="#9a32cd" stroke-dasharray="5,2" d="M527.815,-160.011C567.864,-158.61 619.352,-156.808 648.408,-155.791"/>
<polygon fill="#9a32cd" stroke="#9a32cd" points="527.51,-156.52 517.639,-160.368 527.755,-163.516 527.51,-156.52"/>
<text text-anchor="middle" x="588" y="-163" font-family="Helvetica,sans-Serif" font-size="10.00"> m_handle</text>
</g>
<!-- Node5 -->
<g id="node5" class="node"><title>Node5</title>
<g id="a_node5"><a xlink:href="class_board_computer.html" target="_top" xlink:title="BoardComputer">
<polygon fill="white" stroke="red" points="428,-114.5 428,-133.5 512,-133.5 512,-114.5 428,-114.5"/>
<text text-anchor="middle" x="470" y="-121.5" font-family="Helvetica,sans-Serif" font-size="10.00">BoardComputer</text>
</a>
</g>
</g>
<!-- Node5&#45;&gt;Node2 -->
<g id="edge4" class="edge"><title>Node5&#45;&gt;Node2</title>
<path fill="none" stroke="#9a32cd" stroke-dasharray="5,2" d="M522.446,-127.277C553.778,-129.901 594.482,-134.434 630,-142 635.989,-143.276 642.348,-145.068 648.225,-146.915"/>
<polygon fill="#9a32cd" stroke="#9a32cd" points="522.448,-123.766 512.201,-126.459 521.89,-130.744 522.448,-123.766"/>
<text text-anchor="middle" x="588" y="-145" font-family="Helvetica,sans-Serif" font-size="10.00"> m_boardComputer</text>
</g>
<!-- Node6&#45;&gt;Node1 -->
<g id="edge10" class="edge"><title>Node6&#45;&gt;Node1</title>
<path fill="none" stroke="#9a32cd" stroke-dasharray="5,2" d="M284.051,-170.398C318.917,-174.277 368.44,-179.137 412,-181 563.034,-187.458 744.181,-184.325 813.298,-182.733"/>
<polygon fill="#9a32cd" stroke="#9a32cd" points="284.054,-166.876 273.724,-169.23 283.268,-173.832 284.054,-166.876"/>
<text text-anchor="middle" x="588" y="-188" font-family="Helvetica,sans-Serif" font-size="10.00"> m_primaryTarget</text>
</g>
<!-- Node6&#45;&gt;Node5 -->
<g id="edge5" class="edge"><title>Node6&#45;&gt;Node5</title>
<path fill="none" stroke="#9a32cd" stroke-dasharray="5,2" d="M283.834,-157.008C325.607,-149.561 387.373,-138.551 427.899,-131.327"/>
<polygon fill="#9a32cd" stroke="#9a32cd" points="283.163,-153.572 273.932,-158.773 284.391,-160.464 283.163,-153.572"/>
<text text-anchor="middle" x="343" y="-159" font-family="Helvetica,sans-Serif" font-size="10.00"> m_worldObject</text>
</g>
<!-- Node7 -->
<g id="node7" class="node"><title>Node7</title>
<g id="a_node7"><a xlink:href="class_handle.html" target="_top" xlink:title="Handle\&lt; WorldObject \&gt;">
<polygon fill="white" stroke="black" points="0.5,-171.5 0.5,-190.5 119.5,-190.5 119.5,-171.5 0.5,-171.5"/>
<text text-anchor="middle" x="60" y="-178.5" font-family="Helvetica,sans-Serif" font-size="10.00">Handle&lt; WorldObject &gt;</text>
</a>
</g>
</g>
<!-- Node7&#45;&gt;Node6 -->
<g id="edge7" class="edge"><title>Node7&#45;&gt;Node6</title>
<path fill="none" stroke="#9a32cd" stroke-dasharray="5,2" d="M129.726,-174.752C154.561,-172.494 181.55,-170.041 202.244,-168.16"/>
<polygon fill="#9a32cd" stroke="#9a32cd" points="129.247,-171.281 119.605,-175.672 129.881,-178.252 129.247,-171.281"/>
<text text-anchor="middle" x="161" y="-177" font-family="Helvetica,sans-Serif" font-size="10.00"> m_handle</text>
</g>
<!-- Node8 -->
<g id="node8" class="node"><title>Node8</title>
<polygon fill="white" stroke="#bfbfbf" points="292.5,-219 292.5,-249 393.5,-249 393.5,-219 292.5,-219"/>
<text text-anchor="start" x="300.5" y="-237" font-family="Helvetica,sans-Serif" font-size="10.00">std::vector&lt; Handle</text>
<text text-anchor="middle" x="343" y="-226" font-family="Helvetica,sans-Serif" font-size="10.00">&lt; WorldObject &gt; &gt;</text>
</g>
<!-- Node7&#45;&gt;Node8 -->
<g id="edge9" class="edge"><title>Node7&#45;&gt;Node8</title>
<path fill="none" stroke="#9a32cd" stroke-dasharray="5,2" d="M121.469,-192.405C172.484,-202.027 244.618,-215.633 292.316,-224.629"/>
<polygon fill="#9a32cd" stroke="#9a32cd" points="122.037,-188.951 111.562,-190.537 120.74,-195.829 122.037,-188.951"/>
<text text-anchor="middle" x="161" y="-208" font-family="Helvetica,sans-Serif" font-size="10.00"> elements</text>
</g>
<!-- Node8&#45;&gt;Node1 -->
<g id="edge8" class="edge"><title>Node8&#45;&gt;Node1</title>
<path fill="none" stroke="#9a32cd" stroke-dasharray="5,2" d="M403.698,-238.722C488.086,-243.725 646.421,-246.929 776,-214 794.389,-209.327 813.731,-199.253 826.686,-191.649"/>
<polygon fill="#9a32cd" stroke="#9a32cd" points="403.73,-235.218 393.532,-238.09 403.295,-242.204 403.73,-235.218"/>
<text text-anchor="middle" x="588" y="-244" font-family="Helvetica,sans-Serif" font-size="10.00"> m_targets</text>
</g>
<!-- Node9 -->
<g id="node9" class="node"><title>Node9</title>
<g id="a_node9"><a xlink:href="class_state.html" target="_top" xlink:title="State">
<polygon fill="white" stroke="black" points="652,-38.5 652,-57.5 692,-57.5 692,-38.5 652,-38.5"/>
<text text-anchor="middle" x="672" y="-45.5" font-family="Helvetica,sans-Serif" font-size="10.00">State</text>
</a>
</g>
</g>
<!-- Node9&#45;&gt;Node1 -->
<g id="edge11" class="edge"><title>Node9&#45;&gt;Node1</title>
<path fill="none" stroke="#9a32cd" stroke-dasharray="5,2" d="M693.354,-64.1387C728.921,-92.3401 801.322,-149.747 829.956,-172.45"/>
<polygon fill="#9a32cd" stroke="#9a32cd" points="695.164,-61.1074 685.154,-57.6369 690.815,-66.5925 695.164,-61.1074"/>
<text text-anchor="middle" x="745" y="-131" font-family="Helvetica,sans-Serif" font-size="10.00"> m_state</text>
</g>
<!-- Node9&#45;&gt;Node9 -->
<g id="edge16" class="edge"><title>Node9&#45;&gt;Node9</title>
<path fill="none" stroke="#9a32cd" stroke-dasharray="5,2" d="M658.741,-67.7663C659.782,-72.4965 664.202,-76 672,-76 684.797,-76 688.496,-66.5653 683.097,-57.7571"/>
<polygon fill="#9a32cd" stroke="#9a32cd" points="662.212,-68.2706 660.903,-57.7571 655.37,-66.7927 662.212,-68.2706"/>
<text text-anchor="middle" x="672" y="-112" font-family="Helvetica,sans-Serif" font-size="10.00"> m_currentSubState</text>
<text text-anchor="middle" x="672" y="-101" font-family="Helvetica,sans-Serif" font-size="10.00">m_initialSubState</text>
<text text-anchor="middle" x="672" y="-90" font-family="Helvetica,sans-Serif" font-size="10.00">m_finalSubState</text>
<text text-anchor="middle" x="672" y="-79" font-family="Helvetica,sans-Serif" font-size="10.00">m_parentState</text>
</g>
<!-- Node10 -->
<g id="node10" class="node"><title>Node10</title>
<polygon fill="white" stroke="#bfbfbf" points="794.5,-38.5 794.5,-57.5 891.5,-57.5 891.5,-38.5 794.5,-38.5"/>
<text text-anchor="middle" x="843" y="-45.5" font-family="Helvetica,sans-Serif" font-size="10.00">std::list&lt; State * &gt;</text>
</g>
<!-- Node9&#45;&gt;Node10 -->
<g id="edge13" class="edge"><title>Node9&#45;&gt;Node10</title>
<path fill="none" stroke="#9a32cd" stroke-dasharray="5,2" d="M702.121,-48C727.425,-48 764.569,-48 794.222,-48"/>
<polygon fill="#9a32cd" stroke="#9a32cd" points="702.058,-44.5001 692.058,-48 702.058,-51.5001 702.058,-44.5001"/>
<text text-anchor="middle" x="745" y="-51" font-family="Helvetica,sans-Serif" font-size="10.00"> elements</text>
</g>
<!-- Node10&#45;&gt;Node9 -->
<g id="edge12" class="edge"><title>Node10&#45;&gt;Node9</title>
<path fill="none" stroke="#9a32cd" stroke-dasharray="5,2" d="M799.828,-36.1734C774.771,-30.7737 742.435,-26.6482 714,-32 706.641,-33.385 698.908,-36.0543 692.166,-38.8217"/>
<polygon fill="#9a32cd" stroke="#9a32cd" points="799.211,-39.6228 809.741,-38.4565 800.782,-32.8014 799.211,-39.6228"/>
<text text-anchor="middle" x="745" y="-35" font-family="Helvetica,sans-Serif" font-size="10.00"> m_subStates</text>
</g>
<!-- Node11 -->
<g id="node11" class="node"><title>Node11</title>
<g id="a_node11"><a xlink:title="STL class. ">
<polygon fill="white" stroke="#bfbfbf" points="440,-0.5 440,-19.5 500,-19.5 500,-0.5 440,-0.5"/>
<text text-anchor="middle" x="470" y="-7.5" font-family="Helvetica,sans-Serif" font-size="10.00">std::string</text>
</a>
</g>
</g>
<!-- Node11&#45;&gt;Node9 -->
<g id="edge14" class="edge"><title>Node11&#45;&gt;Node9</title>
<path fill="none" stroke="#9a32cd" stroke-dasharray="5,2" d="M510.067,-13.3736C542.525,-16.7175 589.736,-22.8391 630,-33 637.202,-34.8175 644.898,-37.4416 651.655,-39.9885"/>
<polygon fill="#9a32cd" stroke="#9a32cd" points="510.371,-9.88669 500.074,-12.384 509.681,-16.8526 510.371,-9.88669"/>
<text text-anchor="middle" x="588" y="-36" font-family="Helvetica,sans-Serif" font-size="10.00"> m_name</text>
</g>
<!-- Node12 -->
<g id="node12" class="node"><title>Node12</title>
<polygon fill="white" stroke="#bfbfbf" points="412,-38.5 412,-57.5 528,-57.5 528,-38.5 412,-38.5"/>
<text text-anchor="middle" x="470" y="-45.5" font-family="Helvetica,sans-Serif" font-size="10.00">std::list&lt; Transition * &gt;</text>
</g>
<!-- Node12&#45;&gt;Node9 -->
<g id="edge15" class="edge"><title>Node12&#45;&gt;Node9</title>
<path fill="none" stroke="#9a32cd" stroke-dasharray="5,2" d="M538.245,-48C578.06,-48 625.663,-48 651.673,-48"/>
<polygon fill="#9a32cd" stroke="#9a32cd" points="538.044,-44.5001 528.044,-48 538.044,-51.5001 538.044,-44.5001"/>
<text text-anchor="middle" x="588" y="-51" font-family="Helvetica,sans-Serif" font-size="10.00"> m_transitions</text>
</g>
</g>
</svg>
        <g id="navigator" transform="translate(0 0)" fill="#404254">
                <rect fill="#f2f5e9" fill-opacity="0.5" stroke="#606060" stroke-width=".5" x="0" y="0" width="60" height="60"/>
                <use id="zoomplus" xlink:href="#zoomPlus" x="17" y="9" onmousedown="handleZoom(evt,'in')"/>
                <use id="zoomminus" xlink:href="#zoomMin" x="42" y="9" onmousedown="handleZoom(evt,'out')"/>
                <use id="reset" xlink:href="#resetDef" x="30" y="36" onmousedown="handleReset()"/>
                <g id="arrowUp" xlink:href="#dirArrow" transform="translate(30 24)" onmousedown="handlePan(0,-1)">
                  <use xlink:href="#rim" fill="#404040">
                        <set attributeName="fill" to="#808080" begin="arrowUp.mouseover" end="arrowUp.mouseout"/>
                  </use>
                  <path fill="none" stroke="white" stroke-width="1.5" d="M0,-3.0v7 M-2.5,-0.5L0,-3.0L2.5,-0.5"/>
                </g>
                <g id="arrowRight" xlink:href="#dirArrow" transform="rotate(90) translate(36 -43)" onmousedown="handlePan(1,0)">
                  <use xlink:href="#rim" fill="#404040">
                        <set attributeName="fill" to="#808080" begin="arrowRight.mouseover" end="arrowRight.mouseout"/>
                  </use>
                  <path fill="none" stroke="white" stroke-width="1.5" d="M0,-3.0v7 M-2.5,-0.5L0,-3.0L2.5,-0.5"/>
                </g>
                <g id="arrowDown" xlink:href="#dirArrow" transform="rotate(180) translate(-30 -48)" onmousedown="handlePan(0,1)">
                  <use xlink:href="#rim" fill="#404040">
                        <set attributeName="fill" to="#808080" begin="arrowDown.mouseover" end="arrowDown.mouseout"/>
                  </use>
                  <path fill="none" stroke="white" stroke-width="1.5" d="M0,-3.0v7 M-2.5,-0.5L0,-3.0L2.5,-0.5"/>
                </g>
                <g id="arrowLeft" xlink:href="#dirArrow" transform="rotate(270) translate(-36 17)" onmousedown="handlePan(-1,0)">
                  <use xlink:href="#rim" fill="#404040">
                        <set attributeName="fill" to="#808080" begin="arrowLeft.mouseover" end="arrowLeft.mouseout"/>
                  </use>
                  <path fill="none" stroke="white" stroke-width="1.5" d="M0,-3.0v7 M-2.5,-0.5L0,-3.0L2.5,-0.5"/>
                </g>
        </g>
        <svg viewBox="0 0 15 15" width="100%" height="30px" preserveAspectRatio="xMaxYMin meet">
         <g id="arrow_out" transform="scale(0.3 0.3)">
          <a xlink:href="class_fight_task__coll__graph_org.svg" target="_base">
           <rect id="button" ry="5" rx="5" y="6" x="6" height="38" width="38"
                fill="#f2f5e9" fill-opacity="0.5" stroke="#606060" stroke-width="1.0"/>
           <path id="arrow"
             d="M 11.500037,31.436501 C 11.940474,20.09759 22.043105,11.32322 32.158766,21.979434 L 37.068811,17.246167 C 37.068811,17.246167 37.088388,32 37.088388,32 L 22.160133,31.978069 C 22.160133,31.978069 26.997745,27.140456 26.997745,27.140456 C 18.528582,18.264221 13.291696,25.230495 11.500037,31.436501 z"
             style="fill:#404040;"/>
          </a>
         </g>
        </svg>
</svg>
