<?xml version="1.0" encoding="UTF-8" standalone="no"?>
<!DOCTYPE svg PUBLIC "-//W3C//DTD SVG 1.1//EN"
 "http://www.w3.org/Graphics/SVG/1.1/DTD/svg11.dtd">
<!-- Generated by graphviz version 2.36.0 (20140111.2315)
 -->
<!-- Title: CameraHead Pages: 1 -->
<svg width="470pt" height="162pt"
 viewBox="0.00 0.00 470.00 162.00" xmlns="http://www.w3.org/2000/svg" xmlns:xlink="http://www.w3.org/1999/xlink">
<g id="graph0" class="graph" transform="scale(1 1) rotate(0) translate(4 158)">
<title>CameraHead</title>
<polygon fill="white" stroke="none" points="-4,4 -4,-158 466,-158 466,4 -4,4"/>
<!-- Node1 -->
<g id="node1" class="node"><title>Node1</title>
<polygon fill="#bfbfbf" stroke="black" points="0.5,-113.5 0.5,-132.5 73.5,-132.5 73.5,-113.5 0.5,-113.5"/>
<text text-anchor="middle" x="37" y="-120.5" font-family="Helvetica,sans-Serif" font-size="10.00">CameraHead</text>
</g>
<!-- Node5 -->
<g id="node5" class="node"><title>Node5</title>
<polygon fill="white" stroke="#bfbfbf" points="126.5,-134.5 126.5,-153.5 281.5,-153.5 281.5,-134.5 126.5,-134.5"/>
<text text-anchor="middle" x="204" y="-141.5" font-family="Helvetica,sans-Serif" font-size="10.00">std::unique_ptr&lt; CameraHead &gt;</text>
</g>
<!-- Node1&#45;&gt;Node5 -->
<g id="edge5" class="edge"><title>Node1&#45;&gt;Node5</title>
<path fill="none" stroke="#9a32cd" stroke-dasharray="5,2" d="M83.963,-128.85C97.7276,-130.602 113.193,-132.57 128.305,-134.493"/>
<polygon fill="#9a32cd" stroke="#9a32cd" points="84.1644,-125.347 73.8025,-127.557 83.2806,-132.291 84.1644,-125.347"/>
<text text-anchor="middle" x="100" y="-135" font-family="Helvetica,sans-Serif" font-size="10.00"> ptr</text>
</g>
<!-- Node2 -->
<g id="node2" class="node"><title>Node2</title>
<g id="a_node2"><a xlink:href="class_camera_dolly.html" target="_top" xlink:title="CameraDolly">
<polygon fill="white" stroke="black" points="390,-72.5 390,-91.5 462,-91.5 462,-72.5 390,-72.5"/>
<text text-anchor="middle" x="426" y="-79.5" font-family="Helvetica,sans-Serif" font-size="10.00">CameraDolly</text>
</a>
</g>
</g>
<!-- Node2&#45;&gt;Node1 -->
<g id="edge1" class="edge"><title>Node2&#45;&gt;Node1</title>
<path fill="none" stroke="#9a32cd" stroke-dasharray="5,2" d="M379.961,-86.7716C302.232,-95.0064 144.451,-111.722 73.7144,-119.216"/>
<polygon fill="#9a32cd" stroke="#9a32cd" points="380.355,-90.2495 389.931,-85.7153 379.618,-83.2884 380.355,-90.2495"/>
<text text-anchor="middle" x="204" y="-117" font-family="Helvetica,sans-Serif" font-size="10.00"> m_cameraDolly</text>
</g>
<!-- Node3 -->
<g id="node3" class="node"><title>Node3</title>
<g id="a_node3"><a xlink:href="class_inertia_follower.html" target="_top" xlink:title="InertiaFollower">
<polygon fill="white" stroke="black" points="164.5,-49.5 164.5,-68.5 243.5,-68.5 243.5,-49.5 164.5,-49.5"/>
<text text-anchor="middle" x="204" y="-56.5" font-family="Helvetica,sans-Serif" font-size="10.00">InertiaFollower</text>
</a>
</g>
</g>
<!-- Node3&#45;&gt;Node2 -->
<g id="edge2" class="edge"><title>Node3&#45;&gt;Node2</title>
<path fill="none" stroke="midnightblue" d="M253.658,-64.087C294.849,-68.3933 352.908,-74.4631 389.745,-78.3143"/>
<polygon fill="midnightblue" stroke="midnightblue" points="253.883,-60.5915 243.573,-63.0326 253.155,-67.5535 253.883,-60.5915"/>
</g>
<!-- Node4 -->
<g id="node4" class="node"><title>Node4</title>
<polygon fill="white" stroke="#bfbfbf" points="128,-0 128,-30 280,-30 280,-0 128,-0"/>
<text text-anchor="start" x="136" y="-18" font-family="Helvetica,sans-Serif" font-size="10.00">std::unique_ptr&lt; CameraFollow</text>
<text text-anchor="middle" x="204" y="-7" font-family="Helvetica,sans-Serif" font-size="10.00">Helper &gt;</text>
</g>
<!-- Node4&#45;&gt;Node2 -->
<g id="edge3" class="edge"><title>Node4&#45;&gt;Node2</title>
<path fill="none" stroke="#9a32cd" stroke-dasharray="5,2" d="M290.163,-31.3156C316.765,-37.4925 345.955,-45.4004 372,-55 384.79,-59.7141 398.481,-66.7453 408.744,-72.4507"/>
<polygon fill="#9a32cd" stroke="#9a32cd" points="290.633,-27.8333 280.107,-29.033 289.084,-34.6597 290.633,-27.8333"/>
<text text-anchor="middle" x="336" y="-58" font-family="Helvetica,sans-Serif" font-size="10.00"> m_followHelper</text>
</g>
<!-- Node5&#45;&gt;Node2 -->
<g id="edge4" class="edge"><title>Node5&#45;&gt;Node2</title>
<path fill="none" stroke="#9a32cd" stroke-dasharray="5,2" d="M291.76,-138.679C318.192,-135.044 346.884,-129.003 372,-119 388.263,-112.522 404.387,-100.2 414.501,-91.5613"/>
<polygon fill="#9a32cd" stroke="#9a32cd" points="291.228,-135.218 281.752,-139.957 292.115,-142.161 291.228,-135.218"/>
<text text-anchor="middle" x="336" y="-140" font-family="Helvetica,sans-Serif" font-size="10.00"> m_cameraHead</text>
</g>
</g>
</svg>
