<?xml version="1.0" encoding="UTF-8" standalone="no"?>
<!DOCTYPE svg PUBLIC "-//W3C//DTD SVG 1.1//EN"
 "http://www.w3.org/Graphics/SVG/1.1/DTD/svg11.dtd">
<!-- Generated by graphviz version 2.36.0 (20140111.2315)
 -->
<!-- Title: VoxelRenderer Pages: 1 -->
<svg width="882pt" height="143pt"
 viewBox="0.00 0.00 882.00 143.07" xmlns="http://www.w3.org/2000/svg" xmlns:xlink="http://www.w3.org/1999/xlink">
<g id="graph0" class="graph" transform="scale(1 1) rotate(0) translate(4 139.066)">
<title>VoxelRenderer</title>
<polygon fill="white" stroke="none" points="-4,4 -4,-139.066 878,-139.066 878,4 -4,4"/>
<!-- Node1 -->
<g id="node1" class="node"><title>Node1</title>
<polygon fill="#bfbfbf" stroke="black" points="548,-67.5 548,-86.5 628,-86.5 628,-67.5 548,-67.5"/>
<text text-anchor="middle" x="588" y="-74.5" font-family="Helvetica,sans-Serif" font-size="10.00">VoxelRenderer</text>
</g>
<!-- Node6 -->
<g id="node6" class="node"><title>Node6</title>
<polygon fill="white" stroke="#bfbfbf" points="716.5,-67.5 716.5,-86.5 873.5,-86.5 873.5,-67.5 716.5,-67.5"/>
<text text-anchor="middle" x="795" y="-74.5" font-family="Helvetica,sans-Serif" font-size="10.00">std::weak_ptr&lt; VoxelRenderer &gt;</text>
</g>
<!-- Node1&#45;&gt;Node6 -->
<g id="edge7" class="edge"><title>Node1&#45;&gt;Node6</title>
<path fill="none" stroke="#9a32cd" stroke-dasharray="5,2" d="M638.089,-77C661.543,-77 690.174,-77 716.47,-77"/>
<polygon fill="#9a32cd" stroke="#9a32cd" points="638.041,-73.5001 628.041,-77 638.041,-80.5001 638.041,-73.5001"/>
<text text-anchor="middle" x="672" y="-80" font-family="Helvetica,sans-Serif" font-size="10.00"> ptr</text>
</g>
<!-- Node2 -->
<g id="node2" class="node"><title>Node2</title>
<g id="a_node2"><a xlink:href="class_context_dependant.html" target="_top" xlink:title="ContextDependant">
<polygon fill="white" stroke="black" points="0.5,-109.5 0.5,-128.5 97.5,-128.5 97.5,-109.5 0.5,-109.5"/>
<text text-anchor="middle" x="49" y="-116.5" font-family="Helvetica,sans-Serif" font-size="10.00">ContextDependant</text>
</a>
</g>
</g>
<!-- Node2&#45;&gt;Node1 -->
<g id="edge1" class="edge"><title>Node2&#45;&gt;Node1</title>
<path fill="none" stroke="midnightblue" d="M107.967,-126.101C199.552,-135.383 382.471,-146.015 530,-105 544.659,-100.925 560.077,-93.1065 571.177,-86.7651"/>
<polygon fill="midnightblue" stroke="midnightblue" points="108.103,-122.596 97.7928,-125.037 107.374,-129.558 108.103,-122.596"/>
</g>
<!-- Node5 -->
<g id="node5" class="node"><title>Node5</title>
<g id="a_node5"><a xlink:href="class_voxel_mesh.html" target="_top" xlink:title="VoxelMesh">
<polygon fill="white" stroke="black" points="136.5,-87.5 136.5,-106.5 201.5,-106.5 201.5,-87.5 136.5,-87.5"/>
<text text-anchor="middle" x="169" y="-94.5" font-family="Helvetica,sans-Serif" font-size="10.00">VoxelMesh</text>
</a>
</g>
</g>
<!-- Node2&#45;&gt;Node5 -->
<g id="edge5" class="edge"><title>Node2&#45;&gt;Node5</title>
<path fill="none" stroke="midnightblue" d="M107.544,-108.272C117.493,-106.417 127.497,-104.551 136.424,-102.887"/>
<polygon fill="midnightblue" stroke="midnightblue" points="106.844,-104.842 97.655,-110.115 108.127,-111.723 106.844,-104.842"/>
</g>
<!-- Node3 -->
<g id="node3" class="node"><title>Node3</title>
<g id="a_node3"><a xlink:href="classglow_1_1_uniform.html" target="_top" xlink:title="glow::Uniform\&lt; float \&gt;">
<polygon fill="white" stroke="black" points="272.5,-49.5 272.5,-68.5 383.5,-68.5 383.5,-49.5 272.5,-49.5"/>
<text text-anchor="middle" x="328" y="-56.5" font-family="Helvetica,sans-Serif" font-size="10.00">glow::Uniform&lt; float &gt;</text>
</a>
</g>
</g>
<!-- Node3&#45;&gt;Node1 -->
<g id="edge2" class="edge"><title>Node3&#45;&gt;Node1</title>
<path fill="none" stroke="#9a32cd" stroke-dasharray="5,2" d="M393.906,-56.0025C433.425,-55.1593 484.833,-55.8134 530,-62 538.617,-63.1803 547.796,-65.2305 556.214,-67.4428"/>
<polygon fill="#9a32cd" stroke="#9a32cd" points="393.777,-52.5045 383.868,-56.254 393.952,-59.5023 393.777,-52.5045"/>
<text text-anchor="middle" x="475" y="-65" font-family="Helvetica,sans-Serif" font-size="10.00"> m_emissivenessUniform</text>
</g>
<!-- Node4 -->
<g id="node4" class="node"><title>Node4</title>
<polygon fill="white" stroke="#bfbfbf" points="254,-87.5 254,-106.5 402,-106.5 402,-87.5 254,-87.5"/>
<text text-anchor="middle" x="328" y="-94.5" font-family="Helvetica,sans-Serif" font-size="10.00">std::unique_ptr&lt; VoxelMesh &gt;</text>
</g>
<!-- Node4&#45;&gt;Node1 -->
<g id="edge3" class="edge"><title>Node4&#45;&gt;Node1</title>
<path fill="none" stroke="#9a32cd" stroke-dasharray="5,2" d="M412.408,-90.5343C457.921,-87.0061 512.123,-82.8044 547.929,-80.0287"/>
<polygon fill="#9a32cd" stroke="#9a32cd" points="411.942,-87.0598 402.242,-91.3223 412.483,-94.0389 411.942,-87.0598"/>
<text text-anchor="middle" x="475" y="-93" font-family="Helvetica,sans-Serif" font-size="10.00"> m_voxelMesh</text>
</g>
<!-- Node5&#45;&gt;Node4 -->
<g id="edge4" class="edge"><title>Node5&#45;&gt;Node4</title>
<path fill="none" stroke="#9a32cd" stroke-dasharray="5,2" d="M212.126,-97C224.969,-97 239.479,-97 253.757,-97"/>
<polygon fill="#9a32cd" stroke="#9a32cd" points="211.771,-93.5001 201.771,-97 211.771,-100.5 211.771,-93.5001"/>
<text text-anchor="middle" x="228" y="-100" font-family="Helvetica,sans-Serif" font-size="10.00"> ptr</text>
</g>
<!-- Node6&#45;&gt;Node1 -->
<g id="edge6" class="edge"><title>Node6&#45;&gt;Node1</title>
<path fill="none" stroke="#9a32cd" stroke-dasharray="5,2" d="M744.145,-65.5389C715.401,-60.4479 678.607,-56.5103 646,-61 636.429,-62.3179 626.201,-64.8252 617.09,-67.4707"/>
<polygon fill="#9a32cd" stroke="#9a32cd" points="743.875,-69.0491 754.348,-67.4532 745.165,-62.1691 743.875,-69.0491"/>
<text text-anchor="middle" x="672" y="-64" font-family="Helvetica,sans-Serif" font-size="10.00"> s_instance</text>
</g>
<!-- Node7 -->
<g id="node7" class="node"><title>Node7</title>
<g id="a_node7"><a xlink:href="classglow_1_1_uniform.html" target="_top" xlink:title="glow::Uniform\&lt; glm\l::mat4 \&gt;">
<polygon fill="white" stroke="black" points="278,-0 278,-30 378,-30 378,-0 278,-0"/>
<text text-anchor="start" x="286" y="-18" font-family="Helvetica,sans-Serif" font-size="10.00">glow::Uniform&lt; glm</text>
<text text-anchor="middle" x="328" y="-7" font-family="Helvetica,sans-Serif" font-size="10.00">::mat4 &gt;</text>
</a>
</g>
</g>
<!-- Node7&#45;&gt;Node1 -->
<g id="edge8" class="edge"><title>Node7&#45;&gt;Node1</title>
<path fill="none" stroke="#9a32cd" stroke-dasharray="5,2" d="M388.381,-15.9701C429.257,-18.239 484.227,-24.4998 530,-41 546.957,-47.1124 564.139,-58.8984 575.14,-67.32"/>
<polygon fill="#9a32cd" stroke="#9a32cd" points="388.466,-12.4702 378.307,-15.4755 388.123,-19.4617 388.466,-12.4702"/>
<text text-anchor="middle" x="475" y="-44" font-family="Helvetica,sans-Serif" font-size="10.00"> m_modelMatrixUniform</text>
</g>
</g>
</svg>
