<?xml version="1.0" encoding="UTF-8" standalone="no"?>
<!DOCTYPE svg PUBLIC "-//W3C//DTD SVG 1.1//EN"
 "http://www.w3.org/Graphics/SVG/1.1/DTD/svg11.dtd">
<!-- Generated by graphviz version 2.36.0 (20140111.2315)
 -->
<!-- Title: GamePlayScene Pages: 1 -->
<!--zoomable 337 -->
<svg id="main" version="1.1" xmlns="http://www.w3.org/2000/svg" xmlns:xlink="http://www.w3.org/1999/xlink" xml:space="preserve" onload="init(evt)">
<style type="text/css"><![CDATA[
.edge:hover path { stroke: red; }
.edge:hover polygon { stroke: red; fill: red; }
]]></style>
<script type="text/javascript"><![CDATA[
var edges = document.getElementsByTagName('g');
if (edges && edges.length) {
  for (var i=0;i<edges.length;i++) {
    if (edges[i].id.substr(0,4)=='edge') {
      edges[i].setAttribute('class','edge');
    }
  }
}
]]></script>
        <defs>
                <circle id="rim" cx="0" cy="0" r="7"/>
                <circle id="rim2" cx="0" cy="0" r="3.5"/>
                <g id="zoomPlus">
                        <use xlink:href="#rim" fill="#404040">
                                <set attributeName="fill" to="#808080" begin="zoomplus.mouseover" end="zoomplus.mouseout"/>
                        </use>
                        <path d="M-4,0h8M0,-4v8" fill="none" stroke="white" stroke-width="1.5" pointer-events="none"/>
                </g>
                <g id="zoomMin">
                        <use xlink:href="#rim" fill="#404040">
                                <set attributeName="fill" to="#808080" begin="zoomminus.mouseover" end="zoomminus.mouseout"/>
                        </use>
                        <path d="M-4,0h8" fill="none" stroke="white" stroke-width="1.5" pointer-events="none"/>
                </g>
                <g id="dirArrow">
                        <path fill="none" stroke="white" stroke-width="1.5" d="M0,-3.0v7 M-2.5,-0.5L0,-3.0L2.5,-0.5"/>
                </g>
               <g id="resetDef">
                       <use xlink:href="#rim2" fill="#404040">
                               <set attributeName="fill" to="#808080" begin="reset.mouseover" end="reset.mouseout"/>
                       </use>
               </g>
        </defs>

<script type="text/javascript">
var viewWidth = 1194;
var viewHeight = 337;
var sectionId = 'dynsection-1';
</script>
<script xlink:href="svgpan.js"/>
<svg id="graph" class="graph">
<g id="viewport">
<title>GamePlayScene</title>
<polygon fill="white" stroke="none" points="-4,4 -4,-333.262 1190,-333.262 1190,4 -4,4"/>
<!-- Node1 -->
<g id="node1" class="node"><title>Node1</title>
<polygon fill="#bfbfbf" stroke="black" points="414,-102.628 414,-121.628 504,-121.628 504,-102.628 414,-102.628"/>
<text text-anchor="middle" x="459" y="-109.628" font-family="Helvetica,sans-Serif" font-size="10.00">GamePlayScene</text>
</g>
<!-- Node6 -->
<g id="node6" class="node"><title>Node6</title>
<polygon fill="white" stroke="#bfbfbf" points="680,-97.1284 680,-127.128 816,-127.128 816,-97.1284 680,-97.1284"/>
<text text-anchor="start" x="688" y="-115.128" font-family="Helvetica,sans-Serif" font-size="10.00">std::unique_ptr&lt; GamePlay</text>
<text text-anchor="middle" x="748" y="-104.128" font-family="Helvetica,sans-Serif" font-size="10.00">Scene &gt;</text>
</g>
<!-- Node1&#45;&gt;Node6 -->
<g id="edge9" class="edge"><title>Node1&#45;&gt;Node6</title>
<path fill="none" stroke="#9a32cd" stroke-dasharray="5,2" d="M514.493,-112.128C561.456,-112.128 629.437,-112.128 679.771,-112.128"/>
<polygon fill="#9a32cd" stroke="#9a32cd" points="514.215,-108.629 504.215,-112.128 514.215,-115.629 514.215,-108.629"/>
<text text-anchor="middle" x="586" y="-115.128" font-family="Helvetica,sans-Serif" font-size="10.00"> ptr</text>
</g>
<!-- Node2 -->
<g id="node2" class="node"><title>Node2</title>
<g id="a_node2"><a xlink:href="class_scene.html" target="_top" xlink:title="Scene">
<polygon fill="white" stroke="black" points="194,-177.628 194,-196.628 238,-196.628 238,-177.628 194,-177.628"/>
<text text-anchor="middle" x="216" y="-184.628" font-family="Helvetica,sans-Serif" font-size="10.00">Scene</text>
</a>
</g>
</g>
<!-- Node2&#45;&gt;Node1 -->
<g id="edge1" class="edge"><title>Node2&#45;&gt;Node1</title>
<path fill="none" stroke="midnightblue" d="M248.174,-184.638C284.71,-180.91 346.547,-172.055 396,-152.128 414.773,-144.564 433.99,-131.1 445.952,-121.9"/>
<polygon fill="midnightblue" stroke="midnightblue" points="247.752,-181.162 238.13,-185.597 248.418,-188.13 247.752,-181.162"/>
</g>
<!-- Node3 -->
<g id="node3" class="node"><title>Node3</title>
<g id="a_node3"><a xlink:href="class_game_play.html" target="_top" xlink:title="GamePlay">
<polygon fill="white" stroke="black" points="918,-136.628 918,-155.628 980,-155.628 980,-136.628 918,-136.628"/>
<text text-anchor="middle" x="949" y="-143.628" font-family="Helvetica,sans-Serif" font-size="10.00">GamePlay</text>
</a>
</g>
</g>
<!-- Node3&#45;&gt;Node1 -->
<g id="edge2" class="edge"><title>Node3&#45;&gt;Node1</title>
<path fill="none" stroke="#9a32cd" stroke-dasharray="5,2" d="M928.252,-130.121C905.617,-112.898 866.642,-86.5754 828,-76.1284 704.681,-42.7893 550.716,-83.0356 488.267,-102.611"/>
<polygon fill="#9a32cd" stroke="#9a32cd" points="926.323,-133.055 936.363,-136.44 930.625,-127.533 926.323,-133.055"/>
<text text-anchor="middle" x="748" y="-79.1284" font-family="Helvetica,sans-Serif" font-size="10.00"> m_gamePlay</text>
</g>
<!-- Node5 -->
<g id="node5" class="node"><title>Node5</title>
<g id="a_node5"><a xlink:href="class_game.html" target="_top" xlink:title="Game">
<polygon fill="white" stroke="red" points="1115.5,-305.628 1115.5,-324.628 1158.5,-324.628 1158.5,-305.628 1115.5,-305.628"/>
<text text-anchor="middle" x="1137" y="-312.628" font-family="Helvetica,sans-Serif" font-size="10.00">Game</text>
</a>
</g>
</g>
<!-- Node3&#45;&gt;Node5 -->
<g id="edge7" class="edge"><title>Node3&#45;&gt;Node5</title>
<path fill="none" stroke="#9a32cd" stroke-dasharray="5,2" d="M950.305,-166.206C951.958,-198.304 960.175,-260.837 998,-293.128 1015.3,-307.896 1081.29,-312.833 1115.36,-314.418"/>
<polygon fill="#9a32cd" stroke="#9a32cd" points="953.791,-165.744 949.95,-155.87 946.795,-165.985 953.791,-165.744"/>
<text text-anchor="middle" x="1034" y="-313.128" font-family="Helvetica,sans-Serif" font-size="10.00"> m_gamePlay</text>
</g>
<!-- Node10 -->
<g id="node10" class="node"><title>Node10</title>
<g id="a_node10"><a xlink:href="class_game_play_running.html" target="_top" xlink:title="GamePlayRunning">
<polygon fill="white" stroke="red" points="1088,-212.628 1088,-231.628 1186,-231.628 1186,-212.628 1088,-212.628"/>
<text text-anchor="middle" x="1137" y="-219.628" font-family="Helvetica,sans-Serif" font-size="10.00">GamePlayRunning</text>
</a>
</g>
</g>
<!-- Node3&#45;&gt;Node10 -->
<g id="edge15" class="edge"><title>Node3&#45;&gt;Node10</title>
<path fill="none" stroke="#9a32cd" stroke-dasharray="5,2" d="M989.778,-157.974C1013.43,-165.446 1043.83,-175.805 1070,-187.128 1087.5,-194.7 1106.66,-205.117 1119.81,-212.614"/>
<polygon fill="#9a32cd" stroke="#9a32cd" points="990.674,-154.587 980.085,-154.953 988.591,-161.27 990.674,-154.587"/>
<text text-anchor="middle" x="1034" y="-190.128" font-family="Helvetica,sans-Serif" font-size="10.00"> m_gamePlay</text>
</g>
<!-- Node11 -->
<g id="node11" class="node"><title>Node11</title>
<g id="a_node11"><a xlink:href="class_game_play_paused.html" target="_top" xlink:title="GamePlayPaused">
<polygon fill="white" stroke="red" points="1089.5,-119.628 1089.5,-138.628 1184.5,-138.628 1184.5,-119.628 1089.5,-119.628"/>
<text text-anchor="middle" x="1137" y="-126.628" font-family="Helvetica,sans-Serif" font-size="10.00">GamePlayPaused</text>
</a>
</g>
</g>
<!-- Node3&#45;&gt;Node11 -->
<g id="edge18" class="edge"><title>Node3&#45;&gt;Node11</title>
<path fill="none" stroke="#9a32cd" stroke-dasharray="5,2" d="M966.939,-129.685C975.515,-122.499 986.527,-114.867 998,-111.128 1036.36,-98.6269 1083.4,-110.096 1111.47,-119.581"/>
<polygon fill="#9a32cd" stroke="#9a32cd" points="964.37,-127.287 959.248,-136.561 969.036,-132.505 964.37,-127.287"/>
<text text-anchor="middle" x="1034" y="-114.128" font-family="Helvetica,sans-Serif" font-size="10.00"> m_gamePlay</text>
</g>
<!-- Node4 -->
<g id="node4" class="node"><title>Node4</title>
<g id="a_node4"><a xlink:href="class_game_state.html" target="_top" xlink:title="GameState">
<polygon fill="white" stroke="red" points="715,-204.628 715,-223.628 781,-223.628 781,-204.628 715,-204.628"/>
<text text-anchor="middle" x="748" y="-211.628" font-family="Helvetica,sans-Serif" font-size="10.00">GameState</text>
</a>
</g>
</g>
<!-- Node4&#45;&gt;Node3 -->
<g id="edge3" class="edge"><title>Node4&#45;&gt;Node3</title>
<path fill="none" stroke="midnightblue" d="M786.982,-201.15C825.841,-187.871 885.305,-167.552 920.053,-155.678"/>
<polygon fill="midnightblue" stroke="midnightblue" points="785.421,-197.984 777.09,-204.53 787.684,-204.608 785.421,-197.984"/>
</g>
<!-- Node4&#45;&gt;Node4 -->
<g id="edge4" class="edge"><title>Node4&#45;&gt;Node4</title>
<path fill="none" stroke="#9a32cd" stroke-dasharray="5,2" d="M724.935,-233.158C726.193,-238.256 733.881,-242.128 748,-242.128 770.039,-242.128 776.41,-232.694 767.112,-223.885"/>
<polygon fill="#9a32cd" stroke="#9a32cd" points="728.185,-234.457 728.888,-223.885 721.746,-231.712 728.185,-234.457"/>
<text text-anchor="middle" x="748" y="-245.128" font-family="Helvetica,sans-Serif" font-size="10.00"> m_parentGameState</text>
</g>
<!-- Node4&#45;&gt;Node5 -->
<g id="edge6" class="edge"><title>Node4&#45;&gt;Node5</title>
<path fill="none" stroke="midnightblue" d="M772.858,-228.892C815.896,-254.559 910.233,-306.452 998,-325.128 1038.88,-333.828 1087.94,-326.082 1115.18,-320.227"/>
<polygon fill="midnightblue" stroke="midnightblue" points="774.605,-225.859 764.235,-223.689 770.989,-231.852 774.605,-225.859"/>
</g>
<!-- Node4&#45;&gt;Node10 -->
<g id="edge14" class="edge"><title>Node4&#45;&gt;Node10</title>
<path fill="none" stroke="midnightblue" d="M791.494,-220.884C852.999,-229.729 970.379,-243.111 1070,-234.128 1076.38,-233.553 1083.06,-232.671 1089.63,-231.641"/>
<polygon fill="midnightblue" stroke="midnightblue" points="791.798,-217.391 781.395,-219.4 790.78,-224.317 791.798,-217.391"/>
</g>
<!-- Node4&#45;&gt;Node11 -->
<g id="edge17" class="edge"><title>Node4&#45;&gt;Node11</title>
<path fill="none" stroke="midnightblue" d="M790.959,-205.735C821.284,-199.615 863.213,-191.042 900,-183.128 968.827,-168.322 1048.62,-149.773 1095.56,-138.718"/>
<polygon fill="midnightblue" stroke="midnightblue" points="790.256,-202.306 781.144,-207.712 791.639,-209.168 790.256,-202.306"/>
</g>
<!-- Node5&#45;&gt;Node3 -->
<g id="edge5" class="edge"><title>Node5&#45;&gt;Node3</title>
<path fill="none" stroke="#9a32cd" stroke-dasharray="5,2" d="M1106.98,-300.93C1071.65,-283.234 1014.61,-253.241 998,-236.128 974.445,-211.856 959.319,-173.704 953.156,-155.894"/>
<polygon fill="#9a32cd" stroke="#9a32cd" points="1105.81,-304.256 1116.32,-305.574 1108.93,-297.988 1105.81,-304.256"/>
<text text-anchor="middle" x="1034" y="-283.128" font-family="Helvetica,sans-Serif" font-size="10.00"> m_game</text>
</g>
<!-- Node6&#45;&gt;Node3 -->
<g id="edge8" class="edge"><title>Node6&#45;&gt;Node3</title>
<path fill="none" stroke="#9a32cd" stroke-dasharray="5,2" d="M826.363,-119.186C850.135,-122.07 876.279,-125.972 900,-131.128 906.655,-132.575 913.71,-134.532 920.304,-136.555"/>
<polygon fill="#9a32cd" stroke="#9a32cd" points="826.674,-115.698 816.335,-118.011 825.859,-122.651 826.674,-115.698"/>
<text text-anchor="middle" x="873" y="-134.128" font-family="Helvetica,sans-Serif" font-size="10.00"> m_scene</text>
</g>
<!-- Node7 -->
<g id="node7" class="node"><title>Node7</title>
<polygon fill="white" stroke="#bfbfbf" points="668,-146.628 668,-165.628 828,-165.628 828,-146.628 668,-146.628"/>
<text text-anchor="middle" x="748" y="-153.628" font-family="Helvetica,sans-Serif" font-size="10.00">std::unique_ptr&lt; BaseScenario &gt;</text>
</g>
<!-- Node7&#45;&gt;Node3 -->
<g id="edge10" class="edge"><title>Node7&#45;&gt;Node3</title>
<path fill="none" stroke="#9a32cd" stroke-dasharray="5,2" d="M838.255,-147.565C840.865,-147.405 843.451,-147.259 846,-147.128 870.053,-145.897 897.337,-145.692 917.63,-145.77"/>
<polygon fill="#9a32cd" stroke="#9a32cd" points="837.846,-144.085 828.102,-148.245 838.314,-151.069 837.846,-144.085"/>
<text text-anchor="middle" x="873" y="-150.128" font-family="Helvetica,sans-Serif" font-size="10.00"> m_scenario</text>
</g>
<!-- Node8 -->
<g id="node8" class="node"><title>Node8</title>
<polygon fill="white" stroke="#bfbfbf" points="522.5,-3.62844 522.5,-22.6284 649.5,-22.6284 649.5,-3.62844 522.5,-3.62844"/>
<text text-anchor="middle" x="586" y="-10.6284" font-family="Helvetica,sans-Serif" font-size="10.00">std::unique_ptr&lt; Player &gt;</text>
</g>
<!-- Node8&#45;&gt;Node3 -->
<g id="edge11" class="edge"><title>Node8&#45;&gt;Node3</title>
<path fill="none" stroke="#9a32cd" stroke-dasharray="5,2" d="M657.767,-2.5918C727.039,3.62545 831.822,1.57351 900,-53.1284 927.635,-75.3012 941.02,-117.655 945.83,-136.581"/>
<polygon fill="#9a32cd" stroke="#9a32cd" points="657,0.849917 647.389,-3.60866 657.683,-6.11672 657,0.849917"/>
<text text-anchor="middle" x="748" y="-19.1284" font-family="Helvetica,sans-Serif" font-size="10.00"> m_player</text>
</g>
<!-- Node9 -->
<g id="node9" class="node"><title>Node9</title>
<g id="a_node9"><a xlink:href="class_player.html" target="_top" xlink:title="Player">
<polygon fill="white" stroke="red" points="194,-12.6284 194,-31.6284 238,-31.6284 238,-12.6284 194,-12.6284"/>
<text text-anchor="middle" x="216" y="-19.6284" font-family="Helvetica,sans-Serif" font-size="10.00">Player</text>
</a>
</g>
</g>
<!-- Node9&#45;&gt;Node1 -->
<g id="edge24" class="edge"><title>Node9&#45;&gt;Node1</title>
<path fill="none" stroke="#9a32cd" stroke-dasharray="5,2" d="M248.238,-27.2341C284.834,-33.9474 346.728,-47.6085 396,-70.1284 414.919,-78.7756 434.408,-93.02 446.364,-102.487"/>
<polygon fill="#9a32cd" stroke="#9a32cd" points="248.634,-23.7498 238.176,-25.4472 247.41,-30.6419 248.634,-23.7498"/>
<text text-anchor="middle" x="356" y="-73.1284" font-family="Helvetica,sans-Serif" font-size="10.00"> m_player</text>
</g>
<!-- Node9&#45;&gt;Node8 -->
<g id="edge12" class="edge"><title>Node9&#45;&gt;Node8</title>
<path fill="none" stroke="#9a32cd" stroke-dasharray="5,2" d="M248.173,-21.366C308.644,-19.8872 442.901,-16.6037 522.444,-14.6583"/>
<polygon fill="#9a32cd" stroke="#9a32cd" points="248.018,-17.8687 238.107,-21.6122 248.19,-24.8666 248.018,-17.8687"/>
<text text-anchor="middle" x="356" y="-23.1284" font-family="Helvetica,sans-Serif" font-size="10.00"> ptr</text>
</g>
<!-- Node10&#45;&gt;Node3 -->
<g id="edge13" class="edge"><title>Node10&#45;&gt;Node3</title>
<path fill="none" stroke="#9a32cd" stroke-dasharray="5,2" d="M1077.73,-221.56C1051.98,-219.174 1022.14,-213.35 998,-200.128 978.858,-189.643 963.562,-168.465 955.728,-155.973"/>
<polygon fill="#9a32cd" stroke="#9a32cd" points="1077.51,-225.053 1087.75,-222.338 1078.05,-218.074 1077.51,-225.053"/>
<text text-anchor="middle" x="1034" y="-224.128" font-family="Helvetica,sans-Serif" font-size="10.00"> m_runningState</text>
</g>
<!-- Node11&#45;&gt;Node3 -->
<g id="edge16" class="edge"><title>Node11&#45;&gt;Node3</title>
<path fill="none" stroke="#9a32cd" stroke-dasharray="5,2" d="M1079.3,-125.551C1054.23,-124.993 1024.49,-125.732 998,-130.128 990.028,-131.452 981.586,-133.89 974.043,-136.472"/>
<polygon fill="#9a32cd" stroke="#9a32cd" points="1079.27,-129.052 1089.37,-125.85 1079.48,-122.055 1079.27,-129.052"/>
<text text-anchor="middle" x="1034" y="-133.128" font-family="Helvetica,sans-Serif" font-size="10.00"> m_pausedState</text>
</g>
<!-- Node12 -->
<g id="node12" class="node"><title>Node12</title>
<polygon fill="white" stroke="#bfbfbf" points="134,-101.628 134,-120.628 298,-120.628 298,-101.628 134,-101.628"/>
<text text-anchor="middle" x="216" y="-108.628" font-family="Helvetica,sans-Serif" font-size="10.00">std::unique_ptr&lt; RenderPipeline &gt;</text>
</g>
<!-- Node12&#45;&gt;Node1 -->
<g id="edge19" class="edge"><title>Node12&#45;&gt;Node1</title>
<path fill="none" stroke="#9a32cd" stroke-dasharray="5,2" d="M308.348,-111.507C344.523,-111.658 384.427,-111.823 413.926,-111.946"/>
<polygon fill="#9a32cd" stroke="#9a32cd" points="308.27,-108.007 298.256,-111.466 308.241,-115.007 308.27,-108.007"/>
<text text-anchor="middle" x="356" y="-115.128" font-family="Helvetica,sans-Serif" font-size="10.00"> m_renderPipeline</text>
</g>
<!-- Node13 -->
<g id="node13" class="node"><title>Node13</title>
<g id="a_node13"><a xlink:href="class_render_pipeline.html" target="_top" xlink:title="RenderPipeline">
<polygon fill="white" stroke="red" points="0,-101.628 0,-120.628 82,-120.628 82,-101.628 0,-101.628"/>
<text text-anchor="middle" x="41" y="-108.628" font-family="Helvetica,sans-Serif" font-size="10.00">RenderPipeline</text>
</a>
</g>
</g>
<!-- Node13&#45;&gt;Node12 -->
<g id="edge20" class="edge"><title>Node13&#45;&gt;Node12</title>
<path fill="none" stroke="#9a32cd" stroke-dasharray="5,2" d="M92.2609,-111.128C105.295,-111.128 119.669,-111.128 133.85,-111.128"/>
<polygon fill="#9a32cd" stroke="#9a32cd" points="92.1245,-107.629 82.1245,-111.128 92.1245,-114.629 92.1245,-107.629"/>
<text text-anchor="middle" x="108" y="-114.128" font-family="Helvetica,sans-Serif" font-size="10.00"> ptr</text>
</g>
<!-- Node14 -->
<g id="node14" class="node"><title>Node14</title>
<g id="a_node14"><a xlink:href="class_property.html" target="_top" xlink:title="Property\&lt; glm::vec3 \&gt;">
<polygon fill="white" stroke="red" points="159.5,-63.6284 159.5,-82.6284 272.5,-82.6284 272.5,-63.6284 159.5,-63.6284"/>
<text text-anchor="middle" x="216" y="-70.6284" font-family="Helvetica,sans-Serif" font-size="10.00">Property&lt; glm::vec3 &gt;</text>
</a>
</g>
</g>
<!-- Node14&#45;&gt;Node1 -->
<g id="edge21" class="edge"><title>Node14&#45;&gt;Node1</title>
<path fill="none" stroke="#9a32cd" stroke-dasharray="5,2" d="M283.12,-80.3273C317.008,-84.438 358.855,-90.1645 396,-97.1284 404.272,-98.6794 413.097,-100.631 421.418,-102.61"/>
<polygon fill="#9a32cd" stroke="#9a32cd" points="283.217,-76.8141 272.873,-79.1039 282.387,-83.7648 283.217,-76.8141"/>
<text text-anchor="middle" x="356" y="-100.128" font-family="Helvetica,sans-Serif" font-size="10.00"> m_defaultLightDir</text>
</g>
<!-- Node15 -->
<g id="node15" class="node"><title>Node15</title>
<polygon fill="white" stroke="#bfbfbf" points="140,-215.628 140,-234.628 292,-234.628 292,-215.628 140,-215.628"/>
<text text-anchor="middle" x="216" y="-222.628" font-family="Helvetica,sans-Serif" font-size="10.00">std::unique_ptr&lt; FrameBuffer &gt;</text>
</g>
<!-- Node15&#45;&gt;Node1 -->
<g id="edge22" class="edge"><title>Node15&#45;&gt;Node1</title>
<path fill="none" stroke="#9a32cd" stroke-dasharray="5,2" d="M298.527,-213.501C330.572,-206.391 366.638,-195.064 396,-177.128 419.955,-162.495 440.875,-136.305 451.185,-122.044"/>
<polygon fill="#9a32cd" stroke="#9a32cd" points="297.782,-210.081 288.722,-215.575 299.23,-216.93 297.782,-210.081"/>
<text text-anchor="middle" x="356" y="-212.128" font-family="Helvetica,sans-Serif" font-size="10.00"> m_framebuffer</text>
</g>
<!-- Node16 -->
<g id="node16" class="node"><title>Node16</title>
<g id="a_node16"><a xlink:href="class_frame_buffer.html" target="_top" xlink:title="FrameBuffer">
<polygon fill="white" stroke="red" points="6.5,-215.628 6.5,-234.628 75.5,-234.628 75.5,-215.628 6.5,-215.628"/>
<text text-anchor="middle" x="41" y="-222.628" font-family="Helvetica,sans-Serif" font-size="10.00">FrameBuffer</text>
</a>
</g>
</g>
<!-- Node16&#45;&gt;Node15 -->
<g id="edge23" class="edge"><title>Node16&#45;&gt;Node15</title>
<path fill="none" stroke="#9a32cd" stroke-dasharray="5,2" d="M86.0834,-225.128C102.424,-225.128 121.449,-225.128 139.786,-225.128"/>
<polygon fill="#9a32cd" stroke="#9a32cd" points="85.7669,-221.629 75.7668,-225.128 85.7668,-228.629 85.7669,-221.629"/>
<text text-anchor="middle" x="108" y="-228.128" font-family="Helvetica,sans-Serif" font-size="10.00"> ptr</text>
</g>
<!-- Node17 -->
<g id="node17" class="node"><title>Node17</title>
<polygon fill="white" stroke="#bfbfbf" points="153.5,-139.628 153.5,-158.628 278.5,-158.628 278.5,-139.628 153.5,-139.628"/>
<text text-anchor="middle" x="216" y="-146.628" font-family="Helvetica,sans-Serif" font-size="10.00">std::unique_ptr&lt; Blitter &gt;</text>
</g>
<!-- Node17&#45;&gt;Node1 -->
<g id="edge25" class="edge"><title>Node17&#45;&gt;Node1</title>
<path fill="none" stroke="#9a32cd" stroke-dasharray="5,2" d="M288.837,-140.72C321.605,-136.57 360.853,-131.161 396,-125.128 401.962,-124.105 408.224,-122.922 414.381,-121.694"/>
<polygon fill="#9a32cd" stroke="#9a32cd" points="288.375,-137.25 278.887,-141.966 289.245,-144.196 288.375,-137.25"/>
<text text-anchor="middle" x="356" y="-140.128" font-family="Helvetica,sans-Serif" font-size="10.00"> m_outputBlitter</text>
</g>
<!-- Node18 -->
<g id="node18" class="node"><title>Node18</title>
<g id="a_node18"><a xlink:href="class_blitter.html" target="_top" xlink:title="Blitter">
<polygon fill="white" stroke="red" points="20,-139.628 20,-158.628 62,-158.628 62,-139.628 20,-139.628"/>
<text text-anchor="middle" x="41" y="-146.628" font-family="Helvetica,sans-Serif" font-size="10.00">Blitter</text>
</a>
</g>
</g>
<!-- Node18&#45;&gt;Node17 -->
<g id="edge26" class="edge"><title>Node18&#45;&gt;Node17</title>
<path fill="none" stroke="#9a32cd" stroke-dasharray="5,2" d="M72.4004,-149.128C94.7626,-149.128 125.922,-149.128 153.411,-149.128"/>
<polygon fill="#9a32cd" stroke="#9a32cd" points="72.1839,-145.629 62.1839,-149.128 72.1838,-152.629 72.1839,-145.629"/>
<text text-anchor="middle" x="108" y="-152.128" font-family="Helvetica,sans-Serif" font-size="10.00"> ptr</text>
</g>
</g>
</svg>
        <g id="navigator" transform="translate(0 0)" fill="#404254">
                <rect fill="#f2f5e9" fill-opacity="0.5" stroke="#606060" stroke-width=".5" x="0" y="0" width="60" height="60"/>
                <use id="zoomplus" xlink:href="#zoomPlus" x="17" y="9" onmousedown="handleZoom(evt,'in')"/>
                <use id="zoomminus" xlink:href="#zoomMin" x="42" y="9" onmousedown="handleZoom(evt,'out')"/>
                <use id="reset" xlink:href="#resetDef" x="30" y="36" onmousedown="handleReset()"/>
                <g id="arrowUp" xlink:href="#dirArrow" transform="translate(30 24)" onmousedown="handlePan(0,-1)">
                  <use xlink:href="#rim" fill="#404040">
                        <set attributeName="fill" to="#808080" begin="arrowUp.mouseover" end="arrowUp.mouseout"/>
                  </use>
                  <path fill="none" stroke="white" stroke-width="1.5" d="M0,-3.0v7 M-2.5,-0.5L0,-3.0L2.5,-0.5"/>
                </g>
                <g id="arrowRight" xlink:href="#dirArrow" transform="rotate(90) translate(36 -43)" onmousedown="handlePan(1,0)">
                  <use xlink:href="#rim" fill="#404040">
                        <set attributeName="fill" to="#808080" begin="arrowRight.mouseover" end="arrowRight.mouseout"/>
                  </use>
                  <path fill="none" stroke="white" stroke-width="1.5" d="M0,-3.0v7 M-2.5,-0.5L0,-3.0L2.5,-0.5"/>
                </g>
                <g id="arrowDown" xlink:href="#dirArrow" transform="rotate(180) translate(-30 -48)" onmousedown="handlePan(0,1)">
                  <use xlink:href="#rim" fill="#404040">
                        <set attributeName="fill" to="#808080" begin="arrowDown.mouseover" end="arrowDown.mouseout"/>
                  </use>
                  <path fill="none" stroke="white" stroke-width="1.5" d="M0,-3.0v7 M-2.5,-0.5L0,-3.0L2.5,-0.5"/>
                </g>
                <g id="arrowLeft" xlink:href="#dirArrow" transform="rotate(270) translate(-36 17)" onmousedown="handlePan(-1,0)">
                  <use xlink:href="#rim" fill="#404040">
                        <set attributeName="fill" to="#808080" begin="arrowLeft.mouseover" end="arrowLeft.mouseout"/>
                  </use>
                  <path fill="none" stroke="white" stroke-width="1.5" d="M0,-3.0v7 M-2.5,-0.5L0,-3.0L2.5,-0.5"/>
                </g>
        </g>
        <svg viewBox="0 0 15 15" width="100%" height="30px" preserveAspectRatio="xMaxYMin meet">
         <g id="arrow_out" transform="scale(0.3 0.3)">
          <a xlink:href="class_game_play_scene__coll__graph_org.svg" target="_base">
           <rect id="button" ry="5" rx="5" y="6" x="6" height="38" width="38"
                fill="#f2f5e9" fill-opacity="0.5" stroke="#606060" stroke-width="1.0"/>
           <path id="arrow"
             d="M 11.500037,31.436501 C 11.940474,20.09759 22.043105,11.32322 32.158766,21.979434 L 37.068811,17.246167 C 37.068811,17.246167 37.088388,32 37.088388,32 L 22.160133,31.978069 C 22.160133,31.978069 26.997745,27.140456 26.997745,27.140456 C 18.528582,18.264221 13.291696,25.230495 11.500037,31.436501 z"
             style="fill:#404040;"/>
          </a>
         </g>
        </svg>
</svg>
