<?xml version="1.0" encoding="UTF-8" standalone="no"?>
<!DOCTYPE svg PUBLIC "-//W3C//DTD SVG 1.1//EN"
 "http://www.w3.org/Graphics/SVG/1.1/DTD/svg11.dtd">
<!-- Generated by graphviz version 2.36.0 (20140111.2315)
 -->
<!-- Title: AiBindings Pages: 1 -->
<svg width="184pt" height="154pt"
 viewBox="0.00 0.00 184.00 154.00" xmlns="http://www.w3.org/2000/svg" xmlns:xlink="http://www.w3.org/1999/xlink">
<g id="graph0" class="graph" transform="scale(1 1) rotate(0) translate(4 150)">
<title>AiBindings</title>
<polygon fill="white" stroke="none" points="-4,4 -4,-150 180,-150 180,4 -4,4"/>
<!-- Node1 -->
<g id="node1" class="node"><title>Node1</title>
<polygon fill="#bfbfbf" stroke="black" points="46.5,-0.5 46.5,-19.5 109.5,-19.5 109.5,-0.5 46.5,-0.5"/>
<text text-anchor="middle" x="78" y="-7.5" font-family="Helvetica,sans-Serif" font-size="10.00">AiBindings</text>
</g>
<!-- Node2 -->
<g id="node2" class="node"><title>Node2</title>
<g id="a_node2"><a xlink:href="class_bindings.html" target="_top" xlink:title="Bindings">
<polygon fill="white" stroke="black" points="51,-58.5 51,-77.5 105,-77.5 105,-58.5 51,-58.5"/>
<text text-anchor="middle" x="78" y="-65.5" font-family="Helvetica,sans-Serif" font-size="10.00">Bindings</text>
</a>
</g>
</g>
<!-- Node2&#45;&gt;Node1 -->
<g id="edge1" class="edge"><title>Node2&#45;&gt;Node1</title>
<path fill="none" stroke="midnightblue" d="M78,-47.953C78,-38.2875 78,-27.0312 78,-19.5052"/>
<polygon fill="midnightblue" stroke="midnightblue" points="74.5001,-48.25 78,-58.25 81.5001,-48.25 74.5001,-48.25"/>
</g>
<!-- Node3 -->
<g id="node3" class="node"><title>Node3</title>
<g id="a_node3"><a xlink:href="class_lua_wrapper.html" target="_top" xlink:title="LuaWrapper">
<polygon fill="white" stroke="red" points="-0.5,-126.5 -0.5,-145.5 68.5,-145.5 68.5,-126.5 -0.5,-126.5"/>
<text text-anchor="middle" x="34" y="-133.5" font-family="Helvetica,sans-Serif" font-size="10.00">LuaWrapper</text>
</a>
</g>
</g>
<!-- Node3&#45;&gt;Node2 -->
<g id="edge2" class="edge"><title>Node3&#45;&gt;Node2</title>
<path fill="none" stroke="#9a32cd" stroke-dasharray="5,2" d="M45.3748,-117.938C53.9254,-105.112 65.2939,-88.0591 72.1059,-77.8411"/>
<polygon fill="#9a32cd" stroke="#9a32cd" points="42.3871,-116.11 39.7522,-126.372 48.2115,-119.993 42.3871,-116.11"/>
<text text-anchor="middle" x="75" y="-99.5" font-family="Helvetica,sans-Serif" font-size="10.00"> m_lua</text>
</g>
<!-- Node4 -->
<g id="node4" class="node"><title>Node4</title>
<g id="a_node4"><a xlink:href="class_script_engine.html" target="_top" xlink:title="ScriptEngine">
<polygon fill="white" stroke="red" points="87,-126.5 87,-145.5 159,-145.5 159,-126.5 87,-126.5"/>
<text text-anchor="middle" x="123" y="-133.5" font-family="Helvetica,sans-Serif" font-size="10.00">ScriptEngine</text>
</a>
</g>
</g>
<!-- Node4&#45;&gt;Node2 -->
<g id="edge3" class="edge"><title>Node4&#45;&gt;Node2</title>
<path fill="none" stroke="#9a32cd" stroke-dasharray="5,2" d="M111.367,-117.938C102.622,-105.112 90.9949,-88.0591 84.028,-77.8411"/>
<polygon fill="#9a32cd" stroke="#9a32cd" points="108.592,-120.081 117.117,-126.372 114.375,-116.138 108.592,-120.081"/>
<text text-anchor="middle" x="140.5" y="-99.5" font-family="Helvetica,sans-Serif" font-size="10.00"> m_scriptEngine</text>
</g>
</g>
</svg>
