<?xml version="1.0" encoding="UTF-8" standalone="no"?>
<!DOCTYPE svg PUBLIC "-//W3C//DTD SVG 1.1//EN"
 "http://www.w3.org/Graphics/SVG/1.1/DTD/svg11.dtd">
<!-- Generated by graphviz version 2.36.0 (20140111.2315)
 -->
<!-- Title: Gun Pages: 1 -->
<svg width="159pt" height="154pt"
 viewBox="0.00 0.00 159.00 154.00" xmlns="http://www.w3.org/2000/svg" xmlns:xlink="http://www.w3.org/1999/xlink">
<g id="graph0" class="graph" transform="scale(1 1) rotate(0) translate(4 150)">
<title>Gun</title>
<polygon fill="white" stroke="none" points="-4,4 -4,-150 155,-150 155,4 -4,4"/>
<!-- Node1 -->
<g id="node1" class="node"><title>Node1</title>
<polygon fill="#bfbfbf" stroke="black" points="52.5,-0.5 52.5,-19.5 87.5,-19.5 87.5,-0.5 52.5,-0.5"/>
<text text-anchor="middle" x="70" y="-7.5" font-family="Helvetica,sans-Serif" font-size="10.00">Gun</text>
</g>
<!-- Node2 -->
<g id="node2" class="node"><title>Node2</title>
<g id="a_node2"><a xlink:href="class_weapon.html" target="_top" xlink:title="Weapon">
<polygon fill="white" stroke="black" points="43.5,-58.5 43.5,-77.5 96.5,-77.5 96.5,-58.5 43.5,-58.5"/>
<text text-anchor="middle" x="70" y="-65.5" font-family="Helvetica,sans-Serif" font-size="10.00">Weapon</text>
</a>
</g>
</g>
<!-- Node2&#45;&gt;Node1 -->
<g id="edge1" class="edge"><title>Node2&#45;&gt;Node1</title>
<path fill="none" stroke="midnightblue" d="M70,-47.953C70,-38.2875 70,-27.0312 70,-19.5052"/>
<polygon fill="midnightblue" stroke="midnightblue" points="66.5001,-48.25 70,-58.25 73.5001,-48.25 66.5001,-48.25"/>
</g>
<!-- Node3 -->
<g id="node3" class="node"><title>Node3</title>
<g id="a_node3"><a xlink:href="class_equipment.html" target="_top" xlink:title="Equipment">
<polygon fill="white" stroke="red" points="-0.5,-126.5 -0.5,-145.5 62.5,-145.5 62.5,-126.5 -0.5,-126.5"/>
<text text-anchor="middle" x="31" y="-133.5" font-family="Helvetica,sans-Serif" font-size="10.00">Equipment</text>
</a>
</g>
</g>
<!-- Node3&#45;&gt;Node2 -->
<g id="edge2" class="edge"><title>Node3&#45;&gt;Node2</title>
<path fill="none" stroke="midnightblue" d="M41.3037,-117.563C48.8564,-104.781 58.7964,-87.9599 64.7757,-77.8411"/>
<polygon fill="midnightblue" stroke="midnightblue" points="38.1727,-115.982 36.0986,-126.372 44.1992,-119.543 38.1727,-115.982"/>
</g>
<!-- Node4 -->
<g id="node4" class="node"><title>Node4</title>
<g id="a_node4"><a xlink:href="class_hardpoint.html" target="_top" xlink:title="Hardpoint">
<polygon fill="white" stroke="red" points="81,-126.5 81,-145.5 139,-145.5 139,-126.5 81,-126.5"/>
<text text-anchor="middle" x="110" y="-133.5" font-family="Helvetica,sans-Serif" font-size="10.00">Hardpoint</text>
</a>
</g>
</g>
<!-- Node4&#45;&gt;Node2 -->
<g id="edge3" class="edge"><title>Node4&#45;&gt;Node2</title>
<path fill="none" stroke="#9a32cd" stroke-dasharray="5,2" d="M99.4321,-117.563C91.6857,-104.781 81.4909,-87.9599 75.3583,-77.8411"/>
<polygon fill="#9a32cd" stroke="#9a32cd" points="96.5944,-119.634 104.771,-126.372 102.581,-116.006 96.5944,-119.634"/>
<text text-anchor="middle" x="122.5" y="-99.5" font-family="Helvetica,sans-Serif" font-size="10.00"> m_hardpoint</text>
</g>
</g>
</svg>
