<?xml version="1.0" encoding="UTF-8" standalone="no"?>
<!DOCTYPE svg PUBLIC "-//W3C//DTD SVG 1.1//EN"
 "http://www.w3.org/Graphics/SVG/1.1/DTD/svg11.dtd">
<!-- Generated by graphviz version 2.36.0 (20140111.2315)
 -->
<!-- Title: WorldObjectModification Pages: 1 -->
<svg width="644pt" height="365pt"
 viewBox="0.00 0.00 644.00 365.00" xmlns="http://www.w3.org/2000/svg" xmlns:xlink="http://www.w3.org/1999/xlink">
<g id="graph0" class="graph" transform="scale(1 1) rotate(0) translate(4 361)">
<title>WorldObjectModification</title>
<polygon fill="white" stroke="none" points="-4,4 -4,-361 640,-361 640,4 -4,4"/>
<!-- Node1 -->
<g id="node1" class="node"><title>Node1</title>
<polygon fill="#bfbfbf" stroke="black" points="514,-165.5 514,-184.5 636,-184.5 636,-165.5 514,-165.5"/>
<text text-anchor="middle" x="575" y="-172.5" font-family="Helvetica,sans-Serif" font-size="10.00">WorldObjectModification</text>
</g>
<!-- Node2 -->
<g id="node2" class="node"><title>Node2</title>
<g id="a_node2"><a xlink:href="class_world_object.html" target="_top" xlink:title="WorldObject">
<polygon fill="white" stroke="black" points="296.5,-185.5 296.5,-204.5 367.5,-204.5 367.5,-185.5 296.5,-185.5"/>
<text text-anchor="middle" x="332" y="-192.5" font-family="Helvetica,sans-Serif" font-size="10.00">WorldObject</text>
</a>
</g>
</g>
<!-- Node2&#45;&gt;Node1 -->
<g id="edge1" class="edge"><title>Node2&#45;&gt;Node1</title>
<path fill="none" stroke="#9a32cd" stroke-dasharray="5,2" d="M377.867,-191.277C416.221,-188.094 471.736,-183.487 513.921,-179.986"/>
<polygon fill="#9a32cd" stroke="#9a32cd" points="377.206,-187.819 367.529,-192.134 377.785,-194.795 377.206,-187.819"/>
<text text-anchor="middle" x="454" y="-191" font-family="Helvetica,sans-Serif" font-size="10.00"> m_worldObject</text>
</g>
<!-- Node3 -->
<g id="node3" class="node"><title>Node3</title>
<g id="a_node3"><a xlink:href="class_voxel_cluster.html" target="_top" xlink:title="VoxelCluster">
<polygon fill="white" stroke="red" points="36,-337.5 36,-356.5 108,-356.5 108,-337.5 36,-337.5"/>
<text text-anchor="middle" x="72" y="-344.5" font-family="Helvetica,sans-Serif" font-size="10.00">VoxelCluster</text>
</a>
</g>
</g>
<!-- Node3&#45;&gt;Node2 -->
<g id="edge2" class="edge"><title>Node3&#45;&gt;Node2</title>
<path fill="none" stroke="midnightblue" d="M118.511,-344.422C156.919,-340.342 211.899,-329.858 252,-303 290.603,-277.145 317.107,-225.77 326.855,-204.531"/>
<polygon fill="midnightblue" stroke="midnightblue" points="117.766,-340.978 108.144,-345.412 118.431,-347.946 117.766,-340.978"/>
</g>
<!-- Node4 -->
<g id="node4" class="node"><title>Node4</title>
<g id="a_node4"><a xlink:href="class_scriptable.html" target="_top" xlink:title="Scriptable">
<polygon fill="white" stroke="black" points="42,-299.5 42,-318.5 102,-318.5 102,-299.5 42,-299.5"/>
<text text-anchor="middle" x="72" y="-306.5" font-family="Helvetica,sans-Serif" font-size="10.00">Scriptable</text>
</a>
</g>
</g>
<!-- Node4&#45;&gt;Node2 -->
<g id="edge3" class="edge"><title>Node4&#45;&gt;Node2</title>
<path fill="none" stroke="midnightblue" d="M112.126,-308.208C149.95,-305.962 207.858,-298.528 252,-275 284.728,-257.556 312.392,-221.938 324.481,-204.732"/>
<polygon fill="midnightblue" stroke="midnightblue" points="111.831,-304.718 102.018,-308.713 112.18,-311.709 111.831,-304.718"/>
</g>
<!-- Node5 -->
<g id="node5" class="node"><title>Node5</title>
<g id="a_node5"><a xlink:href="class_voxel.html" target="_top" xlink:title="Voxel">
<polygon fill="white" stroke="red" points="51.5,-261.5 51.5,-280.5 92.5,-280.5 92.5,-261.5 51.5,-261.5"/>
<text text-anchor="middle" x="72" y="-268.5" font-family="Helvetica,sans-Serif" font-size="10.00">Voxel</text>
</a>
</g>
</g>
<!-- Node5&#45;&gt;Node2 -->
<g id="edge4" class="edge"><title>Node5&#45;&gt;Node2</title>
<path fill="none" stroke="#9a32cd" stroke-dasharray="5,2" d="M102.936,-268.396C139.1,-264.594 201.385,-255.926 252,-238 275.993,-229.503 301.46,-214.393 316.797,-204.537"/>
<polygon fill="#9a32cd" stroke="#9a32cd" points="102.198,-264.952 92.5931,-269.425 102.89,-271.918 102.198,-264.952"/>
<text text-anchor="middle" x="207" y="-263" font-family="Helvetica,sans-Serif" font-size="10.00"> m_crucialVoxel</text>
</g>
<!-- Node6 -->
<g id="node6" class="node"><title>Node6</title>
<polygon fill="white" stroke="#bfbfbf" points="0.5,-223.5 0.5,-242.5 143.5,-242.5 143.5,-223.5 0.5,-223.5"/>
<text text-anchor="middle" x="72" y="-230.5" font-family="Helvetica,sans-Serif" font-size="10.00">std::unique_ptr&lt; ObjectInfo &gt;</text>
</g>
<!-- Node6&#45;&gt;Node2 -->
<g id="edge5" class="edge"><title>Node6&#45;&gt;Node2</title>
<path fill="none" stroke="#9a32cd" stroke-dasharray="5,2" d="M153.948,-223.641C184.708,-219.811 220.03,-215.084 252,-210 266.614,-207.676 282.67,-204.705 296.469,-202.021"/>
<polygon fill="#9a32cd" stroke="#9a32cd" points="153.2,-220.207 143.703,-224.904 154.056,-227.154 153.2,-220.207"/>
<text text-anchor="middle" x="207" y="-226" font-family="Helvetica,sans-Serif" font-size="10.00"> m_objectInfo</text>
</g>
<!-- Node7 -->
<g id="node7" class="node"><title>Node7</title>
<g id="a_node7"><a xlink:href="class_handle.html" target="_top" xlink:title="Handle\&lt; WorldObject \&gt;">
<polygon fill="white" stroke="black" points="12.5,-185.5 12.5,-204.5 131.5,-204.5 131.5,-185.5 12.5,-185.5"/>
<text text-anchor="middle" x="72" y="-192.5" font-family="Helvetica,sans-Serif" font-size="10.00">Handle&lt; WorldObject &gt;</text>
</a>
</g>
</g>
<!-- Node7&#45;&gt;Node2 -->
<g id="edge6" class="edge"><title>Node7&#45;&gt;Node2</title>
<path fill="none" stroke="#9a32cd" stroke-dasharray="5,2" d="M141.625,-195C191.537,-195 257.02,-195 296.452,-195"/>
<polygon fill="#9a32cd" stroke="#9a32cd" points="141.544,-191.5 131.544,-195 141.544,-198.5 141.544,-191.5"/>
<text text-anchor="middle" x="207" y="-198" font-family="Helvetica,sans-Serif" font-size="10.00"> m_handle</text>
</g>
<!-- Node8 -->
<g id="node8" class="node"><title>Node8</title>
<polygon fill="white" stroke="#bfbfbf" points="5,-147.5 5,-166.5 139,-166.5 139,-147.5 5,-147.5"/>
<text text-anchor="middle" x="72" y="-154.5" font-family="Helvetica,sans-Serif" font-size="10.00">std::unique_ptr&lt; Physics &gt;</text>
</g>
<!-- Node8&#45;&gt;Node2 -->
<g id="edge7" class="edge"><title>Node8&#45;&gt;Node2</title>
<path fill="none" stroke="#9a32cd" stroke-dasharray="5,2" d="M149.153,-165.765C180.999,-169.695 218.355,-174.649 252,-180 266.614,-182.324 282.67,-185.295 296.469,-187.979"/>
<polygon fill="#9a32cd" stroke="#9a32cd" points="149.37,-162.265 139.019,-164.526 148.521,-169.214 149.37,-162.265"/>
<text text-anchor="middle" x="207" y="-183" font-family="Helvetica,sans-Serif" font-size="10.00"> m_physics</text>
</g>
<!-- Node9 -->
<g id="node9" class="node"><title>Node9</title>
<polygon fill="white" stroke="#bfbfbf" points="8.5,-98 8.5,-128 135.5,-128 135.5,-98 8.5,-98"/>
<text text-anchor="start" x="16.5" y="-116" font-family="Helvetica,sans-Serif" font-size="10.00">std::unique_ptr&lt; Collision</text>
<text text-anchor="middle" x="72" y="-105" font-family="Helvetica,sans-Serif" font-size="10.00">Filter &gt;</text>
</g>
<!-- Node9&#45;&gt;Node2 -->
<g id="edge8" class="edge"><title>Node9&#45;&gt;Node2</title>
<path fill="none" stroke="#9a32cd" stroke-dasharray="5,2" d="M145.789,-117.924C180.123,-122.971 220.39,-133.036 252,-153 262.975,-159.931 259.319,-168.624 270,-176 277.85,-181.42 287.309,-185.343 296.411,-188.163"/>
<polygon fill="#9a32cd" stroke="#9a32cd" points="146.188,-114.446 135.809,-116.571 145.248,-121.382 146.188,-114.446"/>
<text text-anchor="middle" x="207" y="-156" font-family="Helvetica,sans-Serif" font-size="10.00"> m_collisionFilter</text>
</g>
<!-- Node10 -->
<g id="node10" class="node"><title>Node10</title>
<polygon fill="white" stroke="#bfbfbf" points="8.5,-49 8.5,-79 135.5,-79 135.5,-49 8.5,-49"/>
<text text-anchor="start" x="16.5" y="-67" font-family="Helvetica,sans-Serif" font-size="10.00">std::unique_ptr&lt; Collision</text>
<text text-anchor="middle" x="72" y="-56" font-family="Helvetica,sans-Serif" font-size="10.00">Detector &gt;</text>
</g>
<!-- Node10&#45;&gt;Node2 -->
<g id="edge9" class="edge"><title>Node10&#45;&gt;Node2</title>
<path fill="none" stroke="#9a32cd" stroke-dasharray="5,2" d="M145.891,-64.0802C182.196,-67.9364 224.166,-78.7509 252,-106 274.954,-128.472 247.863,-152.722 270,-176 276.956,-183.315 286.674,-187.83 296.312,-190.611"/>
<polygon fill="#9a32cd" stroke="#9a32cd" points="146.092,-60.5842 135.818,-63.1692 145.462,-67.5558 146.092,-60.5842"/>
<text text-anchor="middle" x="207" y="-109" font-family="Helvetica,sans-Serif" font-size="10.00"> m_collisionDetector</text>
</g>
<!-- Node11 -->
<g id="node11" class="node"><title>Node11</title>
<polygon fill="white" stroke="#bfbfbf" points="0,-0 0,-30 144,-30 144,-0 0,-0"/>
<text text-anchor="start" x="8" y="-18" font-family="Helvetica,sans-Serif" font-size="10.00">std::unique_ptr&lt; WorldObject</text>
<text text-anchor="middle" x="72" y="-7" font-family="Helvetica,sans-Serif" font-size="10.00">Components &gt;</text>
</g>
<!-- Node11&#45;&gt;Node2 -->
<g id="edge10" class="edge"><title>Node11&#45;&gt;Node2</title>
<path fill="none" stroke="#9a32cd" stroke-dasharray="5,2" d="M154.439,-12.2373C189.139,-15.492 227.244,-25.7211 252,-52 290.186,-92.5352 233.848,-133.641 270,-176 276.697,-183.846 286.578,-188.5 296.447,-191.244"/>
<polygon fill="#9a32cd" stroke="#9a32cd" points="154.515,-8.73309 144.279,-11.4686 153.986,-15.7131 154.515,-8.73309"/>
<text text-anchor="middle" x="207" y="-55" font-family="Helvetica,sans-Serif" font-size="10.00"> m_components</text>
</g>
<!-- Node12 -->
<g id="node12" class="node"><title>Node12</title>
<polygon fill="white" stroke="#bfbfbf" points="270.5,-147.5 270.5,-166.5 393.5,-166.5 393.5,-147.5 270.5,-147.5"/>
<text text-anchor="middle" x="332" y="-154.5" font-family="Helvetica,sans-Serif" font-size="10.00">std::vector&lt; glm::ivec3 &gt;</text>
</g>
<!-- Node12&#45;&gt;Node1 -->
<g id="edge11" class="edge"><title>Node12&#45;&gt;Node1</title>
<path fill="none" stroke="#9a32cd" stroke-dasharray="5,2" d="M403.866,-155.665C432.54,-155.812 465.915,-156.854 496,-160 507.658,-161.219 520.173,-163.282 531.691,-165.495"/>
<polygon fill="#9a32cd" stroke="#9a32cd" points="403.535,-152.165 393.53,-155.65 403.525,-159.165 403.535,-152.165"/>
<text text-anchor="middle" x="454" y="-163" font-family="Helvetica,sans-Serif" font-size="10.00"> m_removedVoxels</text>
</g>
</g>
</svg>
