<?xml version="1.0" encoding="UTF-8" standalone="no"?>
<!DOCTYPE svg PUBLIC "-//W3C//DTD SVG 1.1//EN"
 "http://www.w3.org/Graphics/SVG/1.1/DTD/svg11.dtd">
<!-- Generated by graphviz version 2.36.0 (20140111.2315)
 -->
<!-- Title: AiBindings Pages: 1 -->
<svg width="290pt" height="222pt"
 viewBox="0.00 0.00 290.00 222.00" xmlns="http://www.w3.org/2000/svg" xmlns:xlink="http://www.w3.org/1999/xlink">
<g id="graph0" class="graph" transform="scale(1 1) rotate(0) translate(4 218)">
<title>AiBindings</title>
<polygon fill="white" stroke="none" points="-4,4 -4,-218 286,-218 286,4 -4,4"/>
<!-- Node1 -->
<g id="node1" class="node"><title>Node1</title>
<polygon fill="#bfbfbf" stroke="black" points="73.5,-0.5 73.5,-19.5 136.5,-19.5 136.5,-0.5 73.5,-0.5"/>
<text text-anchor="middle" x="105" y="-7.5" font-family="Helvetica,sans-Serif" font-size="10.00">AiBindings</text>
</g>
<!-- Node2 -->
<g id="node2" class="node"><title>Node2</title>
<g id="a_node2"><a xlink:href="class_bindings.html" target="_top" xlink:title="Bindings">
<polygon fill="white" stroke="black" points="78,-58.5 78,-77.5 132,-77.5 132,-58.5 78,-58.5"/>
<text text-anchor="middle" x="105" y="-65.5" font-family="Helvetica,sans-Serif" font-size="10.00">Bindings</text>
</a>
</g>
</g>
<!-- Node2&#45;&gt;Node1 -->
<g id="edge1" class="edge"><title>Node2&#45;&gt;Node1</title>
<path fill="none" stroke="midnightblue" d="M105,-47.953C105,-38.2875 105,-27.0312 105,-19.5052"/>
<polygon fill="midnightblue" stroke="midnightblue" points="101.5,-48.25 105,-58.25 108.5,-48.25 101.5,-48.25"/>
</g>
<!-- Node3 -->
<g id="node3" class="node"><title>Node3</title>
<g id="a_node3"><a xlink:href="class_lua_wrapper.html" target="_top" xlink:title="LuaWrapper">
<polygon fill="white" stroke="red" points="-0.5,-126.5 -0.5,-145.5 68.5,-145.5 68.5,-126.5 -0.5,-126.5"/>
<text text-anchor="middle" x="34" y="-133.5" font-family="Helvetica,sans-Serif" font-size="10.00">LuaWrapper</text>
</a>
</g>
</g>
<!-- Node3&#45;&gt;Node2 -->
<g id="edge2" class="edge"><title>Node3&#45;&gt;Node2</title>
<path fill="none" stroke="#9a32cd" stroke-dasharray="5,2" d="M43.9087,-117.489C48.5101,-110.303 54.4204,-102.226 61,-96 68.8117,-88.6077 78.9679,-82.2131 87.5542,-77.5051"/>
<polygon fill="#9a32cd" stroke="#9a32cd" points="40.6563,-116.107 38.5055,-126.481 46.6563,-119.712 40.6563,-116.107"/>
<text text-anchor="middle" x="76" y="-99.5" font-family="Helvetica,sans-Serif" font-size="10.00"> m_lua</text>
</g>
<!-- Node4 -->
<g id="node4" class="node"><title>Node4</title>
<g id="a_node4"><a xlink:href="class_script_engine.html" target="_top" xlink:title="ScriptEngine">
<polygon fill="white" stroke="red" points="110,-194.5 110,-213.5 182,-213.5 182,-194.5 110,-194.5"/>
<text text-anchor="middle" x="146" y="-201.5" font-family="Helvetica,sans-Serif" font-size="10.00">ScriptEngine</text>
</a>
</g>
</g>
<!-- Node4&#45;&gt;Node2 -->
<g id="edge3" class="edge"><title>Node4&#45;&gt;Node2</title>
<path fill="none" stroke="#9a32cd" stroke-dasharray="5,2" d="M133.924,-185.736C126.924,-174.842 118.608,-160.192 114,-146 106.269,-122.19 105.021,-92.331 104.917,-77.7823"/>
<polygon fill="#9a32cd" stroke="#9a32cd" points="131.14,-187.87 139.61,-194.236 136.959,-183.979 131.14,-187.87"/>
<text text-anchor="middle" x="149.5" y="-133.5" font-family="Helvetica,sans-Serif" font-size="10.00"> m_scriptEngine</text>
</g>
<!-- Node5 -->
<g id="node5" class="node"><title>Node5</title>
<g id="a_node5"><a xlink:href="class_game_play_script.html" target="_top" xlink:title="GamePlayScript">
<polygon fill="white" stroke="red" points="194,-126.5 194,-145.5 282,-145.5 282,-126.5 194,-126.5"/>
<text text-anchor="middle" x="238" y="-133.5" font-family="Helvetica,sans-Serif" font-size="10.00">GamePlayScript</text>
</a>
</g>
</g>
<!-- Node4&#45;&gt;Node5 -->
<g id="edge5" class="edge"><title>Node4&#45;&gt;Node5</title>
<path fill="none" stroke="#9a32cd" stroke-dasharray="5,2" d="M166.275,-188.455C184.552,-175.343 210.816,-156.502 225.97,-145.63"/>
<polygon fill="#9a32cd" stroke="#9a32cd" points="164.113,-185.699 158.027,-194.372 168.193,-191.386 164.113,-185.699"/>
<text text-anchor="middle" x="236.5" y="-167.5" font-family="Helvetica,sans-Serif" font-size="10.00"> m_scriptEngine</text>
</g>
<!-- Node5&#45;&gt;Node2 -->
<g id="edge4" class="edge"><title>Node5&#45;&gt;Node2</title>
<path fill="none" stroke="#9a32cd" stroke-dasharray="5,2" d="M211.525,-121.862C185.05,-108.724 145.095,-88.8969 122.392,-77.6305"/>
<polygon fill="#9a32cd" stroke="#9a32cd" points="210.099,-125.062 220.613,-126.372 213.211,-118.791 210.099,-125.062"/>
<text text-anchor="middle" x="204.5" y="-99.5" font-family="Helvetica,sans-Serif" font-size="10.00"> m_script</text>
</g>
</g>
</svg>
