<?xml version="1.0" encoding="UTF-8" standalone="no"?>
<!DOCTYPE svg PUBLIC "-//W3C//DTD SVG 1.1//EN"
 "http://www.w3.org/Graphics/SVG/1.1/DTD/svg11.dtd">
<!-- Generated by graphviz version 2.36.0 (20140111.2315)
 -->
<!-- Title: ActionKeyMapping Pages: 1 -->
<svg width="221pt" height="244pt"
 viewBox="0.00 0.00 221.00 244.00" xmlns="http://www.w3.org/2000/svg" xmlns:xlink="http://www.w3.org/1999/xlink">
<g id="graph0" class="graph" transform="scale(1 1) rotate(0) translate(4 240)">
<title>ActionKeyMapping</title>
<polygon fill="white" stroke="none" points="-4,4 -4,-240 217,-240 217,4 -4,4"/>
<!-- Node1 -->
<g id="node1" class="node"><title>Node1</title>
<polygon fill="#bfbfbf" stroke="black" points="70,-0.5 70,-19.5 168,-19.5 168,-0.5 70,-0.5"/>
<text text-anchor="middle" x="119" y="-7.5" font-family="Helvetica,sans-Serif" font-size="10.00">ActionKeyMapping</text>
</g>
<!-- Node2 -->
<g id="node2" class="node"><title>Node2</title>
<g id="a_node2"><a xlink:title="STL class. ">
<polygon fill="white" stroke="#bfbfbf" points="128,-146.5 128,-165.5 188,-165.5 188,-146.5 128,-146.5"/>
<text text-anchor="middle" x="158" y="-153.5" font-family="Helvetica,sans-Serif" font-size="10.00">std::string</text>
</a>
</g>
</g>
<!-- Node2&#45;&gt;Node1 -->
<g id="edge1" class="edge"><title>Node2&#45;&gt;Node1</title>
<path fill="none" stroke="#9a32cd" stroke-dasharray="5,2" d="M163.809,-136.718C170.366,-112.509 178.056,-69.2408 161,-38 156.597,-29.9351 148.639,-23.9199 140.826,-19.6396"/>
<polygon fill="#9a32cd" stroke="#9a32cd" points="160.429,-135.806 160.97,-146.387 167.145,-137.779 160.429,-135.806"/>
<text text-anchor="middle" x="192.5" y="-85.5" font-family="Helvetica,sans-Serif" font-size="10.00"> m_name</text>
</g>
<!-- Node4 -->
<g id="node4" class="node"><title>Node4</title>
<g id="a_node4"><a xlink:href="class_property.html" target="_top" xlink:title="Property\&lt; InputMapping \&gt;">
<polygon fill="white" stroke="black" points="-0.5,-78.5 -0.5,-97.5 128.5,-97.5 128.5,-78.5 -0.5,-78.5"/>
<text text-anchor="middle" x="64" y="-85.5" font-family="Helvetica,sans-Serif" font-size="10.00">Property&lt; InputMapping &gt;</text>
</a>
</g>
</g>
<!-- Node2&#45;&gt;Node4 -->
<g id="edge4" class="edge"><title>Node2&#45;&gt;Node4</title>
<path fill="none" stroke="#9a32cd" stroke-dasharray="5,2" d="M137.285,-140.455C118.61,-127.343 91.775,-108.502 76.2919,-97.6305"/>
<polygon fill="#9a32cd" stroke="#9a32cd" points="135.516,-143.49 145.711,-146.372 139.538,-137.761 135.516,-143.49"/>
<text text-anchor="middle" x="140.5" y="-119.5" font-family="Helvetica,sans-Serif" font-size="10.00"> m_name</text>
</g>
<!-- Node3 -->
<g id="node3" class="node"><title>Node3</title>
<g id="a_node3"><a xlink:title="STL class. ">
<polygon fill="white" stroke="#bfbfbf" points="110.5,-205 110.5,-235 205.5,-235 205.5,-205 110.5,-205"/>
<text text-anchor="start" x="118.5" y="-223" font-family="Helvetica,sans-Serif" font-size="10.00">std::basic_string&lt;</text>
<text text-anchor="middle" x="158" y="-212" font-family="Helvetica,sans-Serif" font-size="10.00"> char &gt;</text>
</a>
</g>
</g>
<!-- Node3&#45;&gt;Node2 -->
<g id="edge2" class="edge"><title>Node3&#45;&gt;Node2</title>
<path fill="none" stroke="midnightblue" d="M158,-194.871C158,-184.663 158,-173.408 158,-165.842"/>
<polygon fill="midnightblue" stroke="midnightblue" points="154.5,-194.931 158,-204.931 161.5,-194.931 154.5,-194.931"/>
</g>
<!-- Node4&#45;&gt;Node1 -->
<g id="edge3" class="edge"><title>Node4&#45;&gt;Node1</title>
<path fill="none" stroke="#9a32cd" stroke-dasharray="5,2" d="M60.0139,-68.3504C58.9543,-58.6011 59.3839,-46.8832 65,-38 70.3211,-29.5835 79.1293,-23.6954 88.1038,-19.6183"/>
<polygon fill="#9a32cd" stroke="#9a32cd" points="56.5681,-68.9664 61.6457,-78.2652 63.4751,-67.8295 56.5681,-68.9664"/>
<text text-anchor="middle" x="113" y="-52" font-family="Helvetica,sans-Serif" font-size="10.00"> m_primaryMapping</text>
<text text-anchor="middle" x="113" y="-41" font-family="Helvetica,sans-Serif" font-size="10.00">m_secondaryMapping</text>
</g>
<!-- Node5 -->
<g id="node5" class="node"><title>Node5</title>
<g id="a_node5"><a xlink:href="class_input_mapping.html" target="_top" xlink:title="InputMapping">
<polygon fill="white" stroke="black" points="20,-146.5 20,-165.5 94,-165.5 94,-146.5 20,-146.5"/>
<text text-anchor="middle" x="57" y="-153.5" font-family="Helvetica,sans-Serif" font-size="10.00">InputMapping</text>
</a>
</g>
</g>
<!-- Node5&#45;&gt;Node4 -->
<g id="edge5" class="edge"><title>Node5&#45;&gt;Node4</title>
<path fill="none" stroke="#9a32cd" stroke-dasharray="5,2" d="M56.7543,-135.952C56.8673,-129.588 57.2057,-122.47 58,-116 58.7489,-109.899 60.2489,-103.149 61.5617,-97.9246"/>
<polygon fill="#9a32cd" stroke="#9a32cd" points="53.254,-136.287 56.7445,-146.29 60.254,-136.294 53.254,-136.287"/>
<text text-anchor="middle" x="77.5" y="-119.5" font-family="Helvetica,sans-Serif" font-size="10.00"> m_value</text>
</g>
</g>
</svg>
