<?xml version="1.0" encoding="UTF-8" standalone="no"?>
<!DOCTYPE svg PUBLIC "-//W3C//DTD SVG 1.1//EN"
 "http://www.w3.org/Graphics/SVG/1.1/DTD/svg11.dtd">
<!-- Generated by graphviz version 2.36.0 (20140111.2315)
 -->
<!-- Title: CrossHairVoxels Pages: 1 -->
<svg width="316pt" height="312pt"
 viewBox="0.00 0.00 316.00 312.00" xmlns="http://www.w3.org/2000/svg" xmlns:xlink="http://www.w3.org/1999/xlink">
<g id="graph0" class="graph" transform="scale(1 1) rotate(0) translate(4 308)">
<title>CrossHairVoxels</title>
<polygon fill="white" stroke="none" points="-4,4 -4,-308 312,-308 312,4 -4,4"/>
<!-- Node1 -->
<g id="node1" class="node"><title>Node1</title>
<polygon fill="#bfbfbf" stroke="black" points="163.5,-148.5 163.5,-167.5 252.5,-167.5 252.5,-148.5 163.5,-148.5"/>
<text text-anchor="middle" x="208" y="-155.5" font-family="Helvetica,sans-Serif" font-size="10.00">CrossHairVoxels</text>
</g>
<!-- Node4 -->
<g id="node4" class="node"><title>Node4</title>
<polygon fill="white" stroke="#bfbfbf" points="64.5,-69 64.5,-99 197.5,-99 197.5,-69 64.5,-69"/>
<text text-anchor="start" x="72.5" y="-87" font-family="Helvetica,sans-Serif" font-size="10.00">std::unique_ptr&lt; CrossHair</text>
<text text-anchor="middle" x="131" y="-76" font-family="Helvetica,sans-Serif" font-size="10.00">Voxels &gt;</text>
</g>
<!-- Node1&#45;&gt;Node4 -->
<g id="edge4" class="edge"><title>Node1&#45;&gt;Node4</title>
<path fill="none" stroke="#9a32cd" stroke-dasharray="5,2" d="M191.293,-141.378C177.885,-128.841 159.218,-111.386 146.22,-99.2316"/>
<polygon fill="#9a32cd" stroke="#9a32cd" points="189.17,-144.184 198.865,-148.458 193.951,-139.071 189.17,-144.184"/>
<text text-anchor="middle" x="186.5" y="-121.5" font-family="Helvetica,sans-Serif" font-size="10.00"> ptr</text>
</g>
<!-- Node2 -->
<g id="node2" class="node"><title>Node2</title>
<g id="a_node2"><a xlink:href="class_cross_hair.html" target="_top" xlink:title="CrossHair">
<polygon fill="white" stroke="black" points="101.5,-0.5 101.5,-19.5 160.5,-19.5 160.5,-0.5 101.5,-0.5"/>
<text text-anchor="middle" x="131" y="-7.5" font-family="Helvetica,sans-Serif" font-size="10.00">CrossHair</text>
</a>
</g>
</g>
<!-- Node2&#45;&gt;Node1 -->
<g id="edge1" class="edge"><title>Node2&#45;&gt;Node1</title>
<path fill="none" stroke="#9a32cd" stroke-dasharray="5,2" d="M161.617,-24.3011C178.711,-33.6745 198.113,-48.1185 206,-68 216.942,-95.5832 212.596,-131.854 209.739,-148.266"/>
<polygon fill="#9a32cd" stroke="#9a32cd" points="162.943,-21.0481 152.446,-19.613 159.757,-27.281 162.943,-21.0481"/>
<text text-anchor="middle" x="241" y="-81.5" font-family="Helvetica,sans-Serif" font-size="10.00"> m_crossHair</text>
</g>
<!-- Node3 -->
<g id="node3" class="node"><title>Node3</title>
<g id="a_node3"><a xlink:href="class_hudget.html" target="_top" xlink:title="Hudget">
<polygon fill="white" stroke="red" points="-0.5,-74.5 -0.5,-93.5 46.5,-93.5 46.5,-74.5 -0.5,-74.5"/>
<text text-anchor="middle" x="23" y="-81.5" font-family="Helvetica,sans-Serif" font-size="10.00">Hudget</text>
</a>
</g>
</g>
<!-- Node3&#45;&gt;Node2 -->
<g id="edge2" class="edge"><title>Node3&#45;&gt;Node2</title>
<path fill="none" stroke="midnightblue" d="M44.1747,-68.8835C66.1931,-54.2046 99.9444,-31.7037 118.204,-19.531"/>
<polygon fill="midnightblue" stroke="midnightblue" points="42.1922,-65.9987 35.8131,-74.4579 46.0751,-71.8231 42.1922,-65.9987"/>
</g>
<!-- Node4&#45;&gt;Node2 -->
<g id="edge3" class="edge"><title>Node4&#45;&gt;Node2</title>
<path fill="none" stroke="#9a32cd" stroke-dasharray="5,2" d="M131,-58.6883C131,-45.2526 131,-29.3805 131,-19.7589"/>
<polygon fill="#9a32cd" stroke="#9a32cd" points="127.5,-58.7751 131,-68.7751 134.5,-58.7752 127.5,-58.7751"/>
<text text-anchor="middle" x="153" y="-41.5" font-family="Helvetica,sans-Serif" font-size="10.00"> m_voxels</text>
</g>
<!-- Node5 -->
<g id="node5" class="node"><title>Node5</title>
<polygon fill="white" stroke="#bfbfbf" points="132,-216.5 132,-235.5 284,-235.5 284,-216.5 132,-216.5"/>
<text text-anchor="middle" x="208" y="-223.5" font-family="Helvetica,sans-Serif" font-size="10.00">std::list&lt; CrossHairElement * &gt;</text>
</g>
<!-- Node5&#45;&gt;Node1 -->
<g id="edge5" class="edge"><title>Node5&#45;&gt;Node1</title>
<path fill="none" stroke="#9a32cd" stroke-dasharray="5,2" d="M208,-206.041C208,-193.472 208,-177.563 208,-167.841"/>
<polygon fill="#9a32cd" stroke="#9a32cd" points="204.5,-206.372 208,-216.372 211.5,-206.372 204.5,-206.372"/>
<text text-anchor="middle" x="258" y="-189.5" font-family="Helvetica,sans-Serif" font-size="10.00"> m_crossHairElements</text>
</g>
<!-- Node6 -->
<g id="node6" class="node"><title>Node6</title>
<g id="a_node6"><a xlink:href="class_cross_hair_element.html" target="_top" xlink:title="CrossHairElement">
<polygon fill="white" stroke="red" points="160.5,-284.5 160.5,-303.5 255.5,-303.5 255.5,-284.5 160.5,-284.5"/>
<text text-anchor="middle" x="208" y="-291.5" font-family="Helvetica,sans-Serif" font-size="10.00">CrossHairElement</text>
</a>
</g>
</g>
<!-- Node6&#45;&gt;Node5 -->
<g id="edge6" class="edge"><title>Node6&#45;&gt;Node5</title>
<path fill="none" stroke="#9a32cd" stroke-dasharray="5,2" d="M208,-274.041C208,-261.472 208,-245.563 208,-235.841"/>
<polygon fill="#9a32cd" stroke="#9a32cd" points="204.5,-274.372 208,-284.372 211.5,-274.372 204.5,-274.372"/>
<text text-anchor="middle" x="229.5" y="-257.5" font-family="Helvetica,sans-Serif" font-size="10.00"> elements</text>
</g>
</g>
</svg>
