<?xml version="1.0" encoding="UTF-8" standalone="no"?>
<!DOCTYPE svg PUBLIC "-//W3C//DTD SVG 1.1//EN"
 "http://www.w3.org/Graphics/SVG/1.1/DTD/svg11.dtd">
<!-- Generated by graphviz version 2.36.0 (20140111.2315)
 -->
<!-- Title: WorldTreeGeode Pages: 1 -->
<svg width="1264pt" height="365pt"
 viewBox="0.00 0.00 1264.00 365.00" xmlns="http://www.w3.org/2000/svg" xmlns:xlink="http://www.w3.org/1999/xlink">
<g id="graph0" class="graph" transform="scale(1 1) rotate(0) translate(4 361)">
<title>WorldTreeGeode</title>
<polygon fill="white" stroke="none" points="-4,4 -4,-361 1260,-361 1260,4 -4,4"/>
<!-- Node1 -->
<g id="node1" class="node"><title>Node1</title>
<polygon fill="#bfbfbf" stroke="black" points="452.5,-185.5 452.5,-204.5 541.5,-204.5 541.5,-185.5 452.5,-185.5"/>
<text text-anchor="middle" x="497" y="-192.5" font-family="Helvetica,sans-Serif" font-size="10.00">WorldTreeGeode</text>
</g>
<!-- Node5 -->
<g id="node5" class="node"><title>Node5</title>
<polygon fill="white" stroke="#bfbfbf" points="622,-220.5 622,-239.5 768,-239.5 768,-220.5 622,-220.5"/>
<text text-anchor="middle" x="695" y="-227.5" font-family="Helvetica,sans-Serif" font-size="10.00">std::list&lt; WorldTreeGeode * &gt;</text>
</g>
<!-- Node1&#45;&gt;Node5 -->
<g id="edge8" class="edge"><title>Node1&#45;&gt;Node5</title>
<path fill="none" stroke="#9a32cd" stroke-dasharray="5,2" d="M551.891,-204.623C579.562,-209.565 613.162,-215.565 640.742,-220.49"/>
<polygon fill="#9a32cd" stroke="#9a32cd" points="552.446,-201.167 541.986,-202.855 551.215,-208.058 552.446,-201.167"/>
<text text-anchor="middle" x="582" y="-217" font-family="Helvetica,sans-Serif" font-size="10.00"> elements</text>
</g>
<!-- Node2 -->
<g id="node2" class="node"><title>Node2</title>
<g id="a_node2"><a xlink:href="class_world_tree_node.html" target="_top" xlink:title="WorldTreeNode">
<polygon fill="white" stroke="black" points="896.5,-220.5 896.5,-239.5 979.5,-239.5 979.5,-220.5 896.5,-220.5"/>
<text text-anchor="middle" x="938" y="-227.5" font-family="Helvetica,sans-Serif" font-size="10.00">WorldTreeNode</text>
</a>
</g>
</g>
<!-- Node2&#45;&gt;Node1 -->
<g id="edge1" class="edge"><title>Node2&#45;&gt;Node1</title>
<path fill="none" stroke="#9a32cd" stroke-dasharray="5,2" d="M886.283,-218.848C852.868,-212.033 808.048,-203.901 768,-200 688.441,-192.25 595.091,-192.606 541.611,-193.707"/>
<polygon fill="#9a32cd" stroke="#9a32cd" points="885.767,-222.315 896.269,-220.914 887.185,-215.46 885.767,-222.315"/>
<text text-anchor="middle" x="695" y="-203" font-family="Helvetica,sans-Serif" font-size="10.00"> m_containingNode</text>
</g>
<!-- Node2&#45;&gt;Node2 -->
<g id="edge2" class="edge"><title>Node2&#45;&gt;Node2</title>
<path fill="none" stroke="#9a32cd" stroke-dasharray="5,2" d="M919.112,-249.4C920.373,-254.315 926.669,-258 938,-258 956.129,-258 961.369,-248.565 953.721,-239.757"/>
<polygon fill="#9a32cd" stroke="#9a32cd" points="922.484,-250.35 922.279,-239.757 915.833,-248.166 922.484,-250.35"/>
<text text-anchor="middle" x="938" y="-261" font-family="Helvetica,sans-Serif" font-size="10.00"> m_parent</text>
</g>
<!-- Node3 -->
<g id="node3" class="node"><title>Node3</title>
<polygon fill="white" stroke="#bfbfbf" points="1109,-168.5 1109,-187.5 1249,-187.5 1249,-168.5 1109,-168.5"/>
<text text-anchor="middle" x="1179" y="-175.5" font-family="Helvetica,sans-Serif" font-size="10.00">std::list&lt; WorldTreeNode * &gt;</text>
</g>
<!-- Node2&#45;&gt;Node3 -->
<g id="edge4" class="edge"><title>Node2&#45;&gt;Node3</title>
<path fill="none" stroke="#9a32cd" stroke-dasharray="5,2" d="M989.478,-219.017C1032.31,-209.698 1093.14,-196.463 1134.01,-187.571"/>
<polygon fill="#9a32cd" stroke="#9a32cd" points="988.57,-215.633 979.543,-221.179 990.059,-222.473 988.57,-215.633"/>
<text text-anchor="middle" x="1041" y="-220" font-family="Helvetica,sans-Serif" font-size="10.00"> elements</text>
</g>
<!-- Node4 -->
<g id="node4" class="node"><title>Node4</title>
<polygon fill="white" stroke="#bfbfbf" points="1102.5,-253.5 1102.5,-272.5 1255.5,-272.5 1255.5,-253.5 1102.5,-253.5"/>
<text text-anchor="middle" x="1179" y="-260.5" font-family="Helvetica,sans-Serif" font-size="10.00">std::vector&lt; WorldTreeNode * &gt;</text>
</g>
<!-- Node2&#45;&gt;Node4 -->
<g id="edge6" class="edge"><title>Node2&#45;&gt;Node4</title>
<path fill="none" stroke="#9a32cd" stroke-dasharray="5,2" d="M990.039,-234.198C1017.88,-236.76 1052.92,-240.425 1084,-245 1099.78,-247.323 1116.95,-250.435 1132.24,-253.417"/>
<polygon fill="#9a32cd" stroke="#9a32cd" points="990.017,-230.682 979.743,-233.27 989.388,-237.653 990.017,-230.682"/>
<text text-anchor="middle" x="1041" y="-248" font-family="Helvetica,sans-Serif" font-size="10.00"> elements</text>
</g>
<!-- Node3&#45;&gt;Node1 -->
<g id="edge10" class="edge"><title>Node3&#45;&gt;Node1</title>
<path fill="none" stroke="#9a32cd" stroke-dasharray="5,2" d="M1117.41,-166.89C1106.33,-165.27 1094.85,-163.86 1084,-163 1045.9,-159.979 1036.2,-161.824 998,-163 829.115,-168.2 628.646,-183.933 541.761,-191.22"/>
<polygon fill="#9a32cd" stroke="#9a32cd" points="1117.03,-170.372 1127.44,-168.427 1118.09,-163.452 1117.03,-170.372"/>
<text text-anchor="middle" x="832" y="-177" font-family="Helvetica,sans-Serif" font-size="10.00"> m_intersectingLeafs</text>
</g>
<!-- Node3&#45;&gt;Node2 -->
<g id="edge3" class="edge"><title>Node3&#45;&gt;Node2</title>
<path fill="none" stroke="#9a32cd" stroke-dasharray="5,2" d="M1111.37,-167.548C1076.54,-164.738 1033.81,-165.553 998,-179 975.945,-187.281 956.614,-207.866 946.494,-220.203"/>
<polygon fill="#9a32cd" stroke="#9a32cd" points="1111.16,-171.044 1121.44,-168.478 1111.8,-164.073 1111.16,-171.044"/>
<text text-anchor="middle" x="1041" y="-182" font-family="Helvetica,sans-Serif" font-size="10.00"> m_activeSubnodes</text>
</g>
<!-- Node4&#45;&gt;Node2 -->
<g id="edge5" class="edge"><title>Node4&#45;&gt;Node2</title>
<path fill="none" stroke="#9a32cd" stroke-dasharray="5,2" d="M1092.15,-267.813C1062.02,-267.616 1028.18,-265.24 998,-258 982.565,-254.297 966.366,-246.27 954.856,-239.756"/>
<polygon fill="#9a32cd" stroke="#9a32cd" points="1092.22,-271.313 1102.21,-267.8 1092.21,-264.313 1092.22,-271.313"/>
<text text-anchor="middle" x="1041" y="-271" font-family="Helvetica,sans-Serif" font-size="10.00"> m_subnodes</text>
</g>
<!-- Node5&#45;&gt;Node2 -->
<g id="edge7" class="edge"><title>Node5&#45;&gt;Node2</title>
<path fill="none" stroke="#9a32cd" stroke-dasharray="5,2" d="M778.533,-230C818.27,-230 864.144,-230 896.275,-230"/>
<polygon fill="#9a32cd" stroke="#9a32cd" points="778.308,-226.5 768.308,-230 778.308,-233.5 778.308,-226.5"/>
<text text-anchor="middle" x="832" y="-244" font-family="Helvetica,sans-Serif" font-size="10.00"> m_passiveGeodes</text>
<text text-anchor="middle" x="832" y="-233" font-family="Helvetica,sans-Serif" font-size="10.00">m_normalGeodes</text>
</g>
<!-- Node6 -->
<g id="node6" class="node"><title>Node6</title>
<g id="a_node6"><a xlink:href="class_t_a_a_b_b.html" target="_top" xlink:title="TAABB\&lt; int \&gt;">
<polygon fill="white" stroke="red" points="270.5,-237.5 270.5,-256.5 347.5,-256.5 347.5,-237.5 270.5,-237.5"/>
<text text-anchor="middle" x="309" y="-244.5" font-family="Helvetica,sans-Serif" font-size="10.00">TAABB&lt; int &gt;</text>
</a>
</g>
</g>
<!-- Node6&#45;&gt;Node1 -->
<g id="edge21" class="edge"><title>Node6&#45;&gt;Node1</title>
<path fill="none" stroke="#9a32cd" stroke-dasharray="5,2" d="M353.952,-234.712C386.931,-225.493 431.437,-213.05 461.787,-204.565"/>
<polygon fill="#9a32cd" stroke="#9a32cd" points="352.804,-231.399 344.115,-237.462 354.688,-238.141 352.804,-231.399"/>
<text text-anchor="middle" x="400" y="-234" font-family="Helvetica,sans-Serif" font-size="10.00"> m_aabb</text>
</g>
<!-- Node6&#45;&gt;Node2 -->
<g id="edge9" class="edge"><title>Node6&#45;&gt;Node2</title>
<path fill="none" stroke="#9a32cd" stroke-dasharray="5,2" d="M357.842,-247.936C443.631,-249.563 629.31,-252.848 786,-254 826.888,-254.301 837.872,-261.849 878,-254 892.217,-251.219 907.333,-245 918.705,-239.589"/>
<polygon fill="#9a32cd" stroke="#9a32cd" points="357.704,-244.433 347.639,-247.742 357.57,-251.432 357.704,-244.433"/>
<text text-anchor="middle" x="582" y="-255" font-family="Helvetica,sans-Serif" font-size="10.00"> m_aabb</text>
</g>
<!-- Node7 -->
<g id="node7" class="node"><title>Node7</title>
<g id="a_node7"><a xlink:href="class_world_object.html" target="_top" xlink:title="WorldObject">
<polygon fill="white" stroke="black" points="273.5,-185.5 273.5,-204.5 344.5,-204.5 344.5,-185.5 273.5,-185.5"/>
<text text-anchor="middle" x="309" y="-192.5" font-family="Helvetica,sans-Serif" font-size="10.00">WorldObject</text>
</a>
</g>
</g>
<!-- Node7&#45;&gt;Node1 -->
<g id="edge11" class="edge"><title>Node7&#45;&gt;Node1</title>
<path fill="none" stroke="#9a32cd" stroke-dasharray="5,2" d="M354.629,-195C384.282,-195 423.027,-195 452.455,-195"/>
<polygon fill="#9a32cd" stroke="#9a32cd" points="354.549,-191.5 344.549,-195 354.549,-198.5 354.549,-191.5"/>
<text text-anchor="middle" x="400" y="-198" font-family="Helvetica,sans-Serif" font-size="10.00"> m_worldObject</text>
</g>
<!-- Node8 -->
<g id="node8" class="node"><title>Node8</title>
<g id="a_node8"><a xlink:href="class_voxel_cluster.html" target="_top" xlink:title="VoxelCluster">
<polygon fill="white" stroke="red" points="36,-337.5 36,-356.5 108,-356.5 108,-337.5 36,-337.5"/>
<text text-anchor="middle" x="72" y="-344.5" font-family="Helvetica,sans-Serif" font-size="10.00">VoxelCluster</text>
</a>
</g>
</g>
<!-- Node8&#45;&gt;Node7 -->
<g id="edge12" class="edge"><title>Node8&#45;&gt;Node7</title>
<path fill="none" stroke="midnightblue" d="M118.26,-350.105C158.77,-350.275 217.014,-343.655 252,-309 278.2,-283.047 251.129,-259.684 270,-228 275.634,-218.541 284.927,-210.399 292.913,-204.569"/>
<polygon fill="midnightblue" stroke="midnightblue" points="118.173,-346.603 108.111,-349.92 118.046,-353.601 118.173,-346.603"/>
</g>
<!-- Node9 -->
<g id="node9" class="node"><title>Node9</title>
<g id="a_node9"><a xlink:href="class_scriptable.html" target="_top" xlink:title="Scriptable">
<polygon fill="white" stroke="black" points="42,-299.5 42,-318.5 102,-318.5 102,-299.5 42,-299.5"/>
<text text-anchor="middle" x="72" y="-306.5" font-family="Helvetica,sans-Serif" font-size="10.00">Scriptable</text>
</a>
</g>
</g>
<!-- Node9&#45;&gt;Node7 -->
<g id="edge13" class="edge"><title>Node9&#45;&gt;Node7</title>
<path fill="none" stroke="midnightblue" d="M112.193,-313.134C151.949,-315.11 213.023,-311.748 252,-279 270.403,-263.537 256.477,-247.872 270,-228 276.292,-218.754 285.792,-210.504 293.719,-204.565"/>
<polygon fill="midnightblue" stroke="midnightblue" points="112.278,-309.633 102.077,-312.494 111.836,-316.619 112.278,-309.633"/>
</g>
<!-- Node10 -->
<g id="node10" class="node"><title>Node10</title>
<g id="a_node10"><a xlink:href="class_voxel.html" target="_top" xlink:title="Voxel">
<polygon fill="white" stroke="red" points="51.5,-261.5 51.5,-280.5 92.5,-280.5 92.5,-261.5 51.5,-261.5"/>
<text text-anchor="middle" x="72" y="-268.5" font-family="Helvetica,sans-Serif" font-size="10.00">Voxel</text>
</a>
</g>
</g>
<!-- Node10&#45;&gt;Node7 -->
<g id="edge14" class="edge"><title>Node10&#45;&gt;Node7</title>
<path fill="none" stroke="#9a32cd" stroke-dasharray="5,2" d="M102.735,-270.067C139.341,-267.951 202.709,-261.097 252,-239 261.703,-234.65 283.647,-216.283 297.003,-204.698"/>
<polygon fill="#9a32cd" stroke="#9a32cd" points="102.53,-266.573 92.716,-270.565 102.878,-273.564 102.53,-266.573"/>
<text text-anchor="middle" x="207" y="-267" font-family="Helvetica,sans-Serif" font-size="10.00"> m_crucialVoxel</text>
</g>
<!-- Node11 -->
<g id="node11" class="node"><title>Node11</title>
<polygon fill="white" stroke="#bfbfbf" points="0.5,-223.5 0.5,-242.5 143.5,-242.5 143.5,-223.5 0.5,-223.5"/>
<text text-anchor="middle" x="72" y="-230.5" font-family="Helvetica,sans-Serif" font-size="10.00">std::unique_ptr&lt; ObjectInfo &gt;</text>
</g>
<!-- Node11&#45;&gt;Node7 -->
<g id="edge15" class="edge"><title>Node11&#45;&gt;Node7</title>
<path fill="none" stroke="#9a32cd" stroke-dasharray="5,2" d="M154.173,-224.9C184.959,-221.219 220.24,-216.265 252,-210 259.604,-208.5 267.699,-206.546 275.303,-204.545"/>
<polygon fill="#9a32cd" stroke="#9a32cd" points="153.442,-221.462 143.916,-226.1 154.255,-228.415 153.442,-221.462"/>
<text text-anchor="middle" x="207" y="-227" font-family="Helvetica,sans-Serif" font-size="10.00"> m_objectInfo</text>
</g>
<!-- Node12 -->
<g id="node12" class="node"><title>Node12</title>
<g id="a_node12"><a xlink:href="class_handle.html" target="_top" xlink:title="Handle\&lt; WorldObject \&gt;">
<polygon fill="white" stroke="black" points="12.5,-185.5 12.5,-204.5 131.5,-204.5 131.5,-185.5 12.5,-185.5"/>
<text text-anchor="middle" x="72" y="-192.5" font-family="Helvetica,sans-Serif" font-size="10.00">Handle&lt; WorldObject &gt;</text>
</a>
</g>
</g>
<!-- Node12&#45;&gt;Node7 -->
<g id="edge16" class="edge"><title>Node12&#45;&gt;Node7</title>
<path fill="none" stroke="#9a32cd" stroke-dasharray="5,2" d="M141.859,-195C185.04,-195 238.863,-195 273.333,-195"/>
<polygon fill="#9a32cd" stroke="#9a32cd" points="141.694,-191.5 131.694,-195 141.694,-198.5 141.694,-191.5"/>
<text text-anchor="middle" x="207" y="-198" font-family="Helvetica,sans-Serif" font-size="10.00"> m_handle</text>
</g>
<!-- Node13 -->
<g id="node13" class="node"><title>Node13</title>
<polygon fill="white" stroke="#bfbfbf" points="5,-147.5 5,-166.5 139,-166.5 139,-147.5 5,-147.5"/>
<text text-anchor="middle" x="72" y="-154.5" font-family="Helvetica,sans-Serif" font-size="10.00">std::unique_ptr&lt; Physics &gt;</text>
</g>
<!-- Node13&#45;&gt;Node7 -->
<g id="edge17" class="edge"><title>Node13&#45;&gt;Node7</title>
<path fill="none" stroke="#9a32cd" stroke-dasharray="5,2" d="M149.373,-164.532C181.253,-168.265 218.576,-173.407 252,-180 259.604,-181.5 267.699,-183.454 275.303,-185.455"/>
<polygon fill="#9a32cd" stroke="#9a32cd" points="149.559,-161.03 139.225,-163.369 148.762,-167.985 149.559,-161.03"/>
<text text-anchor="middle" x="207" y="-183" font-family="Helvetica,sans-Serif" font-size="10.00"> m_physics</text>
</g>
<!-- Node14 -->
<g id="node14" class="node"><title>Node14</title>
<polygon fill="white" stroke="#bfbfbf" points="8.5,-98 8.5,-128 135.5,-128 135.5,-98 8.5,-98"/>
<text text-anchor="start" x="16.5" y="-116" font-family="Helvetica,sans-Serif" font-size="10.00">std::unique_ptr&lt; Collision</text>
<text text-anchor="middle" x="72" y="-105" font-family="Helvetica,sans-Serif" font-size="10.00">Filter &gt;</text>
</g>
<!-- Node14&#45;&gt;Node7 -->
<g id="edge18" class="edge"><title>Node14&#45;&gt;Node7</title>
<path fill="none" stroke="#9a32cd" stroke-dasharray="5,2" d="M145.814,-121.429C179.27,-127.147 218.798,-136.584 252,-152 270.011,-160.362 287.652,-175.361 298.179,-185.247"/>
<polygon fill="#9a32cd" stroke="#9a32cd" points="146.073,-117.925 135.64,-119.771 144.947,-124.834 146.073,-117.925"/>
<text text-anchor="middle" x="207" y="-155" font-family="Helvetica,sans-Serif" font-size="10.00"> m_collisionFilter</text>
</g>
<!-- Node15 -->
<g id="node15" class="node"><title>Node15</title>
<polygon fill="white" stroke="#bfbfbf" points="8.5,-49 8.5,-79 135.5,-79 135.5,-49 8.5,-49"/>
<text text-anchor="start" x="16.5" y="-67" font-family="Helvetica,sans-Serif" font-size="10.00">std::unique_ptr&lt; Collision</text>
<text text-anchor="middle" x="72" y="-56" font-family="Helvetica,sans-Serif" font-size="10.00">Detector &gt;</text>
</g>
<!-- Node15&#45;&gt;Node7 -->
<g id="edge19" class="edge"><title>Node15&#45;&gt;Node7</title>
<path fill="none" stroke="#9a32cd" stroke-dasharray="5,2" d="M145.781,-70.9996C180.477,-77.2081 221.055,-88.918 252,-111 279.25,-130.445 297.011,-167.634 304.273,-185.265"/>
<polygon fill="#9a32cd" stroke="#9a32cd" points="146.133,-67.51 135.693,-69.3172 144.981,-74.4146 146.133,-67.51"/>
<text text-anchor="middle" x="207" y="-114" font-family="Helvetica,sans-Serif" font-size="10.00"> m_collisionDetector</text>
</g>
<!-- Node16 -->
<g id="node16" class="node"><title>Node16</title>
<polygon fill="white" stroke="#bfbfbf" points="0,-0 0,-30 144,-30 144,-0 0,-0"/>
<text text-anchor="start" x="8" y="-18" font-family="Helvetica,sans-Serif" font-size="10.00">std::unique_ptr&lt; WorldObject</text>
<text text-anchor="middle" x="72" y="-7" font-family="Helvetica,sans-Serif" font-size="10.00">Components &gt;</text>
</g>
<!-- Node16&#45;&gt;Node7 -->
<g id="edge20" class="edge"><title>Node16&#45;&gt;Node7</title>
<path fill="none" stroke="#9a32cd" stroke-dasharray="5,2" d="M154.294,-19.5895C187.832,-25.2137 225.068,-36.76 252,-60 291.574,-94.1484 303.72,-160.755 306.955,-185.47"/>
<polygon fill="#9a32cd" stroke="#9a32cd" points="154.432,-16.0704 144.02,-18.0278 153.38,-22.9909 154.432,-16.0704"/>
<text text-anchor="middle" x="207" y="-63" font-family="Helvetica,sans-Serif" font-size="10.00"> m_components</text>
</g>
</g>
</svg>
