<?xml version="1.0" encoding="UTF-8" standalone="no"?>
<!DOCTYPE svg PUBLIC "-//W3C//DTD SVG 1.1//EN"
 "http://www.w3.org/Graphics/SVG/1.1/DTD/svg11.dtd">
<!-- Generated by graphviz version 2.36.0 (20140111.2315)
 -->
<!-- Title: MonoView Pages: 1 -->
<svg width="338pt" height="176pt"
 viewBox="0.00 0.00 338.00 176.00" xmlns="http://www.w3.org/2000/svg" xmlns:xlink="http://www.w3.org/1999/xlink">
<g id="graph0" class="graph" transform="scale(1 1) rotate(0) translate(4 172)">
<title>MonoView</title>
<polygon fill="white" stroke="none" points="-4,4 -4,-172 334,-172 334,4 -4,4"/>
<!-- Node1 -->
<g id="node1" class="node"><title>Node1</title>
<polygon fill="#bfbfbf" stroke="black" points="100,-0.5 100,-19.5 162,-19.5 162,-0.5 100,-0.5"/>
<text text-anchor="middle" x="131" y="-7.5" font-family="Helvetica,sans-Serif" font-size="10.00">MonoView</text>
</g>
<!-- Node2 -->
<g id="node2" class="node"><title>Node2</title>
<g id="a_node2"><a xlink:href="class_view.html" target="_top" xlink:title="View">
<polygon fill="white" stroke="black" points="8,-68.5 8,-87.5 46,-87.5 46,-68.5 8,-68.5"/>
<text text-anchor="middle" x="27" y="-75.5" font-family="Helvetica,sans-Serif" font-size="10.00">View</text>
</a>
</g>
</g>
<!-- Node2&#45;&gt;Node1 -->
<g id="edge1" class="edge"><title>Node2&#45;&gt;Node1</title>
<path fill="none" stroke="midnightblue" d="M49.0791,-62.9883C69.7685,-49.8584 100.037,-30.6498 117.4,-19.6305"/>
<polygon fill="midnightblue" stroke="midnightblue" points="47.1641,-60.0582 40.5962,-68.3717 50.9149,-65.9685 47.1641,-60.0582"/>
</g>
<!-- Node3 -->
<g id="node3" class="node"><title>Node3</title>
<g id="a_node3"><a xlink:href="class_viewport.html" target="_top" xlink:title="Viewport">
<polygon fill="white" stroke="black" points="0,-142.5 0,-161.5 54,-161.5 54,-142.5 0,-142.5"/>
<text text-anchor="middle" x="27" y="-149.5" font-family="Helvetica,sans-Serif" font-size="10.00">Viewport</text>
</a>
</g>
</g>
<!-- Node3&#45;&gt;Node2 -->
<g id="edge2" class="edge"><title>Node3&#45;&gt;Node2</title>
<path fill="none" stroke="#9a32cd" stroke-dasharray="5,2" d="M27,-132.156C27,-117.712 27,-98.4594 27,-87.531"/>
<polygon fill="#9a32cd" stroke="#9a32cd" points="23.5001,-132.458 27,-142.458 30.5001,-132.458 23.5001,-132.458"/>
<text text-anchor="middle" x="53" y="-109.5" font-family="Helvetica,sans-Serif" font-size="10.00"> m_viewport</text>
</g>
<!-- Node4 -->
<g id="node4" class="node"><title>Node4</title>
<polygon fill="white" stroke="#bfbfbf" points="64.5,-68.5 64.5,-87.5 197.5,-87.5 197.5,-68.5 64.5,-68.5"/>
<text text-anchor="middle" x="131" y="-75.5" font-family="Helvetica,sans-Serif" font-size="10.00">std::unique_ptr&lt; Camera &gt;</text>
</g>
<!-- Node4&#45;&gt;Node1 -->
<g id="edge3" class="edge"><title>Node4&#45;&gt;Node1</title>
<path fill="none" stroke="#9a32cd" stroke-dasharray="5,2" d="M131,-58.0413C131,-45.4724 131,-29.5631 131,-19.8411"/>
<polygon fill="#9a32cd" stroke="#9a32cd" points="127.5,-58.3716 131,-68.3717 134.5,-58.3717 127.5,-58.3716"/>
<text text-anchor="middle" x="155.5" y="-41.5" font-family="Helvetica,sans-Serif" font-size="10.00"> m_camera</text>
</g>
<!-- Node5 -->
<g id="node5" class="node"><title>Node5</title>
<g id="a_node5"><a xlink:href="class_camera.html" target="_top" xlink:title="Camera">
<polygon fill="white" stroke="red" points="106,-142.5 106,-161.5 156,-161.5 156,-142.5 106,-142.5"/>
<text text-anchor="middle" x="131" y="-149.5" font-family="Helvetica,sans-Serif" font-size="10.00">Camera</text>
</a>
</g>
</g>
<!-- Node5&#45;&gt;Node4 -->
<g id="edge4" class="edge"><title>Node5&#45;&gt;Node4</title>
<path fill="none" stroke="#9a32cd" stroke-dasharray="5,2" d="M131,-132.156C131,-117.712 131,-98.4594 131,-87.531"/>
<polygon fill="#9a32cd" stroke="#9a32cd" points="127.5,-132.458 131,-142.458 134.5,-132.458 127.5,-132.458"/>
<text text-anchor="middle" x="138.5" y="-109.5" font-family="Helvetica,sans-Serif" font-size="10.00"> ptr</text>
</g>
<!-- Node6 -->
<g id="node6" class="node"><title>Node6</title>
<g id="a_node6"><a xlink:href="class_property.html" target="_top" xlink:title="Property\&lt; std::string \&gt;">
<polygon fill="white" stroke="black" points="215.5,-68.5 215.5,-87.5 330.5,-87.5 330.5,-68.5 215.5,-68.5"/>
<text text-anchor="middle" x="273" y="-75.5" font-family="Helvetica,sans-Serif" font-size="10.00">Property&lt; std::string &gt;</text>
</a>
</g>
</g>
<!-- Node6&#45;&gt;Node1 -->
<g id="edge5" class="edge"><title>Node6&#45;&gt;Node1</title>
<path fill="none" stroke="#9a32cd" stroke-dasharray="5,2" d="M245.105,-64.0346C216.841,-50.898 173.915,-30.9463 149.569,-19.6305"/>
<polygon fill="#9a32cd" stroke="#9a32cd" points="243.892,-67.3307 254.436,-68.3717 246.843,-60.9828 243.892,-67.3307"/>
<text text-anchor="middle" x="248" y="-41.5" font-family="Helvetica,sans-Serif" font-size="10.00"> m_antialiasing</text>
</g>
<!-- Node7 -->
<g id="node7" class="node"><title>Node7</title>
<g id="a_node7"><a xlink:href="class_property_impl.html" target="_top" xlink:title="PropertyImpl\&lt; std::\lstring \&gt;">
<polygon fill="white" stroke="red" points="223,-137 223,-167 323,-167 323,-137 223,-137"/>
<text text-anchor="start" x="231" y="-155" font-family="Helvetica,sans-Serif" font-size="10.00">PropertyImpl&lt; std::</text>
<text text-anchor="middle" x="273" y="-144" font-family="Helvetica,sans-Serif" font-size="10.00">string &gt;</text>
</a>
</g>
</g>
<!-- Node7&#45;&gt;Node6 -->
<g id="edge6" class="edge"><title>Node7&#45;&gt;Node6</title>
<path fill="none" stroke="#9a32cd" stroke-dasharray="5,2" d="M273,-126.688C273,-113.253 273,-97.3805 273,-87.7589"/>
<polygon fill="#9a32cd" stroke="#9a32cd" points="269.5,-126.775 273,-136.775 276.5,-126.775 269.5,-126.775"/>
<text text-anchor="middle" x="290.5" y="-109.5" font-family="Helvetica,sans-Serif" font-size="10.00"> m_impl</text>
</g>
</g>
</svg>
