<?xml version="1.0" encoding="UTF-8" standalone="no"?>
<!DOCTYPE svg PUBLIC "-//W3C//DTD SVG 1.1//EN"
 "http://www.w3.org/Graphics/SVG/1.1/DTD/svg11.dtd">
<!-- Generated by graphviz version 2.36.0 (20140111.2315)
 -->
<!-- Title: ArrowHudgetVoxels Pages: 1 -->
<svg width="1208pt" height="206pt"
 viewBox="0.00 0.00 1208.00 206.00" xmlns="http://www.w3.org/2000/svg" xmlns:xlink="http://www.w3.org/1999/xlink">
<g id="graph0" class="graph" transform="scale(1 1) rotate(0) translate(4 202)">
<title>ArrowHudgetVoxels</title>
<polygon fill="white" stroke="none" points="-4,4 -4,-202 1204,-202 1204,4 -4,4"/>
<!-- Node1 -->
<g id="node1" class="node"><title>Node1</title>
<polygon fill="#bfbfbf" stroke="black" points="488,-56.5 488,-75.5 590,-75.5 590,-56.5 488,-56.5"/>
<text text-anchor="middle" x="539" y="-63.5" font-family="Helvetica,sans-Serif" font-size="10.00">ArrowHudgetVoxels</text>
</g>
<!-- Node11 -->
<g id="node11" class="node"><title>Node11</title>
<polygon fill="white" stroke="#bfbfbf" points="644,-80 644,-110 790,-110 790,-80 644,-80"/>
<text text-anchor="start" x="652" y="-98" font-family="Helvetica,sans-Serif" font-size="10.00">std::unique_ptr&lt; ArrowHudget</text>
<text text-anchor="middle" x="717" y="-87" font-family="Helvetica,sans-Serif" font-size="10.00">Voxels &gt;</text>
</g>
<!-- Node1&#45;&gt;Node11 -->
<g id="edge12" class="edge"><title>Node1&#45;&gt;Node11</title>
<path fill="none" stroke="#9a32cd" stroke-dasharray="5,2" d="M600.425,-75.9564C614.429,-78.2639 629.47,-80.7422 643.918,-83.1229"/>
<polygon fill="#9a32cd" stroke="#9a32cd" points="600.871,-72.4827 590.435,-74.3102 599.732,-79.3896 600.871,-72.4827"/>
<text text-anchor="middle" x="616" y="-83" font-family="Helvetica,sans-Serif" font-size="10.00"> ptr</text>
</g>
<!-- Node2 -->
<g id="node2" class="node"><title>Node2</title>
<g id="a_node2"><a xlink:href="class_voxel_cluster.html" target="_top" xlink:title="VoxelCluster">
<polygon fill="white" stroke="black" points="281,-76.5 281,-95.5 353,-95.5 353,-76.5 281,-76.5"/>
<text text-anchor="middle" x="317" y="-83.5" font-family="Helvetica,sans-Serif" font-size="10.00">VoxelCluster</text>
</a>
</g>
</g>
<!-- Node2&#45;&gt;Node1 -->
<g id="edge1" class="edge"><title>Node2&#45;&gt;Node1</title>
<path fill="none" stroke="#9a32cd" stroke-dasharray="5,2" d="M363.643,-81.8507C399.922,-78.5525 450.608,-73.9447 487.984,-70.5469"/>
<polygon fill="#9a32cd" stroke="#9a32cd" points="362.989,-78.3956 353.347,-82.7867 363.623,-85.3668 362.989,-78.3956"/>
<text text-anchor="middle" x="425" y="-84" font-family="Helvetica,sans-Serif" font-size="10.00"> m_arrow</text>
</g>
<!-- Node3 -->
<g id="node3" class="node"><title>Node3</title>
<polygon fill="white" stroke="#bfbfbf" points="0,-137 0,-167 146,-167 146,-137 0,-137"/>
<text text-anchor="start" x="8" y="-155" font-family="Helvetica,sans-Serif" font-size="10.00">std::unique_ptr&lt; VoxelRender</text>
<text text-anchor="middle" x="73" y="-144" font-family="Helvetica,sans-Serif" font-size="10.00">Data &gt;</text>
</g>
<!-- Node3&#45;&gt;Node2 -->
<g id="edge2" class="edge"><title>Node3&#45;&gt;Node2</title>
<path fill="none" stroke="#9a32cd" stroke-dasharray="5,2" d="M156.321,-139.284C187.361,-133.399 222.713,-125.373 254,-115 269.566,-109.84 286.366,-101.816 298.547,-95.5151"/>
<polygon fill="#9a32cd" stroke="#9a32cd" points="155.601,-135.858 146.406,-141.12 156.876,-142.741 155.601,-135.858"/>
<text text-anchor="middle" x="209" y="-141" font-family="Helvetica,sans-Serif" font-size="10.00"> m_voxelRenderData</text>
</g>
<!-- Node4 -->
<g id="node4" class="node"><title>Node4</title>
<g id="a_node4"><a xlink:href="class_transform.html" target="_top" xlink:title="Transform">
<polygon fill="white" stroke="black" points="43.5,-98.5 43.5,-117.5 102.5,-117.5 102.5,-98.5 43.5,-98.5"/>
<text text-anchor="middle" x="73" y="-105.5" font-family="Helvetica,sans-Serif" font-size="10.00">Transform</text>
</a>
</g>
</g>
<!-- Node4&#45;&gt;Node2 -->
<g id="edge3" class="edge"><title>Node4&#45;&gt;Node2</title>
<path fill="none" stroke="#9a32cd" stroke-dasharray="5,2" d="M112.958,-104.458C159.299,-100.246 235.988,-93.2738 280.672,-89.2117"/>
<polygon fill="#9a32cd" stroke="#9a32cd" points="112.353,-100.999 102.711,-105.39 112.987,-107.97 112.353,-100.999"/>
<text text-anchor="middle" x="209" y="-103" font-family="Helvetica,sans-Serif" font-size="10.00"> m_transform</text>
</g>
<!-- Node5 -->
<g id="node5" class="node"><title>Node5</title>
<polygon fill="white" stroke="#bfbfbf" points="15,-49 15,-79 131,-79 131,-49 15,-49"/>
<text text-anchor="start" x="23" y="-67" font-family="Helvetica,sans-Serif" font-size="10.00">std::unordered_map</text>
<text text-anchor="middle" x="73" y="-56" font-family="Helvetica,sans-Serif" font-size="10.00">&lt; glm::ivec3, Voxel * &gt;</text>
</g>
<!-- Node5&#45;&gt;Node2 -->
<g id="edge4" class="edge"><title>Node5&#45;&gt;Node2</title>
<path fill="none" stroke="#9a32cd" stroke-dasharray="5,2" d="M141.483,-67.7181C175.313,-69.8756 216.88,-72.9706 254,-77 262.759,-77.9507 272.182,-79.2009 280.972,-80.4657"/>
<polygon fill="#9a32cd" stroke="#9a32cd" points="141.445,-64.209 131.246,-67.0787 141.009,-71.1954 141.445,-64.209"/>
<text text-anchor="middle" x="209" y="-80" font-family="Helvetica,sans-Serif" font-size="10.00"> m_voxels</text>
</g>
<!-- Node6 -->
<g id="node6" class="node"><title>Node6</title>
<polygon fill="white" stroke="#bfbfbf" points="0,-0 0,-30 146,-30 146,-0 0,-0"/>
<text text-anchor="start" x="8" y="-18" font-family="Helvetica,sans-Serif" font-size="10.00">std::unique_ptr&lt; VoxelCluster</text>
<text text-anchor="middle" x="73" y="-7" font-family="Helvetica,sans-Serif" font-size="10.00">Bounds &gt;</text>
</g>
<!-- Node6&#45;&gt;Node2 -->
<g id="edge5" class="edge"><title>Node6&#45;&gt;Node2</title>
<path fill="none" stroke="#9a32cd" stroke-dasharray="5,2" d="M156.431,-26.7001C187.78,-32.8429 223.314,-41.9052 254,-55 262.843,-58.7737 263.552,-62.4088 272,-67 278.141,-70.3375 284.989,-73.5304 291.42,-76.3143"/>
<polygon fill="#9a32cd" stroke="#9a32cd" points="156.887,-23.2245 146.411,-24.8068 155.588,-30.1027 156.887,-23.2245"/>
<text text-anchor="middle" x="209" y="-58" font-family="Helvetica,sans-Serif" font-size="10.00"> m_bounds</text>
</g>
<!-- Node7 -->
<g id="node7" class="node"><title>Node7</title>
<g id="a_node7"><a xlink:href="class_property.html" target="_top" xlink:title="Property\&lt; float \&gt;">
<polygon fill="white" stroke="red" points="272.5,-38.5 272.5,-57.5 361.5,-57.5 361.5,-38.5 272.5,-38.5"/>
<text text-anchor="middle" x="317" y="-45.5" font-family="Helvetica,sans-Serif" font-size="10.00">Property&lt; float &gt;</text>
</a>
</g>
</g>
<!-- Node7&#45;&gt;Node1 -->
<g id="edge6" class="edge"><title>Node7&#45;&gt;Node1</title>
<path fill="none" stroke="#9a32cd" stroke-dasharray="5,2" d="M372.098,-46.4834C401.206,-46.3173 437.671,-47.1535 470,-51 480.204,-52.2141 491.129,-54.2756 501.17,-56.488"/>
<polygon fill="#9a32cd" stroke="#9a32cd" points="371.693,-42.9872 361.728,-46.5863 371.762,-49.9868 371.693,-42.9872"/>
<text text-anchor="middle" x="425" y="-54" font-family="Helvetica,sans-Serif" font-size="10.00"> prop_arrowDistance</text>
</g>
<!-- Node8 -->
<g id="node8" class="node"><title>Node8</title>
<g id="a_node8"><a xlink:href="class_object_hudget.html" target="_top" xlink:title="ObjectHudget">
<polygon fill="white" stroke="black" points="902,-113.5 902,-132.5 978,-132.5 978,-113.5 902,-113.5"/>
<text text-anchor="middle" x="940" y="-120.5" font-family="Helvetica,sans-Serif" font-size="10.00">ObjectHudget</text>
</a>
</g>
</g>
<!-- Node8&#45;&gt;Node1 -->
<g id="edge7" class="edge"><title>Node8&#45;&gt;Node1</title>
<path fill="none" stroke="#9a32cd" stroke-dasharray="5,2" d="M914.15,-108.384C885.738,-92.5949 837.293,-68.432 792,-59 723.23,-44.6788 641.637,-51.0665 590.332,-57.8254"/>
<polygon fill="#9a32cd" stroke="#9a32cd" points="912.557,-111.504 922.984,-113.385 916.005,-105.413 912.557,-111.504"/>
<text text-anchor="middle" x="717" y="-62" font-family="Helvetica,sans-Serif" font-size="10.00"> m_hudget</text>
</g>
<!-- Node10 -->
<g id="node10" class="node"><title>Node10</title>
<g id="a_node10"><a xlink:href="class_h_u_d_object_delegate.html" target="_top" xlink:title="HUDObjectDelegate">
<polygon fill="white" stroke="red" points="1096,-113.5 1096,-132.5 1200,-132.5 1200,-113.5 1096,-113.5"/>
<text text-anchor="middle" x="1148" y="-120.5" font-family="Helvetica,sans-Serif" font-size="10.00">HUDObjectDelegate</text>
</a>
</g>
</g>
<!-- Node8&#45;&gt;Node10 -->
<g id="edge10" class="edge"><title>Node8&#45;&gt;Node10</title>
<path fill="none" stroke="#9a32cd" stroke-dasharray="5,2" d="M988.33,-123C1020.4,-123 1062.75,-123 1095.64,-123"/>
<polygon fill="#9a32cd" stroke="#9a32cd" points="988.305,-119.5 978.305,-123 988.305,-126.5 988.305,-119.5"/>
<text text-anchor="middle" x="1037" y="-126" font-family="Helvetica,sans-Serif" font-size="10.00"> m_hudget</text>
</g>
<!-- Node9 -->
<g id="node9" class="node"><title>Node9</title>
<g id="a_node9"><a xlink:href="class_hudget.html" target="_top" xlink:title="Hudget">
<polygon fill="white" stroke="red" points="693.5,-178.5 693.5,-197.5 740.5,-197.5 740.5,-178.5 693.5,-178.5"/>
<text text-anchor="middle" x="717" y="-185.5" font-family="Helvetica,sans-Serif" font-size="10.00">Hudget</text>
</a>
</g>
</g>
<!-- Node9&#45;&gt;Node8 -->
<g id="edge8" class="edge"><title>Node9&#45;&gt;Node8</title>
<path fill="none" stroke="midnightblue" d="M751.036,-182.763C785,-176.844 839.117,-165.912 884,-150 897.234,-145.308 911.443,-138.276 922.103,-132.565"/>
<polygon fill="midnightblue" stroke="midnightblue" points="750.027,-179.384 740.754,-184.509 751.198,-186.286 750.027,-179.384"/>
</g>
<!-- Node10&#45;&gt;Node8 -->
<g id="edge9" class="edge"><title>Node10&#45;&gt;Node8</title>
<path fill="none" stroke="#9a32cd" stroke-dasharray="5,2" d="M1103.03,-111.232C1094.77,-109.471 1086.16,-107.934 1078,-107 1041.79,-102.857 1032.08,-101.859 996,-107 986.746,-108.319 976.872,-110.826 968.082,-113.472"/>
<polygon fill="#9a32cd" stroke="#9a32cd" points="1102.35,-114.667 1112.87,-113.466 1103.9,-107.84 1102.35,-114.667"/>
<text text-anchor="middle" x="1037" y="-110" font-family="Helvetica,sans-Serif" font-size="10.00"> m_objectDelegate</text>
</g>
<!-- Node11&#45;&gt;Node8 -->
<g id="edge11" class="edge"><title>Node11&#45;&gt;Node8</title>
<path fill="none" stroke="#9a32cd" stroke-dasharray="5,2" d="M800.477,-103.646C827.163,-106.655 856.867,-110.23 884,-114 889.75,-114.799 895.826,-115.718 901.759,-116.657"/>
<polygon fill="#9a32cd" stroke="#9a32cd" points="800.736,-100.153 790.409,-102.521 799.959,-107.11 800.736,-100.153"/>
<text text-anchor="middle" x="847" y="-117" font-family="Helvetica,sans-Serif" font-size="10.00"> m_arrowVoxels</text>
</g>
<!-- Node12 -->
<g id="node12" class="node"><title>Node12</title>
<polygon fill="white" stroke="#bfbfbf" points="642.5,-129 642.5,-159 791.5,-159 791.5,-129 642.5,-129"/>
<text text-anchor="start" x="650.5" y="-147" font-family="Helvetica,sans-Serif" font-size="10.00">std::unique_ptr&lt; ObjectHudget</text>
<text text-anchor="middle" x="717" y="-136" font-family="Helvetica,sans-Serif" font-size="10.00">Voxels &gt;</text>
</g>
<!-- Node12&#45;&gt;Node8 -->
<g id="edge13" class="edge"><title>Node12&#45;&gt;Node8</title>
<path fill="none" stroke="#9a32cd" stroke-dasharray="5,2" d="M801.711,-136.046C836.304,-132.758 874.624,-129.117 901.969,-126.519"/>
<polygon fill="#9a32cd" stroke="#9a32cd" points="801.214,-132.577 791.59,-137.007 801.876,-139.546 801.214,-132.577"/>
<text text-anchor="middle" x="847" y="-138" font-family="Helvetica,sans-Serif" font-size="10.00"> m_objectVoxels</text>
</g>
</g>
</svg>
