<?xml version="1.0" encoding="UTF-8" standalone="no"?>
<!DOCTYPE svg PUBLIC "-//W3C//DTD SVG 1.1//EN"
 "http://www.w3.org/Graphics/SVG/1.1/DTD/svg11.dtd">
<!-- Generated by graphviz version 2.36.0 (20140111.2315)
 -->
<!-- Title: DefaultRenderPipeline Pages: 1 -->
<svg width="544pt" height="126pt"
 viewBox="0.00 0.00 544.00 126.00" xmlns="http://www.w3.org/2000/svg" xmlns:xlink="http://www.w3.org/1999/xlink">
<g id="graph0" class="graph" transform="scale(1 1) rotate(0) translate(4 122)">
<title>DefaultRenderPipeline</title>
<polygon fill="white" stroke="none" points="-4,4 -4,-122 540,-122 540,4 -4,4"/>
<!-- Node1 -->
<g id="node1" class="node"><title>Node1</title>
<polygon fill="#bfbfbf" stroke="black" points="424,-34.5 424,-53.5 536,-53.5 536,-34.5 424,-34.5"/>
<text text-anchor="middle" x="480" y="-41.5" font-family="Helvetica,sans-Serif" font-size="10.00">DefaultRenderPipeline</text>
</g>
<!-- Node2 -->
<g id="node2" class="node"><title>Node2</title>
<g id="a_node2"><a xlink:href="class_render_pipeline.html" target="_top" xlink:title="RenderPipeline">
<polygon fill="white" stroke="black" points="223,-54.5 223,-73.5 305,-73.5 305,-54.5 223,-54.5"/>
<text text-anchor="middle" x="264" y="-61.5" font-family="Helvetica,sans-Serif" font-size="10.00">RenderPipeline</text>
</a>
</g>
</g>
<!-- Node2&#45;&gt;Node1 -->
<g id="edge1" class="edge"><title>Node2&#45;&gt;Node1</title>
<path fill="none" stroke="midnightblue" d="M315.214,-59.3071C347.816,-56.2602 390.321,-52.2878 423.86,-49.1533"/>
<polygon fill="midnightblue" stroke="midnightblue" points="314.632,-55.8462 305.001,-60.2616 315.283,-62.8158 314.632,-55.8462"/>
</g>
<!-- Node3 -->
<g id="node3" class="node"><title>Node3</title>
<g id="a_node3"><a xlink:href="class_render_pass.html" target="_top" xlink:title="RenderPass">
<polygon fill="white" stroke="red" points="25,-98.5 25,-117.5 95,-117.5 95,-98.5 25,-98.5"/>
<text text-anchor="middle" x="60" y="-105.5" font-family="Helvetica,sans-Serif" font-size="10.00">RenderPass</text>
</a>
</g>
</g>
<!-- Node3&#45;&gt;Node2 -->
<g id="edge2" class="edge"><title>Node3&#45;&gt;Node2</title>
<path fill="none" stroke="#8b1a1a" d="M105.211,-98.37C140.211,-90.7461 188.691,-80.186 222.648,-72.7897"/>
<polygon fill="#8b1a1a" stroke="#8b1a1a" points="104.293,-94.9878 95.2665,-100.536 105.782,-101.827 104.293,-94.9878"/>
</g>
<!-- Node4 -->
<g id="node4" class="node"><title>Node4</title>
<polygon fill="white" stroke="#bfbfbf" points="0.5,-49 0.5,-79 119.5,-79 119.5,-49 0.5,-49"/>
<text text-anchor="start" x="8.5" y="-67" font-family="Helvetica,sans-Serif" font-size="10.00">std::vector&lt; std::shared</text>
<text text-anchor="middle" x="60" y="-56" font-family="Helvetica,sans-Serif" font-size="10.00">_ptr&lt; RenderPass &gt; &gt;</text>
</g>
<!-- Node4&#45;&gt;Node2 -->
<g id="edge3" class="edge"><title>Node4&#45;&gt;Node2</title>
<path fill="none" stroke="#9a32cd" stroke-dasharray="5,2" d="M129.987,-64C160.888,-64 196.247,-64 222.738,-64"/>
<polygon fill="#9a32cd" stroke="#9a32cd" points="129.698,-60.5001 119.698,-64 129.698,-67.5001 129.698,-60.5001"/>
<text text-anchor="middle" x="163" y="-67" font-family="Helvetica,sans-Serif" font-size="10.00"> m_passes</text>
</g>
<!-- Node5 -->
<g id="node5" class="node"><title>Node5</title>
<g id="a_node5"><a xlink:href="class_property.html" target="_top" xlink:title="Property\&lt; std::string \&gt;">
<polygon fill="white" stroke="black" points="206.5,-11.5 206.5,-30.5 321.5,-30.5 321.5,-11.5 206.5,-11.5"/>
<text text-anchor="middle" x="264" y="-18.5" font-family="Helvetica,sans-Serif" font-size="10.00">Property&lt; std::string &gt;</text>
</a>
</g>
</g>
<!-- Node5&#45;&gt;Node1 -->
<g id="edge4" class="edge"><title>Node5&#45;&gt;Node1</title>
<path fill="none" stroke="#9a32cd" stroke-dasharray="5,2" d="M331.733,-28.1722C361.263,-31.346 395.583,-35.0346 423.66,-38.0522"/>
<polygon fill="#9a32cd" stroke="#9a32cd" points="331.823,-24.6618 321.506,-27.0731 331.075,-31.6217 331.823,-24.6618"/>
<text text-anchor="middle" x="373" y="-39" font-family="Helvetica,sans-Serif" font-size="10.00"> m_antialiasing</text>
</g>
<!-- Node6 -->
<g id="node6" class="node"><title>Node6</title>
<g id="a_node6"><a xlink:href="class_property_impl.html" target="_top" xlink:title="PropertyImpl\&lt; std::\lstring \&gt;">
<polygon fill="white" stroke="red" points="10,-0 10,-30 110,-30 110,-0 10,-0"/>
<text text-anchor="start" x="18" y="-18" font-family="Helvetica,sans-Serif" font-size="10.00">PropertyImpl&lt; std::</text>
<text text-anchor="middle" x="60" y="-7" font-family="Helvetica,sans-Serif" font-size="10.00">string &gt;</text>
</a>
</g>
</g>
<!-- Node6&#45;&gt;Node5 -->
<g id="edge5" class="edge"><title>Node6&#45;&gt;Node5</title>
<path fill="none" stroke="#9a32cd" stroke-dasharray="5,2" d="M120.32,-16.762C147.52,-17.5699 179.611,-18.5231 206.463,-19.3207"/>
<polygon fill="#9a32cd" stroke="#9a32cd" points="120.256,-13.2586 110.156,-16.4601 120.048,-20.2555 120.256,-13.2586"/>
<text text-anchor="middle" x="163" y="-22" font-family="Helvetica,sans-Serif" font-size="10.00"> m_impl</text>
</g>
</g>
</svg>
