<?xml version="1.0" encoding="UTF-8" standalone="no"?>
<!DOCTYPE svg PUBLIC "-//W3C//DTD SVG 1.1//EN"
 "http://www.w3.org/Graphics/SVG/1.1/DTD/svg11.dtd">
<!-- Generated by graphviz version 2.36.0 (20140111.2315)
 -->
<!-- Title: World Pages: 1 -->
<svg width="1184pt" height="360pt"
 viewBox="0.00 0.00 1184.00 360.00" xmlns="http://www.w3.org/2000/svg" xmlns:xlink="http://www.w3.org/1999/xlink">
<g id="graph0" class="graph" transform="scale(1 1) rotate(0) translate(4 356)">
<title>World</title>
<polygon fill="white" stroke="none" points="-4,4 -4,-356 1180,-356 1180,4 -4,4"/>
<!-- Node1 -->
<g id="node1" class="node"><title>Node1</title>
<polygon fill="#bfbfbf" stroke="black" points="778,-165.5 778,-184.5 820,-184.5 820,-165.5 778,-165.5"/>
<text text-anchor="middle" x="799" y="-172.5" font-family="Helvetica,sans-Serif" font-size="10.00">World</text>
</g>
<!-- Node1&#45;&gt;Node1 -->
<g id="edge31" class="edge"><title>Node1&#45;&gt;Node1</title>
<path fill="none" stroke="#9a32cd" stroke-dasharray="5,2" d="M788.319,-194.766C789.158,-199.497 792.718,-203 799,-203 809.309,-203 812.288,-193.565 807.939,-184.757"/>
<polygon fill="#9a32cd" stroke="#9a32cd" points="791.794,-195.209 790.061,-184.757 784.898,-194.009 791.794,-195.209"/>
<text text-anchor="middle" x="799" y="-206" font-family="Helvetica,sans-Serif" font-size="10.00"> s_instance</text>
</g>
<!-- Node7 -->
<g id="node7" class="node"><title>Node7</title>
<g id="a_node7"><a xlink:href="class_world_logic.html" target="_top" xlink:title="WorldLogic">
<polygon fill="white" stroke="red" points="899.5,-264.5 899.5,-283.5 964.5,-283.5 964.5,-264.5 899.5,-264.5"/>
<text text-anchor="middle" x="932" y="-271.5" font-family="Helvetica,sans-Serif" font-size="10.00">WorldLogic</text>
</a>
</g>
</g>
<!-- Node1&#45;&gt;Node7 -->
<g id="edge7" class="edge"><title>Node1&#45;&gt;Node7</title>
<path fill="none" stroke="#9a32cd" stroke-dasharray="5,2" d="M805.115,-194.423C810.542,-211.271 820.767,-235.078 838,-249 855.297,-262.973 879.724,-269.175 899.202,-271.909"/>
<polygon fill="#9a32cd" stroke="#9a32cd" points="808.387,-193.143 802.215,-184.531 801.669,-195.112 808.387,-193.143"/>
<text text-anchor="middle" x="858" y="-271" font-family="Helvetica,sans-Serif" font-size="10.00"> m_world</text>
</g>
<!-- Node16 -->
<g id="node16" class="node"><title>Node16</title>
<g id="a_node16"><a xlink:href="class_script_engine.html" target="_top" xlink:title="ScriptEngine">
<polygon fill="white" stroke="red" points="896,-132.5 896,-151.5 968,-151.5 968,-132.5 896,-132.5"/>
<text text-anchor="middle" x="932" y="-139.5" font-family="Helvetica,sans-Serif" font-size="10.00">ScriptEngine</text>
</a>
</g>
</g>
<!-- Node1&#45;&gt;Node16 -->
<g id="edge18" class="edge"><title>Node1&#45;&gt;Node16</title>
<path fill="none" stroke="#9a32cd" stroke-dasharray="5,2" d="M829.827,-165.322C832.581,-164.507 835.337,-163.72 838,-163 857.015,-157.86 878.447,-152.961 895.941,-149.19"/>
<polygon fill="#9a32cd" stroke="#9a32cd" points="828.556,-162.051 820.023,-168.331 830.61,-168.743 828.556,-162.051"/>
<text text-anchor="middle" x="858" y="-166" font-family="Helvetica,sans-Serif" font-size="10.00"> m_world</text>
</g>
<!-- Node20 -->
<g id="node20" class="node"><title>Node20</title>
<g id="a_node20"><a xlink:href="class_god.html" target="_top" xlink:title="God">
<polygon fill="white" stroke="red" points="914.5,-94.5 914.5,-113.5 949.5,-113.5 949.5,-94.5 914.5,-94.5"/>
<text text-anchor="middle" x="932" y="-101.5" font-family="Helvetica,sans-Serif" font-size="10.00">God</text>
</a>
</g>
</g>
<!-- Node1&#45;&gt;Node20 -->
<g id="edge23" class="edge"><title>Node1&#45;&gt;Node20</title>
<path fill="none" stroke="#9a32cd" stroke-dasharray="5,2" d="M815.109,-158.002C821.645,-151.402 829.695,-144.197 838,-139 862.568,-123.626 894.942,-113.357 914.297,-108.114"/>
<polygon fill="#9a32cd" stroke="#9a32cd" points="812.525,-155.64 808.206,-165.314 817.616,-160.445 812.525,-155.64"/>
<text text-anchor="middle" x="858" y="-142" font-family="Helvetica,sans-Serif" font-size="10.00"> m_world</text>
</g>
<!-- Node2 -->
<g id="node2" class="node"><title>Node2</title>
<polygon fill="white" stroke="#bfbfbf" points="516.5,-327.5 516.5,-346.5 659.5,-346.5 659.5,-327.5 516.5,-327.5"/>
<text text-anchor="middle" x="588" y="-334.5" font-family="Helvetica,sans-Serif" font-size="10.00">std::unique_ptr&lt; WorldTree &gt;</text>
</g>
<!-- Node2&#45;&gt;Node1 -->
<g id="edge1" class="edge"><title>Node2&#45;&gt;Node1</title>
<path fill="none" stroke="#9a32cd" stroke-dasharray="5,2" d="M669.837,-340.901C701.374,-338.288 735.709,-329.749 760,-308 796.676,-275.162 798.981,-209.63 798.443,-184.823"/>
<polygon fill="#9a32cd" stroke="#9a32cd" points="669.468,-337.417 659.713,-341.55 669.916,-344.403 669.468,-337.417"/>
<text text-anchor="middle" x="720" y="-343" font-family="Helvetica,sans-Serif" font-size="10.00"> m_worldTree</text>
</g>
<!-- Node3 -->
<g id="node3" class="node"><title>Node3</title>
<g id="a_node3"><a xlink:href="class_world_tree.html" target="_top" xlink:title="WorldTree">
<polygon fill="white" stroke="red" points="297.5,-332.5 297.5,-351.5 358.5,-351.5 358.5,-332.5 297.5,-332.5"/>
<text text-anchor="middle" x="328" y="-339.5" font-family="Helvetica,sans-Serif" font-size="10.00">WorldTree</text>
</a>
</g>
</g>
<!-- Node3&#45;&gt;Node2 -->
<g id="edge2" class="edge"><title>Node3&#45;&gt;Node2</title>
<path fill="none" stroke="#9a32cd" stroke-dasharray="5,2" d="M368.814,-341.228C408.037,-340.468 468.804,-339.291 516.258,-338.371"/>
<polygon fill="#9a32cd" stroke="#9a32cd" points="368.526,-337.733 358.596,-341.426 368.662,-344.732 368.526,-337.733"/>
<text text-anchor="middle" x="447" y="-344" font-family="Helvetica,sans-Serif" font-size="10.00"> ptr</text>
</g>
<!-- Node4 -->
<g id="node4" class="node"><title>Node4</title>
<polygon fill="white" stroke="#bfbfbf" points="398,-284 398,-314 496,-314 496,-284 398,-284"/>
<text text-anchor="start" x="406" y="-302" font-family="Helvetica,sans-Serif" font-size="10.00">std::unordered_set</text>
<text text-anchor="middle" x="447" y="-291" font-family="Helvetica,sans-Serif" font-size="10.00">&lt; WorldObject * &gt;</text>
</g>
<!-- Node4&#45;&gt;Node1 -->
<g id="edge3" class="edge"><title>Node4&#45;&gt;Node1</title>
<path fill="none" stroke="#9a32cd" stroke-dasharray="5,2" d="M506.301,-303.663C573.719,-306.009 685.017,-300.164 760,-246 781.08,-230.773 791.588,-200.192 795.759,-184.607"/>
<polygon fill="#9a32cd" stroke="#9a32cd" points="506.414,-300.164 496.276,-303.242 506.12,-307.158 506.414,-300.164"/>
<text text-anchor="middle" x="588" y="-308" font-family="Helvetica,sans-Serif" font-size="10.00"> m_worldObjects</text>
</g>
<!-- Node5 -->
<g id="node5" class="node"><title>Node5</title>
<g id="a_node5"><a xlink:href="class_world_object.html" target="_top" xlink:title="WorldObject">
<polygon fill="white" stroke="red" points="45.5,-270.5 45.5,-289.5 116.5,-289.5 116.5,-270.5 45.5,-270.5"/>
<text text-anchor="middle" x="81" y="-277.5" font-family="Helvetica,sans-Serif" font-size="10.00">WorldObject</text>
</a>
</g>
</g>
<!-- Node5&#45;&gt;Node4 -->
<g id="edge4" class="edge"><title>Node5&#45;&gt;Node4</title>
<path fill="none" stroke="#9a32cd" stroke-dasharray="5,2" d="M126.668,-282.332C195.548,-285.927 327.127,-292.795 397.98,-296.493"/>
<polygon fill="#9a32cd" stroke="#9a32cd" points="126.741,-278.831 116.572,-281.805 126.376,-285.821 126.741,-278.831"/>
<text text-anchor="middle" x="219" y="-293" font-family="Helvetica,sans-Serif" font-size="10.00"> keys</text>
</g>
<!-- Node9 -->
<g id="node9" class="node"><title>Node9</title>
<g id="a_node9"><a xlink:href="class_ship.html" target="_top" xlink:title="Ship">
<polygon fill="white" stroke="red" points="310,-235.5 310,-254.5 346,-254.5 346,-235.5 310,-235.5"/>
<text text-anchor="middle" x="328" y="-242.5" font-family="Helvetica,sans-Serif" font-size="10.00">Ship</text>
</a>
</g>
</g>
<!-- Node5&#45;&gt;Node9 -->
<g id="edge10" class="edge"><title>Node5&#45;&gt;Node9</title>
<path fill="none" stroke="midnightblue" d="M126.865,-274.667C162.476,-270.307 213.498,-263.775 258,-257 275.67,-254.31 295.798,-250.753 309.735,-248.211"/>
<polygon fill="midnightblue" stroke="midnightblue" points="126.295,-271.211 116.791,-275.893 127.141,-278.159 126.295,-271.211"/>
</g>
<!-- Node6 -->
<g id="node6" class="node"><title>Node6</title>
<polygon fill="white" stroke="#bfbfbf" points="1024,-243.5 1024,-262.5 1172,-262.5 1172,-243.5 1024,-243.5"/>
<text text-anchor="middle" x="1098" y="-250.5" font-family="Helvetica,sans-Serif" font-size="10.00">std::unique_ptr&lt; WorldLogic &gt;</text>
</g>
<!-- Node6&#45;&gt;Node1 -->
<g id="edge5" class="edge"><title>Node6&#45;&gt;Node1</title>
<path fill="none" stroke="#9a32cd" stroke-dasharray="5,2" d="M1042.31,-241.336C989.557,-229.652 907.681,-210.373 838,-189 832.219,-187.227 826.034,-185.065 820.369,-182.976"/>
<polygon fill="#9a32cd" stroke="#9a32cd" points="1041.62,-244.767 1052.13,-243.499 1043.12,-237.931 1041.62,-244.767"/>
<text text-anchor="middle" x="932" y="-227" font-family="Helvetica,sans-Serif" font-size="10.00"> m_worldLogic</text>
</g>
<!-- Node7&#45;&gt;Node6 -->
<g id="edge6" class="edge"><title>Node7&#45;&gt;Node6</title>
<path fill="none" stroke="#9a32cd" stroke-dasharray="5,2" d="M974.551,-268.68C989.497,-266.766 1006.83,-264.546 1023.68,-262.389"/>
<polygon fill="#9a32cd" stroke="#9a32cd" points="974.095,-265.209 964.621,-269.951 974.984,-272.152 974.095,-265.209"/>
<text text-anchor="middle" x="994" y="-271" font-family="Helvetica,sans-Serif" font-size="10.00"> ptr</text>
</g>
<!-- Node8 -->
<g id="node8" class="node"><title>Node8</title>
<polygon fill="white" stroke="#bfbfbf" points="539,-224 539,-254 637,-254 637,-224 539,-224"/>
<text text-anchor="start" x="547" y="-242" font-family="Helvetica,sans-Serif" font-size="10.00">std::unordered_set</text>
<text text-anchor="middle" x="588" y="-231" font-family="Helvetica,sans-Serif" font-size="10.00">&lt; Ship * &gt;</text>
</g>
<!-- Node8&#45;&gt;Node1 -->
<g id="edge8" class="edge"><title>Node8&#45;&gt;Node1</title>
<path fill="none" stroke="#9a32cd" stroke-dasharray="5,2" d="M647.39,-235.516C681.55,-231.694 724.752,-223.7 760,-207 771.38,-201.609 782.139,-191.959 789.285,-184.661"/>
<polygon fill="#9a32cd" stroke="#9a32cd" points="646.687,-232.07 637.097,-236.574 647.403,-239.033 646.687,-232.07"/>
<text text-anchor="middle" x="720" y="-234" font-family="Helvetica,sans-Serif" font-size="10.00"> m_ships</text>
</g>
<!-- Node9&#45;&gt;Node8 -->
<g id="edge9" class="edge"><title>Node9&#45;&gt;Node8</title>
<path fill="none" stroke="#9a32cd" stroke-dasharray="5,2" d="M356.426,-244.362C399.857,-243.352 485.035,-241.371 538.822,-240.12"/>
<polygon fill="#9a32cd" stroke="#9a32cd" points="356.245,-240.865 346.329,-244.597 356.407,-247.863 356.245,-240.865"/>
<text text-anchor="middle" x="447" y="-247" font-family="Helvetica,sans-Serif" font-size="10.00"> keys</text>
</g>
<!-- Node10 -->
<g id="node10" class="node"><title>Node10</title>
<g id="a_node10"><a xlink:href="class_handle.html" target="_top" xlink:title="Handle\&lt; Ship \&gt;">
<polygon fill="white" stroke="black" points="39,-225.5 39,-244.5 123,-244.5 123,-225.5 39,-225.5"/>
<text text-anchor="middle" x="81" y="-232.5" font-family="Helvetica,sans-Serif" font-size="10.00">Handle&lt; Ship &gt;</text>
</a>
</g>
</g>
<!-- Node10&#45;&gt;Node9 -->
<g id="edge11" class="edge"><title>Node10&#45;&gt;Node9</title>
<path fill="none" stroke="#9a32cd" stroke-dasharray="5,2" d="M133.317,-237.095C188.659,-239.353 273.682,-242.824 309.809,-244.298"/>
<polygon fill="#9a32cd" stroke="#9a32cd" points="133.142,-233.585 123.007,-236.674 132.856,-240.579 133.142,-233.585"/>
<text text-anchor="middle" x="219" y="-246" font-family="Helvetica,sans-Serif" font-size="10.00"> m_shipHandle</text>
</g>
<!-- Node21 -->
<g id="node21" class="node"><title>Node21</title>
<g id="a_node21"><a xlink:href="class_player.html" target="_top" xlink:title="Player">
<polygon fill="white" stroke="black" points="306,-167.5 306,-186.5 350,-186.5 350,-167.5 306,-167.5"/>
<text text-anchor="middle" x="328" y="-174.5" font-family="Helvetica,sans-Serif" font-size="10.00">Player</text>
</a>
</g>
</g>
<!-- Node10&#45;&gt;Node21 -->
<g id="edge29" class="edge"><title>Node10&#45;&gt;Node21</title>
<path fill="none" stroke="#9a32cd" stroke-dasharray="5,2" d="M132.119,-223.135C185.453,-210.509 267.327,-191.127 305.731,-182.035"/>
<polygon fill="#9a32cd" stroke="#9a32cd" points="131.107,-219.778 122.182,-225.487 132.72,-226.59 131.107,-219.778"/>
<text text-anchor="middle" x="219" y="-215" font-family="Helvetica,sans-Serif" font-size="10.00"> m_ship</text>
</g>
<!-- Node11 -->
<g id="node11" class="node"><title>Node11</title>
<polygon fill="white" stroke="#bfbfbf" points="522,-137.5 522,-156.5 654,-156.5 654,-137.5 522,-137.5"/>
<text text-anchor="middle" x="588" y="-144.5" font-family="Helvetica,sans-Serif" font-size="10.00">std::unique_ptr&lt; Skybox &gt;</text>
</g>
<!-- Node11&#45;&gt;Node1 -->
<g id="edge12" class="edge"><title>Node11&#45;&gt;Node1</title>
<path fill="none" stroke="#9a32cd" stroke-dasharray="5,2" d="M664.035,-155.228C693.947,-158.766 728.657,-163.193 760,-168 765.835,-168.895 772.149,-170.002 777.922,-171.069"/>
<polygon fill="#9a32cd" stroke="#9a32cd" points="664.425,-151.75 654.086,-154.064 663.611,-158.703 664.425,-151.75"/>
<text text-anchor="middle" x="720" y="-171" font-family="Helvetica,sans-Serif" font-size="10.00"> m_skybox</text>
</g>
<!-- Node12 -->
<g id="node12" class="node"><title>Node12</title>
<g id="a_node12"><a xlink:href="class_skybox.html" target="_top" xlink:title="Skybox">
<polygon fill="white" stroke="red" points="303,-129.5 303,-148.5 353,-148.5 353,-129.5 303,-129.5"/>
<text text-anchor="middle" x="328" y="-136.5" font-family="Helvetica,sans-Serif" font-size="10.00">Skybox</text>
</a>
</g>
</g>
<!-- Node12&#45;&gt;Node11 -->
<g id="edge13" class="edge"><title>Node12&#45;&gt;Node11</title>
<path fill="none" stroke="#9a32cd" stroke-dasharray="5,2" d="M363.392,-140.066C403.706,-141.316 471.403,-143.416 521.77,-144.977"/>
<polygon fill="#9a32cd" stroke="#9a32cd" points="363.376,-136.564 353.272,-139.753 363.159,-143.561 363.376,-136.564"/>
<text text-anchor="middle" x="447" y="-147" font-family="Helvetica,sans-Serif" font-size="10.00"> ptr</text>
</g>
<!-- Node13 -->
<g id="node13" class="node"><title>Node13</title>
<polygon fill="white" stroke="#bfbfbf" points="514,-88 514,-118 662,-118 662,-88 514,-88"/>
<text text-anchor="start" x="522" y="-106" font-family="Helvetica,sans-Serif" font-size="10.00">std::unique_ptr&lt; VoxelParticle</text>
<text text-anchor="middle" x="588" y="-95" font-family="Helvetica,sans-Serif" font-size="10.00">Engine &gt;</text>
</g>
<!-- Node13&#45;&gt;Node1 -->
<g id="edge14" class="edge"><title>Node13&#45;&gt;Node1</title>
<path fill="none" stroke="#9a32cd" stroke-dasharray="5,2" d="M672.36,-114.36C701.145,-120.368 732.939,-129.429 760,-143 771.256,-148.645 782.033,-158.259 789.216,-165.479"/>
<polygon fill="#9a32cd" stroke="#9a32cd" points="672.808,-110.88 662.317,-112.36 671.441,-117.746 672.808,-110.88"/>
<text text-anchor="middle" x="720" y="-146" font-family="Helvetica,sans-Serif" font-size="10.00"> m_particleEngine</text>
</g>
<!-- Node14 -->
<g id="node14" class="node"><title>Node14</title>
<g id="a_node14"><a xlink:href="class_voxel_particle_engine.html" target="_top" xlink:title="VoxelParticleEngine">
<polygon fill="white" stroke="red" points="276,-91.5 276,-110.5 380,-110.5 380,-91.5 276,-91.5"/>
<text text-anchor="middle" x="328" y="-98.5" font-family="Helvetica,sans-Serif" font-size="10.00">VoxelParticleEngine</text>
</a>
</g>
</g>
<!-- Node14&#45;&gt;Node13 -->
<g id="edge15" class="edge"><title>Node14&#45;&gt;Node13</title>
<path fill="none" stroke="#9a32cd" stroke-dasharray="5,2" d="M390.437,-101.476C427.474,-101.763 474.863,-102.131 513.83,-102.433"/>
<polygon fill="#9a32cd" stroke="#9a32cd" points="390.308,-97.9752 380.281,-101.398 390.254,-104.975 390.308,-97.9752"/>
<text text-anchor="middle" x="447" y="-106" font-family="Helvetica,sans-Serif" font-size="10.00"> ptr</text>
</g>
<!-- Node15 -->
<g id="node15" class="node"><title>Node15</title>
<polygon fill="white" stroke="#bfbfbf" points="1020.5,-160.5 1020.5,-179.5 1175.5,-179.5 1175.5,-160.5 1020.5,-160.5"/>
<text text-anchor="middle" x="1098" y="-167.5" font-family="Helvetica,sans-Serif" font-size="10.00">std::unique_ptr&lt; ScriptEngine &gt;</text>
</g>
<!-- Node15&#45;&gt;Node1 -->
<g id="edge16" class="edge"><title>Node15&#45;&gt;Node1</title>
<path fill="none" stroke="#9a32cd" stroke-dasharray="5,2" d="M1010.43,-171.69C970.169,-172.448 921.64,-173.322 878,-174 858.365,-174.305 835.949,-174.585 820.202,-174.771"/>
<polygon fill="#9a32cd" stroke="#9a32cd" points="1010.55,-175.188 1020.48,-171.5 1010.42,-168.189 1010.55,-175.188"/>
<text text-anchor="middle" x="932" y="-177" font-family="Helvetica,sans-Serif" font-size="10.00"> m_scriptEngine</text>
</g>
<!-- Node16&#45;&gt;Node15 -->
<g id="edge17" class="edge"><title>Node16&#45;&gt;Node15</title>
<path fill="none" stroke="#9a32cd" stroke-dasharray="5,2" d="M978.04,-149.69C997.569,-153.024 1020.63,-156.962 1041.23,-160.479"/>
<polygon fill="#9a32cd" stroke="#9a32cd" points="978.629,-146.24 968.182,-148.007 977.45,-153.14 978.629,-146.24"/>
<text text-anchor="middle" x="994" y="-157" font-family="Helvetica,sans-Serif" font-size="10.00"> ptr</text>
</g>
<!-- Node17 -->
<g id="node17" class="node"><title>Node17</title>
<polygon fill="white" stroke="#bfbfbf" points="527,-39 527,-69 649,-69 649,-39 527,-39"/>
<text text-anchor="start" x="535" y="-57" font-family="Helvetica,sans-Serif" font-size="10.00">std::unique_ptr&lt; Faction</text>
<text text-anchor="middle" x="588" y="-46" font-family="Helvetica,sans-Serif" font-size="10.00">Matrix &gt;</text>
</g>
<!-- Node17&#45;&gt;Node1 -->
<g id="edge19" class="edge"><title>Node17&#45;&gt;Node1</title>
<path fill="none" stroke="#9a32cd" stroke-dasharray="5,2" d="M659.271,-60.6926C692.752,-66.9213 731.587,-78.9178 760,-102 780.627,-118.757 791.34,-149.7 795.657,-165.369"/>
<polygon fill="#9a32cd" stroke="#9a32cd" points="659.519,-57.1838 649.07,-58.9388 658.333,-64.0826 659.519,-57.1838"/>
<text text-anchor="middle" x="720" y="-105" font-family="Helvetica,sans-Serif" font-size="10.00"> m_factionMatrix</text>
</g>
<!-- Node18 -->
<g id="node18" class="node"><title>Node18</title>
<g id="a_node18"><a xlink:href="class_faction_matrix.html" target="_top" xlink:title="FactionMatrix">
<polygon fill="white" stroke="red" points="290,-44.5 290,-63.5 366,-63.5 366,-44.5 290,-44.5"/>
<text text-anchor="middle" x="328" y="-51.5" font-family="Helvetica,sans-Serif" font-size="10.00">FactionMatrix</text>
</a>
</g>
</g>
<!-- Node18&#45;&gt;Node17 -->
<g id="edge20" class="edge"><title>Node18&#45;&gt;Node17</title>
<path fill="none" stroke="#9a32cd" stroke-dasharray="5,2" d="M376.286,-54C418.631,-54 480.941,-54 526.825,-54"/>
<polygon fill="#9a32cd" stroke="#9a32cd" points="376.24,-50.5001 366.24,-54 376.24,-57.5001 376.24,-50.5001"/>
<text text-anchor="middle" x="447" y="-57" font-family="Helvetica,sans-Serif" font-size="10.00"> ptr</text>
</g>
<!-- Node19 -->
<g id="node19" class="node"><title>Node19</title>
<polygon fill="white" stroke="#bfbfbf" points="1039.5,-72.5 1039.5,-91.5 1156.5,-91.5 1156.5,-72.5 1039.5,-72.5"/>
<text text-anchor="middle" x="1098" y="-79.5" font-family="Helvetica,sans-Serif" font-size="10.00">std::unique_ptr&lt; God &gt;</text>
</g>
<!-- Node19&#45;&gt;Node1 -->
<g id="edge21" class="edge"><title>Node19&#45;&gt;Node1</title>
<path fill="none" stroke="#9a32cd" stroke-dasharray="5,2" d="M1047.84,-70.5896C1006.3,-63.1513 945.783,-57.5587 896,-74 849.598,-89.3248 816.653,-143.35 804.818,-165.46"/>
<polygon fill="#9a32cd" stroke="#9a32cd" points="1047.24,-74.0374 1057.71,-72.4559 1048.54,-67.1592 1047.24,-74.0374"/>
<text text-anchor="middle" x="932" y="-77" font-family="Helvetica,sans-Serif" font-size="10.00"> m_god</text>
</g>
<!-- Node20&#45;&gt;Node19 -->
<g id="edge22" class="edge"><title>Node20&#45;&gt;Node19</title>
<path fill="none" stroke="#9a32cd" stroke-dasharray="5,2" d="M959.648,-100.425C981.154,-97.5403 1012.19,-93.377 1039.32,-89.7376"/>
<polygon fill="#9a32cd" stroke="#9a32cd" points="959.074,-96.9709 949.628,-101.769 960.004,-103.909 959.074,-96.9709"/>
<text text-anchor="middle" x="994" y="-100" font-family="Helvetica,sans-Serif" font-size="10.00"> ptr</text>
</g>
<!-- Node21&#45;&gt;Node1 -->
<g id="edge24" class="edge"><title>Node21&#45;&gt;Node1</title>
<path fill="none" stroke="#9a32cd" stroke-dasharray="5,2" d="M360.569,-177.24C422.051,-177.694 562.152,-178.664 680,-179 715.555,-179.101 724.493,-180.864 760,-179 765.83,-178.694 772.142,-178.126 777.915,-177.512"/>
<polygon fill="#9a32cd" stroke="#9a32cd" points="360.393,-173.739 350.367,-177.164 360.341,-180.739 360.393,-173.739"/>
<text text-anchor="middle" x="588" y="-182" font-family="Helvetica,sans-Serif" font-size="10.00"> m_player</text>
</g>
<!-- Node22 -->
<g id="node22" class="node"><title>Node22</title>
<polygon fill="white" stroke="#bfbfbf" points="0,-57.5 0,-76.5 162,-76.5 162,-57.5 0,-57.5"/>
<text text-anchor="middle" x="81" y="-64.5" font-family="Helvetica,sans-Serif" font-size="10.00">std::unique_ptr&lt; TargetSelector &gt;</text>
</g>
<!-- Node22&#45;&gt;Node21 -->
<g id="edge25" class="edge"><title>Node22&#45;&gt;Node21</title>
<path fill="none" stroke="#9a32cd" stroke-dasharray="5,2" d="M172.426,-64.518C202.776,-68.1102 234.774,-77.3466 258,-98 278.805,-116.501 256.965,-137.683 276,-158 283.817,-166.343 295.638,-171.044 305.931,-173.682"/>
<polygon fill="#9a32cd" stroke="#9a32cd" points="172.508,-61.0092 162.212,-63.5079 171.819,-67.9752 172.508,-61.0092"/>
<text text-anchor="middle" x="219" y="-101" font-family="Helvetica,sans-Serif" font-size="10.00"> m_targetSelector</text>
</g>
<!-- Node23 -->
<g id="node23" class="node"><title>Node23</title>
<polygon fill="white" stroke="#bfbfbf" points="21.5,-19.5 21.5,-38.5 140.5,-38.5 140.5,-19.5 21.5,-19.5"/>
<text text-anchor="middle" x="81" y="-26.5" font-family="Helvetica,sans-Serif" font-size="10.00">std::unique_ptr&lt; HUD &gt;</text>
</g>
<!-- Node23&#45;&gt;Node21 -->
<g id="edge26" class="edge"><title>Node23&#45;&gt;Node21</title>
<path fill="none" stroke="#9a32cd" stroke-dasharray="5,2" d="M150.695,-19.9336C187.168,-19.113 230.095,-25.1428 258,-52 292.43,-85.1369 245.539,-121.182 276,-158 283.348,-166.882 295.275,-171.613 305.748,-174.133"/>
<polygon fill="#9a32cd" stroke="#9a32cd" points="150.45,-16.4404 140.597,-20.335 150.728,-23.4349 150.45,-16.4404"/>
<text text-anchor="middle" x="219" y="-55" font-family="Helvetica,sans-Serif" font-size="10.00"> m_hud</text>
</g>
<!-- Node24 -->
<g id="node24" class="node"><title>Node24</title>
<polygon fill="white" stroke="#bfbfbf" points="3.5,-171.5 3.5,-190.5 158.5,-190.5 158.5,-171.5 3.5,-171.5"/>
<text text-anchor="middle" x="81" y="-178.5" font-family="Helvetica,sans-Serif" font-size="10.00">std::unique_ptr&lt; CameraDolly &gt;</text>
</g>
<!-- Node24&#45;&gt;Node21 -->
<g id="edge27" class="edge"><title>Node24&#45;&gt;Node21</title>
<path fill="none" stroke="#9a32cd" stroke-dasharray="5,2" d="M168.823,-178.232C172.6,-178.147 176.338,-178.068 180,-178 224.655,-177.165 276.951,-177.004 305.575,-176.986"/>
<polygon fill="#9a32cd" stroke="#9a32cd" points="168.677,-174.735 158.765,-178.476 168.847,-181.733 168.677,-174.735"/>
<text text-anchor="middle" x="219" y="-181" font-family="Helvetica,sans-Serif" font-size="10.00"> m_cameraDolly</text>
</g>
<!-- Node25 -->
<g id="node25" class="node"><title>Node25</title>
<polygon fill="white" stroke="#bfbfbf" points="18.5,-133.5 18.5,-152.5 143.5,-152.5 143.5,-133.5 18.5,-133.5"/>
<text text-anchor="middle" x="81" y="-140.5" font-family="Helvetica,sans-Serif" font-size="10.00">std::unique_ptr&lt; Aimer &gt;</text>
</g>
<!-- Node25&#45;&gt;Node21 -->
<g id="edge28" class="edge"><title>Node25&#45;&gt;Node21</title>
<path fill="none" stroke="#9a32cd" stroke-dasharray="5,2" d="M153.829,-149.733C185.808,-153.099 223.876,-157.61 258,-163 274.179,-165.556 292.325,-169.272 305.947,-172.233"/>
<polygon fill="#9a32cd" stroke="#9a32cd" points="153.98,-146.231 143.673,-148.681 153.259,-153.193 153.98,-146.231"/>
<text text-anchor="middle" x="219" y="-166" font-family="Helvetica,sans-Serif" font-size="10.00"> m_aimer</text>
</g>
<!-- Node26 -->
<g id="node26" class="node"><title>Node26</title>
<g id="a_node26"><a xlink:href="class_abstract_move.html" target="_top" xlink:title="AbstractMove">
<polygon fill="white" stroke="black" points="43,-95.5 43,-114.5 119,-114.5 119,-95.5 43,-95.5"/>
<text text-anchor="middle" x="81" y="-102.5" font-family="Helvetica,sans-Serif" font-size="10.00">AbstractMove</text>
</a>
</g>
</g>
<!-- Node26&#45;&gt;Node21 -->
<g id="edge30" class="edge"><title>Node26&#45;&gt;Node21</title>
<path fill="none" stroke="#9a32cd" stroke-dasharray="5,2" d="M129.101,-105.698C166.244,-108.095 218.233,-115.669 258,-138 268.427,-143.855 266.112,-151.274 276,-158 284.985,-164.111 296.189,-168.566 305.805,-171.619"/>
<polygon fill="#9a32cd" stroke="#9a32cd" points="129.216,-102.199 119.041,-105.151 128.836,-109.189 129.216,-102.199"/>
<text text-anchor="middle" x="219" y="-141" font-family="Helvetica,sans-Serif" font-size="10.00"> m_engineState</text>
</g>
<!-- Node27 -->
<g id="node27" class="node"><title>Node27</title>
<polygon fill="white" stroke="#bfbfbf" points="514,-0.5 514,-19.5 662,-19.5 662,-0.5 514,-0.5"/>
<text text-anchor="middle" x="588" y="-7.5" font-family="Helvetica,sans-Serif" font-size="10.00">std::unique_ptr&lt; EventPoller &gt;</text>
</g>
<!-- Node27&#45;&gt;Node1 -->
<g id="edge32" class="edge"><title>Node27&#45;&gt;Node1</title>
<path fill="none" stroke="#9a32cd" stroke-dasharray="5,2" d="M672.016,-12.9036C703.032,-17.9947 736.413,-28.833 760,-51 793.307,-82.302 797.686,-141.932 798.071,-165.281"/>
<polygon fill="#9a32cd" stroke="#9a32cd" points="672.445,-9.42925 662.044,-11.4455 671.432,-16.3556 672.445,-9.42925"/>
<text text-anchor="middle" x="720" y="-54" font-family="Helvetica,sans-Serif" font-size="10.00"> m_eventPoller</text>
</g>
<!-- Node28 -->
<g id="node28" class="node"><title>Node28</title>
<g id="a_node28"><a xlink:href="class_event_poller.html" target="_top" xlink:title="EventPoller">
<polygon fill="white" stroke="red" points="295.5,-0.5 295.5,-19.5 360.5,-19.5 360.5,-0.5 295.5,-0.5"/>
<text text-anchor="middle" x="328" y="-7.5" font-family="Helvetica,sans-Serif" font-size="10.00">EventPoller</text>
</a>
</g>
</g>
<!-- Node28&#45;&gt;Node27 -->
<g id="edge33" class="edge"><title>Node28&#45;&gt;Node27</title>
<path fill="none" stroke="#9a32cd" stroke-dasharray="5,2" d="M370.988,-10C409.616,-10 467.743,-10 513.973,-10"/>
<polygon fill="#9a32cd" stroke="#9a32cd" points="370.636,-6.5001 360.636,-10 370.636,-13.5001 370.636,-6.5001"/>
<text text-anchor="middle" x="447" y="-13" font-family="Helvetica,sans-Serif" font-size="10.00"> ptr</text>
</g>
</g>
</svg>
