<?xml version="1.0" encoding="UTF-8" standalone="no"?>
<!DOCTYPE svg PUBLIC "-//W3C//DTD SVG 1.1//EN"
 "http://www.w3.org/Graphics/SVG/1.1/DTD/svg11.dtd">
<!-- Generated by graphviz version 2.36.0 (20140111.2315)
 -->
<!-- Title: ActionKeyMapping Pages: 1 -->
<svg width="214pt" height="312pt"
 viewBox="0.00 0.00 214.00 312.00" xmlns="http://www.w3.org/2000/svg" xmlns:xlink="http://www.w3.org/1999/xlink">
<g id="graph0" class="graph" transform="scale(1 1) rotate(0) translate(4 308)">
<title>ActionKeyMapping</title>
<polygon fill="white" stroke="none" points="-4,4 -4,-308 210,-308 210,4 -4,4"/>
<!-- Node1 -->
<g id="node1" class="node"><title>Node1</title>
<polygon fill="#bfbfbf" stroke="black" points="14,-0.5 14,-19.5 112,-19.5 112,-0.5 14,-0.5"/>
<text text-anchor="middle" x="63" y="-7.5" font-family="Helvetica,sans-Serif" font-size="10.00">ActionKeyMapping</text>
</g>
<!-- Node2 -->
<g id="node2" class="node"><title>Node2</title>
<g id="a_node2"><a xlink:title="STL class. ">
<polygon fill="white" stroke="#bfbfbf" points="17,-214.5 17,-233.5 77,-233.5 77,-214.5 17,-214.5"/>
<text text-anchor="middle" x="47" y="-221.5" font-family="Helvetica,sans-Serif" font-size="10.00">std::string</text>
</a>
</g>
</g>
<!-- Node2&#45;&gt;Node1 -->
<g id="edge1" class="edge"><title>Node2&#45;&gt;Node1</title>
<path fill="none" stroke="#9a32cd" stroke-dasharray="5,2" d="M46.8803,-204.294C46.8763,-176.624 47.5307,-123.182 52,-78 54.0887,-56.8852 58.6784,-32.3393 61.2194,-19.6261"/>
<polygon fill="#9a32cd" stroke="#9a32cd" points="43.3808,-204.487 46.9132,-214.476 50.3808,-204.465 43.3808,-204.487"/>
<text text-anchor="middle" x="70.5" y="-119.5" font-family="Helvetica,sans-Serif" font-size="10.00"> m_name</text>
</g>
<!-- Node5 -->
<g id="node5" class="node"><title>Node5</title>
<g id="a_node5"><a xlink:href="class_property_impl.html" target="_top" xlink:title="PropertyImpl\&lt; InputMapping \&gt;">
<polygon fill="white" stroke="red" points="59.5,-146.5 59.5,-165.5 206.5,-165.5 206.5,-146.5 59.5,-146.5"/>
<text text-anchor="middle" x="133" y="-153.5" font-family="Helvetica,sans-Serif" font-size="10.00">PropertyImpl&lt; InputMapping &gt;</text>
</a>
</g>
</g>
<!-- Node2&#45;&gt;Node5 -->
<g id="edge5" class="edge"><title>Node2&#45;&gt;Node5</title>
<path fill="none" stroke="#9a32cd" stroke-dasharray="5,2" d="M66.4202,-208.096C83.4833,-195.001 107.718,-176.403 121.754,-165.63"/>
<polygon fill="#9a32cd" stroke="#9a32cd" points="64.0452,-205.507 58.243,-214.372 68.307,-211.06 64.0452,-205.507"/>
<text text-anchor="middle" x="118.5" y="-187.5" font-family="Helvetica,sans-Serif" font-size="10.00"> m_name</text>
</g>
<!-- Node3 -->
<g id="node3" class="node"><title>Node3</title>
<g id="a_node3"><a xlink:title="STL class. ">
<polygon fill="white" stroke="#bfbfbf" points="-0.5,-273 -0.5,-303 94.5,-303 94.5,-273 -0.5,-273"/>
<text text-anchor="start" x="7.5" y="-291" font-family="Helvetica,sans-Serif" font-size="10.00">std::basic_string&lt;</text>
<text text-anchor="middle" x="47" y="-280" font-family="Helvetica,sans-Serif" font-size="10.00"> char &gt;</text>
</a>
</g>
</g>
<!-- Node3&#45;&gt;Node2 -->
<g id="edge2" class="edge"><title>Node3&#45;&gt;Node2</title>
<path fill="none" stroke="midnightblue" d="M47,-262.871C47,-252.663 47,-241.408 47,-233.842"/>
<polygon fill="midnightblue" stroke="midnightblue" points="43.5001,-262.931 47,-272.931 50.5001,-262.931 43.5001,-262.931"/>
</g>
<!-- Node4 -->
<g id="node4" class="node"><title>Node4</title>
<g id="a_node4"><a xlink:href="class_property.html" target="_top" xlink:title="Property\&lt; InputMapping \&gt;">
<polygon fill="white" stroke="black" points="61.5,-78.5 61.5,-97.5 190.5,-97.5 190.5,-78.5 61.5,-78.5"/>
<text text-anchor="middle" x="126" y="-85.5" font-family="Helvetica,sans-Serif" font-size="10.00">Property&lt; InputMapping &gt;</text>
</a>
</g>
</g>
<!-- Node4&#45;&gt;Node1 -->
<g id="edge3" class="edge"><title>Node4&#45;&gt;Node1</title>
<path fill="none" stroke="#9a32cd" stroke-dasharray="5,2" d="M112.274,-70.4421C99.3011,-54.7918 80.3483,-31.9282 70.1426,-19.6165"/>
<polygon fill="#9a32cd" stroke="#9a32cd" points="109.697,-72.8167 118.773,-78.2818 115.086,-68.3493 109.697,-72.8167"/>
<text text-anchor="middle" x="150" y="-52" font-family="Helvetica,sans-Serif" font-size="10.00"> m_primaryMapping</text>
<text text-anchor="middle" x="150" y="-41" font-family="Helvetica,sans-Serif" font-size="10.00">m_secondaryMapping</text>
</g>
<!-- Node5&#45;&gt;Node4 -->
<g id="edge4" class="edge"><title>Node5&#45;&gt;Node4</title>
<path fill="none" stroke="#9a32cd" stroke-dasharray="5,2" d="M131.03,-136.425C129.691,-123.798 127.979,-107.662 126.938,-97.8411"/>
<polygon fill="#9a32cd" stroke="#9a32cd" points="127.55,-136.797 132.085,-146.372 134.511,-136.058 127.55,-136.797"/>
<text text-anchor="middle" x="147.5" y="-119.5" font-family="Helvetica,sans-Serif" font-size="10.00"> m_impl</text>
</g>
</g>
</svg>
