<?xml version="1.0" encoding="UTF-8" standalone="no"?>
<!DOCTYPE svg PUBLIC "-//W3C//DTD SVG 1.1//EN"
 "http://www.w3.org/Graphics/SVG/1.1/DTD/svg11.dtd">
<!-- Generated by graphviz version 2.36.0 (20140111.2315)
 -->
<!-- Title: GamePlayRunning Pages: 1 -->
<svg width="972pt" height="351pt"
 viewBox="0.00 0.00 972.00 351.27" xmlns="http://www.w3.org/2000/svg" xmlns:xlink="http://www.w3.org/1999/xlink">
<g id="graph0" class="graph" transform="scale(1 1) rotate(0) translate(4 347.268)">
<title>GamePlayRunning</title>
<polygon fill="white" stroke="none" points="-4,4 -4,-347.268 968,-347.268 968,4 -4,4"/>
<!-- Node1 -->
<g id="node1" class="node"><title>Node1</title>
<polygon fill="#bfbfbf" stroke="black" points="449,-57.6175 449,-76.6175 547,-76.6175 547,-57.6175 449,-57.6175"/>
<text text-anchor="middle" x="498" y="-64.6175" font-family="Helvetica,sans-Serif" font-size="10.00">GamePlayRunning</text>
</g>
<!-- Node4 -->
<g id="node4" class="node"><title>Node4</title>
<g id="a_node4"><a xlink:href="class_game_play.html" target="_top" xlink:title="GamePlay">
<polygon fill="white" stroke="black" points="698,-139.617 698,-158.617 760,-158.617 760,-139.617 698,-139.617"/>
<text text-anchor="middle" x="729" y="-146.617" font-family="Helvetica,sans-Serif" font-size="10.00">GamePlay</text>
</a>
</g>
</g>
<!-- Node1&#45;&gt;Node4 -->
<g id="edge13" class="edge"><title>Node1&#45;&gt;Node4</title>
<path fill="none" stroke="#9a32cd" stroke-dasharray="5,2" d="M557.398,-69.3068C594.356,-72.7557 642.133,-81.1361 680,-101.117 697.511,-110.357 712.71,-128.142 721.091,-139.277"/>
<polygon fill="#9a32cd" stroke="#9a32cd" points="557.536,-65.8062 547.278,-68.4593 556.951,-72.7818 557.536,-65.8062"/>
<text text-anchor="middle" x="638" y="-104.117" font-family="Helvetica,sans-Serif" font-size="10.00"> m_runningState</text>
</g>
<!-- Node2 -->
<g id="node2" class="node"><title>Node2</title>
<g id="a_node2"><a xlink:href="class_game_state.html" target="_top" xlink:title="GameState">
<polygon fill="white" stroke="black" points="207,-215.617 207,-234.617 273,-234.617 273,-215.617 207,-215.617"/>
<text text-anchor="middle" x="240" y="-222.617" font-family="Helvetica,sans-Serif" font-size="10.00">GameState</text>
</a>
</g>
</g>
<!-- Node2&#45;&gt;Node1 -->
<g id="edge1" class="edge"><title>Node2&#45;&gt;Node1</title>
<path fill="none" stroke="midnightblue" d="M257.697,-207.821C287.216,-178.275 351.781,-118.176 418,-86.1175 427.523,-81.5073 438.246,-77.9677 448.65,-75.2669"/>
<polygon fill="midnightblue" stroke="midnightblue" points="254.856,-205.717 250.328,-215.295 259.841,-210.631 254.856,-205.717"/>
</g>
<!-- Node2&#45;&gt;Node2 -->
<g id="edge4" class="edge"><title>Node2&#45;&gt;Node2</title>
<path fill="none" stroke="#9a32cd" stroke-dasharray="5,2" d="M222.593,-244.517C223.756,-249.432 229.558,-253.117 240,-253.117 256.707,-253.117 261.536,-243.683 254.488,-234.875"/>
<polygon fill="#9a32cd" stroke="#9a32cd" points="225.965,-245.46 225.512,-234.875 219.265,-243.432 225.965,-245.46"/>
<text text-anchor="middle" x="240" y="-256.117" font-family="Helvetica,sans-Serif" font-size="10.00"> m_parentGameState</text>
</g>
<!-- Node2&#45;&gt;Node4 -->
<g id="edge6" class="edge"><title>Node2&#45;&gt;Node4</title>
<path fill="none" stroke="midnightblue" d="M283.367,-219.134C393.448,-203.587 680,-163.117 680,-163.117 685.855,-161.857 692.041,-160.259 697.955,-158.597"/>
<polygon fill="midnightblue" stroke="midnightblue" points="282.693,-215.694 273.281,-220.558 283.672,-222.626 282.693,-215.694"/>
</g>
<!-- Node5 -->
<g id="node5" class="node"><title>Node5</title>
<g id="a_node5"><a xlink:href="class_game.html" target="_top" xlink:title="Game">
<polygon fill="white" stroke="red" points="894.5,-207.617 894.5,-226.617 937.5,-226.617 937.5,-207.617 894.5,-207.617"/>
<text text-anchor="middle" x="916" y="-214.617" font-family="Helvetica,sans-Serif" font-size="10.00">Game</text>
</a>
</g>
</g>
<!-- Node2&#45;&gt;Node5 -->
<g id="edge8" class="edge"><title>Node2&#45;&gt;Node5</title>
<path fill="none" stroke="midnightblue" d="M258.435,-241.737C274.529,-255.843 299.834,-275.041 326,-283.117 548.529,-351.806 635.18,-373.061 850,-283.117 877.592,-271.565 899.402,-241.959 909.267,-226.632"/>
<polygon fill="midnightblue" stroke="midnightblue" points="260.662,-239.032 250.902,-234.91 255.962,-244.219 260.662,-239.032"/>
</g>
<!-- Node9 -->
<g id="node9" class="node"><title>Node9</title>
<g id="a_node9"><a xlink:href="class_game_play_paused.html" target="_top" xlink:title="GamePlayPaused">
<polygon fill="white" stroke="black" points="868.5,-122.617 868.5,-141.617 963.5,-141.617 963.5,-122.617 868.5,-122.617"/>
<text text-anchor="middle" x="916" y="-129.617" font-family="Helvetica,sans-Serif" font-size="10.00">GamePlayPaused</text>
</a>
</g>
</g>
<!-- Node2&#45;&gt;Node9 -->
<g id="edge15" class="edge"><title>Node2&#45;&gt;Node9</title>
<path fill="none" stroke="midnightblue" d="M277.45,-237.931C377.986,-270.833 664.054,-347.754 850,-230.117 863.79,-221.393 859.255,-211.894 868,-198.117 881.117,-177.453 898.116,-154.389 907.66,-141.734"/>
<polygon fill="midnightblue" stroke="midnightblue" points="278.354,-234.543 267.76,-234.706 276.144,-241.185 278.354,-234.543"/>
</g>
<!-- Node3 -->
<g id="node3" class="node"><title>Node3</title>
<g id="a_node3"><a xlink:href="class_state.html" target="_top" xlink:title="State">
<polygon fill="white" stroke="red" points="40,-215.617 40,-234.617 80,-234.617 80,-215.617 40,-215.617"/>
<text text-anchor="middle" x="60" y="-222.617" font-family="Helvetica,sans-Serif" font-size="10.00">State</text>
</a>
</g>
</g>
<!-- Node3&#45;&gt;Node2 -->
<g id="edge2" class="edge"><title>Node3&#45;&gt;Node2</title>
<path fill="none" stroke="midnightblue" d="M90.1361,-225.117C122.229,-225.117 173.681,-225.117 206.907,-225.117"/>
<polygon fill="midnightblue" stroke="midnightblue" points="90.0492,-221.618 80.0491,-225.117 90.0491,-228.618 90.0492,-221.618"/>
</g>
<!-- Node3&#45;&gt;Node3 -->
<g id="edge3" class="edge"><title>Node3&#45;&gt;Node3</title>
<path fill="none" stroke="#9a32cd" stroke-dasharray="5,2" d="M44.0749,-244.517C45.1384,-249.432 50.4468,-253.117 60,-253.117 75.2852,-253.117 79.7035,-243.683 73.2551,-234.875"/>
<polygon fill="#9a32cd" stroke="#9a32cd" points="47.4494,-245.446 46.7449,-234.875 40.7032,-243.578 47.4494,-245.446"/>
<text text-anchor="middle" x="60" y="-289.117" font-family="Helvetica,sans-Serif" font-size="10.00"> m_currentSubState</text>
<text text-anchor="middle" x="60" y="-278.117" font-family="Helvetica,sans-Serif" font-size="10.00">m_initialSubState</text>
<text text-anchor="middle" x="60" y="-267.117" font-family="Helvetica,sans-Serif" font-size="10.00">m_finalSubState</text>
<text text-anchor="middle" x="60" y="-256.117" font-family="Helvetica,sans-Serif" font-size="10.00">m_parentState</text>
</g>
<!-- Node4&#45;&gt;Node1 -->
<g id="edge5" class="edge"><title>Node4&#45;&gt;Node1</title>
<path fill="none" stroke="#9a32cd" stroke-dasharray="5,2" d="M724.988,-129.306C720.164,-105.322 708.194,-65.9346 680,-48.1175 629.251,-16.0473 554.13,-42.0473 518.769,-57.5851"/>
<polygon fill="#9a32cd" stroke="#9a32cd" points="721.585,-130.161 726.778,-139.395 728.477,-128.938 721.585,-130.161"/>
<text text-anchor="middle" x="638" y="-51.1175" font-family="Helvetica,sans-Serif" font-size="10.00"> m_gamePlay</text>
</g>
<!-- Node4&#45;&gt;Node5 -->
<g id="edge9" class="edge"><title>Node4&#45;&gt;Node5</title>
<path fill="none" stroke="#9a32cd" stroke-dasharray="5,2" d="M743.424,-166.434C752.164,-176.449 764.437,-188.369 778,-195.117 815.959,-214.003 866.478,-217.32 894.346,-217.548"/>
<polygon fill="#9a32cd" stroke="#9a32cd" points="746.034,-164.098 736.962,-158.625 740.641,-168.561 746.034,-164.098"/>
<text text-anchor="middle" x="814" y="-218.117" font-family="Helvetica,sans-Serif" font-size="10.00"> m_gamePlay</text>
</g>
<!-- Node4&#45;&gt;Node9 -->
<g id="edge16" class="edge"><title>Node4&#45;&gt;Node9</title>
<path fill="none" stroke="#9a32cd" stroke-dasharray="5,2" d="M770.269,-145.417C799.106,-142.767 838.019,-139.191 868.233,-136.415"/>
<polygon fill="#9a32cd" stroke="#9a32cd" points="769.773,-141.948 760.135,-146.348 770.414,-148.918 769.773,-141.948"/>
<text text-anchor="middle" x="814" y="-148.117" font-family="Helvetica,sans-Serif" font-size="10.00"> m_gamePlay</text>
</g>
<!-- Node5&#45;&gt;Node4 -->
<g id="edge7" class="edge"><title>Node5&#45;&gt;Node4</title>
<path fill="none" stroke="#9a32cd" stroke-dasharray="5,2" d="M889.456,-202.759C877.678,-196.504 863.371,-189.408 850,-184.117 820.135,-172.3 784.694,-162.449 760.106,-156.24"/>
<polygon fill="#9a32cd" stroke="#9a32cd" points="887.833,-205.86 898.293,-207.545 891.166,-199.705 887.833,-205.86"/>
<text text-anchor="middle" x="814" y="-187.117" font-family="Helvetica,sans-Serif" font-size="10.00"> m_game</text>
</g>
<!-- Node6 -->
<g id="node6" class="node"><title>Node6</title>
<polygon fill="white" stroke="#bfbfbf" points="430,-210.117 430,-240.117 566,-240.117 566,-210.117 430,-210.117"/>
<text text-anchor="start" x="438" y="-228.117" font-family="Helvetica,sans-Serif" font-size="10.00">std::unique_ptr&lt; GamePlay</text>
<text text-anchor="middle" x="498" y="-217.117" font-family="Helvetica,sans-Serif" font-size="10.00">Scene &gt;</text>
</g>
<!-- Node6&#45;&gt;Node4 -->
<g id="edge10" class="edge"><title>Node6&#45;&gt;Node4</title>
<path fill="none" stroke="#9a32cd" stroke-dasharray="5,2" d="M576.17,-222.472C609.522,-218.817 648.123,-211.078 680,-195.117 697.133,-186.54 712.229,-169.744 720.726,-158.996"/>
<polygon fill="#9a32cd" stroke="#9a32cd" points="575.608,-219.011 566.002,-223.48 576.298,-225.977 575.608,-219.011"/>
<text text-anchor="middle" x="638" y="-223.117" font-family="Helvetica,sans-Serif" font-size="10.00"> m_scene</text>
</g>
<!-- Node7 -->
<g id="node7" class="node"><title>Node7</title>
<polygon fill="white" stroke="#bfbfbf" points="418,-133.617 418,-152.617 578,-152.617 578,-133.617 418,-133.617"/>
<text text-anchor="middle" x="498" y="-140.617" font-family="Helvetica,sans-Serif" font-size="10.00">std::unique_ptr&lt; BaseScenario &gt;</text>
</g>
<!-- Node7&#45;&gt;Node4 -->
<g id="edge11" class="edge"><title>Node7&#45;&gt;Node4</title>
<path fill="none" stroke="#9a32cd" stroke-dasharray="5,2" d="M588.402,-145.46C627.131,-146.475 669.888,-147.595 697.748,-148.325"/>
<polygon fill="#9a32cd" stroke="#9a32cd" points="588.218,-141.954 578.129,-145.191 588.034,-148.952 588.218,-141.954"/>
<text text-anchor="middle" x="638" y="-151.117" font-family="Helvetica,sans-Serif" font-size="10.00"> m_scenario</text>
</g>
<!-- Node8 -->
<g id="node8" class="node"><title>Node8</title>
<polygon fill="white" stroke="#bfbfbf" points="434.5,-95.6175 434.5,-114.617 561.5,-114.617 561.5,-95.6175 434.5,-95.6175"/>
<text text-anchor="middle" x="498" y="-102.617" font-family="Helvetica,sans-Serif" font-size="10.00">std::unique_ptr&lt; Player &gt;</text>
</g>
<!-- Node8&#45;&gt;Node4 -->
<g id="edge12" class="edge"><title>Node8&#45;&gt;Node4</title>
<path fill="none" stroke="#9a32cd" stroke-dasharray="5,2" d="M571.764,-111.934C605.083,-115.98 644.883,-122.124 680,-131.117 688.449,-133.281 697.464,-136.426 705.373,-139.484"/>
<polygon fill="#9a32cd" stroke="#9a32cd" points="571.984,-108.436 561.644,-110.745 571.167,-115.388 571.984,-108.436"/>
<text text-anchor="middle" x="638" y="-134.117" font-family="Helvetica,sans-Serif" font-size="10.00"> m_player</text>
</g>
<!-- Node9&#45;&gt;Node4 -->
<g id="edge14" class="edge"><title>Node9&#45;&gt;Node4</title>
<path fill="none" stroke="#9a32cd" stroke-dasharray="5,2" d="M878.351,-119.781C850.316,-112.255 810.995,-105.869 778,-116.117 763.32,-120.677 749.151,-131.456 740.061,-139.461"/>
<polygon fill="#9a32cd" stroke="#9a32cd" points="877.559,-123.194 888.136,-122.576 879.482,-116.464 877.559,-123.194"/>
<text text-anchor="middle" x="814" y="-119.117" font-family="Helvetica,sans-Serif" font-size="10.00"> m_pausedState</text>
</g>
<!-- Node10 -->
<g id="node10" class="node"><title>Node10</title>
<g id="a_node10"><a xlink:href="class_key_trigger.html" target="_top" xlink:title="KeyTrigger">
<polygon fill="white" stroke="red" points="208.5,-14.6175 208.5,-33.6175 271.5,-33.6175 271.5,-14.6175 208.5,-14.6175"/>
<text text-anchor="middle" x="240" y="-21.6175" font-family="Helvetica,sans-Serif" font-size="10.00">KeyTrigger</text>
</a>
</g>
</g>
<!-- Node10&#45;&gt;Node1 -->
<g id="edge18" class="edge"><title>Node10&#45;&gt;Node1</title>
<path fill="none" stroke="#9a32cd" stroke-dasharray="5,2" d="M281.71,-30.9554C327.155,-38.5888 400.636,-50.9314 448.887,-59.0359"/>
<polygon fill="#9a32cd" stroke="#9a32cd" points="282.067,-27.4665 271.625,-29.2616 280.907,-34.3698 282.067,-27.4665"/>
<text text-anchor="middle" x="363" y="-54.1175" font-family="Helvetica,sans-Serif" font-size="10.00"> m_pauseTrigger</text>
</g>
<!-- Node10&#45;&gt;Node9 -->
<g id="edge17" class="edge"><title>Node10&#45;&gt;Node9</title>
<path fill="none" stroke="#9a32cd" stroke-dasharray="5,2" d="M281.527,-17.2364C359.768,-5.33191 536.566,14.8365 680,-18.1175 770.156,-38.8309 865.853,-98.9234 901.01,-122.481"/>
<polygon fill="#9a32cd" stroke="#9a32cd" points="280.938,-13.7859 271.596,-18.7843 282.016,-20.7024 280.938,-13.7859"/>
<text text-anchor="middle" x="638" y="-21.1175" font-family="Helvetica,sans-Serif" font-size="10.00"> m_continueTrigger</text>
</g>
<!-- Node11 -->
<g id="node11" class="node"><title>Node11</title>
<polygon fill="white" stroke="#bfbfbf" points="172,-65.1175 172,-95.1175 308,-95.1175 308,-65.1175 172,-65.1175"/>
<text text-anchor="start" x="180" y="-83.1175" font-family="Helvetica,sans-Serif" font-size="10.00">std::unique_ptr&lt; GamePlay</text>
<text text-anchor="middle" x="240" y="-72.1175" font-family="Helvetica,sans-Serif" font-size="10.00">RunningInput &gt;</text>
</g>
<!-- Node11&#45;&gt;Node1 -->
<g id="edge19" class="edge"><title>Node11&#45;&gt;Node1</title>
<path fill="none" stroke="#9a32cd" stroke-dasharray="5,2" d="M318.286,-76.1928C360.729,-74.0375 412.047,-71.4315 448.783,-69.566"/>
<polygon fill="#9a32cd" stroke="#9a32cd" points="318.071,-72.6991 308.261,-76.7019 318.426,-79.6901 318.071,-72.6991"/>
<text text-anchor="middle" x="363" y="-79.1175" font-family="Helvetica,sans-Serif" font-size="10.00"> m_input</text>
</g>
<!-- Node12 -->
<g id="node12" class="node"><title>Node12</title>
<g id="a_node12"><a xlink:href="class_game_play_running_input.html" target="_top" xlink:title="GamePlayRunningInput">
<polygon fill="white" stroke="red" points="0.5,-70.6175 0.5,-89.6175 119.5,-89.6175 119.5,-70.6175 0.5,-70.6175"/>
<text text-anchor="middle" x="60" y="-77.6175" font-family="Helvetica,sans-Serif" font-size="10.00">GamePlayRunningInput</text>
</a>
</g>
</g>
<!-- Node12&#45;&gt;Node11 -->
<g id="edge20" class="edge"><title>Node12&#45;&gt;Node11</title>
<path fill="none" stroke="#9a32cd" stroke-dasharray="5,2" d="M130.135,-80.1175C143.881,-80.1175 158.293,-80.1175 171.966,-80.1175"/>
<polygon fill="#9a32cd" stroke="#9a32cd" points="129.777,-76.6176 119.777,-80.1175 129.777,-83.6176 129.777,-76.6176"/>
<text text-anchor="middle" x="146" y="-83.1175" font-family="Helvetica,sans-Serif" font-size="10.00"> ptr</text>
</g>
</g>
</svg>
