<?xml version="1.0" encoding="UTF-8" standalone="no"?>
<!DOCTYPE svg PUBLIC "-//W3C//DTD SVG 1.1//EN"
 "http://www.w3.org/Graphics/SVG/1.1/DTD/svg11.dtd">
<!-- Generated by graphviz version 2.36.0 (20140111.2315)
 -->
<!-- Title: PoliceFaction Pages: 1 -->
<svg width="107pt" height="164pt"
 viewBox="0.00 0.00 107.00 164.00" xmlns="http://www.w3.org/2000/svg" xmlns:xlink="http://www.w3.org/1999/xlink">
<g id="graph0" class="graph" transform="scale(1 1) rotate(0) translate(4 160)">
<title>PoliceFaction</title>
<polygon fill="white" stroke="none" points="-4,4 -4,-160 103,-160 103,4 -4,4"/>
<!-- Node1 -->
<g id="node1" class="node"><title>Node1</title>
<polygon fill="#bfbfbf" stroke="black" points="0,-0.5 0,-19.5 76,-19.5 76,-0.5 0,-0.5"/>
<text text-anchor="middle" x="38" y="-7.5" font-family="Helvetica,sans-Serif" font-size="10.00">PoliceFaction</text>
</g>
<!-- Node2 -->
<g id="node2" class="node"><title>Node2</title>
<g id="a_node2"><a xlink:href="class_faction.html" target="_top" xlink:title="Faction">
<polygon fill="white" stroke="black" points="13.5,-58.5 13.5,-77.5 62.5,-77.5 62.5,-58.5 13.5,-58.5"/>
<text text-anchor="middle" x="38" y="-65.5" font-family="Helvetica,sans-Serif" font-size="10.00">Faction</text>
</a>
</g>
</g>
<!-- Node2&#45;&gt;Node1 -->
<g id="edge1" class="edge"><title>Node2&#45;&gt;Node1</title>
<path fill="none" stroke="midnightblue" d="M38,-47.953C38,-38.2875 38,-27.0312 38,-19.5052"/>
<polygon fill="midnightblue" stroke="midnightblue" points="34.5001,-48.25 38,-58.25 41.5001,-48.25 34.5001,-48.25"/>
</g>
<!-- Node3 -->
<g id="node3" class="node"><title>Node3</title>
<g id="a_node3"><a xlink:title="STL class. ">
<polygon fill="white" stroke="#bfbfbf" points="8,-136.5 8,-155.5 68,-155.5 68,-136.5 8,-136.5"/>
<text text-anchor="middle" x="38" y="-143.5" font-family="Helvetica,sans-Serif" font-size="10.00">std::string</text>
</a>
</g>
</g>
<!-- Node3&#45;&gt;Node2 -->
<g id="edge2" class="edge"><title>Node3&#45;&gt;Node2</title>
<path fill="none" stroke="#9a32cd" stroke-dasharray="5,2" d="M38,-126.224C38,-110.697 38,-89.3582 38,-77.6165"/>
<polygon fill="#9a32cd" stroke="#9a32cd" points="34.5001,-126.282 38,-136.282 41.5001,-126.282 34.5001,-126.282"/>
<text text-anchor="middle" x="68.5" y="-110" font-family="Helvetica,sans-Serif" font-size="10.00"> m_printName</text>
<text text-anchor="middle" x="68.5" y="-99" font-family="Helvetica,sans-Serif" font-size="10.00">m_key</text>
</g>
</g>
</svg>
