<?xml version="1.0" encoding="UTF-8" standalone="no"?>
<!DOCTYPE svg PUBLIC "-//W3C//DTD SVG 1.1//EN"
 "http://www.w3.org/Graphics/SVG/1.1/DTD/svg11.dtd">
<!-- Generated by graphviz version 2.36.0 (20140111.2315)
 -->
<!-- Title: WorldLogic Pages: 1 -->
<svg width="1357pt" height="722pt"
 viewBox="0.00 0.00 1356.50 722.00" xmlns="http://www.w3.org/2000/svg" xmlns:xlink="http://www.w3.org/1999/xlink">
<g id="graph0" class="graph" transform="scale(1 1) rotate(0) translate(4 718)">
<title>WorldLogic</title>
<polygon fill="white" stroke="none" points="-4,4 -4,-718 1352.5,-718 1352.5,4 -4,4"/>
<!-- Node1 -->
<g id="node1" class="node"><title>Node1</title>
<polygon fill="#bfbfbf" stroke="black" points="908.5,-458.5 908.5,-477.5 973.5,-477.5 973.5,-458.5 908.5,-458.5"/>
<text text-anchor="middle" x="941" y="-465.5" font-family="Helvetica,sans-Serif" font-size="10.00">WorldLogic</text>
</g>
<!-- Node29 -->
<g id="node29" class="node"><title>Node29</title>
<polygon fill="white" stroke="#bfbfbf" points="1034,-554.5 1034,-573.5 1182,-573.5 1182,-554.5 1034,-554.5"/>
<text text-anchor="middle" x="1108" y="-561.5" font-family="Helvetica,sans-Serif" font-size="10.00">std::unique_ptr&lt; WorldLogic &gt;</text>
</g>
<!-- Node1&#45;&gt;Node29 -->
<g id="edge36" class="edge"><title>Node1&#45;&gt;Node29</title>
<path fill="none" stroke="#9a32cd" stroke-dasharray="5,2" d="M951.325,-486.683C960.463,-503.025 975.931,-526.107 996,-539 1007.38,-546.314 1020.62,-551.504 1033.91,-555.182"/>
<polygon fill="#9a32cd" stroke="#9a32cd" points="954.247,-484.723 946.469,-477.53 948.064,-488.004 954.247,-484.723"/>
<text text-anchor="middle" x="1004" y="-549" font-family="Helvetica,sans-Serif" font-size="10.00"> ptr</text>
</g>
<!-- Node2 -->
<g id="node2" class="node"><title>Node2</title>
<g id="a_node2"><a xlink:href="class_voxel_hangman.html" target="_top" xlink:title="VoxelHangman">
<polygon fill="white" stroke="black" points="629.5,-280.5 629.5,-299.5 712.5,-299.5 712.5,-280.5 629.5,-280.5"/>
<text text-anchor="middle" x="671" y="-287.5" font-family="Helvetica,sans-Serif" font-size="10.00">VoxelHangman</text>
</a>
</g>
</g>
<!-- Node2&#45;&gt;Node1 -->
<g id="edge1" class="edge"><title>Node2&#45;&gt;Node1</title>
<path fill="none" stroke="#9a32cd" stroke-dasharray="5,2" d="M722.737,-289.027C770.122,-290.767 840.227,-300.468 886,-339 924.076,-371.053 935.799,-434.493 938.958,-458.497"/>
<polygon fill="#9a32cd" stroke="#9a32cd" points="722.78,-285.527 712.692,-288.765 722.597,-292.525 722.78,-285.527"/>
<text text-anchor="middle" x="821" y="-342" font-family="Helvetica,sans-Serif" font-size="10.00"> m_voxelHangman</text>
</g>
<!-- Node3 -->
<g id="node3" class="node"><title>Node3</title>
<g id="a_node3"><a xlink:href="class_splitter.html" target="_top" xlink:title="Splitter">
<polygon fill="white" stroke="black" points="647.5,-534.5 647.5,-553.5 694.5,-553.5 694.5,-534.5 647.5,-534.5"/>
<text text-anchor="middle" x="671" y="-541.5" font-family="Helvetica,sans-Serif" font-size="10.00">Splitter</text>
</a>
</g>
</g>
<!-- Node3&#45;&gt;Node1 -->
<g id="edge2" class="edge"><title>Node3&#45;&gt;Node1</title>
<path fill="none" stroke="#9a32cd" stroke-dasharray="5,2" d="M704.957,-544.975C748.375,-545.037 826.222,-540.869 886,-514 904.871,-505.518 922.23,-488.358 931.934,-477.563"/>
<polygon fill="#9a32cd" stroke="#9a32cd" points="704.724,-541.472 694.692,-544.879 704.659,-548.472 704.724,-541.472"/>
<text text-anchor="middle" x="821" y="-546" font-family="Helvetica,sans-Serif" font-size="10.00"> m_splitter</text>
</g>
<!-- Node4 -->
<g id="node4" class="node"><title>Node4</title>
<polygon fill="white" stroke="#bfbfbf" points="277,-549.5 277,-568.5 405,-568.5 405,-549.5 277,-549.5"/>
<text text-anchor="middle" x="341" y="-556.5" font-family="Helvetica,sans-Serif" font-size="10.00">std::list&lt; WorldObject * &gt;</text>
</g>
<!-- Node4&#45;&gt;Node3 -->
<g id="edge3" class="edge"><title>Node4&#45;&gt;Node3</title>
<path fill="none" stroke="#9a32cd" stroke-dasharray="5,2" d="M415.333,-558.163C463.811,-557.297 528.741,-555.544 586,-552 606.762,-550.715 630.336,-548.394 647.215,-546.582"/>
<polygon fill="#9a32cd" stroke="#9a32cd" points="415.186,-554.665 405.247,-558.334 415.305,-561.664 415.186,-554.665"/>
<text text-anchor="middle" x="516" y="-560" font-family="Helvetica,sans-Serif" font-size="10.00"> m_splitOffWorldObjects</text>
</g>
<!-- Node15 -->
<g id="node15" class="node"><title>Node15</title>
<g id="a_node15"><a xlink:href="class_voxel_collision_accumulator.html" target="_top" xlink:title="VoxelCollisionAccumulator">
<polygon fill="white" stroke="black" points="604.5,-496.5 604.5,-515.5 737.5,-515.5 737.5,-496.5 604.5,-496.5"/>
<text text-anchor="middle" x="671" y="-503.5" font-family="Helvetica,sans-Serif" font-size="10.00">VoxelCollisionAccumulator</text>
</a>
</g>
</g>
<!-- Node4&#45;&gt;Node15 -->
<g id="edge16" class="edge"><title>Node4&#45;&gt;Node15</title>
<path fill="none" stroke="#9a32cd" stroke-dasharray="5,2" d="M399.526,-547.472C414.623,-544.574 430.903,-541.562 446,-539 461.381,-536.389 543.824,-524.327 604.242,-515.538"/>
<polygon fill="#9a32cd" stroke="#9a32cd" points="398.445,-544.116 389.293,-549.453 399.776,-550.988 398.445,-544.116"/>
<text text-anchor="middle" x="516" y="-542" font-family="Helvetica,sans-Serif" font-size="10.00"> m_worldObjects</text>
</g>
<!-- Node25 -->
<g id="node25" class="node"><title>Node25</title>
<g id="a_node25"><a xlink:href="class_garbage_collector.html" target="_top" xlink:title="GarbageCollector">
<polygon fill="white" stroke="black" points="625,-572.5 625,-591.5 717,-591.5 717,-572.5 625,-572.5"/>
<text text-anchor="middle" x="671" y="-579.5" font-family="Helvetica,sans-Serif" font-size="10.00">GarbageCollector</text>
</a>
</g>
</g>
<!-- Node4&#45;&gt;Node25 -->
<g id="edge30" class="edge"><title>Node4&#45;&gt;Node25</title>
<path fill="none" stroke="#9a32cd" stroke-dasharray="5,2" d="M415.36,-568.912C425.636,-570.084 436.073,-571.159 446,-572 507.868,-577.239 579.597,-579.832 624.882,-581.042"/>
<polygon fill="#9a32cd" stroke="#9a32cd" points="415.503,-565.405 405.162,-567.713 414.685,-572.357 415.503,-565.405"/>
<text text-anchor="middle" x="516" y="-582" font-family="Helvetica,sans-Serif" font-size="10.00"> m_garbageVoxelClusters</text>
</g>
<!-- Node5 -->
<g id="node5" class="node"><title>Node5</title>
<g id="a_node5"><a xlink:href="class_world_object.html" target="_top" xlink:title="WorldObject">
<polygon fill="white" stroke="red" points="30.5,-487.5 30.5,-506.5 101.5,-506.5 101.5,-487.5 30.5,-487.5"/>
<text text-anchor="middle" x="66" y="-494.5" font-family="Helvetica,sans-Serif" font-size="10.00">WorldObject</text>
</a>
</g>
</g>
<!-- Node5&#45;&gt;Node4 -->
<g id="edge4" class="edge"><title>Node5&#45;&gt;Node4</title>
<path fill="none" stroke="#9a32cd" stroke-dasharray="5,2" d="M111.443,-507.093C163.072,-518.818 247.606,-538.017 298.117,-549.488"/>
<polygon fill="#9a32cd" stroke="#9a32cd" points="112.102,-503.654 101.576,-504.852 110.552,-510.48 112.102,-503.654"/>
<text text-anchor="middle" x="193" y="-538" font-family="Helvetica,sans-Serif" font-size="10.00"> elements</text>
</g>
<!-- Node12 -->
<g id="node12" class="node"><title>Node12</title>
<polygon fill="white" stroke="#bfbfbf" points="269,-310 269,-340 413,-340 413,-310 269,-310"/>
<text text-anchor="start" x="277" y="-328" font-family="Helvetica,sans-Serif" font-size="10.00">std::map&lt; WorldObject</text>
<text text-anchor="middle" x="341" y="-317" font-family="Helvetica,sans-Serif" font-size="10.00"> *, WorldObjectModification &gt;</text>
</g>
<!-- Node5&#45;&gt;Node12 -->
<g id="edge12" class="edge"><title>Node5&#45;&gt;Node12</title>
<path fill="none" stroke="#9a32cd" stroke-dasharray="5,2" d="M70.8388,-477.562C78.8034,-442.974 100.664,-371.346 150,-339 184.576,-316.331 230.686,-312.462 268.822,-314.438"/>
<polygon fill="#9a32cd" stroke="#9a32cd" points="67.4053,-476.881 68.724,-487.393 74.2488,-478.353 67.4053,-476.881"/>
<text text-anchor="middle" x="193" y="-342" font-family="Helvetica,sans-Serif" font-size="10.00"> keys</text>
</g>
<!-- Node23 -->
<g id="node23" class="node"><title>Node23</title>
<g id="a_node23"><a xlink:href="class_damage_forwarder.html" target="_top" xlink:title="DamageForwarder">
<polygon fill="white" stroke="black" points="623.5,-411.5 623.5,-430.5 718.5,-430.5 718.5,-411.5 623.5,-411.5"/>
<text text-anchor="middle" x="671" y="-418.5" font-family="Helvetica,sans-Serif" font-size="10.00">DamageForwarder</text>
</a>
</g>
</g>
<!-- Node5&#45;&gt;Node23 -->
<g id="edge27" class="edge"><title>Node5&#45;&gt;Node23</title>
<path fill="none" stroke="#9a32cd" stroke-dasharray="5,2" d="M111.766,-491.358C222.769,-477.367 509.877,-441.181 623.1,-426.911"/>
<polygon fill="#9a32cd" stroke="#9a32cd" points="111.07,-487.918 101.586,-492.641 111.945,-494.863 111.07,-487.918"/>
<text text-anchor="middle" x="341" y="-475" font-family="Helvetica,sans-Serif" font-size="10.00"> m_currentWorldObject</text>
</g>
<!-- Node28 -->
<g id="node28" class="node"><title>Node28</title>
<polygon fill="white" stroke="#bfbfbf" points="467,-660 467,-690 565,-690 565,-660 467,-660"/>
<text text-anchor="start" x="475" y="-678" font-family="Helvetica,sans-Serif" font-size="10.00">std::unordered_set</text>
<text text-anchor="middle" x="516" y="-667" font-family="Helvetica,sans-Serif" font-size="10.00">&lt; WorldObject * &gt;</text>
</g>
<!-- Node5&#45;&gt;Node28 -->
<g id="edge34" class="edge"><title>Node5&#45;&gt;Node28</title>
<path fill="none" stroke="#9a32cd" stroke-dasharray="5,2" d="M80.396,-514.583C108.239,-549.572 176.279,-627.274 254,-659 323.771,-687.481 412.801,-685.753 466.776,-681.018"/>
<polygon fill="#9a32cd" stroke="#9a32cd" points="83.119,-512.384 74.2019,-506.662 77.6048,-516.695 83.119,-512.384"/>
<text text-anchor="middle" x="193" y="-651" font-family="Helvetica,sans-Serif" font-size="10.00"> keys</text>
</g>
<!-- Node6 -->
<g id="node6" class="node"><title>Node6</title>
<g id="a_node6"><a xlink:href="class_split_detector.html" target="_top" xlink:title="SplitDetector">
<polygon fill="white" stroke="black" points="634.5,-145.5 634.5,-164.5 707.5,-164.5 707.5,-145.5 634.5,-145.5"/>
<text text-anchor="middle" x="671" y="-152.5" font-family="Helvetica,sans-Serif" font-size="10.00">SplitDetector</text>
</a>
</g>
</g>
<!-- Node6&#45;&gt;Node1 -->
<g id="edge5" class="edge"><title>Node6&#45;&gt;Node1</title>
<path fill="none" stroke="#9a32cd" stroke-dasharray="5,2" d="M714.039,-167.802C762.604,-184.748 841.517,-219.293 886,-276 931.521,-334.031 938.675,-428.412 939.794,-458.481"/>
<polygon fill="#9a32cd" stroke="#9a32cd" points="715.049,-164.449 704.454,-164.549 712.799,-171.078 715.049,-164.449"/>
<text text-anchor="middle" x="821" y="-279" font-family="Helvetica,sans-Serif" font-size="10.00"> m_splitDetector</text>
</g>
<!-- Node7 -->
<g id="node7" class="node"><title>Node7</title>
<polygon fill="white" stroke="#bfbfbf" points="281.5,-164 281.5,-194 400.5,-194 400.5,-164 281.5,-164"/>
<text text-anchor="start" x="289.5" y="-182" font-family="Helvetica,sans-Serif" font-size="10.00">std::vector&lt; std::shared</text>
<text text-anchor="middle" x="341" y="-171" font-family="Helvetica,sans-Serif" font-size="10.00">_ptr&lt; SplitData &gt; &gt;</text>
</g>
<!-- Node7&#45;&gt;Node6 -->
<g id="edge6" class="edge"><title>Node7&#45;&gt;Node6</title>
<path fill="none" stroke="#9a32cd" stroke-dasharray="5,2" d="M410.86,-173.961C479.015,-168.975 580.68,-161.536 634.156,-157.623"/>
<polygon fill="#9a32cd" stroke="#9a32cd" points="410.358,-170.489 400.64,-174.709 410.869,-177.47 410.358,-170.489"/>
<text text-anchor="middle" x="516" y="-174" font-family="Helvetica,sans-Serif" font-size="10.00"> m_splitDataList</text>
</g>
<!-- Node8 -->
<g id="node8" class="node"><title>Node8</title>
<polygon fill="white" stroke="#bfbfbf" points="277.5,-115 277.5,-145 404.5,-145 404.5,-115 277.5,-115"/>
<text text-anchor="start" x="285.5" y="-133" font-family="Helvetica,sans-Serif" font-size="10.00">std::vector&lt; SplitDetector</text>
<text text-anchor="middle" x="341" y="-122" font-family="Helvetica,sans-Serif" font-size="10.00">::VoxelGroup &gt;</text>
</g>
<!-- Node8&#45;&gt;Node6 -->
<g id="edge7" class="edge"><title>Node8&#45;&gt;Node6</title>
<path fill="none" stroke="#9a32cd" stroke-dasharray="5,2" d="M414.834,-133.988C463.366,-136.839 528.548,-141.041 586,-146 601.928,-147.375 619.52,-149.211 634.472,-150.865"/>
<polygon fill="#9a32cd" stroke="#9a32cd" points="414.926,-130.488 404.74,-133.4 414.519,-137.476 414.926,-130.488"/>
<text text-anchor="middle" x="516" y="-149" font-family="Helvetica,sans-Serif" font-size="10.00"> m_voxelArray</text>
</g>
<!-- Node9 -->
<g id="node9" class="node"><title>Node9</title>
<polygon fill="white" stroke="#bfbfbf" points="280,-76.5 280,-95.5 402,-95.5 402,-76.5 280,-76.5"/>
<text text-anchor="middle" x="341" y="-83.5" font-family="Helvetica,sans-Serif" font-size="10.00">std::stack&lt; glm::ivec3 &gt;</text>
</g>
<!-- Node9&#45;&gt;Node6 -->
<g id="edge8" class="edge"><title>Node9&#45;&gt;Node6</title>
<path fill="none" stroke="#9a32cd" stroke-dasharray="5,2" d="M412.262,-90.988C461.542,-95.6455 528.606,-104.324 586,-120 609.165,-126.327 634.435,-137.48 651.144,-145.497"/>
<polygon fill="#9a32cd" stroke="#9a32cd" points="412.303,-87.4772 402.027,-90.0541 411.667,-94.4483 412.303,-87.4772"/>
<text text-anchor="middle" x="516" y="-123" font-family="Helvetica,sans-Serif" font-size="10.00"> m_stack</text>
</g>
<!-- Node10 -->
<g id="node10" class="node"><title>Node10</title>
<g id="a_node10"><a xlink:href="class_damager.html" target="_top" xlink:title="Damager">
<polygon fill="white" stroke="black" points="643,-318.5 643,-337.5 699,-337.5 699,-318.5 643,-318.5"/>
<text text-anchor="middle" x="671" y="-325.5" font-family="Helvetica,sans-Serif" font-size="10.00">Damager</text>
</a>
</g>
</g>
<!-- Node10&#45;&gt;Node1 -->
<g id="edge9" class="edge"><title>Node10&#45;&gt;Node1</title>
<path fill="none" stroke="#9a32cd" stroke-dasharray="5,2" d="M709.041,-338.537C753.409,-352.183 828.89,-378.719 886,-416 904.527,-428.095 922.261,-447.057 932.085,-458.432"/>
<polygon fill="#9a32cd" stroke="#9a32cd" points="709.848,-335.124 699.263,-335.583 707.824,-341.825 709.848,-335.124"/>
<text text-anchor="middle" x="821" y="-419" font-family="Helvetica,sans-Serif" font-size="10.00"> m_damager</text>
</g>
<!-- Node11 -->
<g id="node11" class="node"><title>Node11</title>
<polygon fill="white" stroke="#bfbfbf" points="0,-299.5 0,-318.5 132,-318.5 132,-299.5 0,-299.5"/>
<text text-anchor="middle" x="66" y="-306.5" font-family="Helvetica,sans-Serif" font-size="10.00">std::list&lt; DamageImpact &gt;</text>
</g>
<!-- Node11&#45;&gt;Node10 -->
<g id="edge10" class="edge"><title>Node11&#45;&gt;Node10</title>
<path fill="none" stroke="#9a32cd" stroke-dasharray="5,2" d="M95.3604,-294.922C131.25,-277.965 195.46,-250.456 254,-240 399.736,-213.971 469.739,-175.349 586,-267 601.949,-279.573 588.773,-295.561 604,-309 614.728,-318.468 629.9,-323.235 642.993,-325.627"/>
<polygon fill="#9a32cd" stroke="#9a32cd" points="93.5207,-291.923 86.0168,-299.402 96.5471,-298.235 93.5207,-291.923"/>
<text text-anchor="middle" x="341" y="-254" font-family="Helvetica,sans-Serif" font-size="10.00"> m_dampedDeadlyDamageImpacts</text>
<text text-anchor="middle" x="341" y="-243" font-family="Helvetica,sans-Serif" font-size="10.00">m_deadlyDamageImpacts</text>
</g>
<!-- Node24 -->
<g id="node24" class="node"><title>Node24</title>
<g id="a_node24"><a xlink:href="class_voxel_accumulator.html" target="_top" xlink:title="VoxelAccumulator\&lt; Damage\lImpact \&gt;">
<polygon fill="white" stroke="red" points="270.5,-398 270.5,-428 411.5,-428 411.5,-398 270.5,-398"/>
<text text-anchor="start" x="278.5" y="-416" font-family="Helvetica,sans-Serif" font-size="10.00">VoxelAccumulator&lt; Damage</text>
<text text-anchor="middle" x="341" y="-405" font-family="Helvetica,sans-Serif" font-size="10.00">Impact &gt;</text>
</a>
</g>
</g>
<!-- Node11&#45;&gt;Node24 -->
<g id="edge26" class="edge"><title>Node11&#45;&gt;Node24</title>
<path fill="none" stroke="#9a32cd" stroke-dasharray="5,2" d="M91.3244,-323.705C107.567,-333.142 129.61,-345.225 150,-354 192.355,-372.227 242.205,-387.489 280.214,-397.921"/>
<polygon fill="#9a32cd" stroke="#9a32cd" points="92.8807,-320.56 82.488,-318.5 89.3279,-326.591 92.8807,-320.56"/>
<text text-anchor="middle" x="193" y="-386" font-family="Helvetica,sans-Serif" font-size="10.00"> m_accumulatables</text>
</g>
<!-- Node12&#45;&gt;Node10 -->
<g id="edge11" class="edge"><title>Node12&#45;&gt;Node10</title>
<path fill="none" stroke="#9a32cd" stroke-dasharray="5,2" d="M423.279,-313.856C430.948,-313.102 438.613,-312.46 446,-312 508.102,-308.134 524.053,-306.153 586,-312 605.214,-313.814 626.575,-317.911 642.948,-321.505"/>
<polygon fill="#9a32cd" stroke="#9a32cd" points="422.802,-310.387 413.22,-314.907 423.529,-317.349 422.802,-310.387"/>
<text text-anchor="middle" x="516" y="-315" font-family="Helvetica,sans-Serif" font-size="10.00"> m_worldObjectModificationMap</text>
</g>
<!-- Node13 -->
<g id="node13" class="node"><title>Node13</title>
<polygon fill="white" stroke="#bfbfbf" points="292,-359.5 292,-378.5 390,-378.5 390,-359.5 292,-359.5"/>
<text text-anchor="middle" x="341" y="-366.5" font-family="Helvetica,sans-Serif" font-size="10.00">std::list&lt; Voxel * &gt;</text>
</g>
<!-- Node13&#45;&gt;Node10 -->
<g id="edge13" class="edge"><title>Node13&#45;&gt;Node10</title>
<path fill="none" stroke="#9a32cd" stroke-dasharray="5,2" d="M389.384,-357.081C407.054,-353.017 427.35,-348.798 446,-346 516.606,-335.407 600.732,-330.761 642.969,-328.972"/>
<polygon fill="#9a32cd" stroke="#9a32cd" points="388.251,-353.751 379.315,-359.443 389.851,-360.566 388.251,-353.751"/>
<text text-anchor="middle" x="516" y="-349" font-family="Helvetica,sans-Serif" font-size="10.00"> m_deadVoxels</text>
</g>
<!-- Node13&#45;&gt;Node23 -->
<g id="edge28" class="edge"><title>Node13&#45;&gt;Node23</title>
<path fill="none" stroke="#9a32cd" stroke-dasharray="5,2" d="M400.322,-372.507C450.04,-376.197 523.213,-383.289 586,-396 605.089,-399.864 626.089,-406.114 642.316,-411.398"/>
<polygon fill="#9a32cd" stroke="#9a32cd" points="400.306,-368.997 390.081,-371.77 399.804,-375.979 400.306,-368.997"/>
<text text-anchor="middle" x="516" y="-399" font-family="Helvetica,sans-Serif" font-size="10.00"> m_currentNeighbours</text>
</g>
<!-- Node14 -->
<g id="node14" class="node"><title>Node14</title>
<polygon fill="white" stroke="#bfbfbf" points="254.5,-271.5 254.5,-290.5 427.5,-290.5 427.5,-271.5 254.5,-271.5"/>
<text text-anchor="middle" x="341" y="-278.5" font-family="Helvetica,sans-Serif" font-size="10.00">std::list&lt; WorldObjectModification &gt;</text>
</g>
<!-- Node14&#45;&gt;Node10 -->
<g id="edge14" class="edge"><title>Node14&#45;&gt;Node10</title>
<path fill="none" stroke="#9a32cd" stroke-dasharray="5,2" d="M437.78,-271.202C484.131,-270.036 539.638,-274.057 586,-293 595.908,-297.049 594.625,-303.836 604,-309 616.011,-315.616 630.549,-320.122 642.921,-323.079"/>
<polygon fill="#9a32cd" stroke="#9a32cd" points="437.609,-267.706 427.732,-271.539 437.843,-274.702 437.609,-267.706"/>
<text text-anchor="middle" x="516" y="-296" font-family="Helvetica,sans-Serif" font-size="10.00"> m_worldObjectModifications</text>
</g>
<!-- Node15&#45;&gt;Node1 -->
<g id="edge15" class="edge"><title>Node15&#45;&gt;Node1</title>
<path fill="none" stroke="#9a32cd" stroke-dasharray="5,2" d="M748.12,-500.111C789.17,-496.271 840.585,-490.39 886,-482 893.333,-480.645 901.141,-478.839 908.473,-476.975"/>
<polygon fill="#9a32cd" stroke="#9a32cd" points="747.557,-496.648 737.917,-501.044 748.194,-503.619 747.557,-496.648"/>
<text text-anchor="middle" x="821" y="-502" font-family="Helvetica,sans-Serif" font-size="10.00"> m_voxelCollisionAccumulator</text>
</g>
<!-- Node16 -->
<g id="node16" class="node"><title>Node16</title>
<polygon fill="white" stroke="#bfbfbf" points="262,-496.5 262,-515.5 420,-515.5 420,-496.5 262,-496.5"/>
<text text-anchor="middle" x="341" y="-503.5" font-family="Helvetica,sans-Serif" font-size="10.00">std::list&lt; WorldObjectCollision &gt;</text>
</g>
<!-- Node16&#45;&gt;Node15 -->
<g id="edge17" class="edge"><title>Node16&#45;&gt;Node15</title>
<path fill="none" stroke="#9a32cd" stroke-dasharray="5,2" d="M430.208,-506C485.032,-506 554.343,-506 604.331,-506"/>
<polygon fill="#9a32cd" stroke="#9a32cd" points="430.147,-502.5 420.147,-506 430.147,-509.5 430.147,-502.5"/>
<text text-anchor="middle" x="516" y="-509" font-family="Helvetica,sans-Serif" font-size="10.00"> m_worldObjectCollisions</text>
</g>
<!-- Node17 -->
<g id="node17" class="node"><title>Node17</title>
<g id="a_node17"><a xlink:href="class_elastic_impulsor.html" target="_top" xlink:title="ElasticImpulsor">
<polygon fill="white" stroke="black" points="629.5,-90.5 629.5,-109.5 712.5,-109.5 712.5,-90.5 629.5,-90.5"/>
<text text-anchor="middle" x="671" y="-97.5" font-family="Helvetica,sans-Serif" font-size="10.00">ElasticImpulsor</text>
</a>
</g>
</g>
<!-- Node17&#45;&gt;Node1 -->
<g id="edge18" class="edge"><title>Node17&#45;&gt;Node1</title>
<path fill="none" stroke="#9a32cd" stroke-dasharray="5,2" d="M722.701,-102.293C771.909,-107.366 844.994,-122.959 886,-170 924.954,-214.687 937.181,-411.87 939.542,-458.221"/>
<polygon fill="#9a32cd" stroke="#9a32cd" points="722.862,-98.7926 712.584,-101.362 722.221,-105.763 722.862,-98.7926"/>
<text text-anchor="middle" x="821" y="-173" font-family="Helvetica,sans-Serif" font-size="10.00"> m_elasticImpulsor</text>
</g>
<!-- Node18 -->
<g id="node18" class="node"><title>Node18</title>
<g id="a_node18"><a xlink:href="class_property.html" target="_top" xlink:title="Property\&lt; float \&gt;">
<polygon fill="white" stroke="red" points="296.5,-38.5 296.5,-57.5 385.5,-57.5 385.5,-38.5 296.5,-38.5"/>
<text text-anchor="middle" x="341" y="-45.5" font-family="Helvetica,sans-Serif" font-size="10.00">Property&lt; float &gt;</text>
</a>
</g>
</g>
<!-- Node18&#45;&gt;Node17 -->
<g id="edge19" class="edge"><title>Node18&#45;&gt;Node17</title>
<path fill="none" stroke="#9a32cd" stroke-dasharray="5,2" d="M395.716,-40.1031C445.931,-34.6049 522.491,-31.0896 586,-49 614.736,-57.1039 643.437,-77.9605 658.724,-90.3476"/>
<polygon fill="#9a32cd" stroke="#9a32cd" points="395.256,-36.6329 385.725,-41.2614 396.062,-43.5864 395.256,-36.6329"/>
<text text-anchor="middle" x="516" y="-63" font-family="Helvetica,sans-Serif" font-size="10.00"> m_rotationFactor</text>
<text text-anchor="middle" x="516" y="-52" font-family="Helvetica,sans-Serif" font-size="10.00">m_elasticity</text>
</g>
<!-- Node19 -->
<g id="node19" class="node"><title>Node19</title>
<g id="a_node19"><a xlink:href="class_elastic_impulse_generator.html" target="_top" xlink:title="ElasticImpulseGenerator">
<polygon fill="white" stroke="black" points="609.5,-18.5 609.5,-37.5 732.5,-37.5 732.5,-18.5 609.5,-18.5"/>
<text text-anchor="middle" x="671" y="-25.5" font-family="Helvetica,sans-Serif" font-size="10.00">ElasticImpulseGenerator</text>
</a>
</g>
</g>
<!-- Node19&#45;&gt;Node1 -->
<g id="edge20" class="edge"><title>Node19&#45;&gt;Node1</title>
<path fill="none" stroke="#9a32cd" stroke-dasharray="5,2" d="M742.601,-30.2337C790.246,-35.6868 850.662,-51.0043 886,-92 935.301,-149.194 939.61,-404.934 939.97,-458.243"/>
<polygon fill="#9a32cd" stroke="#9a32cd" points="742.946,-26.7508 732.642,-29.2141 742.233,-33.7144 742.946,-26.7508"/>
<text text-anchor="middle" x="821" y="-95" font-family="Helvetica,sans-Serif" font-size="10.00"> m_elasticImpulseGenerator</text>
</g>
<!-- Node20 -->
<g id="node20" class="node"><title>Node20</title>
<polygon fill="white" stroke="#bfbfbf" points="290.5,-0.5 290.5,-19.5 391.5,-19.5 391.5,-0.5 290.5,-0.5"/>
<text text-anchor="middle" x="341" y="-7.5" font-family="Helvetica,sans-Serif" font-size="10.00">std::list&lt; Impulse &gt;</text>
</g>
<!-- Node20&#45;&gt;Node19 -->
<g id="edge21" class="edge"><title>Node20&#45;&gt;Node19</title>
<path fill="none" stroke="#9a32cd" stroke-dasharray="5,2" d="M401.842,-9.01156C451.311,-8.72582 523.343,-9.53404 586,-15 595.556,-15.8336 605.674,-17.082 615.454,-18.4808"/>
<polygon fill="#9a32cd" stroke="#9a32cd" points="401.613,-5.51307 391.64,-9.08786 401.666,-12.5129 401.613,-5.51307"/>
<text text-anchor="middle" x="516" y="-18" font-family="Helvetica,sans-Serif" font-size="10.00"> m_worldObjectImpulses</text>
</g>
<!-- Node21 -->
<g id="node21" class="node"><title>Node21</title>
<g id="a_node21"><a xlink:href="class_mover.html" target="_top" xlink:title="Mover">
<polygon fill="white" stroke="black" points="650,-610.5 650,-629.5 692,-629.5 692,-610.5 650,-610.5"/>
<text text-anchor="middle" x="671" y="-617.5" font-family="Helvetica,sans-Serif" font-size="10.00">Mover</text>
</a>
</g>
</g>
<!-- Node21&#45;&gt;Node1 -->
<g id="edge22" class="edge"><title>Node21&#45;&gt;Node1</title>
<path fill="none" stroke="#9a32cd" stroke-dasharray="5,2" d="M702.049,-625.034C746.843,-630.79 831.668,-634.741 886,-594 925.034,-564.731 936.18,-501.54 939.072,-477.525"/>
<polygon fill="#9a32cd" stroke="#9a32cd" points="702.473,-621.559 692.084,-623.637 701.501,-628.492 702.473,-621.559"/>
<text text-anchor="middle" x="821" y="-631" font-family="Helvetica,sans-Serif" font-size="10.00"> m_mover</text>
</g>
<!-- Node22 -->
<g id="node22" class="node"><title>Node22</title>
<polygon fill="white" stroke="#bfbfbf" points="277,-630.5 277,-649.5 405,-649.5 405,-630.5 277,-630.5"/>
<text text-anchor="middle" x="341" y="-637.5" font-family="Helvetica,sans-Serif" font-size="10.00">std::list&lt; VoxelCollision &gt;</text>
</g>
<!-- Node22&#45;&gt;Node21 -->
<g id="edge23" class="edge"><title>Node22&#45;&gt;Node21</title>
<path fill="none" stroke="#9a32cd" stroke-dasharray="5,2" d="M415.646,-635.509C491.205,-630.902 603.963,-624.027 649.668,-621.24"/>
<polygon fill="#9a32cd" stroke="#9a32cd" points="415.01,-632.042 405.242,-636.144 415.436,-639.029 415.01,-632.042"/>
<text text-anchor="middle" x="516" y="-636" font-family="Helvetica,sans-Serif" font-size="10.00"> m_voxelCollisions</text>
</g>
<!-- Node23&#45;&gt;Node1 -->
<g id="edge24" class="edge"><title>Node23&#45;&gt;Node1</title>
<path fill="none" stroke="#9a32cd" stroke-dasharray="5,2" d="M728.697,-427.554C772.028,-433.027 833.105,-441.743 886,-453 893.328,-454.56 901.133,-456.538 908.465,-458.542"/>
<polygon fill="#9a32cd" stroke="#9a32cd" points="728.987,-424.064 718.631,-426.301 728.122,-431.01 728.987,-424.064"/>
<text text-anchor="middle" x="821" y="-456" font-family="Helvetica,sans-Serif" font-size="10.00"> m_damageForwarder</text>
</g>
<!-- Node24&#45;&gt;Node23 -->
<g id="edge25" class="edge"><title>Node24&#45;&gt;Node23</title>
<path fill="none" stroke="#9a32cd" stroke-dasharray="5,2" d="M421.968,-411.737C469.622,-411.381 531.293,-411.612 586,-414 598.135,-414.53 611.231,-415.452 623.389,-416.456"/>
<polygon fill="#9a32cd" stroke="#9a32cd" points="421.683,-408.239 411.713,-411.824 421.743,-415.239 421.683,-408.239"/>
<text text-anchor="middle" x="516" y="-417" font-family="Helvetica,sans-Serif" font-size="10.00"> m_damageImpactAccumulator</text>
</g>
<!-- Node38 -->
<g id="node38" class="node"><title>Node38</title>
<g id="a_node38"><a xlink:href="class_damage_impact_generator.html" target="_top" xlink:title="DamageImpactGenerator">
<polygon fill="white" stroke="black" points="608.5,-458.5 608.5,-477.5 733.5,-477.5 733.5,-458.5 608.5,-458.5"/>
<text text-anchor="middle" x="671" y="-465.5" font-family="Helvetica,sans-Serif" font-size="10.00">DamageImpactGenerator</text>
</a>
</g>
</g>
<!-- Node24&#45;&gt;Node38 -->
<g id="edge47" class="edge"><title>Node24&#45;&gt;Node38</title>
<path fill="none" stroke="#9a32cd" stroke-dasharray="5,2" d="M421.623,-426.351C480.818,-436.277 560.17,-449.583 613.089,-458.457"/>
<polygon fill="#9a32cd" stroke="#9a32cd" points="422.002,-422.866 411.56,-424.664 420.844,-429.77 422.002,-422.866"/>
<text text-anchor="middle" x="516" y="-456" font-family="Helvetica,sans-Serif" font-size="10.00"> m_damageImpactAccumulator</text>
</g>
<!-- Node25&#45;&gt;Node1 -->
<g id="edge29" class="edge"><title>Node25&#45;&gt;Node1</title>
<path fill="none" stroke="#9a32cd" stroke-dasharray="5,2" d="M727.477,-580.97C781.984,-579.005 860.571,-573.33 886,-557 915.654,-537.956 931.464,-496.285 937.314,-477.508"/>
<polygon fill="#9a32cd" stroke="#9a32cd" points="727.138,-577.48 717.258,-581.306 727.368,-584.476 727.138,-577.48"/>
<text text-anchor="middle" x="821" y="-582" font-family="Helvetica,sans-Serif" font-size="10.00"> m_garbageCollector</text>
</g>
<!-- Node26 -->
<g id="node26" class="node"><title>Node26</title>
<g id="a_node26"><a xlink:href="class_world.html" target="_top" xlink:title="World">
<polygon fill="white" stroke="black" points="1302,-397.5 1302,-416.5 1344,-416.5 1344,-397.5 1302,-397.5"/>
<text text-anchor="middle" x="1323" y="-404.5" font-family="Helvetica,sans-Serif" font-size="10.00">World</text>
</a>
</g>
</g>
<!-- Node26&#45;&gt;Node1 -->
<g id="edge31" class="edge"><title>Node26&#45;&gt;Node1</title>
<path fill="none" stroke="#9a32cd" stroke-dasharray="5,2" d="M1315.48,-426.192C1309.52,-440.867 1299.29,-460.479 1284,-472 1248.1,-499.052 1230.6,-491.401 1186,-497 1117.21,-505.636 1098.46,-507.989 1030,-497 1006.97,-493.303 981.797,-484.49 964.297,-477.543"/>
<polygon fill="#9a32cd" stroke="#9a32cd" points="1318.85,-427.157 1319.07,-416.565 1312.3,-424.709 1318.85,-427.157"/>
<text text-anchor="middle" x="1108" y="-507" font-family="Helvetica,sans-Serif" font-size="10.00"> m_world</text>
</g>
<!-- Node26&#45;&gt;Node26 -->
<g id="edge44" class="edge"><title>Node26&#45;&gt;Node26</title>
<path fill="none" stroke="#9a32cd" stroke-dasharray="5,2" d="M1308.64,-426.766C1309.76,-431.497 1314.55,-435 1323,-435 1336.86,-435 1340.87,-425.565 1335.02,-416.757"/>
<polygon fill="#9a32cd" stroke="#9a32cd" points="1312.11,-427.292 1310.98,-416.757 1305.29,-425.697 1312.11,-427.292"/>
<text text-anchor="middle" x="1323" y="-438" font-family="Helvetica,sans-Serif" font-size="10.00"> s_instance</text>
</g>
<!-- Node27 -->
<g id="node27" class="node"><title>Node27</title>
<polygon fill="white" stroke="#bfbfbf" points="1036.5,-686.5 1036.5,-705.5 1179.5,-705.5 1179.5,-686.5 1036.5,-686.5"/>
<text text-anchor="middle" x="1108" y="-693.5" font-family="Helvetica,sans-Serif" font-size="10.00">std::unique_ptr&lt; WorldTree &gt;</text>
</g>
<!-- Node27&#45;&gt;Node26 -->
<g id="edge32" class="edge"><title>Node27&#45;&gt;Node26</title>
<path fill="none" stroke="#9a32cd" stroke-dasharray="5,2" d="M1189.77,-704.742C1223.15,-703.822 1259.66,-696.195 1284,-672 1320.92,-635.305 1322.32,-459.936 1322.1,-416.667"/>
<polygon fill="#9a32cd" stroke="#9a32cd" points="1189.5,-701.244 1179.52,-704.824 1189.55,-708.244 1189.5,-701.244"/>
<text text-anchor="middle" x="1244" y="-706" font-family="Helvetica,sans-Serif" font-size="10.00"> m_worldTree</text>
</g>
<!-- Node28&#45;&gt;Node26 -->
<g id="edge33" class="edge"><title>Node28&#45;&gt;Node26</title>
<path fill="none" stroke="#9a32cd" stroke-dasharray="5,2" d="M575.43,-669.774C636.41,-664.778 734.832,-658 820,-658 820,-658 820,-658 1109,-658 1193.45,-658 1230.17,-649.069 1284,-584 1305.64,-557.845 1317.81,-449.818 1321.09,-416.698"/>
<polygon fill="#9a32cd" stroke="#9a32cd" points="574.908,-666.306 565.233,-670.622 575.488,-673.282 574.908,-666.306"/>
<text text-anchor="middle" x="941" y="-661" font-family="Helvetica,sans-Serif" font-size="10.00"> m_worldObjects</text>
</g>
<!-- Node29&#45;&gt;Node26 -->
<g id="edge35" class="edge"><title>Node29&#45;&gt;Node26</title>
<path fill="none" stroke="#9a32cd" stroke-dasharray="5,2" d="M1192.33,-570.382C1224.35,-568.52 1259.14,-560.636 1284,-539 1320.88,-506.905 1323.06,-441.567 1322.47,-416.808"/>
<polygon fill="#9a32cd" stroke="#9a32cd" points="1191.9,-566.896 1182.04,-570.784 1192.17,-573.89 1191.9,-566.896"/>
<text text-anchor="middle" x="1244" y="-572" font-family="Helvetica,sans-Serif" font-size="10.00"> m_worldLogic</text>
</g>
<!-- Node30 -->
<g id="node30" class="node"><title>Node30</title>
<polygon fill="white" stroke="#bfbfbf" points="1059,-458 1059,-488 1157,-488 1157,-458 1059,-458"/>
<text text-anchor="start" x="1067" y="-476" font-family="Helvetica,sans-Serif" font-size="10.00">std::unordered_set</text>
<text text-anchor="middle" x="1108" y="-465" font-family="Helvetica,sans-Serif" font-size="10.00">&lt; Ship * &gt;</text>
</g>
<!-- Node30&#45;&gt;Node26 -->
<g id="edge37" class="edge"><title>Node30&#45;&gt;Node26</title>
<path fill="none" stroke="#9a32cd" stroke-dasharray="5,2" d="M1167.35,-465.291C1202.23,-459.323 1246.84,-449.257 1284,-433 1293.52,-428.835 1303.17,-422.195 1310.36,-416.668"/>
<polygon fill="#9a32cd" stroke="#9a32cd" points="1166.62,-461.863 1157.32,-466.94 1167.76,-468.771 1166.62,-461.863"/>
<text text-anchor="middle" x="1244" y="-460" font-family="Helvetica,sans-Serif" font-size="10.00"> m_ships</text>
</g>
<!-- Node31 -->
<g id="node31" class="node"><title>Node31</title>
<polygon fill="white" stroke="#bfbfbf" points="1042,-419.5 1042,-438.5 1174,-438.5 1174,-419.5 1042,-419.5"/>
<text text-anchor="middle" x="1108" y="-426.5" font-family="Helvetica,sans-Serif" font-size="10.00">std::unique_ptr&lt; Skybox &gt;</text>
</g>
<!-- Node31&#45;&gt;Node26 -->
<g id="edge38" class="edge"><title>Node31&#45;&gt;Node26</title>
<path fill="none" stroke="#9a32cd" stroke-dasharray="5,2" d="M1184.25,-421.228C1226.07,-416.908 1274.95,-411.859 1301.79,-409.088"/>
<polygon fill="#9a32cd" stroke="#9a32cd" points="1183.65,-417.771 1174.06,-422.28 1184.37,-424.734 1183.65,-417.771"/>
<text text-anchor="middle" x="1244" y="-421" font-family="Helvetica,sans-Serif" font-size="10.00"> m_skybox</text>
</g>
<!-- Node32 -->
<g id="node32" class="node"><title>Node32</title>
<polygon fill="white" stroke="#bfbfbf" points="1034,-370 1034,-400 1182,-400 1182,-370 1034,-370"/>
<text text-anchor="start" x="1042" y="-388" font-family="Helvetica,sans-Serif" font-size="10.00">std::unique_ptr&lt; VoxelParticle</text>
<text text-anchor="middle" x="1108" y="-377" font-family="Helvetica,sans-Serif" font-size="10.00">Engine &gt;</text>
</g>
<!-- Node32&#45;&gt;Node26 -->
<g id="edge39" class="edge"><title>Node32&#45;&gt;Node26</title>
<path fill="none" stroke="#9a32cd" stroke-dasharray="5,2" d="M1192.36,-386.515C1221.51,-388.027 1254.35,-390.842 1284,-396 1289.82,-397.013 1296.02,-398.586 1301.68,-400.23"/>
<polygon fill="#9a32cd" stroke="#9a32cd" points="1192.37,-383.012 1182.22,-386.033 1192.04,-390.004 1192.37,-383.012"/>
<text text-anchor="middle" x="1244" y="-399" font-family="Helvetica,sans-Serif" font-size="10.00"> m_particleEngine</text>
</g>
<!-- Node33 -->
<g id="node33" class="node"><title>Node33</title>
<polygon fill="white" stroke="#bfbfbf" points="1030.5,-331.5 1030.5,-350.5 1185.5,-350.5 1185.5,-331.5 1030.5,-331.5"/>
<text text-anchor="middle" x="1108" y="-338.5" font-family="Helvetica,sans-Serif" font-size="10.00">std::unique_ptr&lt; ScriptEngine &gt;</text>
</g>
<!-- Node33&#45;&gt;Node26 -->
<g id="edge40" class="edge"><title>Node33&#45;&gt;Node26</title>
<path fill="none" stroke="#9a32cd" stroke-dasharray="5,2" d="M1195.78,-346.521C1224.94,-350.9 1256.92,-358.587 1284,-372 1296.22,-378.05 1307.32,-389.255 1314.33,-397.36"/>
<polygon fill="#9a32cd" stroke="#9a32cd" points="1195.98,-343.015 1185.59,-345.106 1195.01,-349.949 1195.98,-343.015"/>
<text text-anchor="middle" x="1244" y="-375" font-family="Helvetica,sans-Serif" font-size="10.00"> m_scriptEngine</text>
</g>
<!-- Node34 -->
<g id="node34" class="node"><title>Node34</title>
<polygon fill="white" stroke="#bfbfbf" points="1047,-282 1047,-312 1169,-312 1169,-282 1047,-282"/>
<text text-anchor="start" x="1055" y="-300" font-family="Helvetica,sans-Serif" font-size="10.00">std::unique_ptr&lt; Faction</text>
<text text-anchor="middle" x="1108" y="-289" font-family="Helvetica,sans-Serif" font-size="10.00">Matrix &gt;</text>
</g>
<!-- Node34&#45;&gt;Node26 -->
<g id="edge41" class="edge"><title>Node34&#45;&gt;Node26</title>
<path fill="none" stroke="#9a32cd" stroke-dasharray="5,2" d="M1179.08,-297.57C1213.66,-301.075 1254.21,-310.373 1284,-333 1305.51,-349.336 1315.87,-381.292 1319.89,-397.331"/>
<polygon fill="#9a32cd" stroke="#9a32cd" points="1179.3,-294.076 1169.04,-296.694 1178.7,-301.049 1179.3,-294.076"/>
<text text-anchor="middle" x="1244" y="-336" font-family="Helvetica,sans-Serif" font-size="10.00"> m_factionMatrix</text>
</g>
<!-- Node35 -->
<g id="node35" class="node"><title>Node35</title>
<polygon fill="white" stroke="#bfbfbf" points="1049.5,-243.5 1049.5,-262.5 1166.5,-262.5 1166.5,-243.5 1049.5,-243.5"/>
<text text-anchor="middle" x="1108" y="-250.5" font-family="Helvetica,sans-Serif" font-size="10.00">std::unique_ptr&lt; God &gt;</text>
</g>
<!-- Node35&#45;&gt;Node26 -->
<g id="edge42" class="edge"><title>Node35&#45;&gt;Node26</title>
<path fill="none" stroke="#9a32cd" stroke-dasharray="5,2" d="M1177.15,-249.929C1212.92,-251.903 1255.18,-260.394 1284,-286 1317.41,-315.689 1321.73,-374.378 1322.08,-397.406"/>
<polygon fill="#9a32cd" stroke="#9a32cd" points="1176.89,-246.417 1166.76,-249.525 1176.62,-253.411 1176.89,-246.417"/>
<text text-anchor="middle" x="1244" y="-289" font-family="Helvetica,sans-Serif" font-size="10.00"> m_god</text>
</g>
<!-- Node36 -->
<g id="node36" class="node"><title>Node36</title>
<g id="a_node36"><a xlink:href="class_player.html" target="_top" xlink:title="Player">
<polygon fill="white" stroke="red" points="1086,-205.5 1086,-224.5 1130,-224.5 1130,-205.5 1086,-205.5"/>
<text text-anchor="middle" x="1108" y="-212.5" font-family="Helvetica,sans-Serif" font-size="10.00">Player</text>
</a>
</g>
</g>
<!-- Node36&#45;&gt;Node26 -->
<g id="edge43" class="edge"><title>Node36&#45;&gt;Node26</title>
<path fill="none" stroke="#9a32cd" stroke-dasharray="5,2" d="M1140.37,-209.134C1179.2,-203.823 1244.97,-201.503 1284,-237 1308.16,-258.974 1318.6,-364.892 1321.28,-397.455"/>
<polygon fill="#9a32cd" stroke="#9a32cd" points="1139.54,-205.72 1130.18,-210.682 1140.59,-212.641 1139.54,-205.72"/>
<text text-anchor="middle" x="1244" y="-240" font-family="Helvetica,sans-Serif" font-size="10.00"> m_player</text>
</g>
<!-- Node37 -->
<g id="node37" class="node"><title>Node37</title>
<polygon fill="white" stroke="#bfbfbf" points="1034,-167.5 1034,-186.5 1182,-186.5 1182,-167.5 1034,-167.5"/>
<text text-anchor="middle" x="1108" y="-174.5" font-family="Helvetica,sans-Serif" font-size="10.00">std::unique_ptr&lt; EventPoller &gt;</text>
</g>
<!-- Node37&#45;&gt;Node26 -->
<g id="edge45" class="edge"><title>Node37&#45;&gt;Node26</title>
<path fill="none" stroke="#9a32cd" stroke-dasharray="5,2" d="M1161.84,-166.053C1200.51,-161.332 1251.67,-162.439 1284,-192 1314.84,-220.2 1320.75,-359.327 1321.79,-397.37"/>
<polygon fill="#9a32cd" stroke="#9a32cd" points="1161.22,-162.606 1151.8,-167.442 1162.18,-169.54 1161.22,-162.606"/>
<text text-anchor="middle" x="1244" y="-195" font-family="Helvetica,sans-Serif" font-size="10.00"> m_eventPoller</text>
</g>
<!-- Node38&#45;&gt;Node1 -->
<g id="edge46" class="edge"><title>Node38&#45;&gt;Node1</title>
<path fill="none" stroke="#9a32cd" stroke-dasharray="5,2" d="M743.971,-468C797.627,-468 868.309,-468 908.486,-468"/>
<polygon fill="#9a32cd" stroke="#9a32cd" points="743.821,-464.5 733.821,-468 743.821,-471.5 743.821,-464.5"/>
<text text-anchor="middle" x="821" y="-471" font-family="Helvetica,sans-Serif" font-size="10.00"> m_damageImpactGenerator</text>
</g>
</g>
</svg>
