<?xml version="1.0" encoding="UTF-8" standalone="no"?>
<!DOCTYPE svg PUBLIC "-//W3C//DTD SVG 1.1//EN"
 "http://www.w3.org/Graphics/SVG/1.1/DTD/svg11.dtd">
<!-- Generated by graphviz version 2.36.0 (20140111.2315)
 -->
<!-- Title: Physics Pages: 1 -->
<!--zoomable 421 -->
<svg id="main" version="1.1" xmlns="http://www.w3.org/2000/svg" xmlns:xlink="http://www.w3.org/1999/xlink" xml:space="preserve" onload="init(evt)">
<style type="text/css"><![CDATA[
.edge:hover path { stroke: red; }
.edge:hover polygon { stroke: red; fill: red; }
]]></style>
<script type="text/javascript"><![CDATA[
var edges = document.getElementsByTagName('g');
if (edges && edges.length) {
  for (var i=0;i<edges.length;i++) {
    if (edges[i].id.substr(0,4)=='edge') {
      edges[i].setAttribute('class','edge');
    }
  }
}
]]></script>
        <defs>
                <circle id="rim" cx="0" cy="0" r="7"/>
                <circle id="rim2" cx="0" cy="0" r="3.5"/>
                <g id="zoomPlus">
                        <use xlink:href="#rim" fill="#404040">
                                <set attributeName="fill" to="#808080" begin="zoomplus.mouseover" end="zoomplus.mouseout"/>
                        </use>
                        <path d="M-4,0h8M0,-4v8" fill="none" stroke="white" stroke-width="1.5" pointer-events="none"/>
                </g>
                <g id="zoomMin">
                        <use xlink:href="#rim" fill="#404040">
                                <set attributeName="fill" to="#808080" begin="zoomminus.mouseover" end="zoomminus.mouseout"/>
                        </use>
                        <path d="M-4,0h8" fill="none" stroke="white" stroke-width="1.5" pointer-events="none"/>
                </g>
                <g id="dirArrow">
                        <path fill="none" stroke="white" stroke-width="1.5" d="M0,-3.0v7 M-2.5,-0.5L0,-3.0L2.5,-0.5"/>
                </g>
               <g id="resetDef">
                       <use xlink:href="#rim2" fill="#404040">
                               <set attributeName="fill" to="#808080" begin="reset.mouseover" end="reset.mouseout"/>
                       </use>
               </g>
        </defs>

<script type="text/javascript">
var viewWidth = 894;
var viewHeight = 421;
var sectionId = 'dynsection-0';
</script>
<script xlink:href="svgpan.js"/>
<svg id="graph" class="graph">
<g id="viewport">
<title>Physics</title>
<polygon fill="white" stroke="none" points="-4,4 -4,-417 890,-417 890,4 -4,4"/>
<!-- Node1 -->
<g id="node1" class="node"><title>Node1</title>
<polygon fill="#bfbfbf" stroke="black" points="414,-250.5 414,-269.5 466,-269.5 466,-250.5 414,-250.5"/>
<text text-anchor="middle" x="440" y="-257.5" font-family="Helvetica,sans-Serif" font-size="10.00">Physics</text>
</g>
<!-- Node10 -->
<g id="node10" class="node"><title>Node10</title>
<polygon fill="white" stroke="#bfbfbf" points="549,-270.5 549,-289.5 683,-289.5 683,-270.5 549,-270.5"/>
<text text-anchor="middle" x="616" y="-277.5" font-family="Helvetica,sans-Serif" font-size="10.00">std::unique_ptr&lt; Physics &gt;</text>
</g>
<!-- Node1&#45;&gt;Node10 -->
<g id="edge11" class="edge"><title>Node1&#45;&gt;Node10</title>
<path fill="none" stroke="#9a32cd" stroke-dasharray="5,2" d="M476.273,-264.054C497.075,-266.445 524.072,-269.549 548.715,-272.381"/>
<polygon fill="#9a32cd" stroke="#9a32cd" points="476.635,-260.573 466.301,-262.908 475.836,-267.527 476.635,-260.573"/>
<text text-anchor="middle" x="505" y="-273" font-family="Helvetica,sans-Serif" font-size="10.00"> ptr</text>
</g>
<!-- Node2 -->
<g id="node2" class="node"><title>Node2</title>
<g id="a_node2"><a xlink:href="class_property.html" target="_top" xlink:title="Property\&lt; float \&gt;">
<polygon fill="white" stroke="black" points="180.5,-293.5 180.5,-312.5 269.5,-312.5 269.5,-293.5 180.5,-293.5"/>
<text text-anchor="middle" x="225" y="-300.5" font-family="Helvetica,sans-Serif" font-size="10.00">Property&lt; float &gt;</text>
</a>
</g>
</g>
<!-- Node2&#45;&gt;Node1 -->
<g id="edge1" class="edge"><title>Node2&#45;&gt;Node1</title>
<path fill="none" stroke="#9a32cd" stroke-dasharray="5,2" d="M260.4,-290.11C269.297,-287.119 278.927,-284.178 288,-282 331.663,-271.517 383.704,-265.271 413.886,-262.247"/>
<polygon fill="#9a32cd" stroke="#9a32cd" points="259.032,-286.88 250.735,-293.469 261.33,-293.492 259.032,-286.88"/>
<text text-anchor="middle" x="342" y="-296" font-family="Helvetica,sans-Serif" font-size="10.00"> m_angularDampening</text>
<text text-anchor="middle" x="342" y="-285" font-family="Helvetica,sans-Serif" font-size="10.00">m_directionalDampening</text>
</g>
<!-- Node7 -->
<g id="node7" class="node"><title>Node7</title>
<g id="a_node7"><a xlink:href="class_voxel.html" target="_top" xlink:title="Voxel">
<polygon fill="white" stroke="red" points="484.5,-316.5 484.5,-335.5 525.5,-335.5 525.5,-316.5 484.5,-316.5"/>
<text text-anchor="middle" x="505" y="-323.5" font-family="Helvetica,sans-Serif" font-size="10.00">Voxel</text>
</a>
</g>
</g>
<!-- Node2&#45;&gt;Node7 -->
<g id="edge7" class="edge"><title>Node2&#45;&gt;Node7</title>
<path fill="none" stroke="#9a32cd" stroke-dasharray="5,2" d="M279.825,-307.453C342.372,-312.628 442.364,-320.901 484.389,-324.377"/>
<polygon fill="#9a32cd" stroke="#9a32cd" points="279.998,-303.956 269.743,-306.619 279.421,-310.932 279.998,-303.956"/>
<text text-anchor="middle" x="342" y="-330" font-family="Helvetica,sans-Serif" font-size="10.00"> s_defaultHp</text>
<text text-anchor="middle" x="342" y="-319" font-family="Helvetica,sans-Serif" font-size="10.00">s_defaultMass</text>
</g>
<!-- Node3 -->
<g id="node3" class="node"><title>Node3</title>
<g id="a_node3"><a xlink:href="class_property_impl.html" target="_top" xlink:title="PropertyImpl\&lt; float \&gt;">
<polygon fill="white" stroke="red" points="0.5,-293.5 0.5,-312.5 107.5,-312.5 107.5,-293.5 0.5,-293.5"/>
<text text-anchor="middle" x="54" y="-300.5" font-family="Helvetica,sans-Serif" font-size="10.00">PropertyImpl&lt; float &gt;</text>
</a>
</g>
</g>
<!-- Node3&#45;&gt;Node2 -->
<g id="edge2" class="edge"><title>Node3&#45;&gt;Node2</title>
<path fill="none" stroke="#9a32cd" stroke-dasharray="5,2" d="M117.6,-303C138.442,-303 161.193,-303 180.288,-303"/>
<polygon fill="#9a32cd" stroke="#9a32cd" points="117.546,-299.5 107.546,-303 117.546,-306.5 117.546,-299.5"/>
<text text-anchor="middle" x="144" y="-306" font-family="Helvetica,sans-Serif" font-size="10.00"> m_impl</text>
</g>
<!-- Node4 -->
<g id="node4" class="node"><title>Node4</title>
<g id="a_node4"><a xlink:href="class_world_object.html" target="_top" xlink:title="WorldObject">
<polygon fill="white" stroke="black" points="814.5,-208.5 814.5,-227.5 885.5,-227.5 885.5,-208.5 814.5,-208.5"/>
<text text-anchor="middle" x="850" y="-215.5" font-family="Helvetica,sans-Serif" font-size="10.00">WorldObject</text>
</a>
</g>
</g>
<!-- Node4&#45;&gt;Node1 -->
<g id="edge3" class="edge"><title>Node4&#45;&gt;Node1</title>
<path fill="none" stroke="#9a32cd" stroke-dasharray="5,2" d="M804.217,-225.855C801.44,-226.264 798.684,-226.65 796,-227 684.478,-241.536 655.97,-239.455 544,-250 517.527,-252.493 487.238,-255.446 466.393,-257.494"/>
<polygon fill="#9a32cd" stroke="#9a32cd" points="804.933,-229.285 814.276,-224.291 803.858,-222.368 804.933,-229.285"/>
<text text-anchor="middle" x="616" y="-253" font-family="Helvetica,sans-Serif" font-size="10.00"> m_worldObject</text>
</g>
<!-- Node5 -->
<g id="node5" class="node"><title>Node5</title>
<g id="a_node5"><a xlink:href="class_voxel_cluster.html" target="_top" xlink:title="VoxelCluster">
<polygon fill="white" stroke="red" points="580,-393.5 580,-412.5 652,-412.5 652,-393.5 580,-393.5"/>
<text text-anchor="middle" x="616" y="-400.5" font-family="Helvetica,sans-Serif" font-size="10.00">VoxelCluster</text>
</a>
</g>
</g>
<!-- Node5&#45;&gt;Node4 -->
<g id="edge4" class="edge"><title>Node5&#45;&gt;Node4</title>
<path fill="none" stroke="midnightblue" d="M662.568,-405.936C702.329,-406.001 759.255,-399.72 796,-368 839.487,-330.461 847.296,-254.899 848.695,-227.884"/>
<polygon fill="midnightblue" stroke="midnightblue" points="662.399,-402.433 652.347,-405.78 662.293,-409.432 662.399,-402.433"/>
</g>
<!-- Node6 -->
<g id="node6" class="node"><title>Node6</title>
<g id="a_node6"><a xlink:href="class_scriptable.html" target="_top" xlink:title="Scriptable">
<polygon fill="white" stroke="black" points="586,-355.5 586,-374.5 646,-374.5 646,-355.5 586,-355.5"/>
<text text-anchor="middle" x="616" y="-362.5" font-family="Helvetica,sans-Serif" font-size="10.00">Scriptable</text>
</a>
</g>
</g>
<!-- Node6&#45;&gt;Node4 -->
<g id="edge5" class="edge"><title>Node6&#45;&gt;Node4</title>
<path fill="none" stroke="midnightblue" d="M656.3,-369.873C695.617,-372.566 755.868,-370.5 796,-340 833.507,-311.495 844.893,-250.949 847.971,-227.528"/>
<polygon fill="midnightblue" stroke="midnightblue" points="656.542,-366.382 646.29,-369.054 655.971,-373.358 656.542,-366.382"/>
</g>
<!-- Node7&#45;&gt;Node4 -->
<g id="edge6" class="edge"><title>Node7&#45;&gt;Node4</title>
<path fill="none" stroke="#9a32cd" stroke-dasharray="5,2" d="M535.818,-329.808C591.261,-335.375 712.185,-340.273 796,-291 821.383,-276.078 838.068,-243.703 845.141,-227.557"/>
<polygon fill="#9a32cd" stroke="#9a32cd" points="535.952,-326.302 525.633,-328.702 535.196,-333.261 535.952,-326.302"/>
<text text-anchor="middle" x="616" y="-336" font-family="Helvetica,sans-Serif" font-size="10.00"> m_crucialVoxel</text>
</g>
<!-- Node8 -->
<g id="node8" class="node"><title>Node8</title>
<polygon fill="white" stroke="#bfbfbf" points="544.5,-185.5 544.5,-204.5 687.5,-204.5 687.5,-185.5 544.5,-185.5"/>
<text text-anchor="middle" x="616" y="-192.5" font-family="Helvetica,sans-Serif" font-size="10.00">std::unique_ptr&lt; ObjectInfo &gt;</text>
</g>
<!-- Node8&#45;&gt;Node4 -->
<g id="edge8" class="edge"><title>Node8&#45;&gt;Node4</title>
<path fill="none" stroke="#9a32cd" stroke-dasharray="5,2" d="M697.554,-202.986C737.472,-206.943 783.584,-211.515 814.339,-214.564"/>
<polygon fill="#9a32cd" stroke="#9a32cd" points="697.849,-199.498 687.553,-201.994 697.158,-206.464 697.849,-199.498"/>
<text text-anchor="middle" x="751" y="-216" font-family="Helvetica,sans-Serif" font-size="10.00"> m_objectInfo</text>
</g>
<!-- Node9 -->
<g id="node9" class="node"><title>Node9</title>
<g id="a_node9"><a xlink:href="class_handle.html" target="_top" xlink:title="Handle\&lt; WorldObject \&gt;">
<polygon fill="white" stroke="black" points="556.5,-147.5 556.5,-166.5 675.5,-166.5 675.5,-147.5 556.5,-147.5"/>
<text text-anchor="middle" x="616" y="-154.5" font-family="Helvetica,sans-Serif" font-size="10.00">Handle&lt; WorldObject &gt;</text>
</a>
</g>
</g>
<!-- Node9&#45;&gt;Node4 -->
<g id="edge9" class="edge"><title>Node9&#45;&gt;Node4</title>
<path fill="none" stroke="#9a32cd" stroke-dasharray="5,2" d="M686.031,-164.734C719.808,-169.767 760.695,-177.742 796,-190 809.37,-194.642 823.492,-202.254 833.794,-208.371"/>
<polygon fill="#9a32cd" stroke="#9a32cd" points="686.186,-161.221 675.791,-163.265 685.192,-168.15 686.186,-161.221"/>
<text text-anchor="middle" x="751" y="-193" font-family="Helvetica,sans-Serif" font-size="10.00"> m_handle</text>
</g>
<!-- Node10&#45;&gt;Node4 -->
<g id="edge10" class="edge"><title>Node10&#45;&gt;Node4</title>
<path fill="none" stroke="#9a32cd" stroke-dasharray="5,2" d="M693.43,-277.235C725.937,-274.066 763.715,-267.675 796,-255 812.295,-248.602 828.411,-236.262 838.516,-227.598"/>
<polygon fill="#9a32cd" stroke="#9a32cd" points="692.726,-273.784 683.075,-278.155 693.345,-280.756 692.726,-273.784"/>
<text text-anchor="middle" x="751" y="-279" font-family="Helvetica,sans-Serif" font-size="10.00"> m_physics</text>
</g>
<!-- Node11 -->
<g id="node11" class="node"><title>Node11</title>
<polygon fill="white" stroke="#bfbfbf" points="552.5,-98 552.5,-128 679.5,-128 679.5,-98 552.5,-98"/>
<text text-anchor="start" x="560.5" y="-116" font-family="Helvetica,sans-Serif" font-size="10.00">std::unique_ptr&lt; Collision</text>
<text text-anchor="middle" x="616" y="-105" font-family="Helvetica,sans-Serif" font-size="10.00">Filter &gt;</text>
</g>
<!-- Node11&#45;&gt;Node4 -->
<g id="edge12" class="edge"><title>Node11&#45;&gt;Node4</title>
<path fill="none" stroke="#9a32cd" stroke-dasharray="5,2" d="M689.561,-118.776C723.842,-124.118 764.131,-134.366 796,-154 818.109,-167.621 835.329,-193.728 843.606,-208.029"/>
<polygon fill="#9a32cd" stroke="#9a32cd" points="689.997,-115.302 679.599,-117.333 688.994,-122.23 689.997,-115.302"/>
<text text-anchor="middle" x="751" y="-157" font-family="Helvetica,sans-Serif" font-size="10.00"> m_collisionFilter</text>
</g>
<!-- Node12 -->
<g id="node12" class="node"><title>Node12</title>
<polygon fill="white" stroke="#bfbfbf" points="552.5,-49 552.5,-79 679.5,-79 679.5,-49 552.5,-49"/>
<text text-anchor="start" x="560.5" y="-67" font-family="Helvetica,sans-Serif" font-size="10.00">std::unique_ptr&lt; Collision</text>
<text text-anchor="middle" x="616" y="-56" font-family="Helvetica,sans-Serif" font-size="10.00">Detector &gt;</text>
</g>
<!-- Node12&#45;&gt;Node4 -->
<g id="edge13" class="edge"><title>Node12&#45;&gt;Node4</title>
<path fill="none" stroke="#9a32cd" stroke-dasharray="5,2" d="M689.919,-67.119C725.213,-71.969 766.269,-82.9312 796,-107 829.195,-133.874 842.872,-186.506 847.267,-208.247"/>
<polygon fill="#9a32cd" stroke="#9a32cd" points="690.005,-63.6033 679.652,-65.8547 689.15,-70.5508 690.005,-63.6033"/>
<text text-anchor="middle" x="751" y="-110" font-family="Helvetica,sans-Serif" font-size="10.00"> m_collisionDetector</text>
</g>
<!-- Node13 -->
<g id="node13" class="node"><title>Node13</title>
<polygon fill="white" stroke="#bfbfbf" points="544,-0 544,-30 688,-30 688,-0 544,-0"/>
<text text-anchor="start" x="552" y="-18" font-family="Helvetica,sans-Serif" font-size="10.00">std::unique_ptr&lt; WorldObject</text>
<text text-anchor="middle" x="616" y="-7" font-family="Helvetica,sans-Serif" font-size="10.00">Components &gt;</text>
</g>
<!-- Node13&#45;&gt;Node4 -->
<g id="edge14" class="edge"><title>Node13&#45;&gt;Node4</title>
<path fill="none" stroke="#9a32cd" stroke-dasharray="5,2" d="M698.645,-16.5383C732.427,-21.1726 769.754,-32.0404 796,-56 841.895,-97.8972 848.158,-180.069 848.927,-208.246"/>
<polygon fill="#9a32cd" stroke="#9a32cd" points="698.637,-13.0122 688.291,-15.2925 697.801,-19.9621 698.637,-13.0122"/>
<text text-anchor="middle" x="751" y="-59" font-family="Helvetica,sans-Serif" font-size="10.00"> m_components</text>
</g>
<!-- Node14 -->
<g id="node14" class="node"><title>Node14</title>
<g id="a_node14"><a xlink:href="class_abstract_move.html" target="_top" xlink:title="AbstractMove">
<polygon fill="white" stroke="black" points="187,-226.5 187,-245.5 263,-245.5 263,-226.5 187,-226.5"/>
<text text-anchor="middle" x="225" y="-233.5" font-family="Helvetica,sans-Serif" font-size="10.00">AbstractMove</text>
</a>
</g>
</g>
<!-- Node14&#45;&gt;Node1 -->
<g id="edge15" class="edge"><title>Node14&#45;&gt;Node1</title>
<path fill="none" stroke="#9a32cd" stroke-dasharray="5,2" d="M273.401,-230.249C307.936,-227.504 355.556,-226.737 396,-237 406.504,-239.666 417.254,-245.416 425.378,-250.499"/>
<polygon fill="#9a32cd" stroke="#9a32cd" points="272.779,-226.79 263.125,-231.154 273.394,-233.763 272.779,-226.79"/>
<text text-anchor="middle" x="342" y="-251" font-family="Helvetica,sans-Serif" font-size="10.00"> m_speed</text>
<text text-anchor="middle" x="342" y="-240" font-family="Helvetica,sans-Serif" font-size="10.00">m_acceleration</text>
</g>
</g>
</svg>
        <g id="navigator" transform="translate(0 0)" fill="#404254">
                <rect fill="#f2f5e9" fill-opacity="0.5" stroke="#606060" stroke-width=".5" x="0" y="0" width="60" height="60"/>
                <use id="zoomplus" xlink:href="#zoomPlus" x="17" y="9" onmousedown="handleZoom(evt,'in')"/>
                <use id="zoomminus" xlink:href="#zoomMin" x="42" y="9" onmousedown="handleZoom(evt,'out')"/>
                <use id="reset" xlink:href="#resetDef" x="30" y="36" onmousedown="handleReset()"/>
                <g id="arrowUp" xlink:href="#dirArrow" transform="translate(30 24)" onmousedown="handlePan(0,-1)">
                  <use xlink:href="#rim" fill="#404040">
                        <set attributeName="fill" to="#808080" begin="arrowUp.mouseover" end="arrowUp.mouseout"/>
                  </use>
                  <path fill="none" stroke="white" stroke-width="1.5" d="M0,-3.0v7 M-2.5,-0.5L0,-3.0L2.5,-0.5"/>
                </g>
                <g id="arrowRight" xlink:href="#dirArrow" transform="rotate(90) translate(36 -43)" onmousedown="handlePan(1,0)">
                  <use xlink:href="#rim" fill="#404040">
                        <set attributeName="fill" to="#808080" begin="arrowRight.mouseover" end="arrowRight.mouseout"/>
                  </use>
                  <path fill="none" stroke="white" stroke-width="1.5" d="M0,-3.0v7 M-2.5,-0.5L0,-3.0L2.5,-0.5"/>
                </g>
                <g id="arrowDown" xlink:href="#dirArrow" transform="rotate(180) translate(-30 -48)" onmousedown="handlePan(0,1)">
                  <use xlink:href="#rim" fill="#404040">
                        <set attributeName="fill" to="#808080" begin="arrowDown.mouseover" end="arrowDown.mouseout"/>
                  </use>
                  <path fill="none" stroke="white" stroke-width="1.5" d="M0,-3.0v7 M-2.5,-0.5L0,-3.0L2.5,-0.5"/>
                </g>
                <g id="arrowLeft" xlink:href="#dirArrow" transform="rotate(270) translate(-36 17)" onmousedown="handlePan(-1,0)">
                  <use xlink:href="#rim" fill="#404040">
                        <set attributeName="fill" to="#808080" begin="arrowLeft.mouseover" end="arrowLeft.mouseout"/>
                  </use>
                  <path fill="none" stroke="white" stroke-width="1.5" d="M0,-3.0v7 M-2.5,-0.5L0,-3.0L2.5,-0.5"/>
                </g>
        </g>
        <svg viewBox="0 0 15 15" width="100%" height="30px" preserveAspectRatio="xMaxYMin meet">
         <g id="arrow_out" transform="scale(0.3 0.3)">
          <a xlink:href="class_physics__coll__graph_org.svg" target="_base">
           <rect id="button" ry="5" rx="5" y="6" x="6" height="38" width="38"
                fill="#f2f5e9" fill-opacity="0.5" stroke="#606060" stroke-width="1.0"/>
           <path id="arrow"
             d="M 11.500037,31.436501 C 11.940474,20.09759 22.043105,11.32322 32.158766,21.979434 L 37.068811,17.246167 C 37.068811,17.246167 37.088388,32 37.088388,32 L 22.160133,31.978069 C 22.160133,31.978069 26.997745,27.140456 26.997745,27.140456 C 18.528582,18.264221 13.291696,25.230495 11.500037,31.436501 z"
             style="fill:#404040;"/>
          </a>
         </g>
        </svg>
</svg>
