<?xml version="1.0" encoding="UTF-8" standalone="no"?>
<!DOCTYPE svg PUBLIC "-//W3C//DTD SVG 1.1//EN"
 "http://www.w3.org/Graphics/SVG/1.1/DTD/svg11.dtd">
<!-- Generated by graphviz version 2.36.0 (20140111.2315)
 -->
<!-- Title: TextFieldHudgetVoxels Pages: 1 -->
<svg width="856pt" height="144pt"
 viewBox="0.00 0.00 856.00 143.89" xmlns="http://www.w3.org/2000/svg" xmlns:xlink="http://www.w3.org/1999/xlink">
<g id="graph0" class="graph" transform="scale(1 1) rotate(0) translate(4 139.888)">
<title>TextFieldHudgetVoxels</title>
<polygon fill="white" stroke="none" points="-4,4 -4,-139.888 852,-139.888 852,4 -4,4"/>
<!-- Node1 -->
<g id="node1" class="node"><title>Node1</title>
<polygon fill="#bfbfbf" stroke="black" points="362.5,-24.3882 362.5,-43.3882 479.5,-43.3882 479.5,-24.3882 362.5,-24.3882"/>
<text text-anchor="middle" x="421" y="-31.3882" font-family="Helvetica,sans-Serif" font-size="10.00">TextFieldHudgetVoxels</text>
</g>
<!-- Node6 -->
<g id="node6" class="node"><title>Node6</title>
<polygon fill="white" stroke="#bfbfbf" points="550,-28.8882 550,-58.8882 680,-58.8882 680,-28.8882 550,-28.8882"/>
<text text-anchor="start" x="558" y="-46.8882" font-family="Helvetica,sans-Serif" font-size="10.00">std::unique_ptr&lt; TextField</text>
<text text-anchor="middle" x="615" y="-35.8882" font-family="Helvetica,sans-Serif" font-size="10.00">HudgetVoxels &gt;</text>
</g>
<!-- Node1&#45;&gt;Node6 -->
<g id="edge7" class="edge"><title>Node1&#45;&gt;Node6</title>
<path fill="none" stroke="#9a32cd" stroke-dasharray="5,2" d="M489.639,-37.4111C509.162,-38.4279 530.404,-39.5343 549.716,-40.5401"/>
<polygon fill="#9a32cd" stroke="#9a32cd" points="489.775,-33.9135 479.606,-36.8886 489.411,-40.904 489.775,-33.9135"/>
<text text-anchor="middle" x="515" y="-42.8882" font-family="Helvetica,sans-Serif" font-size="10.00"> ptr</text>
</g>
<!-- Node2 -->
<g id="node2" class="node"><title>Node2</title>
<g id="a_node2"><a xlink:href="class_voxel_font.html" target="_top" xlink:title="VoxelFont">
<polygon fill="white" stroke="black" points="206.5,-11.3882 206.5,-30.3882 267.5,-30.3882 267.5,-11.3882 206.5,-11.3882"/>
<text text-anchor="middle" x="237" y="-18.3882" font-family="Helvetica,sans-Serif" font-size="10.00">VoxelFont</text>
</a>
</g>
</g>
<!-- Node2&#45;&gt;Node1 -->
<g id="edge1" class="edge"><title>Node2&#45;&gt;Node1</title>
<path fill="none" stroke="#9a32cd" stroke-dasharray="5,2" d="M277.952,-22.8158C297.818,-23.8593 322.186,-25.2668 344,-26.8882 349.946,-27.3302 356.15,-27.8331 362.338,-28.3619"/>
<polygon fill="#9a32cd" stroke="#9a32cd" points="277.884,-19.3078 267.717,-22.2893 277.524,-26.2985 277.884,-19.3078"/>
<text text-anchor="middle" x="315" y="-29.8882" font-family="Helvetica,sans-Serif" font-size="10.00"> m_voxelFont</text>
</g>
<!-- Node2&#45;&gt;Node2 -->
<g id="edge3" class="edge"><title>Node2&#45;&gt;Node2</title>
<path fill="none" stroke="#9a32cd" stroke-dasharray="5,2" d="M223.372,-40.6545C224.443,-45.3848 228.985,-48.8882 237,-48.8882 250.152,-48.8882 253.954,-39.4535 248.406,-30.6453"/>
<polygon fill="#9a32cd" stroke="#9a32cd" points="226.844,-41.1662 225.594,-30.6453 220.01,-39.6491 226.844,-41.1662"/>
<text text-anchor="middle" x="237" y="-51.8882" font-family="Helvetica,sans-Serif" font-size="10.00"> s_instance</text>
</g>
<!-- Node3 -->
<g id="node3" class="node"><title>Node3</title>
<polygon fill="white" stroke="#bfbfbf" points="0.5,-5.88823 0.5,-35.8882 119.5,-35.8882 119.5,-5.88823 0.5,-5.88823"/>
<text text-anchor="start" x="8.5" y="-23.8882" font-family="Helvetica,sans-Serif" font-size="10.00">std::map&lt; char, std</text>
<text text-anchor="middle" x="60" y="-12.8882" font-family="Helvetica,sans-Serif" font-size="10.00">::unique_ptr&lt; Letter &gt; &gt;</text>
</g>
<!-- Node3&#45;&gt;Node2 -->
<g id="edge2" class="edge"><title>Node3&#45;&gt;Node2</title>
<path fill="none" stroke="#9a32cd" stroke-dasharray="5,2" d="M129.774,-20.8882C156.266,-20.8882 185.162,-20.8882 206.118,-20.8882"/>
<polygon fill="#9a32cd" stroke="#9a32cd" points="129.759,-17.3883 119.759,-20.8882 129.759,-24.3883 129.759,-17.3883"/>
<text text-anchor="middle" x="163" y="-34.8882" font-family="Helvetica,sans-Serif" font-size="10.00"> m_font5x7</text>
<text text-anchor="middle" x="163" y="-23.8882" font-family="Helvetica,sans-Serif" font-size="10.00">m_font3x5</text>
</g>
<!-- Node4 -->
<g id="node4" class="node"><title>Node4</title>
<g id="a_node4"><a xlink:href="class_text_field_hudget.html" target="_top" xlink:title="TextFieldHudget">
<polygon fill="white" stroke="black" points="760.5,-60.3882 760.5,-79.3882 847.5,-79.3882 847.5,-60.3882 760.5,-60.3882"/>
<text text-anchor="middle" x="804" y="-67.3882" font-family="Helvetica,sans-Serif" font-size="10.00">TextFieldHudget</text>
</a>
</g>
</g>
<!-- Node4&#45;&gt;Node1 -->
<g id="edge4" class="edge"><title>Node4&#45;&gt;Node1</title>
<path fill="none" stroke="#9a32cd" stroke-dasharray="5,2" d="M780.864,-54.6978C757.146,-39.4189 717.791,-16.8743 680,-7.88823 599.413,11.274 501.386,-10.5411 452.621,-24.3279"/>
<polygon fill="#9a32cd" stroke="#9a32cd" points="779.167,-57.7707 789.443,-60.3495 783.018,-51.9252 779.167,-57.7707"/>
<text text-anchor="middle" x="615" y="-10.8882" font-family="Helvetica,sans-Serif" font-size="10.00"> m_textFieldHudget</text>
</g>
<!-- Node5 -->
<g id="node5" class="node"><title>Node5</title>
<g id="a_node5"><a xlink:href="class_hudget.html" target="_top" xlink:title="Hudget">
<polygon fill="white" stroke="red" points="591.5,-116.388 591.5,-135.388 638.5,-135.388 638.5,-116.388 591.5,-116.388"/>
<text text-anchor="middle" x="615" y="-123.388" font-family="Helvetica,sans-Serif" font-size="10.00">Hudget</text>
</a>
</g>
</g>
<!-- Node5&#45;&gt;Node4 -->
<g id="edge5" class="edge"><title>Node5&#45;&gt;Node4</title>
<path fill="none" stroke="midnightblue" d="M648.849,-122.328C674.688,-118.889 711.324,-112.59 742,-101.888 758.26,-96.2156 775.528,-86.7996 787.526,-79.6465"/>
<polygon fill="midnightblue" stroke="midnightblue" points="648.312,-118.867 638.828,-123.59 649.187,-125.813 648.312,-118.867"/>
</g>
<!-- Node6&#45;&gt;Node4 -->
<g id="edge6" class="edge"><title>Node6&#45;&gt;Node4</title>
<path fill="none" stroke="#9a32cd" stroke-dasharray="5,2" d="M690.191,-54.2035C714.046,-57.5204 739.656,-61.081 760.435,-63.9701"/>
<polygon fill="#9a32cd" stroke="#9a32cd" points="690.48,-50.7101 680.093,-52.7996 689.516,-57.6434 690.48,-50.7101"/>
<text text-anchor="middle" x="720" y="-63.8882" font-family="Helvetica,sans-Serif" font-size="10.00"> m_voxels</text>
</g>
<!-- Node7 -->
<g id="node7" class="node"><title>Node7</title>
<g id="a_node7"><a xlink:title="STL class. ">
<polygon fill="white" stroke="#bfbfbf" points="207,-78.3882 207,-97.3882 267,-97.3882 267,-78.3882 207,-78.3882"/>
<text text-anchor="middle" x="237" y="-85.3882" font-family="Helvetica,sans-Serif" font-size="10.00">std::string</text>
</a>
</g>
</g>
<!-- Node7&#45;&gt;Node1 -->
<g id="edge9" class="edge"><title>Node7&#45;&gt;Node1</title>
<path fill="none" stroke="#9a32cd" stroke-dasharray="5,2" d="M263.179,-73.17C270.375,-69.4099 278.345,-65.6535 286,-62.8882 310.401,-54.0735 338.316,-47.5076 362.329,-42.8736"/>
<polygon fill="#9a32cd" stroke="#9a32cd" points="261.05,-70.3444 253.949,-78.207 264.403,-76.489 261.05,-70.3444"/>
<text text-anchor="middle" x="315" y="-65.8882" font-family="Helvetica,sans-Serif" font-size="10.00"> m_text</text>
</g>
<!-- Node7&#45;&gt;Node4 -->
<g id="edge8" class="edge"><title>Node7&#45;&gt;Node4</title>
<path fill="none" stroke="#9a32cd" stroke-dasharray="5,2" d="M277.498,-87.2975C362.493,-85.9151 569.055,-81.9577 742,-73.8882 747.937,-73.6112 754.195,-73.264 760.35,-72.8905"/>
<polygon fill="#9a32cd" stroke="#9a32cd" points="277.215,-83.8015 267.272,-87.4609 277.327,-90.8006 277.215,-83.8015"/>
<text text-anchor="middle" x="515" y="-85.8882" font-family="Helvetica,sans-Serif" font-size="10.00"> m_text</text>
</g>
</g>
</svg>
