<?xml version="1.0" encoding="UTF-8" standalone="no"?>
<!DOCTYPE svg PUBLIC "-//W3C//DTD SVG 1.1//EN"
 "http://www.w3.org/Graphics/SVG/1.1/DTD/svg11.dtd">
<!-- Generated by graphviz version 2.36.0 (20140111.2315)
 -->
<!-- Title: Mover Pages: 1 -->
<svg width="153pt" height="164pt"
 viewBox="0.00 0.00 153.00 164.00" xmlns="http://www.w3.org/2000/svg" xmlns:xlink="http://www.w3.org/1999/xlink">
<g id="graph0" class="graph" transform="scale(1 1) rotate(0) translate(4 160)">
<title>Mover</title>
<polygon fill="white" stroke="none" points="-4,4 -4,-160 149,-160 149,4 -4,4"/>
<!-- Node1 -->
<g id="node1" class="node"><title>Node1</title>
<polygon fill="#bfbfbf" stroke="black" points="43,-0.5 43,-19.5 85,-19.5 85,-0.5 43,-0.5"/>
<text text-anchor="middle" x="64" y="-7.5" font-family="Helvetica,sans-Serif" font-size="10.00">Mover</text>
</g>
<!-- Node2 -->
<g id="node2" class="node"><title>Node2</title>
<polygon fill="white" stroke="#bfbfbf" points="0,-68.5 0,-87.5 128,-87.5 128,-68.5 0,-68.5"/>
<text text-anchor="middle" x="64" y="-75.5" font-family="Helvetica,sans-Serif" font-size="10.00">std::list&lt; VoxelCollision &gt;</text>
</g>
<!-- Node2&#45;&gt;Node1 -->
<g id="edge1" class="edge"><title>Node2&#45;&gt;Node1</title>
<path fill="none" stroke="#9a32cd" stroke-dasharray="5,2" d="M64,-58.0413C64,-45.4724 64,-29.5631 64,-19.8411"/>
<polygon fill="#9a32cd" stroke="#9a32cd" points="60.5001,-58.3716 64,-68.3717 67.5001,-58.3717 60.5001,-58.3716"/>
<text text-anchor="middle" x="104.5" y="-41.5" font-family="Helvetica,sans-Serif" font-size="10.00"> m_voxelCollisions</text>
</g>
<!-- Node3 -->
<g id="node3" class="node"><title>Node3</title>
<g id="a_node3"><a xlink:href="class_voxel_collision.html" target="_top" xlink:title="VoxelCollision">
<polygon fill="white" stroke="red" points="25,-136.5 25,-155.5 103,-155.5 103,-136.5 25,-136.5"/>
<text text-anchor="middle" x="64" y="-143.5" font-family="Helvetica,sans-Serif" font-size="10.00">VoxelCollision</text>
</a>
</g>
</g>
<!-- Node3&#45;&gt;Node2 -->
<g id="edge2" class="edge"><title>Node3&#45;&gt;Node2</title>
<path fill="none" stroke="#9a32cd" stroke-dasharray="5,2" d="M64,-126.041C64,-113.472 64,-97.5631 64,-87.8411"/>
<polygon fill="#9a32cd" stroke="#9a32cd" points="60.5001,-126.372 64,-136.372 67.5001,-126.372 60.5001,-126.372"/>
<text text-anchor="middle" x="85.5" y="-109.5" font-family="Helvetica,sans-Serif" font-size="10.00"> elements</text>
</g>
</g>
</svg>
