<?xml version="1.0" encoding="UTF-8" standalone="no"?>
<!DOCTYPE svg PUBLIC "-//W3C//DTD SVG 1.1//EN"
 "http://www.w3.org/Graphics/SVG/1.1/DTD/svg11.dtd">
<!-- Generated by graphviz version 2.36.0 (20140111.2315)
 -->
<!-- Title: ObjectHudget Pages: 1 -->
<svg width="736pt" height="290pt"
 viewBox="0.00 0.00 736.00 290.00" xmlns="http://www.w3.org/2000/svg" xmlns:xlink="http://www.w3.org/1999/xlink">
<g id="graph0" class="graph" transform="scale(1 1) rotate(0) translate(4 286)">
<title>ObjectHudget</title>
<polygon fill="white" stroke="none" points="-4,4 -4,-286 732,-286 732,4 -4,4"/>
<!-- Node1 -->
<g id="node1" class="node"><title>Node1</title>
<polygon fill="#bfbfbf" stroke="black" points="226,-131.5 226,-150.5 302,-150.5 302,-131.5 226,-131.5"/>
<text text-anchor="middle" x="264" y="-138.5" font-family="Helvetica,sans-Serif" font-size="10.00">ObjectHudget</text>
</g>
<!-- Node4 -->
<g id="node4" class="node"><title>Node4</title>
<g id="a_node4"><a xlink:href="class_h_u_d_object_delegate.html" target="_top" xlink:title="HUDObjectDelegate">
<polygon fill="white" stroke="red" points="421,-198.5 421,-217.5 525,-217.5 525,-198.5 421,-198.5"/>
<text text-anchor="middle" x="473" y="-205.5" font-family="Helvetica,sans-Serif" font-size="10.00">HUDObjectDelegate</text>
</a>
</g>
</g>
<!-- Node1&#45;&gt;Node4 -->
<g id="edge5" class="edge"><title>Node1&#45;&gt;Node4</title>
<path fill="none" stroke="#9a32cd" stroke-dasharray="5,2" d="M280.957,-158.055C291.156,-167.859 305.21,-179.488 320,-186 351.724,-199.967 390.425,-205.422 420.837,-207.408"/>
<polygon fill="#9a32cd" stroke="#9a32cd" points="283.195,-155.341 273.664,-150.715 278.23,-160.275 283.195,-155.341"/>
<text text-anchor="middle" x="361" y="-208" font-family="Helvetica,sans-Serif" font-size="10.00"> m_hudget</text>
</g>
<!-- Node6 -->
<g id="node6" class="node"><title>Node6</title>
<g id="a_node6"><a xlink:href="class_arrow_hudget_voxels.html" target="_top" xlink:title="ArrowHudgetVoxels">
<polygon fill="white" stroke="red" points="422,-85.5 422,-104.5 524,-104.5 524,-85.5 422,-85.5"/>
<text text-anchor="middle" x="473" y="-92.5" font-family="Helvetica,sans-Serif" font-size="10.00">ArrowHudgetVoxels</text>
</a>
</g>
</g>
<!-- Node1&#45;&gt;Node6 -->
<g id="edge8" class="edge"><title>Node1&#45;&gt;Node6</title>
<path fill="none" stroke="#9a32cd" stroke-dasharray="5,2" d="M292.103,-126.802C300.81,-122.756 310.631,-118.714 320,-116 353.264,-106.364 391.941,-101.099 421.956,-98.2512"/>
<polygon fill="#9a32cd" stroke="#9a32cd" points="290.298,-123.787 282.828,-131.302 293.353,-130.085 290.298,-123.787"/>
<text text-anchor="middle" x="361" y="-119" font-family="Helvetica,sans-Serif" font-size="10.00"> m_hudget</text>
</g>
<!-- Node8 -->
<g id="node8" class="node"><title>Node8</title>
<g id="a_node8"><a xlink:href="class_object_hudget_voxels.html" target="_top" xlink:title="ObjectHudgetVoxels">
<polygon fill="white" stroke="red" points="420,-0.5 420,-19.5 526,-19.5 526,-0.5 420,-0.5"/>
<text text-anchor="middle" x="473" y="-7.5" font-family="Helvetica,sans-Serif" font-size="10.00">ObjectHudgetVoxels</text>
</a>
</g>
</g>
<!-- Node1&#45;&gt;Node8 -->
<g id="edge11" class="edge"><title>Node1&#45;&gt;Node8</title>
<path fill="none" stroke="#9a32cd" stroke-dasharray="5,2" d="M268.906,-121.511C275.07,-96.2288 289.622,-52.7889 320,-31 348.574,-10.5049 388.093,-5.56213 419.673,-5.58235"/>
<polygon fill="#9a32cd" stroke="#9a32cd" points="265.458,-120.891 266.696,-131.413 272.29,-122.416 265.458,-120.891"/>
<text text-anchor="middle" x="361" y="-34" font-family="Helvetica,sans-Serif" font-size="10.00"> m_hudget</text>
</g>
<!-- Node2 -->
<g id="node2" class="node"><title>Node2</title>
<g id="a_node2"><a xlink:href="class_hudget.html" target="_top" xlink:title="Hudget">
<polygon fill="white" stroke="black" points="108.5,-262.5 108.5,-281.5 155.5,-281.5 155.5,-262.5 108.5,-262.5"/>
<text text-anchor="middle" x="132" y="-269.5" font-family="Helvetica,sans-Serif" font-size="10.00">Hudget</text>
</a>
</g>
</g>
<!-- Node2&#45;&gt;Node1 -->
<g id="edge1" class="edge"><title>Node2&#45;&gt;Node1</title>
<path fill="none" stroke="midnightblue" d="M165.555,-267.861C179.863,-264.666 196.084,-259.01 208,-249 240.062,-222.068 255.512,-171.746 260.803,-150.673"/>
<polygon fill="midnightblue" stroke="midnightblue" points="164.723,-264.456 155.563,-269.779 166.043,-271.331 164.723,-264.456"/>
</g>
<!-- Node3 -->
<g id="node3" class="node"><title>Node3</title>
<g id="a_node3"><a xlink:href="class_h_u_d.html" target="_top" xlink:title="HUD">
<polygon fill="white" stroke="red" points="0.5,-241.5 0.5,-260.5 37.5,-260.5 37.5,-241.5 0.5,-241.5"/>
<text text-anchor="middle" x="19" y="-248.5" font-family="Helvetica,sans-Serif" font-size="10.00">HUD</text>
</a>
</g>
</g>
<!-- Node3&#45;&gt;Node2 -->
<g id="edge2" class="edge"><title>Node3&#45;&gt;Node2</title>
<path fill="none" stroke="#9a32cd" stroke-dasharray="5,2" d="M47.8041,-256.26C66.4508,-259.788 90.7061,-264.377 108.211,-267.689"/>
<polygon fill="#9a32cd" stroke="#9a32cd" points="48.3104,-252.794 37.8341,-254.374 47.0091,-259.672 48.3104,-252.794"/>
<text text-anchor="middle" x="73" y="-266" font-family="Helvetica,sans-Serif" font-size="10.00"> m_hud</text>
</g>
<!-- Node3&#45;&gt;Node4 -->
<g id="edge4" class="edge"><title>Node3&#45;&gt;Node4</title>
<path fill="none" stroke="#9a32cd" stroke-dasharray="5,2" d="M47.8945,-249.587C111.095,-246.2 269.975,-236.64 402,-220 408.117,-219.229 414.514,-218.302 420.85,-217.308"/>
<polygon fill="#9a32cd" stroke="#9a32cd" points="47.374,-246.11 37.5719,-250.131 47.7421,-253.1 47.374,-246.11"/>
<text text-anchor="middle" x="191" y="-244" font-family="Helvetica,sans-Serif" font-size="10.00"> m_hud</text>
</g>
<!-- Node4&#45;&gt;Node1 -->
<g id="edge3" class="edge"><title>Node4&#45;&gt;Node1</title>
<path fill="none" stroke="#9a32cd" stroke-dasharray="5,2" d="M445.116,-193.8C432.309,-187.434 416.626,-180.205 402,-175 368.984,-163.251 330.106,-154.019 302.216,-148.158"/>
<polygon fill="#9a32cd" stroke="#9a32cd" points="443.782,-197.048 454.283,-198.452 446.95,-190.805 443.782,-197.048"/>
<text text-anchor="middle" x="361" y="-178" font-family="Helvetica,sans-Serif" font-size="10.00"> m_objectDelegate</text>
</g>
<!-- Node5 -->
<g id="node5" class="node"><title>Node5</title>
<polygon fill="white" stroke="#bfbfbf" points="580,-95 580,-125 726,-125 726,-95 580,-95"/>
<text text-anchor="start" x="588" y="-113" font-family="Helvetica,sans-Serif" font-size="10.00">std::unique_ptr&lt; ArrowHudget</text>
<text text-anchor="middle" x="653" y="-102" font-family="Helvetica,sans-Serif" font-size="10.00">Voxels &gt;</text>
</g>
<!-- Node5&#45;&gt;Node1 -->
<g id="edge6" class="edge"><title>Node5&#45;&gt;Node1</title>
<path fill="none" stroke="#9a32cd" stroke-dasharray="5,2" d="M569.535,-116.606C486.86,-123.228 363.31,-133.125 302.107,-138.028"/>
<polygon fill="#9a32cd" stroke="#9a32cd" points="569.97,-120.082 579.659,-115.795 569.411,-113.105 569.97,-120.082"/>
<text text-anchor="middle" x="473" y="-131" font-family="Helvetica,sans-Serif" font-size="10.00"> m_arrowVoxels</text>
</g>
<!-- Node6&#45;&gt;Node5 -->
<g id="edge7" class="edge"><title>Node6&#45;&gt;Node5</title>
<path fill="none" stroke="#9a32cd" stroke-dasharray="5,2" d="M534.432,-100.093C548.993,-101.32 564.696,-102.643 579.737,-103.91"/>
<polygon fill="#9a32cd" stroke="#9a32cd" points="534.315,-96.5704 524.057,-99.2183 533.727,-103.546 534.315,-96.5704"/>
<text text-anchor="middle" x="552" y="-105" font-family="Helvetica,sans-Serif" font-size="10.00"> ptr</text>
</g>
<!-- Node7 -->
<g id="node7" class="node"><title>Node7</title>
<polygon fill="white" stroke="#bfbfbf" points="578.5,-31 578.5,-61 727.5,-61 727.5,-31 578.5,-31"/>
<text text-anchor="start" x="586.5" y="-49" font-family="Helvetica,sans-Serif" font-size="10.00">std::unique_ptr&lt; ObjectHudget</text>
<text text-anchor="middle" x="653" y="-38" font-family="Helvetica,sans-Serif" font-size="10.00">Voxels &gt;</text>
</g>
<!-- Node7&#45;&gt;Node1 -->
<g id="edge9" class="edge"><title>Node7&#45;&gt;Node1</title>
<path fill="none" stroke="#9a32cd" stroke-dasharray="5,2" d="M568.152,-43.3253C497.918,-44.54 397.075,-54.5751 320,-96 302.178,-105.579 284.618,-121.353 274.299,-131.453"/>
<polygon fill="#9a32cd" stroke="#9a32cd" points="568.327,-46.8236 578.286,-43.2074 568.246,-39.8241 568.327,-46.8236"/>
<text text-anchor="middle" x="473" y="-61" font-family="Helvetica,sans-Serif" font-size="10.00"> m_objectVoxels</text>
</g>
<!-- Node8&#45;&gt;Node7 -->
<g id="edge10" class="edge"><title>Node8&#45;&gt;Node7</title>
<path fill="none" stroke="#9a32cd" stroke-dasharray="5,2" d="M531.352,-21.5992C546.319,-24.6264 562.661,-27.9313 578.346,-31.1037"/>
<polygon fill="#9a32cd" stroke="#9a32cd" points="531.729,-18.1047 521.233,-19.5528 530.341,-24.9658 531.729,-18.1047"/>
<text text-anchor="middle" x="552" y="-29" font-family="Helvetica,sans-Serif" font-size="10.00"> ptr</text>
</g>
</g>
</svg>
