<?xml version="1.0" encoding="UTF-8" standalone="no"?>
<!DOCTYPE svg PUBLIC "-//W3C//DTD SVG 1.1//EN"
 "http://www.w3.org/Graphics/SVG/1.1/DTD/svg11.dtd">
<!-- Generated by graphviz version 2.36.0 (20140111.2315)
 -->
<!-- Title: HMD Pages: 1 -->
<svg width="292pt" height="176pt"
 viewBox="0.00 0.00 292.00 176.00" xmlns="http://www.w3.org/2000/svg" xmlns:xlink="http://www.w3.org/1999/xlink">
<g id="graph0" class="graph" transform="scale(1 1) rotate(0) translate(4 172)">
<title>HMD</title>
<polygon fill="white" stroke="none" points="-4,4 -4,-172 288,-172 288,4 -4,4"/>
<!-- Node1 -->
<g id="node1" class="node"><title>Node1</title>
<polygon fill="#bfbfbf" stroke="black" points="90,-0.5 90,-19.5 128,-19.5 128,-0.5 90,-0.5"/>
<text text-anchor="middle" x="109" y="-7.5" font-family="Helvetica,sans-Serif" font-size="10.00">HMD</text>
</g>
<!-- Node2 -->
<g id="node2" class="node"><title>Node2</title>
<polygon fill="white" stroke="#bfbfbf" points="-0.5,-69 -0.5,-99 110.5,-99 110.5,-69 -0.5,-69"/>
<text text-anchor="start" x="7.5" y="-87" font-family="Helvetica,sans-Serif" font-size="10.00">std::unique_ptr&lt; OVR</text>
<text text-anchor="middle" x="55" y="-76" font-family="Helvetica,sans-Serif" font-size="10.00">::SensorFusion &gt;</text>
</g>
<!-- Node2&#45;&gt;Node1 -->
<g id="edge1" class="edge"><title>Node2&#45;&gt;Node1</title>
<path fill="none" stroke="#9a32cd" stroke-dasharray="5,2" d="M57.3922,-58.8136C58.992,-51.6175 61.6374,-44.0476 66,-38 71.9822,-29.7072 81.3719,-23.386 89.8527,-18.9524"/>
<polygon fill="#9a32cd" stroke="#9a32cd" points="53.908,-58.4295 55.7181,-68.8686 60.813,-59.5792 53.908,-58.4295"/>
<text text-anchor="middle" x="104" y="-41.5" font-family="Helvetica,sans-Serif" font-size="10.00"> m_sensorFusion</text>
</g>
<!-- Node3 -->
<g id="node3" class="node"><title>Node3</title>
<g id="a_node3"><a xlink:href="class_stereo_render_info.html" target="_top" xlink:title="StereoRenderInfo">
<polygon fill="white" stroke="black" points="128.5,-74.5 128.5,-93.5 219.5,-93.5 219.5,-74.5 128.5,-74.5"/>
<text text-anchor="middle" x="174" y="-81.5" font-family="Helvetica,sans-Serif" font-size="10.00">StereoRenderInfo</text>
</a>
</g>
</g>
<!-- Node3&#45;&gt;Node1 -->
<g id="edge2" class="edge"><title>Node3&#45;&gt;Node1</title>
<path fill="none" stroke="#9a32cd" stroke-dasharray="5,2" d="M163.216,-65.6043C157.432,-56.8935 149.884,-46.4352 142,-38 135.631,-31.1857 127.538,-24.5385 120.96,-19.5447"/>
<polygon fill="#9a32cd" stroke="#9a32cd" points="160.382,-67.6696 168.731,-74.1922 166.272,-63.8867 160.382,-67.6696"/>
<text text-anchor="middle" x="197" y="-41.5" font-family="Helvetica,sans-Serif" font-size="10.00"> m_stereoRenderInfo</text>
</g>
<!-- Node4 -->
<g id="node4" class="node"><title>Node4</title>
<g id="a_node4"><a xlink:href="class_property.html" target="_top" xlink:title="Property\&lt; float \&gt;">
<polygon fill="white" stroke="red" points="73.5,-148.5 73.5,-167.5 162.5,-167.5 162.5,-148.5 73.5,-148.5"/>
<text text-anchor="middle" x="118" y="-155.5" font-family="Helvetica,sans-Serif" font-size="10.00">Property&lt; float &gt;</text>
</a>
</g>
</g>
<!-- Node4&#45;&gt;Node3 -->
<g id="edge3" class="edge"><title>Node4&#45;&gt;Node3</title>
<path fill="none" stroke="#9a32cd" stroke-dasharray="5,2" d="M128.693,-139.767C133.195,-132.839 138.629,-124.879 144,-118 150.766,-109.334 159.257,-100.128 165.476,-93.6482"/>
<polygon fill="#9a32cd" stroke="#9a32cd" points="125.632,-138.059 123.226,-148.377 131.542,-141.811 125.632,-138.059"/>
<text text-anchor="middle" x="176" y="-121.5" font-family="Helvetica,sans-Serif" font-size="10.00"> m_eyeZOffset</text>
</g>
<!-- Node5 -->
<g id="node5" class="node"><title>Node5</title>
<polygon fill="white" stroke="#bfbfbf" points="181,-148.5 181,-167.5 279,-167.5 279,-148.5 181,-148.5"/>
<text text-anchor="middle" x="230" y="-155.5" font-family="Helvetica,sans-Serif" font-size="10.00">std::vector&lt; float &gt;</text>
</g>
<!-- Node5&#45;&gt;Node3 -->
<g id="edge4" class="edge"><title>Node5&#45;&gt;Node3</title>
<path fill="none" stroke="#9a32cd" stroke-dasharray="5,2" d="M221.25,-139.01C217.565,-132.158 212.976,-124.452 208,-118 200.967,-108.881 191.458,-99.8663 184.284,-93.5694"/>
<polygon fill="#9a32cd" stroke="#9a32cd" points="218.275,-140.88 225.942,-148.192 224.509,-137.695 218.275,-140.88"/>
<text text-anchor="middle" x="249.5" y="-121.5" font-family="Helvetica,sans-Serif" font-size="10.00"> m_distortionKs</text>
</g>
</g>
</svg>
