<?xml version="1.0" encoding="UTF-8" standalone="no"?>
<!DOCTYPE svg PUBLIC "-//W3C//DTD SVG 1.1//EN"
 "http://www.w3.org/Graphics/SVG/1.1/DTD/svg11.dtd">
<!-- Generated by graphviz version 2.36.0 (20140111.2315)
 -->
<!-- Title: PoliceFaction Pages: 1 -->
<svg width="702pt" height="104pt"
 viewBox="0.00 0.00 702.00 104.00" xmlns="http://www.w3.org/2000/svg" xmlns:xlink="http://www.w3.org/1999/xlink">
<g id="graph0" class="graph" transform="scale(1 1) rotate(0) translate(4 100)">
<title>PoliceFaction</title>
<polygon fill="white" stroke="none" points="-4,4 -4,-100 698,-100 698,4 -4,4"/>
<!-- Node1 -->
<g id="node1" class="node"><title>Node1</title>
<polygon fill="#bfbfbf" stroke="black" points="0,-55.5 0,-74.5 76,-74.5 76,-55.5 0,-55.5"/>
<text text-anchor="middle" x="38" y="-62.5" font-family="Helvetica,sans-Serif" font-size="10.00">PoliceFaction</text>
</g>
<!-- Node5 -->
<g id="node5" class="node"><title>Node5</title>
<g id="a_node5"><a xlink:href="class_faction_matrix.html" target="_top" xlink:title="FactionMatrix">
<polygon fill="white" stroke="red" points="188,-76.5 188,-95.5 264,-95.5 264,-76.5 188,-76.5"/>
<text text-anchor="middle" x="226" y="-83.5" font-family="Helvetica,sans-Serif" font-size="10.00">FactionMatrix</text>
</a>
</g>
</g>
<!-- Node1&#45;&gt;Node5 -->
<g id="edge6" class="edge"><title>Node1&#45;&gt;Node5</title>
<path fill="none" stroke="#9a32cd" stroke-dasharray="5,2" d="M86.4918,-70.362C117.995,-73.9187 158.743,-78.5194 187.872,-81.8081"/>
<polygon fill="#9a32cd" stroke="#9a32cd" points="86.5224,-66.8433 76.1928,-69.1992 85.737,-73.7991 86.5224,-66.8433"/>
<text text-anchor="middle" x="132" y="-82" font-family="Helvetica,sans-Serif" font-size="10.00"> m_policeFaction</text>
</g>
<!-- Node2 -->
<g id="node2" class="node"><title>Node2</title>
<g id="a_node2"><a xlink:href="class_faction.html" target="_top" xlink:title="Faction">
<polygon fill="white" stroke="black" points="374.5,-38.5 374.5,-57.5 423.5,-57.5 423.5,-38.5 374.5,-38.5"/>
<text text-anchor="middle" x="399" y="-45.5" font-family="Helvetica,sans-Serif" font-size="10.00">Faction</text>
</a>
</g>
</g>
<!-- Node2&#45;&gt;Node1 -->
<g id="edge1" class="edge"><title>Node2&#45;&gt;Node1</title>
<path fill="none" stroke="midnightblue" d="M364.335,-49.5942C296.985,-52.7834 146.128,-59.9271 76.0671,-63.2447"/>
<polygon fill="midnightblue" stroke="midnightblue" points="364.578,-53.0867 374.402,-49.1175 364.247,-46.0945 364.578,-53.0867"/>
</g>
<!-- Node4 -->
<g id="node4" class="node"><title>Node4</title>
<polygon fill="white" stroke="#bfbfbf" points="514.5,-33 514.5,-63 693.5,-63 693.5,-33 514.5,-33"/>
<text text-anchor="start" x="522.5" y="-51" font-family="Helvetica,sans-Serif" font-size="10.00">std::map&lt; Faction *,</text>
<text text-anchor="middle" x="604" y="-40" font-family="Helvetica,sans-Serif" font-size="10.00"> std::shared_ptr&lt; FactionRelation &gt; &gt;</text>
</g>
<!-- Node2&#45;&gt;Node4 -->
<g id="edge4" class="edge"><title>Node2&#45;&gt;Node4</title>
<path fill="none" stroke="#9a32cd" stroke-dasharray="5,2" d="M433.835,-48C455.873,-48 485.727,-48 514.222,-48"/>
<polygon fill="#9a32cd" stroke="#9a32cd" points="433.684,-44.5001 423.684,-48 433.684,-51.5001 433.684,-44.5001"/>
<text text-anchor="middle" x="469" y="-51" font-family="Helvetica,sans-Serif" font-size="10.00"> keys</text>
</g>
<!-- Node3 -->
<g id="node3" class="node"><title>Node3</title>
<g id="a_node3"><a xlink:title="STL class. ">
<polygon fill="white" stroke="#bfbfbf" points="196,-0.5 196,-19.5 256,-19.5 256,-0.5 196,-0.5"/>
<text text-anchor="middle" x="226" y="-7.5" font-family="Helvetica,sans-Serif" font-size="10.00">std::string</text>
</a>
</g>
</g>
<!-- Node3&#45;&gt;Node2 -->
<g id="edge2" class="edge"><title>Node3&#45;&gt;Node2</title>
<path fill="none" stroke="#9a32cd" stroke-dasharray="5,2" d="M266.201,-3.83983C292.46,-1.32186 327.338,-1.14387 356,-12 370.01,-17.3066 382.542,-29.514 390.194,-38.2412"/>
<polygon fill="#9a32cd" stroke="#9a32cd" points="265.787,-0.364216 256.234,-4.94592 266.559,-7.32151 265.787,-0.364216"/>
<text text-anchor="middle" x="319" y="-26" font-family="Helvetica,sans-Serif" font-size="10.00"> m_printName</text>
<text text-anchor="middle" x="319" y="-15" font-family="Helvetica,sans-Serif" font-size="10.00">m_key</text>
</g>
<!-- Node4&#45;&gt;Node2 -->
<g id="edge3" class="edge"><title>Node4&#45;&gt;Node2</title>
<path fill="none" stroke="#9a32cd" stroke-dasharray="5,2" d="M526.002,-31.5895C499.272,-28.2053 469.19,-26.9963 442,-32 434.786,-33.3275 427.208,-35.8373 420.504,-38.4822"/>
<polygon fill="#9a32cd" stroke="#9a32cd" points="525.684,-35.0787 536.07,-32.9846 526.645,-28.145 525.684,-35.0787"/>
<text text-anchor="middle" x="469" y="-35" font-family="Helvetica,sans-Serif" font-size="10.00"> m_relations</text>
</g>
<!-- Node5&#45;&gt;Node2 -->
<g id="edge5" class="edge"><title>Node5&#45;&gt;Node2</title>
<path fill="none" stroke="#9a32cd" stroke-dasharray="5,2" d="M274.335,-78.0997C298.849,-73.6876 329.185,-67.7271 356,-61 361.923,-59.5141 368.245,-57.6874 374.14,-55.8779"/>
<polygon fill="#9a32cd" stroke="#9a32cd" points="273.449,-74.7022 264.213,-79.8935 274.671,-81.5948 273.449,-74.7022"/>
<text text-anchor="middle" x="319" y="-79" font-family="Helvetica,sans-Serif" font-size="10.00"> m_factionMatrix</text>
</g>
</g>
</svg>
