<?xml version="1.0" encoding="UTF-8" standalone="no"?>
<!DOCTYPE svg PUBLIC "-//W3C//DTD SVG 1.1//EN"
 "http://www.w3.org/Graphics/SVG/1.1/DTD/svg11.dtd">
<!-- Generated by graphviz version 2.36.0 (20140111.2315)
 -->
<!-- Title: WorldLogic Pages: 1 -->
<svg width="1363pt" height="811pt"
 viewBox="0.00 0.00 1362.50 811.00" xmlns="http://www.w3.org/2000/svg" xmlns:xlink="http://www.w3.org/1999/xlink">
<g id="graph0" class="graph" transform="scale(1 1) rotate(0) translate(4 807)">
<title>WorldLogic</title>
<polygon fill="white" stroke="none" points="-4,4 -4,-807 1358.5,-807 1358.5,4 -4,4"/>
<!-- Node1 -->
<g id="node1" class="node"><title>Node1</title>
<polygon fill="#bfbfbf" stroke="black" points="908.5,-527.5 908.5,-546.5 973.5,-546.5 973.5,-527.5 908.5,-527.5"/>
<text text-anchor="middle" x="941" y="-534.5" font-family="Helvetica,sans-Serif" font-size="10.00">WorldLogic</text>
</g>
<!-- Node32 -->
<g id="node32" class="node"><title>Node32</title>
<polygon fill="white" stroke="#bfbfbf" points="1034,-624.5 1034,-643.5 1182,-643.5 1182,-624.5 1034,-624.5"/>
<text text-anchor="middle" x="1108" y="-631.5" font-family="Helvetica,sans-Serif" font-size="10.00">std::unique_ptr&lt; WorldLogic &gt;</text>
</g>
<!-- Node1&#45;&gt;Node32 -->
<g id="edge40" class="edge"><title>Node1&#45;&gt;Node32</title>
<path fill="none" stroke="#9a32cd" stroke-dasharray="5,2" d="M951.26,-555.945C960.355,-572.517 975.795,-595.923 996,-609 1007.36,-616.352 1020.59,-621.56 1033.87,-625.244"/>
<polygon fill="#9a32cd" stroke="#9a32cd" points="954.152,-553.92 946.432,-546.664 947.942,-557.151 954.152,-553.92"/>
<text text-anchor="middle" x="1004" y="-619" font-family="Helvetica,sans-Serif" font-size="10.00"> ptr</text>
</g>
<!-- Node2 -->
<g id="node2" class="node"><title>Node2</title>
<g id="a_node2"><a xlink:href="class_wrecker.html" target="_top" xlink:title="Wrecker">
<polygon fill="white" stroke="black" points="644.5,-584.5 644.5,-603.5 697.5,-603.5 697.5,-584.5 644.5,-584.5"/>
<text text-anchor="middle" x="671" y="-591.5" font-family="Helvetica,sans-Serif" font-size="10.00">Wrecker</text>
</a>
</g>
</g>
<!-- Node2&#45;&gt;Node1 -->
<g id="edge1" class="edge"><title>Node2&#45;&gt;Node1</title>
<path fill="none" stroke="#9a32cd" stroke-dasharray="5,2" d="M707.619,-592.528C750.726,-589.951 825.104,-582.935 886,-564 899.412,-559.83 913.579,-552.628 924.035,-546.71"/>
<polygon fill="#9a32cd" stroke="#9a32cd" points="707.411,-589.034 697.619,-593.08 707.797,-596.024 707.411,-589.034"/>
<text text-anchor="middle" x="821" y="-591" font-family="Helvetica,sans-Serif" font-size="10.00"> m_wrecker</text>
</g>
<!-- Node3 -->
<g id="node3" class="node"><title>Node3</title>
<polygon fill="white" stroke="#bfbfbf" points="277,-502.5 277,-521.5 405,-521.5 405,-502.5 277,-502.5"/>
<text text-anchor="middle" x="341" y="-509.5" font-family="Helvetica,sans-Serif" font-size="10.00">std::list&lt; WorldObject * &gt;</text>
</g>
<!-- Node3&#45;&gt;Node2 -->
<g id="edge2" class="edge"><title>Node3&#45;&gt;Node2</title>
<path fill="none" stroke="#9a32cd" stroke-dasharray="5,2" d="M374.12,-525.989C391.327,-534.493 412.176,-546.506 428,-561 438.364,-570.493 433.654,-580.284 446,-587 510.083,-621.863 600.457,-609.412 644.234,-600.253"/>
<polygon fill="#9a32cd" stroke="#9a32cd" points="375.523,-522.781 364.99,-521.632 372.508,-529.098 375.523,-522.781"/>
<text text-anchor="middle" x="516" y="-624" font-family="Helvetica,sans-Serif" font-size="10.00"> m_newWreckages</text>
<text text-anchor="middle" x="516" y="-613" font-family="Helvetica,sans-Serif" font-size="10.00">m_wreckedObjects</text>
</g>
<!-- Node6 -->
<g id="node6" class="node"><title>Node6</title>
<g id="a_node6"><a xlink:href="class_splitter.html" target="_top" xlink:title="Splitter">
<polygon fill="white" stroke="black" points="647.5,-508.5 647.5,-527.5 694.5,-527.5 694.5,-508.5 647.5,-508.5"/>
<text text-anchor="middle" x="671" y="-515.5" font-family="Helvetica,sans-Serif" font-size="10.00">Splitter</text>
</a>
</g>
</g>
<!-- Node3&#45;&gt;Node6 -->
<g id="edge6" class="edge"><title>Node3&#45;&gt;Node6</title>
<path fill="none" stroke="#9a32cd" stroke-dasharray="5,2" d="M415.295,-511.243C463.757,-511.003 528.684,-511.178 586,-513 606.735,-513.659 630.312,-515.125 647.198,-516.301"/>
<polygon fill="#9a32cd" stroke="#9a32cd" points="415.192,-507.744 405.212,-511.3 415.232,-514.744 415.192,-507.744"/>
<text text-anchor="middle" x="516" y="-516" font-family="Helvetica,sans-Serif" font-size="10.00"> m_splitOffWorldObjects</text>
</g>
<!-- Node17 -->
<g id="node17" class="node"><title>Node17</title>
<g id="a_node17"><a xlink:href="class_voxel_collision_accumulator.html" target="_top" xlink:title="VoxelCollisionAccumulator">
<polygon fill="white" stroke="black" points="604.5,-546.5 604.5,-565.5 737.5,-565.5 737.5,-546.5 604.5,-546.5"/>
<text text-anchor="middle" x="671" y="-553.5" font-family="Helvetica,sans-Serif" font-size="10.00">VoxelCollisionAccumulator</text>
</a>
</g>
</g>
<!-- Node3&#45;&gt;Node17 -->
<g id="edge19" class="edge"><title>Node3&#45;&gt;Node17</title>
<path fill="none" stroke="#9a32cd" stroke-dasharray="5,2" d="M415.216,-521.822C471.916,-529.428 549.751,-539.869 604.425,-547.203"/>
<polygon fill="#9a32cd" stroke="#9a32cd" points="415.618,-518.344 405.242,-520.484 414.688,-525.282 415.618,-518.344"/>
<text text-anchor="middle" x="516" y="-547" font-family="Helvetica,sans-Serif" font-size="10.00"> m_worldObjects</text>
</g>
<!-- Node27 -->
<g id="node27" class="node"><title>Node27</title>
<g id="a_node27"><a xlink:href="class_garbage_collector.html" target="_top" xlink:title="GarbageCollector">
<polygon fill="white" stroke="black" points="625,-470.5 625,-489.5 717,-489.5 717,-470.5 625,-470.5"/>
<text text-anchor="middle" x="671" y="-477.5" font-family="Helvetica,sans-Serif" font-size="10.00">GarbageCollector</text>
</a>
</g>
</g>
<!-- Node3&#45;&gt;Node27 -->
<g id="edge33" class="edge"><title>Node3&#45;&gt;Node27</title>
<path fill="none" stroke="#9a32cd" stroke-dasharray="5,2" d="M408.21,-500.989C420.738,-499.14 433.753,-497.377 446,-496 507.796,-489.051 579.543,-484.55 624.852,-482.144"/>
<polygon fill="#9a32cd" stroke="#9a32cd" points="407.658,-497.532 398.292,-502.485 408.702,-504.454 407.658,-497.532"/>
<text text-anchor="middle" x="516" y="-499" font-family="Helvetica,sans-Serif" font-size="10.00"> m_garbageVoxelClusters</text>
</g>
<!-- Node4 -->
<g id="node4" class="node"><title>Node4</title>
<g id="a_node4"><a xlink:href="class_world_object.html" target="_top" xlink:title="WorldObject">
<polygon fill="white" stroke="red" points="30.5,-419.5 30.5,-438.5 101.5,-438.5 101.5,-419.5 30.5,-419.5"/>
<text text-anchor="middle" x="66" y="-426.5" font-family="Helvetica,sans-Serif" font-size="10.00">WorldObject</text>
</a>
</g>
</g>
<!-- Node4&#45;&gt;Node3 -->
<g id="edge3" class="edge"><title>Node4&#45;&gt;Node3</title>
<path fill="none" stroke="#9a32cd" stroke-dasharray="5,2" d="M108.07,-441.487C162.989,-458.183 259.152,-487.42 308.629,-502.462"/>
<polygon fill="#9a32cd" stroke="#9a32cd" points="108.902,-438.081 98.3166,-438.521 106.866,-444.779 108.902,-438.081"/>
<text text-anchor="middle" x="193" y="-483" font-family="Helvetica,sans-Serif" font-size="10.00"> elements</text>
</g>
<!-- Node14 -->
<g id="node14" class="node"><title>Node14</title>
<polygon fill="white" stroke="#bfbfbf" points="269,-196 269,-226 413,-226 413,-196 269,-196"/>
<text text-anchor="start" x="277" y="-214" font-family="Helvetica,sans-Serif" font-size="10.00">std::map&lt; WorldObject</text>
<text text-anchor="middle" x="341" y="-203" font-family="Helvetica,sans-Serif" font-size="10.00"> *, WorldObjectModification &gt;</text>
</g>
<!-- Node4&#45;&gt;Node14 -->
<g id="edge15" class="edge"><title>Node4&#45;&gt;Node14</title>
<path fill="none" stroke="#9a32cd" stroke-dasharray="5,2" d="M79.5566,-410.691C106.775,-372.4 175.152,-283.483 254,-236 260.394,-232.15 267.413,-228.864 274.599,-226.068"/>
<polygon fill="#9a32cd" stroke="#9a32cd" points="76.4116,-409.08 73.542,-419.279 82.1454,-413.096 76.4116,-409.08"/>
<text text-anchor="middle" x="193" y="-323" font-family="Helvetica,sans-Serif" font-size="10.00"> keys</text>
</g>
<!-- Node25 -->
<g id="node25" class="node"><title>Node25</title>
<g id="a_node25"><a xlink:href="class_damage_forwarder.html" target="_top" xlink:title="DamageForwarder">
<polygon fill="white" stroke="black" points="623.5,-380.5 623.5,-399.5 718.5,-399.5 718.5,-380.5 623.5,-380.5"/>
<text text-anchor="middle" x="671" y="-387.5" font-family="Helvetica,sans-Serif" font-size="10.00">DamageForwarder</text>
</a>
</g>
</g>
<!-- Node4&#45;&gt;Node25 -->
<g id="edge30" class="edge"><title>Node4&#45;&gt;Node25</title>
<path fill="none" stroke="#9a32cd" stroke-dasharray="5,2" d="M92.0504,-414.4C108.057,-405.875 129.573,-395.867 150,-391 320.37,-350.408 531.149,-370.764 623.251,-383.005"/>
<polygon fill="#9a32cd" stroke="#9a32cd" points="89.9315,-411.57 82.8555,-419.456 93.3045,-417.704 89.9315,-411.57"/>
<text text-anchor="middle" x="341" y="-376" font-family="Helvetica,sans-Serif" font-size="10.00"> m_currentWorldObject</text>
</g>
<!-- Node30 -->
<g id="node30" class="node"><title>Node30</title>
<polygon fill="white" stroke="#bfbfbf" points="467,-758 467,-788 565,-788 565,-758 467,-758"/>
<text text-anchor="start" x="475" y="-776" font-family="Helvetica,sans-Serif" font-size="10.00">std::unordered_set</text>
<text text-anchor="middle" x="516" y="-765" font-family="Helvetica,sans-Serif" font-size="10.00">&lt; WorldObject * &gt;</text>
</g>
<!-- Node4&#45;&gt;Node30 -->
<g id="edge37" class="edge"><title>Node4&#45;&gt;Node30</title>
<path fill="none" stroke="#9a32cd" stroke-dasharray="5,2" d="M71.2497,-448.355C85.2806,-507.066 136.122,-683.599 254,-757 318.742,-797.314 410.914,-791.606 466.631,-782.919"/>
<polygon fill="#9a32cd" stroke="#9a32cd" points="74.6422,-447.49 68.9874,-438.531 67.8207,-449.061 74.6422,-447.49"/>
<text text-anchor="middle" x="193" y="-743" font-family="Helvetica,sans-Serif" font-size="10.00"> keys</text>
</g>
<!-- Node5 -->
<g id="node5" class="node"><title>Node5</title>
<g id="a_node5"><a xlink:href="class_voxel_hangman.html" target="_top" xlink:title="VoxelHangman">
<polygon fill="white" stroke="black" points="629.5,-235.5 629.5,-254.5 712.5,-254.5 712.5,-235.5 629.5,-235.5"/>
<text text-anchor="middle" x="671" y="-242.5" font-family="Helvetica,sans-Serif" font-size="10.00">VoxelHangman</text>
</a>
</g>
</g>
<!-- Node5&#45;&gt;Node1 -->
<g id="edge4" class="edge"><title>Node5&#45;&gt;Node1</title>
<path fill="none" stroke="#9a32cd" stroke-dasharray="5,2" d="M722.88,-239.242C771.323,-236.775 843.035,-241.46 886,-283 922.22,-318.018 936.356,-485.493 939.361,-527.451"/>
<polygon fill="#9a32cd" stroke="#9a32cd" points="722.372,-235.766 712.612,-239.888 722.812,-242.753 722.372,-235.766"/>
<text text-anchor="middle" x="821" y="-286" font-family="Helvetica,sans-Serif" font-size="10.00"> m_voxelHangman</text>
</g>
<!-- Node6&#45;&gt;Node1 -->
<g id="edge5" class="edge"><title>Node6&#45;&gt;Node1</title>
<path fill="none" stroke="#9a32cd" stroke-dasharray="5,2" d="M704.878,-516.061C747.069,-514.157 822.408,-512.726 886,-522 894.184,-523.194 902.886,-525.248 910.861,-527.46"/>
<polygon fill="#9a32cd" stroke="#9a32cd" points="704.46,-512.578 694.644,-516.563 704.803,-519.569 704.46,-512.578"/>
<text text-anchor="middle" x="821" y="-525" font-family="Helvetica,sans-Serif" font-size="10.00"> m_splitter</text>
</g>
<!-- Node7 -->
<g id="node7" class="node"><title>Node7</title>
<g id="a_node7"><a xlink:href="class_split_detector.html" target="_top" xlink:title="SplitDetector">
<polygon fill="white" stroke="black" points="634.5,-68.5 634.5,-87.5 707.5,-87.5 707.5,-68.5 634.5,-68.5"/>
<text text-anchor="middle" x="671" y="-75.5" font-family="Helvetica,sans-Serif" font-size="10.00">SplitDetector</text>
</a>
</g>
</g>
<!-- Node7&#45;&gt;Node1 -->
<g id="edge7" class="edge"><title>Node7&#45;&gt;Node1</title>
<path fill="none" stroke="#9a32cd" stroke-dasharray="5,2" d="M707.254,-91.407C755.941,-111.88 842.651,-155.784 886,-223 919.877,-275.528 936.025,-480.03 939.345,-527.238"/>
<polygon fill="#9a32cd" stroke="#9a32cd" points="708.339,-88.0692 697.759,-87.5093 705.681,-94.5448 708.339,-88.0692"/>
<text text-anchor="middle" x="821" y="-226" font-family="Helvetica,sans-Serif" font-size="10.00"> m_splitDetector</text>
</g>
<!-- Node8 -->
<g id="node8" class="node"><title>Node8</title>
<polygon fill="white" stroke="#bfbfbf" points="281.5,-88 281.5,-118 400.5,-118 400.5,-88 281.5,-88"/>
<text text-anchor="start" x="289.5" y="-106" font-family="Helvetica,sans-Serif" font-size="10.00">std::vector&lt; std::shared</text>
<text text-anchor="middle" x="341" y="-95" font-family="Helvetica,sans-Serif" font-size="10.00">_ptr&lt; SplitData &gt; &gt;</text>
</g>
<!-- Node8&#45;&gt;Node7 -->
<g id="edge8" class="edge"><title>Node8&#45;&gt;Node7</title>
<path fill="none" stroke="#9a32cd" stroke-dasharray="5,2" d="M410.86,-97.7515C479.015,-92.5568 580.68,-84.8079 634.156,-80.732"/>
<polygon fill="#9a32cd" stroke="#9a32cd" points="410.345,-94.2805 400.64,-98.5305 410.877,-101.26 410.345,-94.2805"/>
<text text-anchor="middle" x="516" y="-98" font-family="Helvetica,sans-Serif" font-size="10.00"> m_splitDataList</text>
</g>
<!-- Node9 -->
<g id="node9" class="node"><title>Node9</title>
<polygon fill="white" stroke="#bfbfbf" points="277.5,-39 277.5,-69 404.5,-69 404.5,-39 277.5,-39"/>
<text text-anchor="start" x="285.5" y="-57" font-family="Helvetica,sans-Serif" font-size="10.00">std::vector&lt; SplitDetector</text>
<text text-anchor="middle" x="341" y="-46" font-family="Helvetica,sans-Serif" font-size="10.00">::VoxelGroup &gt;</text>
</g>
<!-- Node9&#45;&gt;Node7 -->
<g id="edge9" class="edge"><title>Node9&#45;&gt;Node7</title>
<path fill="none" stroke="#9a32cd" stroke-dasharray="5,2" d="M414.816,-58.212C463.34,-61.1573 528.519,-65.3792 586,-70 601.916,-71.2795 619.507,-72.9197 634.461,-74.3816"/>
<polygon fill="#9a32cd" stroke="#9a32cd" points="414.915,-54.7117 404.723,-57.6032 414.494,-61.699 414.915,-54.7117"/>
<text text-anchor="middle" x="516" y="-73" font-family="Helvetica,sans-Serif" font-size="10.00"> m_voxelArray</text>
</g>
<!-- Node10 -->
<g id="node10" class="node"><title>Node10</title>
<polygon fill="white" stroke="#bfbfbf" points="280,-0.5 280,-19.5 402,-19.5 402,-0.5 280,-0.5"/>
<text text-anchor="middle" x="341" y="-7.5" font-family="Helvetica,sans-Serif" font-size="10.00">std::stack&lt; glm::ivec3 &gt;</text>
</g>
<!-- Node10&#45;&gt;Node7 -->
<g id="edge10" class="edge"><title>Node10&#45;&gt;Node7</title>
<path fill="none" stroke="#9a32cd" stroke-dasharray="5,2" d="M412.359,-16.284C461.546,-21.6684 528.462,-30.987 586,-46 607.895,-51.7129 631.936,-61.2203 648.667,-68.3909"/>
<polygon fill="#9a32cd" stroke="#9a32cd" points="412.457,-12.7746 402.142,-15.1941 411.715,-19.7351 412.457,-12.7746"/>
<text text-anchor="middle" x="516" y="-49" font-family="Helvetica,sans-Serif" font-size="10.00"> m_stack</text>
</g>
<!-- Node11 -->
<g id="node11" class="node"><title>Node11</title>
<g id="a_node11"><a xlink:href="class_damager.html" target="_top" xlink:title="Damager">
<polygon fill="white" stroke="black" points="643,-273.5 643,-292.5 699,-292.5 699,-273.5 643,-273.5"/>
<text text-anchor="middle" x="671" y="-280.5" font-family="Helvetica,sans-Serif" font-size="10.00">Damager</text>
</a>
</g>
</g>
<!-- Node11&#45;&gt;Node1 -->
<g id="edge11" class="edge"><title>Node11&#45;&gt;Node1</title>
<path fill="none" stroke="#9a32cd" stroke-dasharray="5,2" d="M709.016,-287.894C756.527,-296.105 838.477,-317.088 886,-368 930.138,-415.284 938.199,-498.715 939.671,-527.171"/>
<polygon fill="#9a32cd" stroke="#9a32cd" points="709.574,-284.439 699.142,-286.286 708.449,-291.348 709.574,-284.439"/>
<text text-anchor="middle" x="821" y="-371" font-family="Helvetica,sans-Serif" font-size="10.00"> m_damager</text>
</g>
<!-- Node12 -->
<g id="node12" class="node"><title>Node12</title>
<polygon fill="white" stroke="#bfbfbf" points="0,-289.5 0,-308.5 132,-308.5 132,-289.5 0,-289.5"/>
<text text-anchor="middle" x="66" y="-296.5" font-family="Helvetica,sans-Serif" font-size="10.00">std::list&lt; DamageImpact &gt;</text>
</g>
<!-- Node12&#45;&gt;Node11 -->
<g id="edge12" class="edge"><title>Node12&#45;&gt;Node11</title>
<path fill="none" stroke="#9a32cd" stroke-dasharray="5,2" d="M83.0275,-281.954C113.068,-251.401 181.395,-188.328 254,-165 395.352,-119.583 478.296,-99.8094 586,-202 606.815,-221.75 583.688,-243.734 604,-264 614.213,-274.19 629.517,-278.992 642.816,-281.223"/>
<polygon fill="#9a32cd" stroke="#9a32cd" points="80.3474,-279.691 75.9155,-289.314 85.3813,-284.555 80.3474,-279.691"/>
<text text-anchor="middle" x="341" y="-179" font-family="Helvetica,sans-Serif" font-size="10.00"> m_dampedDeadlyDamageImpacts</text>
<text text-anchor="middle" x="341" y="-168" font-family="Helvetica,sans-Serif" font-size="10.00">m_deadlyDamageImpacts</text>
</g>
<!-- Node26 -->
<g id="node26" class="node"><title>Node26</title>
<g id="a_node26"><a xlink:href="class_voxel_accumulator.html" target="_top" xlink:title="VoxelAccumulator\&lt; Damage\lImpact \&gt;">
<polygon fill="white" stroke="red" points="270.5,-407 270.5,-437 411.5,-437 411.5,-407 270.5,-407"/>
<text text-anchor="start" x="278.5" y="-425" font-family="Helvetica,sans-Serif" font-size="10.00">VoxelAccumulator&lt; Damage</text>
<text text-anchor="middle" x="341" y="-414" font-family="Helvetica,sans-Serif" font-size="10.00">Impact &gt;</text>
</a>
</g>
</g>
<!-- Node12&#45;&gt;Node26 -->
<g id="edge29" class="edge"><title>Node12&#45;&gt;Node26</title>
<path fill="none" stroke="#9a32cd" stroke-dasharray="5,2" d="M93.2686,-313.383C129.013,-332.646 195.257,-367.263 254,-392 266.533,-397.278 280.351,-402.395 293.176,-406.864"/>
<polygon fill="#9a32cd" stroke="#9a32cd" points="94.9041,-310.288 84.4439,-308.604 91.5709,-316.444 94.9041,-310.288"/>
<text text-anchor="middle" x="193" y="-385" font-family="Helvetica,sans-Serif" font-size="10.00"> m_accumulatables</text>
</g>
<!-- Node13 -->
<g id="node13" class="node"><title>Node13</title>
<g id="a_node13"><a xlink:href="class_property.html" target="_top" xlink:title="Property\&lt; bool \&gt;">
<polygon fill="white" stroke="red" points="296.5,-321.5 296.5,-340.5 385.5,-340.5 385.5,-321.5 296.5,-321.5"/>
<text text-anchor="middle" x="341" y="-328.5" font-family="Helvetica,sans-Serif" font-size="10.00">Property&lt; bool &gt;</text>
</a>
</g>
</g>
<!-- Node13&#45;&gt;Node11 -->
<g id="edge13" class="edge"><title>Node13&#45;&gt;Node11</title>
<path fill="none" stroke="#9a32cd" stroke-dasharray="5,2" d="M395.611,-323.155C466.373,-312.799 588.314,-294.954 642.579,-287.013"/>
<polygon fill="#9a32cd" stroke="#9a32cd" points="394.944,-319.715 385.556,-324.626 395.957,-326.641 394.944,-319.715"/>
<text text-anchor="middle" x="516" y="-318" font-family="Helvetica,sans-Serif" font-size="10.00"> m_playerShipUndestroyable</text>
</g>
<!-- Node14&#45;&gt;Node11 -->
<g id="edge14" class="edge"><title>Node14&#45;&gt;Node11</title>
<path fill="none" stroke="#9a32cd" stroke-dasharray="5,2" d="M423.334,-205.779C473.253,-206.124 536.816,-213.194 586,-241 597.3,-247.388 593.239,-256.74 604,-264 615.565,-271.802 630.345,-276.442 642.985,-279.179"/>
<polygon fill="#9a32cd" stroke="#9a32cd" points="423.213,-202.279 413.22,-205.799 423.227,-209.279 423.213,-202.279"/>
<text text-anchor="middle" x="516" y="-244" font-family="Helvetica,sans-Serif" font-size="10.00"> m_worldObjectModificationMap</text>
</g>
<!-- Node15 -->
<g id="node15" class="node"><title>Node15</title>
<polygon fill="white" stroke="#bfbfbf" points="292,-283.5 292,-302.5 390,-302.5 390,-283.5 292,-283.5"/>
<text text-anchor="middle" x="341" y="-290.5" font-family="Helvetica,sans-Serif" font-size="10.00">std::list&lt; Voxel * &gt;</text>
</g>
<!-- Node15&#45;&gt;Node11 -->
<g id="edge16" class="edge"><title>Node15&#45;&gt;Node11</title>
<path fill="none" stroke="#9a32cd" stroke-dasharray="5,2" d="M400.216,-287.116C415.124,-285.842 431.143,-284.675 446,-284 516.9,-280.779 600.552,-281.642 642.742,-282.404"/>
<polygon fill="#9a32cd" stroke="#9a32cd" points="399.752,-283.643 390.099,-288.011 400.369,-290.616 399.752,-283.643"/>
<text text-anchor="middle" x="516" y="-287" font-family="Helvetica,sans-Serif" font-size="10.00"> m_deadVoxels</text>
</g>
<!-- Node15&#45;&gt;Node25 -->
<g id="edge31" class="edge"><title>Node15&#45;&gt;Node25</title>
<path fill="none" stroke="#9a32cd" stroke-dasharray="5,2" d="M400.048,-301.322C409.706,-303.96 419.376,-307.432 428,-312 437.724,-317.151 436.139,-324.116 446,-329 502.506,-356.984 525.646,-333.738 586,-352 609.899,-359.232 635.864,-371.761 652.502,-380.445"/>
<polygon fill="#9a32cd" stroke="#9a32cd" points="400.578,-297.849 390.032,-298.865 398.909,-304.647 400.578,-297.849"/>
<text text-anchor="middle" x="516" y="-355" font-family="Helvetica,sans-Serif" font-size="10.00"> m_currentNeighbours</text>
</g>
<!-- Node16 -->
<g id="node16" class="node"><title>Node16</title>
<polygon fill="white" stroke="#bfbfbf" points="254.5,-245.5 254.5,-264.5 427.5,-264.5 427.5,-245.5 254.5,-245.5"/>
<text text-anchor="middle" x="341" y="-252.5" font-family="Helvetica,sans-Serif" font-size="10.00">std::list&lt; WorldObjectModification &gt;</text>
</g>
<!-- Node16&#45;&gt;Node11 -->
<g id="edge17" class="edge"><title>Node16&#45;&gt;Node11</title>
<path fill="none" stroke="#9a32cd" stroke-dasharray="5,2" d="M437.6,-255.893C482.743,-257.187 537.286,-260.009 586,-266 605.198,-268.361 626.559,-272.708 642.936,-276.415"/>
<polygon fill="#9a32cd" stroke="#9a32cd" points="437.615,-252.392 427.525,-255.625 437.429,-259.389 437.615,-252.392"/>
<text text-anchor="middle" x="516" y="-269" font-family="Helvetica,sans-Serif" font-size="10.00"> m_worldObjectModifications</text>
</g>
<!-- Node17&#45;&gt;Node1 -->
<g id="edge18" class="edge"><title>Node17&#45;&gt;Node1</title>
<path fill="none" stroke="#9a32cd" stroke-dasharray="5,2" d="M747.625,-550.639C800.721,-546.874 869.015,-542.033 908.314,-539.246"/>
<polygon fill="#9a32cd" stroke="#9a32cd" points="747.288,-547.154 737.56,-551.352 747.783,-554.136 747.288,-547.154"/>
<text text-anchor="middle" x="821" y="-552" font-family="Helvetica,sans-Serif" font-size="10.00"> m_voxelCollisionAccumulator</text>
</g>
<!-- Node18 -->
<g id="node18" class="node"><title>Node18</title>
<polygon fill="white" stroke="#bfbfbf" points="262,-570.5 262,-589.5 420,-589.5 420,-570.5 262,-570.5"/>
<text text-anchor="middle" x="341" y="-577.5" font-family="Helvetica,sans-Serif" font-size="10.00">std::list&lt; WorldObjectCollision &gt;</text>
</g>
<!-- Node18&#45;&gt;Node17 -->
<g id="edge20" class="edge"><title>Node18&#45;&gt;Node17</title>
<path fill="none" stroke="#9a32cd" stroke-dasharray="5,2" d="M430.208,-573.546C485.032,-569.534 554.343,-564.463 604.331,-560.805"/>
<polygon fill="#9a32cd" stroke="#9a32cd" points="429.865,-570.061 420.147,-574.282 430.376,-577.043 429.865,-570.061"/>
<text text-anchor="middle" x="516" y="-575" font-family="Helvetica,sans-Serif" font-size="10.00"> m_worldObjectCollisions</text>
</g>
<!-- Node19 -->
<g id="node19" class="node"><title>Node19</title>
<g id="a_node19"><a xlink:href="class_elastic_impulsor.html" target="_top" xlink:title="ElasticImpulsor">
<polygon fill="white" stroke="black" points="629.5,-622.5 629.5,-641.5 712.5,-641.5 712.5,-622.5 629.5,-622.5"/>
<text text-anchor="middle" x="671" y="-629.5" font-family="Helvetica,sans-Serif" font-size="10.00">ElasticImpulsor</text>
</a>
</g>
</g>
<!-- Node19&#45;&gt;Node1 -->
<g id="edge21" class="edge"><title>Node19&#45;&gt;Node1</title>
<path fill="none" stroke="#9a32cd" stroke-dasharray="5,2" d="M722.864,-629.387C777.106,-625.856 858.87,-618.171 886,-603 909.776,-589.704 927.27,-561.426 935.23,-546.57"/>
<polygon fill="#9a32cd" stroke="#9a32cd" points="722.503,-625.903 712.741,-630.019 722.94,-632.889 722.503,-625.903"/>
<text text-anchor="middle" x="821" y="-629" font-family="Helvetica,sans-Serif" font-size="10.00"> m_elasticImpulsor</text>
</g>
<!-- Node20 -->
<g id="node20" class="node"><title>Node20</title>
<g id="a_node20"><a xlink:href="class_property.html" target="_top" xlink:title="Property\&lt; float \&gt;">
<polygon fill="white" stroke="red" points="296.5,-649.5 296.5,-668.5 385.5,-668.5 385.5,-649.5 296.5,-649.5"/>
<text text-anchor="middle" x="341" y="-656.5" font-family="Helvetica,sans-Serif" font-size="10.00">Property&lt; float &gt;</text>
</a>
</g>
</g>
<!-- Node20&#45;&gt;Node19 -->
<g id="edge22" class="edge"><title>Node20&#45;&gt;Node19</title>
<path fill="none" stroke="#9a32cd" stroke-dasharray="5,2" d="M395.677,-654.581C461.171,-649.19 570.434,-640.196 629.362,-635.345"/>
<polygon fill="#9a32cd" stroke="#9a32cd" points="395.235,-651.106 385.556,-655.415 395.809,-658.082 395.235,-651.106"/>
<text text-anchor="middle" x="516" y="-664" font-family="Helvetica,sans-Serif" font-size="10.00"> m_rotationFactor</text>
<text text-anchor="middle" x="516" y="-653" font-family="Helvetica,sans-Serif" font-size="10.00">m_elasticity</text>
</g>
<!-- Node21 -->
<g id="node21" class="node"><title>Node21</title>
<g id="a_node21"><a xlink:href="class_elastic_impulse_generator.html" target="_top" xlink:title="ElasticImpulseGenerator">
<polygon fill="white" stroke="black" points="609.5,-660.5 609.5,-679.5 732.5,-679.5 732.5,-660.5 609.5,-660.5"/>
<text text-anchor="middle" x="671" y="-667.5" font-family="Helvetica,sans-Serif" font-size="10.00">ElasticImpulseGenerator</text>
</a>
</g>
</g>
<!-- Node21&#45;&gt;Node1 -->
<g id="edge23" class="edge"><title>Node21&#45;&gt;Node1</title>
<path fill="none" stroke="#9a32cd" stroke-dasharray="5,2" d="M742.814,-667.348C796.011,-664.094 863.425,-656.889 886,-641 919.107,-617.698 933.373,-567.78 938.085,-546.706"/>
<polygon fill="#9a32cd" stroke="#9a32cd" points="742.503,-663.86 732.721,-667.929 742.906,-670.849 742.503,-663.86"/>
<text text-anchor="middle" x="821" y="-669" font-family="Helvetica,sans-Serif" font-size="10.00"> m_elasticImpulseGenerator</text>
</g>
<!-- Node22 -->
<g id="node22" class="node"><title>Node22</title>
<polygon fill="white" stroke="#bfbfbf" points="290.5,-690.5 290.5,-709.5 391.5,-709.5 391.5,-690.5 290.5,-690.5"/>
<text text-anchor="middle" x="341" y="-697.5" font-family="Helvetica,sans-Serif" font-size="10.00">std::list&lt; Impulse &gt;</text>
</g>
<!-- Node22&#45;&gt;Node21 -->
<g id="edge24" class="edge"><title>Node22&#45;&gt;Node21</title>
<path fill="none" stroke="#9a32cd" stroke-dasharray="5,2" d="M402.083,-694.505C460.984,-689.117 550.294,-680.949 609.378,-675.545"/>
<polygon fill="#9a32cd" stroke="#9a32cd" points="401.456,-691.047 391.816,-695.444 402.093,-698.018 401.456,-691.047"/>
<text text-anchor="middle" x="516" y="-693" font-family="Helvetica,sans-Serif" font-size="10.00"> m_worldObjectImpulses</text>
</g>
<!-- Node23 -->
<g id="node23" class="node"><title>Node23</title>
<g id="a_node23"><a xlink:href="class_mover.html" target="_top" xlink:title="Mover">
<polygon fill="white" stroke="black" points="650,-698.5 650,-717.5 692,-717.5 692,-698.5 650,-698.5"/>
<text text-anchor="middle" x="671" y="-705.5" font-family="Helvetica,sans-Serif" font-size="10.00">Mover</text>
</a>
</g>
</g>
<!-- Node23&#45;&gt;Node1 -->
<g id="edge25" class="edge"><title>Node23&#45;&gt;Node1</title>
<path fill="none" stroke="#9a32cd" stroke-dasharray="5,2" d="M702.309,-713.182C747.438,-719.101 832.688,-723.13 886,-681 929.573,-646.567 937.988,-573.025 939.612,-546.657"/>
<polygon fill="#9a32cd" stroke="#9a32cd" points="702.661,-709.697 692.266,-711.745 701.669,-716.626 702.661,-709.697"/>
<text text-anchor="middle" x="821" y="-719" font-family="Helvetica,sans-Serif" font-size="10.00"> m_mover</text>
</g>
<!-- Node24 -->
<g id="node24" class="node"><title>Node24</title>
<polygon fill="white" stroke="#bfbfbf" points="277,-728.5 277,-747.5 405,-747.5 405,-728.5 277,-728.5"/>
<text text-anchor="middle" x="341" y="-735.5" font-family="Helvetica,sans-Serif" font-size="10.00">std::list&lt; VoxelCollision &gt;</text>
</g>
<!-- Node24&#45;&gt;Node23 -->
<g id="edge26" class="edge"><title>Node24&#45;&gt;Node23</title>
<path fill="none" stroke="#9a32cd" stroke-dasharray="5,2" d="M415.646,-731.264C491.205,-724.353 603.963,-714.04 649.668,-709.86"/>
<polygon fill="#9a32cd" stroke="#9a32cd" points="414.881,-727.819 405.242,-732.216 415.519,-734.79 414.881,-727.819"/>
<text text-anchor="middle" x="516" y="-731" font-family="Helvetica,sans-Serif" font-size="10.00"> m_voxelCollisions</text>
</g>
<!-- Node25&#45;&gt;Node1 -->
<g id="edge27" class="edge"><title>Node25&#45;&gt;Node1</title>
<path fill="none" stroke="#9a32cd" stroke-dasharray="5,2" d="M728.752,-383.552C775.403,-381.318 840.926,-385.569 886,-419 922.734,-446.245 935.165,-504.479 938.738,-527.424"/>
<polygon fill="#9a32cd" stroke="#9a32cd" points="728.283,-380.074 718.508,-384.161 728.698,-387.062 728.283,-380.074"/>
<text text-anchor="middle" x="821" y="-422" font-family="Helvetica,sans-Serif" font-size="10.00"> m_damageForwarder</text>
</g>
<!-- Node26&#45;&gt;Node25 -->
<g id="edge28" class="edge"><title>Node26&#45;&gt;Node25</title>
<path fill="none" stroke="#9a32cd" stroke-dasharray="5,2" d="M421.877,-414.207C484.975,-408.051 570.855,-399.673 623.256,-394.56"/>
<polygon fill="#9a32cd" stroke="#9a32cd" points="421.173,-410.759 411.56,-415.214 421.853,-417.726 421.173,-410.759"/>
<text text-anchor="middle" x="516" y="-414" font-family="Helvetica,sans-Serif" font-size="10.00"> m_damageImpactAccumulator</text>
</g>
<!-- Node41 -->
<g id="node41" class="node"><title>Node41</title>
<g id="a_node41"><a xlink:href="class_damage_impact_generator.html" target="_top" xlink:title="DamageImpactGenerator">
<polygon fill="white" stroke="black" points="608.5,-432.5 608.5,-451.5 733.5,-451.5 733.5,-432.5 608.5,-432.5"/>
<text text-anchor="middle" x="671" y="-439.5" font-family="Helvetica,sans-Serif" font-size="10.00">DamageImpactGenerator</text>
</a>
</g>
</g>
<!-- Node26&#45;&gt;Node41 -->
<g id="edge51" class="edge"><title>Node26&#45;&gt;Node41</title>
<path fill="none" stroke="#9a32cd" stroke-dasharray="5,2" d="M421.689,-426.859C479.11,-430.36 555.472,-435.017 608.282,-438.237"/>
<polygon fill="#9a32cd" stroke="#9a32cd" points="421.755,-423.357 411.56,-426.241 421.329,-430.344 421.755,-423.357"/>
<text text-anchor="middle" x="516" y="-439" font-family="Helvetica,sans-Serif" font-size="10.00"> m_damageImpactAccumulator</text>
</g>
<!-- Node27&#45;&gt;Node1 -->
<g id="edge32" class="edge"><title>Node27&#45;&gt;Node1</title>
<path fill="none" stroke="#9a32cd" stroke-dasharray="5,2" d="M727.586,-477.148C771.818,-476.699 834.604,-480.188 886,-499 903.009,-505.226 919.592,-518.242 929.796,-527.294"/>
<polygon fill="#9a32cd" stroke="#9a32cd" points="727.259,-473.653 717.321,-477.326 727.38,-480.652 727.259,-473.653"/>
<text text-anchor="middle" x="821" y="-502" font-family="Helvetica,sans-Serif" font-size="10.00"> m_garbageCollector</text>
</g>
<!-- Node28 -->
<g id="node28" class="node"><title>Node28</title>
<g id="a_node28"><a xlink:href="class_world.html" target="_top" xlink:title="World">
<polygon fill="white" stroke="black" points="1308,-451.5 1308,-470.5 1350,-470.5 1350,-451.5 1308,-451.5"/>
<text text-anchor="middle" x="1329" y="-458.5" font-family="Helvetica,sans-Serif" font-size="10.00">World</text>
</a>
</g>
</g>
<!-- Node28&#45;&gt;Node1 -->
<g id="edge34" class="edge"><title>Node28&#45;&gt;Node1</title>
<path fill="none" stroke="#9a32cd" stroke-dasharray="5,2" d="M1325.71,-480.812C1322.09,-502.419 1312.91,-536.28 1290,-554 1190.24,-631.162 1022.14,-571.357 963.193,-546.508"/>
<polygon fill="#9a32cd" stroke="#9a32cd" points="1329.19,-481.174 1327.14,-470.78 1322.26,-480.186 1329.19,-481.174"/>
<text text-anchor="middle" x="1108" y="-595" font-family="Helvetica,sans-Serif" font-size="10.00"> m_world</text>
</g>
<!-- Node28&#45;&gt;Node28 -->
<g id="edge48" class="edge"><title>Node28&#45;&gt;Node28</title>
<path fill="none" stroke="#9a32cd" stroke-dasharray="5,2" d="M1313.9,-480.766C1315.09,-485.497 1320.12,-489 1329,-489 1343.57,-489 1347.79,-479.565 1341.64,-470.757"/>
<polygon fill="#9a32cd" stroke="#9a32cd" points="1317.37,-481.304 1316.36,-470.757 1310.57,-479.631 1317.37,-481.304"/>
<text text-anchor="middle" x="1329" y="-492" font-family="Helvetica,sans-Serif" font-size="10.00"> s_instance</text>
</g>
<!-- Node29 -->
<g id="node29" class="node"><title>Node29</title>
<polygon fill="white" stroke="#bfbfbf" points="1036.5,-774.5 1036.5,-793.5 1179.5,-793.5 1179.5,-774.5 1036.5,-774.5"/>
<text text-anchor="middle" x="1108" y="-781.5" font-family="Helvetica,sans-Serif" font-size="10.00">std::unique_ptr&lt; WorldTree &gt;</text>
</g>
<!-- Node29&#45;&gt;Node28 -->
<g id="edge35" class="edge"><title>Node29&#45;&gt;Node28</title>
<path fill="none" stroke="#9a32cd" stroke-dasharray="5,2" d="M1186.33,-793.716C1222.54,-793.791 1263.44,-786.707 1290,-760 1331.7,-718.076 1329.39,-517.146 1328.27,-470.629"/>
<polygon fill="#9a32cd" stroke="#9a32cd" points="1186.33,-790.215 1176.26,-793.515 1186.19,-797.214 1186.33,-790.215"/>
<text text-anchor="middle" x="1247" y="-795" font-family="Helvetica,sans-Serif" font-size="10.00"> m_worldTree</text>
</g>
<!-- Node30&#45;&gt;Node28 -->
<g id="edge36" class="edge"><title>Node30&#45;&gt;Node28</title>
<path fill="none" stroke="#9a32cd" stroke-dasharray="5,2" d="M575.347,-764.701C636.261,-756.765 734.629,-746 820,-746 820,-746 820,-746 1109,-746 1199.04,-746 1235.57,-726.723 1290,-655 1312.62,-625.2 1324.27,-505.472 1327.23,-470.585"/>
<polygon fill="#9a32cd" stroke="#9a32cd" points="574.617,-761.267 565.162,-766.047 575.534,-768.206 574.617,-761.267"/>
<text text-anchor="middle" x="941" y="-749" font-family="Helvetica,sans-Serif" font-size="10.00"> m_worldObjects</text>
</g>
<!-- Node31 -->
<g id="node31" class="node"><title>Node31</title>
<polygon fill="white" stroke="#bfbfbf" points="1044.5,-539.5 1044.5,-558.5 1171.5,-558.5 1171.5,-539.5 1044.5,-539.5"/>
<text text-anchor="middle" x="1108" y="-546.5" font-family="Helvetica,sans-Serif" font-size="10.00">std::unique_ptr&lt; Player &gt;</text>
</g>
<!-- Node31&#45;&gt;Node28 -->
<g id="edge38" class="edge"><title>Node31&#45;&gt;Node28</title>
<path fill="none" stroke="#9a32cd" stroke-dasharray="5,2" d="M1181.66,-543.661C1216.52,-538.429 1257.64,-528.147 1290,-508 1304.97,-498.684 1316.65,-481.354 1322.92,-470.54"/>
<polygon fill="#9a32cd" stroke="#9a32cd" points="1180.96,-540.225 1171.54,-545.068 1181.92,-547.159 1180.96,-540.225"/>
<text text-anchor="middle" x="1247" y="-542" font-family="Helvetica,sans-Serif" font-size="10.00"> m_player</text>
</g>
<!-- Node32&#45;&gt;Node28 -->
<g id="edge39" class="edge"><title>Node32&#45;&gt;Node28</title>
<path fill="none" stroke="#9a32cd" stroke-dasharray="5,2" d="M1192.54,-641.567C1226.5,-640.19 1263.83,-632.346 1290,-609 1311.08,-590.194 1323.39,-500.226 1326.93,-470.532"/>
<polygon fill="#9a32cd" stroke="#9a32cd" points="1192.04,-638.077 1182.12,-641.796 1192.19,-645.075 1192.04,-638.077"/>
<text text-anchor="middle" x="1247" y="-643" font-family="Helvetica,sans-Serif" font-size="10.00"> m_worldLogic</text>
</g>
<!-- Node33 -->
<g id="node33" class="node"><title>Node33</title>
<polygon fill="white" stroke="#bfbfbf" points="1059,-490 1059,-520 1157,-520 1157,-490 1059,-490"/>
<text text-anchor="start" x="1067" y="-508" font-family="Helvetica,sans-Serif" font-size="10.00">std::unordered_set</text>
<text text-anchor="middle" x="1108" y="-497" font-family="Helvetica,sans-Serif" font-size="10.00">&lt; Ship * &gt;</text>
</g>
<!-- Node33&#45;&gt;Node28 -->
<g id="edge41" class="edge"><title>Node33&#45;&gt;Node28</title>
<path fill="none" stroke="#9a32cd" stroke-dasharray="5,2" d="M1167.51,-498.896C1203.29,-494.359 1249.77,-487.021 1290,-476 1295.88,-474.388 1302.1,-472.167 1307.77,-469.927"/>
<polygon fill="#9a32cd" stroke="#9a32cd" points="1166.74,-495.464 1157.24,-500.158 1167.59,-502.411 1166.74,-495.464"/>
<text text-anchor="middle" x="1247" y="-496" font-family="Helvetica,sans-Serif" font-size="10.00"> m_ships</text>
</g>
<!-- Node34 -->
<g id="node34" class="node"><title>Node34</title>
<polygon fill="white" stroke="#bfbfbf" points="1042,-451.5 1042,-470.5 1174,-470.5 1174,-451.5 1042,-451.5"/>
<text text-anchor="middle" x="1108" y="-458.5" font-family="Helvetica,sans-Serif" font-size="10.00">std::unique_ptr&lt; Skybox &gt;</text>
</g>
<!-- Node34&#45;&gt;Node28 -->
<g id="edge42" class="edge"><title>Node34&#45;&gt;Node28</title>
<path fill="none" stroke="#9a32cd" stroke-dasharray="5,2" d="M1184.19,-461C1228,-461 1279.96,-461 1307.87,-461"/>
<polygon fill="#9a32cd" stroke="#9a32cd" points="1184.11,-457.5 1174.11,-461 1184.11,-464.5 1184.11,-457.5"/>
<text text-anchor="middle" x="1247" y="-464" font-family="Helvetica,sans-Serif" font-size="10.00"> m_skybox</text>
</g>
<!-- Node35 -->
<g id="node35" class="node"><title>Node35</title>
<polygon fill="white" stroke="#bfbfbf" points="1034,-402 1034,-432 1182,-432 1182,-402 1034,-402"/>
<text text-anchor="start" x="1042" y="-420" font-family="Helvetica,sans-Serif" font-size="10.00">std::unique_ptr&lt; VoxelParticle</text>
<text text-anchor="middle" x="1108" y="-409" font-family="Helvetica,sans-Serif" font-size="10.00">Engine &gt;</text>
</g>
<!-- Node35&#45;&gt;Node28 -->
<g id="edge43" class="edge"><title>Node35&#45;&gt;Node28</title>
<path fill="none" stroke="#9a32cd" stroke-dasharray="5,2" d="M1192.73,-426.549C1223.62,-431.08 1258.7,-437.425 1290,-446 1295.88,-447.612 1302.1,-449.833 1307.77,-452.073"/>
<polygon fill="#9a32cd" stroke="#9a32cd" points="1192.82,-423.027 1182.43,-425.081 1191.84,-429.957 1192.82,-423.027"/>
<text text-anchor="middle" x="1247" y="-449" font-family="Helvetica,sans-Serif" font-size="10.00"> m_particleEngine</text>
</g>
<!-- Node36 -->
<g id="node36" class="node"><title>Node36</title>
<polygon fill="white" stroke="#bfbfbf" points="1030.5,-363.5 1030.5,-382.5 1185.5,-382.5 1185.5,-363.5 1030.5,-363.5"/>
<text text-anchor="middle" x="1108" y="-370.5" font-family="Helvetica,sans-Serif" font-size="10.00">std::unique_ptr&lt; ScriptEngine &gt;</text>
</g>
<!-- Node36&#45;&gt;Node28 -->
<g id="edge44" class="edge"><title>Node36&#45;&gt;Node28</title>
<path fill="none" stroke="#9a32cd" stroke-dasharray="5,2" d="M1195.69,-379.959C1227.21,-385.527 1261.94,-395.434 1290,-413 1305.14,-422.475 1316.77,-440.186 1322.98,-451.243"/>
<polygon fill="#9a32cd" stroke="#9a32cd" points="1196.02,-376.466 1185.59,-378.3 1194.89,-383.374 1196.02,-376.466"/>
<text text-anchor="middle" x="1247" y="-416" font-family="Helvetica,sans-Serif" font-size="10.00"> m_scriptEngine</text>
</g>
<!-- Node37 -->
<g id="node37" class="node"><title>Node37</title>
<polygon fill="white" stroke="#bfbfbf" points="1047,-314 1047,-344 1169,-344 1169,-314 1047,-314"/>
<text text-anchor="start" x="1055" y="-332" font-family="Helvetica,sans-Serif" font-size="10.00">std::unique_ptr&lt; Faction</text>
<text text-anchor="middle" x="1108" y="-321" font-family="Helvetica,sans-Serif" font-size="10.00">Matrix &gt;</text>
</g>
<!-- Node37&#45;&gt;Node28 -->
<g id="edge45" class="edge"><title>Node37&#45;&gt;Node28</title>
<path fill="none" stroke="#9a32cd" stroke-dasharray="5,2" d="M1179.52,-328.04C1216.16,-331.046 1259.51,-340.531 1290,-366 1316.72,-388.322 1324.8,-432.151 1327.12,-451.469"/>
<polygon fill="#9a32cd" stroke="#9a32cd" points="1179.6,-324.537 1169.39,-327.356 1179.13,-331.521 1179.6,-324.537"/>
<text text-anchor="middle" x="1247" y="-369" font-family="Helvetica,sans-Serif" font-size="10.00"> m_factionMatrix</text>
</g>
<!-- Node38 -->
<g id="node38" class="node"><title>Node38</title>
<polygon fill="white" stroke="#bfbfbf" points="1049.5,-275.5 1049.5,-294.5 1166.5,-294.5 1166.5,-275.5 1049.5,-275.5"/>
<text text-anchor="middle" x="1108" y="-282.5" font-family="Helvetica,sans-Serif" font-size="10.00">std::unique_ptr&lt; God &gt;</text>
</g>
<!-- Node38&#45;&gt;Node28 -->
<g id="edge46" class="edge"><title>Node38&#45;&gt;Node28</title>
<path fill="none" stroke="#9a32cd" stroke-dasharray="5,2" d="M1176.97,-279.817C1214.69,-280.676 1259.93,-288.429 1290,-316 1310.33,-334.642 1323.05,-421.848 1326.82,-451.274"/>
<polygon fill="#9a32cd" stroke="#9a32cd" points="1176.57,-276.314 1166.55,-279.747 1176.52,-283.314 1176.57,-276.314"/>
<text text-anchor="middle" x="1247" y="-319" font-family="Helvetica,sans-Serif" font-size="10.00"> m_god</text>
</g>
<!-- Node39 -->
<g id="node39" class="node"><title>Node39</title>
<polygon fill="white" stroke="#bfbfbf" points="1046,-226 1046,-256 1170,-256 1170,-226 1046,-226"/>
<text text-anchor="start" x="1054" y="-244" font-family="Helvetica,sans-Serif" font-size="10.00">std::unique_ptr&lt; Mission</text>
<text text-anchor="middle" x="1108" y="-233" font-family="Helvetica,sans-Serif" font-size="10.00">System &gt;</text>
</g>
<!-- Node39&#45;&gt;Node28 -->
<g id="edge47" class="edge"><title>Node39&#45;&gt;Node28</title>
<path fill="none" stroke="#9a32cd" stroke-dasharray="5,2" d="M1180.67,-232.524C1217.85,-232.22 1261.36,-238.896 1290,-266 1317.31,-291.84 1325.66,-415.077 1327.54,-451.094"/>
<polygon fill="#9a32cd" stroke="#9a32cd" points="1180.28,-229.033 1170.37,-232.783 1180.46,-236.03 1180.28,-229.033"/>
<text text-anchor="middle" x="1247" y="-269" font-family="Helvetica,sans-Serif" font-size="10.00"> m_missionSystem</text>
</g>
<!-- Node40 -->
<g id="node40" class="node"><title>Node40</title>
<polygon fill="white" stroke="#bfbfbf" points="1034,-187.5 1034,-206.5 1182,-206.5 1182,-187.5 1034,-187.5"/>
<text text-anchor="middle" x="1108" y="-194.5" font-family="Helvetica,sans-Serif" font-size="10.00">std::unique_ptr&lt; EventPoller &gt;</text>
</g>
<!-- Node40&#45;&gt;Node28 -->
<g id="edge49" class="edge"><title>Node40&#45;&gt;Node28</title>
<path fill="none" stroke="#9a32cd" stroke-dasharray="5,2" d="M1173.1,-186.699C1211.92,-184.308 1259.64,-188.821 1290,-218 1324.25,-250.918 1327.67,-410.179 1327.98,-451.297"/>
<polygon fill="#9a32cd" stroke="#9a32cd" points="1172.62,-183.226 1162.92,-187.493 1173.17,-190.204 1172.62,-183.226"/>
<text text-anchor="middle" x="1247" y="-221" font-family="Helvetica,sans-Serif" font-size="10.00"> m_eventPoller</text>
</g>
<!-- Node41&#45;&gt;Node1 -->
<g id="edge50" class="edge"><title>Node41&#45;&gt;Node1</title>
<path fill="none" stroke="#9a32cd" stroke-dasharray="5,2" d="M743.698,-434.312C787.524,-432.96 843.189,-437.489 886,-462 912.316,-477.067 929.208,-510.766 936.247,-527.373"/>
<polygon fill="#9a32cd" stroke="#9a32cd" points="743.53,-430.816 733.684,-434.728 743.821,-437.81 743.53,-430.816"/>
<text text-anchor="middle" x="821" y="-465" font-family="Helvetica,sans-Serif" font-size="10.00"> m_damageImpactGenerator</text>
</g>
</g>
</svg>
