<?xml version="1.0" encoding="UTF-8" standalone="no"?>
<!DOCTYPE svg PUBLIC "-//W3C//DTD SVG 1.1//EN"
 "http://www.w3.org/Graphics/SVG/1.1/DTD/svg11.dtd">
<!-- Generated by graphviz version 2.36.0 (20140111.2315)
 -->
<!-- Title: EventPoller Pages: 1 -->
<svg width="148pt" height="176pt"
 viewBox="0.00 0.00 148.00 176.00" xmlns="http://www.w3.org/2000/svg" xmlns:xlink="http://www.w3.org/1999/xlink">
<g id="graph0" class="graph" transform="scale(1 1) rotate(0) translate(4 172)">
<title>EventPoller</title>
<polygon fill="white" stroke="none" points="-4,4 -4,-172 144,-172 144,4 -4,4"/>
<!-- Node1 -->
<g id="node1" class="node"><title>Node1</title>
<polygon fill="#bfbfbf" stroke="black" points="37.5,-0.5 37.5,-19.5 102.5,-19.5 102.5,-0.5 37.5,-0.5"/>
<text text-anchor="middle" x="70" y="-7.5" font-family="Helvetica,sans-Serif" font-size="10.00">EventPoller</text>
</g>
<!-- Node2 -->
<g id="node2" class="node"><title>Node2</title>
<polygon fill="white" stroke="#bfbfbf" points="17,-69 17,-99 123,-99 123,-69 17,-69"/>
<text text-anchor="start" x="25" y="-87" font-family="Helvetica,sans-Serif" font-size="10.00">std::list&lt; std::unique</text>
<text text-anchor="middle" x="70" y="-76" font-family="Helvetica,sans-Serif" font-size="10.00">_ptr&lt; EventPoll &gt; &gt;</text>
</g>
<!-- Node2&#45;&gt;Node1 -->
<g id="edge1" class="edge"><title>Node2&#45;&gt;Node1</title>
<path fill="none" stroke="#9a32cd" stroke-dasharray="5,2" d="M70,-58.6883C70,-45.2526 70,-29.3805 70,-19.7589"/>
<polygon fill="#9a32cd" stroke="#9a32cd" points="66.5001,-58.7751 70,-68.7751 73.5001,-58.7752 66.5001,-58.7751"/>
<text text-anchor="middle" x="100.5" y="-41.5" font-family="Helvetica,sans-Serif" font-size="10.00"> m_eventPolls</text>
</g>
<!-- Node3 -->
<g id="node3" class="node"><title>Node3</title>
<polygon fill="white" stroke="#bfbfbf" points="0,-148.5 0,-167.5 140,-167.5 140,-148.5 0,-148.5"/>
<text text-anchor="middle" x="70" y="-155.5" font-family="Helvetica,sans-Serif" font-size="10.00">std::unique_ptr&lt; EventPoll &gt;</text>
</g>
<!-- Node3&#45;&gt;Node2 -->
<g id="edge2" class="edge"><title>Node3&#45;&gt;Node2</title>
<path fill="none" stroke="#9a32cd" stroke-dasharray="5,2" d="M70,-138.085C70,-125.915 70,-110.354 70,-99.2316"/>
<polygon fill="#9a32cd" stroke="#9a32cd" points="66.5001,-138.458 70,-148.458 73.5001,-138.458 66.5001,-138.458"/>
<text text-anchor="middle" x="91.5" y="-121.5" font-family="Helvetica,sans-Serif" font-size="10.00"> elements</text>
</g>
</g>
</svg>
