<?xml version="1.0" encoding="UTF-8" standalone="no"?>
<!DOCTYPE svg PUBLIC "-//W3C//DTD SVG 1.1//EN"
 "http://www.w3.org/Graphics/SVG/1.1/DTD/svg11.dtd">
<!-- Generated by graphviz version 2.36.0 (20140111.2315)
 -->
<!-- Title: Mission Pages: 1 -->
<svg width="184pt" height="96pt"
 viewBox="0.00 0.00 184.00 96.00" xmlns="http://www.w3.org/2000/svg" xmlns:xlink="http://www.w3.org/1999/xlink">
<g id="graph0" class="graph" transform="scale(1 1) rotate(0) translate(4 92)">
<title>Mission</title>
<polygon fill="white" stroke="none" points="-4,4 -4,-92 180,-92 180,4 -4,4"/>
<!-- Node1 -->
<g id="node1" class="node"><title>Node1</title>
<polygon fill="#bfbfbf" stroke="black" points="53,-0.5 53,-19.5 103,-19.5 103,-0.5 53,-0.5"/>
<text text-anchor="middle" x="78" y="-7.5" font-family="Helvetica,sans-Serif" font-size="10.00">Mission</text>
</g>
<!-- Node2 -->
<g id="node2" class="node"><title>Node2</title>
<g id="a_node2"><a xlink:href="class_scriptable.html" target="_top" xlink:title="Scriptable">
<polygon fill="white" stroke="black" points="0,-68.5 0,-87.5 60,-87.5 60,-68.5 0,-68.5"/>
<text text-anchor="middle" x="30" y="-75.5" font-family="Helvetica,sans-Serif" font-size="10.00">Scriptable</text>
</a>
</g>
</g>
<!-- Node2&#45;&gt;Node1 -->
<g id="edge1" class="edge"><title>Node2&#45;&gt;Node1</title>
<path fill="none" stroke="midnightblue" d="M42.4089,-59.9377C51.7368,-47.112 64.1388,-30.0591 71.5701,-19.8411"/>
<polygon fill="midnightblue" stroke="midnightblue" points="39.3263,-58.2257 36.2752,-68.3717 44.9875,-62.3429 39.3263,-58.2257"/>
</g>
<!-- Node3 -->
<g id="node3" class="node"><title>Node3</title>
<g id="a_node3"><a xlink:href="class_handle.html" target="_top" xlink:title="Handle\&lt; Mission \&gt;">
<polygon fill="white" stroke="black" points="78,-68.5 78,-87.5 176,-87.5 176,-68.5 78,-68.5"/>
<text text-anchor="middle" x="127" y="-75.5" font-family="Helvetica,sans-Serif" font-size="10.00">Handle&lt; Mission &gt;</text>
</a>
</g>
</g>
<!-- Node3&#45;&gt;Node1 -->
<g id="edge2" class="edge"><title>Node3&#45;&gt;Node1</title>
<path fill="none" stroke="#9a32cd" stroke-dasharray="5,2" d="M114.609,-60.3101C105.057,-47.4437 92.2236,-30.1583 84.5639,-19.8411"/>
<polygon fill="#9a32cd" stroke="#9a32cd" points="111.823,-62.4289 120.594,-68.3717 117.443,-58.2562 111.823,-62.4289"/>
<text text-anchor="middle" x="129" y="-41.5" font-family="Helvetica,sans-Serif" font-size="10.00"> m_handle</text>
</g>
</g>
</svg>
