<?xml version="1.0" encoding="UTF-8" standalone="no"?>
<!DOCTYPE svg PUBLIC "-//W3C//DTD SVG 1.1//EN"
 "http://www.w3.org/Graphics/SVG/1.1/DTD/svg11.dtd">
<!-- Generated by graphviz version 2.36.0 (20140111.2315)
 -->
<!-- Title: HUDElements Pages: 1 -->
<svg width="1170pt" height="285pt"
 viewBox="0.00 0.00 1170.00 285.00" xmlns="http://www.w3.org/2000/svg" xmlns:xlink="http://www.w3.org/1999/xlink">
<g id="graph0" class="graph" transform="scale(1 1) rotate(0) translate(4 281)">
<title>HUDElements</title>
<polygon fill="white" stroke="none" points="-4,4 -4,-281 1166,-281 1166,4 -4,4"/>
<!-- Node1 -->
<g id="node1" class="node"><title>Node1</title>
<polygon fill="#bfbfbf" stroke="black" points="1084,-141.5 1084,-160.5 1162,-160.5 1162,-141.5 1084,-141.5"/>
<text text-anchor="middle" x="1123" y="-148.5" font-family="Helvetica,sans-Serif" font-size="10.00">HUDElements</text>
</g>
<!-- Node2 -->
<g id="node2" class="node"><title>Node2</title>
<polygon fill="white" stroke="#bfbfbf" points="850,-181 850,-211 984,-211 984,-181 850,-181"/>
<text text-anchor="start" x="858" y="-199" font-family="Helvetica,sans-Serif" font-size="10.00">std::list&lt; std::unique</text>
<text text-anchor="middle" x="917" y="-188" font-family="Helvetica,sans-Serif" font-size="10.00">_ptr&lt; HudgetAnimation &gt; &gt;</text>
</g>
<!-- Node2&#45;&gt;Node1 -->
<g id="edge1" class="edge"><title>Node2&#45;&gt;Node1</title>
<path fill="none" stroke="#9a32cd" stroke-dasharray="5,2" d="M994.153,-180.635C1017.27,-175.813 1042.71,-170.349 1066,-165 1072.06,-163.609 1078.46,-162.071 1084.7,-160.538"/>
<polygon fill="#9a32cd" stroke="#9a32cd" points="993.137,-177.271 984.058,-182.731 994.56,-184.125 993.137,-177.271"/>
<text text-anchor="middle" x="1034" y="-182" font-family="Helvetica,sans-Serif" font-size="10.00"> m_animations</text>
</g>
<!-- Node3 -->
<g id="node3" class="node"><title>Node3</title>
<polygon fill="white" stroke="#bfbfbf" points="530.5,-187.5 530.5,-206.5 703.5,-206.5 703.5,-187.5 530.5,-187.5"/>
<text text-anchor="middle" x="617" y="-194.5" font-family="Helvetica,sans-Serif" font-size="10.00">std::unique_ptr&lt; HudgetAnimation &gt;</text>
</g>
<!-- Node3&#45;&gt;Node2 -->
<g id="edge2" class="edge"><title>Node3&#45;&gt;Node2</title>
<path fill="none" stroke="#9a32cd" stroke-dasharray="5,2" d="M714.007,-196.678C758.311,-196.529 809.801,-196.356 849.707,-196.222"/>
<polygon fill="#9a32cd" stroke="#9a32cd" points="713.782,-193.178 703.794,-196.712 713.806,-200.178 713.782,-193.178"/>
<text text-anchor="middle" x="777" y="-200" font-family="Helvetica,sans-Serif" font-size="10.00"> elements</text>
</g>
<!-- Node4 -->
<g id="node4" class="node"><title>Node4</title>
<g id="a_node4"><a xlink:href="class_hudget_animation.html" target="_top" xlink:title="HudgetAnimation">
<polygon fill="white" stroke="black" points="339.5,-187.5 339.5,-206.5 430.5,-206.5 430.5,-187.5 339.5,-187.5"/>
<text text-anchor="middle" x="385" y="-194.5" font-family="Helvetica,sans-Serif" font-size="10.00">HudgetAnimation</text>
</a>
</g>
</g>
<!-- Node4&#45;&gt;Node3 -->
<g id="edge3" class="edge"><title>Node4&#45;&gt;Node3</title>
<path fill="none" stroke="#9a32cd" stroke-dasharray="5,2" d="M440.897,-197C467.553,-197 500.202,-197 530.055,-197"/>
<polygon fill="#9a32cd" stroke="#9a32cd" points="440.619,-193.5 430.619,-197 440.619,-200.5 440.619,-193.5"/>
<text text-anchor="middle" x="490" y="-200" font-family="Helvetica,sans-Serif" font-size="10.00"> ptr</text>
</g>
<!-- Node7 -->
<g id="node7" class="node"><title>Node7</title>
<g id="a_node7"><a xlink:href="class_hudget_hide_animation.html" target="_top" xlink:title="HudgetHideAnimation">
<polygon fill="white" stroke="black" points="722,-234.5 722,-253.5 832,-253.5 832,-234.5 722,-234.5"/>
<text text-anchor="middle" x="777" y="-241.5" font-family="Helvetica,sans-Serif" font-size="10.00">HudgetHideAnimation</text>
</a>
</g>
</g>
<!-- Node4&#45;&gt;Node7 -->
<g id="edge8" class="edge"><title>Node4&#45;&gt;Node7</title>
<path fill="none" stroke="midnightblue" d="M440.705,-207.614C449.801,-209.204 459.152,-210.733 468,-212 556.607,-224.688 660.242,-234.408 721.875,-239.653"/>
<polygon fill="midnightblue" stroke="midnightblue" points="441.043,-204.119 430.583,-205.803 439.81,-211.01 441.043,-204.119"/>
</g>
<!-- Node5 -->
<g id="node5" class="node"><title>Node5</title>
<g id="a_node5"><a xlink:href="class_hudget.html" target="_top" xlink:title="Hudget">
<polygon fill="white" stroke="black" points="149.5,-143.5 149.5,-162.5 196.5,-162.5 196.5,-143.5 149.5,-143.5"/>
<text text-anchor="middle" x="173" y="-150.5" font-family="Helvetica,sans-Serif" font-size="10.00">Hudget</text>
</a>
</g>
</g>
<!-- Node5&#45;&gt;Node4 -->
<g id="edge4" class="edge"><title>Node5&#45;&gt;Node4</title>
<path fill="none" stroke="#9a32cd" stroke-dasharray="5,2" d="M206.44,-160.79C221.487,-164.334 239.627,-168.505 256,-172 283.679,-177.908 314.845,-184.007 339.494,-188.702"/>
<polygon fill="#9a32cd" stroke="#9a32cd" points="207.114,-157.353 196.576,-158.454 205.5,-164.165 207.114,-157.353"/>
<text text-anchor="middle" x="279" y="-185" font-family="Helvetica,sans-Serif" font-size="10.00"> m_hudget</text>
</g>
<!-- Node8 -->
<g id="node8" class="node"><title>Node8</title>
<g id="a_node8"><a xlink:href="class_text_field_hudget.html" target="_top" xlink:title="TextFieldHudget">
<polygon fill="white" stroke="black" points="341.5,-41.5 341.5,-60.5 428.5,-60.5 428.5,-41.5 341.5,-41.5"/>
<text text-anchor="middle" x="385" y="-48.5" font-family="Helvetica,sans-Serif" font-size="10.00">TextFieldHudget</text>
</a>
</g>
</g>
<!-- Node5&#45;&gt;Node8 -->
<g id="edge10" class="edge"><title>Node5&#45;&gt;Node8</title>
<path fill="none" stroke="midnightblue" d="M202.909,-138.958C246.225,-117.919 326.855,-78.7561 364.143,-60.6447"/>
<polygon fill="midnightblue" stroke="midnightblue" points="201.222,-135.887 193.756,-143.404 204.281,-142.183 201.222,-135.887"/>
</g>
<!-- Node12 -->
<g id="node12" class="node"><title>Node12</title>
<polygon fill="white" stroke="#bfbfbf" points="320,-149.5 320,-168.5 450,-168.5 450,-149.5 320,-149.5"/>
<text text-anchor="middle" x="385" y="-156.5" font-family="Helvetica,sans-Serif" font-size="10.00">std::unique_ptr&lt; Hudget &gt;</text>
</g>
<!-- Node5&#45;&gt;Node12 -->
<g id="edge15" class="edge"><title>Node5&#45;&gt;Node12</title>
<path fill="none" stroke="#9a32cd" stroke-dasharray="5,2" d="M207.233,-153.95C237.32,-154.809 282.482,-156.099 319.625,-157.161"/>
<polygon fill="#9a32cd" stroke="#9a32cd" points="206.969,-150.441 196.873,-153.654 206.769,-157.438 206.969,-150.441"/>
<text text-anchor="middle" x="279" y="-160" font-family="Helvetica,sans-Serif" font-size="10.00"> ptr</text>
</g>
<!-- Node6 -->
<g id="node6" class="node"><title>Node6</title>
<g id="a_node6"><a xlink:href="class_h_u_d.html" target="_top" xlink:title="HUD">
<polygon fill="white" stroke="red" points="0.5,-115.5 0.5,-134.5 37.5,-134.5 37.5,-115.5 0.5,-115.5"/>
<text text-anchor="middle" x="19" y="-122.5" font-family="Helvetica,sans-Serif" font-size="10.00">HUD</text>
</a>
</g>
</g>
<!-- Node6&#45;&gt;Node1 -->
<g id="edge6" class="edge"><title>Node6&#45;&gt;Node1</title>
<path fill="none" stroke="#9a32cd" stroke-dasharray="5,2" d="M47.5412,-119.171C77.8822,-113.268 128.191,-105 172,-105 172,-105 172,-105 918,-105 983.714,-105 1058.48,-127.995 1096.65,-141.469"/>
<polygon fill="#9a32cd" stroke="#9a32cd" points="46.8041,-115.75 37.6854,-121.144 48.1778,-122.613 46.8041,-115.75"/>
<text text-anchor="middle" x="490" y="-108" font-family="Helvetica,sans-Serif" font-size="10.00"> m_hud</text>
</g>
<!-- Node6&#45;&gt;Node5 -->
<g id="edge5" class="edge"><title>Node6&#45;&gt;Node5</title>
<path fill="none" stroke="#9a32cd" stroke-dasharray="5,2" d="M47.6939,-130.102C76.8984,-135.481 122.356,-143.855 149.453,-148.847"/>
<polygon fill="#9a32cd" stroke="#9a32cd" points="48.2024,-126.636 37.7338,-128.267 46.9342,-133.521 48.2024,-126.636"/>
<text text-anchor="middle" x="73" y="-141" font-family="Helvetica,sans-Serif" font-size="10.00"> m_hud</text>
</g>
<!-- Node7&#45;&gt;Node1 -->
<g id="edge7" class="edge"><title>Node7&#45;&gt;Node1</title>
<path fill="none" stroke="#9a32cd" stroke-dasharray="5,2" d="M842.3,-243.883C903.138,-241.303 995.399,-230.84 1066,-194 1083.39,-184.927 1100.92,-170.398 1111.62,-160.778"/>
<polygon fill="#9a32cd" stroke="#9a32cd" points="841.933,-240.394 832.066,-244.256 842.187,-247.39 841.933,-240.394"/>
<text text-anchor="middle" x="917" y="-269" font-family="Helvetica,sans-Serif" font-size="10.00"> m_missionTitleHider</text>
<text text-anchor="middle" x="917" y="-258" font-family="Helvetica,sans-Serif" font-size="10.00">m_missionCaptionHider</text>
<text text-anchor="middle" x="917" y="-247" font-family="Helvetica,sans-Serif" font-size="10.00">m_missionMessageHider</text>
</g>
<!-- Node8&#45;&gt;Node1 -->
<g id="edge9" class="edge"><title>Node8&#45;&gt;Node1</title>
<path fill="none" stroke="#9a32cd" stroke-dasharray="5,2" d="M438.618,-44.1853C522.25,-34.4868 690.525,-19.5971 832,-36 938.123,-48.3041 973.573,-37.4201 1066,-91 1087.94,-103.72 1106.44,-127.759 1115.68,-141.227"/>
<polygon fill="#9a32cd" stroke="#9a32cd" points="438.124,-40.7194 428.604,-45.3691 438.945,-47.671 438.124,-40.7194"/>
<text text-anchor="middle" x="777" y="-83" font-family="Helvetica,sans-Serif" font-size="10.00"> m_speedLabel</text>
<text text-anchor="middle" x="777" y="-72" font-family="Helvetica,sans-Serif" font-size="10.00">m_targetName</text>
<text text-anchor="middle" x="777" y="-61" font-family="Helvetica,sans-Serif" font-size="10.00">m_missionTitle</text>
<text text-anchor="middle" x="777" y="-50" font-family="Helvetica,sans-Serif" font-size="10.00">m_missionMessage</text>
<text text-anchor="middle" x="777" y="-39" font-family="Helvetica,sans-Serif" font-size="10.00">m_missionCaption</text>
</g>
<!-- Node9 -->
<g id="node9" class="node"><title>Node9</title>
<polygon fill="white" stroke="#bfbfbf" points="108,-0 108,-30 238,-30 238,-0 108,-0"/>
<text text-anchor="start" x="116" y="-18" font-family="Helvetica,sans-Serif" font-size="10.00">std::unique_ptr&lt; TextField</text>
<text text-anchor="middle" x="173" y="-7" font-family="Helvetica,sans-Serif" font-size="10.00">HudgetVoxels &gt;</text>
</g>
<!-- Node9&#45;&gt;Node8 -->
<g id="edge11" class="edge"><title>Node9&#45;&gt;Node8</title>
<path fill="none" stroke="#9a32cd" stroke-dasharray="5,2" d="M248.144,-27.7105C279.416,-33.0713 314.695,-39.1191 341.464,-43.7081"/>
<polygon fill="#9a32cd" stroke="#9a32cd" points="248.596,-24.2368 238.148,-25.9968 247.413,-31.1362 248.596,-24.2368"/>
<text text-anchor="middle" x="279" y="-40" font-family="Helvetica,sans-Serif" font-size="10.00"> m_voxels</text>
</g>
<!-- Node10 -->
<g id="node10" class="node"><title>Node10</title>
<g id="a_node10"><a xlink:title="STL class. ">
<polygon fill="white" stroke="#bfbfbf" points="143,-49.5 143,-68.5 203,-68.5 203,-49.5 143,-49.5"/>
<text text-anchor="middle" x="173" y="-56.5" font-family="Helvetica,sans-Serif" font-size="10.00">std::string</text>
</a>
</g>
</g>
<!-- Node10&#45;&gt;Node8 -->
<g id="edge12" class="edge"><title>Node10&#45;&gt;Node8</title>
<path fill="none" stroke="#9a32cd" stroke-dasharray="5,2" d="M213.437,-57.4976C249.85,-56.1105 303.799,-54.0553 341.234,-52.6292"/>
<polygon fill="#9a32cd" stroke="#9a32cd" points="213.059,-54.0094 203.2,-57.8876 213.326,-61.0043 213.059,-54.0094"/>
<text text-anchor="middle" x="279" y="-59" font-family="Helvetica,sans-Serif" font-size="10.00"> m_text</text>
</g>
<!-- Node11 -->
<g id="node11" class="node"><title>Node11</title>
<polygon fill="white" stroke="#bfbfbf" points="724,-140 724,-170 830,-170 830,-140 724,-140"/>
<text text-anchor="start" x="732" y="-158" font-family="Helvetica,sans-Serif" font-size="10.00">std::list&lt; std::unique</text>
<text text-anchor="middle" x="777" y="-147" font-family="Helvetica,sans-Serif" font-size="10.00">_ptr&lt; Hudget &gt; &gt;</text>
</g>
<!-- Node11&#45;&gt;Node1 -->
<g id="edge13" class="edge"><title>Node11&#45;&gt;Node1</title>
<path fill="none" stroke="#9a32cd" stroke-dasharray="5,2" d="M840.398,-154.274C911.386,-153.449 1025.06,-152.127 1083.92,-151.443"/>
<polygon fill="#9a32cd" stroke="#9a32cd" points="840.205,-150.776 830.246,-154.392 840.286,-157.776 840.205,-150.776"/>
<text text-anchor="middle" x="917" y="-158" font-family="Helvetica,sans-Serif" font-size="10.00"> m_hudgets</text>
</g>
<!-- Node12&#45;&gt;Node11 -->
<g id="edge14" class="edge"><title>Node12&#45;&gt;Node11</title>
<path fill="none" stroke="#9a32cd" stroke-dasharray="5,2" d="M460.54,-158.235C537.742,-157.444 656.357,-156.227 723.997,-155.533"/>
<polygon fill="#9a32cd" stroke="#9a32cd" points="460.364,-154.737 450.401,-158.339 460.436,-161.737 460.364,-154.737"/>
<text text-anchor="middle" x="490" y="-162" font-family="Helvetica,sans-Serif" font-size="10.00"> elements</text>
</g>
</g>
</svg>
