<?xml version="1.0" encoding="UTF-8" standalone="no"?>
<!DOCTYPE svg PUBLIC "-//W3C//DTD SVG 1.1//EN"
 "http://www.w3.org/Graphics/SVG/1.1/DTD/svg11.dtd">
<!-- Generated by graphviz version 2.36.0 (20140111.2315)
 -->
<!-- Title: HardpointAimHelper Pages: 1 -->
<svg width="560pt" height="442pt"
 viewBox="0.00 0.00 560.00 442.00" xmlns="http://www.w3.org/2000/svg" xmlns:xlink="http://www.w3.org/1999/xlink">
<g id="graph0" class="graph" transform="scale(1 1) rotate(0) translate(4 438)">
<title>HardpointAimHelper</title>
<polygon fill="white" stroke="none" points="-4,4 -4,-438 556,-438 556,4 -4,4"/>
<!-- Node1 -->
<g id="node1" class="node"><title>Node1</title>
<polygon fill="#bfbfbf" stroke="black" points="448.5,-161.5 448.5,-180.5 551.5,-180.5 551.5,-161.5 448.5,-161.5"/>
<text text-anchor="middle" x="500" y="-168.5" font-family="Helvetica,sans-Serif" font-size="10.00">HardpointAimHelper</text>
</g>
<!-- Node2 -->
<g id="node2" class="node"><title>Node2</title>
<g id="a_node2"><a xlink:href="class_world_object.html" target="_top" xlink:title="WorldObject">
<polygon fill="white" stroke="black" points="270.5,-243.5 270.5,-262.5 341.5,-262.5 341.5,-243.5 270.5,-243.5"/>
<text text-anchor="middle" x="306" y="-250.5" font-family="Helvetica,sans-Serif" font-size="10.00">WorldObject</text>
</a>
</g>
</g>
<!-- Node2&#45;&gt;Node1 -->
<g id="edge1" class="edge"><title>Node2&#45;&gt;Node1</title>
<path fill="none" stroke="#9a32cd" stroke-dasharray="5,2" d="M338.704,-239.46C377.649,-222.827 442.723,-195.035 476.742,-180.506"/>
<polygon fill="#9a32cd" stroke="#9a32cd" points="337.222,-236.287 329.401,-243.433 339.972,-242.724 337.222,-236.287"/>
<text text-anchor="middle" x="395" y="-232" font-family="Helvetica,sans-Serif" font-size="10.00"> m_targetObject</text>
</g>
<!-- Node3 -->
<g id="node3" class="node"><title>Node3</title>
<g id="a_node3"><a xlink:href="class_voxel_cluster.html" target="_top" xlink:title="VoxelCluster">
<polygon fill="white" stroke="red" points="36,-414.5 36,-433.5 108,-433.5 108,-414.5 36,-414.5"/>
<text text-anchor="middle" x="72" y="-421.5" font-family="Helvetica,sans-Serif" font-size="10.00">VoxelCluster</text>
</a>
</g>
</g>
<!-- Node3&#45;&gt;Node2 -->
<g id="edge2" class="edge"><title>Node3&#45;&gt;Node2</title>
<path fill="none" stroke="midnightblue" d="M118.33,-426.027C157.932,-425.383 214.761,-418.302 252,-387 291.45,-353.839 301.729,-287.279 304.239,-262.543"/>
<polygon fill="midnightblue" stroke="midnightblue" points="118.141,-422.527 108.152,-426.058 118.163,-429.527 118.141,-422.527"/>
</g>
<!-- Node4 -->
<g id="node4" class="node"><title>Node4</title>
<g id="a_node4"><a xlink:href="class_scriptable.html" target="_top" xlink:title="Scriptable">
<polygon fill="white" stroke="black" points="42,-376.5 42,-395.5 102,-395.5 102,-376.5 42,-376.5"/>
<text text-anchor="middle" x="72" y="-383.5" font-family="Helvetica,sans-Serif" font-size="10.00">Scriptable</text>
</a>
</g>
</g>
<!-- Node4&#45;&gt;Node2 -->
<g id="edge3" class="edge"><title>Node4&#45;&gt;Node2</title>
<path fill="none" stroke="midnightblue" d="M112.254,-389.918C151.344,-391.73 211.245,-388.617 252,-359 285.288,-334.809 298.912,-283.719 303.28,-262.525"/>
<polygon fill="midnightblue" stroke="midnightblue" points="112.248,-386.411 102.058,-389.312 111.833,-393.399 112.248,-386.411"/>
</g>
<!-- Node5 -->
<g id="node5" class="node"><title>Node5</title>
<g id="a_node5"><a xlink:href="class_voxel.html" target="_top" xlink:title="Voxel">
<polygon fill="white" stroke="red" points="51.5,-338.5 51.5,-357.5 92.5,-357.5 92.5,-338.5 51.5,-338.5"/>
<text text-anchor="middle" x="72" y="-345.5" font-family="Helvetica,sans-Serif" font-size="10.00">Voxel</text>
</a>
</g>
</g>
<!-- Node5&#45;&gt;Node2 -->
<g id="edge4" class="edge"><title>Node5&#45;&gt;Node2</title>
<path fill="none" stroke="#9a32cd" stroke-dasharray="5,2" d="M102.973,-348.703C140.332,-348.28 204.985,-343.178 252,-316 274.274,-303.124 291.427,-277.209 299.649,-262.956"/>
<polygon fill="#9a32cd" stroke="#9a32cd" points="102.748,-345.203 92.7502,-348.708 102.752,-352.203 102.748,-345.203"/>
<text text-anchor="middle" x="207" y="-347" font-family="Helvetica,sans-Serif" font-size="10.00"> m_crucialVoxel</text>
</g>
<!-- Node6 -->
<g id="node6" class="node"><title>Node6</title>
<polygon fill="white" stroke="#bfbfbf" points="0.5,-300.5 0.5,-319.5 143.5,-319.5 143.5,-300.5 0.5,-300.5"/>
<text text-anchor="middle" x="72" y="-307.5" font-family="Helvetica,sans-Serif" font-size="10.00">std::unique_ptr&lt; ObjectInfo &gt;</text>
</g>
<!-- Node6&#45;&gt;Node2 -->
<g id="edge5" class="edge"><title>Node6&#45;&gt;Node2</title>
<path fill="none" stroke="#9a32cd" stroke-dasharray="5,2" d="M153.862,-301.775C185.045,-297.23 220.678,-290.331 252,-280 265.141,-275.665 279.046,-268.471 289.315,-262.598"/>
<polygon fill="#9a32cd" stroke="#9a32cd" points="153.323,-298.316 143.905,-303.17 154.294,-305.249 153.323,-298.316"/>
<text text-anchor="middle" x="207" y="-304" font-family="Helvetica,sans-Serif" font-size="10.00"> m_objectInfo</text>
</g>
<!-- Node7 -->
<g id="node7" class="node"><title>Node7</title>
<g id="a_node7"><a xlink:href="class_handle.html" target="_top" xlink:title="Handle\&lt; WorldObject \&gt;">
<polygon fill="white" stroke="black" points="12.5,-262.5 12.5,-281.5 131.5,-281.5 131.5,-262.5 12.5,-262.5"/>
<text text-anchor="middle" x="72" y="-269.5" font-family="Helvetica,sans-Serif" font-size="10.00">Handle&lt; WorldObject &gt;</text>
</a>
</g>
</g>
<!-- Node7&#45;&gt;Node2 -->
<g id="edge6" class="edge"><title>Node7&#45;&gt;Node2</title>
<path fill="none" stroke="#9a32cd" stroke-dasharray="5,2" d="M141.513,-266.389C183.846,-262.922 236.377,-258.62 270.283,-255.843"/>
<polygon fill="#9a32cd" stroke="#9a32cd" points="141.224,-262.901 131.543,-267.205 141.796,-269.877 141.224,-262.901"/>
<text text-anchor="middle" x="207" y="-268" font-family="Helvetica,sans-Serif" font-size="10.00"> m_handle</text>
</g>
<!-- Node8 -->
<g id="node8" class="node"><title>Node8</title>
<polygon fill="white" stroke="#bfbfbf" points="5,-224.5 5,-243.5 139,-243.5 139,-224.5 5,-224.5"/>
<text text-anchor="middle" x="72" y="-231.5" font-family="Helvetica,sans-Serif" font-size="10.00">std::unique_ptr&lt; Physics &gt;</text>
</g>
<!-- Node8&#45;&gt;Node2 -->
<g id="edge7" class="edge"><title>Node8&#45;&gt;Node2</title>
<path fill="none" stroke="#9a32cd" stroke-dasharray="5,2" d="M149.202,-235.542C181.055,-236.78 218.404,-239.005 252,-243 257.951,-243.708 264.239,-244.686 270.323,-245.757"/>
<polygon fill="#9a32cd" stroke="#9a32cd" points="149.185,-232.039 139.065,-235.174 148.931,-239.035 149.185,-232.039"/>
<text text-anchor="middle" x="207" y="-246" font-family="Helvetica,sans-Serif" font-size="10.00"> m_physics</text>
</g>
<!-- Node9 -->
<g id="node9" class="node"><title>Node9</title>
<polygon fill="white" stroke="#bfbfbf" points="8.5,-175 8.5,-205 135.5,-205 135.5,-175 8.5,-175"/>
<text text-anchor="start" x="16.5" y="-193" font-family="Helvetica,sans-Serif" font-size="10.00">std::unique_ptr&lt; Collision</text>
<text text-anchor="middle" x="72" y="-182" font-family="Helvetica,sans-Serif" font-size="10.00">Filter &gt;</text>
</g>
<!-- Node9&#45;&gt;Node2 -->
<g id="edge8" class="edge"><title>Node9&#45;&gt;Node2</title>
<path fill="none" stroke="#9a32cd" stroke-dasharray="5,2" d="M145.792,-197.105C178.913,-201.824 218.176,-209.535 252,-222 266.403,-227.308 281.372,-236.453 291.713,-243.439"/>
<polygon fill="#9a32cd" stroke="#9a32cd" points="146.104,-193.615 135.723,-195.734 145.16,-200.551 146.104,-193.615"/>
<text text-anchor="middle" x="207" y="-225" font-family="Helvetica,sans-Serif" font-size="10.00"> m_collisionFilter</text>
</g>
<!-- Node10 -->
<g id="node10" class="node"><title>Node10</title>
<polygon fill="white" stroke="#bfbfbf" points="8.5,-126 8.5,-156 135.5,-156 135.5,-126 8.5,-126"/>
<text text-anchor="start" x="16.5" y="-144" font-family="Helvetica,sans-Serif" font-size="10.00">std::unique_ptr&lt; Collision</text>
<text text-anchor="middle" x="72" y="-133" font-family="Helvetica,sans-Serif" font-size="10.00">Detector &gt;</text>
</g>
<!-- Node10&#45;&gt;Node2 -->
<g id="edge9" class="edge"><title>Node10&#45;&gt;Node2</title>
<path fill="none" stroke="#9a32cd" stroke-dasharray="5,2" d="M145.803,-148.327C180.14,-154.419 220.406,-165.574 252,-186 274.668,-200.655 291.893,-228.336 299.957,-243.115"/>
<polygon fill="#9a32cd" stroke="#9a32cd" points="146.26,-144.855 135.822,-146.667 145.112,-151.76 146.26,-144.855"/>
<text text-anchor="middle" x="207" y="-189" font-family="Helvetica,sans-Serif" font-size="10.00"> m_collisionDetector</text>
</g>
<!-- Node11 -->
<g id="node11" class="node"><title>Node11</title>
<polygon fill="white" stroke="#bfbfbf" points="0,-77 0,-107 144,-107 144,-77 0,-77"/>
<text text-anchor="start" x="8" y="-95" font-family="Helvetica,sans-Serif" font-size="10.00">std::unique_ptr&lt; WorldObject</text>
<text text-anchor="middle" x="72" y="-84" font-family="Helvetica,sans-Serif" font-size="10.00">Components &gt;</text>
</g>
<!-- Node11&#45;&gt;Node2 -->
<g id="edge10" class="edge"><title>Node11&#45;&gt;Node2</title>
<path fill="none" stroke="#9a32cd" stroke-dasharray="5,2" d="M154.312,-97.1214C187.676,-102.851 224.773,-114.333 252,-137 286.203,-165.474 299.369,-220.746 303.448,-243.181"/>
<polygon fill="#9a32cd" stroke="#9a32cd" points="154.514,-93.6104 144.093,-95.5218 153.432,-100.526 154.514,-93.6104"/>
<text text-anchor="middle" x="207" y="-140" font-family="Helvetica,sans-Serif" font-size="10.00"> m_components</text>
</g>
<!-- Node12 -->
<g id="node12" class="node"><title>Node12</title>
<g id="a_node12"><a xlink:href="class_hardpoint.html" target="_top" xlink:title="Hardpoint">
<polygon fill="white" stroke="black" points="277,-38.5 277,-57.5 335,-57.5 335,-38.5 277,-38.5"/>
<text text-anchor="middle" x="306" y="-45.5" font-family="Helvetica,sans-Serif" font-size="10.00">Hardpoint</text>
</a>
</g>
</g>
<!-- Node12&#45;&gt;Node1 -->
<g id="edge11" class="edge"><title>Node12&#45;&gt;Node1</title>
<path fill="none" stroke="#9a32cd" stroke-dasharray="5,2" d="M330.657,-63.1555C370.714,-88.8166 450.772,-140.104 484.004,-161.393"/>
<polygon fill="#9a32cd" stroke="#9a32cd" points="332.374,-60.0988 322.066,-57.6516 328.598,-65.993 332.374,-60.0988"/>
<text text-anchor="middle" x="395" y="-128" font-family="Helvetica,sans-Serif" font-size="10.00"> m_hardpoint</text>
</g>
<!-- Node13 -->
<g id="node13" class="node"><title>Node13</title>
<g id="a_node13"><a xlink:href="class_world_object_slot.html" target="_top" xlink:title="WorldObjectSlot">
<polygon fill="white" stroke="red" points="28,-38.5 28,-57.5 116,-57.5 116,-38.5 28,-38.5"/>
<text text-anchor="middle" x="72" y="-45.5" font-family="Helvetica,sans-Serif" font-size="10.00">WorldObjectSlot</text>
</a>
</g>
</g>
<!-- Node13&#45;&gt;Node12 -->
<g id="edge12" class="edge"><title>Node13&#45;&gt;Node12</title>
<path fill="none" stroke="midnightblue" d="M126.365,-48C173.199,-48 239.49,-48 276.743,-48"/>
<polygon fill="midnightblue" stroke="midnightblue" points="126.094,-44.5001 116.094,-48 126.094,-51.5001 126.094,-44.5001"/>
</g>
<!-- Node14 -->
<g id="node14" class="node"><title>Node14</title>
<g id="a_node14"><a xlink:href="class_hardpoint_voxel.html" target="_top" xlink:title="HardpointVoxel">
<polygon fill="white" stroke="red" points="30.5,-0.5 30.5,-19.5 113.5,-19.5 113.5,-0.5 30.5,-0.5"/>
<text text-anchor="middle" x="72" y="-7.5" font-family="Helvetica,sans-Serif" font-size="10.00">HardpointVoxel</text>
</a>
</g>
</g>
<!-- Node14&#45;&gt;Node12 -->
<g id="edge13" class="edge"><title>Node14&#45;&gt;Node12</title>
<path fill="none" stroke="#9a32cd" stroke-dasharray="5,2" d="M124.057,-14.5311C160.048,-18.2183 209.255,-24.255 252,-33 260.151,-34.6675 268.883,-36.9341 276.86,-39.1999"/>
<polygon fill="#9a32cd" stroke="#9a32cd" points="124.103,-11.0183 113.805,-13.5075 123.407,-17.9837 124.103,-11.0183"/>
<text text-anchor="middle" x="207" y="-36" font-family="Helvetica,sans-Serif" font-size="10.00"> m_voxel</text>
</g>
</g>
</svg>
