<?xml version="1.0" encoding="UTF-8" standalone="no"?>
<!DOCTYPE svg PUBLIC "-//W3C//DTD SVG 1.1//EN"
 "http://www.w3.org/Graphics/SVG/1.1/DTD/svg11.dtd">
<!-- Generated by graphviz version 2.36.0 (20140111.2315)
 -->
<!-- Title: Rocket Pages: 1 -->
<svg width="315pt" height="368pt"
 viewBox="0.00 0.00 315.00 368.00" xmlns="http://www.w3.org/2000/svg" xmlns:xlink="http://www.w3.org/1999/xlink">
<g id="graph0" class="graph" transform="scale(1 1) rotate(0) translate(4 364)">
<title>Rocket</title>
<polygon fill="white" stroke="none" points="-4,4 -4,-364 311,-364 311,4 -4,4"/>
<!-- Node1 -->
<g id="node1" class="node"><title>Node1</title>
<polygon fill="#bfbfbf" stroke="black" points="95.5,-0.5 95.5,-19.5 142.5,-19.5 142.5,-0.5 95.5,-0.5"/>
<text text-anchor="middle" x="119" y="-7.5" font-family="Helvetica,sans-Serif" font-size="10.00">Rocket</text>
</g>
<!-- Node2 -->
<g id="node2" class="node"><title>Node2</title>
<g id="a_node2"><a xlink:href="class_projectile.html" target="_top" xlink:title="Projectile">
<polygon fill="white" stroke="black" points="245.5,-204.5 245.5,-223.5 302.5,-223.5 302.5,-204.5 245.5,-204.5"/>
<text text-anchor="middle" x="274" y="-211.5" font-family="Helvetica,sans-Serif" font-size="10.00">Projectile</text>
</a>
</g>
</g>
<!-- Node2&#45;&gt;Node1 -->
<g id="edge1" class="edge"><title>Node2&#45;&gt;Node1</title>
<path fill="none" stroke="midnightblue" d="M276.19,-194.176C278.631,-164.749 279.362,-107.168 254,-68 229.525,-30.2017 174.358,-17.4229 142.641,-13.1356"/>
<polygon fill="midnightblue" stroke="midnightblue" points="272.69,-194.001 275.184,-204.298 279.656,-194.693 272.69,-194.001"/>
</g>
<!-- Node3 -->
<g id="node3" class="node"><title>Node3</title>
<g id="a_node3"><a xlink:href="class_world_object.html" target="_top" xlink:title="WorldObject">
<polygon fill="white" stroke="red" points="164.5,-272.5 164.5,-291.5 235.5,-291.5 235.5,-272.5 164.5,-272.5"/>
<text text-anchor="middle" x="200" y="-279.5" font-family="Helvetica,sans-Serif" font-size="10.00">WorldObject</text>
</a>
</g>
</g>
<!-- Node3&#45;&gt;Node2 -->
<g id="edge2" class="edge"><title>Node3&#45;&gt;Node2</title>
<path fill="none" stroke="midnightblue" d="M217.477,-265.412C232.014,-252.447 252.186,-234.456 264.087,-223.841"/>
<polygon fill="midnightblue" stroke="midnightblue" points="214.808,-263.103 209.674,-272.372 219.467,-268.328 214.808,-263.103"/>
</g>
<!-- Node3&#45;&gt;Node2 -->
<g id="edge4" class="edge"><title>Node3&#45;&gt;Node2</title>
<path fill="none" stroke="#9a32cd" stroke-dasharray="5,2" d="M231.568,-267.774C238.463,-263.975 245.372,-259.376 251,-254 260.095,-245.313 266.806,-232.251 270.56,-223.675"/>
<polygon fill="#9a32cd" stroke="#9a32cd" points="229.646,-264.824 222.298,-272.457 232.802,-271.072 229.646,-264.824"/>
<text text-anchor="middle" x="283.5" y="-245.5" font-family="Helvetica,sans-Serif" font-size="10.00"> m_creator</text>
</g>
<!-- Node5 -->
<g id="node5" class="node"><title>Node5</title>
<g id="a_node5"><a xlink:href="class_board_computer.html" target="_top" xlink:title="BoardComputer">
<polygon fill="white" stroke="black" points="79,-204.5 79,-223.5 163,-223.5 163,-204.5 79,-204.5"/>
<text text-anchor="middle" x="121" y="-211.5" font-family="Helvetica,sans-Serif" font-size="10.00">BoardComputer</text>
</a>
</g>
</g>
<!-- Node3&#45;&gt;Node5 -->
<g id="edge7" class="edge"><title>Node3&#45;&gt;Node5</title>
<path fill="none" stroke="#9a32cd" stroke-dasharray="5,2" d="M176.043,-267.004C169.953,-263.073 163.563,-258.605 158,-254 146.641,-244.596 135.209,-231.944 128.121,-223.636"/>
<polygon fill="#9a32cd" stroke="#9a32cd" points="174.279,-270.029 184.62,-272.335 177.974,-264.083 174.279,-270.029"/>
<text text-anchor="middle" x="192" y="-245.5" font-family="Helvetica,sans-Serif" font-size="10.00"> m_worldObject</text>
</g>
<!-- Node4 -->
<g id="node4" class="node"><title>Node4</title>
<g id="a_node4"><a xlink:href="class_handle.html" target="_top" xlink:title="Handle\&lt; WorldObject \&gt;">
<polygon fill="white" stroke="black" points="-0.5,-340.5 -0.5,-359.5 118.5,-359.5 118.5,-340.5 -0.5,-340.5"/>
<text text-anchor="middle" x="59" y="-347.5" font-family="Helvetica,sans-Serif" font-size="10.00">Handle&lt; WorldObject &gt;</text>
</a>
</g>
</g>
<!-- Node4&#45;&gt;Node1 -->
<g id="edge5" class="edge"><title>Node4&#45;&gt;Node1</title>
<path fill="none" stroke="#9a32cd" stroke-dasharray="5,2" d="M35.2209,-334.631C19.2085,-322.961 1,-304.88 1,-283 1,-283 1,-283 1,-77 1,-34.1621 60.9691,-18.8596 95.4045,-13.6038"/>
<polygon fill="#9a32cd" stroke="#9a32cd" points="33.5238,-337.71 43.7612,-340.439 37.46,-331.921 33.5238,-337.71"/>
<text text-anchor="middle" x="37" y="-177.5" font-family="Helvetica,sans-Serif" font-size="10.00"> m_targetHandle</text>
</g>
<!-- Node4&#45;&gt;Node3 -->
<g id="edge3" class="edge"><title>Node4&#45;&gt;Node3</title>
<path fill="none" stroke="#9a32cd" stroke-dasharray="5,2" d="M86.6988,-336.035C114.763,-322.898 157.387,-302.946 181.562,-291.63"/>
<polygon fill="#9a32cd" stroke="#9a32cd" points="85.0064,-332.962 77.4333,-340.372 87.974,-339.302 85.0064,-332.962"/>
<text text-anchor="middle" x="166" y="-313.5" font-family="Helvetica,sans-Serif" font-size="10.00"> m_handle</text>
</g>
<!-- Node5&#45;&gt;Node1 -->
<g id="edge6" class="edge"><title>Node5&#45;&gt;Node1</title>
<path fill="none" stroke="#9a32cd" stroke-dasharray="5,2" d="M112.085,-195.349C103.196,-176.683 90.1467,-146.105 85,-118 78.1186,-80.4212 101.705,-37.6635 113.138,-19.6851"/>
<polygon fill="#9a32cd" stroke="#9a32cd" points="108.977,-196.961 116.519,-204.402 115.264,-193.882 108.977,-196.961"/>
<text text-anchor="middle" x="126.5" y="-109.5" font-family="Helvetica,sans-Serif" font-size="10.00"> m_boardComputer</text>
</g>
<!-- Node8 -->
<g id="node8" class="node"><title>Node8</title>
<g id="a_node8"><a xlink:href="class_ai_task.html" target="_top" xlink:title="AiTask">
<polygon fill="white" stroke="red" points="139.5,-136.5 139.5,-155.5 186.5,-155.5 186.5,-136.5 139.5,-136.5"/>
<text text-anchor="middle" x="163" y="-143.5" font-family="Helvetica,sans-Serif" font-size="10.00">AiTask</text>
</a>
</g>
</g>
<!-- Node5&#45;&gt;Node8 -->
<g id="edge11" class="edge"><title>Node5&#45;&gt;Node8</title>
<path fill="none" stroke="#9a32cd" stroke-dasharray="5,2" d="M132.096,-195.563C140.23,-182.781 150.935,-165.96 157.374,-155.841"/>
<polygon fill="#9a32cd" stroke="#9a32cd" points="128.907,-194.056 126.491,-204.372 134.812,-197.814 128.907,-194.056"/>
<text text-anchor="middle" x="187.5" y="-177.5" font-family="Helvetica,sans-Serif" font-size="10.00"> m_boardComputer</text>
</g>
<!-- Node6 -->
<g id="node6" class="node"><title>Node6</title>
<g id="a_node6"><a xlink:href="class_abstract_move.html" target="_top" xlink:title="AbstractMove">
<polygon fill="white" stroke="black" points="29,-272.5 29,-291.5 105,-291.5 105,-272.5 29,-272.5"/>
<text text-anchor="middle" x="67" y="-279.5" font-family="Helvetica,sans-Serif" font-size="10.00">AbstractMove</text>
</a>
</g>
</g>
<!-- Node6&#45;&gt;Node5 -->
<g id="edge8" class="edge"><title>Node6&#45;&gt;Node5</title>
<path fill="none" stroke="#9a32cd" stroke-dasharray="5,2" d="M63.6442,-261.829C63.4217,-255.109 64.3431,-247.799 68,-242 73.3431,-233.527 82.2463,-227.599 91.2447,-223.503"/>
<polygon fill="#9a32cd" stroke="#9a32cd" points="60.2165,-262.666 64.8179,-272.209 67.1722,-261.88 60.2165,-262.666"/>
<text text-anchor="middle" x="102.5" y="-245.5" font-family="Helvetica,sans-Serif" font-size="10.00"> m_engineState</text>
</g>
<!-- Node7 -->
<g id="node7" class="node"><title>Node7</title>
<polygon fill="white" stroke="#bfbfbf" points="116.5,-68.5 116.5,-87.5 245.5,-87.5 245.5,-68.5 116.5,-68.5"/>
<text text-anchor="middle" x="181" y="-75.5" font-family="Helvetica,sans-Serif" font-size="10.00">std::unique_ptr&lt; AiTask &gt;</text>
</g>
<!-- Node7&#45;&gt;Node1 -->
<g id="edge9" class="edge"><title>Node7&#45;&gt;Node1</title>
<path fill="none" stroke="#9a32cd" stroke-dasharray="5,2" d="M166.014,-61.0474C153.862,-48.1111 137.184,-30.3567 127.305,-19.8411"/>
<polygon fill="#9a32cd" stroke="#9a32cd" points="163.497,-63.4795 172.895,-68.3717 168.599,-58.6868 163.497,-63.4795"/>
<text text-anchor="middle" x="179" y="-41.5" font-family="Helvetica,sans-Serif" font-size="10.00"> m_aiTask</text>
</g>
<!-- Node8&#45;&gt;Node7 -->
<g id="edge10" class="edge"><title>Node8&#45;&gt;Node7</title>
<path fill="none" stroke="#9a32cd" stroke-dasharray="5,2" d="M169.43,-126.481C170.337,-123.653 171.224,-120.759 172,-118 174.898,-107.699 177.567,-95.6781 179.233,-87.7343"/>
<polygon fill="#9a32cd" stroke="#9a32cd" points="166.077,-125.472 166.215,-136.066 172.714,-127.698 166.077,-125.472"/>
<text text-anchor="middle" x="182.5" y="-109.5" font-family="Helvetica,sans-Serif" font-size="10.00"> ptr</text>
</g>
</g>
</svg>
