<?xml version="1.0" encoding="UTF-8" standalone="no"?>
<!DOCTYPE svg PUBLIC "-//W3C//DTD SVG 1.1//EN"
 "http://www.w3.org/Graphics/SVG/1.1/DTD/svg11.dtd">
<!-- Generated by graphviz version 2.36.0 (20140111.2315)
 -->
<!-- Title: StereoRenderInfo Pages: 1 -->
<svg width="215pt" height="164pt"
 viewBox="0.00 0.00 215.00 164.00" xmlns="http://www.w3.org/2000/svg" xmlns:xlink="http://www.w3.org/1999/xlink">
<g id="graph0" class="graph" transform="scale(1 1) rotate(0) translate(4 160)">
<title>StereoRenderInfo</title>
<polygon fill="white" stroke="none" points="-4,4 -4,-160 211,-160 211,4 -4,4"/>
<!-- Node1 -->
<g id="node1" class="node"><title>Node1</title>
<polygon fill="#bfbfbf" stroke="black" points="66.5,-0.5 66.5,-19.5 157.5,-19.5 157.5,-0.5 66.5,-0.5"/>
<text text-anchor="middle" x="112" y="-7.5" font-family="Helvetica,sans-Serif" font-size="10.00">StereoRenderInfo</text>
</g>
<!-- Node2 -->
<g id="node2" class="node"><title>Node2</title>
<g id="a_node2"><a xlink:href="class_property.html" target="_top" xlink:title="Property\&lt; float \&gt;">
<polygon fill="white" stroke="black" points="-0.5,-68.5 -0.5,-87.5 88.5,-87.5 88.5,-68.5 -0.5,-68.5"/>
<text text-anchor="middle" x="44" y="-75.5" font-family="Helvetica,sans-Serif" font-size="10.00">Property&lt; float &gt;</text>
</a>
</g>
</g>
<!-- Node2&#45;&gt;Node1 -->
<g id="edge1" class="edge"><title>Node2&#45;&gt;Node1</title>
<path fill="none" stroke="#9a32cd" stroke-dasharray="5,2" d="M50.1305,-58.7783C53.1768,-51.6839 57.4207,-43.8672 63,-38 70.4964,-30.1168 80.8124,-23.9634 90.0459,-19.5352"/>
<polygon fill="#9a32cd" stroke="#9a32cd" points="46.7764,-57.7528 46.5084,-68.3442 53.3228,-60.2316 46.7764,-57.7528"/>
<text text-anchor="middle" x="95" y="-41.5" font-family="Helvetica,sans-Serif" font-size="10.00"> m_eyeZOffset</text>
</g>
<!-- Node3 -->
<g id="node3" class="node"><title>Node3</title>
<g id="a_node3"><a xlink:title="STL class. ">
<polygon fill="white" stroke="#bfbfbf" points="14,-136.5 14,-155.5 74,-155.5 74,-136.5 14,-136.5"/>
<text text-anchor="middle" x="44" y="-143.5" font-family="Helvetica,sans-Serif" font-size="10.00">std::string</text>
</a>
</g>
</g>
<!-- Node3&#45;&gt;Node2 -->
<g id="edge2" class="edge"><title>Node3&#45;&gt;Node2</title>
<path fill="none" stroke="#9a32cd" stroke-dasharray="5,2" d="M44,-126.041C44,-113.472 44,-97.5631 44,-87.8411"/>
<polygon fill="#9a32cd" stroke="#9a32cd" points="40.5001,-126.372 44,-136.372 47.5001,-126.372 40.5001,-126.372"/>
<text text-anchor="middle" x="64.5" y="-109.5" font-family="Helvetica,sans-Serif" font-size="10.00"> m_name</text>
</g>
<!-- Node4 -->
<g id="node4" class="node"><title>Node4</title>
<polygon fill="white" stroke="#bfbfbf" points="107,-68.5 107,-87.5 205,-87.5 205,-68.5 107,-68.5"/>
<text text-anchor="middle" x="156" y="-75.5" font-family="Helvetica,sans-Serif" font-size="10.00">std::vector&lt; float &gt;</text>
</g>
<!-- Node4&#45;&gt;Node1 -->
<g id="edge3" class="edge"><title>Node4&#45;&gt;Node1</title>
<path fill="none" stroke="#9a32cd" stroke-dasharray="5,2" d="M144.625,-59.9377C136.075,-47.112 124.706,-30.0591 117.894,-19.8411"/>
<polygon fill="#9a32cd" stroke="#9a32cd" points="141.789,-61.9926 150.248,-68.3717 147.613,-58.1097 141.789,-61.9926"/>
<text text-anchor="middle" x="172.5" y="-41.5" font-family="Helvetica,sans-Serif" font-size="10.00"> m_distortionKs</text>
</g>
</g>
</svg>
