<?xml version="1.0" encoding="UTF-8" standalone="no"?>
<!DOCTYPE svg PUBLIC "-//W3C//DTD SVG 1.1//EN"
 "http://www.w3.org/Graphics/SVG/1.1/DTD/svg11.dtd">
<!-- Generated by graphviz version 2.36.0 (20140111.2315)
 -->
<!-- Title: WorldObject Pages: 1 -->
<svg width="1138pt" height="332pt"
 viewBox="0.00 0.00 1138.00 332.00" xmlns="http://www.w3.org/2000/svg" xmlns:xlink="http://www.w3.org/1999/xlink">
<g id="graph0" class="graph" transform="scale(1 1) rotate(0) translate(4 328)">
<title>WorldObject</title>
<polygon fill="white" stroke="none" points="-4,4 -4,-328 1134,-328 1134,4 -4,4"/>
<!-- Node1 -->
<g id="node1" class="node"><title>Node1</title>
<polygon fill="#bfbfbf" stroke="black" points="632.5,-152.5 632.5,-171.5 703.5,-171.5 703.5,-152.5 632.5,-152.5"/>
<text text-anchor="middle" x="668" y="-159.5" font-family="Helvetica,sans-Serif" font-size="10.00">WorldObject</text>
</g>
<!-- Node13 -->
<g id="node13" class="node"><title>Node13</title>
<g id="a_node13"><a xlink:href="class_physics.html" target="_top" xlink:title="Physics">
<polygon fill="white" stroke="red" points="845,-302.5 845,-321.5 897,-321.5 897,-302.5 845,-302.5"/>
<text text-anchor="middle" x="871" y="-309.5" font-family="Helvetica,sans-Serif" font-size="10.00">Physics</text>
</a>
</g>
</g>
<!-- Node1&#45;&gt;Node13 -->
<g id="edge14" class="edge"><title>Node1&#45;&gt;Node13</title>
<path fill="none" stroke="#9a32cd" stroke-dasharray="5,2" d="M671.491,-181.885C676.128,-209.985 688.836,-260.803 722,-287 757.478,-315.024 812.847,-316.546 844.849,-314.616"/>
<polygon fill="#9a32cd" stroke="#9a32cd" points="674.91,-181.077 670.001,-171.688 667.984,-182.089 674.91,-181.077"/>
<text text-anchor="middle" x="756" y="-316" font-family="Helvetica,sans-Serif" font-size="10.00"> m_worldObject</text>
</g>
<!-- Node15 -->
<g id="node15" class="node"><title>Node15</title>
<g id="a_node15"><a xlink:href="class_collision_filter.html" target="_top" xlink:title="CollisionFilter">
<polygon fill="white" stroke="black" points="833.5,-170.5 833.5,-189.5 908.5,-189.5 908.5,-170.5 833.5,-170.5"/>
<text text-anchor="middle" x="871" y="-177.5" font-family="Helvetica,sans-Serif" font-size="10.00">CollisionFilter</text>
</a>
</g>
</g>
<!-- Node1&#45;&gt;Node15 -->
<g id="edge17" class="edge"><title>Node1&#45;&gt;Node15</title>
<path fill="none" stroke="#9a32cd" stroke-dasharray="5,2" d="M713.759,-166.008C749.693,-169.226 799.533,-173.689 833.179,-176.703"/>
<polygon fill="#9a32cd" stroke="#9a32cd" points="713.825,-162.5 703.553,-165.094 713.201,-169.472 713.825,-162.5"/>
<text text-anchor="middle" x="756" y="-176" font-family="Helvetica,sans-Serif" font-size="10.00"> m_owner</text>
</g>
<!-- Node17 -->
<g id="node17" class="node"><title>Node17</title>
<g id="a_node17"><a xlink:href="class_collision_detector.html" target="_top" xlink:title="CollisionDetector">
<polygon fill="white" stroke="red" points="826,-132.5 826,-151.5 916,-151.5 916,-132.5 826,-132.5"/>
<text text-anchor="middle" x="871" y="-139.5" font-family="Helvetica,sans-Serif" font-size="10.00">CollisionDetector</text>
</a>
</g>
</g>
<!-- Node1&#45;&gt;Node17 -->
<g id="edge20" class="edge"><title>Node1&#45;&gt;Node17</title>
<path fill="none" stroke="#9a32cd" stroke-dasharray="5,2" d="M713.76,-153.167C716.543,-152.738 719.306,-152.344 722,-152 756.742,-147.565 796.34,-145.02 825.83,-143.608"/>
<polygon fill="#9a32cd" stroke="#9a32cd" points="712.977,-149.749 703.687,-154.843 714.126,-156.654 712.977,-149.749"/>
<text text-anchor="middle" x="756" y="-155" font-family="Helvetica,sans-Serif" font-size="10.00"> m_worldObject</text>
</g>
<!-- Node19 -->
<g id="node19" class="node"><title>Node19</title>
<g id="a_node19"><a xlink:href="class_world_object_components.html" target="_top" xlink:title="WorldObjectComponents">
<polygon fill="white" stroke="red" points="808.5,-0.5 808.5,-19.5 933.5,-19.5 933.5,-0.5 808.5,-0.5"/>
<text text-anchor="middle" x="871" y="-7.5" font-family="Helvetica,sans-Serif" font-size="10.00">WorldObjectComponents</text>
</a>
</g>
</g>
<!-- Node1&#45;&gt;Node19 -->
<g id="edge23" class="edge"><title>Node1&#45;&gt;Node19</title>
<path fill="none" stroke="#9a32cd" stroke-dasharray="5,2" d="M670.976,-141.889C675.012,-112.5 687.023,-58.3506 722,-31 746.123,-12.1363 779.453,-6.20082 808.376,-5.28323"/>
<polygon fill="#9a32cd" stroke="#9a32cd" points="667.46,-141.82 669.755,-152.163 674.411,-142.646 667.46,-141.82"/>
<text text-anchor="middle" x="756" y="-34" font-family="Helvetica,sans-Serif" font-size="10.00"> m_worldObject</text>
</g>
<!-- Node2 -->
<g id="node2" class="node"><title>Node2</title>
<g id="a_node2"><a xlink:href="class_voxel_cluster.html" target="_top" xlink:title="VoxelCluster">
<polygon fill="white" stroke="black" points="430,-190.5 430,-209.5 502,-209.5 502,-190.5 430,-190.5"/>
<text text-anchor="middle" x="466" y="-197.5" font-family="Helvetica,sans-Serif" font-size="10.00">VoxelCluster</text>
</a>
</g>
</g>
<!-- Node2&#45;&gt;Node1 -->
<g id="edge1" class="edge"><title>Node2&#45;&gt;Node1</title>
<path fill="none" stroke="midnightblue" d="M512.129,-193.783C541.32,-189.479 580.065,-183.234 614,-176 620.143,-174.69 626.642,-173.125 632.904,-171.524"/>
<polygon fill="midnightblue" stroke="midnightblue" points="511.618,-190.32 502.225,-195.223 512.625,-197.247 511.618,-190.32"/>
</g>
<!-- Node3 -->
<g id="node3" class="node"><title>Node3</title>
<polygon fill="white" stroke="#bfbfbf" points="122,-207 122,-237 268,-237 268,-207 122,-207"/>
<text text-anchor="start" x="130" y="-225" font-family="Helvetica,sans-Serif" font-size="10.00">std::unique_ptr&lt; VoxelRender</text>
<text text-anchor="middle" x="195" y="-214" font-family="Helvetica,sans-Serif" font-size="10.00">Data &gt;</text>
</g>
<!-- Node3&#45;&gt;Node2 -->
<g id="edge2" class="edge"><title>Node3&#45;&gt;Node2</title>
<path fill="none" stroke="#9a32cd" stroke-dasharray="5,2" d="M278.07,-215.288C328.828,-211.137 391.396,-206.02 429.729,-202.885"/>
<polygon fill="#9a32cd" stroke="#9a32cd" points="277.768,-211.801 268.087,-216.104 278.339,-218.778 277.768,-211.801"/>
<text text-anchor="middle" x="331" y="-218" font-family="Helvetica,sans-Serif" font-size="10.00"> m_voxelRenderData</text>
</g>
<!-- Node4 -->
<g id="node4" class="node"><title>Node4</title>
<g id="a_node4"><a xlink:href="class_transform.html" target="_top" xlink:title="Transform">
<polygon fill="white" stroke="black" points="165.5,-168.5 165.5,-187.5 224.5,-187.5 224.5,-168.5 165.5,-168.5"/>
<text text-anchor="middle" x="195" y="-175.5" font-family="Helvetica,sans-Serif" font-size="10.00">Transform</text>
</a>
</g>
</g>
<!-- Node4&#45;&gt;Node2 -->
<g id="edge3" class="edge"><title>Node4&#45;&gt;Node2</title>
<path fill="none" stroke="#9a32cd" stroke-dasharray="5,2" d="M234.725,-181.167C286.923,-185.436 379.112,-192.976 429.564,-197.102"/>
<polygon fill="#9a32cd" stroke="#9a32cd" points="234.785,-177.66 224.533,-180.334 234.214,-184.637 234.785,-177.66"/>
<text text-anchor="middle" x="331" y="-196" font-family="Helvetica,sans-Serif" font-size="10.00"> m_transform</text>
</g>
<!-- Node5 -->
<g id="node5" class="node"><title>Node5</title>
<polygon fill="white" stroke="#bfbfbf" points="137,-256 137,-286 253,-286 253,-256 137,-256"/>
<text text-anchor="start" x="145" y="-274" font-family="Helvetica,sans-Serif" font-size="10.00">std::unordered_map</text>
<text text-anchor="middle" x="195" y="-263" font-family="Helvetica,sans-Serif" font-size="10.00">&lt; glm::ivec3, Voxel * &gt;</text>
</g>
<!-- Node5&#45;&gt;Node2 -->
<g id="edge4" class="edge"><title>Node5&#45;&gt;Node2</title>
<path fill="none" stroke="#9a32cd" stroke-dasharray="5,2" d="M262.963,-257.434C297.017,-250.11 338.936,-240.439 376,-230 397.345,-223.988 421.129,-215.897 438.737,-209.633"/>
<polygon fill="#9a32cd" stroke="#9a32cd" points="262.17,-254.025 253.12,-259.533 263.63,-260.871 262.17,-254.025"/>
<text text-anchor="middle" x="331" y="-255" font-family="Helvetica,sans-Serif" font-size="10.00"> m_voxels</text>
</g>
<!-- Node6 -->
<g id="node6" class="node"><title>Node6</title>
<g id="a_node6"><a xlink:href="class_voxel.html" target="_top" xlink:title="Voxel">
<polygon fill="white" stroke="red" points="0.5,-287.5 0.5,-306.5 41.5,-306.5 41.5,-287.5 0.5,-287.5"/>
<text text-anchor="middle" x="21" y="-294.5" font-family="Helvetica,sans-Serif" font-size="10.00">Voxel</text>
</a>
</g>
</g>
<!-- Node6&#45;&gt;Node1 -->
<g id="edge8" class="edge"><title>Node6&#45;&gt;Node1</title>
<path fill="none" stroke="#9a32cd" stroke-dasharray="5,2" d="M51.686,-300.427C54.4933,-300.66 57.2984,-300.858 60,-301 79.5287,-302.025 84.4477,-301.358 104,-301 176.925,-299.666 195.829,-305.548 268,-295 391.353,-276.972 418.577,-254.763 538,-219 571.807,-208.876 581.953,-210.78 614,-196 628.494,-189.316 643.694,-179.197 654.081,-171.735"/>
<polygon fill="#9a32cd" stroke="#9a32cd" points="51.9799,-296.939 41.6917,-299.47 51.3123,-303.907 51.9799,-296.939"/>
<text text-anchor="middle" x="331" y="-296" font-family="Helvetica,sans-Serif" font-size="10.00"> m_crucialVoxel</text>
</g>
<!-- Node6&#45;&gt;Node5 -->
<g id="edge5" class="edge"><title>Node6&#45;&gt;Node5</title>
<path fill="none" stroke="#9a32cd" stroke-dasharray="5,2" d="M51.6892,-291.409C54.4957,-290.917 57.2999,-290.44 60,-290 85.162,-285.9 113.066,-281.863 136.867,-278.571"/>
<polygon fill="#9a32cd" stroke="#9a32cd" points="50.9156,-287.992 41.6958,-293.212 52.1584,-294.881 50.9156,-287.992"/>
<text text-anchor="middle" x="82" y="-293" font-family="Helvetica,sans-Serif" font-size="10.00"> elements</text>
</g>
<!-- Node7 -->
<g id="node7" class="node"><title>Node7</title>
<polygon fill="white" stroke="#bfbfbf" points="122,-119 122,-149 268,-149 268,-119 122,-119"/>
<text text-anchor="start" x="130" y="-137" font-family="Helvetica,sans-Serif" font-size="10.00">std::unique_ptr&lt; VoxelCluster</text>
<text text-anchor="middle" x="195" y="-126" font-family="Helvetica,sans-Serif" font-size="10.00">Bounds &gt;</text>
</g>
<!-- Node7&#45;&gt;Node2 -->
<g id="edge6" class="edge"><title>Node7&#45;&gt;Node2</title>
<path fill="none" stroke="#9a32cd" stroke-dasharray="5,2" d="M278.319,-145.486C309.505,-151.238 344.957,-159.495 376,-171 384.581,-174.18 385.516,-177.569 394,-181 405.356,-185.592 418.18,-189.412 429.773,-192.393"/>
<polygon fill="#9a32cd" stroke="#9a32cd" points="278.815,-142.019 268.355,-143.705 277.583,-148.91 278.815,-142.019"/>
<text text-anchor="middle" x="331" y="-174" font-family="Helvetica,sans-Serif" font-size="10.00"> m_bounds</text>
</g>
<!-- Node8 -->
<g id="node8" class="node"><title>Node8</title>
<g id="a_node8"><a xlink:href="class_scriptable.html" target="_top" xlink:title="Scriptable">
<polygon fill="white" stroke="black" points="436,-152.5 436,-171.5 496,-171.5 496,-152.5 436,-152.5"/>
<text text-anchor="middle" x="466" y="-159.5" font-family="Helvetica,sans-Serif" font-size="10.00">Scriptable</text>
</a>
</g>
</g>
<!-- Node8&#45;&gt;Node1 -->
<g id="edge7" class="edge"><title>Node8&#45;&gt;Node1</title>
<path fill="none" stroke="midnightblue" d="M506.385,-162C543.015,-162 597.071,-162 632.164,-162"/>
<polygon fill="midnightblue" stroke="midnightblue" points="506.082,-158.5 496.082,-162 506.082,-165.5 506.082,-158.5"/>
</g>
<!-- Node9 -->
<g id="node9" class="node"><title>Node9</title>
<polygon fill="white" stroke="#bfbfbf" points="394.5,-114.5 394.5,-133.5 537.5,-133.5 537.5,-114.5 394.5,-114.5"/>
<text text-anchor="middle" x="466" y="-121.5" font-family="Helvetica,sans-Serif" font-size="10.00">std::unique_ptr&lt; ObjectInfo &gt;</text>
</g>
<!-- Node9&#45;&gt;Node1 -->
<g id="edge9" class="edge"><title>Node9&#45;&gt;Node1</title>
<path fill="none" stroke="#9a32cd" stroke-dasharray="5,2" d="M547.739,-134.84C569.359,-138.23 592.652,-142.327 614,-147 621.1,-148.554 628.655,-150.508 635.77,-152.486"/>
<polygon fill="#9a32cd" stroke="#9a32cd" points="548.023,-131.343 537.607,-133.283 546.959,-138.261 548.023,-131.343"/>
<text text-anchor="middle" x="585" y="-150" font-family="Helvetica,sans-Serif" font-size="10.00"> m_objectInfo</text>
</g>
<!-- Node10 -->
<g id="node10" class="node"><title>Node10</title>
<g id="a_node10"><a xlink:href="class_object_info.html" target="_top" xlink:title="ObjectInfo">
<polygon fill="white" stroke="red" points="165,-80.5 165,-99.5 225,-99.5 225,-80.5 165,-80.5"/>
<text text-anchor="middle" x="195" y="-87.5" font-family="Helvetica,sans-Serif" font-size="10.00">ObjectInfo</text>
</a>
</g>
</g>
<!-- Node10&#45;&gt;Node9 -->
<g id="edge10" class="edge"><title>Node10&#45;&gt;Node9</title>
<path fill="none" stroke="#9a32cd" stroke-dasharray="5,2" d="M235.435,-90.2406C272.062,-90.976 328.013,-93.4052 376,-101 381.438,-101.861 406.876,-108.477 429.17,-114.394"/>
<polygon fill="#9a32cd" stroke="#9a32cd" points="235.237,-86.7369 225.179,-90.069 235.119,-93.7359 235.237,-86.7369"/>
<text text-anchor="middle" x="331" y="-104" font-family="Helvetica,sans-Serif" font-size="10.00"> ptr</text>
</g>
<!-- Node11 -->
<g id="node11" class="node"><title>Node11</title>
<g id="a_node11"><a xlink:href="class_handle.html" target="_top" xlink:title="Handle\&lt; WorldObject \&gt;">
<polygon fill="white" stroke="black" points="406.5,-76.5 406.5,-95.5 525.5,-95.5 525.5,-76.5 406.5,-76.5"/>
<text text-anchor="middle" x="466" y="-83.5" font-family="Helvetica,sans-Serif" font-size="10.00">Handle&lt; WorldObject &gt;</text>
</a>
</g>
</g>
<!-- Node11&#45;&gt;Node1 -->
<g id="edge11" class="edge"><title>Node11&#45;&gt;Node1</title>
<path fill="none" stroke="#9a32cd" stroke-dasharray="5,2" d="M535.675,-96.7909C561.066,-102.32 589.589,-110.408 614,-122 630.453,-129.813 646.786,-143.219 656.879,-152.337"/>
<polygon fill="#9a32cd" stroke="#9a32cd" points="536.25,-93.3356 525.747,-94.7222 534.822,-100.188 536.25,-93.3356"/>
<text text-anchor="middle" x="585" y="-125" font-family="Helvetica,sans-Serif" font-size="10.00"> m_handle</text>
</g>
<!-- Node12 -->
<g id="node12" class="node"><title>Node12</title>
<polygon fill="white" stroke="#bfbfbf" points="991,-281.5 991,-300.5 1125,-300.5 1125,-281.5 991,-281.5"/>
<text text-anchor="middle" x="1058" y="-288.5" font-family="Helvetica,sans-Serif" font-size="10.00">std::unique_ptr&lt; Physics &gt;</text>
</g>
<!-- Node12&#45;&gt;Node1 -->
<g id="edge12" class="edge"><title>Node12&#45;&gt;Node1</title>
<path fill="none" stroke="#9a32cd" stroke-dasharray="5,2" d="M980.707,-283.953C910.139,-274.92 804.079,-254.812 722,-211 703.428,-201.086 686.406,-183.082 676.899,-171.875"/>
<polygon fill="#9a32cd" stroke="#9a32cd" points="980.501,-287.454 990.854,-285.207 981.359,-280.507 980.501,-287.454"/>
<text text-anchor="middle" x="871" y="-280" font-family="Helvetica,sans-Serif" font-size="10.00"> m_physics</text>
</g>
<!-- Node13&#45;&gt;Node12 -->
<g id="edge13" class="edge"><title>Node13&#45;&gt;Node12</title>
<path fill="none" stroke="#9a32cd" stroke-dasharray="5,2" d="M907.526,-307.967C931.024,-305.3 962.558,-301.72 990.605,-298.537"/>
<polygon fill="#9a32cd" stroke="#9a32cd" points="906.877,-304.518 897.336,-309.124 907.667,-311.474 906.877,-304.518"/>
<text text-anchor="middle" x="960" y="-306" font-family="Helvetica,sans-Serif" font-size="10.00"> ptr</text>
</g>
<!-- Node14 -->
<g id="node14" class="node"><title>Node14</title>
<polygon fill="white" stroke="#bfbfbf" points="994.5,-193 994.5,-223 1121.5,-223 1121.5,-193 994.5,-193"/>
<text text-anchor="start" x="1002.5" y="-211" font-family="Helvetica,sans-Serif" font-size="10.00">std::unique_ptr&lt; Collision</text>
<text text-anchor="middle" x="1058" y="-200" font-family="Helvetica,sans-Serif" font-size="10.00">Filter &gt;</text>
</g>
<!-- Node14&#45;&gt;Node1 -->
<g id="edge15" class="edge"><title>Node14&#45;&gt;Node1</title>
<path fill="none" stroke="#9a32cd" stroke-dasharray="5,2" d="M983.912,-208.887C978.527,-208.932 973.179,-208.971 968,-209 858.271,-209.616 827.097,-219.551 722,-188 709.043,-184.11 695.357,-177.319 685.138,-171.653"/>
<polygon fill="#9a32cd" stroke="#9a32cd" points="984.309,-212.384 994.276,-208.793 984.245,-205.384 984.309,-212.384"/>
<text text-anchor="middle" x="871" y="-214" font-family="Helvetica,sans-Serif" font-size="10.00"> m_collisionFilter</text>
</g>
<!-- Node15&#45;&gt;Node14 -->
<g id="edge16" class="edge"><title>Node15&#45;&gt;Node14</title>
<path fill="none" stroke="#9a32cd" stroke-dasharray="5,2" d="M918.696,-187.067C941.61,-190.536 969.541,-194.763 994.287,-198.508"/>
<polygon fill="#9a32cd" stroke="#9a32cd" points="918.961,-183.568 908.55,-185.532 917.914,-190.489 918.961,-183.568"/>
<text text-anchor="middle" x="960" y="-197" font-family="Helvetica,sans-Serif" font-size="10.00"> ptr</text>
</g>
<!-- Node16 -->
<g id="node16" class="node"><title>Node16</title>
<polygon fill="white" stroke="#bfbfbf" points="994.5,-97 994.5,-127 1121.5,-127 1121.5,-97 994.5,-97"/>
<text text-anchor="start" x="1002.5" y="-115" font-family="Helvetica,sans-Serif" font-size="10.00">std::unique_ptr&lt; Collision</text>
<text text-anchor="middle" x="1058" y="-104" font-family="Helvetica,sans-Serif" font-size="10.00">Detector &gt;</text>
</g>
<!-- Node16&#45;&gt;Node1 -->
<g id="edge18" class="edge"><title>Node16&#45;&gt;Node1</title>
<path fill="none" stroke="#9a32cd" stroke-dasharray="5,2" d="M984.289,-105.634C934.343,-102.811 866.716,-102.053 808,-112 763.75,-119.496 715.044,-140.109 688.651,-152.402"/>
<polygon fill="#9a32cd" stroke="#9a32cd" points="984.157,-109.132 994.351,-106.244 984.581,-102.145 984.157,-109.132"/>
<text text-anchor="middle" x="871" y="-115" font-family="Helvetica,sans-Serif" font-size="10.00"> m_collisionDetector</text>
</g>
<!-- Node17&#45;&gt;Node16 -->
<g id="edge19" class="edge"><title>Node17&#45;&gt;Node16</title>
<path fill="none" stroke="#9a32cd" stroke-dasharray="5,2" d="M926.454,-133.17C947.695,-129.725 972.177,-125.755 994.16,-122.19"/>
<polygon fill="#9a32cd" stroke="#9a32cd" points="925.623,-129.759 916.312,-134.814 926.743,-136.668 925.623,-129.759"/>
<text text-anchor="middle" x="960" y="-132" font-family="Helvetica,sans-Serif" font-size="10.00"> ptr</text>
</g>
<!-- Node18 -->
<g id="node18" class="node"><title>Node18</title>
<polygon fill="white" stroke="#bfbfbf" points="986,-31 986,-61 1130,-61 1130,-31 986,-31"/>
<text text-anchor="start" x="994" y="-49" font-family="Helvetica,sans-Serif" font-size="10.00">std::unique_ptr&lt; WorldObject</text>
<text text-anchor="middle" x="1058" y="-38" font-family="Helvetica,sans-Serif" font-size="10.00">Components &gt;</text>
</g>
<!-- Node18&#45;&gt;Node1 -->
<g id="edge21" class="edge"><title>Node18&#45;&gt;Node1</title>
<path fill="none" stroke="#9a32cd" stroke-dasharray="5,2" d="M975.731,-48.3787C904.739,-53.573 800.976,-68.9095 722,-113 703.618,-123.262 686.537,-141.158 676.966,-152.248"/>
<polygon fill="#9a32cd" stroke="#9a32cd" points="976.221,-51.8536 985.961,-47.6838 975.746,-44.8697 976.221,-51.8536"/>
<text text-anchor="middle" x="871" y="-80" font-family="Helvetica,sans-Serif" font-size="10.00"> m_components</text>
</g>
<!-- Node19&#45;&gt;Node18 -->
<g id="edge22" class="edge"><title>Node19&#45;&gt;Node18</title>
<path fill="none" stroke="#9a32cd" stroke-dasharray="5,2" d="M931.093,-21.4991C948.475,-24.8816 967.675,-28.6178 985.734,-32.1319"/>
<polygon fill="#9a32cd" stroke="#9a32cd" points="931.575,-18.0275 921.091,-19.5528 930.238,-24.8986 931.575,-18.0275"/>
<text text-anchor="middle" x="960" y="-31" font-family="Helvetica,sans-Serif" font-size="10.00"> ptr</text>
</g>
</g>
</svg>
