<?xml version="1.0" encoding="UTF-8" standalone="no"?>
<!DOCTYPE svg PUBLIC "-//W3C//DTD SVG 1.1//EN"
 "http://www.w3.org/Graphics/SVG/1.1/DTD/svg11.dtd">
<!-- Generated by graphviz version 2.36.0 (20140111.2315)
 -->
<!-- Title: GamePlayRunning Pages: 1 -->
<!--zoomable 284 -->
<svg id="main" version="1.1" xmlns="http://www.w3.org/2000/svg" xmlns:xlink="http://www.w3.org/1999/xlink" xml:space="preserve" onload="init(evt)">
<style type="text/css"><![CDATA[
.edge:hover path { stroke: red; }
.edge:hover polygon { stroke: red; fill: red; }
]]></style>
<script type="text/javascript"><![CDATA[
var edges = document.getElementsByTagName('g');
if (edges && edges.length) {
  for (var i=0;i<edges.length;i++) {
    if (edges[i].id.substr(0,4)=='edge') {
      edges[i].setAttribute('class','edge');
    }
  }
}
]]></script>
        <defs>
                <circle id="rim" cx="0" cy="0" r="7"/>
                <circle id="rim2" cx="0" cy="0" r="3.5"/>
                <g id="zoomPlus">
                        <use xlink:href="#rim" fill="#404040">
                                <set attributeName="fill" to="#808080" begin="zoomplus.mouseover" end="zoomplus.mouseout"/>
                        </use>
                        <path d="M-4,0h8M0,-4v8" fill="none" stroke="white" stroke-width="1.5" pointer-events="none"/>
                </g>
                <g id="zoomMin">
                        <use xlink:href="#rim" fill="#404040">
                                <set attributeName="fill" to="#808080" begin="zoomminus.mouseover" end="zoomminus.mouseout"/>
                        </use>
                        <path d="M-4,0h8" fill="none" stroke="white" stroke-width="1.5" pointer-events="none"/>
                </g>
                <g id="dirArrow">
                        <path fill="none" stroke="white" stroke-width="1.5" d="M0,-3.0v7 M-2.5,-0.5L0,-3.0L2.5,-0.5"/>
                </g>
               <g id="resetDef">
                       <use xlink:href="#rim2" fill="#404040">
                               <set attributeName="fill" to="#808080" begin="reset.mouseover" end="reset.mouseout"/>
                       </use>
               </g>
        </defs>

<script type="text/javascript">
var viewWidth = 972;
var viewHeight = 284;
var sectionId = 'dynsection-1';
</script>
<script xlink:href="svgpan.js"/>
<svg id="graph" class="graph">
<g id="viewport">
<title>GamePlayRunning</title>
<polygon fill="white" stroke="none" points="-4,4 -4,-279.796 968,-279.796 968,4 -4,4"/>
<!-- Node1 -->
<g id="node1" class="node"><title>Node1</title>
<polygon fill="#bfbfbf" stroke="black" points="449,-38.8582 449,-57.8582 547,-57.8582 547,-38.8582 449,-38.8582"/>
<text text-anchor="middle" x="498" y="-45.8582" font-family="Helvetica,sans-Serif" font-size="10.00">GamePlayRunning</text>
</g>
<!-- Node4 -->
<g id="node4" class="node"><title>Node4</title>
<g id="a_node4"><a xlink:href="class_game_play.html" target="_top" xlink:title="GamePlay">
<polygon fill="white" stroke="black" points="698,-104.858 698,-123.858 760,-123.858 760,-104.858 698,-104.858"/>
<text text-anchor="middle" x="729" y="-111.858" font-family="Helvetica,sans-Serif" font-size="10.00">GamePlay</text>
</a>
</g>
</g>
<!-- Node1&#45;&gt;Node4 -->
<g id="edge13" class="edge"><title>Node1&#45;&gt;Node4</title>
<path fill="none" stroke="#9a32cd" stroke-dasharray="5,2" d="M557.265,-56.3478C593.383,-62.408 640.299,-72.3099 680,-87.3582 691.801,-91.8314 704.194,-98.8701 713.431,-104.639"/>
<polygon fill="#9a32cd" stroke="#9a32cd" points="557.812,-52.8908 547.38,-54.7393 556.688,-59.8 557.812,-52.8908"/>
<text text-anchor="middle" x="638" y="-90.3582" font-family="Helvetica,sans-Serif" font-size="10.00"> m_runningState</text>
</g>
<!-- Node2 -->
<g id="node2" class="node"><title>Node2</title>
<g id="a_node2"><a xlink:href="class_game_state.html" target="_top" xlink:title="GameState">
<polygon fill="white" stroke="black" points="207,-164.858 207,-183.858 273,-183.858 273,-164.858 207,-164.858"/>
<text text-anchor="middle" x="240" y="-171.858" font-family="Helvetica,sans-Serif" font-size="10.00">GameState</text>
</a>
</g>
</g>
<!-- Node2&#45;&gt;Node1 -->
<g id="edge1" class="edge"><title>Node2&#45;&gt;Node1</title>
<path fill="none" stroke="midnightblue" d="M264.935,-159.336C281.875,-148.797 305.19,-134.481 326,-122.358 358.489,-103.432 368.622,-102.073 400,-81.3582 408.458,-75.7744 408.868,-71.7531 418,-67.3582 427.533,-62.7703 438.261,-59.2399 448.666,-56.541"/>
<polygon fill="midnightblue" stroke="midnightblue" points="262.867,-156.501 256.236,-164.764 266.573,-162.44 262.867,-156.501"/>
</g>
<!-- Node2&#45;&gt;Node2 -->
<g id="edge4" class="edge"><title>Node2&#45;&gt;Node2</title>
<path fill="none" stroke="#9a32cd" stroke-dasharray="5,2" d="M222.593,-193.758C223.756,-198.673 229.558,-202.358 240,-202.358 256.707,-202.358 261.536,-192.923 254.488,-184.115"/>
<polygon fill="#9a32cd" stroke="#9a32cd" points="225.965,-194.7 225.512,-184.115 219.265,-192.673 225.965,-194.7"/>
<text text-anchor="middle" x="240" y="-205.358" font-family="Helvetica,sans-Serif" font-size="10.00"> m_parentGameState</text>
</g>
<!-- Node2&#45;&gt;Node4 -->
<g id="edge6" class="edge"><title>Node2&#45;&gt;Node4</title>
<path fill="none" stroke="midnightblue" d="M282.966,-170.055C361.197,-161.884 534.568,-143.079 680,-122.358 685.771,-121.536 691.918,-120.576 697.819,-119.612"/>
<polygon fill="midnightblue" stroke="midnightblue" points="282.599,-166.574 273.015,-171.09 283.324,-173.536 282.599,-166.574"/>
</g>
<!-- Node5 -->
<g id="node5" class="node"><title>Node5</title>
<g id="a_node5"><a xlink:href="class_game.html" target="_top" xlink:title="Game">
<polygon fill="white" stroke="red" points="894.5,-172.858 894.5,-191.858 937.5,-191.858 937.5,-172.858 894.5,-172.858"/>
<text text-anchor="middle" x="916" y="-179.858" font-family="Helvetica,sans-Serif" font-size="10.00">Game</text>
</a>
</g>
</g>
<!-- Node2&#45;&gt;Node5 -->
<g id="edge8" class="edge"><title>Node2&#45;&gt;Node5</title>
<path fill="none" stroke="midnightblue" d="M260.296,-190.482C276.631,-203.012 301.272,-219.394 326,-226.358 550.169,-289.489 627.344,-294.633 850,-226.358 871.888,-219.647 893.041,-202.795 904.997,-192.002"/>
<polygon fill="midnightblue" stroke="midnightblue" points="262.138,-187.475 252.128,-184.001 257.787,-192.958 262.138,-187.475"/>
</g>
<!-- Node8 -->
<g id="node8" class="node"><title>Node8</title>
<g id="a_node8"><a xlink:href="class_game_play_paused.html" target="_top" xlink:title="GamePlayPaused">
<polygon fill="white" stroke="black" points="868.5,-87.8582 868.5,-106.858 963.5,-106.858 963.5,-87.8582 868.5,-87.8582"/>
<text text-anchor="middle" x="916" y="-94.8582" font-family="Helvetica,sans-Serif" font-size="10.00">GamePlayPaused</text>
</a>
</g>
</g>
<!-- Node2&#45;&gt;Node8 -->
<g id="edge15" class="edge"><title>Node2&#45;&gt;Node8</title>
<path fill="none" stroke="midnightblue" d="M283.416,-181.545C405.32,-201.32 754.056,-251.471 850,-195.358 864.086,-187.12 859.255,-177.135 868,-163.358 881.117,-142.694 898.116,-119.63 907.66,-106.974"/>
<polygon fill="midnightblue" stroke="midnightblue" points="283.781,-178.058 273.347,-179.897 282.65,-184.966 283.781,-178.058"/>
</g>
<!-- Node3 -->
<g id="node3" class="node"><title>Node3</title>
<g id="a_node3"><a xlink:href="class_state.html" target="_top" xlink:title="State">
<polygon fill="white" stroke="red" points="40,-164.858 40,-183.858 80,-183.858 80,-164.858 40,-164.858"/>
<text text-anchor="middle" x="60" y="-171.858" font-family="Helvetica,sans-Serif" font-size="10.00">State</text>
</a>
</g>
</g>
<!-- Node3&#45;&gt;Node2 -->
<g id="edge2" class="edge"><title>Node3&#45;&gt;Node2</title>
<path fill="none" stroke="midnightblue" d="M90.1361,-174.358C122.229,-174.358 173.681,-174.358 206.907,-174.358"/>
<polygon fill="midnightblue" stroke="midnightblue" points="90.0492,-170.858 80.0491,-174.358 90.0491,-177.858 90.0492,-170.858"/>
</g>
<!-- Node3&#45;&gt;Node3 -->
<g id="edge3" class="edge"><title>Node3&#45;&gt;Node3</title>
<path fill="none" stroke="#9a32cd" stroke-dasharray="5,2" d="M44.0749,-193.758C45.1384,-198.673 50.4468,-202.358 60,-202.358 75.2852,-202.358 79.7035,-192.923 73.2551,-184.115"/>
<polygon fill="#9a32cd" stroke="#9a32cd" points="47.4494,-194.687 46.7449,-184.115 40.7032,-192.819 47.4494,-194.687"/>
<text text-anchor="middle" x="60" y="-238.358" font-family="Helvetica,sans-Serif" font-size="10.00"> m_currentSubState</text>
<text text-anchor="middle" x="60" y="-227.358" font-family="Helvetica,sans-Serif" font-size="10.00">m_initialSubState</text>
<text text-anchor="middle" x="60" y="-216.358" font-family="Helvetica,sans-Serif" font-size="10.00">m_finalSubState</text>
<text text-anchor="middle" x="60" y="-205.358" font-family="Helvetica,sans-Serif" font-size="10.00">m_parentState</text>
</g>
<!-- Node4&#45;&gt;Node1 -->
<g id="edge5" class="edge"><title>Node4&#45;&gt;Node1</title>
<path fill="none" stroke="#9a32cd" stroke-dasharray="5,2" d="M721.09,-95.2014C713.786,-78.1319 700.459,-54.2225 680,-43.3582 632.385,-18.0733 567.335,-28.9102 529.579,-38.819"/>
<polygon fill="#9a32cd" stroke="#9a32cd" points="717.939,-96.7529 724.868,-104.768 724.45,-94.1813 717.939,-96.7529"/>
<text text-anchor="middle" x="638" y="-46.3582" font-family="Helvetica,sans-Serif" font-size="10.00"> m_gamePlay</text>
</g>
<!-- Node4&#45;&gt;Node5 -->
<g id="edge9" class="edge"><title>Node4&#45;&gt;Node5</title>
<path fill="none" stroke="#9a32cd" stroke-dasharray="5,2" d="M743.424,-131.675C752.164,-141.69 764.437,-153.61 778,-160.358 815.959,-179.244 866.478,-182.56 894.346,-182.789"/>
<polygon fill="#9a32cd" stroke="#9a32cd" points="746.034,-129.339 736.962,-123.866 740.641,-133.802 746.034,-129.339"/>
<text text-anchor="middle" x="814" y="-183.358" font-family="Helvetica,sans-Serif" font-size="10.00"> m_gamePlay</text>
</g>
<!-- Node4&#45;&gt;Node8 -->
<g id="edge16" class="edge"><title>Node4&#45;&gt;Node8</title>
<path fill="none" stroke="#9a32cd" stroke-dasharray="5,2" d="M770.269,-110.658C799.106,-108.008 838.019,-104.432 868.233,-101.656"/>
<polygon fill="#9a32cd" stroke="#9a32cd" points="769.773,-107.189 760.135,-111.589 770.414,-114.159 769.773,-107.189"/>
<text text-anchor="middle" x="814" y="-113.358" font-family="Helvetica,sans-Serif" font-size="10.00"> m_gamePlay</text>
</g>
<!-- Node5&#45;&gt;Node4 -->
<g id="edge7" class="edge"><title>Node5&#45;&gt;Node4</title>
<path fill="none" stroke="#9a32cd" stroke-dasharray="5,2" d="M889.456,-168C877.678,-161.744 863.371,-154.649 850,-149.358 820.135,-137.541 784.694,-127.689 760.106,-121.48"/>
<polygon fill="#9a32cd" stroke="#9a32cd" points="887.833,-171.101 898.293,-172.786 891.166,-164.946 887.833,-171.101"/>
<text text-anchor="middle" x="814" y="-152.358" font-family="Helvetica,sans-Serif" font-size="10.00"> m_game</text>
</g>
<!-- Node5&#45;&gt;Node5 -->
<g id="edge10" class="edge"><title>Node5&#45;&gt;Node5</title>
<path fill="none" stroke="#9a32cd" stroke-dasharray="5,2" d="M897.112,-201.758C898.373,-206.673 904.669,-210.358 916,-210.358 934.129,-210.358 939.369,-200.923 931.721,-192.115"/>
<polygon fill="#9a32cd" stroke="#9a32cd" points="900.484,-202.708 900.279,-192.115 893.833,-200.524 900.484,-202.708"/>
<text text-anchor="middle" x="916" y="-213.358" font-family="Helvetica,sans-Serif" font-size="10.00"> s_instance</text>
</g>
<!-- Node6 -->
<g id="node6" class="node"><title>Node6</title>
<polygon fill="white" stroke="#bfbfbf" points="430,-77.3582 430,-107.358 566,-107.358 566,-77.3582 430,-77.3582"/>
<text text-anchor="start" x="438" y="-95.3582" font-family="Helvetica,sans-Serif" font-size="10.00">std::unique_ptr&lt; GamePlay</text>
<text text-anchor="middle" x="498" y="-84.3582" font-family="Helvetica,sans-Serif" font-size="10.00">Scene &gt;</text>
</g>
<!-- Node6&#45;&gt;Node4 -->
<g id="edge11" class="edge"><title>Node6&#45;&gt;Node4</title>
<path fill="none" stroke="#9a32cd" stroke-dasharray="5,2" d="M576.291,-99.7835C617.913,-103.782 666.894,-108.488 697.699,-111.447"/>
<polygon fill="#9a32cd" stroke="#9a32cd" points="576.449,-96.2827 566.16,-98.8102 575.78,-103.251 576.449,-96.2827"/>
<text text-anchor="middle" x="638" y="-113.358" font-family="Helvetica,sans-Serif" font-size="10.00"> m_scene</text>
</g>
<!-- Node7 -->
<g id="node7" class="node"><title>Node7</title>
<polygon fill="white" stroke="#bfbfbf" points="418,-164.858 418,-183.858 578,-183.858 578,-164.858 418,-164.858"/>
<text text-anchor="middle" x="498" y="-171.858" font-family="Helvetica,sans-Serif" font-size="10.00">std::unique_ptr&lt; BaseScenario &gt;</text>
</g>
<!-- Node7&#45;&gt;Node4 -->
<g id="edge12" class="edge"><title>Node7&#45;&gt;Node4</title>
<path fill="none" stroke="#9a32cd" stroke-dasharray="5,2" d="M588.348,-171.584C618.328,-168.304 651.393,-162.039 680,-150.358 694.851,-144.294 709.205,-132.498 718.285,-124.061"/>
<polygon fill="#9a32cd" stroke="#9a32cd" points="587.913,-168.11 578.31,-172.586 588.608,-175.076 587.913,-168.11"/>
<text text-anchor="middle" x="638" y="-174.358" font-family="Helvetica,sans-Serif" font-size="10.00"> m_scenario</text>
</g>
<!-- Node8&#45;&gt;Node4 -->
<g id="edge14" class="edge"><title>Node8&#45;&gt;Node4</title>
<path fill="none" stroke="#9a32cd" stroke-dasharray="5,2" d="M878.351,-85.0212C850.316,-77.496 810.995,-71.1102 778,-81.3582 763.32,-85.9175 749.151,-96.6964 740.061,-104.702"/>
<polygon fill="#9a32cd" stroke="#9a32cd" points="877.559,-88.4351 888.136,-87.8165 879.482,-81.7044 877.559,-88.4351"/>
<text text-anchor="middle" x="814" y="-84.3582" font-family="Helvetica,sans-Serif" font-size="10.00"> m_pausedState</text>
</g>
<!-- Node9 -->
<g id="node9" class="node"><title>Node9</title>
<g id="a_node9"><a xlink:href="class_key_trigger.html" target="_top" xlink:title="KeyTrigger">
<polygon fill="white" stroke="red" points="208.5,-9.85817 208.5,-28.8582 271.5,-28.8582 271.5,-9.85817 208.5,-9.85817"/>
<text text-anchor="middle" x="240" y="-16.8582" font-family="Helvetica,sans-Serif" font-size="10.00">KeyTrigger</text>
</a>
</g>
</g>
<!-- Node9&#45;&gt;Node1 -->
<g id="edge18" class="edge"><title>Node9&#45;&gt;Node1</title>
<path fill="none" stroke="#9a32cd" stroke-dasharray="5,2" d="M281.71,-23.9698C327.155,-29.1179 400.636,-37.442 448.887,-42.9078"/>
<polygon fill="#9a32cd" stroke="#9a32cd" points="281.956,-20.4754 271.625,-22.8274 281.168,-27.4309 281.956,-20.4754"/>
<text text-anchor="middle" x="363" y="-40.3582" font-family="Helvetica,sans-Serif" font-size="10.00"> m_pauseTrigger</text>
</g>
<!-- Node9&#45;&gt;Node8 -->
<g id="edge17" class="edge"><title>Node9&#45;&gt;Node8</title>
<path fill="none" stroke="#9a32cd" stroke-dasharray="5,2" d="M281.988,-13.9237C360.091,-4.64081 535.353,11.0289 680,-13.3582 763.311,-27.4042 856.054,-68.7901 895.521,-87.7155"/>
<polygon fill="#9a32cd" stroke="#9a32cd" points="281.129,-10.5024 271.626,-15.1864 281.976,-17.4511 281.129,-10.5024"/>
<text text-anchor="middle" x="638" y="-16.3582" font-family="Helvetica,sans-Serif" font-size="10.00"> m_continueTrigger</text>
</g>
<!-- Node10 -->
<g id="node10" class="node"><title>Node10</title>
<polygon fill="white" stroke="#bfbfbf" points="172,-60.3582 172,-90.3582 308,-90.3582 308,-60.3582 172,-60.3582"/>
<text text-anchor="start" x="180" y="-78.3582" font-family="Helvetica,sans-Serif" font-size="10.00">std::unique_ptr&lt; GamePlay</text>
<text text-anchor="middle" x="240" y="-67.3582" font-family="Helvetica,sans-Serif" font-size="10.00">RunningInput &gt;</text>
</g>
<!-- Node10&#45;&gt;Node1 -->
<g id="edge19" class="edge"><title>Node10&#45;&gt;Node1</title>
<path fill="none" stroke="#9a32cd" stroke-dasharray="5,2" d="M318.286,-67.207C360.729,-62.7305 412.047,-57.3181 448.783,-53.4436"/>
<polygon fill="#9a32cd" stroke="#9a32cd" points="317.839,-63.7346 308.261,-68.2642 318.573,-70.696 317.839,-63.7346"/>
<text text-anchor="middle" x="363" y="-69.3582" font-family="Helvetica,sans-Serif" font-size="10.00"> m_input</text>
</g>
<!-- Node11 -->
<g id="node11" class="node"><title>Node11</title>
<g id="a_node11"><a xlink:href="class_game_play_running_input.html" target="_top" xlink:title="GamePlayRunningInput">
<polygon fill="white" stroke="red" points="0.5,-65.8582 0.5,-84.8582 119.5,-84.8582 119.5,-65.8582 0.5,-65.8582"/>
<text text-anchor="middle" x="60" y="-72.8582" font-family="Helvetica,sans-Serif" font-size="10.00">GamePlayRunningInput</text>
</a>
</g>
</g>
<!-- Node11&#45;&gt;Node10 -->
<g id="edge20" class="edge"><title>Node11&#45;&gt;Node10</title>
<path fill="none" stroke="#9a32cd" stroke-dasharray="5,2" d="M130.135,-75.3582C143.881,-75.3582 158.293,-75.3582 171.966,-75.3582"/>
<polygon fill="#9a32cd" stroke="#9a32cd" points="129.777,-71.8583 119.777,-75.3582 129.777,-78.8583 129.777,-71.8583"/>
<text text-anchor="middle" x="146" y="-78.3582" font-family="Helvetica,sans-Serif" font-size="10.00"> ptr</text>
</g>
</g>
</svg>
        <g id="navigator" transform="translate(0 0)" fill="#404254">
                <rect fill="#f2f5e9" fill-opacity="0.5" stroke="#606060" stroke-width=".5" x="0" y="0" width="60" height="60"/>
                <use id="zoomplus" xlink:href="#zoomPlus" x="17" y="9" onmousedown="handleZoom(evt,'in')"/>
                <use id="zoomminus" xlink:href="#zoomMin" x="42" y="9" onmousedown="handleZoom(evt,'out')"/>
                <use id="reset" xlink:href="#resetDef" x="30" y="36" onmousedown="handleReset()"/>
                <g id="arrowUp" xlink:href="#dirArrow" transform="translate(30 24)" onmousedown="handlePan(0,-1)">
                  <use xlink:href="#rim" fill="#404040">
                        <set attributeName="fill" to="#808080" begin="arrowUp.mouseover" end="arrowUp.mouseout"/>
                  </use>
                  <path fill="none" stroke="white" stroke-width="1.5" d="M0,-3.0v7 M-2.5,-0.5L0,-3.0L2.5,-0.5"/>
                </g>
                <g id="arrowRight" xlink:href="#dirArrow" transform="rotate(90) translate(36 -43)" onmousedown="handlePan(1,0)">
                  <use xlink:href="#rim" fill="#404040">
                        <set attributeName="fill" to="#808080" begin="arrowRight.mouseover" end="arrowRight.mouseout"/>
                  </use>
                  <path fill="none" stroke="white" stroke-width="1.5" d="M0,-3.0v7 M-2.5,-0.5L0,-3.0L2.5,-0.5"/>
                </g>
                <g id="arrowDown" xlink:href="#dirArrow" transform="rotate(180) translate(-30 -48)" onmousedown="handlePan(0,1)">
                  <use xlink:href="#rim" fill="#404040">
                        <set attributeName="fill" to="#808080" begin="arrowDown.mouseover" end="arrowDown.mouseout"/>
                  </use>
                  <path fill="none" stroke="white" stroke-width="1.5" d="M0,-3.0v7 M-2.5,-0.5L0,-3.0L2.5,-0.5"/>
                </g>
                <g id="arrowLeft" xlink:href="#dirArrow" transform="rotate(270) translate(-36 17)" onmousedown="handlePan(-1,0)">
                  <use xlink:href="#rim" fill="#404040">
                        <set attributeName="fill" to="#808080" begin="arrowLeft.mouseover" end="arrowLeft.mouseout"/>
                  </use>
                  <path fill="none" stroke="white" stroke-width="1.5" d="M0,-3.0v7 M-2.5,-0.5L0,-3.0L2.5,-0.5"/>
                </g>
        </g>
        <svg viewBox="0 0 15 15" width="100%" height="30px" preserveAspectRatio="xMaxYMin meet">
         <g id="arrow_out" transform="scale(0.3 0.3)">
          <a xlink:href="class_game_play_running__coll__graph_org.svg" target="_base">
           <rect id="button" ry="5" rx="5" y="6" x="6" height="38" width="38"
                fill="#f2f5e9" fill-opacity="0.5" stroke="#606060" stroke-width="1.0"/>
           <path id="arrow"
             d="M 11.500037,31.436501 C 11.940474,20.09759 22.043105,11.32322 32.158766,21.979434 L 37.068811,17.246167 C 37.068811,17.246167 37.088388,32 37.088388,32 L 22.160133,31.978069 C 22.160133,31.978069 26.997745,27.140456 26.997745,27.140456 C 18.528582,18.264221 13.291696,25.230495 11.500037,31.436501 z"
             style="fill:#404040;"/>
          </a>
         </g>
        </svg>
</svg>
