<?xml version="1.0" encoding="UTF-8" standalone="no"?>
<!DOCTYPE svg PUBLIC "-//W3C//DTD SVG 1.1//EN"
 "http://www.w3.org/Graphics/SVG/1.1/DTD/svg11.dtd">
<!-- Generated by graphviz version 2.36.0 (20140111.2315)
 -->
<!-- Title: Metrics Pages: 1 -->
<svg width="132pt" height="232pt"
 viewBox="0.00 0.00 132.00 232.00" xmlns="http://www.w3.org/2000/svg" xmlns:xlink="http://www.w3.org/1999/xlink">
<g id="graph0" class="graph" transform="scale(1 1) rotate(0) translate(4 228)">
<title>Metrics</title>
<polygon fill="white" stroke="none" points="-4,4 -4,-228 128,-228 128,4 -4,4"/>
<!-- Node1 -->
<g id="node1" class="node"><title>Node1</title>
<polygon fill="#bfbfbf" stroke="black" points="37.5,-68.5 37.5,-87.5 86.5,-87.5 86.5,-68.5 37.5,-68.5"/>
<text text-anchor="middle" x="62" y="-75.5" font-family="Helvetica,sans-Serif" font-size="10.00">Metrics</text>
</g>
<!-- Node2 -->
<g id="node2" class="node"><title>Node2</title>
<polygon fill="white" stroke="#bfbfbf" points="-0.5,-0.5 -0.5,-19.5 124.5,-19.5 124.5,-0.5 -0.5,-0.5"/>
<text text-anchor="middle" x="62" y="-7.5" font-family="Helvetica,sans-Serif" font-size="10.00">std::weak_ptr&lt; Metrics &gt;</text>
</g>
<!-- Node1&#45;&gt;Node2 -->
<g id="edge2" class="edge"><title>Node1&#45;&gt;Node2</title>
<path fill="none" stroke="#9a32cd" stroke-dasharray="5,2" d="M47.8313,-60.1111C45.8449,-56.9267 44.1061,-53.4939 43,-50 39.5447,-39.0859 46.8908,-27.3832 53.4298,-19.6761"/>
<polygon fill="#9a32cd" stroke="#9a32cd" points="45.0538,-62.2427 53.7658,-68.272 50.7152,-58.1258 45.0538,-62.2427"/>
<text text-anchor="middle" x="50.5" y="-41.5" font-family="Helvetica,sans-Serif" font-size="10.00"> ptr</text>
</g>
<!-- Node2&#45;&gt;Node1 -->
<g id="edge1" class="edge"><title>Node2&#45;&gt;Node1</title>
<path fill="none" stroke="#9a32cd" stroke-dasharray="5,2" d="M62,-29.8504C62,-42.528 62,-58.6426 62,-68.3717"/>
<polygon fill="#9a32cd" stroke="#9a32cd" points="65.5001,-29.8411 62,-19.8411 58.5001,-29.8412 65.5001,-29.8411"/>
<text text-anchor="middle" x="87.5" y="-41.5" font-family="Helvetica,sans-Serif" font-size="10.00"> s_instance</text>
</g>
<!-- Node3 -->
<g id="node3" class="node"><title>Node3</title>
<g id="a_node3"><a xlink:href="class_property.html" target="_top" xlink:title="Property\&lt; float \&gt;">
<polygon fill="white" stroke="black" points="17.5,-136.5 17.5,-155.5 106.5,-155.5 106.5,-136.5 17.5,-136.5"/>
<text text-anchor="middle" x="62" y="-143.5" font-family="Helvetica,sans-Serif" font-size="10.00">Property&lt; float &gt;</text>
</a>
</g>
</g>
<!-- Node3&#45;&gt;Node1 -->
<g id="edge3" class="edge"><title>Node3&#45;&gt;Node1</title>
<path fill="none" stroke="#9a32cd" stroke-dasharray="5,2" d="M62,-126.041C62,-113.472 62,-97.5631 62,-87.8411"/>
<polygon fill="#9a32cd" stroke="#9a32cd" points="58.5001,-126.372 62,-136.372 65.5001,-126.372 58.5001,-126.372"/>
<text text-anchor="middle" x="91" y="-109.5" font-family="Helvetica,sans-Serif" font-size="10.00"> m_gameUnit</text>
</g>
<!-- Node4 -->
<g id="node4" class="node"><title>Node4</title>
<g id="a_node4"><a xlink:href="class_property_impl.html" target="_top" xlink:title="PropertyImpl\&lt; float \&gt;">
<polygon fill="white" stroke="red" points="8.5,-204.5 8.5,-223.5 115.5,-223.5 115.5,-204.5 8.5,-204.5"/>
<text text-anchor="middle" x="62" y="-211.5" font-family="Helvetica,sans-Serif" font-size="10.00">PropertyImpl&lt; float &gt;</text>
</a>
</g>
</g>
<!-- Node4&#45;&gt;Node3 -->
<g id="edge4" class="edge"><title>Node4&#45;&gt;Node3</title>
<path fill="none" stroke="#9a32cd" stroke-dasharray="5,2" d="M62,-194.041C62,-181.472 62,-165.563 62,-155.841"/>
<polygon fill="#9a32cd" stroke="#9a32cd" points="58.5001,-194.372 62,-204.372 65.5001,-194.372 58.5001,-194.372"/>
<text text-anchor="middle" x="79.5" y="-177.5" font-family="Helvetica,sans-Serif" font-size="10.00"> m_impl</text>
</g>
</g>
</svg>
