<?xml version="1.0" encoding="UTF-8" standalone="no"?>
<!DOCTYPE svg PUBLIC "-//W3C//DTD SVG 1.1//EN"
 "http://www.w3.org/Graphics/SVG/1.1/DTD/svg11.dtd">
<!-- Generated by graphviz version 2.36.0 (20140111.2315)
 -->
<!-- Title: Physics Pages: 1 -->
<svg width="634pt" height="407pt"
 viewBox="0.00 0.00 634.00 406.97" xmlns="http://www.w3.org/2000/svg" xmlns:xlink="http://www.w3.org/1999/xlink">
<g id="graph0" class="graph" transform="scale(1 1) rotate(0) translate(4 402.974)">
<title>Physics</title>
<polygon fill="white" stroke="none" points="-4,4 -4,-402.974 630,-402.974 630,4 -4,4"/>
<!-- Node1 -->
<g id="node1" class="node"><title>Node1</title>
<polygon fill="#bfbfbf" stroke="black" points="180,-18.4738 180,-37.4738 232,-37.4738 232,-18.4738 180,-18.4738"/>
<text text-anchor="middle" x="206" y="-25.4738" font-family="Helvetica,sans-Serif" font-size="10.00">Physics</text>
</g>
<!-- Node8 -->
<g id="node8" class="node"><title>Node8</title>
<polygon fill="white" stroke="#bfbfbf" points="289,-41.4738 289,-60.4738 423,-60.4738 423,-41.4738 289,-41.4738"/>
<text text-anchor="middle" x="356" y="-48.4738" font-family="Helvetica,sans-Serif" font-size="10.00">std::unique_ptr&lt; Physics &gt;</text>
</g>
<!-- Node1&#45;&gt;Node8 -->
<g id="edge8" class="edge"><title>Node1&#45;&gt;Node8</title>
<path fill="none" stroke="#9a32cd" stroke-dasharray="5,2" d="M242.216,-33.4465C257.612,-35.8391 276.13,-38.7169 293.669,-41.4426"/>
<polygon fill="#9a32cd" stroke="#9a32cd" points="242.525,-29.9526 232.106,-31.8754 241.45,-36.8696 242.525,-29.9526"/>
<text text-anchor="middle" x="258" y="-39.9738" font-family="Helvetica,sans-Serif" font-size="10.00"> ptr</text>
</g>
<!-- Node2 -->
<g id="node2" class="node"><title>Node2</title>
<g id="a_node2"><a xlink:href="class_world_object.html" target="_top" xlink:title="WorldObject">
<polygon fill="white" stroke="black" points="554.5,-205.474 554.5,-224.474 625.5,-224.474 625.5,-205.474 554.5,-205.474"/>
<text text-anchor="middle" x="590" y="-212.474" font-family="Helvetica,sans-Serif" font-size="10.00">WorldObject</text>
</a>
</g>
</g>
<!-- Node2&#45;&gt;Node1 -->
<g id="edge1" class="edge"><title>Node2&#45;&gt;Node1</title>
<path fill="none" stroke="#9a32cd" stroke-dasharray="5,2" d="M588.237,-195.328C585.844,-161.439 576.03,-91.8935 536,-52.9738 452.421,28.2865 293.824,-3.84686 232.29,-20.4441"/>
<polygon fill="#9a32cd" stroke="#9a32cd" points="584.745,-195.568 588.797,-205.358 591.734,-195.178 584.745,-195.568"/>
<text text-anchor="middle" x="356" y="-11.9738" font-family="Helvetica,sans-Serif" font-size="10.00"> m_worldObject</text>
</g>
<!-- Node3 -->
<g id="node3" class="node"><title>Node3</title>
<g id="a_node3"><a xlink:href="class_voxel_cluster.html" target="_top" xlink:title="VoxelCluster">
<polygon fill="white" stroke="red" points="320,-379.474 320,-398.474 392,-398.474 392,-379.474 320,-379.474"/>
<text text-anchor="middle" x="356" y="-386.474" font-family="Helvetica,sans-Serif" font-size="10.00">VoxelCluster</text>
</a>
</g>
</g>
<!-- Node3&#45;&gt;Node2 -->
<g id="edge2" class="edge"><title>Node3&#45;&gt;Node2</title>
<path fill="none" stroke="midnightblue" d="M402.387,-391.068C442.027,-390.469 498.879,-383.416 536,-351.974 576.088,-318.019 585.978,-250 588.312,-224.725"/>
<polygon fill="midnightblue" stroke="midnightblue" points="402.192,-387.568 392.199,-391.087 402.205,-394.568 402.192,-387.568"/>
</g>
<!-- Node4 -->
<g id="node4" class="node"><title>Node4</title>
<g id="a_node4"><a xlink:href="class_scriptable.html" target="_top" xlink:title="Scriptable">
<polygon fill="white" stroke="black" points="326,-341.474 326,-360.474 386,-360.474 386,-341.474 326,-341.474"/>
<text text-anchor="middle" x="356" y="-348.474" font-family="Helvetica,sans-Serif" font-size="10.00">Scriptable</text>
</a>
</g>
</g>
<!-- Node4&#45;&gt;Node2 -->
<g id="edge3" class="edge"><title>Node4&#45;&gt;Node2</title>
<path fill="none" stroke="midnightblue" d="M396.323,-354.986C435.467,-356.872 495.41,-353.816 536,-323.974 569.907,-299.046 583.183,-246.539 587.369,-224.761"/>
<polygon fill="midnightblue" stroke="midnightblue" points="396.308,-351.479 386.112,-354.36 395.879,-358.465 396.308,-351.479"/>
</g>
<!-- Node5 -->
<g id="node5" class="node"><title>Node5</title>
<g id="a_node5"><a xlink:href="class_voxel.html" target="_top" xlink:title="Voxel">
<polygon fill="white" stroke="red" points="335.5,-303.474 335.5,-322.474 376.5,-322.474 376.5,-303.474 335.5,-303.474"/>
<text text-anchor="middle" x="356" y="-310.474" font-family="Helvetica,sans-Serif" font-size="10.00">Voxel</text>
</a>
</g>
</g>
<!-- Node5&#45;&gt;Node2 -->
<g id="edge4" class="edge"><title>Node5&#45;&gt;Node2</title>
<path fill="none" stroke="#9a32cd" stroke-dasharray="5,2" d="M386.753,-313.594C424.146,-313.071 489.1,-307.739 536,-279.974 558.804,-266.474 575.971,-239.316 583.991,-224.743"/>
<polygon fill="#9a32cd" stroke="#9a32cd" points="386.518,-310.095 376.529,-313.626 386.54,-317.095 386.518,-310.095"/>
<text text-anchor="middle" x="491" y="-311.974" font-family="Helvetica,sans-Serif" font-size="10.00"> m_crucialVoxel</text>
</g>
<!-- Node6 -->
<g id="node6" class="node"><title>Node6</title>
<polygon fill="white" stroke="#bfbfbf" points="284.5,-265.474 284.5,-284.474 427.5,-284.474 427.5,-265.474 284.5,-265.474"/>
<text text-anchor="middle" x="356" y="-272.474" font-family="Helvetica,sans-Serif" font-size="10.00">std::unique_ptr&lt; ObjectInfo &gt;</text>
</g>
<!-- Node6&#45;&gt;Node2 -->
<g id="edge5" class="edge"><title>Node6&#45;&gt;Node2</title>
<path fill="none" stroke="#9a32cd" stroke-dasharray="5,2" d="M437.539,-265.984C468.828,-261.1 504.62,-253.774 536,-242.974 549.382,-238.368 563.504,-230.754 573.803,-224.627"/>
<polygon fill="#9a32cd" stroke="#9a32cd" points="436.919,-262.538 427.55,-267.485 437.959,-269.46 436.919,-262.538"/>
<text text-anchor="middle" x="491" y="-267.974" font-family="Helvetica,sans-Serif" font-size="10.00"> m_objectInfo</text>
</g>
<!-- Node7 -->
<g id="node7" class="node"><title>Node7</title>
<g id="a_node7"><a xlink:href="class_handle.html" target="_top" xlink:title="Handle\&lt; WorldObject \&gt;">
<polygon fill="white" stroke="black" points="296.5,-227.474 296.5,-246.474 415.5,-246.474 415.5,-227.474 296.5,-227.474"/>
<text text-anchor="middle" x="356" y="-234.474" font-family="Helvetica,sans-Serif" font-size="10.00">Handle&lt; WorldObject &gt;</text>
</a>
</g>
</g>
<!-- Node7&#45;&gt;Node2 -->
<g id="edge6" class="edge"><title>Node7&#45;&gt;Node2</title>
<path fill="none" stroke="#9a32cd" stroke-dasharray="5,2" d="M425.513,-230.477C467.846,-226.462 520.377,-221.481 554.283,-218.266"/>
<polygon fill="#9a32cd" stroke="#9a32cd" points="425.168,-226.994 415.543,-231.422 425.829,-233.962 425.168,-226.994"/>
<text text-anchor="middle" x="491" y="-230.974" font-family="Helvetica,sans-Serif" font-size="10.00"> m_handle</text>
</g>
<!-- Node8&#45;&gt;Node2 -->
<g id="edge7" class="edge"><title>Node8&#45;&gt;Node2</title>
<path fill="none" stroke="#9a32cd" stroke-dasharray="5,2" d="M433.508,-53.6196C468.13,-58.3846 507.567,-69.2322 536,-92.9738 571.984,-123.02 584.226,-182.128 587.753,-205.315"/>
<polygon fill="#9a32cd" stroke="#9a32cd" points="433.763,-50.1248 423.411,-52.3798 432.91,-57.0726 433.763,-50.1248"/>
<text text-anchor="middle" x="491" y="-95.9738" font-family="Helvetica,sans-Serif" font-size="10.00"> m_physics</text>
</g>
<!-- Node9 -->
<g id="node9" class="node"><title>Node9</title>
<polygon fill="white" stroke="#bfbfbf" points="292.5,-177.974 292.5,-207.974 419.5,-207.974 419.5,-177.974 292.5,-177.974"/>
<text text-anchor="start" x="300.5" y="-195.974" font-family="Helvetica,sans-Serif" font-size="10.00">std::unique_ptr&lt; Collision</text>
<text text-anchor="middle" x="356" y="-184.974" font-family="Helvetica,sans-Serif" font-size="10.00">Filter &gt;</text>
</g>
<!-- Node9&#45;&gt;Node2 -->
<g id="edge9" class="edge"><title>Node9&#45;&gt;Node2</title>
<path fill="none" stroke="#9a32cd" stroke-dasharray="5,2" d="M430.011,-196.69C462.527,-198.754 501.249,-201.771 536,-205.974 541.93,-206.691 548.207,-207.612 554.288,-208.59"/>
<polygon fill="#9a32cd" stroke="#9a32cd" points="429.882,-193.176 419.685,-196.054 429.451,-200.162 429.882,-193.176"/>
<text text-anchor="middle" x="491" y="-208.974" font-family="Helvetica,sans-Serif" font-size="10.00"> m_collisionFilter</text>
</g>
<!-- Node10 -->
<g id="node10" class="node"><title>Node10</title>
<polygon fill="white" stroke="#bfbfbf" points="292.5,-128.974 292.5,-158.974 419.5,-158.974 419.5,-128.974 292.5,-128.974"/>
<text text-anchor="start" x="300.5" y="-146.974" font-family="Helvetica,sans-Serif" font-size="10.00">std::unique_ptr&lt; Collision</text>
<text text-anchor="middle" x="356" y="-135.974" font-family="Helvetica,sans-Serif" font-size="10.00">Detector &gt;</text>
</g>
<!-- Node10&#45;&gt;Node2 -->
<g id="edge10" class="edge"><title>Node10&#45;&gt;Node2</title>
<path fill="none" stroke="#9a32cd" stroke-dasharray="5,2" d="M429.867,-154.252C463.003,-160.333 502.258,-169.541 536,-182.974 550.38,-188.698 565.352,-198.108 575.7,-205.245"/>
<polygon fill="#9a32cd" stroke="#9a32cd" points="430.251,-150.765 419.793,-152.464 429.028,-157.658 430.251,-150.765"/>
<text text-anchor="middle" x="491" y="-185.974" font-family="Helvetica,sans-Serif" font-size="10.00"> m_collisionDetector</text>
</g>
<!-- Node11 -->
<g id="node11" class="node"><title>Node11</title>
<polygon fill="white" stroke="#bfbfbf" points="284,-79.9738 284,-109.974 428,-109.974 428,-79.9738 284,-79.9738"/>
<text text-anchor="start" x="292" y="-97.9738" font-family="Helvetica,sans-Serif" font-size="10.00">std::unique_ptr&lt; WorldObject</text>
<text text-anchor="middle" x="356" y="-86.9738" font-family="Helvetica,sans-Serif" font-size="10.00">Components &gt;</text>
</g>
<!-- Node11&#45;&gt;Node2 -->
<g id="edge11" class="edge"><title>Node11&#45;&gt;Node2</title>
<path fill="none" stroke="#9a32cd" stroke-dasharray="5,2" d="M438.21,-105.457C470.698,-112.524 507.17,-124.319 536,-143.974 559.385,-159.917 576.534,-189.62 584.331,-205.068"/>
<polygon fill="#9a32cd" stroke="#9a32cd" points="438.768,-101.999 428.268,-103.412 437.358,-108.855 438.768,-101.999"/>
<text text-anchor="middle" x="491" y="-146.974" font-family="Helvetica,sans-Serif" font-size="10.00"> m_components</text>
</g>
<!-- Node12 -->
<g id="node12" class="node"><title>Node12</title>
<g id="a_node12"><a xlink:href="class_abstract_move.html" target="_top" xlink:title="AbstractMove">
<polygon fill="white" stroke="black" points="0,-18.4738 0,-37.4738 76,-37.4738 76,-18.4738 0,-18.4738"/>
<text text-anchor="middle" x="38" y="-25.4738" font-family="Helvetica,sans-Serif" font-size="10.00">AbstractMove</text>
</a>
</g>
</g>
<!-- Node12&#45;&gt;Node1 -->
<g id="edge12" class="edge"><title>Node12&#45;&gt;Node1</title>
<path fill="none" stroke="#9a32cd" stroke-dasharray="5,2" d="M86.6277,-27.9738C116.97,-27.9738 155.07,-27.9738 179.719,-27.9738"/>
<polygon fill="#9a32cd" stroke="#9a32cd" points="86.2537,-24.4739 76.2536,-27.9738 86.2536,-31.4739 86.2537,-24.4739"/>
<text text-anchor="middle" x="128" y="-41.9738" font-family="Helvetica,sans-Serif" font-size="10.00"> m_speed</text>
<text text-anchor="middle" x="128" y="-30.9738" font-family="Helvetica,sans-Serif" font-size="10.00">m_acceleration</text>
</g>
</g>
</svg>
