<?xml version="1.0" encoding="UTF-8" standalone="no"?>
<!DOCTYPE svg PUBLIC "-//W3C//DTD SVG 1.1//EN"
 "http://www.w3.org/Graphics/SVG/1.1/DTD/svg11.dtd">
<!-- Generated by graphviz version 2.36.0 (20140111.2315)
 -->
<!-- Title: GamePlay Pages: 1 -->
<!--zoomable 590 -->
<svg id="main" version="1.1" xmlns="http://www.w3.org/2000/svg" xmlns:xlink="http://www.w3.org/1999/xlink" xml:space="preserve" onload="init(evt)">
<style type="text/css"><![CDATA[
.edge:hover path { stroke: red; }
.edge:hover polygon { stroke: red; fill: red; }
]]></style>
<script type="text/javascript"><![CDATA[
var edges = document.getElementsByTagName('g');
if (edges && edges.length) {
  for (var i=0;i<edges.length;i++) {
    if (edges[i].id.substr(0,4)=='edge') {
      edges[i].setAttribute('class','edge');
    }
  }
}
]]></script>
        <defs>
                <circle id="rim" cx="0" cy="0" r="7"/>
                <circle id="rim2" cx="0" cy="0" r="3.5"/>
                <g id="zoomPlus">
                        <use xlink:href="#rim" fill="#404040">
                                <set attributeName="fill" to="#808080" begin="zoomplus.mouseover" end="zoomplus.mouseout"/>
                        </use>
                        <path d="M-4,0h8M0,-4v8" fill="none" stroke="white" stroke-width="1.5" pointer-events="none"/>
                </g>
                <g id="zoomMin">
                        <use xlink:href="#rim" fill="#404040">
                                <set attributeName="fill" to="#808080" begin="zoomminus.mouseover" end="zoomminus.mouseout"/>
                        </use>
                        <path d="M-4,0h8" fill="none" stroke="white" stroke-width="1.5" pointer-events="none"/>
                </g>
                <g id="dirArrow">
                        <path fill="none" stroke="white" stroke-width="1.5" d="M0,-3.0v7 M-2.5,-0.5L0,-3.0L2.5,-0.5"/>
                </g>
               <g id="resetDef">
                       <use xlink:href="#rim2" fill="#404040">
                               <set attributeName="fill" to="#808080" begin="reset.mouseover" end="reset.mouseout"/>
                       </use>
               </g>
        </defs>

<script type="text/javascript">
var viewWidth = 900;
var viewHeight = 590;
var sectionId = 'dynsection-1';
</script>
<script xlink:href="svgpan.js"/>
<svg id="graph" class="graph">
<g id="viewport">
<title>GamePlay</title>
<polygon fill="white" stroke="none" points="-4,4 -4,-585.904 896,-585.904 896,4 -4,4"/>
<!-- Node1 -->
<g id="node1" class="node"><title>Node1</title>
<polygon fill="#bfbfbf" stroke="black" points="363,-251.111 363,-270.111 425,-270.111 425,-251.111 363,-251.111"/>
<text text-anchor="middle" x="394" y="-258.111" font-family="Helvetica,sans-Serif" font-size="10.00">GamePlay</text>
</g>
<!-- Node4 -->
<g id="node4" class="node"><title>Node4</title>
<g id="a_node4"><a xlink:href="class_game.html" target="_top" xlink:title="Game">
<polygon fill="white" stroke="black" points="609.5,-142.111 609.5,-161.111 652.5,-161.111 652.5,-142.111 609.5,-142.111"/>
<text text-anchor="middle" x="631" y="-149.111" font-family="Helvetica,sans-Serif" font-size="10.00">Game</text>
</a>
</g>
</g>
<!-- Node1&#45;&gt;Node4 -->
<g id="edge7" class="edge"><title>Node1&#45;&gt;Node4</title>
<path fill="none" stroke="#9a32cd" stroke-dasharray="5,2" d="M412.163,-243.942C428.408,-229.023 454.102,-207.563 480,-194.611 514.619,-177.297 526.808,-182.336 564,-171.611 579.185,-167.232 596.258,-162.051 609.235,-158.06"/>
<polygon fill="#9a32cd" stroke="#9a32cd" points="409.469,-241.669 404.578,-251.067 414.262,-246.771 409.469,-241.669"/>
<text text-anchor="middle" x="522" y="-197.611" font-family="Helvetica,sans-Serif" font-size="10.00"> m_gamePlay</text>
</g>
<!-- Node7 -->
<g id="node7" class="node"><title>Node7</title>
<g id="a_node7"><a xlink:href="class_game_play_scene.html" target="_top" xlink:title="GamePlayScene">
<polygon fill="white" stroke="red" points="586,-104.111 586,-123.111 676,-123.111 676,-104.111 586,-104.111"/>
<text text-anchor="middle" x="631" y="-111.111" font-family="Helvetica,sans-Serif" font-size="10.00">GamePlayScene</text>
</a>
</g>
</g>
<!-- Node1&#45;&gt;Node7 -->
<g id="edge11" class="edge"><title>Node1&#45;&gt;Node7</title>
<path fill="none" stroke="#9a32cd" stroke-dasharray="5,2" d="M401.396,-241.291C412.324,-211.646 437.614,-155.641 480,-129.611 511.578,-110.218 554.075,-107.375 585.773,-108.711"/>
<polygon fill="#9a32cd" stroke="#9a32cd" points="398.027,-240.321 398.015,-250.916 404.631,-242.641 398.027,-240.321"/>
<text text-anchor="middle" x="522" y="-132.611" font-family="Helvetica,sans-Serif" font-size="10.00"> m_gamePlay</text>
</g>
<!-- Node10 -->
<g id="node10" class="node"><title>Node10</title>
<g id="a_node10"><a xlink:href="class_base_scenario.html" target="_top" xlink:title="BaseScenario">
<polygon fill="white" stroke="red" points="592.5,-274.111 592.5,-293.111 669.5,-293.111 669.5,-274.111 592.5,-274.111"/>
<text text-anchor="middle" x="631" y="-281.111" font-family="Helvetica,sans-Serif" font-size="10.00">BaseScenario</text>
</a>
</g>
</g>
<!-- Node1&#45;&gt;Node10 -->
<g id="edge15" class="edge"><title>Node1&#45;&gt;Node10</title>
<path fill="none" stroke="#9a32cd" stroke-dasharray="5,2" d="M435.289,-264.554C479.257,-268.857 549.105,-275.693 592.105,-279.902"/>
<polygon fill="#9a32cd" stroke="#9a32cd" points="435.534,-261.061 425.241,-263.571 434.853,-268.028 435.534,-261.061"/>
<text text-anchor="middle" x="522" y="-280.611" font-family="Helvetica,sans-Serif" font-size="10.00"> m_gamePlay</text>
</g>
<!-- Node12 -->
<g id="node12" class="node"><title>Node12</title>
<g id="a_node12"><a xlink:href="class_game_play_running.html" target="_top" xlink:title="GamePlayRunning">
<polygon fill="white" stroke="black" points="582,-497.111 582,-516.111 680,-516.111 680,-497.111 582,-497.111"/>
<text text-anchor="middle" x="631" y="-504.111" font-family="Helvetica,sans-Serif" font-size="10.00">GamePlayRunning</text>
</a>
</g>
</g>
<!-- Node1&#45;&gt;Node12 -->
<g id="edge20" class="edge"><title>Node1&#45;&gt;Node12</title>
<path fill="none" stroke="#9a32cd" stroke-dasharray="5,2" d="M400.133,-280.395C409.853,-313.793 434.193,-381.174 480,-416.611 510.438,-440.158 530.725,-418.28 564,-437.611 590.374,-452.933 612.931,-481.875 623.533,-496.943"/>
<polygon fill="#9a32cd" stroke="#9a32cd" points="403.426,-279.172 397.388,-270.466 396.68,-281.038 403.426,-279.172"/>
<text text-anchor="middle" x="522" y="-440.611" font-family="Helvetica,sans-Serif" font-size="10.00"> m_gamePlay</text>
</g>
<!-- Node15 -->
<g id="node15" class="node"><title>Node15</title>
<g id="a_node15"><a xlink:href="class_game_play_paused.html" target="_top" xlink:title="GamePlayPaused">
<polygon fill="white" stroke="black" points="583.5,-349.111 583.5,-368.111 678.5,-368.111 678.5,-349.111 583.5,-349.111"/>
<text text-anchor="middle" x="631" y="-356.111" font-family="Helvetica,sans-Serif" font-size="10.00">GamePlayPaused</text>
</a>
</g>
</g>
<!-- Node1&#45;&gt;Node15 -->
<g id="edge25" class="edge"><title>Node1&#45;&gt;Node15</title>
<path fill="none" stroke="#9a32cd" stroke-dasharray="5,2" d="M412.732,-277.187C429.023,-291.534 454.449,-311.783 480,-323.611 498.14,-332.008 546.249,-342.534 583.137,-349.838"/>
<polygon fill="#9a32cd" stroke="#9a32cd" points="414.863,-274.397 405.093,-270.299 410.176,-279.595 414.863,-274.397"/>
<text text-anchor="middle" x="522" y="-349.611" font-family="Helvetica,sans-Serif" font-size="10.00"> m_gamePlay</text>
</g>
<!-- Node2 -->
<g id="node2" class="node"><title>Node2</title>
<g id="a_node2"><a xlink:href="class_game_state.html" target="_top" xlink:title="GameState">
<polygon fill="white" stroke="black" points="149,-328.111 149,-347.111 215,-347.111 215,-328.111 149,-328.111"/>
<text text-anchor="middle" x="182" y="-335.111" font-family="Helvetica,sans-Serif" font-size="10.00">GameState</text>
</a>
</g>
</g>
<!-- Node2&#45;&gt;Node1 -->
<g id="edge1" class="edge"><title>Node2&#45;&gt;Node1</title>
<path fill="none" stroke="midnightblue" d="M218.731,-324.509C260.745,-309.104 329.473,-283.904 366.829,-270.207"/>
<polygon fill="midnightblue" stroke="midnightblue" points="217.356,-321.286 209.172,-328.014 219.766,-327.858 217.356,-321.286"/>
</g>
<!-- Node2&#45;&gt;Node2 -->
<g id="edge4" class="edge"><title>Node2&#45;&gt;Node2</title>
<path fill="none" stroke="#9a32cd" stroke-dasharray="5,2" d="M165.334,-357.011C166.447,-361.925 172.002,-365.611 182,-365.611 197.996,-365.611 202.62,-356.176 195.872,-347.368"/>
<polygon fill="#9a32cd" stroke="#9a32cd" points="168.707,-357.947 168.128,-347.368 161.983,-355.999 168.707,-357.947"/>
<text text-anchor="middle" x="182" y="-368.611" font-family="Helvetica,sans-Serif" font-size="10.00"> m_parentGameState</text>
</g>
<!-- Node2&#45;&gt;Node4 -->
<g id="edge6" class="edge"><title>Node2&#45;&gt;Node4</title>
<path fill="none" stroke="midnightblue" d="M197.604,-320.071C237.21,-274.06 352.299,-150.426 480,-106.611 515.313,-94.4948 530.931,-89.2842 564,-106.611 576.449,-113.134 570.993,-123.871 582,-132.611 590.002,-138.964 600.395,-143.427 609.464,-146.423"/>
<polygon fill="midnightblue" stroke="midnightblue" points="194.711,-318.071 190.904,-327.958 200.046,-322.603 194.711,-318.071"/>
</g>
<!-- Node2&#45;&gt;Node12 -->
<g id="edge19" class="edge"><title>Node2&#45;&gt;Node12</title>
<path fill="none" stroke="midnightblue" d="M188.795,-357.223C203.28,-402.215 245.789,-512.298 326,-555.611 419.236,-605.957 463.155,-574.137 564,-541.611 582.762,-535.559 602.512,-524.355 615.462,-516.25"/>
<polygon fill="midnightblue" stroke="midnightblue" points="192.083,-356.01 185.778,-347.496 185.397,-358.084 192.083,-356.01"/>
</g>
<!-- Node2&#45;&gt;Node15 -->
<g id="edge24" class="edge"><title>Node2&#45;&gt;Node15</title>
<path fill="none" stroke="midnightblue" d="M225.213,-341.262C282.761,-346.054 389.084,-354.25 480,-357.611 514.613,-358.89 553.747,-359.11 583.363,-359.026"/>
<polygon fill="midnightblue" stroke="midnightblue" points="225.308,-337.757 215.05,-340.408 224.722,-344.733 225.308,-337.757"/>
</g>
<!-- Node3 -->
<g id="node3" class="node"><title>Node3</title>
<g id="a_node3"><a xlink:href="class_state.html" target="_top" xlink:title="State">
<polygon fill="white" stroke="red" points="24,-328.111 24,-347.111 64,-347.111 64,-328.111 24,-328.111"/>
<text text-anchor="middle" x="44" y="-335.111" font-family="Helvetica,sans-Serif" font-size="10.00">State</text>
</a>
</g>
</g>
<!-- Node3&#45;&gt;Node2 -->
<g id="edge2" class="edge"><title>Node3&#45;&gt;Node2</title>
<path fill="none" stroke="midnightblue" d="M74.248,-337.611C96.1816,-337.611 126.189,-337.611 148.805,-337.611"/>
<polygon fill="midnightblue" stroke="midnightblue" points="74.1971,-334.111 64.197,-337.611 74.197,-341.111 74.1971,-334.111"/>
</g>
<!-- Node3&#45;&gt;Node3 -->
<g id="edge3" class="edge"><title>Node3&#45;&gt;Node3</title>
<path fill="none" stroke="#9a32cd" stroke-dasharray="5,2" d="M35.1605,-357.377C35.8548,-362.107 38.8013,-365.611 44,-365.611 52.5313,-365.611 54.9973,-356.176 51.3982,-347.368"/>
<polygon fill="#9a32cd" stroke="#9a32cd" points="38.6407,-357.765 36.6018,-347.368 31.7122,-356.767 38.6407,-357.765"/>
<text text-anchor="middle" x="44" y="-401.611" font-family="Helvetica,sans-Serif" font-size="10.00"> m_currentSubState</text>
<text text-anchor="middle" x="44" y="-390.611" font-family="Helvetica,sans-Serif" font-size="10.00">m_initialSubState</text>
<text text-anchor="middle" x="44" y="-379.611" font-family="Helvetica,sans-Serif" font-size="10.00">m_finalSubState</text>
<text text-anchor="middle" x="44" y="-368.611" font-family="Helvetica,sans-Serif" font-size="10.00">m_parentState</text>
</g>
<!-- Node4&#45;&gt;Node1 -->
<g id="edge5" class="edge"><title>Node4&#45;&gt;Node1</title>
<path fill="none" stroke="#9a32cd" stroke-dasharray="5,2" d="M599.309,-146.705C567.662,-143.137 517.746,-141.763 480,-160.611 439.433,-180.867 410.573,-230.058 399.732,-250.958"/>
<polygon fill="#9a32cd" stroke="#9a32cd" points="598.936,-150.185 609.297,-147.973 599.818,-143.241 598.936,-150.185"/>
<text text-anchor="middle" x="522" y="-163.611" font-family="Helvetica,sans-Serif" font-size="10.00"> m_game</text>
</g>
<!-- Node5 -->
<g id="node5" class="node"><title>Node5</title>
<polygon fill="white" stroke="#bfbfbf" points="330,-51.1109 330,-70.1109 458,-70.1109 458,-51.1109 330,-51.1109"/>
<text text-anchor="middle" x="394" y="-58.1109" font-family="Helvetica,sans-Serif" font-size="10.00">std::unique_ptr&lt; Viewer &gt;</text>
</g>
<!-- Node5&#45;&gt;Node4 -->
<g id="edge8" class="edge"><title>Node5&#45;&gt;Node4</title>
<path fill="none" stroke="#9a32cd" stroke-dasharray="5,2" d="M440.255,-49.118C477.475,-42.5237 529.524,-40.2395 564,-67.6109 587.477,-86.2496 561.965,-110.314 582,-132.611 589.069,-140.477 599.819,-145.129 609.355,-147.858"/>
<polygon fill="#9a32cd" stroke="#9a32cd" points="439.329,-45.7323 430.178,-51.0711 440.661,-52.6044 439.329,-45.7323"/>
<text text-anchor="middle" x="522" y="-70.6109" font-family="Helvetica,sans-Serif" font-size="10.00"> m_viewer</text>
</g>
<!-- Node6 -->
<g id="node6" class="node"><title>Node6</title>
<polygon fill="white" stroke="#bfbfbf" points="744,-155.611 744,-185.611 880,-185.611 880,-155.611 744,-155.611"/>
<text text-anchor="start" x="752" y="-173.611" font-family="Helvetica,sans-Serif" font-size="10.00">std::unique_ptr&lt; GamePlay</text>
<text text-anchor="middle" x="812" y="-162.611" font-family="Helvetica,sans-Serif" font-size="10.00">Scene &gt;</text>
</g>
<!-- Node6&#45;&gt;Node1 -->
<g id="edge9" class="edge"><title>Node6&#45;&gt;Node1</title>
<path fill="none" stroke="#9a32cd" stroke-dasharray="5,2" d="M734.016,-187.266C641.138,-207.36 489.474,-240.172 425.253,-254.066"/>
<polygon fill="#9a32cd" stroke="#9a32cd" points="734.894,-190.657 743.928,-185.122 733.414,-183.815 734.894,-190.657"/>
<text text-anchor="middle" x="631" y="-223.611" font-family="Helvetica,sans-Serif" font-size="10.00"> m_scene</text>
</g>
<!-- Node7&#45;&gt;Node6 -->
<g id="edge10" class="edge"><title>Node7&#45;&gt;Node6</title>
<path fill="none" stroke="#9a32cd" stroke-dasharray="5,2" d="M671.543,-126.203C698.75,-134.866 735.017,-146.415 763.748,-155.564"/>
<polygon fill="#9a32cd" stroke="#9a32cd" points="672.551,-122.851 661.961,-123.151 670.427,-129.521 672.551,-122.851"/>
<text text-anchor="middle" x="706" y="-142.611" font-family="Helvetica,sans-Serif" font-size="10.00"> ptr</text>
</g>
<!-- Node8 -->
<g id="node8" class="node"><title>Node8</title>
<g id="a_node8"><a xlink:href="class_player.html" target="_top" xlink:title="Player">
<polygon fill="white" stroke="red" points="22,-32.1109 22,-51.1109 66,-51.1109 66,-32.1109 22,-32.1109"/>
<text text-anchor="middle" x="44" y="-39.1109" font-family="Helvetica,sans-Serif" font-size="10.00">Player</text>
</a>
</g>
</g>
<!-- Node8&#45;&gt;Node7 -->
<g id="edge12" class="edge"><title>Node8&#45;&gt;Node7</title>
<path fill="none" stroke="#9a32cd" stroke-dasharray="5,2" d="M75.8299,-33.3981C158.991,-12.9235 393.157,33.5431 564,-41.6109 593.336,-54.5158 615.329,-87.6101 624.832,-104.049"/>
<polygon fill="#9a32cd" stroke="#9a32cd" points="74.8482,-30.036 66.005,-35.871 76.5568,-36.8242 74.8482,-30.036"/>
<text text-anchor="middle" x="286" y="-6.61087" font-family="Helvetica,sans-Serif" font-size="10.00"> m_player</text>
</g>
<!-- Node11 -->
<g id="node11" class="node"><title>Node11</title>
<polygon fill="white" stroke="#bfbfbf" points="118.5,-54.1109 118.5,-73.1109 245.5,-73.1109 245.5,-54.1109 118.5,-54.1109"/>
<text text-anchor="middle" x="182" y="-61.1109" font-family="Helvetica,sans-Serif" font-size="10.00">std::unique_ptr&lt; Player &gt;</text>
</g>
<!-- Node8&#45;&gt;Node11 -->
<g id="edge17" class="edge"><title>Node8&#45;&gt;Node11</title>
<path fill="none" stroke="#9a32cd" stroke-dasharray="5,2" d="M76.4741,-46.7023C90.0414,-48.897 106.367,-51.5379 122.041,-54.0733"/>
<polygon fill="#9a32cd" stroke="#9a32cd" points="76.6806,-43.1903 66.25,-45.0484 75.5627,-50.1004 76.6806,-43.1903"/>
<text text-anchor="middle" x="92" y="-53.6109" font-family="Helvetica,sans-Serif" font-size="10.00"> ptr</text>
</g>
<!-- Node9 -->
<g id="node9" class="node"><title>Node9</title>
<polygon fill="white" stroke="#bfbfbf" points="732,-253.111 732,-272.111 892,-272.111 892,-253.111 732,-253.111"/>
<text text-anchor="middle" x="812" y="-260.111" font-family="Helvetica,sans-Serif" font-size="10.00">std::unique_ptr&lt; BaseScenario &gt;</text>
</g>
<!-- Node9&#45;&gt;Node1 -->
<g id="edge13" class="edge"><title>Node9&#45;&gt;Node1</title>
<path fill="none" stroke="#9a32cd" stroke-dasharray="5,2" d="M721.65,-255.65C707.716,-254.802 693.475,-254.073 680,-253.611 587.253,-250.429 477.48,-255.663 425.375,-258.692"/>
<polygon fill="#9a32cd" stroke="#9a32cd" points="721.525,-259.149 731.726,-256.287 721.967,-252.163 721.525,-259.149"/>
<text text-anchor="middle" x="631" y="-256.611" font-family="Helvetica,sans-Serif" font-size="10.00"> m_scenario</text>
</g>
<!-- Node10&#45;&gt;Node9 -->
<g id="edge14" class="edge"><title>Node10&#45;&gt;Node9</title>
<path fill="none" stroke="#9a32cd" stroke-dasharray="5,2" d="M679.698,-278.015C695.732,-276.134 714.074,-273.982 731.862,-271.895"/>
<polygon fill="#9a32cd" stroke="#9a32cd" points="679.048,-274.567 669.524,-279.209 679.864,-281.519 679.048,-274.567"/>
<text text-anchor="middle" x="706" y="-278.611" font-family="Helvetica,sans-Serif" font-size="10.00"> ptr</text>
</g>
<!-- Node11&#45;&gt;Node1 -->
<g id="edge16" class="edge"><title>Node11&#45;&gt;Node1</title>
<path fill="none" stroke="#9a32cd" stroke-dasharray="5,2" d="M200.429,-79.9611C242.506,-119.433 348.66,-219.016 382.478,-250.74"/>
<polygon fill="#9a32cd" stroke="#9a32cd" points="202.817,-77.4017 193.129,-73.1126 198.027,-82.507 202.817,-77.4017"/>
<text text-anchor="middle" x="286" y="-183.611" font-family="Helvetica,sans-Serif" font-size="10.00"> m_player</text>
</g>
<!-- Node12&#45;&gt;Node1 -->
<g id="edge18" class="edge"><title>Node12&#45;&gt;Node1</title>
<path fill="none" stroke="#9a32cd" stroke-dasharray="5,2" d="M621.266,-487.532C610.417,-465.518 590.105,-429.316 564,-405.611 532.799,-377.279 512.854,-388.008 480,-361.611 445.162,-333.619 414.079,-289.669 401.244,-270.314"/>
<polygon fill="#9a32cd" stroke="#9a32cd" points="618.231,-489.298 625.695,-496.817 624.549,-486.284 618.231,-489.298"/>
<text text-anchor="middle" x="522" y="-408.611" font-family="Helvetica,sans-Serif" font-size="10.00"> m_runningState</text>
</g>
<!-- Node13 -->
<g id="node13" class="node"><title>Node13</title>
<g id="a_node13"><a xlink:href="class_key_trigger.html" target="_top" xlink:title="KeyTrigger">
<polygon fill="white" stroke="red" points="362.5,-470.111 362.5,-489.111 425.5,-489.111 425.5,-470.111 362.5,-470.111"/>
<text text-anchor="middle" x="394" y="-477.111" font-family="Helvetica,sans-Serif" font-size="10.00">KeyTrigger</text>
</a>
</g>
</g>
<!-- Node13&#45;&gt;Node12 -->
<g id="edge21" class="edge"><title>Node13&#45;&gt;Node12</title>
<path fill="none" stroke="#9a32cd" stroke-dasharray="5,2" d="M435.804,-484.299C476.4,-488.963 538.687,-496.12 581.722,-501.064"/>
<polygon fill="#9a32cd" stroke="#9a32cd" points="436.056,-480.805 425.722,-483.141 435.257,-487.759 436.056,-480.805"/>
<text text-anchor="middle" x="522" y="-501.611" font-family="Helvetica,sans-Serif" font-size="10.00"> m_pauseTrigger</text>
</g>
<!-- Node13&#45;&gt;Node15 -->
<g id="edge26" class="edge"><title>Node13&#45;&gt;Node15</title>
<path fill="none" stroke="#9a32cd" stroke-dasharray="5,2" d="M435.705,-476.19C478.709,-471.958 543.136,-463.669 564,-450.611 596.492,-430.275 617.779,-387.54 626.078,-368.328"/>
<polygon fill="#9a32cd" stroke="#9a32cd" points="435.165,-472.725 425.541,-477.155 435.827,-479.694 435.165,-472.725"/>
<text text-anchor="middle" x="522" y="-473.611" font-family="Helvetica,sans-Serif" font-size="10.00"> m_continueTrigger</text>
</g>
<!-- Node14 -->
<g id="node14" class="node"><title>Node14</title>
<polygon fill="white" stroke="#bfbfbf" points="326,-516.611 326,-546.611 462,-546.611 462,-516.611 326,-516.611"/>
<text text-anchor="start" x="334" y="-534.611" font-family="Helvetica,sans-Serif" font-size="10.00">std::unique_ptr&lt; GamePlay</text>
<text text-anchor="middle" x="394" y="-523.611" font-family="Helvetica,sans-Serif" font-size="10.00">RunningInput &gt;</text>
</g>
<!-- Node14&#45;&gt;Node12 -->
<g id="edge22" class="edge"><title>Node14&#45;&gt;Node12</title>
<path fill="none" stroke="#9a32cd" stroke-dasharray="5,2" d="M472.216,-527.353C501.082,-525.319 534.108,-522.468 564,-518.611 569.775,-517.866 575.812,-516.954 581.788,-515.969"/>
<polygon fill="#9a32cd" stroke="#9a32cd" points="471.928,-523.864 462.19,-528.038 472.406,-530.848 471.928,-523.864"/>
<text text-anchor="middle" x="522" y="-529.611" font-family="Helvetica,sans-Serif" font-size="10.00"> m_input</text>
</g>
<!-- Node15&#45;&gt;Node1 -->
<g id="edge23" class="edge"><title>Node15&#45;&gt;Node1</title>
<path fill="none" stroke="#9a32cd" stroke-dasharray="5,2" d="M610.654,-342.469C598.044,-332.643 580.854,-320.504 564,-312.611 528.946,-296.195 517.001,-300.977 480,-289.611 460.326,-283.567 438.342,-276.046 421.66,-270.178"/>
<polygon fill="#9a32cd" stroke="#9a32cd" points="608.597,-345.306 618.592,-348.822 612.971,-339.841 608.597,-345.306"/>
<text text-anchor="middle" x="522" y="-315.611" font-family="Helvetica,sans-Serif" font-size="10.00"> m_pausedState</text>
</g>
</g>
</svg>
        <g id="navigator" transform="translate(0 0)" fill="#404254">
                <rect fill="#f2f5e9" fill-opacity="0.5" stroke="#606060" stroke-width=".5" x="0" y="0" width="60" height="60"/>
                <use id="zoomplus" xlink:href="#zoomPlus" x="17" y="9" onmousedown="handleZoom(evt,'in')"/>
                <use id="zoomminus" xlink:href="#zoomMin" x="42" y="9" onmousedown="handleZoom(evt,'out')"/>
                <use id="reset" xlink:href="#resetDef" x="30" y="36" onmousedown="handleReset()"/>
                <g id="arrowUp" xlink:href="#dirArrow" transform="translate(30 24)" onmousedown="handlePan(0,-1)">
                  <use xlink:href="#rim" fill="#404040">
                        <set attributeName="fill" to="#808080" begin="arrowUp.mouseover" end="arrowUp.mouseout"/>
                  </use>
                  <path fill="none" stroke="white" stroke-width="1.5" d="M0,-3.0v7 M-2.5,-0.5L0,-3.0L2.5,-0.5"/>
                </g>
                <g id="arrowRight" xlink:href="#dirArrow" transform="rotate(90) translate(36 -43)" onmousedown="handlePan(1,0)">
                  <use xlink:href="#rim" fill="#404040">
                        <set attributeName="fill" to="#808080" begin="arrowRight.mouseover" end="arrowRight.mouseout"/>
                  </use>
                  <path fill="none" stroke="white" stroke-width="1.5" d="M0,-3.0v7 M-2.5,-0.5L0,-3.0L2.5,-0.5"/>
                </g>
                <g id="arrowDown" xlink:href="#dirArrow" transform="rotate(180) translate(-30 -48)" onmousedown="handlePan(0,1)">
                  <use xlink:href="#rim" fill="#404040">
                        <set attributeName="fill" to="#808080" begin="arrowDown.mouseover" end="arrowDown.mouseout"/>
                  </use>
                  <path fill="none" stroke="white" stroke-width="1.5" d="M0,-3.0v7 M-2.5,-0.5L0,-3.0L2.5,-0.5"/>
                </g>
                <g id="arrowLeft" xlink:href="#dirArrow" transform="rotate(270) translate(-36 17)" onmousedown="handlePan(-1,0)">
                  <use xlink:href="#rim" fill="#404040">
                        <set attributeName="fill" to="#808080" begin="arrowLeft.mouseover" end="arrowLeft.mouseout"/>
                  </use>
                  <path fill="none" stroke="white" stroke-width="1.5" d="M0,-3.0v7 M-2.5,-0.5L0,-3.0L2.5,-0.5"/>
                </g>
        </g>
        <svg viewBox="0 0 15 15" width="100%" height="30px" preserveAspectRatio="xMaxYMin meet">
         <g id="arrow_out" transform="scale(0.3 0.3)">
          <a xlink:href="class_game_play__coll__graph_org.svg" target="_base">
           <rect id="button" ry="5" rx="5" y="6" x="6" height="38" width="38"
                fill="#f2f5e9" fill-opacity="0.5" stroke="#606060" stroke-width="1.0"/>
           <path id="arrow"
             d="M 11.500037,31.436501 C 11.940474,20.09759 22.043105,11.32322 32.158766,21.979434 L 37.068811,17.246167 C 37.068811,17.246167 37.088388,32 37.088388,32 L 22.160133,31.978069 C 22.160133,31.978069 26.997745,27.140456 26.997745,27.140456 C 18.528582,18.264221 13.291696,25.230495 11.500037,31.436501 z"
             style="fill:#404040;"/>
          </a>
         </g>
        </svg>
</svg>
