<?xml version="1.0" encoding="UTF-8" standalone="no"?>
<!DOCTYPE svg PUBLIC "-//W3C//DTD SVG 1.1//EN"
 "http://www.w3.org/Graphics/SVG/1.1/DTD/svg11.dtd">
<!-- Generated by graphviz version 2.36.0 (20140111.2315)
 -->
<!-- Title: ObjectHudgetVoxels Pages: 1 -->
<svg width="886pt" height="278pt"
 viewBox="0.00 0.00 886.00 277.70" xmlns="http://www.w3.org/2000/svg" xmlns:xlink="http://www.w3.org/1999/xlink">
<g id="graph0" class="graph" transform="scale(1 1) rotate(0) translate(4 273.698)">
<title>ObjectHudgetVoxels</title>
<polygon fill="white" stroke="none" points="-4,4 -4,-273.698 882,-273.698 882,4 -4,4"/>
<!-- Node1 -->
<g id="node1" class="node"><title>Node1</title>
<polygon fill="#bfbfbf" stroke="black" points="0,-149.198 0,-168.198 106,-168.198 106,-149.198 0,-149.198"/>
<text text-anchor="middle" x="53" y="-156.198" font-family="Helvetica,sans-Serif" font-size="10.00">ObjectHudgetVoxels</text>
</g>
<!-- Node3 -->
<g id="node3" class="node"><title>Node3</title>
<g id="a_node3"><a xlink:href="class_object_hudget_corner_voxels.html" target="_top" xlink:title="ObjectHudgetCornerVoxels">
<polygon fill="white" stroke="red" points="254,-250.198 254,-269.198 388,-269.198 388,-250.198 254,-250.198"/>
<text text-anchor="middle" x="321" y="-257.198" font-family="Helvetica,sans-Serif" font-size="10.00">ObjectHudgetCornerVoxels</text>
</a>
</g>
</g>
<!-- Node1&#45;&gt;Node3 -->
<g id="edge3" class="edge"><title>Node1&#45;&gt;Node3</title>
<path fill="none" stroke="#9a32cd" stroke-dasharray="5,2" d="M75.6213,-174.04C89.0558,-183.041 106.959,-194.102 124,-201.698 174.24,-224.09 235.494,-240.629 276.008,-250.194"/>
<polygon fill="#9a32cd" stroke="#9a32cd" points="77.3284,-170.967 67.0998,-168.205 73.3735,-176.743 77.3284,-170.967"/>
<text text-anchor="middle" x="176" y="-238.698" font-family="Helvetica,sans-Serif" font-size="10.00"> m_objectHudgetVoxels</text>
</g>
<!-- Node8 -->
<g id="node8" class="node"><title>Node8</title>
<polygon fill="white" stroke="#bfbfbf" points="246.5,-82.6975 246.5,-112.698 395.5,-112.698 395.5,-82.6975 246.5,-82.6975"/>
<text text-anchor="start" x="254.5" y="-100.698" font-family="Helvetica,sans-Serif" font-size="10.00">std::unique_ptr&lt; ObjectHudget</text>
<text text-anchor="middle" x="321" y="-89.6975" font-family="Helvetica,sans-Serif" font-size="10.00">Voxels &gt;</text>
</g>
<!-- Node1&#45;&gt;Node8 -->
<g id="edge10" class="edge"><title>Node1&#45;&gt;Node8</title>
<path fill="none" stroke="#9a32cd" stroke-dasharray="5,2" d="M105.412,-146.907C147.888,-137.167 208.455,-123.277 254.418,-112.737"/>
<polygon fill="#9a32cd" stroke="#9a32cd" points="104.527,-143.52 95.5625,-149.166 106.092,-150.342 104.527,-143.52"/>
<text text-anchor="middle" x="176" y="-145.698" font-family="Helvetica,sans-Serif" font-size="10.00"> ptr</text>
</g>
<!-- Node2 -->
<g id="node2" class="node"><title>Node2</title>
<polygon fill="white" stroke="#bfbfbf" points="506.5,-198.698 506.5,-228.698 655.5,-228.698 655.5,-198.698 506.5,-198.698"/>
<text text-anchor="start" x="514.5" y="-216.698" font-family="Helvetica,sans-Serif" font-size="10.00">std::unique_ptr&lt; ObjectHudget</text>
<text text-anchor="middle" x="581" y="-205.698" font-family="Helvetica,sans-Serif" font-size="10.00">CornerVoxels &gt;</text>
</g>
<!-- Node2&#45;&gt;Node1 -->
<g id="edge1" class="edge"><title>Node2&#45;&gt;Node1</title>
<path fill="none" stroke="#9a32cd" stroke-dasharray="5,2" d="M496.047,-204.919C386.364,-193.45 197.578,-173.71 106.358,-164.172"/>
<polygon fill="#9a32cd" stroke="#9a32cd" points="495.773,-208.41 506.083,-205.969 496.501,-201.447 495.773,-208.41"/>
<text text-anchor="middle" x="321" y="-229.698" font-family="Helvetica,sans-Serif" font-size="10.00"> m_rb</text>
<text text-anchor="middle" x="321" y="-218.698" font-family="Helvetica,sans-Serif" font-size="10.00">m_ru</text>
<text text-anchor="middle" x="321" y="-207.698" font-family="Helvetica,sans-Serif" font-size="10.00">m_lb</text>
<text text-anchor="middle" x="321" y="-196.698" font-family="Helvetica,sans-Serif" font-size="10.00">m_lu</text>
</g>
<!-- Node3&#45;&gt;Node2 -->
<g id="edge2" class="edge"><title>Node3&#45;&gt;Node2</title>
<path fill="none" stroke="#9a32cd" stroke-dasharray="5,2" d="M385.481,-248.379C421.962,-241.875 467.961,-233.674 506.068,-226.879"/>
<polygon fill="#9a32cd" stroke="#9a32cd" points="384.688,-244.965 375.458,-250.166 385.917,-251.857 384.688,-244.965"/>
<text text-anchor="middle" x="451" y="-244.698" font-family="Helvetica,sans-Serif" font-size="10.00"> ptr</text>
</g>
<!-- Node4 -->
<g id="node4" class="node"><title>Node4</title>
<g id="a_node4"><a xlink:href="class_object_hudget.html" target="_top" xlink:title="ObjectHudget">
<polygon fill="white" stroke="black" points="543,-60.1975 543,-79.1975 619,-79.1975 619,-60.1975 543,-60.1975"/>
<text text-anchor="middle" x="581" y="-67.1975" font-family="Helvetica,sans-Serif" font-size="10.00">ObjectHudget</text>
</a>
</g>
</g>
<!-- Node4&#45;&gt;Node1 -->
<g id="edge4" class="edge"><title>Node4&#45;&gt;Node1</title>
<path fill="none" stroke="#9a32cd" stroke-dasharray="5,2" d="M551.7,-55.7664C493.213,-28.9318 355.343,24.1534 246,-12.6975 162.666,-40.783 86.8526,-121.036 62.2978,-148.97"/>
<polygon fill="#9a32cd" stroke="#9a32cd" points="550.492,-59.0655 561.033,-60.1375 553.462,-52.7264 550.492,-59.0655"/>
<text text-anchor="middle" x="321" y="-15.6975" font-family="Helvetica,sans-Serif" font-size="10.00"> m_hudget</text>
</g>
<!-- Node6 -->
<g id="node6" class="node"><title>Node6</title>
<g id="a_node6"><a xlink:href="class_h_u_d_object_delegate.html" target="_top" xlink:title="HUDObjectDelegate">
<polygon fill="white" stroke="red" points="774,-60.1975 774,-79.1975 878,-79.1975 878,-60.1975 774,-60.1975"/>
<text text-anchor="middle" x="826" y="-67.1975" font-family="Helvetica,sans-Serif" font-size="10.00">HUDObjectDelegate</text>
</a>
</g>
</g>
<!-- Node4&#45;&gt;Node6 -->
<g id="edge7" class="edge"><title>Node4&#45;&gt;Node6</title>
<path fill="none" stroke="#9a32cd" stroke-dasharray="5,2" d="M629.311,-69.6975C670.87,-69.6975 731.194,-69.6975 773.858,-69.6975"/>
<polygon fill="#9a32cd" stroke="#9a32cd" points="629.171,-66.1976 619.171,-69.6975 629.171,-73.1976 629.171,-66.1976"/>
<text text-anchor="middle" x="715" y="-72.6975" font-family="Helvetica,sans-Serif" font-size="10.00"> m_hudget</text>
</g>
<!-- Node5 -->
<g id="node5" class="node"><title>Node5</title>
<g id="a_node5"><a xlink:href="class_hudget.html" target="_top" xlink:title="Hudget">
<polygon fill="white" stroke="red" points="297.5,-132.198 297.5,-151.198 344.5,-151.198 344.5,-132.198 297.5,-132.198"/>
<text text-anchor="middle" x="321" y="-139.198" font-family="Helvetica,sans-Serif" font-size="10.00">Hudget</text>
</a>
</g>
</g>
<!-- Node5&#45;&gt;Node4 -->
<g id="edge5" class="edge"><title>Node5&#45;&gt;Node4</title>
<path fill="none" stroke="midnightblue" d="M354.972,-135.106C388.677,-128.099 442.403,-116.184 488,-102.698 511.269,-95.8152 537.248,-86.3248 555.65,-79.2876"/>
<polygon fill="midnightblue" stroke="midnightblue" points="353.858,-131.762 344.768,-137.205 355.268,-138.619 353.858,-131.762"/>
</g>
<!-- Node6&#45;&gt;Node4 -->
<g id="edge6" class="edge"><title>Node6&#45;&gt;Node4</title>
<path fill="none" stroke="#9a32cd" stroke-dasharray="5,2" d="M781.026,-57.9297C772.769,-56.1686 764.165,-54.6318 756,-53.6975 719.792,-49.5545 710.309,-50.5637 674,-53.6975 655.91,-55.2589 636.039,-58.5165 619.409,-61.6874"/>
<polygon fill="#9a32cd" stroke="#9a32cd" points="780.347,-61.3646 790.874,-60.1637 781.896,-54.538 780.347,-61.3646"/>
<text text-anchor="middle" x="715" y="-56.6975" font-family="Helvetica,sans-Serif" font-size="10.00"> m_objectDelegate</text>
</g>
<!-- Node7 -->
<g id="node7" class="node"><title>Node7</title>
<polygon fill="white" stroke="#bfbfbf" points="248,-33.6975 248,-63.6975 394,-63.6975 394,-33.6975 248,-33.6975"/>
<text text-anchor="start" x="256" y="-51.6975" font-family="Helvetica,sans-Serif" font-size="10.00">std::unique_ptr&lt; ArrowHudget</text>
<text text-anchor="middle" x="321" y="-40.6975" font-family="Helvetica,sans-Serif" font-size="10.00">Voxels &gt;</text>
</g>
<!-- Node7&#45;&gt;Node4 -->
<g id="edge8" class="edge"><title>Node7&#45;&gt;Node4</title>
<path fill="none" stroke="#9a32cd" stroke-dasharray="5,2" d="M404.468,-51.9371C431.153,-53.3145 460.859,-55.1954 488,-57.6975 506.125,-59.3685 526.174,-61.9024 542.917,-64.2118"/>
<polygon fill="#9a32cd" stroke="#9a32cd" points="404.562,-48.4375 394.4,-51.4336 404.213,-55.4288 404.562,-48.4375"/>
<text text-anchor="middle" x="451" y="-60.6975" font-family="Helvetica,sans-Serif" font-size="10.00"> m_arrowVoxels</text>
</g>
<!-- Node8&#45;&gt;Node4 -->
<g id="edge9" class="edge"><title>Node8&#45;&gt;Node4</title>
<path fill="none" stroke="#9a32cd" stroke-dasharray="5,2" d="M405.62,-88.6225C451.903,-83.5995 507.118,-77.6072 542.832,-73.7313"/>
<polygon fill="#9a32cd" stroke="#9a32cd" points="405.151,-85.1527 395.587,-89.7113 405.906,-92.1119 405.151,-85.1527"/>
<text text-anchor="middle" x="451" y="-90.6975" font-family="Helvetica,sans-Serif" font-size="10.00"> m_objectVoxels</text>
</g>
</g>
</svg>
