<?xml version="1.0" encoding="UTF-8" standalone="no"?>
<!DOCTYPE svg PUBLIC "-//W3C//DTD SVG 1.1//EN"
 "http://www.w3.org/Graphics/SVG/1.1/DTD/svg11.dtd">
<!-- Generated by graphviz version 2.36.0 (20140111.2315)
 -->
<!-- Title: State Pages: 1 -->
<svg width="643pt" height="140pt"
 viewBox="0.00 0.00 643.00 140.00" xmlns="http://www.w3.org/2000/svg" xmlns:xlink="http://www.w3.org/1999/xlink">
<g id="graph0" class="graph" transform="scale(1 1) rotate(0) translate(4 136)">
<title>State</title>
<polygon fill="white" stroke="none" points="-4,4 -4,-136 639,-136 639,4 -4,4"/>
<!-- Node1 -->
<g id="node1" class="node"><title>Node1</title>
<polygon fill="#bfbfbf" stroke="black" points="314,-112.5 314,-131.5 354,-131.5 354,-112.5 314,-112.5"/>
<text text-anchor="middle" x="334" y="-119.5" font-family="Helvetica,sans-Serif" font-size="10.00">State</text>
</g>
<!-- Node2 -->
<g id="node2" class="node"><title>Node2</title>
<g id="a_node2"><a xlink:href="class_game_state.html" target="_top" xlink:title="GameState">
<polygon fill="white" stroke="black" points="156,-56.5 156,-75.5 222,-75.5 222,-56.5 156,-56.5"/>
<text text-anchor="middle" x="189" y="-63.5" font-family="Helvetica,sans-Serif" font-size="10.00">GameState</text>
</a>
</g>
</g>
<!-- Node1&#45;&gt;Node2 -->
<g id="edge1" class="edge"><title>Node1&#45;&gt;Node2</title>
<path fill="none" stroke="midnightblue" d="M304.375,-109.967C276.983,-99.7662 236.848,-84.8193 211.856,-75.5118"/>
<polygon fill="midnightblue" stroke="midnightblue" points="303.246,-113.281 313.838,-113.492 305.689,-106.722 303.246,-113.281"/>
</g>
<!-- Node7 -->
<g id="node7" class="node"><title>Node7</title>
<g id="a_node7"><a xlink:href="class_test_state.html" target="_top" xlink:title="TestState">
<polygon fill="white" stroke="black" points="450.5,-56.5 450.5,-75.5 509.5,-75.5 509.5,-56.5 450.5,-56.5"/>
<text text-anchor="middle" x="480" y="-63.5" font-family="Helvetica,sans-Serif" font-size="10.00">TestState</text>
</a>
</g>
</g>
<!-- Node1&#45;&gt;Node7 -->
<g id="edge6" class="edge"><title>Node1&#45;&gt;Node7</title>
<path fill="none" stroke="midnightblue" d="M363.829,-109.967C391.41,-99.7662 431.822,-84.8193 456.987,-75.5118"/>
<polygon fill="midnightblue" stroke="midnightblue" points="362.466,-106.74 354.301,-113.492 364.894,-113.305 362.466,-106.74"/>
</g>
<!-- Node3 -->
<g id="node3" class="node"><title>Node3</title>
<g id="a_node3"><a xlink:href="class_game.html" target="_top" xlink:title="Game">
<polygon fill="white" stroke="black" points="-0.5,-0.5 -0.5,-19.5 42.5,-19.5 42.5,-0.5 -0.5,-0.5"/>
<text text-anchor="middle" x="21" y="-7.5" font-family="Helvetica,sans-Serif" font-size="10.00">Game</text>
</a>
</g>
</g>
<!-- Node2&#45;&gt;Node3 -->
<g id="edge2" class="edge"><title>Node2&#45;&gt;Node3</title>
<path fill="none" stroke="midnightblue" d="M152.502,-53.2687C118.993,-42.4978 70.4597,-26.8978 42.6875,-17.971"/>
<polygon fill="midnightblue" stroke="midnightblue" points="151.789,-56.7155 162.38,-56.4435 153.931,-50.0513 151.789,-56.7155"/>
</g>
<!-- Node4 -->
<g id="node4" class="node"><title>Node4</title>
<g id="a_node4"><a xlink:href="class_game_play.html" target="_top" xlink:title="GamePlay">
<polygon fill="white" stroke="black" points="61,-0.5 61,-19.5 123,-19.5 123,-0.5 61,-0.5"/>
<text text-anchor="middle" x="92" y="-7.5" font-family="Helvetica,sans-Serif" font-size="10.00">GamePlay</text>
</a>
</g>
</g>
<!-- Node2&#45;&gt;Node4 -->
<g id="edge3" class="edge"><title>Node2&#45;&gt;Node4</title>
<path fill="none" stroke="midnightblue" d="M164.665,-51.4526C146.757,-41.4835 122.946,-28.2279 107.546,-19.6545"/>
<polygon fill="midnightblue" stroke="midnightblue" points="162.975,-54.5179 173.415,-56.324 166.38,-48.4018 162.975,-54.5179"/>
</g>
<!-- Node5 -->
<g id="node5" class="node"><title>Node5</title>
<g id="a_node5"><a xlink:href="class_game_play_paused.html" target="_top" xlink:title="GamePlayPaused">
<polygon fill="white" stroke="black" points="141.5,-0.5 141.5,-19.5 236.5,-19.5 236.5,-0.5 141.5,-0.5"/>
<text text-anchor="middle" x="189" y="-7.5" font-family="Helvetica,sans-Serif" font-size="10.00">GamePlayPaused</text>
</a>
</g>
</g>
<!-- Node2&#45;&gt;Node5 -->
<g id="edge4" class="edge"><title>Node2&#45;&gt;Node5</title>
<path fill="none" stroke="midnightblue" d="M189,-45.8045C189,-36.9102 189,-26.7798 189,-19.7511"/>
<polygon fill="midnightblue" stroke="midnightblue" points="185.5,-46.083 189,-56.083 192.5,-46.083 185.5,-46.083"/>
</g>
<!-- Node6 -->
<g id="node6" class="node"><title>Node6</title>
<g id="a_node6"><a xlink:href="class_game_play_running.html" target="_top" xlink:title="GamePlayRunning">
<polygon fill="white" stroke="black" points="255,-0.5 255,-19.5 353,-19.5 353,-0.5 255,-0.5"/>
<text text-anchor="middle" x="304" y="-7.5" font-family="Helvetica,sans-Serif" font-size="10.00">GamePlayRunning</text>
</a>
</g>
</g>
<!-- Node2&#45;&gt;Node6 -->
<g id="edge5" class="edge"><title>Node2&#45;&gt;Node6</title>
<path fill="none" stroke="midnightblue" d="M216.481,-52.096C237.966,-42.0073 267.222,-28.2697 285.863,-19.5164"/>
<polygon fill="midnightblue" stroke="midnightblue" points="214.786,-49.025 207.222,-56.4435 217.762,-55.3612 214.786,-49.025"/>
</g>
<!-- Node8 -->
<g id="node8" class="node"><title>Node8</title>
<g id="a_node8"><a xlink:href="class_b.html" target="_top" xlink:title="B">
<polygon fill="white" stroke="red" points="371.5,-0.5 371.5,-19.5 400.5,-19.5 400.5,-0.5 371.5,-0.5"/>
<text text-anchor="middle" x="386" y="-7.5" font-family="Helvetica,sans-Serif" font-size="10.00">B</text>
</a>
</g>
</g>
<!-- Node7&#45;&gt;Node8 -->
<g id="edge7" class="edge"><title>Node7&#45;&gt;Node8</title>
<path fill="none" stroke="midnightblue" d="M455.881,-51.1447C438.47,-41.1422 415.516,-27.9562 400.755,-19.4765"/>
<polygon fill="midnightblue" stroke="midnightblue" points="454.483,-54.3775 464.897,-56.324 457.97,-48.3078 454.483,-54.3775"/>
</g>
<!-- Node9 -->
<g id="node9" class="node"><title>Node9</title>
<g id="a_node9"><a xlink:href="class_c.html" target="_top" xlink:title="C">
<polygon fill="white" stroke="red" points="418.5,-0.5 418.5,-19.5 447.5,-19.5 447.5,-0.5 418.5,-0.5"/>
<text text-anchor="middle" x="433" y="-7.5" font-family="Helvetica,sans-Serif" font-size="10.00">C</text>
</a>
</g>
</g>
<!-- Node7&#45;&gt;Node9 -->
<g id="edge8" class="edge"><title>Node7&#45;&gt;Node9</title>
<path fill="none" stroke="midnightblue" d="M465.579,-48.4314C457.342,-38.9673 447.346,-27.4827 440.617,-19.7511"/>
<polygon fill="midnightblue" stroke="midnightblue" points="463.034,-50.8378 472.239,-56.083 468.314,-46.2421 463.034,-50.8378"/>
</g>
<!-- Node10 -->
<g id="node10" class="node"><title>Node10</title>
<g id="a_node10"><a xlink:href="class_d.html" target="_top" xlink:title="D">
<polygon fill="white" stroke="black" points="465.5,-0.5 465.5,-19.5 494.5,-19.5 494.5,-0.5 465.5,-0.5"/>
<text text-anchor="middle" x="480" y="-7.5" font-family="Helvetica,sans-Serif" font-size="10.00">D</text>
</a>
</g>
</g>
<!-- Node7&#45;&gt;Node10 -->
<g id="edge9" class="edge"><title>Node7&#45;&gt;Node10</title>
<path fill="none" stroke="midnightblue" d="M480,-45.8045C480,-36.9102 480,-26.7798 480,-19.7511"/>
<polygon fill="midnightblue" stroke="midnightblue" points="476.5,-46.083 480,-56.083 483.5,-46.083 476.5,-46.083"/>
</g>
<!-- Node11 -->
<g id="node11" class="node"><title>Node11</title>
<g id="a_node11"><a xlink:href="class_e.html" target="_top" xlink:title="E">
<polygon fill="white" stroke="black" points="512.5,-0.5 512.5,-19.5 541.5,-19.5 541.5,-0.5 512.5,-0.5"/>
<text text-anchor="middle" x="527" y="-7.5" font-family="Helvetica,sans-Serif" font-size="10.00">E</text>
</a>
</g>
</g>
<!-- Node7&#45;&gt;Node11 -->
<g id="edge10" class="edge"><title>Node7&#45;&gt;Node11</title>
<path fill="none" stroke="midnightblue" d="M494.421,-48.4314C502.658,-38.9673 512.654,-27.4827 519.383,-19.7511"/>
<polygon fill="midnightblue" stroke="midnightblue" points="491.686,-46.2421 487.761,-56.083 496.966,-50.8378 491.686,-46.2421"/>
</g>
<!-- Node12 -->
<g id="node12" class="node"><title>Node12</title>
<g id="a_node12"><a xlink:href="class_f.html" target="_top" xlink:title="F">
<polygon fill="white" stroke="black" points="559.5,-0.5 559.5,-19.5 588.5,-19.5 588.5,-0.5 559.5,-0.5"/>
<text text-anchor="middle" x="574" y="-7.5" font-family="Helvetica,sans-Serif" font-size="10.00">F</text>
</a>
</g>
</g>
<!-- Node7&#45;&gt;Node12 -->
<g id="edge11" class="edge"><title>Node7&#45;&gt;Node12</title>
<path fill="none" stroke="midnightblue" d="M504.119,-51.1447C521.53,-41.1422 544.484,-27.9562 559.245,-19.4765"/>
<polygon fill="midnightblue" stroke="midnightblue" points="502.03,-48.3078 495.103,-56.324 505.517,-54.3775 502.03,-48.3078"/>
</g>
<!-- Node13 -->
<g id="node13" class="node"><title>Node13</title>
<g id="a_node13"><a xlink:href="class_g.html" target="_top" xlink:title="G">
<polygon fill="white" stroke="black" points="606.5,-0.5 606.5,-19.5 635.5,-19.5 635.5,-0.5 606.5,-0.5"/>
<text text-anchor="middle" x="621" y="-7.5" font-family="Helvetica,sans-Serif" font-size="10.00">G</text>
</a>
</g>
</g>
<!-- Node7&#45;&gt;Node13 -->
<g id="edge12" class="edge"><title>Node7&#45;&gt;Node13</title>
<path fill="none" stroke="midnightblue" d="M511.789,-52.8256C541.266,-41.5363 583.831,-25.235 606.116,-16.7003"/>
<polygon fill="midnightblue" stroke="midnightblue" points="510.429,-49.5985 502.342,-56.4435 512.932,-56.1355 510.429,-49.5985"/>
</g>
</g>
</svg>
