<?xml version="1.0" encoding="UTF-8" standalone="no"?>
<!DOCTYPE svg PUBLIC "-//W3C//DTD SVG 1.1//EN"
 "http://www.w3.org/Graphics/SVG/1.1/DTD/svg11.dtd">
<!-- Generated by graphviz version 2.36.0 (20140111.2315)
 -->
<!-- Title: Property&lt; T &gt; Pages: 1 -->
<svg width="145pt" height="166pt"
 viewBox="0.00 0.00 145.00 166.00" xmlns="http://www.w3.org/2000/svg" xmlns:xlink="http://www.w3.org/1999/xlink">
<g id="graph0" class="graph" transform="scale(1 1) rotate(0) translate(4 162)">
<title>Property&lt; T &gt;</title>
<polygon fill="white" stroke="none" points="-4,4 -4,-162 141,-162 141,4 -4,4"/>
<!-- Node1 -->
<g id="node1" class="node"><title>Node1</title>
<polygon fill="#bfbfbf" stroke="black" points="40.5,-0.5 40.5,-19.5 117.5,-19.5 117.5,-0.5 40.5,-0.5"/>
<text text-anchor="middle" x="79" y="-7.5" font-family="Helvetica,sans-Serif" font-size="10.00">Property&lt; T &gt;</text>
</g>
<!-- Node2 -->
<g id="node2" class="node"><title>Node2</title>
<g id="a_node2"><a xlink:title="STL class. ">
<polygon fill="white" stroke="#bfbfbf" points="17,-68.5 17,-87.5 77,-87.5 77,-68.5 17,-68.5"/>
<text text-anchor="middle" x="47" y="-75.5" font-family="Helvetica,sans-Serif" font-size="10.00">std::string</text>
</a>
</g>
</g>
<!-- Node2&#45;&gt;Node1 -->
<g id="edge1" class="edge"><title>Node2&#45;&gt;Node1</title>
<path fill="none" stroke="#9a32cd" stroke-dasharray="5,2" d="M44.4526,-58.2718C44.313,-51.5974 45.0803,-44.2028 48,-38 51.5259,-30.5094 58.2215,-24.2634 64.4902,-19.6721"/>
<polygon fill="#9a32cd" stroke="#9a32cd" points="40.9866,-58.8203 45.3237,-68.4867 47.9613,-58.2254 40.9866,-58.8203"/>
<text text-anchor="middle" x="68.5" y="-41.5" font-family="Helvetica,sans-Serif" font-size="10.00"> m_name</text>
</g>
<!-- Node3 -->
<g id="node3" class="node"><title>Node3</title>
<g id="a_node3"><a xlink:title="STL class. ">
<polygon fill="white" stroke="#bfbfbf" points="-0.5,-127 -0.5,-157 94.5,-157 94.5,-127 -0.5,-127"/>
<text text-anchor="start" x="7.5" y="-145" font-family="Helvetica,sans-Serif" font-size="10.00">std::basic_string&lt;</text>
<text text-anchor="middle" x="47" y="-134" font-family="Helvetica,sans-Serif" font-size="10.00"> char &gt;</text>
</a>
</g>
</g>
<!-- Node3&#45;&gt;Node2 -->
<g id="edge2" class="edge"><title>Node3&#45;&gt;Node2</title>
<path fill="none" stroke="midnightblue" d="M47,-116.871C47,-106.663 47,-95.4077 47,-87.8419"/>
<polygon fill="midnightblue" stroke="midnightblue" points="43.5001,-116.931 47,-126.931 50.5001,-116.931 43.5001,-116.931"/>
</g>
<!-- Node4 -->
<g id="node4" class="node"><title>Node4</title>
<polygon fill="white" stroke="#bfbfbf" points="96.5,-68.5 96.5,-87.5 125.5,-87.5 125.5,-68.5 96.5,-68.5"/>
<text text-anchor="middle" x="111" y="-75.5" font-family="Helvetica,sans-Serif" font-size="10.00">T</text>
</g>
<!-- Node4&#45;&gt;Node1 -->
<g id="edge3" class="edge"><title>Node4&#45;&gt;Node1</title>
<path fill="none" stroke="#9a32cd" stroke-dasharray="5,2" d="M102.363,-59.1859C96.189,-46.4523 88.1446,-29.8607 83.2866,-19.8411"/>
<polygon fill="#9a32cd" stroke="#9a32cd" points="99.3044,-60.9005 106.817,-68.3717 105.603,-57.8465 99.3044,-60.9005"/>
<text text-anchor="middle" x="117.5" y="-41.5" font-family="Helvetica,sans-Serif" font-size="10.00"> m_value</text>
</g>
</g>
</svg>
