<?xml version="1.0" encoding="UTF-8" standalone="no"?>
<!DOCTYPE svg PUBLIC "-//W3C//DTD SVG 1.1//EN"
 "http://www.w3.org/Graphics/SVG/1.1/DTD/svg11.dtd">
<!-- Generated by graphviz version 2.36.0 (20140111.2315)
 -->
<!-- Title: GenericBullet Pages: 1 -->
<svg width="163pt" height="164pt"
 viewBox="0.00 0.00 163.00 164.00" xmlns="http://www.w3.org/2000/svg" xmlns:xlink="http://www.w3.org/1999/xlink">
<g id="graph0" class="graph" transform="scale(1 1) rotate(0) translate(4 160)">
<title>GenericBullet</title>
<polygon fill="white" stroke="none" points="-4,4 -4,-160 159,-160 159,4 -4,4"/>
<!-- Node1 -->
<g id="node1" class="node"><title>Node1</title>
<polygon fill="#bfbfbf" stroke="black" points="37.5,-0.5 37.5,-19.5 112.5,-19.5 112.5,-0.5 37.5,-0.5"/>
<text text-anchor="middle" x="75" y="-7.5" font-family="Helvetica,sans-Serif" font-size="10.00">GenericBullet</text>
</g>
<!-- Node2 -->
<g id="node2" class="node"><title>Node2</title>
<g id="a_node2"><a xlink:href="class_bullet.html" target="_top" xlink:title="Bullet">
<polygon fill="white" stroke="black" points="7.5,-68.5 7.5,-87.5 48.5,-87.5 48.5,-68.5 7.5,-68.5"/>
<text text-anchor="middle" x="28" y="-75.5" font-family="Helvetica,sans-Serif" font-size="10.00">Bullet</text>
</a>
</g>
</g>
<!-- Node2&#45;&gt;Node1 -->
<g id="edge1" class="edge"><title>Node2&#45;&gt;Node1</title>
<path fill="none" stroke="midnightblue" d="M40.1504,-59.9377C49.2839,-47.112 61.4276,-30.0591 68.7041,-19.8411"/>
<polygon fill="midnightblue" stroke="midnightblue" points="37.0942,-58.1957 34.1444,-68.3717 42.7962,-62.2562 37.0942,-58.1957"/>
</g>
<!-- Node3 -->
<g id="node3" class="node"><title>Node3</title>
<g id="a_node3"><a xlink:href="class_projectile.html" target="_top" xlink:title="Projectile">
<polygon fill="white" stroke="red" points="-0.5,-136.5 -0.5,-155.5 56.5,-155.5 56.5,-136.5 -0.5,-136.5"/>
<text text-anchor="middle" x="28" y="-143.5" font-family="Helvetica,sans-Serif" font-size="10.00">Projectile</text>
</a>
</g>
</g>
<!-- Node3&#45;&gt;Node2 -->
<g id="edge2" class="edge"><title>Node3&#45;&gt;Node2</title>
<path fill="none" stroke="midnightblue" d="M28,-126.041C28,-113.472 28,-97.5631 28,-87.8411"/>
<polygon fill="midnightblue" stroke="midnightblue" points="24.5001,-126.372 28,-136.372 31.5001,-126.372 24.5001,-126.372"/>
</g>
<!-- Node4 -->
<g id="node4" class="node"><title>Node4</title>
<g id="a_node4"><a xlink:href="class_sound_properties.html" target="_top" xlink:title="SoundProperties">
<polygon fill="white" stroke="black" points="66.5,-68.5 66.5,-87.5 155.5,-87.5 155.5,-68.5 66.5,-68.5"/>
<text text-anchor="middle" x="111" y="-75.5" font-family="Helvetica,sans-Serif" font-size="10.00">SoundProperties</text>
</a>
</g>
</g>
<!-- Node4&#45;&gt;Node1 -->
<g id="edge3" class="edge"><title>Node4&#45;&gt;Node1</title>
<path fill="none" stroke="#9a32cd" stroke-dasharray="5,2" d="M101.489,-59.563C94.5172,-46.7815 85.3418,-29.9599 79.8224,-19.8411"/>
<polygon fill="#9a32cd" stroke="#9a32cd" points="98.4324,-61.2687 106.294,-68.3717 104.578,-57.9167 98.4324,-61.2687"/>
<text text-anchor="middle" x="124.5" y="-41.5" font-family="Helvetica,sans-Serif" font-size="10.00"> m_hitSound</text>
</g>
<!-- Node5 -->
<g id="node5" class="node"><title>Node5</title>
<g id="a_node5"><a xlink:title="STL class. ">
<polygon fill="white" stroke="#bfbfbf" points="81,-136.5 81,-155.5 141,-155.5 141,-136.5 81,-136.5"/>
<text text-anchor="middle" x="111" y="-143.5" font-family="Helvetica,sans-Serif" font-size="10.00">std::string</text>
</a>
</g>
</g>
<!-- Node5&#45;&gt;Node4 -->
<g id="edge4" class="edge"><title>Node5&#45;&gt;Node4</title>
<path fill="none" stroke="#9a32cd" stroke-dasharray="5,2" d="M111,-126.041C111,-113.472 111,-97.5631 111,-87.8411"/>
<polygon fill="#9a32cd" stroke="#9a32cd" points="107.5,-126.372 111,-136.372 114.5,-126.372 107.5,-126.372"/>
<text text-anchor="middle" x="132.5" y="-109.5" font-family="Helvetica,sans-Serif" font-size="10.00"> m_sound</text>
</g>
</g>
</svg>
