<?xml version="1.0" encoding="UTF-8" standalone="no"?>
<!DOCTYPE svg PUBLIC "-//W3C//DTD SVG 1.1//EN"
 "http://www.w3.org/Graphics/SVG/1.1/DTD/svg11.dtd">
<!-- Generated by graphviz version 2.36.0 (20140111.2315)
 -->
<!-- Title: StyleGuide Pages: 1 -->
<svg width="130pt" height="140pt"
 viewBox="0.00 0.00 130.00 140.00" xmlns="http://www.w3.org/2000/svg" xmlns:xlink="http://www.w3.org/1999/xlink">
<g id="graph0" class="graph" transform="scale(1 1) rotate(0) translate(4 136)">
<title>StyleGuide</title>
<polygon fill="white" stroke="none" points="-4,4 -4,-136 126,-136 126,4 -4,4"/>
<!-- Node1 -->
<g id="node1" class="node"><title>Node1</title>
<polygon fill="#bfbfbf" stroke="black" points="28.5,-0.5 28.5,-19.5 93.5,-19.5 93.5,-0.5 28.5,-0.5"/>
<text text-anchor="middle" x="61" y="-7.5" font-family="Helvetica,sans-Serif" font-size="10.00">StyleGuide</text>
</g>
<!-- Node2 -->
<g id="node2" class="node"><title>Node2</title>
<polygon fill="white" stroke="#bfbfbf" points="-0.5,-56.5 -0.5,-75.5 28.5,-75.5 28.5,-56.5 -0.5,-56.5"/>
<text text-anchor="middle" x="14" y="-63.5" font-family="Helvetica,sans-Serif" font-size="10.00">A</text>
</g>
<!-- Node2&#45;&gt;Node1 -->
<g id="edge1" class="edge"><title>Node2&#45;&gt;Node1</title>
<path fill="none" stroke="midnightblue" d="M28.4208,-48.4314C36.6581,-38.9673 46.6539,-27.4827 53.3833,-19.7511"/>
<polygon fill="midnightblue" stroke="midnightblue" points="25.6863,-46.2421 21.7611,-56.083 30.9664,-50.8378 25.6863,-46.2421"/>
</g>
<!-- Node3 -->
<g id="node3" class="node"><title>Node3</title>
<g id="a_node3"><a xlink:href="class_b.html" target="_top" xlink:title="B">
<polygon fill="white" stroke="black" points="46.5,-56.5 46.5,-75.5 75.5,-75.5 75.5,-56.5 46.5,-56.5"/>
<text text-anchor="middle" x="61" y="-63.5" font-family="Helvetica,sans-Serif" font-size="10.00">B</text>
</a>
</g>
</g>
<!-- Node3&#45;&gt;Node1 -->
<g id="edge2" class="edge"><title>Node3&#45;&gt;Node1</title>
<path fill="none" stroke="midnightblue" d="M61,-45.8045C61,-36.9102 61,-26.7798 61,-19.7511"/>
<polygon fill="midnightblue" stroke="midnightblue" points="57.5001,-46.083 61,-56.083 64.5001,-46.083 57.5001,-46.083"/>
</g>
<!-- Node4 -->
<g id="node4" class="node"><title>Node4</title>
<g id="a_node4"><a xlink:href="class_test_state.html" target="_top" xlink:title="TestState">
<polygon fill="white" stroke="red" points="54.5,-112.5 54.5,-131.5 113.5,-131.5 113.5,-112.5 54.5,-112.5"/>
<text text-anchor="middle" x="84" y="-119.5" font-family="Helvetica,sans-Serif" font-size="10.00">TestState</text>
</a>
</g>
</g>
<!-- Node4&#45;&gt;Node3 -->
<g id="edge3" class="edge"><title>Node4&#45;&gt;Node3</title>
<path fill="none" stroke="midnightblue" d="M76.2012,-102.69C72.325,-93.589 67.8208,-83.0141 64.7273,-75.7511"/>
<polygon fill="midnightblue" stroke="midnightblue" points="73.0633,-104.254 80.202,-112.083 79.5034,-101.511 73.0633,-104.254"/>
</g>
<!-- Node5 -->
<g id="node5" class="node"><title>Node5</title>
<g id="a_node5"><a xlink:href="class_c.html" target="_top" xlink:title="C">
<polygon fill="white" stroke="black" points="93.5,-56.5 93.5,-75.5 122.5,-75.5 122.5,-56.5 93.5,-56.5"/>
<text text-anchor="middle" x="108" y="-63.5" font-family="Helvetica,sans-Serif" font-size="10.00">C</text>
</a>
</g>
</g>
<!-- Node4&#45;&gt;Node5 -->
<g id="edge5" class="edge"><title>Node4&#45;&gt;Node5</title>
<path fill="none" stroke="midnightblue" d="M92.1379,-102.69C96.1826,-93.589 100.883,-83.0141 104.111,-75.7511"/>
<polygon fill="midnightblue" stroke="midnightblue" points="88.8262,-101.523 87.9631,-112.083 95.2229,-104.366 88.8262,-101.523"/>
</g>
<!-- Node5&#45;&gt;Node1 -->
<g id="edge4" class="edge"><title>Node5&#45;&gt;Node1</title>
<path fill="none" stroke="#8b1a1a" d="M93.5792,-48.4314C85.3419,-38.9673 75.3461,-27.4827 68.6167,-19.7511"/>
<polygon fill="#8b1a1a" stroke="#8b1a1a" points="91.0336,-50.8378 100.239,-56.083 96.3137,-46.2421 91.0336,-50.8378"/>
</g>
</g>
</svg>
