<?xml version="1.0" encoding="UTF-8" standalone="no"?>
<!DOCTYPE svg PUBLIC "-//W3C//DTD SVG 1.1//EN"
 "http://www.w3.org/Graphics/SVG/1.1/DTD/svg11.dtd">
<!-- Generated by graphviz version 2.36.0 (20140111.2315)
 -->
<!-- Title: VoxelTree Pages: 1 -->
<!--zoomable 447 -->
<svg id="main" version="1.1" xmlns="http://www.w3.org/2000/svg" xmlns:xlink="http://www.w3.org/1999/xlink" xml:space="preserve" onload="init(evt)">
<style type="text/css"><![CDATA[
.edge:hover path { stroke: red; }
.edge:hover polygon { stroke: red; fill: red; }
]]></style>
<script type="text/javascript"><![CDATA[
var edges = document.getElementsByTagName('g');
if (edges && edges.length) {
  for (var i=0;i<edges.length;i++) {
    if (edges[i].id.substr(0,4)=='edge') {
      edges[i].setAttribute('class','edge');
    }
  }
}
]]></script>
        <defs>
                <circle id="rim" cx="0" cy="0" r="7"/>
                <circle id="rim2" cx="0" cy="0" r="3.5"/>
                <g id="zoomPlus">
                        <use xlink:href="#rim" fill="#404040">
                                <set attributeName="fill" to="#808080" begin="zoomplus.mouseover" end="zoomplus.mouseout"/>
                        </use>
                        <path d="M-4,0h8M0,-4v8" fill="none" stroke="white" stroke-width="1.5" pointer-events="none"/>
                </g>
                <g id="zoomMin">
                        <use xlink:href="#rim" fill="#404040">
                                <set attributeName="fill" to="#808080" begin="zoomminus.mouseover" end="zoomminus.mouseout"/>
                        </use>
                        <path d="M-4,0h8" fill="none" stroke="white" stroke-width="1.5" pointer-events="none"/>
                </g>
                <g id="dirArrow">
                        <path fill="none" stroke="white" stroke-width="1.5" d="M0,-3.0v7 M-2.5,-0.5L0,-3.0L2.5,-0.5"/>
                </g>
               <g id="resetDef">
                       <use xlink:href="#rim2" fill="#404040">
                               <set attributeName="fill" to="#808080" begin="reset.mouseover" end="reset.mouseout"/>
                       </use>
               </g>
        </defs>

<script type="text/javascript">
var viewWidth = 714;
var viewHeight = 447;
var sectionId = 'dynsection-0';
</script>
<script xlink:href="svgpan.js"/>
<svg id="graph" class="graph">
<g id="viewport">
<title>VoxelTree</title>
<polygon fill="white" stroke="none" points="-4,4 -4,-443 710,-443 710,4 -4,4"/>
<!-- Node1 -->
<g id="node1" class="node"><title>Node1</title>
<polygon fill="#bfbfbf" stroke="black" points="0,-370.5 0,-389.5 60,-389.5 60,-370.5 0,-370.5"/>
<text text-anchor="middle" x="30" y="-377.5" font-family="Helvetica,sans-Serif" font-size="10.00">VoxelTree</text>
</g>
<!-- Node6 -->
<g id="node6" class="node"><title>Node6</title>
<g id="a_node6"><a xlink:href="class_voxel_tree_node.html" target="_top" xlink:title="VoxelTreeNode">
<polygon fill="white" stroke="red" points="164.5,-390.5 164.5,-409.5 247.5,-409.5 247.5,-390.5 164.5,-390.5"/>
<text text-anchor="middle" x="206" y="-397.5" font-family="Helvetica,sans-Serif" font-size="10.00">VoxelTreeNode</text>
</a>
</g>
</g>
<!-- Node1&#45;&gt;Node6 -->
<g id="edge7" class="edge"><title>Node1&#45;&gt;Node6</title>
<path fill="none" stroke="#9a32cd" stroke-dasharray="5,2" d="M55.0948,-394.385C62.2243,-397.915 70.2118,-401.197 78,-403 106.362,-409.567 139.241,-408.565 164.438,-406.052"/>
<polygon fill="#9a32cd" stroke="#9a32cd" points="56.4739,-391.154 46.0038,-389.533 53.1776,-397.329 56.4739,-391.154"/>
<text text-anchor="middle" x="112" y="-410" font-family="Helvetica,sans-Serif" font-size="10.00"> m_voxelTree</text>
</g>
<!-- Node2 -->
<g id="node2" class="node"><title>Node2</title>
<g id="a_node2"><a xlink:href="class_world_object.html" target="_top" xlink:title="WorldObject">
<polygon fill="white" stroke="black" points="634.5,-204.5 634.5,-223.5 705.5,-223.5 705.5,-204.5 634.5,-204.5"/>
<text text-anchor="middle" x="670" y="-211.5" font-family="Helvetica,sans-Serif" font-size="10.00">WorldObject</text>
</a>
</g>
</g>
<!-- Node2&#45;&gt;Node1 -->
<g id="edge1" class="edge"><title>Node2&#45;&gt;Node1</title>
<path fill="none" stroke="#9a32cd" stroke-dasharray="5,2" d="M661.44,-232.98C653.048,-251.671 637.755,-279.717 616,-296 575.921,-325.999 557.136,-318.412 508,-328 319.534,-364.776 267.763,-340.64 78,-370 72.229,-370.893 66.0999,-372.045 60.2401,-373.248"/>
<polygon fill="#9a32cd" stroke="#9a32cd" points="664.697,-234.265 665.39,-223.692 658.255,-231.525 664.697,-234.265"/>
<text text-anchor="middle" x="306" y="-356" font-family="Helvetica,sans-Serif" font-size="10.00"> m_worldObject</text>
</g>
<!-- Node3 -->
<g id="node3" class="node"><title>Node3</title>
<g id="a_node3"><a xlink:href="class_voxel_cluster.html" target="_top" xlink:title="VoxelCluster">
<polygon fill="white" stroke="red" points="400,-299.5 400,-318.5 472,-318.5 472,-299.5 400,-299.5"/>
<text text-anchor="middle" x="436" y="-306.5" font-family="Helvetica,sans-Serif" font-size="10.00">VoxelCluster</text>
</a>
</g>
</g>
<!-- Node3&#45;&gt;Node2 -->
<g id="edge2" class="edge"><title>Node3&#45;&gt;Node2</title>
<path fill="none" stroke="midnightblue" d="M482.499,-304.881C520.214,-299.92 574.216,-289.143 616,-266 635.395,-255.257 652.653,-235.476 661.891,-223.652"/>
<polygon fill="midnightblue" stroke="midnightblue" points="481.816,-301.439 472.317,-306.132 482.669,-308.386 481.816,-301.439"/>
</g>
<!-- Node4 -->
<g id="node4" class="node"><title>Node4</title>
<g id="a_node4"><a xlink:href="class_scriptable.html" target="_top" xlink:title="Scriptable">
<polygon fill="white" stroke="black" points="406,-261.5 406,-280.5 466,-280.5 466,-261.5 406,-261.5"/>
<text text-anchor="middle" x="436" y="-268.5" font-family="Helvetica,sans-Serif" font-size="10.00">Scriptable</text>
</a>
</g>
</g>
<!-- Node4&#45;&gt;Node2 -->
<g id="edge3" class="edge"><title>Node4&#45;&gt;Node2</title>
<path fill="none" stroke="midnightblue" d="M476.49,-267.866C513.323,-264.133 569.427,-256.362 616,-241 629.141,-236.665 643.046,-229.471 653.315,-223.598"/>
<polygon fill="midnightblue" stroke="midnightblue" points="475.793,-264.417 466.173,-268.856 476.462,-271.385 475.793,-264.417"/>
</g>
<!-- Node5 -->
<g id="node5" class="node"><title>Node5</title>
<g id="a_node5"><a xlink:href="class_voxel.html" target="_top" xlink:title="Voxel">
<polygon fill="white" stroke="red" points="415.5,-375.5 415.5,-394.5 456.5,-394.5 456.5,-375.5 415.5,-375.5"/>
<text text-anchor="middle" x="436" y="-382.5" font-family="Helvetica,sans-Serif" font-size="10.00">Voxel</text>
</a>
</g>
</g>
<!-- Node5&#45;&gt;Node2 -->
<g id="edge4" class="edge"><title>Node5&#45;&gt;Node2</title>
<path fill="none" stroke="#9a32cd" stroke-dasharray="5,2" d="M466.879,-389.483C505.67,-393.555 573.426,-394.475 616,-360 659.589,-324.703 667.334,-250.381 668.706,-223.751"/>
<polygon fill="#9a32cd" stroke="#9a32cd" points="467.095,-385.984 456.751,-388.278 466.268,-392.935 467.095,-385.984"/>
<text text-anchor="middle" x="571" y="-393" font-family="Helvetica,sans-Serif" font-size="10.00"> m_crucialVoxel</text>
</g>
<!-- Node5&#45;&gt;Node6 -->
<g id="edge6" class="edge"><title>Node5&#45;&gt;Node6</title>
<path fill="none" stroke="#9a32cd" stroke-dasharray="5,2" d="M405.183,-381.512C371.266,-378.229 314.32,-374.793 266,-382 254.772,-383.675 242.727,-387.048 232.467,-390.427"/>
<polygon fill="#9a32cd" stroke="#9a32cd" points="405.04,-385.016 415.346,-382.56 405.758,-378.053 405.04,-385.016"/>
<text text-anchor="middle" x="306" y="-385" font-family="Helvetica,sans-Serif" font-size="10.00"> m_voxel</text>
</g>
<!-- Node6&#45;&gt;Node1 -->
<g id="edge15" class="edge"><title>Node6&#45;&gt;Node1</title>
<path fill="none" stroke="#9a32cd" stroke-dasharray="5,2" d="M176.524,-386.441C167.035,-382.595 156.264,-378.93 146,-377 117.147,-371.575 83.5109,-373.369 60.0989,-375.881"/>
<polygon fill="#9a32cd" stroke="#9a32cd" points="175.302,-389.726 185.872,-390.45 178.061,-383.292 175.302,-389.726"/>
<text text-anchor="middle" x="112" y="-391" font-family="Helvetica,sans-Serif" font-size="10.00"> m_currentRoot</text>
<text text-anchor="middle" x="112" y="-380" font-family="Helvetica,sans-Serif" font-size="10.00">m_shadowRoot</text>
</g>
<!-- Node6&#45;&gt;Node5 -->
<g id="edge5" class="edge"><title>Node6&#45;&gt;Node5</title>
<path fill="none" stroke="#9a32cd" stroke-dasharray="5,2" d="M257.921,-399.095C284.244,-398.392 316.874,-397.157 346,-395 369.879,-393.232 397.236,-389.972 415.245,-387.655"/>
<polygon fill="#9a32cd" stroke="#9a32cd" points="257.705,-395.599 247.795,-399.347 257.88,-402.597 257.705,-395.599"/>
<text text-anchor="middle" x="306" y="-401" font-family="Helvetica,sans-Serif" font-size="10.00"> m_voxelTreeNode</text>
</g>
<!-- Node6&#45;&gt;Node6 -->
<g id="edge8" class="edge"><title>Node6&#45;&gt;Node6</title>
<path fill="none" stroke="#9a32cd" stroke-dasharray="5,2" d="M188.593,-419.4C189.756,-424.315 195.558,-428 206,-428 222.707,-428 227.536,-418.565 220.488,-409.757"/>
<polygon fill="#9a32cd" stroke="#9a32cd" points="191.965,-420.342 191.512,-409.757 185.265,-418.314 191.965,-420.342"/>
<text text-anchor="middle" x="206" y="-431" font-family="Helvetica,sans-Serif" font-size="10.00"> m_parent</text>
</g>
<!-- Node7 -->
<g id="node7" class="node"><title>Node7</title>
<polygon fill="white" stroke="#bfbfbf" points="364.5,-223.5 364.5,-242.5 507.5,-242.5 507.5,-223.5 364.5,-223.5"/>
<text text-anchor="middle" x="436" y="-230.5" font-family="Helvetica,sans-Serif" font-size="10.00">std::unique_ptr&lt; ObjectInfo &gt;</text>
</g>
<!-- Node7&#45;&gt;Node2 -->
<g id="edge9" class="edge"><title>Node7&#45;&gt;Node2</title>
<path fill="none" stroke="#9a32cd" stroke-dasharray="5,2" d="M517.554,-226.403C557.472,-223.134 603.584,-219.357 634.339,-216.839"/>
<polygon fill="#9a32cd" stroke="#9a32cd" points="517.233,-222.917 507.553,-227.222 517.805,-229.894 517.233,-222.917"/>
<text text-anchor="middle" x="571" y="-229" font-family="Helvetica,sans-Serif" font-size="10.00"> m_objectInfo</text>
</g>
<!-- Node8 -->
<g id="node8" class="node"><title>Node8</title>
<g id="a_node8"><a xlink:href="class_handle.html" target="_top" xlink:title="Handle\&lt; WorldObject \&gt;">
<polygon fill="white" stroke="black" points="376.5,-185.5 376.5,-204.5 495.5,-204.5 495.5,-185.5 376.5,-185.5"/>
<text text-anchor="middle" x="436" y="-192.5" font-family="Helvetica,sans-Serif" font-size="10.00">Handle&lt; WorldObject &gt;</text>
</a>
</g>
</g>
<!-- Node8&#45;&gt;Node2 -->
<g id="edge10" class="edge"><title>Node8&#45;&gt;Node2</title>
<path fill="none" stroke="#9a32cd" stroke-dasharray="5,2" d="M505.729,-196.266C539.105,-197.438 579.738,-199.688 616,-204 621.951,-204.708 628.239,-205.686 634.323,-206.757"/>
<polygon fill="#9a32cd" stroke="#9a32cd" points="505.725,-192.764 495.616,-195.935 505.497,-199.76 505.725,-192.764"/>
<text text-anchor="middle" x="571" y="-207" font-family="Helvetica,sans-Serif" font-size="10.00"> m_handle</text>
</g>
<!-- Node9 -->
<g id="node9" class="node"><title>Node9</title>
<polygon fill="white" stroke="#bfbfbf" points="369,-147.5 369,-166.5 503,-166.5 503,-147.5 369,-147.5"/>
<text text-anchor="middle" x="436" y="-154.5" font-family="Helvetica,sans-Serif" font-size="10.00">std::unique_ptr&lt; Physics &gt;</text>
</g>
<!-- Node9&#45;&gt;Node2 -->
<g id="edge11" class="edge"><title>Node9&#45;&gt;Node2</title>
<path fill="none" stroke="#9a32cd" stroke-dasharray="5,2" d="M513.366,-161.579C545.705,-165.171 583.372,-171.578 616,-183 630.488,-188.072 645.446,-197.247 655.762,-204.304"/>
<polygon fill="#9a32cd" stroke="#9a32cd" points="513.375,-158.061 503.067,-160.509 512.651,-165.023 513.375,-158.061"/>
<text text-anchor="middle" x="571" y="-186" font-family="Helvetica,sans-Serif" font-size="10.00"> m_physics</text>
</g>
<!-- Node10 -->
<g id="node10" class="node"><title>Node10</title>
<polygon fill="white" stroke="#bfbfbf" points="372.5,-98 372.5,-128 499.5,-128 499.5,-98 372.5,-98"/>
<text text-anchor="start" x="380.5" y="-116" font-family="Helvetica,sans-Serif" font-size="10.00">std::unique_ptr&lt; Collision</text>
<text text-anchor="middle" x="436" y="-105" font-family="Helvetica,sans-Serif" font-size="10.00">Filter &gt;</text>
</g>
<!-- Node10&#45;&gt;Node2 -->
<g id="edge12" class="edge"><title>Node10&#45;&gt;Node2</title>
<path fill="none" stroke="#9a32cd" stroke-dasharray="5,2" d="M509.559,-116.332C543.84,-120.62 584.128,-129.782 616,-149 638.694,-162.684 655.908,-189.764 663.963,-204.276"/>
<polygon fill="#9a32cd" stroke="#9a32cd" points="509.928,-112.851 499.597,-115.199 509.137,-119.806 509.928,-112.851"/>
<text text-anchor="middle" x="571" y="-152" font-family="Helvetica,sans-Serif" font-size="10.00"> m_collisionFilter</text>
</g>
<!-- Node11 -->
<g id="node11" class="node"><title>Node11</title>
<polygon fill="white" stroke="#bfbfbf" points="372.5,-49 372.5,-79 499.5,-79 499.5,-49 372.5,-49"/>
<text text-anchor="start" x="380.5" y="-67" font-family="Helvetica,sans-Serif" font-size="10.00">std::unique_ptr&lt; Collision</text>
<text text-anchor="middle" x="436" y="-56" font-family="Helvetica,sans-Serif" font-size="10.00">Detector &gt;</text>
</g>
<!-- Node11&#45;&gt;Node2 -->
<g id="edge13" class="edge"><title>Node11&#45;&gt;Node2</title>
<path fill="none" stroke="#9a32cd" stroke-dasharray="5,2" d="M509.815,-65.7942C545.083,-70.0268 586.147,-80.3088 616,-104 649.21,-130.355 662.878,-182.669 667.269,-204.295"/>
<polygon fill="#9a32cd" stroke="#9a32cd" points="509.869,-62.2805 499.557,-64.7105 509.134,-69.2418 509.869,-62.2805"/>
<text text-anchor="middle" x="571" y="-107" font-family="Helvetica,sans-Serif" font-size="10.00"> m_collisionDetector</text>
</g>
<!-- Node12 -->
<g id="node12" class="node"><title>Node12</title>
<polygon fill="white" stroke="#bfbfbf" points="364,-0 364,-30 508,-30 508,-0 364,-0"/>
<text text-anchor="start" x="372" y="-18" font-family="Helvetica,sans-Serif" font-size="10.00">std::unique_ptr&lt; WorldObject</text>
<text text-anchor="middle" x="436" y="-7" font-family="Helvetica,sans-Serif" font-size="10.00">Components &gt;</text>
</g>
<!-- Node12&#45;&gt;Node2 -->
<g id="edge14" class="edge"><title>Node12&#45;&gt;Node2</title>
<path fill="none" stroke="#9a32cd" stroke-dasharray="5,2" d="M518.541,-15.58C552.305,-19.8286 589.646,-30.2855 616,-54 661.68,-95.104 668.08,-176.438 668.906,-204.34"/>
<polygon fill="#9a32cd" stroke="#9a32cd" points="518.514,-12.0565 508.194,-14.453 517.756,-19.0153 518.514,-12.0565"/>
<text text-anchor="middle" x="571" y="-57" font-family="Helvetica,sans-Serif" font-size="10.00"> m_components</text>
</g>
</g>
</svg>
        <g id="navigator" transform="translate(0 0)" fill="#404254">
                <rect fill="#f2f5e9" fill-opacity="0.5" stroke="#606060" stroke-width=".5" x="0" y="0" width="60" height="60"/>
                <use id="zoomplus" xlink:href="#zoomPlus" x="17" y="9" onmousedown="handleZoom(evt,'in')"/>
                <use id="zoomminus" xlink:href="#zoomMin" x="42" y="9" onmousedown="handleZoom(evt,'out')"/>
                <use id="reset" xlink:href="#resetDef" x="30" y="36" onmousedown="handleReset()"/>
                <g id="arrowUp" xlink:href="#dirArrow" transform="translate(30 24)" onmousedown="handlePan(0,-1)">
                  <use xlink:href="#rim" fill="#404040">
                        <set attributeName="fill" to="#808080" begin="arrowUp.mouseover" end="arrowUp.mouseout"/>
                  </use>
                  <path fill="none" stroke="white" stroke-width="1.5" d="M0,-3.0v7 M-2.5,-0.5L0,-3.0L2.5,-0.5"/>
                </g>
                <g id="arrowRight" xlink:href="#dirArrow" transform="rotate(90) translate(36 -43)" onmousedown="handlePan(1,0)">
                  <use xlink:href="#rim" fill="#404040">
                        <set attributeName="fill" to="#808080" begin="arrowRight.mouseover" end="arrowRight.mouseout"/>
                  </use>
                  <path fill="none" stroke="white" stroke-width="1.5" d="M0,-3.0v7 M-2.5,-0.5L0,-3.0L2.5,-0.5"/>
                </g>
                <g id="arrowDown" xlink:href="#dirArrow" transform="rotate(180) translate(-30 -48)" onmousedown="handlePan(0,1)">
                  <use xlink:href="#rim" fill="#404040">
                        <set attributeName="fill" to="#808080" begin="arrowDown.mouseover" end="arrowDown.mouseout"/>
                  </use>
                  <path fill="none" stroke="white" stroke-width="1.5" d="M0,-3.0v7 M-2.5,-0.5L0,-3.0L2.5,-0.5"/>
                </g>
                <g id="arrowLeft" xlink:href="#dirArrow" transform="rotate(270) translate(-36 17)" onmousedown="handlePan(-1,0)">
                  <use xlink:href="#rim" fill="#404040">
                        <set attributeName="fill" to="#808080" begin="arrowLeft.mouseover" end="arrowLeft.mouseout"/>
                  </use>
                  <path fill="none" stroke="white" stroke-width="1.5" d="M0,-3.0v7 M-2.5,-0.5L0,-3.0L2.5,-0.5"/>
                </g>
        </g>
        <svg viewBox="0 0 15 15" width="100%" height="30px" preserveAspectRatio="xMaxYMin meet">
         <g id="arrow_out" transform="scale(0.3 0.3)">
          <a xlink:href="class_voxel_tree__coll__graph_org.svg" target="_base">
           <rect id="button" ry="5" rx="5" y="6" x="6" height="38" width="38"
                fill="#f2f5e9" fill-opacity="0.5" stroke="#606060" stroke-width="1.0"/>
           <path id="arrow"
             d="M 11.500037,31.436501 C 11.940474,20.09759 22.043105,11.32322 32.158766,21.979434 L 37.068811,17.246167 C 37.068811,17.246167 37.088388,32 37.088388,32 L 22.160133,31.978069 C 22.160133,31.978069 26.997745,27.140456 26.997745,27.140456 C 18.528582,18.264221 13.291696,25.230495 11.500037,31.436501 z"
             style="fill:#404040;"/>
          </a>
         </g>
        </svg>
</svg>
