<?xml version="1.0" encoding="UTF-8" standalone="no"?>
<!DOCTYPE svg PUBLIC "-//W3C//DTD SVG 1.1//EN"
 "http://www.w3.org/Graphics/SVG/1.1/DTD/svg11.dtd">
<!-- Generated by graphviz version 2.36.0 (20140111.2315)
 -->
<!-- Title: Squad Pages: 1 -->
<!--zoomable 262 -->
<svg id="main" version="1.1" xmlns="http://www.w3.org/2000/svg" xmlns:xlink="http://www.w3.org/1999/xlink" xml:space="preserve" onload="init(evt)">
<style type="text/css"><![CDATA[
.edge:hover path { stroke: red; }
.edge:hover polygon { stroke: red; fill: red; }
]]></style>
<script type="text/javascript"><![CDATA[
var edges = document.getElementsByTagName('g');
if (edges && edges.length) {
  for (var i=0;i<edges.length;i++) {
    if (edges[i].id.substr(0,4)=='edge') {
      edges[i].setAttribute('class','edge');
    }
  }
}
]]></script>
        <defs>
                <circle id="rim" cx="0" cy="0" r="7"/>
                <circle id="rim2" cx="0" cy="0" r="3.5"/>
                <g id="zoomPlus">
                        <use xlink:href="#rim" fill="#404040">
                                <set attributeName="fill" to="#808080" begin="zoomplus.mouseover" end="zoomplus.mouseout"/>
                        </use>
                        <path d="M-4,0h8M0,-4v8" fill="none" stroke="white" stroke-width="1.5" pointer-events="none"/>
                </g>
                <g id="zoomMin">
                        <use xlink:href="#rim" fill="#404040">
                                <set attributeName="fill" to="#808080" begin="zoomminus.mouseover" end="zoomminus.mouseout"/>
                        </use>
                        <path d="M-4,0h8" fill="none" stroke="white" stroke-width="1.5" pointer-events="none"/>
                </g>
                <g id="dirArrow">
                        <path fill="none" stroke="white" stroke-width="1.5" d="M0,-3.0v7 M-2.5,-0.5L0,-3.0L2.5,-0.5"/>
                </g>
               <g id="resetDef">
                       <use xlink:href="#rim2" fill="#404040">
                               <set attributeName="fill" to="#808080" begin="reset.mouseover" end="reset.mouseout"/>
                       </use>
               </g>
        </defs>

<script type="text/javascript">
var viewWidth = 858;
var viewHeight = 262;
var sectionId = 'dynsection-1';
</script>
<script xlink:href="svgpan.js"/>
<svg id="graph" class="graph">
<g id="viewport">
<title>Squad</title>
<polygon fill="white" stroke="none" points="-4,4 -4,-258 854,-258 854,4 -4,4"/>
<!-- Node1 -->
<g id="node1" class="node"><title>Node1</title>
<polygon fill="#bfbfbf" stroke="black" points="806,-160.5 806,-179.5 850,-179.5 850,-160.5 806,-160.5"/>
<text text-anchor="middle" x="828" y="-167.5" font-family="Helvetica,sans-Serif" font-size="10.00">Squad</text>
</g>
<!-- Node2 -->
<g id="node2" class="node"><title>Node2</title>
<g id="a_node2"><a xlink:href="class_scriptable.html" target="_top" xlink:title="Scriptable">
<polygon fill="white" stroke="black" points="30,-230.5 30,-249.5 90,-249.5 90,-230.5 30,-230.5"/>
<text text-anchor="middle" x="60" y="-237.5" font-family="Helvetica,sans-Serif" font-size="10.00">Scriptable</text>
</a>
</g>
</g>
<!-- Node2&#45;&gt;Node1 -->
<g id="edge1" class="edge"><title>Node2&#45;&gt;Node1</title>
<path fill="none" stroke="midnightblue" d="M100.464,-243.961C145.175,-248.101 220.249,-254 285,-254 285,-254 285,-254 660,-254 725.557,-254 791.634,-201.7 816.594,-179.636"/>
<polygon fill="midnightblue" stroke="midnightblue" points="100.601,-240.459 90.3166,-243.003 99.9434,-247.428 100.601,-240.459"/>
</g>
<!-- Node4 -->
<g id="node4" class="node"><title>Node4</title>
<g id="a_node4"><a xlink:href="class_world_object.html" target="_top" xlink:title="WorldObject">
<polygon fill="white" stroke="red" points="250.5,-199.5 250.5,-218.5 321.5,-218.5 321.5,-199.5 250.5,-199.5"/>
<text text-anchor="middle" x="286" y="-206.5" font-family="Helvetica,sans-Serif" font-size="10.00">WorldObject</text>
</a>
</g>
</g>
<!-- Node2&#45;&gt;Node4 -->
<g id="edge4" class="edge"><title>Node2&#45;&gt;Node4</title>
<path fill="none" stroke="midnightblue" d="M100.245,-234.569C142.652,-228.7 209.592,-219.436 250.188,-213.818"/>
<polygon fill="midnightblue" stroke="midnightblue" points="99.7098,-231.109 90.2841,-235.947 100.67,-238.043 99.7098,-231.109"/>
</g>
<!-- Node3 -->
<g id="node3" class="node"><title>Node3</title>
<g id="a_node3"><a xlink:href="class_ship.html" target="_top" xlink:title="Ship">
<polygon fill="white" stroke="black" points="490,-114.5 490,-133.5 526,-133.5 526,-114.5 490,-114.5"/>
<text text-anchor="middle" x="508" y="-121.5" font-family="Helvetica,sans-Serif" font-size="10.00">Ship</text>
</a>
</g>
</g>
<!-- Node3&#45;&gt;Node1 -->
<g id="edge2" class="edge"><title>Node3&#45;&gt;Node1</title>
<path fill="none" stroke="#9a32cd" stroke-dasharray="5,2" d="M535.454,-136.297C538.298,-137.33 541.183,-138.26 544,-139 639.366,-164.063 757.962,-168.889 805.666,-169.799"/>
<polygon fill="#9a32cd" stroke="#9a32cd" points="536.672,-133.015 526.088,-132.52 534.053,-139.507 536.672,-133.015"/>
<text text-anchor="middle" x="659" y="-167" font-family="Helvetica,sans-Serif" font-size="10.00"> m_leader</text>
</g>
<!-- Node10 -->
<g id="node10" class="node"><title>Node10</title>
<polygon fill="white" stroke="#bfbfbf" points="606,-114.5 606,-133.5 712,-133.5 712,-114.5 606,-114.5"/>
<text text-anchor="middle" x="659" y="-121.5" font-family="Helvetica,sans-Serif" font-size="10.00">std::vector&lt; Ship * &gt;</text>
</g>
<!-- Node3&#45;&gt;Node10 -->
<g id="edge12" class="edge"><title>Node3&#45;&gt;Node10</title>
<path fill="none" stroke="#9a32cd" stroke-dasharray="5,2" d="M536.319,-124C555.704,-124 582.33,-124 605.733,-124"/>
<polygon fill="#9a32cd" stroke="#9a32cd" points="536.092,-120.5 526.092,-124 536.092,-127.5 536.092,-120.5"/>
<text text-anchor="middle" x="566" y="-127" font-family="Helvetica,sans-Serif" font-size="10.00"> elements</text>
</g>
<!-- Node4&#45;&gt;Node3 -->
<g id="edge3" class="edge"><title>Node4&#45;&gt;Node3</title>
<path fill="none" stroke="midnightblue" d="M331.865,-213.449C371.905,-215.13 430.462,-211.723 472,-184 490.055,-171.95 500.024,-147.182 504.351,-133.538"/>
<polygon fill="midnightblue" stroke="midnightblue" points="332.027,-209.953 321.853,-212.907 331.649,-216.943 332.027,-209.953"/>
</g>
<!-- Node5 -->
<g id="node5" class="node"><title>Node5</title>
<g id="a_node5"><a xlink:href="class_handle.html" target="_top" xlink:title="Handle\&lt; WorldObject \&gt;">
<polygon fill="white" stroke="black" points="0.5,-182.5 0.5,-201.5 119.5,-201.5 119.5,-182.5 0.5,-182.5"/>
<text text-anchor="middle" x="60" y="-189.5" font-family="Helvetica,sans-Serif" font-size="10.00">Handle&lt; WorldObject &gt;</text>
</a>
</g>
</g>
<!-- Node5&#45;&gt;Node3 -->
<g id="edge6" class="edge"><title>Node5&#45;&gt;Node3</title>
<path fill="none" stroke="#9a32cd" stroke-dasharray="5,2" d="M129.533,-185.48C229.196,-175.603 409.094,-156.178 472,-139 477.995,-137.363 484.306,-134.906 489.893,-132.451"/>
<polygon fill="#9a32cd" stroke="#9a32cd" points="129.165,-181.999 119.557,-186.463 129.852,-188.965 129.165,-181.999"/>
<text text-anchor="middle" x="286" y="-180" font-family="Helvetica,sans-Serif" font-size="10.00"> m_targetObjectHandle</text>
</g>
<!-- Node5&#45;&gt;Node4 -->
<g id="edge5" class="edge"><title>Node5&#45;&gt;Node4</title>
<path fill="none" stroke="#9a32cd" stroke-dasharray="5,2" d="M129.533,-197.201C169.561,-200.239 218.357,-203.942 250.48,-206.38"/>
<polygon fill="#9a32cd" stroke="#9a32cd" points="129.797,-193.711 119.561,-196.444 129.267,-200.691 129.797,-193.711"/>
<text text-anchor="middle" x="161" y="-204" font-family="Helvetica,sans-Serif" font-size="10.00"> m_handle</text>
</g>
<!-- Node6 -->
<g id="node6" class="node"><title>Node6</title>
<polygon fill="white" stroke="#bfbfbf" points="215.5,-114.5 215.5,-133.5 356.5,-133.5 356.5,-114.5 215.5,-114.5"/>
<text text-anchor="middle" x="286" y="-121.5" font-family="Helvetica,sans-Serif" font-size="10.00">std::unique_ptr&lt; Character &gt;</text>
</g>
<!-- Node6&#45;&gt;Node3 -->
<g id="edge7" class="edge"><title>Node6&#45;&gt;Node3</title>
<path fill="none" stroke="#9a32cd" stroke-dasharray="5,2" d="M366.641,-124C411.471,-124 463.6,-124 489.92,-124"/>
<polygon fill="#9a32cd" stroke="#9a32cd" points="366.609,-120.5 356.609,-124 366.609,-127.5 366.609,-120.5"/>
<text text-anchor="middle" x="430" y="-127" font-family="Helvetica,sans-Serif" font-size="10.00"> m_character</text>
</g>
<!-- Node7 -->
<g id="node7" class="node"><title>Node7</title>
<polygon fill="white" stroke="#bfbfbf" points="202.5,-76.5 202.5,-95.5 369.5,-95.5 369.5,-76.5 202.5,-76.5"/>
<text text-anchor="middle" x="286" y="-83.5" font-family="Helvetica,sans-Serif" font-size="10.00">std::unique_ptr&lt; BoardComputer &gt;</text>
</g>
<!-- Node7&#45;&gt;Node3 -->
<g id="edge8" class="edge"><title>Node7&#45;&gt;Node3</title>
<path fill="none" stroke="#9a32cd" stroke-dasharray="5,2" d="M379.89,-92.3902C409.655,-95.8034 442.528,-101.024 472,-109 477.998,-110.623 484.311,-113.077 489.898,-115.532"/>
<polygon fill="#9a32cd" stroke="#9a32cd" points="380.246,-88.9083 369.925,-91.3005 379.485,-95.8668 380.246,-88.9083"/>
<text text-anchor="middle" x="430" y="-112" font-family="Helvetica,sans-Serif" font-size="10.00"> m_boardComputer</text>
</g>
<!-- Node8 -->
<g id="node8" class="node"><title>Node8</title>
<g id="a_node8"><a xlink:href="class_handle.html" target="_top" xlink:title="Handle\&lt; Ship \&gt;">
<polygon fill="white" stroke="black" points="244,-38.5 244,-57.5 328,-57.5 328,-38.5 244,-38.5"/>
<text text-anchor="middle" x="286" y="-45.5" font-family="Helvetica,sans-Serif" font-size="10.00">Handle&lt; Ship &gt;</text>
</a>
</g>
</g>
<!-- Node8&#45;&gt;Node3 -->
<g id="edge9" class="edge"><title>Node8&#45;&gt;Node3</title>
<path fill="none" stroke="#9a32cd" stroke-dasharray="5,2" d="M338.277,-46.7846C377.453,-48.0719 431.436,-54.8013 472,-79 486.11,-87.4173 496.637,-103.84 502.296,-114.346"/>
<polygon fill="#9a32cd" stroke="#9a32cd" points="338.224,-43.2826 328.149,-46.5612 338.07,-50.2809 338.224,-43.2826"/>
<text text-anchor="middle" x="430" y="-82" font-family="Helvetica,sans-Serif" font-size="10.00"> m_shipHandle</text>
</g>
<!-- Node9 -->
<g id="node9" class="node"><title>Node9</title>
<polygon fill="white" stroke="#bfbfbf" points="211,-0.5 211,-19.5 361,-19.5 361,-0.5 211,-0.5"/>
<text text-anchor="middle" x="286" y="-7.5" font-family="Helvetica,sans-Serif" font-size="10.00">std::unique_ptr&lt; SquadLogic &gt;</text>
</g>
<!-- Node9&#45;&gt;Node3 -->
<g id="edge10" class="edge"><title>Node9&#45;&gt;Node3</title>
<path fill="none" stroke="#9a32cd" stroke-dasharray="5,2" d="M371.382,-4.77971C405.747,-6.81449 443.907,-14.8972 472,-37 496.695,-56.4289 504.048,-96.0113 506.171,-114.317"/>
<polygon fill="#9a32cd" stroke="#9a32cd" points="371.471,-1.28038 361.329,-4.34626 371.169,-8.27388 371.471,-1.28038"/>
<text text-anchor="middle" x="430" y="-40" font-family="Helvetica,sans-Serif" font-size="10.00"> m_squadLogic</text>
</g>
<!-- Node10&#45;&gt;Node1 -->
<g id="edge11" class="edge"><title>Node10&#45;&gt;Node1</title>
<path fill="none" stroke="#9a32cd" stroke-dasharray="5,2" d="M721.992,-129.011C743.401,-132.08 767.218,-137.027 788,-145 797.611,-148.687 807.361,-154.937 814.709,-160.266"/>
<polygon fill="#9a32cd" stroke="#9a32cd" points="722.396,-125.534 712.023,-127.69 721.476,-132.474 722.396,-125.534"/>
<text text-anchor="middle" x="759" y="-148" font-family="Helvetica,sans-Serif" font-size="10.00"> m_members</text>
</g>
</g>
</svg>
        <g id="navigator" transform="translate(0 0)" fill="#404254">
                <rect fill="#f2f5e9" fill-opacity="0.5" stroke="#606060" stroke-width=".5" x="0" y="0" width="60" height="60"/>
                <use id="zoomplus" xlink:href="#zoomPlus" x="17" y="9" onmousedown="handleZoom(evt,'in')"/>
                <use id="zoomminus" xlink:href="#zoomMin" x="42" y="9" onmousedown="handleZoom(evt,'out')"/>
                <use id="reset" xlink:href="#resetDef" x="30" y="36" onmousedown="handleReset()"/>
                <g id="arrowUp" xlink:href="#dirArrow" transform="translate(30 24)" onmousedown="handlePan(0,-1)">
                  <use xlink:href="#rim" fill="#404040">
                        <set attributeName="fill" to="#808080" begin="arrowUp.mouseover" end="arrowUp.mouseout"/>
                  </use>
                  <path fill="none" stroke="white" stroke-width="1.5" d="M0,-3.0v7 M-2.5,-0.5L0,-3.0L2.5,-0.5"/>
                </g>
                <g id="arrowRight" xlink:href="#dirArrow" transform="rotate(90) translate(36 -43)" onmousedown="handlePan(1,0)">
                  <use xlink:href="#rim" fill="#404040">
                        <set attributeName="fill" to="#808080" begin="arrowRight.mouseover" end="arrowRight.mouseout"/>
                  </use>
                  <path fill="none" stroke="white" stroke-width="1.5" d="M0,-3.0v7 M-2.5,-0.5L0,-3.0L2.5,-0.5"/>
                </g>
                <g id="arrowDown" xlink:href="#dirArrow" transform="rotate(180) translate(-30 -48)" onmousedown="handlePan(0,1)">
                  <use xlink:href="#rim" fill="#404040">
                        <set attributeName="fill" to="#808080" begin="arrowDown.mouseover" end="arrowDown.mouseout"/>
                  </use>
                  <path fill="none" stroke="white" stroke-width="1.5" d="M0,-3.0v7 M-2.5,-0.5L0,-3.0L2.5,-0.5"/>
                </g>
                <g id="arrowLeft" xlink:href="#dirArrow" transform="rotate(270) translate(-36 17)" onmousedown="handlePan(-1,0)">
                  <use xlink:href="#rim" fill="#404040">
                        <set attributeName="fill" to="#808080" begin="arrowLeft.mouseover" end="arrowLeft.mouseout"/>
                  </use>
                  <path fill="none" stroke="white" stroke-width="1.5" d="M0,-3.0v7 M-2.5,-0.5L0,-3.0L2.5,-0.5"/>
                </g>
        </g>
        <svg viewBox="0 0 15 15" width="100%" height="30px" preserveAspectRatio="xMaxYMin meet">
         <g id="arrow_out" transform="scale(0.3 0.3)">
          <a xlink:href="class_squad__coll__graph_org.svg" target="_base">
           <rect id="button" ry="5" rx="5" y="6" x="6" height="38" width="38"
                fill="#f2f5e9" fill-opacity="0.5" stroke="#606060" stroke-width="1.0"/>
           <path id="arrow"
             d="M 11.500037,31.436501 C 11.940474,20.09759 22.043105,11.32322 32.158766,21.979434 L 37.068811,17.246167 C 37.068811,17.246167 37.088388,32 37.088388,32 L 22.160133,31.978069 C 22.160133,31.978069 26.997745,27.140456 26.997745,27.140456 C 18.528582,18.264221 13.291696,25.230495 11.500037,31.436501 z"
             style="fill:#404040;"/>
          </a>
         </g>
        </svg>
</svg>
