<?xml version="1.0" encoding="UTF-8" standalone="no"?>
<!DOCTYPE svg PUBLIC "-//W3C//DTD SVG 1.1//EN"
 "http://www.w3.org/Graphics/SVG/1.1/DTD/svg11.dtd">
<!-- Generated by graphviz version 2.36.0 (20140111.2315)
 -->
<!-- Title: PatrolWaypointsTask Pages: 1 -->
<svg width="210pt" height="232pt"
 viewBox="0.00 0.00 210.00 232.00" xmlns="http://www.w3.org/2000/svg" xmlns:xlink="http://www.w3.org/1999/xlink">
<g id="graph0" class="graph" transform="scale(1 1) rotate(0) translate(4 228)">
<title>PatrolWaypointsTask</title>
<polygon fill="white" stroke="none" points="-4,4 -4,-228 206,-228 206,4 -4,4"/>
<!-- Node1 -->
<g id="node1" class="node"><title>Node1</title>
<polygon fill="#bfbfbf" stroke="black" points="62,-0.5 62,-19.5 172,-19.5 172,-0.5 62,-0.5"/>
<text text-anchor="middle" x="117" y="-7.5" font-family="Helvetica,sans-Serif" font-size="10.00">PatrolWaypointsTask</text>
</g>
<!-- Node2 -->
<g id="node2" class="node"><title>Node2</title>
<g id="a_node2"><a xlink:href="class_ai_group_task.html" target="_top" xlink:title="AiGroupTask">
<polygon fill="white" stroke="black" points="-0.5,-78.5 -0.5,-97.5 72.5,-97.5 72.5,-78.5 -0.5,-78.5"/>
<text text-anchor="middle" x="36" y="-85.5" font-family="Helvetica,sans-Serif" font-size="10.00">AiGroupTask</text>
</a>
</g>
</g>
<!-- Node2&#45;&gt;Node1 -->
<g id="edge1" class="edge"><title>Node2&#45;&gt;Node1</title>
<path fill="none" stroke="midnightblue" d="M52.7286,-71.3041C69.4208,-55.6422 94.452,-32.1562 107.817,-19.6165"/>
<polygon fill="midnightblue" stroke="midnightblue" points="50.1895,-68.887 45.2917,-78.2818 54.9792,-73.9918 50.1895,-68.887"/>
</g>
<!-- Node3 -->
<g id="node3" class="node"><title>Node3</title>
<g id="a_node3"><a xlink:href="class_scriptable.html" target="_top" xlink:title="Scriptable">
<polygon fill="white" stroke="black" points="8,-204.5 8,-223.5 68,-223.5 68,-204.5 8,-204.5"/>
<text text-anchor="middle" x="38" y="-211.5" font-family="Helvetica,sans-Serif" font-size="10.00">Scriptable</text>
</a>
</g>
</g>
<!-- Node3&#45;&gt;Node2 -->
<g id="edge2" class="edge"><title>Node3&#45;&gt;Node2</title>
<path fill="none" stroke="midnightblue" d="M37.6986,-194.312C37.2589,-167.05 36.4591,-117.463 36.1384,-97.5827"/>
<polygon fill="midnightblue" stroke="midnightblue" points="34.2016,-194.535 37.8625,-204.477 41.2007,-194.422 34.2016,-194.535"/>
</g>
<!-- Node4 -->
<g id="node4" class="node"><title>Node4</title>
<g id="a_node4"><a xlink:href="class_squad.html" target="_top" xlink:title="Squad">
<polygon fill="white" stroke="red" points="48,-146.5 48,-165.5 92,-165.5 92,-146.5 48,-146.5"/>
<text text-anchor="middle" x="70" y="-153.5" font-family="Helvetica,sans-Serif" font-size="10.00">Squad</text>
</a>
</g>
</g>
<!-- Node3&#45;&gt;Node4 -->
<g id="edge4" class="edge"><title>Node3&#45;&gt;Node4</title>
<path fill="none" stroke="midnightblue" d="M47.992,-195.514C53.7017,-185.522 60.6056,-173.44 65.1399,-165.505"/>
<polygon fill="midnightblue" stroke="midnightblue" points="44.9226,-193.831 43,-204.25 51.0003,-197.304 44.9226,-193.831"/>
</g>
<!-- Node4&#45;&gt;Node2 -->
<g id="edge3" class="edge"><title>Node4&#45;&gt;Node2</title>
<path fill="none" stroke="#9a32cd" stroke-dasharray="5,2" d="M60.823,-137.186C54.2633,-124.452 45.7161,-107.861 40.5545,-97.8411"/>
<polygon fill="#9a32cd" stroke="#9a32cd" points="57.8641,-139.085 65.5551,-146.372 64.0869,-135.879 57.8641,-139.085"/>
<text text-anchor="middle" x="78.5" y="-119.5" font-family="Helvetica,sans-Serif" font-size="10.00"> m_squad</text>
</g>
<!-- Node5 -->
<g id="node5" class="node"><title>Node5</title>
<polygon fill="white" stroke="#bfbfbf" points="91,-78.5 91,-97.5 199,-97.5 199,-78.5 91,-78.5"/>
<text text-anchor="middle" x="145" y="-85.5" font-family="Helvetica,sans-Serif" font-size="10.00">std::list&lt; glm::vec3 &gt;</text>
</g>
<!-- Node5&#45;&gt;Node1 -->
<g id="edge5" class="edge"><title>Node5&#45;&gt;Node1</title>
<path fill="none" stroke="#9a32cd" stroke-dasharray="5,2" d="M138.248,-68.6744C132.515,-53.1127 124.542,-31.4722 120.174,-19.6165"/>
<polygon fill="#9a32cd" stroke="#9a32cd" points="135.047,-70.1084 141.788,-78.2818 141.615,-67.6884 135.047,-70.1084"/>
<text text-anchor="middle" x="168.5" y="-52" font-family="Helvetica,sans-Serif" font-size="10.00"> m_points</text>
<text text-anchor="middle" x="168.5" y="-41" font-family="Helvetica,sans-Serif" font-size="10.00">m_currentPoint</text>
</g>
</g>
</svg>
