<?xml version="1.0" encoding="UTF-8" standalone="no"?>
<!DOCTYPE svg PUBLIC "-//W3C//DTD SVG 1.1//EN"
 "http://www.w3.org/Graphics/SVG/1.1/DTD/svg11.dtd">
<!-- Generated by graphviz version 2.36.0 (20140111.2315)
 -->
<!-- Title: CollisionFilter Pages: 1 -->
<svg width="478pt" height="412pt"
 viewBox="0.00 0.00 478.00 412.00" xmlns="http://www.w3.org/2000/svg" xmlns:xlink="http://www.w3.org/1999/xlink">
<g id="graph0" class="graph" transform="scale(1 1) rotate(0) translate(4 408)">
<title>CollisionFilter</title>
<polygon fill="white" stroke="none" points="-4,4 -4,-408 474,-408 474,4 -4,4"/>
<!-- Node1 -->
<g id="node1" class="node"><title>Node1</title>
<polygon fill="#bfbfbf" stroke="black" points="0.5,-353.5 0.5,-372.5 75.5,-372.5 75.5,-353.5 0.5,-353.5"/>
<text text-anchor="middle" x="38" y="-360.5" font-family="Helvetica,sans-Serif" font-size="10.00">CollisionFilter</text>
</g>
<!-- Node9 -->
<g id="node9" class="node"><title>Node9</title>
<polygon fill="white" stroke="#bfbfbf" points="136.5,-374 136.5,-404 263.5,-404 263.5,-374 136.5,-374"/>
<text text-anchor="start" x="144.5" y="-392" font-family="Helvetica,sans-Serif" font-size="10.00">std::unique_ptr&lt; Collision</text>
<text text-anchor="middle" x="200" y="-381" font-family="Helvetica,sans-Serif" font-size="10.00">Filter &gt;</text>
</g>
<!-- Node1&#45;&gt;Node9 -->
<g id="edge9" class="edge"><title>Node1&#45;&gt;Node9</title>
<path fill="none" stroke="#9a32cd" stroke-dasharray="5,2" d="M85.7767,-370.601C101.614,-373.175 119.563,-376.091 136.426,-378.832"/>
<polygon fill="#9a32cd" stroke="#9a32cd" points="86.1392,-367.114 75.7072,-368.965 85.0163,-374.024 86.1392,-367.114"/>
<text text-anchor="middle" x="102" y="-378" font-family="Helvetica,sans-Serif" font-size="10.00"> ptr</text>
</g>
<!-- Node2 -->
<g id="node2" class="node"><title>Node2</title>
<g id="a_node2"><a xlink:href="class_world_object.html" target="_top" xlink:title="WorldObject">
<polygon fill="white" stroke="black" points="398.5,-193.5 398.5,-212.5 469.5,-212.5 469.5,-193.5 398.5,-193.5"/>
<text text-anchor="middle" x="434" y="-200.5" font-family="Helvetica,sans-Serif" font-size="10.00">WorldObject</text>
</a>
</g>
</g>
<!-- Node2&#45;&gt;Node1 -->
<g id="edge1" class="edge"><title>Node2&#45;&gt;Node1</title>
<path fill="none" stroke="#9a32cd" stroke-dasharray="5,2" d="M425.44,-221.98C417.048,-240.671 401.755,-268.717 380,-285 331.745,-321.118 153.303,-348.121 75.5784,-358.429"/>
<polygon fill="#9a32cd" stroke="#9a32cd" points="428.697,-223.265 429.39,-212.692 422.255,-220.525 428.697,-223.265"/>
<text text-anchor="middle" x="200" y="-354" font-family="Helvetica,sans-Serif" font-size="10.00"> m_owner</text>
</g>
<!-- Node3 -->
<g id="node3" class="node"><title>Node3</title>
<g id="a_node3"><a xlink:href="class_voxel_cluster.html" target="_top" xlink:title="VoxelCluster">
<polygon fill="white" stroke="red" points="164,-288.5 164,-307.5 236,-307.5 236,-288.5 164,-288.5"/>
<text text-anchor="middle" x="200" y="-295.5" font-family="Helvetica,sans-Serif" font-size="10.00">VoxelCluster</text>
</a>
</g>
</g>
<!-- Node3&#45;&gt;Node2 -->
<g id="edge2" class="edge"><title>Node3&#45;&gt;Node2</title>
<path fill="none" stroke="midnightblue" d="M246.499,-293.881C284.214,-288.92 338.216,-278.143 380,-255 399.395,-244.257 416.653,-224.476 425.891,-212.652"/>
<polygon fill="midnightblue" stroke="midnightblue" points="245.816,-290.439 236.317,-295.132 246.669,-297.386 245.816,-290.439"/>
</g>
<!-- Node4 -->
<g id="node4" class="node"><title>Node4</title>
<g id="a_node4"><a xlink:href="class_scriptable.html" target="_top" xlink:title="Scriptable">
<polygon fill="white" stroke="black" points="170,-250.5 170,-269.5 230,-269.5 230,-250.5 170,-250.5"/>
<text text-anchor="middle" x="200" y="-257.5" font-family="Helvetica,sans-Serif" font-size="10.00">Scriptable</text>
</a>
</g>
</g>
<!-- Node4&#45;&gt;Node2 -->
<g id="edge3" class="edge"><title>Node4&#45;&gt;Node2</title>
<path fill="none" stroke="midnightblue" d="M240.49,-256.866C277.323,-253.133 333.427,-245.362 380,-230 393.141,-225.665 407.046,-218.471 417.315,-212.598"/>
<polygon fill="midnightblue" stroke="midnightblue" points="239.793,-253.417 230.173,-257.856 240.462,-260.385 239.793,-253.417"/>
</g>
<!-- Node5 -->
<g id="node5" class="node"><title>Node5</title>
<g id="a_node5"><a xlink:href="class_voxel.html" target="_top" xlink:title="Voxel">
<polygon fill="white" stroke="red" points="179.5,-212.5 179.5,-231.5 220.5,-231.5 220.5,-212.5 179.5,-212.5"/>
<text text-anchor="middle" x="200" y="-219.5" font-family="Helvetica,sans-Serif" font-size="10.00">Voxel</text>
</a>
</g>
</g>
<!-- Node5&#45;&gt;Node2 -->
<g id="edge4" class="edge"><title>Node5&#45;&gt;Node2</title>
<path fill="none" stroke="#9a32cd" stroke-dasharray="5,2" d="M230.889,-219.552C273.876,-216.032 352.973,-209.554 398.424,-205.832"/>
<polygon fill="#9a32cd" stroke="#9a32cd" points="230.461,-216.075 220.78,-220.38 231.033,-223.052 230.461,-216.075"/>
<text text-anchor="middle" x="335" y="-218" font-family="Helvetica,sans-Serif" font-size="10.00"> m_crucialVoxel</text>
</g>
<!-- Node6 -->
<g id="node6" class="node"><title>Node6</title>
<polygon fill="white" stroke="#bfbfbf" points="128.5,-174.5 128.5,-193.5 271.5,-193.5 271.5,-174.5 128.5,-174.5"/>
<text text-anchor="middle" x="200" y="-181.5" font-family="Helvetica,sans-Serif" font-size="10.00">std::unique_ptr&lt; ObjectInfo &gt;</text>
</g>
<!-- Node6&#45;&gt;Node2 -->
<g id="edge5" class="edge"><title>Node6&#45;&gt;Node2</title>
<path fill="none" stroke="#9a32cd" stroke-dasharray="5,2" d="M281.998,-185.734C312.764,-187.006 348.076,-189.204 380,-193 385.951,-193.708 392.239,-194.686 398.323,-195.757"/>
<polygon fill="#9a32cd" stroke="#9a32cd" points="281.878,-182.227 271.75,-185.338 281.607,-189.222 281.878,-182.227"/>
<text text-anchor="middle" x="335" y="-196" font-family="Helvetica,sans-Serif" font-size="10.00"> m_objectInfo</text>
</g>
<!-- Node7 -->
<g id="node7" class="node"><title>Node7</title>
<g id="a_node7"><a xlink:href="class_handle.html" target="_top" xlink:title="Handle\&lt; WorldObject \&gt;">
<polygon fill="white" stroke="black" points="140.5,-136.5 140.5,-155.5 259.5,-155.5 259.5,-136.5 140.5,-136.5"/>
<text text-anchor="middle" x="200" y="-143.5" font-family="Helvetica,sans-Serif" font-size="10.00">Handle&lt; WorldObject &gt;</text>
</a>
</g>
</g>
<!-- Node7&#45;&gt;Node2 -->
<g id="edge6" class="edge"><title>Node7&#45;&gt;Node2</title>
<path fill="none" stroke="#9a32cd" stroke-dasharray="5,2" d="M269.861,-149.785C303.766,-153.197 344.813,-159.682 380,-172 394.488,-177.072 409.446,-186.247 419.762,-193.304"/>
<polygon fill="#9a32cd" stroke="#9a32cd" points="269.866,-146.27 259.583,-148.821 269.213,-153.239 269.866,-146.27"/>
<text text-anchor="middle" x="335" y="-175" font-family="Helvetica,sans-Serif" font-size="10.00"> m_handle</text>
</g>
<!-- Node8 -->
<g id="node8" class="node"><title>Node8</title>
<polygon fill="white" stroke="#bfbfbf" points="133,-98.5 133,-117.5 267,-117.5 267,-98.5 133,-98.5"/>
<text text-anchor="middle" x="200" y="-105.5" font-family="Helvetica,sans-Serif" font-size="10.00">std::unique_ptr&lt; Physics &gt;</text>
</g>
<!-- Node8&#45;&gt;Node2 -->
<g id="edge7" class="edge"><title>Node8&#45;&gt;Node2</title>
<path fill="none" stroke="#9a32cd" stroke-dasharray="5,2" d="M277.495,-108.894C310.847,-112.193 349.261,-120.138 380,-138 402.913,-151.314 420.034,-178.55 428.018,-193.184"/>
<polygon fill="#9a32cd" stroke="#9a32cd" points="277.585,-105.389 267.321,-108.013 276.981,-112.363 277.585,-105.389"/>
<text text-anchor="middle" x="335" y="-141" font-family="Helvetica,sans-Serif" font-size="10.00"> m_physics</text>
</g>
<!-- Node9&#45;&gt;Node2 -->
<g id="edge8" class="edge"><title>Node9&#45;&gt;Node2</title>
<path fill="none" stroke="#9a32cd" stroke-dasharray="5,2" d="M273.974,-392.877C309.671,-390.996 351.067,-382.688 380,-358 425.215,-319.418 431.928,-240.523 432.869,-212.854"/>
<polygon fill="#9a32cd" stroke="#9a32cd" points="273.453,-389.394 263.587,-393.256 273.708,-396.389 273.453,-389.394"/>
<text text-anchor="middle" x="335" y="-394" font-family="Helvetica,sans-Serif" font-size="10.00"> m_collisionFilter</text>
</g>
<!-- Node10 -->
<g id="node10" class="node"><title>Node10</title>
<polygon fill="white" stroke="#bfbfbf" points="136.5,-49 136.5,-79 263.5,-79 263.5,-49 136.5,-49"/>
<text text-anchor="start" x="144.5" y="-67" font-family="Helvetica,sans-Serif" font-size="10.00">std::unique_ptr&lt; Collision</text>
<text text-anchor="middle" x="200" y="-56" font-family="Helvetica,sans-Serif" font-size="10.00">Detector &gt;</text>
</g>
<!-- Node10&#45;&gt;Node2 -->
<g id="edge10" class="edge"><title>Node10&#45;&gt;Node2</title>
<path fill="none" stroke="#9a32cd" stroke-dasharray="5,2" d="M273.906,-62.2931C309.006,-64.9146 349.897,-73.4041 380,-96 413.159,-120.89 426.856,-172.197 431.261,-193.453"/>
<polygon fill="#9a32cd" stroke="#9a32cd" points="273.889,-58.7858 263.697,-61.6804 273.47,-65.7733 273.889,-58.7858"/>
<text text-anchor="middle" x="335" y="-99" font-family="Helvetica,sans-Serif" font-size="10.00"> m_collisionDetector</text>
</g>
<!-- Node11 -->
<g id="node11" class="node"><title>Node11</title>
<polygon fill="white" stroke="#bfbfbf" points="128,-0 128,-30 272,-30 272,-0 128,-0"/>
<text text-anchor="start" x="136" y="-18" font-family="Helvetica,sans-Serif" font-size="10.00">std::unique_ptr&lt; WorldObject</text>
<text text-anchor="middle" x="200" y="-7" font-family="Helvetica,sans-Serif" font-size="10.00">Components &gt;</text>
</g>
<!-- Node11&#45;&gt;Node2 -->
<g id="edge11" class="edge"><title>Node11&#45;&gt;Node2</title>
<path fill="none" stroke="#9a32cd" stroke-dasharray="5,2" d="M282.672,-13.7806C316.278,-17.3067 353.461,-26.9475 380,-50 424.355,-88.5283 431.612,-166.125 432.782,-193.318"/>
<polygon fill="#9a32cd" stroke="#9a32cd" points="282.642,-10.2645 272.374,-12.8746 282.029,-17.2376 282.642,-10.2645"/>
<text text-anchor="middle" x="335" y="-53" font-family="Helvetica,sans-Serif" font-size="10.00"> m_components</text>
</g>
</g>
</svg>
