<?xml version="1.0" encoding="UTF-8" standalone="no"?>
<!DOCTYPE svg PUBLIC "-//W3C//DTD SVG 1.1//EN"
 "http://www.w3.org/Graphics/SVG/1.1/DTD/svg11.dtd">
<!-- Generated by graphviz version 2.36.0 (20140111.2315)
 -->
<!-- Title: GamePlayPaused Pages: 1 -->
<!--zoomable 316 -->
<svg id="main" version="1.1" xmlns="http://www.w3.org/2000/svg" xmlns:xlink="http://www.w3.org/1999/xlink" xml:space="preserve" onload="init(evt)">
<style type="text/css"><![CDATA[
.edge:hover path { stroke: red; }
.edge:hover polygon { stroke: red; fill: red; }
]]></style>
<script type="text/javascript"><![CDATA[
var edges = document.getElementsByTagName('g');
if (edges && edges.length) {
  for (var i=0;i<edges.length;i++) {
    if (edges[i].id.substr(0,4)=='edge') {
      edges[i].setAttribute('class','edge');
    }
  }
}
]]></script>
        <defs>
                <circle id="rim" cx="0" cy="0" r="7"/>
                <circle id="rim2" cx="0" cy="0" r="3.5"/>
                <g id="zoomPlus">
                        <use xlink:href="#rim" fill="#404040">
                                <set attributeName="fill" to="#808080" begin="zoomplus.mouseover" end="zoomplus.mouseout"/>
                        </use>
                        <path d="M-4,0h8M0,-4v8" fill="none" stroke="white" stroke-width="1.5" pointer-events="none"/>
                </g>
                <g id="zoomMin">
                        <use xlink:href="#rim" fill="#404040">
                                <set attributeName="fill" to="#808080" begin="zoomminus.mouseover" end="zoomminus.mouseout"/>
                        </use>
                        <path d="M-4,0h8" fill="none" stroke="white" stroke-width="1.5" pointer-events="none"/>
                </g>
                <g id="dirArrow">
                        <path fill="none" stroke="white" stroke-width="1.5" d="M0,-3.0v7 M-2.5,-0.5L0,-3.0L2.5,-0.5"/>
                </g>
               <g id="resetDef">
                       <use xlink:href="#rim2" fill="#404040">
                               <set attributeName="fill" to="#808080" begin="reset.mouseover" end="reset.mouseout"/>
                       </use>
               </g>
        </defs>

<script type="text/javascript">
var viewWidth = 836;
var viewHeight = 316;
var sectionId = 'dynsection-1';
</script>
<script xlink:href="svgpan.js"/>
<svg id="graph" class="graph">
<g id="viewport">
<title>GamePlayPaused</title>
<polygon fill="white" stroke="none" points="-4,4 -4,-311.844 832,-311.844 832,4 -4,4"/>
<!-- Node1 -->
<g id="node1" class="node"><title>Node1</title>
<polygon fill="#bfbfbf" stroke="black" points="322.5,-86.5 322.5,-105.5 417.5,-105.5 417.5,-86.5 322.5,-86.5"/>
<text text-anchor="middle" x="370" y="-93.5" font-family="Helvetica,sans-Serif" font-size="10.00">GamePlayPaused</text>
</g>
<!-- Node4 -->
<g id="node4" class="node"><title>Node4</title>
<g id="a_node4"><a xlink:href="class_game_play.html" target="_top" xlink:title="GamePlay">
<polygon fill="white" stroke="black" points="560,-139.5 560,-158.5 622,-158.5 622,-139.5 560,-139.5"/>
<text text-anchor="middle" x="591" y="-146.5" font-family="Helvetica,sans-Serif" font-size="10.00">GamePlay</text>
</a>
</g>
</g>
<!-- Node1&#45;&gt;Node4 -->
<g id="edge17" class="edge"><title>Node1&#45;&gt;Node4</title>
<path fill="none" stroke="#9a32cd" stroke-dasharray="5,2" d="M410.225,-83.917C446.343,-75.0914 500.457,-67.8271 542,-88 564.062,-98.7133 579.016,-125.025 585.817,-139.341"/>
<polygon fill="#9a32cd" stroke="#9a32cd" points="409.343,-80.5299 400.541,-86.4262 411.099,-87.3061 409.343,-80.5299"/>
<text text-anchor="middle" x="505" y="-91" font-family="Helvetica,sans-Serif" font-size="10.00"> m_pausedState</text>
</g>
<!-- Node2 -->
<g id="node2" class="node"><title>Node2</title>
<g id="a_node2"><a xlink:href="class_game_state.html" target="_top" xlink:title="GameState">
<polygon fill="white" stroke="black" points="104,-112.5 104,-131.5 170,-131.5 170,-112.5 104,-112.5"/>
<text text-anchor="middle" x="137" y="-119.5" font-family="Helvetica,sans-Serif" font-size="10.00">GameState</text>
</a>
</g>
</g>
<!-- Node2&#45;&gt;Node1 -->
<g id="edge1" class="edge"><title>Node2&#45;&gt;Node1</title>
<path fill="none" stroke="midnightblue" d="M180.131,-117.258C220.329,-112.734 280.76,-105.932 322.384,-101.247"/>
<polygon fill="midnightblue" stroke="midnightblue" points="179.665,-113.788 170.12,-118.385 180.448,-120.744 179.665,-113.788"/>
</g>
<!-- Node2&#45;&gt;Node2 -->
<g id="edge4" class="edge"><title>Node2&#45;&gt;Node2</title>
<path fill="none" stroke="#9a32cd" stroke-dasharray="5,2" d="M127.424,-141.766C128.176,-146.497 131.368,-150 137,-150 146.242,-150 148.914,-140.565 145.015,-131.757"/>
<polygon fill="#9a32cd" stroke="#9a32cd" points="130.902,-142.177 128.985,-131.757 123.986,-141.098 130.902,-142.177"/>
<text text-anchor="middle" x="137" y="-153" font-family="Helvetica,sans-Serif" font-size="10.00"> m_parentGameState</text>
</g>
<!-- Node2&#45;&gt;Node4 -->
<g id="edge6" class="edge"><title>Node2&#45;&gt;Node4</title>
<path fill="none" stroke="midnightblue" d="M180.193,-125.444C182.834,-125.638 185.453,-125.825 188,-126 326.961,-135.532 493.134,-144.159 559.98,-147.516"/>
<polygon fill="midnightblue" stroke="midnightblue" points="180.237,-121.937 170,-124.669 179.706,-128.917 180.237,-121.937"/>
</g>
<!-- Node5 -->
<g id="node5" class="node"><title>Node5</title>
<g id="a_node5"><a xlink:href="class_game.html" target="_top" xlink:title="Game">
<polygon fill="white" stroke="red" points="757.5,-177.5 757.5,-196.5 800.5,-196.5 800.5,-177.5 757.5,-177.5"/>
<text text-anchor="middle" x="779" y="-184.5" font-family="Helvetica,sans-Serif" font-size="10.00">Game</text>
</a>
</g>
</g>
<!-- Node2&#45;&gt;Node5 -->
<g id="edge8" class="edge"><title>Node2&#45;&gt;Node5</title>
<path fill="none" stroke="midnightblue" d="M148.418,-140.794C169.57,-176.742 221.418,-254.305 290,-284 464.39,-359.509 699.448,-233.6 762.109,-196.695"/>
<polygon fill="midnightblue" stroke="midnightblue" points="151.289,-138.766 143.278,-131.833 145.217,-142.249 151.289,-138.766"/>
</g>
<!-- Node9 -->
<g id="node9" class="node"><title>Node9</title>
<g id="a_node9"><a xlink:href="class_game_play_running.html" target="_top" xlink:title="GamePlayRunning">
<polygon fill="white" stroke="red" points="730,-58.5 730,-77.5 828,-77.5 828,-58.5 730,-58.5"/>
<text text-anchor="middle" x="779" y="-65.5" font-family="Helvetica,sans-Serif" font-size="10.00">GamePlayRunning</text>
</a>
</g>
</g>
<!-- Node2&#45;&gt;Node9 -->
<g id="edge14" class="edge"><title>Node2&#45;&gt;Node9</title>
<path fill="none" stroke="midnightblue" d="M171.942,-108.907C202.34,-97.9211 248.408,-83.0775 290,-77 449.727,-53.6605 641.963,-60.073 729.877,-64.8823"/>
<polygon fill="midnightblue" stroke="midnightblue" points="170.44,-105.73 162.263,-112.467 172.856,-112.3 170.44,-105.73"/>
</g>
<!-- Node3 -->
<g id="node3" class="node"><title>Node3</title>
<g id="a_node3"><a xlink:href="class_state.html" target="_top" xlink:title="State">
<polygon fill="white" stroke="red" points="24,-112.5 24,-131.5 64,-131.5 64,-112.5 24,-112.5"/>
<text text-anchor="middle" x="44" y="-119.5" font-family="Helvetica,sans-Serif" font-size="10.00">State</text>
</a>
</g>
</g>
<!-- Node3&#45;&gt;Node2 -->
<g id="edge2" class="edge"><title>Node3&#45;&gt;Node2</title>
<path fill="none" stroke="midnightblue" d="M74.3685,-122C83.7761,-122 94.2405,-122 103.837,-122"/>
<polygon fill="midnightblue" stroke="midnightblue" points="74.2988,-118.5 64.2988,-122 74.2987,-125.5 74.2988,-118.5"/>
</g>
<!-- Node3&#45;&gt;Node3 -->
<g id="edge3" class="edge"><title>Node3&#45;&gt;Node3</title>
<path fill="none" stroke="#9a32cd" stroke-dasharray="5,2" d="M36.6338,-141.766C37.2123,-146.497 39.6677,-150 44,-150 51.1094,-150 53.1644,-140.565 50.1652,-131.757"/>
<polygon fill="#9a32cd" stroke="#9a32cd" points="40.1184,-142.103 37.8348,-131.757 33.1683,-141.269 40.1184,-142.103"/>
<text text-anchor="middle" x="44" y="-186" font-family="Helvetica,sans-Serif" font-size="10.00"> m_currentSubState</text>
<text text-anchor="middle" x="44" y="-175" font-family="Helvetica,sans-Serif" font-size="10.00">m_initialSubState</text>
<text text-anchor="middle" x="44" y="-164" font-family="Helvetica,sans-Serif" font-size="10.00">m_finalSubState</text>
<text text-anchor="middle" x="44" y="-153" font-family="Helvetica,sans-Serif" font-size="10.00">m_parentState</text>
</g>
<!-- Node4&#45;&gt;Node1 -->
<g id="edge5" class="edge"><title>Node4&#45;&gt;Node1</title>
<path fill="none" stroke="#9a32cd" stroke-dasharray="5,2" d="M568.88,-133.71C560.826,-128.576 551.332,-123.316 542,-120 501.465,-105.595 452.643,-99.7978 417.561,-97.4851"/>
<polygon fill="#9a32cd" stroke="#9a32cd" points="567.022,-136.679 577.276,-139.345 570.923,-130.866 567.022,-136.679"/>
<text text-anchor="middle" x="505" y="-123" font-family="Helvetica,sans-Serif" font-size="10.00"> m_gamePlay</text>
</g>
<!-- Node4&#45;&gt;Node5 -->
<g id="edge9" class="edge"><title>Node4&#45;&gt;Node5</title>
<path fill="none" stroke="#9a32cd" stroke-dasharray="5,2" d="M632.139,-145.449C655.764,-144.477 686.01,-145.189 712,-152 731.572,-157.129 751.799,-169.004 764.615,-177.498"/>
<polygon fill="#9a32cd" stroke="#9a32cd" points="631.924,-141.955 622.122,-145.977 632.292,-148.946 631.924,-141.955"/>
<text text-anchor="middle" x="676" y="-155" font-family="Helvetica,sans-Serif" font-size="10.00"> m_gamePlay</text>
</g>
<!-- Node4&#45;&gt;Node9 -->
<g id="edge15" class="edge"><title>Node4&#45;&gt;Node9</title>
<path fill="none" stroke="#9a32cd" stroke-dasharray="5,2" d="M600.62,-130.008C608.568,-114.859 621.878,-94.4985 640,-84 666.922,-68.4036 701.753,-64.4627 729.686,-64.391"/>
<polygon fill="#9a32cd" stroke="#9a32cd" points="597.444,-128.536 596.176,-139.054 603.727,-131.623 597.444,-128.536"/>
<text text-anchor="middle" x="676" y="-87" font-family="Helvetica,sans-Serif" font-size="10.00"> m_gamePlay</text>
</g>
<!-- Node5&#45;&gt;Node4 -->
<g id="edge7" class="edge"><title>Node5&#45;&gt;Node4</title>
<path fill="none" stroke="#9a32cd" stroke-dasharray="5,2" d="M747.177,-183.553C719.019,-180.059 676.36,-173.895 640,-165 632.747,-163.226 625.019,-160.866 617.931,-158.505"/>
<polygon fill="#9a32cd" stroke="#9a32cd" points="746.869,-187.041 757.215,-184.762 747.705,-180.092 746.869,-187.041"/>
<text text-anchor="middle" x="676" y="-182" font-family="Helvetica,sans-Serif" font-size="10.00"> m_game</text>
</g>
<!-- Node6 -->
<g id="node6" class="node"><title>Node6</title>
<polygon fill="white" stroke="#bfbfbf" points="302,-245 302,-275 438,-275 438,-245 302,-245"/>
<text text-anchor="start" x="310" y="-263" font-family="Helvetica,sans-Serif" font-size="10.00">std::unique_ptr&lt; GamePlay</text>
<text text-anchor="middle" x="370" y="-252" font-family="Helvetica,sans-Serif" font-size="10.00">Scene &gt;</text>
</g>
<!-- Node6&#45;&gt;Node4 -->
<g id="edge10" class="edge"><title>Node6&#45;&gt;Node4</title>
<path fill="none" stroke="#9a32cd" stroke-dasharray="5,2" d="M448.072,-253.051C479.34,-247.317 514.489,-236.899 542,-218 564.131,-202.797 579.246,-173.803 585.997,-158.696"/>
<polygon fill="#9a32cd" stroke="#9a32cd" points="447.342,-249.624 438.071,-254.752 448.516,-256.525 447.342,-249.624"/>
<text text-anchor="middle" x="505" y="-251" font-family="Helvetica,sans-Serif" font-size="10.00"> m_scene</text>
</g>
<!-- Node7 -->
<g id="node7" class="node"><title>Node7</title>
<polygon fill="white" stroke="#bfbfbf" points="290,-206.5 290,-225.5 450,-225.5 450,-206.5 290,-206.5"/>
<text text-anchor="middle" x="370" y="-213.5" font-family="Helvetica,sans-Serif" font-size="10.00">std::unique_ptr&lt; BaseScenario &gt;</text>
</g>
<!-- Node7&#45;&gt;Node4 -->
<g id="edge11" class="edge"><title>Node7&#45;&gt;Node4</title>
<path fill="none" stroke="#9a32cd" stroke-dasharray="5,2" d="M459.387,-204.625C486.547,-199.366 516.093,-191.799 542,-181 555.497,-175.374 569.211,-165.757 578.505,-158.531"/>
<polygon fill="#9a32cd" stroke="#9a32cd" points="458.693,-201.194 449.5,-206.46 459.971,-208.077 458.693,-201.194"/>
<text text-anchor="middle" x="505" y="-206" font-family="Helvetica,sans-Serif" font-size="10.00"> m_scenario</text>
</g>
<!-- Node8 -->
<g id="node8" class="node"><title>Node8</title>
<polygon fill="white" stroke="#bfbfbf" points="306.5,-168.5 306.5,-187.5 433.5,-187.5 433.5,-168.5 306.5,-168.5"/>
<text text-anchor="middle" x="370" y="-175.5" font-family="Helvetica,sans-Serif" font-size="10.00">std::unique_ptr&lt; Player &gt;</text>
</g>
<!-- Node8&#45;&gt;Node4 -->
<g id="edge12" class="edge"><title>Node8&#45;&gt;Node4</title>
<path fill="none" stroke="#9a32cd" stroke-dasharray="5,2" d="M443.666,-168.926C474.068,-165.058 509.763,-160.424 542,-156 547.757,-155.21 553.897,-154.337 559.797,-153.484"/>
<polygon fill="#9a32cd" stroke="#9a32cd" points="443.051,-165.476 433.572,-170.207 443.933,-172.42 443.051,-165.476"/>
<text text-anchor="middle" x="505" y="-169" font-family="Helvetica,sans-Serif" font-size="10.00"> m_player</text>
</g>
<!-- Node9&#45;&gt;Node4 -->
<g id="edge13" class="edge"><title>Node9&#45;&gt;Node4</title>
<path fill="none" stroke="#9a32cd" stroke-dasharray="5,2" d="M747.048,-81.6388C735.994,-86.4995 723.445,-92.0058 712,-97 677.871,-111.892 638.222,-129.045 614.132,-139.45"/>
<polygon fill="#9a32cd" stroke="#9a32cd" points="748.569,-84.7937 756.312,-77.5626 745.75,-78.3865 748.569,-84.7937"/>
<text text-anchor="middle" x="676" y="-131" font-family="Helvetica,sans-Serif" font-size="10.00"> m_runningState</text>
</g>
<!-- Node10 -->
<g id="node10" class="node"><title>Node10</title>
<g id="a_node10"><a xlink:href="class_key_trigger.html" target="_top" xlink:title="KeyTrigger">
<polygon fill="white" stroke="red" points="105.5,-0.5 105.5,-19.5 168.5,-19.5 168.5,-0.5 105.5,-0.5"/>
<text text-anchor="middle" x="137" y="-7.5" font-family="Helvetica,sans-Serif" font-size="10.00">KeyTrigger</text>
</a>
</g>
</g>
<!-- Node10&#45;&gt;Node1 -->
<g id="edge18" class="edge"><title>Node10&#45;&gt;Node1</title>
<path fill="none" stroke="#9a32cd" stroke-dasharray="5,2" d="M173.036,-23.0437C219.861,-40.4763 301.753,-70.9643 343.282,-86.4252"/>
<polygon fill="#9a32cd" stroke="#9a32cd" points="174.196,-19.7411 163.604,-19.5321 171.754,-26.3012 174.196,-19.7411"/>
<text text-anchor="middle" x="230" y="-62" font-family="Helvetica,sans-Serif" font-size="10.00"> m_continueTrigger</text>
</g>
<!-- Node10&#45;&gt;Node9 -->
<g id="edge16" class="edge"><title>Node10&#45;&gt;Node9</title>
<path fill="none" stroke="#9a32cd" stroke-dasharray="5,2" d="M178.789,-12.4693C272.934,-18.3743 512.606,-34.584 712,-58 717.755,-58.6758 723.78,-59.4692 729.749,-60.3083"/>
<polygon fill="#9a32cd" stroke="#9a32cd" points="178.762,-8.96088 168.563,-11.8327 178.327,-15.9474 178.762,-8.96088"/>
<text text-anchor="middle" x="505" y="-43" font-family="Helvetica,sans-Serif" font-size="10.00"> m_pauseTrigger</text>
</g>
</g>
</svg>
        <g id="navigator" transform="translate(0 0)" fill="#404254">
                <rect fill="#f2f5e9" fill-opacity="0.5" stroke="#606060" stroke-width=".5" x="0" y="0" width="60" height="60"/>
                <use id="zoomplus" xlink:href="#zoomPlus" x="17" y="9" onmousedown="handleZoom(evt,'in')"/>
                <use id="zoomminus" xlink:href="#zoomMin" x="42" y="9" onmousedown="handleZoom(evt,'out')"/>
                <use id="reset" xlink:href="#resetDef" x="30" y="36" onmousedown="handleReset()"/>
                <g id="arrowUp" xlink:href="#dirArrow" transform="translate(30 24)" onmousedown="handlePan(0,-1)">
                  <use xlink:href="#rim" fill="#404040">
                        <set attributeName="fill" to="#808080" begin="arrowUp.mouseover" end="arrowUp.mouseout"/>
                  </use>
                  <path fill="none" stroke="white" stroke-width="1.5" d="M0,-3.0v7 M-2.5,-0.5L0,-3.0L2.5,-0.5"/>
                </g>
                <g id="arrowRight" xlink:href="#dirArrow" transform="rotate(90) translate(36 -43)" onmousedown="handlePan(1,0)">
                  <use xlink:href="#rim" fill="#404040">
                        <set attributeName="fill" to="#808080" begin="arrowRight.mouseover" end="arrowRight.mouseout"/>
                  </use>
                  <path fill="none" stroke="white" stroke-width="1.5" d="M0,-3.0v7 M-2.5,-0.5L0,-3.0L2.5,-0.5"/>
                </g>
                <g id="arrowDown" xlink:href="#dirArrow" transform="rotate(180) translate(-30 -48)" onmousedown="handlePan(0,1)">
                  <use xlink:href="#rim" fill="#404040">
                        <set attributeName="fill" to="#808080" begin="arrowDown.mouseover" end="arrowDown.mouseout"/>
                  </use>
                  <path fill="none" stroke="white" stroke-width="1.5" d="M0,-3.0v7 M-2.5,-0.5L0,-3.0L2.5,-0.5"/>
                </g>
                <g id="arrowLeft" xlink:href="#dirArrow" transform="rotate(270) translate(-36 17)" onmousedown="handlePan(-1,0)">
                  <use xlink:href="#rim" fill="#404040">
                        <set attributeName="fill" to="#808080" begin="arrowLeft.mouseover" end="arrowLeft.mouseout"/>
                  </use>
                  <path fill="none" stroke="white" stroke-width="1.5" d="M0,-3.0v7 M-2.5,-0.5L0,-3.0L2.5,-0.5"/>
                </g>
        </g>
        <svg viewBox="0 0 15 15" width="100%" height="30px" preserveAspectRatio="xMaxYMin meet">
         <g id="arrow_out" transform="scale(0.3 0.3)">
          <a xlink:href="class_game_play_paused__coll__graph_org.svg" target="_base">
           <rect id="button" ry="5" rx="5" y="6" x="6" height="38" width="38"
                fill="#f2f5e9" fill-opacity="0.5" stroke="#606060" stroke-width="1.0"/>
           <path id="arrow"
             d="M 11.500037,31.436501 C 11.940474,20.09759 22.043105,11.32322 32.158766,21.979434 L 37.068811,17.246167 C 37.068811,17.246167 37.088388,32 37.088388,32 L 22.160133,31.978069 C 22.160133,31.978069 26.997745,27.140456 26.997745,27.140456 C 18.528582,18.264221 13.291696,25.230495 11.500037,31.436501 z"
             style="fill:#404040;"/>
          </a>
         </g>
        </svg>
</svg>
