<?xml version="1.0" encoding="UTF-8" standalone="no"?>
<!DOCTYPE svg PUBLIC "-//W3C//DTD SVG 1.1//EN"
 "http://www.w3.org/Graphics/SVG/1.1/DTD/svg11.dtd">
<!-- Generated by graphviz version 2.36.0 (20140111.2315)
 -->
<!-- Title: FactionRelation Pages: 1 -->
<svg width="514pt" height="94pt"
 viewBox="0.00 0.00 514.00 93.62" xmlns="http://www.w3.org/2000/svg" xmlns:xlink="http://www.w3.org/1999/xlink">
<g id="graph0" class="graph" transform="scale(1 1) rotate(0) translate(4 89.6223)">
<title>FactionRelation</title>
<polygon fill="white" stroke="none" points="-4,4 -4,-89.6223 510,-89.6223 510,4 -4,4"/>
<!-- Node1 -->
<g id="node1" class="node"><title>Node1</title>
<polygon fill="#bfbfbf" stroke="black" points="374,-66.1223 374,-85.1223 458,-85.1223 458,-66.1223 374,-66.1223"/>
<text text-anchor="middle" x="416" y="-73.1223" font-family="Helvetica,sans-Serif" font-size="10.00">FactionRelation</text>
</g>
<!-- Node2 -->
<g id="node2" class="node"><title>Node2</title>
<g id="a_node2"><a xlink:href="class_faction.html" target="_top" xlink:title="Faction">
<polygon fill="white" stroke="black" points="186.5,-32.1223 186.5,-51.1223 235.5,-51.1223 235.5,-32.1223 186.5,-32.1223"/>
<text text-anchor="middle" x="211" y="-39.1223" font-family="Helvetica,sans-Serif" font-size="10.00">Faction</text>
</a>
</g>
</g>
<!-- Node2&#45;&gt;Node1 -->
<g id="edge1" class="edge"><title>Node2&#45;&gt;Node1</title>
<path fill="none" stroke="#9a32cd" stroke-dasharray="5,2" d="M245.791,-50.8289C248.56,-51.4743 251.322,-52.0821 254,-52.6223 294.41,-60.7727 341.093,-67.1075 373.751,-71.0466"/>
<polygon fill="#9a32cd" stroke="#9a32cd" points="246.425,-47.3802 235.877,-48.3805 244.746,-54.1761 246.425,-47.3802"/>
<text text-anchor="middle" x="281" y="-76.6223" font-family="Helvetica,sans-Serif" font-size="10.00"> m_factionA</text>
<text text-anchor="middle" x="281" y="-65.6223" font-family="Helvetica,sans-Serif" font-size="10.00">m_factionB</text>
</g>
<!-- Node4 -->
<g id="node4" class="node"><title>Node4</title>
<polygon fill="white" stroke="#bfbfbf" points="326.5,-4.62232 326.5,-34.6223 505.5,-34.6223 505.5,-4.62232 326.5,-4.62232"/>
<text text-anchor="start" x="334.5" y="-22.6223" font-family="Helvetica,sans-Serif" font-size="10.00">std::map&lt; Faction *,</text>
<text text-anchor="middle" x="416" y="-11.6223" font-family="Helvetica,sans-Serif" font-size="10.00"> std::shared_ptr&lt; FactionRelation &gt; &gt;</text>
</g>
<!-- Node2&#45;&gt;Node4 -->
<g id="edge4" class="edge"><title>Node2&#45;&gt;Node4</title>
<path fill="none" stroke="#9a32cd" stroke-dasharray="5,2" d="M245.835,-37.9555C267.873,-35.5672 297.727,-32.3317 326.222,-29.2436"/>
<polygon fill="#9a32cd" stroke="#9a32cd" points="245.249,-34.4984 235.684,-39.0556 246.003,-41.4577 245.249,-34.4984"/>
<text text-anchor="middle" x="281" y="-40.6223" font-family="Helvetica,sans-Serif" font-size="10.00"> keys</text>
</g>
<!-- Node3 -->
<g id="node3" class="node"><title>Node3</title>
<g id="a_node3"><a xlink:title="STL class. ">
<polygon fill="white" stroke="#bfbfbf" points="8,-51.1223 8,-70.1223 68,-70.1223 68,-51.1223 8,-51.1223"/>
<text text-anchor="middle" x="38" y="-58.1223" font-family="Helvetica,sans-Serif" font-size="10.00">std::string</text>
</a>
</g>
</g>
<!-- Node3&#45;&gt;Node2 -->
<g id="edge2" class="edge"><title>Node3&#45;&gt;Node2</title>
<path fill="none" stroke="#9a32cd" stroke-dasharray="5,2" d="M78.3314,-56.2522C111.705,-52.544 158.483,-47.3464 186.366,-44.2483"/>
<polygon fill="#9a32cd" stroke="#9a32cd" points="77.5601,-52.8162 68.0078,-57.3992 78.3332,-59.7734 77.5601,-52.8162"/>
<text text-anchor="middle" x="131" y="-68.6223" font-family="Helvetica,sans-Serif" font-size="10.00"> m_printName</text>
<text text-anchor="middle" x="131" y="-57.6223" font-family="Helvetica,sans-Serif" font-size="10.00">m_key</text>
</g>
<!-- Node4&#45;&gt;Node2 -->
<g id="edge3" class="edge"><title>Node4&#45;&gt;Node2</title>
<path fill="none" stroke="#9a32cd" stroke-dasharray="5,2" d="M345.718,-3.0951C316.689,0.841239 283.014,1.41262 254,-8.62232 240.679,-13.2296 228.37,-23.9995 220.568,-31.9897"/>
<polygon fill="#9a32cd" stroke="#9a32cd" points="345.366,-6.58158 355.776,-4.61589 346.412,0.339761 345.366,-6.58158"/>
<text text-anchor="middle" x="281" y="-11.6223" font-family="Helvetica,sans-Serif" font-size="10.00"> m_relations</text>
</g>
<!-- Node5 -->
<g id="node5" class="node"><title>Node5</title>
<g id="a_node5"><a xlink:href="class_faction_matrix.html" target="_top" xlink:title="FactionMatrix">
<polygon fill="white" stroke="red" points="0,-13.1223 0,-32.1223 76,-32.1223 76,-13.1223 0,-13.1223"/>
<text text-anchor="middle" x="38" y="-20.1223" font-family="Helvetica,sans-Serif" font-size="10.00">FactionMatrix</text>
</a>
</g>
</g>
<!-- Node5&#45;&gt;Node2 -->
<g id="edge5" class="edge"><title>Node5&#45;&gt;Node2</title>
<path fill="none" stroke="#9a32cd" stroke-dasharray="5,2" d="M86.2317,-24.7659C110.718,-26.2605 141.06,-28.7097 168,-32.6223 173.904,-33.4798 180.219,-34.6802 186.113,-35.9256"/>
<polygon fill="#9a32cd" stroke="#9a32cd" points="86.3082,-21.2646 76.1231,-24.1824 85.9047,-28.253 86.3082,-21.2646"/>
<text text-anchor="middle" x="131" y="-35.6223" font-family="Helvetica,sans-Serif" font-size="10.00"> m_factionMatrix</text>
</g>
</g>
</svg>
