<?xml version="1.0" encoding="UTF-8" standalone="no"?>
<!DOCTYPE svg PUBLIC "-//W3C//DTD SVG 1.1//EN"
 "http://www.w3.org/Graphics/SVG/1.1/DTD/svg11.dtd">
<!-- Generated by graphviz version 2.36.0 (20140111.2315)
 -->
<!-- Title: StereoView Pages: 1 -->
<!--zoomable 242 -->
<svg id="main" version="1.1" xmlns="http://www.w3.org/2000/svg" xmlns:xlink="http://www.w3.org/1999/xlink" xml:space="preserve" onload="init(evt)">
<style type="text/css"><![CDATA[
.edge:hover path { stroke: red; }
.edge:hover polygon { stroke: red; fill: red; }
]]></style>
<script type="text/javascript"><![CDATA[
var edges = document.getElementsByTagName('g');
if (edges && edges.length) {
  for (var i=0;i<edges.length;i++) {
    if (edges[i].id.substr(0,4)=='edge') {
      edges[i].setAttribute('class','edge');
    }
  }
}
]]></script>
        <defs>
                <circle id="rim" cx="0" cy="0" r="7"/>
                <circle id="rim2" cx="0" cy="0" r="3.5"/>
                <g id="zoomPlus">
                        <use xlink:href="#rim" fill="#404040">
                                <set attributeName="fill" to="#808080" begin="zoomplus.mouseover" end="zoomplus.mouseout"/>
                        </use>
                        <path d="M-4,0h8M0,-4v8" fill="none" stroke="white" stroke-width="1.5" pointer-events="none"/>
                </g>
                <g id="zoomMin">
                        <use xlink:href="#rim" fill="#404040">
                                <set attributeName="fill" to="#808080" begin="zoomminus.mouseover" end="zoomminus.mouseout"/>
                        </use>
                        <path d="M-4,0h8" fill="none" stroke="white" stroke-width="1.5" pointer-events="none"/>
                </g>
                <g id="dirArrow">
                        <path fill="none" stroke="white" stroke-width="1.5" d="M0,-3.0v7 M-2.5,-0.5L0,-3.0L2.5,-0.5"/>
                </g>
               <g id="resetDef">
                       <use xlink:href="#rim2" fill="#404040">
                               <set attributeName="fill" to="#808080" begin="reset.mouseover" end="reset.mouseout"/>
                       </use>
               </g>
        </defs>

<script type="text/javascript">
var viewWidth = 768;
var viewHeight = 242;
var sectionId = 'dynsection-1';
</script>
<script xlink:href="svgpan.js"/>
<svg id="graph" class="graph">
<g id="viewport">
<title>StereoView</title>
<polygon fill="white" stroke="none" points="-4,4 -4,-238 764,-238 764,4 -4,4"/>
<!-- Node1 -->
<g id="node1" class="node"><title>Node1</title>
<polygon fill="#bfbfbf" stroke="black" points="694,-114.5 694,-133.5 760,-133.5 760,-114.5 694,-114.5"/>
<text text-anchor="middle" x="727" y="-121.5" font-family="Helvetica,sans-Serif" font-size="10.00">StereoView</text>
</g>
<!-- Node2 -->
<g id="node2" class="node"><title>Node2</title>
<g id="a_node2"><a xlink:href="class_view.html" target="_top" xlink:title="View">
<polygon fill="white" stroke="black" points="465,-213.5 465,-232.5 503,-232.5 503,-213.5 465,-213.5"/>
<text text-anchor="middle" x="484" y="-220.5" font-family="Helvetica,sans-Serif" font-size="10.00">View</text>
</a>
</g>
</g>
<!-- Node2&#45;&gt;Node1 -->
<g id="edge1" class="edge"><title>Node2&#45;&gt;Node1</title>
<path fill="none" stroke="midnightblue" d="M513.275,-221.726C552.35,-218.851 623.928,-209.489 676,-179 695.377,-167.655 711.512,-146.323 719.861,-133.822"/>
<polygon fill="midnightblue" stroke="midnightblue" points="512.913,-218.242 503.158,-222.377 513.363,-225.228 512.913,-218.242"/>
</g>
<!-- Node3 -->
<g id="node3" class="node"><title>Node3</title>
<g id="a_node3"><a xlink:href="class_viewport.html" target="_top" xlink:title="Viewport">
<polygon fill="white" stroke="black" points="225,-213.5 225,-232.5 279,-232.5 279,-213.5 225,-213.5"/>
<text text-anchor="middle" x="252" y="-220.5" font-family="Helvetica,sans-Serif" font-size="10.00">Viewport</text>
</a>
</g>
</g>
<!-- Node3&#45;&gt;Node2 -->
<g id="edge2" class="edge"><title>Node3&#45;&gt;Node2</title>
<path fill="none" stroke="#9a32cd" stroke-dasharray="5,2" d="M289.424,-223C339.309,-223 427,-223 464.808,-223"/>
<polygon fill="#9a32cd" stroke="#9a32cd" points="289.384,-219.5 279.384,-223 289.384,-226.5 289.384,-219.5"/>
<text text-anchor="middle" x="353" y="-226" font-family="Helvetica,sans-Serif" font-size="10.00"> m_viewport</text>
</g>
<!-- Node4 -->
<g id="node4" class="node"><title>Node4</title>
<g id="a_node4"><a xlink:href="class_context_dependant.html" target="_top" xlink:title="ContextDependant">
<polygon fill="white" stroke="black" points="435.5,-175.5 435.5,-194.5 532.5,-194.5 532.5,-175.5 435.5,-175.5"/>
<text text-anchor="middle" x="484" y="-182.5" font-family="Helvetica,sans-Serif" font-size="10.00">ContextDependant</text>
</a>
</g>
</g>
<!-- Node4&#45;&gt;Node1 -->
<g id="edge3" class="edge"><title>Node4&#45;&gt;Node1</title>
<path fill="none" stroke="midnightblue" d="M542.541,-180.785C581.179,-176.653 632.735,-168.587 676,-153 689.217,-148.238 702.932,-140.012 712.647,-133.534"/>
<polygon fill="midnightblue" stroke="midnightblue" points="542.104,-177.311 532.508,-181.801 542.809,-184.276 542.104,-177.311"/>
</g>
<!-- Node5 -->
<g id="node5" class="node"><title>Node5</title>
<polygon fill="white" stroke="#bfbfbf" points="406.5,-137.5 406.5,-156.5 561.5,-156.5 561.5,-137.5 406.5,-137.5"/>
<text text-anchor="middle" x="484" y="-144.5" font-family="Helvetica,sans-Serif" font-size="10.00">std::unique_ptr&lt; ScreenBlitter &gt;</text>
</g>
<!-- Node5&#45;&gt;Node1 -->
<g id="edge4" class="edge"><title>Node5&#45;&gt;Node1</title>
<path fill="none" stroke="#9a32cd" stroke-dasharray="5,2" d="M571.67,-138.729C614.142,-134.675 662.715,-130.04 693.839,-127.069"/>
<polygon fill="#9a32cd" stroke="#9a32cd" points="571.207,-135.257 561.585,-139.691 571.872,-142.225 571.207,-135.257"/>
<text text-anchor="middle" x="628" y="-141" font-family="Helvetica,sans-Serif" font-size="10.00"> m_screenBlitter</text>
</g>
<!-- Node6 -->
<g id="node6" class="node"><title>Node6</title>
<g id="a_node6"><a xlink:href="class_screen_blitter.html" target="_top" xlink:title="ScreenBlitter">
<polygon fill="white" stroke="red" points="215.5,-137.5 215.5,-156.5 288.5,-156.5 288.5,-137.5 215.5,-137.5"/>
<text text-anchor="middle" x="252" y="-144.5" font-family="Helvetica,sans-Serif" font-size="10.00">ScreenBlitter</text>
</a>
</g>
</g>
<!-- Node6&#45;&gt;Node5 -->
<g id="edge5" class="edge"><title>Node6&#45;&gt;Node5</title>
<path fill="none" stroke="#9a32cd" stroke-dasharray="5,2" d="M299.07,-147C329.724,-147 370.732,-147 406.248,-147"/>
<polygon fill="#9a32cd" stroke="#9a32cd" points="298.685,-143.5 288.685,-147 298.685,-150.5 298.685,-143.5"/>
<text text-anchor="middle" x="353" y="-150" font-family="Helvetica,sans-Serif" font-size="10.00"> ptr</text>
</g>
<!-- Node7 -->
<g id="node7" class="node"><title>Node7</title>
<polygon fill="white" stroke="#bfbfbf" points="414,-88 414,-118 554,-118 554,-88 414,-88"/>
<text text-anchor="start" x="422" y="-106" font-family="Helvetica,sans-Serif" font-size="10.00">std::unique_ptr&lt; StereoView</text>
<text text-anchor="middle" x="484" y="-95" font-family="Helvetica,sans-Serif" font-size="10.00">Eye &gt;</text>
</g>
<!-- Node7&#45;&gt;Node1 -->
<g id="edge6" class="edge"><title>Node7&#45;&gt;Node1</title>
<path fill="none" stroke="#9a32cd" stroke-dasharray="5,2" d="M564.225,-96.02C598.854,-94.7563 639.757,-95.6979 676,-103 687.076,-105.231 698.754,-109.985 708.037,-114.406"/>
<polygon fill="#9a32cd" stroke="#9a32cd" points="564.004,-92.5262 554.164,-96.4546 564.306,-99.5197 564.004,-92.5262"/>
<text text-anchor="middle" x="628" y="-117" font-family="Helvetica,sans-Serif" font-size="10.00"> m_leftEye</text>
<text text-anchor="middle" x="628" y="-106" font-family="Helvetica,sans-Serif" font-size="10.00">m_rightEye</text>
</g>
<!-- Node8 -->
<g id="node8" class="node"><title>Node8</title>
<g id="a_node8"><a xlink:href="class_stereo_view_eye.html" target="_top" xlink:title="StereoViewEye">
<polygon fill="white" stroke="red" points="210.5,-93.5 210.5,-112.5 293.5,-112.5 293.5,-93.5 210.5,-93.5"/>
<text text-anchor="middle" x="252" y="-100.5" font-family="Helvetica,sans-Serif" font-size="10.00">StereoViewEye</text>
</a>
</g>
</g>
<!-- Node8&#45;&gt;Node7 -->
<g id="edge7" class="edge"><title>Node8&#45;&gt;Node7</title>
<path fill="none" stroke="#9a32cd" stroke-dasharray="5,2" d="M303.733,-103C336.123,-103 378.533,-103 413.97,-103"/>
<polygon fill="#9a32cd" stroke="#9a32cd" points="303.59,-99.5001 293.59,-103 303.59,-106.5 303.59,-99.5001"/>
<text text-anchor="middle" x="353" y="-106" font-family="Helvetica,sans-Serif" font-size="10.00"> ptr</text>
</g>
<!-- Node9 -->
<g id="node9" class="node"><title>Node9</title>
<polygon fill="white" stroke="#bfbfbf" points="0,-33.5 0,-52.5 98,-52.5 98,-33.5 0,-33.5"/>
<text text-anchor="middle" x="49" y="-40.5" font-family="Helvetica,sans-Serif" font-size="10.00">std::vector&lt; float &gt;</text>
</g>
<!-- Node9&#45;&gt;Node1 -->
<g id="edge8" class="edge"><title>Node9&#45;&gt;Node1</title>
<path fill="none" stroke="#9a32cd" stroke-dasharray="5,2" d="M108.344,-45.9617C203.472,-51.0212 397.863,-62.3228 562,-78 612.816,-82.8536 627.974,-74.6997 676,-92 690.35,-97.1694 704.82,-107.057 714.474,-114.48"/>
<polygon fill="#9a32cd" stroke="#9a32cd" points="108.241,-42.4515 98.0706,-45.4191 107.872,-49.4417 108.241,-42.4515"/>
<text text-anchor="middle" x="353" y="-67" font-family="Helvetica,sans-Serif" font-size="10.00"> m_distortionKs</text>
</g>
<!-- Node11 -->
<g id="node11" class="node"><title>Node11</title>
<g id="a_node11"><a xlink:href="class_stereo_blit_program.html" target="_top" xlink:title="StereoBlitProgram">
<polygon fill="white" stroke="red" points="204,-10.5 204,-29.5 300,-29.5 300,-10.5 204,-10.5"/>
<text text-anchor="middle" x="252" y="-17.5" font-family="Helvetica,sans-Serif" font-size="10.00">StereoBlitProgram</text>
</a>
</g>
</g>
<!-- Node9&#45;&gt;Node11 -->
<g id="edge11" class="edge"><title>Node9&#45;&gt;Node11</title>
<path fill="none" stroke="#9a32cd" stroke-dasharray="5,2" d="M108.334,-34.9422C110.924,-34.617 113.488,-34.3014 116,-34 145.127,-30.5047 177.853,-27.0979 203.789,-24.5202"/>
<polygon fill="#9a32cd" stroke="#9a32cd" points="107.751,-31.4883 98.2781,-36.2342 108.643,-38.4313 107.751,-31.4883"/>
<text text-anchor="middle" x="151" y="-37" font-family="Helvetica,sans-Serif" font-size="10.00"> m_distortionKs</text>
</g>
<!-- Node10 -->
<g id="node10" class="node"><title>Node10</title>
<polygon fill="white" stroke="#bfbfbf" points="417.5,-0 417.5,-30 550.5,-30 550.5,-0 417.5,-0"/>
<text text-anchor="start" x="425.5" y="-18" font-family="Helvetica,sans-Serif" font-size="10.00">std::unique_ptr&lt; StereoBlit</text>
<text text-anchor="middle" x="484" y="-7" font-family="Helvetica,sans-Serif" font-size="10.00">Program &gt;</text>
</g>
<!-- Node10&#45;&gt;Node1 -->
<g id="edge9" class="edge"><title>Node10&#45;&gt;Node1</title>
<path fill="none" stroke="#9a32cd" stroke-dasharray="5,2" d="M560.962,-6.79623C598.38,-6.47217 642.527,-12.0015 676,-34 705.128,-53.1429 718.892,-95.3422 723.798,-114.366"/>
<polygon fill="#9a32cd" stroke="#9a32cd" points="560.518,-3.3054 550.601,-7.03403 560.678,-10.3036 560.518,-3.3054"/>
<text text-anchor="middle" x="628" y="-37" font-family="Helvetica,sans-Serif" font-size="10.00"> m_stereoBlitProgram</text>
</g>
<!-- Node11&#45;&gt;Node10 -->
<g id="edge10" class="edge"><title>Node11&#45;&gt;Node10</title>
<path fill="none" stroke="#9a32cd" stroke-dasharray="5,2" d="M310.323,-18.7538C342.768,-18.0485 383.478,-17.1635 417.22,-16.43"/>
<polygon fill="#9a32cd" stroke="#9a32cd" points="310.02,-15.2595 300.099,-18.9761 310.173,-22.2578 310.02,-15.2595"/>
<text text-anchor="middle" x="353" y="-22" font-family="Helvetica,sans-Serif" font-size="10.00"> ptr</text>
</g>
</g>
</svg>
        <g id="navigator" transform="translate(0 0)" fill="#404254">
                <rect fill="#f2f5e9" fill-opacity="0.5" stroke="#606060" stroke-width=".5" x="0" y="0" width="60" height="60"/>
                <use id="zoomplus" xlink:href="#zoomPlus" x="17" y="9" onmousedown="handleZoom(evt,'in')"/>
                <use id="zoomminus" xlink:href="#zoomMin" x="42" y="9" onmousedown="handleZoom(evt,'out')"/>
                <use id="reset" xlink:href="#resetDef" x="30" y="36" onmousedown="handleReset()"/>
                <g id="arrowUp" xlink:href="#dirArrow" transform="translate(30 24)" onmousedown="handlePan(0,-1)">
                  <use xlink:href="#rim" fill="#404040">
                        <set attributeName="fill" to="#808080" begin="arrowUp.mouseover" end="arrowUp.mouseout"/>
                  </use>
                  <path fill="none" stroke="white" stroke-width="1.5" d="M0,-3.0v7 M-2.5,-0.5L0,-3.0L2.5,-0.5"/>
                </g>
                <g id="arrowRight" xlink:href="#dirArrow" transform="rotate(90) translate(36 -43)" onmousedown="handlePan(1,0)">
                  <use xlink:href="#rim" fill="#404040">
                        <set attributeName="fill" to="#808080" begin="arrowRight.mouseover" end="arrowRight.mouseout"/>
                  </use>
                  <path fill="none" stroke="white" stroke-width="1.5" d="M0,-3.0v7 M-2.5,-0.5L0,-3.0L2.5,-0.5"/>
                </g>
                <g id="arrowDown" xlink:href="#dirArrow" transform="rotate(180) translate(-30 -48)" onmousedown="handlePan(0,1)">
                  <use xlink:href="#rim" fill="#404040">
                        <set attributeName="fill" to="#808080" begin="arrowDown.mouseover" end="arrowDown.mouseout"/>
                  </use>
                  <path fill="none" stroke="white" stroke-width="1.5" d="M0,-3.0v7 M-2.5,-0.5L0,-3.0L2.5,-0.5"/>
                </g>
                <g id="arrowLeft" xlink:href="#dirArrow" transform="rotate(270) translate(-36 17)" onmousedown="handlePan(-1,0)">
                  <use xlink:href="#rim" fill="#404040">
                        <set attributeName="fill" to="#808080" begin="arrowLeft.mouseover" end="arrowLeft.mouseout"/>
                  </use>
                  <path fill="none" stroke="white" stroke-width="1.5" d="M0,-3.0v7 M-2.5,-0.5L0,-3.0L2.5,-0.5"/>
                </g>
        </g>
        <svg viewBox="0 0 15 15" width="100%" height="30px" preserveAspectRatio="xMaxYMin meet">
         <g id="arrow_out" transform="scale(0.3 0.3)">
          <a xlink:href="class_stereo_view__coll__graph_org.svg" target="_base">
           <rect id="button" ry="5" rx="5" y="6" x="6" height="38" width="38"
                fill="#f2f5e9" fill-opacity="0.5" stroke="#606060" stroke-width="1.0"/>
           <path id="arrow"
             d="M 11.500037,31.436501 C 11.940474,20.09759 22.043105,11.32322 32.158766,21.979434 L 37.068811,17.246167 C 37.068811,17.246167 37.088388,32 37.088388,32 L 22.160133,31.978069 C 22.160133,31.978069 26.997745,27.140456 26.997745,27.140456 C 18.528582,18.264221 13.291696,25.230495 11.500037,31.436501 z"
             style="fill:#404040;"/>
          </a>
         </g>
        </svg>
</svg>
