<?xml version="1.0" encoding="UTF-8" standalone="no"?>
<!DOCTYPE svg PUBLIC "-//W3C//DTD SVG 1.1//EN"
 "http://www.w3.org/Graphics/SVG/1.1/DTD/svg11.dtd">
<!-- Generated by graphviz version 2.36.0 (20140111.2315)
 -->
<!-- Title: TextFieldHudgetVoxels Pages: 1 -->
<!--zoomable 145 -->
<svg id="main" version="1.1" xmlns="http://www.w3.org/2000/svg" xmlns:xlink="http://www.w3.org/1999/xlink" xml:space="preserve" onload="init(evt)">
<style type="text/css"><![CDATA[
.edge:hover path { stroke: red; }
.edge:hover polygon { stroke: red; fill: red; }
]]></style>
<script type="text/javascript"><![CDATA[
var edges = document.getElementsByTagName('g');
if (edges && edges.length) {
  for (var i=0;i<edges.length;i++) {
    if (edges[i].id.substr(0,4)=='edge') {
      edges[i].setAttribute('class','edge');
    }
  }
}
]]></script>
        <defs>
                <circle id="rim" cx="0" cy="0" r="7"/>
                <circle id="rim2" cx="0" cy="0" r="3.5"/>
                <g id="zoomPlus">
                        <use xlink:href="#rim" fill="#404040">
                                <set attributeName="fill" to="#808080" begin="zoomplus.mouseover" end="zoomplus.mouseout"/>
                        </use>
                        <path d="M-4,0h8M0,-4v8" fill="none" stroke="white" stroke-width="1.5" pointer-events="none"/>
                </g>
                <g id="zoomMin">
                        <use xlink:href="#rim" fill="#404040">
                                <set attributeName="fill" to="#808080" begin="zoomminus.mouseover" end="zoomminus.mouseout"/>
                        </use>
                        <path d="M-4,0h8" fill="none" stroke="white" stroke-width="1.5" pointer-events="none"/>
                </g>
                <g id="dirArrow">
                        <path fill="none" stroke="white" stroke-width="1.5" d="M0,-3.0v7 M-2.5,-0.5L0,-3.0L2.5,-0.5"/>
                </g>
               <g id="resetDef">
                       <use xlink:href="#rim2" fill="#404040">
                               <set attributeName="fill" to="#808080" begin="reset.mouseover" end="reset.mouseout"/>
                       </use>
               </g>
        </defs>

<script type="text/javascript">
var viewWidth = 872;
var viewHeight = 145;
var sectionId = 'dynsection-0';
</script>
<script xlink:href="svgpan.js"/>
<svg id="graph" class="graph">
<g id="viewport">
<title>TextFieldHudgetVoxels</title>
<polygon fill="white" stroke="none" points="-4,4 -4,-140.585 868,-140.585 868,4 -4,4"/>
<!-- Node1 -->
<g id="node1" class="node"><title>Node1</title>
<polygon fill="#bfbfbf" stroke="black" points="362.5,-25.0846 362.5,-44.0846 479.5,-44.0846 479.5,-25.0846 362.5,-25.0846"/>
<text text-anchor="middle" x="421" y="-32.0846" font-family="Helvetica,sans-Serif" font-size="10.00">TextFieldHudgetVoxels</text>
</g>
<!-- Node6 -->
<g id="node6" class="node"><title>Node6</title>
<polygon fill="white" stroke="#bfbfbf" points="566,-29.5846 566,-59.5846 696,-59.5846 696,-29.5846 566,-29.5846"/>
<text text-anchor="start" x="574" y="-47.5846" font-family="Helvetica,sans-Serif" font-size="10.00">std::unique_ptr&lt; TextField</text>
<text text-anchor="middle" x="631" y="-36.5846" font-family="Helvetica,sans-Serif" font-size="10.00">HudgetVoxels &gt;</text>
</g>
<!-- Node1&#45;&gt;Node6 -->
<g id="edge7" class="edge"><title>Node1&#45;&gt;Node6</title>
<path fill="none" stroke="#9a32cd" stroke-dasharray="5,2" d="M489.894,-37.8487C514.238,-39.0191 541.596,-40.3344 565.633,-41.49"/>
<polygon fill="#9a32cd" stroke="#9a32cd" points="489.82,-34.3412 479.663,-37.3569 489.484,-41.3332 489.82,-34.3412"/>
<text text-anchor="middle" x="523" y="-43.5846" font-family="Helvetica,sans-Serif" font-size="10.00"> ptr</text>
</g>
<!-- Node2 -->
<g id="node2" class="node"><title>Node2</title>
<g id="a_node2"><a xlink:href="class_voxel_font.html" target="_top" xlink:title="VoxelFont">
<polygon fill="white" stroke="black" points="206.5,-12.0846 206.5,-31.0846 267.5,-31.0846 267.5,-12.0846 206.5,-12.0846"/>
<text text-anchor="middle" x="237" y="-19.0846" font-family="Helvetica,sans-Serif" font-size="10.00">VoxelFont</text>
</a>
</g>
</g>
<!-- Node2&#45;&gt;Node1 -->
<g id="edge1" class="edge"><title>Node2&#45;&gt;Node1</title>
<path fill="none" stroke="#9a32cd" stroke-dasharray="5,2" d="M277.952,-23.5122C297.818,-24.5557 322.186,-25.9632 344,-27.5846 349.946,-28.0266 356.15,-28.5295 362.338,-29.0582"/>
<polygon fill="#9a32cd" stroke="#9a32cd" points="277.884,-20.0042 267.717,-22.9857 277.524,-26.9949 277.884,-20.0042"/>
<text text-anchor="middle" x="315" y="-30.5846" font-family="Helvetica,sans-Serif" font-size="10.00"> m_voxelFont</text>
</g>
<!-- Node2&#45;&gt;Node2 -->
<g id="edge3" class="edge"><title>Node2&#45;&gt;Node2</title>
<path fill="none" stroke="#9a32cd" stroke-dasharray="5,2" d="M223.372,-41.3509C224.443,-46.0811 228.985,-49.5846 237,-49.5846 250.152,-49.5846 253.954,-40.1499 248.406,-31.3417"/>
<polygon fill="#9a32cd" stroke="#9a32cd" points="226.844,-41.8626 225.594,-31.3417 220.01,-40.3455 226.844,-41.8626"/>
<text text-anchor="middle" x="237" y="-52.5846" font-family="Helvetica,sans-Serif" font-size="10.00"> s_instance</text>
</g>
<!-- Node3 -->
<g id="node3" class="node"><title>Node3</title>
<polygon fill="white" stroke="#bfbfbf" points="0.5,-6.58461 0.5,-36.5846 119.5,-36.5846 119.5,-6.58461 0.5,-6.58461"/>
<text text-anchor="start" x="8.5" y="-24.5846" font-family="Helvetica,sans-Serif" font-size="10.00">std::map&lt; char, std</text>
<text text-anchor="middle" x="60" y="-13.5846" font-family="Helvetica,sans-Serif" font-size="10.00">::unique_ptr&lt; Letter &gt; &gt;</text>
</g>
<!-- Node3&#45;&gt;Node2 -->
<g id="edge2" class="edge"><title>Node3&#45;&gt;Node2</title>
<path fill="none" stroke="#9a32cd" stroke-dasharray="5,2" d="M129.774,-21.5846C156.266,-21.5846 185.162,-21.5846 206.118,-21.5846"/>
<polygon fill="#9a32cd" stroke="#9a32cd" points="129.759,-18.0847 119.759,-21.5846 129.759,-25.0847 129.759,-18.0847"/>
<text text-anchor="middle" x="163" y="-35.5846" font-family="Helvetica,sans-Serif" font-size="10.00"> m_font5x7</text>
<text text-anchor="middle" x="163" y="-24.5846" font-family="Helvetica,sans-Serif" font-size="10.00">m_font3x5</text>
</g>
<!-- Node4 -->
<g id="node4" class="node"><title>Node4</title>
<g id="a_node4"><a xlink:href="class_text_field_hudget.html" target="_top" xlink:title="TextFieldHudget">
<polygon fill="white" stroke="black" points="776.5,-61.0846 776.5,-80.0846 863.5,-80.0846 863.5,-61.0846 776.5,-61.0846"/>
<text text-anchor="middle" x="820" y="-68.0846" font-family="Helvetica,sans-Serif" font-size="10.00">TextFieldHudget</text>
</a>
</g>
</g>
<!-- Node4&#45;&gt;Node1 -->
<g id="edge4" class="edge"><title>Node4&#45;&gt;Node1</title>
<path fill="none" stroke="#9a32cd" stroke-dasharray="5,2" d="M796.864,-55.3942C773.146,-40.1153 733.791,-17.5707 696,-8.58461 609.999,11.8649 505.205,-10.8196 453.692,-24.9753"/>
<polygon fill="#9a32cd" stroke="#9a32cd" points="795.167,-58.4671 805.443,-61.0459 799.018,-52.6216 795.167,-58.4671"/>
<text text-anchor="middle" x="631" y="-11.5846" font-family="Helvetica,sans-Serif" font-size="10.00"> m_textFieldHudget</text>
</g>
<!-- Node5 -->
<g id="node5" class="node"><title>Node5</title>
<g id="a_node5"><a xlink:href="class_hudget.html" target="_top" xlink:title="Hudget">
<polygon fill="white" stroke="red" points="607.5,-117.085 607.5,-136.085 654.5,-136.085 654.5,-117.085 607.5,-117.085"/>
<text text-anchor="middle" x="631" y="-124.085" font-family="Helvetica,sans-Serif" font-size="10.00">Hudget</text>
</a>
</g>
</g>
<!-- Node5&#45;&gt;Node4 -->
<g id="edge5" class="edge"><title>Node5&#45;&gt;Node4</title>
<path fill="none" stroke="midnightblue" d="M664.849,-123.024C690.688,-119.585 727.324,-113.287 758,-102.585 774.26,-96.9119 791.528,-87.496 803.526,-80.3429"/>
<polygon fill="midnightblue" stroke="midnightblue" points="664.312,-119.564 654.828,-124.286 665.187,-126.509 664.312,-119.564"/>
</g>
<!-- Node6&#45;&gt;Node4 -->
<g id="edge6" class="edge"><title>Node6&#45;&gt;Node4</title>
<path fill="none" stroke="#9a32cd" stroke-dasharray="5,2" d="M706.191,-54.8999C730.046,-58.2167 755.656,-61.7774 776.435,-64.6664"/>
<polygon fill="#9a32cd" stroke="#9a32cd" points="706.48,-51.4065 696.093,-53.496 705.516,-58.3398 706.48,-51.4065"/>
<text text-anchor="middle" x="736" y="-64.5846" font-family="Helvetica,sans-Serif" font-size="10.00"> m_voxels</text>
</g>
<!-- Node7 -->
<g id="node7" class="node"><title>Node7</title>
<g id="a_node7"><a xlink:title="STL class. ">
<polygon fill="white" stroke="#bfbfbf" points="207,-79.0846 207,-98.0846 267,-98.0846 267,-79.0846 207,-79.0846"/>
<text text-anchor="middle" x="237" y="-86.0846" font-family="Helvetica,sans-Serif" font-size="10.00">std::string</text>
</a>
</g>
</g>
<!-- Node7&#45;&gt;Node1 -->
<g id="edge9" class="edge"><title>Node7&#45;&gt;Node1</title>
<path fill="none" stroke="#9a32cd" stroke-dasharray="5,2" d="M263.179,-73.8664C270.375,-70.1063 278.345,-66.3499 286,-63.5846 310.401,-54.7699 338.316,-48.204 362.329,-43.57"/>
<polygon fill="#9a32cd" stroke="#9a32cd" points="261.05,-71.0407 253.949,-78.9034 264.403,-77.1854 261.05,-71.0407"/>
<text text-anchor="middle" x="315" y="-66.5846" font-family="Helvetica,sans-Serif" font-size="10.00"> m_content</text>
</g>
<!-- Node7&#45;&gt;Node4 -->
<g id="edge8" class="edge"><title>Node7&#45;&gt;Node4</title>
<path fill="none" stroke="#9a32cd" stroke-dasharray="5,2" d="M277.221,-88.0449C363.942,-86.7384 578.517,-82.8823 758,-74.5846 763.937,-74.3101 770.195,-73.9643 776.351,-73.5916"/>
<polygon fill="#9a32cd" stroke="#9a32cd" points="276.996,-84.5478 267.049,-88.1953 277.099,-91.547 276.996,-84.5478"/>
<text text-anchor="middle" x="523" y="-86.5846" font-family="Helvetica,sans-Serif" font-size="10.00"> m_content</text>
</g>
</g>
</svg>
        <g id="navigator" transform="translate(0 0)" fill="#404254">
                <rect fill="#f2f5e9" fill-opacity="0.5" stroke="#606060" stroke-width=".5" x="0" y="0" width="60" height="60"/>
                <use id="zoomplus" xlink:href="#zoomPlus" x="17" y="9" onmousedown="handleZoom(evt,'in')"/>
                <use id="zoomminus" xlink:href="#zoomMin" x="42" y="9" onmousedown="handleZoom(evt,'out')"/>
                <use id="reset" xlink:href="#resetDef" x="30" y="36" onmousedown="handleReset()"/>
                <g id="arrowUp" xlink:href="#dirArrow" transform="translate(30 24)" onmousedown="handlePan(0,-1)">
                  <use xlink:href="#rim" fill="#404040">
                        <set attributeName="fill" to="#808080" begin="arrowUp.mouseover" end="arrowUp.mouseout"/>
                  </use>
                  <path fill="none" stroke="white" stroke-width="1.5" d="M0,-3.0v7 M-2.5,-0.5L0,-3.0L2.5,-0.5"/>
                </g>
                <g id="arrowRight" xlink:href="#dirArrow" transform="rotate(90) translate(36 -43)" onmousedown="handlePan(1,0)">
                  <use xlink:href="#rim" fill="#404040">
                        <set attributeName="fill" to="#808080" begin="arrowRight.mouseover" end="arrowRight.mouseout"/>
                  </use>
                  <path fill="none" stroke="white" stroke-width="1.5" d="M0,-3.0v7 M-2.5,-0.5L0,-3.0L2.5,-0.5"/>
                </g>
                <g id="arrowDown" xlink:href="#dirArrow" transform="rotate(180) translate(-30 -48)" onmousedown="handlePan(0,1)">
                  <use xlink:href="#rim" fill="#404040">
                        <set attributeName="fill" to="#808080" begin="arrowDown.mouseover" end="arrowDown.mouseout"/>
                  </use>
                  <path fill="none" stroke="white" stroke-width="1.5" d="M0,-3.0v7 M-2.5,-0.5L0,-3.0L2.5,-0.5"/>
                </g>
                <g id="arrowLeft" xlink:href="#dirArrow" transform="rotate(270) translate(-36 17)" onmousedown="handlePan(-1,0)">
                  <use xlink:href="#rim" fill="#404040">
                        <set attributeName="fill" to="#808080" begin="arrowLeft.mouseover" end="arrowLeft.mouseout"/>
                  </use>
                  <path fill="none" stroke="white" stroke-width="1.5" d="M0,-3.0v7 M-2.5,-0.5L0,-3.0L2.5,-0.5"/>
                </g>
        </g>
        <svg viewBox="0 0 15 15" width="100%" height="30px" preserveAspectRatio="xMaxYMin meet">
         <g id="arrow_out" transform="scale(0.3 0.3)">
          <a xlink:href="class_text_field_hudget_voxels__coll__graph_org.svg" target="_base">
           <rect id="button" ry="5" rx="5" y="6" x="6" height="38" width="38"
                fill="#f2f5e9" fill-opacity="0.5" stroke="#606060" stroke-width="1.0"/>
           <path id="arrow"
             d="M 11.500037,31.436501 C 11.940474,20.09759 22.043105,11.32322 32.158766,21.979434 L 37.068811,17.246167 C 37.068811,17.246167 37.088388,32 37.088388,32 L 22.160133,31.978069 C 22.160133,31.978069 26.997745,27.140456 26.997745,27.140456 C 18.528582,18.264221 13.291696,25.230495 11.500037,31.436501 z"
             style="fill:#404040;"/>
          </a>
         </g>
        </svg>
</svg>
