<?xml version="1.0" encoding="UTF-8" standalone="no"?>
<!DOCTYPE svg PUBLIC "-//W3C//DTD SVG 1.1//EN"
 "http://www.w3.org/Graphics/SVG/1.1/DTD/svg11.dtd">
<!-- Generated by graphviz version 2.36.0 (20140111.2315)
 -->
<!-- Title: TextFieldHudget Pages: 1 -->
<svg width="200pt" height="312pt"
 viewBox="0.00 0.00 200.00 312.00" xmlns="http://www.w3.org/2000/svg" xmlns:xlink="http://www.w3.org/1999/xlink">
<g id="graph0" class="graph" transform="scale(1 1) rotate(0) translate(4 308)">
<title>TextFieldHudget</title>
<polygon fill="white" stroke="none" points="-4,4 -4,-308 196,-308 196,4 -4,4"/>
<!-- Node1 -->
<g id="node1" class="node"><title>Node1</title>
<polygon fill="#bfbfbf" stroke="black" points="77.5,-148.5 77.5,-167.5 164.5,-167.5 164.5,-148.5 77.5,-148.5"/>
<text text-anchor="middle" x="121" y="-155.5" font-family="Helvetica,sans-Serif" font-size="10.00">TextFieldHudget</text>
</g>
<!-- Node5 -->
<g id="node5" class="node"><title>Node5</title>
<g id="a_node5"><a xlink:href="class_text_field_hudget_voxels.html" target="_top" xlink:title="TextFieldHudgetVoxels">
<polygon fill="white" stroke="red" points="-0.5,-80.5 -0.5,-99.5 116.5,-99.5 116.5,-80.5 -0.5,-80.5"/>
<text text-anchor="middle" x="58" y="-87.5" font-family="Helvetica,sans-Serif" font-size="10.00">TextFieldHudgetVoxels</text>
</a>
</g>
</g>
<!-- Node1&#45;&gt;Node5 -->
<g id="edge5" class="edge"><title>Node1&#45;&gt;Node5</title>
<path fill="none" stroke="#9a32cd" stroke-dasharray="5,2" d="M74.2752,-143.87C68.2725,-140.295 62.8784,-135.757 59,-130 52.9451,-121.012 54.0682,-108.025 55.762,-99.5482"/>
<polygon fill="#9a32cd" stroke="#9a32cd" points="72.8922,-147.092 83.3998,-148.448 76.0316,-140.835 72.8922,-147.092"/>
<text text-anchor="middle" x="101.5" y="-121.5" font-family="Helvetica,sans-Serif" font-size="10.00"> m_textFieldHudget</text>
</g>
<!-- Node2 -->
<g id="node2" class="node"><title>Node2</title>
<g id="a_node2"><a xlink:href="class_hudget.html" target="_top" xlink:title="Hudget">
<polygon fill="white" stroke="black" points="97.5,-216.5 97.5,-235.5 144.5,-235.5 144.5,-216.5 97.5,-216.5"/>
<text text-anchor="middle" x="121" y="-223.5" font-family="Helvetica,sans-Serif" font-size="10.00">Hudget</text>
</a>
</g>
</g>
<!-- Node2&#45;&gt;Node1 -->
<g id="edge1" class="edge"><title>Node2&#45;&gt;Node1</title>
<path fill="none" stroke="midnightblue" d="M121,-206.041C121,-193.472 121,-177.563 121,-167.841"/>
<polygon fill="midnightblue" stroke="midnightblue" points="117.5,-206.372 121,-216.372 124.5,-206.372 117.5,-206.372"/>
</g>
<!-- Node3 -->
<g id="node3" class="node"><title>Node3</title>
<g id="a_node3"><a xlink:href="class_h_u_d.html" target="_top" xlink:title="HUD">
<polygon fill="white" stroke="red" points="102.5,-284.5 102.5,-303.5 139.5,-303.5 139.5,-284.5 102.5,-284.5"/>
<text text-anchor="middle" x="121" y="-291.5" font-family="Helvetica,sans-Serif" font-size="10.00">HUD</text>
</a>
</g>
</g>
<!-- Node3&#45;&gt;Node2 -->
<g id="edge2" class="edge"><title>Node3&#45;&gt;Node2</title>
<path fill="none" stroke="#9a32cd" stroke-dasharray="5,2" d="M121,-274.041C121,-261.472 121,-245.563 121,-235.841"/>
<polygon fill="#9a32cd" stroke="#9a32cd" points="117.5,-274.372 121,-284.372 124.5,-274.372 117.5,-274.372"/>
<text text-anchor="middle" x="137.5" y="-257.5" font-family="Helvetica,sans-Serif" font-size="10.00"> m_hud</text>
</g>
<!-- Node4 -->
<g id="node4" class="node"><title>Node4</title>
<polygon fill="white" stroke="#bfbfbf" points="60,-1 60,-31 190,-31 190,-1 60,-1"/>
<text text-anchor="start" x="68" y="-19" font-family="Helvetica,sans-Serif" font-size="10.00">std::unique_ptr&lt; TextField</text>
<text text-anchor="middle" x="125" y="-8" font-family="Helvetica,sans-Serif" font-size="10.00">HudgetVoxels &gt;</text>
</g>
<!-- Node4&#45;&gt;Node1 -->
<g id="edge3" class="edge"><title>Node4&#45;&gt;Node1</title>
<path fill="none" stroke="#9a32cd" stroke-dasharray="5,2" d="M135.903,-40.7945C145.01,-64.1266 154.897,-100.403 144,-130 141.447,-136.934 136.234,-143.3 131.415,-148.107"/>
<polygon fill="#9a32cd" stroke="#9a32cd" points="139.048,-39.2432 131.981,-31.3504 132.584,-41.928 139.048,-39.2432"/>
<text text-anchor="middle" x="170" y="-87.5" font-family="Helvetica,sans-Serif" font-size="10.00"> m_voxels</text>
</g>
<!-- Node5&#45;&gt;Node4 -->
<g id="edge4" class="edge"><title>Node5&#45;&gt;Node4</title>
<path fill="none" stroke="#9a32cd" stroke-dasharray="5,2" d="M72.8683,-73.0221C84.5099,-60.5118 100.553,-43.2711 111.757,-31.2316"/>
<polygon fill="#9a32cd" stroke="#9a32cd" points="70.199,-70.7529 65.9489,-80.4579 75.3235,-75.5215 70.199,-70.7529"/>
<text text-anchor="middle" x="101.5" y="-53.5" font-family="Helvetica,sans-Serif" font-size="10.00"> ptr</text>
</g>
<!-- Node6 -->
<g id="node6" class="node"><title>Node6</title>
<g id="a_node6"><a xlink:title="STL class. ">
<polygon fill="white" stroke="#bfbfbf" points="7,-216.5 7,-235.5 67,-235.5 67,-216.5 7,-216.5"/>
<text text-anchor="middle" x="37" y="-223.5" font-family="Helvetica,sans-Serif" font-size="10.00">std::string</text>
</a>
</g>
</g>
<!-- Node6&#45;&gt;Node1 -->
<g id="edge7" class="edge"><title>Node6&#45;&gt;Node1</title>
<path fill="none" stroke="#9a32cd" stroke-dasharray="5,2" d="M54.4017,-209.64C62.8866,-202.308 73.3263,-193.515 83,-186 91.1804,-179.645 100.68,-172.895 108.135,-167.734"/>
<polygon fill="#9a32cd" stroke="#9a32cd" points="51.9051,-207.173 46.6692,-216.383 56.5061,-212.448 51.9051,-207.173"/>
<text text-anchor="middle" x="100" y="-189.5" font-family="Helvetica,sans-Serif" font-size="10.00"> m_text</text>
</g>
<!-- Node6&#45;&gt;Node5 -->
<g id="edge6" class="edge"><title>Node6&#45;&gt;Node5</title>
<path fill="none" stroke="#9a32cd" stroke-dasharray="5,2" d="M33.8261,-206.342C31.733,-190.624 30.0365,-167.627 34,-148 37.6557,-129.897 47.233,-110.389 53.1246,-99.5364"/>
<polygon fill="#9a32cd" stroke="#9a32cd" points="30.3837,-206.987 35.3449,-216.348 37.3044,-205.936 30.3837,-206.987"/>
<text text-anchor="middle" x="51" y="-155.5" font-family="Helvetica,sans-Serif" font-size="10.00"> m_text</text>
</g>
</g>
</svg>
