<?xml version="1.0" encoding="UTF-8" standalone="no"?>
<!DOCTYPE svg PUBLIC "-//W3C//DTD SVG 1.1//EN"
 "http://www.w3.org/Graphics/SVG/1.1/DTD/svg11.dtd">
<!-- Generated by graphviz version 2.36.0 (20140111.2315)
 -->
<!-- Title: Bindings Pages: 1 -->
<svg width="222pt" height="218pt"
 viewBox="0.00 0.00 222.00 218.00" xmlns="http://www.w3.org/2000/svg" xmlns:xlink="http://www.w3.org/1999/xlink">
<g id="graph0" class="graph" transform="scale(1 1) rotate(0) translate(4 214)">
<title>Bindings</title>
<polygon fill="white" stroke="none" points="-4,4 -4,-214 218,-214 218,4 -4,4"/>
<!-- Node1 -->
<g id="node1" class="node"><title>Node1</title>
<polygon fill="#bfbfbf" stroke="black" points="0,-95.5 0,-114.5 54,-114.5 54,-95.5 0,-95.5"/>
<text text-anchor="middle" x="27" y="-102.5" font-family="Helvetica,sans-Serif" font-size="10.00">Bindings</text>
</g>
<!-- Node2 -->
<g id="node2" class="node"><title>Node2</title>
<g id="a_node2"><a xlink:href="class_ai_bindings.html" target="_top" xlink:title="AiBindings">
<polygon fill="white" stroke="black" points="120.5,-190.5 120.5,-209.5 183.5,-209.5 183.5,-190.5 120.5,-190.5"/>
<text text-anchor="middle" x="152" y="-197.5" font-family="Helvetica,sans-Serif" font-size="10.00">AiBindings</text>
</a>
</g>
</g>
<!-- Node1&#45;&gt;Node2 -->
<g id="edge1" class="edge"><title>Node1&#45;&gt;Node2</title>
<path fill="none" stroke="midnightblue" d="M38.5455,-123.335C49.3662,-140.588 67.7384,-165.958 90,-181 99.0069,-187.086 110.057,-191.297 120.266,-194.176"/>
<polygon fill="midnightblue" stroke="midnightblue" points="41.4986,-121.454 33.3342,-114.702 35.5058,-125.072 41.4986,-121.454"/>
</g>
<!-- Node3 -->
<g id="node3" class="node"><title>Node3</title>
<g id="a_node3"><a xlink:href="class_common_bindings.html" target="_top" xlink:title="CommonBindings">
<polygon fill="white" stroke="black" points="105.5,-152.5 105.5,-171.5 198.5,-171.5 198.5,-152.5 105.5,-152.5"/>
<text text-anchor="middle" x="152" y="-159.5" font-family="Helvetica,sans-Serif" font-size="10.00">CommonBindings</text>
</a>
</g>
</g>
<!-- Node1&#45;&gt;Node3 -->
<g id="edge2" class="edge"><title>Node1&#45;&gt;Node3</title>
<path fill="none" stroke="midnightblue" d="M50.2394,-120.491C61.7334,-128.009 76.2108,-136.744 90,-143 97.8789,-146.574 106.62,-149.735 114.965,-152.401"/>
<polygon fill="midnightblue" stroke="midnightblue" points="51.9876,-117.45 41.7311,-114.794 48.0925,-123.266 51.9876,-117.45"/>
</g>
<!-- Node4 -->
<g id="node4" class="node"><title>Node4</title>
<g id="a_node4"><a xlink:href="class_external_mission_bindings.html" target="_top" xlink:title="ExternalMissionBindings">
<polygon fill="white" stroke="black" points="90,-114.5 90,-133.5 214,-133.5 214,-114.5 90,-114.5"/>
<text text-anchor="middle" x="152" y="-121.5" font-family="Helvetica,sans-Serif" font-size="10.00">ExternalMissionBindings</text>
</a>
</g>
</g>
<!-- Node1&#45;&gt;Node4 -->
<g id="edge3" class="edge"><title>Node1&#45;&gt;Node4</title>
<path fill="none" stroke="midnightblue" d="M64.2125,-110.594C72.2688,-111.838 81.0261,-113.191 89.7759,-114.543"/>
<polygon fill="midnightblue" stroke="midnightblue" points="64.5023,-107.097 54.0851,-109.029 63.4336,-114.015 64.5023,-107.097"/>
</g>
<!-- Node5 -->
<g id="node5" class="node"><title>Node5</title>
<g id="a_node5"><a xlink:href="class_internal_mission_bindings.html" target="_top" xlink:title="InternalMissionBindings">
<polygon fill="white" stroke="black" points="92.5,-76.5 92.5,-95.5 211.5,-95.5 211.5,-76.5 92.5,-76.5"/>
<text text-anchor="middle" x="152" y="-83.5" font-family="Helvetica,sans-Serif" font-size="10.00">InternalMissionBindings</text>
</a>
</g>
</g>
<!-- Node1&#45;&gt;Node5 -->
<g id="edge4" class="edge"><title>Node1&#45;&gt;Node5</title>
<path fill="none" stroke="midnightblue" d="M64.054,-99.4307C72.9306,-98.0595 82.6658,-96.5557 92.3087,-95.0661"/>
<polygon fill="midnightblue" stroke="midnightblue" points="63.4336,-95.9849 54.0851,-100.971 64.5023,-102.903 63.4336,-95.9849"/>
</g>
<!-- Node6 -->
<g id="node6" class="node"><title>Node6</title>
<g id="a_node6"><a xlink:href="class_squad_bindings.html" target="_top" xlink:title="SquadBindings">
<polygon fill="white" stroke="black" points="111,-38.5 111,-57.5 193,-57.5 193,-38.5 111,-38.5"/>
<text text-anchor="middle" x="152" y="-45.5" font-family="Helvetica,sans-Serif" font-size="10.00">SquadBindings</text>
</a>
</g>
</g>
<!-- Node1&#45;&gt;Node6 -->
<g id="edge5" class="edge"><title>Node1&#45;&gt;Node6</title>
<path fill="none" stroke="midnightblue" d="M50.2394,-89.5087C61.7334,-81.9907 76.2108,-73.2557 90,-67 97.8789,-63.4256 106.62,-60.2654 114.965,-57.599"/>
<polygon fill="midnightblue" stroke="midnightblue" points="48.0925,-86.734 41.7311,-95.2064 51.9876,-92.5503 48.0925,-86.734"/>
</g>
<!-- Node7 -->
<g id="node7" class="node"><title>Node7</title>
<g id="a_node7"><a xlink:href="class_world_object_bindings.html" target="_top" xlink:title="WorldObjectBindings">
<polygon fill="white" stroke="black" points="98,-0.5 98,-19.5 206,-19.5 206,-0.5 98,-0.5"/>
<text text-anchor="middle" x="152" y="-7.5" font-family="Helvetica,sans-Serif" font-size="10.00">WorldObjectBindings</text>
</a>
</g>
</g>
<!-- Node1&#45;&gt;Node7 -->
<g id="edge6" class="edge"><title>Node1&#45;&gt;Node7</title>
<path fill="none" stroke="midnightblue" d="M38.5455,-86.6652C49.3662,-69.4121 67.7384,-44.042 90,-29 95.6982,-25.1497 102.214,-22.05 108.818,-19.5631"/>
<polygon fill="midnightblue" stroke="midnightblue" points="35.5058,-84.9282 33.3342,-95.2981 41.4986,-88.5458 35.5058,-84.9282"/>
</g>
</g>
</svg>
