<?xml version="1.0" encoding="UTF-8" standalone="no"?>
<!DOCTYPE svg PUBLIC "-//W3C//DTD SVG 1.1//EN"
 "http://www.w3.org/Graphics/SVG/1.1/DTD/svg11.dtd">
<!-- Generated by graphviz version 2.36.0 (20140111.2315)
 -->
<!-- Title: DirectSuicideTask Pages: 1 -->
<svg width="295pt" height="164pt"
 viewBox="0.00 0.00 295.00 164.00" xmlns="http://www.w3.org/2000/svg" xmlns:xlink="http://www.w3.org/1999/xlink">
<g id="graph0" class="graph" transform="scale(1 1) rotate(0) translate(4 160)">
<title>DirectSuicideTask</title>
<polygon fill="white" stroke="none" points="-4,4 -4,-160 291,-160 291,4 -4,4"/>
<!-- Node1 -->
<g id="node1" class="node"><title>Node1</title>
<polygon fill="#bfbfbf" stroke="black" points="153.5,-0.5 153.5,-19.5 248.5,-19.5 248.5,-0.5 153.5,-0.5"/>
<text text-anchor="middle" x="201" y="-7.5" font-family="Helvetica,sans-Serif" font-size="10.00">DirectSuicideTask</text>
</g>
<!-- Node2 -->
<g id="node2" class="node"><title>Node2</title>
<g id="a_node2"><a xlink:href="class_ai_task.html" target="_top" xlink:title="AiTask">
<polygon fill="white" stroke="black" points="102.5,-68.5 102.5,-87.5 149.5,-87.5 149.5,-68.5 102.5,-68.5"/>
<text text-anchor="middle" x="126" y="-75.5" font-family="Helvetica,sans-Serif" font-size="10.00">AiTask</text>
</a>
</g>
</g>
<!-- Node2&#45;&gt;Node1 -->
<g id="edge1" class="edge"><title>Node2&#45;&gt;Node1</title>
<path fill="none" stroke="midnightblue" d="M143.713,-61.4122C158.447,-48.4468 178.891,-30.4559 190.953,-19.8411"/>
<polygon fill="midnightblue" stroke="midnightblue" points="141,-59.1378 135.805,-68.3717 145.624,-64.3928 141,-59.1378"/>
</g>
<!-- Node3 -->
<g id="node3" class="node"><title>Node3</title>
<g id="a_node3"><a xlink:href="class_scriptable.html" target="_top" xlink:title="Scriptable">
<polygon fill="white" stroke="black" points="0,-136.5 0,-155.5 60,-155.5 60,-136.5 0,-136.5"/>
<text text-anchor="middle" x="30" y="-143.5" font-family="Helvetica,sans-Serif" font-size="10.00">Scriptable</text>
</a>
</g>
</g>
<!-- Node3&#45;&gt;Node2 -->
<g id="edge2" class="edge"><title>Node3&#45;&gt;Node2</title>
<path fill="none" stroke="midnightblue" d="M50.8966,-130.634C69.9789,-117.515 97.5622,-98.551 113.447,-87.6305"/>
<polygon fill="midnightblue" stroke="midnightblue" points="48.8079,-127.822 42.5503,-136.372 52.7736,-133.59 48.8079,-127.822"/>
</g>
<!-- Node4 -->
<g id="node4" class="node"><title>Node4</title>
<g id="a_node4"><a xlink:href="class_handle.html" target="_top" xlink:title="Handle\&lt; AiTask \&gt;">
<polygon fill="white" stroke="black" points="78.5,-136.5 78.5,-155.5 173.5,-155.5 173.5,-136.5 78.5,-136.5"/>
<text text-anchor="middle" x="126" y="-143.5" font-family="Helvetica,sans-Serif" font-size="10.00">Handle&lt; AiTask &gt;</text>
</a>
</g>
</g>
<!-- Node4&#45;&gt;Node2 -->
<g id="edge3" class="edge"><title>Node4&#45;&gt;Node2</title>
<path fill="none" stroke="#9a32cd" stroke-dasharray="5,2" d="M126,-126.041C126,-113.472 126,-97.5631 126,-87.8411"/>
<polygon fill="#9a32cd" stroke="#9a32cd" points="122.5,-126.372 126,-136.372 129.5,-126.372 122.5,-126.372"/>
<text text-anchor="middle" x="149" y="-109.5" font-family="Helvetica,sans-Serif" font-size="10.00"> m_handle</text>
</g>
<!-- Node5 -->
<g id="node5" class="node"><title>Node5</title>
<g id="a_node5"><a xlink:href="class_board_computer.html" target="_top" xlink:title="BoardComputer">
<polygon fill="white" stroke="red" points="192,-136.5 192,-155.5 276,-155.5 276,-136.5 192,-136.5"/>
<text text-anchor="middle" x="234" y="-143.5" font-family="Helvetica,sans-Serif" font-size="10.00">BoardComputer</text>
</a>
</g>
</g>
<!-- Node5&#45;&gt;Node2 -->
<g id="edge4" class="edge"><title>Node5&#45;&gt;Node2</title>
<path fill="none" stroke="#9a32cd" stroke-dasharray="5,2" d="M213.343,-130.4C202.408,-122.854 188.657,-113.648 176,-106 165.192,-99.4693 152.692,-92.7193 142.894,-87.6019"/>
<polygon fill="#9a32cd" stroke="#9a32cd" points="211.574,-133.433 221.78,-136.278 215.576,-127.69 211.574,-133.433"/>
<text text-anchor="middle" x="235.5" y="-109.5" font-family="Helvetica,sans-Serif" font-size="10.00"> m_boardComputer</text>
</g>
<!-- Node6 -->
<g id="node6" class="node"><title>Node6</title>
<g id="a_node6"><a xlink:href="class_handle.html" target="_top" xlink:title="Handle\&lt; WorldObject \&gt;">
<polygon fill="white" stroke="black" points="167.5,-68.5 167.5,-87.5 286.5,-87.5 286.5,-68.5 167.5,-68.5"/>
<text text-anchor="middle" x="227" y="-75.5" font-family="Helvetica,sans-Serif" font-size="10.00">Handle&lt; WorldObject &gt;</text>
</a>
</g>
</g>
<!-- Node6&#45;&gt;Node1 -->
<g id="edge5" class="edge"><title>Node6&#45;&gt;Node1</title>
<path fill="none" stroke="#9a32cd" stroke-dasharray="5,2" d="M219.833,-58.8066C214.837,-46.1244 208.391,-29.7615 204.483,-19.8411"/>
<polygon fill="#9a32cd" stroke="#9a32cd" points="216.679,-60.3504 223.601,-68.3717 223.192,-57.7847 216.679,-60.3504"/>
<text text-anchor="middle" x="238" y="-41.5" font-family="Helvetica,sans-Serif" font-size="10.00"> m_target</text>
</g>
</g>
</svg>
