<?xml version="1.0" encoding="UTF-8" standalone="no"?>
<!DOCTYPE svg PUBLIC "-//W3C//DTD SVG 1.1//EN"
 "http://www.w3.org/Graphics/SVG/1.1/DTD/svg11.dtd">
<!-- Generated by graphviz version 2.36.0 (20140111.2315)
 -->
<!-- Title: Script Pages: 1 -->
<svg width="528pt" height="115pt"
 viewBox="0.00 0.00 528.00 115.00" xmlns="http://www.w3.org/2000/svg" xmlns:xlink="http://www.w3.org/1999/xlink">
<g id="graph0" class="graph" transform="scale(1 1) rotate(0) translate(4 111)">
<title>Script</title>
<polygon fill="white" stroke="none" points="-4,4 -4,-111 524,-111 524,4 -4,4"/>
<!-- Node1 -->
<g id="node1" class="node"><title>Node1</title>
<polygon fill="#bfbfbf" stroke="black" points="478,-38.5 478,-57.5 520,-57.5 520,-38.5 478,-38.5"/>
<text text-anchor="middle" x="499" y="-45.5" font-family="Helvetica,sans-Serif" font-size="10.00">Script</text>
</g>
<!-- Node2 -->
<g id="node2" class="node"><title>Node2</title>
<polygon fill="white" stroke="#bfbfbf" points="234.5,-77 234.5,-107 353.5,-107 353.5,-77 234.5,-77"/>
<text text-anchor="start" x="242.5" y="-95" font-family="Helvetica,sans-Serif" font-size="10.00">std::vector&lt; std::unique</text>
<text text-anchor="middle" x="294" y="-84" font-family="Helvetica,sans-Serif" font-size="10.00">_ptr&lt; Bindings &gt; &gt;</text>
</g>
<!-- Node2&#45;&gt;Node1 -->
<g id="edge1" class="edge"><title>Node2&#45;&gt;Node1</title>
<path fill="none" stroke="#9a32cd" stroke-dasharray="5,2" d="M363.607,-83.1163C393.524,-78.4305 428.815,-71.7979 460,-63 465.87,-61.3438 472.085,-59.1076 477.75,-56.8679"/>
<polygon fill="#9a32cd" stroke="#9a32cd" points="363.038,-79.6624 353.681,-84.631 364.094,-86.5823 363.038,-79.6624"/>
<text text-anchor="middle" x="424" y="-81" font-family="Helvetica,sans-Serif" font-size="10.00"> m_bindings</text>
</g>
<!-- Node3 -->
<g id="node3" class="node"><title>Node3</title>
<polygon fill="white" stroke="#bfbfbf" points="0.5,-82.5 0.5,-101.5 137.5,-101.5 137.5,-82.5 0.5,-82.5"/>
<text text-anchor="middle" x="69" y="-89.5" font-family="Helvetica,sans-Serif" font-size="10.00">std::unique_ptr&lt; Bindings &gt;</text>
</g>
<!-- Node3&#45;&gt;Node2 -->
<g id="edge2" class="edge"><title>Node3&#45;&gt;Node2</title>
<path fill="none" stroke="#9a32cd" stroke-dasharray="5,2" d="M147.827,-92C176.261,-92 207.919,-92 234.397,-92"/>
<polygon fill="#9a32cd" stroke="#9a32cd" points="147.513,-88.5001 137.513,-92 147.512,-95.5001 147.513,-88.5001"/>
<text text-anchor="middle" x="178" y="-95" font-family="Helvetica,sans-Serif" font-size="10.00"> elements</text>
</g>
<!-- Node4 -->
<g id="node4" class="node"><title>Node4</title>
<g id="a_node4"><a xlink:title="STL class. ">
<polygon fill="white" stroke="#bfbfbf" points="264,-38.5 264,-57.5 324,-57.5 324,-38.5 264,-38.5"/>
<text text-anchor="middle" x="294" y="-45.5" font-family="Helvetica,sans-Serif" font-size="10.00">std::string</text>
</a>
</g>
</g>
<!-- Node4&#45;&gt;Node1 -->
<g id="edge3" class="edge"><title>Node4&#45;&gt;Node1</title>
<path fill="none" stroke="#9a32cd" stroke-dasharray="5,2" d="M334.192,-48C377.188,-48 444.514,-48 477.874,-48"/>
<polygon fill="#9a32cd" stroke="#9a32cd" points="334.085,-44.5001 324.085,-48 334.085,-51.5001 334.085,-44.5001"/>
<text text-anchor="middle" x="424" y="-51" font-family="Helvetica,sans-Serif" font-size="10.00"> m_debugStatus</text>
</g>
<!-- Node5 -->
<g id="node5" class="node"><title>Node5</title>
<polygon fill="white" stroke="#bfbfbf" points="218,-0.5 218,-19.5 370,-19.5 370,-0.5 218,-0.5"/>
<text text-anchor="middle" x="294" y="-7.5" font-family="Helvetica,sans-Serif" font-size="10.00">std::unique_ptr&lt; LuaWrapper &gt;</text>
</g>
<!-- Node5&#45;&gt;Node1 -->
<g id="edge4" class="edge"><title>Node5&#45;&gt;Node1</title>
<path fill="none" stroke="#9a32cd" stroke-dasharray="5,2" d="M380.238,-17.9604C406.109,-21.4229 434.442,-26.2768 460,-33 465.899,-34.5518 472.123,-36.7538 477.788,-38.994"/>
<polygon fill="#9a32cd" stroke="#9a32cd" points="380.442,-14.4579 370.077,-16.654 379.549,-21.4008 380.442,-14.4579"/>
<text text-anchor="middle" x="424" y="-36" font-family="Helvetica,sans-Serif" font-size="10.00"> m_lua</text>
</g>
<!-- Node6 -->
<g id="node6" class="node"><title>Node6</title>
<g id="a_node6"><a xlink:href="class_lua_wrapper.html" target="_top" xlink:title="LuaWrapper">
<polygon fill="white" stroke="red" points="34.5,-0.5 34.5,-19.5 103.5,-19.5 103.5,-0.5 34.5,-0.5"/>
<text text-anchor="middle" x="69" y="-7.5" font-family="Helvetica,sans-Serif" font-size="10.00">LuaWrapper</text>
</a>
</g>
</g>
<!-- Node6&#45;&gt;Node5 -->
<g id="edge5" class="edge"><title>Node6&#45;&gt;Node5</title>
<path fill="none" stroke="#9a32cd" stroke-dasharray="5,2" d="M114.253,-10C143.747,-10 183.26,-10 217.636,-10"/>
<polygon fill="#9a32cd" stroke="#9a32cd" points="113.869,-6.5001 103.869,-10 113.869,-13.5001 113.869,-6.5001"/>
<text text-anchor="middle" x="178" y="-13" font-family="Helvetica,sans-Serif" font-size="10.00"> ptr</text>
</g>
</g>
</svg>
