<?xml version="1.0" encoding="UTF-8" standalone="no"?>
<!DOCTYPE svg PUBLIC "-//W3C//DTD SVG 1.1//EN"
 "http://www.w3.org/Graphics/SVG/1.1/DTD/svg11.dtd">
<!-- Generated by graphviz version 2.36.0 (20140111.2315)
 -->
<!-- Title: World Pages: 1 -->
<svg width="1048pt" height="394pt"
 viewBox="0.00 0.00 1048.00 394.00" xmlns="http://www.w3.org/2000/svg" xmlns:xlink="http://www.w3.org/1999/xlink">
<g id="graph0" class="graph" transform="scale(1 1) rotate(0) translate(4 390)">
<title>World</title>
<polygon fill="white" stroke="none" points="-4,4 -4,-390 1044,-390 1044,4 -4,4"/>
<!-- Node1 -->
<g id="node1" class="node"><title>Node1</title>
<polygon fill="#bfbfbf" stroke="black" points="642,-186.5 642,-205.5 684,-205.5 684,-186.5 642,-186.5"/>
<text text-anchor="middle" x="663" y="-193.5" font-family="Helvetica,sans-Serif" font-size="10.00">World</text>
</g>
<!-- Node1&#45;&gt;Node1 -->
<g id="edge27" class="edge"><title>Node1&#45;&gt;Node1</title>
<path fill="none" stroke="#9a32cd" stroke-dasharray="5,2" d="M652.319,-215.766C653.158,-220.497 656.718,-224 663,-224 673.309,-224 676.288,-214.565 671.939,-205.757"/>
<polygon fill="#9a32cd" stroke="#9a32cd" points="655.794,-216.209 654.061,-205.757 648.898,-215.009 655.794,-216.209"/>
<text text-anchor="middle" x="663" y="-227" font-family="Helvetica,sans-Serif" font-size="10.00"> s_instance</text>
</g>
<!-- Node9 -->
<g id="node9" class="node"><title>Node9</title>
<g id="a_node9"><a xlink:href="class_world_logic.html" target="_top" xlink:title="WorldLogic">
<polygon fill="white" stroke="red" points="763.5,-285.5 763.5,-304.5 828.5,-304.5 828.5,-285.5 763.5,-285.5"/>
<text text-anchor="middle" x="796" y="-292.5" font-family="Helvetica,sans-Serif" font-size="10.00">WorldLogic</text>
</a>
</g>
</g>
<!-- Node1&#45;&gt;Node9 -->
<g id="edge9" class="edge"><title>Node1&#45;&gt;Node9</title>
<path fill="none" stroke="#9a32cd" stroke-dasharray="5,2" d="M669.115,-215.423C674.542,-232.271 684.767,-256.078 702,-270 719.297,-283.973 743.724,-290.175 763.202,-292.909"/>
<polygon fill="#9a32cd" stroke="#9a32cd" points="672.387,-214.143 666.215,-205.531 665.669,-216.112 672.387,-214.143"/>
<text text-anchor="middle" x="722" y="-291" font-family="Helvetica,sans-Serif" font-size="10.00"> m_world</text>
</g>
<!-- Node17 -->
<g id="node17" class="node"><title>Node17</title>
<g id="a_node17"><a xlink:href="class_script_engine.html" target="_top" xlink:title="ScriptEngine">
<polygon fill="white" stroke="red" points="760,-153.5 760,-172.5 832,-172.5 832,-153.5 760,-153.5"/>
<text text-anchor="middle" x="796" y="-160.5" font-family="Helvetica,sans-Serif" font-size="10.00">ScriptEngine</text>
</a>
</g>
</g>
<!-- Node1&#45;&gt;Node17 -->
<g id="edge19" class="edge"><title>Node1&#45;&gt;Node17</title>
<path fill="none" stroke="#9a32cd" stroke-dasharray="5,2" d="M693.827,-186.322C696.581,-185.507 699.337,-184.72 702,-184 721.015,-178.86 742.447,-173.961 759.941,-170.19"/>
<polygon fill="#9a32cd" stroke="#9a32cd" points="692.556,-183.051 684.023,-189.331 694.61,-189.743 692.556,-183.051"/>
<text text-anchor="middle" x="722" y="-187" font-family="Helvetica,sans-Serif" font-size="10.00"> m_world</text>
</g>
<!-- Node21 -->
<g id="node21" class="node"><title>Node21</title>
<g id="a_node21"><a xlink:href="class_god.html" target="_top" xlink:title="God">
<polygon fill="white" stroke="red" points="778.5,-115.5 778.5,-134.5 813.5,-134.5 813.5,-115.5 778.5,-115.5"/>
<text text-anchor="middle" x="796" y="-122.5" font-family="Helvetica,sans-Serif" font-size="10.00">God</text>
</a>
</g>
</g>
<!-- Node1&#45;&gt;Node21 -->
<g id="edge24" class="edge"><title>Node1&#45;&gt;Node21</title>
<path fill="none" stroke="#9a32cd" stroke-dasharray="5,2" d="M679.109,-179.002C685.645,-172.402 693.695,-165.197 702,-160 726.568,-144.626 758.942,-134.357 778.297,-129.114"/>
<polygon fill="#9a32cd" stroke="#9a32cd" points="676.525,-176.64 672.206,-186.314 681.616,-181.445 676.525,-176.64"/>
<text text-anchor="middle" x="722" y="-163" font-family="Helvetica,sans-Serif" font-size="10.00"> m_world</text>
</g>
<!-- Node2 -->
<g id="node2" class="node"><title>Node2</title>
<polygon fill="white" stroke="#bfbfbf" points="374.5,-359.5 374.5,-378.5 517.5,-378.5 517.5,-359.5 374.5,-359.5"/>
<text text-anchor="middle" x="446" y="-366.5" font-family="Helvetica,sans-Serif" font-size="10.00">std::unique_ptr&lt; WorldTree &gt;</text>
</g>
<!-- Node2&#45;&gt;Node1 -->
<g id="edge1" class="edge"><title>Node2&#45;&gt;Node1</title>
<path fill="none" stroke="#9a32cd" stroke-dasharray="5,2" d="M527.897,-376.149C561.332,-374.785 598.219,-367.066 624,-344 645.055,-325.162 657.38,-235.215 660.926,-205.53"/>
<polygon fill="#9a32cd" stroke="#9a32cd" points="527.567,-372.655 517.648,-376.378 527.724,-379.654 527.567,-372.655"/>
<text text-anchor="middle" x="581" y="-378" font-family="Helvetica,sans-Serif" font-size="10.00"> m_worldTree</text>
</g>
<!-- Node3 -->
<g id="node3" class="node"><title>Node3</title>
<g id="a_node3"><a xlink:href="class_world_tree.html" target="_top" xlink:title="WorldTree">
<polygon fill="white" stroke="red" points="155.5,-359.5 155.5,-378.5 216.5,-378.5 216.5,-359.5 155.5,-359.5"/>
<text text-anchor="middle" x="186" y="-366.5" font-family="Helvetica,sans-Serif" font-size="10.00">WorldTree</text>
</a>
</g>
</g>
<!-- Node3&#45;&gt;Node2 -->
<g id="edge2" class="edge"><title>Node3&#45;&gt;Node2</title>
<path fill="none" stroke="#9a32cd" stroke-dasharray="5,2" d="M226.814,-369C266.037,-369 326.804,-369 374.258,-369"/>
<polygon fill="#9a32cd" stroke="#9a32cd" points="226.596,-365.5 216.596,-369 226.596,-372.5 226.596,-365.5"/>
<text text-anchor="middle" x="305" y="-372" font-family="Helvetica,sans-Serif" font-size="10.00"> ptr</text>
</g>
<!-- Node4 -->
<g id="node4" class="node"><title>Node4</title>
<polygon fill="white" stroke="#bfbfbf" points="256,-313 256,-343 354,-343 354,-313 256,-313"/>
<text text-anchor="start" x="264" y="-331" font-family="Helvetica,sans-Serif" font-size="10.00">std::unordered_set</text>
<text text-anchor="middle" x="305" y="-320" font-family="Helvetica,sans-Serif" font-size="10.00">&lt; WorldObject * &gt;</text>
</g>
<!-- Node4&#45;&gt;Node1 -->
<g id="edge3" class="edge"><title>Node4&#45;&gt;Node1</title>
<path fill="none" stroke="#9a32cd" stroke-dasharray="5,2" d="M364.227,-327.02C444.777,-324.532 584.733,-315.769 624,-285 649.656,-264.897 658.25,-224.152 660.907,-205.595"/>
<polygon fill="#9a32cd" stroke="#9a32cd" points="364.126,-323.521 354.231,-327.306 364.327,-330.519 364.126,-323.521"/>
<text text-anchor="middle" x="446" y="-329" font-family="Helvetica,sans-Serif" font-size="10.00"> m_worldObjects</text>
</g>
<!-- Node5 -->
<g id="node5" class="node"><title>Node5</title>
<g id="a_node5"><a xlink:href="class_world_object.html" target="_top" xlink:title="WorldObject">
<polygon fill="white" stroke="red" points="0.5,-296.5 0.5,-315.5 71.5,-315.5 71.5,-296.5 0.5,-296.5"/>
<text text-anchor="middle" x="36" y="-303.5" font-family="Helvetica,sans-Serif" font-size="10.00">WorldObject</text>
</a>
</g>
</g>
<!-- Node5&#45;&gt;Node4 -->
<g id="edge4" class="edge"><title>Node5&#45;&gt;Node4</title>
<path fill="none" stroke="#9a32cd" stroke-dasharray="5,2" d="M81.7671,-309.689C129.98,-313.661 206.409,-319.959 255.883,-324.035"/>
<polygon fill="#9a32cd" stroke="#9a32cd" points="81.8855,-306.187 71.6319,-308.854 81.3106,-313.163 81.8855,-306.187"/>
<text text-anchor="middle" x="103" y="-315" font-family="Helvetica,sans-Serif" font-size="10.00"> keys</text>
</g>
<!-- Node11 -->
<g id="node11" class="node"><title>Node11</title>
<g id="a_node11"><a xlink:href="class_ship.html" target="_top" xlink:title="Ship">
<polygon fill="white" stroke="red" points="168,-274.5 168,-293.5 204,-293.5 204,-274.5 168,-274.5"/>
<text text-anchor="middle" x="186" y="-281.5" font-family="Helvetica,sans-Serif" font-size="10.00">Ship</text>
</a>
</g>
</g>
<!-- Node5&#45;&gt;Node11 -->
<g id="edge12" class="edge"><title>Node5&#45;&gt;Node11</title>
<path fill="none" stroke="midnightblue" d="M81.644,-299.364C110.714,-295.043 146.997,-289.649 167.931,-286.537"/>
<polygon fill="midnightblue" stroke="midnightblue" points="81.0761,-295.91 71.6994,-300.842 82.1054,-302.834 81.0761,-295.91"/>
</g>
<!-- Node6 -->
<g id="node6" class="node"><title>Node6</title>
<polygon fill="white" stroke="#bfbfbf" points="382.5,-224.5 382.5,-243.5 509.5,-243.5 509.5,-224.5 382.5,-224.5"/>
<text text-anchor="middle" x="446" y="-231.5" font-family="Helvetica,sans-Serif" font-size="10.00">std::unique_ptr&lt; Player &gt;</text>
</g>
<!-- Node6&#45;&gt;Node1 -->
<g id="edge5" class="edge"><title>Node6&#45;&gt;Node1</title>
<path fill="none" stroke="#9a32cd" stroke-dasharray="5,2" d="M520.109,-227.712C552.279,-224.018 590.329,-218.378 624,-210 629.867,-208.54 636.081,-206.481 641.746,-204.39"/>
<polygon fill="#9a32cd" stroke="#9a32cd" points="519.439,-224.264 509.884,-228.844 520.209,-231.222 519.439,-224.264"/>
<text text-anchor="middle" x="581" y="-228" font-family="Helvetica,sans-Serif" font-size="10.00"> m_player</text>
</g>
<!-- Node7 -->
<g id="node7" class="node"><title>Node7</title>
<g id="a_node7"><a xlink:href="class_player.html" target="_top" xlink:title="Player">
<polygon fill="white" stroke="red" points="164,-224.5 164,-243.5 208,-243.5 208,-224.5 164,-224.5"/>
<text text-anchor="middle" x="186" y="-231.5" font-family="Helvetica,sans-Serif" font-size="10.00">Player</text>
</a>
</g>
</g>
<!-- Node7&#45;&gt;Node6 -->
<g id="edge6" class="edge"><title>Node7&#45;&gt;Node6</title>
<path fill="none" stroke="#9a32cd" stroke-dasharray="5,2" d="M218.187,-234C258.681,-234 330.311,-234 382.261,-234"/>
<polygon fill="#9a32cd" stroke="#9a32cd" points="218.113,-230.5 208.113,-234 218.113,-237.5 218.113,-230.5"/>
<text text-anchor="middle" x="305" y="-237" font-family="Helvetica,sans-Serif" font-size="10.00"> ptr</text>
</g>
<!-- Node8 -->
<g id="node8" class="node"><title>Node8</title>
<polygon fill="white" stroke="#bfbfbf" points="888,-264.5 888,-283.5 1036,-283.5 1036,-264.5 888,-264.5"/>
<text text-anchor="middle" x="962" y="-271.5" font-family="Helvetica,sans-Serif" font-size="10.00">std::unique_ptr&lt; WorldLogic &gt;</text>
</g>
<!-- Node8&#45;&gt;Node1 -->
<g id="edge7" class="edge"><title>Node8&#45;&gt;Node1</title>
<path fill="none" stroke="#9a32cd" stroke-dasharray="5,2" d="M906.309,-262.336C853.557,-250.652 771.681,-231.373 702,-210 696.219,-208.227 690.034,-206.065 684.369,-203.976"/>
<polygon fill="#9a32cd" stroke="#9a32cd" points="905.616,-265.767 916.134,-264.499 907.121,-258.931 905.616,-265.767"/>
<text text-anchor="middle" x="796" y="-248" font-family="Helvetica,sans-Serif" font-size="10.00"> m_worldLogic</text>
</g>
<!-- Node9&#45;&gt;Node8 -->
<g id="edge8" class="edge"><title>Node9&#45;&gt;Node8</title>
<path fill="none" stroke="#9a32cd" stroke-dasharray="5,2" d="M838.551,-289.68C853.497,-287.766 870.835,-285.546 887.679,-283.389"/>
<polygon fill="#9a32cd" stroke="#9a32cd" points="838.095,-286.209 828.621,-290.951 838.984,-293.152 838.095,-286.209"/>
<text text-anchor="middle" x="858" y="-291" font-family="Helvetica,sans-Serif" font-size="10.00"> ptr</text>
</g>
<!-- Node10 -->
<g id="node10" class="node"><title>Node10</title>
<polygon fill="white" stroke="#bfbfbf" points="397,-263 397,-293 495,-293 495,-263 397,-263"/>
<text text-anchor="start" x="405" y="-281" font-family="Helvetica,sans-Serif" font-size="10.00">std::unordered_set</text>
<text text-anchor="middle" x="446" y="-270" font-family="Helvetica,sans-Serif" font-size="10.00">&lt; Ship * &gt;</text>
</g>
<!-- Node10&#45;&gt;Node1 -->
<g id="edge10" class="edge"><title>Node10&#45;&gt;Node1</title>
<path fill="none" stroke="#9a32cd" stroke-dasharray="5,2" d="M505.042,-274.913C541.353,-270.799 587.916,-261.383 624,-240 638.24,-231.561 649.831,-215.877 656.322,-205.694"/>
<polygon fill="#9a32cd" stroke="#9a32cd" points="504.678,-271.432 495.09,-275.939 505.396,-278.395 504.678,-271.432"/>
<text text-anchor="middle" x="581" y="-273" font-family="Helvetica,sans-Serif" font-size="10.00"> m_ships</text>
</g>
<!-- Node11&#45;&gt;Node10 -->
<g id="edge11" class="edge"><title>Node11&#45;&gt;Node10</title>
<path fill="none" stroke="#9a32cd" stroke-dasharray="5,2" d="M214.426,-283.362C257.857,-282.352 343.035,-280.371 396.822,-279.12"/>
<polygon fill="#9a32cd" stroke="#9a32cd" points="214.245,-279.865 204.329,-283.597 214.407,-286.863 214.245,-279.865"/>
<text text-anchor="middle" x="305" y="-286" font-family="Helvetica,sans-Serif" font-size="10.00"> keys</text>
</g>
<!-- Node12 -->
<g id="node12" class="node"><title>Node12</title>
<polygon fill="white" stroke="#bfbfbf" points="380,-186.5 380,-205.5 512,-205.5 512,-186.5 380,-186.5"/>
<text text-anchor="middle" x="446" y="-193.5" font-family="Helvetica,sans-Serif" font-size="10.00">std::unique_ptr&lt; Skybox &gt;</text>
</g>
<!-- Node12&#45;&gt;Node1 -->
<g id="edge13" class="edge"><title>Node12&#45;&gt;Node1</title>
<path fill="none" stroke="#9a32cd" stroke-dasharray="5,2" d="M522.172,-196C564.755,-196 614.8,-196 641.972,-196"/>
<polygon fill="#9a32cd" stroke="#9a32cd" points="522.091,-192.5 512.091,-196 522.091,-199.5 522.091,-192.5"/>
<text text-anchor="middle" x="581" y="-199" font-family="Helvetica,sans-Serif" font-size="10.00"> m_skybox</text>
</g>
<!-- Node13 -->
<g id="node13" class="node"><title>Node13</title>
<g id="a_node13"><a xlink:href="class_skybox.html" target="_top" xlink:title="Skybox">
<polygon fill="white" stroke="red" points="161,-186.5 161,-205.5 211,-205.5 211,-186.5 161,-186.5"/>
<text text-anchor="middle" x="186" y="-193.5" font-family="Helvetica,sans-Serif" font-size="10.00">Skybox</text>
</a>
</g>
</g>
<!-- Node13&#45;&gt;Node12 -->
<g id="edge14" class="edge"><title>Node13&#45;&gt;Node12</title>
<path fill="none" stroke="#9a32cd" stroke-dasharray="5,2" d="M221.392,-196C261.706,-196 329.403,-196 379.77,-196"/>
<polygon fill="#9a32cd" stroke="#9a32cd" points="221.272,-192.5 211.272,-196 221.272,-199.5 221.272,-192.5"/>
<text text-anchor="middle" x="305" y="-199" font-family="Helvetica,sans-Serif" font-size="10.00"> ptr</text>
</g>
<!-- Node14 -->
<g id="node14" class="node"><title>Node14</title>
<polygon fill="white" stroke="#bfbfbf" points="372,-137 372,-167 520,-167 520,-137 372,-137"/>
<text text-anchor="start" x="380" y="-155" font-family="Helvetica,sans-Serif" font-size="10.00">std::unique_ptr&lt; VoxelParticle</text>
<text text-anchor="middle" x="446" y="-144" font-family="Helvetica,sans-Serif" font-size="10.00">Engine &gt;</text>
</g>
<!-- Node14&#45;&gt;Node1 -->
<g id="edge15" class="edge"><title>Node14&#45;&gt;Node1</title>
<path fill="none" stroke="#9a32cd" stroke-dasharray="5,2" d="M530.078,-161.872C559.988,-166.404 593.795,-172.667 624,-181 629.88,-182.622 636.098,-184.847 641.763,-187.087"/>
<polygon fill="#9a32cd" stroke="#9a32cd" points="530.498,-158.396 520.095,-160.401 529.478,-165.321 530.498,-158.396"/>
<text text-anchor="middle" x="581" y="-184" font-family="Helvetica,sans-Serif" font-size="10.00"> m_particleEngine</text>
</g>
<!-- Node15 -->
<g id="node15" class="node"><title>Node15</title>
<g id="a_node15"><a xlink:href="class_voxel_particle_engine.html" target="_top" xlink:title="VoxelParticleEngine">
<polygon fill="white" stroke="red" points="134,-142.5 134,-161.5 238,-161.5 238,-142.5 134,-142.5"/>
<text text-anchor="middle" x="186" y="-149.5" font-family="Helvetica,sans-Serif" font-size="10.00">VoxelParticleEngine</text>
</a>
</g>
</g>
<!-- Node15&#45;&gt;Node14 -->
<g id="edge16" class="edge"><title>Node15&#45;&gt;Node14</title>
<path fill="none" stroke="#9a32cd" stroke-dasharray="5,2" d="M248.437,-152C285.474,-152 332.863,-152 371.83,-152"/>
<polygon fill="#9a32cd" stroke="#9a32cd" points="248.281,-148.5 238.281,-152 248.281,-155.5 248.281,-148.5"/>
<text text-anchor="middle" x="305" y="-155" font-family="Helvetica,sans-Serif" font-size="10.00"> ptr</text>
</g>
<!-- Node16 -->
<g id="node16" class="node"><title>Node16</title>
<polygon fill="white" stroke="#bfbfbf" points="884.5,-181.5 884.5,-200.5 1039.5,-200.5 1039.5,-181.5 884.5,-181.5"/>
<text text-anchor="middle" x="962" y="-188.5" font-family="Helvetica,sans-Serif" font-size="10.00">std::unique_ptr&lt; ScriptEngine &gt;</text>
</g>
<!-- Node16&#45;&gt;Node1 -->
<g id="edge17" class="edge"><title>Node16&#45;&gt;Node1</title>
<path fill="none" stroke="#9a32cd" stroke-dasharray="5,2" d="M874.432,-192.69C834.169,-193.448 785.64,-194.322 742,-195 722.365,-195.305 699.949,-195.585 684.202,-195.771"/>
<polygon fill="#9a32cd" stroke="#9a32cd" points="874.55,-196.188 884.482,-192.5 874.417,-189.189 874.55,-196.188"/>
<text text-anchor="middle" x="796" y="-198" font-family="Helvetica,sans-Serif" font-size="10.00"> m_scriptEngine</text>
</g>
<!-- Node17&#45;&gt;Node16 -->
<g id="edge18" class="edge"><title>Node17&#45;&gt;Node16</title>
<path fill="none" stroke="#9a32cd" stroke-dasharray="5,2" d="M842.04,-170.69C861.569,-174.024 884.635,-177.962 905.232,-181.479"/>
<polygon fill="#9a32cd" stroke="#9a32cd" points="842.629,-167.24 832.182,-169.007 841.45,-174.14 842.629,-167.24"/>
<text text-anchor="middle" x="858" y="-178" font-family="Helvetica,sans-Serif" font-size="10.00"> ptr</text>
</g>
<!-- Node18 -->
<g id="node18" class="node"><title>Node18</title>
<polygon fill="white" stroke="#bfbfbf" points="385,-88 385,-118 507,-118 507,-88 385,-88"/>
<text text-anchor="start" x="393" y="-106" font-family="Helvetica,sans-Serif" font-size="10.00">std::unique_ptr&lt; Faction</text>
<text text-anchor="middle" x="446" y="-95" font-family="Helvetica,sans-Serif" font-size="10.00">Matrix &gt;</text>
</g>
<!-- Node18&#45;&gt;Node1 -->
<g id="edge20" class="edge"><title>Node18&#45;&gt;Node1</title>
<path fill="none" stroke="#9a32cd" stroke-dasharray="5,2" d="M517.335,-110.797C551.608,-117.107 592.182,-128.49 624,-149 638.64,-158.437 650.272,-175.398 656.641,-186.157"/>
<polygon fill="#9a32cd" stroke="#9a32cd" points="517.835,-107.332 507.385,-109.073 516.64,-114.229 517.835,-107.332"/>
<text text-anchor="middle" x="581" y="-152" font-family="Helvetica,sans-Serif" font-size="10.00"> m_factionMatrix</text>
</g>
<!-- Node19 -->
<g id="node19" class="node"><title>Node19</title>
<g id="a_node19"><a xlink:href="class_faction_matrix.html" target="_top" xlink:title="FactionMatrix">
<polygon fill="white" stroke="red" points="148,-93.5 148,-112.5 224,-112.5 224,-93.5 148,-93.5"/>
<text text-anchor="middle" x="186" y="-100.5" font-family="Helvetica,sans-Serif" font-size="10.00">FactionMatrix</text>
</a>
</g>
</g>
<!-- Node19&#45;&gt;Node18 -->
<g id="edge21" class="edge"><title>Node19&#45;&gt;Node18</title>
<path fill="none" stroke="#9a32cd" stroke-dasharray="5,2" d="M234.286,-103C276.631,-103 338.941,-103 384.825,-103"/>
<polygon fill="#9a32cd" stroke="#9a32cd" points="234.24,-99.5001 224.24,-103 234.24,-106.5 234.24,-99.5001"/>
<text text-anchor="middle" x="305" y="-106" font-family="Helvetica,sans-Serif" font-size="10.00"> ptr</text>
</g>
<!-- Node20 -->
<g id="node20" class="node"><title>Node20</title>
<polygon fill="white" stroke="#bfbfbf" points="903.5,-93.5 903.5,-112.5 1020.5,-112.5 1020.5,-93.5 903.5,-93.5"/>
<text text-anchor="middle" x="962" y="-100.5" font-family="Helvetica,sans-Serif" font-size="10.00">std::unique_ptr&lt; God &gt;</text>
</g>
<!-- Node20&#45;&gt;Node1 -->
<g id="edge22" class="edge"><title>Node20&#45;&gt;Node1</title>
<path fill="none" stroke="#9a32cd" stroke-dasharray="5,2" d="M911.841,-91.5896C870.299,-84.1513 809.783,-78.5587 760,-95 713.598,-110.325 680.653,-164.35 668.818,-186.46"/>
<polygon fill="#9a32cd" stroke="#9a32cd" points="911.237,-95.0374 921.713,-93.4559 912.537,-88.1592 911.237,-95.0374"/>
<text text-anchor="middle" x="796" y="-98" font-family="Helvetica,sans-Serif" font-size="10.00"> m_god</text>
</g>
<!-- Node21&#45;&gt;Node20 -->
<g id="edge23" class="edge"><title>Node21&#45;&gt;Node20</title>
<path fill="none" stroke="#9a32cd" stroke-dasharray="5,2" d="M823.648,-121.425C845.154,-118.54 876.189,-114.377 903.319,-110.738"/>
<polygon fill="#9a32cd" stroke="#9a32cd" points="823.074,-117.971 813.628,-122.769 824.004,-124.909 823.074,-117.971"/>
<text text-anchor="middle" x="858" y="-121" font-family="Helvetica,sans-Serif" font-size="10.00"> ptr</text>
</g>
<!-- Node22 -->
<g id="node22" class="node"><title>Node22</title>
<polygon fill="white" stroke="#bfbfbf" points="384,-39 384,-69 508,-69 508,-39 384,-39"/>
<text text-anchor="start" x="392" y="-57" font-family="Helvetica,sans-Serif" font-size="10.00">std::unique_ptr&lt; Mission</text>
<text text-anchor="middle" x="446" y="-46" font-family="Helvetica,sans-Serif" font-size="10.00">System &gt;</text>
</g>
<!-- Node22&#45;&gt;Node1 -->
<g id="edge25" class="edge"><title>Node22&#45;&gt;Node1</title>
<path fill="none" stroke="#9a32cd" stroke-dasharray="5,2" d="M518.683,-58.1374C554.051,-63.586 595.19,-75.4803 624,-101 649.929,-123.968 658.405,-167.066 660.972,-186.301"/>
<polygon fill="#9a32cd" stroke="#9a32cd" points="518.783,-54.6176 508.395,-56.7054 517.817,-61.5508 518.783,-54.6176"/>
<text text-anchor="middle" x="581" y="-104" font-family="Helvetica,sans-Serif" font-size="10.00"> m_missionSystem</text>
</g>
<!-- Node23 -->
<g id="node23" class="node"><title>Node23</title>
<g id="a_node23"><a xlink:href="class_mission_system.html" target="_top" xlink:title="MissionSystem">
<polygon fill="white" stroke="red" points="144,-44.5 144,-63.5 228,-63.5 228,-44.5 144,-44.5"/>
<text text-anchor="middle" x="186" y="-51.5" font-family="Helvetica,sans-Serif" font-size="10.00">MissionSystem</text>
</a>
</g>
</g>
<!-- Node23&#45;&gt;Node22 -->
<g id="edge26" class="edge"><title>Node23&#45;&gt;Node22</title>
<path fill="none" stroke="#9a32cd" stroke-dasharray="5,2" d="M238.415,-54C280.276,-54 339.479,-54 383.783,-54"/>
<polygon fill="#9a32cd" stroke="#9a32cd" points="238.166,-50.5001 228.166,-54 238.166,-57.5001 238.166,-50.5001"/>
<text text-anchor="middle" x="305" y="-57" font-family="Helvetica,sans-Serif" font-size="10.00"> ptr</text>
</g>
<!-- Node24 -->
<g id="node24" class="node"><title>Node24</title>
<polygon fill="white" stroke="#bfbfbf" points="372,-0.5 372,-19.5 520,-19.5 520,-0.5 372,-0.5"/>
<text text-anchor="middle" x="446" y="-7.5" font-family="Helvetica,sans-Serif" font-size="10.00">std::unique_ptr&lt; EventPoller &gt;</text>
</g>
<!-- Node24&#45;&gt;Node1 -->
<g id="edge28" class="edge"><title>Node24&#45;&gt;Node1</title>
<path fill="none" stroke="#9a32cd" stroke-dasharray="5,2" d="M530.442,-9.69651C563.41,-13.8122 599.252,-24.2191 624,-48 644.276,-67.4834 657.03,-156.195 660.815,-186.113"/>
<polygon fill="#9a32cd" stroke="#9a32cd" points="530.634,-6.19715 520.318,-8.61338 529.889,-13.1574 530.634,-6.19715"/>
<text text-anchor="middle" x="581" y="-51" font-family="Helvetica,sans-Serif" font-size="10.00"> m_eventPoller</text>
</g>
<!-- Node25 -->
<g id="node25" class="node"><title>Node25</title>
<g id="a_node25"><a xlink:href="class_event_poller.html" target="_top" xlink:title="EventPoller">
<polygon fill="white" stroke="red" points="153.5,-0.5 153.5,-19.5 218.5,-19.5 218.5,-0.5 153.5,-0.5"/>
<text text-anchor="middle" x="186" y="-7.5" font-family="Helvetica,sans-Serif" font-size="10.00">EventPoller</text>
</a>
</g>
</g>
<!-- Node25&#45;&gt;Node24 -->
<g id="edge29" class="edge"><title>Node25&#45;&gt;Node24</title>
<path fill="none" stroke="#9a32cd" stroke-dasharray="5,2" d="M228.988,-10C267.616,-10 325.743,-10 371.973,-10"/>
<polygon fill="#9a32cd" stroke="#9a32cd" points="228.636,-6.5001 218.636,-10 228.636,-13.5001 228.636,-6.5001"/>
<text text-anchor="middle" x="305" y="-13" font-family="Helvetica,sans-Serif" font-size="10.00"> ptr</text>
</g>
</g>
</svg>
