<?xml version="1.0" encoding="UTF-8" standalone="no"?>
<!DOCTYPE svg PUBLIC "-//W3C//DTD SVG 1.1//EN"
 "http://www.w3.org/Graphics/SVG/1.1/DTD/svg11.dtd">
<!-- Generated by graphviz version 2.36.0 (20140111.2315)
 -->
<!-- Title: Projectile Pages: 1 -->
<svg width="183pt" height="252pt"
 viewBox="0.00 0.00 183.00 252.00" xmlns="http://www.w3.org/2000/svg" xmlns:xlink="http://www.w3.org/1999/xlink">
<g id="graph0" class="graph" transform="scale(1 1) rotate(0) translate(4 248)">
<title>Projectile</title>
<polygon fill="white" stroke="none" points="-4,4 -4,-248 179,-248 179,4 -4,4"/>
<!-- Node1 -->
<g id="node1" class="node"><title>Node1</title>
<polygon fill="#bfbfbf" stroke="black" points="49.5,-112.5 49.5,-131.5 106.5,-131.5 106.5,-112.5 49.5,-112.5"/>
<text text-anchor="middle" x="78" y="-119.5" font-family="Helvetica,sans-Serif" font-size="10.00">Projectile</text>
</g>
<!-- Node5 -->
<g id="node5" class="node"><title>Node5</title>
<g id="a_node5"><a xlink:href="class_bullet.html" target="_top" xlink:title="Bullet">
<polygon fill="white" stroke="black" points="26.5,-56.5 26.5,-75.5 67.5,-75.5 67.5,-56.5 26.5,-56.5"/>
<text text-anchor="middle" x="47" y="-63.5" font-family="Helvetica,sans-Serif" font-size="10.00">Bullet</text>
</a>
</g>
</g>
<!-- Node1&#45;&gt;Node5 -->
<g id="edge4" class="edge"><title>Node1&#45;&gt;Node5</title>
<path fill="none" stroke="midnightblue" d="M67.8244,-103.275C62.5261,-94.0454 56.283,-83.1703 52.0238,-75.7511"/>
<polygon fill="midnightblue" stroke="midnightblue" points="64.8669,-105.153 72.881,-112.083 70.9376,-101.668 64.8669,-105.153"/>
</g>
<!-- Node7 -->
<g id="node7" class="node"><title>Node7</title>
<g id="a_node7"><a xlink:href="class_rocket.html" target="_top" xlink:title="Rocket">
<polygon fill="white" stroke="black" points="102.5,-56.5 102.5,-75.5 149.5,-75.5 149.5,-56.5 102.5,-56.5"/>
<text text-anchor="middle" x="126" y="-63.5" font-family="Helvetica,sans-Serif" font-size="10.00">Rocket</text>
</a>
</g>
</g>
<!-- Node1&#45;&gt;Node7 -->
<g id="edge6" class="edge"><title>Node1&#45;&gt;Node7</title>
<path fill="none" stroke="midnightblue" d="M92.7277,-104.431C101.14,-94.9673 111.349,-83.4827 118.221,-75.7511"/>
<polygon fill="midnightblue" stroke="midnightblue" points="89.954,-102.284 85.9262,-112.083 95.1858,-106.934 89.954,-102.284"/>
</g>
<!-- Node2 -->
<g id="node2" class="node"><title>Node2</title>
<g id="a_node2"><a xlink:href="class_world_object.html" target="_top" xlink:title="WorldObject">
<polygon fill="white" stroke="black" points="42.5,-168.5 42.5,-187.5 113.5,-187.5 113.5,-168.5 42.5,-168.5"/>
<text text-anchor="middle" x="78" y="-175.5" font-family="Helvetica,sans-Serif" font-size="10.00">WorldObject</text>
</a>
</g>
</g>
<!-- Node2&#45;&gt;Node1 -->
<g id="edge1" class="edge"><title>Node2&#45;&gt;Node1</title>
<path fill="none" stroke="midnightblue" d="M78,-157.805C78,-148.91 78,-138.78 78,-131.751"/>
<polygon fill="midnightblue" stroke="midnightblue" points="74.5001,-158.083 78,-168.083 81.5001,-158.083 74.5001,-158.083"/>
</g>
<!-- Node3 -->
<g id="node3" class="node"><title>Node3</title>
<g id="a_node3"><a xlink:href="class_voxel_cluster.html" target="_top" xlink:title="VoxelCluster">
<polygon fill="white" stroke="black" points="0,-224.5 0,-243.5 72,-243.5 72,-224.5 0,-224.5"/>
<text text-anchor="middle" x="36" y="-231.5" font-family="Helvetica,sans-Serif" font-size="10.00">VoxelCluster</text>
</a>
</g>
</g>
<!-- Node3&#45;&gt;Node2 -->
<g id="edge2" class="edge"><title>Node3&#45;&gt;Node2</title>
<path fill="none" stroke="midnightblue" d="M49.1102,-216.144C56.4278,-206.736 65.2409,-195.405 71.1936,-187.751"/>
<polygon fill="midnightblue" stroke="midnightblue" points="46.3122,-214.041 42.9354,-224.083 51.8376,-218.338 46.3122,-214.041"/>
</g>
<!-- Node4 -->
<g id="node4" class="node"><title>Node4</title>
<g id="a_node4"><a xlink:href="class_scriptable.html" target="_top" xlink:title="Scriptable">
<polygon fill="white" stroke="black" points="90,-224.5 90,-243.5 150,-243.5 150,-224.5 90,-224.5"/>
<text text-anchor="middle" x="120" y="-231.5" font-family="Helvetica,sans-Serif" font-size="10.00">Scriptable</text>
</a>
</g>
</g>
<!-- Node4&#45;&gt;Node2 -->
<g id="edge3" class="edge"><title>Node4&#45;&gt;Node2</title>
<path fill="none" stroke="midnightblue" d="M106.89,-216.144C99.5722,-206.736 90.7591,-195.405 84.8064,-187.751"/>
<polygon fill="midnightblue" stroke="midnightblue" points="104.162,-218.338 113.065,-224.083 109.688,-214.041 104.162,-218.338"/>
</g>
<!-- Node6 -->
<g id="node6" class="node"><title>Node6</title>
<g id="a_node6"><a xlink:href="class_generic_bullet.html" target="_top" xlink:title="GenericBullet">
<polygon fill="white" stroke="black" points="1.5,-0.5 1.5,-19.5 76.5,-19.5 76.5,-0.5 1.5,-0.5"/>
<text text-anchor="middle" x="39" y="-7.5" font-family="Helvetica,sans-Serif" font-size="10.00">GenericBullet</text>
</a>
</g>
</g>
<!-- Node5&#45;&gt;Node6 -->
<g id="edge5" class="edge"><title>Node5&#45;&gt;Node6</title>
<path fill="none" stroke="midnightblue" d="M44.2001,-46.1005C42.872,-37.1357 41.3493,-26.8579 40.2965,-19.7511"/>
<polygon fill="midnightblue" stroke="midnightblue" points="40.7512,-46.7039 45.679,-56.083 47.6756,-45.678 40.7512,-46.7039"/>
</g>
<!-- Node8 -->
<g id="node8" class="node"><title>Node8</title>
<g id="a_node8"><a xlink:href="class_generic_rocket.html" target="_top" xlink:title="GenericRocket">
<polygon fill="white" stroke="black" points="94.5,-0.5 94.5,-19.5 175.5,-19.5 175.5,-0.5 94.5,-0.5"/>
<text text-anchor="middle" x="135" y="-7.5" font-family="Helvetica,sans-Serif" font-size="10.00">GenericRocket</text>
</a>
</g>
</g>
<!-- Node7&#45;&gt;Node8 -->
<g id="edge7" class="edge"><title>Node7&#45;&gt;Node8</title>
<path fill="none" stroke="midnightblue" d="M129.15,-46.1005C130.644,-37.1357 132.357,-26.8579 133.541,-19.7511"/>
<polygon fill="midnightblue" stroke="midnightblue" points="125.678,-45.6436 127.486,-56.083 132.583,-46.7945 125.678,-45.6436"/>
</g>
</g>
</svg>
