<?xml version="1.0" encoding="UTF-8" standalone="no"?>
<!DOCTYPE svg PUBLIC "-//W3C//DTD SVG 1.1//EN"
 "http://www.w3.org/Graphics/SVG/1.1/DTD/svg11.dtd">
<!-- Generated by graphviz version 2.36.0 (20140111.2315)
 -->
<!-- Title: Scriptable Pages: 1 -->
<!--zoomable 522 -->
<svg id="main" version="1.1" xmlns="http://www.w3.org/2000/svg" xmlns:xlink="http://www.w3.org/1999/xlink" xml:space="preserve" onload="init(evt)">
<style type="text/css"><![CDATA[
.edge:hover path { stroke: red; }
.edge:hover polygon { stroke: red; fill: red; }
]]></style>
<script type="text/javascript"><![CDATA[
var edges = document.getElementsByTagName('g');
if (edges && edges.length) {
  for (var i=0;i<edges.length;i++) {
    if (edges[i].id.substr(0,4)=='edge') {
      edges[i].setAttribute('class','edge');
    }
  }
}
]]></script>
        <defs>
                <circle id="rim" cx="0" cy="0" r="7"/>
                <circle id="rim2" cx="0" cy="0" r="3.5"/>
                <g id="zoomPlus">
                        <use xlink:href="#rim" fill="#404040">
                                <set attributeName="fill" to="#808080" begin="zoomplus.mouseover" end="zoomplus.mouseout"/>
                        </use>
                        <path d="M-4,0h8M0,-4v8" fill="none" stroke="white" stroke-width="1.5" pointer-events="none"/>
                </g>
                <g id="zoomMin">
                        <use xlink:href="#rim" fill="#404040">
                                <set attributeName="fill" to="#808080" begin="zoomminus.mouseover" end="zoomminus.mouseout"/>
                        </use>
                        <path d="M-4,0h8" fill="none" stroke="white" stroke-width="1.5" pointer-events="none"/>
                </g>
                <g id="dirArrow">
                        <path fill="none" stroke="white" stroke-width="1.5" d="M0,-3.0v7 M-2.5,-0.5L0,-3.0L2.5,-0.5"/>
                </g>
               <g id="resetDef">
                       <use xlink:href="#rim2" fill="#404040">
                               <set attributeName="fill" to="#808080" begin="reset.mouseover" end="reset.mouseout"/>
                       </use>
               </g>
        </defs>

<script type="text/javascript">
var viewWidth = 346;
var viewHeight = 522;
var sectionId = 'dynsection-0';
</script>
<script xlink:href="svgpan.js"/>
<svg id="graph" class="graph">
<g id="viewport">
<title>Scriptable</title>
<polygon fill="white" stroke="none" points="-4,4 -4,-518 342,-518 342,4 -4,4"/>
<!-- Node1 -->
<g id="node1" class="node"><title>Node1</title>
<polygon fill="#bfbfbf" stroke="black" points="0,-228.5 0,-247.5 60,-247.5 60,-228.5 0,-228.5"/>
<text text-anchor="middle" x="30" y="-235.5" font-family="Helvetica,sans-Serif" font-size="10.00">Scriptable</text>
</g>
<!-- Node2 -->
<g id="node2" class="node"><title>Node2</title>
<g id="a_node2"><a xlink:href="class_ai_group_task.html" target="_top" xlink:title="AiGroupTask">
<polygon fill="white" stroke="black" points="96.5,-456.5 96.5,-475.5 169.5,-475.5 169.5,-456.5 96.5,-456.5"/>
<text text-anchor="middle" x="133" y="-463.5" font-family="Helvetica,sans-Serif" font-size="10.00">AiGroupTask</text>
</a>
</g>
</g>
<!-- Node1&#45;&gt;Node2 -->
<g id="edge1" class="edge"><title>Node1&#45;&gt;Node2</title>
<path fill="none" stroke="midnightblue" d="M39.2877,-256.709C59.8162,-303.051 112.47,-421.911 127.771,-456.453"/>
<polygon fill="midnightblue" stroke="midnightblue" points="42.4616,-255.232 35.2113,-247.507 36.0615,-258.067 42.4616,-255.232"/>
</g>
<!-- Node5 -->
<g id="node5" class="node"><title>Node5</title>
<g id="a_node5"><a xlink:href="class_ai_task.html" target="_top" xlink:title="AiTask">
<polygon fill="white" stroke="black" points="109.5,-342.5 109.5,-361.5 156.5,-361.5 156.5,-342.5 109.5,-342.5"/>
<text text-anchor="middle" x="133" y="-349.5" font-family="Helvetica,sans-Serif" font-size="10.00">AiTask</text>
</a>
</g>
</g>
<!-- Node1&#45;&gt;Node5 -->
<g id="edge4" class="edge"><title>Node1&#45;&gt;Node5</title>
<path fill="none" stroke="midnightblue" d="M46.4732,-255.465C68.0277,-279.794 106.36,-323.059 123.411,-342.305"/>
<polygon fill="midnightblue" stroke="midnightblue" points="48.8624,-252.884 39.6112,-247.72 43.6229,-257.526 48.8624,-252.884"/>
</g>
<!-- Node10 -->
<g id="node10" class="node"><title>Node10</title>
<g id="a_node10"><a xlink:href="class_event_poll.html" target="_top" xlink:title="EventPoll">
<polygon fill="white" stroke="black" points="104.5,-228.5 104.5,-247.5 161.5,-247.5 161.5,-228.5 104.5,-228.5"/>
<text text-anchor="middle" x="133" y="-235.5" font-family="Helvetica,sans-Serif" font-size="10.00">EventPoll</text>
</a>
</g>
</g>
<!-- Node1&#45;&gt;Node10 -->
<g id="edge9" class="edge"><title>Node1&#45;&gt;Node10</title>
<path fill="none" stroke="midnightblue" d="M70.3248,-238C81.6529,-238 93.7709,-238 104.241,-238"/>
<polygon fill="midnightblue" stroke="midnightblue" points="70.2134,-234.5 60.2134,-238 70.2134,-241.5 70.2134,-234.5"/>
</g>
<!-- Node15 -->
<g id="node15" class="node"><title>Node15</title>
<g id="a_node15"><a xlink:href="class_squad.html" target="_top" xlink:title="Squad">
<polygon fill="white" stroke="black" points="111,-190.5 111,-209.5 155,-209.5 155,-190.5 111,-190.5"/>
<text text-anchor="middle" x="133" y="-197.5" font-family="Helvetica,sans-Serif" font-size="10.00">Squad</text>
</a>
</g>
</g>
<!-- Node1&#45;&gt;Node15 -->
<g id="edge14" class="edge"><title>Node1&#45;&gt;Node15</title>
<path fill="none" stroke="midnightblue" d="M65.9762,-224.841C80.9553,-219.205 97.9529,-212.81 110.95,-207.92"/>
<polygon fill="midnightblue" stroke="midnightblue" points="64.6135,-221.614 56.4866,-228.411 67.0786,-228.165 64.6135,-221.614"/>
</g>
<!-- Node16 -->
<g id="node16" class="node"><title>Node16</title>
<g id="a_node16"><a xlink:href="class_world_object.html" target="_top" xlink:title="WorldObject">
<polygon fill="white" stroke="black" points="97.5,-76.5 97.5,-95.5 168.5,-95.5 168.5,-76.5 97.5,-76.5"/>
<text text-anchor="middle" x="133" y="-83.5" font-family="Helvetica,sans-Serif" font-size="10.00">WorldObject</text>
</a>
</g>
</g>
<!-- Node1&#45;&gt;Node16 -->
<g id="edge15" class="edge"><title>Node1&#45;&gt;Node16</title>
<path fill="none" stroke="midnightblue" d="M42.9798,-219.971C64.5426,-187.52 109.178,-120.345 125.684,-95.5047"/>
<polygon fill="midnightblue" stroke="midnightblue" points="39.9373,-218.226 37.318,-228.492 45.7675,-222.1 39.9373,-218.226"/>
</g>
<!-- Node3 -->
<g id="node3" class="node"><title>Node3</title>
<g id="a_node3"><a xlink:href="class_defend_area_task.html" target="_top" xlink:title="DefendAreaTask">
<polygon fill="white" stroke="black" points="228,-494.5 228,-513.5 316,-513.5 316,-494.5 228,-494.5"/>
<text text-anchor="middle" x="272" y="-501.5" font-family="Helvetica,sans-Serif" font-size="10.00">DefendAreaTask</text>
</a>
</g>
</g>
<!-- Node2&#45;&gt;Node3 -->
<g id="edge2" class="edge"><title>Node2&#45;&gt;Node3</title>
<path fill="none" stroke="midnightblue" d="M178.411,-478.318C197.234,-483.539 218.838,-489.532 236.44,-494.414"/>
<polygon fill="midnightblue" stroke="midnightblue" points="179.143,-474.889 168.571,-475.589 177.272,-481.635 179.143,-474.889"/>
</g>
<!-- Node4 -->
<g id="node4" class="node"><title>Node4</title>
<g id="a_node4"><a xlink:href="class_patrol_waypoints_task.html" target="_top" xlink:title="PatrolWaypointsTask">
<polygon fill="white" stroke="black" points="217,-456.5 217,-475.5 327,-475.5 327,-456.5 217,-456.5"/>
<text text-anchor="middle" x="272" y="-463.5" font-family="Helvetica,sans-Serif" font-size="10.00">PatrolWaypointsTask</text>
</a>
</g>
</g>
<!-- Node2&#45;&gt;Node4 -->
<g id="edge3" class="edge"><title>Node2&#45;&gt;Node4</title>
<path fill="none" stroke="midnightblue" d="M179.795,-466C191.705,-466 204.646,-466 216.938,-466"/>
<polygon fill="midnightblue" stroke="midnightblue" points="179.638,-462.5 169.638,-466 179.637,-469.5 179.638,-462.5"/>
</g>
<!-- Node6 -->
<g id="node6" class="node"><title>Node6</title>
<g id="a_node6"><a xlink:href="class_direct_suicide_task.html" target="_top" xlink:title="DirectSuicideTask">
<polygon fill="white" stroke="black" points="224.5,-418.5 224.5,-437.5 319.5,-437.5 319.5,-418.5 224.5,-418.5"/>
<text text-anchor="middle" x="272" y="-425.5" font-family="Helvetica,sans-Serif" font-size="10.00">DirectSuicideTask</text>
</a>
</g>
</g>
<!-- Node5&#45;&gt;Node6 -->
<g id="edge5" class="edge"><title>Node5&#45;&gt;Node6</title>
<path fill="none" stroke="midnightblue" d="M151.158,-368.751C164.965,-381.404 185.399,-398.353 206,-409 213.311,-412.779 221.484,-415.911 229.501,-418.469"/>
<polygon fill="midnightblue" stroke="midnightblue" points="153.528,-366.175 143.844,-361.878 148.734,-371.276 153.528,-366.175"/>
</g>
<!-- Node7 -->
<g id="node7" class="node"><title>Node7</title>
<g id="a_node7"><a xlink:href="class_fight_task.html" target="_top" xlink:title="FightTask">
<polygon fill="white" stroke="black" points="242.5,-380.5 242.5,-399.5 301.5,-399.5 301.5,-380.5 242.5,-380.5"/>
<text text-anchor="middle" x="272" y="-387.5" font-family="Helvetica,sans-Serif" font-size="10.00">FightTask</text>
</a>
</g>
</g>
<!-- Node5&#45;&gt;Node7 -->
<g id="edge6" class="edge"><title>Node5&#45;&gt;Node7</title>
<path fill="none" stroke="midnightblue" d="M166.282,-360.954C189.29,-367.336 219.951,-375.84 242.145,-381.996"/>
<polygon fill="midnightblue" stroke="midnightblue" points="167.194,-357.575 156.623,-358.275 165.323,-364.32 167.194,-357.575"/>
</g>
<!-- Node8 -->
<g id="node8" class="node"><title>Node8</title>
<g id="a_node8"><a xlink:href="class_fly_to_task.html" target="_top" xlink:title="FlyToTask">
<polygon fill="white" stroke="black" points="241,-342.5 241,-361.5 303,-361.5 303,-342.5 241,-342.5"/>
<text text-anchor="middle" x="272" y="-349.5" font-family="Helvetica,sans-Serif" font-size="10.00">FlyToTask</text>
</a>
</g>
</g>
<!-- Node5&#45;&gt;Node8 -->
<g id="edge7" class="edge"><title>Node5&#45;&gt;Node8</title>
<path fill="none" stroke="midnightblue" d="M166.726,-352C189.253,-352 218.955,-352 240.895,-352"/>
<polygon fill="midnightblue" stroke="midnightblue" points="166.623,-348.5 156.623,-352 166.623,-355.5 166.623,-348.5"/>
</g>
<!-- Node9 -->
<g id="node9" class="node"><title>Node9</title>
<g id="a_node9"><a xlink:href="class_formation_member_task.html" target="_top" xlink:title="FormationMemberTask">
<polygon fill="white" stroke="black" points="214,-304.5 214,-323.5 330,-323.5 330,-304.5 214,-304.5"/>
<text text-anchor="middle" x="272" y="-311.5" font-family="Helvetica,sans-Serif" font-size="10.00">FormationMemberTask</text>
</a>
</g>
</g>
<!-- Node5&#45;&gt;Node9 -->
<g id="edge8" class="edge"><title>Node5&#45;&gt;Node9</title>
<path fill="none" stroke="midnightblue" d="M166.415,-343.009C187.519,-337.155 215.019,-329.528 236.523,-323.563"/>
<polygon fill="midnightblue" stroke="midnightblue" points="165.323,-339.68 156.623,-345.725 167.194,-346.425 165.323,-339.68"/>
</g>
<!-- Node11 -->
<g id="node11" class="node"><title>Node11</title>
<g id="a_node11"><a xlink:href="class_a_a_b_b_entered_poll.html" target="_top" xlink:title="AABBEnteredPoll">
<polygon fill="white" stroke="black" points="225,-266.5 225,-285.5 319,-285.5 319,-266.5 225,-266.5"/>
<text text-anchor="middle" x="272" y="-273.5" font-family="Helvetica,sans-Serif" font-size="10.00">AABBEnteredPoll</text>
</a>
</g>
</g>
<!-- Node10&#45;&gt;Node11 -->
<g id="edge10" class="edge"><title>Node10&#45;&gt;Node11</title>
<path fill="none" stroke="midnightblue" d="M171.566,-248.42C191.85,-254.046 216.716,-260.943 236.507,-266.432"/>
<polygon fill="midnightblue" stroke="midnightblue" points="172.296,-244.99 161.724,-245.69 170.425,-251.735 172.296,-244.99"/>
</g>
<!-- Node12 -->
<g id="node12" class="node"><title>Node12</title>
<g id="a_node12"><a xlink:href="class_ai_task_finished_poll.html" target="_top" xlink:title="AiTaskFinishedPoll">
<polygon fill="white" stroke="black" points="222,-228.5 222,-247.5 322,-247.5 322,-228.5 222,-228.5"/>
<text text-anchor="middle" x="272" y="-235.5" font-family="Helvetica,sans-Serif" font-size="10.00">AiTaskFinishedPoll</text>
</a>
</g>
</g>
<!-- Node10&#45;&gt;Node12 -->
<g id="edge11" class="edge"><title>Node10&#45;&gt;Node12</title>
<path fill="none" stroke="midnightblue" d="M171.965,-238C187.437,-238 205.522,-238 221.972,-238"/>
<polygon fill="midnightblue" stroke="midnightblue" points="171.724,-234.5 161.724,-238 171.724,-241.5 171.724,-234.5"/>
</g>
<!-- Node13 -->
<g id="node13" class="node"><title>Node13</title>
<g id="a_node13"><a xlink:href="class_timer.html" target="_top" xlink:title="Timer">
<polygon fill="white" stroke="red" points="251.5,-190.5 251.5,-209.5 292.5,-209.5 292.5,-190.5 251.5,-190.5"/>
<text text-anchor="middle" x="272" y="-197.5" font-family="Helvetica,sans-Serif" font-size="10.00">Timer</text>
</a>
</g>
</g>
<!-- Node10&#45;&gt;Node13 -->
<g id="edge12" class="edge"><title>Node10&#45;&gt;Node13</title>
<path fill="none" stroke="midnightblue" d="M171.554,-227.584C197.338,-220.432 230.529,-211.226 251.289,-205.467"/>
<polygon fill="midnightblue" stroke="midnightblue" points="170.425,-224.265 161.724,-230.31 172.296,-231.01 170.425,-224.265"/>
</g>
<!-- Node14 -->
<g id="node14" class="node"><title>Node14</title>
<g id="a_node14"><a xlink:href="class_world_object_destroyed_poll.html" target="_top" xlink:title="WorldObjectDestroyedPoll">
<polygon fill="white" stroke="black" points="206.5,-152.5 206.5,-171.5 337.5,-171.5 337.5,-152.5 206.5,-152.5"/>
<text text-anchor="middle" x="272" y="-159.5" font-family="Helvetica,sans-Serif" font-size="10.00">WorldObjectDestroyedPoll</text>
</a>
</g>
</g>
<!-- Node10&#45;&gt;Node14 -->
<g id="edge13" class="edge"><title>Node10&#45;&gt;Node14</title>
<path fill="none" stroke="midnightblue" d="M163.597,-223.414C165.819,-222.008 167.98,-220.532 170,-219 188.534,-204.939 186.147,-193.128 206,-181 212.321,-177.139 219.467,-174.027 226.65,-171.53"/>
<polygon fill="midnightblue" stroke="midnightblue" points="161.79,-220.416 154.887,-228.454 165.295,-226.475 161.79,-220.416"/>
</g>
<!-- Node17 -->
<g id="node17" class="node"><title>Node17</title>
<g id="a_node17"><a xlink:href="class_generic_world_object.html" target="_top" xlink:title="GenericWorldObject">
<polygon fill="white" stroke="black" points="220,-114.5 220,-133.5 324,-133.5 324,-114.5 220,-114.5"/>
<text text-anchor="middle" x="272" y="-121.5" font-family="Helvetica,sans-Serif" font-size="10.00">GenericWorldObject</text>
</a>
</g>
</g>
<!-- Node16&#45;&gt;Node17 -->
<g id="edge16" class="edge"><title>Node16&#45;&gt;Node17</title>
<path fill="none" stroke="midnightblue" d="M178.411,-98.3183C197.234,-103.539 218.838,-109.532 236.44,-114.414"/>
<polygon fill="midnightblue" stroke="midnightblue" points="179.143,-94.8892 168.571,-95.589 177.272,-101.635 179.143,-94.8892"/>
</g>
<!-- Node18 -->
<g id="node18" class="node"><title>Node18</title>
<g id="a_node18"><a xlink:href="class_projectile.html" target="_top" xlink:title="Projectile">
<polygon fill="white" stroke="red" points="243.5,-76.5 243.5,-95.5 300.5,-95.5 300.5,-76.5 243.5,-76.5"/>
<text text-anchor="middle" x="272" y="-83.5" font-family="Helvetica,sans-Serif" font-size="10.00">Projectile</text>
</a>
</g>
</g>
<!-- Node16&#45;&gt;Node18 -->
<g id="edge17" class="edge"><title>Node16&#45;&gt;Node18</title>
<path fill="none" stroke="midnightblue" d="M178.703,-86C200.004,-86 224.81,-86 243.338,-86"/>
<polygon fill="midnightblue" stroke="midnightblue" points="178.571,-82.5001 168.571,-86 178.571,-89.5001 178.571,-82.5001"/>
</g>
<!-- Node19 -->
<g id="node19" class="node"><title>Node19</title>
<g id="a_node19"><a xlink:href="class_ship.html" target="_top" xlink:title="Ship">
<polygon fill="white" stroke="red" points="254,-38.5 254,-57.5 290,-57.5 290,-38.5 254,-38.5"/>
<text text-anchor="middle" x="272" y="-45.5" font-family="Helvetica,sans-Serif" font-size="10.00">Ship</text>
</a>
</g>
</g>
<!-- Node16&#45;&gt;Node19 -->
<g id="edge18" class="edge"><title>Node16&#45;&gt;Node19</title>
<path fill="none" stroke="midnightblue" d="M178.512,-73.6536C204.265,-66.5105 235.195,-57.9314 253.96,-52.7263"/>
<polygon fill="midnightblue" stroke="midnightblue" points="177.272,-70.3654 168.571,-76.411 179.143,-77.1108 177.272,-70.3654"/>
</g>
<!-- Node20 -->
<g id="node20" class="node"><title>Node20</title>
<g id="a_node20"><a xlink:href="class_split.html" target="_top" xlink:title="Split">
<polygon fill="white" stroke="black" points="254,-0.5 254,-19.5 290,-19.5 290,-0.5 254,-0.5"/>
<text text-anchor="middle" x="272" y="-7.5" font-family="Helvetica,sans-Serif" font-size="10.00">Split</text>
</a>
</g>
</g>
<!-- Node16&#45;&gt;Node20 -->
<g id="edge19" class="edge"><title>Node16&#45;&gt;Node20</title>
<path fill="none" stroke="midnightblue" d="M151.158,-69.249C164.965,-56.5962 185.399,-39.6469 206,-29 221.249,-21.119 240.246,-16.0474 253.757,-13.1441"/>
<polygon fill="midnightblue" stroke="midnightblue" points="148.734,-66.7237 143.844,-76.1222 153.528,-71.8249 148.734,-66.7237"/>
</g>
</g>
</svg>
        <g id="navigator" transform="translate(0 0)" fill="#404254">
                <rect fill="#f2f5e9" fill-opacity="0.5" stroke="#606060" stroke-width=".5" x="0" y="0" width="60" height="60"/>
                <use id="zoomplus" xlink:href="#zoomPlus" x="17" y="9" onmousedown="handleZoom(evt,'in')"/>
                <use id="zoomminus" xlink:href="#zoomMin" x="42" y="9" onmousedown="handleZoom(evt,'out')"/>
                <use id="reset" xlink:href="#resetDef" x="30" y="36" onmousedown="handleReset()"/>
                <g id="arrowUp" xlink:href="#dirArrow" transform="translate(30 24)" onmousedown="handlePan(0,-1)">
                  <use xlink:href="#rim" fill="#404040">
                        <set attributeName="fill" to="#808080" begin="arrowUp.mouseover" end="arrowUp.mouseout"/>
                  </use>
                  <path fill="none" stroke="white" stroke-width="1.5" d="M0,-3.0v7 M-2.5,-0.5L0,-3.0L2.5,-0.5"/>
                </g>
                <g id="arrowRight" xlink:href="#dirArrow" transform="rotate(90) translate(36 -43)" onmousedown="handlePan(1,0)">
                  <use xlink:href="#rim" fill="#404040">
                        <set attributeName="fill" to="#808080" begin="arrowRight.mouseover" end="arrowRight.mouseout"/>
                  </use>
                  <path fill="none" stroke="white" stroke-width="1.5" d="M0,-3.0v7 M-2.5,-0.5L0,-3.0L2.5,-0.5"/>
                </g>
                <g id="arrowDown" xlink:href="#dirArrow" transform="rotate(180) translate(-30 -48)" onmousedown="handlePan(0,1)">
                  <use xlink:href="#rim" fill="#404040">
                        <set attributeName="fill" to="#808080" begin="arrowDown.mouseover" end="arrowDown.mouseout"/>
                  </use>
                  <path fill="none" stroke="white" stroke-width="1.5" d="M0,-3.0v7 M-2.5,-0.5L0,-3.0L2.5,-0.5"/>
                </g>
                <g id="arrowLeft" xlink:href="#dirArrow" transform="rotate(270) translate(-36 17)" onmousedown="handlePan(-1,0)">
                  <use xlink:href="#rim" fill="#404040">
                        <set attributeName="fill" to="#808080" begin="arrowLeft.mouseover" end="arrowLeft.mouseout"/>
                  </use>
                  <path fill="none" stroke="white" stroke-width="1.5" d="M0,-3.0v7 M-2.5,-0.5L0,-3.0L2.5,-0.5"/>
                </g>
        </g>
        <svg viewBox="0 0 15 15" width="100%" height="30px" preserveAspectRatio="xMaxYMin meet">
         <g id="arrow_out" transform="scale(0.3 0.3)">
          <a xlink:href="class_scriptable__inherit__graph_org.svg" target="_base">
           <rect id="button" ry="5" rx="5" y="6" x="6" height="38" width="38"
                fill="#f2f5e9" fill-opacity="0.5" stroke="#606060" stroke-width="1.0"/>
           <path id="arrow"
             d="M 11.500037,31.436501 C 11.940474,20.09759 22.043105,11.32322 32.158766,21.979434 L 37.068811,17.246167 C 37.068811,17.246167 37.088388,32 37.088388,32 L 22.160133,31.978069 C 22.160133,31.978069 26.997745,27.140456 26.997745,27.140456 C 18.528582,18.264221 13.291696,25.230495 11.500037,31.436501 z"
             style="fill:#404040;"/>
          </a>
         </g>
        </svg>
</svg>
