<?xml version="1.0" encoding="UTF-8" standalone="no"?>
<!DOCTYPE svg PUBLIC "-//W3C//DTD SVG 1.1//EN"
 "http://www.w3.org/Graphics/SVG/1.1/DTD/svg11.dtd">
<!-- Generated by graphviz version 2.36.0 (20140111.2315)
 -->
<!-- Title: HUDObjectDelegate Pages: 1 -->
<svg width="1220pt" height="580pt"
 viewBox="0.00 0.00 1220.00 579.76" xmlns="http://www.w3.org/2000/svg" xmlns:xlink="http://www.w3.org/1999/xlink">
<g id="graph0" class="graph" transform="scale(1 1) rotate(0) translate(4 575.757)">
<title>HUDObjectDelegate</title>
<polygon fill="white" stroke="none" points="-4,4 -4,-575.757 1216,-575.757 1216,4 -4,4"/>
<!-- Node1 -->
<g id="node1" class="node"><title>Node1</title>
<polygon fill="#bfbfbf" stroke="black" points="254,-332.257 254,-351.257 358,-351.257 358,-332.257 254,-332.257"/>
<text text-anchor="middle" x="306" y="-339.257" font-family="Helvetica,sans-Serif" font-size="10.00">HUDObjectDelegate</text>
</g>
<!-- Node11 -->
<g id="node11" class="node"><title>Node11</title>
<polygon fill="white" stroke="#bfbfbf" points="453,-326.757 453,-356.757 585,-356.757 585,-326.757 453,-326.757"/>
<text text-anchor="start" x="461" y="-344.757" font-family="Helvetica,sans-Serif" font-size="10.00">std::map&lt; WorldObject</text>
<text text-anchor="middle" x="519" y="-333.757" font-family="Helvetica,sans-Serif" font-size="10.00"> *, HUDObjectDelegate * &gt;</text>
</g>
<!-- Node1&#45;&gt;Node11 -->
<g id="edge13" class="edge"><title>Node1&#45;&gt;Node11</title>
<path fill="none" stroke="#9a32cd" stroke-dasharray="5,2" d="M368.392,-341.757C394.948,-341.757 426.051,-341.757 452.998,-341.757"/>
<polygon fill="#9a32cd" stroke="#9a32cd" points="368.077,-338.257 358.077,-341.757 368.077,-345.257 368.077,-338.257"/>
<text text-anchor="middle" x="398" y="-344.757" font-family="Helvetica,sans-Serif" font-size="10.00"> elements</text>
</g>
<!-- Node14 -->
<g id="node14" class="node"><title>Node14</title>
<g id="a_node14"><a xlink:href="class_object_hudget.html" target="_top" xlink:title="ObjectHudget">
<polygon fill="white" stroke="black" points="1136,-458.257 1136,-477.257 1212,-477.257 1212,-458.257 1136,-458.257"/>
<text text-anchor="middle" x="1174" y="-465.257" font-family="Helvetica,sans-Serif" font-size="10.00">ObjectHudget</text>
</a>
</g>
</g>
<!-- Node1&#45;&gt;Node14 -->
<g id="edge18" class="edge"><title>Node1&#45;&gt;Node14</title>
<path fill="none" stroke="#9a32cd" stroke-dasharray="5,2" d="M314.398,-360.785C336.487,-414.046 407.375,-560.757 518,-560.757 518,-560.757 518,-560.757 952,-560.757 967.883,-560.757 1117.64,-512.948 1118,-512.757 1135.85,-503.224 1153.4,-487.437 1163.71,-477.322"/>
<polygon fill="#9a32cd" stroke="#9a32cd" points="317.619,-359.415 310.633,-351.45 311.127,-362.033 317.619,-359.415"/>
<text text-anchor="middle" x="765" y="-563.757" font-family="Helvetica,sans-Serif" font-size="10.00"> m_objectDelegate</text>
</g>
<!-- Node2 -->
<g id="node2" class="node"><title>Node2</title>
<g id="a_node2"><a xlink:href="class_handle.html" target="_top" xlink:title="Handle\&lt; WorldObject \&gt;">
<polygon fill="white" stroke="black" points="0.5,-243.257 0.5,-262.257 119.5,-262.257 119.5,-243.257 0.5,-243.257"/>
<text text-anchor="middle" x="60" y="-250.257" font-family="Helvetica,sans-Serif" font-size="10.00">Handle&lt; WorldObject &gt;</text>
</a>
</g>
</g>
<!-- Node2&#45;&gt;Node1 -->
<g id="edge1" class="edge"><title>Node2&#45;&gt;Node1</title>
<path fill="none" stroke="#9a32cd" stroke-dasharray="5,2" d="M96.7769,-265.807C146.346,-283.887 234.763,-316.138 278.707,-332.166"/>
<polygon fill="#9a32cd" stroke="#9a32cd" points="97.7062,-262.42 87.1123,-262.282 95.3075,-268.996 97.7062,-262.42"/>
<text text-anchor="middle" x="187" y="-318.757" font-family="Helvetica,sans-Serif" font-size="10.00"> m_worldObjectHandle</text>
</g>
<!-- Node3 -->
<g id="node3" class="node"><title>Node3</title>
<g id="a_node3"><a xlink:href="class_h_u_d.html" target="_top" xlink:title="HUD">
<polygon fill="white" stroke="black" points="746.5,-203.257 746.5,-222.257 783.5,-222.257 783.5,-203.257 746.5,-203.257"/>
<text text-anchor="middle" x="765" y="-210.257" font-family="Helvetica,sans-Serif" font-size="10.00">HUD</text>
</a>
</g>
</g>
<!-- Node2&#45;&gt;Node3 -->
<g id="edge6" class="edge"><title>Node2&#45;&gt;Node3</title>
<path fill="none" stroke="#9a32cd" stroke-dasharray="5,2" d="M130.158,-248.822C286.553,-239.923 660.494,-218.646 746.261,-213.766"/>
<polygon fill="#9a32cd" stroke="#9a32cd" points="129.513,-245.353 119.728,-249.415 129.911,-252.342 129.513,-245.353"/>
<text text-anchor="middle" x="398" y="-237.757" font-family="Helvetica,sans-Serif" font-size="10.00"> m_target</text>
</g>
<!-- Node3&#45;&gt;Node1 -->
<g id="edge2" class="edge"><title>Node3&#45;&gt;Node1</title>
<path fill="none" stroke="#9a32cd" stroke-dasharray="5,2" d="M736.493,-219.903C726.884,-222.265 716.002,-224.789 706,-226.757 587.771,-250.026 551.877,-228.369 438,-267.757 391.837,-283.724 343.216,-315.849 320.359,-332.007"/>
<polygon fill="#9a32cd" stroke="#9a32cd" points="737.469,-223.267 746.317,-217.439 735.766,-216.477 737.469,-223.267"/>
<text text-anchor="middle" x="519" y="-270.757" font-family="Helvetica,sans-Serif" font-size="10.00"> m_hud</text>
</g>
<!-- Node5 -->
<g id="node5" class="node"><title>Node5</title>
<g id="a_node5"><a xlink:href="class_hudget.html" target="_top" xlink:title="Hudget">
<polygon fill="white" stroke="black" points="927.5,-242.257 927.5,-261.257 974.5,-261.257 974.5,-242.257 927.5,-242.257"/>
<text text-anchor="middle" x="951" y="-249.257" font-family="Helvetica,sans-Serif" font-size="10.00">Hudget</text>
</a>
</g>
</g>
<!-- Node3&#45;&gt;Node5 -->
<g id="edge5" class="edge"><title>Node3&#45;&gt;Node5</title>
<path fill="none" stroke="#9a32cd" stroke-dasharray="5,2" d="M793.559,-219.654C803.172,-221.994 814.044,-224.569 824,-226.757 859.939,-234.656 901.894,-242.759 927.179,-247.52"/>
<polygon fill="#9a32cd" stroke="#9a32cd" points="794.272,-216.225 783.726,-217.235 792.6,-223.022 794.272,-216.225"/>
<text text-anchor="middle" x="841" y="-236.757" font-family="Helvetica,sans-Serif" font-size="10.00"> m_hud</text>
</g>
<!-- Node4 -->
<g id="node4" class="node"><title>Node4</title>
<g id="a_node4"><a xlink:href="class_cross_hair.html" target="_top" xlink:title="CrossHair">
<polygon fill="white" stroke="red" points="1144.5,-219.257 1144.5,-238.257 1203.5,-238.257 1203.5,-219.257 1144.5,-219.257"/>
<text text-anchor="middle" x="1174" y="-226.257" font-family="Helvetica,sans-Serif" font-size="10.00">CrossHair</text>
</a>
</g>
</g>
<!-- Node4&#45;&gt;Node3 -->
<g id="edge3" class="edge"><title>Node4&#45;&gt;Node3</title>
<path fill="none" stroke="#9a32cd" stroke-dasharray="5,2" d="M1133.94,-226.759C1104.32,-225.277 1062.61,-223.262 1026,-221.757 934.842,-218.009 825.662,-214.572 783.657,-213.289"/>
<polygon fill="#9a32cd" stroke="#9a32cd" points="1134.11,-230.272 1144.27,-227.279 1134.46,-223.281 1134.11,-230.272"/>
<text text-anchor="middle" x="951" y="-224.757" font-family="Helvetica,sans-Serif" font-size="10.00"> m_crossHair</text>
</g>
<!-- Node5&#45;&gt;Node4 -->
<g id="edge4" class="edge"><title>Node5&#45;&gt;Node4</title>
<path fill="none" stroke="midnightblue" d="M984.822,-248.341C1028.06,-243.841 1103.41,-235.999 1144.42,-231.731"/>
<polygon fill="midnightblue" stroke="midnightblue" points="984.402,-244.866 974.818,-249.382 985.127,-251.828 984.402,-244.866"/>
</g>
<!-- Node5&#45;&gt;Node14 -->
<g id="edge17" class="edge"><title>Node5&#45;&gt;Node14</title>
<path fill="none" stroke="midnightblue" d="M970.091,-268.406C1000.91,-296.894 1065.36,-357.024 1118,-409.757 1134.67,-426.454 1153.45,-446.552 1164.19,-458.171"/>
<polygon fill="midnightblue" stroke="midnightblue" points="972.39,-265.765 962.668,-261.555 967.642,-270.909 972.39,-265.765"/>
</g>
<!-- Node6 -->
<g id="node6" class="node"><title>Node6</title>
<polygon fill="white" stroke="#bfbfbf" points="452,-153.757 452,-183.757 586,-183.757 586,-153.757 452,-153.757"/>
<text text-anchor="start" x="460" y="-171.757" font-family="Helvetica,sans-Serif" font-size="10.00">std::unique_ptr&lt; WorldTree</text>
<text text-anchor="middle" x="519" y="-160.757" font-family="Helvetica,sans-Serif" font-size="10.00">Scanner &gt;</text>
</g>
<!-- Node6&#45;&gt;Node3 -->
<g id="edge7" class="edge"><title>Node6&#45;&gt;Node3</title>
<path fill="none" stroke="#9a32cd" stroke-dasharray="5,2" d="M596.609,-171.32C630.547,-173.796 670.697,-178.578 706,-187.757 720.114,-191.427 735.218,-198.031 746.473,-203.531"/>
<polygon fill="#9a32cd" stroke="#9a32cd" points="596.5,-167.805 586.287,-170.623 596.029,-174.789 596.5,-167.805"/>
<text text-anchor="middle" x="662" y="-190.757" font-family="Helvetica,sans-Serif" font-size="10.00"> m_scanner</text>
</g>
<!-- Node7 -->
<g id="node7" class="node"><title>Node7</title>
<g id="a_node7"><a xlink:href="class_aim_helper_hudget.html" target="_top" xlink:title="AimHelperHudget">
<polygon fill="white" stroke="red" points="473,-115.257 473,-134.257 565,-134.257 565,-115.257 473,-115.257"/>
<text text-anchor="middle" x="519" y="-122.257" font-family="Helvetica,sans-Serif" font-size="10.00">AimHelperHudget</text>
</a>
</g>
</g>
<!-- Node7&#45;&gt;Node3 -->
<g id="edge8" class="edge"><title>Node7&#45;&gt;Node3</title>
<path fill="none" stroke="#9a32cd" stroke-dasharray="5,2" d="M575.048,-126.706C613.497,-129.958 665.065,-138.207 706,-158.757 727.395,-169.497 746.5,-190.584 756.545,-202.991"/>
<polygon fill="#9a32cd" stroke="#9a32cd" points="575.308,-123.215 565.071,-125.948 574.778,-130.195 575.308,-123.215"/>
<text text-anchor="middle" x="662" y="-161.757" font-family="Helvetica,sans-Serif" font-size="10.00"> m_aimHelper</text>
</g>
<!-- Node8 -->
<g id="node8" class="node"><title>Node8</title>
<g id="a_node8"><a xlink:href="class_property.html" target="_top" xlink:title="Property\&lt; bool \&gt;">
<polygon fill="white" stroke="red" points="474.5,-77.257 474.5,-96.257 563.5,-96.257 563.5,-77.257 474.5,-77.257"/>
<text text-anchor="middle" x="519" y="-84.257" font-family="Helvetica,sans-Serif" font-size="10.00">Property&lt; bool &gt;</text>
</a>
</g>
</g>
<!-- Node8&#45;&gt;Node3 -->
<g id="edge9" class="edge"><title>Node8&#45;&gt;Node3</title>
<path fill="none" stroke="#9a32cd" stroke-dasharray="5,2" d="M573.611,-84.6149C613.308,-85.5667 667.037,-92.4334 706,-118.757 737.143,-139.798 754.597,-183.721 761.068,-203.154"/>
<polygon fill="#9a32cd" stroke="#9a32cd" points="573.625,-81.1149 563.583,-84.4918 573.539,-88.1143 573.625,-81.1149"/>
<text text-anchor="middle" x="662" y="-121.757" font-family="Helvetica,sans-Serif" font-size="10.00"> m_drawHud</text>
</g>
<!-- Node9 -->
<g id="node9" class="node"><title>Node9</title>
<polygon fill="white" stroke="#bfbfbf" points="438.5,-39.257 438.5,-58.257 599.5,-58.257 599.5,-39.257 438.5,-39.257"/>
<text text-anchor="middle" x="519" y="-46.257" font-family="Helvetica,sans-Serif" font-size="10.00">std::unique_ptr&lt; HUDElements &gt;</text>
</g>
<!-- Node9&#45;&gt;Node3 -->
<g id="edge10" class="edge"><title>Node9&#45;&gt;Node3</title>
<path fill="none" stroke="#9a32cd" stroke-dasharray="5,2" d="M609.78,-42.871C642.918,-45.0308 678.944,-52.9943 706,-73.757 748.94,-106.71 760.36,-177.253 763.158,-203.051"/>
<polygon fill="#9a32cd" stroke="#9a32cd" points="609.759,-39.366 599.602,-42.3794 609.422,-46.3579 609.759,-39.366"/>
<text text-anchor="middle" x="662" y="-76.757" font-family="Helvetica,sans-Serif" font-size="10.00"> m_elements</text>
</g>
<!-- Node10 -->
<g id="node10" class="node"><title>Node10</title>
<g id="a_node10"><a xlink:href="class_sphere.html" target="_top" xlink:title="Sphere">
<polygon fill="white" stroke="red" points="495.5,-1.25703 495.5,-20.257 542.5,-20.257 542.5,-1.25703 495.5,-1.25703"/>
<text text-anchor="middle" x="519" y="-8.25703" font-family="Helvetica,sans-Serif" font-size="10.00">Sphere</text>
</a>
</g>
</g>
<!-- Node10&#45;&gt;Node3 -->
<g id="edge11" class="edge"><title>Node10&#45;&gt;Node3</title>
<path fill="none" stroke="#9a32cd" stroke-dasharray="5,2" d="M552.602,-4.22447C593.223,1.91857 662.565,5.57125 706,-29.757 761.331,-74.7613 764.685,-172.403 764.297,-203.23"/>
<polygon fill="#9a32cd" stroke="#9a32cd" points="551.98,-0.779732 542.683,-5.86125 553.12,-7.68633 551.98,-0.779732"/>
<text text-anchor="middle" x="662" y="-32.757" font-family="Helvetica,sans-Serif" font-size="10.00"> m_sphere</text>
</g>
<!-- Node11&#45;&gt;Node3 -->
<g id="edge12" class="edge"><title>Node11&#45;&gt;Node3</title>
<path fill="none" stroke="#9a32cd" stroke-dasharray="5,2" d="M595.37,-344.587C631.575,-342.502 673.947,-334.683 706,-312.757 738.799,-290.321 755.558,-242.77 761.468,-222.375"/>
<polygon fill="#9a32cd" stroke="#9a32cd" points="595.172,-341.092 585.336,-345.03 595.48,-348.085 595.172,-341.092"/>
<text text-anchor="middle" x="662" y="-345.757" font-family="Helvetica,sans-Serif" font-size="10.00"> m_objectDelegates</text>
</g>
<!-- Node12 -->
<g id="node12" class="node"><title>Node12</title>
<g id="a_node12"><a xlink:href="class_player.html" target="_top" xlink:title="Player">
<polygon fill="white" stroke="red" points="497,-376.257 497,-395.257 541,-395.257 541,-376.257 497,-376.257"/>
<text text-anchor="middle" x="519" y="-383.257" font-family="Helvetica,sans-Serif" font-size="10.00">Player</text>
</a>
</g>
</g>
<!-- Node12&#45;&gt;Node3 -->
<g id="edge14" class="edge"><title>Node12&#45;&gt;Node3</title>
<path fill="none" stroke="#9a32cd" stroke-dasharray="5,2" d="M551.029,-389.813C591.205,-393.293 661.352,-393.119 706,-357.757 750.208,-322.743 760.867,-248.904 763.31,-222.446"/>
<polygon fill="#9a32cd" stroke="#9a32cd" points="551.313,-386.324 541.016,-388.815 550.619,-393.29 551.313,-386.324"/>
<text text-anchor="middle" x="662" y="-392.757" font-family="Helvetica,sans-Serif" font-size="10.00"> m_player</text>
</g>
<!-- Node13 -->
<g id="node13" class="node"><title>Node13</title>
<g id="a_node13"><a xlink:href="class_viewer.html" target="_top" xlink:title="Viewer">
<polygon fill="white" stroke="red" points="496,-288.257 496,-307.257 542,-307.257 542,-288.257 496,-288.257"/>
<text text-anchor="middle" x="519" y="-295.257" font-family="Helvetica,sans-Serif" font-size="10.00">Viewer</text>
</a>
</g>
</g>
<!-- Node13&#45;&gt;Node3 -->
<g id="edge15" class="edge"><title>Node13&#45;&gt;Node3</title>
<path fill="none" stroke="#9a32cd" stroke-dasharray="5,2" d="M552.434,-299.655C591.106,-300.554 656.694,-297.677 706,-272.757 729.274,-260.994 748.494,-236.109 757.854,-222.371"/>
<polygon fill="#9a32cd" stroke="#9a32cd" points="552.388,-296.151 542.277,-299.316 552.154,-303.147 552.388,-296.151"/>
<text text-anchor="middle" x="662" y="-300.757" font-family="Helvetica,sans-Serif" font-size="10.00"> m_viewer</text>
</g>
<!-- Node14&#45;&gt;Node1 -->
<g id="edge16" class="edge"><title>Node14&#45;&gt;Node1</title>
<path fill="none" stroke="#9a32cd" stroke-dasharray="5,2" d="M1134.39,-455.281C1090.64,-442.272 1016.97,-423.757 952,-423.757 518,-423.757 518,-423.757 518,-423.757 439.005,-423.757 353.982,-373.206 321.094,-351.486"/>
<polygon fill="#9a32cd" stroke="#9a32cd" points="1133.47,-458.658 1144.05,-458.21 1135.5,-451.959 1133.47,-458.658"/>
<text text-anchor="middle" x="765" y="-426.757" font-family="Helvetica,sans-Serif" font-size="10.00"> m_hudget</text>
</g>
<!-- Node15 -->
<g id="node15" class="node"><title>Node15</title>
<polygon fill="white" stroke="#bfbfbf" points="878,-501.757 878,-531.757 1024,-531.757 1024,-501.757 878,-501.757"/>
<text text-anchor="start" x="886" y="-519.757" font-family="Helvetica,sans-Serif" font-size="10.00">std::unique_ptr&lt; ArrowHudget</text>
<text text-anchor="middle" x="951" y="-508.757" font-family="Helvetica,sans-Serif" font-size="10.00">Voxels &gt;</text>
</g>
<!-- Node15&#45;&gt;Node14 -->
<g id="edge19" class="edge"><title>Node15&#45;&gt;Node14</title>
<path fill="none" stroke="#9a32cd" stroke-dasharray="5,2" d="M1034.23,-501.001C1061.02,-495.578 1090.85,-489.233 1118,-482.757 1124.93,-481.104 1132.31,-479.194 1139.35,-477.303"/>
<polygon fill="#9a32cd" stroke="#9a32cd" points="1033.24,-497.631 1024.13,-503.033 1034.62,-504.493 1033.24,-497.631"/>
<text text-anchor="middle" x="1081" y="-500.757" font-family="Helvetica,sans-Serif" font-size="10.00"> m_arrowVoxels</text>
</g>
<!-- Node16 -->
<g id="node16" class="node"><title>Node16</title>
<polygon fill="white" stroke="#bfbfbf" points="876.5,-452.757 876.5,-482.757 1025.5,-482.757 1025.5,-452.757 876.5,-452.757"/>
<text text-anchor="start" x="884.5" y="-470.757" font-family="Helvetica,sans-Serif" font-size="10.00">std::unique_ptr&lt; ObjectHudget</text>
<text text-anchor="middle" x="951" y="-459.757" font-family="Helvetica,sans-Serif" font-size="10.00">Voxels &gt;</text>
</g>
<!-- Node16&#45;&gt;Node14 -->
<g id="edge20" class="edge"><title>Node16&#45;&gt;Node14</title>
<path fill="none" stroke="#9a32cd" stroke-dasharray="5,2" d="M1035.71,-467.757C1070.3,-467.757 1108.62,-467.757 1135.97,-467.757"/>
<polygon fill="#9a32cd" stroke="#9a32cd" points="1035.59,-464.257 1025.59,-467.757 1035.59,-471.257 1035.59,-464.257"/>
<text text-anchor="middle" x="1081" y="-470.757" font-family="Helvetica,sans-Serif" font-size="10.00"> m_objectVoxels</text>
</g>
</g>
</svg>
