<?xml version="1.0" encoding="UTF-8" standalone="no"?>
<!DOCTYPE svg PUBLIC "-//W3C//DTD SVG 1.1//EN"
 "http://www.w3.org/Graphics/SVG/1.1/DTD/svg11.dtd">
<!-- Generated by graphviz version 2.36.0 (20140111.2315)
 -->
<!-- Title: God Pages: 1 -->
<svg width="1305pt" height="496pt"
 viewBox="0.00 0.00 1304.50 496.03" xmlns="http://www.w3.org/2000/svg" xmlns:xlink="http://www.w3.org/1999/xlink">
<g id="graph0" class="graph" transform="scale(1 1) rotate(0) translate(4 492.027)">
<title>God</title>
<polygon fill="white" stroke="none" points="-4,4 -4,-492.027 1300.5,-492.027 1300.5,4 -4,4"/>
<!-- Node1 -->
<g id="node1" class="node"><title>Node1</title>
<polygon fill="#bfbfbf" stroke="black" points="890.5,-401.527 890.5,-420.527 925.5,-420.527 925.5,-401.527 890.5,-401.527"/>
<text text-anchor="middle" x="908" y="-408.527" font-family="Helvetica,sans-Serif" font-size="10.00">God</text>
</g>
<!-- Node15 -->
<g id="node15" class="node"><title>Node15</title>
<polygon fill="white" stroke="#bfbfbf" points="997.5,-425.527 997.5,-444.527 1114.5,-444.527 1114.5,-425.527 997.5,-425.527"/>
<text text-anchor="middle" x="1056" y="-432.527" font-family="Helvetica,sans-Serif" font-size="10.00">std::unique_ptr&lt; God &gt;</text>
</g>
<!-- Node1&#45;&gt;Node15 -->
<g id="edge17" class="edge"><title>Node1&#45;&gt;Node15</title>
<path fill="none" stroke="#9a32cd" stroke-dasharray="5,2" d="M935.643,-415.407C952.863,-418.237 975.953,-422.033 997.235,-425.531"/>
<polygon fill="#9a32cd" stroke="#9a32cd" points="936.183,-411.949 925.748,-413.78 935.048,-418.856 936.183,-411.949"/>
<text text-anchor="middle" x="952" y="-421.027" font-family="Helvetica,sans-Serif" font-size="10.00"> ptr</text>
</g>
<!-- Node2 -->
<g id="node2" class="node"><title>Node2</title>
<polygon fill="white" stroke="#bfbfbf" points="152,-379.527 152,-398.527 280,-398.527 280,-379.527 152,-379.527"/>
<text text-anchor="middle" x="216" y="-386.527" font-family="Helvetica,sans-Serif" font-size="10.00">std::list&lt; WorldObject * &gt;</text>
</g>
<!-- Node2&#45;&gt;Node1 -->
<g id="edge1" class="edge"><title>Node2&#45;&gt;Node1</title>
<path fill="none" stroke="#9a32cd" stroke-dasharray="5,2" d="M271.278,-400.292C280.174,-401.788 289.319,-403.117 298,-404.027 349.292,-409.406 362.437,-406.014 414,-407.027 579.316,-410.276 620.655,-410.916 786,-412.027 824.221,-412.284 833.782,-412.573 872,-412.027 877.957,-411.942 884.482,-411.775 890.267,-411.602"/>
<polygon fill="#9a32cd" stroke="#9a32cd" points="271.836,-396.836 261.38,-398.545 270.62,-403.73 271.836,-396.836"/>
<text text-anchor="middle" x="566" y="-414.027" font-family="Helvetica,sans-Serif" font-size="10.00"> m_scheduledRemovals</text>
</g>
<!-- Node5 -->
<g id="node5" class="node"><title>Node5</title>
<g id="a_node5"><a xlink:href="class_spawn_request.html" target="_top" xlink:title="SpawnRequest">
<polygon fill="white" stroke="black" points="414,-378.527 414,-397.527 496,-397.527 496,-378.527 414,-378.527"/>
<text text-anchor="middle" x="455" y="-385.527" font-family="Helvetica,sans-Serif" font-size="10.00">SpawnRequest</text>
</a>
</g>
</g>
<!-- Node2&#45;&gt;Node5 -->
<g id="edge5" class="edge"><title>Node2&#45;&gt;Node5</title>
<path fill="none" stroke="#9a32cd" stroke-dasharray="5,2" d="M290.339,-388.718C330.983,-388.546 379.961,-388.339 413.683,-388.197"/>
<polygon fill="#9a32cd" stroke="#9a32cd" points="290.185,-385.218 280.2,-388.76 290.215,-392.218 290.185,-385.218"/>
<text text-anchor="middle" x="347" y="-392.027" font-family="Helvetica,sans-Serif" font-size="10.00"> m_worldObjects</text>
</g>
<!-- Node3 -->
<g id="node3" class="node"><title>Node3</title>
<g id="a_node3"><a xlink:href="class_world_object.html" target="_top" xlink:title="WorldObject">
<polygon fill="white" stroke="red" points="0.5,-359.527 0.5,-378.527 71.5,-378.527 71.5,-359.527 0.5,-359.527"/>
<text text-anchor="middle" x="36" y="-366.527" font-family="Helvetica,sans-Serif" font-size="10.00">WorldObject</text>
</a>
</g>
</g>
<!-- Node3&#45;&gt;Node2 -->
<g id="edge2" class="edge"><title>Node3&#45;&gt;Node2</title>
<path fill="none" stroke="#9a32cd" stroke-dasharray="5,2" d="M81.7698,-374.057C102.995,-376.442 128.72,-379.333 151.883,-381.935"/>
<polygon fill="#9a32cd" stroke="#9a32cd" points="82.071,-370.569 71.7427,-372.931 81.2894,-377.525 82.071,-370.569"/>
<text text-anchor="middle" x="112" y="-383.027" font-family="Helvetica,sans-Serif" font-size="10.00"> elements</text>
</g>
<!-- Node8 -->
<g id="node8" class="node"><title>Node8</title>
<polygon fill="white" stroke="#bfbfbf" points="298,-335.027 298,-365.027 396,-365.027 396,-335.027 298,-335.027"/>
<text text-anchor="start" x="306" y="-353.027" font-family="Helvetica,sans-Serif" font-size="10.00">std::unordered_set</text>
<text text-anchor="middle" x="347" y="-342.027" font-family="Helvetica,sans-Serif" font-size="10.00">&lt; WorldObject * &gt;</text>
</g>
<!-- Node3&#45;&gt;Node8 -->
<g id="edge9" class="edge"><title>Node3&#45;&gt;Node8</title>
<path fill="none" stroke="#9a32cd" stroke-dasharray="5,2" d="M81.7777,-361.924C84.5562,-361.59 87.3139,-361.287 90,-361.027 162.175,-354.049 246.225,-351.498 297.767,-350.565"/>
<polygon fill="#9a32cd" stroke="#9a32cd" points="81.1752,-358.473 71.7153,-363.244 82.0856,-365.414 81.1752,-358.473"/>
<text text-anchor="middle" x="112" y="-364.027" font-family="Helvetica,sans-Serif" font-size="10.00"> keys</text>
</g>
<!-- Node4 -->
<g id="node4" class="node"><title>Node4</title>
<polygon fill="white" stroke="#bfbfbf" points="636,-378.527 636,-397.527 768,-397.527 768,-378.527 636,-378.527"/>
<text text-anchor="middle" x="702" y="-385.527" font-family="Helvetica,sans-Serif" font-size="10.00">std::list&lt; SpawnRequest &gt;</text>
</g>
<!-- Node4&#45;&gt;Node1 -->
<g id="edge3" class="edge"><title>Node4&#45;&gt;Node1</title>
<path fill="none" stroke="#9a32cd" stroke-dasharray="5,2" d="M778.573,-390.582C807.911,-392.423 841.686,-395.588 872,-401.027 878.096,-402.121 884.654,-403.843 890.426,-405.551"/>
<polygon fill="#9a32cd" stroke="#9a32cd" points="778.581,-387.077 768.393,-389.985 778.171,-394.065 778.581,-387.077"/>
<text text-anchor="middle" x="829" y="-404.027" font-family="Helvetica,sans-Serif" font-size="10.00"> m_spawnRequests</text>
</g>
<!-- Node5&#45;&gt;Node4 -->
<g id="edge4" class="edge"><title>Node5&#45;&gt;Node4</title>
<path fill="none" stroke="#9a32cd" stroke-dasharray="5,2" d="M506.359,-388.027C543.83,-388.027 595.29,-388.027 635.887,-388.027"/>
<polygon fill="#9a32cd" stroke="#9a32cd" points="506.182,-384.527 496.182,-388.027 506.182,-391.527 506.182,-384.527"/>
<text text-anchor="middle" x="566" y="-391.027" font-family="Helvetica,sans-Serif" font-size="10.00"> elements</text>
</g>
<!-- Node6 -->
<g id="node6" class="node"><title>Node6</title>
<g id="a_node6"><a xlink:href="class_world.html" target="_top" xlink:title="World">
<polygon fill="white" stroke="black" points="1250,-236.527 1250,-255.527 1292,-255.527 1292,-236.527 1250,-236.527"/>
<text text-anchor="middle" x="1271" y="-243.527" font-family="Helvetica,sans-Serif" font-size="10.00">World</text>
</a>
</g>
</g>
<!-- Node6&#45;&gt;Node1 -->
<g id="edge6" class="edge"><title>Node6&#45;&gt;Node1</title>
<path fill="none" stroke="#9a32cd" stroke-dasharray="5,2" d="M1269.68,-265.889C1268.1,-292.571 1261.05,-339.466 1232,-364.027 1208.31,-384.058 988.772,-404.213 925.807,-409.621"/>
<polygon fill="#9a32cd" stroke="#9a32cd" points="1273.18,-265.945 1270.07,-255.816 1266.19,-265.673 1273.18,-265.945"/>
<text text-anchor="middle" x="1056" y="-408.027" font-family="Helvetica,sans-Serif" font-size="10.00"> m_world</text>
</g>
<!-- Node6&#45;&gt;Node6 -->
<g id="edge19" class="edge"><title>Node6&#45;&gt;Node6</title>
<path fill="none" stroke="#9a32cd" stroke-dasharray="5,2" d="M1256.64,-265.793C1257.76,-270.524 1262.55,-274.027 1271,-274.027 1284.86,-274.027 1288.87,-264.592 1283.02,-255.784"/>
<polygon fill="#9a32cd" stroke="#9a32cd" points="1260.11,-266.318 1258.98,-255.784 1253.29,-264.724 1260.11,-266.318"/>
<text text-anchor="middle" x="1271" y="-277.027" font-family="Helvetica,sans-Serif" font-size="10.00"> s_instance</text>
</g>
<!-- Node7 -->
<g id="node7" class="node"><title>Node7</title>
<polygon fill="white" stroke="#bfbfbf" points="984.5,-463.527 984.5,-482.527 1127.5,-482.527 1127.5,-463.527 984.5,-463.527"/>
<text text-anchor="middle" x="1056" y="-470.527" font-family="Helvetica,sans-Serif" font-size="10.00">std::unique_ptr&lt; WorldTree &gt;</text>
</g>
<!-- Node7&#45;&gt;Node6 -->
<g id="edge7" class="edge"><title>Node7&#45;&gt;Node6</title>
<path fill="none" stroke="#9a32cd" stroke-dasharray="5,2" d="M1137.82,-479.169C1171.03,-477.305 1207.39,-468.912 1232,-445.027 1259.64,-418.205 1267.8,-291.64 1269.58,-255.615"/>
<polygon fill="#9a32cd" stroke="#9a32cd" points="1137.5,-475.679 1127.63,-479.548 1137.76,-482.674 1137.5,-475.679"/>
<text text-anchor="middle" x="1192" y="-480.027" font-family="Helvetica,sans-Serif" font-size="10.00"> m_worldTree</text>
</g>
<!-- Node8&#45;&gt;Node6 -->
<g id="edge8" class="edge"><title>Node8&#45;&gt;Node6</title>
<path fill="none" stroke="#9a32cd" stroke-dasharray="5,2" d="M406.42,-350.027C450.099,-350.027 511.289,-350.027 565,-350.027 565,-350.027 565,-350.027 1057,-350.027 1136.5,-350.027 1167.84,-359.966 1232,-313.027 1251.64,-298.657 1262.56,-270.855 1267.23,-255.983"/>
<polygon fill="#9a32cd" stroke="#9a32cd" points="406.265,-346.527 396.265,-350.027 406.265,-353.527 406.265,-346.527"/>
<text text-anchor="middle" x="829" y="-353.027" font-family="Helvetica,sans-Serif" font-size="10.00"> m_worldObjects</text>
</g>
<!-- Node9 -->
<g id="node9" class="node"><title>Node9</title>
<polygon fill="white" stroke="#bfbfbf" points="982,-302.527 982,-321.527 1130,-321.527 1130,-302.527 982,-302.527"/>
<text text-anchor="middle" x="1056" y="-309.527" font-family="Helvetica,sans-Serif" font-size="10.00">std::unique_ptr&lt; WorldLogic &gt;</text>
</g>
<!-- Node9&#45;&gt;Node6 -->
<g id="edge10" class="edge"><title>Node9&#45;&gt;Node6</title>
<path fill="none" stroke="#9a32cd" stroke-dasharray="5,2" d="M1139.72,-300.592C1169.63,-294.66 1203.13,-285.87 1232,-273.027 1241.91,-268.62 1251.86,-261.429 1259.09,-255.576"/>
<polygon fill="#9a32cd" stroke="#9a32cd" points="1138.89,-297.186 1129.73,-302.496 1140.2,-304.063 1138.89,-297.186"/>
<text text-anchor="middle" x="1192" y="-301.027" font-family="Helvetica,sans-Serif" font-size="10.00"> m_worldLogic</text>
</g>
<!-- Node10 -->
<g id="node10" class="node"><title>Node10</title>
<polygon fill="white" stroke="#bfbfbf" points="1007,-253.027 1007,-283.027 1105,-283.027 1105,-253.027 1007,-253.027"/>
<text text-anchor="start" x="1015" y="-271.027" font-family="Helvetica,sans-Serif" font-size="10.00">std::unordered_set</text>
<text text-anchor="middle" x="1056" y="-260.027" font-family="Helvetica,sans-Serif" font-size="10.00">&lt; Ship * &gt;</text>
</g>
<!-- Node10&#45;&gt;Node6 -->
<g id="edge11" class="edge"><title>Node10&#45;&gt;Node6</title>
<path fill="none" stroke="#9a32cd" stroke-dasharray="5,2" d="M1115.27,-262.009C1160.13,-257.375 1219.47,-251.246 1249.99,-248.094"/>
<polygon fill="#9a32cd" stroke="#9a32cd" points="1114.65,-258.553 1105.07,-263.062 1115.37,-265.516 1114.65,-258.553"/>
<text text-anchor="middle" x="1192" y="-261.027" font-family="Helvetica,sans-Serif" font-size="10.00"> m_ships</text>
</g>
<!-- Node11 -->
<g id="node11" class="node"><title>Node11</title>
<polygon fill="white" stroke="#bfbfbf" points="990,-214.527 990,-233.527 1122,-233.527 1122,-214.527 990,-214.527"/>
<text text-anchor="middle" x="1056" y="-221.527" font-family="Helvetica,sans-Serif" font-size="10.00">std::unique_ptr&lt; Skybox &gt;</text>
</g>
<!-- Node11&#45;&gt;Node6 -->
<g id="edge12" class="edge"><title>Node11&#45;&gt;Node6</title>
<path fill="none" stroke="#9a32cd" stroke-dasharray="5,2" d="M1132.46,-226.082C1163.45,-227.734 1199.6,-230.702 1232,-236.027 1237.79,-236.978 1243.98,-238.419 1249.64,-239.913"/>
<polygon fill="#9a32cd" stroke="#9a32cd" points="1132.32,-222.571 1122.16,-225.571 1131.98,-229.562 1132.32,-222.571"/>
<text text-anchor="middle" x="1192" y="-239.027" font-family="Helvetica,sans-Serif" font-size="10.00"> m_skybox</text>
</g>
<!-- Node12 -->
<g id="node12" class="node"><title>Node12</title>
<polygon fill="white" stroke="#bfbfbf" points="982,-165.027 982,-195.027 1130,-195.027 1130,-165.027 982,-165.027"/>
<text text-anchor="start" x="990" y="-183.027" font-family="Helvetica,sans-Serif" font-size="10.00">std::unique_ptr&lt; VoxelParticle</text>
<text text-anchor="middle" x="1056" y="-172.027" font-family="Helvetica,sans-Serif" font-size="10.00">Engine &gt;</text>
</g>
<!-- Node12&#45;&gt;Node6 -->
<g id="edge13" class="edge"><title>Node12&#45;&gt;Node6</title>
<path fill="none" stroke="#9a32cd" stroke-dasharray="5,2" d="M1140.4,-186.637C1170.38,-191.335 1203.75,-199.353 1232,-213.027 1243.64,-218.66 1254.52,-228.81 1261.63,-236.371"/>
<polygon fill="#9a32cd" stroke="#9a32cd" points="1140.78,-183.155 1130.37,-185.167 1139.76,-190.081 1140.78,-183.155"/>
<text text-anchor="middle" x="1192" y="-216.027" font-family="Helvetica,sans-Serif" font-size="10.00"> m_particleEngine</text>
</g>
<!-- Node13 -->
<g id="node13" class="node"><title>Node13</title>
<polygon fill="white" stroke="#bfbfbf" points="978.5,-126.527 978.5,-145.527 1133.5,-145.527 1133.5,-126.527 978.5,-126.527"/>
<text text-anchor="middle" x="1056" y="-133.527" font-family="Helvetica,sans-Serif" font-size="10.00">std::unique_ptr&lt; ScriptEngine &gt;</text>
</g>
<!-- Node13&#45;&gt;Node6 -->
<g id="edge14" class="edge"><title>Node13&#45;&gt;Node6</title>
<path fill="none" stroke="#9a32cd" stroke-dasharray="5,2" d="M1143.8,-139.986C1174.14,-145.013 1206.86,-154.938 1232,-174.027 1252.94,-189.927 1263.51,-220.73 1267.73,-236.387"/>
<polygon fill="#9a32cd" stroke="#9a32cd" points="1144.03,-136.48 1133.62,-138.462 1142.99,-143.403 1144.03,-136.48"/>
<text text-anchor="middle" x="1192" y="-177.027" font-family="Helvetica,sans-Serif" font-size="10.00"> m_scriptEngine</text>
</g>
<!-- Node14 -->
<g id="node14" class="node"><title>Node14</title>
<polygon fill="white" stroke="#bfbfbf" points="995,-77.027 995,-107.027 1117,-107.027 1117,-77.027 995,-77.027"/>
<text text-anchor="start" x="1003" y="-95.027" font-family="Helvetica,sans-Serif" font-size="10.00">std::unique_ptr&lt; Faction</text>
<text text-anchor="middle" x="1056" y="-84.027" font-family="Helvetica,sans-Serif" font-size="10.00">Matrix &gt;</text>
</g>
<!-- Node14&#45;&gt;Node6 -->
<g id="edge15" class="edge"><title>Node14&#45;&gt;Node6</title>
<path fill="none" stroke="#9a32cd" stroke-dasharray="5,2" d="M1127.52,-90.0498C1162.78,-92.7079 1203.83,-101.84 1232,-127.027 1264.66,-156.227 1269.44,-213.437 1270,-236.274"/>
<polygon fill="#9a32cd" stroke="#9a32cd" points="1127.45,-86.5399 1117.26,-89.4427 1127.04,-93.5276 1127.45,-86.5399"/>
<text text-anchor="middle" x="1192" y="-130.027" font-family="Helvetica,sans-Serif" font-size="10.00"> m_factionMatrix</text>
</g>
<!-- Node15&#45;&gt;Node6 -->
<g id="edge16" class="edge"><title>Node15&#45;&gt;Node6</title>
<path fill="none" stroke="#9a32cd" stroke-dasharray="5,2" d="M1124.8,-433.085C1167.14,-430.445 1216.46,-424.291 1232,-410.027 1255.15,-388.784 1266.22,-287.547 1269.17,-255.665"/>
<polygon fill="#9a32cd" stroke="#9a32cd" points="1124.56,-429.593 1114.78,-433.655 1124.96,-436.582 1124.56,-429.593"/>
<text text-anchor="middle" x="1192" y="-433.027" font-family="Helvetica,sans-Serif" font-size="10.00"> m_god</text>
</g>
<!-- Node16 -->
<g id="node16" class="node"><title>Node16</title>
<g id="a_node16"><a xlink:href="class_player.html" target="_top" xlink:title="Player">
<polygon fill="white" stroke="red" points="1034,-38.527 1034,-57.527 1078,-57.527 1078,-38.527 1034,-38.527"/>
<text text-anchor="middle" x="1056" y="-45.527" font-family="Helvetica,sans-Serif" font-size="10.00">Player</text>
</a>
</g>
</g>
<!-- Node16&#45;&gt;Node6 -->
<g id="edge18" class="edge"><title>Node16&#45;&gt;Node6</title>
<path fill="none" stroke="#9a32cd" stroke-dasharray="5,2" d="M1088.23,-44.0656C1127.21,-40.9978 1193.41,-42.2584 1232,-79.027 1255.14,-101.075 1266.22,-203.881 1269.17,-236.245"/>
<polygon fill="#9a32cd" stroke="#9a32cd" points="1087.64,-40.6057 1078.01,-45.0198 1088.29,-47.5754 1087.64,-40.6057"/>
<text text-anchor="middle" x="1192" y="-82.027" font-family="Helvetica,sans-Serif" font-size="10.00"> m_player</text>
</g>
<!-- Node17 -->
<g id="node17" class="node"><title>Node17</title>
<polygon fill="white" stroke="#bfbfbf" points="982,-0.526979 982,-19.527 1130,-19.527 1130,-0.526979 982,-0.526979"/>
<text text-anchor="middle" x="1056" y="-7.52698" font-family="Helvetica,sans-Serif" font-size="10.00">std::unique_ptr&lt; EventPoller &gt;</text>
</g>
<!-- Node17&#45;&gt;Node6 -->
<g id="edge20" class="edge"><title>Node17&#45;&gt;Node6</title>
<path fill="none" stroke="#9a32cd" stroke-dasharray="5,2" d="M1129.58,-0.153256C1164.81,0.459769 1205.19,-5.66737 1232,-31.027 1262.36,-59.7457 1268.61,-198.497 1269.76,-236.427"/>
<polygon fill="#9a32cd" stroke="#9a32cd" points="1129.19,3.33504 1119.32,-0.519812 1129.44,-3.6605 1129.19,3.33504"/>
<text text-anchor="middle" x="1192" y="-34.027" font-family="Helvetica,sans-Serif" font-size="10.00"> m_eventPoller</text>
</g>
</g>
</svg>
