<?xml version="1.0" encoding="UTF-8" standalone="no"?>
<!DOCTYPE svg PUBLIC "-//W3C//DTD SVG 1.1//EN"
 "http://www.w3.org/Graphics/SVG/1.1/DTD/svg11.dtd">
<!-- Generated by graphviz version 2.36.0 (20140111.2315)
 -->
<!-- Title: EventPoll Pages: 1 -->
<svg width="428pt" height="196pt"
 viewBox="0.00 0.00 428.00 196.00" xmlns="http://www.w3.org/2000/svg" xmlns:xlink="http://www.w3.org/1999/xlink">
<g id="graph0" class="graph" transform="scale(1 1) rotate(0) translate(4 192)">
<title>EventPoll</title>
<polygon fill="white" stroke="none" points="-4,4 -4,-192 424,-192 424,4 -4,4"/>
<!-- Node1 -->
<g id="node1" class="node"><title>Node1</title>
<polygon fill="#bfbfbf" stroke="black" points="177.5,-112.5 177.5,-131.5 234.5,-131.5 234.5,-112.5 177.5,-112.5"/>
<text text-anchor="middle" x="206" y="-119.5" font-family="Helvetica,sans-Serif" font-size="10.00">EventPoll</text>
</g>
<!-- Node3 -->
<g id="node3" class="node"><title>Node3</title>
<g id="a_node3"><a xlink:href="class_a_a_b_b_entered_poll.html" target="_top" xlink:title="AABBEnteredPoll">
<polygon fill="white" stroke="black" points="0,-56.5 0,-75.5 94,-75.5 94,-56.5 0,-56.5"/>
<text text-anchor="middle" x="47" y="-63.5" font-family="Helvetica,sans-Serif" font-size="10.00">AABBEnteredPoll</text>
</a>
</g>
</g>
<!-- Node1&#45;&gt;Node3 -->
<g id="edge2" class="edge"><title>Node1&#45;&gt;Node3</title>
<path fill="none" stroke="midnightblue" d="M171.173,-109.172C141.234,-99.0039 98.7785,-84.5852 72.0762,-75.5164"/>
<polygon fill="midnightblue" stroke="midnightblue" points="170.212,-112.542 180.806,-112.444 172.463,-105.914 170.212,-112.542"/>
</g>
<!-- Node4 -->
<g id="node4" class="node"><title>Node4</title>
<g id="a_node4"><a xlink:href="class_ai_task_finished_poll.html" target="_top" xlink:title="AiTaskFinishedPoll">
<polygon fill="white" stroke="black" points="112,-56.5 112,-75.5 212,-75.5 212,-56.5 112,-56.5"/>
<text text-anchor="middle" x="162" y="-63.5" font-family="Helvetica,sans-Serif" font-size="10.00">AiTaskFinishedPoll</text>
</a>
</g>
</g>
<!-- Node1&#45;&gt;Node4 -->
<g id="edge3" class="edge"><title>Node1&#45;&gt;Node4</title>
<path fill="none" stroke="midnightblue" d="M192.265,-104.144C184.599,-94.7357 175.367,-83.4046 169.131,-75.7511"/>
<polygon fill="midnightblue" stroke="midnightblue" points="189.704,-106.541 198.734,-112.083 195.131,-102.12 189.704,-106.541"/>
</g>
<!-- Node5 -->
<g id="node5" class="node"><title>Node5</title>
<g id="a_node5"><a xlink:href="class_timer.html" target="_top" xlink:title="Timer">
<polygon fill="white" stroke="black" points="230.5,-56.5 230.5,-75.5 271.5,-75.5 271.5,-56.5 230.5,-56.5"/>
<text text-anchor="middle" x="251" y="-63.5" font-family="Helvetica,sans-Serif" font-size="10.00">Timer</text>
</a>
</g>
</g>
<!-- Node1&#45;&gt;Node5 -->
<g id="edge4" class="edge"><title>Node1&#45;&gt;Node5</title>
<path fill="none" stroke="midnightblue" d="M220.047,-104.144C227.887,-94.7357 237.329,-83.4046 243.707,-75.7511"/>
<polygon fill="midnightblue" stroke="midnightblue" points="217.144,-102.16 213.431,-112.083 222.521,-106.641 217.144,-102.16"/>
</g>
<!-- Node8 -->
<g id="node8" class="node"><title>Node8</title>
<g id="a_node8"><a xlink:href="class_world_object_destroyed_poll.html" target="_top" xlink:title="WorldObjectDestroyedPoll">
<polygon fill="white" stroke="black" points="289.5,-56.5 289.5,-75.5 420.5,-75.5 420.5,-56.5 289.5,-56.5"/>
<text text-anchor="middle" x="355" y="-63.5" font-family="Helvetica,sans-Serif" font-size="10.00">WorldObjectDestroyedPoll</text>
</a>
</g>
</g>
<!-- Node1&#45;&gt;Node8 -->
<g id="edge7" class="edge"><title>Node1&#45;&gt;Node8</title>
<path fill="none" stroke="midnightblue" d="M239.371,-108.906C267.384,-98.7536 306.696,-84.5063 331.501,-75.5164"/>
<polygon fill="midnightblue" stroke="midnightblue" points="237.819,-105.746 229.609,-112.444 240.204,-112.327 237.819,-105.746"/>
</g>
<!-- Node2 -->
<g id="node2" class="node"><title>Node2</title>
<g id="a_node2"><a xlink:href="class_scriptable.html" target="_top" xlink:title="Scriptable">
<polygon fill="white" stroke="black" points="176,-168.5 176,-187.5 236,-187.5 236,-168.5 176,-168.5"/>
<text text-anchor="middle" x="206" y="-175.5" font-family="Helvetica,sans-Serif" font-size="10.00">Scriptable</text>
</a>
</g>
</g>
<!-- Node2&#45;&gt;Node1 -->
<g id="edge1" class="edge"><title>Node2&#45;&gt;Node1</title>
<path fill="none" stroke="midnightblue" d="M206,-157.805C206,-148.91 206,-138.78 206,-131.751"/>
<polygon fill="midnightblue" stroke="midnightblue" points="202.5,-158.083 206,-168.083 209.5,-158.083 202.5,-158.083"/>
</g>
<!-- Node6 -->
<g id="node6" class="node"><title>Node6</title>
<g id="a_node6"><a xlink:href="class_looping_timer.html" target="_top" xlink:title="LoopingTimer">
<polygon fill="white" stroke="black" points="165,-0.5 165,-19.5 239,-19.5 239,-0.5 165,-0.5"/>
<text text-anchor="middle" x="202" y="-7.5" font-family="Helvetica,sans-Serif" font-size="10.00">LoopingTimer</text>
</a>
</g>
</g>
<!-- Node5&#45;&gt;Node6 -->
<g id="edge5" class="edge"><title>Node5&#45;&gt;Node6</title>
<path fill="none" stroke="midnightblue" d="M235.966,-48.4314C227.378,-38.9673 216.957,-27.4827 209.941,-19.7511"/>
<polygon fill="midnightblue" stroke="midnightblue" points="233.597,-51.0293 242.909,-56.083 238.781,-46.3254 233.597,-51.0293"/>
</g>
<!-- Node7 -->
<g id="node7" class="node"><title>Node7</title>
<g id="a_node7"><a xlink:href="class_single_shot_timer.html" target="_top" xlink:title="SingleShotTimer">
<polygon fill="white" stroke="black" points="257,-0.5 257,-19.5 345,-19.5 345,-0.5 257,-0.5"/>
<text text-anchor="middle" x="301" y="-7.5" font-family="Helvetica,sans-Serif" font-size="10.00">SingleShotTimer</text>
</a>
</g>
</g>
<!-- Node5&#45;&gt;Node7 -->
<g id="edge6" class="edge"><title>Node5&#45;&gt;Node7</title>
<path fill="none" stroke="midnightblue" d="M266.076,-48.7175C274.889,-39.1997 285.666,-27.5608 292.897,-19.7511"/>
<polygon fill="midnightblue" stroke="midnightblue" points="263.482,-46.3674 259.256,-56.083 268.619,-51.1233 263.482,-46.3674"/>
</g>
</g>
</svg>
