<?xml version="1.0" encoding="UTF-8" standalone="no"?>
<!DOCTYPE svg PUBLIC "-//W3C//DTD SVG 1.1//EN"
 "http://www.w3.org/Graphics/SVG/1.1/DTD/svg11.dtd">
<!-- Generated by graphviz version 2.36.0 (20140111.2315)
 -->
<!-- Title: VoxelParticleIntersectionCheck Pages: 1 -->
<svg width="694pt" height="214pt"
 viewBox="0.00 0.00 694.00 214.00" xmlns="http://www.w3.org/2000/svg" xmlns:xlink="http://www.w3.org/1999/xlink">
<g id="graph0" class="graph" transform="scale(1 1) rotate(0) translate(4 210)">
<title>VoxelParticleIntersectionCheck</title>
<polygon fill="white" stroke="none" points="-4,4 -4,-210 690,-210 690,4 -4,4"/>
<!-- Node1 -->
<g id="node1" class="node"><title>Node1</title>
<polygon fill="#bfbfbf" stroke="black" points="560.5,-88 560.5,-118 685.5,-118 685.5,-88 560.5,-88"/>
<text text-anchor="start" x="568.5" y="-106" font-family="Helvetica,sans-Serif" font-size="10.00">VoxelParticleIntersection</text>
<text text-anchor="middle" x="623" y="-95" font-family="Helvetica,sans-Serif" font-size="10.00">Check</text>
</g>
<!-- Node2 -->
<g id="node2" class="node"><title>Node2</title>
<g id="a_node2"><a xlink:href="class_voxel_particle_remove_check.html" target="_top" xlink:title="VoxelParticleRemoveCheck">
<polygon fill="white" stroke="black" points="306.5,-131.5 306.5,-150.5 443.5,-150.5 443.5,-131.5 306.5,-131.5"/>
<text text-anchor="middle" x="375" y="-138.5" font-family="Helvetica,sans-Serif" font-size="10.00">VoxelParticleRemoveCheck</text>
</a>
</g>
</g>
<!-- Node2&#45;&gt;Node1 -->
<g id="edge1" class="edge"><title>Node2&#45;&gt;Node1</title>
<path fill="none" stroke="midnightblue" d="M453.647,-131.021C481.549,-127.229 513.228,-122.688 542,-118 547.997,-117.023 554.237,-115.951 560.468,-114.843"/>
<polygon fill="midnightblue" stroke="midnightblue" points="452.992,-127.578 443.55,-132.383 453.928,-134.515 452.992,-127.578"/>
</g>
<!-- Node3 -->
<g id="node3" class="node"><title>Node3</title>
<g id="a_node3"><a xlink:href="class_voxel_particle_engine.html" target="_top" xlink:title="VoxelParticleEngine">
<polygon fill="white" stroke="black" points="323,-93.5 323,-112.5 427,-112.5 427,-93.5 323,-93.5"/>
<text text-anchor="middle" x="375" y="-100.5" font-family="Helvetica,sans-Serif" font-size="10.00">VoxelParticleEngine</text>
</a>
</g>
</g>
<!-- Node3&#45;&gt;Node1 -->
<g id="edge2" class="edge"><title>Node3&#45;&gt;Node1</title>
<path fill="none" stroke="#9a32cd" stroke-dasharray="5,2" d="M437.56,-103C475.064,-103 522.824,-103 560.346,-103"/>
<polygon fill="#9a32cd" stroke="#9a32cd" points="437.27,-99.5001 427.27,-103 437.27,-106.5 437.27,-99.5001"/>
<text text-anchor="middle" x="502" y="-106" font-family="Helvetica,sans-Serif" font-size="10.00"> m_particleEngine</text>
</g>
<!-- Node4 -->
<g id="node4" class="node"><title>Node4</title>
<polygon fill="white" stroke="#bfbfbf" points="29.5,-186.5 29.5,-205.5 118.5,-205.5 118.5,-186.5 29.5,-186.5"/>
<text text-anchor="middle" x="74" y="-193.5" font-family="Helvetica,sans-Serif" font-size="10.00">std::stack&lt; int &gt;</text>
</g>
<!-- Node4&#45;&gt;Node3 -->
<g id="edge3" class="edge"><title>Node4&#45;&gt;Node3</title>
<path fill="none" stroke="#9a32cd" stroke-dasharray="5,2" d="M128.82,-197.018C175.04,-195.305 241.395,-186.41 288,-153 300.948,-143.718 293.4,-131.75 306,-122 311.041,-118.099 316.84,-114.999 322.88,-112.535"/>
<polygon fill="#9a32cd" stroke="#9a32cd" points="128.598,-193.522 118.696,-197.291 128.786,-200.52 128.598,-193.522"/>
<text text-anchor="middle" x="227" y="-196" font-family="Helvetica,sans-Serif" font-size="10.00"> m_freeParticleBufferIndices</text>
</g>
<!-- Node5 -->
<g id="node5" class="node"><title>Node5</title>
<polygon fill="white" stroke="#bfbfbf" points="10,-137 10,-167 138,-167 138,-137 10,-137"/>
<text text-anchor="start" x="18" y="-155" font-family="Helvetica,sans-Serif" font-size="10.00">std::vector&lt; VoxelParticle</text>
<text text-anchor="middle" x="74" y="-144" font-family="Helvetica,sans-Serif" font-size="10.00">Data &gt;</text>
</g>
<!-- Node5&#45;&gt;Node3 -->
<g id="edge4" class="edge"><title>Node5&#45;&gt;Node3</title>
<path fill="none" stroke="#9a32cd" stroke-dasharray="5,2" d="M148.345,-140.559C189.433,-134.083 241.594,-125.75 288,-118 299.212,-116.128 311.235,-114.065 322.633,-112.084"/>
<polygon fill="#9a32cd" stroke="#9a32cd" points="147.75,-137.109 138.416,-142.122 148.839,-144.024 147.75,-137.109"/>
<text text-anchor="middle" x="227" y="-141" font-family="Helvetica,sans-Serif" font-size="10.00"> m_cpuParticleBuffer</text>
</g>
<!-- Node6 -->
<g id="node6" class="node"><title>Node6</title>
<polygon fill="white" stroke="#bfbfbf" points="0,-88 0,-118 148,-118 148,-88 0,-88"/>
<text text-anchor="start" x="8" y="-106" font-family="Helvetica,sans-Serif" font-size="10.00">std::unique_ptr&lt; VoxelParticle</text>
<text text-anchor="middle" x="74" y="-95" font-family="Helvetica,sans-Serif" font-size="10.00">Renderer &gt;</text>
</g>
<!-- Node6&#45;&gt;Node3 -->
<g id="edge5" class="edge"><title>Node6&#45;&gt;Node3</title>
<path fill="none" stroke="#9a32cd" stroke-dasharray="5,2" d="M158.164,-103C210.931,-103 277.527,-103 322.689,-103"/>
<polygon fill="#9a32cd" stroke="#9a32cd" points="158.144,-99.5001 148.144,-103 158.144,-106.5 158.144,-99.5001"/>
<text text-anchor="middle" x="227" y="-106" font-family="Helvetica,sans-Serif" font-size="10.00"> m_renderer</text>
</g>
<!-- Node7 -->
<g id="node7" class="node"><title>Node7</title>
<polygon fill="white" stroke="#bfbfbf" points="0,-39 0,-69 148,-69 148,-39 0,-39"/>
<text text-anchor="start" x="8" y="-57" font-family="Helvetica,sans-Serif" font-size="10.00">std::unique_ptr&lt; VoxelParticle</text>
<text text-anchor="middle" x="74" y="-46" font-family="Helvetica,sans-Serif" font-size="10.00">Remover &gt;</text>
</g>
<!-- Node7&#45;&gt;Node3 -->
<g id="edge6" class="edge"><title>Node7&#45;&gt;Node3</title>
<path fill="none" stroke="#9a32cd" stroke-dasharray="5,2" d="M158.552,-67.052C197.857,-73.265 245.358,-80.8782 288,-88 299.212,-89.8725 311.235,-91.9353 322.633,-93.9161"/>
<polygon fill="#9a32cd" stroke="#9a32cd" points="158.906,-63.5647 148.483,-65.4626 157.815,-70.4791 158.906,-63.5647"/>
<text text-anchor="middle" x="227" y="-91" font-family="Helvetica,sans-Serif" font-size="10.00"> m_remover</text>
</g>
<!-- Node8 -->
<g id="node8" class="node"><title>Node8</title>
<g id="a_node8"><a xlink:href="class_sphere.html" target="_top" xlink:title="Sphere">
<polygon fill="white" stroke="black" points="351.5,-28.5 351.5,-47.5 398.5,-47.5 398.5,-28.5 351.5,-28.5"/>
<text text-anchor="middle" x="375" y="-35.5" font-family="Helvetica,sans-Serif" font-size="10.00">Sphere</text>
</a>
</g>
</g>
<!-- Node8&#45;&gt;Node1 -->
<g id="edge7" class="edge"><title>Node8&#45;&gt;Node1</title>
<path fill="none" stroke="#9a32cd" stroke-dasharray="5,2" d="M408.427,-46.5681C448.263,-57.0939 516.53,-75.1318 565.157,-87.9805"/>
<polygon fill="#9a32cd" stroke="#9a32cd" points="409.264,-43.1693 398.702,-43.9985 407.476,-49.9371 409.264,-43.1693"/>
<text text-anchor="middle" x="502" y="-84" font-family="Helvetica,sans-Serif" font-size="10.00"> m_Sphere</text>
</g>
<!-- Node9 -->
<g id="node9" class="node"><title>Node9</title>
<g id="a_node9"><a xlink:href="class_abstract_shape.html" target="_top" xlink:title="AbstractShape">
<polygon fill="white" stroke="black" points="33.5,-0.5 33.5,-19.5 114.5,-19.5 114.5,-0.5 33.5,-0.5"/>
<text text-anchor="middle" x="74" y="-7.5" font-family="Helvetica,sans-Serif" font-size="10.00">AbstractShape</text>
</a>
</g>
</g>
<!-- Node9&#45;&gt;Node8 -->
<g id="edge8" class="edge"><title>Node9&#45;&gt;Node8</title>
<path fill="none" stroke="midnightblue" d="M124.824,-14.6658C190.505,-20.8165 303.333,-31.3824 351.327,-35.8768"/>
<polygon fill="midnightblue" stroke="midnightblue" points="124.988,-11.1659 114.705,-13.7182 124.335,-18.1354 124.988,-11.1659"/>
</g>
</g>
</svg>
