<?xml version="1.0" encoding="UTF-8" standalone="no"?>
<!DOCTYPE svg PUBLIC "-//W3C//DTD SVG 1.1//EN"
 "http://www.w3.org/Graphics/SVG/1.1/DTD/svg11.dtd">
<!-- Generated by graphviz version 2.36.0 (20140111.2315)
 -->
<!-- Title: AiGroupTask Pages: 1 -->
<svg width="271pt" height="232pt"
 viewBox="0.00 0.00 271.00 232.00" xmlns="http://www.w3.org/2000/svg" xmlns:xlink="http://www.w3.org/1999/xlink">
<g id="graph0" class="graph" transform="scale(1 1) rotate(0) translate(4 228)">
<title>AiGroupTask</title>
<polygon fill="white" stroke="none" points="-4,4 -4,-228 267,-228 267,4 -4,4"/>
<!-- Node1 -->
<g id="node1" class="node"><title>Node1</title>
<polygon fill="#bfbfbf" stroke="black" points="21.5,-0.5 21.5,-19.5 94.5,-19.5 94.5,-0.5 21.5,-0.5"/>
<text text-anchor="middle" x="58" y="-7.5" font-family="Helvetica,sans-Serif" font-size="10.00">AiGroupTask</text>
</g>
<!-- Node2 -->
<g id="node2" class="node"><title>Node2</title>
<g id="a_node2"><a xlink:href="class_scriptable.html" target="_top" xlink:title="Scriptable">
<polygon fill="white" stroke="black" points="0,-136.5 0,-155.5 60,-155.5 60,-136.5 0,-136.5"/>
<text text-anchor="middle" x="30" y="-143.5" font-family="Helvetica,sans-Serif" font-size="10.00">Scriptable</text>
</a>
</g>
</g>
<!-- Node2&#45;&gt;Node1 -->
<g id="edge1" class="edge"><title>Node2&#45;&gt;Node1</title>
<path fill="none" stroke="midnightblue" d="M33.8905,-126.381C40.0268,-97.0148 51.7146,-41.08 56.1925,-19.6503"/>
<polygon fill="midnightblue" stroke="midnightblue" points="30.4566,-125.703 31.8372,-136.208 37.3086,-127.135 30.4566,-125.703"/>
</g>
<!-- Node3 -->
<g id="node3" class="node"><title>Node3</title>
<g id="a_node3"><a xlink:href="class_squad.html" target="_top" xlink:title="Squad">
<polygon fill="white" stroke="black" points="66,-68.5 66,-87.5 110,-87.5 110,-68.5 66,-68.5"/>
<text text-anchor="middle" x="88" y="-75.5" font-family="Helvetica,sans-Serif" font-size="10.00">Squad</text>
</a>
</g>
</g>
<!-- Node2&#45;&gt;Node3 -->
<g id="edge3" class="edge"><title>Node2&#45;&gt;Node3</title>
<path fill="none" stroke="midnightblue" d="M44.3418,-128.68C55.681,-115.777 71.0767,-98.2575 80.2305,-87.8411"/>
<polygon fill="midnightblue" stroke="midnightblue" points="41.5546,-126.55 37.5825,-136.372 46.8128,-131.17 41.5546,-126.55"/>
</g>
<!-- Node3&#45;&gt;Node1 -->
<g id="edge2" class="edge"><title>Node3&#45;&gt;Node1</title>
<path fill="none" stroke="#9a32cd" stroke-dasharray="5,2" d="M79.9027,-59.1859C74.1147,-46.4523 66.5731,-29.8607 62.0187,-19.8411"/>
<polygon fill="#9a32cd" stroke="#9a32cd" points="76.7537,-60.7163 84.078,-68.3717 83.1262,-57.8196 76.7537,-60.7163"/>
<text text-anchor="middle" x="97.5" y="-41.5" font-family="Helvetica,sans-Serif" font-size="10.00"> m_squad</text>
</g>
<!-- Node4 -->
<g id="node4" class="node"><title>Node4</title>
<g id="a_node4"><a xlink:href="class_ship.html" target="_top" xlink:title="Ship">
<polygon fill="white" stroke="red" points="114,-204.5 114,-223.5 150,-223.5 150,-204.5 114,-204.5"/>
<text text-anchor="middle" x="132" y="-211.5" font-family="Helvetica,sans-Serif" font-size="10.00">Ship</text>
</a>
</g>
</g>
<!-- Node4&#45;&gt;Node3 -->
<g id="edge4" class="edge"><title>Node4&#45;&gt;Node3</title>
<path fill="none" stroke="#9a32cd" stroke-dasharray="5,2" d="M122.387,-195.382C116.68,-184.332 109.67,-169.642 105,-156 96.7528,-131.909 91.5156,-102.178 89.2682,-87.7193"/>
<polygon fill="#9a32cd" stroke="#9a32cd" points="119.378,-197.179 127.157,-204.372 125.562,-193.898 119.378,-197.179"/>
<text text-anchor="middle" x="126.5" y="-143.5" font-family="Helvetica,sans-Serif" font-size="10.00"> m_leader</text>
</g>
<!-- Node5 -->
<g id="node5" class="node"><title>Node5</title>
<polygon fill="white" stroke="#bfbfbf" points="157,-136.5 157,-155.5 263,-155.5 263,-136.5 157,-136.5"/>
<text text-anchor="middle" x="210" y="-143.5" font-family="Helvetica,sans-Serif" font-size="10.00">std::vector&lt; Ship * &gt;</text>
</g>
<!-- Node4&#45;&gt;Node5 -->
<g id="edge6" class="edge"><title>Node4&#45;&gt;Node5</title>
<path fill="none" stroke="#9a32cd" stroke-dasharray="5,2" d="M149.994,-197.774C165.347,-184.784 186.889,-166.555 199.551,-155.841"/>
<polygon fill="#9a32cd" stroke="#9a32cd" points="147.57,-195.24 142.197,-204.372 152.092,-200.584 147.57,-195.24"/>
<text text-anchor="middle" x="198.5" y="-177.5" font-family="Helvetica,sans-Serif" font-size="10.00"> elements</text>
</g>
<!-- Node5&#45;&gt;Node3 -->
<g id="edge5" class="edge"><title>Node5&#45;&gt;Node3</title>
<path fill="none" stroke="#9a32cd" stroke-dasharray="5,2" d="M185.073,-131.515C160.787,-118.377 124.596,-98.7981 103.953,-87.6305"/>
<polygon fill="#9a32cd" stroke="#9a32cd" points="183.59,-134.692 194.051,-136.372 186.921,-128.535 183.59,-134.692"/>
<text text-anchor="middle" x="188" y="-109.5" font-family="Helvetica,sans-Serif" font-size="10.00"> m_members</text>
</g>
</g>
</svg>
