<?xml version="1.0" encoding="UTF-8" standalone="no"?>
<!DOCTYPE svg PUBLIC "-//W3C//DTD SVG 1.1//EN"
 "http://www.w3.org/Graphics/SVG/1.1/DTD/svg11.dtd">
<!-- Generated by graphviz version 2.36.0 (20140111.2315)
 -->
<!-- Title: InternalMissionBindings Pages: 1 -->
<svg width="358pt" height="232pt"
 viewBox="0.00 0.00 358.00 232.00" xmlns="http://www.w3.org/2000/svg" xmlns:xlink="http://www.w3.org/1999/xlink">
<g id="graph0" class="graph" transform="scale(1 1) rotate(0) translate(4 228)">
<title>InternalMissionBindings</title>
<polygon fill="white" stroke="none" points="-4,4 -4,-228 354,-228 354,4 -4,4"/>
<!-- Node1 -->
<g id="node1" class="node"><title>Node1</title>
<polygon fill="#bfbfbf" stroke="black" points="136.5,-0.5 136.5,-19.5 255.5,-19.5 255.5,-0.5 136.5,-0.5"/>
<text text-anchor="middle" x="196" y="-7.5" font-family="Helvetica,sans-Serif" font-size="10.00">InternalMissionBindings</text>
</g>
<!-- Node2 -->
<g id="node2" class="node"><title>Node2</title>
<g id="a_node2"><a xlink:href="class_bindings.html" target="_top" xlink:title="Bindings">
<polygon fill="white" stroke="black" points="90,-68.5 90,-87.5 144,-87.5 144,-68.5 90,-68.5"/>
<text text-anchor="middle" x="117" y="-75.5" font-family="Helvetica,sans-Serif" font-size="10.00">Bindings</text>
</a>
</g>
</g>
<!-- Node2&#45;&gt;Node1 -->
<g id="edge1" class="edge"><title>Node2&#45;&gt;Node1</title>
<path fill="none" stroke="midnightblue" d="M135.273,-61.7343C150.921,-48.6606 172.894,-30.3039 185.67,-19.6305"/>
<polygon fill="midnightblue" stroke="midnightblue" points="132.758,-59.2742 127.328,-68.3717 137.246,-64.6462 132.758,-59.2742"/>
</g>
<!-- Node3 -->
<g id="node3" class="node"><title>Node3</title>
<g id="a_node3"><a xlink:href="class_lua_wrapper.html" target="_top" xlink:title="LuaWrapper">
<polygon fill="white" stroke="red" points="-0.5,-136.5 -0.5,-155.5 68.5,-155.5 68.5,-136.5 -0.5,-136.5"/>
<text text-anchor="middle" x="34" y="-143.5" font-family="Helvetica,sans-Serif" font-size="10.00">LuaWrapper</text>
</a>
</g>
</g>
<!-- Node3&#45;&gt;Node2 -->
<g id="edge2" class="edge"><title>Node3&#45;&gt;Node2</title>
<path fill="none" stroke="#9a32cd" stroke-dasharray="5,2" d="M43.6099,-127.157C48.1607,-119.914 54.1141,-111.886 61,-106 70.189,-98.1455 82.0564,-91.9958 92.4997,-87.5625"/>
<polygon fill="#9a32cd" stroke="#9a32cd" points="40.312,-125.866 38.3175,-136.272 46.3656,-129.381 40.312,-125.866"/>
<text text-anchor="middle" x="76" y="-109.5" font-family="Helvetica,sans-Serif" font-size="10.00"> m_lua</text>
</g>
<!-- Node4 -->
<g id="node4" class="node"><title>Node4</title>
<g id="a_node4"><a xlink:href="class_script_engine.html" target="_top" xlink:title="ScriptEngine">
<polygon fill="white" stroke="red" points="110,-204.5 110,-223.5 182,-223.5 182,-204.5 110,-204.5"/>
<text text-anchor="middle" x="146" y="-211.5" font-family="Helvetica,sans-Serif" font-size="10.00">ScriptEngine</text>
</a>
</g>
</g>
<!-- Node4&#45;&gt;Node2 -->
<g id="edge3" class="edge"><title>Node4&#45;&gt;Node2</title>
<path fill="none" stroke="#9a32cd" stroke-dasharray="5,2" d="M133.332,-195.909C126.114,-185.08 117.775,-170.436 114,-156 107.705,-131.926 112.141,-102.187 115.038,-87.7231"/>
<polygon fill="#9a32cd" stroke="#9a32cd" points="130.639,-198.164 139.245,-204.343 136.371,-194.146 130.639,-198.164"/>
<text text-anchor="middle" x="149.5" y="-143.5" font-family="Helvetica,sans-Serif" font-size="10.00"> m_scriptEngine</text>
</g>
<!-- Node5 -->
<g id="node5" class="node"><title>Node5</title>
<g id="a_node5"><a xlink:href="class_game_play_script.html" target="_top" xlink:title="GamePlayScript">
<polygon fill="white" stroke="red" points="194,-136.5 194,-155.5 282,-155.5 282,-136.5 194,-136.5"/>
<text text-anchor="middle" x="238" y="-143.5" font-family="Helvetica,sans-Serif" font-size="10.00">GamePlayScript</text>
</a>
</g>
</g>
<!-- Node4&#45;&gt;Node5 -->
<g id="edge5" class="edge"><title>Node4&#45;&gt;Node5</title>
<path fill="none" stroke="#9a32cd" stroke-dasharray="5,2" d="M166.275,-198.455C184.552,-185.343 210.816,-166.502 225.97,-155.63"/>
<polygon fill="#9a32cd" stroke="#9a32cd" points="164.113,-195.699 158.027,-204.372 168.193,-201.386 164.113,-195.699"/>
<text text-anchor="middle" x="236.5" y="-177.5" font-family="Helvetica,sans-Serif" font-size="10.00"> m_scriptEngine</text>
</g>
<!-- Node5&#45;&gt;Node2 -->
<g id="edge4" class="edge"><title>Node5&#45;&gt;Node2</title>
<path fill="none" stroke="#9a32cd" stroke-dasharray="5,2" d="M213.277,-131.515C189.191,-118.377 153.297,-98.7981 132.823,-87.6305"/>
<polygon fill="#9a32cd" stroke="#9a32cd" points="211.726,-134.656 222.181,-136.372 215.078,-128.51 211.726,-134.656"/>
<text text-anchor="middle" x="209.5" y="-109.5" font-family="Helvetica,sans-Serif" font-size="10.00"> m_script</text>
</g>
<!-- Node6 -->
<g id="node6" class="node"><title>Node6</title>
<g id="a_node6"><a xlink:href="class_mission_script.html" target="_top" xlink:title="MissionScript">
<polygon fill="white" stroke="black" points="200,-68.5 200,-87.5 276,-87.5 276,-68.5 200,-68.5"/>
<text text-anchor="middle" x="238" y="-75.5" font-family="Helvetica,sans-Serif" font-size="10.00">MissionScript</text>
</a>
</g>
</g>
<!-- Node5&#45;&gt;Node6 -->
<g id="edge7" class="edge"><title>Node5&#45;&gt;Node6</title>
<path fill="none" stroke="midnightblue" d="M238,-126.041C238,-113.472 238,-97.5631 238,-87.8411"/>
<polygon fill="midnightblue" stroke="midnightblue" points="234.5,-126.372 238,-136.372 241.5,-126.372 234.5,-126.372"/>
</g>
<!-- Node6&#45;&gt;Node1 -->
<g id="edge6" class="edge"><title>Node6&#45;&gt;Node1</title>
<path fill="none" stroke="#9a32cd" stroke-dasharray="5,2" d="M226.904,-59.563C218.77,-46.7815 208.065,-29.9599 201.626,-19.8411"/>
<polygon fill="#9a32cd" stroke="#9a32cd" points="224.188,-61.8141 232.509,-68.3717 230.093,-58.0559 224.188,-61.8141"/>
<text text-anchor="middle" x="259" y="-41.5" font-family="Helvetica,sans-Serif" font-size="10.00"> m_missionScript</text>
</g>
<!-- Node7 -->
<g id="node7" class="node"><title>Node7</title>
<g id="a_node7"><a xlink:href="class_mission.html" target="_top" xlink:title="Mission">
<polygon fill="white" stroke="red" points="300,-136.5 300,-155.5 350,-155.5 350,-136.5 300,-136.5"/>
<text text-anchor="middle" x="325" y="-143.5" font-family="Helvetica,sans-Serif" font-size="10.00">Mission</text>
</a>
</g>
</g>
<!-- Node7&#45;&gt;Node6 -->
<g id="edge8" class="edge"><title>Node7&#45;&gt;Node6</title>
<path fill="none" stroke="#9a32cd" stroke-dasharray="5,2" d="M305.354,-130.096C288.092,-117.001 263.576,-98.4028 249.377,-87.6305"/>
<polygon fill="#9a32cd" stroke="#9a32cd" points="303.544,-133.116 313.626,-136.372 307.775,-127.539 303.544,-133.116"/>
<text text-anchor="middle" x="315.5" y="-109.5" font-family="Helvetica,sans-Serif" font-size="10.00"> m_mission</text>
</g>
</g>
</svg>
