<?xml version="1.0" encoding="UTF-8" standalone="no"?>
<!DOCTYPE svg PUBLIC "-//W3C//DTD SVG 1.1//EN"
 "http://www.w3.org/Graphics/SVG/1.1/DTD/svg11.dtd">
<!-- Generated by graphviz version 2.36.0 (20140111.2315)
 -->
<!-- Title: Starfield Pages: 1 -->
<svg width="478pt" height="192pt"
 viewBox="0.00 0.00 478.00 192.00" xmlns="http://www.w3.org/2000/svg" xmlns:xlink="http://www.w3.org/1999/xlink">
<g id="graph0" class="graph" transform="scale(1 1) rotate(0) translate(4 188)">
<title>Starfield</title>
<polygon fill="white" stroke="none" points="-4,4 -4,-188 474,-188 474,4 -4,4"/>
<!-- Node1 -->
<g id="node1" class="node"><title>Node1</title>
<polygon fill="#bfbfbf" stroke="black" points="418,-82.5 418,-101.5 470,-101.5 470,-82.5 418,-82.5"/>
<text text-anchor="middle" x="444" y="-89.5" font-family="Helvetica,sans-Serif" font-size="10.00">Starfield</text>
</g>
<!-- Node2 -->
<g id="node2" class="node"><title>Node2</title>
<g id="a_node2"><a xlink:href="class_render_pass.html" target="_top" xlink:title="RenderPass">
<polygon fill="white" stroke="black" points="227,-164.5 227,-183.5 297,-183.5 297,-164.5 227,-164.5"/>
<text text-anchor="middle" x="262" y="-171.5" font-family="Helvetica,sans-Serif" font-size="10.00">RenderPass</text>
</a>
</g>
</g>
<!-- Node2&#45;&gt;Node1 -->
<g id="edge1" class="edge"><title>Node2&#45;&gt;Node1</title>
<path fill="none" stroke="midnightblue" d="M307.162,-176.278C335.622,-175.743 372.339,-171.138 400,-154 420.043,-141.582 433.159,-115.975 439.18,-101.865"/>
<polygon fill="midnightblue" stroke="midnightblue" points="307.073,-172.778 297.083,-176.307 307.093,-179.778 307.073,-172.778"/>
</g>
<!-- Node3 -->
<g id="node3" class="node"><title>Node3</title>
<g id="a_node3"><a xlink:title="STL class. ">
<polygon fill="white" stroke="#bfbfbf" points="34,-126.5 34,-145.5 94,-145.5 94,-126.5 34,-126.5"/>
<text text-anchor="middle" x="64" y="-133.5" font-family="Helvetica,sans-Serif" font-size="10.00">std::string</text>
</a>
</g>
</g>
<!-- Node3&#45;&gt;Node2 -->
<g id="edge2" class="edge"><title>Node3&#45;&gt;Node2</title>
<path fill="none" stroke="#9a32cd" stroke-dasharray="5,2" d="M104.449,-143.648C140.32,-150.603 192.715,-160.761 226.835,-167.376"/>
<polygon fill="#9a32cd" stroke="#9a32cd" points="104.827,-140.156 94.3432,-141.689 103.494,-147.028 104.827,-140.156"/>
<text text-anchor="middle" x="168" y="-162" font-family="Helvetica,sans-Serif" font-size="10.00"> m_name</text>
</g>
<!-- Node5 -->
<g id="node5" class="node"><title>Node5</title>
<g id="a_node5"><a xlink:href="class_property.html" target="_top" xlink:title="Property\&lt; int \&gt;">
<polygon fill="white" stroke="black" points="221,-126.5 221,-145.5 303,-145.5 303,-126.5 221,-126.5"/>
<text text-anchor="middle" x="262" y="-133.5" font-family="Helvetica,sans-Serif" font-size="10.00">Property&lt; int &gt;</text>
</a>
</g>
</g>
<!-- Node3&#45;&gt;Node5 -->
<g id="edge5" class="edge"><title>Node3&#45;&gt;Node5</title>
<path fill="none" stroke="#9a32cd" stroke-dasharray="5,2" d="M104.344,-136C138.201,-136 186.836,-136 220.909,-136"/>
<polygon fill="#9a32cd" stroke="#9a32cd" points="104.343,-132.5 94.3432,-136 104.343,-139.5 104.343,-132.5"/>
<text text-anchor="middle" x="168" y="-139" font-family="Helvetica,sans-Serif" font-size="10.00"> m_name</text>
</g>
<!-- Node6 -->
<g id="node6" class="node"><title>Node6</title>
<g id="a_node6"><a xlink:href="class_property.html" target="_top" xlink:title="Property\&lt; float \&gt;">
<polygon fill="white" stroke="black" points="217.5,-88.5 217.5,-107.5 306.5,-107.5 306.5,-88.5 217.5,-88.5"/>
<text text-anchor="middle" x="262" y="-95.5" font-family="Helvetica,sans-Serif" font-size="10.00">Property&lt; float &gt;</text>
</a>
</g>
</g>
<!-- Node3&#45;&gt;Node6 -->
<g id="edge7" class="edge"><title>Node3&#45;&gt;Node6</title>
<path fill="none" stroke="#9a32cd" stroke-dasharray="5,2" d="M104.434,-128.355C137.101,-122.021 183.478,-113.03 217.276,-106.477"/>
<polygon fill="#9a32cd" stroke="#9a32cd" points="103.494,-124.972 94.3432,-130.311 104.827,-131.844 103.494,-124.972"/>
<text text-anchor="middle" x="168" y="-123" font-family="Helvetica,sans-Serif" font-size="10.00"> m_name</text>
</g>
<!-- Node4 -->
<g id="node4" class="node"><title>Node4</title>
<g id="a_node4"><a xlink:href="class_context_dependant.html" target="_top" xlink:title="ContextDependant">
<polygon fill="white" stroke="black" points="213.5,-49.5 213.5,-68.5 310.5,-68.5 310.5,-49.5 213.5,-49.5"/>
<text text-anchor="middle" x="262" y="-56.5" font-family="Helvetica,sans-Serif" font-size="10.00">ContextDependant</text>
</a>
</g>
</g>
<!-- Node4&#45;&gt;Node1 -->
<g id="edge3" class="edge"><title>Node4&#45;&gt;Node1</title>
<path fill="none" stroke="midnightblue" d="M320.688,-69.5761C353.419,-75.5768 392.725,-82.7829 417.781,-87.3765"/>
<polygon fill="midnightblue" stroke="midnightblue" points="321.231,-66.1175 310.764,-67.7568 319.969,-73.0027 321.231,-66.1175"/>
</g>
<!-- Node5&#45;&gt;Node1 -->
<g id="edge4" class="edge"><title>Node5&#45;&gt;Node1</title>
<path fill="none" stroke="#9a32cd" stroke-dasharray="5,2" d="M313.276,-139.317C339.887,-139.364 372.628,-136.647 400,-126 413.482,-120.756 426.113,-109.753 434.151,-101.678"/>
<polygon fill="#9a32cd" stroke="#9a32cd" points="313.081,-135.814 303.03,-139.165 312.977,-142.813 313.081,-135.814"/>
<text text-anchor="middle" x="367" y="-142" font-family="Helvetica,sans-Serif" font-size="10.00"> m_starCount</text>
</g>
<!-- Node6&#45;&gt;Node1 -->
<g id="edge6" class="edge"><title>Node6&#45;&gt;Node1</title>
<path fill="none" stroke="#9a32cd" stroke-dasharray="5,2" d="M316.866,-93.8594C322.647,-93.5187 328.444,-93.2209 334,-93 362.742,-91.8572 395.78,-91.7189 417.879,-91.7952"/>
<polygon fill="#9a32cd" stroke="#9a32cd" points="316.292,-90.3886 306.533,-94.5119 316.734,-97.3747 316.292,-90.3886"/>
<text text-anchor="middle" x="367" y="-118" font-family="Helvetica,sans-Serif" font-size="10.00"> m_fieldRadius</text>
<text text-anchor="middle" x="367" y="-107" font-family="Helvetica,sans-Serif" font-size="10.00">m_starfieldAge</text>
<text text-anchor="middle" x="367" y="-96" font-family="Helvetica,sans-Serif" font-size="10.00">m_starSize</text>
</g>
<!-- Node7 -->
<g id="node7" class="node"><title>Node7</title>
<polygon fill="white" stroke="#bfbfbf" points="208.5,-0 208.5,-30 315.5,-30 315.5,-0 208.5,-0"/>
<text text-anchor="start" x="216.5" y="-18" font-family="Helvetica,sans-Serif" font-size="10.00">std::deque&lt; Starfield</text>
<text text-anchor="middle" x="262" y="-7" font-family="Helvetica,sans-Serif" font-size="10.00">::CameraLocation &gt;</text>
</g>
<!-- Node7&#45;&gt;Node1 -->
<g id="edge8" class="edge"><title>Node7&#45;&gt;Node1</title>
<path fill="none" stroke="#9a32cd" stroke-dasharray="5,2" d="M325.293,-29.3654C349.415,-36.2428 376.76,-45.7055 400,-58 412.45,-64.5864 424.877,-74.921 433.146,-82.4687"/>
<polygon fill="#9a32cd" stroke="#9a32cd" points="326.096,-25.9562 315.525,-26.6693 324.234,-32.7039 326.096,-25.9562"/>
<text text-anchor="middle" x="367" y="-61" font-family="Helvetica,sans-Serif" font-size="10.00"> m_locations</text>
</g>
<!-- Node8 -->
<g id="node8" class="node"><title>Node8</title>
<g id="a_node8"><a xlink:href="struct_starfield_1_1_camera_location.html" target="_top" xlink:title="Starfield::CameraLocation">
<polygon fill="white" stroke="black" points="0,-5.5 0,-24.5 128,-24.5 128,-5.5 0,-5.5"/>
<text text-anchor="middle" x="64" y="-12.5" font-family="Helvetica,sans-Serif" font-size="10.00">Starfield::CameraLocation</text>
</a>
</g>
</g>
<!-- Node8&#45;&gt;Node7 -->
<g id="edge9" class="edge"><title>Node8&#45;&gt;Node7</title>
<path fill="none" stroke="#9a32cd" stroke-dasharray="5,2" d="M138.259,-15C161.49,-15 186.705,-15 208.204,-15"/>
<polygon fill="#9a32cd" stroke="#9a32cd" points="138.095,-11.5001 128.095,-15 138.094,-18.5001 138.095,-11.5001"/>
<text text-anchor="middle" x="168" y="-18" font-family="Helvetica,sans-Serif" font-size="10.00"> elements</text>
</g>
</g>
</svg>
