<?xml version="1.0" encoding="UTF-8" standalone="no"?>
<!DOCTYPE svg PUBLIC "-//W3C//DTD SVG 1.1//EN"
 "http://www.w3.org/Graphics/SVG/1.1/DTD/svg11.dtd">
<!-- Generated by graphviz version 2.36.0 (20140111.2315)
 -->
<!-- Title: ContextProvider Pages: 1 -->
<svg width="249pt" height="186pt"
 viewBox="0.00 0.00 249.00 186.00" xmlns="http://www.w3.org/2000/svg" xmlns:xlink="http://www.w3.org/1999/xlink">
<g id="graph0" class="graph" transform="scale(1 1) rotate(0) translate(4 182)">
<title>ContextProvider</title>
<polygon fill="white" stroke="none" points="-4,4 -4,-182 245,-182 245,4 -4,4"/>
<!-- Node1 -->
<g id="node1" class="node"><title>Node1</title>
<polygon fill="#bfbfbf" stroke="black" points="48.5,-0.5 48.5,-19.5 133.5,-19.5 133.5,-0.5 48.5,-0.5"/>
<text text-anchor="middle" x="91" y="-7.5" font-family="Helvetica,sans-Serif" font-size="10.00">ContextProvider</text>
</g>
<!-- Node1&#45;&gt;Node1 -->
<g id="edge4" class="edge"><title>Node1&#45;&gt;Node1</title>
<path fill="none" stroke="#9a32cd" stroke-dasharray="5,2" d="M143.85,-15.5085C148.258,-14.3236 151,-12.4875 151,-10 151,-5.91797 143.615,-3.58994 133.604,-3.0159"/>
<polygon fill="#9a32cd" stroke="#9a32cd" points="143.003,-12.0942 133.604,-16.9841 144.001,-19.0227 143.003,-12.0942"/>
<text text-anchor="middle" x="176.5" y="-7.5" font-family="Helvetica,sans-Serif" font-size="10.00"> s_instance</text>
</g>
<!-- Node2 -->
<g id="node2" class="node"><title>Node2</title>
<g id="a_node2"><a xlink:href="class_size.html" target="_top" xlink:title="Size\&lt; int \&gt;">
<polygon fill="white" stroke="black" points="-0.5,-84.5 -0.5,-103.5 64.5,-103.5 64.5,-84.5 -0.5,-84.5"/>
<text text-anchor="middle" x="32" y="-91.5" font-family="Helvetica,sans-Serif" font-size="10.00">Size&lt; int &gt;</text>
</a>
</g>
</g>
<!-- Node2&#45;&gt;Node1 -->
<g id="edge1" class="edge"><title>Node2&#45;&gt;Node1</title>
<path fill="none" stroke="#9a32cd" stroke-dasharray="5,2" d="M27.6389,-74.2268C26.0758,-62.8603 26.1269,-48.5678 33,-38 38.5107,-29.527 47.4324,-23.6661 56.6438,-19.6309"/>
<polygon fill="#9a32cd" stroke="#9a32cd" points="24.2588,-75.1911 29.5471,-84.3717 31.1381,-73.897 24.2588,-75.1911"/>
<text text-anchor="middle" x="80.5" y="-52" font-family="Helvetica,sans-Serif" font-size="10.00"> m_lastWindowedPos</text>
<text text-anchor="middle" x="80.5" y="-41" font-family="Helvetica,sans-Serif" font-size="10.00">m_lastWindowedSize</text>
</g>
<!-- Node3 -->
<g id="node3" class="node"><title>Node3</title>
<polygon fill="white" stroke="#bfbfbf" points="89,-79 89,-109 211,-109 211,-79 89,-79"/>
<text text-anchor="start" x="97" y="-97" font-family="Helvetica,sans-Serif" font-size="10.00">std::unordered_set</text>
<text text-anchor="middle" x="150" y="-86" font-family="Helvetica,sans-Serif" font-size="10.00">&lt; ContextDependant * &gt;</text>
</g>
<!-- Node3&#45;&gt;Node1 -->
<g id="edge2" class="edge"><title>Node3&#45;&gt;Node1</title>
<path fill="none" stroke="#9a32cd" stroke-dasharray="5,2" d="M143.702,-69.142C140.206,-58.8647 135.098,-47.1368 128,-38 122.244,-30.5897 113.933,-24.2743 106.645,-19.6188"/>
<polygon fill="#9a32cd" stroke="#9a32cd" points="140.385,-70.261 146.676,-78.7859 147.074,-68.1986 140.385,-70.261"/>
<text text-anchor="middle" x="190.5" y="-46.5" font-family="Helvetica,sans-Serif" font-size="10.00"> m_contextDependants</text>
</g>
<!-- Node4 -->
<g id="node4" class="node"><title>Node4</title>
<g id="a_node4"><a xlink:href="class_context_dependant.html" target="_top" xlink:title="ContextDependant">
<polygon fill="white" stroke="black" points="101.5,-158.5 101.5,-177.5 198.5,-177.5 198.5,-158.5 101.5,-158.5"/>
<text text-anchor="middle" x="150" y="-165.5" font-family="Helvetica,sans-Serif" font-size="10.00">ContextDependant</text>
</a>
</g>
</g>
<!-- Node4&#45;&gt;Node3 -->
<g id="edge3" class="edge"><title>Node4&#45;&gt;Node3</title>
<path fill="none" stroke="#9a32cd" stroke-dasharray="5,2" d="M150,-148.085C150,-135.915 150,-120.354 150,-109.232"/>
<polygon fill="#9a32cd" stroke="#9a32cd" points="146.5,-148.458 150,-158.458 153.5,-148.458 146.5,-148.458"/>
<text text-anchor="middle" x="162.5" y="-131.5" font-family="Helvetica,sans-Serif" font-size="10.00"> keys</text>
</g>
</g>
</svg>
