<?xml version="1.0" encoding="UTF-8" standalone="no"?>
<!DOCTYPE svg PUBLIC "-//W3C//DTD SVG 1.1//EN"
 "http://www.w3.org/Graphics/SVG/1.1/DTD/svg11.dtd">
<!-- Generated by graphviz version 2.36.0 (20140111.2315)
 -->
<!-- Title: VoxelParticleExpireCheck Pages: 1 -->
<svg width="698pt" height="213pt"
 viewBox="0.00 0.00 698.00 213.00" xmlns="http://www.w3.org/2000/svg" xmlns:xlink="http://www.w3.org/1999/xlink">
<g id="graph0" class="graph" transform="scale(1 1) rotate(0) translate(4 209)">
<title>VoxelParticleExpireCheck</title>
<polygon fill="white" stroke="none" points="-4,4 -4,-209 694,-209 694,4 -4,4"/>
<!-- Node1 -->
<g id="node1" class="node"><title>Node1</title>
<polygon fill="#bfbfbf" stroke="black" points="560,-125.5 560,-144.5 690,-144.5 690,-125.5 560,-125.5"/>
<text text-anchor="middle" x="625" y="-132.5" font-family="Helvetica,sans-Serif" font-size="10.00">VoxelParticleExpireCheck</text>
</g>
<!-- Node2 -->
<g id="node2" class="node"><title>Node2</title>
<g id="a_node2"><a xlink:href="class_voxel_particle_remove_check.html" target="_top" xlink:title="VoxelParticleRemoveCheck">
<polygon fill="white" stroke="black" points="306.5,-141.5 306.5,-160.5 443.5,-160.5 443.5,-141.5 306.5,-141.5"/>
<text text-anchor="middle" x="375" y="-148.5" font-family="Helvetica,sans-Serif" font-size="10.00">VoxelParticleRemoveCheck</text>
</a>
</g>
</g>
<!-- Node2&#45;&gt;Node1 -->
<g id="edge1" class="edge"><title>Node2&#45;&gt;Node1</title>
<path fill="none" stroke="midnightblue" d="M454.131,-145.959C488.124,-143.766 527.471,-141.228 559.731,-139.146"/>
<polygon fill="midnightblue" stroke="midnightblue" points="453.521,-142.491 443.767,-146.628 453.972,-149.477 453.521,-142.491"/>
</g>
<!-- Node3 -->
<g id="node3" class="node"><title>Node3</title>
<g id="a_node3"><a xlink:href="class_voxel_particle_engine.html" target="_top" xlink:title="VoxelParticleEngine">
<polygon fill="white" stroke="black" points="323,-103.5 323,-122.5 427,-122.5 427,-103.5 323,-103.5"/>
<text text-anchor="middle" x="375" y="-110.5" font-family="Helvetica,sans-Serif" font-size="10.00">VoxelParticleEngine</text>
</a>
</g>
</g>
<!-- Node3&#45;&gt;Node1 -->
<g id="edge2" class="edge"><title>Node3&#45;&gt;Node1</title>
<path fill="none" stroke="#9a32cd" stroke-dasharray="5,2" d="M437.575,-117.363C468.868,-119.697 507.48,-122.755 542,-126 547.703,-126.536 553.627,-127.125 559.561,-127.736"/>
<polygon fill="#9a32cd" stroke="#9a32cd" points="437.491,-113.847 427.26,-116.6 436.975,-120.828 437.491,-113.847"/>
<text text-anchor="middle" x="502" y="-129" font-family="Helvetica,sans-Serif" font-size="10.00"> m_particleEngine</text>
</g>
<!-- Node4 -->
<g id="node4" class="node"><title>Node4</title>
<g id="a_node4"><a xlink:href="class_context_dependant.html" target="_top" xlink:title="ContextDependant">
<polygon fill="white" stroke="black" points="25.5,-185.5 25.5,-204.5 122.5,-204.5 122.5,-185.5 25.5,-185.5"/>
<text text-anchor="middle" x="74" y="-192.5" font-family="Helvetica,sans-Serif" font-size="10.00">ContextDependant</text>
</a>
</g>
</g>
<!-- Node4&#45;&gt;Node3 -->
<g id="edge3" class="edge"><title>Node4&#45;&gt;Node3</title>
<path fill="none" stroke="#8b1a1a" d="M132.588,-197.82C178.252,-197.328 241.844,-190.316 288,-160 300.365,-151.878 294.098,-140.787 306,-132 311.227,-128.141 317.204,-125.066 323.396,-122.615"/>
<polygon fill="#8b1a1a" stroke="#8b1a1a" points="132.548,-194.32 122.551,-197.827 132.553,-201.32 132.548,-194.32"/>
</g>
<!-- Node5 -->
<g id="node5" class="node"><title>Node5</title>
<polygon fill="white" stroke="#bfbfbf" points="29.5,-147.5 29.5,-166.5 118.5,-166.5 118.5,-147.5 29.5,-147.5"/>
<text text-anchor="middle" x="74" y="-154.5" font-family="Helvetica,sans-Serif" font-size="10.00">std::stack&lt; int &gt;</text>
</g>
<!-- Node5&#45;&gt;Node3 -->
<g id="edge4" class="edge"><title>Node5&#45;&gt;Node3</title>
<path fill="none" stroke="#9a32cd" stroke-dasharray="5,2" d="M128.709,-150.252C171.827,-144.698 233.886,-136.4 288,-128 299.232,-126.256 311.265,-124.247 322.664,-122.277"/>
<polygon fill="#9a32cd" stroke="#9a32cd" points="128.192,-146.789 118.719,-151.533 129.083,-153.732 128.192,-146.789"/>
<text text-anchor="middle" x="227" y="-148" font-family="Helvetica,sans-Serif" font-size="10.00"> m_freeParticleBufferIndices</text>
</g>
<!-- Node6 -->
<g id="node6" class="node"><title>Node6</title>
<polygon fill="white" stroke="#bfbfbf" points="10,-98 10,-128 138,-128 138,-98 10,-98"/>
<text text-anchor="start" x="18" y="-116" font-family="Helvetica,sans-Serif" font-size="10.00">std::vector&lt; VoxelParticle</text>
<text text-anchor="middle" x="74" y="-105" font-family="Helvetica,sans-Serif" font-size="10.00">Data &gt;</text>
</g>
<!-- Node6&#45;&gt;Node3 -->
<g id="edge5" class="edge"><title>Node6&#45;&gt;Node3</title>
<path fill="none" stroke="#9a32cd" stroke-dasharray="5,2" d="M148.285,-113C202.482,-113 274.921,-113 322.951,-113"/>
<polygon fill="#9a32cd" stroke="#9a32cd" points="148.045,-109.5 138.045,-113 148.045,-116.5 148.045,-109.5"/>
<text text-anchor="middle" x="227" y="-116" font-family="Helvetica,sans-Serif" font-size="10.00"> m_cpuParticleBuffer</text>
</g>
<!-- Node7 -->
<g id="node7" class="node"><title>Node7</title>
<polygon fill="white" stroke="#bfbfbf" points="0,-49 0,-79 148,-79 148,-49 0,-49"/>
<text text-anchor="start" x="8" y="-67" font-family="Helvetica,sans-Serif" font-size="10.00">std::unique_ptr&lt; VoxelParticle</text>
<text text-anchor="middle" x="74" y="-56" font-family="Helvetica,sans-Serif" font-size="10.00">Renderer &gt;</text>
</g>
<!-- Node7&#45;&gt;Node3 -->
<g id="edge6" class="edge"><title>Node7&#45;&gt;Node3</title>
<path fill="none" stroke="#9a32cd" stroke-dasharray="5,2" d="M158.552,-77.052C197.857,-83.265 245.358,-90.8782 288,-98 299.212,-99.8725 311.235,-101.935 322.633,-103.916"/>
<polygon fill="#9a32cd" stroke="#9a32cd" points="158.906,-73.5647 148.483,-75.4626 157.815,-80.4791 158.906,-73.5647"/>
<text text-anchor="middle" x="227" y="-101" font-family="Helvetica,sans-Serif" font-size="10.00"> m_renderer</text>
</g>
<!-- Node8 -->
<g id="node8" class="node"><title>Node8</title>
<polygon fill="white" stroke="#bfbfbf" points="0,-0 0,-30 148,-30 148,-0 0,-0"/>
<text text-anchor="start" x="8" y="-18" font-family="Helvetica,sans-Serif" font-size="10.00">std::unique_ptr&lt; VoxelParticle</text>
<text text-anchor="middle" x="74" y="-7" font-family="Helvetica,sans-Serif" font-size="10.00">Remover &gt;</text>
</g>
<!-- Node8&#45;&gt;Node3 -->
<g id="edge7" class="edge"><title>Node8&#45;&gt;Node3</title>
<path fill="none" stroke="#9a32cd" stroke-dasharray="5,2" d="M158.063,-28.2696C198.153,-36.1342 246.45,-47.7886 288,-64 314.894,-74.4934 343.527,-92.3168 360.034,-103.33"/>
<polygon fill="#9a32cd" stroke="#9a32cd" points="158.536,-24.7968 148.056,-26.3514 157.218,-31.6716 158.536,-24.7968"/>
<text text-anchor="middle" x="227" y="-67" font-family="Helvetica,sans-Serif" font-size="10.00"> m_remover</text>
</g>
</g>
</svg>
