<?xml version="1.0" encoding="UTF-8" standalone="no"?>
<!DOCTYPE svg PUBLIC "-//W3C//DTD SVG 1.1//EN"
 "http://www.w3.org/Graphics/SVG/1.1/DTD/svg11.dtd">
<!-- Generated by graphviz version 2.36.0 (20140111.2315)
 -->
<!-- Title: ScriptEngine Pages: 1 -->
<svg width="829pt" height="571pt"
 viewBox="0.00 0.00 828.50 571.00" xmlns="http://www.w3.org/2000/svg" xmlns:xlink="http://www.w3.org/1999/xlink">
<g id="graph0" class="graph" transform="scale(1 1) rotate(0) translate(4 567)">
<title>ScriptEngine</title>
<polygon fill="white" stroke="none" points="-4,4 -4,-567 824.5,-567 824.5,4 -4,4"/>
<!-- Node1 -->
<g id="node1" class="node"><title>Node1</title>
<polygon fill="#bfbfbf" stroke="black" points="372,-33.5 372,-52.5 444,-52.5 444,-33.5 372,-33.5"/>
<text text-anchor="middle" x="408" y="-40.5" font-family="Helvetica,sans-Serif" font-size="10.00">ScriptEngine</text>
</g>
<!-- Node13 -->
<g id="node13" class="node"><title>Node13</title>
<polygon fill="white" stroke="#bfbfbf" points="496.5,-56.5 496.5,-75.5 651.5,-75.5 651.5,-56.5 496.5,-56.5"/>
<text text-anchor="middle" x="574" y="-63.5" font-family="Helvetica,sans-Serif" font-size="10.00">std::unique_ptr&lt; ScriptEngine &gt;</text>
</g>
<!-- Node1&#45;&gt;Node13 -->
<g id="edge13" class="edge"><title>Node1&#45;&gt;Node13</title>
<path fill="none" stroke="#9a32cd" stroke-dasharray="5,2" d="M454.166,-49.3343C469.911,-51.5424 487.942,-54.0712 505.121,-56.4804"/>
<polygon fill="#9a32cd" stroke="#9a32cd" points="454.571,-45.8569 444.182,-47.9341 453.599,-52.7891 454.571,-45.8569"/>
<text text-anchor="middle" x="470" y="-56" font-family="Helvetica,sans-Serif" font-size="10.00"> ptr</text>
</g>
<!-- Node2 -->
<g id="node2" class="node"><title>Node2</title>
<polygon fill="white" stroke="#bfbfbf" points="140.5,-49 140.5,-79 271.5,-79 271.5,-49 140.5,-49"/>
<text text-anchor="start" x="148.5" y="-67" font-family="Helvetica,sans-Serif" font-size="10.00">std::list&lt; std::shared</text>
<text text-anchor="middle" x="206" y="-56" font-family="Helvetica,sans-Serif" font-size="10.00">_ptr&lt; GamePlayScript &gt; &gt;</text>
</g>
<!-- Node2&#45;&gt;Node1 -->
<g id="edge1" class="edge"><title>Node2&#45;&gt;Node1</title>
<path fill="none" stroke="#9a32cd" stroke-dasharray="5,2" d="M281.979,-56.1272C312.852,-52.8855 347.126,-49.2868 371.968,-46.6784"/>
<polygon fill="#9a32cd" stroke="#9a32cd" points="281.238,-52.6857 271.658,-57.2109 281.969,-59.6474 281.238,-52.6857"/>
<text text-anchor="middle" x="322" y="-58" font-family="Helvetica,sans-Serif" font-size="10.00"> m_scripts</text>
</g>
<!-- Node3 -->
<g id="node3" class="node"><title>Node3</title>
<polygon fill="white" stroke="#bfbfbf" points="154.5,-0 154.5,-30 257.5,-30 257.5,-0 154.5,-0"/>
<text text-anchor="start" x="162.5" y="-18" font-family="Helvetica,sans-Serif" font-size="10.00">std::unordered_map</text>
<text text-anchor="middle" x="206" y="-7" font-family="Helvetica,sans-Serif" font-size="10.00">&lt; int, Scriptable * &gt;</text>
</g>
<!-- Node3&#45;&gt;Node1 -->
<g id="edge2" class="edge"><title>Node3&#45;&gt;Node1</title>
<path fill="none" stroke="#9a32cd" stroke-dasharray="5,2" d="M268.016,-22.3361C294.479,-25.66 325.803,-29.7853 354,-34 359.815,-34.8692 365.978,-35.8557 371.965,-36.849"/>
<polygon fill="#9a32cd" stroke="#9a32cd" points="268.109,-18.8207 257.753,-21.0564 267.243,-25.7669 268.109,-18.8207"/>
<text text-anchor="middle" x="322" y="-37" font-family="Helvetica,sans-Serif" font-size="10.00"> m_scriptables</text>
</g>
<!-- Node4 -->
<g id="node4" class="node"><title>Node4</title>
<g id="a_node4"><a xlink:href="class_scriptable.html" target="_top" xlink:title="Scriptable">
<polygon fill="white" stroke="black" points="0,-5.5 0,-24.5 60,-24.5 60,-5.5 0,-5.5"/>
<text text-anchor="middle" x="30" y="-12.5" font-family="Helvetica,sans-Serif" font-size="10.00">Scriptable</text>
</a>
</g>
</g>
<!-- Node4&#45;&gt;Node3 -->
<g id="edge3" class="edge"><title>Node4&#45;&gt;Node3</title>
<path fill="none" stroke="#9a32cd" stroke-dasharray="5,2" d="M70.2748,-15C95.1244,-15 127.497,-15 154.28,-15"/>
<polygon fill="#9a32cd" stroke="#9a32cd" points="70.1237,-11.5001 60.1237,-15 70.1237,-18.5001 70.1237,-11.5001"/>
<text text-anchor="middle" x="100" y="-18" font-family="Helvetica,sans-Serif" font-size="10.00"> elements</text>
</g>
<!-- Node5 -->
<g id="node5" class="node"><title>Node5</title>
<g id="a_node5"><a xlink:href="class_world.html" target="_top" xlink:title="World">
<polygon fill="white" stroke="black" points="774,-275.5 774,-294.5 816,-294.5 816,-275.5 774,-275.5"/>
<text text-anchor="middle" x="795" y="-282.5" font-family="Helvetica,sans-Serif" font-size="10.00">World</text>
</a>
</g>
</g>
<!-- Node5&#45;&gt;Node1 -->
<g id="edge4" class="edge"><title>Node5&#45;&gt;Node1</title>
<path fill="none" stroke="#9a32cd" stroke-dasharray="5,2" d="M793.609,-264.934C792.187,-214.185 785.658,-82.6481 756,-53 668.836,34.1356 499.5,-11.5603 434.897,-33.4721"/>
<polygon fill="#9a32cd" stroke="#9a32cd" points="790.118,-265.323 793.857,-275.236 797.116,-265.155 790.118,-265.323"/>
<text text-anchor="middle" x="574" y="-19" font-family="Helvetica,sans-Serif" font-size="10.00"> m_world</text>
</g>
<!-- Node5&#45;&gt;Node5 -->
<g id="edge17" class="edge"><title>Node5&#45;&gt;Node5</title>
<path fill="none" stroke="#9a32cd" stroke-dasharray="5,2" d="M779.899,-304.766C781.085,-309.497 786.119,-313 795,-313 809.574,-313 813.787,-303.565 807.639,-294.757"/>
<polygon fill="#9a32cd" stroke="#9a32cd" points="783.371,-305.304 782.361,-294.757 776.574,-303.631 783.371,-305.304"/>
<text text-anchor="middle" x="795" y="-316" font-family="Helvetica,sans-Serif" font-size="10.00"> s_instance</text>
</g>
<!-- Node6 -->
<g id="node6" class="node"><title>Node6</title>
<polygon fill="white" stroke="#bfbfbf" points="502.5,-533.5 502.5,-552.5 645.5,-552.5 645.5,-533.5 502.5,-533.5"/>
<text text-anchor="middle" x="574" y="-540.5" font-family="Helvetica,sans-Serif" font-size="10.00">std::unique_ptr&lt; WorldTree &gt;</text>
</g>
<!-- Node6&#45;&gt;Node5 -->
<g id="edge5" class="edge"><title>Node6&#45;&gt;Node5</title>
<path fill="none" stroke="#9a32cd" stroke-dasharray="5,2" d="M644.442,-553.101C682.218,-554.509 727.016,-548.884 756,-521 789.197,-489.063 793.394,-335.041 793.924,-294.693"/>
<polygon fill="#9a32cd" stroke="#9a32cd" points="644.169,-549.581 633.993,-552.53 643.787,-556.57 644.169,-549.581"/>
<text text-anchor="middle" x="713" y="-555" font-family="Helvetica,sans-Serif" font-size="10.00"> m_worldTree</text>
</g>
<!-- Node7 -->
<g id="node7" class="node"><title>Node7</title>
<polygon fill="white" stroke="#bfbfbf" points="525,-484 525,-514 623,-514 623,-484 525,-484"/>
<text text-anchor="start" x="533" y="-502" font-family="Helvetica,sans-Serif" font-size="10.00">std::unordered_set</text>
<text text-anchor="middle" x="574" y="-491" font-family="Helvetica,sans-Serif" font-size="10.00">&lt; WorldObject * &gt;</text>
</g>
<!-- Node7&#45;&gt;Node5 -->
<g id="edge6" class="edge"><title>Node7&#45;&gt;Node5</title>
<path fill="none" stroke="#9a32cd" stroke-dasharray="5,2" d="M633.369,-507.774C672.934,-510.248 723.71,-506.105 756,-476 782.954,-450.869 791.558,-330.034 793.518,-294.715"/>
<polygon fill="#9a32cd" stroke="#9a32cd" points="633.553,-504.278 623.311,-506.991 633.009,-511.257 633.553,-504.278"/>
<text text-anchor="middle" x="713" y="-510" font-family="Helvetica,sans-Serif" font-size="10.00"> m_worldObjects</text>
</g>
<!-- Node8 -->
<g id="node8" class="node"><title>Node8</title>
<polygon fill="white" stroke="#bfbfbf" points="510.5,-445.5 510.5,-464.5 637.5,-464.5 637.5,-445.5 510.5,-445.5"/>
<text text-anchor="middle" x="574" y="-452.5" font-family="Helvetica,sans-Serif" font-size="10.00">std::unique_ptr&lt; Player &gt;</text>
</g>
<!-- Node8&#45;&gt;Node5 -->
<g id="edge7" class="edge"><title>Node8&#45;&gt;Node5</title>
<path fill="none" stroke="#9a32cd" stroke-dasharray="5,2" d="M648.042,-462.737C684.572,-462.574 727.048,-455.695 756,-430 776.632,-411.689 789.152,-324.266 792.847,-294.755"/>
<polygon fill="#9a32cd" stroke="#9a32cd" points="647.955,-459.236 637.913,-462.615 647.87,-466.236 647.955,-459.236"/>
<text text-anchor="middle" x="713" y="-464" font-family="Helvetica,sans-Serif" font-size="10.00"> m_player</text>
</g>
<!-- Node9 -->
<g id="node9" class="node"><title>Node9</title>
<polygon fill="white" stroke="#bfbfbf" points="500,-407.5 500,-426.5 648,-426.5 648,-407.5 500,-407.5"/>
<text text-anchor="middle" x="574" y="-414.5" font-family="Helvetica,sans-Serif" font-size="10.00">std::unique_ptr&lt; WorldLogic &gt;</text>
</g>
<!-- Node9&#45;&gt;Node5 -->
<g id="edge8" class="edge"><title>Node9&#45;&gt;Node5</title>
<path fill="none" stroke="#9a32cd" stroke-dasharray="5,2" d="M658.36,-416.656C691.931,-412.569 729.009,-402.549 756,-380 782.719,-357.678 790.8,-313.849 793.119,-294.531"/>
<polygon fill="#9a32cd" stroke="#9a32cd" points="657.647,-413.212 648.069,-417.742 658.381,-420.174 657.647,-413.212"/>
<text text-anchor="middle" x="713" y="-418" font-family="Helvetica,sans-Serif" font-size="10.00"> m_worldLogic</text>
</g>
<!-- Node10 -->
<g id="node10" class="node"><title>Node10</title>
<polygon fill="white" stroke="#bfbfbf" points="525,-358 525,-388 623,-388 623,-358 525,-358"/>
<text text-anchor="start" x="533" y="-376" font-family="Helvetica,sans-Serif" font-size="10.00">std::unordered_set</text>
<text text-anchor="middle" x="574" y="-365" font-family="Helvetica,sans-Serif" font-size="10.00">&lt; Ship * &gt;</text>
</g>
<!-- Node10&#45;&gt;Node5 -->
<g id="edge9" class="edge"><title>Node10&#45;&gt;Node5</title>
<path fill="none" stroke="#9a32cd" stroke-dasharray="5,2" d="M633.549,-370.073C670.98,-365.89 719.223,-356.023 756,-333 771.135,-323.525 782.771,-305.814 788.982,-294.757"/>
<polygon fill="#9a32cd" stroke="#9a32cd" points="632.895,-366.621 623.297,-371.108 633.598,-373.586 632.895,-366.621"/>
<text text-anchor="middle" x="713" y="-368" font-family="Helvetica,sans-Serif" font-size="10.00"> m_ships</text>
</g>
<!-- Node11 -->
<g id="node11" class="node"><title>Node11</title>
<polygon fill="white" stroke="#bfbfbf" points="508,-319.5 508,-338.5 640,-338.5 640,-319.5 508,-319.5"/>
<text text-anchor="middle" x="574" y="-326.5" font-family="Helvetica,sans-Serif" font-size="10.00">std::unique_ptr&lt; Skybox &gt;</text>
</g>
<!-- Node11&#45;&gt;Node5 -->
<g id="edge10" class="edge"><title>Node11&#45;&gt;Node5</title>
<path fill="none" stroke="#9a32cd" stroke-dasharray="5,2" d="M650.219,-320.67C683.051,-316.083 721.787,-309.374 756,-300 761.883,-298.388 768.102,-296.167 773.767,-293.927"/>
<polygon fill="#9a32cd" stroke="#9a32cd" points="649.668,-317.213 640.23,-322.026 650.61,-324.149 649.668,-317.213"/>
<text text-anchor="middle" x="713" y="-321" font-family="Helvetica,sans-Serif" font-size="10.00"> m_skybox</text>
</g>
<!-- Node12 -->
<g id="node12" class="node"><title>Node12</title>
<polygon fill="white" stroke="#bfbfbf" points="500,-270 500,-300 648,-300 648,-270 500,-270"/>
<text text-anchor="start" x="508" y="-288" font-family="Helvetica,sans-Serif" font-size="10.00">std::unique_ptr&lt; VoxelParticle</text>
<text text-anchor="middle" x="574" y="-277" font-family="Helvetica,sans-Serif" font-size="10.00">Engine &gt;</text>
</g>
<!-- Node12&#45;&gt;Node5 -->
<g id="edge11" class="edge"><title>Node12&#45;&gt;Node5</title>
<path fill="none" stroke="#9a32cd" stroke-dasharray="5,2" d="M658.484,-285C700.453,-285 747.834,-285 773.977,-285"/>
<polygon fill="#9a32cd" stroke="#9a32cd" points="658.228,-281.5 648.228,-285 658.228,-288.5 658.228,-281.5"/>
<text text-anchor="middle" x="713" y="-288" font-family="Helvetica,sans-Serif" font-size="10.00"> m_particleEngine</text>
</g>
<!-- Node13&#45;&gt;Node5 -->
<g id="edge12" class="edge"><title>Node13&#45;&gt;Node5</title>
<path fill="none" stroke="#9a32cd" stroke-dasharray="5,2" d="M648.621,-56.122C685.309,-55.4249 727.752,-61.653 756,-88 783.892,-114.015 791.872,-239.69 793.596,-275.474"/>
<polygon fill="#9a32cd" stroke="#9a32cd" points="648.309,-52.6309 638.442,-56.4913 648.562,-59.6263 648.309,-52.6309"/>
<text text-anchor="middle" x="713" y="-91" font-family="Helvetica,sans-Serif" font-size="10.00"> m_scriptEngine</text>
</g>
<!-- Node14 -->
<g id="node14" class="node"><title>Node14</title>
<polygon fill="white" stroke="#bfbfbf" points="513,-221 513,-251 635,-251 635,-221 513,-221"/>
<text text-anchor="start" x="521" y="-239" font-family="Helvetica,sans-Serif" font-size="10.00">std::unique_ptr&lt; Faction</text>
<text text-anchor="middle" x="574" y="-228" font-family="Helvetica,sans-Serif" font-size="10.00">Matrix &gt;</text>
</g>
<!-- Node14&#45;&gt;Node5 -->
<g id="edge14" class="edge"><title>Node14&#45;&gt;Node5</title>
<path fill="none" stroke="#9a32cd" stroke-dasharray="5,2" d="M645.429,-246.03C679.227,-251.652 720.086,-259.641 756,-270 761.861,-271.69 768.072,-273.938 773.737,-276.177"/>
<polygon fill="#9a32cd" stroke="#9a32cd" points="645.612,-242.514 635.18,-244.361 644.487,-249.423 645.612,-242.514"/>
<text text-anchor="middle" x="713" y="-273" font-family="Helvetica,sans-Serif" font-size="10.00"> m_factionMatrix</text>
</g>
<!-- Node15 -->
<g id="node15" class="node"><title>Node15</title>
<polygon fill="white" stroke="#bfbfbf" points="515.5,-182.5 515.5,-201.5 632.5,-201.5 632.5,-182.5 515.5,-182.5"/>
<text text-anchor="middle" x="574" y="-189.5" font-family="Helvetica,sans-Serif" font-size="10.00">std::unique_ptr&lt; God &gt;</text>
</g>
<!-- Node15&#45;&gt;Node5 -->
<g id="edge15" class="edge"><title>Node15&#45;&gt;Node5</title>
<path fill="none" stroke="#9a32cd" stroke-dasharray="5,2" d="M642.625,-197.6C678.607,-203.138 722.26,-214.143 756,-236 771.36,-245.95 783.077,-264.293 789.216,-275.494"/>
<polygon fill="#9a32cd" stroke="#9a32cd" points="643.09,-194.131 632.695,-196.178 642.098,-201.06 643.09,-194.131"/>
<text text-anchor="middle" x="713" y="-239" font-family="Helvetica,sans-Serif" font-size="10.00"> m_god</text>
</g>
<!-- Node16 -->
<g id="node16" class="node"><title>Node16</title>
<polygon fill="white" stroke="#bfbfbf" points="512,-133 512,-163 636,-163 636,-133 512,-133"/>
<text text-anchor="start" x="520" y="-151" font-family="Helvetica,sans-Serif" font-size="10.00">std::unique_ptr&lt; Mission</text>
<text text-anchor="middle" x="574" y="-140" font-family="Helvetica,sans-Serif" font-size="10.00">System &gt;</text>
</g>
<!-- Node16&#45;&gt;Node5 -->
<g id="edge16" class="edge"><title>Node16&#45;&gt;Node5</title>
<path fill="none" stroke="#9a32cd" stroke-dasharray="5,2" d="M646.481,-148.83C682.984,-152.756 725.917,-163.23 756,-189 782.682,-211.856 790.782,-255.987 793.113,-275.418"/>
<polygon fill="#9a32cd" stroke="#9a32cd" points="646.654,-145.331 636.372,-147.888 646.005,-152.3 646.654,-145.331"/>
<text text-anchor="middle" x="713" y="-192" font-family="Helvetica,sans-Serif" font-size="10.00"> m_missionSystem</text>
</g>
<!-- Node17 -->
<g id="node17" class="node"><title>Node17</title>
<polygon fill="white" stroke="#bfbfbf" points="500,-94.5 500,-113.5 648,-113.5 648,-94.5 500,-94.5"/>
<text text-anchor="middle" x="574" y="-101.5" font-family="Helvetica,sans-Serif" font-size="10.00">std::unique_ptr&lt; EventPoller &gt;</text>
</g>
<!-- Node17&#45;&gt;Node5 -->
<g id="edge18" class="edge"><title>Node17&#45;&gt;Node5</title>
<path fill="none" stroke="#9a32cd" stroke-dasharray="5,2" d="M658.435,-101.037C692.576,-104.145 730.066,-113.754 756,-138 776.411,-157.082 789.076,-245.371 792.827,-275.156"/>
<polygon fill="#9a32cd" stroke="#9a32cd" points="658.668,-97.5443 648.437,-100.298 658.152,-104.525 658.668,-97.5443"/>
<text text-anchor="middle" x="713" y="-141" font-family="Helvetica,sans-Serif" font-size="10.00"> m_eventPoller</text>
</g>
</g>
</svg>
