<?xml version="1.0" encoding="UTF-8" standalone="no"?>
<!DOCTYPE svg PUBLIC "-//W3C//DTD SVG 1.1//EN"
 "http://www.w3.org/Graphics/SVG/1.1/DTD/svg11.dtd">
<!-- Generated by graphviz version 2.36.0 (20140111.2315)
 -->
<!-- Title: VoxelParticleRemover Pages: 1 -->
<!--zoomable 243 -->
<svg id="main" version="1.1" xmlns="http://www.w3.org/2000/svg" xmlns:xlink="http://www.w3.org/1999/xlink" xml:space="preserve" onload="init(evt)">
<style type="text/css"><![CDATA[
.edge:hover path { stroke: red; }
.edge:hover polygon { stroke: red; fill: red; }
]]></style>
<script type="text/javascript"><![CDATA[
var edges = document.getElementsByTagName('g');
if (edges && edges.length) {
  for (var i=0;i<edges.length;i++) {
    if (edges[i].id.substr(0,4)=='edge') {
      edges[i].setAttribute('class','edge');
    }
  }
}
]]></script>
        <defs>
                <circle id="rim" cx="0" cy="0" r="7"/>
                <circle id="rim2" cx="0" cy="0" r="3.5"/>
                <g id="zoomPlus">
                        <use xlink:href="#rim" fill="#404040">
                                <set attributeName="fill" to="#808080" begin="zoomplus.mouseover" end="zoomplus.mouseout"/>
                        </use>
                        <path d="M-4,0h8M0,-4v8" fill="none" stroke="white" stroke-width="1.5" pointer-events="none"/>
                </g>
                <g id="zoomMin">
                        <use xlink:href="#rim" fill="#404040">
                                <set attributeName="fill" to="#808080" begin="zoomminus.mouseover" end="zoomminus.mouseout"/>
                        </use>
                        <path d="M-4,0h8" fill="none" stroke="white" stroke-width="1.5" pointer-events="none"/>
                </g>
                <g id="dirArrow">
                        <path fill="none" stroke="white" stroke-width="1.5" d="M0,-3.0v7 M-2.5,-0.5L0,-3.0L2.5,-0.5"/>
                </g>
               <g id="resetDef">
                       <use xlink:href="#rim2" fill="#404040">
                               <set attributeName="fill" to="#808080" begin="reset.mouseover" end="reset.mouseout"/>
                       </use>
               </g>
        </defs>

<script type="text/javascript">
var viewWidth = 1300;
var viewHeight = 243;
var sectionId = 'dynsection-0';
</script>
<script xlink:href="svgpan.js"/>
<svg id="graph" class="graph">
<g id="viewport">
<title>VoxelParticleRemover</title>
<polygon fill="white" stroke="none" points="-4,4 -4,-239 1296,-239 1296,4 -4,4"/>
<!-- Node1 -->
<g id="node1" class="node"><title>Node1</title>
<polygon fill="#bfbfbf" stroke="black" points="718,-83.5 718,-102.5 830,-102.5 830,-83.5 718,-83.5"/>
<text text-anchor="middle" x="774" y="-90.5" font-family="Helvetica,sans-Serif" font-size="10.00">VoxelParticleRemover</text>
</g>
<!-- Node6 -->
<g id="node6" class="node"><title>Node6</title>
<polygon fill="white" stroke="#bfbfbf" points="882,-124 882,-154 1030,-154 1030,-124 882,-124"/>
<text text-anchor="start" x="890" y="-142" font-family="Helvetica,sans-Serif" font-size="10.00">std::unique_ptr&lt; VoxelParticle</text>
<text text-anchor="middle" x="956" y="-131" font-family="Helvetica,sans-Serif" font-size="10.00">Remover &gt;</text>
</g>
<!-- Node1&#45;&gt;Node6 -->
<g id="edge6" class="edge"><title>Node1&#45;&gt;Node6</title>
<path fill="none" stroke="#9a32cd" stroke-dasharray="5,2" d="M822.019,-105.016C844.684,-110.808 872.1,-117.815 896.137,-123.957"/>
<polygon fill="#9a32cd" stroke="#9a32cd" points="822.851,-101.616 812.296,-102.531 821.118,-108.398 822.851,-101.616"/>
<text text-anchor="middle" x="856" y="-117" font-family="Helvetica,sans-Serif" font-size="10.00"> ptr</text>
</g>
<!-- Node2 -->
<g id="node2" class="node"><title>Node2</title>
<g id="a_node2"><a xlink:href="class_voxel_particle_engine.html" target="_top" xlink:title="VoxelParticleEngine">
<polygon fill="white" stroke="black" points="1188,-129.5 1188,-148.5 1292,-148.5 1292,-129.5 1188,-129.5"/>
<text text-anchor="middle" x="1240" y="-136.5" font-family="Helvetica,sans-Serif" font-size="10.00">VoxelParticleEngine</text>
</a>
</g>
</g>
<!-- Node2&#45;&gt;Node1 -->
<g id="edge1" class="edge"><title>Node2&#45;&gt;Node1</title>
<path fill="none" stroke="#9a32cd" stroke-dasharray="5,2" d="M1182.32,-127.57C1140.42,-119.595 1081.89,-109.443 1030,-104 961.361,-96.7998 881.854,-94.2891 830.109,-93.4269"/>
<polygon fill="#9a32cd" stroke="#9a32cd" points="1181.85,-131.043 1192.33,-129.494 1183.17,-124.169 1181.85,-131.043"/>
<text text-anchor="middle" x="956" y="-107" font-family="Helvetica,sans-Serif" font-size="10.00"> m_particleEngine</text>
</g>
<!-- Node3 -->
<g id="node3" class="node"><title>Node3</title>
<polygon fill="white" stroke="#bfbfbf" points="911.5,-213.5 911.5,-232.5 1000.5,-232.5 1000.5,-213.5 911.5,-213.5"/>
<text text-anchor="middle" x="956" y="-220.5" font-family="Helvetica,sans-Serif" font-size="10.00">std::stack&lt; int &gt;</text>
</g>
<!-- Node3&#45;&gt;Node2 -->
<g id="edge2" class="edge"><title>Node3&#45;&gt;Node2</title>
<path fill="none" stroke="#9a32cd" stroke-dasharray="5,2" d="M1010.59,-225.615C1055.1,-225.797 1119.11,-221.358 1170,-199 1196.16,-187.506 1219.65,-162.512 1231.28,-148.685"/>
<polygon fill="#9a32cd" stroke="#9a32cd" points="1010.61,-222.115 1000.57,-225.494 1010.52,-229.114 1010.61,-222.115"/>
<text text-anchor="middle" x="1109" y="-227" font-family="Helvetica,sans-Serif" font-size="10.00"> m_freeParticleBufferIndices</text>
</g>
<!-- Node4 -->
<g id="node4" class="node"><title>Node4</title>
<polygon fill="white" stroke="#bfbfbf" points="0,-152 0,-182 128,-182 128,-152 0,-152"/>
<text text-anchor="start" x="8" y="-170" font-family="Helvetica,sans-Serif" font-size="10.00">std::vector&lt; VoxelParticle</text>
<text text-anchor="middle" x="64" y="-159" font-family="Helvetica,sans-Serif" font-size="10.00">Data &gt;</text>
</g>
<!-- Node4&#45;&gt;Node2 -->
<g id="edge3" class="edge"><title>Node4&#45;&gt;Node2</title>
<path fill="none" stroke="#9a32cd" stroke-dasharray="5,2" d="M138.459,-176.547C177.715,-180.858 226.911,-185 271,-185 271,-185 271,-185 957,-185 1046.79,-185 1150.58,-162.005 1203.69,-148.531"/>
<polygon fill="#9a32cd" stroke="#9a32cd" points="138.772,-173.06 128.443,-175.42 137.989,-180.016 138.772,-173.06"/>
<text text-anchor="middle" x="654" y="-188" font-family="Helvetica,sans-Serif" font-size="10.00"> m_cpuParticleBuffer</text>
</g>
<!-- Node9 -->
<g id="node9" class="node"><title>Node9</title>
<g id="a_node9"><a xlink:href="class_thread_pool.html" target="_top" xlink:title="ThreadPool\&lt; VoxelParticle\lData \&gt;">
<polygon fill="white" stroke="red" points="206,-126 206,-156 338,-156 338,-126 206,-126"/>
<text text-anchor="start" x="214" y="-144" font-family="Helvetica,sans-Serif" font-size="10.00">ThreadPool&lt; VoxelParticle</text>
<text text-anchor="middle" x="272" y="-133" font-family="Helvetica,sans-Serif" font-size="10.00">Data &gt;</text>
</a>
</g>
</g>
<!-- Node4&#45;&gt;Node9 -->
<g id="edge10" class="edge"><title>Node4&#45;&gt;Node9</title>
<path fill="none" stroke="#9a32cd" stroke-dasharray="5,2" d="M138.181,-157.764C160.232,-154.98 184.279,-151.945 205.776,-149.232"/>
<polygon fill="#9a32cd" stroke="#9a32cd" points="137.69,-154.298 128.207,-159.022 138.566,-161.243 137.69,-154.298"/>
<text text-anchor="middle" x="167" y="-159" font-family="Helvetica,sans-Serif" font-size="10.00"> m_tasks</text>
</g>
<!-- Node5 -->
<g id="node5" class="node"><title>Node5</title>
<polygon fill="white" stroke="#bfbfbf" points="882,-27 882,-57 1030,-57 1030,-27 882,-27"/>
<text text-anchor="start" x="890" y="-45" font-family="Helvetica,sans-Serif" font-size="10.00">std::unique_ptr&lt; VoxelParticle</text>
<text text-anchor="middle" x="956" y="-34" font-family="Helvetica,sans-Serif" font-size="10.00">Renderer &gt;</text>
</g>
<!-- Node5&#45;&gt;Node2 -->
<g id="edge4" class="edge"><title>Node5&#45;&gt;Node2</title>
<path fill="none" stroke="#9a32cd" stroke-dasharray="5,2" d="M1040.63,-40.0289C1081.48,-42.1264 1130.27,-49.3468 1170,-69 1198.45,-83.072 1221.98,-113.648 1232.73,-129.317"/>
<polygon fill="#9a32cd" stroke="#9a32cd" points="1040.57,-36.5232 1030.43,-39.6016 1040.27,-43.517 1040.57,-36.5232"/>
<text text-anchor="middle" x="1109" y="-72" font-family="Helvetica,sans-Serif" font-size="10.00"> m_renderer</text>
</g>
<!-- Node6&#45;&gt;Node2 -->
<g id="edge5" class="edge"><title>Node6&#45;&gt;Node2</title>
<path fill="none" stroke="#9a32cd" stroke-dasharray="5,2" d="M1040.39,-139C1088.21,-139 1146.72,-139 1187.8,-139"/>
<polygon fill="#9a32cd" stroke="#9a32cd" points="1040.36,-135.5 1030.36,-139 1040.36,-142.5 1040.36,-135.5"/>
<text text-anchor="middle" x="1109" y="-142" font-family="Helvetica,sans-Serif" font-size="10.00"> m_remover</text>
</g>
<!-- Node7 -->
<g id="node7" class="node"><title>Node7</title>
<polygon fill="white" stroke="#bfbfbf" points="410,-77 410,-107 590,-107 590,-77 410,-77"/>
<text text-anchor="start" x="418" y="-95" font-family="Helvetica,sans-Serif" font-size="10.00">std::vector&lt; std::shared</text>
<text text-anchor="middle" x="500" y="-84" font-family="Helvetica,sans-Serif" font-size="10.00">_ptr&lt; VoxelParticleRemoveCheck &gt; &gt;</text>
</g>
<!-- Node7&#45;&gt;Node1 -->
<g id="edge7" class="edge"><title>Node7&#45;&gt;Node1</title>
<path fill="none" stroke="#9a32cd" stroke-dasharray="5,2" d="M600.309,-92.3651C639.973,-92.5109 684.138,-92.6733 717.875,-92.7973"/>
<polygon fill="#9a32cd" stroke="#9a32cd" points="600.076,-88.8643 590.063,-92.3274 600.05,-95.8643 600.076,-88.8643"/>
<text text-anchor="middle" x="654" y="-95" font-family="Helvetica,sans-Serif" font-size="10.00"> m_checker</text>
</g>
<!-- Node8 -->
<g id="node8" class="node"><title>Node8</title>
<polygon fill="white" stroke="#bfbfbf" points="430.5,-126 430.5,-156 569.5,-156 569.5,-126 430.5,-126"/>
<text text-anchor="start" x="438.5" y="-144" font-family="Helvetica,sans-Serif" font-size="10.00">std::unique_ptr&lt; ThreadPool</text>
<text text-anchor="middle" x="500" y="-133" font-family="Helvetica,sans-Serif" font-size="10.00">&lt; VoxelParticleData &gt; &gt;</text>
</g>
<!-- Node8&#45;&gt;Node1 -->
<g id="edge8" class="edge"><title>Node8&#45;&gt;Node1</title>
<path fill="none" stroke="#9a32cd" stroke-dasharray="5,2" d="M579.785,-127.917C616.373,-121.744 660.438,-114.172 700,-107 707.746,-105.596 715.945,-104.066 723.941,-102.55"/>
<polygon fill="#9a32cd" stroke="#9a32cd" points="578.953,-124.507 569.673,-129.619 580.116,-131.41 578.953,-124.507"/>
<text text-anchor="middle" x="654" y="-125" font-family="Helvetica,sans-Serif" font-size="10.00"> m_threadPool</text>
</g>
<!-- Node9&#45;&gt;Node8 -->
<g id="edge9" class="edge"><title>Node9&#45;&gt;Node8</title>
<path fill="none" stroke="#9a32cd" stroke-dasharray="5,2" d="M348.087,-141C374.679,-141 404.439,-141 430.458,-141"/>
<polygon fill="#9a32cd" stroke="#9a32cd" points="348.065,-137.5 338.065,-141 348.065,-144.5 348.065,-137.5"/>
<text text-anchor="middle" x="374" y="-144" font-family="Helvetica,sans-Serif" font-size="10.00"> ptr</text>
</g>
<!-- Node10 -->
<g id="node10" class="node"><title>Node10</title>
<g id="a_node10"><a xlink:href="class_property.html" target="_top" xlink:title="Property\&lt; float \&gt;">
<polygon fill="white" stroke="black" points="455.5,-38.5 455.5,-57.5 544.5,-57.5 544.5,-38.5 455.5,-38.5"/>
<text text-anchor="middle" x="500" y="-45.5" font-family="Helvetica,sans-Serif" font-size="10.00">Property&lt; float &gt;</text>
</a>
</g>
</g>
<!-- Node10&#45;&gt;Node1 -->
<g id="edge11" class="edge"><title>Node10&#45;&gt;Node1</title>
<path fill="none" stroke="#9a32cd" stroke-dasharray="5,2" d="M554.727,-54.7775C594.87,-60.0962 651.024,-68.0758 700,-77 710.339,-78.8839 721.444,-81.1775 731.794,-83.4329"/>
<polygon fill="#9a32cd" stroke="#9a32cd" points="554.994,-51.2825 544.624,-53.4501 554.083,-58.2229 554.994,-51.2825"/>
<text text-anchor="middle" x="654" y="-80" font-family="Helvetica,sans-Serif" font-size="10.00"> m_interval</text>
</g>
<!-- Node11 -->
<g id="node11" class="node"><title>Node11</title>
<g id="a_node11"><a xlink:href="class_property_impl.html" target="_top" xlink:title="PropertyImpl\&lt; float \&gt;">
<polygon fill="white" stroke="red" points="218.5,-38.5 218.5,-57.5 325.5,-57.5 325.5,-38.5 218.5,-38.5"/>
<text text-anchor="middle" x="272" y="-45.5" font-family="Helvetica,sans-Serif" font-size="10.00">PropertyImpl&lt; float &gt;</text>
</a>
</g>
</g>
<!-- Node11&#45;&gt;Node10 -->
<g id="edge12" class="edge"><title>Node11&#45;&gt;Node10</title>
<path fill="none" stroke="#9a32cd" stroke-dasharray="5,2" d="M336.144,-48C374.119,-48 421.489,-48 455.334,-48"/>
<polygon fill="#9a32cd" stroke="#9a32cd" points="335.702,-44.5001 325.702,-48 335.702,-51.5001 335.702,-44.5001"/>
<text text-anchor="middle" x="374" y="-51" font-family="Helvetica,sans-Serif" font-size="10.00"> m_impl</text>
</g>
<!-- Node12 -->
<g id="node12" class="node"><title>Node12</title>
<g id="a_node12"><a xlink:href="class_property.html" target="_top" xlink:title="Property\&lt; bool \&gt;">
<polygon fill="white" stroke="black" points="455.5,-0.5 455.5,-19.5 544.5,-19.5 544.5,-0.5 455.5,-0.5"/>
<text text-anchor="middle" x="500" y="-7.5" font-family="Helvetica,sans-Serif" font-size="10.00">Property&lt; bool &gt;</text>
</a>
</g>
</g>
<!-- Node12&#45;&gt;Node1 -->
<g id="edge13" class="edge"><title>Node12&#45;&gt;Node1</title>
<path fill="none" stroke="#9a32cd" stroke-dasharray="5,2" d="M554.599,-14.8956C595.509,-19.8909 652.699,-29.6237 700,-48 722.898,-56.8958 746.605,-73.0183 760.565,-83.3563"/>
<polygon fill="#9a32cd" stroke="#9a32cd" points="554.903,-11.4074 544.564,-13.7253 554.092,-18.3603 554.903,-11.4074"/>
<text text-anchor="middle" x="654" y="-51" font-family="Helvetica,sans-Serif" font-size="10.00"> m_multithreaded</text>
</g>
<!-- Node13 -->
<g id="node13" class="node"><title>Node13</title>
<g id="a_node13"><a xlink:href="class_property_impl.html" target="_top" xlink:title="PropertyImpl\&lt; bool \&gt;">
<polygon fill="white" stroke="red" points="218.5,-0.5 218.5,-19.5 325.5,-19.5 325.5,-0.5 218.5,-0.5"/>
<text text-anchor="middle" x="272" y="-7.5" font-family="Helvetica,sans-Serif" font-size="10.00">PropertyImpl&lt; bool &gt;</text>
</a>
</g>
</g>
<!-- Node13&#45;&gt;Node12 -->
<g id="edge14" class="edge"><title>Node13&#45;&gt;Node12</title>
<path fill="none" stroke="#9a32cd" stroke-dasharray="5,2" d="M336.144,-10C374.119,-10 421.489,-10 455.334,-10"/>
<polygon fill="#9a32cd" stroke="#9a32cd" points="335.702,-6.5001 325.702,-10 335.702,-13.5001 335.702,-6.5001"/>
<text text-anchor="middle" x="374" y="-13" font-family="Helvetica,sans-Serif" font-size="10.00"> m_impl</text>
</g>
</g>
</svg>
        <g id="navigator" transform="translate(0 0)" fill="#404254">
                <rect fill="#f2f5e9" fill-opacity="0.5" stroke="#606060" stroke-width=".5" x="0" y="0" width="60" height="60"/>
                <use id="zoomplus" xlink:href="#zoomPlus" x="17" y="9" onmousedown="handleZoom(evt,'in')"/>
                <use id="zoomminus" xlink:href="#zoomMin" x="42" y="9" onmousedown="handleZoom(evt,'out')"/>
                <use id="reset" xlink:href="#resetDef" x="30" y="36" onmousedown="handleReset()"/>
                <g id="arrowUp" xlink:href="#dirArrow" transform="translate(30 24)" onmousedown="handlePan(0,-1)">
                  <use xlink:href="#rim" fill="#404040">
                        <set attributeName="fill" to="#808080" begin="arrowUp.mouseover" end="arrowUp.mouseout"/>
                  </use>
                  <path fill="none" stroke="white" stroke-width="1.5" d="M0,-3.0v7 M-2.5,-0.5L0,-3.0L2.5,-0.5"/>
                </g>
                <g id="arrowRight" xlink:href="#dirArrow" transform="rotate(90) translate(36 -43)" onmousedown="handlePan(1,0)">
                  <use xlink:href="#rim" fill="#404040">
                        <set attributeName="fill" to="#808080" begin="arrowRight.mouseover" end="arrowRight.mouseout"/>
                  </use>
                  <path fill="none" stroke="white" stroke-width="1.5" d="M0,-3.0v7 M-2.5,-0.5L0,-3.0L2.5,-0.5"/>
                </g>
                <g id="arrowDown" xlink:href="#dirArrow" transform="rotate(180) translate(-30 -48)" onmousedown="handlePan(0,1)">
                  <use xlink:href="#rim" fill="#404040">
                        <set attributeName="fill" to="#808080" begin="arrowDown.mouseover" end="arrowDown.mouseout"/>
                  </use>
                  <path fill="none" stroke="white" stroke-width="1.5" d="M0,-3.0v7 M-2.5,-0.5L0,-3.0L2.5,-0.5"/>
                </g>
                <g id="arrowLeft" xlink:href="#dirArrow" transform="rotate(270) translate(-36 17)" onmousedown="handlePan(-1,0)">
                  <use xlink:href="#rim" fill="#404040">
                        <set attributeName="fill" to="#808080" begin="arrowLeft.mouseover" end="arrowLeft.mouseout"/>
                  </use>
                  <path fill="none" stroke="white" stroke-width="1.5" d="M0,-3.0v7 M-2.5,-0.5L0,-3.0L2.5,-0.5"/>
                </g>
        </g>
        <svg viewBox="0 0 15 15" width="100%" height="30px" preserveAspectRatio="xMaxYMin meet">
         <g id="arrow_out" transform="scale(0.3 0.3)">
          <a xlink:href="class_voxel_particle_remover__coll__graph_org.svg" target="_base">
           <rect id="button" ry="5" rx="5" y="6" x="6" height="38" width="38"
                fill="#f2f5e9" fill-opacity="0.5" stroke="#606060" stroke-width="1.0"/>
           <path id="arrow"
             d="M 11.500037,31.436501 C 11.940474,20.09759 22.043105,11.32322 32.158766,21.979434 L 37.068811,17.246167 C 37.068811,17.246167 37.088388,32 37.088388,32 L 22.160133,31.978069 C 22.160133,31.978069 26.997745,27.140456 26.997745,27.140456 C 18.528582,18.264221 13.291696,25.230495 11.500037,31.436501 z"
             style="fill:#404040;"/>
          </a>
         </g>
        </svg>
</svg>
