<?xml version="1.0" encoding="UTF-8" standalone="no"?>
<!DOCTYPE svg PUBLIC "-//W3C//DTD SVG 1.1//EN"
 "http://www.w3.org/Graphics/SVG/1.1/DTD/svg11.dtd">
<!-- Generated by graphviz version 2.36.0 (20140111.2315)
 -->
<!-- Title: Hardpoint Pages: 1 -->
<svg width="354pt" height="176pt"
 viewBox="0.00 0.00 354.00 176.00" xmlns="http://www.w3.org/2000/svg" xmlns:xlink="http://www.w3.org/1999/xlink">
<g id="graph0" class="graph" transform="scale(1 1) rotate(0) translate(4 172)">
<title>Hardpoint</title>
<polygon fill="white" stroke="none" points="-4,4 -4,-172 350,-172 350,4 -4,4"/>
<!-- Node1 -->
<g id="node1" class="node"><title>Node1</title>
<polygon fill="#bfbfbf" stroke="black" points="227,-0.5 227,-19.5 285,-19.5 285,-0.5 227,-0.5"/>
<text text-anchor="middle" x="256" y="-7.5" font-family="Helvetica,sans-Serif" font-size="10.00">Hardpoint</text>
</g>
<!-- Node2 -->
<g id="node2" class="node"><title>Node2</title>
<g id="a_node2"><a xlink:href="class_world_object_slot.html" target="_top" xlink:title="WorldObjectSlot">
<polygon fill="white" stroke="black" points="147,-68.5 147,-87.5 235,-87.5 235,-68.5 147,-68.5"/>
<text text-anchor="middle" x="191" y="-75.5" font-family="Helvetica,sans-Serif" font-size="10.00">WorldObjectSlot</text>
</a>
</g>
</g>
<!-- Node2&#45;&gt;Node1 -->
<g id="edge1" class="edge"><title>Node2&#45;&gt;Node1</title>
<path fill="none" stroke="midnightblue" d="M206.711,-61.0474C219.451,-48.1111 236.937,-30.3567 247.293,-19.8411"/>
<polygon fill="midnightblue" stroke="midnightblue" points="204.021,-58.7909 199.498,-68.3717 209.008,-63.7027 204.021,-58.7909"/>
</g>
<!-- Node3 -->
<g id="node3" class="node"><title>Node3</title>
<polygon fill="white" stroke="#bfbfbf" points="0,-137 0,-167 110,-167 110,-137 0,-137"/>
<text text-anchor="start" x="8" y="-155" font-family="Helvetica,sans-Serif" font-size="10.00">std::map&lt; std::string,</text>
<text text-anchor="middle" x="55" y="-144" font-family="Helvetica,sans-Serif" font-size="10.00"> bool &gt;</text>
</g>
<!-- Node3&#45;&gt;Node2 -->
<g id="edge2" class="edge"><title>Node3&#45;&gt;Node2</title>
<path fill="none" stroke="#9a32cd" stroke-dasharray="5,2" d="M81.0342,-130.82C92.5667,-122.458 106.547,-113.081 120,-106 134.004,-98.6296 150.48,-92.2364 164.033,-87.5236"/>
<polygon fill="#9a32cd" stroke="#9a32cd" points="78.695,-128.197 72.7417,-136.961 82.861,-133.822 78.695,-128.197"/>
<text text-anchor="middle" x="153.5" y="-109.5" font-family="Helvetica,sans-Serif" font-size="10.00"> m_mountables</text>
</g>
<!-- Node4 -->
<g id="node4" class="node"><title>Node4</title>
<g id="a_node4"><a xlink:href="class_world_object_components.html" target="_top" xlink:title="WorldObjectComponents">
<polygon fill="white" stroke="red" points="128.5,-142.5 128.5,-161.5 253.5,-161.5 253.5,-142.5 128.5,-142.5"/>
<text text-anchor="middle" x="191" y="-149.5" font-family="Helvetica,sans-Serif" font-size="10.00">WorldObjectComponents</text>
</a>
</g>
</g>
<!-- Node4&#45;&gt;Node2 -->
<g id="edge3" class="edge"><title>Node4&#45;&gt;Node2</title>
<path fill="none" stroke="#9a32cd" stroke-dasharray="5,2" d="M191,-132.156C191,-117.712 191,-98.4594 191,-87.531"/>
<polygon fill="#9a32cd" stroke="#9a32cd" points="187.5,-132.458 191,-142.458 194.5,-132.458 187.5,-132.458"/>
<text text-anchor="middle" x="226" y="-109.5" font-family="Helvetica,sans-Serif" font-size="10.00"> m_components</text>
</g>
<!-- Node5 -->
<g id="node5" class="node"><title>Node5</title>
<g id="a_node5"><a xlink:href="class_hardpoint_voxel.html" target="_top" xlink:title="HardpointVoxel">
<polygon fill="white" stroke="black" points="260.5,-68.5 260.5,-87.5 343.5,-87.5 343.5,-68.5 260.5,-68.5"/>
<text text-anchor="middle" x="302" y="-75.5" font-family="Helvetica,sans-Serif" font-size="10.00">HardpointVoxel</text>
</a>
</g>
</g>
<!-- Node5&#45;&gt;Node1 -->
<g id="edge4" class="edge"><title>Node5&#45;&gt;Node1</title>
<path fill="none" stroke="#9a32cd" stroke-dasharray="5,2" d="M290.108,-59.9377C281.169,-47.112 269.284,-30.0591 262.162,-19.8411"/>
<polygon fill="#9a32cd" stroke="#9a32cd" points="287.397,-62.1689 295.986,-68.3717 293.14,-58.1664 287.397,-62.1689"/>
<text text-anchor="middle" x="303.5" y="-41.5" font-family="Helvetica,sans-Serif" font-size="10.00"> m_voxel</text>
</g>
<!-- Node6 -->
<g id="node6" class="node"><title>Node6</title>
<g id="a_node6"><a xlink:href="class_special_voxel.html" target="_top" xlink:title="SpecialVoxel">
<polygon fill="white" stroke="red" points="272,-142.5 272,-161.5 346,-161.5 346,-142.5 272,-142.5"/>
<text text-anchor="middle" x="309" y="-149.5" font-family="Helvetica,sans-Serif" font-size="10.00">SpecialVoxel</text>
</a>
</g>
</g>
<!-- Node6&#45;&gt;Node5 -->
<g id="edge5" class="edge"><title>Node6&#45;&gt;Node5</title>
<path fill="none" stroke="midnightblue" d="M307.168,-132.156C305.764,-117.712 303.892,-98.4594 302.829,-87.531"/>
<polygon fill="midnightblue" stroke="midnightblue" points="303.718,-132.844 308.17,-142.458 310.685,-132.166 303.718,-132.844"/>
</g>
</g>
</svg>
