<?xml version="1.0" encoding="UTF-8" standalone="no"?>
<!DOCTYPE svg PUBLIC "-//W3C//DTD SVG 1.1//EN"
 "http://www.w3.org/Graphics/SVG/1.1/DTD/svg11.dtd">
<!-- Generated by graphviz version 2.36.0 (20140111.2315)
 -->
<!-- Title: CrossHair Pages: 1 -->
<svg width="242pt" height="176pt"
 viewBox="0.00 0.00 242.00 176.00" xmlns="http://www.w3.org/2000/svg" xmlns:xlink="http://www.w3.org/1999/xlink">
<g id="graph0" class="graph" transform="scale(1 1) rotate(0) translate(4 172)">
<title>CrossHair</title>
<polygon fill="white" stroke="none" points="-4,4 -4,-172 238,-172 238,4 -4,4"/>
<!-- Node1 -->
<g id="node1" class="node"><title>Node1</title>
<polygon fill="#bfbfbf" stroke="black" points="62.5,-148.5 62.5,-167.5 121.5,-167.5 121.5,-148.5 62.5,-148.5"/>
<text text-anchor="middle" x="92" y="-155.5" font-family="Helvetica,sans-Serif" font-size="10.00">CrossHair</text>
</g>
<!-- Node3 -->
<g id="node3" class="node"><title>Node3</title>
<g id="a_node3"><a xlink:href="class_h_u_d.html" target="_top" xlink:title="HUD">
<polygon fill="white" stroke="red" points="33.5,-80.5 33.5,-99.5 70.5,-99.5 70.5,-80.5 33.5,-80.5"/>
<text text-anchor="middle" x="52" y="-87.5" font-family="Helvetica,sans-Serif" font-size="10.00">HUD</text>
</a>
</g>
</g>
<!-- Node1&#45;&gt;Node3 -->
<g id="edge3" class="edge"><title>Node1&#45;&gt;Node3</title>
<path fill="none" stroke="#9a32cd" stroke-dasharray="5,2" d="M64.2477,-142.79C59.7504,-139.234 55.6917,-134.981 53,-130 47.9123,-120.585 48.7238,-107.936 50.0907,-99.631"/>
<polygon fill="#9a32cd" stroke="#9a32cd" points="62.3713,-145.747 72.6161,-148.447 66.2916,-139.947 62.3713,-145.747"/>
<text text-anchor="middle" x="82" y="-121.5" font-family="Helvetica,sans-Serif" font-size="10.00"> m_crossHair</text>
</g>
<!-- Node5 -->
<g id="node5" class="node"><title>Node5</title>
<g id="a_node5"><a xlink:href="class_cross_hair_voxels.html" target="_top" xlink:title="CrossHairVoxels">
<polygon fill="white" stroke="red" points="88.5,-80.5 88.5,-99.5 177.5,-99.5 177.5,-80.5 88.5,-80.5"/>
<text text-anchor="middle" x="133" y="-87.5" font-family="Helvetica,sans-Serif" font-size="10.00">CrossHairVoxels</text>
</a>
</g>
</g>
<!-- Node1&#45;&gt;Node5 -->
<g id="edge6" class="edge"><title>Node1&#45;&gt;Node5</title>
<path fill="none" stroke="#9a32cd" stroke-dasharray="5,2" d="M104.524,-139.744C106.738,-136.542 108.98,-133.198 111,-130 117.477,-119.747 124.229,-107.508 128.517,-99.5103"/>
<polygon fill="#9a32cd" stroke="#9a32cd" points="101.491,-137.97 98.5613,-148.152 107.201,-142.019 101.491,-137.97"/>
<text text-anchor="middle" x="147" y="-121.5" font-family="Helvetica,sans-Serif" font-size="10.00"> m_crossHair</text>
</g>
<!-- Node2 -->
<g id="node2" class="node"><title>Node2</title>
<g id="a_node2"><a xlink:href="class_hudget.html" target="_top" xlink:title="Hudget">
<polygon fill="white" stroke="black" points="-0.5,-6.5 -0.5,-25.5 46.5,-25.5 46.5,-6.5 -0.5,-6.5"/>
<text text-anchor="middle" x="23" y="-13.5" font-family="Helvetica,sans-Serif" font-size="10.00">Hudget</text>
</a>
</g>
</g>
<!-- Node2&#45;&gt;Node1 -->
<g id="edge1" class="edge"><title>Node2&#45;&gt;Node1</title>
<path fill="none" stroke="midnightblue" d="M20.0153,-35.8791C18.0401,-53.0651 16.9513,-78.8996 24,-100 31.7117,-123.085 55.8068,-139.387 73.1246,-148.485"/>
<polygon fill="midnightblue" stroke="midnightblue" points="23.5437,-35.9102 21.4353,-25.5273 16.6087,-34.9589 23.5437,-35.9102"/>
</g>
<!-- Node3&#45;&gt;Node2 -->
<g id="edge2" class="edge"><title>Node3&#45;&gt;Node2</title>
<path fill="none" stroke="#9a32cd" stroke-dasharray="5,2" d="M44.7534,-71.0085C38.9009,-56.4781 30.925,-36.6758 26.4361,-25.531"/>
<polygon fill="#9a32cd" stroke="#9a32cd" points="41.5767,-72.4897 48.5594,-80.4579 48.0698,-69.8744 41.5767,-72.4897"/>
<text text-anchor="middle" x="57.5" y="-53.5" font-family="Helvetica,sans-Serif" font-size="10.00"> m_hud</text>
</g>
<!-- Node4 -->
<g id="node4" class="node"><title>Node4</title>
<polygon fill="white" stroke="#bfbfbf" points="81.5,-1 81.5,-31 214.5,-31 214.5,-1 81.5,-1"/>
<text text-anchor="start" x="89.5" y="-19" font-family="Helvetica,sans-Serif" font-size="10.00">std::unique_ptr&lt; CrossHair</text>
<text text-anchor="middle" x="148" y="-8" font-family="Helvetica,sans-Serif" font-size="10.00">Voxels &gt;</text>
</g>
<!-- Node4&#45;&gt;Node1 -->
<g id="edge4" class="edge"><title>Node4&#45;&gt;Node1</title>
<path fill="none" stroke="#9a32cd" stroke-dasharray="5,2" d="M165.11,-39.1952C182.195,-64.2189 202.878,-104.704 180,-130 165.314,-146.238 141.145,-152.829 121.847,-155.447"/>
<polygon fill="#9a32cd" stroke="#9a32cd" points="167.95,-37.1493 159.295,-31.0391 162.251,-41.2132 167.95,-37.1493"/>
<text text-anchor="middle" x="212" y="-87.5" font-family="Helvetica,sans-Serif" font-size="10.00"> m_voxels</text>
</g>
<!-- Node5&#45;&gt;Node4 -->
<g id="edge5" class="edge"><title>Node5&#45;&gt;Node4</title>
<path fill="none" stroke="#9a32cd" stroke-dasharray="5,2" d="M136.863,-70.4599C139.409,-58.2361 142.694,-42.4685 145.035,-31.2316"/>
<polygon fill="#9a32cd" stroke="#9a32cd" points="133.393,-69.9542 134.78,-80.4579 140.246,-71.382 133.393,-69.9542"/>
<text text-anchor="middle" x="148.5" y="-53.5" font-family="Helvetica,sans-Serif" font-size="10.00"> ptr</text>
</g>
</g>
</svg>
