<?xml version="1.0" encoding="UTF-8" standalone="no"?>
<!DOCTYPE svg PUBLIC "-//W3C//DTD SVG 1.1//EN"
 "http://www.w3.org/Graphics/SVG/1.1/DTD/svg11.dtd">
<!-- Generated by graphviz version 2.36.0 (20140111.2315)
 -->
<!-- Title: AbstractShape Pages: 1 -->
<svg width="611pt" height="96pt"
 viewBox="0.00 0.00 611.00 96.00" xmlns="http://www.w3.org/2000/svg" xmlns:xlink="http://www.w3.org/1999/xlink">
<g id="graph0" class="graph" transform="scale(1 1) rotate(0) translate(4 92)">
<title>AbstractShape</title>
<polygon fill="white" stroke="none" points="-4,4 -4,-92 607,-92 607,4 -4,4"/>
<!-- Node1 -->
<g id="node1" class="node"><title>Node1</title>
<polygon fill="#bfbfbf" stroke="black" points="186.5,-68.5 186.5,-87.5 267.5,-87.5 267.5,-68.5 186.5,-68.5"/>
<text text-anchor="middle" x="227" y="-75.5" font-family="Helvetica,sans-Serif" font-size="10.00">AbstractShape</text>
</g>
<!-- Node2 -->
<g id="node2" class="node"><title>Node2</title>
<g id="a_node2"><a xlink:href="class_capsule.html" target="_top" xlink:title="Capsule">
<polygon fill="white" stroke="black" points="0,-6.5 0,-25.5 52,-25.5 52,-6.5 0,-6.5"/>
<text text-anchor="middle" x="26" y="-13.5" font-family="Helvetica,sans-Serif" font-size="10.00">Capsule</text>
</a>
</g>
</g>
<!-- Node1&#45;&gt;Node2 -->
<g id="edge1" class="edge"><title>Node1&#45;&gt;Node2</title>
<path fill="none" stroke="midnightblue" d="M179.643,-66.0387C146.14,-57.8305 100.359,-45.6931 61,-32 55.6303,-30.1319 49.9185,-27.8261 44.7004,-25.5875"/>
<polygon fill="midnightblue" stroke="midnightblue" points="179.082,-69.5041 189.625,-68.4573 180.731,-62.7009 179.082,-69.5041"/>
</g>
<!-- Node3 -->
<g id="node3" class="node"><title>Node3</title>
<g id="a_node3"><a xlink:href="class_line.html" target="_top" xlink:title="Line">
<polygon fill="white" stroke="black" points="70.5,-6.5 70.5,-25.5 105.5,-25.5 105.5,-6.5 70.5,-6.5"/>
<text text-anchor="middle" x="88" y="-13.5" font-family="Helvetica,sans-Serif" font-size="10.00">Line</text>
</a>
</g>
</g>
<!-- Node1&#45;&gt;Node3 -->
<g id="edge2" class="edge"><title>Node1&#45;&gt;Node3</title>
<path fill="none" stroke="midnightblue" d="M192.772,-64.8397C170.073,-56.4192 139.824,-44.5106 114,-32 110.061,-30.0915 105.907,-27.8205 102.104,-25.6303"/>
<polygon fill="midnightblue" stroke="midnightblue" points="191.721,-68.182 202.314,-68.3394 194.131,-61.6101 191.721,-68.182"/>
</g>
<!-- Node4 -->
<g id="node4" class="node"><title>Node4</title>
<g id="a_node4"><a xlink:href="class_point.html" target="_top" xlink:title="Point">
<polygon fill="white" stroke="black" points="123.5,-6.5 123.5,-25.5 162.5,-25.5 162.5,-6.5 123.5,-6.5"/>
<text text-anchor="middle" x="143" y="-13.5" font-family="Helvetica,sans-Serif" font-size="10.00">Point</text>
</a>
</g>
</g>
<!-- Node1&#45;&gt;Node4 -->
<g id="edge3" class="edge"><title>Node1&#45;&gt;Node4</title>
<path fill="none" stroke="midnightblue" d="M206.689,-62.4918C190.533,-50.952 168.477,-35.1976 155.013,-25.5806"/>
<polygon fill="midnightblue" stroke="midnightblue" points="204.793,-65.4391 214.965,-68.4035 208.862,-59.743 204.793,-65.4391"/>
</g>
<!-- Node5 -->
<g id="node5" class="node"><title>Node5</title>
<g id="a_node5"><a xlink:href="class_ray.html" target="_top" xlink:title="Ray">
<polygon fill="white" stroke="black" points="181,-6.5 181,-25.5 215,-25.5 215,-6.5 181,-6.5"/>
<text text-anchor="middle" x="198" y="-13.5" font-family="Helvetica,sans-Serif" font-size="10.00">Ray</text>
</a>
</g>
</g>
<!-- Node1&#45;&gt;Node5 -->
<g id="edge4" class="edge"><title>Node1&#45;&gt;Node5</title>
<path fill="none" stroke="midnightblue" d="M218.39,-59.1861C213.025,-48.0872 206.365,-34.3072 202.147,-25.5806"/>
<polygon fill="midnightblue" stroke="midnightblue" points="215.342,-60.9231 222.845,-68.4035 221.644,-57.8769 215.342,-60.9231"/>
</g>
<!-- Node6 -->
<g id="node6" class="node"><title>Node6</title>
<g id="a_node6"><a xlink:href="class_sphere.html" target="_top" xlink:title="Sphere">
<polygon fill="white" stroke="black" points="233.5,-6.5 233.5,-25.5 280.5,-25.5 280.5,-6.5 233.5,-6.5"/>
<text text-anchor="middle" x="257" y="-13.5" font-family="Helvetica,sans-Serif" font-size="10.00">Sphere</text>
</a>
</g>
</g>
<!-- Node1&#45;&gt;Node6 -->
<g id="edge5" class="edge"><title>Node1&#45;&gt;Node6</title>
<path fill="none" stroke="midnightblue" d="M235.907,-59.1861C241.456,-48.0872 248.346,-34.3072 252.71,-25.5806"/>
<polygon fill="midnightblue" stroke="midnightblue" points="232.64,-57.8939 231.298,-68.4035 238.901,-61.0244 232.64,-57.8939"/>
</g>
<!-- Node7 -->
<g id="node7" class="node"><title>Node7</title>
<g id="a_node7"><a xlink:href="class_t_a_a_b_b.html" target="_top" xlink:title="TAABB\&lt; T \&gt;">
<polygon fill="white" stroke="black" points="299,-6.5 299,-25.5 371,-25.5 371,-6.5 299,-6.5"/>
<text text-anchor="middle" x="335" y="-13.5" font-family="Helvetica,sans-Serif" font-size="10.00">TAABB&lt; T &gt;</text>
</a>
</g>
</g>
<!-- Node1&#45;&gt;Node7 -->
<g id="edge6" class="edge"><title>Node1&#45;&gt;Node7</title>
<path fill="none" stroke="midnightblue" d="M251.402,-63.4435C272.302,-51.832 301.763,-35.4648 319.555,-25.5806"/>
<polygon fill="midnightblue" stroke="midnightblue" points="249.516,-60.4874 242.474,-68.4035 252.915,-66.6065 249.516,-60.4874"/>
</g>
<!-- Node8 -->
<g id="node8" class="node"><title>Node8</title>
<g id="a_node8"><a xlink:href="class_t_a_a_b_b.html" target="_top" xlink:title="TAABB\&lt; glm::mediump\l_float \&gt;">
<polygon fill="white" stroke="black" points="389.5,-1 389.5,-31 508.5,-31 508.5,-1 389.5,-1"/>
<text text-anchor="start" x="397.5" y="-19" font-family="Helvetica,sans-Serif" font-size="10.00">TAABB&lt; glm::mediump</text>
<text text-anchor="middle" x="449" y="-8" font-family="Helvetica,sans-Serif" font-size="10.00">_float &gt;</text>
</a>
</g>
</g>
<!-- Node1&#45;&gt;Node8 -->
<g id="edge7" class="edge"><title>Node1&#45;&gt;Node8</title>
<path fill="none" stroke="midnightblue" d="M268.602,-65.7562C304.98,-55.9243 357.965,-41.6041 397.106,-31.0253"/>
<polygon fill="midnightblue" stroke="midnightblue" points="267.548,-62.4155 258.807,-68.4035 269.374,-69.1731 267.548,-62.4155"/>
</g>
<!-- Node9 -->
<g id="node9" class="node"><title>Node9</title>
<g id="a_node9"><a xlink:href="class_t_a_a_b_b.html" target="_top" xlink:title="TAABB\&lt; int \&gt;">
<polygon fill="white" stroke="black" points="526.5,-6.5 526.5,-25.5 603.5,-25.5 603.5,-6.5 526.5,-6.5"/>
<text text-anchor="middle" x="565" y="-13.5" font-family="Helvetica,sans-Serif" font-size="10.00">TAABB&lt; int &gt;</text>
</a>
</g>
</g>
<!-- Node1&#45;&gt;Node9 -->
<g id="edge8" class="edge"><title>Node1&#45;&gt;Node9</title>
<path fill="none" stroke="midnightblue" d="M277.757,-71.4477C335.995,-64.542 434.136,-51.2634 517,-32 524.484,-30.2603 532.494,-27.9442 539.785,-25.6535"/>
<polygon fill="midnightblue" stroke="midnightblue" points="277.237,-67.9847 267.711,-72.6226 278.05,-74.9373 277.237,-67.9847"/>
</g>
</g>
</svg>
