<?xml version="1.0" encoding="UTF-8" standalone="no"?>
<!DOCTYPE svg PUBLIC "-//W3C//DTD SVG 1.1//EN"
 "http://www.w3.org/Graphics/SVG/1.1/DTD/svg11.dtd">
<!-- Generated by graphviz version 2.36.0 (20140111.2315)
 -->
<!-- Title: LuaWrapper Pages: 1 -->
<svg width="784pt" height="101pt"
 viewBox="0.00 0.00 784.00 101.00" xmlns="http://www.w3.org/2000/svg" xmlns:xlink="http://www.w3.org/1999/xlink">
<g id="graph0" class="graph" transform="scale(1 1) rotate(0) translate(4 97)">
<title>LuaWrapper</title>
<polygon fill="white" stroke="none" points="-4,4 -4,-97 780,-97 780,4 -4,4"/>
<!-- Node1 -->
<g id="node1" class="node"><title>Node1</title>
<polygon fill="#bfbfbf" stroke="black" points="488.5,-52.5 488.5,-71.5 557.5,-71.5 557.5,-52.5 488.5,-52.5"/>
<text text-anchor="middle" x="523" y="-59.5" font-family="Helvetica,sans-Serif" font-size="10.00">LuaWrapper</text>
</g>
<!-- Node6 -->
<g id="node6" class="node"><title>Node6</title>
<polygon fill="white" stroke="#bfbfbf" points="650,-52.5 650,-71.5 776,-71.5 776,-52.5 650,-52.5"/>
<text text-anchor="middle" x="713" y="-59.5" font-family="Helvetica,sans-Serif" font-size="10.00">std::list&lt; LuaWrapper * &gt;</text>
</g>
<!-- Node1&#45;&gt;Node6 -->
<g id="edge7" class="edge"><title>Node1&#45;&gt;Node6</title>
<path fill="none" stroke="#9a32cd" stroke-dasharray="5,2" d="M567.649,-62C592.062,-62 622.902,-62 649.803,-62"/>
<polygon fill="#9a32cd" stroke="#9a32cd" points="567.611,-58.5001 557.611,-62 567.611,-65.5001 567.611,-58.5001"/>
<text text-anchor="middle" x="604" y="-65" font-family="Helvetica,sans-Serif" font-size="10.00"> elements</text>
</g>
<!-- Node2 -->
<g id="node2" class="node"><title>Node2</title>
<polygon fill="white" stroke="#bfbfbf" points="208.5,-24 208.5,-54 395.5,-54 395.5,-24 208.5,-24"/>
<text text-anchor="start" x="216.5" y="-42" font-family="Helvetica,sans-Serif" font-size="10.00">std::map&lt; std::string,</text>
<text text-anchor="middle" x="302" y="-31" font-family="Helvetica,sans-Serif" font-size="10.00"> std::unique_ptr&lt; BaseLuaFunction &gt; &gt;</text>
</g>
<!-- Node2&#45;&gt;Node1 -->
<g id="edge1" class="edge"><title>Node2&#45;&gt;Node1</title>
<path fill="none" stroke="#9a32cd" stroke-dasharray="5,2" d="M405.566,-45.1571C426.909,-46.9501 449.225,-49.2028 470,-52 475.922,-52.7974 482.189,-53.8345 488.244,-54.9383"/>
<polygon fill="#9a32cd" stroke="#9a32cd" points="405.76,-41.6614 395.51,-44.3395 405.193,-48.6384 405.76,-41.6614"/>
<text text-anchor="middle" x="442" y="-55" font-family="Helvetica,sans-Serif" font-size="10.00"> m_functions</text>
</g>
<!-- Node3 -->
<g id="node3" class="node"><title>Node3</title>
<g id="a_node3"><a xlink:title="STL class. ">
<polygon fill="white" stroke="#bfbfbf" points="34,-61.5 34,-80.5 94,-80.5 94,-61.5 34,-61.5"/>
<text text-anchor="middle" x="64" y="-68.5" font-family="Helvetica,sans-Serif" font-size="10.00">std::string</text>
</a>
</g>
</g>
<!-- Node3&#45;&gt;Node2 -->
<g id="edge2" class="edge"><title>Node3&#45;&gt;Node2</title>
<path fill="none" stroke="#9a32cd" stroke-dasharray="5,2" d="M104.441,-65.6413C117.652,-63.847 132.462,-61.8363 146,-60 166.182,-57.2625 187.842,-54.3265 208.382,-51.5434"/>
<polygon fill="#9a32cd" stroke="#9a32cd" points="103.681,-62.2122 94.2435,-67.0264 104.624,-69.1485 103.681,-62.2122"/>
<text text-anchor="middle" x="168" y="-63" font-family="Helvetica,sans-Serif" font-size="10.00"> keys</text>
</g>
<!-- Node5 -->
<g id="node5" class="node"><title>Node5</title>
<polygon fill="white" stroke="#bfbfbf" points="240.5,-73.5 240.5,-92.5 363.5,-92.5 363.5,-73.5 240.5,-73.5"/>
<text text-anchor="middle" x="302" y="-80.5" font-family="Helvetica,sans-Serif" font-size="10.00">std::vector&lt; std::string &gt;</text>
</g>
<!-- Node3&#45;&gt;Node5 -->
<g id="edge5" class="edge"><title>Node3&#45;&gt;Node5</title>
<path fill="none" stroke="#9a32cd" stroke-dasharray="5,2" d="M104.812,-73.0244C141.882,-74.9093 197.672,-77.746 240.294,-79.9132"/>
<polygon fill="#9a32cd" stroke="#9a32cd" points="104.577,-69.508 94.4124,-72.4955 104.222,-76.4989 104.577,-69.508"/>
<text text-anchor="middle" x="168" y="-80" font-family="Helvetica,sans-Serif" font-size="10.00"> elements</text>
</g>
<!-- Node4 -->
<g id="node4" class="node"><title>Node4</title>
<polygon fill="white" stroke="#bfbfbf" points="0,-0 0,-30 128,-30 128,-0 0,-0"/>
<text text-anchor="start" x="8" y="-18" font-family="Helvetica,sans-Serif" font-size="10.00">std::unique_ptr&lt; BaseLua</text>
<text text-anchor="middle" x="64" y="-7" font-family="Helvetica,sans-Serif" font-size="10.00">Function &gt;</text>
</g>
<!-- Node4&#45;&gt;Node2 -->
<g id="edge3" class="edge"><title>Node4&#45;&gt;Node2</title>
<path fill="none" stroke="#9a32cd" stroke-dasharray="5,2" d="M138.495,-13.1858C155.447,-13.4331 173.38,-14.229 190,-16 206.145,-17.7204 223.412,-20.7206 239.401,-23.997"/>
<polygon fill="#9a32cd" stroke="#9a32cd" points="138.116,-9.68265 128.087,-13.099 138.057,-16.6824 138.116,-9.68265"/>
<text text-anchor="middle" x="168" y="-19" font-family="Helvetica,sans-Serif" font-size="10.00"> elements</text>
</g>
<!-- Node5&#45;&gt;Node1 -->
<g id="edge4" class="edge"><title>Node5&#45;&gt;Node1</title>
<path fill="none" stroke="#9a32cd" stroke-dasharray="5,2" d="M373.826,-76.2084C412.263,-72.5227 457.994,-68.1375 488.384,-65.2235"/>
<polygon fill="#9a32cd" stroke="#9a32cd" points="373.333,-72.7396 363.713,-77.1782 374.001,-79.7076 373.333,-72.7396"/>
<text text-anchor="middle" x="442" y="-74" font-family="Helvetica,sans-Serif" font-size="10.00"> m_scripts</text>
</g>
<!-- Node6&#45;&gt;Node1 -->
<g id="edge6" class="edge"><title>Node6&#45;&gt;Node1</title>
<path fill="none" stroke="#9a32cd" stroke-dasharray="5,2" d="M665.474,-50.3956C639.159,-45.3668 605.679,-41.5372 576,-46 567.22,-47.3202 557.877,-49.8281 549.568,-52.4735"/>
<polygon fill="#9a32cd" stroke="#9a32cd" points="665.052,-53.8813 675.549,-52.445 666.448,-47.0218 665.052,-53.8813"/>
<text text-anchor="middle" x="604" y="-49" font-family="Helvetica,sans-Serif" font-size="10.00"> s_instances</text>
</g>
</g>
</svg>
