<?xml version="1.0" encoding="UTF-8" standalone="no"?>
<!DOCTYPE svg PUBLIC "-//W3C//DTD SVG 1.1//EN"
 "http://www.w3.org/Graphics/SVG/1.1/DTD/svg11.dtd">
<!-- Generated by graphviz version 2.36.0 (20140111.2315)
 -->
<!-- Title: WorldTree Pages: 1 -->
<!--zoomable 164 -->
<svg id="main" version="1.1" xmlns="http://www.w3.org/2000/svg" xmlns:xlink="http://www.w3.org/1999/xlink" xml:space="preserve" onload="init(evt)">
<style type="text/css"><![CDATA[
.edge:hover path { stroke: red; }
.edge:hover polygon { stroke: red; fill: red; }
]]></style>
<script type="text/javascript"><![CDATA[
var edges = document.getElementsByTagName('g');
if (edges && edges.length) {
  for (var i=0;i<edges.length;i++) {
    if (edges[i].id.substr(0,4)=='edge') {
      edges[i].setAttribute('class','edge');
    }
  }
}
]]></script>
        <defs>
                <circle id="rim" cx="0" cy="0" r="7"/>
                <circle id="rim2" cx="0" cy="0" r="3.5"/>
                <g id="zoomPlus">
                        <use xlink:href="#rim" fill="#404040">
                                <set attributeName="fill" to="#808080" begin="zoomplus.mouseover" end="zoomplus.mouseout"/>
                        </use>
                        <path d="M-4,0h8M0,-4v8" fill="none" stroke="white" stroke-width="1.5" pointer-events="none"/>
                </g>
                <g id="zoomMin">
                        <use xlink:href="#rim" fill="#404040">
                                <set attributeName="fill" to="#808080" begin="zoomminus.mouseover" end="zoomminus.mouseout"/>
                        </use>
                        <path d="M-4,0h8" fill="none" stroke="white" stroke-width="1.5" pointer-events="none"/>
                </g>
                <g id="dirArrow">
                        <path fill="none" stroke="white" stroke-width="1.5" d="M0,-3.0v7 M-2.5,-0.5L0,-3.0L2.5,-0.5"/>
                </g>
               <g id="resetDef">
                       <use xlink:href="#rim2" fill="#404040">
                               <set attributeName="fill" to="#808080" begin="reset.mouseover" end="reset.mouseout"/>
                       </use>
               </g>
        </defs>

<script type="text/javascript">
var viewWidth = 600;
var viewHeight = 164;
var sectionId = 'dynsection-0';
</script>
<script xlink:href="svgpan.js"/>
<svg id="graph" class="graph">
<g id="viewport">
<title>WorldTree</title>
<polygon fill="white" stroke="none" points="-4,4 -4,-160.067 596,-160.067 596,4 -4,4"/>
<!-- Node1 -->
<g id="node1" class="node"><title>Node1</title>
<polygon fill="#bfbfbf" stroke="black" points="484.5,-136.567 484.5,-155.567 545.5,-155.567 545.5,-136.567 484.5,-136.567"/>
<text text-anchor="middle" x="515" y="-143.567" font-family="Helvetica,sans-Serif" font-size="10.00">WorldTree</text>
</g>
<!-- Node2 -->
<g id="node2" class="node"><title>Node2</title>
<g id="a_node2"><a xlink:href="class_world_tree_node.html" target="_top" xlink:title="WorldTreeNode">
<polygon fill="white" stroke="black" points="232.5,-68.5674 232.5,-87.5674 315.5,-87.5674 315.5,-68.5674 232.5,-68.5674"/>
<text text-anchor="middle" x="274" y="-75.5674" font-family="Helvetica,sans-Serif" font-size="10.00">WorldTreeNode</text>
</a>
</g>
</g>
<!-- Node2&#45;&gt;Node1 -->
<g id="edge1" class="edge"><title>Node2&#45;&gt;Node1</title>
<path fill="none" stroke="#9a32cd" stroke-dasharray="5,2" d="M300.676,-92.3828C310.819,-97.5842 322.728,-103.142 334,-107.067 385.485,-124.997 448.234,-136.343 484.406,-141.922"/>
<polygon fill="#9a32cd" stroke="#9a32cd" points="302.046,-89.1483 291.569,-87.57 298.775,-95.3371 302.046,-89.1483"/>
<text text-anchor="middle" x="377" y="-132.067" font-family="Helvetica,sans-Serif" font-size="10.00"> m_root</text>
</g>
<!-- Node2&#45;&gt;Node2 -->
<g id="edge2" class="edge"><title>Node2&#45;&gt;Node2</title>
<path fill="none" stroke="#9a32cd" stroke-dasharray="5,2" d="M258.531,-97.8337C259.746,-102.564 264.902,-106.067 274,-106.067 288.93,-106.067 293.245,-96.6327 286.947,-87.8245"/>
<polygon fill="#9a32cd" stroke="#9a32cd" points="262.003,-98.3766 261.053,-87.8245 255.216,-96.6661 262.003,-98.3766"/>
<text text-anchor="middle" x="274" y="-109.067" font-family="Helvetica,sans-Serif" font-size="10.00"> m_parent</text>
</g>
<!-- Node3 -->
<g id="node3" class="node"><title>Node3</title>
<polygon fill="white" stroke="#bfbfbf" points="445,-77.5674 445,-96.5674 585,-96.5674 585,-77.5674 445,-77.5674"/>
<text text-anchor="middle" x="515" y="-84.5674" font-family="Helvetica,sans-Serif" font-size="10.00">std::list&lt; WorldTreeNode * &gt;</text>
</g>
<!-- Node2&#45;&gt;Node3 -->
<g id="edge4" class="edge"><title>Node2&#45;&gt;Node3</title>
<path fill="none" stroke="#9a32cd" stroke-dasharray="5,2" d="M325.805,-89.0698C328.569,-89.459 331.314,-89.797 334,-90.0674 370.384,-93.73 411.108,-93.4181 444.606,-91.9996"/>
<polygon fill="#9a32cd" stroke="#9a32cd" points="326.209,-85.59 315.781,-87.4658 325.102,-92.502 326.209,-85.59"/>
<text text-anchor="middle" x="377" y="-95.0674" font-family="Helvetica,sans-Serif" font-size="10.00"> elements</text>
</g>
<!-- Node4 -->
<g id="node4" class="node"><title>Node4</title>
<polygon fill="white" stroke="#bfbfbf" points="438.5,-24.5674 438.5,-43.5674 591.5,-43.5674 591.5,-24.5674 438.5,-24.5674"/>
<text text-anchor="middle" x="515" y="-31.5674" font-family="Helvetica,sans-Serif" font-size="10.00">std::vector&lt; WorldTreeNode * &gt;</text>
</g>
<!-- Node2&#45;&gt;Node4 -->
<g id="edge6" class="edge"><title>Node2&#45;&gt;Node4</title>
<path fill="none" stroke="#9a32cd" stroke-dasharray="5,2" d="M317.443,-65.9567C322.99,-64.5509 328.615,-63.2128 334,-62.0674 368.801,-54.6656 407.776,-48.362 440.537,-43.6208"/>
<polygon fill="#9a32cd" stroke="#9a32cd" points="316.397,-62.6124 307.611,-68.5332 318.172,-69.3837 316.397,-62.6124"/>
<text text-anchor="middle" x="377" y="-65.0674" font-family="Helvetica,sans-Serif" font-size="10.00"> elements</text>
</g>
<!-- Node3&#45;&gt;Node2 -->
<g id="edge3" class="edge"><title>Node3&#45;&gt;Node2</title>
<path fill="none" stroke="#9a32cd" stroke-dasharray="5,2" d="M434.736,-79.8787C429.752,-79.5639 424.809,-79.2883 420,-79.0674 384.793,-77.4503 344.728,-77.3029 315.648,-77.5012"/>
<polygon fill="#9a32cd" stroke="#9a32cd" points="434.779,-83.3896 444.993,-80.5752 435.253,-76.4057 434.779,-83.3896"/>
<text text-anchor="middle" x="377" y="-82.0674" font-family="Helvetica,sans-Serif" font-size="10.00"> m_activeSubnodes</text>
</g>
<!-- Node4&#45;&gt;Node2 -->
<g id="edge5" class="edge"><title>Node4&#45;&gt;Node2</title>
<path fill="none" stroke="#9a32cd" stroke-dasharray="5,2" d="M483.539,-20.676C446.52,-6.4897 382.941,11.0474 334,-11.0674 307.729,-22.9382 288.487,-52.9281 279.929,-68.4413"/>
<polygon fill="#9a32cd" stroke="#9a32cd" points="482.657,-24.0926 493.242,-24.5527 485.255,-17.5923 482.657,-24.0926"/>
<text text-anchor="middle" x="377" y="-14.0674" font-family="Helvetica,sans-Serif" font-size="10.00"> m_subnodes</text>
</g>
<!-- Node5 -->
<g id="node5" class="node"><title>Node5</title>
<polygon fill="white" stroke="#bfbfbf" points="0,-87.5674 0,-106.567 146,-106.567 146,-87.5674 0,-87.5674"/>
<text text-anchor="middle" x="73" y="-94.5674" font-family="Helvetica,sans-Serif" font-size="10.00">std::list&lt; WorldTreeGeode * &gt;</text>
</g>
<!-- Node5&#45;&gt;Node2 -->
<g id="edge7" class="edge"><title>Node5&#45;&gt;Node2</title>
<path fill="none" stroke="#9a32cd" stroke-dasharray="5,2" d="M156.105,-89.2283C182.4,-86.7177 210.368,-84.0474 232.352,-81.9484"/>
<polygon fill="#9a32cd" stroke="#9a32cd" points="155.747,-85.7464 146.125,-90.1811 156.412,-92.7147 155.747,-85.7464"/>
<text text-anchor="middle" x="189" y="-91.0674" font-family="Helvetica,sans-Serif" font-size="10.00"> m_geodes</text>
</g>
<!-- Node6 -->
<g id="node6" class="node"><title>Node6</title>
<g id="a_node6"><a xlink:href="class_t_a_a_b_b.html" target="_top" xlink:title="TAABB\&lt; int \&gt;">
<polygon fill="white" stroke="red" points="34.5,-49.5674 34.5,-68.5674 111.5,-68.5674 111.5,-49.5674 34.5,-49.5674"/>
<text text-anchor="middle" x="73" y="-56.5674" font-family="Helvetica,sans-Serif" font-size="10.00">TAABB&lt; int &gt;</text>
</a>
</g>
</g>
<!-- Node6&#45;&gt;Node2 -->
<g id="edge8" class="edge"><title>Node6&#45;&gt;Node2</title>
<path fill="none" stroke="#9a32cd" stroke-dasharray="5,2" d="M121.52,-61.5144C148.658,-63.1487 183.293,-65.6343 214,-69.0674 219.972,-69.7352 226.267,-70.5623 232.432,-71.4424"/>
<polygon fill="#9a32cd" stroke="#9a32cd" points="121.697,-58.0188 111.51,-60.9294 121.289,-65.0069 121.697,-58.0188"/>
<text text-anchor="middle" x="189" y="-72.0674" font-family="Helvetica,sans-Serif" font-size="10.00"> m_aabb</text>
</g>
</g>
</svg>
        <g id="navigator" transform="translate(0 0)" fill="#404254">
                <rect fill="#f2f5e9" fill-opacity="0.5" stroke="#606060" stroke-width=".5" x="0" y="0" width="60" height="60"/>
                <use id="zoomplus" xlink:href="#zoomPlus" x="17" y="9" onmousedown="handleZoom(evt,'in')"/>
                <use id="zoomminus" xlink:href="#zoomMin" x="42" y="9" onmousedown="handleZoom(evt,'out')"/>
                <use id="reset" xlink:href="#resetDef" x="30" y="36" onmousedown="handleReset()"/>
                <g id="arrowUp" xlink:href="#dirArrow" transform="translate(30 24)" onmousedown="handlePan(0,-1)">
                  <use xlink:href="#rim" fill="#404040">
                        <set attributeName="fill" to="#808080" begin="arrowUp.mouseover" end="arrowUp.mouseout"/>
                  </use>
                  <path fill="none" stroke="white" stroke-width="1.5" d="M0,-3.0v7 M-2.5,-0.5L0,-3.0L2.5,-0.5"/>
                </g>
                <g id="arrowRight" xlink:href="#dirArrow" transform="rotate(90) translate(36 -43)" onmousedown="handlePan(1,0)">
                  <use xlink:href="#rim" fill="#404040">
                        <set attributeName="fill" to="#808080" begin="arrowRight.mouseover" end="arrowRight.mouseout"/>
                  </use>
                  <path fill="none" stroke="white" stroke-width="1.5" d="M0,-3.0v7 M-2.5,-0.5L0,-3.0L2.5,-0.5"/>
                </g>
                <g id="arrowDown" xlink:href="#dirArrow" transform="rotate(180) translate(-30 -48)" onmousedown="handlePan(0,1)">
                  <use xlink:href="#rim" fill="#404040">
                        <set attributeName="fill" to="#808080" begin="arrowDown.mouseover" end="arrowDown.mouseout"/>
                  </use>
                  <path fill="none" stroke="white" stroke-width="1.5" d="M0,-3.0v7 M-2.5,-0.5L0,-3.0L2.5,-0.5"/>
                </g>
                <g id="arrowLeft" xlink:href="#dirArrow" transform="rotate(270) translate(-36 17)" onmousedown="handlePan(-1,0)">
                  <use xlink:href="#rim" fill="#404040">
                        <set attributeName="fill" to="#808080" begin="arrowLeft.mouseover" end="arrowLeft.mouseout"/>
                  </use>
                  <path fill="none" stroke="white" stroke-width="1.5" d="M0,-3.0v7 M-2.5,-0.5L0,-3.0L2.5,-0.5"/>
                </g>
        </g>
        <svg viewBox="0 0 15 15" width="100%" height="30px" preserveAspectRatio="xMaxYMin meet">
         <g id="arrow_out" transform="scale(0.3 0.3)">
          <a xlink:href="class_world_tree__coll__graph_org.svg" target="_base">
           <rect id="button" ry="5" rx="5" y="6" x="6" height="38" width="38"
                fill="#f2f5e9" fill-opacity="0.5" stroke="#606060" stroke-width="1.0"/>
           <path id="arrow"
             d="M 11.500037,31.436501 C 11.940474,20.09759 22.043105,11.32322 32.158766,21.979434 L 37.068811,17.246167 C 37.068811,17.246167 37.088388,32 37.088388,32 L 22.160133,31.978069 C 22.160133,31.978069 26.997745,27.140456 26.997745,27.140456 C 18.528582,18.264221 13.291696,25.230495 11.500037,31.436501 z"
             style="fill:#404040;"/>
          </a>
         </g>
        </svg>
</svg>
