<?xml version="1.0" encoding="UTF-8" standalone="no"?>
<!DOCTYPE svg PUBLIC "-//W3C//DTD SVG 1.1//EN"
 "http://www.w3.org/Graphics/SVG/1.1/DTD/svg11.dtd">
<!-- Generated by graphviz version 2.36.0 (20140111.2315)
 -->
<!-- Title: Game Pages: 1 -->
<svg width="861pt" height="282pt"
 viewBox="0.00 0.00 861.00 282.17" xmlns="http://www.w3.org/2000/svg" xmlns:xlink="http://www.w3.org/1999/xlink">
<g id="graph0" class="graph" transform="scale(1 1) rotate(0) translate(4 278.17)">
<title>Game</title>
<polygon fill="white" stroke="none" points="-4,4 -4,-278.17 857,-278.17 857,4 -4,4"/>
<!-- Node1 -->
<g id="node1" class="node"><title>Node1</title>
<polygon fill="#bfbfbf" stroke="black" points="385.5,-153.67 385.5,-172.67 428.5,-172.67 428.5,-153.67 385.5,-153.67"/>
<text text-anchor="middle" x="407" y="-160.67" font-family="Helvetica,sans-Serif" font-size="10.00">Game</text>
</g>
<!-- Node1&#45;&gt;Node1 -->
<g id="edge16" class="edge"><title>Node1&#45;&gt;Node1</title>
<path fill="none" stroke="#9a32cd" stroke-dasharray="5,2" d="M384.679,-182.199C385.896,-187.298 393.337,-191.17 407,-191.17 428.328,-191.17 434.493,-181.735 425.495,-172.927"/>
<polygon fill="#9a32cd" stroke="#9a32cd" points="387.926,-183.506 388.505,-172.927 381.455,-180.836 387.926,-183.506"/>
<text text-anchor="middle" x="407" y="-194.17" font-family="Helvetica,sans-Serif" font-size="10.00"> s_instance</text>
</g>
<!-- Node4 -->
<g id="node4" class="node"><title>Node4</title>
<g id="a_node4"><a xlink:href="class_game_play.html" target="_top" xlink:title="GamePlay">
<polygon fill="white" stroke="black" points="585,-113.67 585,-132.67 647,-132.67 647,-113.67 585,-113.67"/>
<text text-anchor="middle" x="616" y="-120.67" font-family="Helvetica,sans-Serif" font-size="10.00">GamePlay</text>
</a>
</g>
</g>
<!-- Node1&#45;&gt;Node4 -->
<g id="edge7" class="edge"><title>Node1&#45;&gt;Node4</title>
<path fill="none" stroke="#9a32cd" stroke-dasharray="5,2" d="M438.469,-168.816C471.263,-173.574 524.444,-177.43 567,-162.17 583.373,-156.299 598.246,-142.241 606.96,-132.708"/>
<polygon fill="#9a32cd" stroke="#9a32cd" points="438.999,-165.356 428.577,-167.262 437.913,-172.271 438.999,-165.356"/>
<text text-anchor="middle" x="536" y="-176.17" font-family="Helvetica,sans-Serif" font-size="10.00"> m_game</text>
</g>
<!-- Node2 -->
<g id="node2" class="node"><title>Node2</title>
<g id="a_node2"><a xlink:href="class_game_state.html" target="_top" xlink:title="GameState">
<polygon fill="white" stroke="black" points="150,-103.67 150,-122.67 216,-122.67 216,-103.67 150,-103.67"/>
<text text-anchor="middle" x="183" y="-110.67" font-family="Helvetica,sans-Serif" font-size="10.00">GameState</text>
</a>
</g>
</g>
<!-- Node2&#45;&gt;Node1 -->
<g id="edge1" class="edge"><title>Node2&#45;&gt;Node1</title>
<path fill="none" stroke="midnightblue" d="M226.277,-122.692C273.845,-133.405 349.175,-150.372 385.318,-158.512"/>
<polygon fill="midnightblue" stroke="midnightblue" points="226.805,-119.223 216.281,-120.44 225.267,-126.052 226.805,-119.223"/>
</g>
<!-- Node2&#45;&gt;Node2 -->
<g id="edge4" class="edge"><title>Node2&#45;&gt;Node2</title>
<path fill="none" stroke="#9a32cd" stroke-dasharray="5,2" d="M166.334,-132.57C167.447,-137.485 173.002,-141.17 183,-141.17 198.996,-141.17 203.62,-131.735 196.872,-122.927"/>
<polygon fill="#9a32cd" stroke="#9a32cd" points="169.707,-133.506 169.128,-122.927 162.983,-131.558 169.707,-133.506"/>
<text text-anchor="middle" x="183" y="-144.17" font-family="Helvetica,sans-Serif" font-size="10.00"> m_parentGameState</text>
</g>
<!-- Node2&#45;&gt;Node4 -->
<g id="edge6" class="edge"><title>Node2&#45;&gt;Node4</title>
<path fill="none" stroke="midnightblue" d="M226.325,-109.818C284.945,-105.716 394.132,-100.03 487,-106.17 520.665,-108.396 558.986,-113.88 584.853,-118.022"/>
<polygon fill="midnightblue" stroke="midnightblue" points="226.051,-106.328 216.328,-110.537 226.553,-113.31 226.051,-106.328"/>
</g>
<!-- Node7 -->
<g id="node7" class="node"><title>Node7</title>
<g id="a_node7"><a xlink:href="class_game_play_running.html" target="_top" xlink:title="GamePlayRunning">
<polygon fill="white" stroke="red" points="755,-62.67 755,-81.67 853,-81.67 853,-62.67 755,-62.67"/>
<text text-anchor="middle" x="804" y="-69.67" font-family="Helvetica,sans-Serif" font-size="10.00">GamePlayRunning</text>
</a>
</g>
</g>
<!-- Node2&#45;&gt;Node7 -->
<g id="edge11" class="edge"><title>Node2&#45;&gt;Node7</title>
<path fill="none" stroke="midnightblue" d="M201.638,-96.3145C226.976,-73.3932 276.241,-33.4937 327,-18.17 494.003,32.2471 706.887,-36.2037 778.357,-62.5825"/>
<polygon fill="midnightblue" stroke="midnightblue" points="198.964,-94.0197 193.995,-103.377 203.715,-99.161 198.964,-94.0197"/>
</g>
<!-- Node8 -->
<g id="node8" class="node"><title>Node8</title>
<g id="a_node8"><a xlink:href="class_game_play_paused.html" target="_top" xlink:title="GamePlayPaused">
<polygon fill="white" stroke="red" points="756.5,-164.67 756.5,-183.67 851.5,-183.67 851.5,-164.67 756.5,-164.67"/>
<text text-anchor="middle" x="804" y="-171.67" font-family="Helvetica,sans-Serif" font-size="10.00">GamePlayPaused</text>
</a>
</g>
</g>
<!-- Node2&#45;&gt;Node8 -->
<g id="edge14" class="edge"><title>Node2&#45;&gt;Node8</title>
<path fill="none" stroke="midnightblue" d="M200.825,-129.885C225.817,-153.404 275.376,-195.178 327,-211.17 489.905,-261.634 698.426,-207.081 774.01,-183.72"/>
<polygon fill="midnightblue" stroke="midnightblue" points="203.238,-127.35 193.602,-122.946 198.389,-132.398 203.238,-127.35"/>
</g>
<!-- Node3 -->
<g id="node3" class="node"><title>Node3</title>
<g id="a_node3"><a xlink:href="class_state.html" target="_top" xlink:title="State">
<polygon fill="white" stroke="red" points="24,-103.67 24,-122.67 64,-122.67 64,-103.67 24,-103.67"/>
<text text-anchor="middle" x="44" y="-110.67" font-family="Helvetica,sans-Serif" font-size="10.00">State</text>
</a>
</g>
</g>
<!-- Node3&#45;&gt;Node2 -->
<g id="edge2" class="edge"><title>Node3&#45;&gt;Node2</title>
<path fill="none" stroke="midnightblue" d="M74.227,-113.17C96.4672,-113.17 127.049,-113.17 149.955,-113.17"/>
<polygon fill="midnightblue" stroke="midnightblue" points="74.0493,-109.67 64.0493,-113.17 74.0492,-116.67 74.0493,-109.67"/>
</g>
<!-- Node3&#45;&gt;Node3 -->
<g id="edge3" class="edge"><title>Node3&#45;&gt;Node3</title>
<path fill="none" stroke="#9a32cd" stroke-dasharray="5,2" d="M35.1605,-132.936C35.8548,-137.667 38.8013,-141.17 44,-141.17 52.5313,-141.17 54.9973,-131.735 51.3982,-122.927"/>
<polygon fill="#9a32cd" stroke="#9a32cd" points="38.6407,-133.324 36.6018,-122.927 31.7122,-132.326 38.6407,-133.324"/>
<text text-anchor="middle" x="44" y="-177.17" font-family="Helvetica,sans-Serif" font-size="10.00"> m_currentSubState</text>
<text text-anchor="middle" x="44" y="-166.17" font-family="Helvetica,sans-Serif" font-size="10.00">m_initialSubState</text>
<text text-anchor="middle" x="44" y="-155.17" font-family="Helvetica,sans-Serif" font-size="10.00">m_finalSubState</text>
<text text-anchor="middle" x="44" y="-144.17" font-family="Helvetica,sans-Serif" font-size="10.00">m_parentState</text>
</g>
<!-- Node4&#45;&gt;Node1 -->
<g id="edge5" class="edge"><title>Node4&#45;&gt;Node1</title>
<path fill="none" stroke="#9a32cd" stroke-dasharray="5,2" d="M575.046,-133.385C572.328,-134.01 569.627,-134.611 567,-135.17 517.653,-145.67 459.093,-155.247 428.672,-160.008"/>
<polygon fill="#9a32cd" stroke="#9a32cd" points="575.943,-136.769 584.861,-131.05 574.323,-129.959 575.943,-136.769"/>
<text text-anchor="middle" x="536" y="-150.17" font-family="Helvetica,sans-Serif" font-size="10.00"> m_gamePlay</text>
</g>
<!-- Node4&#45;&gt;Node7 -->
<g id="edge12" class="edge"><title>Node4&#45;&gt;Node7</title>
<path fill="none" stroke="#9a32cd" stroke-dasharray="5,2" d="M628.602,-105.103C637.121,-93.61 649.825,-79.7028 665,-73.17 693.058,-61.0908 727.399,-60.7956 754.804,-63.5426"/>
<polygon fill="#9a32cd" stroke="#9a32cd" points="625.522,-103.403 622.7,-113.615 631.274,-107.391 625.522,-103.403"/>
<text text-anchor="middle" x="701" y="-76.17" font-family="Helvetica,sans-Serif" font-size="10.00"> m_gamePlay</text>
</g>
<!-- Node4&#45;&gt;Node8 -->
<g id="edge15" class="edge"><title>Node4&#45;&gt;Node8</title>
<path fill="none" stroke="#9a32cd" stroke-dasharray="5,2" d="M657.276,-124.972C680.948,-126.904 711.196,-130.902 737,-139.17 755.774,-145.185 775.521,-156.396 788.468,-164.512"/>
<polygon fill="#9a32cd" stroke="#9a32cd" points="657.463,-121.476 647.235,-124.242 656.955,-128.458 657.463,-121.476"/>
<text text-anchor="middle" x="701" y="-142.17" font-family="Helvetica,sans-Serif" font-size="10.00"> m_gamePlay</text>
</g>
<!-- Node5 -->
<g id="node5" class="node"><title>Node5</title>
<polygon fill="white" stroke="#bfbfbf" points="339,-28.17 339,-58.17 475,-58.17 475,-28.17 339,-28.17"/>
<text text-anchor="start" x="347" y="-46.17" font-family="Helvetica,sans-Serif" font-size="10.00">std::unique_ptr&lt; GamePlay</text>
<text text-anchor="middle" x="407" y="-35.17" font-family="Helvetica,sans-Serif" font-size="10.00">Scene &gt;</text>
</g>
<!-- Node5&#45;&gt;Node4 -->
<g id="edge8" class="edge"><title>Node5&#45;&gt;Node4</title>
<path fill="none" stroke="#9a32cd" stroke-dasharray="5,2" d="M485.643,-40.5373C512.813,-42.6104 542.602,-48.4741 567,-62.17 588.152,-74.0436 603.289,-99.3774 610.413,-113.373"/>
<polygon fill="#9a32cd" stroke="#9a32cd" points="485.567,-37.0265 475.375,-39.92 485.147,-44.0139 485.567,-37.0265"/>
<text text-anchor="middle" x="536" y="-65.17" font-family="Helvetica,sans-Serif" font-size="10.00"> m_scene</text>
</g>
<!-- Node6 -->
<g id="node6" class="node"><title>Node6</title>
<polygon fill="white" stroke="#bfbfbf" points="327,-115.67 327,-134.67 487,-134.67 487,-115.67 327,-115.67"/>
<text text-anchor="middle" x="407" y="-122.67" font-family="Helvetica,sans-Serif" font-size="10.00">std::unique_ptr&lt; BaseScenario &gt;</text>
</g>
<!-- Node6&#45;&gt;Node4 -->
<g id="edge9" class="edge"><title>Node6&#45;&gt;Node4</title>
<path fill="none" stroke="#9a32cd" stroke-dasharray="5,2" d="M497.275,-124.246C499.879,-124.22 502.458,-124.195 505,-124.17 531.927,-123.909 562.562,-123.632 584.651,-123.436"/>
<polygon fill="#9a32cd" stroke="#9a32cd" points="497.106,-120.747 487.141,-124.346 497.176,-127.747 497.106,-120.747"/>
<text text-anchor="middle" x="536" y="-127.17" font-family="Helvetica,sans-Serif" font-size="10.00"> m_scenario</text>
</g>
<!-- Node7&#45;&gt;Node4 -->
<g id="edge10" class="edge"><title>Node7&#45;&gt;Node4</title>
<path fill="none" stroke="#9a32cd" stroke-dasharray="5,2" d="M751.967,-84.1661C725.834,-90.5481 693.583,-98.7938 665,-107.17 658.341,-109.122 651.22,-111.392 644.558,-113.599"/>
<polygon fill="#9a32cd" stroke="#9a32cd" points="753.134,-87.4847 762.028,-81.7271 751.485,-80.6817 753.134,-87.4847"/>
<text text-anchor="middle" x="701" y="-110.17" font-family="Helvetica,sans-Serif" font-size="10.00"> m_runningState</text>
</g>
<!-- Node8&#45;&gt;Node4 -->
<g id="edge13" class="edge"><title>Node8&#45;&gt;Node4</title>
<path fill="none" stroke="#9a32cd" stroke-dasharray="5,2" d="M745.986,-170.059C720.618,-166.975 690.732,-161.586 665,-152.17 652.199,-147.486 639.044,-139.252 629.75,-132.752"/>
<polygon fill="#9a32cd" stroke="#9a32cd" points="745.862,-173.567 756.191,-171.206 746.644,-166.611 745.862,-173.567"/>
<text text-anchor="middle" x="701" y="-172.17" font-family="Helvetica,sans-Serif" font-size="10.00"> m_pausedState</text>
</g>
<!-- Node9 -->
<g id="node9" class="node"><title>Node9</title>
<polygon fill="white" stroke="#bfbfbf" points="119,-253.67 119,-272.67 247,-272.67 247,-253.67 119,-253.67"/>
<text text-anchor="middle" x="183" y="-260.67" font-family="Helvetica,sans-Serif" font-size="10.00">std::unique_ptr&lt; Viewer &gt;</text>
</g>
<!-- Node9&#45;&gt;Node1 -->
<g id="edge17" class="edge"><title>Node9&#45;&gt;Node1</title>
<path fill="none" stroke="#9a32cd" stroke-dasharray="5,2" d="M214.45,-249.454C260.376,-228.767 346.161,-190.125 385.424,-172.438"/>
<polygon fill="#9a32cd" stroke="#9a32cd" points="212.966,-246.283 205.286,-253.582 215.841,-252.666 212.966,-246.283"/>
<text text-anchor="middle" x="287" y="-228.17" font-family="Helvetica,sans-Serif" font-size="10.00"> m_viewer</text>
</g>
<!-- Node10 -->
<g id="node10" class="node"><title>Node10</title>
<g id="a_node10"><a xlink:href="class_viewer.html" target="_top" xlink:title="Viewer">
<polygon fill="white" stroke="red" points="21,-253.67 21,-272.67 67,-272.67 67,-253.67 21,-253.67"/>
<text text-anchor="middle" x="44" y="-260.67" font-family="Helvetica,sans-Serif" font-size="10.00">Viewer</text>
</a>
</g>
</g>
<!-- Node10&#45;&gt;Node9 -->
<g id="edge18" class="edge"><title>Node10&#45;&gt;Node9</title>
<path fill="none" stroke="#9a32cd" stroke-dasharray="5,2" d="M77.3317,-263.17C89.8061,-263.17 104.524,-263.17 118.921,-263.17"/>
<polygon fill="#9a32cd" stroke="#9a32cd" points="77.0115,-259.67 67.0114,-263.17 77.0114,-266.67 77.0115,-259.67"/>
<text text-anchor="middle" x="93" y="-266.17" font-family="Helvetica,sans-Serif" font-size="10.00"> ptr</text>
</g>
</g>
</svg>
