<?xml version="1.0" encoding="UTF-8" standalone="no"?>
<!DOCTYPE svg PUBLIC "-//W3C//DTD SVG 1.1//EN"
 "http://www.w3.org/Graphics/SVG/1.1/DTD/svg11.dtd">
<!-- Generated by graphviz version 2.36.0 (20140111.2315)
 -->
<!-- Title: VoxelParticleIntersectionCheck Pages: 1 -->
<svg width="694pt" height="252pt"
 viewBox="0.00 0.00 694.00 252.00" xmlns="http://www.w3.org/2000/svg" xmlns:xlink="http://www.w3.org/1999/xlink">
<g id="graph0" class="graph" transform="scale(1 1) rotate(0) translate(4 248)">
<title>VoxelParticleIntersectionCheck</title>
<polygon fill="white" stroke="none" points="-4,4 -4,-248 690,-248 690,4 -4,4"/>
<!-- Node1 -->
<g id="node1" class="node"><title>Node1</title>
<polygon fill="#bfbfbf" stroke="black" points="560.5,-112 560.5,-142 685.5,-142 685.5,-112 560.5,-112"/>
<text text-anchor="start" x="568.5" y="-130" font-family="Helvetica,sans-Serif" font-size="10.00">VoxelParticleIntersection</text>
<text text-anchor="middle" x="623" y="-119" font-family="Helvetica,sans-Serif" font-size="10.00">Check</text>
</g>
<!-- Node2 -->
<g id="node2" class="node"><title>Node2</title>
<g id="a_node2"><a xlink:href="class_voxel_particle_remove_check.html" target="_top" xlink:title="VoxelParticleRemoveCheck">
<polygon fill="white" stroke="black" points="306.5,-155.5 306.5,-174.5 443.5,-174.5 443.5,-155.5 306.5,-155.5"/>
<text text-anchor="middle" x="375" y="-162.5" font-family="Helvetica,sans-Serif" font-size="10.00">VoxelParticleRemoveCheck</text>
</a>
</g>
</g>
<!-- Node2&#45;&gt;Node1 -->
<g id="edge1" class="edge"><title>Node2&#45;&gt;Node1</title>
<path fill="none" stroke="midnightblue" d="M453.647,-155.021C481.549,-151.229 513.228,-146.688 542,-142 547.997,-141.023 554.237,-139.951 560.468,-138.843"/>
<polygon fill="midnightblue" stroke="midnightblue" points="452.992,-151.578 443.55,-156.383 453.928,-158.515 452.992,-151.578"/>
</g>
<!-- Node3 -->
<g id="node3" class="node"><title>Node3</title>
<g id="a_node3"><a xlink:href="class_voxel_particle_engine.html" target="_top" xlink:title="VoxelParticleEngine">
<polygon fill="white" stroke="black" points="323,-117.5 323,-136.5 427,-136.5 427,-117.5 323,-117.5"/>
<text text-anchor="middle" x="375" y="-124.5" font-family="Helvetica,sans-Serif" font-size="10.00">VoxelParticleEngine</text>
</a>
</g>
</g>
<!-- Node3&#45;&gt;Node1 -->
<g id="edge2" class="edge"><title>Node3&#45;&gt;Node1</title>
<path fill="none" stroke="#9a32cd" stroke-dasharray="5,2" d="M437.56,-127C475.064,-127 522.824,-127 560.346,-127"/>
<polygon fill="#9a32cd" stroke="#9a32cd" points="437.27,-123.5 427.27,-127 437.27,-130.5 437.27,-123.5"/>
<text text-anchor="middle" x="502" y="-130" font-family="Helvetica,sans-Serif" font-size="10.00"> m_particleEngine</text>
</g>
<!-- Node4 -->
<g id="node4" class="node"><title>Node4</title>
<g id="a_node4"><a xlink:href="class_context_dependant.html" target="_top" xlink:title="ContextDependant">
<polygon fill="white" stroke="black" points="25.5,-224.5 25.5,-243.5 122.5,-243.5 122.5,-224.5 25.5,-224.5"/>
<text text-anchor="middle" x="74" y="-231.5" font-family="Helvetica,sans-Serif" font-size="10.00">ContextDependant</text>
</a>
</g>
</g>
<!-- Node4&#45;&gt;Node3 -->
<g id="edge3" class="edge"><title>Node4&#45;&gt;Node3</title>
<path fill="none" stroke="#8b1a1a" d="M132.796,-241.158C179.924,-243.686 245.433,-239.198 288,-203 308.238,-185.79 286.903,-164.469 306,-146 310.758,-141.398 316.534,-137.893 322.688,-135.225"/>
<polygon fill="#8b1a1a" stroke="#8b1a1a" points="132.943,-237.66 122.735,-240.498 132.484,-244.645 132.943,-237.66"/>
</g>
<!-- Node5 -->
<g id="node5" class="node"><title>Node5</title>
<polygon fill="white" stroke="#bfbfbf" points="29.5,-186.5 29.5,-205.5 118.5,-205.5 118.5,-186.5 29.5,-186.5"/>
<text text-anchor="middle" x="74" y="-193.5" font-family="Helvetica,sans-Serif" font-size="10.00">std::stack&lt; int &gt;</text>
</g>
<!-- Node5&#45;&gt;Node3 -->
<g id="edge4" class="edge"><title>Node5&#45;&gt;Node3</title>
<path fill="none" stroke="#9a32cd" stroke-dasharray="5,2" d="M128.604,-193.384C172.847,-189.673 236.497,-180.699 288,-159 297.094,-155.169 297.11,-150.283 306,-146 313.84,-142.223 322.562,-139.079 331.074,-136.508"/>
<polygon fill="#9a32cd" stroke="#9a32cd" points="128.332,-189.895 118.633,-194.159 128.874,-196.874 128.332,-189.895"/>
<text text-anchor="middle" x="227" y="-191" font-family="Helvetica,sans-Serif" font-size="10.00"> m_freeParticleBufferIndices</text>
</g>
<!-- Node6 -->
<g id="node6" class="node"><title>Node6</title>
<polygon fill="white" stroke="#bfbfbf" points="10,-137 10,-167 138,-167 138,-137 10,-137"/>
<text text-anchor="start" x="18" y="-155" font-family="Helvetica,sans-Serif" font-size="10.00">std::vector&lt; VoxelParticle</text>
<text text-anchor="middle" x="74" y="-144" font-family="Helvetica,sans-Serif" font-size="10.00">Data &gt;</text>
</g>
<!-- Node6&#45;&gt;Node3 -->
<g id="edge5" class="edge"><title>Node6&#45;&gt;Node3</title>
<path fill="none" stroke="#9a32cd" stroke-dasharray="5,2" d="M148.285,-145.872C202.482,-141.341 274.921,-135.284 322.951,-131.268"/>
<polygon fill="#9a32cd" stroke="#9a32cd" points="147.718,-142.408 138.045,-146.729 148.302,-149.383 147.718,-142.408"/>
<text text-anchor="middle" x="227" y="-147" font-family="Helvetica,sans-Serif" font-size="10.00"> m_cpuParticleBuffer</text>
</g>
<!-- Node7 -->
<g id="node7" class="node"><title>Node7</title>
<polygon fill="white" stroke="#bfbfbf" points="0,-88 0,-118 148,-118 148,-88 0,-88"/>
<text text-anchor="start" x="8" y="-106" font-family="Helvetica,sans-Serif" font-size="10.00">std::unique_ptr&lt; VoxelParticle</text>
<text text-anchor="middle" x="74" y="-95" font-family="Helvetica,sans-Serif" font-size="10.00">Renderer &gt;</text>
</g>
<!-- Node7&#45;&gt;Node3 -->
<g id="edge6" class="edge"><title>Node7&#45;&gt;Node3</title>
<path fill="none" stroke="#9a32cd" stroke-dasharray="5,2" d="M158.534,-108.93C197.835,-111.808 245.338,-115.414 288,-119 299.207,-119.942 311.228,-121.019 322.626,-122.07"/>
<polygon fill="#9a32cd" stroke="#9a32cd" points="158.694,-105.432 148.466,-108.195 158.185,-112.414 158.694,-105.432"/>
<text text-anchor="middle" x="227" y="-122" font-family="Helvetica,sans-Serif" font-size="10.00"> m_renderer</text>
</g>
<!-- Node8 -->
<g id="node8" class="node"><title>Node8</title>
<polygon fill="white" stroke="#bfbfbf" points="0,-39 0,-69 148,-69 148,-39 0,-39"/>
<text text-anchor="start" x="8" y="-57" font-family="Helvetica,sans-Serif" font-size="10.00">std::unique_ptr&lt; VoxelParticle</text>
<text text-anchor="middle" x="74" y="-46" font-family="Helvetica,sans-Serif" font-size="10.00">Remover &gt;</text>
</g>
<!-- Node8&#45;&gt;Node3 -->
<g id="edge7" class="edge"><title>Node8&#45;&gt;Node3</title>
<path fill="none" stroke="#9a32cd" stroke-dasharray="5,2" d="M158.062,-66.69C197.752,-73.5896 245.713,-83.1513 288,-95 309.936,-101.146 334.2,-110.411 351.346,-117.392"/>
<polygon fill="#9a32cd" stroke="#9a32cd" points="158.605,-63.2322 148.158,-64.9935 157.423,-70.1317 158.605,-63.2322"/>
<text text-anchor="middle" x="227" y="-98" font-family="Helvetica,sans-Serif" font-size="10.00"> m_remover</text>
</g>
<!-- Node9 -->
<g id="node9" class="node"><title>Node9</title>
<g id="a_node9"><a xlink:href="class_sphere.html" target="_top" xlink:title="Sphere">
<polygon fill="white" stroke="black" points="351.5,-52.5 351.5,-71.5 398.5,-71.5 398.5,-52.5 351.5,-52.5"/>
<text text-anchor="middle" x="375" y="-59.5" font-family="Helvetica,sans-Serif" font-size="10.00">Sphere</text>
</a>
</g>
</g>
<!-- Node9&#45;&gt;Node1 -->
<g id="edge8" class="edge"><title>Node9&#45;&gt;Node1</title>
<path fill="none" stroke="#9a32cd" stroke-dasharray="5,2" d="M408.427,-70.5681C448.263,-81.0939 516.53,-99.1318 565.157,-111.981"/>
<polygon fill="#9a32cd" stroke="#9a32cd" points="409.264,-67.1693 398.702,-67.9985 407.476,-73.9371 409.264,-67.1693"/>
<text text-anchor="middle" x="502" y="-108" font-family="Helvetica,sans-Serif" font-size="10.00"> m_Sphere</text>
</g>
<!-- Node10 -->
<g id="node10" class="node"><title>Node10</title>
<g id="a_node10"><a xlink:href="class_abstract_shape.html" target="_top" xlink:title="AbstractShape">
<polygon fill="white" stroke="black" points="33.5,-0.5 33.5,-19.5 114.5,-19.5 114.5,-0.5 33.5,-0.5"/>
<text text-anchor="middle" x="74" y="-7.5" font-family="Helvetica,sans-Serif" font-size="10.00">AbstractShape</text>
</a>
</g>
</g>
<!-- Node10&#45;&gt;Node9 -->
<g id="edge9" class="edge"><title>Node10&#45;&gt;Node9</title>
<path fill="none" stroke="midnightblue" d="M124.738,-11.8647C168.243,-14.2693 232.908,-19.722 288,-32 310.071,-36.9188 334.319,-45.7032 351.425,-52.4998"/>
<polygon fill="midnightblue" stroke="midnightblue" points="124.866,-8.3668 114.698,-11.3432 124.503,-15.3574 124.866,-8.3668"/>
</g>
</g>
</svg>
