<?xml version="1.0" encoding="UTF-8" standalone="no"?>
<!DOCTYPE svg PUBLIC "-//W3C//DTD SVG 1.1//EN"
 "http://www.w3.org/Graphics/SVG/1.1/DTD/svg11.dtd">
<!-- Generated by graphviz version 2.36.0 (20140111.2315)
 -->
<!-- Title: Bindings Pages: 1 -->
<svg width="842pt" height="282pt"
 viewBox="0.00 0.00 842.00 282.00" xmlns="http://www.w3.org/2000/svg" xmlns:xlink="http://www.w3.org/1999/xlink">
<g id="graph0" class="graph" transform="scale(1 1) rotate(0) translate(4 278)">
<title>Bindings</title>
<polygon fill="white" stroke="none" points="-4,4 -4,-278 838,-278 838,4 -4,4"/>
<!-- Node1 -->
<g id="node1" class="node"><title>Node1</title>
<polygon fill="#bfbfbf" stroke="black" points="744,-130.5 744,-149.5 798,-149.5 798,-130.5 744,-130.5"/>
<text text-anchor="middle" x="771" y="-137.5" font-family="Helvetica,sans-Serif" font-size="10.00">Bindings</text>
</g>
<!-- Node2 -->
<g id="node2" class="node"><title>Node2</title>
<g id="a_node2"><a xlink:href="class_lua_wrapper.html" target="_top" xlink:title="LuaWrapper">
<polygon fill="white" stroke="black" points="537.5,-205.5 537.5,-224.5 606.5,-224.5 606.5,-205.5 537.5,-205.5"/>
<text text-anchor="middle" x="572" y="-212.5" font-family="Helvetica,sans-Serif" font-size="10.00">LuaWrapper</text>
</a>
</g>
</g>
<!-- Node2&#45;&gt;Node1 -->
<g id="edge1" class="edge"><title>Node2&#45;&gt;Node1</title>
<path fill="none" stroke="#9a32cd" stroke-dasharray="5,2" d="M607.789,-201.756C647.038,-186.813 709.927,-162.87 744.746,-149.614"/>
<polygon fill="#9a32cd" stroke="#9a32cd" points="606.451,-198.52 598.351,-205.349 608.942,-205.062 606.451,-198.52"/>
<text text-anchor="middle" x="662" y="-193" font-family="Helvetica,sans-Serif" font-size="10.00"> m_lua</text>
</g>
<!-- Node5 -->
<g id="node5" class="node"><title>Node5</title>
<polygon fill="white" stroke="#bfbfbf" points="708,-218.5 708,-237.5 834,-237.5 834,-218.5 708,-218.5"/>
<text text-anchor="middle" x="771" y="-225.5" font-family="Helvetica,sans-Serif" font-size="10.00">std::list&lt; LuaWrapper * &gt;</text>
</g>
<!-- Node2&#45;&gt;Node5 -->
<g id="edge5" class="edge"><title>Node2&#45;&gt;Node5</title>
<path fill="none" stroke="#9a32cd" stroke-dasharray="5,2" d="M616.969,-221.265C622.69,-221.934 628.479,-222.537 634,-223 658.133,-225.022 684.744,-226.226 707.978,-226.943"/>
<polygon fill="#9a32cd" stroke="#9a32cd" points="617.172,-217.764 606.818,-220.009 616.312,-224.711 617.172,-217.764"/>
<text text-anchor="middle" x="662" y="-229" font-family="Helvetica,sans-Serif" font-size="10.00"> elements</text>
</g>
<!-- Node3 -->
<g id="node3" class="node"><title>Node3</title>
<polygon fill="white" stroke="#bfbfbf" points="232.5,-244 232.5,-274 419.5,-274 419.5,-244 232.5,-244"/>
<text text-anchor="start" x="240.5" y="-262" font-family="Helvetica,sans-Serif" font-size="10.00">std::map&lt; std::string,</text>
<text text-anchor="middle" x="326" y="-251" font-family="Helvetica,sans-Serif" font-size="10.00"> std::unique_ptr&lt; BaseLuaFunction &gt; &gt;</text>
</g>
<!-- Node3&#45;&gt;Node2 -->
<g id="edge2" class="edge"><title>Node3&#45;&gt;Node2</title>
<path fill="none" stroke="#9a32cd" stroke-dasharray="5,2" d="M429.846,-244.255C456.062,-240.071 484.137,-235.219 510,-230 518.873,-228.209 528.404,-226.003 537.235,-223.839"/>
<polygon fill="#9a32cd" stroke="#9a32cd" points="429.23,-240.809 419.898,-245.826 430.321,-247.723 429.23,-240.809"/>
<text text-anchor="middle" x="474" y="-245" font-family="Helvetica,sans-Serif" font-size="10.00"> m_functions</text>
</g>
<!-- Node4 -->
<g id="node4" class="node"><title>Node4</title>
<polygon fill="white" stroke="#bfbfbf" points="264.5,-205.5 264.5,-224.5 387.5,-224.5 387.5,-205.5 264.5,-205.5"/>
<text text-anchor="middle" x="326" y="-212.5" font-family="Helvetica,sans-Serif" font-size="10.00">std::vector&lt; std::string &gt;</text>
</g>
<!-- Node4&#45;&gt;Node2 -->
<g id="edge3" class="edge"><title>Node4&#45;&gt;Node2</title>
<path fill="none" stroke="#9a32cd" stroke-dasharray="5,2" d="M397.834,-215C443.772,-215 501.531,-215 537.359,-215"/>
<polygon fill="#9a32cd" stroke="#9a32cd" points="397.628,-211.5 387.628,-215 397.628,-218.5 397.628,-211.5"/>
<text text-anchor="middle" x="474" y="-218" font-family="Helvetica,sans-Serif" font-size="10.00"> m_scripts</text>
</g>
<!-- Node5&#45;&gt;Node2 -->
<g id="edge4" class="edge"><title>Node5&#45;&gt;Node2</title>
<path fill="none" stroke="#9a32cd" stroke-dasharray="5,2" d="M720.512,-216.522C710.468,-214.639 699.937,-212.984 690,-212 665.232,-209.548 658.881,-211.389 634,-212 625.096,-212.219 615.468,-212.617 606.549,-213.053"/>
<polygon fill="#9a32cd" stroke="#9a32cd" points="719.866,-219.962 730.354,-218.464 721.221,-213.094 719.866,-219.962"/>
<text text-anchor="middle" x="662" y="-215" font-family="Helvetica,sans-Serif" font-size="10.00"> s_instances</text>
</g>
<!-- Node6 -->
<g id="node6" class="node"><title>Node6</title>
<g id="a_node6"><a xlink:href="class_script_engine.html" target="_top" xlink:title="ScriptEngine">
<polygon fill="white" stroke="black" points="290,-73.5 290,-92.5 362,-92.5 362,-73.5 290,-73.5"/>
<text text-anchor="middle" x="326" y="-80.5" font-family="Helvetica,sans-Serif" font-size="10.00">ScriptEngine</text>
</a>
</g>
</g>
<!-- Node6&#45;&gt;Node1 -->
<g id="edge6" class="edge"><title>Node6&#45;&gt;Node1</title>
<path fill="none" stroke="#9a32cd" stroke-dasharray="5,2" d="M372.409,-85.8428C429.466,-89.7361 530.304,-97.6809 616,-110 661.295,-116.511 713.463,-127.396 743.976,-134.111"/>
<polygon fill="#9a32cd" stroke="#9a32cd" points="372.49,-82.3405 362.278,-85.1629 372.021,-89.3248 372.49,-82.3405"/>
<text text-anchor="middle" x="572" y="-113" font-family="Helvetica,sans-Serif" font-size="10.00"> m_scriptEngine</text>
</g>
<!-- Node10 -->
<g id="node10" class="node"><title>Node10</title>
<g id="a_node10"><a xlink:href="class_game_play_script.html" target="_top" xlink:title="GamePlayScript">
<polygon fill="white" stroke="black" points="528,-130.5 528,-149.5 616,-149.5 616,-130.5 528,-130.5"/>
<text text-anchor="middle" x="572" y="-137.5" font-family="Helvetica,sans-Serif" font-size="10.00">GamePlayScript</text>
</a>
</g>
</g>
<!-- Node6&#45;&gt;Node10 -->
<g id="edge13" class="edge"><title>Node6&#45;&gt;Node10</title>
<path fill="none" stroke="#9a32cd" stroke-dasharray="5,2" d="M372.11,-93.1482C409.177,-101.536 463.04,-113.838 510,-125 517.321,-126.74 525.127,-128.632 532.625,-130.467"/>
<polygon fill="#9a32cd" stroke="#9a32cd" points="372.646,-89.6811 362.12,-90.8903 371.102,-96.5089 372.646,-89.6811"/>
<text text-anchor="middle" x="474" y="-128" font-family="Helvetica,sans-Serif" font-size="10.00"> m_scriptEngine</text>
</g>
<!-- Node7 -->
<g id="node7" class="node"><title>Node7</title>
<polygon fill="white" stroke="#bfbfbf" points="0.5,-117 0.5,-147 131.5,-147 131.5,-117 0.5,-117"/>
<text text-anchor="start" x="8.5" y="-135" font-family="Helvetica,sans-Serif" font-size="10.00">std::list&lt; std::shared</text>
<text text-anchor="middle" x="66" y="-124" font-family="Helvetica,sans-Serif" font-size="10.00">_ptr&lt; GamePlayScript &gt; &gt;</text>
</g>
<!-- Node7&#45;&gt;Node6 -->
<g id="edge7" class="edge"><title>Node7&#45;&gt;Node6</title>
<path fill="none" stroke="#9a32cd" stroke-dasharray="5,2" d="M141.674,-117.818C190.519,-108.541 252.08,-96.8492 289.978,-89.6514"/>
<polygon fill="#9a32cd" stroke="#9a32cd" points="140.943,-114.394 131.771,-119.698 142.249,-121.271 140.943,-114.394"/>
<text text-anchor="middle" x="182" y="-120" font-family="Helvetica,sans-Serif" font-size="10.00"> m_scripts</text>
</g>
<!-- Node8 -->
<g id="node8" class="node"><title>Node8</title>
<polygon fill="white" stroke="#bfbfbf" points="14.5,-68 14.5,-98 117.5,-98 117.5,-68 14.5,-68"/>
<text text-anchor="start" x="22.5" y="-86" font-family="Helvetica,sans-Serif" font-size="10.00">std::unordered_map</text>
<text text-anchor="middle" x="66" y="-75" font-family="Helvetica,sans-Serif" font-size="10.00">&lt; int, Scriptable * &gt;</text>
</g>
<!-- Node8&#45;&gt;Node6 -->
<g id="edge8" class="edge"><title>Node8&#45;&gt;Node6</title>
<path fill="none" stroke="#9a32cd" stroke-dasharray="5,2" d="M127.792,-83C178.211,-83 248.143,-83 289.761,-83"/>
<polygon fill="#9a32cd" stroke="#9a32cd" points="127.665,-79.5001 117.665,-83 127.665,-86.5001 127.665,-79.5001"/>
<text text-anchor="middle" x="182" y="-86" font-family="Helvetica,sans-Serif" font-size="10.00"> m_scriptables</text>
</g>
<!-- Node9 -->
<g id="node9" class="node"><title>Node9</title>
<g id="a_node9"><a xlink:href="class_world.html" target="_top" xlink:title="World">
<polygon fill="white" stroke="red" points="45,-0.5 45,-19.5 87,-19.5 87,-0.5 45,-0.5"/>
<text text-anchor="middle" x="66" y="-7.5" font-family="Helvetica,sans-Serif" font-size="10.00">World</text>
</a>
</g>
</g>
<!-- Node9&#45;&gt;Node6 -->
<g id="edge9" class="edge"><title>Node9&#45;&gt;Node6</title>
<path fill="none" stroke="#9a32cd" stroke-dasharray="5,2" d="M97.1307,-18.5254C145.618,-32.2447 240.638,-59.1302 291.304,-73.4659"/>
<polygon fill="#9a32cd" stroke="#9a32cd" points="97.82,-15.083 87.2448,-15.7282 95.9142,-21.8186 97.82,-15.083"/>
<text text-anchor="middle" x="182" y="-54" font-family="Helvetica,sans-Serif" font-size="10.00"> m_world</text>
</g>
<!-- Node9&#45;&gt;Node9 -->
<g id="edge10" class="edge"><title>Node9&#45;&gt;Node9</title>
<path fill="none" stroke="#9a32cd" stroke-dasharray="5,2" d="M44.5196,-29.4C45.9541,-34.3146 53.1143,-38 66,-38 86.6172,-38 92.5768,-28.5653 83.879,-19.7571"/>
<polygon fill="#9a32cd" stroke="#9a32cd" points="47.901,-30.3496 48.121,-19.7571 41.3434,-27.9004 47.901,-30.3496"/>
<text text-anchor="middle" x="66" y="-41" font-family="Helvetica,sans-Serif" font-size="10.00"> s_instance</text>
</g>
<!-- Node10&#45;&gt;Node1 -->
<g id="edge11" class="edge"><title>Node10&#45;&gt;Node1</title>
<path fill="none" stroke="#9a32cd" stroke-dasharray="5,2" d="M626.63,-140C664.65,-140 714.013,-140 743.783,-140"/>
<polygon fill="#9a32cd" stroke="#9a32cd" points="626.233,-136.5 616.232,-140 626.232,-143.5 626.233,-136.5"/>
<text text-anchor="middle" x="662" y="-143" font-family="Helvetica,sans-Serif" font-size="10.00"> m_script</text>
</g>
<!-- Node11 -->
<g id="node11" class="node"><title>Node11</title>
<g id="a_node11"><a xlink:href="class_script.html" target="_top" xlink:title="Script">
<polygon fill="white" stroke="red" points="305,-167.5 305,-186.5 347,-186.5 347,-167.5 305,-167.5"/>
<text text-anchor="middle" x="326" y="-174.5" font-family="Helvetica,sans-Serif" font-size="10.00">Script</text>
</a>
</g>
</g>
<!-- Node11&#45;&gt;Node10 -->
<g id="edge12" class="edge"><title>Node11&#45;&gt;Node10</title>
<path fill="none" stroke="midnightblue" d="M357.127,-174.509C393.534,-171.239 456.564,-164.745 510,-155 518.261,-153.493 527.071,-151.536 535.353,-149.536"/>
<polygon fill="midnightblue" stroke="midnightblue" points="356.814,-171.023 347.158,-175.383 357.426,-177.996 356.814,-171.023"/>
</g>
<!-- Node12 -->
<g id="node12" class="node"><title>Node12</title>
<polygon fill="white" stroke="#bfbfbf" points="287.5,-129.5 287.5,-148.5 364.5,-148.5 364.5,-129.5 287.5,-129.5"/>
<text text-anchor="middle" x="326" y="-136.5" font-family="Helvetica,sans-Serif" font-size="10.00">std::list&lt; int &gt;</text>
</g>
<!-- Node12&#45;&gt;Node10 -->
<g id="edge14" class="edge"><title>Node12&#45;&gt;Node10</title>
<path fill="none" stroke="#9a32cd" stroke-dasharray="5,2" d="M374.835,-139.196C419.215,-139.378 484.697,-139.646 527.598,-139.822"/>
<polygon fill="#9a32cd" stroke="#9a32cd" points="374.605,-135.695 364.59,-139.154 374.576,-142.695 374.605,-135.695"/>
<text text-anchor="middle" x="474" y="-143" font-family="Helvetica,sans-Serif" font-size="10.00"> m_locals</text>
</g>
</g>
</svg>
