<?xml version="1.0" encoding="UTF-8" standalone="no"?>
<!DOCTYPE svg PUBLIC "-//W3C//DTD SVG 1.1//EN"
 "http://www.w3.org/Graphics/SVG/1.1/DTD/svg11.dtd">
<!-- Generated by graphviz version 2.36.0 (20140111.2315)
 -->
<!-- Title: ImpulseAccumulator Pages: 1 -->
<svg width="249pt" height="244pt"
 viewBox="0.00 0.00 249.00 244.00" xmlns="http://www.w3.org/2000/svg" xmlns:xlink="http://www.w3.org/1999/xlink">
<g id="graph0" class="graph" transform="scale(1 1) rotate(0) translate(4 240)">
<title>ImpulseAccumulator</title>
<polygon fill="white" stroke="none" points="-4,4 -4,-240 245,-240 245,4 -4,4"/>
<!-- Node1 -->
<g id="node1" class="node"><title>Node1</title>
<polygon fill="#bfbfbf" stroke="black" points="66.5,-0.5 66.5,-19.5 171.5,-19.5 171.5,-0.5 66.5,-0.5"/>
<text text-anchor="middle" x="119" y="-7.5" font-family="Helvetica,sans-Serif" font-size="10.00">ImpulseAccumulator</text>
</g>
<!-- Node2 -->
<g id="node2" class="node"><title>Node2</title>
<polygon fill="white" stroke="#bfbfbf" points="-0.5,-74.5 -0.5,-93.5 100.5,-93.5 100.5,-74.5 -0.5,-74.5"/>
<text text-anchor="middle" x="50" y="-81.5" font-family="Helvetica,sans-Serif" font-size="10.00">std::list&lt; Impulse &gt;</text>
</g>
<!-- Node2&#45;&gt;Node1 -->
<g id="edge1" class="edge"><title>Node2&#45;&gt;Node1</title>
<path fill="none" stroke="#9a32cd" stroke-dasharray="5,2" d="M60.3817,-65.7378C66.1398,-56.9142 73.7872,-46.314 82,-38 88.9296,-30.9849 97.8271,-24.431 105.16,-19.5373"/>
<polygon fill="#9a32cd" stroke="#9a32cd" points="57.2832,-64.091 54.9377,-74.423 63.2144,-67.8088 57.2832,-64.091"/>
<text text-anchor="middle" x="110" y="-41.5" font-family="Helvetica,sans-Serif" font-size="10.00"> m_impulses</text>
</g>
<!-- Node3 -->
<g id="node3" class="node"><title>Node3</title>
<g id="a_node3"><a xlink:href="class_impulse.html" target="_top" xlink:title="Impulse">
<polygon fill="white" stroke="red" points="91,-148.5 91,-167.5 141,-167.5 141,-148.5 91,-148.5"/>
<text text-anchor="middle" x="116" y="-155.5" font-family="Helvetica,sans-Serif" font-size="10.00">Impulse</text>
</a>
</g>
</g>
<!-- Node3&#45;&gt;Node2 -->
<g id="edge2" class="edge"><title>Node3&#45;&gt;Node2</title>
<path fill="none" stroke="#9a32cd" stroke-dasharray="5,2" d="M85.8139,-143.558C79.6878,-139.821 73.6929,-135.303 69,-130 59.5583,-119.331 54.3262,-103.285 51.8448,-93.5143"/>
<polygon fill="#9a32cd" stroke="#9a32cd" points="84.2982,-146.719 94.7467,-148.474 87.6732,-140.586 84.2982,-146.719"/>
<text text-anchor="middle" x="90.5" y="-121.5" font-family="Helvetica,sans-Serif" font-size="10.00"> elements</text>
</g>
<!-- Node5 -->
<g id="node5" class="node"><title>Node5</title>
<polygon fill="white" stroke="#bfbfbf" points="119,-69 119,-99 235,-99 235,-69 119,-69"/>
<text text-anchor="start" x="127" y="-87" font-family="Helvetica,sans-Serif" font-size="10.00">std::map&lt; const Voxel</text>
<text text-anchor="middle" x="177" y="-76" font-family="Helvetica,sans-Serif" font-size="10.00"> *, Impulse &gt;</text>
</g>
<!-- Node3&#45;&gt;Node5 -->
<g id="edge6" class="edge"><title>Node3&#45;&gt;Node5</title>
<path fill="none" stroke="#9a32cd" stroke-dasharray="5,2" d="M114.515,-137.813C114.85,-131.092 116.259,-123.785 120,-118 125.092,-110.127 132.77,-103.912 140.855,-99.1"/>
<polygon fill="#9a32cd" stroke="#9a32cd" points="111.025,-138.279 114.742,-148.2 118.023,-138.126 111.025,-138.279"/>
<text text-anchor="middle" x="141.5" y="-121.5" font-family="Helvetica,sans-Serif" font-size="10.00"> elements</text>
</g>
<!-- Node4 -->
<g id="node4" class="node"><title>Node4</title>
<g id="a_node4"><a xlink:href="class_voxel.html" target="_top" xlink:title="Voxel">
<polygon fill="white" stroke="red" points="127.5,-216.5 127.5,-235.5 168.5,-235.5 168.5,-216.5 127.5,-216.5"/>
<text text-anchor="middle" x="148" y="-223.5" font-family="Helvetica,sans-Serif" font-size="10.00">Voxel</text>
</a>
</g>
</g>
<!-- Node4&#45;&gt;Node3 -->
<g id="edge3" class="edge"><title>Node4&#45;&gt;Node3</title>
<path fill="none" stroke="#9a32cd" stroke-dasharray="5,2" d="M131.248,-208.844C128.485,-205.485 125.905,-201.802 124,-198 119.17,-188.36 117.256,-175.987 116.497,-167.791"/>
<polygon fill="#9a32cd" stroke="#9a32cd" points="128.868,-211.426 138.216,-216.413 134.018,-206.685 128.868,-211.426"/>
<text text-anchor="middle" x="143.5" y="-189.5" font-family="Helvetica,sans-Serif" font-size="10.00"> m_voxel</text>
</g>
<!-- Node4&#45;&gt;Node5 -->
<g id="edge5" class="edge"><title>Node4&#45;&gt;Node5</title>
<path fill="none" stroke="#9a32cd" stroke-dasharray="5,2" d="M159.011,-207.43C160.558,-204.374 161.969,-201.161 163,-198 174.153,-163.794 176.524,-121.111 176.963,-99.2929"/>
<polygon fill="#9a32cd" stroke="#9a32cd" points="155.813,-205.973 153.904,-216.394 161.895,-209.438 155.813,-205.973"/>
<text text-anchor="middle" x="186.5" y="-155.5" font-family="Helvetica,sans-Serif" font-size="10.00"> keys</text>
</g>
<!-- Node5&#45;&gt;Node1 -->
<g id="edge4" class="edge"><title>Node5&#45;&gt;Node1</title>
<path fill="none" stroke="#9a32cd" stroke-dasharray="5,2" d="M159.008,-60.6647C147.871,-46.8394 134.19,-29.8568 126.056,-19.7589"/>
<polygon fill="#9a32cd" stroke="#9a32cd" points="156.542,-63.1832 165.541,-68.7751 161.993,-58.7919 156.542,-63.1832"/>
<text text-anchor="middle" x="195.5" y="-41.5" font-family="Helvetica,sans-Serif" font-size="10.00"> m_voxelImpulseMap</text>
</g>
</g>
</svg>
