<?xml version="1.0" encoding="UTF-8" standalone="no"?>
<!DOCTYPE svg PUBLIC "-//W3C//DTD SVG 1.1//EN"
 "http://www.w3.org/Graphics/SVG/1.1/DTD/svg11.dtd">
<!-- Generated by graphviz version 2.36.0 (20140111.2315)
 -->
<!-- Title: ColorCoder Pages: 1 -->
<svg width="155pt" height="208pt"
 viewBox="0.00 0.00 155.00 208.00" xmlns="http://www.w3.org/2000/svg" xmlns:xlink="http://www.w3.org/1999/xlink">
<g id="graph0" class="graph" transform="scale(1 1) rotate(0) translate(4 204)">
<title>ColorCoder</title>
<polygon fill="white" stroke="none" points="-4,4 -4,-204 151,-204 151,4 -4,4"/>
<!-- Node1 -->
<g id="node1" class="node"><title>Node1</title>
<polygon fill="#bfbfbf" stroke="black" points="29.5,-0.5 29.5,-19.5 94.5,-19.5 94.5,-0.5 29.5,-0.5"/>
<text text-anchor="middle" x="62" y="-7.5" font-family="Helvetica,sans-Serif" font-size="10.00">ColorCoder</text>
</g>
<!-- Node2 -->
<g id="node2" class="node"><title>Node2</title>
<g id="a_node2"><a xlink:href="class_property.html" target="_top" xlink:title="Property\&lt; uint32_t \&gt;">
<polygon fill="white" stroke="black" points="9,-112.5 9,-131.5 115,-131.5 115,-112.5 9,-112.5"/>
<text text-anchor="middle" x="62" y="-119.5" font-family="Helvetica,sans-Serif" font-size="10.00">Property&lt; uint32_t &gt;</text>
</a>
</g>
</g>
<!-- Node2&#45;&gt;Node1 -->
<g id="edge1" class="edge"><title>Node2&#45;&gt;Node1</title>
<path fill="none" stroke="#9a32cd" stroke-dasharray="5,2" d="M62,-102.348C62,-78.2538 62,-37.3079 62,-19.5914"/>
<polygon fill="#9a32cd" stroke="#9a32cd" points="58.5001,-102.368 62,-112.368 65.5001,-102.369 58.5001,-102.368"/>
<text text-anchor="middle" x="104.5" y="-85.5" font-family="Helvetica,sans-Serif" font-size="10.00"> m_crucialPrefix</text>
<text text-anchor="middle" x="104.5" y="-74.5" font-family="Helvetica,sans-Serif" font-size="10.00">m_cockpitPrefix</text>
<text text-anchor="middle" x="104.5" y="-63.5" font-family="Helvetica,sans-Serif" font-size="10.00">m_hardpointPrefix</text>
<text text-anchor="middle" x="104.5" y="-52.5" font-family="Helvetica,sans-Serif" font-size="10.00">m_engineSlotPrefix</text>
<text text-anchor="middle" x="104.5" y="-41.5" font-family="Helvetica,sans-Serif" font-size="10.00">m_fuelPrefix</text>
</g>
<!-- Node3 -->
<g id="node3" class="node"><title>Node3</title>
<g id="a_node3"><a xlink:href="class_property_impl.html" target="_top" xlink:title="PropertyImpl\&lt; uint32_t \&gt;">
<polygon fill="white" stroke="red" points="0,-180.5 0,-199.5 124,-199.5 124,-180.5 0,-180.5"/>
<text text-anchor="middle" x="62" y="-187.5" font-family="Helvetica,sans-Serif" font-size="10.00">PropertyImpl&lt; uint32_t &gt;</text>
</a>
</g>
</g>
<!-- Node3&#45;&gt;Node2 -->
<g id="edge2" class="edge"><title>Node3&#45;&gt;Node2</title>
<path fill="none" stroke="#9a32cd" stroke-dasharray="5,2" d="M62,-170.041C62,-157.472 62,-141.563 62,-131.841"/>
<polygon fill="#9a32cd" stroke="#9a32cd" points="58.5001,-170.372 62,-180.372 65.5001,-170.372 58.5001,-170.372"/>
<text text-anchor="middle" x="79.5" y="-153.5" font-family="Helvetica,sans-Serif" font-size="10.00"> m_impl</text>
</g>
</g>
</svg>
