<?xml version="1.0" encoding="UTF-8" standalone="no"?>
<!DOCTYPE svg PUBLIC "-//W3C//DTD SVG 1.1//EN"
 "http://www.w3.org/Graphics/SVG/1.1/DTD/svg11.dtd">
<!-- Generated by graphviz version 2.36.0 (20140111.2315)
 -->
<!-- Title: Damager Pages: 1 -->
<svg width="1006pt" height="212pt"
 viewBox="0.00 0.00 1006.00 212.50" xmlns="http://www.w3.org/2000/svg" xmlns:xlink="http://www.w3.org/1999/xlink">
<g id="graph0" class="graph" transform="scale(1 1) rotate(0) translate(4 208.499)">
<title>Damager</title>
<polygon fill="white" stroke="none" points="-4,4 -4,-208.499 1002,-208.499 1002,4 -4,4"/>
<!-- Node1 -->
<g id="node1" class="node"><title>Node1</title>
<polygon fill="#bfbfbf" stroke="black" points="942,-81.9995 942,-100.999 998,-100.999 998,-81.9995 942,-81.9995"/>
<text text-anchor="middle" x="970" y="-88.9995" font-family="Helvetica,sans-Serif" font-size="10.00">Damager</text>
</g>
<!-- Node2 -->
<g id="node2" class="node"><title>Node2</title>
<polygon fill="white" stroke="#bfbfbf" points="601,-171.999 601,-190.999 733,-190.999 733,-171.999 601,-171.999"/>
<text text-anchor="middle" x="667" y="-178.999" font-family="Helvetica,sans-Serif" font-size="10.00">std::list&lt; DamageImpact &gt;</text>
</g>
<!-- Node2&#45;&gt;Node1 -->
<g id="edge1" class="edge"><title>Node2&#45;&gt;Node1</title>
<path fill="none" stroke="#9a32cd" stroke-dasharray="5,2" d="M743.117,-184.358C796.643,-183.246 868.624,-175.126 924,-144.499 942.379,-134.335 956.563,-113.503 963.764,-101.201"/>
<polygon fill="#9a32cd" stroke="#9a32cd" points="742.961,-180.86 733.007,-184.49 743.052,-187.859 742.961,-180.86"/>
<text text-anchor="middle" x="848" y="-196.499" font-family="Helvetica,sans-Serif" font-size="10.00"> m_dampedDeadlyDamageImpacts</text>
<text text-anchor="middle" x="848" y="-185.499" font-family="Helvetica,sans-Serif" font-size="10.00">m_deadlyDamageImpacts</text>
</g>
<!-- Node3 -->
<g id="node3" class="node"><title>Node3</title>
<g id="a_node3"><a xlink:href="class_damage_impact.html" target="_top" xlink:title="DamageImpact">
<polygon fill="white" stroke="black" points="374,-176.999 374,-195.999 456,-195.999 456,-176.999 374,-176.999"/>
<text text-anchor="middle" x="415" y="-183.999" font-family="Helvetica,sans-Serif" font-size="10.00">DamageImpact</text>
</a>
</g>
</g>
<!-- Node3&#45;&gt;Node2 -->
<g id="edge2" class="edge"><title>Node3&#45;&gt;Node2</title>
<path fill="none" stroke="#9a32cd" stroke-dasharray="5,2" d="M466.64,-185.487C505.249,-184.714 558.726,-183.645 600.576,-182.808"/>
<polygon fill="#9a32cd" stroke="#9a32cd" points="466.095,-181.997 456.167,-185.696 466.235,-188.995 466.095,-181.997"/>
<text text-anchor="middle" x="528" y="-187.499" font-family="Helvetica,sans-Serif" font-size="10.00"> elements</text>
</g>
<!-- Node4 -->
<g id="node4" class="node"><title>Node4</title>
<g id="a_node4"><a xlink:href="class_voxel.html" target="_top" xlink:title="Voxel">
<polygon fill="white" stroke="red" points="0.5,-137.999 0.5,-156.999 41.5,-156.999 41.5,-137.999 0.5,-137.999"/>
<text text-anchor="middle" x="21" y="-144.999" font-family="Helvetica,sans-Serif" font-size="10.00">Voxel</text>
</a>
</g>
</g>
<!-- Node4&#45;&gt;Node3 -->
<g id="edge3" class="edge"><title>Node4&#45;&gt;Node3</title>
<path fill="none" stroke="#9a32cd" stroke-dasharray="5,2" d="M51.3989,-159.833C54.2775,-160.82 57.1772,-161.73 60,-162.499 178.96,-194.91 212.744,-193.658 336,-190.499 348.335,-190.183 361.757,-189.587 373.934,-188.949"/>
<polygon fill="#9a32cd" stroke="#9a32cd" points="52.4289,-156.482 41.836,-156.281 49.9914,-163.044 52.4289,-156.482"/>
<text text-anchor="middle" x="184" y="-193.499" font-family="Helvetica,sans-Serif" font-size="10.00"> m_voxel</text>
</g>
<!-- Node5 -->
<g id="node5" class="node"><title>Node5</title>
<g id="a_node5"><a xlink:href="class_world_object.html" target="_top" xlink:title="WorldObject">
<polygon fill="white" stroke="red" points="148.5,-137.999 148.5,-156.999 219.5,-156.999 219.5,-137.999 148.5,-137.999"/>
<text text-anchor="middle" x="184" y="-144.999" font-family="Helvetica,sans-Serif" font-size="10.00">WorldObject</text>
</a>
</g>
</g>
<!-- Node4&#45;&gt;Node5 -->
<g id="edge5" class="edge"><title>Node4&#45;&gt;Node5</title>
<path fill="none" stroke="#9a32cd" stroke-dasharray="5,2" d="M51.8794,-147.499C79.2228,-147.499 119.679,-147.499 148.412,-147.499"/>
<polygon fill="#9a32cd" stroke="#9a32cd" points="51.7418,-144 41.7418,-147.499 51.7417,-151 51.7418,-144"/>
<text text-anchor="middle" x="95" y="-150.499" font-family="Helvetica,sans-Serif" font-size="10.00"> m_crucialVoxel</text>
</g>
<!-- Node10 -->
<g id="node10" class="node"><title>Node10</title>
<polygon fill="white" stroke="#bfbfbf" points="238,-61.9995 238,-80.9995 336,-80.9995 336,-61.9995 238,-61.9995"/>
<text text-anchor="middle" x="287" y="-68.9995" font-family="Helvetica,sans-Serif" font-size="10.00">std::list&lt; Voxel * &gt;</text>
</g>
<!-- Node4&#45;&gt;Node10 -->
<g id="edge13" class="edge"><title>Node4&#45;&gt;Node10</title>
<path fill="none" stroke="#9a32cd" stroke-dasharray="5,2" d="M51.0076,-135.664C54.0274,-134.547 57.0648,-133.471 60,-132.499 123.849,-111.355 199.598,-92.0552 245.176,-81.0521"/>
<polygon fill="#9a32cd" stroke="#9a32cd" points="49.6488,-132.436 41.5686,-139.289 52.1586,-138.971 49.6488,-132.436"/>
<text text-anchor="middle" x="95" y="-135.499" font-family="Helvetica,sans-Serif" font-size="10.00"> elements</text>
</g>
<!-- Node5&#45;&gt;Node3 -->
<g id="edge4" class="edge"><title>Node5&#45;&gt;Node3</title>
<path fill="none" stroke="#9a32cd" stroke-dasharray="5,2" d="M229.791,-156.949C232.566,-157.487 235.319,-158.008 238,-158.499 284.411,-167.003 337.983,-175.311 373.715,-180.64"/>
<polygon fill="#9a32cd" stroke="#9a32cd" points="230.226,-153.468 219.736,-154.952 228.862,-160.333 230.226,-153.468"/>
<text text-anchor="middle" x="287" y="-178.499" font-family="Helvetica,sans-Serif" font-size="10.00"> m_worldObject</text>
</g>
<!-- Node8 -->
<g id="node8" class="node"><title>Node8</title>
<polygon fill="white" stroke="#bfbfbf" points="595,-120.499 595,-150.499 739,-150.499 739,-120.499 595,-120.499"/>
<text text-anchor="start" x="603" y="-138.499" font-family="Helvetica,sans-Serif" font-size="10.00">std::map&lt; WorldObject</text>
<text text-anchor="middle" x="667" y="-127.499" font-family="Helvetica,sans-Serif" font-size="10.00"> *, WorldObjectModification &gt;</text>
</g>
<!-- Node5&#45;&gt;Node8 -->
<g id="edge11" class="edge"><title>Node5&#45;&gt;Node8</title>
<path fill="none" stroke="#9a32cd" stroke-dasharray="5,2" d="M229.788,-146.382C313.507,-144.293 494.323,-139.782 594.885,-137.274"/>
<polygon fill="#9a32cd" stroke="#9a32cd" points="229.502,-142.888 219.592,-146.636 229.677,-149.886 229.502,-142.888"/>
<text text-anchor="middle" x="415" y="-146.499" font-family="Helvetica,sans-Serif" font-size="10.00"> keys</text>
</g>
<!-- Node9 -->
<g id="node9" class="node"><title>Node9</title>
<g id="a_node9"><a xlink:href="class_world_object_modification.html" target="_top" xlink:title="WorldObjectModification">
<polygon fill="white" stroke="red" points="354,-91.9995 354,-110.999 476,-110.999 476,-91.9995 354,-91.9995"/>
<text text-anchor="middle" x="415" y="-98.9995" font-family="Helvetica,sans-Serif" font-size="10.00">WorldObjectModification</text>
</a>
</g>
</g>
<!-- Node5&#45;&gt;Node9 -->
<g id="edge10" class="edge"><title>Node5&#45;&gt;Node9</title>
<path fill="none" stroke="#9a32cd" stroke-dasharray="5,2" d="M210.646,-133.368C219.129,-129.251 228.764,-125.153 238,-122.499 275.709,-111.666 319.514,-106.415 353.988,-103.872"/>
<polygon fill="#9a32cd" stroke="#9a32cd" points="208.968,-130.294 201.641,-137.946 212.141,-136.534 208.968,-130.294"/>
<text text-anchor="middle" x="287" y="-125.499" font-family="Helvetica,sans-Serif" font-size="10.00"> m_worldObject</text>
</g>
<!-- Node6 -->
<g id="node6" class="node"><title>Node6</title>
<g id="a_node6"><a xlink:href="class_property.html" target="_top" xlink:title="Property\&lt; bool \&gt;">
<polygon fill="white" stroke="black" points="622.5,-5.99946 622.5,-24.9995 711.5,-24.9995 711.5,-5.99946 622.5,-5.99946"/>
<text text-anchor="middle" x="667" y="-12.9995" font-family="Helvetica,sans-Serif" font-size="10.00">Property&lt; bool &gt;</text>
</a>
</g>
</g>
<!-- Node6&#45;&gt;Node1 -->
<g id="edge6" class="edge"><title>Node6&#45;&gt;Node1</title>
<path fill="none" stroke="#9a32cd" stroke-dasharray="5,2" d="M721.989,-5.28448C776.469,2.18244 861.283,5.81516 924,-28.4995 945.461,-40.2414 959.151,-67.13 965.273,-81.6938"/>
<polygon fill="#9a32cd" stroke="#9a32cd" points="721.236,-1.85727 711.847,-6.76683 722.248,-8.78367 721.236,-1.85727"/>
<text text-anchor="middle" x="848" y="-31.4995" font-family="Helvetica,sans-Serif" font-size="10.00"> m_playerShipUndestroyable</text>
</g>
<!-- Node7 -->
<g id="node7" class="node"><title>Node7</title>
<g id="a_node7"><a xlink:href="class_property_impl.html" target="_top" xlink:title="PropertyImpl\&lt; bool \&gt;">
<polygon fill="white" stroke="red" points="361.5,-5.99946 361.5,-24.9995 468.5,-24.9995 468.5,-5.99946 361.5,-5.99946"/>
<text text-anchor="middle" x="415" y="-12.9995" font-family="Helvetica,sans-Serif" font-size="10.00">PropertyImpl&lt; bool &gt;</text>
</a>
</g>
</g>
<!-- Node7&#45;&gt;Node6 -->
<g id="edge7" class="edge"><title>Node7&#45;&gt;Node6</title>
<path fill="none" stroke="#9a32cd" stroke-dasharray="5,2" d="M478.879,-15.4995C523.557,-15.4995 582.431,-15.4995 622.112,-15.4995"/>
<polygon fill="#9a32cd" stroke="#9a32cd" points="478.713,-11.9996 468.713,-15.4995 478.713,-18.9996 478.713,-11.9996"/>
<text text-anchor="middle" x="528" y="-18.4995" font-family="Helvetica,sans-Serif" font-size="10.00"> m_impl</text>
</g>
<!-- Node8&#45;&gt;Node1 -->
<g id="edge8" class="edge"><title>Node8&#45;&gt;Node1</title>
<path fill="none" stroke="#9a32cd" stroke-dasharray="5,2" d="M749.254,-130.651C799.939,-126.556 866.283,-119.241 924,-106.499 930.433,-105.079 937.24,-103.082 943.559,-101.007"/>
<polygon fill="#9a32cd" stroke="#9a32cd" points="748.706,-127.183 739.009,-131.452 749.252,-134.162 748.706,-127.183"/>
<text text-anchor="middle" x="848" y="-132.499" font-family="Helvetica,sans-Serif" font-size="10.00"> m_worldObjectModificationMap</text>
</g>
<!-- Node9&#45;&gt;Node8 -->
<g id="edge9" class="edge"><title>Node9&#45;&gt;Node8</title>
<path fill="none" stroke="#9a32cd" stroke-dasharray="5,2" d="M486.479,-111.085C520.334,-115.689 560.826,-121.196 594.778,-125.813"/>
<polygon fill="#9a32cd" stroke="#9a32cd" points="486.58,-107.566 476.199,-109.687 485.636,-114.502 486.58,-107.566"/>
<text text-anchor="middle" x="528" y="-124.499" font-family="Helvetica,sans-Serif" font-size="10.00"> elements</text>
</g>
<!-- Node11 -->
<g id="node11" class="node"><title>Node11</title>
<polygon fill="white" stroke="#bfbfbf" points="580.5,-81.9995 580.5,-100.999 753.5,-100.999 753.5,-81.9995 580.5,-81.9995"/>
<text text-anchor="middle" x="667" y="-88.9995" font-family="Helvetica,sans-Serif" font-size="10.00">std::list&lt; WorldObjectModification &gt;</text>
</g>
<!-- Node9&#45;&gt;Node11 -->
<g id="edge15" class="edge"><title>Node9&#45;&gt;Node11</title>
<path fill="none" stroke="#9a32cd" stroke-dasharray="5,2" d="M475.952,-90.4834C482.032,-89.674 488.128,-88.9855 494,-88.4995 521.978,-86.1839 552.6,-85.9733 580.152,-86.6341"/>
<polygon fill="#9a32cd" stroke="#9a32cd" points="475.18,-87.0584 465.779,-91.9453 476.175,-93.9872 475.18,-87.0584"/>
<text text-anchor="middle" x="528" y="-91.4995" font-family="Helvetica,sans-Serif" font-size="10.00"> elements</text>
</g>
<!-- Node10&#45;&gt;Node1 -->
<g id="edge12" class="edge"><title>Node10&#45;&gt;Node1</title>
<path fill="none" stroke="#9a32cd" stroke-dasharray="5,2" d="M346.421,-69.9603C434.73,-68.0103 607.465,-65.6649 754,-72.4995 821.75,-75.6595 901.175,-83.849 941.897,-88.3763"/>
<polygon fill="#9a32cd" stroke="#9a32cd" points="346.254,-66.4631 336.336,-70.1894 346.413,-73.4613 346.254,-66.4631"/>
<text text-anchor="middle" x="528" y="-71.4995" font-family="Helvetica,sans-Serif" font-size="10.00"> m_deadVoxels</text>
</g>
<!-- Node11&#45;&gt;Node1 -->
<g id="edge14" class="edge"><title>Node11&#45;&gt;Node1</title>
<path fill="none" stroke="#9a32cd" stroke-dasharray="5,2" d="M764.035,-91.4995C825.848,-91.4995 901.83,-91.4995 941.663,-91.4995"/>
<polygon fill="#9a32cd" stroke="#9a32cd" points="763.852,-87.9996 753.852,-91.4995 763.852,-94.9996 763.852,-87.9996"/>
<text text-anchor="middle" x="848" y="-94.4995" font-family="Helvetica,sans-Serif" font-size="10.00"> m_worldObjectModifications</text>
</g>
</g>
</svg>
