<?xml version="1.0" encoding="UTF-8" standalone="no"?>
<!DOCTYPE svg PUBLIC "-//W3C//DTD SVG 1.1//EN"
 "http://www.w3.org/Graphics/SVG/1.1/DTD/svg11.dtd">
<!-- Generated by graphviz version 2.36.0 (20140111.2315)
 -->
<!-- Title: BaseScenario Pages: 1 -->
<!--zoomable 515 -->
<svg id="main" version="1.1" xmlns="http://www.w3.org/2000/svg" xmlns:xlink="http://www.w3.org/1999/xlink" xml:space="preserve" onload="init(evt)">
<style type="text/css"><![CDATA[
.edge:hover path { stroke: red; }
.edge:hover polygon { stroke: red; fill: red; }
]]></style>
<script type="text/javascript"><![CDATA[
var edges = document.getElementsByTagName('g');
if (edges && edges.length) {
  for (var i=0;i<edges.length;i++) {
    if (edges[i].id.substr(0,4)=='edge') {
      edges[i].setAttribute('class','edge');
    }
  }
}
]]></script>
        <defs>
                <circle id="rim" cx="0" cy="0" r="7"/>
                <circle id="rim2" cx="0" cy="0" r="3.5"/>
                <g id="zoomPlus">
                        <use xlink:href="#rim" fill="#404040">
                                <set attributeName="fill" to="#808080" begin="zoomplus.mouseover" end="zoomplus.mouseout"/>
                        </use>
                        <path d="M-4,0h8M0,-4v8" fill="none" stroke="white" stroke-width="1.5" pointer-events="none"/>
                </g>
                <g id="zoomMin">
                        <use xlink:href="#rim" fill="#404040">
                                <set attributeName="fill" to="#808080" begin="zoomminus.mouseover" end="zoomminus.mouseout"/>
                        </use>
                        <path d="M-4,0h8" fill="none" stroke="white" stroke-width="1.5" pointer-events="none"/>
                </g>
                <g id="dirArrow">
                        <path fill="none" stroke="white" stroke-width="1.5" d="M0,-3.0v7 M-2.5,-0.5L0,-3.0L2.5,-0.5"/>
                </g>
               <g id="resetDef">
                       <use xlink:href="#rim2" fill="#404040">
                               <set attributeName="fill" to="#808080" begin="reset.mouseover" end="reset.mouseout"/>
                       </use>
               </g>
        </defs>

<script type="text/javascript">
var viewWidth = 1052;
var viewHeight = 515;
var sectionId = 'dynsection-1';
</script>
<script xlink:href="svgpan.js"/>
<svg id="graph" class="graph">
<g id="viewport">
<title>BaseScenario</title>
<polygon fill="white" stroke="none" points="-4,4 -4,-511 1048,-511 1048,4 -4,4"/>
<!-- Node1 -->
<g id="node1" class="node"><title>Node1</title>
<polygon fill="#bfbfbf" stroke="black" points="396.5,-242.5 396.5,-261.5 473.5,-261.5 473.5,-242.5 396.5,-242.5"/>
<text text-anchor="middle" x="435" y="-249.5" font-family="Helvetica,sans-Serif" font-size="10.00">BaseScenario</text>
</g>
<!-- Node6 -->
<g id="node6" class="node"><title>Node6</title>
<polygon fill="white" stroke="#bfbfbf" points="526,-170.5 526,-189.5 686,-189.5 686,-170.5 526,-170.5"/>
<text text-anchor="middle" x="606" y="-177.5" font-family="Helvetica,sans-Serif" font-size="10.00">std::unique_ptr&lt; BaseScenario &gt;</text>
</g>
<!-- Node1&#45;&gt;Node6 -->
<g id="edge10" class="edge"><title>Node1&#45;&gt;Node6</title>
<path fill="none" stroke="#9a32cd" stroke-dasharray="5,2" d="M457.805,-236.662C475.468,-224.866 501.376,-208.953 526,-199 535.286,-195.247 545.497,-192.114 555.407,-189.546"/>
<polygon fill="#9a32cd" stroke="#9a32cd" points="455.669,-233.881 449.371,-242.401 459.607,-239.669 455.669,-233.881"/>
<text text-anchor="middle" x="500" y="-219" font-family="Helvetica,sans-Serif" font-size="10.00"> ptr</text>
</g>
<!-- Node2 -->
<g id="node2" class="node"><title>Node2</title>
<g id="a_node2"><a xlink:href="class_game_play.html" target="_top" xlink:title="GamePlay">
<polygon fill="white" stroke="black" points="776,-261.5 776,-280.5 838,-280.5 838,-261.5 776,-261.5"/>
<text text-anchor="middle" x="807" y="-268.5" font-family="Helvetica,sans-Serif" font-size="10.00">GamePlay</text>
</a>
</g>
</g>
<!-- Node2&#45;&gt;Node1 -->
<g id="edge1" class="edge"><title>Node2&#45;&gt;Node1</title>
<path fill="none" stroke="#9a32cd" stroke-dasharray="5,2" d="M765.729,-268.932C693.642,-265.23 543.557,-257.523 473.514,-253.926"/>
<polygon fill="#9a32cd" stroke="#9a32cd" points="765.614,-272.431 775.78,-269.448 765.973,-265.44 765.614,-272.431"/>
<text text-anchor="middle" x="606" y="-268" font-family="Helvetica,sans-Serif" font-size="10.00"> m_gamePlay</text>
</g>
<!-- Node4 -->
<g id="node4" class="node"><title>Node4</title>
<g id="a_node4"><a xlink:href="class_game.html" target="_top" xlink:title="Game">
<polygon fill="white" stroke="red" points="973.5,-383.5 973.5,-402.5 1016.5,-402.5 1016.5,-383.5 973.5,-383.5"/>
<text text-anchor="middle" x="995" y="-390.5" font-family="Helvetica,sans-Serif" font-size="10.00">Game</text>
</a>
</g>
</g>
<!-- Node2&#45;&gt;Node4 -->
<g id="edge6" class="edge"><title>Node2&#45;&gt;Node4</title>
<path fill="none" stroke="#9a32cd" stroke-dasharray="5,2" d="M830.049,-286.36C838.171,-291.964 847.47,-298.319 856,-304 900.134,-333.393 952.985,-367.057 978.588,-383.269"/>
<polygon fill="#9a32cd" stroke="#9a32cd" points="832.003,-283.456 821.79,-280.64 828.018,-289.21 832.003,-283.456"/>
<text text-anchor="middle" x="892" y="-354" font-family="Helvetica,sans-Serif" font-size="10.00"> m_gamePlay</text>
</g>
<!-- Node7 -->
<g id="node7" class="node"><title>Node7</title>
<g id="a_node7"><a xlink:href="class_game_play_running.html" target="_top" xlink:title="GamePlayRunning">
<polygon fill="white" stroke="red" points="946,-188.5 946,-207.5 1044,-207.5 1044,-188.5 946,-188.5"/>
<text text-anchor="middle" x="995" y="-195.5" font-family="Helvetica,sans-Serif" font-size="10.00">GamePlayRunning</text>
</a>
</g>
</g>
<!-- Node2&#45;&gt;Node7 -->
<g id="edge13" class="edge"><title>Node2&#45;&gt;Node7</title>
<path fill="none" stroke="#9a32cd" stroke-dasharray="5,2" d="M816.116,-251.921C823.879,-236.302 837.195,-215.184 856,-205 883.212,-190.263 918.04,-188.601 945.9,-190.578"/>
<polygon fill="#9a32cd" stroke="#9a32cd" points="812.836,-250.675 811.815,-261.221 819.19,-253.614 812.836,-250.675"/>
<text text-anchor="middle" x="892" y="-208" font-family="Helvetica,sans-Serif" font-size="10.00"> m_gamePlay</text>
</g>
<!-- Node8 -->
<g id="node8" class="node"><title>Node8</title>
<g id="a_node8"><a xlink:href="class_game_play_paused.html" target="_top" xlink:title="GamePlayPaused">
<polygon fill="white" stroke="red" points="947.5,-290.5 947.5,-309.5 1042.5,-309.5 1042.5,-290.5 947.5,-290.5"/>
<text text-anchor="middle" x="995" y="-297.5" font-family="Helvetica,sans-Serif" font-size="10.00">GamePlayPaused</text>
</a>
</g>
</g>
<!-- Node2&#45;&gt;Node8 -->
<g id="edge16" class="edge"><title>Node2&#45;&gt;Node8</title>
<path fill="none" stroke="#9a32cd" stroke-dasharray="5,2" d="M848.06,-263.234C871.657,-260.077 901.903,-258.508 928,-265 947.635,-269.884 967.848,-281.812 980.643,-290.386"/>
<polygon fill="#9a32cd" stroke="#9a32cd" points="847.434,-259.788 838.056,-264.718 848.461,-266.712 847.434,-259.788"/>
<text text-anchor="middle" x="892" y="-268" font-family="Helvetica,sans-Serif" font-size="10.00"> m_gamePlay</text>
</g>
<!-- Node3 -->
<g id="node3" class="node"><title>Node3</title>
<g id="a_node3"><a xlink:href="class_game_state.html" target="_top" xlink:title="GameState">
<polygon fill="white" stroke="red" points="573,-310.5 573,-329.5 639,-329.5 639,-310.5 573,-310.5"/>
<text text-anchor="middle" x="606" y="-317.5" font-family="Helvetica,sans-Serif" font-size="10.00">GameState</text>
</a>
</g>
</g>
<!-- Node3&#45;&gt;Node2 -->
<g id="edge2" class="edge"><title>Node3&#45;&gt;Node2</title>
<path fill="none" stroke="midnightblue" d="M648.917,-312.088C679.384,-306.034 721.505,-297.04 758,-287 764.86,-285.113 772.185,-282.818 778.993,-280.563"/>
<polygon fill="midnightblue" stroke="midnightblue" points="648.194,-308.663 639.056,-314.025 649.543,-315.531 648.194,-308.663"/>
</g>
<!-- Node3&#45;&gt;Node3 -->
<g id="edge3" class="edge"><title>Node3&#45;&gt;Node3</title>
<path fill="none" stroke="#9a32cd" stroke-dasharray="5,2" d="M586.371,-339.4C587.682,-344.315 594.225,-348 606,-348 624.84,-348 630.286,-338.565 622.338,-329.757"/>
<polygon fill="#9a32cd" stroke="#9a32cd" points="589.745,-340.352 589.662,-329.757 583.12,-338.091 589.745,-340.352"/>
<text text-anchor="middle" x="606" y="-351" font-family="Helvetica,sans-Serif" font-size="10.00"> m_parentGameState</text>
</g>
<!-- Node3&#45;&gt;Node4 -->
<g id="edge5" class="edge"><title>Node3&#45;&gt;Node4</title>
<path fill="none" stroke="midnightblue" d="M637.474,-333.728C683.619,-353.687 774.496,-389.774 856,-403 897.257,-409.695 946.183,-402.669 973.293,-397.481"/>
<polygon fill="midnightblue" stroke="midnightblue" points="638.624,-330.411 628.06,-329.611 635.819,-336.825 638.624,-330.411"/>
</g>
<!-- Node3&#45;&gt;Node7 -->
<g id="edge12" class="edge"><title>Node3&#45;&gt;Node7</title>
<path fill="none" stroke="midnightblue" d="M648.475,-307.233C662.278,-301.061 676.53,-292.256 686,-280 709.078,-250.13 675.492,-221.74 704,-197 780.051,-131.002 914.274,-168.736 969.358,-188.403"/>
<polygon fill="midnightblue" stroke="midnightblue" points="646.98,-304.063 639.055,-311.095 649.635,-310.54 646.98,-304.063"/>
</g>
<!-- Node3&#45;&gt;Node8 -->
<g id="edge15" class="edge"><title>Node3&#45;&gt;Node8</title>
<path fill="none" stroke="midnightblue" d="M649.445,-318.03C710.89,-315.144 828.197,-309.511 928,-304 934.304,-303.652 940.946,-303.269 947.489,-302.882"/>
<polygon fill="midnightblue" stroke="midnightblue" points="649.181,-314.538 639.356,-318.502 649.509,-321.53 649.181,-314.538"/>
</g>
<!-- Node4&#45;&gt;Node2 -->
<g id="edge4" class="edge"><title>Node4&#45;&gt;Node2</title>
<path fill="none" stroke="#9a32cd" stroke-dasharray="5,2" d="M963.007,-391.37C927.617,-388.948 872.481,-383.288 856,-371 825.432,-348.208 813.435,-300.852 809.568,-280.563"/>
<polygon fill="#9a32cd" stroke="#9a32cd" points="963.09,-394.883 973.292,-392.022 963.533,-387.897 963.09,-394.883"/>
<text text-anchor="middle" x="892" y="-391" font-family="Helvetica,sans-Serif" font-size="10.00"> m_game</text>
</g>
<!-- Node4&#45;&gt;Node4 -->
<g id="edge7" class="edge"><title>Node4&#45;&gt;Node4</title>
<path fill="none" stroke="#9a32cd" stroke-dasharray="5,2" d="M976.112,-412.4C977.373,-417.315 983.669,-421 995,-421 1013.13,-421 1018.37,-411.565 1010.72,-402.757"/>
<polygon fill="#9a32cd" stroke="#9a32cd" points="979.484,-413.35 979.279,-402.757 972.833,-411.166 979.484,-413.35"/>
<text text-anchor="middle" x="995" y="-424" font-family="Helvetica,sans-Serif" font-size="10.00"> s_instance</text>
</g>
<!-- Node5 -->
<g id="node5" class="node"><title>Node5</title>
<polygon fill="white" stroke="#bfbfbf" points="538,-209 538,-239 674,-239 674,-209 538,-209"/>
<text text-anchor="start" x="546" y="-227" font-family="Helvetica,sans-Serif" font-size="10.00">std::unique_ptr&lt; GamePlay</text>
<text text-anchor="middle" x="606" y="-216" font-family="Helvetica,sans-Serif" font-size="10.00">Scene &gt;</text>
</g>
<!-- Node5&#45;&gt;Node2 -->
<g id="edge8" class="edge"><title>Node5&#45;&gt;Node2</title>
<path fill="none" stroke="#9a32cd" stroke-dasharray="5,2" d="M684.328,-234.497C708.203,-238.624 734.414,-244.068 758,-251 767.354,-253.749 777.359,-257.739 785.8,-261.432"/>
<polygon fill="#9a32cd" stroke="#9a32cd" points="684.694,-231.01 674.253,-232.808 683.537,-237.913 684.694,-231.01"/>
<text text-anchor="middle" x="731" y="-254" font-family="Helvetica,sans-Serif" font-size="10.00"> m_scene</text>
</g>
<!-- Node6&#45;&gt;Node2 -->
<g id="edge9" class="edge"><title>Node6&#45;&gt;Node2</title>
<path fill="none" stroke="#9a32cd" stroke-dasharray="5,2" d="M676.103,-191.838C703.031,-198.514 733.294,-208.698 758,-224 774.459,-234.194 789.756,-250.93 798.476,-261.437"/>
<polygon fill="#9a32cd" stroke="#9a32cd" points="676.886,-188.427 666.349,-189.534 675.277,-195.239 676.886,-188.427"/>
<text text-anchor="middle" x="731" y="-227" font-family="Helvetica,sans-Serif" font-size="10.00"> m_scenario</text>
</g>
<!-- Node7&#45;&gt;Node2 -->
<g id="edge11" class="edge"><title>Node7&#45;&gt;Node2</title>
<path fill="none" stroke="#9a32cd" stroke-dasharray="5,2" d="M952.773,-210.602C925.028,-219.504 887.839,-232.258 856,-246 845.475,-250.542 834.081,-256.433 825.036,-261.355"/>
<polygon fill="#9a32cd" stroke="#9a32cd" points="954.067,-213.864 962.54,-207.502 951.949,-207.192 954.067,-213.864"/>
<text text-anchor="middle" x="892" y="-249" font-family="Helvetica,sans-Serif" font-size="10.00"> m_runningState</text>
</g>
<!-- Node8&#45;&gt;Node2 -->
<g id="edge14" class="edge"><title>Node8&#45;&gt;Node2</title>
<path fill="none" stroke="#9a32cd" stroke-dasharray="5,2" d="M937.037,-291.119C904.482,-286.043 864.957,-279.88 838.298,-275.724"/>
<polygon fill="#9a32cd" stroke="#9a32cd" points="936.917,-294.642 947.337,-292.725 937.996,-287.726 936.917,-294.642"/>
<text text-anchor="middle" x="892" y="-292" font-family="Helvetica,sans-Serif" font-size="10.00"> m_pausedState</text>
</g>
<!-- Node9 -->
<g id="node9" class="node"><title>Node9</title>
<g id="a_node9"><a xlink:href="class_world.html" target="_top" xlink:title="World">
<polygon fill="white" stroke="black" points="278,-242.5 278,-261.5 320,-261.5 320,-242.5 278,-242.5"/>
<text text-anchor="middle" x="299" y="-249.5" font-family="Helvetica,sans-Serif" font-size="10.00">World</text>
</a>
</g>
</g>
<!-- Node9&#45;&gt;Node1 -->
<g id="edge17" class="edge"><title>Node9&#45;&gt;Node1</title>
<path fill="none" stroke="#9a32cd" stroke-dasharray="5,2" d="M330.232,-252C349.783,-252 375.386,-252 396.267,-252"/>
<polygon fill="#9a32cd" stroke="#9a32cd" points="330.061,-248.5 320.061,-252 330.061,-255.5 330.061,-248.5"/>
<text text-anchor="middle" x="358" y="-255" font-family="Helvetica,sans-Serif" font-size="10.00"> m_world</text>
</g>
<!-- Node9&#45;&gt;Node9 -->
<g id="edge29" class="edge"><title>Node9&#45;&gt;Node9</title>
<path fill="none" stroke="#9a32cd" stroke-dasharray="5,2" d="M288.319,-271.766C289.158,-276.497 292.718,-280 299,-280 309.309,-280 312.288,-270.565 307.939,-261.757"/>
<polygon fill="#9a32cd" stroke="#9a32cd" points="291.794,-272.209 290.061,-261.757 284.898,-271.009 291.794,-272.209"/>
<text text-anchor="middle" x="299" y="-283" font-family="Helvetica,sans-Serif" font-size="10.00"> s_instance</text>
</g>
<!-- Node10 -->
<g id="node10" class="node"><title>Node10</title>
<polygon fill="white" stroke="#bfbfbf" points="6.5,-478.5 6.5,-497.5 149.5,-497.5 149.5,-478.5 6.5,-478.5"/>
<text text-anchor="middle" x="78" y="-485.5" font-family="Helvetica,sans-Serif" font-size="10.00">std::unique_ptr&lt; WorldTree &gt;</text>
</g>
<!-- Node10&#45;&gt;Node9 -->
<g id="edge18" class="edge"><title>Node10&#45;&gt;Node9</title>
<path fill="none" stroke="#9a32cd" stroke-dasharray="5,2" d="M159.511,-497.598C194.616,-497.255 233.677,-490.034 260,-465 289.941,-436.525 296.485,-299.685 297.733,-261.762"/>
<polygon fill="#9a32cd" stroke="#9a32cd" points="159.277,-494.096 149.247,-497.509 159.216,-501.096 159.277,-494.096"/>
<text text-anchor="middle" x="217" y="-499" font-family="Helvetica,sans-Serif" font-size="10.00"> m_worldTree</text>
</g>
<!-- Node11 -->
<g id="node11" class="node"><title>Node11</title>
<polygon fill="white" stroke="#bfbfbf" points="29,-429 29,-459 127,-459 127,-429 29,-429"/>
<text text-anchor="start" x="37" y="-447" font-family="Helvetica,sans-Serif" font-size="10.00">std::unordered_set</text>
<text text-anchor="middle" x="78" y="-436" font-family="Helvetica,sans-Serif" font-size="10.00">&lt; WorldObject * &gt;</text>
</g>
<!-- Node11&#45;&gt;Node9 -->
<g id="edge19" class="edge"><title>Node11&#45;&gt;Node9</title>
<path fill="none" stroke="#9a32cd" stroke-dasharray="5,2" d="M137.208,-451.39C176.699,-453.015 227.453,-447.971 260,-418 283.38,-396.471 294.292,-294.018 297.187,-261.753"/>
<polygon fill="#9a32cd" stroke="#9a32cd" points="137.352,-447.893 127.171,-450.826 136.959,-454.881 137.352,-447.893"/>
<text text-anchor="middle" x="217" y="-453" font-family="Helvetica,sans-Serif" font-size="10.00"> m_worldObjects</text>
</g>
<!-- Node12 -->
<g id="node12" class="node"><title>Node12</title>
<polygon fill="white" stroke="#bfbfbf" points="14.5,-390.5 14.5,-409.5 141.5,-409.5 141.5,-390.5 14.5,-390.5"/>
<text text-anchor="middle" x="78" y="-397.5" font-family="Helvetica,sans-Serif" font-size="10.00">std::unique_ptr&lt; Player &gt;</text>
</g>
<!-- Node12&#45;&gt;Node9 -->
<g id="edge20" class="edge"><title>Node12&#45;&gt;Node9</title>
<path fill="none" stroke="#9a32cd" stroke-dasharray="5,2" d="M151.638,-405.291C188.057,-404.093 230.557,-396.322 260,-371 293.215,-342.434 297.672,-284.857 298.075,-261.838"/>
<polygon fill="#9a32cd" stroke="#9a32cd" points="151.482,-401.793 141.543,-405.464 151.602,-408.792 151.482,-401.793"/>
<text text-anchor="middle" x="217" y="-406" font-family="Helvetica,sans-Serif" font-size="10.00"> m_player</text>
</g>
<!-- Node13 -->
<g id="node13" class="node"><title>Node13</title>
<polygon fill="white" stroke="#bfbfbf" points="4,-352.5 4,-371.5 152,-371.5 152,-352.5 4,-352.5"/>
<text text-anchor="middle" x="78" y="-359.5" font-family="Helvetica,sans-Serif" font-size="10.00">std::unique_ptr&lt; WorldLogic &gt;</text>
</g>
<!-- Node13&#45;&gt;Node9 -->
<g id="edge21" class="edge"><title>Node13&#45;&gt;Node9</title>
<path fill="none" stroke="#9a32cd" stroke-dasharray="5,2" d="M162.387,-357.756C195.435,-352.546 232.119,-341.98 260,-321 280.107,-305.87 290.941,-276.844 295.445,-261.714"/>
<polygon fill="#9a32cd" stroke="#9a32cd" points="161.664,-354.324 152.261,-359.206 162.656,-361.253 161.664,-354.324"/>
<text text-anchor="middle" x="217" y="-359" font-family="Helvetica,sans-Serif" font-size="10.00"> m_worldLogic</text>
</g>
<!-- Node14 -->
<g id="node14" class="node"><title>Node14</title>
<polygon fill="white" stroke="#bfbfbf" points="29,-303 29,-333 127,-333 127,-303 29,-303"/>
<text text-anchor="start" x="37" y="-321" font-family="Helvetica,sans-Serif" font-size="10.00">std::unordered_set</text>
<text text-anchor="middle" x="78" y="-310" font-family="Helvetica,sans-Serif" font-size="10.00">&lt; Ship * &gt;</text>
</g>
<!-- Node14&#45;&gt;Node9 -->
<g id="edge22" class="edge"><title>Node14&#45;&gt;Node9</title>
<path fill="none" stroke="#9a32cd" stroke-dasharray="5,2" d="M137.21,-312.198C173.695,-307.026 221.025,-297.451 260,-280 270.172,-275.446 280.261,-267.828 287.484,-261.687"/>
<polygon fill="#9a32cd" stroke="#9a32cd" points="136.667,-308.74 127.223,-313.543 137.601,-315.677 136.667,-308.74"/>
<text text-anchor="middle" x="217" y="-309" font-family="Helvetica,sans-Serif" font-size="10.00"> m_ships</text>
</g>
<!-- Node15 -->
<g id="node15" class="node"><title>Node15</title>
<polygon fill="white" stroke="#bfbfbf" points="12,-264.5 12,-283.5 144,-283.5 144,-264.5 12,-264.5"/>
<text text-anchor="middle" x="78" y="-271.5" font-family="Helvetica,sans-Serif" font-size="10.00">std::unique_ptr&lt; Skybox &gt;</text>
</g>
<!-- Node15&#45;&gt;Node9 -->
<g id="edge23" class="edge"><title>Node15&#45;&gt;Node9</title>
<path fill="none" stroke="#9a32cd" stroke-dasharray="5,2" d="M154.188,-266.447C197.998,-262.046 249.958,-256.826 277.867,-254.022"/>
<polygon fill="#9a32cd" stroke="#9a32cd" points="153.714,-262.977 144.114,-267.459 154.414,-269.942 153.714,-262.977"/>
<text text-anchor="middle" x="217" y="-268" font-family="Helvetica,sans-Serif" font-size="10.00"> m_skybox</text>
</g>
<!-- Node16 -->
<g id="node16" class="node"><title>Node16</title>
<polygon fill="white" stroke="#bfbfbf" points="4,-215 4,-245 152,-245 152,-215 4,-215"/>
<text text-anchor="start" x="12" y="-233" font-family="Helvetica,sans-Serif" font-size="10.00">std::unique_ptr&lt; VoxelParticle</text>
<text text-anchor="middle" x="78" y="-222" font-family="Helvetica,sans-Serif" font-size="10.00">Engine &gt;</text>
</g>
<!-- Node16&#45;&gt;Node9 -->
<g id="edge24" class="edge"><title>Node16&#45;&gt;Node9</title>
<path fill="none" stroke="#9a32cd" stroke-dasharray="5,2" d="M162.302,-232.188C193.142,-233.872 228.305,-236.828 260,-242 265.79,-242.945 271.979,-244.383 277.644,-245.877"/>
<polygon fill="#9a32cd" stroke="#9a32cd" points="162.185,-228.677 152.02,-231.664 161.829,-235.668 162.185,-228.677"/>
<text text-anchor="middle" x="217" y="-245" font-family="Helvetica,sans-Serif" font-size="10.00"> m_particleEngine</text>
</g>
<!-- Node17 -->
<g id="node17" class="node"><title>Node17</title>
<polygon fill="white" stroke="#bfbfbf" points="0.5,-176.5 0.5,-195.5 155.5,-195.5 155.5,-176.5 0.5,-176.5"/>
<text text-anchor="middle" x="78" y="-183.5" font-family="Helvetica,sans-Serif" font-size="10.00">std::unique_ptr&lt; ScriptEngine &gt;</text>
</g>
<!-- Node17&#45;&gt;Node9 -->
<g id="edge25" class="edge"><title>Node17&#45;&gt;Node9</title>
<path fill="none" stroke="#9a32cd" stroke-dasharray="5,2" d="M166.071,-192.336C196.865,-197.011 231.027,-205.086 260,-219 271.657,-224.598 282.536,-234.753 289.641,-242.325"/>
<polygon fill="#9a32cd" stroke="#9a32cd" points="166.161,-188.814 155.769,-190.877 165.18,-195.745 166.161,-188.814"/>
<text text-anchor="middle" x="217" y="-222" font-family="Helvetica,sans-Serif" font-size="10.00"> m_scriptEngine</text>
</g>
<!-- Node18 -->
<g id="node18" class="node"><title>Node18</title>
<polygon fill="white" stroke="#bfbfbf" points="17,-127 17,-157 139,-157 139,-127 17,-127"/>
<text text-anchor="start" x="25" y="-145" font-family="Helvetica,sans-Serif" font-size="10.00">std::unique_ptr&lt; Faction</text>
<text text-anchor="middle" x="78" y="-134" font-family="Helvetica,sans-Serif" font-size="10.00">Matrix &gt;</text>
</g>
<!-- Node18&#45;&gt;Node9 -->
<g id="edge26" class="edge"><title>Node18&#45;&gt;Node9</title>
<path fill="none" stroke="#9a32cd" stroke-dasharray="5,2" d="M149.317,-142.865C185.491,-146.531 228.481,-156.234 260,-180 280.991,-195.827 291.539,-226.664 295.739,-242.344"/>
<polygon fill="#9a32cd" stroke="#9a32cd" points="149.579,-139.374 139.31,-141.984 148.965,-146.348 149.579,-139.374"/>
<text text-anchor="middle" x="217" y="-183" font-family="Helvetica,sans-Serif" font-size="10.00"> m_factionMatrix</text>
</g>
<!-- Node19 -->
<g id="node19" class="node"><title>Node19</title>
<polygon fill="white" stroke="#bfbfbf" points="19.5,-88.5 19.5,-107.5 136.5,-107.5 136.5,-88.5 19.5,-88.5"/>
<text text-anchor="middle" x="78" y="-95.5" font-family="Helvetica,sans-Serif" font-size="10.00">std::unique_ptr&lt; God &gt;</text>
</g>
<!-- Node19&#45;&gt;Node9 -->
<g id="edge27" class="edge"><title>Node19&#45;&gt;Node9</title>
<path fill="none" stroke="#9a32cd" stroke-dasharray="5,2" d="M146.954,-94.6677C184.459,-96.4289 229.481,-104.967 260,-132 293.207,-161.414 297.644,-219.635 298.058,-242.482"/>
<polygon fill="#9a32cd" stroke="#9a32cd" points="146.698,-91.158 136.593,-94.341 146.478,-98.1546 146.698,-91.158"/>
<text text-anchor="middle" x="217" y="-135" font-family="Helvetica,sans-Serif" font-size="10.00"> m_god</text>
</g>
<!-- Node20 -->
<g id="node20" class="node"><title>Node20</title>
<polygon fill="white" stroke="#bfbfbf" points="16,-39 16,-69 140,-69 140,-39 16,-39"/>
<text text-anchor="start" x="24" y="-57" font-family="Helvetica,sans-Serif" font-size="10.00">std::unique_ptr&lt; Mission</text>
<text text-anchor="middle" x="78" y="-46" font-family="Helvetica,sans-Serif" font-size="10.00">System &gt;</text>
</g>
<!-- Node20&#45;&gt;Node9 -->
<g id="edge28" class="edge"><title>Node20&#45;&gt;Node9</title>
<path fill="none" stroke="#9a32cd" stroke-dasharray="5,2" d="M150.522,-47.6218C187.657,-48.2918 231.168,-55.9105 260,-83 283.56,-105.136 294.35,-209.293 297.201,-242.087"/>
<polygon fill="#9a32cd" stroke="#9a32cd" points="150.239,-44.1215 140.234,-47.6067 150.229,-51.1215 150.239,-44.1215"/>
<text text-anchor="middle" x="217" y="-86" font-family="Helvetica,sans-Serif" font-size="10.00"> m_missionSystem</text>
</g>
<!-- Node21 -->
<g id="node21" class="node"><title>Node21</title>
<polygon fill="white" stroke="#bfbfbf" points="4,-0.5 4,-19.5 152,-19.5 152,-0.5 4,-0.5"/>
<text text-anchor="middle" x="78" y="-7.5" font-family="Helvetica,sans-Serif" font-size="10.00">std::unique_ptr&lt; EventPoller &gt;</text>
</g>
<!-- Node21&#45;&gt;Node9 -->
<g id="edge30" class="edge"><title>Node21&#45;&gt;Node9</title>
<path fill="none" stroke="#9a32cd" stroke-dasharray="5,2" d="M162.154,-1.42058C196.621,-2.47396 234.44,-10.3463 260,-35 290.35,-64.2736 296.609,-204.108 297.761,-242.327"/>
<polygon fill="#9a32cd" stroke="#9a32cd" points="162.101,2.08022 152.06,-1.29838 162.017,-4.91927 162.101,2.08022"/>
<text text-anchor="middle" x="217" y="-38" font-family="Helvetica,sans-Serif" font-size="10.00"> m_eventPoller</text>
</g>
</g>
</svg>
        <g id="navigator" transform="translate(0 0)" fill="#404254">
                <rect fill="#f2f5e9" fill-opacity="0.5" stroke="#606060" stroke-width=".5" x="0" y="0" width="60" height="60"/>
                <use id="zoomplus" xlink:href="#zoomPlus" x="17" y="9" onmousedown="handleZoom(evt,'in')"/>
                <use id="zoomminus" xlink:href="#zoomMin" x="42" y="9" onmousedown="handleZoom(evt,'out')"/>
                <use id="reset" xlink:href="#resetDef" x="30" y="36" onmousedown="handleReset()"/>
                <g id="arrowUp" xlink:href="#dirArrow" transform="translate(30 24)" onmousedown="handlePan(0,-1)">
                  <use xlink:href="#rim" fill="#404040">
                        <set attributeName="fill" to="#808080" begin="arrowUp.mouseover" end="arrowUp.mouseout"/>
                  </use>
                  <path fill="none" stroke="white" stroke-width="1.5" d="M0,-3.0v7 M-2.5,-0.5L0,-3.0L2.5,-0.5"/>
                </g>
                <g id="arrowRight" xlink:href="#dirArrow" transform="rotate(90) translate(36 -43)" onmousedown="handlePan(1,0)">
                  <use xlink:href="#rim" fill="#404040">
                        <set attributeName="fill" to="#808080" begin="arrowRight.mouseover" end="arrowRight.mouseout"/>
                  </use>
                  <path fill="none" stroke="white" stroke-width="1.5" d="M0,-3.0v7 M-2.5,-0.5L0,-3.0L2.5,-0.5"/>
                </g>
                <g id="arrowDown" xlink:href="#dirArrow" transform="rotate(180) translate(-30 -48)" onmousedown="handlePan(0,1)">
                  <use xlink:href="#rim" fill="#404040">
                        <set attributeName="fill" to="#808080" begin="arrowDown.mouseover" end="arrowDown.mouseout"/>
                  </use>
                  <path fill="none" stroke="white" stroke-width="1.5" d="M0,-3.0v7 M-2.5,-0.5L0,-3.0L2.5,-0.5"/>
                </g>
                <g id="arrowLeft" xlink:href="#dirArrow" transform="rotate(270) translate(-36 17)" onmousedown="handlePan(-1,0)">
                  <use xlink:href="#rim" fill="#404040">
                        <set attributeName="fill" to="#808080" begin="arrowLeft.mouseover" end="arrowLeft.mouseout"/>
                  </use>
                  <path fill="none" stroke="white" stroke-width="1.5" d="M0,-3.0v7 M-2.5,-0.5L0,-3.0L2.5,-0.5"/>
                </g>
        </g>
        <svg viewBox="0 0 15 15" width="100%" height="30px" preserveAspectRatio="xMaxYMin meet">
         <g id="arrow_out" transform="scale(0.3 0.3)">
          <a xlink:href="class_base_scenario__coll__graph_org.svg" target="_base">
           <rect id="button" ry="5" rx="5" y="6" x="6" height="38" width="38"
                fill="#f2f5e9" fill-opacity="0.5" stroke="#606060" stroke-width="1.0"/>
           <path id="arrow"
             d="M 11.500037,31.436501 C 11.940474,20.09759 22.043105,11.32322 32.158766,21.979434 L 37.068811,17.246167 C 37.068811,17.246167 37.088388,32 37.088388,32 L 22.160133,31.978069 C 22.160133,31.978069 26.997745,27.140456 26.997745,27.140456 C 18.528582,18.264221 13.291696,25.230495 11.500037,31.436501 z"
             style="fill:#404040;"/>
          </a>
         </g>
        </svg>
</svg>
