<?xml version="1.0" encoding="UTF-8" standalone="no"?>
<!DOCTYPE svg PUBLIC "-//W3C//DTD SVG 1.1//EN"
 "http://www.w3.org/Graphics/SVG/1.1/DTD/svg11.dtd">
<!-- Generated by graphviz version 2.36.0 (20140111.2315)
 -->
<!-- Title: HUD Pages: 1 -->
<!--zoomable 650 -->
<svg id="main" version="1.1" xmlns="http://www.w3.org/2000/svg" xmlns:xlink="http://www.w3.org/1999/xlink" xml:space="preserve" onload="init(evt)">
<style type="text/css"><![CDATA[
.edge:hover path { stroke: red; }
.edge:hover polygon { stroke: red; fill: red; }
]]></style>
<script type="text/javascript"><![CDATA[
var edges = document.getElementsByTagName('g');
if (edges && edges.length) {
  for (var i=0;i<edges.length;i++) {
    if (edges[i].id.substr(0,4)=='edge') {
      edges[i].setAttribute('class','edge');
    }
  }
}
]]></script>
        <defs>
                <circle id="rim" cx="0" cy="0" r="7"/>
                <circle id="rim2" cx="0" cy="0" r="3.5"/>
                <g id="zoomPlus">
                        <use xlink:href="#rim" fill="#404040">
                                <set attributeName="fill" to="#808080" begin="zoomplus.mouseover" end="zoomplus.mouseout"/>
                        </use>
                        <path d="M-4,0h8M0,-4v8" fill="none" stroke="white" stroke-width="1.5" pointer-events="none"/>
                </g>
                <g id="zoomMin">
                        <use xlink:href="#rim" fill="#404040">
                                <set attributeName="fill" to="#808080" begin="zoomminus.mouseover" end="zoomminus.mouseout"/>
                        </use>
                        <path d="M-4,0h8" fill="none" stroke="white" stroke-width="1.5" pointer-events="none"/>
                </g>
                <g id="dirArrow">
                        <path fill="none" stroke="white" stroke-width="1.5" d="M0,-3.0v7 M-2.5,-0.5L0,-3.0L2.5,-0.5"/>
                </g>
               <g id="resetDef">
                       <use xlink:href="#rim2" fill="#404040">
                               <set attributeName="fill" to="#808080" begin="reset.mouseover" end="reset.mouseout"/>
                       </use>
               </g>
        </defs>

<script type="text/javascript">
var viewWidth = 1630;
var viewHeight = 650;
var sectionId = 'dynsection-0';
</script>
<script xlink:href="svgpan.js"/>
<svg id="graph" class="graph">
<g id="viewport">
<title>HUD</title>
<polygon fill="white" stroke="none" points="-4,4 -4,-645.912 1626,-645.912 1626,4 -4,4"/>
<!-- Node1 -->
<g id="node1" class="node"><title>Node1</title>
<polygon fill="#bfbfbf" stroke="black" points="912.5,-422.412 912.5,-441.412 949.5,-441.412 949.5,-422.412 912.5,-422.412"/>
<text text-anchor="middle" x="931" y="-429.412" font-family="Helvetica,sans-Serif" font-size="10.00">HUD</text>
</g>
<!-- Node3 -->
<g id="node3" class="node"><title>Node3</title>
<g id="a_node3"><a xlink:href="class_hudget.html" target="_top" xlink:title="Hudget">
<polygon fill="white" stroke="black" points="1077.5,-93.4115 1077.5,-112.412 1124.5,-112.412 1124.5,-93.4115 1077.5,-93.4115"/>
<text text-anchor="middle" x="1101" y="-100.412" font-family="Helvetica,sans-Serif" font-size="10.00">Hudget</text>
</a>
</g>
</g>
<!-- Node1&#45;&gt;Node3 -->
<g id="edge3" class="edge"><title>Node1&#45;&gt;Node3</title>
<path fill="none" stroke="#9a32cd" stroke-dasharray="5,2" d="M931.495,-412.212C930.375,-352.027 930.311,-172.155 968,-130.912 995.735,-100.562 1047.48,-98.665 1077.28,-100.473"/>
<polygon fill="#9a32cd" stroke="#9a32cd" points="927.997,-412.367 931.714,-422.288 934.995,-412.214 927.997,-412.367"/>
<text text-anchor="middle" x="985" y="-133.912" font-family="Helvetica,sans-Serif" font-size="10.00"> m_hud</text>
</g>
<!-- Node14 -->
<g id="node14" class="node"><title>Node14</title>
<g id="a_node14"><a xlink:href="class_h_u_d_object_delegate.html" target="_top" xlink:title="HUDObjectDelegate">
<polygon fill="white" stroke="red" points="1049,-545.412 1049,-564.412 1153,-564.412 1153,-545.412 1049,-545.412"/>
<text text-anchor="middle" x="1101" y="-552.412" font-family="Helvetica,sans-Serif" font-size="10.00">HUDObjectDelegate</text>
</a>
</g>
</g>
<!-- Node1&#45;&gt;Node14 -->
<g id="edge18" class="edge"><title>Node1&#45;&gt;Node14</title>
<path fill="none" stroke="#9a32cd" stroke-dasharray="5,2" d="M933.574,-451.501C936.473,-473.946 944.695,-510.164 968,-529.912 990.154,-548.684 1021.98,-555.111 1048.83,-556.759"/>
<polygon fill="#9a32cd" stroke="#9a32cd" points="937.044,-451.028 932.514,-441.45 930.082,-451.762 937.044,-451.028"/>
<text text-anchor="middle" x="985" y="-550.912" font-family="Helvetica,sans-Serif" font-size="10.00"> m_hud</text>
</g>
<!-- Node19 -->
<g id="node19" class="node"><title>Node19</title>
<polygon fill="white" stroke="#bfbfbf" points="1041.5,-422.412 1041.5,-441.412 1160.5,-441.412 1160.5,-422.412 1041.5,-422.412"/>
<text text-anchor="middle" x="1101" y="-429.412" font-family="Helvetica,sans-Serif" font-size="10.00">std::unique_ptr&lt; HUD &gt;</text>
</g>
<!-- Node1&#45;&gt;Node19 -->
<g id="edge26" class="edge"><title>Node1&#45;&gt;Node19</title>
<path fill="none" stroke="#9a32cd" stroke-dasharray="5,2" d="M959.693,-431.912C981.833,-431.912 1013.65,-431.912 1041.38,-431.912"/>
<polygon fill="#9a32cd" stroke="#9a32cd" points="959.661,-428.412 949.661,-431.912 959.661,-435.412 959.661,-428.412"/>
<text text-anchor="middle" x="985" y="-434.912" font-family="Helvetica,sans-Serif" font-size="10.00"> ptr</text>
</g>
<!-- Node2 -->
<g id="node2" class="node"><title>Node2</title>
<polygon fill="white" stroke="#bfbfbf" points="1310,-142.412 1310,-161.412 1414,-161.412 1414,-142.412 1310,-142.412"/>
<text text-anchor="middle" x="1362" y="-149.412" font-family="Helvetica,sans-Serif" font-size="10.00">std::list&lt; Hudget * &gt;</text>
</g>
<!-- Node2&#45;&gt;Node1 -->
<g id="edge1" class="edge"><title>Node2&#45;&gt;Node1</title>
<path fill="none" stroke="#9a32cd" stroke-dasharray="5,2" d="M1299.73,-148.801C1215.23,-145.461 1067.91,-143.328 1020,-165.912 988.683,-180.672 983.095,-192.754 968,-223.912 933.966,-294.162 931.645,-391.505 931.825,-422.224"/>
<polygon fill="#9a32cd" stroke="#9a32cd" points="1299.83,-152.308 1309.97,-149.224 1300.12,-145.314 1299.83,-152.308"/>
<text text-anchor="middle" x="1101" y="-168.912" font-family="Helvetica,sans-Serif" font-size="10.00"> m_hudgets</text>
</g>
<!-- Node3&#45;&gt;Node2 -->
<g id="edge2" class="edge"><title>Node3&#45;&gt;Node2</title>
<path fill="none" stroke="#9a32cd" stroke-dasharray="5,2" d="M1134.87,-107.239C1170.35,-112.119 1228.43,-120.718 1278,-130.912 1293.87,-134.175 1311.27,-138.466 1326.03,-142.319"/>
<polygon fill="#9a32cd" stroke="#9a32cd" points="1135,-103.725 1124.62,-105.846 1134.06,-110.661 1135,-103.725"/>
<text text-anchor="middle" x="1239" y="-133.912" font-family="Helvetica,sans-Serif" font-size="10.00"> elements</text>
</g>
<!-- Node9 -->
<g id="node9" class="node"><title>Node9</title>
<g id="a_node9"><a xlink:href="class_text_field_hudget.html" target="_top" xlink:title="TextFieldHudget">
<polygon fill="white" stroke="red" points="1318.5,-103.412 1318.5,-122.412 1405.5,-122.412 1405.5,-103.412 1318.5,-103.412"/>
<text text-anchor="middle" x="1362" y="-110.412" font-family="Helvetica,sans-Serif" font-size="10.00">TextFieldHudget</text>
</a>
</g>
</g>
<!-- Node3&#45;&gt;Node9 -->
<g id="edge10" class="edge"><title>Node3&#45;&gt;Node9</title>
<path fill="none" stroke="midnightblue" d="M1134.68,-104.173C1181.27,-105.972 1266.85,-109.276 1318.37,-111.266"/>
<polygon fill="midnightblue" stroke="midnightblue" points="1134.66,-100.67 1124.53,-103.781 1134.39,-107.665 1134.66,-100.67"/>
</g>
<!-- Node16 -->
<g id="node16" class="node"><title>Node16</title>
<g id="a_node16"><a xlink:href="class_cross_hair.html" target="_top" xlink:title="CrossHair">
<polygon fill="white" stroke="red" points="1332.5,-63.4115 1332.5,-82.4115 1391.5,-82.4115 1391.5,-63.4115 1332.5,-63.4115"/>
<text text-anchor="middle" x="1362" y="-70.4115" font-family="Helvetica,sans-Serif" font-size="10.00">CrossHair</text>
</a>
</g>
</g>
<!-- Node3&#45;&gt;Node16 -->
<g id="edge22" class="edge"><title>Node3&#45;&gt;Node16</title>
<path fill="none" stroke="midnightblue" d="M1134.68,-99.1266C1185.71,-93.2159 1283.49,-81.889 1332.1,-76.259"/>
<polygon fill="midnightblue" stroke="midnightblue" points="1134.06,-95.6743 1124.53,-100.302 1134.87,-102.628 1134.06,-95.6743"/>
</g>
<!-- Node4 -->
<g id="node4" class="node"><title>Node4</title>
<polygon fill="white" stroke="#bfbfbf" points="678.5,-533.912 678.5,-563.912 813.5,-563.912 813.5,-533.912 678.5,-533.912"/>
<text text-anchor="start" x="686.5" y="-551.912" font-family="Helvetica,sans-Serif" font-size="10.00">std::unique_ptr&lt; AimHelper</text>
<text text-anchor="middle" x="746" y="-540.912" font-family="Helvetica,sans-Serif" font-size="10.00">Hudget &gt;</text>
</g>
<!-- Node4&#45;&gt;Node1 -->
<g id="edge4" class="edge"><title>Node4&#45;&gt;Node1</title>
<path fill="none" stroke="#9a32cd" stroke-dasharray="5,2" d="M823.702,-547.246C848.39,-543.287 874.4,-535.084 894,-518.912 918.334,-498.833 926.438,-459.58 928.953,-441.477"/>
<polygon fill="#9a32cd" stroke="#9a32cd" points="823.017,-543.808 813.594,-548.651 823.98,-550.741 823.017,-543.808"/>
<text text-anchor="middle" x="863" y="-548.912" font-family="Helvetica,sans-Serif" font-size="10.00"> m_aimHelper</text>
</g>
<!-- Node5 -->
<g id="node5" class="node"><title>Node5</title>
<g id="a_node5"><a xlink:href="class_aim_helper_hudget.html" target="_top" xlink:title="AimHelperHudget">
<polygon fill="white" stroke="red" points="438,-543.412 438,-562.412 530,-562.412 530,-543.412 438,-543.412"/>
<text text-anchor="middle" x="484" y="-550.412" font-family="Helvetica,sans-Serif" font-size="10.00">AimHelperHudget</text>
</a>
</g>
</g>
<!-- Node5&#45;&gt;Node4 -->
<g id="edge5" class="edge"><title>Node5&#45;&gt;Node4</title>
<path fill="none" stroke="#9a32cd" stroke-dasharray="5,2" d="M540.473,-552.058C580.799,-551.438 635.571,-550.595 678.286,-549.938"/>
<polygon fill="#9a32cd" stroke="#9a32cd" points="540.233,-548.561 530.289,-552.215 540.341,-555.56 540.233,-548.561"/>
<text text-anchor="middle" x="611" y="-554.912" font-family="Helvetica,sans-Serif" font-size="10.00"> ptr</text>
</g>
<!-- Node6 -->
<g id="node6" class="node"><title>Node6</title>
<g id="a_node6"><a xlink:href="class_world_object.html" target="_top" xlink:title="WorldObject">
<polygon fill="white" stroke="red" points="202.5,-570.412 202.5,-589.412 273.5,-589.412 273.5,-570.412 202.5,-570.412"/>
<text text-anchor="middle" x="238" y="-577.412" font-family="Helvetica,sans-Serif" font-size="10.00">WorldObject</text>
</a>
</g>
</g>
<!-- Node6&#45;&gt;Node5 -->
<g id="edge6" class="edge"><title>Node6&#45;&gt;Node5</title>
<path fill="none" stroke="#9a32cd" stroke-dasharray="5,2" d="M283.733,-569.306C286.523,-568.793 289.295,-568.322 292,-567.912 341.493,-560.405 398.806,-556.54 437.638,-554.63"/>
<polygon fill="#9a32cd" stroke="#9a32cd" points="282.769,-565.929 273.645,-571.314 284.136,-572.795 282.769,-565.929"/>
<text text-anchor="middle" x="349" y="-570.912" font-family="Helvetica,sans-Serif" font-size="10.00"> m_lastTargetWorldObject</text>
</g>
<!-- Node13 -->
<g id="node13" class="node"><title>Node13</title>
<polygon fill="white" stroke="#bfbfbf" points="1296,-539.912 1296,-569.912 1428,-569.912 1428,-539.912 1296,-539.912"/>
<text text-anchor="start" x="1304" y="-557.912" font-family="Helvetica,sans-Serif" font-size="10.00">std::map&lt; WorldObject</text>
<text text-anchor="middle" x="1362" y="-546.912" font-family="Helvetica,sans-Serif" font-size="10.00"> *, HUDObjectDelegate * &gt;</text>
</g>
<!-- Node6&#45;&gt;Node13 -->
<g id="edge19" class="edge"><title>Node6&#45;&gt;Node13</title>
<path fill="none" stroke="#9a32cd" stroke-dasharray="5,2" d="M283.961,-583.744C332.889,-587.578 413.443,-592.912 483,-592.912 483,-592.912 483,-592.912 1102,-592.912 1168.58,-592.912 1243.78,-580.467 1295.92,-569.821"/>
<polygon fill="#9a32cd" stroke="#9a32cd" points="283.965,-580.233 273.718,-582.927 283.408,-587.211 283.965,-580.233"/>
<text text-anchor="middle" x="863" y="-595.912" font-family="Helvetica,sans-Serif" font-size="10.00"> keys</text>
</g>
<!-- Node7 -->
<g id="node7" class="node"><title>Node7</title>
<g id="a_node7"><a xlink:href="class_handle.html" target="_top" xlink:title="Handle\&lt; WorldObject \&gt;">
<polygon fill="white" stroke="black" points="0.5,-570.412 0.5,-589.412 119.5,-589.412 119.5,-570.412 0.5,-570.412"/>
<text text-anchor="middle" x="60" y="-577.412" font-family="Helvetica,sans-Serif" font-size="10.00">Handle&lt; WorldObject &gt;</text>
</a>
</g>
</g>
<!-- Node7&#45;&gt;Node1 -->
<g id="edge11" class="edge"><title>Node7&#45;&gt;Node1</title>
<path fill="none" stroke="#9a32cd" stroke-dasharray="5,2" d="M82.4052,-564.083C114.344,-542.077 177.144,-504.912 237,-504.912 237,-504.912 237,-504.912 747,-504.912 814.16,-504.912 835.821,-503.461 894,-469.912 906.281,-462.83 916.963,-450.268 923.434,-441.535"/>
<polygon fill="#9a32cd" stroke="#9a32cd" points="80.0285,-561.477 73.8818,-570.107 84.0684,-567.194 80.0285,-561.477"/>
<text text-anchor="middle" x="484" y="-507.912" font-family="Helvetica,sans-Serif" font-size="10.00"> m_target</text>
</g>
<!-- Node7&#45;&gt;Node6 -->
<g id="edge7" class="edge"><title>Node7&#45;&gt;Node6</title>
<path fill="none" stroke="#9a32cd" stroke-dasharray="5,2" d="M129.726,-579.912C154.561,-579.912 181.55,-579.912 202.244,-579.912"/>
<polygon fill="#9a32cd" stroke="#9a32cd" points="129.605,-576.412 119.605,-579.912 129.605,-583.412 129.605,-576.412"/>
<text text-anchor="middle" x="161" y="-582.912" font-family="Helvetica,sans-Serif" font-size="10.00"> m_handle</text>
</g>
<!-- Node7&#45;&gt;Node14 -->
<g id="edge17" class="edge"><title>Node7&#45;&gt;Node14</title>
<path fill="none" stroke="#9a32cd" stroke-dasharray="5,2" d="M89.9151,-593.745C124.193,-608.848 183.434,-630.912 237,-630.912 237,-630.912 237,-630.912 932,-630.912 995.704,-630.912 1061.88,-584.988 1088.2,-564.537"/>
<polygon fill="#9a32cd" stroke="#9a32cd" points="91.0777,-590.43 80.5234,-589.504 88.1967,-596.81 91.0777,-590.43"/>
<text text-anchor="middle" x="611" y="-633.912" font-family="Helvetica,sans-Serif" font-size="10.00"> m_worldObjectHandle</text>
</g>
<!-- Node8 -->
<g id="node8" class="node"><title>Node8</title>
<polygon fill="white" stroke="#bfbfbf" points="1486,-107.912 1486,-137.912 1616,-137.912 1616,-107.912 1486,-107.912"/>
<text text-anchor="start" x="1494" y="-125.912" font-family="Helvetica,sans-Serif" font-size="10.00">std::unique_ptr&lt; TextField</text>
<text text-anchor="middle" x="1551" y="-114.912" font-family="Helvetica,sans-Serif" font-size="10.00">Hudget &gt;</text>
</g>
<!-- Node8&#45;&gt;Node1 -->
<g id="edge8" class="edge"><title>Node8&#45;&gt;Node1</title>
<path fill="none" stroke="#9a32cd" stroke-dasharray="5,2" d="M1540.54,-147.482C1523.27,-189.965 1483.24,-278.221 1428,-336.912 1373.42,-394.9 1352.19,-405.971 1278,-434.912 1170.97,-476.663 1134.8,-455.32 1020,-450.912 996.838,-450.022 990.538,-452.326 968,-446.912 961.812,-445.425 955.314,-443.007 949.569,-440.543"/>
<polygon fill="#9a32cd" stroke="#9a32cd" points="1543.89,-148.535 1544.35,-137.95 1537.39,-145.94 1543.89,-148.535"/>
<text text-anchor="middle" x="1239" y="-471.912" font-family="Helvetica,sans-Serif" font-size="10.00"> m_speedLabel</text>
<text text-anchor="middle" x="1239" y="-460.912" font-family="Helvetica,sans-Serif" font-size="10.00">m_targetName</text>
</g>
<!-- Node9&#45;&gt;Node8 -->
<g id="edge9" class="edge"><title>Node9&#45;&gt;Node8</title>
<path fill="none" stroke="#9a32cd" stroke-dasharray="5,2" d="M1415.91,-115.741C1437.59,-116.901 1462.9,-118.254 1485.64,-119.47"/>
<polygon fill="#9a32cd" stroke="#9a32cd" points="1416.07,-112.245 1405.9,-115.206 1415.7,-119.235 1416.07,-112.245"/>
<text text-anchor="middle" x="1454" y="-120.912" font-family="Helvetica,sans-Serif" font-size="10.00"> ptr</text>
</g>
<!-- Node10 -->
<g id="node10" class="node"><title>Node10</title>
<polygon fill="white" stroke="#bfbfbf" points="679,-367.912 679,-397.912 813,-397.912 813,-367.912 679,-367.912"/>
<text text-anchor="start" x="687" y="-385.912" font-family="Helvetica,sans-Serif" font-size="10.00">std::unique_ptr&lt; WorldTree</text>
<text text-anchor="middle" x="746" y="-374.912" font-family="Helvetica,sans-Serif" font-size="10.00">Scanner &gt;</text>
</g>
<!-- Node10&#45;&gt;Node1 -->
<g id="edge12" class="edge"><title>Node10&#45;&gt;Node1</title>
<path fill="none" stroke="#9a32cd" stroke-dasharray="5,2" d="M823.415,-396.115C846.402,-401.001 871.49,-407.258 894,-414.912 900.151,-417.003 906.639,-419.851 912.387,-422.617"/>
<polygon fill="#9a32cd" stroke="#9a32cd" points="823.865,-392.634 813.364,-394.037 822.447,-399.489 823.865,-392.634"/>
<text text-anchor="middle" x="863" y="-417.912" font-family="Helvetica,sans-Serif" font-size="10.00"> m_scanner</text>
</g>
<!-- Node11 -->
<g id="node11" class="node"><title>Node11</title>
<g id="a_node11"><a xlink:href="class_world_tree_scanner.html" target="_top" xlink:title="WorldTreeScanner">
<polygon fill="white" stroke="red" points="435.5,-373.412 435.5,-392.412 532.5,-392.412 532.5,-373.412 435.5,-373.412"/>
<text text-anchor="middle" x="484" y="-380.412" font-family="Helvetica,sans-Serif" font-size="10.00">WorldTreeScanner</text>
</a>
</g>
</g>
<!-- Node11&#45;&gt;Node10 -->
<g id="edge13" class="edge"><title>Node11&#45;&gt;Node10</title>
<path fill="none" stroke="#9a32cd" stroke-dasharray="5,2" d="M542.853,-382.912C583.01,-382.912 636.608,-382.912 678.523,-382.912"/>
<polygon fill="#9a32cd" stroke="#9a32cd" points="542.688,-379.412 532.688,-382.912 542.688,-386.412 542.688,-379.412"/>
<text text-anchor="middle" x="611" y="-385.912" font-family="Helvetica,sans-Serif" font-size="10.00"> ptr</text>
</g>
<!-- Node12 -->
<g id="node12" class="node"><title>Node12</title>
<g id="a_node12"><a xlink:href="class_sphere.html" target="_top" xlink:title="Sphere">
<polygon fill="white" stroke="red" points="722.5,-455.412 722.5,-474.412 769.5,-474.412 769.5,-455.412 722.5,-455.412"/>
<text text-anchor="middle" x="746" y="-462.412" font-family="Helvetica,sans-Serif" font-size="10.00">Sphere</text>
</a>
</g>
</g>
<!-- Node12&#45;&gt;Node1 -->
<g id="edge14" class="edge"><title>Node12&#45;&gt;Node1</title>
<path fill="none" stroke="#9a32cd" stroke-dasharray="5,2" d="M779.908,-461.4C809.871,-457.869 855.221,-451.687 894,-442.912 899.992,-441.556 906.437,-439.712 912.195,-437.922"/>
<polygon fill="#9a32cd" stroke="#9a32cd" points="779.142,-457.965 769.606,-462.581 779.94,-464.919 779.142,-457.965"/>
<text text-anchor="middle" x="863" y="-457.912" font-family="Helvetica,sans-Serif" font-size="10.00"> m_sphere</text>
</g>
<!-- Node13&#45;&gt;Node1 -->
<g id="edge15" class="edge"><title>Node13&#45;&gt;Node1</title>
<path fill="none" stroke="#9a32cd" stroke-dasharray="5,2" d="M1285.83,-542.077C1173.63,-522.815 974.685,-488.215 968,-483.912 952.12,-473.688 941.328,-453.729 935.955,-441.731"/>
<polygon fill="#9a32cd" stroke="#9a32cd" points="1285.3,-545.537 1295.75,-543.778 1286.48,-538.638 1285.3,-545.537"/>
<text text-anchor="middle" x="1101" y="-527.912" font-family="Helvetica,sans-Serif" font-size="10.00"> m_objectDelegates</text>
</g>
<!-- Node14&#45;&gt;Node13 -->
<g id="edge16" class="edge"><title>Node14&#45;&gt;Node13</title>
<path fill="none" stroke="#9a32cd" stroke-dasharray="5,2" d="M1163.29,-554.912C1203.13,-554.912 1255.02,-554.912 1295.65,-554.912"/>
<polygon fill="#9a32cd" stroke="#9a32cd" points="1163.17,-551.412 1153.17,-554.912 1163.17,-558.412 1163.17,-551.412"/>
<text text-anchor="middle" x="1239" y="-557.912" font-family="Helvetica,sans-Serif" font-size="10.00"> elements</text>
</g>
<!-- Node15 -->
<g id="node15" class="node"><title>Node15</title>
<polygon fill="white" stroke="#bfbfbf" points="1480,-52.4115 1480,-71.4115 1622,-71.4115 1622,-52.4115 1480,-52.4115"/>
<text text-anchor="middle" x="1551" y="-59.4115" font-family="Helvetica,sans-Serif" font-size="10.00">std::unique_ptr&lt; CrossHair &gt;</text>
</g>
<!-- Node15&#45;&gt;Node1 -->
<g id="edge20" class="edge"><title>Node15&#45;&gt;Node1</title>
<path fill="none" stroke="#9a32cd" stroke-dasharray="5,2" d="M1513.03,-49.2403C1405.97,-15.1438 1095.26,64.9123 968,-105.912 929.39,-157.739 930.947,-373.978 931.795,-422.304"/>
<polygon fill="#9a32cd" stroke="#9a32cd" points="1512.15,-52.6342 1522.74,-52.3865 1514.3,-45.9749 1512.15,-52.6342"/>
<text text-anchor="middle" x="1239" y="-5.91154" font-family="Helvetica,sans-Serif" font-size="10.00"> m_crossHair</text>
</g>
<!-- Node16&#45;&gt;Node15 -->
<g id="edge21" class="edge"><title>Node16&#45;&gt;Node15</title>
<path fill="none" stroke="#9a32cd" stroke-dasharray="5,2" d="M1401.99,-70.6178C1424.53,-69.2919 1453.57,-67.5841 1479.94,-66.0326"/>
<polygon fill="#9a32cd" stroke="#9a32cd" points="1401.59,-67.1356 1391.81,-71.2169 1402,-74.1235 1401.59,-67.1356"/>
<text text-anchor="middle" x="1454" y="-70.9115" font-family="Helvetica,sans-Serif" font-size="10.00"> ptr</text>
</g>
<!-- Node17 -->
<g id="node17" class="node"><title>Node17</title>
<g id="a_node17"><a xlink:href="class_player.html" target="_top" xlink:title="Player">
<polygon fill="white" stroke="black" points="1340,-308.412 1340,-327.412 1384,-327.412 1384,-308.412 1340,-308.412"/>
<text text-anchor="middle" x="1362" y="-315.412" font-family="Helvetica,sans-Serif" font-size="10.00">Player</text>
</a>
</g>
</g>
<!-- Node17&#45;&gt;Node1 -->
<g id="edge23" class="edge"><title>Node17&#45;&gt;Node1</title>
<path fill="none" stroke="#9a32cd" stroke-dasharray="5,2" d="M1342.68,-301.668C1326.46,-287.814 1301.73,-267.965 1278,-253.912 1178.04,-194.717 1116.2,-146.78 1020,-211.912 945.741,-262.188 934.14,-386.372 932.333,-422.132"/>
<polygon fill="#9a32cd" stroke="#9a32cd" points="1340.49,-304.401 1350.34,-308.304 1345.08,-299.11 1340.49,-304.401"/>
<text text-anchor="middle" x="1101" y="-214.912" font-family="Helvetica,sans-Serif" font-size="10.00"> m_player</text>
</g>
<!-- Node18 -->
<g id="node18" class="node"><title>Node18</title>
<polygon fill="white" stroke="#bfbfbf" points="1020,-232.412 1020,-251.412 1182,-251.412 1182,-232.412 1020,-232.412"/>
<text text-anchor="middle" x="1101" y="-239.412" font-family="Helvetica,sans-Serif" font-size="10.00">std::unique_ptr&lt; TargetSelector &gt;</text>
</g>
<!-- Node18&#45;&gt;Node17 -->
<g id="edge24" class="edge"><title>Node18&#45;&gt;Node17</title>
<path fill="none" stroke="#9a32cd" stroke-dasharray="5,2" d="M1178.21,-253.253C1209.58,-259.011 1246,-267.115 1278,-277.912 1301.95,-285.992 1327.95,-299.335 1344.35,-308.366"/>
<polygon fill="#9a32cd" stroke="#9a32cd" points="1178.67,-249.781 1168.21,-251.466 1177.44,-256.671 1178.67,-249.781"/>
<text text-anchor="middle" x="1239" y="-280.912" font-family="Helvetica,sans-Serif" font-size="10.00"> m_targetSelector</text>
</g>
<!-- Node19&#45;&gt;Node17 -->
<g id="edge25" class="edge"><title>Node19&#45;&gt;Node17</title>
<path fill="none" stroke="#9a32cd" stroke-dasharray="5,2" d="M1171.11,-425.548C1204.79,-420.358 1245.03,-410.951 1278,-393.912 1310.63,-377.047 1340.1,-343.965 1353.45,-327.58"/>
<polygon fill="#9a32cd" stroke="#9a32cd" points="1170.28,-422.132 1160.89,-427.027 1171.28,-429.06 1170.28,-422.132"/>
<text text-anchor="middle" x="1239" y="-422.912" font-family="Helvetica,sans-Serif" font-size="10.00"> m_hud</text>
</g>
<!-- Node20 -->
<g id="node20" class="node"><title>Node20</title>
<polygon fill="white" stroke="#bfbfbf" points="1023.5,-270.412 1023.5,-289.412 1178.5,-289.412 1178.5,-270.412 1023.5,-270.412"/>
<text text-anchor="middle" x="1101" y="-277.412" font-family="Helvetica,sans-Serif" font-size="10.00">std::unique_ptr&lt; CameraDolly &gt;</text>
</g>
<!-- Node20&#45;&gt;Node17 -->
<g id="edge27" class="edge"><title>Node20&#45;&gt;Node17</title>
<path fill="none" stroke="#9a32cd" stroke-dasharray="5,2" d="M1188.71,-290.388C1217.2,-294.058 1248.99,-298.398 1278,-302.912 1299.12,-306.199 1323.15,-310.615 1339.9,-313.804"/>
<polygon fill="#9a32cd" stroke="#9a32cd" points="1189.15,-286.916 1178.79,-289.119 1188.26,-293.859 1189.15,-286.916"/>
<text text-anchor="middle" x="1239" y="-305.912" font-family="Helvetica,sans-Serif" font-size="10.00"> m_cameraDolly</text>
</g>
<!-- Node21 -->
<g id="node21" class="node"><title>Node21</title>
<polygon fill="white" stroke="#bfbfbf" points="1038.5,-384.412 1038.5,-403.412 1163.5,-403.412 1163.5,-384.412 1038.5,-384.412"/>
<text text-anchor="middle" x="1101" y="-391.412" font-family="Helvetica,sans-Serif" font-size="10.00">std::unique_ptr&lt; Aimer &gt;</text>
</g>
<!-- Node21&#45;&gt;Node17 -->
<g id="edge28" class="edge"><title>Node21&#45;&gt;Node17</title>
<path fill="none" stroke="#9a32cd" stroke-dasharray="5,2" d="M1173.99,-383.988C1206.3,-378.42 1244.6,-370.262 1278,-358.912 1302.2,-350.69 1328.35,-336.865 1344.7,-327.569"/>
<polygon fill="#9a32cd" stroke="#9a32cd" points="1173,-380.604 1163.72,-385.705 1174.16,-387.508 1173,-380.604"/>
<text text-anchor="middle" x="1239" y="-381.912" font-family="Helvetica,sans-Serif" font-size="10.00"> m_aimer</text>
</g>
<!-- Node22 -->
<g id="node22" class="node"><title>Node22</title>
<g id="a_node22"><a xlink:href="class_handle.html" target="_top" xlink:title="Handle\&lt; Ship \&gt;">
<polygon fill="white" stroke="black" points="1059,-346.412 1059,-365.412 1143,-365.412 1143,-346.412 1059,-346.412"/>
<text text-anchor="middle" x="1101" y="-353.412" font-family="Helvetica,sans-Serif" font-size="10.00">Handle&lt; Ship &gt;</text>
</a>
</g>
</g>
<!-- Node22&#45;&gt;Node17 -->
<g id="edge29" class="edge"><title>Node22&#45;&gt;Node17</title>
<path fill="none" stroke="#9a32cd" stroke-dasharray="5,2" d="M1153.36,-349.871C1188.51,-345.572 1236.15,-339.423 1278,-332.912 1299.12,-329.624 1323.15,-325.208 1339.9,-322.019"/>
<polygon fill="#9a32cd" stroke="#9a32cd" points="1152.84,-346.409 1143.33,-351.089 1153.68,-353.358 1152.84,-346.409"/>
<text text-anchor="middle" x="1239" y="-346.912" font-family="Helvetica,sans-Serif" font-size="10.00"> m_ship</text>
</g>
<!-- Node23 -->
<g id="node23" class="node"><title>Node23</title>
<g id="a_node23"><a xlink:href="class_abstract_move.html" target="_top" xlink:title="AbstractMove">
<polygon fill="white" stroke="black" points="1063,-308.412 1063,-327.412 1139,-327.412 1139,-308.412 1063,-308.412"/>
<text text-anchor="middle" x="1101" y="-315.412" font-family="Helvetica,sans-Serif" font-size="10.00">AbstractMove</text>
</a>
</g>
</g>
<!-- Node23&#45;&gt;Node17 -->
<g id="edge30" class="edge"><title>Node23&#45;&gt;Node17</title>
<path fill="none" stroke="#9a32cd" stroke-dasharray="5,2" d="M1149.25,-317.912C1205.94,-317.912 1298.49,-317.912 1339.86,-317.912"/>
<polygon fill="#9a32cd" stroke="#9a32cd" points="1149.11,-314.412 1139.11,-317.912 1149.11,-321.412 1149.11,-314.412"/>
<text text-anchor="middle" x="1239" y="-320.912" font-family="Helvetica,sans-Serif" font-size="10.00"> m_engineState</text>
</g>
<!-- Node24 -->
<g id="node24" class="node"><title>Node24</title>
<g id="a_node24"><a xlink:href="class_viewer.html" target="_top" xlink:title="Viewer">
<polygon fill="white" stroke="black" points="723,-417.412 723,-436.412 769,-436.412 769,-417.412 723,-417.412"/>
<text text-anchor="middle" x="746" y="-424.412" font-family="Helvetica,sans-Serif" font-size="10.00">Viewer</text>
</a>
</g>
</g>
<!-- Node24&#45;&gt;Node1 -->
<g id="edge31" class="edge"><title>Node24&#45;&gt;Node1</title>
<path fill="none" stroke="#9a32cd" stroke-dasharray="5,2" d="M779.315,-427.794C818.138,-428.855 881.858,-430.596 912.486,-431.433"/>
<polygon fill="#9a32cd" stroke="#9a32cd" points="779.166,-424.289 769.074,-427.515 778.975,-431.287 779.166,-424.289"/>
<text text-anchor="middle" x="863" y="-433.912" font-family="Helvetica,sans-Serif" font-size="10.00"> m_viewer</text>
</g>
<!-- Node25 -->
<g id="node25" class="node"><title>Node25</title>
<polygon fill="white" stroke="#bfbfbf" points="424,-449.412 424,-468.412 544,-468.412 544,-449.412 424,-449.412"/>
<text text-anchor="middle" x="484" y="-456.412" font-family="Helvetica,sans-Serif" font-size="10.00">std::unique_ptr&lt; View &gt;</text>
</g>
<!-- Node25&#45;&gt;Node24 -->
<g id="edge32" class="edge"><title>Node25&#45;&gt;Node24</title>
<path fill="none" stroke="#9a32cd" stroke-dasharray="5,2" d="M554.561,-450.35C610.664,-443.445 686.086,-434.162 722.91,-429.63"/>
<polygon fill="#9a32cd" stroke="#9a32cd" points="553.821,-446.915 544.323,-451.61 554.676,-453.862 553.821,-446.915"/>
<text text-anchor="middle" x="611" y="-451.912" font-family="Helvetica,sans-Serif" font-size="10.00"> m_view</text>
</g>
<!-- Node26 -->
<g id="node26" class="node"><title>Node26</title>
<g id="a_node26"><a xlink:href="class_viewport.html" target="_top" xlink:title="Viewport">
<polygon fill="white" stroke="black" points="457,-411.412 457,-430.412 511,-430.412 511,-411.412 457,-411.412"/>
<text text-anchor="middle" x="484" y="-418.412" font-family="Helvetica,sans-Serif" font-size="10.00">Viewport</text>
</a>
</g>
</g>
<!-- Node26&#45;&gt;Node24 -->
<g id="edge33" class="edge"><title>Node26&#45;&gt;Node24</title>
<path fill="none" stroke="#9a32cd" stroke-dasharray="5,2" d="M521.655,-421.757C576.393,-423.021 677.845,-425.362 722.691,-426.397"/>
<polygon fill="#9a32cd" stroke="#9a32cd" points="521.439,-418.252 511.361,-421.52 521.278,-425.25 521.439,-418.252"/>
<text text-anchor="middle" x="611" y="-427.912" font-family="Helvetica,sans-Serif" font-size="10.00"> m_viewport</text>
</g>
</g>
</svg>
        <g id="navigator" transform="translate(0 0)" fill="#404254">
                <rect fill="#f2f5e9" fill-opacity="0.5" stroke="#606060" stroke-width=".5" x="0" y="0" width="60" height="60"/>
                <use id="zoomplus" xlink:href="#zoomPlus" x="17" y="9" onmousedown="handleZoom(evt,'in')"/>
                <use id="zoomminus" xlink:href="#zoomMin" x="42" y="9" onmousedown="handleZoom(evt,'out')"/>
                <use id="reset" xlink:href="#resetDef" x="30" y="36" onmousedown="handleReset()"/>
                <g id="arrowUp" xlink:href="#dirArrow" transform="translate(30 24)" onmousedown="handlePan(0,-1)">
                  <use xlink:href="#rim" fill="#404040">
                        <set attributeName="fill" to="#808080" begin="arrowUp.mouseover" end="arrowUp.mouseout"/>
                  </use>
                  <path fill="none" stroke="white" stroke-width="1.5" d="M0,-3.0v7 M-2.5,-0.5L0,-3.0L2.5,-0.5"/>
                </g>
                <g id="arrowRight" xlink:href="#dirArrow" transform="rotate(90) translate(36 -43)" onmousedown="handlePan(1,0)">
                  <use xlink:href="#rim" fill="#404040">
                        <set attributeName="fill" to="#808080" begin="arrowRight.mouseover" end="arrowRight.mouseout"/>
                  </use>
                  <path fill="none" stroke="white" stroke-width="1.5" d="M0,-3.0v7 M-2.5,-0.5L0,-3.0L2.5,-0.5"/>
                </g>
                <g id="arrowDown" xlink:href="#dirArrow" transform="rotate(180) translate(-30 -48)" onmousedown="handlePan(0,1)">
                  <use xlink:href="#rim" fill="#404040">
                        <set attributeName="fill" to="#808080" begin="arrowDown.mouseover" end="arrowDown.mouseout"/>
                  </use>
                  <path fill="none" stroke="white" stroke-width="1.5" d="M0,-3.0v7 M-2.5,-0.5L0,-3.0L2.5,-0.5"/>
                </g>
                <g id="arrowLeft" xlink:href="#dirArrow" transform="rotate(270) translate(-36 17)" onmousedown="handlePan(-1,0)">
                  <use xlink:href="#rim" fill="#404040">
                        <set attributeName="fill" to="#808080" begin="arrowLeft.mouseover" end="arrowLeft.mouseout"/>
                  </use>
                  <path fill="none" stroke="white" stroke-width="1.5" d="M0,-3.0v7 M-2.5,-0.5L0,-3.0L2.5,-0.5"/>
                </g>
        </g>
        <svg viewBox="0 0 15 15" width="100%" height="30px" preserveAspectRatio="xMaxYMin meet">
         <g id="arrow_out" transform="scale(0.3 0.3)">
          <a xlink:href="class_h_u_d__coll__graph_org.svg" target="_base">
           <rect id="button" ry="5" rx="5" y="6" x="6" height="38" width="38"
                fill="#f2f5e9" fill-opacity="0.5" stroke="#606060" stroke-width="1.0"/>
           <path id="arrow"
             d="M 11.500037,31.436501 C 11.940474,20.09759 22.043105,11.32322 32.158766,21.979434 L 37.068811,17.246167 C 37.068811,17.246167 37.088388,32 37.088388,32 L 22.160133,31.978069 C 22.160133,31.978069 26.997745,27.140456 26.997745,27.140456 C 18.528582,18.264221 13.291696,25.230495 11.500037,31.436501 z"
             style="fill:#404040;"/>
          </a>
         </g>
        </svg>
</svg>
