<?xml version="1.0" encoding="UTF-8" standalone="no"?>
<!DOCTYPE svg PUBLIC "-//W3C//DTD SVG 1.1//EN"
 "http://www.w3.org/Graphics/SVG/1.1/DTD/svg11.dtd">
<!-- Generated by graphviz version 2.36.0 (20140111.2315)
 -->
<!-- Title: HUDObjectDelegate Pages: 1 -->
<svg width="312pt" height="300pt"
 viewBox="0.00 0.00 312.00 300.00" xmlns="http://www.w3.org/2000/svg" xmlns:xlink="http://www.w3.org/1999/xlink">
<g id="graph0" class="graph" transform="scale(1 1) rotate(0) translate(4 296)">
<title>HUDObjectDelegate</title>
<polygon fill="white" stroke="none" points="-4,4 -4,-296 308,-296 308,4 -4,4"/>
<!-- Node1 -->
<g id="node1" class="node"><title>Node1</title>
<polygon fill="#bfbfbf" stroke="black" points="94,-0.5 94,-19.5 198,-19.5 198,-0.5 94,-0.5"/>
<text text-anchor="middle" x="146" y="-7.5" font-family="Helvetica,sans-Serif" font-size="10.00">HUDObjectDelegate</text>
</g>
<!-- Node2 -->
<g id="node2" class="node"><title>Node2</title>
<polygon fill="white" stroke="#bfbfbf" points="174,-68.5 174,-87.5 304,-87.5 304,-68.5 174,-68.5"/>
<text text-anchor="middle" x="239" y="-75.5" font-family="Helvetica,sans-Serif" font-size="10.00">std::unique_ptr&lt; Hudget &gt;</text>
</g>
<!-- Node2&#45;&gt;Node1 -->
<g id="edge1" class="edge"><title>Node2&#45;&gt;Node1</title>
<path fill="none" stroke="#9a32cd" stroke-dasharray="5,2" d="M218.505,-62.4551C200.029,-49.3431 173.48,-30.5016 158.161,-19.6305"/>
<polygon fill="#9a32cd" stroke="#9a32cd" points="216.661,-65.4384 226.842,-68.3717 220.712,-59.7299 216.661,-65.4384"/>
<text text-anchor="middle" x="223" y="-41.5" font-family="Helvetica,sans-Serif" font-size="10.00"> m_hudget</text>
</g>
<!-- Node3 -->
<g id="node3" class="node"><title>Node3</title>
<g id="a_node3"><a xlink:href="class_hudget.html" target="_top" xlink:title="Hudget">
<polygon fill="white" stroke="black" points="185.5,-136.5 185.5,-155.5 232.5,-155.5 232.5,-136.5 185.5,-136.5"/>
<text text-anchor="middle" x="209" y="-143.5" font-family="Helvetica,sans-Serif" font-size="10.00">Hudget</text>
</a>
</g>
</g>
<!-- Node3&#45;&gt;Node2 -->
<g id="edge2" class="edge"><title>Node3&#45;&gt;Node2</title>
<path fill="none" stroke="#9a32cd" stroke-dasharray="5,2" d="M217.097,-127.186C222.885,-114.452 230.427,-97.8607 234.981,-87.8411"/>
<polygon fill="#9a32cd" stroke="#9a32cd" points="213.874,-125.82 212.922,-136.372 220.246,-128.716 213.874,-125.82"/>
<text text-anchor="middle" x="233.5" y="-109.5" font-family="Helvetica,sans-Serif" font-size="10.00"> ptr</text>
</g>
<!-- Node4 -->
<g id="node4" class="node"><title>Node4</title>
<g id="a_node4"><a xlink:href="class_h_u_d.html" target="_top" xlink:title="HUD">
<polygon fill="white" stroke="red" points="127.5,-204.5 127.5,-223.5 164.5,-223.5 164.5,-204.5 127.5,-204.5"/>
<text text-anchor="middle" x="146" y="-211.5" font-family="Helvetica,sans-Serif" font-size="10.00">HUD</text>
</a>
</g>
</g>
<!-- Node4&#45;&gt;Node1 -->
<g id="edge6" class="edge"><title>Node4&#45;&gt;Node1</title>
<path fill="none" stroke="#9a32cd" stroke-dasharray="5,2" d="M146,-194.291C146,-152.027 146,-50.4766 146,-19.8748"/>
<polygon fill="#9a32cd" stroke="#9a32cd" points="142.5,-194.32 146,-204.32 149.5,-194.32 142.5,-194.32"/>
<text text-anchor="middle" x="162.5" y="-109.5" font-family="Helvetica,sans-Serif" font-size="10.00"> m_hud</text>
</g>
<!-- Node4&#45;&gt;Node3 -->
<g id="edge3" class="edge"><title>Node4&#45;&gt;Node3</title>
<path fill="none" stroke="#9a32cd" stroke-dasharray="5,2" d="M161.227,-197.047C173.576,-184.111 190.523,-166.357 200.561,-155.841"/>
<polygon fill="#9a32cd" stroke="#9a32cd" points="158.609,-194.721 154.236,-204.372 163.673,-199.555 158.609,-194.721"/>
<text text-anchor="middle" x="199.5" y="-177.5" font-family="Helvetica,sans-Serif" font-size="10.00"> m_hud</text>
</g>
<!-- Node5 -->
<g id="node5" class="node"><title>Node5</title>
<g id="a_node5"><a xlink:href="class_handle.html" target="_top" xlink:title="Handle\&lt; WorldObject \&gt;">
<polygon fill="white" stroke="black" points="-0.5,-272.5 -0.5,-291.5 118.5,-291.5 118.5,-272.5 -0.5,-272.5"/>
<text text-anchor="middle" x="59" y="-279.5" font-family="Helvetica,sans-Serif" font-size="10.00">Handle&lt; WorldObject &gt;</text>
</a>
</g>
</g>
<!-- Node5&#45;&gt;Node1 -->
<g id="edge5" class="edge"><title>Node5&#45;&gt;Node1</title>
<path fill="none" stroke="#9a32cd" stroke-dasharray="5,2" d="M42.5453,-264.47C31.8941,-251.978 20,-233.816 20,-215 20,-215 20,-215 20,-77 20,-41.8106 59.0409,-25.3469 93.6593,-17.6653"/>
<polygon fill="#9a32cd" stroke="#9a32cd" points="40.2314,-267.127 49.5592,-272.151 45.4005,-262.407 40.2314,-267.127"/>
<text text-anchor="middle" x="69" y="-143.5" font-family="Helvetica,sans-Serif" font-size="10.00"> m_worldObjectHandle</text>
</g>
<!-- Node5&#45;&gt;Node4 -->
<g id="edge4" class="edge"><title>Node5&#45;&gt;Node4</title>
<path fill="none" stroke="#9a32cd" stroke-dasharray="5,2" d="M78.646,-266.096C95.9076,-253.001 120.424,-234.403 134.623,-223.63"/>
<polygon fill="#9a32cd" stroke="#9a32cd" points="76.2253,-263.539 70.3737,-272.372 80.456,-269.116 76.2253,-263.539"/>
<text text-anchor="middle" x="131" y="-245.5" font-family="Helvetica,sans-Serif" font-size="10.00"> m_target</text>
</g>
</g>
</svg>
