<?xml version="1.0" encoding="UTF-8" standalone="no"?>
<!DOCTYPE svg PUBLIC "-//W3C//DTD SVG 1.1//EN"
 "http://www.w3.org/Graphics/SVG/1.1/DTD/svg11.dtd">
<!-- Generated by graphviz version 2.36.0 (20140111.2315)
 -->
<!-- Title: VoxelNeighbourHelper Pages: 1 -->
<svg width="716pt" height="206pt"
 viewBox="0.00 0.00 716.00 206.00" xmlns="http://www.w3.org/2000/svg" xmlns:xlink="http://www.w3.org/1999/xlink">
<g id="graph0" class="graph" transform="scale(1 1) rotate(0) translate(4 202)">
<title>VoxelNeighbourHelper</title>
<polygon fill="white" stroke="none" points="-4,4 -4,-202 712,-202 712,4 -4,4"/>
<!-- Node1 -->
<g id="node1" class="node"><title>Node1</title>
<polygon fill="#bfbfbf" stroke="black" points="594.5,-44.5 594.5,-63.5 707.5,-63.5 707.5,-44.5 594.5,-44.5"/>
<text text-anchor="middle" x="651" y="-51.5" font-family="Helvetica,sans-Serif" font-size="10.00">VoxelNeighbourHelper</text>
</g>
<!-- Node2 -->
<g id="node2" class="node"><title>Node2</title>
<g id="a_node2"><a xlink:href="class_voxel_cluster.html" target="_top" xlink:title="VoxelCluster">
<polygon fill="white" stroke="black" points="416,-80.5 416,-99.5 488,-99.5 488,-80.5 416,-80.5"/>
<text text-anchor="middle" x="452" y="-87.5" font-family="Helvetica,sans-Serif" font-size="10.00">VoxelCluster</text>
</a>
</g>
</g>
<!-- Node2&#45;&gt;Node1 -->
<g id="edge1" class="edge"><title>Node2&#45;&gt;Node1</title>
<path fill="none" stroke="#9a32cd" stroke-dasharray="5,2" d="M498.288,-81.724C527.914,-76.3102 566.716,-69.2194 597.662,-63.5643"/>
<polygon fill="#9a32cd" stroke="#9a32cd" points="497.428,-78.3232 488.22,-83.5639 498.686,-85.2092 497.428,-78.3232"/>
<text text-anchor="middle" x="541" y="-83" font-family="Helvetica,sans-Serif" font-size="10.00"> m_voxelCluster</text>
</g>
<!-- Node3 -->
<g id="node3" class="node"><title>Node3</title>
<polygon fill="white" stroke="#bfbfbf" points="122,-119 122,-149 268,-149 268,-119 122,-119"/>
<text text-anchor="start" x="130" y="-137" font-family="Helvetica,sans-Serif" font-size="10.00">std::unique_ptr&lt; VoxelRender</text>
<text text-anchor="middle" x="195" y="-126" font-family="Helvetica,sans-Serif" font-size="10.00">Data &gt;</text>
</g>
<!-- Node3&#45;&gt;Node2 -->
<g id="edge2" class="edge"><title>Node3&#45;&gt;Node2</title>
<path fill="none" stroke="#9a32cd" stroke-dasharray="5,2" d="M278.573,-124.673C315.335,-119.872 359.036,-113.272 398,-105 405.203,-103.471 412.868,-101.504 420.065,-99.5023"/>
<polygon fill="#9a32cd" stroke="#9a32cd" points="277.871,-121.234 268.398,-125.979 278.762,-128.177 277.871,-121.234"/>
<text text-anchor="middle" x="342" y="-127" font-family="Helvetica,sans-Serif" font-size="10.00"> m_voxelRenderData</text>
</g>
<!-- Node4 -->
<g id="node4" class="node"><title>Node4</title>
<g id="a_node4"><a xlink:href="class_transform.html" target="_top" xlink:title="Transform">
<polygon fill="white" stroke="black" points="165.5,-80.5 165.5,-99.5 224.5,-99.5 224.5,-80.5 165.5,-80.5"/>
<text text-anchor="middle" x="195" y="-87.5" font-family="Helvetica,sans-Serif" font-size="10.00">Transform</text>
</a>
</g>
</g>
<!-- Node4&#45;&gt;Node2 -->
<g id="edge3" class="edge"><title>Node4&#45;&gt;Node2</title>
<path fill="none" stroke="#9a32cd" stroke-dasharray="5,2" d="M235.018,-90C284.32,-90 368.443,-90 415.841,-90"/>
<polygon fill="#9a32cd" stroke="#9a32cd" points="234.756,-86.5001 224.756,-90 234.756,-93.5001 234.756,-86.5001"/>
<text text-anchor="middle" x="342" y="-93" font-family="Helvetica,sans-Serif" font-size="10.00"> m_transform</text>
</g>
<!-- Node5 -->
<g id="node5" class="node"><title>Node5</title>
<polygon fill="white" stroke="#bfbfbf" points="137,-31 137,-61 253,-61 253,-31 137,-31"/>
<text text-anchor="start" x="145" y="-49" font-family="Helvetica,sans-Serif" font-size="10.00">std::unordered_map</text>
<text text-anchor="middle" x="195" y="-38" font-family="Helvetica,sans-Serif" font-size="10.00">&lt; glm::ivec3, Voxel * &gt;</text>
</g>
<!-- Node5&#45;&gt;Node2 -->
<g id="edge4" class="edge"><title>Node5&#45;&gt;Node2</title>
<path fill="none" stroke="#9a32cd" stroke-dasharray="5,2" d="M263.426,-53.3989C302.88,-58.2948 353.526,-65.5579 398,-75 405.203,-76.5292 412.868,-78.4955 420.065,-80.4977"/>
<polygon fill="#9a32cd" stroke="#9a32cd" points="263.739,-49.9112 253.389,-52.1742 262.891,-56.8596 263.739,-49.9112"/>
<text text-anchor="middle" x="342" y="-78" font-family="Helvetica,sans-Serif" font-size="10.00"> m_voxels</text>
</g>
<!-- Node6 -->
<g id="node6" class="node"><title>Node6</title>
<g id="a_node6"><a xlink:href="class_voxel.html" target="_top" xlink:title="Voxel">
<polygon fill="white" stroke="red" points="0.5,-11.5 0.5,-30.5 41.5,-30.5 41.5,-11.5 0.5,-11.5"/>
<text text-anchor="middle" x="21" y="-18.5" font-family="Helvetica,sans-Serif" font-size="10.00">Voxel</text>
</a>
</g>
</g>
<!-- Node6&#45;&gt;Node5 -->
<g id="edge5" class="edge"><title>Node6&#45;&gt;Node5</title>
<path fill="none" stroke="#9a32cd" stroke-dasharray="5,2" d="M51.7058,-25.3177C75.0411,-28.7095 108.239,-33.5348 136.7,-37.6716"/>
<polygon fill="#9a32cd" stroke="#9a32cd" points="52.1301,-21.8427 41.7306,-23.8678 51.1231,-28.7699 52.1301,-21.8427"/>
<text text-anchor="middle" x="82" y="-36" font-family="Helvetica,sans-Serif" font-size="10.00"> elements</text>
</g>
<!-- Node8 -->
<g id="node8" class="node"><title>Node8</title>
<polygon fill="white" stroke="#bfbfbf" points="286.5,-0.5 286.5,-19.5 397.5,-19.5 397.5,-0.5 286.5,-0.5"/>
<text text-anchor="middle" x="342" y="-7.5" font-family="Helvetica,sans-Serif" font-size="10.00">std::vector&lt; Voxel * &gt;</text>
</g>
<!-- Node6&#45;&gt;Node8 -->
<g id="edge8" class="edge"><title>Node6&#45;&gt;Node8</title>
<path fill="none" stroke="#9a32cd" stroke-dasharray="5,2" d="M51.6193,-14.179C54.4403,-13.7063 57.2669,-13.2993 60,-13 138.323,-4.42195 229.658,-5.47304 286.416,-7.41792"/>
<polygon fill="#9a32cd" stroke="#9a32cd" points="50.7635,-10.7794 41.604,-16.1043 52.085,-17.6535 50.7635,-10.7794"/>
<text text-anchor="middle" x="82" y="-16" font-family="Helvetica,sans-Serif" font-size="10.00"> elements</text>
</g>
<!-- Node7 -->
<g id="node7" class="node"><title>Node7</title>
<polygon fill="white" stroke="#bfbfbf" points="122,-168 122,-198 268,-198 268,-168 122,-168"/>
<text text-anchor="start" x="130" y="-186" font-family="Helvetica,sans-Serif" font-size="10.00">std::unique_ptr&lt; VoxelCluster</text>
<text text-anchor="middle" x="195" y="-175" font-family="Helvetica,sans-Serif" font-size="10.00">Bounds &gt;</text>
</g>
<!-- Node7&#45;&gt;Node2 -->
<g id="edge6" class="edge"><title>Node7&#45;&gt;Node2</title>
<path fill="none" stroke="#9a32cd" stroke-dasharray="5,2" d="M278.365,-175.123C316.401,-169.013 361.184,-158.183 398,-139 416.893,-129.156 434.065,-110.778 443.471,-99.5415"/>
<polygon fill="#9a32cd" stroke="#9a32cd" points="277.699,-171.684 268.34,-176.651 278.753,-178.604 277.699,-171.684"/>
<text text-anchor="middle" x="342" y="-177" font-family="Helvetica,sans-Serif" font-size="10.00"> m_bounds</text>
</g>
<!-- Node8&#45;&gt;Node1 -->
<g id="edge7" class="edge"><title>Node8&#45;&gt;Node1</title>
<path fill="none" stroke="#9a32cd" stroke-dasharray="5,2" d="M407.582,-19.2561C462.937,-27.1897 541.839,-38.4982 594.423,-46.0345"/>
<polygon fill="#9a32cd" stroke="#9a32cd" points="407.927,-15.7698 397.532,-17.8156 406.934,-22.699 407.927,-15.7698"/>
<text text-anchor="middle" x="452" y="-34" font-family="Helvetica,sans-Serif" font-size="10.00"> m_neighbours</text>
</g>
</g>
</svg>
