<?xml version="1.0" encoding="UTF-8" standalone="no"?>
<!DOCTYPE svg PUBLIC "-//W3C//DTD SVG 1.1//EN"
 "http://www.w3.org/Graphics/SVG/1.1/DTD/svg11.dtd">
<!-- Generated by graphviz version 2.36.0 (20140111.2315)
 -->
<!-- Title: HMDManager Pages: 1 -->
<svg width="257pt" height="244pt"
 viewBox="0.00 0.00 257.00 244.00" xmlns="http://www.w3.org/2000/svg" xmlns:xlink="http://www.w3.org/1999/xlink">
<g id="graph0" class="graph" transform="scale(1 1) rotate(0) translate(4 240)">
<title>HMDManager</title>
<polygon fill="white" stroke="none" points="-4,4 -4,-240 253,-240 253,4 -4,4"/>
<!-- Node1 -->
<g id="node1" class="node"><title>Node1</title>
<polygon fill="#bfbfbf" stroke="black" points="76,-68.5 76,-87.5 152,-87.5 152,-68.5 76,-68.5"/>
<text text-anchor="middle" x="114" y="-75.5" font-family="Helvetica,sans-Serif" font-size="10.00">HMDManager</text>
</g>
<!-- Node2 -->
<g id="node2" class="node"><title>Node2</title>
<polygon fill="white" stroke="#bfbfbf" points="38,-0.5 38,-19.5 190,-19.5 190,-0.5 38,-0.5"/>
<text text-anchor="middle" x="114" y="-7.5" font-family="Helvetica,sans-Serif" font-size="10.00">std::weak_ptr&lt; HMDManager &gt;</text>
</g>
<!-- Node1&#45;&gt;Node2 -->
<g id="edge2" class="edge"><title>Node1&#45;&gt;Node2</title>
<path fill="none" stroke="#9a32cd" stroke-dasharray="5,2" d="M99.8313,-60.1111C97.8449,-56.9267 96.1061,-53.4939 95,-50 91.5447,-39.0859 98.8908,-27.3832 105.43,-19.6761"/>
<polygon fill="#9a32cd" stroke="#9a32cd" points="97.0538,-62.2427 105.766,-68.272 102.715,-58.1258 97.0538,-62.2427"/>
<text text-anchor="middle" x="102.5" y="-41.5" font-family="Helvetica,sans-Serif" font-size="10.00"> ptr</text>
</g>
<!-- Node2&#45;&gt;Node1 -->
<g id="edge1" class="edge"><title>Node2&#45;&gt;Node1</title>
<path fill="none" stroke="#9a32cd" stroke-dasharray="5,2" d="M114,-29.8504C114,-42.528 114,-58.6426 114,-68.3717"/>
<polygon fill="#9a32cd" stroke="#9a32cd" points="117.5,-29.8411 114,-19.8411 110.5,-29.8412 117.5,-29.8411"/>
<text text-anchor="middle" x="139.5" y="-41.5" font-family="Helvetica,sans-Serif" font-size="10.00"> s_instance</text>
</g>
<!-- Node3 -->
<g id="node3" class="node"><title>Node3</title>
<g id="a_node3"><a xlink:href="class_h_m_d.html" target="_top" xlink:title="HMD">
<polygon fill="white" stroke="black" points="95,-136.5 95,-155.5 133,-155.5 133,-136.5 95,-136.5"/>
<text text-anchor="middle" x="114" y="-143.5" font-family="Helvetica,sans-Serif" font-size="10.00">HMD</text>
</a>
</g>
</g>
<!-- Node3&#45;&gt;Node1 -->
<g id="edge3" class="edge"><title>Node3&#45;&gt;Node1</title>
<path fill="none" stroke="#9a32cd" stroke-dasharray="5,2" d="M114,-126.041C114,-113.472 114,-97.5631 114,-87.8411"/>
<polygon fill="#9a32cd" stroke="#9a32cd" points="110.5,-126.372 114,-136.372 117.5,-126.372 110.5,-126.372"/>
<text text-anchor="middle" x="132" y="-109.5" font-family="Helvetica,sans-Serif" font-size="10.00"> m_hmd</text>
</g>
<!-- Node4 -->
<g id="node4" class="node"><title>Node4</title>
<polygon fill="white" stroke="#bfbfbf" points="-0.5,-205 -0.5,-235 110.5,-235 110.5,-205 -0.5,-205"/>
<text text-anchor="start" x="7.5" y="-223" font-family="Helvetica,sans-Serif" font-size="10.00">std::unique_ptr&lt; OVR</text>
<text text-anchor="middle" x="55" y="-212" font-family="Helvetica,sans-Serif" font-size="10.00">::SensorFusion &gt;</text>
</g>
<!-- Node4&#45;&gt;Node3 -->
<g id="edge4" class="edge"><title>Node4&#45;&gt;Node3</title>
<path fill="none" stroke="#9a32cd" stroke-dasharray="5,2" d="M63.2612,-195.428C66.5234,-188.09 70.763,-180.283 76,-174 82.1143,-166.664 90.6656,-160.355 98.1082,-155.684"/>
<polygon fill="#9a32cd" stroke="#9a32cd" points="59.9126,-194.373 59.4168,-204.957 66.4042,-196.992 59.9126,-194.373"/>
<text text-anchor="middle" x="114" y="-177.5" font-family="Helvetica,sans-Serif" font-size="10.00"> m_sensorFusion</text>
</g>
<!-- Node5 -->
<g id="node5" class="node"><title>Node5</title>
<g id="a_node5"><a xlink:href="class_stereo_render_info.html" target="_top" xlink:title="StereoRenderInfo">
<polygon fill="white" stroke="red" points="128.5,-210.5 128.5,-229.5 219.5,-229.5 219.5,-210.5 128.5,-210.5"/>
<text text-anchor="middle" x="174" y="-217.5" font-family="Helvetica,sans-Serif" font-size="10.00">StereoRenderInfo</text>
</a>
</g>
</g>
<!-- Node5&#45;&gt;Node3 -->
<g id="edge5" class="edge"><title>Node5&#45;&gt;Node3</title>
<path fill="none" stroke="#9a32cd" stroke-dasharray="5,2" d="M167.504,-200.692C163.835,-191.997 158.642,-181.824 152,-174 145.82,-166.72 137.263,-160.415 129.834,-155.732"/>
<polygon fill="#9a32cd" stroke="#9a32cd" points="164.35,-202.239 171.219,-210.306 170.88,-199.716 164.35,-202.239"/>
<text text-anchor="middle" x="204" y="-177.5" font-family="Helvetica,sans-Serif" font-size="10.00"> m_stereoRenderInfo</text>
</g>
</g>
</svg>
