<?xml version="1.0" encoding="UTF-8" standalone="no"?>
<!DOCTYPE svg PUBLIC "-//W3C//DTD SVG 1.1//EN"
 "http://www.w3.org/Graphics/SVG/1.1/DTD/svg11.dtd">
<!-- Generated by graphviz version 2.36.0 (20140111.2315)
 -->
<!-- Title: GenericRocket Pages: 1 -->
<!--zoomable 164 -->
<svg id="main" version="1.1" xmlns="http://www.w3.org/2000/svg" xmlns:xlink="http://www.w3.org/1999/xlink" xml:space="preserve" onload="init(evt)">
<style type="text/css"><![CDATA[
.edge:hover path { stroke: red; }
.edge:hover polygon { stroke: red; fill: red; }
]]></style>
<script type="text/javascript"><![CDATA[
var edges = document.getElementsByTagName('g');
if (edges && edges.length) {
  for (var i=0;i<edges.length;i++) {
    if (edges[i].id.substr(0,4)=='edge') {
      edges[i].setAttribute('class','edge');
    }
  }
}
]]></script>
        <defs>
                <circle id="rim" cx="0" cy="0" r="7"/>
                <circle id="rim2" cx="0" cy="0" r="3.5"/>
                <g id="zoomPlus">
                        <use xlink:href="#rim" fill="#404040">
                                <set attributeName="fill" to="#808080" begin="zoomplus.mouseover" end="zoomplus.mouseout"/>
                        </use>
                        <path d="M-4,0h8M0,-4v8" fill="none" stroke="white" stroke-width="1.5" pointer-events="none"/>
                </g>
                <g id="zoomMin">
                        <use xlink:href="#rim" fill="#404040">
                                <set attributeName="fill" to="#808080" begin="zoomminus.mouseover" end="zoomminus.mouseout"/>
                        </use>
                        <path d="M-4,0h8" fill="none" stroke="white" stroke-width="1.5" pointer-events="none"/>
                </g>
                <g id="dirArrow">
                        <path fill="none" stroke="white" stroke-width="1.5" d="M0,-3.0v7 M-2.5,-0.5L0,-3.0L2.5,-0.5"/>
                </g>
               <g id="resetDef">
                       <use xlink:href="#rim2" fill="#404040">
                               <set attributeName="fill" to="#808080" begin="reset.mouseover" end="reset.mouseout"/>
                       </use>
               </g>
        </defs>

<script type="text/javascript">
var viewWidth = 530;
var viewHeight = 164;
var sectionId = 'dynsection-1';
</script>
<script xlink:href="svgpan.js"/>
<svg id="graph" class="graph">
<g id="viewport">
<title>GenericRocket</title>
<polygon fill="white" stroke="none" points="-4,4 -4,-160 526,-160 526,4 -4,4"/>
<!-- Node1 -->
<g id="node1" class="node"><title>Node1</title>
<polygon fill="#bfbfbf" stroke="black" points="309.5,-0.5 309.5,-19.5 390.5,-19.5 390.5,-0.5 309.5,-0.5"/>
<text text-anchor="middle" x="350" y="-7.5" font-family="Helvetica,sans-Serif" font-size="10.00">GenericRocket</text>
</g>
<!-- Node2 -->
<g id="node2" class="node"><title>Node2</title>
<g id="a_node2"><a xlink:href="class_rocket.html" target="_top" xlink:title="Rocket">
<polygon fill="white" stroke="black" points="230.5,-68.5 230.5,-87.5 277.5,-87.5 277.5,-68.5 230.5,-68.5"/>
<text text-anchor="middle" x="254" y="-75.5" font-family="Helvetica,sans-Serif" font-size="10.00">Rocket</text>
</a>
</g>
</g>
<!-- Node2&#45;&gt;Node1 -->
<g id="edge1" class="edge"><title>Node2&#45;&gt;Node1</title>
<path fill="none" stroke="midnightblue" d="M274.897,-62.6336C293.979,-49.5145 321.562,-30.551 337.447,-19.6305"/>
<polygon fill="midnightblue" stroke="midnightblue" points="272.808,-59.8222 266.55,-68.3717 276.774,-65.5905 272.808,-59.8222"/>
</g>
<!-- Node3 -->
<g id="node3" class="node"><title>Node3</title>
<g id="a_node3"><a xlink:href="class_projectile.html" target="_top" xlink:title="Projectile">
<polygon fill="white" stroke="red" points="-0.5,-136.5 -0.5,-155.5 56.5,-155.5 56.5,-136.5 -0.5,-136.5"/>
<text text-anchor="middle" x="28" y="-143.5" font-family="Helvetica,sans-Serif" font-size="10.00">Projectile</text>
</a>
</g>
</g>
<!-- Node3&#45;&gt;Node2 -->
<g id="edge2" class="edge"><title>Node3&#45;&gt;Node2</title>
<path fill="none" stroke="midnightblue" d="M66.21,-133.488C92.3193,-125.655 127.722,-115.1 159,-106 183.201,-98.9586 210.933,-91.1012 230.161,-85.6866"/>
<polygon fill="midnightblue" stroke="midnightblue" points="64.9058,-130.225 56.3351,-136.454 66.9192,-136.929 64.9058,-130.225"/>
</g>
<!-- Node4 -->
<g id="node4" class="node"><title>Node4</title>
<g id="a_node4"><a xlink:href="class_handle.html" target="_top" xlink:title="Handle\&lt; WorldObject \&gt;">
<polygon fill="white" stroke="black" points="74.5,-136.5 74.5,-155.5 193.5,-155.5 193.5,-136.5 74.5,-136.5"/>
<text text-anchor="middle" x="134" y="-143.5" font-family="Helvetica,sans-Serif" font-size="10.00">Handle&lt; WorldObject &gt;</text>
</a>
</g>
</g>
<!-- Node4&#45;&gt;Node2 -->
<g id="edge3" class="edge"><title>Node4&#45;&gt;Node2</title>
<path fill="none" stroke="#9a32cd" stroke-dasharray="5,2" d="M148.83,-129.237C156.866,-121.41 167.32,-112.305 178,-106 194.399,-96.319 214.823,-89.3039 230.368,-84.8545"/>
<polygon fill="#9a32cd" stroke="#9a32cd" points="146.21,-126.909 141.681,-136.487 151.194,-131.824 146.21,-126.909"/>
<text text-anchor="middle" x="214" y="-109.5" font-family="Helvetica,sans-Serif" font-size="10.00"> m_targetHandle</text>
</g>
<!-- Node5 -->
<g id="node5" class="node"><title>Node5</title>
<g id="a_node5"><a xlink:href="class_board_computer.html" target="_top" xlink:title="BoardComputer">
<polygon fill="white" stroke="red" points="212,-136.5 212,-155.5 296,-155.5 296,-136.5 212,-136.5"/>
<text text-anchor="middle" x="254" y="-143.5" font-family="Helvetica,sans-Serif" font-size="10.00">BoardComputer</text>
</a>
</g>
</g>
<!-- Node5&#45;&gt;Node2 -->
<g id="edge4" class="edge"><title>Node5&#45;&gt;Node2</title>
<path fill="none" stroke="#9a32cd" stroke-dasharray="5,2" d="M254,-126.041C254,-113.472 254,-97.5631 254,-87.8411"/>
<polygon fill="#9a32cd" stroke="#9a32cd" points="250.5,-126.372 254,-136.372 257.5,-126.372 250.5,-126.372"/>
<text text-anchor="middle" x="295.5" y="-109.5" font-family="Helvetica,sans-Serif" font-size="10.00"> m_boardComputer</text>
</g>
<!-- Node6 -->
<g id="node6" class="node"><title>Node6</title>
<polygon fill="white" stroke="#bfbfbf" points="314.5,-136.5 314.5,-155.5 443.5,-155.5 443.5,-136.5 314.5,-136.5"/>
<text text-anchor="middle" x="379" y="-143.5" font-family="Helvetica,sans-Serif" font-size="10.00">std::unique_ptr&lt; AiTask &gt;</text>
</g>
<!-- Node6&#45;&gt;Node2 -->
<g id="edge5" class="edge"><title>Node6&#45;&gt;Node2</title>
<path fill="none" stroke="#9a32cd" stroke-dasharray="5,2" d="M366.236,-128.49C359.473,-120.712 350.59,-111.875 341,-106 321.446,-94.0208 296.132,-86.9498 277.856,-83.07"/>
<polygon fill="#9a32cd" stroke="#9a32cd" points="363.621,-130.82 372.674,-136.323 369.028,-126.375 363.621,-130.82"/>
<text text-anchor="middle" x="380" y="-109.5" font-family="Helvetica,sans-Serif" font-size="10.00"> m_aiTask</text>
</g>
<!-- Node7 -->
<g id="node7" class="node"><title>Node7</title>
<g id="a_node7"><a xlink:href="class_sound_properties.html" target="_top" xlink:title="SoundProperties">
<polygon fill="white" stroke="black" points="371.5,-68.5 371.5,-87.5 460.5,-87.5 460.5,-68.5 371.5,-68.5"/>
<text text-anchor="middle" x="416" y="-75.5" font-family="Helvetica,sans-Serif" font-size="10.00">SoundProperties</text>
</a>
</g>
</g>
<!-- Node7&#45;&gt;Node1 -->
<g id="edge6" class="edge"><title>Node7&#45;&gt;Node1</title>
<path fill="none" stroke="#9a32cd" stroke-dasharray="5,2" d="M400.047,-61.0474C387.111,-48.1111 369.357,-30.3567 358.841,-19.8411"/>
<polygon fill="#9a32cd" stroke="#9a32cd" points="397.826,-63.7754 407.372,-68.3717 402.775,-58.8257 397.826,-63.7754"/>
<text text-anchor="middle" x="416.5" y="-41.5" font-family="Helvetica,sans-Serif" font-size="10.00"> m_hitSound</text>
</g>
<!-- Node8 -->
<g id="node8" class="node"><title>Node8</title>
<g id="a_node8"><a xlink:title="STL class. ">
<polygon fill="white" stroke="#bfbfbf" points="462,-136.5 462,-155.5 522,-155.5 522,-136.5 462,-136.5"/>
<text text-anchor="middle" x="492" y="-143.5" font-family="Helvetica,sans-Serif" font-size="10.00">std::string</text>
</a>
</g>
</g>
<!-- Node8&#45;&gt;Node7 -->
<g id="edge7" class="edge"><title>Node8&#45;&gt;Node7</title>
<path fill="none" stroke="#9a32cd" stroke-dasharray="5,2" d="M474.468,-129.774C459.508,-116.784 438.518,-98.5551 426.181,-87.8411"/>
<polygon fill="#9a32cd" stroke="#9a32cd" points="472.219,-132.457 482.064,-136.372 476.809,-127.172 472.219,-132.457"/>
<text text-anchor="middle" x="482.5" y="-109.5" font-family="Helvetica,sans-Serif" font-size="10.00"> m_sound</text>
</g>
</g>
</svg>
        <g id="navigator" transform="translate(0 0)" fill="#404254">
                <rect fill="#f2f5e9" fill-opacity="0.5" stroke="#606060" stroke-width=".5" x="0" y="0" width="60" height="60"/>
                <use id="zoomplus" xlink:href="#zoomPlus" x="17" y="9" onmousedown="handleZoom(evt,'in')"/>
                <use id="zoomminus" xlink:href="#zoomMin" x="42" y="9" onmousedown="handleZoom(evt,'out')"/>
                <use id="reset" xlink:href="#resetDef" x="30" y="36" onmousedown="handleReset()"/>
                <g id="arrowUp" xlink:href="#dirArrow" transform="translate(30 24)" onmousedown="handlePan(0,-1)">
                  <use xlink:href="#rim" fill="#404040">
                        <set attributeName="fill" to="#808080" begin="arrowUp.mouseover" end="arrowUp.mouseout"/>
                  </use>
                  <path fill="none" stroke="white" stroke-width="1.5" d="M0,-3.0v7 M-2.5,-0.5L0,-3.0L2.5,-0.5"/>
                </g>
                <g id="arrowRight" xlink:href="#dirArrow" transform="rotate(90) translate(36 -43)" onmousedown="handlePan(1,0)">
                  <use xlink:href="#rim" fill="#404040">
                        <set attributeName="fill" to="#808080" begin="arrowRight.mouseover" end="arrowRight.mouseout"/>
                  </use>
                  <path fill="none" stroke="white" stroke-width="1.5" d="M0,-3.0v7 M-2.5,-0.5L0,-3.0L2.5,-0.5"/>
                </g>
                <g id="arrowDown" xlink:href="#dirArrow" transform="rotate(180) translate(-30 -48)" onmousedown="handlePan(0,1)">
                  <use xlink:href="#rim" fill="#404040">
                        <set attributeName="fill" to="#808080" begin="arrowDown.mouseover" end="arrowDown.mouseout"/>
                  </use>
                  <path fill="none" stroke="white" stroke-width="1.5" d="M0,-3.0v7 M-2.5,-0.5L0,-3.0L2.5,-0.5"/>
                </g>
                <g id="arrowLeft" xlink:href="#dirArrow" transform="rotate(270) translate(-36 17)" onmousedown="handlePan(-1,0)">
                  <use xlink:href="#rim" fill="#404040">
                        <set attributeName="fill" to="#808080" begin="arrowLeft.mouseover" end="arrowLeft.mouseout"/>
                  </use>
                  <path fill="none" stroke="white" stroke-width="1.5" d="M0,-3.0v7 M-2.5,-0.5L0,-3.0L2.5,-0.5"/>
                </g>
        </g>
        <svg viewBox="0 0 15 15" width="100%" height="30px" preserveAspectRatio="xMaxYMin meet">
         <g id="arrow_out" transform="scale(0.3 0.3)">
          <a xlink:href="class_generic_rocket__coll__graph_org.svg" target="_base">
           <rect id="button" ry="5" rx="5" y="6" x="6" height="38" width="38"
                fill="#f2f5e9" fill-opacity="0.5" stroke="#606060" stroke-width="1.0"/>
           <path id="arrow"
             d="M 11.500037,31.436501 C 11.940474,20.09759 22.043105,11.32322 32.158766,21.979434 L 37.068811,17.246167 C 37.068811,17.246167 37.088388,32 37.088388,32 L 22.160133,31.978069 C 22.160133,31.978069 26.997745,27.140456 26.997745,27.140456 C 18.528582,18.264221 13.291696,25.230495 11.500037,31.436501 z"
             style="fill:#404040;"/>
          </a>
         </g>
        </svg>
</svg>
