<?xml version="1.0" encoding="UTF-8" standalone="no"?>
<!DOCTYPE svg PUBLIC "-//W3C//DTD SVG 1.1//EN"
 "http://www.w3.org/Graphics/SVG/1.1/DTD/svg11.dtd">
<!-- Generated by graphviz version 2.36.0 (20140111.2315)
 -->
<!-- Title: DamageForwarder Pages: 1 -->
<!--zoomable 264 -->
<svg id="main" version="1.1" xmlns="http://www.w3.org/2000/svg" xmlns:xlink="http://www.w3.org/1999/xlink" xml:space="preserve" onload="init(evt)">
<style type="text/css"><![CDATA[
.edge:hover path { stroke: red; }
.edge:hover polygon { stroke: red; fill: red; }
]]></style>
<script type="text/javascript"><![CDATA[
var edges = document.getElementsByTagName('g');
if (edges && edges.length) {
  for (var i=0;i<edges.length;i++) {
    if (edges[i].id.substr(0,4)=='edge') {
      edges[i].setAttribute('class','edge');
    }
  }
}
]]></script>
        <defs>
                <circle id="rim" cx="0" cy="0" r="7"/>
                <circle id="rim2" cx="0" cy="0" r="3.5"/>
                <g id="zoomPlus">
                        <use xlink:href="#rim" fill="#404040">
                                <set attributeName="fill" to="#808080" begin="zoomplus.mouseover" end="zoomplus.mouseout"/>
                        </use>
                        <path d="M-4,0h8M0,-4v8" fill="none" stroke="white" stroke-width="1.5" pointer-events="none"/>
                </g>
                <g id="zoomMin">
                        <use xlink:href="#rim" fill="#404040">
                                <set attributeName="fill" to="#808080" begin="zoomminus.mouseover" end="zoomminus.mouseout"/>
                        </use>
                        <path d="M-4,0h8" fill="none" stroke="white" stroke-width="1.5" pointer-events="none"/>
                </g>
                <g id="dirArrow">
                        <path fill="none" stroke="white" stroke-width="1.5" d="M0,-3.0v7 M-2.5,-0.5L0,-3.0L2.5,-0.5"/>
                </g>
               <g id="resetDef">
                       <use xlink:href="#rim2" fill="#404040">
                               <set attributeName="fill" to="#808080" begin="reset.mouseover" end="reset.mouseout"/>
                       </use>
               </g>
        </defs>

<script type="text/javascript">
var viewWidth = 549;
var viewHeight = 264;
var sectionId = 'dynsection-0';
</script>
<script xlink:href="svgpan.js"/>
<svg id="graph" class="graph">
<g id="viewport">
<title>DamageForwarder</title>
<polygon fill="white" stroke="none" points="-4,4 -4,-260 545,-260 545,4 -4,4"/>
<!-- Node1 -->
<g id="node1" class="node"><title>Node1</title>
<polygon fill="#bfbfbf" stroke="black" points="273.5,-0.5 273.5,-19.5 368.5,-19.5 368.5,-0.5 273.5,-0.5"/>
<text text-anchor="middle" x="321" y="-7.5" font-family="Helvetica,sans-Serif" font-size="10.00">DamageForwarder</text>
</g>
<!-- Node2 -->
<g id="node2" class="node"><title>Node2</title>
<g id="a_node2"><a xlink:href="class_voxel_accumulator.html" target="_top" xlink:title="VoxelAccumulator\&lt; Damage\lImpact \&gt;">
<polygon fill="white" stroke="black" points="99.5,-69 99.5,-99 240.5,-99 240.5,-69 99.5,-69"/>
<text text-anchor="start" x="107.5" y="-87" font-family="Helvetica,sans-Serif" font-size="10.00">VoxelAccumulator&lt; Damage</text>
<text text-anchor="middle" x="170" y="-76" font-family="Helvetica,sans-Serif" font-size="10.00">Impact &gt;</text>
</a>
</g>
</g>
<!-- Node2&#45;&gt;Node1 -->
<g id="edge1" class="edge"><title>Node2&#45;&gt;Node1</title>
<path fill="none" stroke="#9a32cd" stroke-dasharray="5,2" d="M164.965,-58.7229C164.789,-51.3189 166.167,-43.6514 171,-38 184.069,-22.7163 234.5,-16.0634 273.317,-13.1804"/>
<polygon fill="#9a32cd" stroke="#9a32cd" points="161.497,-59.2098 166.05,-68.7764 168.457,-58.4585 161.497,-59.2098"/>
<text text-anchor="middle" x="239" y="-41.5" font-family="Helvetica,sans-Serif" font-size="10.00"> m_damageImpactAccumulator</text>
</g>
<!-- Node3 -->
<g id="node3" class="node"><title>Node3</title>
<polygon fill="white" stroke="#bfbfbf" points="0,-162.5 0,-181.5 132,-181.5 132,-162.5 0,-162.5"/>
<text text-anchor="middle" x="66" y="-169.5" font-family="Helvetica,sans-Serif" font-size="10.00">std::list&lt; DamageImpact &gt;</text>
</g>
<!-- Node3&#45;&gt;Node2 -->
<g id="edge2" class="edge"><title>Node3&#45;&gt;Node2</title>
<path fill="none" stroke="#9a32cd" stroke-dasharray="5,2" d="M65.096,-152.34C65.5379,-141.173 67.9448,-127.375 76,-118 82.9885,-109.867 92.1055,-103.737 101.91,-99.1181"/>
<polygon fill="#9a32cd" stroke="#9a32cd" points="61.5962,-152.397 65.1728,-162.37 68.596,-152.343 61.5962,-152.397"/>
<text text-anchor="middle" x="118.5" y="-125.5" font-family="Helvetica,sans-Serif" font-size="10.00"> m_accumulatables</text>
</g>
<!-- Node4 -->
<g id="node4" class="node"><title>Node4</title>
<polygon fill="white" stroke="#bfbfbf" points="172,-157 172,-187 288,-187 288,-157 172,-157"/>
<text text-anchor="start" x="180" y="-175" font-family="Helvetica,sans-Serif" font-size="10.00">std::map&lt; const Voxel</text>
<text text-anchor="middle" x="230" y="-164" font-family="Helvetica,sans-Serif" font-size="10.00"> *, DamageImpact &gt;</text>
</g>
<!-- Node4&#45;&gt;Node2 -->
<g id="edge3" class="edge"><title>Node4&#45;&gt;Node2</title>
<path fill="none" stroke="#9a32cd" stroke-dasharray="5,2" d="M181.84,-151.217C177.153,-147.488 173.023,-143.113 170,-138 163.069,-126.278 164.152,-110.395 166.299,-99.0807"/>
<polygon fill="#9a32cd" stroke="#9a32cd" points="179.929,-154.15 190.161,-156.901 183.878,-148.37 179.929,-154.15"/>
<text text-anchor="middle" x="231" y="-125.5" font-family="Helvetica,sans-Serif" font-size="10.00"> m_voxelAccumulatableMap</text>
</g>
<!-- Node5 -->
<g id="node5" class="node"><title>Node5</title>
<g id="a_node5"><a xlink:href="class_voxel.html" target="_top" xlink:title="Voxel">
<polygon fill="white" stroke="red" points="316.5,-236.5 316.5,-255.5 357.5,-255.5 357.5,-236.5 316.5,-236.5"/>
<text text-anchor="middle" x="337" y="-243.5" font-family="Helvetica,sans-Serif" font-size="10.00">Voxel</text>
</a>
</g>
</g>
<!-- Node5&#45;&gt;Node4 -->
<g id="edge4" class="edge"><title>Node5&#45;&gt;Node4</title>
<path fill="none" stroke="#9a32cd" stroke-dasharray="5,2" d="M312.264,-231.542C304.981,-227.379 297.073,-222.659 290,-218 275.32,-208.331 259.438,-196.345 247.703,-187.176"/>
<polygon fill="#9a32cd" stroke="#9a32cd" points="310.611,-234.627 321.044,-236.469 314.037,-228.523 310.611,-234.627"/>
<text text-anchor="middle" x="302.5" y="-209.5" font-family="Helvetica,sans-Serif" font-size="10.00"> keys</text>
</g>
<!-- Node6 -->
<g id="node6" class="node"><title>Node6</title>
<g id="a_node6"><a xlink:href="class_world_object.html" target="_top" xlink:title="WorldObject">
<polygon fill="white" stroke="red" points="301.5,-118.5 301.5,-137.5 372.5,-137.5 372.5,-118.5 301.5,-118.5"/>
<text text-anchor="middle" x="337" y="-125.5" font-family="Helvetica,sans-Serif" font-size="10.00">WorldObject</text>
</a>
</g>
</g>
<!-- Node5&#45;&gt;Node6 -->
<g id="edge6" class="edge"><title>Node5&#45;&gt;Node6</title>
<path fill="none" stroke="#9a32cd" stroke-dasharray="5,2" d="M337,-226.025C337,-200.464 337,-156.041 337,-137.505"/>
<polygon fill="#9a32cd" stroke="#9a32cd" points="333.5,-226.281 337,-236.281 340.5,-226.281 333.5,-226.281"/>
<text text-anchor="middle" x="372" y="-209.5" font-family="Helvetica,sans-Serif" font-size="10.00"> m_crucialVoxel</text>
</g>
<!-- Node7 -->
<g id="node7" class="node"><title>Node7</title>
<polygon fill="white" stroke="#bfbfbf" points="393,-118.5 393,-137.5 491,-137.5 491,-118.5 393,-118.5"/>
<text text-anchor="middle" x="442" y="-125.5" font-family="Helvetica,sans-Serif" font-size="10.00">std::list&lt; Voxel * &gt;</text>
</g>
<!-- Node5&#45;&gt;Node7 -->
<g id="edge8" class="edge"><title>Node5&#45;&gt;Node7</title>
<path fill="none" stroke="#9a32cd" stroke-dasharray="5,2" d="M367.619,-240.157C382.431,-236.38 399.457,-229.713 411,-218 433.509,-195.158 439.723,-155.123 441.399,-137.611"/>
<polygon fill="#9a32cd" stroke="#9a32cd" points="366.816,-236.75 357.813,-242.336 368.335,-243.583 366.816,-236.75"/>
<text text-anchor="middle" x="442.5" y="-209.5" font-family="Helvetica,sans-Serif" font-size="10.00"> elements</text>
</g>
<!-- Node6&#45;&gt;Node1 -->
<g id="edge5" class="edge"><title>Node6&#45;&gt;Node1</title>
<path fill="none" stroke="#9a32cd" stroke-dasharray="5,2" d="M334.43,-108.369C330.912,-82.8648 324.741,-38.1243 322.173,-19.5048"/>
<polygon fill="#9a32cd" stroke="#9a32cd" points="330.964,-108.853 335.797,-118.281 337.898,-107.897 330.964,-108.853"/>
<text text-anchor="middle" x="384.5" y="-81.5" font-family="Helvetica,sans-Serif" font-size="10.00"> m_currentWorldObject</text>
</g>
<!-- Node7&#45;&gt;Node1 -->
<g id="edge7" class="edge"><title>Node7&#45;&gt;Node1</title>
<path fill="none" stroke="#9a32cd" stroke-dasharray="5,2" d="M444.534,-107.926C445.175,-95.5071 443.992,-79.5329 436,-68 418.104,-42.1753 385.035,-27.5066 358.936,-19.539"/>
<polygon fill="#9a32cd" stroke="#9a32cd" points="441.029,-107.817 443.576,-118.101 447.998,-108.474 441.029,-107.817"/>
<text text-anchor="middle" x="493" y="-81.5" font-family="Helvetica,sans-Serif" font-size="10.00"> m_currentNeighbours</text>
</g>
</g>
</svg>
        <g id="navigator" transform="translate(0 0)" fill="#404254">
                <rect fill="#f2f5e9" fill-opacity="0.5" stroke="#606060" stroke-width=".5" x="0" y="0" width="60" height="60"/>
                <use id="zoomplus" xlink:href="#zoomPlus" x="17" y="9" onmousedown="handleZoom(evt,'in')"/>
                <use id="zoomminus" xlink:href="#zoomMin" x="42" y="9" onmousedown="handleZoom(evt,'out')"/>
                <use id="reset" xlink:href="#resetDef" x="30" y="36" onmousedown="handleReset()"/>
                <g id="arrowUp" xlink:href="#dirArrow" transform="translate(30 24)" onmousedown="handlePan(0,-1)">
                  <use xlink:href="#rim" fill="#404040">
                        <set attributeName="fill" to="#808080" begin="arrowUp.mouseover" end="arrowUp.mouseout"/>
                  </use>
                  <path fill="none" stroke="white" stroke-width="1.5" d="M0,-3.0v7 M-2.5,-0.5L0,-3.0L2.5,-0.5"/>
                </g>
                <g id="arrowRight" xlink:href="#dirArrow" transform="rotate(90) translate(36 -43)" onmousedown="handlePan(1,0)">
                  <use xlink:href="#rim" fill="#404040">
                        <set attributeName="fill" to="#808080" begin="arrowRight.mouseover" end="arrowRight.mouseout"/>
                  </use>
                  <path fill="none" stroke="white" stroke-width="1.5" d="M0,-3.0v7 M-2.5,-0.5L0,-3.0L2.5,-0.5"/>
                </g>
                <g id="arrowDown" xlink:href="#dirArrow" transform="rotate(180) translate(-30 -48)" onmousedown="handlePan(0,1)">
                  <use xlink:href="#rim" fill="#404040">
                        <set attributeName="fill" to="#808080" begin="arrowDown.mouseover" end="arrowDown.mouseout"/>
                  </use>
                  <path fill="none" stroke="white" stroke-width="1.5" d="M0,-3.0v7 M-2.5,-0.5L0,-3.0L2.5,-0.5"/>
                </g>
                <g id="arrowLeft" xlink:href="#dirArrow" transform="rotate(270) translate(-36 17)" onmousedown="handlePan(-1,0)">
                  <use xlink:href="#rim" fill="#404040">
                        <set attributeName="fill" to="#808080" begin="arrowLeft.mouseover" end="arrowLeft.mouseout"/>
                  </use>
                  <path fill="none" stroke="white" stroke-width="1.5" d="M0,-3.0v7 M-2.5,-0.5L0,-3.0L2.5,-0.5"/>
                </g>
        </g>
        <svg viewBox="0 0 15 15" width="100%" height="30px" preserveAspectRatio="xMaxYMin meet">
         <g id="arrow_out" transform="scale(0.3 0.3)">
          <a xlink:href="class_damage_forwarder__coll__graph_org.svg" target="_base">
           <rect id="button" ry="5" rx="5" y="6" x="6" height="38" width="38"
                fill="#f2f5e9" fill-opacity="0.5" stroke="#606060" stroke-width="1.0"/>
           <path id="arrow"
             d="M 11.500037,31.436501 C 11.940474,20.09759 22.043105,11.32322 32.158766,21.979434 L 37.068811,17.246167 C 37.068811,17.246167 37.088388,32 37.088388,32 L 22.160133,31.978069 C 22.160133,31.978069 26.997745,27.140456 26.997745,27.140456 C 18.528582,18.264221 13.291696,25.230495 11.500037,31.436501 z"
             style="fill:#404040;"/>
          </a>
         </g>
        </svg>
</svg>
