<?xml version="1.0" encoding="UTF-8" standalone="no"?>
<!DOCTYPE svg PUBLIC "-//W3C//DTD SVG 1.1//EN"
 "http://www.w3.org/Graphics/SVG/1.1/DTD/svg11.dtd">
<!-- Generated by graphviz version 2.36.0 (20140111.2315)
 -->
<!-- Title: ScriptEngine Pages: 1 -->
<svg width="823pt" height="516pt"
 viewBox="0.00 0.00 822.50 516.00" xmlns="http://www.w3.org/2000/svg" xmlns:xlink="http://www.w3.org/1999/xlink">
<g id="graph0" class="graph" transform="scale(1 1) rotate(0) translate(4 512)">
<title>ScriptEngine</title>
<polygon fill="white" stroke="none" points="-4,4 -4,-512 818.5,-512 818.5,4 -4,4"/>
<!-- Node1 -->
<g id="node1" class="node"><title>Node1</title>
<polygon fill="#bfbfbf" stroke="black" points="372,-33.5 372,-52.5 444,-52.5 444,-33.5 372,-33.5"/>
<text text-anchor="middle" x="408" y="-40.5" font-family="Helvetica,sans-Serif" font-size="10.00">ScriptEngine</text>
</g>
<!-- Node12 -->
<g id="node12" class="node"><title>Node12</title>
<polygon fill="white" stroke="#bfbfbf" points="496.5,-56.5 496.5,-75.5 651.5,-75.5 651.5,-56.5 496.5,-56.5"/>
<text text-anchor="middle" x="574" y="-63.5" font-family="Helvetica,sans-Serif" font-size="10.00">std::unique_ptr&lt; ScriptEngine &gt;</text>
</g>
<!-- Node1&#45;&gt;Node12 -->
<g id="edge12" class="edge"><title>Node1&#45;&gt;Node12</title>
<path fill="none" stroke="#9a32cd" stroke-dasharray="5,2" d="M454.166,-49.3343C469.911,-51.5424 487.942,-54.0712 505.121,-56.4804"/>
<polygon fill="#9a32cd" stroke="#9a32cd" points="454.571,-45.8569 444.182,-47.9341 453.599,-52.7891 454.571,-45.8569"/>
<text text-anchor="middle" x="470" y="-56" font-family="Helvetica,sans-Serif" font-size="10.00"> ptr</text>
</g>
<!-- Node2 -->
<g id="node2" class="node"><title>Node2</title>
<polygon fill="white" stroke="#bfbfbf" points="140.5,-49 140.5,-79 271.5,-79 271.5,-49 140.5,-49"/>
<text text-anchor="start" x="148.5" y="-67" font-family="Helvetica,sans-Serif" font-size="10.00">std::vector&lt; std::shared</text>
<text text-anchor="middle" x="206" y="-56" font-family="Helvetica,sans-Serif" font-size="10.00">_ptr&lt; GamePlayScript &gt; &gt;</text>
</g>
<!-- Node2&#45;&gt;Node1 -->
<g id="edge1" class="edge"><title>Node2&#45;&gt;Node1</title>
<path fill="none" stroke="#9a32cd" stroke-dasharray="5,2" d="M281.979,-56.1272C312.852,-52.8855 347.126,-49.2868 371.968,-46.6784"/>
<polygon fill="#9a32cd" stroke="#9a32cd" points="281.238,-52.6857 271.658,-57.2109 281.969,-59.6474 281.238,-52.6857"/>
<text text-anchor="middle" x="322" y="-58" font-family="Helvetica,sans-Serif" font-size="10.00"> m_scripts</text>
</g>
<!-- Node3 -->
<g id="node3" class="node"><title>Node3</title>
<polygon fill="white" stroke="#bfbfbf" points="154.5,-0 154.5,-30 257.5,-30 257.5,-0 154.5,-0"/>
<text text-anchor="start" x="162.5" y="-18" font-family="Helvetica,sans-Serif" font-size="10.00">std::unordered_map</text>
<text text-anchor="middle" x="206" y="-7" font-family="Helvetica,sans-Serif" font-size="10.00">&lt; int, Scriptable * &gt;</text>
</g>
<!-- Node3&#45;&gt;Node1 -->
<g id="edge2" class="edge"><title>Node3&#45;&gt;Node1</title>
<path fill="none" stroke="#9a32cd" stroke-dasharray="5,2" d="M268.016,-22.3361C294.479,-25.66 325.803,-29.7853 354,-34 359.815,-34.8692 365.978,-35.8557 371.965,-36.849"/>
<polygon fill="#9a32cd" stroke="#9a32cd" points="268.109,-18.8207 257.753,-21.0564 267.243,-25.7669 268.109,-18.8207"/>
<text text-anchor="middle" x="322" y="-37" font-family="Helvetica,sans-Serif" font-size="10.00"> m_scriptables</text>
</g>
<!-- Node4 -->
<g id="node4" class="node"><title>Node4</title>
<g id="a_node4"><a xlink:href="class_scriptable.html" target="_top" xlink:title="Scriptable">
<polygon fill="white" stroke="black" points="0,-5.5 0,-24.5 60,-24.5 60,-5.5 0,-5.5"/>
<text text-anchor="middle" x="30" y="-12.5" font-family="Helvetica,sans-Serif" font-size="10.00">Scriptable</text>
</a>
</g>
</g>
<!-- Node4&#45;&gt;Node3 -->
<g id="edge3" class="edge"><title>Node4&#45;&gt;Node3</title>
<path fill="none" stroke="#9a32cd" stroke-dasharray="5,2" d="M70.2748,-15C95.1244,-15 127.497,-15 154.28,-15"/>
<polygon fill="#9a32cd" stroke="#9a32cd" points="70.1237,-11.5001 60.1237,-15 70.1237,-18.5001 70.1237,-11.5001"/>
<text text-anchor="middle" x="100" y="-18" font-family="Helvetica,sans-Serif" font-size="10.00"> elements</text>
</g>
<!-- Node5 -->
<g id="node5" class="node"><title>Node5</title>
<g id="a_node5"><a xlink:href="class_world.html" target="_top" xlink:title="World">
<polygon fill="white" stroke="black" points="768,-238.5 768,-257.5 810,-257.5 810,-238.5 768,-238.5"/>
<text text-anchor="middle" x="789" y="-245.5" font-family="Helvetica,sans-Serif" font-size="10.00">World</text>
</a>
</g>
</g>
<!-- Node5&#45;&gt;Node1 -->
<g id="edge4" class="edge"><title>Node5&#45;&gt;Node1</title>
<path fill="none" stroke="#9a32cd" stroke-dasharray="5,2" d="M786.869,-228.038C783.924,-183.533 774.477,-78.1905 750,-54 664.477,30.5213 500.168,-12.0861 435.799,-33.351"/>
<polygon fill="#9a32cd" stroke="#9a32cd" points="783.386,-228.418 787.496,-238.184 790.372,-227.987 783.386,-228.418"/>
<text text-anchor="middle" x="574" y="-20" font-family="Helvetica,sans-Serif" font-size="10.00"> m_world</text>
</g>
<!-- Node5&#45;&gt;Node5 -->
<g id="edge16" class="edge"><title>Node5&#45;&gt;Node5</title>
<path fill="none" stroke="#9a32cd" stroke-dasharray="5,2" d="M774.636,-267.766C775.764,-272.497 780.552,-276 789,-276 802.863,-276 806.871,-266.565 801.022,-257.757"/>
<polygon fill="#9a32cd" stroke="#9a32cd" points="778.107,-268.292 776.978,-257.757 771.292,-266.697 778.107,-268.292"/>
<text text-anchor="middle" x="789" y="-279" font-family="Helvetica,sans-Serif" font-size="10.00"> s_instance</text>
</g>
<!-- Node6 -->
<g id="node6" class="node"><title>Node6</title>
<polygon fill="white" stroke="#bfbfbf" points="502.5,-483.5 502.5,-502.5 645.5,-502.5 645.5,-483.5 502.5,-483.5"/>
<text text-anchor="middle" x="574" y="-490.5" font-family="Helvetica,sans-Serif" font-size="10.00">std::unique_ptr&lt; WorldTree &gt;</text>
</g>
<!-- Node6&#45;&gt;Node5 -->
<g id="edge5" class="edge"><title>Node6&#45;&gt;Node5</title>
<path fill="none" stroke="#9a32cd" stroke-dasharray="5,2" d="M655.997,-499.322C689.237,-497.49 725.571,-489.073 750,-465 780.035,-435.403 786.522,-295.802 787.743,-257.654"/>
<polygon fill="#9a32cd" stroke="#9a32cd" points="655.664,-495.832 645.797,-499.689 655.916,-502.827 655.664,-495.832"/>
<text text-anchor="middle" x="710" y="-500" font-family="Helvetica,sans-Serif" font-size="10.00"> m_worldTree</text>
</g>
<!-- Node7 -->
<g id="node7" class="node"><title>Node7</title>
<polygon fill="white" stroke="#bfbfbf" points="525,-434 525,-464 623,-464 623,-434 525,-434"/>
<text text-anchor="start" x="533" y="-452" font-family="Helvetica,sans-Serif" font-size="10.00">std::unordered_set</text>
<text text-anchor="middle" x="574" y="-441" font-family="Helvetica,sans-Serif" font-size="10.00">&lt; WorldObject * &gt;</text>
</g>
<!-- Node7&#45;&gt;Node5 -->
<g id="edge6" class="edge"><title>Node7&#45;&gt;Node5</title>
<path fill="none" stroke="#9a32cd" stroke-dasharray="5,2" d="M633.794,-453.683C671.753,-453.378 719.56,-446.237 750,-417 773.316,-394.606 784.271,-290.625 787.182,-257.893"/>
<polygon fill="#9a32cd" stroke="#9a32cd" points="633.399,-450.18 623.371,-453.6 633.343,-457.18 633.399,-450.18"/>
<text text-anchor="middle" x="710" y="-453" font-family="Helvetica,sans-Serif" font-size="10.00"> m_worldObjects</text>
</g>
<!-- Node8 -->
<g id="node8" class="node"><title>Node8</title>
<polygon fill="white" stroke="#bfbfbf" points="500,-395.5 500,-414.5 648,-414.5 648,-395.5 500,-395.5"/>
<text text-anchor="middle" x="574" y="-402.5" font-family="Helvetica,sans-Serif" font-size="10.00">std::unique_ptr&lt; WorldLogic &gt;</text>
</g>
<!-- Node8&#45;&gt;Node5 -->
<g id="edge7" class="edge"><title>Node8&#45;&gt;Node5</title>
<path fill="none" stroke="#9a32cd" stroke-dasharray="5,2" d="M658.478,-404.708C690.522,-400.508 725.291,-390.391 750,-368 782.71,-338.358 787.459,-280.78 788.007,-257.809"/>
<polygon fill="#9a32cd" stroke="#9a32cd" points="657.73,-401.271 648.187,-405.872 658.517,-408.226 657.73,-401.271"/>
<text text-anchor="middle" x="710" y="-405" font-family="Helvetica,sans-Serif" font-size="10.00"> m_worldLogic</text>
</g>
<!-- Node9 -->
<g id="node9" class="node"><title>Node9</title>
<polygon fill="white" stroke="#bfbfbf" points="525,-346 525,-376 623,-376 623,-346 525,-346"/>
<text text-anchor="start" x="533" y="-364" font-family="Helvetica,sans-Serif" font-size="10.00">std::unordered_set</text>
<text text-anchor="middle" x="574" y="-353" font-family="Helvetica,sans-Serif" font-size="10.00">&lt; Ship * &gt;</text>
</g>
<!-- Node9&#45;&gt;Node5 -->
<g id="edge8" class="edge"><title>Node9&#45;&gt;Node5</title>
<path fill="none" stroke="#9a32cd" stroke-dasharray="5,2" d="M633.437,-358.495C670.163,-354.249 716.718,-343.681 750,-318 770.144,-302.457 780.962,-273.095 785.453,-257.808"/>
<polygon fill="#9a32cd" stroke="#9a32cd" points="632.947,-355.027 623.358,-359.532 633.664,-361.99 632.947,-355.027"/>
<text text-anchor="middle" x="710" y="-356" font-family="Helvetica,sans-Serif" font-size="10.00"> m_ships</text>
</g>
<!-- Node10 -->
<g id="node10" class="node"><title>Node10</title>
<polygon fill="white" stroke="#bfbfbf" points="508,-307.5 508,-326.5 640,-326.5 640,-307.5 508,-307.5"/>
<text text-anchor="middle" x="574" y="-314.5" font-family="Helvetica,sans-Serif" font-size="10.00">std::unique_ptr&lt; Skybox &gt;</text>
</g>
<!-- Node10&#45;&gt;Node5 -->
<g id="edge9" class="edge"><title>Node10&#45;&gt;Node5</title>
<path fill="none" stroke="#9a32cd" stroke-dasharray="5,2" d="M650.472,-307.02C682.225,-300.995 718.934,-291.56 750,-277 760.37,-272.14 770.602,-264.092 777.832,-257.706"/>
<polygon fill="#9a32cd" stroke="#9a32cd" points="649.563,-303.627 640.349,-308.858 650.814,-310.515 649.563,-303.627"/>
<text text-anchor="middle" x="710" y="-306" font-family="Helvetica,sans-Serif" font-size="10.00"> m_skybox</text>
</g>
<!-- Node11 -->
<g id="node11" class="node"><title>Node11</title>
<polygon fill="white" stroke="#bfbfbf" points="500,-258 500,-288 648,-288 648,-258 500,-258"/>
<text text-anchor="start" x="508" y="-276" font-family="Helvetica,sans-Serif" font-size="10.00">std::unique_ptr&lt; VoxelParticle</text>
<text text-anchor="middle" x="574" y="-265" font-family="Helvetica,sans-Serif" font-size="10.00">Engine &gt;</text>
</g>
<!-- Node11&#45;&gt;Node5 -->
<g id="edge10" class="edge"><title>Node11&#45;&gt;Node5</title>
<path fill="none" stroke="#9a32cd" stroke-dasharray="5,2" d="M658.069,-263.25C698.11,-258.55 742.8,-253.305 767.949,-250.353"/>
<polygon fill="#9a32cd" stroke="#9a32cd" points="657.528,-259.789 648.005,-264.431 658.344,-266.742 657.528,-259.789"/>
<text text-anchor="middle" x="710" y="-265" font-family="Helvetica,sans-Serif" font-size="10.00"> m_particleEngine</text>
</g>
<!-- Node12&#45;&gt;Node5 -->
<g id="edge11" class="edge"><title>Node12&#45;&gt;Node5</title>
<path fill="none" stroke="#9a32cd" stroke-dasharray="5,2" d="M650.991,-56.247C685.082,-56.1045 723.498,-62.4214 750,-86 773.202,-106.642 784.235,-206.877 787.173,-238.454"/>
<polygon fill="#9a32cd" stroke="#9a32cd" points="650.484,-52.7577 640.567,-56.4867 650.645,-59.7558 650.484,-52.7577"/>
<text text-anchor="middle" x="710" y="-89" font-family="Helvetica,sans-Serif" font-size="10.00"> m_scriptEngine</text>
</g>
<!-- Node13 -->
<g id="node13" class="node"><title>Node13</title>
<polygon fill="white" stroke="#bfbfbf" points="513,-209 513,-239 635,-239 635,-209 513,-209"/>
<text text-anchor="start" x="521" y="-227" font-family="Helvetica,sans-Serif" font-size="10.00">std::unique_ptr&lt; Faction</text>
<text text-anchor="middle" x="574" y="-216" font-family="Helvetica,sans-Serif" font-size="10.00">Matrix &gt;</text>
</g>
<!-- Node13&#45;&gt;Node5 -->
<g id="edge13" class="edge"><title>Node13&#45;&gt;Node5</title>
<path fill="none" stroke="#9a32cd" stroke-dasharray="5,2" d="M645.31,-228.551C677.348,-231.107 715.699,-234.839 750,-240 755.867,-240.883 762.19,-242.104 767.964,-243.326"/>
<polygon fill="#9a32cd" stroke="#9a32cd" points="645.384,-225.047 635.143,-227.763 644.842,-232.026 645.384,-225.047"/>
<text text-anchor="middle" x="710" y="-243" font-family="Helvetica,sans-Serif" font-size="10.00"> m_factionMatrix</text>
</g>
<!-- Node14 -->
<g id="node14" class="node"><title>Node14</title>
<polygon fill="white" stroke="#bfbfbf" points="515.5,-170.5 515.5,-189.5 632.5,-189.5 632.5,-170.5 515.5,-170.5"/>
<text text-anchor="middle" x="574" y="-177.5" font-family="Helvetica,sans-Serif" font-size="10.00">std::unique_ptr&lt; God &gt;</text>
</g>
<!-- Node14&#45;&gt;Node5 -->
<g id="edge14" class="edge"><title>Node14&#45;&gt;Node5</title>
<path fill="none" stroke="#9a32cd" stroke-dasharray="5,2" d="M643.031,-186.04C676.52,-190.962 716.737,-199.875 750,-216 761.331,-221.493 772.097,-231.129 779.258,-238.395"/>
<polygon fill="#9a32cd" stroke="#9a32cd" points="643.254,-182.538 632.869,-184.637 642.297,-189.472 643.254,-182.538"/>
<text text-anchor="middle" x="710" y="-219" font-family="Helvetica,sans-Serif" font-size="10.00"> m_god</text>
</g>
<!-- Node15 -->
<g id="node15" class="node"><title>Node15</title>
<g id="a_node15"><a xlink:href="class_player.html" target="_top" xlink:title="Player">
<polygon fill="white" stroke="red" points="552,-132.5 552,-151.5 596,-151.5 596,-132.5 552,-132.5"/>
<text text-anchor="middle" x="574" y="-139.5" font-family="Helvetica,sans-Serif" font-size="10.00">Player</text>
</a>
</g>
</g>
<!-- Node15&#45;&gt;Node5 -->
<g id="edge15" class="edge"><title>Node15&#45;&gt;Node5</title>
<path fill="none" stroke="#9a32cd" stroke-dasharray="5,2" d="M606.543,-140.317C644.295,-139.926 707.702,-144.604 750,-176 771.11,-191.669 781.604,-222.577 785.765,-238.309"/>
<polygon fill="#9a32cd" stroke="#9a32cd" points="606.073,-136.827 596.158,-140.561 606.237,-143.825 606.073,-136.827"/>
<text text-anchor="middle" x="710" y="-179" font-family="Helvetica,sans-Serif" font-size="10.00"> m_player</text>
</g>
<!-- Node16 -->
<g id="node16" class="node"><title>Node16</title>
<polygon fill="white" stroke="#bfbfbf" points="500,-94.5 500,-113.5 648,-113.5 648,-94.5 500,-94.5"/>
<text text-anchor="middle" x="574" y="-101.5" font-family="Helvetica,sans-Serif" font-size="10.00">std::unique_ptr&lt; EventPoller &gt;</text>
</g>
<!-- Node16&#45;&gt;Node5 -->
<g id="edge17" class="edge"><title>Node16&#45;&gt;Node5</title>
<path fill="none" stroke="#9a32cd" stroke-dasharray="5,2" d="M658.443,-99.1363C690.311,-101.484 724.963,-109.7 750,-131 782.859,-158.954 787.522,-215.64 788.027,-238.31"/>
<polygon fill="#9a32cd" stroke="#9a32cd" points="658.388,-95.628 648.21,-98.5713 658.002,-102.617 658.388,-95.628"/>
<text text-anchor="middle" x="710" y="-134" font-family="Helvetica,sans-Serif" font-size="10.00"> m_eventPoller</text>
</g>
</g>
</svg>
