<?xml version="1.0" encoding="UTF-8" standalone="no"?>
<!DOCTYPE svg PUBLIC "-//W3C//DTD SVG 1.1//EN"
 "http://www.w3.org/Graphics/SVG/1.1/DTD/svg11.dtd">
<!-- Generated by graphviz version 2.36.0 (20140111.2315)
 -->
<!-- Title: GamePlayScript Pages: 1 -->
<svg width="542pt" height="154pt"
 viewBox="0.00 0.00 542.00 154.00" xmlns="http://www.w3.org/2000/svg" xmlns:xlink="http://www.w3.org/1999/xlink">
<g id="graph0" class="graph" transform="scale(1 1) rotate(0) translate(4 150)">
<title>GamePlayScript</title>
<polygon fill="white" stroke="none" points="-4,4 -4,-150 538,-150 538,4 -4,4"/>
<!-- Node1 -->
<g id="node1" class="node"><title>Node1</title>
<polygon fill="#bfbfbf" stroke="black" points="446,-38.5 446,-57.5 534,-57.5 534,-38.5 446,-38.5"/>
<text text-anchor="middle" x="490" y="-45.5" font-family="Helvetica,sans-Serif" font-size="10.00">GamePlayScript</text>
</g>
<!-- Node2 -->
<g id="node2" class="node"><title>Node2</title>
<g id="a_node2"><a xlink:href="class_script.html" target="_top" xlink:title="Script">
<polygon fill="white" stroke="black" points="278,-76.5 278,-95.5 320,-95.5 320,-76.5 278,-76.5"/>
<text text-anchor="middle" x="299" y="-83.5" font-family="Helvetica,sans-Serif" font-size="10.00">Script</text>
</a>
</g>
</g>
<!-- Node2&#45;&gt;Node1 -->
<g id="edge1" class="edge"><title>Node2&#45;&gt;Node1</title>
<path fill="none" stroke="midnightblue" d="M330.017,-81.1586C356.023,-76.8324 394.614,-70.0969 428,-63 435.681,-61.3673 443.866,-59.4665 451.665,-57.5775"/>
<polygon fill="midnightblue" stroke="midnightblue" points="329.328,-77.7248 320.031,-82.8042 330.467,-84.6316 329.328,-77.7248"/>
</g>
<!-- Node3 -->
<g id="node3" class="node"><title>Node3</title>
<polygon fill="white" stroke="#bfbfbf" points="16.5,-115 16.5,-145 135.5,-145 135.5,-115 16.5,-115"/>
<text text-anchor="start" x="24.5" y="-133" font-family="Helvetica,sans-Serif" font-size="10.00">std::vector&lt; std::unique</text>
<text text-anchor="middle" x="76" y="-122" font-family="Helvetica,sans-Serif" font-size="10.00">_ptr&lt; Bindings &gt; &gt;</text>
</g>
<!-- Node3&#45;&gt;Node2 -->
<g id="edge2" class="edge"><title>Node3&#45;&gt;Node2</title>
<path fill="none" stroke="#9a32cd" stroke-dasharray="5,2" d="M145.536,-119.338C175.299,-114.351 210.491,-107.975 242,-101 253.989,-98.3461 267.269,-94.815 277.887,-91.8456"/>
<polygon fill="#9a32cd" stroke="#9a32cd" points="144.957,-115.886 135.664,-120.975 146.101,-122.792 144.957,-115.886"/>
<text text-anchor="middle" x="206" y="-118" font-family="Helvetica,sans-Serif" font-size="10.00"> m_bindings</text>
</g>
<!-- Node4 -->
<g id="node4" class="node"><title>Node4</title>
<g id="a_node4"><a xlink:title="STL class. ">
<polygon fill="white" stroke="#bfbfbf" points="46,-76.5 46,-95.5 106,-95.5 106,-76.5 46,-76.5"/>
<text text-anchor="middle" x="76" y="-83.5" font-family="Helvetica,sans-Serif" font-size="10.00">std::string</text>
</a>
</g>
</g>
<!-- Node4&#45;&gt;Node2 -->
<g id="edge3" class="edge"><title>Node4&#45;&gt;Node2</title>
<path fill="none" stroke="#9a32cd" stroke-dasharray="5,2" d="M116.534,-86C163.844,-86 241.237,-86 277.737,-86"/>
<polygon fill="#9a32cd" stroke="#9a32cd" points="116.347,-82.5001 106.347,-86 116.347,-89.5001 116.347,-82.5001"/>
<text text-anchor="middle" x="206" y="-89" font-family="Helvetica,sans-Serif" font-size="10.00"> m_debugStatus</text>
</g>
<!-- Node5 -->
<g id="node5" class="node"><title>Node5</title>
<polygon fill="white" stroke="#bfbfbf" points="0,-38.5 0,-57.5 152,-57.5 152,-38.5 0,-38.5"/>
<text text-anchor="middle" x="76" y="-45.5" font-family="Helvetica,sans-Serif" font-size="10.00">std::unique_ptr&lt; LuaWrapper &gt;</text>
</g>
<!-- Node5&#45;&gt;Node2 -->
<g id="edge4" class="edge"><title>Node5&#45;&gt;Node2</title>
<path fill="none" stroke="#9a32cd" stroke-dasharray="5,2" d="M162.188,-57.8355C187.944,-61.3566 216.225,-65.7723 242,-71 254.034,-73.4408 267.317,-76.9619 277.924,-79.9793"/>
<polygon fill="#9a32cd" stroke="#9a32cd" points="162.453,-54.3398 152.077,-56.4808 161.523,-61.2778 162.453,-54.3398"/>
<text text-anchor="middle" x="206" y="-74" font-family="Helvetica,sans-Serif" font-size="10.00"> m_lua</text>
</g>
<!-- Node6 -->
<g id="node6" class="node"><title>Node6</title>
<g id="a_node6"><a xlink:href="class_script_engine.html" target="_top" xlink:title="ScriptEngine">
<polygon fill="white" stroke="red" points="263,-38.5 263,-57.5 335,-57.5 335,-38.5 263,-38.5"/>
<text text-anchor="middle" x="299" y="-45.5" font-family="Helvetica,sans-Serif" font-size="10.00">ScriptEngine</text>
</a>
</g>
</g>
<!-- Node6&#45;&gt;Node1 -->
<g id="edge5" class="edge"><title>Node6&#45;&gt;Node1</title>
<path fill="none" stroke="#9a32cd" stroke-dasharray="5,2" d="M345.459,-48C375.925,-48 415.798,-48 445.787,-48"/>
<polygon fill="#9a32cd" stroke="#9a32cd" points="345.107,-44.5001 335.107,-48 345.106,-51.5001 345.107,-44.5001"/>
<text text-anchor="middle" x="392" y="-51" font-family="Helvetica,sans-Serif" font-size="10.00"> m_scriptEngine</text>
</g>
<!-- Node7 -->
<g id="node7" class="node"><title>Node7</title>
<polygon fill="white" stroke="#bfbfbf" points="260.5,-0.5 260.5,-19.5 337.5,-19.5 337.5,-0.5 260.5,-0.5"/>
<text text-anchor="middle" x="299" y="-7.5" font-family="Helvetica,sans-Serif" font-size="10.00">std::list&lt; int &gt;</text>
</g>
<!-- Node7&#45;&gt;Node1 -->
<g id="edge6" class="edge"><title>Node7&#45;&gt;Node1</title>
<path fill="none" stroke="#9a32cd" stroke-dasharray="5,2" d="M347.629,-17.8199C371.779,-21.972 401.526,-27.3724 428,-33 435.681,-34.6327 443.866,-36.5335 451.665,-38.4225"/>
<polygon fill="#9a32cd" stroke="#9a32cd" points="348.094,-14.3487 337.648,-16.1199 346.918,-21.2493 348.094,-14.3487"/>
<text text-anchor="middle" x="392" y="-36" font-family="Helvetica,sans-Serif" font-size="10.00"> m_locals</text>
</g>
</g>
</svg>
