<?xml version="1.0" encoding="UTF-8" standalone="no"?>
<!DOCTYPE svg PUBLIC "-//W3C//DTD SVG 1.1//EN"
 "http://www.w3.org/Graphics/SVG/1.1/DTD/svg11.dtd">
<!-- Generated by graphviz version 2.36.0 (20140111.2315)
 -->
<!-- Title: AiTaskFinishedPoll Pages: 1 -->
<svg width="229pt" height="164pt"
 viewBox="0.00 0.00 229.00 164.00" xmlns="http://www.w3.org/2000/svg" xmlns:xlink="http://www.w3.org/1999/xlink">
<g id="graph0" class="graph" transform="scale(1 1) rotate(0) translate(4 160)">
<title>AiTaskFinishedPoll</title>
<polygon fill="white" stroke="none" points="-4,4 -4,-160 225,-160 225,4 -4,4"/>
<!-- Node1 -->
<g id="node1" class="node"><title>Node1</title>
<polygon fill="#bfbfbf" stroke="black" points="100,-0.5 100,-19.5 200,-19.5 200,-0.5 100,-0.5"/>
<text text-anchor="middle" x="150" y="-7.5" font-family="Helvetica,sans-Serif" font-size="10.00">AiTaskFinishedPoll</text>
</g>
<!-- Node2 -->
<g id="node2" class="node"><title>Node2</title>
<g id="a_node2"><a xlink:href="class_event_poll.html" target="_top" xlink:title="EventPoll">
<polygon fill="white" stroke="black" points="51.5,-68.5 51.5,-87.5 108.5,-87.5 108.5,-68.5 51.5,-68.5"/>
<text text-anchor="middle" x="80" y="-75.5" font-family="Helvetica,sans-Serif" font-size="10.00">EventPoll</text>
</a>
</g>
</g>
<!-- Node2&#45;&gt;Node1 -->
<g id="edge1" class="edge"><title>Node2&#45;&gt;Node1</title>
<path fill="none" stroke="midnightblue" d="M96.5325,-61.4122C110.284,-48.4468 129.365,-30.4559 140.623,-19.8411"/>
<polygon fill="midnightblue" stroke="midnightblue" points="94.0261,-58.9649 89.1513,-68.3717 98.8283,-64.0581 94.0261,-58.9649"/>
</g>
<!-- Node3 -->
<g id="node3" class="node"><title>Node3</title>
<g id="a_node3"><a xlink:href="class_scriptable.html" target="_top" xlink:title="Scriptable">
<polygon fill="white" stroke="black" points="0,-136.5 0,-155.5 60,-155.5 60,-136.5 0,-136.5"/>
<text text-anchor="middle" x="30" y="-143.5" font-family="Helvetica,sans-Serif" font-size="10.00">Scriptable</text>
</a>
</g>
</g>
<!-- Node3&#45;&gt;Node2 -->
<g id="edge2" class="edge"><title>Node3&#45;&gt;Node2</title>
<path fill="none" stroke="midnightblue" d="M42.6439,-128.31C52.3911,-115.444 65.4861,-98.1583 73.3022,-87.8411"/>
<polygon fill="midnightblue" stroke="midnightblue" points="39.7854,-126.287 36.5366,-136.372 45.3651,-130.514 39.7854,-126.287"/>
</g>
<!-- Node4 -->
<g id="node4" class="node"><title>Node4</title>
<g id="a_node4"><a xlink:href="class_handle.html" target="_top" xlink:title="Handle\&lt; EventPoll \&gt;">
<polygon fill="white" stroke="black" points="78.5,-136.5 78.5,-155.5 183.5,-155.5 183.5,-136.5 78.5,-136.5"/>
<text text-anchor="middle" x="131" y="-143.5" font-family="Helvetica,sans-Serif" font-size="10.00">Handle&lt; EventPoll &gt;</text>
</a>
</g>
</g>
<!-- Node4&#45;&gt;Node2 -->
<g id="edge3" class="edge"><title>Node4&#45;&gt;Node2</title>
<path fill="none" stroke="#9a32cd" stroke-dasharray="5,2" d="M118.103,-128.31C108.161,-115.444 94.8042,-98.1583 86.8318,-87.8411"/>
<polygon fill="#9a32cd" stroke="#9a32cd" points="115.449,-130.599 124.333,-136.372 120.988,-126.319 115.449,-130.599"/>
<text text-anchor="middle" x="134" y="-109.5" font-family="Helvetica,sans-Serif" font-size="10.00"> m_handle</text>
</g>
<!-- Node5 -->
<g id="node5" class="node"><title>Node5</title>
<g id="a_node5"><a xlink:href="class_handle.html" target="_top" xlink:title="Handle\&lt; AiTask \&gt;">
<polygon fill="white" stroke="black" points="126.5,-68.5 126.5,-87.5 221.5,-87.5 221.5,-68.5 126.5,-68.5"/>
<text text-anchor="middle" x="174" y="-75.5" font-family="Helvetica,sans-Serif" font-size="10.00">Handle&lt; AiTask &gt;</text>
</a>
</g>
</g>
<!-- Node5&#45;&gt;Node1 -->
<g id="edge4" class="edge"><title>Node5&#45;&gt;Node1</title>
<path fill="none" stroke="#9a32cd" stroke-dasharray="5,2" d="M167.384,-58.8066C162.773,-46.1244 156.822,-29.7615 153.215,-19.8411"/>
<polygon fill="#9a32cd" stroke="#9a32cd" points="164.156,-60.1698 170.862,-68.3717 170.734,-57.7776 164.156,-60.1698"/>
<text text-anchor="middle" x="188" y="-41.5" font-family="Helvetica,sans-Serif" font-size="10.00"> m_aiTask</text>
</g>
</g>
</svg>
