<?xml version="1.0" encoding="UTF-8" standalone="no"?>
<!DOCTYPE svg PUBLIC "-//W3C//DTD SVG 1.1//EN"
 "http://www.w3.org/Graphics/SVG/1.1/DTD/svg11.dtd">
<!-- Generated by graphviz version 2.36.0 (20140111.2315)
 -->
<!-- Title: EventPoll Pages: 1 -->
<svg width="191pt" height="96pt"
 viewBox="0.00 0.00 191.00 96.00" xmlns="http://www.w3.org/2000/svg" xmlns:xlink="http://www.w3.org/1999/xlink">
<g id="graph0" class="graph" transform="scale(1 1) rotate(0) translate(4 92)">
<title>EventPoll</title>
<polygon fill="white" stroke="none" points="-4,4 -4,-92 187,-92 187,4 -4,4"/>
<!-- Node1 -->
<g id="node1" class="node"><title>Node1</title>
<polygon fill="#bfbfbf" stroke="black" points="51.5,-0.5 51.5,-19.5 108.5,-19.5 108.5,-0.5 51.5,-0.5"/>
<text text-anchor="middle" x="80" y="-7.5" font-family="Helvetica,sans-Serif" font-size="10.00">EventPoll</text>
</g>
<!-- Node2 -->
<g id="node2" class="node"><title>Node2</title>
<g id="a_node2"><a xlink:href="class_scriptable.html" target="_top" xlink:title="Scriptable">
<polygon fill="white" stroke="black" points="0,-68.5 0,-87.5 60,-87.5 60,-68.5 0,-68.5"/>
<text text-anchor="middle" x="30" y="-75.5" font-family="Helvetica,sans-Serif" font-size="10.00">Scriptable</text>
</a>
</g>
</g>
<!-- Node2&#45;&gt;Node1 -->
<g id="edge1" class="edge"><title>Node2&#45;&gt;Node1</title>
<path fill="none" stroke="midnightblue" d="M42.6439,-60.3101C52.3911,-47.4437 65.4861,-30.1583 73.3022,-19.8411"/>
<polygon fill="midnightblue" stroke="midnightblue" points="39.7854,-58.2872 36.5366,-68.3717 45.3651,-62.5142 39.7854,-58.2872"/>
</g>
<!-- Node3 -->
<g id="node3" class="node"><title>Node3</title>
<g id="a_node3"><a xlink:href="class_handle.html" target="_top" xlink:title="Handle\&lt; EventPoll \&gt;">
<polygon fill="white" stroke="black" points="78.5,-68.5 78.5,-87.5 183.5,-87.5 183.5,-68.5 78.5,-68.5"/>
<text text-anchor="middle" x="131" y="-75.5" font-family="Helvetica,sans-Serif" font-size="10.00">Handle&lt; EventPoll &gt;</text>
</a>
</g>
</g>
<!-- Node3&#45;&gt;Node1 -->
<g id="edge2" class="edge"><title>Node3&#45;&gt;Node1</title>
<path fill="none" stroke="#9a32cd" stroke-dasharray="5,2" d="M118.103,-60.3101C108.161,-47.4437 94.8042,-30.1583 86.8318,-19.8411"/>
<polygon fill="#9a32cd" stroke="#9a32cd" points="115.449,-62.5989 124.333,-68.3717 120.988,-58.3187 115.449,-62.5989"/>
<text text-anchor="middle" x="134" y="-41.5" font-family="Helvetica,sans-Serif" font-size="10.00"> m_handle</text>
</g>
</g>
</svg>
