<?xml version="1.0" encoding="UTF-8" standalone="no"?>
<!DOCTYPE svg PUBLIC "-//W3C//DTD SVG 1.1//EN"
 "http://www.w3.org/Graphics/SVG/1.1/DTD/svg11.dtd">
<!-- Generated by graphviz version 2.36.0 (20140111.2315)
 -->
<!-- Title: Engine Pages: 1 -->
<svg width="283pt" height="312pt"
 viewBox="0.00 0.00 283.00 312.00" xmlns="http://www.w3.org/2000/svg" xmlns:xlink="http://www.w3.org/1999/xlink">
<g id="graph0" class="graph" transform="scale(1 1) rotate(0) translate(4 308)">
<title>Engine</title>
<polygon fill="white" stroke="none" points="-4,4 -4,-308 279,-308 279,4 -4,4"/>
<!-- Node1 -->
<g id="node1" class="node"><title>Node1</title>
<polygon fill="#bfbfbf" stroke="black" points="100.5,-148.5 100.5,-167.5 147.5,-167.5 147.5,-148.5 100.5,-148.5"/>
<text text-anchor="middle" x="124" y="-155.5" font-family="Helvetica,sans-Serif" font-size="10.00">Engine</text>
</g>
<!-- Node9 -->
<g id="node9" class="node"><title>Node9</title>
<g id="a_node9"><a xlink:href="class_engine_trail_generator.html" target="_top" xlink:title="EngineTrailGenerator">
<polygon fill="white" stroke="red" points="11.5,-80.5 11.5,-99.5 118.5,-99.5 118.5,-80.5 11.5,-80.5"/>
<text text-anchor="middle" x="65" y="-87.5" font-family="Helvetica,sans-Serif" font-size="10.00">EngineTrailGenerator</text>
</a>
</g>
</g>
<!-- Node1&#45;&gt;Node9 -->
<g id="edge9" class="edge"><title>Node1&#45;&gt;Node9</title>
<path fill="none" stroke="#9a32cd" stroke-dasharray="5,2" d="M106.369,-141.46C102.505,-137.817 98.519,-133.866 95,-130 86.0302,-120.145 76.8522,-107.818 71.0506,-99.6923"/>
<polygon fill="#9a32cd" stroke="#9a32cd" points="104.202,-144.221 113.945,-148.384 108.925,-139.054 104.202,-144.221"/>
<text text-anchor="middle" x="118" y="-121.5" font-family="Helvetica,sans-Serif" font-size="10.00"> m_engine</text>
</g>
<!-- Node2 -->
<g id="node2" class="node"><title>Node2</title>
<g id="a_node2"><a xlink:href="class_equipment.html" target="_top" xlink:title="Equipment">
<polygon fill="white" stroke="black" points="4.5,-216.5 4.5,-235.5 67.5,-235.5 67.5,-216.5 4.5,-216.5"/>
<text text-anchor="middle" x="36" y="-223.5" font-family="Helvetica,sans-Serif" font-size="10.00">Equipment</text>
</a>
</g>
</g>
<!-- Node2&#45;&gt;Node1 -->
<g id="edge1" class="edge"><title>Node2&#45;&gt;Node1</title>
<path fill="none" stroke="midnightblue" d="M55.8719,-210.096C73.3318,-197.001 98.1296,-178.403 112.493,-167.63"/>
<polygon fill="midnightblue" stroke="midnightblue" points="53.4045,-207.572 47.5045,-216.372 57.6045,-213.172 53.4045,-207.572"/>
</g>
<!-- Node3 -->
<g id="node3" class="node"><title>Node3</title>
<g id="a_node3"><a xlink:title="STL class. ">
<polygon fill="white" stroke="#bfbfbf" points="0,-284.5 0,-303.5 60,-303.5 60,-284.5 0,-284.5"/>
<text text-anchor="middle" x="30" y="-291.5" font-family="Helvetica,sans-Serif" font-size="10.00">std::string</text>
</a>
</g>
</g>
<!-- Node3&#45;&gt;Node2 -->
<g id="edge2" class="edge"><title>Node3&#45;&gt;Node2</title>
<path fill="none" stroke="#9a32cd" stroke-dasharray="5,2" d="M31.7235,-274.041C32.8661,-261.472 34.3124,-245.563 35.1963,-235.841"/>
<polygon fill="#9a32cd" stroke="#9a32cd" points="28.2042,-274.096 30.7844,-284.372 35.1755,-274.73 28.2042,-274.096"/>
<text text-anchor="middle" x="73.5" y="-257.5" font-family="Helvetica,sans-Serif" font-size="10.00"> m_equipmentKey</text>
</g>
<!-- Node4 -->
<g id="node4" class="node"><title>Node4</title>
<g id="a_node4"><a xlink:href="class_engine_slot.html" target="_top" xlink:title="EngineSlot">
<polygon fill="white" stroke="black" points="92,-216.5 92,-235.5 156,-235.5 156,-216.5 92,-216.5"/>
<text text-anchor="middle" x="124" y="-223.5" font-family="Helvetica,sans-Serif" font-size="10.00">EngineSlot</text>
</a>
</g>
</g>
<!-- Node4&#45;&gt;Node1 -->
<g id="edge3" class="edge"><title>Node4&#45;&gt;Node1</title>
<path fill="none" stroke="#9a32cd" stroke-dasharray="5,2" d="M124,-206.041C124,-193.472 124,-177.563 124,-167.841"/>
<polygon fill="#9a32cd" stroke="#9a32cd" points="120.5,-206.372 124,-216.372 127.5,-206.372 120.5,-206.372"/>
<text text-anchor="middle" x="155.5" y="-189.5" font-family="Helvetica,sans-Serif" font-size="10.00"> m_engineSlot</text>
</g>
<!-- Node5 -->
<g id="node5" class="node"><title>Node5</title>
<g id="a_node5"><a xlink:href="class_world_object_slot.html" target="_top" xlink:title="WorldObjectSlot">
<polygon fill="white" stroke="red" points="80,-284.5 80,-303.5 168,-303.5 168,-284.5 80,-284.5"/>
<text text-anchor="middle" x="124" y="-291.5" font-family="Helvetica,sans-Serif" font-size="10.00">WorldObjectSlot</text>
</a>
</g>
</g>
<!-- Node5&#45;&gt;Node4 -->
<g id="edge4" class="edge"><title>Node5&#45;&gt;Node4</title>
<path fill="none" stroke="midnightblue" d="M124,-274.041C124,-261.472 124,-245.563 124,-235.841"/>
<polygon fill="midnightblue" stroke="midnightblue" points="120.5,-274.372 124,-284.372 127.5,-274.372 120.5,-274.372"/>
</g>
<!-- Node6 -->
<g id="node6" class="node"><title>Node6</title>
<g id="a_node6"><a xlink:href="class_engine_slot_voxel.html" target="_top" xlink:title="EngineSlotVoxel">
<polygon fill="white" stroke="red" points="186.5,-284.5 186.5,-303.5 275.5,-303.5 275.5,-284.5 186.5,-284.5"/>
<text text-anchor="middle" x="231" y="-291.5" font-family="Helvetica,sans-Serif" font-size="10.00">EngineSlotVoxel</text>
</a>
</g>
</g>
<!-- Node6&#45;&gt;Node4 -->
<g id="edge5" class="edge"><title>Node6&#45;&gt;Node4</title>
<path fill="none" stroke="#9a32cd" stroke-dasharray="5,2" d="M208.284,-278.988C186.998,-265.858 155.857,-246.65 137.992,-235.63"/>
<polygon fill="#9a32cd" stroke="#9a32cd" points="206.663,-282.101 217.012,-284.372 210.338,-276.143 206.663,-282.101"/>
<text text-anchor="middle" x="207.5" y="-257.5" font-family="Helvetica,sans-Serif" font-size="10.00"> m_voxel</text>
</g>
<!-- Node7 -->
<g id="node7" class="node"><title>Node7</title>
<g id="a_node7"><a xlink:href="class_abstract_move.html" target="_top" xlink:title="AbstractMove">
<polygon fill="white" stroke="black" points="174,-216.5 174,-235.5 250,-235.5 250,-216.5 174,-216.5"/>
<text text-anchor="middle" x="212" y="-223.5" font-family="Helvetica,sans-Serif" font-size="10.00">AbstractMove</text>
</a>
</g>
</g>
<!-- Node7&#45;&gt;Node1 -->
<g id="edge6" class="edge"><title>Node7&#45;&gt;Node1</title>
<path fill="none" stroke="#9a32cd" stroke-dasharray="5,2" d="M205.086,-207.206C201.501,-199.853 196.493,-191.727 190,-186 178.022,-175.436 161.357,-168.663 147.77,-164.542"/>
<polygon fill="#9a32cd" stroke="#9a32cd" points="201.909,-208.676 209.1,-216.456 208.33,-205.889 201.909,-208.676"/>
<text text-anchor="middle" x="219.5" y="-189.5" font-family="Helvetica,sans-Serif" font-size="10.00"> m_state</text>
</g>
<!-- Node8 -->
<g id="node8" class="node"><title>Node8</title>
<polygon fill="white" stroke="#bfbfbf" points="56,-1 56,-31 194,-31 194,-1 56,-1"/>
<text text-anchor="start" x="64" y="-19" font-family="Helvetica,sans-Serif" font-size="10.00">std::unique_ptr&lt; EngineTrail</text>
<text text-anchor="middle" x="125" y="-8" font-family="Helvetica,sans-Serif" font-size="10.00">Generator &gt;</text>
</g>
<!-- Node8&#45;&gt;Node1 -->
<g id="edge7" class="edge"><title>Node8&#45;&gt;Node1</title>
<path fill="none" stroke="#9a32cd" stroke-dasharray="5,2" d="M134.08,-40.8526C141.569,-64.0057 149.671,-99.9545 141,-130 139.095,-136.599 135.047,-143.14 131.379,-148.131"/>
<polygon fill="#9a32cd" stroke="#9a32cd" points="137.314,-39.4945 130.744,-31.1822 130.696,-41.7769 137.314,-39.4945"/>
<text text-anchor="middle" x="183" y="-87.5" font-family="Helvetica,sans-Serif" font-size="10.00"> m_trailGenerator</text>
</g>
<!-- Node9&#45;&gt;Node8 -->
<g id="edge8" class="edge"><title>Node9&#45;&gt;Node8</title>
<path fill="none" stroke="#9a32cd" stroke-dasharray="5,2" d="M78.6138,-72.6634C89.0135,-60.1839 103.203,-43.1565 113.14,-31.2316"/>
<polygon fill="#9a32cd" stroke="#9a32cd" points="75.8315,-70.535 72.1184,-80.4579 81.2091,-75.0163 75.8315,-70.535"/>
<text text-anchor="middle" x="104.5" y="-53.5" font-family="Helvetica,sans-Serif" font-size="10.00"> ptr</text>
</g>
</g>
</svg>
