<?xml version="1.0" encoding="UTF-8" standalone="no"?>
<!DOCTYPE svg PUBLIC "-//W3C//DTD SVG 1.1//EN"
 "http://www.w3.org/Graphics/SVG/1.1/DTD/svg11.dtd">
<!-- Generated by graphviz version 2.36.0 (20140111.2315)
 -->
<!-- Title: GamePlayScript Pages: 1 -->
<svg width="584pt" height="270pt"
 viewBox="0.00 0.00 584.00 270.00" xmlns="http://www.w3.org/2000/svg" xmlns:xlink="http://www.w3.org/1999/xlink">
<g id="graph0" class="graph" transform="scale(1 1) rotate(0) translate(4 266)">
<title>GamePlayScript</title>
<polygon fill="white" stroke="none" points="-4,4 -4,-266 580,-266 580,4 -4,4"/>
<!-- Node1 -->
<g id="node1" class="node"><title>Node1</title>
<polygon fill="#bfbfbf" stroke="black" points="488,-111.5 488,-130.5 576,-130.5 576,-111.5 488,-111.5"/>
<text text-anchor="middle" x="532" y="-118.5" font-family="Helvetica,sans-Serif" font-size="10.00">GamePlayScript</text>
</g>
<!-- Node2 -->
<g id="node2" class="node"><title>Node2</title>
<g id="a_node2"><a xlink:href="class_script.html" target="_top" xlink:title="Script">
<polygon fill="white" stroke="black" points="299,-204.5 299,-223.5 341,-223.5 341,-204.5 299,-204.5"/>
<text text-anchor="middle" x="320" y="-211.5" font-family="Helvetica,sans-Serif" font-size="10.00">Script</text>
</a>
</g>
</g>
<!-- Node2&#45;&gt;Node1 -->
<g id="edge1" class="edge"><title>Node2&#45;&gt;Node1</title>
<path fill="none" stroke="midnightblue" d="M350.445,-200.96C393.205,-182.023 471.502,-147.349 509.363,-130.582"/>
<polygon fill="midnightblue" stroke="midnightblue" points="348.862,-197.833 341.136,-205.083 351.696,-204.234 348.862,-197.833"/>
</g>
<!-- Node3 -->
<g id="node3" class="node"><title>Node3</title>
<g id="a_node3"><a xlink:title="STL class. ">
<polygon fill="white" stroke="#bfbfbf" points="46,-242.5 46,-261.5 106,-261.5 106,-242.5 46,-242.5"/>
<text text-anchor="middle" x="76" y="-249.5" font-family="Helvetica,sans-Serif" font-size="10.00">std::string</text>
</a>
</g>
</g>
<!-- Node3&#45;&gt;Node2 -->
<g id="edge2" class="edge"><title>Node3&#45;&gt;Node2</title>
<path fill="none" stroke="#9a32cd" stroke-dasharray="5,2" d="M116.572,-247.093C150.053,-242.795 199.268,-236.135 242,-229 261.344,-225.77 283.289,-221.428 298.789,-218.246"/>
<polygon fill="#9a32cd" stroke="#9a32cd" points="115.76,-243.668 106.282,-248.403 116.644,-250.612 115.76,-243.668"/>
<text text-anchor="middle" x="206" y="-242" font-family="Helvetica,sans-Serif" font-size="10.00"> m_debugStatus</text>
</g>
<!-- Node4 -->
<g id="node4" class="node"><title>Node4</title>
<polygon fill="white" stroke="#bfbfbf" points="0,-204.5 0,-223.5 152,-223.5 152,-204.5 0,-204.5"/>
<text text-anchor="middle" x="76" y="-211.5" font-family="Helvetica,sans-Serif" font-size="10.00">std::unique_ptr&lt; LuaWrapper &gt;</text>
</g>
<!-- Node4&#45;&gt;Node2 -->
<g id="edge3" class="edge"><title>Node4&#45;&gt;Node2</title>
<path fill="none" stroke="#9a32cd" stroke-dasharray="5,2" d="M162.264,-214C211.396,-214 269.164,-214 298.964,-214"/>
<polygon fill="#9a32cd" stroke="#9a32cd" points="162.244,-210.5 152.244,-214 162.244,-217.5 162.244,-210.5"/>
<text text-anchor="middle" x="206" y="-217" font-family="Helvetica,sans-Serif" font-size="10.00"> m_lua</text>
</g>
<!-- Node5 -->
<g id="node5" class="node"><title>Node5</title>
<g id="a_node5"><a xlink:href="class_script_engine.html" target="_top" xlink:title="ScriptEngine">
<polygon fill="white" stroke="black" points="284,-111.5 284,-130.5 356,-130.5 356,-111.5 284,-111.5"/>
<text text-anchor="middle" x="320" y="-118.5" font-family="Helvetica,sans-Serif" font-size="10.00">ScriptEngine</text>
</a>
</g>
</g>
<!-- Node5&#45;&gt;Node1 -->
<g id="edge4" class="edge"><title>Node5&#45;&gt;Node1</title>
<path fill="none" stroke="#9a32cd" stroke-dasharray="5,2" d="M366.369,-121C402.35,-121 452.306,-121 487.729,-121"/>
<polygon fill="#9a32cd" stroke="#9a32cd" points="366.149,-117.5 356.149,-121 366.149,-124.5 366.149,-117.5"/>
<text text-anchor="middle" x="434" y="-124" font-family="Helvetica,sans-Serif" font-size="10.00"> m_scriptEngine</text>
</g>
<!-- Node6 -->
<g id="node6" class="node"><title>Node6</title>
<polygon fill="white" stroke="#bfbfbf" points="10.5,-155 10.5,-185 141.5,-185 141.5,-155 10.5,-155"/>
<text text-anchor="start" x="18.5" y="-173" font-family="Helvetica,sans-Serif" font-size="10.00">std::vector&lt; std::shared</text>
<text text-anchor="middle" x="76" y="-162" font-family="Helvetica,sans-Serif" font-size="10.00">_ptr&lt; GamePlayScript &gt; &gt;</text>
</g>
<!-- Node6&#45;&gt;Node5 -->
<g id="edge5" class="edge"><title>Node6&#45;&gt;Node5</title>
<path fill="none" stroke="#9a32cd" stroke-dasharray="5,2" d="M151.354,-154.945C195.432,-146.02 249.259,-135.121 283.826,-128.122"/>
<polygon fill="#9a32cd" stroke="#9a32cd" points="150.64,-151.518 141.534,-156.933 152.029,-158.379 150.64,-151.518"/>
<text text-anchor="middle" x="206" y="-153" font-family="Helvetica,sans-Serif" font-size="10.00"> m_scripts</text>
</g>
<!-- Node7 -->
<g id="node7" class="node"><title>Node7</title>
<polygon fill="white" stroke="#bfbfbf" points="24.5,-106 24.5,-136 127.5,-136 127.5,-106 24.5,-106"/>
<text text-anchor="start" x="32.5" y="-124" font-family="Helvetica,sans-Serif" font-size="10.00">std::unordered_map</text>
<text text-anchor="middle" x="76" y="-113" font-family="Helvetica,sans-Serif" font-size="10.00">&lt; int, Scriptable * &gt;</text>
</g>
<!-- Node7&#45;&gt;Node5 -->
<g id="edge6" class="edge"><title>Node7&#45;&gt;Node5</title>
<path fill="none" stroke="#9a32cd" stroke-dasharray="5,2" d="M137.915,-121C184.054,-121 245.814,-121 283.975,-121"/>
<polygon fill="#9a32cd" stroke="#9a32cd" points="137.731,-117.5 127.731,-121 137.731,-124.5 137.731,-117.5"/>
<text text-anchor="middle" x="206" y="-124" font-family="Helvetica,sans-Serif" font-size="10.00"> m_scriptables</text>
</g>
<!-- Node8 -->
<g id="node8" class="node"><title>Node8</title>
<g id="a_node8"><a xlink:href="class_world.html" target="_top" xlink:title="World">
<polygon fill="white" stroke="red" points="55,-38.5 55,-57.5 97,-57.5 97,-38.5 55,-38.5"/>
<text text-anchor="middle" x="76" y="-45.5" font-family="Helvetica,sans-Serif" font-size="10.00">World</text>
</a>
</g>
</g>
<!-- Node8&#45;&gt;Node5 -->
<g id="edge7" class="edge"><title>Node8&#45;&gt;Node5</title>
<path fill="none" stroke="#9a32cd" stroke-dasharray="5,2" d="M106.892,-57.0171C152.842,-70.8781 240.43,-97.2992 287.393,-111.466"/>
<polygon fill="#9a32cd" stroke="#9a32cd" points="107.801,-53.6356 97.2165,-54.0984 105.78,-60.3373 107.801,-53.6356"/>
<text text-anchor="middle" x="206" y="-101" font-family="Helvetica,sans-Serif" font-size="10.00"> m_world</text>
</g>
<!-- Node8&#45;&gt;Node8 -->
<g id="edge8" class="edge"><title>Node8&#45;&gt;Node8</title>
<path fill="none" stroke="#9a32cd" stroke-dasharray="5,2" d="M51.8186,-67.0292C53.1376,-72.128 61.1981,-76 76,-76 99.1055,-76 105.784,-66.5653 96.0368,-57.7571"/>
<polygon fill="#9a32cd" stroke="#9a32cd" points="55.0776,-68.3148 55.9632,-57.7571 48.687,-65.4582 55.0776,-68.3148"/>
<text text-anchor="middle" x="76" y="-79" font-family="Helvetica,sans-Serif" font-size="10.00"> s_instance</text>
</g>
<!-- Node9 -->
<g id="node9" class="node"><title>Node9</title>
<polygon fill="white" stroke="#bfbfbf" points="260.5,-29 260.5,-59 379.5,-59 379.5,-29 260.5,-29"/>
<text text-anchor="start" x="268.5" y="-47" font-family="Helvetica,sans-Serif" font-size="10.00">std::vector&lt; std::unique</text>
<text text-anchor="middle" x="320" y="-36" font-family="Helvetica,sans-Serif" font-size="10.00">_ptr&lt; Bindings &gt; &gt;</text>
</g>
<!-- Node9&#45;&gt;Node1 -->
<g id="edge9" class="edge"><title>Node9&#45;&gt;Node1</title>
<path fill="none" stroke="#9a32cd" stroke-dasharray="5,2" d="M371.508,-62.5196C413.586,-77.9481 471.814,-99.2986 505.024,-111.475"/>
<polygon fill="#9a32cd" stroke="#9a32cd" points="372.582,-59.1857 361.989,-59.0292 370.172,-65.7578 372.582,-59.1857"/>
<text text-anchor="middle" x="434" y="-102" font-family="Helvetica,sans-Serif" font-size="10.00"> m_bindings</text>
</g>
<!-- Node10 -->
<g id="node10" class="node"><title>Node10</title>
<polygon fill="white" stroke="#bfbfbf" points="7.5,-0.5 7.5,-19.5 144.5,-19.5 144.5,-0.5 7.5,-0.5"/>
<text text-anchor="middle" x="76" y="-7.5" font-family="Helvetica,sans-Serif" font-size="10.00">std::unique_ptr&lt; Bindings &gt;</text>
</g>
<!-- Node10&#45;&gt;Node9 -->
<g id="edge10" class="edge"><title>Node10&#45;&gt;Node9</title>
<path fill="none" stroke="#9a32cd" stroke-dasharray="5,2" d="M154.713,-20.9183C188.984,-25.7333 228.592,-31.298 260.329,-35.757"/>
<polygon fill="#9a32cd" stroke="#9a32cd" points="155.122,-17.4415 144.732,-19.5161 154.148,-24.3734 155.122,-17.4415"/>
<text text-anchor="middle" x="206" y="-37" font-family="Helvetica,sans-Serif" font-size="10.00"> elements</text>
</g>
</g>
</svg>
