<?xml version="1.0" encoding="UTF-8" standalone="no"?>
<!DOCTYPE svg PUBLIC "-//W3C//DTD SVG 1.1//EN"
 "http://www.w3.org/Graphics/SVG/1.1/DTD/svg11.dtd">
<!-- Generated by graphviz version 2.36.0 (20140111.2315)
 -->
<!-- Title: WorldObjectCollision Pages: 1 -->
<svg width="252pt" height="174pt"
 viewBox="0.00 0.00 252.00 174.00" xmlns="http://www.w3.org/2000/svg" xmlns:xlink="http://www.w3.org/1999/xlink">
<g id="graph0" class="graph" transform="scale(1 1) rotate(0) translate(4 170)">
<title>WorldObjectCollision</title>
<polygon fill="white" stroke="none" points="-4,4 -4,-170 248,-170 248,4 -4,4"/>
<!-- Node1 -->
<g id="node1" class="node"><title>Node1</title>
<polygon fill="#bfbfbf" stroke="black" points="76.5,-0.5 76.5,-19.5 183.5,-19.5 183.5,-0.5 76.5,-0.5"/>
<text text-anchor="middle" x="130" y="-7.5" font-family="Helvetica,sans-Serif" font-size="10.00">WorldObjectCollision</text>
</g>
<!-- Node2 -->
<g id="node2" class="node"><title>Node2</title>
<polygon fill="white" stroke="#bfbfbf" points="0,-78.5 0,-97.5 128,-97.5 128,-78.5 0,-78.5"/>
<text text-anchor="middle" x="64" y="-85.5" font-family="Helvetica,sans-Serif" font-size="10.00">std::list&lt; VoxelCollision &gt;</text>
</g>
<!-- Node2&#45;&gt;Node1 -->
<g id="edge1" class="edge"><title>Node2&#45;&gt;Node1</title>
<path fill="none" stroke="#9a32cd" stroke-dasharray="5,2" d="M62.572,-68.3908C62.7513,-58.4828 64.5716,-46.6024 71,-38 77.3385,-29.5179 86.9769,-23.6245 96.6373,-19.5624"/>
<polygon fill="#9a32cd" stroke="#9a32cd" points="59.0763,-68.5821 62.9086,-78.4595 66.0724,-68.3481 59.0763,-68.5821"/>
<text text-anchor="middle" x="111.5" y="-46.5" font-family="Helvetica,sans-Serif" font-size="10.00"> m_voxelCollisions</text>
</g>
<!-- Node3 -->
<g id="node3" class="node"><title>Node3</title>
<g id="a_node3"><a xlink:href="class_voxel_collision.html" target="_top" xlink:title="VoxelCollision">
<polygon fill="white" stroke="red" points="25,-146.5 25,-165.5 103,-165.5 103,-146.5 25,-146.5"/>
<text text-anchor="middle" x="64" y="-153.5" font-family="Helvetica,sans-Serif" font-size="10.00">VoxelCollision</text>
</a>
</g>
</g>
<!-- Node3&#45;&gt;Node2 -->
<g id="edge2" class="edge"><title>Node3&#45;&gt;Node2</title>
<path fill="none" stroke="#9a32cd" stroke-dasharray="5,2" d="M64,-136.041C64,-123.472 64,-107.563 64,-97.8411"/>
<polygon fill="#9a32cd" stroke="#9a32cd" points="60.5001,-136.372 64,-146.372 67.5001,-136.372 60.5001,-136.372"/>
<text text-anchor="middle" x="85.5" y="-119.5" font-family="Helvetica,sans-Serif" font-size="10.00"> elements</text>
</g>
<!-- Node4 -->
<g id="node4" class="node"><title>Node4</title>
<g id="a_node4"><a xlink:href="class_world_object.html" target="_top" xlink:title="WorldObject">
<polygon fill="white" stroke="red" points="146.5,-78.5 146.5,-97.5 217.5,-97.5 217.5,-78.5 146.5,-78.5"/>
<text text-anchor="middle" x="182" y="-85.5" font-family="Helvetica,sans-Serif" font-size="10.00">WorldObject</text>
</a>
</g>
</g>
<!-- Node4&#45;&gt;Node1 -->
<g id="edge3" class="edge"><title>Node4&#45;&gt;Node1</title>
<path fill="none" stroke="#9a32cd" stroke-dasharray="5,2" d="M173.91,-68.9187C169.264,-59.3485 162.973,-47.6202 156,-38 151.188,-31.361 144.814,-24.7166 139.582,-19.6803"/>
<polygon fill="#9a32cd" stroke="#9a32cd" points="170.864,-70.669 178.261,-78.2543 177.209,-67.7119 170.864,-70.669"/>
<text text-anchor="middle" x="206.5" y="-52" font-family="Helvetica,sans-Serif" font-size="10.00"> m_worldObjectA</text>
<text text-anchor="middle" x="206.5" y="-41" font-family="Helvetica,sans-Serif" font-size="10.00">m_worldObjectB</text>
</g>
</g>
</svg>
