<?xml version="1.0" encoding="UTF-8" standalone="no"?>
<!DOCTYPE svg PUBLIC "-//W3C//DTD SVG 1.1//EN"
 "http://www.w3.org/Graphics/SVG/1.1/DTD/svg11.dtd">
<!-- Generated by graphviz version 2.36.0 (20140111.2315)
 -->
<!-- Title: ObjectHudgetCornerVoxels Pages: 1 -->
<svg width="1000pt" height="123pt"
 viewBox="0.00 0.00 1000.00 123.00" xmlns="http://www.w3.org/2000/svg" xmlns:xlink="http://www.w3.org/1999/xlink">
<g id="graph0" class="graph" transform="scale(1 1) rotate(0) translate(4 119)">
<title>ObjectHudgetCornerVoxels</title>
<polygon fill="white" stroke="none" points="-4,4 -4,-119 996,-119 996,4 -4,4"/>
<!-- Node1 -->
<g id="node1" class="node"><title>Node1</title>
<polygon fill="#bfbfbf" stroke="black" points="468,-5.5 468,-24.5 602,-24.5 602,-5.5 468,-5.5"/>
<text text-anchor="middle" x="535" y="-12.5" font-family="Helvetica,sans-Serif" font-size="10.00">ObjectHudgetCornerVoxels</text>
</g>
<!-- Node3 -->
<g id="node3" class="node"><title>Node3</title>
<polygon fill="white" stroke="#bfbfbf" points="654.5,-29 654.5,-59 803.5,-59 803.5,-29 654.5,-29"/>
<text text-anchor="start" x="662.5" y="-47" font-family="Helvetica,sans-Serif" font-size="10.00">std::unique_ptr&lt; ObjectHudget</text>
<text text-anchor="middle" x="729" y="-36" font-family="Helvetica,sans-Serif" font-size="10.00">CornerVoxels &gt;</text>
</g>
<!-- Node1&#45;&gt;Node3 -->
<g id="edge3" class="edge"><title>Node1&#45;&gt;Node3</title>
<path fill="none" stroke="#9a32cd" stroke-dasharray="5,2" d="M609.254,-26.0644C624.076,-28.3031 639.665,-30.6578 654.496,-32.8978"/>
<polygon fill="#9a32cd" stroke="#9a32cd" points="609.545,-22.5687 599.134,-24.5359 608.499,-29.4902 609.545,-22.5687"/>
<text text-anchor="middle" x="628" y="-33" font-family="Helvetica,sans-Serif" font-size="10.00"> ptr</text>
</g>
<!-- Node2 -->
<g id="node2" class="node"><title>Node2</title>
<g id="a_node2"><a xlink:href="class_object_hudget_voxels.html" target="_top" xlink:title="ObjectHudgetVoxels">
<polygon fill="white" stroke="black" points="886,-28.5 886,-47.5 992,-47.5 992,-28.5 886,-28.5"/>
<text text-anchor="middle" x="939" y="-35.5" font-family="Helvetica,sans-Serif" font-size="10.00">ObjectHudgetVoxels</text>
</a>
</g>
</g>
<!-- Node2&#45;&gt;Node1 -->
<g id="edge1" class="edge"><title>Node2&#45;&gt;Node1</title>
<path fill="none" stroke="#9a32cd" stroke-dasharray="5,2" d="M895.086,-25.8603C868.99,-19.1144 834.855,-11.4117 804,-8 737.737,-0.673206 720.637,-6.0252 654,-8 637.179,-8.49848 619.027,-9.39583 602.123,-10.3854"/>
<polygon fill="#9a32cd" stroke="#9a32cd" points="894.465,-29.316 905.027,-28.4838 896.251,-22.5478 894.465,-29.316"/>
<text text-anchor="middle" x="729" y="-11" font-family="Helvetica,sans-Serif" font-size="10.00"> m_objectHudgetVoxels</text>
</g>
<!-- Node3&#45;&gt;Node2 -->
<g id="edge2" class="edge"><title>Node3&#45;&gt;Node2</title>
<path fill="none" stroke="#9a32cd" stroke-dasharray="5,2" d="M813.845,-39.2825C816.596,-39.1791 819.32,-39.0843 822,-39 842.834,-38.3444 865.783,-38.0554 885.731,-37.9439"/>
<polygon fill="#9a32cd" stroke="#9a32cd" points="813.652,-35.7874 803.803,-39.6918 813.937,-42.7816 813.652,-35.7874"/>
<text text-anchor="middle" x="845" y="-75" font-family="Helvetica,sans-Serif" font-size="10.00"> m_rb</text>
<text text-anchor="middle" x="845" y="-64" font-family="Helvetica,sans-Serif" font-size="10.00">m_ru</text>
<text text-anchor="middle" x="845" y="-53" font-family="Helvetica,sans-Serif" font-size="10.00">m_lb</text>
<text text-anchor="middle" x="845" y="-42" font-family="Helvetica,sans-Serif" font-size="10.00">m_lu</text>
</g>
<!-- Node4 -->
<g id="node4" class="node"><title>Node4</title>
<g id="a_node4"><a xlink:href="class_object_hudget.html" target="_top" xlink:title="ObjectHudget">
<polygon fill="white" stroke="red" points="691,-95.5 691,-114.5 767,-114.5 767,-95.5 691,-95.5"/>
<text text-anchor="middle" x="729" y="-102.5" font-family="Helvetica,sans-Serif" font-size="10.00">ObjectHudget</text>
</a>
</g>
</g>
<!-- Node4&#45;&gt;Node2 -->
<g id="edge4" class="edge"><title>Node4&#45;&gt;Node2</title>
<path fill="none" stroke="#9a32cd" stroke-dasharray="5,2" d="M777.158,-102.316C804.418,-99.5876 838.959,-94.0877 868,-83 890.405,-74.4459 913.187,-58.0642 926.436,-47.603"/>
<polygon fill="#9a32cd" stroke="#9a32cd" points="776.735,-98.8396 767.093,-103.231 777.369,-105.811 776.735,-98.8396"/>
<text text-anchor="middle" x="845" y="-99" font-family="Helvetica,sans-Serif" font-size="10.00"> m_hudget</text>
</g>
<!-- Node5 -->
<g id="node5" class="node"><title>Node5</title>
<polygon fill="white" stroke="#bfbfbf" points="236.5,-0 236.5,-30 355.5,-30 355.5,-0 236.5,-0"/>
<text text-anchor="start" x="244.5" y="-18" font-family="Helvetica,sans-Serif" font-size="10.00">std::vector&lt; std::unique</text>
<text text-anchor="middle" x="296" y="-7" font-family="Helvetica,sans-Serif" font-size="10.00">_ptr&lt; VoxelCluster &gt; &gt;</text>
</g>
<!-- Node5&#45;&gt;Node1 -->
<g id="edge5" class="edge"><title>Node5&#45;&gt;Node1</title>
<path fill="none" stroke="#9a32cd" stroke-dasharray="5,2" d="M365.784,-15C397.889,-15 435.941,-15 467.726,-15"/>
<polygon fill="#9a32cd" stroke="#9a32cd" points="365.584,-11.5001 355.584,-15 365.584,-18.5001 365.584,-11.5001"/>
<text text-anchor="middle" x="412" y="-18" font-family="Helvetica,sans-Serif" font-size="10.00"> m_voxelClusters</text>
</g>
<!-- Node6 -->
<g id="node6" class="node"><title>Node6</title>
<polygon fill="white" stroke="#bfbfbf" points="0.5,-5.5 0.5,-24.5 155.5,-24.5 155.5,-5.5 0.5,-5.5"/>
<text text-anchor="middle" x="78" y="-12.5" font-family="Helvetica,sans-Serif" font-size="10.00">std::unique_ptr&lt; VoxelCluster &gt;</text>
</g>
<!-- Node6&#45;&gt;Node5 -->
<g id="edge6" class="edge"><title>Node6&#45;&gt;Node5</title>
<path fill="none" stroke="#9a32cd" stroke-dasharray="5,2" d="M165.835,-15C189.576,-15 214.737,-15 236.483,-15"/>
<polygon fill="#9a32cd" stroke="#9a32cd" points="165.762,-11.5001 155.762,-15 165.762,-18.5001 165.762,-11.5001"/>
<text text-anchor="middle" x="196" y="-18" font-family="Helvetica,sans-Serif" font-size="10.00"> elements</text>
</g>
</g>
</svg>
