<?xml version="1.0" encoding="UTF-8" standalone="no"?>
<!DOCTYPE svg PUBLIC "-//W3C//DTD SVG 1.1//EN"
 "http://www.w3.org/Graphics/SVG/1.1/DTD/svg11.dtd">
<!-- Generated by graphviz version 2.36.0 (20140111.2315)
 -->
<!-- Title: GamePlayRunningInput Pages: 1 -->
<!--zoomable 300 -->
<svg id="main" version="1.1" xmlns="http://www.w3.org/2000/svg" xmlns:xlink="http://www.w3.org/1999/xlink" xml:space="preserve" onload="init(evt)">
<style type="text/css"><![CDATA[
.edge:hover path { stroke: red; }
.edge:hover polygon { stroke: red; fill: red; }
]]></style>
<script type="text/javascript"><![CDATA[
var edges = document.getElementsByTagName('g');
if (edges && edges.length) {
  for (var i=0;i<edges.length;i++) {
    if (edges[i].id.substr(0,4)=='edge') {
      edges[i].setAttribute('class','edge');
    }
  }
}
]]></script>
        <defs>
                <circle id="rim" cx="0" cy="0" r="7"/>
                <circle id="rim2" cx="0" cy="0" r="3.5"/>
                <g id="zoomPlus">
                        <use xlink:href="#rim" fill="#404040">
                                <set attributeName="fill" to="#808080" begin="zoomplus.mouseover" end="zoomplus.mouseout"/>
                        </use>
                        <path d="M-4,0h8M0,-4v8" fill="none" stroke="white" stroke-width="1.5" pointer-events="none"/>
                </g>
                <g id="zoomMin">
                        <use xlink:href="#rim" fill="#404040">
                                <set attributeName="fill" to="#808080" begin="zoomminus.mouseover" end="zoomminus.mouseout"/>
                        </use>
                        <path d="M-4,0h8" fill="none" stroke="white" stroke-width="1.5" pointer-events="none"/>
                </g>
                <g id="dirArrow">
                        <path fill="none" stroke="white" stroke-width="1.5" d="M0,-3.0v7 M-2.5,-0.5L0,-3.0L2.5,-0.5"/>
                </g>
               <g id="resetDef">
                       <use xlink:href="#rim2" fill="#404040">
                               <set attributeName="fill" to="#808080" begin="reset.mouseover" end="reset.mouseout"/>
                       </use>
               </g>
        </defs>

<script type="text/javascript">
var viewWidth = 896;
var viewHeight = 300;
var sectionId = 'dynsection-0';
</script>
<script xlink:href="svgpan.js"/>
<svg id="graph" class="graph">
<g id="viewport">
<title>GamePlayRunningInput</title>
<polygon fill="white" stroke="none" points="-4,4 -4,-296 892,-296 892,4 -4,4"/>
<!-- Node1 -->
<g id="node1" class="node"><title>Node1</title>
<polygon fill="#bfbfbf" stroke="black" points="768.5,-84.5 768.5,-103.5 887.5,-103.5 887.5,-84.5 768.5,-84.5"/>
<text text-anchor="middle" x="828" y="-91.5" font-family="Helvetica,sans-Serif" font-size="10.00">GamePlayRunningInput</text>
</g>
<!-- Node2 -->
<g id="node2" class="node"><title>Node2</title>
<g id="a_node2"><a xlink:href="struct_secondary_input_values.html" target="_top" xlink:title="SecondaryInputValues">
<polygon fill="white" stroke="black" points="477,-271.5 477,-290.5 591,-290.5 591,-271.5 477,-271.5"/>
<text text-anchor="middle" x="534" y="-278.5" font-family="Helvetica,sans-Serif" font-size="10.00">SecondaryInputValues</text>
</a>
</g>
</g>
<!-- Node2&#45;&gt;Node1 -->
<g id="edge1" class="edge"><title>Node2&#45;&gt;Node1</title>
<path fill="none" stroke="#9a32cd" stroke-dasharray="5,2" d="M601.183,-284.427C647.04,-283.502 707.288,-275.37 750,-244 799.309,-207.785 819.428,-130.724 825.153,-103.649"/>
<polygon fill="#9a32cd" stroke="#9a32cd" points="601.007,-280.928 591.04,-284.52 601.071,-287.928 601.007,-280.928"/>
<text text-anchor="middle" x="693" y="-284" font-family="Helvetica,sans-Serif" font-size="10.00"> m_secondaryInputValues</text>
</g>
<!-- Node3 -->
<g id="node3" class="node"><title>Node3</title>
<g id="a_node3"><a xlink:href="class_action_key_mapping.html" target="_top" xlink:title="ActionKeyMapping">
<polygon fill="white" stroke="black" points="267,-84.5 267,-103.5 365,-103.5 365,-84.5 267,-84.5"/>
<text text-anchor="middle" x="316" y="-91.5" font-family="Helvetica,sans-Serif" font-size="10.00">ActionKeyMapping</text>
</a>
</g>
</g>
<!-- Node3&#45;&gt;Node1 -->
<g id="edge2" class="edge"><title>Node3&#45;&gt;Node1</title>
<path fill="none" stroke="#9a32cd" stroke-dasharray="5,2" d="M375.477,-94C473.592,-94 670.235,-94 768.419,-94"/>
<polygon fill="#9a32cd" stroke="#9a32cd" points="375.439,-90.5001 365.439,-94 375.439,-97.5001 375.439,-90.5001"/>
<text text-anchor="middle" x="534" y="-207" font-family="Helvetica,sans-Serif" font-size="10.00"> moveRightAction</text>
<text text-anchor="middle" x="534" y="-196" font-family="Helvetica,sans-Serif" font-size="10.00">moveLeftAction</text>
<text text-anchor="middle" x="534" y="-185" font-family="Helvetica,sans-Serif" font-size="10.00">rocketAction</text>
<text text-anchor="middle" x="534" y="-174" font-family="Helvetica,sans-Serif" font-size="10.00">rotateDownAction</text>
<text text-anchor="middle" x="534" y="-163" font-family="Helvetica,sans-Serif" font-size="10.00">rotateRightAction</text>
<text text-anchor="middle" x="534" y="-152" font-family="Helvetica,sans-Serif" font-size="10.00">rotateCClockwiseAction</text>
<text text-anchor="middle" x="534" y="-141" font-family="Helvetica,sans-Serif" font-size="10.00">rotateLeftAction</text>
<text text-anchor="middle" x="534" y="-130" font-family="Helvetica,sans-Serif" font-size="10.00">fireAction</text>
<text text-anchor="middle" x="534" y="-119" font-family="Helvetica,sans-Serif" font-size="10.00">rotateUpAction</text>
<text text-anchor="middle" x="534" y="-108" font-family="Helvetica,sans-Serif" font-size="10.00">rotateClockwiseAction</text>
<text text-anchor="middle" x="534" y="-97" font-family="Helvetica,sans-Serif" font-size="10.00">...</text>
</g>
<!-- Node8 -->
<g id="node8" class="node"><title>Node8</title>
<polygon fill="white" stroke="#bfbfbf" points="450,-38.5 450,-57.5 618,-57.5 618,-38.5 450,-38.5"/>
<text text-anchor="middle" x="534" y="-45.5" font-family="Helvetica,sans-Serif" font-size="10.00">std::vector&lt; ActionKeyMapping * &gt;</text>
</g>
<!-- Node3&#45;&gt;Node8 -->
<g id="edge9" class="edge"><title>Node3&#45;&gt;Node8</title>
<path fill="none" stroke="#9a32cd" stroke-dasharray="5,2" d="M349.826,-80.9412C361.7,-76.619 375.31,-72.1215 388,-69 407.76,-64.1394 429.33,-60.2659 449.649,-57.2373"/>
<polygon fill="#9a32cd" stroke="#9a32cd" points="348.458,-77.7158 340.318,-84.4966 350.91,-84.2724 348.458,-77.7158"/>
<text text-anchor="middle" x="410" y="-72" font-family="Helvetica,sans-Serif" font-size="10.00"> elements</text>
</g>
<!-- Node4 -->
<g id="node4" class="node"><title>Node4</title>
<g id="a_node4"><a xlink:title="STL class. ">
<polygon fill="white" stroke="#bfbfbf" points="35,-157.5 35,-176.5 95,-176.5 95,-157.5 35,-157.5"/>
<text text-anchor="middle" x="65" y="-164.5" font-family="Helvetica,sans-Serif" font-size="10.00">std::string</text>
</a>
</g>
</g>
<!-- Node4&#45;&gt;Node3 -->
<g id="edge3" class="edge"><title>Node4&#45;&gt;Node3</title>
<path fill="none" stroke="#9a32cd" stroke-dasharray="5,2" d="M105.381,-157.717C141.65,-148.904 196.823,-134.831 244,-120 259.653,-115.079 276.948,-108.765 290.549,-103.591"/>
<polygon fill="#9a32cd" stroke="#9a32cd" points="104.119,-154.421 95.2183,-160.168 105.76,-161.225 104.119,-154.421"/>
<text text-anchor="middle" x="196" y="-148" font-family="Helvetica,sans-Serif" font-size="10.00"> m_name</text>
</g>
<!-- Node7 -->
<g id="node7" class="node"><title>Node7</title>
<g id="a_node7"><a xlink:href="class_property_impl.html" target="_top" xlink:title="PropertyImpl\&lt; float \&gt;">
<polygon fill="white" stroke="black" points="262.5,-193.5 262.5,-212.5 369.5,-212.5 369.5,-193.5 262.5,-193.5"/>
<text text-anchor="middle" x="316" y="-200.5" font-family="Helvetica,sans-Serif" font-size="10.00">PropertyImpl&lt; float &gt;</text>
</a>
</g>
</g>
<!-- Node4&#45;&gt;Node7 -->
<g id="edge7" class="edge"><title>Node4&#45;&gt;Node7</title>
<path fill="none" stroke="#9a32cd" stroke-dasharray="5,2" d="M104.975,-172.635C147.306,-178.755 215.167,-188.566 262.247,-195.373"/>
<polygon fill="#9a32cd" stroke="#9a32cd" points="105.449,-169.167 95.0508,-171.2 104.447,-176.095 105.449,-169.167"/>
<text text-anchor="middle" x="196" y="-195" font-family="Helvetica,sans-Serif" font-size="10.00"> m_name</text>
</g>
<!-- Node5 -->
<g id="node5" class="node"><title>Node5</title>
<g id="a_node5"><a xlink:href="class_property.html" target="_top" xlink:title="Property\&lt; InputMapping \&gt;">
<polygon fill="white" stroke="red" points="0.5,-84.5 0.5,-103.5 129.5,-103.5 129.5,-84.5 0.5,-84.5"/>
<text text-anchor="middle" x="65" y="-91.5" font-family="Helvetica,sans-Serif" font-size="10.00">Property&lt; InputMapping &gt;</text>
</a>
</g>
</g>
<!-- Node5&#45;&gt;Node3 -->
<g id="edge4" class="edge"><title>Node5&#45;&gt;Node3</title>
<path fill="none" stroke="#9a32cd" stroke-dasharray="5,2" d="M140.013,-94C180.983,-94 230.734,-94 266.7,-94"/>
<polygon fill="#9a32cd" stroke="#9a32cd" points="139.8,-90.5001 129.8,-94 139.8,-97.5001 139.8,-90.5001"/>
<text text-anchor="middle" x="196" y="-108" font-family="Helvetica,sans-Serif" font-size="10.00"> m_primaryMapping</text>
<text text-anchor="middle" x="196" y="-97" font-family="Helvetica,sans-Serif" font-size="10.00">m_secondaryMapping</text>
</g>
<!-- Node6 -->
<g id="node6" class="node"><title>Node6</title>
<g id="a_node6"><a xlink:href="class_property.html" target="_top" xlink:title="Property\&lt; float \&gt;">
<polygon fill="white" stroke="black" points="489.5,-233.5 489.5,-252.5 578.5,-252.5 578.5,-233.5 489.5,-233.5"/>
<text text-anchor="middle" x="534" y="-240.5" font-family="Helvetica,sans-Serif" font-size="10.00">Property&lt; float &gt;</text>
</a>
</g>
</g>
<!-- Node6&#45;&gt;Node1 -->
<g id="edge5" class="edge"><title>Node6&#45;&gt;Node1</title>
<path fill="none" stroke="#9a32cd" stroke-dasharray="5,2" d="M585.653,-230.605C596.511,-227.328 607.784,-223.443 618,-219 696.317,-184.938 781.168,-126.803 813.479,-103.792"/>
<polygon fill="#9a32cd" stroke="#9a32cd" points="584.475,-227.302 575.84,-233.442 586.419,-234.026 584.475,-227.302"/>
<text text-anchor="middle" x="693" y="-232" font-family="Helvetica,sans-Serif" font-size="10.00"> prop_deadzoneMouse</text>
<text text-anchor="middle" x="693" y="-221" font-family="Helvetica,sans-Serif" font-size="10.00">prop_deadzoneGamepad</text>
<text text-anchor="middle" x="693" y="-210" font-family="Helvetica,sans-Serif" font-size="10.00">prop_maxClickTime</text>
</g>
<!-- Node7&#45;&gt;Node6 -->
<g id="edge6" class="edge"><title>Node7&#45;&gt;Node6</title>
<path fill="none" stroke="#9a32cd" stroke-dasharray="5,2" d="M378.661,-214.419C413.967,-220.957 457.426,-229.005 489.223,-234.893"/>
<polygon fill="#9a32cd" stroke="#9a32cd" points="378.933,-210.91 368.463,-212.53 377.658,-217.793 378.933,-210.91"/>
<text text-anchor="middle" x="410" y="-227" font-family="Helvetica,sans-Serif" font-size="10.00"> m_impl</text>
</g>
<!-- Node8&#45;&gt;Node1 -->
<g id="edge8" class="edge"><title>Node8&#45;&gt;Node1</title>
<path fill="none" stroke="#9a32cd" stroke-dasharray="5,2" d="M628.123,-52.6788C666.191,-55.7332 710.484,-60.757 750,-69 767.749,-72.7024 787.162,-79.0215 802.056,-84.3801"/>
<polygon fill="#9a32cd" stroke="#9a32cd" points="628.314,-49.1832 618.075,-51.9062 627.777,-56.1626 628.314,-49.1832"/>
<text text-anchor="middle" x="693" y="-72" font-family="Helvetica,sans-Serif" font-size="10.00"> m_actions</text>
</g>
<!-- Node9 -->
<g id="node9" class="node"><title>Node9</title>
<g id="a_node9"><a xlink:href="class_input_configurator.html" target="_top" xlink:title="InputConfigurator">
<polygon fill="white" stroke="black" points="489.5,-0.5 489.5,-19.5 578.5,-19.5 578.5,-0.5 489.5,-0.5"/>
<text text-anchor="middle" x="534" y="-7.5" font-family="Helvetica,sans-Serif" font-size="10.00">InputConfigurator</text>
</a>
</g>
</g>
<!-- Node9&#45;&gt;Node1 -->
<g id="edge10" class="edge"><title>Node9&#45;&gt;Node1</title>
<path fill="none" stroke="#9a32cd" stroke-dasharray="5,2" d="M588.648,-9.69524C633.297,-11.1316 697.77,-17.19 750,-38 777.026,-48.7679 803.286,-71.1987 817.059,-84.1664"/>
<polygon fill="#9a32cd" stroke="#9a32cd" points="588.676,-6.19492 578.59,-9.43892 588.497,-13.1926 588.676,-6.19492"/>
<text text-anchor="middle" x="693" y="-41" font-family="Helvetica,sans-Serif" font-size="10.00"> m_inputConfigurator</text>
</g>
</g>
</svg>
        <g id="navigator" transform="translate(0 0)" fill="#404254">
                <rect fill="#f2f5e9" fill-opacity="0.5" stroke="#606060" stroke-width=".5" x="0" y="0" width="60" height="60"/>
                <use id="zoomplus" xlink:href="#zoomPlus" x="17" y="9" onmousedown="handleZoom(evt,'in')"/>
                <use id="zoomminus" xlink:href="#zoomMin" x="42" y="9" onmousedown="handleZoom(evt,'out')"/>
                <use id="reset" xlink:href="#resetDef" x="30" y="36" onmousedown="handleReset()"/>
                <g id="arrowUp" xlink:href="#dirArrow" transform="translate(30 24)" onmousedown="handlePan(0,-1)">
                  <use xlink:href="#rim" fill="#404040">
                        <set attributeName="fill" to="#808080" begin="arrowUp.mouseover" end="arrowUp.mouseout"/>
                  </use>
                  <path fill="none" stroke="white" stroke-width="1.5" d="M0,-3.0v7 M-2.5,-0.5L0,-3.0L2.5,-0.5"/>
                </g>
                <g id="arrowRight" xlink:href="#dirArrow" transform="rotate(90) translate(36 -43)" onmousedown="handlePan(1,0)">
                  <use xlink:href="#rim" fill="#404040">
                        <set attributeName="fill" to="#808080" begin="arrowRight.mouseover" end="arrowRight.mouseout"/>
                  </use>
                  <path fill="none" stroke="white" stroke-width="1.5" d="M0,-3.0v7 M-2.5,-0.5L0,-3.0L2.5,-0.5"/>
                </g>
                <g id="arrowDown" xlink:href="#dirArrow" transform="rotate(180) translate(-30 -48)" onmousedown="handlePan(0,1)">
                  <use xlink:href="#rim" fill="#404040">
                        <set attributeName="fill" to="#808080" begin="arrowDown.mouseover" end="arrowDown.mouseout"/>
                  </use>
                  <path fill="none" stroke="white" stroke-width="1.5" d="M0,-3.0v7 M-2.5,-0.5L0,-3.0L2.5,-0.5"/>
                </g>
                <g id="arrowLeft" xlink:href="#dirArrow" transform="rotate(270) translate(-36 17)" onmousedown="handlePan(-1,0)">
                  <use xlink:href="#rim" fill="#404040">
                        <set attributeName="fill" to="#808080" begin="arrowLeft.mouseover" end="arrowLeft.mouseout"/>
                  </use>
                  <path fill="none" stroke="white" stroke-width="1.5" d="M0,-3.0v7 M-2.5,-0.5L0,-3.0L2.5,-0.5"/>
                </g>
        </g>
        <svg viewBox="0 0 15 15" width="100%" height="30px" preserveAspectRatio="xMaxYMin meet">
         <g id="arrow_out" transform="scale(0.3 0.3)">
          <a xlink:href="class_game_play_running_input__coll__graph_org.svg" target="_base">
           <rect id="button" ry="5" rx="5" y="6" x="6" height="38" width="38"
                fill="#f2f5e9" fill-opacity="0.5" stroke="#606060" stroke-width="1.0"/>
           <path id="arrow"
             d="M 11.500037,31.436501 C 11.940474,20.09759 22.043105,11.32322 32.158766,21.979434 L 37.068811,17.246167 C 37.068811,17.246167 37.088388,32 37.088388,32 L 22.160133,31.978069 C 22.160133,31.978069 26.997745,27.140456 26.997745,27.140456 C 18.528582,18.264221 13.291696,25.230495 11.500037,31.436501 z"
             style="fill:#404040;"/>
          </a>
         </g>
        </svg>
</svg>
