<?xml version="1.0" encoding="UTF-8" standalone="no"?>
<!DOCTYPE svg PUBLIC "-//W3C//DTD SVG 1.1//EN"
 "http://www.w3.org/Graphics/SVG/1.1/DTD/svg11.dtd">
<!-- Generated by graphviz version 2.36.0 (20140111.2315)
 -->
<!-- Title: CrossHair Pages: 1 -->
<svg width="171pt" height="302pt"
 viewBox="0.00 0.00 171.00 302.00" xmlns="http://www.w3.org/2000/svg" xmlns:xlink="http://www.w3.org/1999/xlink">
<g id="graph0" class="graph" transform="scale(1 1) rotate(0) translate(4 298)">
<title>CrossHair</title>
<polygon fill="white" stroke="none" points="-4,4 -4,-298 167,-298 167,4 -4,4"/>
<!-- Node1 -->
<g id="node1" class="node"><title>Node1</title>
<polygon fill="#bfbfbf" stroke="black" points="58.5,-148.5 58.5,-167.5 117.5,-167.5 117.5,-148.5 58.5,-148.5"/>
<text text-anchor="middle" x="88" y="-155.5" font-family="Helvetica,sans-Serif" font-size="10.00">CrossHair</text>
</g>
<!-- Node5 -->
<g id="node5" class="node"><title>Node5</title>
<g id="a_node5"><a xlink:href="class_cross_hair_voxels.html" target="_top" xlink:title="CrossHairVoxels">
<polygon fill="white" stroke="red" points="-0.5,-80.5 -0.5,-99.5 88.5,-99.5 88.5,-80.5 -0.5,-80.5"/>
<text text-anchor="middle" x="44" y="-87.5" font-family="Helvetica,sans-Serif" font-size="10.00">CrossHairVoxels</text>
</a>
</g>
</g>
<!-- Node1&#45;&gt;Node5 -->
<g id="edge5" class="edge"><title>Node1&#45;&gt;Node5</title>
<path fill="none" stroke="#9a32cd" stroke-dasharray="5,2" d="M64.1356,-142.217C59.9084,-138.67 55.9286,-134.566 53,-130 47.0729,-120.758 45.0338,-108.068 44.3412,-99.707"/>
<polygon fill="#9a32cd" stroke="#9a32cd" points="62.2448,-145.173 72.3582,-148.33 66.4213,-139.555 62.2448,-145.173"/>
<text text-anchor="middle" x="82" y="-121.5" font-family="Helvetica,sans-Serif" font-size="10.00"> m_crossHair</text>
</g>
<!-- Node2 -->
<g id="node2" class="node"><title>Node2</title>
<g id="a_node2"><a xlink:href="class_hudget.html" target="_top" xlink:title="Hudget">
<polygon fill="white" stroke="black" points="64.5,-206.5 64.5,-225.5 111.5,-225.5 111.5,-206.5 64.5,-206.5"/>
<text text-anchor="middle" x="88" y="-213.5" font-family="Helvetica,sans-Serif" font-size="10.00">Hudget</text>
</a>
</g>
</g>
<!-- Node2&#45;&gt;Node1 -->
<g id="edge1" class="edge"><title>Node2&#45;&gt;Node1</title>
<path fill="none" stroke="midnightblue" d="M88,-195.953C88,-186.287 88,-175.031 88,-167.505"/>
<polygon fill="midnightblue" stroke="midnightblue" points="84.5001,-196.25 88,-206.25 91.5001,-196.25 84.5001,-196.25"/>
</g>
<!-- Node3 -->
<g id="node3" class="node"><title>Node3</title>
<g id="a_node3"><a xlink:href="class_h_u_d.html" target="_top" xlink:title="HUD">
<polygon fill="white" stroke="red" points="69.5,-274.5 69.5,-293.5 106.5,-293.5 106.5,-274.5 69.5,-274.5"/>
<text text-anchor="middle" x="88" y="-281.5" font-family="Helvetica,sans-Serif" font-size="10.00">HUD</text>
</a>
</g>
</g>
<!-- Node3&#45;&gt;Node2 -->
<g id="edge2" class="edge"><title>Node3&#45;&gt;Node2</title>
<path fill="none" stroke="#9a32cd" stroke-dasharray="5,2" d="M88,-264.041C88,-251.472 88,-235.563 88,-225.841"/>
<polygon fill="#9a32cd" stroke="#9a32cd" points="84.5001,-264.372 88,-274.372 91.5001,-264.372 84.5001,-264.372"/>
<text text-anchor="middle" x="104.5" y="-247.5" font-family="Helvetica,sans-Serif" font-size="10.00"> m_hud</text>
</g>
<!-- Node4 -->
<g id="node4" class="node"><title>Node4</title>
<polygon fill="white" stroke="#bfbfbf" points="30.5,-1 30.5,-31 163.5,-31 163.5,-1 30.5,-1"/>
<text text-anchor="start" x="38.5" y="-19" font-family="Helvetica,sans-Serif" font-size="10.00">std::unique_ptr&lt; CrossHair</text>
<text text-anchor="middle" x="97" y="-8" font-family="Helvetica,sans-Serif" font-size="10.00">Voxels &gt;</text>
</g>
<!-- Node4&#45;&gt;Node1 -->
<g id="edge3" class="edge"><title>Node4&#45;&gt;Node1</title>
<path fill="none" stroke="#9a32cd" stroke-dasharray="5,2" d="M106.125,-40.4912C113.788,-63.8693 121.888,-100.428 111,-130 108.447,-136.934 103.234,-143.3 98.4151,-148.107"/>
<polygon fill="#9a32cd" stroke="#9a32cd" points="109.425,-39.3241 102.815,-31.0439 102.819,-41.6387 109.425,-39.3241"/>
<text text-anchor="middle" x="139" y="-87.5" font-family="Helvetica,sans-Serif" font-size="10.00"> m_voxels</text>
</g>
<!-- Node5&#45;&gt;Node4 -->
<g id="edge4" class="edge"><title>Node5&#45;&gt;Node4</title>
<path fill="none" stroke="#9a32cd" stroke-dasharray="5,2" d="M56.2915,-72.3022C65.4526,-59.8569 77.8303,-43.0418 86.524,-31.2316"/>
<polygon fill="#9a32cd" stroke="#9a32cd" points="53.3975,-70.3297 50.2879,-80.4579 59.0348,-74.4794 53.3975,-70.3297"/>
<text text-anchor="middle" x="80.5" y="-53.5" font-family="Helvetica,sans-Serif" font-size="10.00"> ptr</text>
</g>
</g>
</svg>
