<?xml version="1.0" encoding="UTF-8" standalone="no"?>
<!DOCTYPE svg PUBLIC "-//W3C//DTD SVG 1.1//EN"
 "http://www.w3.org/Graphics/SVG/1.1/DTD/svg11.dtd">
<!-- Generated by graphviz version 2.36.0 (20140111.2315)
 -->
<!-- Title: Ship Pages: 1 -->
<!--zoomable 412 -->
<svg id="main" version="1.1" xmlns="http://www.w3.org/2000/svg" xmlns:xlink="http://www.w3.org/1999/xlink" xml:space="preserve" onload="init(evt)">
<style type="text/css"><![CDATA[
.edge:hover path { stroke: red; }
.edge:hover polygon { stroke: red; fill: red; }
]]></style>
<script type="text/javascript"><![CDATA[
var edges = document.getElementsByTagName('g');
if (edges && edges.length) {
  for (var i=0;i<edges.length;i++) {
    if (edges[i].id.substr(0,4)=='edge') {
      edges[i].setAttribute('class','edge');
    }
  }
}
]]></script>
        <defs>
                <circle id="rim" cx="0" cy="0" r="7"/>
                <circle id="rim2" cx="0" cy="0" r="3.5"/>
                <g id="zoomPlus">
                        <use xlink:href="#rim" fill="#404040">
                                <set attributeName="fill" to="#808080" begin="zoomplus.mouseover" end="zoomplus.mouseout"/>
                        </use>
                        <path d="M-4,0h8M0,-4v8" fill="none" stroke="white" stroke-width="1.5" pointer-events="none"/>
                </g>
                <g id="zoomMin">
                        <use xlink:href="#rim" fill="#404040">
                                <set attributeName="fill" to="#808080" begin="zoomminus.mouseover" end="zoomminus.mouseout"/>
                        </use>
                        <path d="M-4,0h8" fill="none" stroke="white" stroke-width="1.5" pointer-events="none"/>
                </g>
                <g id="dirArrow">
                        <path fill="none" stroke="white" stroke-width="1.5" d="M0,-3.0v7 M-2.5,-0.5L0,-3.0L2.5,-0.5"/>
                </g>
               <g id="resetDef">
                       <use xlink:href="#rim2" fill="#404040">
                               <set attributeName="fill" to="#808080" begin="reset.mouseover" end="reset.mouseout"/>
                       </use>
               </g>
        </defs>

<script type="text/javascript">
var viewWidth = 1272;
var viewHeight = 412;
var sectionId = 'dynsection-1';
</script>
<script xlink:href="svgpan.js"/>
<svg id="graph" class="graph">
<g id="viewport">
<title>Ship</title>
<polygon fill="white" stroke="none" points="-4,4 -4,-408 1268,-408 1268,4 -4,4"/>
<!-- Node1 -->
<g id="node1" class="node"><title>Node1</title>
<polygon fill="#bfbfbf" stroke="black" points="886,-69.5 886,-88.5 922,-88.5 922,-69.5 886,-69.5"/>
<text text-anchor="middle" x="904" y="-76.5" font-family="Helvetica,sans-Serif" font-size="10.00">Ship</text>
</g>
<!-- Node13 -->
<g id="node13" class="node"><title>Node13</title>
<g id="a_node13"><a xlink:href="class_character.html" target="_top" xlink:title="Character">
<polygon fill="white" stroke="red" points="998.5,-132.5 998.5,-151.5 1057.5,-151.5 1057.5,-132.5 998.5,-132.5"/>
<text text-anchor="middle" x="1028" y="-139.5" font-family="Helvetica,sans-Serif" font-size="10.00">Character</text>
</a>
</g>
</g>
<!-- Node1&#45;&gt;Node13 -->
<g id="edge14" class="edge"><title>Node1&#45;&gt;Node13</title>
<path fill="none" stroke="#9a32cd" stroke-dasharray="5,2" d="M917.631,-96.5101C923.668,-103.772 931.443,-111.717 940,-117 957.785,-127.981 980.572,-134.3 998.364,-137.837"/>
<polygon fill="#9a32cd" stroke="#9a32cd" points="920.302,-94.2442 911.4,-88.5001 914.777,-98.5422 920.302,-94.2442"/>
<text text-anchor="middle" x="958" y="-135" font-family="Helvetica,sans-Serif" font-size="10.00"> m_ship</text>
</g>
<!-- Node18 -->
<g id="node18" class="node"><title>Node18</title>
<g id="a_node18"><a xlink:href="class_squad_logic.html" target="_top" xlink:title="SquadLogic">
<polygon fill="white" stroke="black" points="994,-0.5 994,-19.5 1062,-19.5 1062,-0.5 994,-0.5"/>
<text text-anchor="middle" x="1028" y="-7.5" font-family="Helvetica,sans-Serif" font-size="10.00">SquadLogic</text>
</a>
</g>
</g>
<!-- Node1&#45;&gt;Node18 -->
<g id="edge21" class="edge"><title>Node1&#45;&gt;Node18</title>
<path fill="none" stroke="#9a32cd" stroke-dasharray="5,2" d="M914.363,-60.3347C920.366,-50.2028 929.081,-38.2921 940,-31 955.893,-20.386 976.598,-15.1235 993.822,-12.5203"/>
<polygon fill="#9a32cd" stroke="#9a32cd" points="911.19,-58.8429 909.456,-69.2949 917.329,-62.2054 911.19,-58.8429"/>
<text text-anchor="middle" x="958" y="-34" font-family="Helvetica,sans-Serif" font-size="10.00"> m_ship</text>
</g>
<!-- Node2 -->
<g id="node2" class="node"><title>Node2</title>
<g id="a_node2"><a xlink:href="class_world_object.html" target="_top" xlink:title="WorldObject">
<polygon fill="white" stroke="black" points="270.5,-183.5 270.5,-202.5 341.5,-202.5 341.5,-183.5 270.5,-183.5"/>
<text text-anchor="middle" x="306" y="-190.5" font-family="Helvetica,sans-Serif" font-size="10.00">WorldObject</text>
</a>
</g>
</g>
<!-- Node2&#45;&gt;Node1 -->
<g id="edge1" class="edge"><title>Node2&#45;&gt;Node1</title>
<path fill="none" stroke="midnightblue" d="M351.701,-184.45C473.288,-161.193 806.219,-97.5118 885.765,-82.2967"/>
<polygon fill="midnightblue" stroke="midnightblue" points="350.784,-181.062 341.62,-186.378 352.099,-187.937 350.784,-181.062"/>
</g>
<!-- Node15 -->
<g id="node15" class="node"><title>Node15</title>
<g id="a_node15"><a xlink:href="class_board_computer.html" target="_top" xlink:title="BoardComputer">
<polygon fill="white" stroke="red" points="454,-177.5 454,-196.5 538,-196.5 538,-177.5 454,-177.5"/>
<text text-anchor="middle" x="496" y="-184.5" font-family="Helvetica,sans-Serif" font-size="10.00">BoardComputer</text>
</a>
</g>
</g>
<!-- Node2&#45;&gt;Node15 -->
<g id="edge17" class="edge"><title>Node2&#45;&gt;Node15</title>
<path fill="none" stroke="#9a32cd" stroke-dasharray="5,2" d="M351.998,-191.564C382.908,-190.577 423.631,-189.278 453.712,-188.318"/>
<polygon fill="#9a32cd" stroke="#9a32cd" points="351.804,-188.068 341.921,-191.886 352.027,-195.065 351.804,-188.068"/>
<text text-anchor="middle" x="394" y="-195" font-family="Helvetica,sans-Serif" font-size="10.00"> m_worldObject</text>
</g>
<!-- Node3 -->
<g id="node3" class="node"><title>Node3</title>
<g id="a_node3"><a xlink:href="class_voxel_cluster.html" target="_top" xlink:title="VoxelCluster">
<polygon fill="white" stroke="red" points="36,-335.5 36,-354.5 108,-354.5 108,-335.5 36,-335.5"/>
<text text-anchor="middle" x="72" y="-342.5" font-family="Helvetica,sans-Serif" font-size="10.00">VoxelCluster</text>
</a>
</g>
</g>
<!-- Node3&#45;&gt;Node2 -->
<g id="edge2" class="edge"><title>Node3&#45;&gt;Node2</title>
<path fill="none" stroke="midnightblue" d="M118.261,-345.873C157.569,-344.334 213.999,-336.316 252,-306 286.047,-278.838 299.303,-224.668 303.427,-202.645"/>
<polygon fill="midnightblue" stroke="midnightblue" points="118.062,-342.377 108.158,-346.142 118.248,-349.375 118.062,-342.377"/>
</g>
<!-- Node4 -->
<g id="node4" class="node"><title>Node4</title>
<g id="a_node4"><a xlink:href="class_scriptable.html" target="_top" xlink:title="Scriptable">
<polygon fill="white" stroke="black" points="42,-297.5 42,-316.5 102,-316.5 102,-297.5 42,-297.5"/>
<text text-anchor="middle" x="72" y="-304.5" font-family="Helvetica,sans-Serif" font-size="10.00">Scriptable</text>
</a>
</g>
</g>
<!-- Node4&#45;&gt;Node2 -->
<g id="edge3" class="edge"><title>Node4&#45;&gt;Node2</title>
<path fill="none" stroke="midnightblue" d="M112.621,-309.294C151.303,-309.604 210.273,-304.757 252,-277 279.566,-258.663 295.595,-220.582 301.887,-202.687"/>
<polygon fill="midnightblue" stroke="midnightblue" points="112.349,-305.788 102.28,-309.085 112.207,-312.786 112.349,-305.788"/>
</g>
<!-- Node5 -->
<g id="node5" class="node"><title>Node5</title>
<g id="a_node5"><a xlink:href="class_voxel.html" target="_top" xlink:title="Voxel">
<polygon fill="white" stroke="red" points="51.5,-259.5 51.5,-278.5 92.5,-278.5 92.5,-259.5 51.5,-259.5"/>
<text text-anchor="middle" x="72" y="-266.5" font-family="Helvetica,sans-Serif" font-size="10.00">Voxel</text>
</a>
</g>
</g>
<!-- Node5&#45;&gt;Node2 -->
<g id="edge4" class="edge"><title>Node5&#45;&gt;Node2</title>
<path fill="none" stroke="#9a32cd" stroke-dasharray="5,2" d="M102.542,-268.3C139.203,-266.425 202.88,-259.819 252,-237 269.787,-228.737 286.536,-213.003 296.277,-202.762"/>
<polygon fill="#9a32cd" stroke="#9a32cd" points="102.357,-264.805 92.5151,-268.728 102.655,-271.798 102.357,-264.805"/>
<text text-anchor="middle" x="207" y="-265" font-family="Helvetica,sans-Serif" font-size="10.00"> m_crucialVoxel</text>
</g>
<!-- Node6 -->
<g id="node6" class="node"><title>Node6</title>
<polygon fill="white" stroke="#bfbfbf" points="0.5,-221.5 0.5,-240.5 143.5,-240.5 143.5,-221.5 0.5,-221.5"/>
<text text-anchor="middle" x="72" y="-228.5" font-family="Helvetica,sans-Serif" font-size="10.00">std::unique_ptr&lt; ObjectInfo &gt;</text>
</g>
<!-- Node6&#45;&gt;Node2 -->
<g id="edge5" class="edge"><title>Node6&#45;&gt;Node2</title>
<path fill="none" stroke="#9a32cd" stroke-dasharray="5,2" d="M153.819,-223.187C184.706,-219.529 220.147,-214.517 252,-208 259.308,-206.505 267.082,-204.528 274.361,-202.503"/>
<polygon fill="#9a32cd" stroke="#9a32cd" points="153.063,-219.751 143.531,-224.375 153.867,-226.704 153.063,-219.751"/>
<text text-anchor="middle" x="207" y="-225" font-family="Helvetica,sans-Serif" font-size="10.00"> m_objectInfo</text>
</g>
<!-- Node7 -->
<g id="node7" class="node"><title>Node7</title>
<g id="a_node7"><a xlink:href="class_handle.html" target="_top" xlink:title="Handle\&lt; WorldObject \&gt;">
<polygon fill="white" stroke="black" points="12.5,-46.5 12.5,-65.5 131.5,-65.5 131.5,-46.5 12.5,-46.5"/>
<text text-anchor="middle" x="72" y="-53.5" font-family="Helvetica,sans-Serif" font-size="10.00">Handle&lt; WorldObject &gt;</text>
</a>
</g>
</g>
<!-- Node7&#45;&gt;Node1 -->
<g id="edge11" class="edge"><title>Node7&#45;&gt;Node1</title>
<path fill="none" stroke="#9a32cd" stroke-dasharray="5,2" d="M141.828,-56C187.987,-56 250.142,-56 305,-56 305,-56 305,-56 683,-56 759.037,-56 849.06,-69.7587 885.948,-75.9932"/>
<polygon fill="#9a32cd" stroke="#9a32cd" points="141.64,-52.5001 131.64,-56 141.639,-59.5001 141.64,-52.5001"/>
<text text-anchor="middle" x="496" y="-59" font-family="Helvetica,sans-Serif" font-size="10.00"> m_targetObjectHandle</text>
</g>
<!-- Node7&#45;&gt;Node2 -->
<g id="edge6" class="edge"><title>Node7&#45;&gt;Node2</title>
<path fill="none" stroke="#9a32cd" stroke-dasharray="5,2" d="M141.452,-67.0654C184.251,-75.0633 234.469,-86.7581 252,-100 280.916,-121.842 296.532,-164.369 302.332,-183.396"/>
<polygon fill="#9a32cd" stroke="#9a32cd" points="142.071,-63.6206 131.605,-65.2647 140.812,-70.5064 142.071,-63.6206"/>
<text text-anchor="middle" x="207" y="-103" font-family="Helvetica,sans-Serif" font-size="10.00"> m_handle</text>
</g>
<!-- Node8 -->
<g id="node8" class="node"><title>Node8</title>
<polygon fill="white" stroke="#bfbfbf" points="5,-183.5 5,-202.5 139,-202.5 139,-183.5 5,-183.5"/>
<text text-anchor="middle" x="72" y="-190.5" font-family="Helvetica,sans-Serif" font-size="10.00">std::unique_ptr&lt; Physics &gt;</text>
</g>
<!-- Node8&#45;&gt;Node2 -->
<g id="edge7" class="edge"><title>Node8&#45;&gt;Node2</title>
<path fill="none" stroke="#9a32cd" stroke-dasharray="5,2" d="M149.374,-193C190.193,-193 238.452,-193 270.287,-193"/>
<polygon fill="#9a32cd" stroke="#9a32cd" points="149.171,-189.5 139.171,-193 149.171,-196.5 149.171,-189.5"/>
<text text-anchor="middle" x="207" y="-196" font-family="Helvetica,sans-Serif" font-size="10.00"> m_physics</text>
</g>
<!-- Node9 -->
<g id="node9" class="node"><title>Node9</title>
<polygon fill="white" stroke="#bfbfbf" points="8.5,-134 8.5,-164 135.5,-164 135.5,-134 8.5,-134"/>
<text text-anchor="start" x="16.5" y="-152" font-family="Helvetica,sans-Serif" font-size="10.00">std::unique_ptr&lt; Collision</text>
<text text-anchor="middle" x="72" y="-141" font-family="Helvetica,sans-Serif" font-size="10.00">Filter &gt;</text>
</g>
<!-- Node9&#45;&gt;Node2 -->
<g id="edge8" class="edge"><title>Node9&#45;&gt;Node2</title>
<path fill="none" stroke="#9a32cd" stroke-dasharray="5,2" d="M145.799,-158.851C178.442,-163.766 217.322,-170.31 252,-178 259.002,-179.553 266.45,-181.483 273.482,-183.436"/>
<polygon fill="#9a32cd" stroke="#9a32cd" points="146.286,-155.385 135.88,-157.378 145.258,-162.309 146.286,-155.385"/>
<text text-anchor="middle" x="207" y="-181" font-family="Helvetica,sans-Serif" font-size="10.00"> m_collisionFilter</text>
</g>
<!-- Node10 -->
<g id="node10" class="node"><title>Node10</title>
<polygon fill="white" stroke="#bfbfbf" points="8.5,-85 8.5,-115 135.5,-115 135.5,-85 8.5,-85"/>
<text text-anchor="start" x="16.5" y="-103" font-family="Helvetica,sans-Serif" font-size="10.00">std::unique_ptr&lt; Collision</text>
<text text-anchor="middle" x="72" y="-92" font-family="Helvetica,sans-Serif" font-size="10.00">Detector &gt;</text>
</g>
<!-- Node10&#45;&gt;Node2 -->
<g id="edge9" class="edge"><title>Node10&#45;&gt;Node2</title>
<path fill="none" stroke="#9a32cd" stroke-dasharray="5,2" d="M145.874,-111.266C179.51,-118.405 219.17,-129.666 252,-147 269.885,-156.443 286.86,-172.981 296.586,-183.443"/>
<polygon fill="#9a32cd" stroke="#9a32cd" points="146.14,-107.748 135.642,-109.18 144.742,-114.607 146.14,-107.748"/>
<text text-anchor="middle" x="207" y="-150" font-family="Helvetica,sans-Serif" font-size="10.00"> m_collisionDetector</text>
</g>
<!-- Node11 -->
<g id="node11" class="node"><title>Node11</title>
<polygon fill="white" stroke="#bfbfbf" points="0,-374 0,-404 144,-404 144,-374 0,-374"/>
<text text-anchor="start" x="8" y="-392" font-family="Helvetica,sans-Serif" font-size="10.00">std::unique_ptr&lt; WorldObject</text>
<text text-anchor="middle" x="72" y="-381" font-family="Helvetica,sans-Serif" font-size="10.00">Components &gt;</text>
</g>
<!-- Node11&#45;&gt;Node2 -->
<g id="edge10" class="edge"><title>Node11&#45;&gt;Node2</title>
<path fill="none" stroke="#9a32cd" stroke-dasharray="5,2" d="M154.08,-382.125C187.953,-375.472 225.506,-362.63 252,-338 292.634,-300.224 302.208,-228.734 304.384,-202.751"/>
<polygon fill="#9a32cd" stroke="#9a32cd" points="153.387,-378.693 144.171,-383.919 154.634,-385.581 153.387,-378.693"/>
<text text-anchor="middle" x="207" y="-383" font-family="Helvetica,sans-Serif" font-size="10.00"> m_components</text>
</g>
<!-- Node12 -->
<g id="node12" class="node"><title>Node12</title>
<polygon fill="white" stroke="#bfbfbf" points="1118.5,-111.5 1118.5,-130.5 1259.5,-130.5 1259.5,-111.5 1118.5,-111.5"/>
<text text-anchor="middle" x="1189" y="-118.5" font-family="Helvetica,sans-Serif" font-size="10.00">std::unique_ptr&lt; Character &gt;</text>
</g>
<!-- Node12&#45;&gt;Node1 -->
<g id="edge12" class="edge"><title>Node12&#45;&gt;Node1</title>
<path fill="none" stroke="#9a32cd" stroke-dasharray="5,2" d="M1108.19,-110.916C1059.49,-104.47 996.025,-95.5478 940,-86 934.136,-85.0006 927.748,-83.7664 922.054,-82.614"/>
<polygon fill="#9a32cd" stroke="#9a32cd" points="1107.98,-114.418 1118.35,-112.253 1108.89,-107.478 1107.98,-114.418"/>
<text text-anchor="middle" x="1028" y="-108" font-family="Helvetica,sans-Serif" font-size="10.00"> m_character</text>
</g>
<!-- Node13&#45;&gt;Node12 -->
<g id="edge13" class="edge"><title>Node13&#45;&gt;Node12</title>
<path fill="none" stroke="#9a32cd" stroke-dasharray="5,2" d="M1067.88,-136.865C1083.13,-134.851 1101.11,-132.476 1118.45,-130.185"/>
<polygon fill="#9a32cd" stroke="#9a32cd" points="1067.25,-133.418 1057.79,-138.197 1068.17,-140.357 1067.25,-133.418"/>
<text text-anchor="middle" x="1088" y="-139" font-family="Helvetica,sans-Serif" font-size="10.00"> ptr</text>
</g>
<!-- Node14 -->
<g id="node14" class="node"><title>Node14</title>
<polygon fill="white" stroke="#bfbfbf" points="598.5,-160.5 598.5,-179.5 765.5,-179.5 765.5,-160.5 598.5,-160.5"/>
<text text-anchor="middle" x="682" y="-167.5" font-family="Helvetica,sans-Serif" font-size="10.00">std::unique_ptr&lt; BoardComputer &gt;</text>
</g>
<!-- Node14&#45;&gt;Node1 -->
<g id="edge15" class="edge"><title>Node14&#45;&gt;Node1</title>
<path fill="none" stroke="#9a32cd" stroke-dasharray="5,2" d="M754.568,-158.332C790.483,-150.255 833.554,-137.052 868,-116 879.619,-108.899 889.925,-96.9519 896.292,-88.5589"/>
<polygon fill="#9a32cd" stroke="#9a32cd" points="753.677,-154.943 744.641,-160.476 755.155,-161.786 753.677,-154.943"/>
<text text-anchor="middle" x="826" y="-154" font-family="Helvetica,sans-Serif" font-size="10.00"> m_boardComputer</text>
</g>
<!-- Node15&#45;&gt;Node14 -->
<g id="edge16" class="edge"><title>Node15&#45;&gt;Node14</title>
<path fill="none" stroke="#9a32cd" stroke-dasharray="5,2" d="M548.666,-182.227C564.127,-180.798 581.484,-179.194 598.411,-177.631"/>
<polygon fill="#9a32cd" stroke="#9a32cd" points="547.929,-178.78 538.293,-183.185 548.573,-185.75 547.929,-178.78"/>
<text text-anchor="middle" x="572" y="-184" font-family="Helvetica,sans-Serif" font-size="10.00"> ptr</text>
</g>
<!-- Node16 -->
<g id="node16" class="node"><title>Node16</title>
<g id="a_node16"><a xlink:href="class_handle.html" target="_top" xlink:title="Handle\&lt; Ship \&gt;">
<polygon fill="white" stroke="black" points="640,-8.5 640,-27.5 724,-27.5 724,-8.5 640,-8.5"/>
<text text-anchor="middle" x="682" y="-15.5" font-family="Helvetica,sans-Serif" font-size="10.00">Handle&lt; Ship &gt;</text>
</a>
</g>
</g>
<!-- Node16&#45;&gt;Node1 -->
<g id="edge18" class="edge"><title>Node16&#45;&gt;Node1</title>
<path fill="none" stroke="#9a32cd" stroke-dasharray="5,2" d="M734.11,-10.4654C773.197,-7.22531 827.141,-8.38813 868,-31 883.34,-39.4896 893.741,-57.8709 898.998,-69.2628"/>
<polygon fill="#9a32cd" stroke="#9a32cd" points="733.631,-6.99514 724.008,-11.4273 734.294,-13.9636 733.631,-6.99514"/>
<text text-anchor="middle" x="826" y="-34" font-family="Helvetica,sans-Serif" font-size="10.00"> m_shipHandle</text>
</g>
<!-- Node17 -->
<g id="node17" class="node"><title>Node17</title>
<polygon fill="white" stroke="#bfbfbf" points="1114,-28.5 1114,-47.5 1264,-47.5 1264,-28.5 1114,-28.5"/>
<text text-anchor="middle" x="1189" y="-35.5" font-family="Helvetica,sans-Serif" font-size="10.00">std::unique_ptr&lt; SquadLogic &gt;</text>
</g>
<!-- Node17&#45;&gt;Node1 -->
<g id="edge19" class="edge"><title>Node17&#45;&gt;Node1</title>
<path fill="none" stroke="#9a32cd" stroke-dasharray="5,2" d="M1112.08,-48.9989C1047.36,-58.3759 959.128,-71.1582 922.277,-76.497"/>
<polygon fill="#9a32cd" stroke="#9a32cd" points="1112.86,-52.4226 1122.25,-47.5249 1111.86,-45.4949 1112.86,-52.4226"/>
<text text-anchor="middle" x="1028" y="-69" font-family="Helvetica,sans-Serif" font-size="10.00"> m_squadLogic</text>
</g>
<!-- Node18&#45;&gt;Node17 -->
<g id="edge20" class="edge"><title>Node18&#45;&gt;Node17</title>
<path fill="none" stroke="#9a32cd" stroke-dasharray="5,2" d="M1072.19,-17.6055C1091.17,-20.9473 1113.66,-24.9083 1133.75,-28.4464"/>
<polygon fill="#9a32cd" stroke="#9a32cd" points="1072.79,-14.1572 1062.33,-15.8697 1071.57,-21.0511 1072.79,-14.1572"/>
<text text-anchor="middle" x="1088" y="-25" font-family="Helvetica,sans-Serif" font-size="10.00"> ptr</text>
</g>
</g>
</svg>
        <g id="navigator" transform="translate(0 0)" fill="#404254">
                <rect fill="#f2f5e9" fill-opacity="0.5" stroke="#606060" stroke-width=".5" x="0" y="0" width="60" height="60"/>
                <use id="zoomplus" xlink:href="#zoomPlus" x="17" y="9" onmousedown="handleZoom(evt,'in')"/>
                <use id="zoomminus" xlink:href="#zoomMin" x="42" y="9" onmousedown="handleZoom(evt,'out')"/>
                <use id="reset" xlink:href="#resetDef" x="30" y="36" onmousedown="handleReset()"/>
                <g id="arrowUp" xlink:href="#dirArrow" transform="translate(30 24)" onmousedown="handlePan(0,-1)">
                  <use xlink:href="#rim" fill="#404040">
                        <set attributeName="fill" to="#808080" begin="arrowUp.mouseover" end="arrowUp.mouseout"/>
                  </use>
                  <path fill="none" stroke="white" stroke-width="1.5" d="M0,-3.0v7 M-2.5,-0.5L0,-3.0L2.5,-0.5"/>
                </g>
                <g id="arrowRight" xlink:href="#dirArrow" transform="rotate(90) translate(36 -43)" onmousedown="handlePan(1,0)">
                  <use xlink:href="#rim" fill="#404040">
                        <set attributeName="fill" to="#808080" begin="arrowRight.mouseover" end="arrowRight.mouseout"/>
                  </use>
                  <path fill="none" stroke="white" stroke-width="1.5" d="M0,-3.0v7 M-2.5,-0.5L0,-3.0L2.5,-0.5"/>
                </g>
                <g id="arrowDown" xlink:href="#dirArrow" transform="rotate(180) translate(-30 -48)" onmousedown="handlePan(0,1)">
                  <use xlink:href="#rim" fill="#404040">
                        <set attributeName="fill" to="#808080" begin="arrowDown.mouseover" end="arrowDown.mouseout"/>
                  </use>
                  <path fill="none" stroke="white" stroke-width="1.5" d="M0,-3.0v7 M-2.5,-0.5L0,-3.0L2.5,-0.5"/>
                </g>
                <g id="arrowLeft" xlink:href="#dirArrow" transform="rotate(270) translate(-36 17)" onmousedown="handlePan(-1,0)">
                  <use xlink:href="#rim" fill="#404040">
                        <set attributeName="fill" to="#808080" begin="arrowLeft.mouseover" end="arrowLeft.mouseout"/>
                  </use>
                  <path fill="none" stroke="white" stroke-width="1.5" d="M0,-3.0v7 M-2.5,-0.5L0,-3.0L2.5,-0.5"/>
                </g>
        </g>
        <svg viewBox="0 0 15 15" width="100%" height="30px" preserveAspectRatio="xMaxYMin meet">
         <g id="arrow_out" transform="scale(0.3 0.3)">
          <a xlink:href="class_ship__coll__graph_org.svg" target="_base">
           <rect id="button" ry="5" rx="5" y="6" x="6" height="38" width="38"
                fill="#f2f5e9" fill-opacity="0.5" stroke="#606060" stroke-width="1.0"/>
           <path id="arrow"
             d="M 11.500037,31.436501 C 11.940474,20.09759 22.043105,11.32322 32.158766,21.979434 L 37.068811,17.246167 C 37.068811,17.246167 37.088388,32 37.088388,32 L 22.160133,31.978069 C 22.160133,31.978069 26.997745,27.140456 26.997745,27.140456 C 18.528582,18.264221 13.291696,25.230495 11.500037,31.436501 z"
             style="fill:#404040;"/>
          </a>
         </g>
        </svg>
</svg>
