<?xml version="1.0" encoding="UTF-8" standalone="no"?>
<!DOCTYPE svg PUBLIC "-//W3C//DTD SVG 1.1//EN"
 "http://www.w3.org/Graphics/SVG/1.1/DTD/svg11.dtd">
<!-- Generated by graphviz version 2.36.0 (20140111.2315)
 -->
<!-- Title: BaseScenario Pages: 1 -->
<svg width="1162pt" height="470pt"
 viewBox="0.00 0.00 1162.00 470.08" xmlns="http://www.w3.org/2000/svg" xmlns:xlink="http://www.w3.org/1999/xlink">
<g id="graph0" class="graph" transform="scale(1 1) rotate(0) translate(4 466.08)">
<title>BaseScenario</title>
<polygon fill="white" stroke="none" points="-4,4 -4,-466.08 1158,-466.08 1158,4 -4,4"/>
<!-- Node1 -->
<g id="node1" class="node"><title>Node1</title>
<polygon fill="#bfbfbf" stroke="black" points="478.5,-156.58 478.5,-175.58 555.5,-175.58 555.5,-156.58 478.5,-156.58"/>
<text text-anchor="middle" x="517" y="-163.58" font-family="Helvetica,sans-Serif" font-size="10.00">BaseScenario</text>
</g>
<!-- Node6 -->
<g id="node6" class="node"><title>Node6</title>
<polygon fill="white" stroke="#bfbfbf" points="636,-110.58 636,-129.58 796,-129.58 796,-110.58 636,-110.58"/>
<text text-anchor="middle" x="716" y="-117.58" font-family="Helvetica,sans-Serif" font-size="10.00">std::unique_ptr&lt; BaseScenario &gt;</text>
</g>
<!-- Node1&#45;&gt;Node6 -->
<g id="edge9" class="edge"><title>Node1&#45;&gt;Node6</title>
<path fill="none" stroke="#9a32cd" stroke-dasharray="5,2" d="M545.352,-152.084C554.29,-147.998 564.392,-143.883 574,-141.08 593.72,-135.327 615.474,-131.097 635.871,-128.007"/>
<polygon fill="#9a32cd" stroke="#9a32cd" points="543.715,-148.986 536.188,-156.442 546.722,-155.308 543.715,-148.986"/>
<text text-anchor="middle" x="596" y="-144.08" font-family="Helvetica,sans-Serif" font-size="10.00"> ptr</text>
</g>
<!-- Node2 -->
<g id="node2" class="node"><title>Node2</title>
<g id="a_node2"><a xlink:href="class_game_play.html" target="_top" xlink:title="GamePlay">
<polygon fill="white" stroke="black" points="886,-156.58 886,-175.58 948,-175.58 948,-156.58 886,-156.58"/>
<text text-anchor="middle" x="917" y="-163.58" font-family="Helvetica,sans-Serif" font-size="10.00">GamePlay</text>
</a>
</g>
</g>
<!-- Node2&#45;&gt;Node1 -->
<g id="edge1" class="edge"><title>Node2&#45;&gt;Node1</title>
<path fill="none" stroke="#9a32cd" stroke-dasharray="5,2" d="M875.672,-166.08C798.504,-166.08 630.95,-166.08 555.802,-166.08"/>
<polygon fill="#9a32cd" stroke="#9a32cd" points="875.942,-169.58 885.942,-166.08 875.942,-162.58 875.942,-169.58"/>
<text text-anchor="middle" x="716" y="-169.08" font-family="Helvetica,sans-Serif" font-size="10.00"> m_gamePlay</text>
</g>
<!-- Node4 -->
<g id="node4" class="node"><title>Node4</title>
<g id="a_node4"><a xlink:href="class_game.html" target="_top" xlink:title="Game">
<polygon fill="white" stroke="red" points="1083.5,-325.58 1083.5,-344.58 1126.5,-344.58 1126.5,-325.58 1083.5,-325.58"/>
<text text-anchor="middle" x="1105" y="-332.58" font-family="Helvetica,sans-Serif" font-size="10.00">Game</text>
</a>
</g>
</g>
<!-- Node2&#45;&gt;Node4 -->
<g id="edge6" class="edge"><title>Node2&#45;&gt;Node4</title>
<path fill="none" stroke="#9a32cd" stroke-dasharray="5,2" d="M918.305,-186.158C919.958,-218.256 928.175,-280.789 966,-313.08 983.298,-327.847 1049.29,-332.784 1083.36,-334.369"/>
<polygon fill="#9a32cd" stroke="#9a32cd" points="921.791,-185.696 917.95,-175.822 914.795,-185.936 921.791,-185.696"/>
<text text-anchor="middle" x="1002" y="-333.08" font-family="Helvetica,sans-Serif" font-size="10.00"> m_gamePlay</text>
</g>
<!-- Node9 -->
<g id="node9" class="node"><title>Node9</title>
<g id="a_node9"><a xlink:href="class_game_play_running.html" target="_top" xlink:title="GamePlayRunning">
<polygon fill="white" stroke="red" points="1056,-232.58 1056,-251.58 1154,-251.58 1154,-232.58 1056,-232.58"/>
<text text-anchor="middle" x="1105" y="-239.58" font-family="Helvetica,sans-Serif" font-size="10.00">GamePlayRunning</text>
</a>
</g>
</g>
<!-- Node2&#45;&gt;Node9 -->
<g id="edge14" class="edge"><title>Node2&#45;&gt;Node9</title>
<path fill="none" stroke="#9a32cd" stroke-dasharray="5,2" d="M957.778,-177.925C981.434,-185.398 1011.83,-195.757 1038,-207.08 1055.5,-214.652 1074.66,-225.068 1087.81,-232.566"/>
<polygon fill="#9a32cd" stroke="#9a32cd" points="958.674,-174.538 948.085,-174.905 956.591,-181.221 958.674,-174.538"/>
<text text-anchor="middle" x="1002" y="-210.08" font-family="Helvetica,sans-Serif" font-size="10.00"> m_gamePlay</text>
</g>
<!-- Node10 -->
<g id="node10" class="node"><title>Node10</title>
<g id="a_node10"><a xlink:href="class_game_play_paused.html" target="_top" xlink:title="GamePlayPaused">
<polygon fill="white" stroke="red" points="1057.5,-139.58 1057.5,-158.58 1152.5,-158.58 1152.5,-139.58 1057.5,-139.58"/>
<text text-anchor="middle" x="1105" y="-146.58" font-family="Helvetica,sans-Serif" font-size="10.00">GamePlayPaused</text>
</a>
</g>
</g>
<!-- Node2&#45;&gt;Node10 -->
<g id="edge17" class="edge"><title>Node2&#45;&gt;Node10</title>
<path fill="none" stroke="#9a32cd" stroke-dasharray="5,2" d="M934.939,-149.636C943.515,-142.45 954.527,-134.818 966,-131.08 1004.36,-118.578 1051.4,-130.047 1079.47,-139.533"/>
<polygon fill="#9a32cd" stroke="#9a32cd" points="932.37,-147.238 927.248,-156.512 937.036,-152.456 932.37,-147.238"/>
<text text-anchor="middle" x="1002" y="-134.08" font-family="Helvetica,sans-Serif" font-size="10.00"> m_gamePlay</text>
</g>
<!-- Node3 -->
<g id="node3" class="node"><title>Node3</title>
<g id="a_node3"><a xlink:href="class_game_state.html" target="_top" xlink:title="GameState">
<polygon fill="white" stroke="red" points="683,-224.58 683,-243.58 749,-243.58 749,-224.58 683,-224.58"/>
<text text-anchor="middle" x="716" y="-231.58" font-family="Helvetica,sans-Serif" font-size="10.00">GameState</text>
</a>
</g>
</g>
<!-- Node3&#45;&gt;Node2 -->
<g id="edge2" class="edge"><title>Node3&#45;&gt;Node2</title>
<path fill="none" stroke="midnightblue" d="M754.982,-221.101C793.841,-207.822 853.305,-187.503 888.053,-175.629"/>
<polygon fill="midnightblue" stroke="midnightblue" points="753.421,-217.936 745.09,-224.481 755.684,-224.56 753.421,-217.936"/>
</g>
<!-- Node3&#45;&gt;Node3 -->
<g id="edge3" class="edge"><title>Node3&#45;&gt;Node3</title>
<path fill="none" stroke="#9a32cd" stroke-dasharray="5,2" d="M693.679,-253.109C694.896,-258.208 702.337,-262.08 716,-262.08 737.328,-262.08 743.493,-252.645 734.495,-243.837"/>
<polygon fill="#9a32cd" stroke="#9a32cd" points="696.926,-254.416 697.505,-243.837 690.455,-251.746 696.926,-254.416"/>
<text text-anchor="middle" x="716" y="-265.08" font-family="Helvetica,sans-Serif" font-size="10.00"> m_parentGameState</text>
</g>
<!-- Node3&#45;&gt;Node4 -->
<g id="edge5" class="edge"><title>Node3&#45;&gt;Node4</title>
<path fill="none" stroke="midnightblue" d="M740.858,-248.844C783.896,-274.51 878.233,-326.403 966,-345.08 1006.88,-353.779 1055.94,-346.033 1083.18,-340.178"/>
<polygon fill="midnightblue" stroke="midnightblue" points="742.605,-245.81 732.235,-243.641 738.989,-251.804 742.605,-245.81"/>
</g>
<!-- Node3&#45;&gt;Node9 -->
<g id="edge13" class="edge"><title>Node3&#45;&gt;Node9</title>
<path fill="none" stroke="midnightblue" d="M759.494,-240.835C820.999,-249.681 938.379,-263.063 1038,-254.08 1044.38,-253.505 1051.06,-252.623 1057.63,-251.592"/>
<polygon fill="midnightblue" stroke="midnightblue" points="759.798,-237.342 749.395,-239.351 758.78,-244.268 759.798,-237.342"/>
</g>
<!-- Node3&#45;&gt;Node10 -->
<g id="edge16" class="edge"><title>Node3&#45;&gt;Node10</title>
<path fill="none" stroke="midnightblue" d="M758.916,-225.203C789.22,-218.784 831.142,-209.901 868,-202.08 903.558,-194.534 912.512,-192.945 948,-185.08 987.348,-176.36 1032.17,-165.968 1063.64,-158.597"/>
<polygon fill="midnightblue" stroke="midnightblue" points="758.166,-221.784 749.109,-227.281 759.617,-228.633 758.166,-221.784"/>
</g>
<!-- Node4&#45;&gt;Node2 -->
<g id="edge4" class="edge"><title>Node4&#45;&gt;Node2</title>
<path fill="none" stroke="#9a32cd" stroke-dasharray="5,2" d="M1075.28,-320.794C1039.98,-302.841 982.697,-272.298 966,-255.08 942.658,-231.008 927.427,-193.314 921.197,-175.724"/>
<polygon fill="#9a32cd" stroke="#9a32cd" points="1074.1,-324.118 1084.6,-325.503 1077.25,-317.87 1074.1,-324.118"/>
<text text-anchor="middle" x="1002" y="-303.08" font-family="Helvetica,sans-Serif" font-size="10.00"> m_game</text>
</g>
<!-- Node5 -->
<g id="node5" class="node"><title>Node5</title>
<polygon fill="white" stroke="#bfbfbf" points="648,-23.0798 648,-53.0798 784,-53.0798 784,-23.0798 648,-23.0798"/>
<text text-anchor="start" x="656" y="-41.0798" font-family="Helvetica,sans-Serif" font-size="10.00">std::unique_ptr&lt; GamePlay</text>
<text text-anchor="middle" x="716" y="-30.0798" font-family="Helvetica,sans-Serif" font-size="10.00">Scene &gt;</text>
</g>
<!-- Node5&#45;&gt;Node2 -->
<g id="edge7" class="edge"><title>Node5&#45;&gt;Node2</title>
<path fill="none" stroke="#9a32cd" stroke-dasharray="5,2" d="M794.153,-33.1207C819.763,-35.0791 847.054,-41.4661 868,-57.0798 901.156,-81.7956 911.803,-134.421 914.874,-156.262"/>
<polygon fill="#9a32cd" stroke="#9a32cd" points="794.239,-29.6202 784.061,-32.5636 793.853,-36.6096 794.239,-29.6202"/>
<text text-anchor="middle" x="841" y="-60.0798" font-family="Helvetica,sans-Serif" font-size="10.00"> m_scene</text>
</g>
<!-- Node6&#45;&gt;Node2 -->
<g id="edge8" class="edge"><title>Node6&#45;&gt;Node2</title>
<path fill="none" stroke="#9a32cd" stroke-dasharray="5,2" d="M806.145,-127.335C826.76,-130.42 848.391,-134.816 868,-141.08 879.635,-144.796 891.832,-151.185 901.018,-156.574"/>
<polygon fill="#9a32cd" stroke="#9a32cd" points="806.511,-123.852 796.12,-125.924 805.535,-130.784 806.511,-123.852"/>
<text text-anchor="middle" x="841" y="-144.08" font-family="Helvetica,sans-Serif" font-size="10.00"> m_scenario</text>
</g>
<!-- Node7 -->
<g id="node7" class="node"><title>Node7</title>
<polygon fill="white" stroke="#bfbfbf" points="332.5,-57.5798 332.5,-76.5798 459.5,-76.5798 459.5,-57.5798 332.5,-57.5798"/>
<text text-anchor="middle" x="396" y="-64.5798" font-family="Helvetica,sans-Serif" font-size="10.00">std::unique_ptr&lt; Player &gt;</text>
</g>
<!-- Node7&#45;&gt;Node2 -->
<g id="edge10" class="edge"><title>Node7&#45;&gt;Node2</title>
<path fill="none" stroke="#9a32cd" stroke-dasharray="5,2" d="M469.549,-68.1232C550.077,-70.4669 683.527,-77.8844 796,-101.08 829.036,-107.893 838.633,-108.486 868,-125.08 883.076,-133.598 897.827,-147.22 906.911,-156.4"/>
<polygon fill="#9a32cd" stroke="#9a32cd" points="469.604,-64.6235 459.512,-67.8495 469.413,-71.6209 469.604,-64.6235"/>
<text text-anchor="middle" x="596" y="-80.0798" font-family="Helvetica,sans-Serif" font-size="10.00"> m_player</text>
</g>
<!-- Node8 -->
<g id="node8" class="node"><title>Node8</title>
<g id="a_node8"><a xlink:href="class_player.html" target="_top" xlink:title="Player">
<polygon fill="white" stroke="red" points="56,-1.57977 56,-20.5798 100,-20.5798 100,-1.57977 56,-1.57977"/>
<text text-anchor="middle" x="78" y="-8.57977" font-family="Helvetica,sans-Serif" font-size="10.00">Player</text>
</a>
</g>
</g>
<!-- Node8&#45;&gt;Node7 -->
<g id="edge11" class="edge"><title>Node8&#45;&gt;Node7</title>
<path fill="none" stroke="#9a32cd" stroke-dasharray="5,2" d="M110.171,-5.89366C145.468,-1.00817 204.505,4.16769 254,-6.07977 301.796,-15.9754 353.31,-42.8945 378.802,-57.4421"/>
<polygon fill="#9a32cd" stroke="#9a32cd" points="109.402,-2.46889 100.016,-7.38312 110.418,-9.39479 109.402,-2.46889"/>
<text text-anchor="middle" x="214" y="-9.07977" font-family="Helvetica,sans-Serif" font-size="10.00"> ptr</text>
</g>
<!-- Node11 -->
<g id="node11" class="node"><title>Node11</title>
<g id="a_node11"><a xlink:href="class_world.html" target="_top" xlink:title="World">
<polygon fill="white" stroke="black" points="272,-203.58 272,-222.58 314,-222.58 314,-203.58 272,-203.58"/>
<text text-anchor="middle" x="293" y="-210.58" font-family="Helvetica,sans-Serif" font-size="10.00">World</text>
</a>
</g>
</g>
<!-- Node8&#45;&gt;Node11 -->
<g id="edge28" class="edge"><title>Node8&#45;&gt;Node11</title>
<path fill="none" stroke="#9a32cd" stroke-dasharray="5,2" d="M110.09,-13.1038C154.746,-16.658 233.895,-25.5798 254,-45.0798 277.075,-67.4607 288.194,-170.745 291.164,-203.255"/>
<polygon fill="#9a32cd" stroke="#9a32cd" points="110.298,-9.60961 100.063,-12.3498 109.773,-16.5899 110.298,-9.60961"/>
<text text-anchor="middle" x="214" y="-48.0798" font-family="Helvetica,sans-Serif" font-size="10.00"> m_player</text>
</g>
<!-- Node9&#45;&gt;Node2 -->
<g id="edge12" class="edge"><title>Node9&#45;&gt;Node2</title>
<path fill="none" stroke="#9a32cd" stroke-dasharray="5,2" d="M1045.73,-241.512C1019.98,-239.125 990.138,-233.302 966,-220.08 946.858,-209.595 931.562,-188.416 923.728,-175.924"/>
<polygon fill="#9a32cd" stroke="#9a32cd" points="1045.51,-245.005 1055.75,-242.289 1046.05,-238.026 1045.51,-245.005"/>
<text text-anchor="middle" x="1002" y="-243.08" font-family="Helvetica,sans-Serif" font-size="10.00"> m_runningState</text>
</g>
<!-- Node10&#45;&gt;Node2 -->
<g id="edge15" class="edge"><title>Node10&#45;&gt;Node2</title>
<path fill="none" stroke="#9a32cd" stroke-dasharray="5,2" d="M1047.3,-145.503C1022.23,-144.944 992.486,-145.683 966,-150.08 958.028,-151.403 949.586,-153.842 942.043,-156.423"/>
<polygon fill="#9a32cd" stroke="#9a32cd" points="1047.27,-149.004 1057.37,-145.802 1047.48,-142.007 1047.27,-149.004"/>
<text text-anchor="middle" x="1002" y="-153.08" font-family="Helvetica,sans-Serif" font-size="10.00"> m_pausedState</text>
</g>
<!-- Node11&#45;&gt;Node1 -->
<g id="edge18" class="edge"><title>Node11&#45;&gt;Node1</title>
<path fill="none" stroke="#9a32cd" stroke-dasharray="5,2" d="M324.025,-206.723C363.968,-198.267 434.596,-183.314 478.147,-174.094"/>
<polygon fill="#9a32cd" stroke="#9a32cd" points="323.151,-203.331 314.093,-208.826 324.601,-210.179 323.151,-203.331"/>
<text text-anchor="middle" x="396" y="-207.08" font-family="Helvetica,sans-Serif" font-size="10.00"> m_world</text>
</g>
<!-- Node11&#45;&gt;Node11 -->
<g id="edge29" class="edge"><title>Node11&#45;&gt;Node11</title>
<path fill="none" stroke="#9a32cd" stroke-dasharray="5,2" d="M278.636,-232.846C279.764,-237.576 284.552,-241.08 293,-241.08 306.863,-241.08 310.871,-231.645 305.022,-222.837"/>
<polygon fill="#9a32cd" stroke="#9a32cd" points="282.107,-233.371 280.978,-222.837 275.292,-231.776 282.107,-233.371"/>
<text text-anchor="middle" x="293" y="-244.08" font-family="Helvetica,sans-Serif" font-size="10.00"> s_instance</text>
</g>
<!-- Node12 -->
<g id="node12" class="node"><title>Node12</title>
<polygon fill="white" stroke="#bfbfbf" points="6.5,-357.58 6.5,-376.58 149.5,-376.58 149.5,-357.58 6.5,-357.58"/>
<text text-anchor="middle" x="78" y="-364.58" font-family="Helvetica,sans-Serif" font-size="10.00">std::unique_ptr&lt; WorldTree &gt;</text>
</g>
<!-- Node12&#45;&gt;Node11 -->
<g id="edge19" class="edge"><title>Node12&#45;&gt;Node11</title>
<path fill="none" stroke="#9a32cd" stroke-dasharray="5,2" d="M159.561,-364.899C192.364,-360.11 228.482,-349.299 254,-326.08 284.771,-298.081 290.648,-244.388 291.753,-222.609"/>
<polygon fill="#9a32cd" stroke="#9a32cd" points="158.972,-361.446 149.503,-366.199 159.869,-368.388 158.972,-361.446"/>
<text text-anchor="middle" x="214" y="-364.08" font-family="Helvetica,sans-Serif" font-size="10.00"> m_worldTree</text>
</g>
<!-- Node13 -->
<g id="node13" class="node"><title>Node13</title>
<polygon fill="white" stroke="#bfbfbf" points="29,-308.08 29,-338.08 127,-338.08 127,-308.08 29,-308.08"/>
<text text-anchor="start" x="37" y="-326.08" font-family="Helvetica,sans-Serif" font-size="10.00">std::unordered_set</text>
<text text-anchor="middle" x="78" y="-315.08" font-family="Helvetica,sans-Serif" font-size="10.00">&lt; WorldObject * &gt;</text>
</g>
<!-- Node13&#45;&gt;Node11 -->
<g id="edge20" class="edge"><title>Node13&#45;&gt;Node11</title>
<path fill="none" stroke="#9a32cd" stroke-dasharray="5,2" d="M137.195,-319.459C173.823,-314.613 220.361,-303.479 254,-278.08 272.986,-263.744 284.183,-236.939 289.069,-222.64"/>
<polygon fill="#9a32cd" stroke="#9a32cd" points="136.657,-315.998 127.145,-320.666 137.491,-322.948 136.657,-315.998"/>
<text text-anchor="middle" x="214" y="-314.08" font-family="Helvetica,sans-Serif" font-size="10.00"> m_worldObjects</text>
</g>
<!-- Node14 -->
<g id="node14" class="node"><title>Node14</title>
<polygon fill="white" stroke="#bfbfbf" points="4,-269.58 4,-288.58 152,-288.58 152,-269.58 4,-269.58"/>
<text text-anchor="middle" x="78" y="-276.58" font-family="Helvetica,sans-Serif" font-size="10.00">std::unique_ptr&lt; WorldLogic &gt;</text>
</g>
<!-- Node14&#45;&gt;Node11 -->
<g id="edge21" class="edge"><title>Node14&#45;&gt;Node11</title>
<path fill="none" stroke="#9a32cd" stroke-dasharray="5,2" d="M157.641,-267.616C188.512,-261.458 223.727,-252.323 254,-239.08 263.521,-234.915 273.171,-228.275 280.364,-222.748"/>
<polygon fill="#9a32cd" stroke="#9a32cd" points="156.942,-264.186 147.783,-269.512 158.264,-271.06 156.942,-264.186"/>
<text text-anchor="middle" x="214" y="-266.08" font-family="Helvetica,sans-Serif" font-size="10.00"> m_worldLogic</text>
</g>
<!-- Node15 -->
<g id="node15" class="node"><title>Node15</title>
<polygon fill="white" stroke="#bfbfbf" points="29,-220.08 29,-250.08 127,-250.08 127,-220.08 29,-220.08"/>
<text text-anchor="start" x="37" y="-238.08" font-family="Helvetica,sans-Serif" font-size="10.00">std::unordered_set</text>
<text text-anchor="middle" x="78" y="-227.08" font-family="Helvetica,sans-Serif" font-size="10.00">&lt; Ship * &gt;</text>
</g>
<!-- Node15&#45;&gt;Node11 -->
<g id="edge22" class="edge"><title>Node15&#45;&gt;Node11</title>
<path fill="none" stroke="#9a32cd" stroke-dasharray="5,2" d="M137.267,-229.062C182.131,-224.428 241.473,-218.299 271.987,-215.147"/>
<polygon fill="#9a32cd" stroke="#9a32cd" points="136.654,-225.606 127.067,-230.115 137.374,-232.569 136.654,-225.606"/>
<text text-anchor="middle" x="214" y="-227.08" font-family="Helvetica,sans-Serif" font-size="10.00"> m_ships</text>
</g>
<!-- Node16 -->
<g id="node16" class="node"><title>Node16</title>
<polygon fill="white" stroke="#bfbfbf" points="12,-181.58 12,-200.58 144,-200.58 144,-181.58 12,-181.58"/>
<text text-anchor="middle" x="78" y="-188.58" font-family="Helvetica,sans-Serif" font-size="10.00">std::unique_ptr&lt; Skybox &gt;</text>
</g>
<!-- Node16&#45;&gt;Node11 -->
<g id="edge23" class="edge"><title>Node16&#45;&gt;Node11</title>
<path fill="none" stroke="#9a32cd" stroke-dasharray="5,2" d="M154.525,-192.215C185.528,-193.615 221.666,-196.454 254,-202.08 259.819,-203.092 266.017,-204.666 271.682,-206.309"/>
<polygon fill="#9a32cd" stroke="#9a32cd" points="154.356,-188.705 144.221,-191.793 154.069,-195.699 154.356,-188.705"/>
<text text-anchor="middle" x="214" y="-205.08" font-family="Helvetica,sans-Serif" font-size="10.00"> m_skybox</text>
</g>
<!-- Node17 -->
<g id="node17" class="node"><title>Node17</title>
<polygon fill="white" stroke="#bfbfbf" points="4,-132.08 4,-162.08 152,-162.08 152,-132.08 4,-132.08"/>
<text text-anchor="start" x="12" y="-150.08" font-family="Helvetica,sans-Serif" font-size="10.00">std::unique_ptr&lt; VoxelParticle</text>
<text text-anchor="middle" x="78" y="-139.08" font-family="Helvetica,sans-Serif" font-size="10.00">Engine &gt;</text>
</g>
<!-- Node17&#45;&gt;Node11 -->
<g id="edge24" class="edge"><title>Node17&#45;&gt;Node11</title>
<path fill="none" stroke="#9a32cd" stroke-dasharray="5,2" d="M162.2,-152.078C192.304,-156.359 225.805,-164.117 254,-178.08 266.217,-184.13 277.323,-195.334 284.33,-203.44"/>
<polygon fill="#9a32cd" stroke="#9a32cd" points="162.503,-148.588 152.133,-150.756 161.592,-155.528 162.503,-148.588"/>
<text text-anchor="middle" x="214" y="-181.08" font-family="Helvetica,sans-Serif" font-size="10.00"> m_particleEngine</text>
</g>
<!-- Node18 -->
<g id="node18" class="node"><title>Node18</title>
<polygon fill="white" stroke="#bfbfbf" points="0.5,-93.5798 0.5,-112.58 155.5,-112.58 155.5,-93.5798 0.5,-93.5798"/>
<text text-anchor="middle" x="78" y="-100.58" font-family="Helvetica,sans-Serif" font-size="10.00">std::unique_ptr&lt; ScriptEngine &gt;</text>
</g>
<!-- Node18&#45;&gt;Node11 -->
<g id="edge25" class="edge"><title>Node18&#45;&gt;Node11</title>
<path fill="none" stroke="#9a32cd" stroke-dasharray="5,2" d="M165.837,-106.407C196.179,-111.247 228.895,-121.01 254,-140.08 275.276,-156.241 285.746,-187.743 289.843,-203.551"/>
<polygon fill="#9a32cd" stroke="#9a32cd" points="166.048,-102.902 155.653,-104.948 165.056,-109.831 166.048,-102.902"/>
<text text-anchor="middle" x="214" y="-143.08" font-family="Helvetica,sans-Serif" font-size="10.00"> m_scriptEngine</text>
</g>
<!-- Node19 -->
<g id="node19" class="node"><title>Node19</title>
<polygon fill="white" stroke="#bfbfbf" points="17,-44.0798 17,-74.0798 139,-74.0798 139,-44.0798 17,-44.0798"/>
<text text-anchor="start" x="25" y="-62.0798" font-family="Helvetica,sans-Serif" font-size="10.00">std::unique_ptr&lt; Faction</text>
<text text-anchor="middle" x="78" y="-51.0798" font-family="Helvetica,sans-Serif" font-size="10.00">Matrix &gt;</text>
</g>
<!-- Node19&#45;&gt;Node11 -->
<g id="edge26" class="edge"><title>Node19&#45;&gt;Node11</title>
<path fill="none" stroke="#9a32cd" stroke-dasharray="5,2" d="M149.513,-56.6254C184.773,-59.0617 225.822,-67.9636 254,-93.0798 287.116,-122.597 291.606,-180.758 292.046,-203.575"/>
<polygon fill="#9a32cd" stroke="#9a32cd" points="149.429,-53.1162 139.258,-56.0835 149.06,-60.1064 149.429,-53.1162"/>
<text text-anchor="middle" x="214" y="-96.0798" font-family="Helvetica,sans-Serif" font-size="10.00"> m_factionMatrix</text>
</g>
<!-- Node20 -->
<g id="node20" class="node"><title>Node20</title>
<polygon fill="white" stroke="#bfbfbf" points="19.5,-433.58 19.5,-452.58 136.5,-452.58 136.5,-433.58 19.5,-433.58"/>
<text text-anchor="middle" x="78" y="-440.58" font-family="Helvetica,sans-Serif" font-size="10.00">std::unique_ptr&lt; God &gt;</text>
</g>
<!-- Node20&#45;&gt;Node11 -->
<g id="edge27" class="edge"><title>Node20&#45;&gt;Node11</title>
<path fill="none" stroke="#9a32cd" stroke-dasharray="5,2" d="M146.744,-452.329C183.043,-453.349 225.938,-447.622 254,-421.08 283.336,-393.332 290.315,-259.663 291.697,-222.617"/>
<polygon fill="#9a32cd" stroke="#9a32cd" points="146.847,-448.83 136.699,-451.874 146.531,-455.823 146.847,-448.83"/>
<text text-anchor="middle" x="214" y="-454.08" font-family="Helvetica,sans-Serif" font-size="10.00"> m_god</text>
</g>
<!-- Node21 -->
<g id="node21" class="node"><title>Node21</title>
<polygon fill="white" stroke="#bfbfbf" points="4,-395.58 4,-414.58 152,-414.58 152,-395.58 4,-395.58"/>
<text text-anchor="middle" x="78" y="-402.58" font-family="Helvetica,sans-Serif" font-size="10.00">std::unique_ptr&lt; EventPoller &gt;</text>
</g>
<!-- Node21&#45;&gt;Node11 -->
<g id="edge30" class="edge"><title>Node21&#45;&gt;Node11</title>
<path fill="none" stroke="#9a32cd" stroke-dasharray="5,2" d="M162.66,-410.002C194.904,-407.511 229.77,-398.788 254,-376.08 276.792,-354.719 288.103,-254.268 291.142,-222.64"/>
<polygon fill="#9a32cd" stroke="#9a32cd" points="162.081,-406.53 152.3,-410.602 162.486,-413.518 162.081,-406.53"/>
<text text-anchor="middle" x="214" y="-411.08" font-family="Helvetica,sans-Serif" font-size="10.00"> m_eventPoller</text>
</g>
</g>
</svg>
