<?xml version="1.0" encoding="UTF-8" standalone="no"?>
<!DOCTYPE svg PUBLIC "-//W3C//DTD SVG 1.1//EN"
 "http://www.w3.org/Graphics/SVG/1.1/DTD/svg11.dtd">
<!-- Generated by graphviz version 2.36.0 (20140111.2315)
 -->
<!-- Title: HUD Pages: 1 -->
<!--zoomable 681 -->
<svg id="main" version="1.1" xmlns="http://www.w3.org/2000/svg" xmlns:xlink="http://www.w3.org/1999/xlink" xml:space="preserve" onload="init(evt)">
<style type="text/css"><![CDATA[
.edge:hover path { stroke: red; }
.edge:hover polygon { stroke: red; fill: red; }
]]></style>
<script type="text/javascript"><![CDATA[
var edges = document.getElementsByTagName('g');
if (edges && edges.length) {
  for (var i=0;i<edges.length;i++) {
    if (edges[i].id.substr(0,4)=='edge') {
      edges[i].setAttribute('class','edge');
    }
  }
}
]]></script>
        <defs>
                <circle id="rim" cx="0" cy="0" r="7"/>
                <circle id="rim2" cx="0" cy="0" r="3.5"/>
                <g id="zoomPlus">
                        <use xlink:href="#rim" fill="#404040">
                                <set attributeName="fill" to="#808080" begin="zoomplus.mouseover" end="zoomplus.mouseout"/>
                        </use>
                        <path d="M-4,0h8M0,-4v8" fill="none" stroke="white" stroke-width="1.5" pointer-events="none"/>
                </g>
                <g id="zoomMin">
                        <use xlink:href="#rim" fill="#404040">
                                <set attributeName="fill" to="#808080" begin="zoomminus.mouseover" end="zoomminus.mouseout"/>
                        </use>
                        <path d="M-4,0h8" fill="none" stroke="white" stroke-width="1.5" pointer-events="none"/>
                </g>
                <g id="dirArrow">
                        <path fill="none" stroke="white" stroke-width="1.5" d="M0,-3.0v7 M-2.5,-0.5L0,-3.0L2.5,-0.5"/>
                </g>
               <g id="resetDef">
                       <use xlink:href="#rim2" fill="#404040">
                               <set attributeName="fill" to="#808080" begin="reset.mouseover" end="reset.mouseout"/>
                       </use>
               </g>
        </defs>

<script type="text/javascript">
var viewWidth = 1258;
var viewHeight = 681;
var sectionId = 'dynsection-0';
</script>
<script xlink:href="svgpan.js"/>
<svg id="graph" class="graph">
<g id="viewport">
<title>HUD</title>
<polygon fill="white" stroke="none" points="-4,4 -4,-676.971 1254,-676.971 1254,4 -4,4"/>
<!-- Node1 -->
<g id="node1" class="node"><title>Node1</title>
<polygon fill="#bfbfbf" stroke="black" points="464.5,-382.471 464.5,-401.471 501.5,-401.471 501.5,-382.471 464.5,-382.471"/>
<text text-anchor="middle" x="483" y="-389.471" font-family="Helvetica,sans-Serif" font-size="10.00">HUD</text>
</g>
<!-- Node3 -->
<g id="node3" class="node"><title>Node3</title>
<g id="a_node3"><a xlink:href="class_hudget.html" target="_top" xlink:title="Hudget">
<polygon fill="white" stroke="black" points="659.5,-402.471 659.5,-421.471 706.5,-421.471 706.5,-402.471 659.5,-402.471"/>
<text text-anchor="middle" x="683" y="-409.471" font-family="Helvetica,sans-Serif" font-size="10.00">Hudget</text>
</a>
</g>
</g>
<!-- Node1&#45;&gt;Node3 -->
<g id="edge3" class="edge"><title>Node1&#45;&gt;Node3</title>
<path fill="none" stroke="#9a32cd" stroke-dasharray="5,2" d="M511.554,-394.755C551.007,-398.74 622.852,-405.997 659.377,-409.686"/>
<polygon fill="#9a32cd" stroke="#9a32cd" points="511.872,-391.269 501.571,-393.746 511.169,-398.234 511.872,-391.269"/>
<text text-anchor="middle" x="567" y="-404.971" font-family="Helvetica,sans-Serif" font-size="10.00"> m_hud</text>
</g>
<!-- Node16 -->
<g id="node16" class="node"><title>Node16</title>
<g id="a_node16"><a xlink:href="class_h_u_d_elements.html" target="_top" xlink:title="HUDElements">
<polygon fill="white" stroke="red" points="644,-364.471 644,-383.471 722,-383.471 722,-364.471 644,-364.471"/>
<text text-anchor="middle" x="683" y="-371.471" font-family="Helvetica,sans-Serif" font-size="10.00">HUDElements</text>
</a>
</g>
</g>
<!-- Node1&#45;&gt;Node16 -->
<g id="edge19" class="edge"><title>Node1&#45;&gt;Node16</title>
<path fill="none" stroke="#9a32cd" stroke-dasharray="5,2" d="M511.239,-385.05C523.07,-382.341 537.138,-379.518 550,-377.971 581.413,-374.195 617.317,-373.327 643.741,-373.33"/>
<polygon fill="#9a32cd" stroke="#9a32cd" points="510.424,-381.646 501.505,-387.365 512.044,-388.456 510.424,-381.646"/>
<text text-anchor="middle" x="567" y="-380.971" font-family="Helvetica,sans-Serif" font-size="10.00"> m_hud</text>
</g>
<!-- Node19 -->
<g id="node19" class="node"><title>Node19</title>
<g id="a_node19"><a xlink:href="class_h_u_d_object_delegate.html" target="_top" xlink:title="HUDObjectDelegate">
<polygon fill="white" stroke="red" points="631,-584.471 631,-603.471 735,-603.471 735,-584.471 631,-584.471"/>
<text text-anchor="middle" x="683" y="-591.471" font-family="Helvetica,sans-Serif" font-size="10.00">HUDObjectDelegate</text>
</a>
</g>
</g>
<!-- Node1&#45;&gt;Node19 -->
<g id="edge24" class="edge"><title>Node1&#45;&gt;Node19</title>
<path fill="none" stroke="#9a32cd" stroke-dasharray="5,2" d="M485.524,-411.99C489.426,-448.48 503.075,-525.749 550,-565.971 572.144,-584.953 603.97,-592.094 630.823,-594.422"/>
<polygon fill="#9a32cd" stroke="#9a32cd" points="488.976,-411.31 484.57,-401.674 482.006,-411.954 488.976,-411.31"/>
<text text-anchor="middle" x="567" y="-586.971" font-family="Helvetica,sans-Serif" font-size="10.00"> m_hud</text>
</g>
<!-- Node22 -->
<g id="node22" class="node"><title>Node22</title>
<polygon fill="white" stroke="#bfbfbf" points="623.5,-165.471 623.5,-184.471 742.5,-184.471 742.5,-165.471 623.5,-165.471"/>
<text text-anchor="middle" x="683" y="-172.471" font-family="Helvetica,sans-Serif" font-size="10.00">std::unique_ptr&lt; HUD &gt;</text>
</g>
<!-- Node1&#45;&gt;Node22 -->
<g id="edge29" class="edge"><title>Node1&#45;&gt;Node22</title>
<path fill="none" stroke="#9a32cd" stroke-dasharray="5,2" d="M489.799,-372.668C502.852,-332.673 538.471,-240.61 602,-193.971 608.329,-189.325 615.631,-185.798 623.196,-183.124"/>
<polygon fill="#9a32cd" stroke="#9a32cd" points="486.438,-371.69 486.774,-382.28 493.115,-373.792 486.438,-371.69"/>
<text text-anchor="middle" x="567" y="-250.971" font-family="Helvetica,sans-Serif" font-size="10.00"> ptr</text>
</g>
<!-- Node2 -->
<g id="node2" class="node"><title>Node2</title>
<g id="a_node2"><a xlink:href="class_cross_hair.html" target="_top" xlink:title="CrossHair">
<polygon fill="white" stroke="black" points="929.5,-448.471 929.5,-467.471 988.5,-467.471 988.5,-448.471 929.5,-448.471"/>
<text text-anchor="middle" x="959" y="-455.471" font-family="Helvetica,sans-Serif" font-size="10.00">CrossHair</text>
</a>
</g>
</g>
<!-- Node2&#45;&gt;Node1 -->
<g id="edge1" class="edge"><title>Node2&#45;&gt;Node1</title>
<path fill="none" stroke="#9a32cd" stroke-dasharray="5,2" d="M918.844,-457.392C852.974,-455.886 716.013,-450.466 602,-430.971 565.207,-424.681 524.254,-409.082 501.566,-399.628"/>
<polygon fill="#9a32cd" stroke="#9a32cd" points="919.096,-460.898 929.167,-457.609 919.243,-453.9 919.096,-460.898"/>
<text text-anchor="middle" x="683" y="-452.971" font-family="Helvetica,sans-Serif" font-size="10.00"> m_crossHair</text>
</g>
<!-- Node3&#45;&gt;Node2 -->
<g id="edge2" class="edge"><title>Node3&#45;&gt;Node2</title>
<path fill="none" stroke="midnightblue" d="M716.99,-417.51C771.167,-426.605 878.075,-444.553 929.307,-453.154"/>
<polygon fill="midnightblue" stroke="midnightblue" points="717.331,-414.018 706.89,-415.814 716.172,-420.922 717.331,-414.018"/>
</g>
<!-- Node9 -->
<g id="node9" class="node"><title>Node9</title>
<g id="a_node9"><a xlink:href="class_circular_hudget.html" target="_top" xlink:title="CircularHudget">
<polygon fill="white" stroke="black" points="919,-404.471 919,-423.471 999,-423.471 999,-404.471 919,-404.471"/>
<text text-anchor="middle" x="959" y="-411.471" font-family="Helvetica,sans-Serif" font-size="10.00">CircularHudget</text>
</a>
</g>
</g>
<!-- Node3&#45;&gt;Node9 -->
<g id="edge10" class="edge"><title>Node3&#45;&gt;Node9</title>
<path fill="none" stroke="midnightblue" d="M716.983,-412.212C767.724,-412.583 864.73,-413.291 918.92,-413.686"/>
<polygon fill="midnightblue" stroke="midnightblue" points="716.915,-408.712 706.89,-412.139 716.864,-415.712 716.915,-408.712"/>
</g>
<!-- Node4 -->
<g id="node4" class="node"><title>Node4</title>
<polygon fill="white" stroke="#bfbfbf" points="616.5,-487.971 616.5,-517.971 749.5,-517.971 749.5,-487.971 616.5,-487.971"/>
<text text-anchor="start" x="624.5" y="-505.971" font-family="Helvetica,sans-Serif" font-size="10.00">std::unique_ptr&lt; CrossHair</text>
<text text-anchor="middle" x="683" y="-494.971" font-family="Helvetica,sans-Serif" font-size="10.00">Voxels &gt;</text>
</g>
<!-- Node4&#45;&gt;Node2 -->
<g id="edge4" class="edge"><title>Node4&#45;&gt;Node2</title>
<path fill="none" stroke="#9a32cd" stroke-dasharray="5,2" d="M759.552,-490.563C815.741,-481.335 889.326,-469.25 929.232,-462.696"/>
<polygon fill="#9a32cd" stroke="#9a32cd" points="758.93,-487.118 749.63,-492.193 760.065,-494.026 758.93,-487.118"/>
<text text-anchor="middle" x="821" y="-488.971" font-family="Helvetica,sans-Serif" font-size="10.00"> m_voxels</text>
</g>
<!-- Node5 -->
<g id="node5" class="node"><title>Node5</title>
<g id="a_node5"><a xlink:href="class_handle.html" target="_top" xlink:title="Handle\&lt; WorldObject \&gt;">
<polygon fill="white" stroke="black" points="215.5,-604.471 215.5,-623.471 334.5,-623.471 334.5,-604.471 215.5,-604.471"/>
<text text-anchor="middle" x="275" y="-611.471" font-family="Helvetica,sans-Serif" font-size="10.00">Handle&lt; WorldObject &gt;</text>
</a>
</g>
</g>
<!-- Node5&#45;&gt;Node1 -->
<g id="edge5" class="edge"><title>Node5&#45;&gt;Node1</title>
<path fill="none" stroke="#9a32cd" stroke-dasharray="5,2" d="M291.655,-597.1C332.513,-553.069 441.408,-435.716 473.181,-401.475"/>
<polygon fill="#9a32cd" stroke="#9a32cd" points="289.088,-594.721 284.852,-604.432 294.219,-599.483 289.088,-594.721"/>
<text text-anchor="middle" x="388" y="-525.971" font-family="Helvetica,sans-Serif" font-size="10.00"> m_target</text>
</g>
<!-- Node12 -->
<g id="node12" class="node"><title>Node12</title>
<g id="a_node12"><a xlink:href="class_world_object.html" target="_top" xlink:title="WorldObject">
<polygon fill="white" stroke="red" points="647.5,-651.471 647.5,-670.471 718.5,-670.471 718.5,-651.471 647.5,-651.471"/>
<text text-anchor="middle" x="683" y="-658.471" font-family="Helvetica,sans-Serif" font-size="10.00">WorldObject</text>
</a>
</g>
</g>
<!-- Node5&#45;&gt;Node12 -->
<g id="edge14" class="edge"><title>Node5&#45;&gt;Node12</title>
<path fill="none" stroke="#9a32cd" stroke-dasharray="5,2" d="M344.715,-621.926C432.321,-632.068 580.436,-649.214 647.35,-656.96"/>
<polygon fill="#9a32cd" stroke="#9a32cd" points="344.938,-618.429 334.602,-620.755 344.133,-625.382 344.938,-618.429"/>
<text text-anchor="middle" x="483" y="-645.971" font-family="Helvetica,sans-Serif" font-size="10.00"> m_handle</text>
</g>
<!-- Node5&#45;&gt;Node19 -->
<g id="edge23" class="edge"><title>Node5&#45;&gt;Node19</title>
<path fill="none" stroke="#9a32cd" stroke-dasharray="5,2" d="M344.88,-610.663C407.302,-607.653 501.821,-603.069 584,-598.971 599.228,-598.212 615.787,-597.373 630.884,-596.602"/>
<polygon fill="#9a32cd" stroke="#9a32cd" points="344.581,-607.173 334.761,-611.15 344.918,-614.165 344.581,-607.173"/>
<text text-anchor="middle" x="483" y="-609.971" font-family="Helvetica,sans-Serif" font-size="10.00"> m_worldObjectHandle</text>
</g>
<!-- Node6 -->
<g id="node6" class="node"><title>Node6</title>
<polygon fill="white" stroke="#bfbfbf" points="208,-440.971 208,-470.971 342,-470.971 342,-440.971 208,-440.971"/>
<text text-anchor="start" x="216" y="-458.971" font-family="Helvetica,sans-Serif" font-size="10.00">std::unique_ptr&lt; WorldTree</text>
<text text-anchor="middle" x="275" y="-447.971" font-family="Helvetica,sans-Serif" font-size="10.00">Scanner &gt;</text>
</g>
<!-- Node6&#45;&gt;Node1 -->
<g id="edge6" class="edge"><title>Node6&#45;&gt;Node1</title>
<path fill="none" stroke="#9a32cd" stroke-dasharray="5,2" d="M349.686,-438.415C371.231,-432.767 394.709,-426.106 416,-418.971 432.669,-413.386 451.152,-405.689 464.309,-399.942"/>
<polygon fill="#9a32cd" stroke="#9a32cd" points="348.742,-435.044 339.937,-440.937 350.495,-441.821 348.742,-435.044"/>
<text text-anchor="middle" x="388" y="-437.971" font-family="Helvetica,sans-Serif" font-size="10.00"> m_scanner</text>
</g>
<!-- Node7 -->
<g id="node7" class="node"><title>Node7</title>
<g id="a_node7"><a xlink:href="class_world_tree_scanner.html" target="_top" xlink:title="WorldTreeScanner">
<polygon fill="white" stroke="red" points="11.5,-446.471 11.5,-465.471 108.5,-465.471 108.5,-446.471 11.5,-446.471"/>
<text text-anchor="middle" x="60" y="-453.471" font-family="Helvetica,sans-Serif" font-size="10.00">WorldTreeScanner</text>
</a>
</g>
</g>
<!-- Node7&#45;&gt;Node6 -->
<g id="edge7" class="edge"><title>Node7&#45;&gt;Node6</title>
<path fill="none" stroke="#9a32cd" stroke-dasharray="5,2" d="M118.764,-455.971C146.209,-455.971 179.159,-455.971 207.629,-455.971"/>
<polygon fill="#9a32cd" stroke="#9a32cd" points="118.536,-452.472 108.536,-455.971 118.536,-459.472 118.536,-452.472"/>
<text text-anchor="middle" x="164" y="-458.971" font-family="Helvetica,sans-Serif" font-size="10.00"> ptr</text>
</g>
<!-- Node8 -->
<g id="node8" class="node"><title>Node8</title>
<g id="a_node8"><a xlink:href="class_aim_helper_hudget.html" target="_top" xlink:title="AimHelperHudget">
<polygon fill="white" stroke="black" points="1158,-570.471 1158,-589.471 1250,-589.471 1250,-570.471 1158,-570.471"/>
<text text-anchor="middle" x="1204" y="-577.471" font-family="Helvetica,sans-Serif" font-size="10.00">AimHelperHudget</text>
</a>
</g>
</g>
<!-- Node8&#45;&gt;Node1 -->
<g id="edge8" class="edge"><title>Node8&#45;&gt;Node1</title>
<path fill="none" stroke="#9a32cd" stroke-dasharray="5,2" d="M1199.86,-560.215C1188.73,-495.639 1146.03,-287.418 1040,-155.971 979.943,-81.5166 950.917,-67.7127 860,-37.9714 750.996,-2.31338 702.192,22.8409 602,-32.9714 536.232,-69.6079 493.549,-329.079 485.417,-382.405"/>
<polygon fill="#9a32cd" stroke="#9a32cd" points="1196.43,-560.956 1201.53,-570.245 1203.34,-559.806 1196.43,-560.956"/>
<text text-anchor="middle" x="821" y="-40.9714" font-family="Helvetica,sans-Serif" font-size="10.00"> m_aimHelper</text>
</g>
<!-- Node9&#45;&gt;Node8 -->
<g id="edge9" class="edge"><title>Node9&#45;&gt;Node8</title>
<path fill="none" stroke="midnightblue" d="M1008.79,-425.719C1019.42,-429.226 1030.36,-433.606 1040,-438.971 1107.34,-476.467 1171.85,-544.919 1194.48,-570.227"/>
<polygon fill="midnightblue" stroke="midnightblue" points="1009.75,-422.352 999.159,-422.74 1007.68,-429.039 1009.75,-422.352"/>
</g>
<!-- Node10 -->
<g id="node10" class="node"><title>Node10</title>
<polygon fill="white" stroke="#bfbfbf" points="891.5,-608.971 891.5,-638.971 1026.5,-638.971 1026.5,-608.971 891.5,-608.971"/>
<text text-anchor="start" x="899.5" y="-626.971" font-family="Helvetica,sans-Serif" font-size="10.00">std::unique_ptr&lt; AimHelper</text>
<text text-anchor="middle" x="959" y="-615.971" font-family="Helvetica,sans-Serif" font-size="10.00">HudgetVoxels &gt;</text>
</g>
<!-- Node10&#45;&gt;Node8 -->
<g id="edge11" class="edge"><title>Node10&#45;&gt;Node8</title>
<path fill="none" stroke="#9a32cd" stroke-dasharray="5,2" d="M1037.06,-612.84C1069.01,-607.892 1106.39,-601.671 1140,-594.971 1148.05,-593.367 1156.63,-591.458 1164.79,-589.548"/>
<polygon fill="#9a32cd" stroke="#9a32cd" points="1036.24,-609.424 1026.89,-614.4 1037.3,-616.343 1036.24,-609.424"/>
<text text-anchor="middle" x="1099" y="-612.971" font-family="Helvetica,sans-Serif" font-size="10.00"> m_voxels</text>
</g>
<!-- Node11 -->
<g id="node11" class="node"><title>Node11</title>
<g id="a_node11"><a xlink:href="class_range.html" target="_top" xlink:title="Range">
<polygon fill="white" stroke="black" points="937,-570.471 937,-589.471 981,-589.471 981,-570.471 937,-570.471"/>
<text text-anchor="middle" x="959" y="-577.471" font-family="Helvetica,sans-Serif" font-size="10.00">Range</text>
</a>
</g>
</g>
<!-- Node11&#45;&gt;Node8 -->
<g id="edge12" class="edge"><title>Node11&#45;&gt;Node8</title>
<path fill="none" stroke="#9a32cd" stroke-dasharray="5,2" d="M991.378,-579.971C1033.62,-579.971 1109.07,-579.971 1157.54,-579.971"/>
<polygon fill="#9a32cd" stroke="#9a32cd" points="991.14,-576.472 981.14,-579.971 991.14,-583.472 991.14,-576.472"/>
<text text-anchor="middle" x="1099" y="-582.971" font-family="Helvetica,sans-Serif" font-size="10.00"> m_distanceRange</text>
</g>
<!-- Node12&#45;&gt;Node8 -->
<g id="edge13" class="edge"><title>Node12&#45;&gt;Node8</title>
<path fill="none" stroke="#9a32cd" stroke-dasharray="5,2" d="M728.875,-662.237C796.631,-663.494 928.938,-663.398 1040,-647.971 1085.17,-641.697 1098.42,-643.699 1140,-624.971 1160.1,-615.919 1180.3,-599.997 1192.23,-589.722"/>
<polygon fill="#9a32cd" stroke="#9a32cd" points="728.638,-658.732 718.568,-662.026 728.495,-665.73 728.638,-658.732"/>
<text text-anchor="middle" x="959" y="-664.971" font-family="Helvetica,sans-Serif" font-size="10.00"> m_lastTargetWorldObject</text>
</g>
<!-- Node18 -->
<g id="node18" class="node"><title>Node18</title>
<polygon fill="white" stroke="#bfbfbf" points="893,-520.971 893,-550.971 1025,-550.971 1025,-520.971 893,-520.971"/>
<text text-anchor="start" x="901" y="-538.971" font-family="Helvetica,sans-Serif" font-size="10.00">std::map&lt; WorldObject</text>
<text text-anchor="middle" x="959" y="-527.971" font-family="Helvetica,sans-Serif" font-size="10.00"> *, HUDObjectDelegate * &gt;</text>
</g>
<!-- Node12&#45;&gt;Node18 -->
<g id="edge25" class="edge"><title>Node12&#45;&gt;Node18</title>
<path fill="none" stroke="#9a32cd" stroke-dasharray="5,2" d="M728.508,-655.466C767.406,-648.549 823.257,-633.253 860,-599.971 874.149,-587.155 863.656,-573.569 878,-560.971 882.483,-557.035 887.582,-553.718 892.984,-550.923"/>
<polygon fill="#9a32cd" stroke="#9a32cd" points="727.804,-652.035 718.512,-657.126 728.951,-658.94 727.804,-652.035"/>
<text text-anchor="middle" x="821" y="-644.971" font-family="Helvetica,sans-Serif" font-size="10.00"> keys</text>
</g>
<!-- Node13 -->
<g id="node13" class="node"><title>Node13</title>
<g id="a_node13"><a xlink:href="class_property.html" target="_top" xlink:title="Property\&lt; bool \&gt;">
<polygon fill="white" stroke="black" points="230.5,-402.471 230.5,-421.471 319.5,-421.471 319.5,-402.471 230.5,-402.471"/>
<text text-anchor="middle" x="275" y="-409.471" font-family="Helvetica,sans-Serif" font-size="10.00">Property&lt; bool &gt;</text>
</a>
</g>
</g>
<!-- Node13&#45;&gt;Node1 -->
<g id="edge15" class="edge"><title>Node13&#45;&gt;Node1</title>
<path fill="none" stroke="#9a32cd" stroke-dasharray="5,2" d="M329.779,-406.75C374.311,-402.427 434.892,-396.545 464.398,-393.68"/>
<polygon fill="#9a32cd" stroke="#9a32cd" points="329.302,-403.28 319.687,-407.73 329.979,-410.247 329.302,-403.28"/>
<text text-anchor="middle" x="388" y="-406.971" font-family="Helvetica,sans-Serif" font-size="10.00"> m_drawHud</text>
</g>
<!-- Node14 -->
<g id="node14" class="node"><title>Node14</title>
<g id="a_node14"><a xlink:href="class_property_impl.html" target="_top" xlink:title="PropertyImpl\&lt; bool \&gt;">
<polygon fill="white" stroke="red" points="6.5,-402.471 6.5,-421.471 113.5,-421.471 113.5,-402.471 6.5,-402.471"/>
<text text-anchor="middle" x="60" y="-409.471" font-family="Helvetica,sans-Serif" font-size="10.00">PropertyImpl&lt; bool &gt;</text>
</a>
</g>
</g>
<!-- Node14&#45;&gt;Node13 -->
<g id="edge16" class="edge"><title>Node14&#45;&gt;Node13</title>
<path fill="none" stroke="#9a32cd" stroke-dasharray="5,2" d="M124.006,-411.971C158.179,-411.971 199.567,-411.971 230.203,-411.971"/>
<polygon fill="#9a32cd" stroke="#9a32cd" points="123.652,-408.472 113.652,-411.971 123.652,-415.472 123.652,-408.472"/>
<text text-anchor="middle" x="164" y="-414.971" font-family="Helvetica,sans-Serif" font-size="10.00"> m_impl</text>
</g>
<!-- Node15 -->
<g id="node15" class="node"><title>Node15</title>
<polygon fill="white" stroke="#bfbfbf" points="878.5,-343.471 878.5,-362.471 1039.5,-362.471 1039.5,-343.471 878.5,-343.471"/>
<text text-anchor="middle" x="959" y="-350.471" font-family="Helvetica,sans-Serif" font-size="10.00">std::unique_ptr&lt; HUDElements &gt;</text>
</g>
<!-- Node15&#45;&gt;Node1 -->
<g id="edge17" class="edge"><title>Node15&#45;&gt;Node1</title>
<path fill="none" stroke="#9a32cd" stroke-dasharray="5,2" d="M886.93,-342.188C814.523,-333.292 699.356,-324.928 602,-343.971 564.451,-351.316 523.763,-370.655 501.327,-382.423"/>
<polygon fill="#9a32cd" stroke="#9a32cd" points="886.496,-345.661 896.856,-343.444 887.375,-338.716 886.496,-345.661"/>
<text text-anchor="middle" x="683" y="-346.971" font-family="Helvetica,sans-Serif" font-size="10.00"> m_elements</text>
</g>
<!-- Node16&#45;&gt;Node15 -->
<g id="edge18" class="edge"><title>Node16&#45;&gt;Node15</title>
<path fill="none" stroke="#9a32cd" stroke-dasharray="5,2" d="M732.209,-370.277C772.572,-367.183 830.998,-362.705 878.305,-359.079"/>
<polygon fill="#9a32cd" stroke="#9a32cd" points="731.802,-366.797 722.099,-371.051 732.337,-373.777 731.802,-366.797"/>
<text text-anchor="middle" x="821" y="-368.971" font-family="Helvetica,sans-Serif" font-size="10.00"> ptr</text>
</g>
<!-- Node17 -->
<g id="node17" class="node"><title>Node17</title>
<g id="a_node17"><a xlink:href="class_sphere.html" target="_top" xlink:title="Sphere">
<polygon fill="white" stroke="red" points="251.5,-364.471 251.5,-383.471 298.5,-383.471 298.5,-364.471 251.5,-364.471"/>
<text text-anchor="middle" x="275" y="-371.471" font-family="Helvetica,sans-Serif" font-size="10.00">Sphere</text>
</a>
</g>
</g>
<!-- Node17&#45;&gt;Node1 -->
<g id="edge20" class="edge"><title>Node17&#45;&gt;Node1</title>
<path fill="none" stroke="#9a32cd" stroke-dasharray="5,2" d="M309.094,-372.806C337.548,-372.25 379.627,-372.495 416,-376.971 432.561,-379.01 451.056,-383.402 464.245,-386.909"/>
<polygon fill="#9a32cd" stroke="#9a32cd" points="308.809,-369.311 298.896,-373.051 308.977,-376.309 308.809,-369.311"/>
<text text-anchor="middle" x="388" y="-379.971" font-family="Helvetica,sans-Serif" font-size="10.00"> m_sphere</text>
</g>
<!-- Node18&#45;&gt;Node1 -->
<g id="edge21" class="edge"><title>Node18&#45;&gt;Node1</title>
<path fill="none" stroke="#9a32cd" stroke-dasharray="5,2" d="M882.43,-550.962C807.49,-562.056 691.265,-568.874 602,-526.971 543.389,-499.458 502.122,-427.533 488.708,-401.528"/>
<polygon fill="#9a32cd" stroke="#9a32cd" points="883.375,-554.358 892.723,-549.373 882.306,-547.44 883.375,-554.358"/>
<text text-anchor="middle" x="683" y="-562.971" font-family="Helvetica,sans-Serif" font-size="10.00"> m_objectDelegates</text>
</g>
<!-- Node19&#45;&gt;Node18 -->
<g id="edge22" class="edge"><title>Node19&#45;&gt;Node18</title>
<path fill="none" stroke="#9a32cd" stroke-dasharray="5,2" d="M745.543,-589.441C779.737,-585.881 822.768,-579.664 860,-568.971 868.414,-566.555 869.808,-564.06 878,-560.971 887.122,-557.532 896.95,-554.18 906.488,-551.106"/>
<polygon fill="#9a32cd" stroke="#9a32cd" points="744.838,-585.994 735.231,-590.463 745.528,-592.96 744.838,-585.994"/>
<text text-anchor="middle" x="821" y="-587.971" font-family="Helvetica,sans-Serif" font-size="10.00"> elements</text>
</g>
<!-- Node20 -->
<g id="node20" class="node"><title>Node20</title>
<g id="a_node20"><a xlink:href="class_player.html" target="_top" xlink:title="Player">
<polygon fill="white" stroke="black" points="937,-165.471 937,-184.471 981,-184.471 981,-165.471 937,-165.471"/>
<text text-anchor="middle" x="959" y="-172.471" font-family="Helvetica,sans-Serif" font-size="10.00">Player</text>
</a>
</g>
</g>
<!-- Node20&#45;&gt;Node1 -->
<g id="edge26" class="edge"><title>Node20&#45;&gt;Node1</title>
<path fill="none" stroke="#9a32cd" stroke-dasharray="5,2" d="M934.415,-160.023C874.322,-124.02 712.417,-40.2466 602,-106.971 499.562,-168.875 486.049,-339.919 484.27,-382.351"/>
<polygon fill="#9a32cd" stroke="#9a32cd" points="932.802,-163.14 943.162,-165.361 936.449,-157.164 932.802,-163.14"/>
<text text-anchor="middle" x="683" y="-109.971" font-family="Helvetica,sans-Serif" font-size="10.00"> m_player</text>
</g>
<!-- Node21 -->
<g id="node21" class="node"><title>Node21</title>
<polygon fill="white" stroke="#bfbfbf" points="602,-279.471 602,-298.471 764,-298.471 764,-279.471 602,-279.471"/>
<text text-anchor="middle" x="683" y="-286.471" font-family="Helvetica,sans-Serif" font-size="10.00">std::unique_ptr&lt; TargetSelector &gt;</text>
</g>
<!-- Node21&#45;&gt;Node20 -->
<g id="edge27" class="edge"><title>Node21&#45;&gt;Node20</title>
<path fill="none" stroke="#9a32cd" stroke-dasharray="5,2" d="M771.04,-277.443C800.212,-271.575 832.335,-262.849 860,-249.971 896.322,-233.065 931.871,-200.839 948.396,-184.695"/>
<polygon fill="#9a32cd" stroke="#9a32cd" points="770.016,-274.076 760.857,-279.402 771.338,-280.95 770.016,-274.076"/>
<text text-anchor="middle" x="821" y="-277.971" font-family="Helvetica,sans-Serif" font-size="10.00"> m_targetSelector</text>
</g>
<!-- Node22&#45;&gt;Node20 -->
<g id="edge28" class="edge"><title>Node22&#45;&gt;Node20</title>
<path fill="none" stroke="#9a32cd" stroke-dasharray="5,2" d="M753.055,-174.971C813.716,-174.971 898.174,-174.971 936.979,-174.971"/>
<polygon fill="#9a32cd" stroke="#9a32cd" points="752.78,-171.472 742.78,-174.971 752.78,-178.472 752.78,-171.472"/>
<text text-anchor="middle" x="821" y="-177.971" font-family="Helvetica,sans-Serif" font-size="10.00"> m_hud</text>
</g>
<!-- Node23 -->
<g id="node23" class="node"><title>Node23</title>
<polygon fill="white" stroke="#bfbfbf" points="605.5,-241.471 605.5,-260.471 760.5,-260.471 760.5,-241.471 605.5,-241.471"/>
<text text-anchor="middle" x="683" y="-248.471" font-family="Helvetica,sans-Serif" font-size="10.00">std::unique_ptr&lt; CameraDolly &gt;</text>
</g>
<!-- Node23&#45;&gt;Node20 -->
<g id="edge30" class="edge"><title>Node23&#45;&gt;Node20</title>
<path fill="none" stroke="#9a32cd" stroke-dasharray="5,2" d="M757.995,-239.651C789.757,-233.922 827.064,-226.025 860,-215.971 888.047,-207.41 919.058,-193.667 938.533,-184.482"/>
<polygon fill="#9a32cd" stroke="#9a32cd" points="757.129,-236.249 747.89,-241.434 758.346,-243.143 757.129,-236.249"/>
<text text-anchor="middle" x="821" y="-237.971" font-family="Helvetica,sans-Serif" font-size="10.00"> m_cameraDolly</text>
</g>
<!-- Node24 -->
<g id="node24" class="node"><title>Node24</title>
<polygon fill="white" stroke="#bfbfbf" points="620.5,-203.471 620.5,-222.471 745.5,-222.471 745.5,-203.471 620.5,-203.471"/>
<text text-anchor="middle" x="683" y="-210.471" font-family="Helvetica,sans-Serif" font-size="10.00">std::unique_ptr&lt; Aimer &gt;</text>
</g>
<!-- Node24&#45;&gt;Node20 -->
<g id="edge31" class="edge"><title>Node24&#45;&gt;Node20</title>
<path fill="none" stroke="#9a32cd" stroke-dasharray="5,2" d="M755.686,-203.965C787.638,-199.858 825.725,-194.834 860,-189.971 886.585,-186.2 917.16,-181.455 936.991,-178.323"/>
<polygon fill="#9a32cd" stroke="#9a32cd" points="755.015,-200.522 745.541,-205.265 755.904,-207.466 755.015,-200.522"/>
<text text-anchor="middle" x="821" y="-203.971" font-family="Helvetica,sans-Serif" font-size="10.00"> m_aimer</text>
</g>
<!-- Node25 -->
<g id="node25" class="node"><title>Node25</title>
<g id="a_node25"><a xlink:href="class_handle.html" target="_top" xlink:title="Handle\&lt; Ship \&gt;">
<polygon fill="white" stroke="black" points="641,-127.471 641,-146.471 725,-146.471 725,-127.471 641,-127.471"/>
<text text-anchor="middle" x="683" y="-134.471" font-family="Helvetica,sans-Serif" font-size="10.00">Handle&lt; Ship &gt;</text>
</a>
</g>
</g>
<!-- Node25&#45;&gt;Node20 -->
<g id="edge32" class="edge"><title>Node25&#45;&gt;Node20</title>
<path fill="none" stroke="#9a32cd" stroke-dasharray="5,2" d="M735.306,-143.375C770.435,-147.833 818.069,-154.023 860,-159.971 886.585,-163.743 917.16,-168.488 936.991,-171.619"/>
<polygon fill="#9a32cd" stroke="#9a32cd" points="735.646,-139.89 725.286,-142.107 734.767,-146.835 735.646,-139.89"/>
<text text-anchor="middle" x="821" y="-162.971" font-family="Helvetica,sans-Serif" font-size="10.00"> m_ship</text>
</g>
<!-- Node26 -->
<g id="node26" class="node"><title>Node26</title>
<g id="a_node26"><a xlink:href="class_abstract_move.html" target="_top" xlink:title="AbstractMove">
<polygon fill="white" stroke="black" points="645,-42.4714 645,-61.4714 721,-61.4714 721,-42.4714 645,-42.4714"/>
<text text-anchor="middle" x="683" y="-49.4714" font-family="Helvetica,sans-Serif" font-size="10.00">AbstractMove</text>
</a>
</g>
</g>
<!-- Node26&#45;&gt;Node20 -->
<g id="edge33" class="edge"><title>Node26&#45;&gt;Node20</title>
<path fill="none" stroke="#9a32cd" stroke-dasharray="5,2" d="M731.095,-49.1785C768.018,-48.9149 819.715,-52.9081 860,-72.9714 903.744,-94.7576 938.698,-144.308 952.094,-165.293"/>
<polygon fill="#9a32cd" stroke="#9a32cd" points="731.031,-45.679 721.095,-49.356 731.155,-52.6779 731.031,-45.679"/>
<text text-anchor="middle" x="821" y="-75.9714" font-family="Helvetica,sans-Serif" font-size="10.00"> m_engineState</text>
</g>
<!-- Node27 -->
<g id="node27" class="node"><title>Node27</title>
<g id="a_node27"><a xlink:href="class_viewer.html" target="_top" xlink:title="Viewer">
<polygon fill="white" stroke="black" points="252,-326.471 252,-345.471 298,-345.471 298,-326.471 252,-326.471"/>
<text text-anchor="middle" x="275" y="-333.471" font-family="Helvetica,sans-Serif" font-size="10.00">Viewer</text>
</a>
</g>
</g>
<!-- Node27&#45;&gt;Node1 -->
<g id="edge34" class="edge"><title>Node27&#45;&gt;Node1</title>
<path fill="none" stroke="#9a32cd" stroke-dasharray="5,2" d="M308.616,-338.533C337.415,-341.449 380.261,-347.396 416,-358.971 434.037,-364.814 453.278,-374.93 466.302,-382.427"/>
<polygon fill="#9a32cd" stroke="#9a32cd" points="308.595,-335.016 298.31,-337.559 307.936,-341.985 308.595,-335.016"/>
<text text-anchor="middle" x="388" y="-361.971" font-family="Helvetica,sans-Serif" font-size="10.00"> m_viewer</text>
</g>
<!-- Node28 -->
<g id="node28" class="node"><title>Node28</title>
<polygon fill="white" stroke="#bfbfbf" points="0,-345.471 0,-364.471 120,-364.471 120,-345.471 0,-345.471"/>
<text text-anchor="middle" x="60" y="-352.471" font-family="Helvetica,sans-Serif" font-size="10.00">std::unique_ptr&lt; View &gt;</text>
</g>
<!-- Node28&#45;&gt;Node27 -->
<g id="edge35" class="edge"><title>Node28&#45;&gt;Node27</title>
<path fill="none" stroke="#9a32cd" stroke-dasharray="5,2" d="M130.253,-348.794C172.305,-345.043 223.22,-340.501 251.78,-337.954"/>
<polygon fill="#9a32cd" stroke="#9a32cd" points="129.699,-345.329 120.05,-349.704 130.321,-352.302 129.699,-345.329"/>
<text text-anchor="middle" x="164" y="-350.971" font-family="Helvetica,sans-Serif" font-size="10.00"> m_view</text>
</g>
<!-- Node29 -->
<g id="node29" class="node"><title>Node29</title>
<g id="a_node29"><a xlink:href="class_viewport.html" target="_top" xlink:title="Viewport">
<polygon fill="white" stroke="black" points="33,-307.471 33,-326.471 87,-326.471 87,-307.471 33,-307.471"/>
<text text-anchor="middle" x="60" y="-314.471" font-family="Helvetica,sans-Serif" font-size="10.00">Viewport</text>
</a>
</g>
</g>
<!-- Node29&#45;&gt;Node27 -->
<g id="edge36" class="edge"><title>Node29&#45;&gt;Node27</title>
<path fill="none" stroke="#9a32cd" stroke-dasharray="5,2" d="M97.1768,-320.198C141.498,-324.152 215.201,-330.726 251.87,-333.997"/>
<polygon fill="#9a32cd" stroke="#9a32cd" points="97.3894,-316.704 87.118,-319.301 96.7674,-323.676 97.3894,-316.704"/>
<text text-anchor="middle" x="164" y="-331.971" font-family="Helvetica,sans-Serif" font-size="10.00"> m_viewport</text>
</g>
</g>
</svg>
        <g id="navigator" transform="translate(0 0)" fill="#404254">
                <rect fill="#f2f5e9" fill-opacity="0.5" stroke="#606060" stroke-width=".5" x="0" y="0" width="60" height="60"/>
                <use id="zoomplus" xlink:href="#zoomPlus" x="17" y="9" onmousedown="handleZoom(evt,'in')"/>
                <use id="zoomminus" xlink:href="#zoomMin" x="42" y="9" onmousedown="handleZoom(evt,'out')"/>
                <use id="reset" xlink:href="#resetDef" x="30" y="36" onmousedown="handleReset()"/>
                <g id="arrowUp" xlink:href="#dirArrow" transform="translate(30 24)" onmousedown="handlePan(0,-1)">
                  <use xlink:href="#rim" fill="#404040">
                        <set attributeName="fill" to="#808080" begin="arrowUp.mouseover" end="arrowUp.mouseout"/>
                  </use>
                  <path fill="none" stroke="white" stroke-width="1.5" d="M0,-3.0v7 M-2.5,-0.5L0,-3.0L2.5,-0.5"/>
                </g>
                <g id="arrowRight" xlink:href="#dirArrow" transform="rotate(90) translate(36 -43)" onmousedown="handlePan(1,0)">
                  <use xlink:href="#rim" fill="#404040">
                        <set attributeName="fill" to="#808080" begin="arrowRight.mouseover" end="arrowRight.mouseout"/>
                  </use>
                  <path fill="none" stroke="white" stroke-width="1.5" d="M0,-3.0v7 M-2.5,-0.5L0,-3.0L2.5,-0.5"/>
                </g>
                <g id="arrowDown" xlink:href="#dirArrow" transform="rotate(180) translate(-30 -48)" onmousedown="handlePan(0,1)">
                  <use xlink:href="#rim" fill="#404040">
                        <set attributeName="fill" to="#808080" begin="arrowDown.mouseover" end="arrowDown.mouseout"/>
                  </use>
                  <path fill="none" stroke="white" stroke-width="1.5" d="M0,-3.0v7 M-2.5,-0.5L0,-3.0L2.5,-0.5"/>
                </g>
                <g id="arrowLeft" xlink:href="#dirArrow" transform="rotate(270) translate(-36 17)" onmousedown="handlePan(-1,0)">
                  <use xlink:href="#rim" fill="#404040">
                        <set attributeName="fill" to="#808080" begin="arrowLeft.mouseover" end="arrowLeft.mouseout"/>
                  </use>
                  <path fill="none" stroke="white" stroke-width="1.5" d="M0,-3.0v7 M-2.5,-0.5L0,-3.0L2.5,-0.5"/>
                </g>
        </g>
        <svg viewBox="0 0 15 15" width="100%" height="30px" preserveAspectRatio="xMaxYMin meet">
         <g id="arrow_out" transform="scale(0.3 0.3)">
          <a xlink:href="class_h_u_d__coll__graph_org.svg" target="_base">
           <rect id="button" ry="5" rx="5" y="6" x="6" height="38" width="38"
                fill="#f2f5e9" fill-opacity="0.5" stroke="#606060" stroke-width="1.0"/>
           <path id="arrow"
             d="M 11.500037,31.436501 C 11.940474,20.09759 22.043105,11.32322 32.158766,21.979434 L 37.068811,17.246167 C 37.068811,17.246167 37.088388,32 37.088388,32 L 22.160133,31.978069 C 22.160133,31.978069 26.997745,27.140456 26.997745,27.140456 C 18.528582,18.264221 13.291696,25.230495 11.500037,31.436501 z"
             style="fill:#404040;"/>
          </a>
         </g>
        </svg>
</svg>
