<?xml version="1.0" encoding="UTF-8" standalone="no"?>
<!DOCTYPE svg PUBLIC "-//W3C//DTD SVG 1.1//EN"
 "http://www.w3.org/Graphics/SVG/1.1/DTD/svg11.dtd">
<!-- Generated by graphviz version 2.36.0 (20140111.2315)
 -->
<!-- Title: WorldTree Pages: 1 -->
<svg width="634pt" height="164pt"
 viewBox="0.00 0.00 634.00 164.07" xmlns="http://www.w3.org/2000/svg" xmlns:xlink="http://www.w3.org/1999/xlink">
<g id="graph0" class="graph" transform="scale(1 1) rotate(0) translate(4 160.067)">
<title>WorldTree</title>
<polygon fill="white" stroke="none" points="-4,4 -4,-160.067 630,-160.067 630,4 -4,4"/>
<!-- Node1 -->
<g id="node1" class="node"><title>Node1</title>
<polygon fill="#bfbfbf" stroke="black" points="518.5,-136.567 518.5,-155.567 579.5,-155.567 579.5,-136.567 518.5,-136.567"/>
<text text-anchor="middle" x="549" y="-143.567" font-family="Helvetica,sans-Serif" font-size="10.00">WorldTree</text>
</g>
<!-- Node2 -->
<g id="node2" class="node"><title>Node2</title>
<g id="a_node2"><a xlink:href="class_world_tree_node.html" target="_top" xlink:title="WorldTreeNode">
<polygon fill="white" stroke="black" points="266.5,-68.5674 266.5,-87.5674 349.5,-87.5674 349.5,-68.5674 266.5,-68.5674"/>
<text text-anchor="middle" x="308" y="-75.5674" font-family="Helvetica,sans-Serif" font-size="10.00">WorldTreeNode</text>
</a>
</g>
</g>
<!-- Node2&#45;&gt;Node1 -->
<g id="edge1" class="edge"><title>Node2&#45;&gt;Node1</title>
<path fill="none" stroke="#9a32cd" stroke-dasharray="5,2" d="M334.676,-92.3828C344.819,-97.5842 356.728,-103.142 368,-107.067 419.485,-124.997 482.234,-136.343 518.406,-141.922"/>
<polygon fill="#9a32cd" stroke="#9a32cd" points="336.046,-89.1483 325.569,-87.57 332.775,-95.3371 336.046,-89.1483"/>
<text text-anchor="middle" x="411" y="-132.067" font-family="Helvetica,sans-Serif" font-size="10.00"> m_root</text>
</g>
<!-- Node2&#45;&gt;Node2 -->
<g id="edge2" class="edge"><title>Node2&#45;&gt;Node2</title>
<path fill="none" stroke="#9a32cd" stroke-dasharray="5,2" d="M289.112,-97.4675C290.373,-102.382 296.669,-106.067 308,-106.067 326.129,-106.067 331.369,-96.6327 323.721,-87.8245"/>
<polygon fill="#9a32cd" stroke="#9a32cd" points="292.484,-98.4173 292.279,-87.8245 285.833,-96.2332 292.484,-98.4173"/>
<text text-anchor="middle" x="308" y="-109.067" font-family="Helvetica,sans-Serif" font-size="10.00"> m_parent</text>
</g>
<!-- Node3 -->
<g id="node3" class="node"><title>Node3</title>
<polygon fill="white" stroke="#bfbfbf" points="479,-77.5674 479,-96.5674 619,-96.5674 619,-77.5674 479,-77.5674"/>
<text text-anchor="middle" x="549" y="-84.5674" font-family="Helvetica,sans-Serif" font-size="10.00">std::list&lt; WorldTreeNode * &gt;</text>
</g>
<!-- Node2&#45;&gt;Node3 -->
<g id="edge4" class="edge"><title>Node2&#45;&gt;Node3</title>
<path fill="none" stroke="#9a32cd" stroke-dasharray="5,2" d="M359.805,-89.0698C362.569,-89.459 365.314,-89.797 368,-90.0674 404.384,-93.73 445.108,-93.4181 478.606,-91.9996"/>
<polygon fill="#9a32cd" stroke="#9a32cd" points="360.209,-85.59 349.781,-87.4658 359.102,-92.502 360.209,-85.59"/>
<text text-anchor="middle" x="411" y="-95.0674" font-family="Helvetica,sans-Serif" font-size="10.00"> elements</text>
</g>
<!-- Node4 -->
<g id="node4" class="node"><title>Node4</title>
<polygon fill="white" stroke="#bfbfbf" points="472.5,-24.5674 472.5,-43.5674 625.5,-43.5674 625.5,-24.5674 472.5,-24.5674"/>
<text text-anchor="middle" x="549" y="-31.5674" font-family="Helvetica,sans-Serif" font-size="10.00">std::vector&lt; WorldTreeNode * &gt;</text>
</g>
<!-- Node2&#45;&gt;Node4 -->
<g id="edge6" class="edge"><title>Node2&#45;&gt;Node4</title>
<path fill="none" stroke="#9a32cd" stroke-dasharray="5,2" d="M351.443,-65.9567C356.99,-64.5509 362.615,-63.2128 368,-62.0674 402.801,-54.6656 441.776,-48.362 474.537,-43.6208"/>
<polygon fill="#9a32cd" stroke="#9a32cd" points="350.397,-62.6124 341.611,-68.5332 352.172,-69.3837 350.397,-62.6124"/>
<text text-anchor="middle" x="411" y="-65.0674" font-family="Helvetica,sans-Serif" font-size="10.00"> elements</text>
</g>
<!-- Node3&#45;&gt;Node2 -->
<g id="edge3" class="edge"><title>Node3&#45;&gt;Node2</title>
<path fill="none" stroke="#9a32cd" stroke-dasharray="5,2" d="M468.736,-79.8787C463.752,-79.5639 458.809,-79.2883 454,-79.0674 418.793,-77.4503 378.728,-77.3029 349.648,-77.5012"/>
<polygon fill="#9a32cd" stroke="#9a32cd" points="468.779,-83.3896 478.993,-80.5752 469.253,-76.4057 468.779,-83.3896"/>
<text text-anchor="middle" x="411" y="-82.0674" font-family="Helvetica,sans-Serif" font-size="10.00"> m_activeSubnodes</text>
</g>
<!-- Node4&#45;&gt;Node2 -->
<g id="edge5" class="edge"><title>Node4&#45;&gt;Node2</title>
<path fill="none" stroke="#9a32cd" stroke-dasharray="5,2" d="M517.539,-20.676C480.52,-6.4897 416.941,11.0474 368,-11.0674 341.729,-22.9382 322.487,-52.9281 313.929,-68.4413"/>
<polygon fill="#9a32cd" stroke="#9a32cd" points="516.657,-24.0926 527.242,-24.5527 519.255,-17.5923 516.657,-24.0926"/>
<text text-anchor="middle" x="411" y="-14.0674" font-family="Helvetica,sans-Serif" font-size="10.00"> m_subnodes</text>
</g>
<!-- Node5 -->
<g id="node5" class="node"><title>Node5</title>
<polygon fill="white" stroke="#bfbfbf" points="0,-87.5674 0,-106.567 146,-106.567 146,-87.5674 0,-87.5674"/>
<text text-anchor="middle" x="73" y="-94.5674" font-family="Helvetica,sans-Serif" font-size="10.00">std::list&lt; WorldTreeGeode * &gt;</text>
</g>
<!-- Node5&#45;&gt;Node2 -->
<g id="edge7" class="edge"><title>Node5&#45;&gt;Node2</title>
<path fill="none" stroke="#9a32cd" stroke-dasharray="5,2" d="M156.49,-90.3408C193.76,-87.3016 236.12,-83.8473 266.385,-81.3793"/>
<polygon fill="#9a32cd" stroke="#9a32cd" points="155.809,-86.8846 146.127,-91.1858 156.378,-93.8614 155.809,-86.8846"/>
<text text-anchor="middle" x="206" y="-103.067" font-family="Helvetica,sans-Serif" font-size="10.00"> m_passiveGeodes</text>
<text text-anchor="middle" x="206" y="-92.0674" font-family="Helvetica,sans-Serif" font-size="10.00">m_normalGeodes</text>
</g>
<!-- Node6 -->
<g id="node6" class="node"><title>Node6</title>
<g id="a_node6"><a xlink:href="class_t_a_a_b_b.html" target="_top" xlink:title="TAABB\&lt; int \&gt;">
<polygon fill="white" stroke="red" points="34.5,-49.5674 34.5,-68.5674 111.5,-68.5674 111.5,-49.5674 34.5,-49.5674"/>
<text text-anchor="middle" x="73" y="-56.5674" font-family="Helvetica,sans-Serif" font-size="10.00">TAABB&lt; int &gt;</text>
</a>
</g>
</g>
<!-- Node6&#45;&gt;Node2 -->
<g id="edge8" class="edge"><title>Node6&#45;&gt;Node2</title>
<path fill="none" stroke="#9a32cd" stroke-dasharray="5,2" d="M122.185,-60.057C157.181,-61.1412 205.63,-63.3969 248,-68.0674 253.989,-68.7276 260.293,-69.602 266.462,-70.5596"/>
<polygon fill="#9a32cd" stroke="#9a32cd" points="121.874,-56.5467 111.778,-59.7567 121.673,-63.5437 121.874,-56.5467"/>
<text text-anchor="middle" x="206" y="-71.0674" font-family="Helvetica,sans-Serif" font-size="10.00"> m_aabb</text>
</g>
</g>
</svg>
