<?xml version="1.0" encoding="UTF-8" standalone="no"?>
<!DOCTYPE svg PUBLIC "-//W3C//DTD SVG 1.1//EN"
 "http://www.w3.org/Graphics/SVG/1.1/DTD/svg11.dtd">
<!-- Generated by graphviz version 2.36.0 (20140111.2315)
 -->
<!-- Title: VoxelParticleSpawnBase Pages: 1 -->
<svg width="265pt" height="84pt"
 viewBox="0.00 0.00 265.00 84.00" xmlns="http://www.w3.org/2000/svg" xmlns:xlink="http://www.w3.org/1999/xlink">
<g id="graph0" class="graph" transform="scale(1 1) rotate(0) translate(4 80)">
<title>VoxelParticleSpawnBase</title>
<polygon fill="white" stroke="none" points="-4,4 -4,-80 261,-80 261,4 -4,4"/>
<!-- Node1 -->
<g id="node1" class="node"><title>Node1</title>
<polygon fill="#bfbfbf" stroke="black" points="62,-56.5 62,-75.5 188,-75.5 188,-56.5 62,-56.5"/>
<text text-anchor="middle" x="125" y="-63.5" font-family="Helvetica,sans-Serif" font-size="10.00">VoxelParticleSpawnBase</text>
</g>
<!-- Node2 -->
<g id="node2" class="node"><title>Node2</title>
<g id="a_node2"><a xlink:href="class_voxel_debris_generator.html" target="_top" xlink:title="VoxelDebrisGenerator">
<polygon fill="white" stroke="black" points="0,-0.5 0,-19.5 112,-19.5 112,-0.5 0,-0.5"/>
<text text-anchor="middle" x="56" y="-7.5" font-family="Helvetica,sans-Serif" font-size="10.00">VoxelDebrisGenerator</text>
</a>
</g>
</g>
<!-- Node1&#45;&gt;Node2 -->
<g id="edge1" class="edge"><title>Node1&#45;&gt;Node2</title>
<path fill="none" stroke="midnightblue" d="M105.962,-50.1008C93.5442,-40.3824 77.7566,-28.0269 67.2878,-19.8339"/>
<polygon fill="midnightblue" stroke="midnightblue" points="103.882,-52.9171 113.914,-56.324 108.196,-47.4046 103.882,-52.9171"/>
</g>
<!-- Node3 -->
<g id="node3" class="node"><title>Node3</title>
<g id="a_node3"><a xlink:href="class_voxel_explosion_generator.html" target="_top" xlink:title="VoxelExplosionGenerator">
<polygon fill="white" stroke="black" points="130.5,-0.5 130.5,-19.5 257.5,-19.5 257.5,-0.5 130.5,-0.5"/>
<text text-anchor="middle" x="194" y="-7.5" font-family="Helvetica,sans-Serif" font-size="10.00">VoxelExplosionGenerator</text>
</a>
</g>
</g>
<!-- Node1&#45;&gt;Node3 -->
<g id="edge2" class="edge"><title>Node1&#45;&gt;Node3</title>
<path fill="none" stroke="midnightblue" d="M144.038,-50.1008C156.456,-40.3824 172.243,-28.0269 182.712,-19.8339"/>
<polygon fill="midnightblue" stroke="midnightblue" points="141.804,-47.4046 136.086,-56.324 146.118,-52.9171 141.804,-47.4046"/>
</g>
</g>
</svg>
