<?xml version="1.0" encoding="UTF-8" standalone="no"?>
<!DOCTYPE svg PUBLIC "-//W3C//DTD SVG 1.1//EN"
 "http://www.w3.org/Graphics/SVG/1.1/DTD/svg11.dtd">
<!-- Generated by graphviz version 2.36.0 (20140111.2315)
 -->
<!-- Title: DefaultRenderPipeline Pages: 1 -->
<svg width="296pt" height="242pt"
 viewBox="0.00 0.00 296.00 242.00" xmlns="http://www.w3.org/2000/svg" xmlns:xlink="http://www.w3.org/1999/xlink">
<g id="graph0" class="graph" transform="scale(1 1) rotate(0) translate(4 238)">
<title>DefaultRenderPipeline</title>
<polygon fill="white" stroke="none" points="-4,4 -4,-238 292,-238 292,4 -4,4"/>
<!-- Node1 -->
<g id="node1" class="node"><title>Node1</title>
<polygon fill="#bfbfbf" stroke="black" points="149,-0.5 149,-19.5 261,-19.5 261,-0.5 149,-0.5"/>
<text text-anchor="middle" x="205" y="-7.5" font-family="Helvetica,sans-Serif" font-size="10.00">DefaultRenderPipeline</text>
</g>
<!-- Node2 -->
<g id="node2" class="node"><title>Node2</title>
<g id="a_node2"><a xlink:href="class_render_pipeline.html" target="_top" xlink:title="RenderPipeline">
<polygon fill="white" stroke="black" points="104,-58.5 104,-77.5 186,-77.5 186,-58.5 104,-58.5"/>
<text text-anchor="middle" x="145" y="-65.5" font-family="Helvetica,sans-Serif" font-size="10.00">RenderPipeline</text>
</a>
</g>
</g>
<!-- Node2&#45;&gt;Node1 -->
<g id="edge1" class="edge"><title>Node2&#45;&gt;Node1</title>
<path fill="none" stroke="midnightblue" d="M161.499,-51.601C172.552,-41.2846 186.695,-28.0846 195.802,-19.5852"/>
<polygon fill="midnightblue" stroke="midnightblue" points="159.035,-49.1129 154.113,-58.4948 163.811,-54.2303 159.035,-49.1129"/>
</g>
<!-- Node3 -->
<g id="node3" class="node"><title>Node3</title>
<g id="a_node3"><a xlink:href="class_render_pass.html" target="_top" xlink:title="RenderPass">
<polygon fill="white" stroke="black" points="0,-140.5 0,-159.5 70,-159.5 70,-140.5 0,-140.5"/>
<text text-anchor="middle" x="35" y="-147.5" font-family="Helvetica,sans-Serif" font-size="10.00">RenderPass</text>
</a>
</g>
</g>
<!-- Node3&#45;&gt;Node2 -->
<g id="edge2" class="edge"><title>Node3&#45;&gt;Node2</title>
<path fill="none" stroke="#8b1a1a" d="M55.0442,-134.422C77.8123,-117.864 114.229,-91.3791 132.979,-77.7424"/>
<polygon fill="#8b1a1a" stroke="#8b1a1a" points="52.8007,-131.726 46.7719,-140.439 56.9179,-137.387 52.8007,-131.726"/>
</g>
<!-- Node4 -->
<g id="node4" class="node"><title>Node4</title>
<g id="a_node4"><a xlink:title="STL class. ">
<polygon fill="white" stroke="#bfbfbf" points="142,-214.5 142,-233.5 202,-233.5 202,-214.5 142,-214.5"/>
<text text-anchor="middle" x="172" y="-221.5" font-family="Helvetica,sans-Serif" font-size="10.00">std::string</text>
</a>
</g>
</g>
<!-- Node4&#45;&gt;Node3 -->
<g id="edge3" class="edge"><title>Node4&#45;&gt;Node3</title>
<path fill="none" stroke="#9a32cd" stroke-dasharray="5,2" d="M146.615,-209.659C118.737,-195.008 74.8063,-171.92 51.2325,-159.531"/>
<polygon fill="#9a32cd" stroke="#9a32cd" points="145.266,-212.904 155.746,-214.458 148.523,-206.708 145.266,-212.904"/>
<text text-anchor="middle" x="140.5" y="-187.5" font-family="Helvetica,sans-Serif" font-size="10.00"> m_name</text>
</g>
<!-- Node6 -->
<g id="node6" class="node"><title>Node6</title>
<g id="a_node6"><a xlink:href="class_property.html" target="_top" xlink:title="Property\&lt; bool \&gt;">
<polygon fill="white" stroke="black" points="199.5,-96.5 199.5,-115.5 288.5,-115.5 288.5,-96.5 199.5,-96.5"/>
<text text-anchor="middle" x="244" y="-103.5" font-family="Helvetica,sans-Serif" font-size="10.00">Property&lt; bool &gt;</text>
</a>
</g>
</g>
<!-- Node4&#45;&gt;Node6 -->
<g id="edge6" class="edge"><title>Node4&#45;&gt;Node6</title>
<path fill="none" stroke="#9a32cd" stroke-dasharray="5,2" d="M186.458,-206.266C195.571,-195.258 207.231,-180.294 216,-166 226.434,-148.991 235.756,-127.482 240.563,-115.701"/>
<polygon fill="#9a32cd" stroke="#9a32cd" points="183.573,-204.257 179.798,-214.157 188.922,-208.772 183.573,-204.257"/>
<text text-anchor="middle" x="224.5" y="-187.5" font-family="Helvetica,sans-Serif" font-size="10.00"> m_name</text>
</g>
<!-- Node5 -->
<g id="node5" class="node"><title>Node5</title>
<polygon fill="white" stroke="#bfbfbf" points="88.5,-135 88.5,-165 207.5,-165 207.5,-135 88.5,-135"/>
<text text-anchor="start" x="96.5" y="-153" font-family="Helvetica,sans-Serif" font-size="10.00">std::vector&lt; std::shared</text>
<text text-anchor="middle" x="148" y="-142" font-family="Helvetica,sans-Serif" font-size="10.00">_ptr&lt; RenderPass &gt; &gt;</text>
</g>
<!-- Node5&#45;&gt;Node2 -->
<g id="edge4" class="edge"><title>Node5&#45;&gt;Node2</title>
<path fill="none" stroke="#9a32cd" stroke-dasharray="5,2" d="M142.31,-125.055C141.77,-122.022 141.309,-118.949 141,-116 140.073,-107.16 140.347,-104.865 141,-96 141.446,-89.9509 142.446,-83.2009 143.334,-77.9632"/>
<polygon fill="#9a32cd" stroke="#9a32cd" points="138.907,-125.881 144.348,-134.972 145.764,-124.472 138.907,-125.881"/>
<text text-anchor="middle" x="165.5" y="-103.5" font-family="Helvetica,sans-Serif" font-size="10.00"> m_passes</text>
</g>
<!-- Node6&#45;&gt;Node1 -->
<g id="edge5" class="edge"><title>Node6&#45;&gt;Node1</title>
<path fill="none" stroke="#9a32cd" stroke-dasharray="5,2" d="M236.525,-86.983C228.147,-66.7896 214.911,-34.8878 208.59,-19.6538"/>
<polygon fill="#9a32cd" stroke="#9a32cd" points="233.336,-88.4299 240.401,-96.3252 239.801,-85.7473 233.336,-88.4299"/>
<text text-anchor="middle" x="260.5" y="-65.5" font-family="Helvetica,sans-Serif" font-size="10.00"> m_useFxaa</text>
</g>
</g>
</svg>
