<?xml version="1.0" encoding="UTF-8" standalone="no"?>
<!DOCTYPE svg PUBLIC "-//W3C//DTD SVG 1.1//EN"
 "http://www.w3.org/Graphics/SVG/1.1/DTD/svg11.dtd">
<!-- Generated by graphviz version 2.36.0 (20140111.2315)
 -->
<!-- Title: CircularHudget Pages: 1 -->
<svg width="88pt" height="154pt"
 viewBox="0.00 0.00 88.00 154.00" xmlns="http://www.w3.org/2000/svg" xmlns:xlink="http://www.w3.org/1999/xlink">
<g id="graph0" class="graph" transform="scale(1 1) rotate(0) translate(4 150)">
<title>CircularHudget</title>
<polygon fill="white" stroke="none" points="-4,4 -4,-150 84,-150 84,4 -4,4"/>
<!-- Node1 -->
<g id="node1" class="node"><title>Node1</title>
<polygon fill="#bfbfbf" stroke="black" points="0,-0.5 0,-19.5 80,-19.5 80,-0.5 0,-0.5"/>
<text text-anchor="middle" x="40" y="-7.5" font-family="Helvetica,sans-Serif" font-size="10.00">CircularHudget</text>
</g>
<!-- Node2 -->
<g id="node2" class="node"><title>Node2</title>
<g id="a_node2"><a xlink:href="class_hudget.html" target="_top" xlink:title="Hudget">
<polygon fill="white" stroke="black" points="16.5,-58.5 16.5,-77.5 63.5,-77.5 63.5,-58.5 16.5,-58.5"/>
<text text-anchor="middle" x="40" y="-65.5" font-family="Helvetica,sans-Serif" font-size="10.00">Hudget</text>
</a>
</g>
</g>
<!-- Node2&#45;&gt;Node1 -->
<g id="edge1" class="edge"><title>Node2&#45;&gt;Node1</title>
<path fill="none" stroke="midnightblue" d="M40,-47.953C40,-38.2875 40,-27.0312 40,-19.5052"/>
<polygon fill="midnightblue" stroke="midnightblue" points="36.5001,-48.25 40,-58.25 43.5001,-48.25 36.5001,-48.25"/>
</g>
<!-- Node3 -->
<g id="node3" class="node"><title>Node3</title>
<g id="a_node3"><a xlink:href="class_h_u_d.html" target="_top" xlink:title="HUD">
<polygon fill="white" stroke="red" points="21.5,-126.5 21.5,-145.5 58.5,-145.5 58.5,-126.5 21.5,-126.5"/>
<text text-anchor="middle" x="40" y="-133.5" font-family="Helvetica,sans-Serif" font-size="10.00">HUD</text>
</a>
</g>
</g>
<!-- Node3&#45;&gt;Node2 -->
<g id="edge2" class="edge"><title>Node3&#45;&gt;Node2</title>
<path fill="none" stroke="#9a32cd" stroke-dasharray="5,2" d="M40,-116.041C40,-103.472 40,-87.5631 40,-77.8411"/>
<polygon fill="#9a32cd" stroke="#9a32cd" points="36.5001,-116.372 40,-126.372 43.5001,-116.372 36.5001,-116.372"/>
<text text-anchor="middle" x="56.5" y="-99.5" font-family="Helvetica,sans-Serif" font-size="10.00"> m_hud</text>
</g>
</g>
</svg>
