<?xml version="1.0" encoding="UTF-8" standalone="no"?>
<!DOCTYPE svg PUBLIC "-//W3C//DTD SVG 1.1//EN"
 "http://www.w3.org/Graphics/SVG/1.1/DTD/svg11.dtd">
<!-- Generated by graphviz version 2.36.0 (20140111.2315)
 -->
<!-- Title: src/ai Pages: 1 -->
<svg width="276pt" height="111pt"
 viewBox="0.00 0.00 276.00 111.00" xmlns="http://www.w3.org/2000/svg" xmlns:xlink="http://www.w3.org/1999/xlink">
<g id="graph0" class="graph" transform="scale(1 1) rotate(0) translate(4 107)">
<title>src/ai</title>
<polygon fill="white" stroke="none" points="-4,4 -4,-107 272,-107 272,4 -4,4"/>
<g id="clust1" class="cluster"><title>clusterdir_68267d1309a1af8e8297ef4c3efbcdba</title>
<g id="a_clust1"><a xlink:href="dir_68267d1309a1af8e8297ef4c3efbcdba.html" target="_top" xlink:title="src">
<polygon fill="#ddddee" stroke="black" points="8,-8 8,-95 260,-95 260,-8 8,-8"/>
<text text-anchor="middle" x="134" y="-83" font-family="Helvetica,sans-Serif" font-size="10.00">src</text>
</a>
</g>
</g>
<g id="clust2" class="cluster"><title>clusterdir_128a93aeeff33a8423f079f46929dbb3</title>
<g id="a_clust2"><a xlink:href="dir_128a93aeeff33a8423f079f46929dbb3.html" target="_top">
<polygon fill="#eeeeff" stroke="black" points="16,-16 16,-68 252,-68 252,-16 16,-16"/>
</a>
</g>
</g>
<!-- dir_128a93aeeff33a8423f079f46929dbb3 -->
<g id="node1" class="node"><title>dir_128a93aeeff33a8423f079f46929dbb3</title>
<text text-anchor="middle" x="217" y="-39.5" font-family="Helvetica,sans-Serif" font-size="10.00">ai</text>
</g>
<!-- dir_685e5451948b7805cbb3170ac3824989 -->
<g id="node2" class="node"><title>dir_685e5451948b7805cbb3170ac3824989</title>
<g id="a_node2"><a xlink:href="dir_685e5451948b7805cbb3170ac3824989.html" target="_top" xlink:title="basictasks">
<polygon fill="white" stroke="black" points="172,-60 108,-60 108,-24 172,-24 172,-60"/>
<text text-anchor="middle" x="140" y="-39.5" font-family="Helvetica,sans-Serif" font-size="10.00">basictasks</text>
</a>
</g>
</g>
<!-- dir_f392ba9cf0d0eed2602a7922d4d64b4a -->
<g id="node3" class="node"><title>dir_f392ba9cf0d0eed2602a7922d4d64b4a</title>
<g id="a_node3"><a xlink:href="dir_f392ba9cf0d0eed2602a7922d4d64b4a.html" target="_top" xlink:title="grouptasks">
<polygon fill="white" stroke="black" points="89.25,-60 24.75,-60 24.75,-24 89.25,-24 89.25,-60"/>
<text text-anchor="middle" x="57" y="-39.5" font-family="Helvetica,sans-Serif" font-size="10.00">grouptasks</text>
</a>
</g>
</g>
</g>
</svg>
