<?xml version="1.0" encoding="UTF-8" standalone="no"?>
<!DOCTYPE svg PUBLIC "-//W3C//DTD SVG 1.1//EN"
 "http://www.w3.org/Graphics/SVG/1.1/DTD/svg11.dtd">
<!-- Generated by graphviz version 2.36.0 (20140111.2315)
 -->
<!-- Title: src/utils Pages: 1 -->
<svg width="276pt" height="111pt"
 viewBox="0.00 0.00 276.00 111.00" xmlns="http://www.w3.org/2000/svg" xmlns:xlink="http://www.w3.org/1999/xlink">
<g id="graph0" class="graph" transform="scale(1 1) rotate(0) translate(4 107)">
<title>src/utils</title>
<polygon fill="white" stroke="none" points="-4,4 -4,-107 272,-107 272,4 -4,4"/>
<g id="clust1" class="cluster"><title>clusterdir_68267d1309a1af8e8297ef4c3efbcdba</title>
<g id="a_clust1"><a xlink:href="dir_68267d1309a1af8e8297ef4c3efbcdba.html" target="_top" xlink:title="src">
<polygon fill="#ddddee" stroke="black" points="8,-8 8,-95 260,-95 260,-8 8,-8"/>
<text text-anchor="middle" x="134" y="-83" font-family="Helvetica,sans-Serif" font-size="10.00">src</text>
</a>
</g>
</g>
<g id="clust2" class="cluster"><title>clusterdir_313caf1132e152dd9b58bea13a4052ca</title>
<g id="a_clust2"><a xlink:href="dir_313caf1132e152dd9b58bea13a4052ca.html" target="_top">
<polygon fill="#eeeeff" stroke="black" points="16,-16 16,-68 252,-68 252,-16 16,-16"/>
</a>
</g>
</g>
<!-- dir_313caf1132e152dd9b58bea13a4052ca -->
<g id="node1" class="node"><title>dir_313caf1132e152dd9b58bea13a4052ca</title>
<text text-anchor="middle" x="217" y="-39.5" font-family="Helvetica,sans-Serif" font-size="10.00">utils</text>
</g>
<!-- dir_e062b1fa26710804b3bc3de734a3ff41 -->
<g id="node2" class="node"><title>dir_e062b1fa26710804b3bc3de734a3ff41</title>
<g id="a_node2"><a xlink:href="dir_e062b1fa26710804b3bc3de734a3ff41.html" target="_top" xlink:title="handle">
<polygon fill="white" stroke="black" points="172,-60 118,-60 118,-24 172,-24 172,-60"/>
<text text-anchor="middle" x="145" y="-39.5" font-family="Helvetica,sans-Serif" font-size="10.00">handle</text>
</a>
</g>
</g>
<!-- dir_0f7c3e2063299480c943877030759676 -->
<g id="node3" class="node"><title>dir_0f7c3e2063299480c943877030759676</title>
<g id="a_node3"><a xlink:href="dir_0f7c3e2063299480c943877030759676.html" target="_top" xlink:title="statemachine">
<polygon fill="white" stroke="black" points="99.25,-60 24.75,-60 24.75,-24 99.25,-24 99.25,-60"/>
<text text-anchor="middle" x="62" y="-39.5" font-family="Helvetica,sans-Serif" font-size="10.00">statemachine</text>
</a>
</g>
</g>
</g>
</svg>
