<?xml version="1.0" encoding="UTF-8" standalone="no"?>
<!DOCTYPE svg PUBLIC "-//W3C//DTD SVG 1.1//EN"
 "http://www.w3.org/Graphics/SVG/1.1/DTD/svg11.dtd">
<!-- Generated by graphviz version 2.36.0 (20140111.2315)
 -->
<!-- Title: src/etc Pages: 1 -->
<svg width="254pt" height="111pt"
 viewBox="0.00 0.00 254.00 111.00" xmlns="http://www.w3.org/2000/svg" xmlns:xlink="http://www.w3.org/1999/xlink">
<g id="graph0" class="graph" transform="scale(1 1) rotate(0) translate(4 107)">
<title>src/etc</title>
<polygon fill="white" stroke="none" points="-4,4 -4,-107 250,-107 250,4 -4,4"/>
<g id="clust1" class="cluster"><title>clusterdir_68267d1309a1af8e8297ef4c3efbcdba</title>
<g id="a_clust1"><a xlink:href="dir_68267d1309a1af8e8297ef4c3efbcdba.html" target="_top" xlink:title="src">
<polygon fill="#ddddee" stroke="black" points="8,-8 8,-95 238,-95 238,-8 8,-8"/>
<text text-anchor="middle" x="123" y="-83" font-family="Helvetica,sans-Serif" font-size="10.00">src</text>
</a>
</g>
</g>
<g id="clust2" class="cluster"><title>clusterdir_09285d76a3efc6ee8946ffb4d7669556</title>
<g id="a_clust2"><a xlink:href="dir_09285d76a3efc6ee8946ffb4d7669556.html" target="_top">
<polygon fill="#eeeeff" stroke="black" points="16,-16 16,-68 230,-68 230,-16 16,-16"/>
</a>
</g>
</g>
<!-- dir_09285d76a3efc6ee8946ffb4d7669556 -->
<g id="node1" class="node"><title>dir_09285d76a3efc6ee8946ffb4d7669556</title>
<text text-anchor="middle" x="195" y="-39.5" font-family="Helvetica,sans-Serif" font-size="10.00">etc</text>
</g>
<!-- dir_80c6526e92a2bd8bfa7320a9dcbb121d -->
<g id="node2" class="node"><title>dir_80c6526e92a2bd8bfa7320a9dcbb121d</title>
<g id="a_node2"><a xlink:href="dir_80c6526e92a2bd8bfa7320a9dcbb121d.html" target="_top" xlink:title="cli">
<polygon fill="white" stroke="black" points="150,-60 96,-60 96,-24 150,-24 150,-60"/>
<text text-anchor="middle" x="123" y="-39.5" font-family="Helvetica,sans-Serif" font-size="10.00">cli</text>
</a>
</g>
</g>
<!-- dir_b8f442819b2e1860b340bcd11145f31b -->
<g id="node3" class="node"><title>dir_b8f442819b2e1860b340bcd11145f31b</title>
<g id="a_node3"><a xlink:href="dir_b8f442819b2e1860b340bcd11145f31b.html" target="_top" xlink:title="hmd">
<polygon fill="white" stroke="black" points="78,-60 24,-60 24,-24 78,-24 78,-60"/>
<text text-anchor="middle" x="51" y="-39.5" font-family="Helvetica,sans-Serif" font-size="10.00">hmd</text>
</a>
</g>
</g>
</g>
</svg>
