<?xml version="1.0" encoding="UTF-8" standalone="no"?>
<!DOCTYPE svg PUBLIC "-//W3C//DTD SVG 1.1//EN"
 "http://www.w3.org/Graphics/SVG/1.1/DTD/svg11.dtd">
<!-- Generated by graphviz version 2.36.0 (20140111.2315)
 -->
<!-- Title: src/gamestate/gameplay Pages: 1 -->
<svg width="260pt" height="111pt"
 viewBox="0.00 0.00 260.00 111.00" xmlns="http://www.w3.org/2000/svg" xmlns:xlink="http://www.w3.org/1999/xlink">
<g id="graph0" class="graph" transform="scale(1 1) rotate(0) translate(4 107)">
<title>src/gamestate/gameplay</title>
<polygon fill="white" stroke="none" points="-4,4 -4,-107 256,-107 256,4 -4,4"/>
<g id="clust1" class="cluster"><title>clusterdir_31d4ea8148997abe7a56a5b07f2fed83</title>
<g id="a_clust1"><a xlink:href="dir_31d4ea8148997abe7a56a5b07f2fed83.html" target="_top" xlink:title="gamestate">
<polygon fill="#ddddee" stroke="black" points="8,-8 8,-95 244,-95 244,-8 8,-8"/>
<text text-anchor="middle" x="126" y="-83" font-family="Helvetica,sans-Serif" font-size="10.00">gamestate</text>
</a>
</g>
</g>
<g id="clust2" class="cluster"><title>clusterdir_422bd17afd8af33f87433e9d028687af</title>
<g id="a_clust2"><a xlink:href="dir_422bd17afd8af33f87433e9d028687af.html" target="_top">
<polygon fill="#eeeeff" stroke="black" points="16,-16 16,-68 236,-68 236,-16 16,-16"/>
</a>
</g>
</g>
<!-- dir_422bd17afd8af33f87433e9d028687af -->
<g id="node1" class="node"><title>dir_422bd17afd8af33f87433e9d028687af</title>
<text text-anchor="middle" x="198" y="-39.5" font-family="Helvetica,sans-Serif" font-size="10.00">gameplay</text>
</g>
<!-- dir_d36ce44270735c2af9cecad87b6631ca -->
<g id="node2" class="node"><title>dir_d36ce44270735c2af9cecad87b6631ca</title>
<g id="a_node2"><a xlink:href="dir_d36ce44270735c2af9cecad87b6631ca.html" target="_top" xlink:title="paused">
<polygon fill="white" stroke="black" points="150,-60 96,-60 96,-24 150,-24 150,-60"/>
<text text-anchor="middle" x="123" y="-39.5" font-family="Helvetica,sans-Serif" font-size="10.00">paused</text>
</a>
</g>
</g>
<!-- dir_16c1766995e8f68dc277f8c93f55d718 -->
<g id="node3" class="node"><title>dir_16c1766995e8f68dc277f8c93f55d718</title>
<g id="a_node3"><a xlink:href="dir_16c1766995e8f68dc277f8c93f55d718.html" target="_top" xlink:title="running">
<polygon fill="white" stroke="black" points="78,-60 24,-60 24,-24 78,-24 78,-60"/>
<text text-anchor="middle" x="51" y="-39.5" font-family="Helvetica,sans-Serif" font-size="10.00">running</text>
</a>
</g>
</g>
</g>
</svg>
