<?xml version="1.0" encoding="UTF-8" standalone="no"?>
<!DOCTYPE svg PUBLIC "-//W3C//DTD SVG 1.1//EN"
 "http://www.w3.org/Graphics/SVG/1.1/DTD/svg11.dtd">
<!-- Generated by graphviz version 2.36.0 (20140111.2315)
 -->
<!-- Title: src/scripting Pages: 1 -->
<svg width="264pt" height="111pt"
 viewBox="0.00 0.00 264.00 111.00" xmlns="http://www.w3.org/2000/svg" xmlns:xlink="http://www.w3.org/1999/xlink">
<g id="graph0" class="graph" transform="scale(1 1) rotate(0) translate(4 107)">
<title>src/scripting</title>
<polygon fill="white" stroke="none" points="-4,4 -4,-107 260,-107 260,4 -4,4"/>
<g id="clust1" class="cluster"><title>clusterdir_68267d1309a1af8e8297ef4c3efbcdba</title>
<g id="a_clust1"><a xlink:href="dir_68267d1309a1af8e8297ef4c3efbcdba.html" target="_top" xlink:title="src">
<polygon fill="#ddddee" stroke="black" points="8,-8 8,-95 248,-95 248,-8 8,-8"/>
<text text-anchor="middle" x="128" y="-83" font-family="Helvetica,sans-Serif" font-size="10.00">src</text>
</a>
</g>
</g>
<g id="clust2" class="cluster"><title>clusterdir_b49f11675e92293ffa7ceeef744893f4</title>
<g id="a_clust2"><a xlink:href="dir_b49f11675e92293ffa7ceeef744893f4.html" target="_top">
<polygon fill="#eeeeff" stroke="black" points="16,-16 16,-68 240,-68 240,-16 16,-16"/>
</a>
</g>
</g>
<!-- dir_b49f11675e92293ffa7ceeef744893f4 -->
<g id="node1" class="node"><title>dir_b49f11675e92293ffa7ceeef744893f4</title>
<text text-anchor="middle" x="205" y="-39.5" font-family="Helvetica,sans-Serif" font-size="10.00">scripting</text>
</g>
<!-- dir_04b1166daf6a52719574a9b034997170 -->
<g id="node2" class="node"><title>dir_04b1166daf6a52719574a9b034997170</title>
<g id="a_node2"><a xlink:href="dir_04b1166daf6a52719574a9b034997170.html" target="_top" xlink:title="bindings">
<polygon fill="white" stroke="black" points="160,-60 106,-60 106,-24 160,-24 160,-60"/>
<text text-anchor="middle" x="133" y="-39.5" font-family="Helvetica,sans-Serif" font-size="10.00">bindings</text>
</a>
</g>
</g>
<!-- dir_dd4badd1ef815f86721924f690316505 -->
<g id="node3" class="node"><title>dir_dd4badd1ef815f86721924f690316505</title>
<g id="a_node3"><a xlink:href="dir_dd4badd1ef815f86721924f690316505.html" target="_top" xlink:title="elematelua">
<polygon fill="white" stroke="black" points="88,-60 24,-60 24,-24 88,-24 88,-60"/>
<text text-anchor="middle" x="56" y="-39.5" font-family="Helvetica,sans-Serif" font-size="10.00">elematelua</text>
</a>
</g>
</g>
</g>
</svg>
