<?xml version="1.0" encoding="UTF-8" standalone="no"?>
<!DOCTYPE svg PUBLIC "-//W3C//DTD SVG 1.1//EN"
 "http://www.w3.org/Graphics/SVG/1.1/DTD/svg11.dtd">
<!-- Generated by graphviz version 2.36.0 (20140111.2315)
 -->
<!-- Title: src Pages: 1 -->
<svg width="2020pt" height="76pt"
 viewBox="0.00 0.00 2020.00 76.00" xmlns="http://www.w3.org/2000/svg" xmlns:xlink="http://www.w3.org/1999/xlink">
<g id="graph0" class="graph" transform="scale(1 1) rotate(0) translate(4 72)">
<title>src</title>
<polygon fill="white" stroke="none" points="-4,4 -4,-72 2016,-72 2016,4 -4,4"/>
<g id="clust1" class="cluster"><title>clusterdir_68267d1309a1af8e8297ef4c3efbcdba</title>
<g id="a_clust1"><a xlink:href="dir_68267d1309a1af8e8297ef4c3efbcdba.html" target="_top">
<polygon fill="#eeeeff" stroke="black" points="8,-8 8,-60 2004,-60 2004,-8 8,-8"/>
</a>
</g>
</g>
<!-- dir_68267d1309a1af8e8297ef4c3efbcdba -->
<g id="node1" class="node"><title>dir_68267d1309a1af8e8297ef4c3efbcdba</title>
<text text-anchor="middle" x="1969" y="-31.5" font-family="Helvetica,sans-Serif" font-size="10.00">src</text>
</g>
<!-- dir_128a93aeeff33a8423f079f46929dbb3 -->
<g id="node2" class="node"><title>dir_128a93aeeff33a8423f079f46929dbb3</title>
<g id="a_node2"><a xlink:href="dir_128a93aeeff33a8423f079f46929dbb3.html" target="_top" xlink:title="ai">
<polygon fill="white" stroke="red" points="1924,-52 1870,-52 1870,-16 1924,-16 1924,-52"/>
<text text-anchor="middle" x="1897" y="-31.5" font-family="Helvetica,sans-Serif" font-size="10.00">ai</text>
</a>
</g>
</g>
<!-- dir_34519bff5ae72130fe71a8620cbf1fc0 -->
<g id="node3" class="node"><title>dir_34519bff5ae72130fe71a8620cbf1fc0</title>
<g id="a_node3"><a xlink:href="dir_34519bff5ae72130fe71a8620cbf1fc0.html" target="_top" xlink:title="camera">
<polygon fill="white" stroke="black" points="1852,-52 1798,-52 1798,-16 1852,-16 1852,-52"/>
<text text-anchor="middle" x="1825" y="-31.5" font-family="Helvetica,sans-Serif" font-size="10.00">camera</text>
</a>
</g>
</g>
<!-- dir_7bdefc09624a65e4879833850a61ce04 -->
<g id="node4" class="node"><title>dir_7bdefc09624a65e4879833850a61ce04</title>
<g id="a_node4"><a xlink:href="dir_7bdefc09624a65e4879833850a61ce04.html" target="_top" xlink:title="collision">
<polygon fill="white" stroke="black" points="1780,-52 1726,-52 1726,-16 1780,-16 1780,-52"/>
<text text-anchor="middle" x="1753" y="-31.5" font-family="Helvetica,sans-Serif" font-size="10.00">collision</text>
</a>
</g>
</g>
<!-- dir_25685f9c6d837c57f295dee081495707 -->
<g id="node5" class="node"><title>dir_25685f9c6d837c57f295dee081495707</title>
<g id="a_node5"><a xlink:href="dir_25685f9c6d837c57f295dee081495707.html" target="_top" xlink:title="display">
<polygon fill="white" stroke="red" points="1708,-52 1654,-52 1654,-16 1708,-16 1708,-52"/>
<text text-anchor="middle" x="1681" y="-31.5" font-family="Helvetica,sans-Serif" font-size="10.00">display</text>
</a>
</g>
</g>
<!-- dir_4c1ae83e7735d5d6c7036f37fb821762 -->
<g id="node6" class="node"><title>dir_4c1ae83e7735d5d6c7036f37fb821762</title>
<g id="a_node6"><a xlink:href="dir_4c1ae83e7735d5d6c7036f37fb821762.html" target="_top" xlink:title="equipment">
<polygon fill="white" stroke="red" points="1636,-52 1574,-52 1574,-16 1636,-16 1636,-52"/>
<text text-anchor="middle" x="1605" y="-31.5" font-family="Helvetica,sans-Serif" font-size="10.00">equipment</text>
</a>
</g>
</g>
<!-- dir_09285d76a3efc6ee8946ffb4d7669556 -->
<g id="node7" class="node"><title>dir_09285d76a3efc6ee8946ffb4d7669556</title>
<g id="a_node7"><a xlink:href="dir_09285d76a3efc6ee8946ffb4d7669556.html" target="_top" xlink:title="etc">
<polygon fill="white" stroke="red" points="1556,-52 1502,-52 1502,-16 1556,-16 1556,-52"/>
<text text-anchor="middle" x="1529" y="-31.5" font-family="Helvetica,sans-Serif" font-size="10.00">etc</text>
</a>
</g>
</g>
<!-- dir_14e1e259e8275dc0c459acef3bbf05ae -->
<g id="node8" class="node"><title>dir_14e1e259e8275dc0c459acef3bbf05ae</title>
<g id="a_node8"><a xlink:href="dir_14e1e259e8275dc0c459acef3bbf05ae.html" target="_top" xlink:title="events">
<polygon fill="white" stroke="black" points="1484,-52 1430,-52 1430,-16 1484,-16 1484,-52"/>
<text text-anchor="middle" x="1457" y="-31.5" font-family="Helvetica,sans-Serif" font-size="10.00">events</text>
</a>
</g>
</g>
<!-- dir_5357e5f4a5e05f9ad3166f91e4fef869 -->
<g id="node9" class="node"><title>dir_5357e5f4a5e05f9ad3166f91e4fef869</title>
<g id="a_node9"><a xlink:href="dir_5357e5f4a5e05f9ad3166f91e4fef869.html" target="_top" xlink:title="factions">
<polygon fill="white" stroke="black" points="1412,-52 1358,-52 1358,-16 1412,-16 1412,-52"/>
<text text-anchor="middle" x="1385" y="-31.5" font-family="Helvetica,sans-Serif" font-size="10.00">factions</text>
</a>
</g>
</g>
<!-- dir_31d4ea8148997abe7a56a5b07f2fed83 -->
<g id="node10" class="node"><title>dir_31d4ea8148997abe7a56a5b07f2fed83</title>
<g id="a_node10"><a xlink:href="dir_31d4ea8148997abe7a56a5b07f2fed83.html" target="_top" xlink:title="gamestate">
<polygon fill="white" stroke="red" points="1340,-52 1278,-52 1278,-16 1340,-16 1340,-52"/>
<text text-anchor="middle" x="1309" y="-31.5" font-family="Helvetica,sans-Serif" font-size="10.00">gamestate</text>
</a>
</g>
</g>
<!-- dir_405fd32de3649961a5f009c7a3fe84df -->
<g id="node11" class="node"><title>dir_405fd32de3649961a5f009c7a3fe84df</title>
<g id="a_node11"><a xlink:href="dir_405fd32de3649961a5f009c7a3fe84df.html" target="_top" xlink:title="geometry">
<polygon fill="white" stroke="black" points="1259.25,-52 1202.75,-52 1202.75,-16 1259.25,-16 1259.25,-52"/>
<text text-anchor="middle" x="1231" y="-31.5" font-family="Helvetica,sans-Serif" font-size="10.00">geometry</text>
</a>
</g>
</g>
<!-- dir_d365e15d984c8d0205117ee0c40d6716 -->
<g id="node12" class="node"><title>dir_d365e15d984c8d0205117ee0c40d6716</title>
<g id="a_node12"><a xlink:href="dir_d365e15d984c8d0205117ee0c40d6716.html" target="_top" xlink:title="input">
<polygon fill="white" stroke="black" points="1184,-52 1130,-52 1130,-16 1184,-16 1184,-52"/>
<text text-anchor="middle" x="1157" y="-31.5" font-family="Helvetica,sans-Serif" font-size="10.00">input</text>
</a>
</g>
</g>
<!-- dir_24aba33a80550e19ea95285be6012aef -->
<g id="node13" class="node"><title>dir_24aba33a80550e19ea95285be6012aef</title>
<g id="a_node13"><a xlink:href="dir_24aba33a80550e19ea95285be6012aef.html" target="_top" xlink:title="missions">
<polygon fill="white" stroke="black" points="1112,-52 1056,-52 1056,-16 1112,-16 1112,-52"/>
<text text-anchor="middle" x="1084" y="-31.5" font-family="Helvetica,sans-Serif" font-size="10.00">missions</text>
</a>
</g>
</g>
<!-- dir_8250e12e5a19acb8ece30f1703b6dc16 -->
<g id="node14" class="node"><title>dir_8250e12e5a19acb8ece30f1703b6dc16</title>
<g id="a_node14"><a xlink:href="dir_8250e12e5a19acb8ece30f1703b6dc16.html" target="_top" xlink:title="physics">
<polygon fill="white" stroke="black" points="1038,-52 984,-52 984,-16 1038,-16 1038,-52"/>
<text text-anchor="middle" x="1011" y="-31.5" font-family="Helvetica,sans-Serif" font-size="10.00">physics</text>
</a>
</g>
</g>
<!-- dir_7156828c8d148b9c7ab68f09210221be -->
<g id="node15" class="node"><title>dir_7156828c8d148b9c7ab68f09210221be</title>
<g id="a_node15"><a xlink:href="dir_7156828c8d148b9c7ab68f09210221be.html" target="_top" xlink:title="programs">
<polygon fill="white" stroke="black" points="965.25,-52 908.75,-52 908.75,-16 965.25,-16 965.25,-52"/>
<text text-anchor="middle" x="937" y="-31.5" font-family="Helvetica,sans-Serif" font-size="10.00">programs</text>
</a>
</g>
</g>
<!-- dir_8ceb8a2b157fccb14fc1358241bcf28b -->
<g id="node16" class="node"><title>dir_8ceb8a2b157fccb14fc1358241bcf28b</title>
<g id="a_node16"><a xlink:href="dir_8ceb8a2b157fccb14fc1358241bcf28b.html" target="_top" xlink:title="property">
<polygon fill="white" stroke="black" points="890,-52 836,-52 836,-16 890,-16 890,-52"/>
<text text-anchor="middle" x="863" y="-31.5" font-family="Helvetica,sans-Serif" font-size="10.00">property</text>
</a>
</g>
</g>
<!-- dir_b8641f383bb3a55bd12c64e8208632c3 -->
<g id="node17" class="node"><title>dir_b8641f383bb3a55bd12c64e8208632c3</title>
<g id="a_node17"><a xlink:href="dir_b8641f383bb3a55bd12c64e8208632c3.html" target="_top" xlink:title="resource">
<polygon fill="white" stroke="black" points="818,-52 764,-52 764,-16 818,-16 818,-52"/>
<text text-anchor="middle" x="791" y="-31.5" font-family="Helvetica,sans-Serif" font-size="10.00">resource</text>
</a>
</g>
</g>
<!-- dir_ce641ecd0feac39632e1be43a1a6a10e -->
<g id="node18" class="node"><title>dir_ce641ecd0feac39632e1be43a1a6a10e</title>
<g id="a_node18"><a xlink:href="dir_ce641ecd0feac39632e1be43a1a6a10e.html" target="_top" xlink:title="scenarios">
<polygon fill="white" stroke="black" points="745.25,-52 686.75,-52 686.75,-16 745.25,-16 745.25,-52"/>
<text text-anchor="middle" x="716" y="-31.5" font-family="Helvetica,sans-Serif" font-size="10.00">scenarios</text>
</a>
</g>
</g>
<!-- dir_b49f11675e92293ffa7ceeef744893f4 -->
<g id="node19" class="node"><title>dir_b49f11675e92293ffa7ceeef744893f4</title>
<g id="a_node19"><a xlink:href="dir_b49f11675e92293ffa7ceeef744893f4.html" target="_top" xlink:title="scripting">
<polygon fill="white" stroke="red" points="668,-52 614,-52 614,-16 668,-16 668,-52"/>
<text text-anchor="middle" x="641" y="-31.5" font-family="Helvetica,sans-Serif" font-size="10.00">scripting</text>
</a>
</g>
</g>
<!-- dir_06983a04f4bcdd04d40946e8be932ce3 -->
<g id="node20" class="node"><title>dir_06983a04f4bcdd04d40946e8be932ce3</title>
<g id="a_node20"><a xlink:href="dir_06983a04f4bcdd04d40946e8be932ce3.html" target="_top" xlink:title="sound">
<polygon fill="white" stroke="black" points="596,-52 542,-52 542,-16 596,-16 596,-52"/>
<text text-anchor="middle" x="569" y="-31.5" font-family="Helvetica,sans-Serif" font-size="10.00">sound</text>
</a>
</g>
</g>
<!-- dir_da5c6b39c0a2f54e57df6799511cd3ab -->
<g id="node21" class="node"><title>dir_da5c6b39c0a2f54e57df6799511cd3ab</title>
<g id="a_node21"><a xlink:href="dir_da5c6b39c0a2f54e57df6799511cd3ab.html" target="_top" xlink:title="ui">
<polygon fill="white" stroke="red" points="524,-52 470,-52 470,-16 524,-16 524,-52"/>
<text text-anchor="middle" x="497" y="-31.5" font-family="Helvetica,sans-Serif" font-size="10.00">ui</text>
</a>
</g>
</g>
<!-- dir_313caf1132e152dd9b58bea13a4052ca -->
<g id="node22" class="node"><title>dir_313caf1132e152dd9b58bea13a4052ca</title>
<g id="a_node22"><a xlink:href="dir_313caf1132e152dd9b58bea13a4052ca.html" target="_top" xlink:title="utils">
<polygon fill="white" stroke="red" points="452,-52 398,-52 398,-16 452,-16 452,-52"/>
<text text-anchor="middle" x="425" y="-31.5" font-family="Helvetica,sans-Serif" font-size="10.00">utils</text>
</a>
</g>
</g>
<!-- dir_3b34176ba99fd1dbf8af37e0aa0e80ab -->
<g id="node23" class="node"><title>dir_3b34176ba99fd1dbf8af37e0aa0e80ab</title>
<g id="a_node23"><a xlink:href="dir_3b34176ba99fd1dbf8af37e0aa0e80ab.html" target="_top" xlink:title="voxel">
<polygon fill="white" stroke="red" points="380,-52 326,-52 326,-16 380,-16 380,-52"/>
<text text-anchor="middle" x="353" y="-31.5" font-family="Helvetica,sans-Serif" font-size="10.00">voxel</text>
</a>
</g>
</g>
<!-- dir_54de17332df5908a4e55d8cfcc1ad9a6 -->
<g id="node24" class="node"><title>dir_54de17332df5908a4e55d8cfcc1ad9a6</title>
<g id="a_node24"><a xlink:href="dir_54de17332df5908a4e55d8cfcc1ad9a6.html" target="_top" xlink:title="voxeleffect">
<polygon fill="white" stroke="red" points="308,-52 246,-52 246,-16 308,-16 308,-52"/>
<text text-anchor="middle" x="277" y="-31.5" font-family="Helvetica,sans-Serif" font-size="10.00">voxeleffect</text>
</a>
</g>
</g>
<!-- dir_6826d79532171ff2338799cfd298b875 -->
<g id="node25" class="node"><title>dir_6826d79532171ff2338799cfd298b875</title>
<g id="a_node25"><a xlink:href="dir_6826d79532171ff2338799cfd298b875.html" target="_top" xlink:title="world">
<polygon fill="white" stroke="red" points="228,-52 174,-52 174,-16 228,-16 228,-52"/>
<text text-anchor="middle" x="201" y="-31.5" font-family="Helvetica,sans-Serif" font-size="10.00">world</text>
</a>
</g>
</g>
<!-- dir_b8b87a3ff4d0369902fe7a86e04ac30b -->
<g id="node26" class="node"><title>dir_b8b87a3ff4d0369902fe7a86e04ac30b</title>
<g id="a_node26"><a xlink:href="dir_b8b87a3ff4d0369902fe7a86e04ac30b.html" target="_top" xlink:title="worldobject">
<polygon fill="white" stroke="red" points="155.25,-52 90.75,-52 90.75,-16 155.25,-16 155.25,-52"/>
<text text-anchor="middle" x="123" y="-31.5" font-family="Helvetica,sans-Serif" font-size="10.00">worldobject</text>
</a>
</g>
</g>
<!-- dir_85c53fc97d906ef66ae29f7ce243c4d9 -->
<g id="node27" class="node"><title>dir_85c53fc97d906ef66ae29f7ce243c4d9</title>
<g id="a_node27"><a xlink:href="dir_85c53fc97d906ef66ae29f7ce243c4d9.html" target="_top" xlink:title="worldtree">
<polygon fill="white" stroke="black" points="72,-52 16,-52 16,-16 72,-16 72,-52"/>
<text text-anchor="middle" x="44" y="-31.5" font-family="Helvetica,sans-Serif" font-size="10.00">worldtree</text>
</a>
</g>
</g>
</g>
</svg>
