<?xml version="1.0" encoding="UTF-8" standalone="no"?>
<!DOCTYPE svg PUBLIC "-//W3C//DTD SVG 1.1//EN"
 "http://www.w3.org/Graphics/SVG/1.1/DTD/svg11.dtd">
<!-- Generated by graphviz version 2.36.0 (20140111.2315)
 -->
<!-- Title: Graphical Class Hierarchy Pages: 1 -->
<svg width="404pt" height="484pt"
 viewBox="0.00 0.00 404.00 484.00" xmlns="http://www.w3.org/2000/svg" xmlns:xlink="http://www.w3.org/1999/xlink">
<g id="graph0" class="graph" transform="scale(1 1) rotate(0) translate(4 480)">
<title>Graphical Class Hierarchy</title>
<polygon fill="white" stroke="none" points="-4,4 -4,-480 400,-480 400,4 -4,4"/>
<!-- Node1 -->
<g id="node1" class="node"><title>Node1</title>
<g id="a_node1"><a xlink:href="class_context_dependant.html" target="_top" xlink:title="ContextDependant">
<polygon fill="white" stroke="black" points="0.5,-228.5 0.5,-247.5 97.5,-247.5 97.5,-228.5 0.5,-228.5"/>
<text text-anchor="middle" x="49" y="-235.5" font-family="Helvetica,sans-Serif" font-size="10.00">ContextDependant</text>
</a>
</g>
</g>
<!-- Node2 -->
<g id="node2" class="node"><title>Node2</title>
<g id="a_node2"><a xlink:href="class_blit_program.html" target="_top" xlink:title="BlitProgram">
<polygon fill="white" stroke="black" points="157,-418.5 157,-437.5 225,-437.5 225,-418.5 157,-418.5"/>
<text text-anchor="middle" x="191" y="-425.5" font-family="Helvetica,sans-Serif" font-size="10.00">BlitProgram</text>
</a>
</g>
</g>
<!-- Node1&#45;&gt;Node2 -->
<g id="edge1" class="edge"><title>Node1&#45;&gt;Node2</title>
<path fill="none" stroke="midnightblue" d="M54.3997,-257.748C63.2843,-293.116 86.6819,-367.445 134,-409 140.48,-414.691 148.737,-418.692 156.906,-421.501"/>
<polygon fill="midnightblue" stroke="midnightblue" points="57.7343,-256.642 52.0131,-247.725 50.9247,-258.263 57.7343,-256.642"/>
</g>
<!-- Node4 -->
<g id="node4" class="node"><title>Node4</title>
<g id="a_node4"><a xlink:href="class_frame_buffer.html" target="_top" xlink:title="FrameBuffer">
<polygon fill="white" stroke="black" points="156.5,-152.5 156.5,-171.5 225.5,-171.5 225.5,-152.5 156.5,-152.5"/>
<text text-anchor="middle" x="191" y="-159.5" font-family="Helvetica,sans-Serif" font-size="10.00">FrameBuffer</text>
</a>
</g>
</g>
<!-- Node1&#45;&gt;Node4 -->
<g id="edge3" class="edge"><title>Node1&#45;&gt;Node4</title>
<path fill="none" stroke="midnightblue" d="M70.165,-222.027C86.6127,-209.578 110.834,-192.525 134,-181 141.262,-177.387 149.374,-174.195 157.121,-171.508"/>
<polygon fill="midnightblue" stroke="midnightblue" points="67.67,-219.531 61.8833,-228.406 71.9415,-225.077 67.67,-219.531"/>
</g>
<!-- Node5 -->
<g id="node5" class="node"><title>Node5</title>
<g id="a_node5"><a xlink:href="class_post_processing_pass.html" target="_top" xlink:title="PostProcessingPass">
<polygon fill="white" stroke="black" points="137,-380.5 137,-399.5 245,-399.5 245,-380.5 137,-380.5"/>
<text text-anchor="middle" x="191" y="-387.5" font-family="Helvetica,sans-Serif" font-size="10.00">PostProcessingPass</text>
</a>
</g>
</g>
<!-- Node1&#45;&gt;Node5 -->
<g id="edge4" class="edge"><title>Node1&#45;&gt;Node5</title>
<path fill="none" stroke="midnightblue" d="M57.1001,-256.93C68.8072,-285.65 94.8333,-340.142 134,-371 138.919,-374.876 144.674,-377.983 150.586,-380.468"/>
<polygon fill="midnightblue" stroke="midnightblue" points="60.3516,-255.635 53.437,-247.607 53.8364,-258.194 60.3516,-255.635"/>
</g>
<!-- Node7 -->
<g id="node7" class="node"><title>Node7</title>
<g id="a_node7"><a xlink:href="class_screen_quad.html" target="_top" xlink:title="ScreenQuad">
<polygon fill="white" stroke="black" points="155.5,-114.5 155.5,-133.5 226.5,-133.5 226.5,-114.5 155.5,-114.5"/>
<text text-anchor="middle" x="191" y="-121.5" font-family="Helvetica,sans-Serif" font-size="10.00">ScreenQuad</text>
</a>
</g>
</g>
<!-- Node1&#45;&gt;Node7 -->
<g id="edge6" class="edge"><title>Node1&#45;&gt;Node7</title>
<path fill="none" stroke="midnightblue" d="M61.5544,-220.006C76.0632,-198.763 102.862,-163.711 134,-143 140.411,-138.736 147.872,-135.339 155.218,-132.668"/>
<polygon fill="midnightblue" stroke="midnightblue" points="58.5697,-218.174 55.9464,-228.439 64.3985,-222.05 58.5697,-218.174"/>
</g>
<!-- Node8 -->
<g id="node8" class="node"><title>Node8</title>
<g id="a_node8"><a xlink:href="class_skybox.html" target="_top" xlink:title="Skybox">
<polygon fill="white" stroke="black" points="166,-76.5 166,-95.5 216,-95.5 216,-76.5 166,-76.5"/>
<text text-anchor="middle" x="191" y="-83.5" font-family="Helvetica,sans-Serif" font-size="10.00">Skybox</text>
</a>
</g>
</g>
<!-- Node1&#45;&gt;Node8 -->
<g id="edge7" class="edge"><title>Node1&#45;&gt;Node8</title>
<path fill="none" stroke="midnightblue" d="M57.1001,-219.07C68.8072,-190.35 94.8333,-135.858 134,-105 143.193,-97.7569 155.304,-93.197 165.91,-90.3668"/>
<polygon fill="midnightblue" stroke="midnightblue" points="53.8364,-217.806 53.437,-228.393 60.3516,-220.365 53.8364,-217.806"/>
</g>
<!-- Node9 -->
<g id="node9" class="node"><title>Node9</title>
<g id="a_node9"><a xlink:href="class_starfield.html" target="_top" xlink:title="Starfield">
<polygon fill="white" stroke="black" points="165,-342.5 165,-361.5 217,-361.5 217,-342.5 165,-342.5"/>
<text text-anchor="middle" x="191" y="-349.5" font-family="Helvetica,sans-Serif" font-size="10.00">Starfield</text>
</a>
</g>
</g>
<!-- Node1&#45;&gt;Node9 -->
<g id="edge8" class="edge"><title>Node1&#45;&gt;Node9</title>
<path fill="none" stroke="midnightblue" d="M61.5544,-255.994C76.0632,-277.237 102.862,-312.289 134,-333 143.232,-339.141 154.642,-343.482 164.748,-346.449"/>
<polygon fill="midnightblue" stroke="midnightblue" points="64.3985,-253.95 55.9464,-247.561 58.5697,-257.826 64.3985,-253.95"/>
</g>
<!-- Node10 -->
<g id="node10" class="node"><title>Node10</title>
<g id="a_node10"><a xlink:href="class_stereo_view.html" target="_top" xlink:title="StereoView">
<polygon fill="white" stroke="black" points="158,-38.5 158,-57.5 224,-57.5 224,-38.5 158,-38.5"/>
<text text-anchor="middle" x="191" y="-45.5" font-family="Helvetica,sans-Serif" font-size="10.00">StereoView</text>
</a>
</g>
</g>
<!-- Node1&#45;&gt;Node10 -->
<g id="edge9" class="edge"><title>Node1&#45;&gt;Node10</title>
<path fill="none" stroke="midnightblue" d="M54.3997,-218.252C63.2843,-182.884 86.6819,-108.555 134,-67 140.711,-61.1061 149.329,-57.0238 157.781,-54.2026"/>
<polygon fill="midnightblue" stroke="midnightblue" points="50.9247,-217.737 52.0131,-228.275 57.7343,-219.358 50.9247,-217.737"/>
</g>
<!-- Node11 -->
<g id="node11" class="node"><title>Node11</title>
<g id="a_node11"><a xlink:href="class_voxel_mesh.html" target="_top" xlink:title="VoxelMesh">
<polygon fill="white" stroke="black" points="158.5,-304.5 158.5,-323.5 223.5,-323.5 223.5,-304.5 158.5,-304.5"/>
<text text-anchor="middle" x="191" y="-311.5" font-family="Helvetica,sans-Serif" font-size="10.00">VoxelMesh</text>
</a>
</g>
</g>
<!-- Node1&#45;&gt;Node11 -->
<g id="edge10" class="edge"><title>Node1&#45;&gt;Node11</title>
<path fill="none" stroke="midnightblue" d="M70.165,-253.973C86.6127,-266.422 110.834,-283.475 134,-295 141.629,-298.796 150.198,-302.127 158.295,-304.897"/>
<polygon fill="midnightblue" stroke="midnightblue" points="71.9415,-250.923 61.8833,-247.594 67.67,-256.469 71.9415,-250.923"/>
</g>
<!-- Node12 -->
<g id="node12" class="node"><title>Node12</title>
<g id="a_node12"><a xlink:href="class_voxel_particle_renderer.html" target="_top" xlink:title="VoxelParticleRenderer">
<polygon fill="white" stroke="black" points="134.5,-266.5 134.5,-285.5 247.5,-285.5 247.5,-266.5 134.5,-266.5"/>
<text text-anchor="middle" x="191" y="-273.5" font-family="Helvetica,sans-Serif" font-size="10.00">VoxelParticleRenderer</text>
</a>
</g>
</g>
<!-- Node1&#45;&gt;Node12 -->
<g id="edge11" class="edge"><title>Node1&#45;&gt;Node12</title>
<path fill="none" stroke="midnightblue" d="M95.1176,-250.246C114.415,-255.484 136.612,-261.509 154.683,-266.414"/>
<polygon fill="midnightblue" stroke="midnightblue" points="95.8956,-246.831 85.3279,-247.589 94.0619,-253.586 95.8956,-246.831"/>
</g>
<!-- Node13 -->
<g id="node13" class="node"><title>Node13</title>
<g id="a_node13"><a xlink:href="class_voxel_render_data.html" target="_top" xlink:title="VoxelRenderData">
<polygon fill="white" stroke="black" points="145,-228.5 145,-247.5 237,-247.5 237,-228.5 145,-228.5"/>
<text text-anchor="middle" x="191" y="-235.5" font-family="Helvetica,sans-Serif" font-size="10.00">VoxelRenderData</text>
</a>
</g>
</g>
<!-- Node1&#45;&gt;Node13 -->
<g id="edge12" class="edge"><title>Node1&#45;&gt;Node13</title>
<path fill="none" stroke="midnightblue" d="M107.959,-238C120.25,-238 133.053,-238 144.788,-238"/>
<polygon fill="midnightblue" stroke="midnightblue" points="107.789,-234.5 97.7885,-238 107.788,-241.5 107.789,-234.5"/>
</g>
<!-- Node14 -->
<g id="node14" class="node"><title>Node14</title>
<g id="a_node14"><a xlink:href="class_voxel_renderer.html" target="_top" xlink:title="VoxelRenderer">
<polygon fill="white" stroke="black" points="151,-190.5 151,-209.5 231,-209.5 231,-190.5 151,-190.5"/>
<text text-anchor="middle" x="191" y="-197.5" font-family="Helvetica,sans-Serif" font-size="10.00">VoxelRenderer</text>
</a>
</g>
</g>
<!-- Node1&#45;&gt;Node14 -->
<g id="edge13" class="edge"><title>Node1&#45;&gt;Node14</title>
<path fill="none" stroke="midnightblue" d="M95.1176,-225.754C114.415,-220.516 136.612,-214.491 154.683,-209.586"/>
<polygon fill="midnightblue" stroke="midnightblue" points="94.0619,-222.414 85.3279,-228.411 95.8956,-229.169 94.0619,-222.414"/>
</g>
<!-- Node3 -->
<g id="node3" class="node"><title>Node3</title>
<g id="a_node3"><a xlink:href="class_stereo_blit_program.html" target="_top" xlink:title="StereoBlitProgram">
<polygon fill="white" stroke="black" points="292,-418.5 292,-437.5 388,-437.5 388,-418.5 292,-418.5"/>
<text text-anchor="middle" x="340" y="-425.5" font-family="Helvetica,sans-Serif" font-size="10.00">StereoBlitProgram</text>
</a>
</g>
</g>
<!-- Node2&#45;&gt;Node3 -->
<g id="edge2" class="edge"><title>Node2&#45;&gt;Node3</title>
<path fill="none" stroke="midnightblue" d="M235.435,-428C253.175,-428 273.738,-428 291.844,-428"/>
<polygon fill="midnightblue" stroke="midnightblue" points="235.357,-424.5 225.357,-428 235.357,-431.5 235.357,-424.5"/>
</g>
<!-- Node6 -->
<g id="node6" class="node"><title>Node6</title>
<g id="a_node6"><a xlink:href="class_blitter.html" target="_top" xlink:title="Blitter">
<polygon fill="white" stroke="black" points="319,-380.5 319,-399.5 361,-399.5 361,-380.5 319,-380.5"/>
<text text-anchor="middle" x="340" y="-387.5" font-family="Helvetica,sans-Serif" font-size="10.00">Blitter</text>
</a>
</g>
</g>
<!-- Node5&#45;&gt;Node6 -->
<g id="edge5" class="edge"><title>Node5&#45;&gt;Node6</title>
<path fill="none" stroke="midnightblue" d="M255.143,-390C278.103,-390 302.438,-390 318.945,-390"/>
<polygon fill="midnightblue" stroke="midnightblue" points="255.07,-386.5 245.07,-390 255.07,-393.5 255.07,-386.5"/>
</g>
<!-- Node15 -->
<g id="node15" class="node"><title>Node15</title>
<polygon fill="white" stroke="#bfbfbf" points="22.5,-418.5 22.5,-437.5 75.5,-437.5 75.5,-418.5 22.5,-418.5"/>
<text text-anchor="middle" x="49" y="-425.5" font-family="Helvetica,sans-Serif" font-size="10.00">Program</text>
</g>
<!-- Node15&#45;&gt;Node2 -->
<g id="edge14" class="edge"><title>Node15&#45;&gt;Node2</title>
<path fill="none" stroke="darkgreen" d="M85.8818,-428C107.738,-428 135.468,-428 156.814,-428"/>
<polygon fill="darkgreen" stroke="darkgreen" points="85.6782,-424.5 75.6782,-428 85.6781,-431.5 85.6782,-424.5"/>
</g>
<!-- Node16 -->
<g id="node16" class="node"><title>Node16</title>
<g id="a_node16"><a xlink:href="class_render_pass.html" target="_top" xlink:title="RenderPass">
<polygon fill="white" stroke="black" points="14,-380.5 14,-399.5 84,-399.5 84,-380.5 14,-380.5"/>
<text text-anchor="middle" x="49" y="-387.5" font-family="Helvetica,sans-Serif" font-size="10.00">RenderPass</text>
</a>
</g>
</g>
<!-- Node16&#45;&gt;Node5 -->
<g id="edge15" class="edge"><title>Node16&#45;&gt;Node5</title>
<path fill="none" stroke="midnightblue" d="M94.6345,-390C108.025,-390 122.847,-390 136.736,-390"/>
<polygon fill="midnightblue" stroke="midnightblue" points="94.2479,-386.5 84.2479,-390 94.2478,-393.5 94.2479,-386.5"/>
</g>
<!-- Node16&#45;&gt;Node9 -->
<g id="edge18" class="edge"><title>Node16&#45;&gt;Node9</title>
<path fill="none" stroke="midnightblue" d="M93.9484,-378.071C117.315,-371.729 145.198,-364.16 164.887,-358.816"/>
<polygon fill="midnightblue" stroke="midnightblue" points="92.9818,-374.707 84.2479,-380.704 94.8155,-381.462 92.9818,-374.707"/>
</g>
<!-- Node17 -->
<g id="node17" class="node"><title>Node17</title>
<g id="a_node17"><a xlink:href="class_render_pipeline.html" target="_top" xlink:title="RenderPipeline">
<polygon fill="white" stroke="black" points="150,-456.5 150,-475.5 232,-475.5 232,-456.5 150,-456.5"/>
<text text-anchor="middle" x="191" y="-463.5" font-family="Helvetica,sans-Serif" font-size="10.00">RenderPipeline</text>
</a>
</g>
</g>
<!-- Node16&#45;&gt;Node17 -->
<g id="edge16" class="edge"><title>Node16&#45;&gt;Node17</title>
<path fill="none" stroke="#8b1a1a" d="M89.2511,-403.845C92.2976,-405.425 95.2532,-407.142 98,-409 117.271,-422.033 114.411,-434.45 134,-447 139.878,-450.766 146.585,-453.872 153.265,-456.402"/>
<polygon fill="#8b1a1a" stroke="#8b1a1a" points="90.4996,-400.566 79.9564,-399.521 87.5469,-406.913 90.4996,-400.566"/>
</g>
<!-- Node18 -->
<g id="node18" class="node"><title>Node18</title>
<g id="a_node18"><a xlink:href="class_default_render_pipeline.html" target="_top" xlink:title="DefaultRenderPipeline">
<polygon fill="white" stroke="black" points="284,-456.5 284,-475.5 396,-475.5 396,-456.5 284,-456.5"/>
<text text-anchor="middle" x="340" y="-463.5" font-family="Helvetica,sans-Serif" font-size="10.00">DefaultRenderPipeline</text>
</a>
</g>
</g>
<!-- Node17&#45;&gt;Node18 -->
<g id="edge17" class="edge"><title>Node17&#45;&gt;Node18</title>
<path fill="none" stroke="midnightblue" d="M242.542,-466C255.822,-466 270.213,-466 283.727,-466"/>
<polygon fill="midnightblue" stroke="midnightblue" points="242.168,-462.5 232.168,-466 242.168,-469.5 242.168,-462.5"/>
</g>
<!-- Node19 -->
<g id="node19" class="node"><title>Node19</title>
<g id="a_node19"><a xlink:href="class_view.html" target="_top" xlink:title="View">
<polygon fill="white" stroke="black" points="30,-19.5 30,-38.5 68,-38.5 68,-19.5 30,-19.5"/>
<text text-anchor="middle" x="49" y="-26.5" font-family="Helvetica,sans-Serif" font-size="10.00">View</text>
</a>
</g>
</g>
<!-- Node19&#45;&gt;Node10 -->
<g id="edge20" class="edge"><title>Node19&#45;&gt;Node10</title>
<path fill="none" stroke="midnightblue" d="M78.1779,-32.8241C101.231,-35.9528 133.839,-40.3781 157.897,-43.6432"/>
<polygon fill="midnightblue" stroke="midnightblue" points="78.3958,-29.3217 68.0159,-31.445 77.4544,-36.2581 78.3958,-29.3217"/>
</g>
<!-- Node20 -->
<g id="node20" class="node"><title>Node20</title>
<g id="a_node20"><a xlink:href="class_mono_view.html" target="_top" xlink:title="MonoView">
<polygon fill="white" stroke="black" points="160,-0.5 160,-19.5 222,-19.5 222,-0.5 160,-0.5"/>
<text text-anchor="middle" x="191" y="-7.5" font-family="Helvetica,sans-Serif" font-size="10.00">MonoView</text>
</a>
</g>
</g>
<!-- Node19&#45;&gt;Node20 -->
<g id="edge19" class="edge"><title>Node19&#45;&gt;Node20</title>
<path fill="none" stroke="midnightblue" d="M78.1076,-25.1854C101.773,-21.9737 135.544,-17.3905 159.785,-14.1006"/>
<polygon fill="midnightblue" stroke="midnightblue" points="77.4544,-21.7419 68.0159,-26.555 78.3958,-28.6783 77.4544,-21.7419"/>
</g>
</g>
</svg>
