<?xml version="1.0" encoding="UTF-8" standalone="no"?>
<!DOCTYPE svg PUBLIC "-//W3C//DTD SVG 1.1//EN"
 "http://www.w3.org/Graphics/SVG/1.1/DTD/svg11.dtd">
<!-- Generated by graphviz version 2.36.0 (20140111.2315)
 -->
<!-- Title: Graphical Class Hierarchy Pages: 1 -->
<svg width="206pt" height="142pt"
 viewBox="0.00 0.00 206.00 142.00" xmlns="http://www.w3.org/2000/svg" xmlns:xlink="http://www.w3.org/1999/xlink">
<g id="graph0" class="graph" transform="scale(1 1) rotate(0) translate(4 138)">
<title>Graphical Class Hierarchy</title>
<polygon fill="white" stroke="none" points="-4,4 -4,-138 202,-138 202,4 -4,4"/>
<!-- Node1 -->
<g id="node1" class="node"><title>Node1</title>
<g id="a_node1"><a xlink:href="class_bindings.html" target="_top" xlink:title="Bindings">
<polygon fill="white" stroke="black" points="0,-57.5 0,-76.5 54,-76.5 54,-57.5 0,-57.5"/>
<text text-anchor="middle" x="27" y="-64.5" font-family="Helvetica,sans-Serif" font-size="10.00">Bindings</text>
</a>
</g>
</g>
<!-- Node2 -->
<g id="node2" class="node"><title>Node2</title>
<g id="a_node2"><a xlink:href="class_ai_bindings.html" target="_top" xlink:title="AiBindings">
<polygon fill="white" stroke="black" points="112.5,-114.5 112.5,-133.5 175.5,-133.5 175.5,-114.5 112.5,-114.5"/>
<text text-anchor="middle" x="144" y="-121.5" font-family="Helvetica,sans-Serif" font-size="10.00">AiBindings</text>
</a>
</g>
</g>
<!-- Node1&#45;&gt;Node2 -->
<g id="edge1" class="edge"><title>Node1&#45;&gt;Node2</title>
<path fill="none" stroke="midnightblue" d="M50.354,-82.2456C61.8772,-89.7011 76.3461,-98.4543 90,-105 97.2277,-108.465 105.263,-111.66 112.847,-114.402"/>
<polygon fill="midnightblue" stroke="midnightblue" points="52.0903,-79.198 41.816,-76.6116 48.2349,-85.0406 52.0903,-79.198"/>
</g>
<!-- Node3 -->
<g id="node3" class="node"><title>Node3</title>
<g id="a_node3"><a xlink:href="class_common_bindings.html" target="_top" xlink:title="CommonBindings">
<polygon fill="white" stroke="black" points="97.5,-76.5 97.5,-95.5 190.5,-95.5 190.5,-76.5 97.5,-76.5"/>
<text text-anchor="middle" x="144" y="-83.5" font-family="Helvetica,sans-Serif" font-size="10.00">CommonBindings</text>
</a>
</g>
</g>
<!-- Node1&#45;&gt;Node3 -->
<g id="edge2" class="edge"><title>Node1&#45;&gt;Node3</title>
<path fill="none" stroke="midnightblue" d="M64.1303,-72.9694C74.5949,-74.6983 86.1605,-76.6091 97.1359,-78.4224"/>
<polygon fill="midnightblue" stroke="midnightblue" points="64.5321,-69.4884 54.0953,-71.3114 63.391,-76.3947 64.5321,-69.4884"/>
</g>
<!-- Node4 -->
<g id="node4" class="node"><title>Node4</title>
<g id="a_node4"><a xlink:href="class_squad_bindings.html" target="_top" xlink:title="SquadBindings">
<polygon fill="white" stroke="black" points="103,-38.5 103,-57.5 185,-57.5 185,-38.5 103,-38.5"/>
<text text-anchor="middle" x="144" y="-45.5" font-family="Helvetica,sans-Serif" font-size="10.00">SquadBindings</text>
</a>
</g>
</g>
<!-- Node1&#45;&gt;Node4 -->
<g id="edge3" class="edge"><title>Node1&#45;&gt;Node4</title>
<path fill="none" stroke="midnightblue" d="M63.9669,-61.0576C76.2166,-59.0338 89.9904,-56.7581 102.566,-54.6803"/>
<polygon fill="midnightblue" stroke="midnightblue" points="63.391,-57.6053 54.0953,-62.6886 64.5321,-64.5116 63.391,-57.6053"/>
</g>
<!-- Node5 -->
<g id="node5" class="node"><title>Node5</title>
<g id="a_node5"><a xlink:href="class_world_object_bindings.html" target="_top" xlink:title="WorldObjectBindings">
<polygon fill="white" stroke="black" points="90,-0.5 90,-19.5 198,-19.5 198,-0.5 90,-0.5"/>
<text text-anchor="middle" x="144" y="-7.5" font-family="Helvetica,sans-Serif" font-size="10.00">WorldObjectBindings</text>
</a>
</g>
</g>
<!-- Node1&#45;&gt;Node5 -->
<g id="edge4" class="edge"><title>Node1&#45;&gt;Node5</title>
<path fill="none" stroke="midnightblue" d="M50.354,-51.7544C61.8772,-44.2989 76.3461,-35.5457 90,-29 97.2277,-25.535 105.263,-22.3404 112.847,-19.5984"/>
<polygon fill="midnightblue" stroke="midnightblue" points="48.2349,-48.9594 41.816,-57.3884 52.0903,-54.802 48.2349,-48.9594"/>
</g>
</g>
</svg>
