<?xml version="1.0" encoding="UTF-8" standalone="no"?>
<!DOCTYPE svg PUBLIC "-//W3C//DTD SVG 1.1//EN"
 "http://www.w3.org/Graphics/SVG/1.1/DTD/svg11.dtd">
<!-- Generated by graphviz version 2.36.0 (20140111.2315)
 -->
<!-- Title: Graphical Class Hierarchy Pages: 1 -->
<svg width="196pt" height="66pt"
 viewBox="0.00 0.00 196.00 66.00" xmlns="http://www.w3.org/2000/svg" xmlns:xlink="http://www.w3.org/1999/xlink">
<g id="graph0" class="graph" transform="scale(1 1) rotate(0) translate(4 62)">
<title>Graphical Class Hierarchy</title>
<polygon fill="white" stroke="none" points="-4,4 -4,-62 192,-62 192,4 -4,4"/>
<!-- Node1 -->
<g id="node1" class="node"><title>Node1</title>
<g id="a_node1"><a xlink:href="class_world_object_slot.html" target="_top" xlink:title="WorldObjectSlot">
<polygon fill="white" stroke="black" points="0,-19.5 0,-38.5 88,-38.5 88,-19.5 0,-19.5"/>
<text text-anchor="middle" x="44" y="-26.5" font-family="Helvetica,sans-Serif" font-size="10.00">WorldObjectSlot</text>
</a>
</g>
</g>
<!-- Node2 -->
<g id="node2" class="node"><title>Node2</title>
<g id="a_node2"><a xlink:href="class_engine_slot.html" target="_top" xlink:title="EngineSlot">
<polygon fill="white" stroke="black" points="124,-38.5 124,-57.5 188,-57.5 188,-38.5 124,-38.5"/>
<text text-anchor="middle" x="156" y="-45.5" font-family="Helvetica,sans-Serif" font-size="10.00">EngineSlot</text>
</a>
</g>
</g>
<!-- Node1&#45;&gt;Node2 -->
<g id="edge1" class="edge"><title>Node1&#45;&gt;Node2</title>
<path fill="none" stroke="midnightblue" d="M98.0612,-38.1651C106.9,-39.6918 115.805,-41.23 123.863,-42.6218"/>
<polygon fill="midnightblue" stroke="midnightblue" points="98.609,-34.708 88.1592,-36.4548 97.4175,-41.6059 98.609,-34.708"/>
</g>
<!-- Node3 -->
<g id="node3" class="node"><title>Node3</title>
<g id="a_node3"><a xlink:href="class_hardpoint.html" target="_top" xlink:title="Hardpoint">
<polygon fill="white" stroke="black" points="127,-0.5 127,-19.5 185,-19.5 185,-0.5 127,-0.5"/>
<text text-anchor="middle" x="156" y="-7.5" font-family="Helvetica,sans-Serif" font-size="10.00">Hardpoint</text>
</a>
</g>
</g>
<!-- Node1&#45;&gt;Node3 -->
<g id="edge2" class="edge"><title>Node1&#45;&gt;Node3</title>
<path fill="none" stroke="midnightblue" d="M98.0353,-19.8394C107.988,-18.1202 118.027,-16.3862 126.846,-14.8629"/>
<polygon fill="midnightblue" stroke="midnightblue" points="97.4175,-16.3941 88.1592,-21.5452 98.609,-23.292 97.4175,-16.3941"/>
</g>
</g>
</svg>
