<?xml version="1.0" encoding="UTF-8" standalone="no"?>
<!DOCTYPE svg PUBLIC "-//W3C//DTD SVG 1.1//EN"
 "http://www.w3.org/Graphics/SVG/1.1/DTD/svg11.dtd">
<!-- Generated by graphviz version 2.36.0 (20140111.2315)
 -->
<!-- Title: Graphical Class Hierarchy Pages: 1 -->
<svg width="298pt" height="66pt"
 viewBox="0.00 0.00 298.00 66.00" xmlns="http://www.w3.org/2000/svg" xmlns:xlink="http://www.w3.org/1999/xlink">
<g id="graph0" class="graph" transform="scale(1 1) rotate(0) translate(4 62)">
<title>Graphical Class Hierarchy</title>
<polygon fill="white" stroke="none" points="-4,4 -4,-62 294,-62 294,4 -4,4"/>
<!-- Node1 -->
<g id="node1" class="node"><title>Node1</title>
<g id="a_node1"><a xlink:href="class_voxel_particle_spawn_base.html" target="_top" xlink:title="VoxelParticleSpawnBase">
<polygon fill="white" stroke="black" points="0,-19.5 0,-38.5 126,-38.5 126,-19.5 0,-19.5"/>
<text text-anchor="middle" x="63" y="-26.5" font-family="Helvetica,sans-Serif" font-size="10.00">VoxelParticleSpawnBase</text>
</a>
</g>
</g>
<!-- Node2 -->
<g id="node2" class="node"><title>Node2</title>
<g id="a_node2"><a xlink:href="class_voxel_debris_generator.html" target="_top" xlink:title="VoxelDebrisGenerator">
<polygon fill="white" stroke="black" points="170,-38.5 170,-57.5 282,-57.5 282,-38.5 170,-38.5"/>
<text text-anchor="middle" x="226" y="-45.5" font-family="Helvetica,sans-Serif" font-size="10.00">VoxelDebrisGenerator</text>
</a>
</g>
</g>
<!-- Node1&#45;&gt;Node2 -->
<g id="edge1" class="edge"><title>Node1&#45;&gt;Node2</title>
<path fill="none" stroke="midnightblue" d="M136.435,-37.5483C147.621,-38.8683 159.016,-40.2131 169.746,-41.4793"/>
<polygon fill="midnightblue" stroke="midnightblue" points="136.588,-34.0421 126.247,-36.3459 135.768,-40.9939 136.588,-34.0421"/>
</g>
<!-- Node3 -->
<g id="node3" class="node"><title>Node3</title>
<g id="a_node3"><a xlink:href="class_voxel_explosion_generator.html" target="_top" xlink:title="VoxelExplosionGenerator">
<polygon fill="white" stroke="black" points="162.5,-0.5 162.5,-19.5 289.5,-19.5 289.5,-0.5 162.5,-0.5"/>
<text text-anchor="middle" x="226" y="-7.5" font-family="Helvetica,sans-Serif" font-size="10.00">VoxelExplosionGenerator</text>
</a>
</g>
</g>
<!-- Node1&#45;&gt;Node3 -->
<g id="edge2" class="edge"><title>Node1&#45;&gt;Node3</title>
<path fill="none" stroke="midnightblue" d="M136.359,-20.4607C145.044,-19.4358 153.857,-18.3957 162.388,-17.389"/>
<polygon fill="midnightblue" stroke="midnightblue" points="135.768,-17.0061 126.247,-21.6541 136.588,-23.9579 135.768,-17.0061"/>
</g>
</g>
</svg>
