<?xml version="1.0" encoding="UTF-8" standalone="no"?>
<!DOCTYPE svg PUBLIC "-//W3C//DTD SVG 1.1//EN"
 "http://www.w3.org/Graphics/SVG/1.1/DTD/svg11.dtd">
<!-- Generated by graphviz version 2.36.0 (20140111.2315)
 -->
<!-- Title: Graphical Class Hierarchy Pages: 1 -->
<svg width="622pt" height="541pt"
 viewBox="0.00 0.00 622.00 541.00" xmlns="http://www.w3.org/2000/svg" xmlns:xlink="http://www.w3.org/1999/xlink">
<g id="graph0" class="graph" transform="scale(1 1) rotate(0) translate(4 537)">
<title>Graphical Class Hierarchy</title>
<polygon fill="white" stroke="none" points="-4,4 -4,-537 618,-537 618,4 -4,4"/>
<!-- Node1 -->
<g id="node1" class="node"><title>Node1</title>
<g id="a_node1"><a xlink:href="class_scriptable.html" target="_top" xlink:title="Scriptable">
<polygon fill="white" stroke="black" points="6,-209.5 6,-228.5 66,-228.5 66,-209.5 6,-209.5"/>
<text text-anchor="middle" x="36" y="-216.5" font-family="Helvetica,sans-Serif" font-size="10.00">Scriptable</text>
</a>
</g>
</g>
<!-- Node2 -->
<g id="node2" class="node"><title>Node2</title>
<g id="a_node2"><a xlink:href="class_ai_group_task.html" target="_top" xlink:title="AiGroupTask">
<polygon fill="white" stroke="black" points="119.5,-475.5 119.5,-494.5 192.5,-494.5 192.5,-475.5 119.5,-475.5"/>
<text text-anchor="middle" x="156" y="-482.5" font-family="Helvetica,sans-Serif" font-size="10.00">AiGroupTask</text>
</a>
</g>
</g>
<!-- Node1&#45;&gt;Node2 -->
<g id="edge1" class="edge"><title>Node1&#45;&gt;Node2</title>
<path fill="none" stroke="midnightblue" d="M44.4794,-238.166C57.0002,-269.978 83.2698,-335.573 108,-390 122.387,-421.663 141.148,-458.354 149.983,-475.391"/>
<polygon fill="midnightblue" stroke="midnightblue" points="47.6915,-236.77 40.7824,-228.738 41.1746,-239.326 47.6915,-236.77"/>
</g>
<!-- Node5 -->
<g id="node5" class="node"><title>Node5</title>
<g id="a_node5"><a xlink:href="class_ai_task.html" target="_top" xlink:title="AiTask">
<polygon fill="white" stroke="black" points="132.5,-361.5 132.5,-380.5 179.5,-380.5 179.5,-361.5 132.5,-361.5"/>
<text text-anchor="middle" x="156" y="-368.5" font-family="Helvetica,sans-Serif" font-size="10.00">AiTask</text>
</a>
</g>
</g>
<!-- Node1&#45;&gt;Node5 -->
<g id="edge4" class="edge"><title>Node1&#45;&gt;Node5</title>
<path fill="none" stroke="midnightblue" d="M50.6733,-236.613C75.7401,-268.903 128.254,-336.548 147.621,-361.495"/>
<polygon fill="midnightblue" stroke="midnightblue" points="53.2784,-234.261 44.3814,-228.508 47.749,-238.554 53.2784,-234.261"/>
</g>
<!-- Node10 -->
<g id="node10" class="node"><title>Node10</title>
<g id="a_node10"><a xlink:href="class_event_poll.html" target="_top" xlink:title="EventPoll">
<polygon fill="white" stroke="black" points="127.5,-228.5 127.5,-247.5 184.5,-247.5 184.5,-228.5 127.5,-228.5"/>
<text text-anchor="middle" x="156" y="-235.5" font-family="Helvetica,sans-Serif" font-size="10.00">EventPoll</text>
</a>
</g>
</g>
<!-- Node1&#45;&gt;Node10 -->
<g id="edge9" class="edge"><title>Node1&#45;&gt;Node10</title>
<path fill="none" stroke="midnightblue" d="M76.2349,-225.317C92.9924,-228.016 112.155,-231.101 127.383,-233.553"/>
<polygon fill="midnightblue" stroke="midnightblue" points="76.5978,-221.831 66.1685,-223.697 75.485,-228.742 76.5978,-221.831"/>
</g>
<!-- Node18 -->
<g id="node18" class="node"><title>Node18</title>
<g id="a_node18"><a xlink:href="class_mission.html" target="_top" xlink:title="Mission">
<polygon fill="white" stroke="black" points="131,-190.5 131,-209.5 181,-209.5 181,-190.5 131,-190.5"/>
<text text-anchor="middle" x="156" y="-197.5" font-family="Helvetica,sans-Serif" font-size="10.00">Mission</text>
</a>
</g>
</g>
<!-- Node1&#45;&gt;Node18 -->
<g id="edge17" class="edge"><title>Node1&#45;&gt;Node18</title>
<path fill="none" stroke="midnightblue" d="M76.1622,-212.694C94.2657,-209.779 115.189,-206.41 130.93,-203.876"/>
<polygon fill="midnightblue" stroke="midnightblue" points="75.485,-209.258 66.1685,-214.303 76.5978,-216.169 75.485,-209.258"/>
</g>
<!-- Node19 -->
<g id="node19" class="node"><title>Node19</title>
<g id="a_node19"><a xlink:href="class_squad.html" target="_top" xlink:title="Squad">
<polygon fill="white" stroke="black" points="134,-152.5 134,-171.5 178,-171.5 178,-152.5 134,-152.5"/>
<text text-anchor="middle" x="156" y="-159.5" font-family="Helvetica,sans-Serif" font-size="10.00">Squad</text>
</a>
</g>
</g>
<!-- Node1&#45;&gt;Node19 -->
<g id="edge18" class="edge"><title>Node1&#45;&gt;Node19</title>
<path fill="none" stroke="midnightblue" d="M62.7253,-204.372C76.061,-197.01 92.7162,-188.154 108,-181 116.29,-177.12 125.601,-173.256 133.736,-170.037"/>
<polygon fill="midnightblue" stroke="midnightblue" points="60.6973,-201.495 53.6686,-209.423 64.107,-207.609 60.6973,-201.495"/>
</g>
<!-- Node20 -->
<g id="node20" class="node"><title>Node20</title>
<g id="a_node20"><a xlink:href="class_world_object.html" target="_top" xlink:title="WorldObject">
<polygon fill="white" stroke="black" points="120.5,-76.5 120.5,-95.5 191.5,-95.5 191.5,-76.5 120.5,-76.5"/>
<text text-anchor="middle" x="156" y="-83.5" font-family="Helvetica,sans-Serif" font-size="10.00">WorldObject</text>
</a>
</g>
</g>
<!-- Node1&#45;&gt;Node20 -->
<g id="edge19" class="edge"><title>Node1&#45;&gt;Node20</title>
<path fill="none" stroke="midnightblue" d="M52.1349,-201.941C77.1445,-173.752 126.315,-118.332 146.272,-95.8372"/>
<polygon fill="midnightblue" stroke="midnightblue" points="49.5048,-199.632 45.4863,-209.435 54.7411,-204.277 49.5048,-199.632"/>
</g>
<!-- Node3 -->
<g id="node3" class="node"><title>Node3</title>
<g id="a_node3"><a xlink:href="class_defend_area_task.html" target="_top" xlink:title="DefendAreaTask">
<polygon fill="white" stroke="black" points="262,-513.5 262,-532.5 350,-532.5 350,-513.5 262,-513.5"/>
<text text-anchor="middle" x="306" y="-520.5" font-family="Helvetica,sans-Serif" font-size="10.00">DefendAreaTask</text>
</a>
</g>
</g>
<!-- Node2&#45;&gt;Node3 -->
<g id="edge2" class="edge"><title>Node2&#45;&gt;Node3</title>
<path fill="none" stroke="midnightblue" d="M202.784,-496.755C223.721,-502.131 248.203,-508.417 267.958,-513.489"/>
<polygon fill="midnightblue" stroke="midnightblue" points="203.383,-493.296 192.827,-494.199 201.642,-500.076 203.383,-493.296"/>
</g>
<!-- Node4 -->
<g id="node4" class="node"><title>Node4</title>
<g id="a_node4"><a xlink:href="class_patrol_waypoints_task.html" target="_top" xlink:title="PatrolWaypointsTask">
<polygon fill="white" stroke="black" points="251,-475.5 251,-494.5 361,-494.5 361,-475.5 251,-475.5"/>
<text text-anchor="middle" x="306" y="-482.5" font-family="Helvetica,sans-Serif" font-size="10.00">PatrolWaypointsTask</text>
</a>
</g>
</g>
<!-- Node2&#45;&gt;Node4 -->
<g id="edge3" class="edge"><title>Node2&#45;&gt;Node4</title>
<path fill="none" stroke="midnightblue" d="M202.964,-485C218.086,-485 235.041,-485 250.721,-485"/>
<polygon fill="midnightblue" stroke="midnightblue" points="202.827,-481.5 192.827,-485 202.827,-488.5 202.827,-481.5"/>
</g>
<!-- Node6 -->
<g id="node6" class="node"><title>Node6</title>
<g id="a_node6"><a xlink:href="class_direct_suicide_task.html" target="_top" xlink:title="DirectSuicideTask">
<polygon fill="white" stroke="black" points="258.5,-437.5 258.5,-456.5 353.5,-456.5 353.5,-437.5 258.5,-437.5"/>
<text text-anchor="middle" x="306" y="-444.5" font-family="Helvetica,sans-Serif" font-size="10.00">DirectSuicideTask</text>
</a>
</g>
</g>
<!-- Node5&#45;&gt;Node6 -->
<g id="edge5" class="edge"><title>Node5&#45;&gt;Node6</title>
<path fill="none" stroke="midnightblue" d="M176.486,-387.041C192.65,-399.671 216.681,-416.934 240,-428 247.754,-431.68 256.371,-434.806 264.729,-437.395"/>
<polygon fill="midnightblue" stroke="midnightblue" points="178.37,-384.067 168.369,-380.569 174.006,-389.54 178.37,-384.067"/>
</g>
<!-- Node7 -->
<g id="node7" class="node"><title>Node7</title>
<g id="a_node7"><a xlink:href="class_fight_task.html" target="_top" xlink:title="FightTask">
<polygon fill="white" stroke="black" points="276.5,-399.5 276.5,-418.5 335.5,-418.5 335.5,-399.5 276.5,-399.5"/>
<text text-anchor="middle" x="306" y="-406.5" font-family="Helvetica,sans-Serif" font-size="10.00">FightTask</text>
</a>
</g>
</g>
<!-- Node5&#45;&gt;Node7 -->
<g id="edge6" class="edge"><title>Node5&#45;&gt;Node7</title>
<path fill="none" stroke="midnightblue" d="M189.552,-379.358C215.494,-386.019 251.468,-395.255 276.333,-401.639"/>
<polygon fill="midnightblue" stroke="midnightblue" points="190.357,-375.951 179.801,-376.854 188.616,-382.731 190.357,-375.951"/>
</g>
<!-- Node8 -->
<g id="node8" class="node"><title>Node8</title>
<g id="a_node8"><a xlink:href="class_fly_to_task.html" target="_top" xlink:title="FlyToTask">
<polygon fill="white" stroke="black" points="275,-361.5 275,-380.5 337,-380.5 337,-361.5 275,-361.5"/>
<text text-anchor="middle" x="306" y="-368.5" font-family="Helvetica,sans-Serif" font-size="10.00">FlyToTask</text>
</a>
</g>
</g>
<!-- Node5&#45;&gt;Node8 -->
<g id="edge7" class="edge"><title>Node5&#45;&gt;Node8</title>
<path fill="none" stroke="midnightblue" d="M190.035,-371C215.386,-371 250.101,-371 274.733,-371"/>
<polygon fill="midnightblue" stroke="midnightblue" points="189.801,-367.5 179.801,-371 189.801,-374.5 189.801,-367.5"/>
</g>
<!-- Node9 -->
<g id="node9" class="node"><title>Node9</title>
<g id="a_node9"><a xlink:href="class_formation_member_task.html" target="_top" xlink:title="FormationMemberTask">
<polygon fill="white" stroke="black" points="248,-323.5 248,-342.5 364,-342.5 364,-323.5 248,-323.5"/>
<text text-anchor="middle" x="306" y="-330.5" font-family="Helvetica,sans-Serif" font-size="10.00">FormationMemberTask</text>
</a>
</g>
</g>
<!-- Node5&#45;&gt;Node9 -->
<g id="edge8" class="edge"><title>Node5&#45;&gt;Node9</title>
<path fill="none" stroke="midnightblue" d="M189.795,-362.58C212.865,-356.656 243.778,-348.719 267.774,-342.558"/>
<polygon fill="midnightblue" stroke="midnightblue" points="188.616,-359.269 179.801,-365.146 190.357,-366.049 188.616,-359.269"/>
</g>
<!-- Node11 -->
<g id="node11" class="node"><title>Node11</title>
<g id="a_node11"><a xlink:href="class_a_a_b_b_entered_poll.html" target="_top" xlink:title="AABBEnteredPoll">
<polygon fill="white" stroke="black" points="259,-285.5 259,-304.5 353,-304.5 353,-285.5 259,-285.5"/>
<text text-anchor="middle" x="306" y="-292.5" font-family="Helvetica,sans-Serif" font-size="10.00">AABBEnteredPoll</text>
</a>
</g>
</g>
<!-- Node10&#45;&gt;Node11 -->
<g id="edge10" class="edge"><title>Node10&#45;&gt;Node11</title>
<path fill="none" stroke="midnightblue" d="M185.045,-252.071C200.931,-259.728 221.308,-269.031 240,-276 249.254,-279.45 259.433,-282.682 268.934,-285.467"/>
<polygon fill="midnightblue" stroke="midnightblue" points="186.311,-248.795 175.789,-247.552 183.24,-255.085 186.311,-248.795"/>
</g>
<!-- Node12 -->
<g id="node12" class="node"><title>Node12</title>
<g id="a_node12"><a xlink:href="class_ai_task_finished_poll.html" target="_top" xlink:title="AiTaskFinishedPoll">
<polygon fill="white" stroke="black" points="256,-247.5 256,-266.5 356,-266.5 356,-247.5 256,-247.5"/>
<text text-anchor="middle" x="306" y="-254.5" font-family="Helvetica,sans-Serif" font-size="10.00">AiTaskFinishedPoll</text>
</a>
</g>
</g>
<!-- Node10&#45;&gt;Node12 -->
<g id="edge11" class="edge"><title>Node10&#45;&gt;Node12</title>
<path fill="none" stroke="midnightblue" d="M194.939,-242.871C213.435,-245.245 235.909,-248.13 255.715,-250.673"/>
<polygon fill="midnightblue" stroke="midnightblue" points="195.202,-239.376 184.838,-241.574 194.311,-246.319 195.202,-239.376"/>
</g>
<!-- Node13 -->
<g id="node13" class="node"><title>Node13</title>
<g id="a_node13"><a xlink:href="class_mission_state_poll.html" target="_top" xlink:title="MissionStatePoll">
<polygon fill="white" stroke="black" points="261,-209.5 261,-228.5 351,-228.5 351,-209.5 261,-209.5"/>
<text text-anchor="middle" x="306" y="-216.5" font-family="Helvetica,sans-Serif" font-size="10.00">MissionStatePoll</text>
</a>
</g>
</g>
<!-- Node10&#45;&gt;Node13 -->
<g id="edge12" class="edge"><title>Node10&#45;&gt;Node13</title>
<path fill="none" stroke="midnightblue" d="M194.906,-233.134C215.074,-230.545 239.978,-227.347 260.996,-224.649"/>
<polygon fill="midnightblue" stroke="midnightblue" points="194.311,-229.681 184.838,-234.426 195.202,-236.624 194.311,-229.681"/>
</g>
<!-- Node14 -->
<g id="node14" class="node"><title>Node14</title>
<g id="a_node14"><a xlink:href="class_timer.html" target="_top" xlink:title="Timer">
<polygon fill="white" stroke="black" points="285.5,-171.5 285.5,-190.5 326.5,-190.5 326.5,-171.5 285.5,-171.5"/>
<text text-anchor="middle" x="306" y="-178.5" font-family="Helvetica,sans-Serif" font-size="10.00">Timer</text>
</a>
</g>
</g>
<!-- Node10&#45;&gt;Node14 -->
<g id="edge13" class="edge"><title>Node10&#45;&gt;Node14</title>
<path fill="none" stroke="midnightblue" d="M191.348,-224.586C195.636,-222.774 199.939,-220.886 204,-219 220.408,-211.378 223.233,-206.795 240,-200 254.819,-193.995 272.238,-189.008 285.311,-185.652"/>
<polygon fill="midnightblue" stroke="midnightblue" points="189.992,-221.359 182.082,-228.408 192.661,-227.831 189.992,-221.359"/>
</g>
<!-- Node17 -->
<g id="node17" class="node"><title>Node17</title>
<g id="a_node17"><a xlink:href="class_world_object_destroyed_poll.html" target="_top" xlink:title="WorldObjectDestroyedPoll">
<polygon fill="white" stroke="black" points="240.5,-133.5 240.5,-152.5 371.5,-152.5 371.5,-133.5 240.5,-133.5"/>
<text text-anchor="middle" x="306" y="-140.5" font-family="Helvetica,sans-Serif" font-size="10.00">WorldObjectDestroyedPoll</text>
</a>
</g>
</g>
<!-- Node10&#45;&gt;Node17 -->
<g id="edge16" class="edge"><title>Node10&#45;&gt;Node17</title>
<path fill="none" stroke="midnightblue" d="M193.996,-225.709C197.561,-223.757 200.971,-221.53 204,-219 226.997,-199.793 216.073,-180.036 240,-162 245.164,-158.108 251.109,-155.011 257.261,-152.547"/>
<polygon fill="midnightblue" stroke="midnightblue" points="192.474,-222.556 184.946,-230.011 195.48,-228.878 192.474,-222.556"/>
</g>
<!-- Node15 -->
<g id="node15" class="node"><title>Node15</title>
<g id="a_node15"><a xlink:href="class_looping_timer.html" target="_top" xlink:title="LoopingTimer">
<polygon fill="white" stroke="black" points="415,-171.5 415,-190.5 489,-190.5 489,-171.5 415,-171.5"/>
<text text-anchor="middle" x="452" y="-178.5" font-family="Helvetica,sans-Serif" font-size="10.00">LoopingTimer</text>
</a>
</g>
</g>
<!-- Node14&#45;&gt;Node15 -->
<g id="edge14" class="edge"><title>Node14&#45;&gt;Node15</title>
<path fill="none" stroke="midnightblue" d="M336.786,-181C359.471,-181 390.802,-181 414.911,-181"/>
<polygon fill="midnightblue" stroke="midnightblue" points="336.721,-177.5 326.721,-181 336.721,-184.5 336.721,-177.5"/>
</g>
<!-- Node16 -->
<g id="node16" class="node"><title>Node16</title>
<g id="a_node16"><a xlink:href="class_single_shot_timer.html" target="_top" xlink:title="SingleShotTimer">
<polygon fill="white" stroke="black" points="408,-133.5 408,-152.5 496,-152.5 496,-133.5 408,-133.5"/>
<text text-anchor="middle" x="452" y="-140.5" font-family="Helvetica,sans-Serif" font-size="10.00">SingleShotTimer</text>
</a>
</g>
</g>
<!-- Node14&#45;&gt;Node16 -->
<g id="edge15" class="edge"><title>Node14&#45;&gt;Node16</title>
<path fill="none" stroke="midnightblue" d="M336.478,-173.221C359.188,-167.228 390.693,-158.914 414.911,-152.523"/>
<polygon fill="midnightblue" stroke="midnightblue" points="335.497,-169.86 326.721,-175.796 337.283,-176.628 335.497,-169.86"/>
</g>
<!-- Node21 -->
<g id="node21" class="node"><title>Node21</title>
<g id="a_node21"><a xlink:href="class_generic_world_object.html" target="_top" xlink:title="GenericWorldObject">
<polygon fill="white" stroke="black" points="254,-95.5 254,-114.5 358,-114.5 358,-95.5 254,-95.5"/>
<text text-anchor="middle" x="306" y="-102.5" font-family="Helvetica,sans-Serif" font-size="10.00">GenericWorldObject</text>
</a>
</g>
</g>
<!-- Node20&#45;&gt;Node21 -->
<g id="edge20" class="edge"><title>Node20&#45;&gt;Node21</title>
<path fill="none" stroke="midnightblue" d="M201.633,-91.7299C218.129,-93.8476 236.949,-96.2637 253.969,-98.4487"/>
<polygon fill="midnightblue" stroke="midnightblue" points="202.064,-88.2566 191.699,-90.4547 201.172,-95.1996 202.064,-88.2566"/>
</g>
<!-- Node22 -->
<g id="node22" class="node"><title>Node22</title>
<g id="a_node22"><a xlink:href="class_projectile.html" target="_top" xlink:title="Projectile">
<polygon fill="white" stroke="black" points="277.5,-57.5 277.5,-76.5 334.5,-76.5 334.5,-57.5 277.5,-57.5"/>
<text text-anchor="middle" x="306" y="-64.5" font-family="Helvetica,sans-Serif" font-size="10.00">Projectile</text>
</a>
</g>
</g>
<!-- Node20&#45;&gt;Node22 -->
<g id="edge21" class="edge"><title>Node20&#45;&gt;Node22</title>
<path fill="none" stroke="midnightblue" d="M201.896,-80.2363C226.51,-77.0764 256.235,-73.2603 277.432,-70.5391"/>
<polygon fill="midnightblue" stroke="midnightblue" points="201.172,-76.8004 191.699,-81.5453 202.064,-83.7434 201.172,-76.8004"/>
</g>
<!-- Node27 -->
<g id="node27" class="node"><title>Node27</title>
<g id="a_node27"><a xlink:href="class_ship.html" target="_top" xlink:title="Ship">
<polygon fill="white" stroke="black" points="288,-19.5 288,-38.5 324,-38.5 324,-19.5 288,-19.5"/>
<text text-anchor="middle" x="306" y="-26.5" font-family="Helvetica,sans-Serif" font-size="10.00">Ship</text>
</a>
</g>
</g>
<!-- Node20&#45;&gt;Node27 -->
<g id="edge26" class="edge"><title>Node20&#45;&gt;Node27</title>
<path fill="none" stroke="midnightblue" d="M191.348,-72.5865C195.636,-70.7736 199.939,-68.8865 204,-67 220.408,-59.3777 223.233,-54.7946 240,-48 255.8,-41.5976 274.554,-36.3524 287.848,-33.0075"/>
<polygon fill="midnightblue" stroke="midnightblue" points="189.992,-69.3594 182.082,-76.4078 192.661,-75.8307 189.992,-69.3594"/>
</g>
<!-- Node23 -->
<g id="node23" class="node"><title>Node23</title>
<g id="a_node23"><a xlink:href="class_bullet.html" target="_top" xlink:title="Bullet">
<polygon fill="white" stroke="black" points="431.5,-95.5 431.5,-114.5 472.5,-114.5 472.5,-95.5 431.5,-95.5"/>
<text text-anchor="middle" x="452" y="-102.5" font-family="Helvetica,sans-Serif" font-size="10.00">Bullet</text>
</a>
</g>
</g>
<!-- Node22&#45;&gt;Node23 -->
<g id="edge22" class="edge"><title>Node22&#45;&gt;Node23</title>
<path fill="none" stroke="midnightblue" d="M344.534,-76.9047C372.263,-84.2221 408.918,-93.895 431.185,-99.7711"/>
<polygon fill="midnightblue" stroke="midnightblue" points="345.327,-73.4942 334.765,-74.3268 343.541,-80.2626 345.327,-73.4942"/>
</g>
<!-- Node25 -->
<g id="node25" class="node"><title>Node25</title>
<g id="a_node25"><a xlink:href="class_rocket.html" target="_top" xlink:title="Rocket">
<polygon fill="white" stroke="black" points="428.5,-57.5 428.5,-76.5 475.5,-76.5 475.5,-57.5 428.5,-57.5"/>
<text text-anchor="middle" x="452" y="-64.5" font-family="Helvetica,sans-Serif" font-size="10.00">Rocket</text>
</a>
</g>
</g>
<!-- Node22&#45;&gt;Node25 -->
<g id="edge24" class="edge"><title>Node22&#45;&gt;Node25</title>
<path fill="none" stroke="midnightblue" d="M344.821,-67C371.253,-67 405.687,-67 428.063,-67"/>
<polygon fill="midnightblue" stroke="midnightblue" points="344.765,-63.5001 334.765,-67 344.765,-70.5001 344.765,-63.5001"/>
</g>
<!-- Node24 -->
<g id="node24" class="node"><title>Node24</title>
<g id="a_node24"><a xlink:href="class_generic_bullet.html" target="_top" xlink:title="GenericBullet">
<polygon fill="white" stroke="black" points="535.5,-95.5 535.5,-114.5 610.5,-114.5 610.5,-95.5 535.5,-95.5"/>
<text text-anchor="middle" x="573" y="-102.5" font-family="Helvetica,sans-Serif" font-size="10.00">GenericBullet</text>
</a>
</g>
</g>
<!-- Node23&#45;&gt;Node24 -->
<g id="edge23" class="edge"><title>Node23&#45;&gt;Node24</title>
<path fill="none" stroke="midnightblue" d="M482.999,-105C498.938,-105 518.658,-105 535.482,-105"/>
<polygon fill="midnightblue" stroke="midnightblue" points="482.65,-101.5 472.65,-105 482.65,-108.5 482.65,-101.5"/>
</g>
<!-- Node26 -->
<g id="node26" class="node"><title>Node26</title>
<g id="a_node26"><a xlink:href="class_generic_rocket.html" target="_top" xlink:title="GenericRocket">
<polygon fill="white" stroke="black" points="532.5,-57.5 532.5,-76.5 613.5,-76.5 613.5,-57.5 532.5,-57.5"/>
<text text-anchor="middle" x="573" y="-64.5" font-family="Helvetica,sans-Serif" font-size="10.00">GenericRocket</text>
</a>
</g>
</g>
<!-- Node25&#45;&gt;Node26 -->
<g id="edge25" class="edge"><title>Node25&#45;&gt;Node26</title>
<path fill="none" stroke="midnightblue" d="M486.005,-67C500.277,-67 517.104,-67 532.072,-67"/>
<polygon fill="midnightblue" stroke="midnightblue" points="485.663,-63.5001 475.663,-67 485.663,-70.5001 485.663,-63.5001"/>
</g>
<!-- Node28 -->
<g id="node28" class="node"><title>Node28</title>
<g id="a_node28"><a xlink:href="class_generic_ship.html" target="_top" xlink:title="GenericShip">
<polygon fill="white" stroke="black" points="417,-19.5 417,-38.5 487,-38.5 487,-19.5 417,-19.5"/>
<text text-anchor="middle" x="452" y="-26.5" font-family="Helvetica,sans-Serif" font-size="10.00">GenericShip</text>
</a>
</g>
</g>
<!-- Node27&#45;&gt;Node28 -->
<g id="edge27" class="edge"><title>Node27&#45;&gt;Node28</title>
<path fill="none" stroke="midnightblue" d="M334.373,-29C357.841,-29 391.755,-29 416.968,-29"/>
<polygon fill="midnightblue" stroke="midnightblue" points="334.084,-25.5001 324.084,-29 334.084,-32.5001 334.084,-25.5001"/>
</g>
<!-- Node29 -->
<g id="node29" class="node"><title>Node29</title>
<g id="a_node29"><a xlink:href="class_voxel_cluster.html" target="_top" xlink:title="VoxelCluster">
<polygon fill="white" stroke="black" points="0,-38.5 0,-57.5 72,-57.5 72,-38.5 0,-38.5"/>
<text text-anchor="middle" x="36" y="-45.5" font-family="Helvetica,sans-Serif" font-size="10.00">VoxelCluster</text>
</a>
</g>
</g>
<!-- Node29&#45;&gt;Node20 -->
<g id="edge30" class="edge"><title>Node29&#45;&gt;Node20</title>
<path fill="none" stroke="midnightblue" d="M76.3761,-60.6804C92.3198,-65.8148 110.421,-71.6441 125.233,-76.4141"/>
<polygon fill="midnightblue" stroke="midnightblue" points="77.3679,-57.3229 66.7764,-57.589 75.2221,-63.9859 77.3679,-57.3229"/>
</g>
<!-- Node30 -->
<g id="node30" class="node"><title>Node30</title>
<g id="a_node30"><a xlink:href="class_cross_hair_element.html" target="_top" xlink:title="CrossHairElement">
<polygon fill="white" stroke="black" points="108.5,-38.5 108.5,-57.5 203.5,-57.5 203.5,-38.5 108.5,-38.5"/>
<text text-anchor="middle" x="156" y="-45.5" font-family="Helvetica,sans-Serif" font-size="10.00">CrossHairElement</text>
</a>
</g>
</g>
<!-- Node29&#45;&gt;Node30 -->
<g id="edge28" class="edge"><title>Node29&#45;&gt;Node30</title>
<path fill="none" stroke="midnightblue" d="M82.2896,-48C90.8654,-48 99.8503,-48 108.464,-48"/>
<polygon fill="midnightblue" stroke="midnightblue" points="82.0844,-44.5001 72.0844,-48 82.0844,-51.5001 82.0844,-44.5001"/>
</g>
<!-- Node31 -->
<g id="node31" class="node"><title>Node31</title>
<g id="a_node31"><a xlink:href="class_letter.html" target="_top" xlink:title="Letter">
<polygon fill="white" stroke="black" points="135.5,-0.5 135.5,-19.5 176.5,-19.5 176.5,-0.5 135.5,-0.5"/>
<text text-anchor="middle" x="156" y="-7.5" font-family="Helvetica,sans-Serif" font-size="10.00">Letter</text>
</a>
</g>
</g>
<!-- Node29&#45;&gt;Node31 -->
<g id="edge29" class="edge"><title>Node29&#45;&gt;Node31</title>
<path fill="none" stroke="midnightblue" d="M76.4536,-35.2946C96.2012,-28.9352 119.243,-21.5151 135.241,-16.363"/>
<polygon fill="midnightblue" stroke="midnightblue" points="75.2221,-32.0141 66.7764,-38.411 77.3679,-38.6771 75.2221,-32.0141"/>
</g>
</g>
</svg>
