<?xml version="1.0" encoding="UTF-8" standalone="no"?>
<!DOCTYPE svg PUBLIC "-//W3C//DTD SVG 1.1//EN"
 "http://www.w3.org/Graphics/SVG/1.1/DTD/svg11.dtd">
<!-- Generated by graphviz version 2.36.0 (20140111.2315)
 -->
<!-- Title: Graphical Class Hierarchy Pages: 1 -->
<svg width="622pt" height="522pt"
 viewBox="0.00 0.00 622.00 522.00" xmlns="http://www.w3.org/2000/svg" xmlns:xlink="http://www.w3.org/1999/xlink">
<g id="graph0" class="graph" transform="scale(1 1) rotate(0) translate(4 518)">
<title>Graphical Class Hierarchy</title>
<polygon fill="white" stroke="none" points="-4,4 -4,-518 618,-518 618,4 -4,4"/>
<!-- Node1 -->
<g id="node1" class="node"><title>Node1</title>
<g id="a_node1"><a xlink:href="class_scriptable.html" target="_top" xlink:title="Scriptable">
<polygon fill="white" stroke="black" points="6,-228.5 6,-247.5 66,-247.5 66,-228.5 6,-228.5"/>
<text text-anchor="middle" x="36" y="-235.5" font-family="Helvetica,sans-Serif" font-size="10.00">Scriptable</text>
</a>
</g>
</g>
<!-- Node2 -->
<g id="node2" class="node"><title>Node2</title>
<g id="a_node2"><a xlink:href="class_ai_group_task.html" target="_top" xlink:title="AiGroupTask">
<polygon fill="white" stroke="black" points="119.5,-456.5 119.5,-475.5 192.5,-475.5 192.5,-456.5 119.5,-456.5"/>
<text text-anchor="middle" x="156" y="-463.5" font-family="Helvetica,sans-Serif" font-size="10.00">AiGroupTask</text>
</a>
</g>
</g>
<!-- Node1&#45;&gt;Node2 -->
<g id="edge1" class="edge"><title>Node1&#45;&gt;Node2</title>
<path fill="none" stroke="midnightblue" d="M46.532,-256.418C70.4078,-302.551 132.145,-421.839 150.059,-456.453"/>
<polygon fill="midnightblue" stroke="midnightblue" points="49.6249,-254.779 41.9201,-247.507 43.4081,-257.996 49.6249,-254.779"/>
</g>
<!-- Node5 -->
<g id="node5" class="node"><title>Node5</title>
<g id="a_node5"><a xlink:href="class_ai_task.html" target="_top" xlink:title="AiTask">
<polygon fill="white" stroke="black" points="132.5,-342.5 132.5,-361.5 179.5,-361.5 179.5,-342.5 132.5,-342.5"/>
<text text-anchor="middle" x="156" y="-349.5" font-family="Helvetica,sans-Serif" font-size="10.00">AiTask</text>
</a>
</g>
</g>
<!-- Node1&#45;&gt;Node5 -->
<g id="edge4" class="edge"><title>Node1&#45;&gt;Node5</title>
<path fill="none" stroke="midnightblue" d="M54.4223,-254.832C79.476,-279.036 124.87,-322.891 144.965,-342.305"/>
<polygon fill="midnightblue" stroke="midnightblue" points="56.6844,-252.151 47.0606,-247.72 51.8207,-257.185 56.6844,-252.151"/>
</g>
<!-- Node10 -->
<g id="node10" class="node"><title>Node10</title>
<g id="a_node10"><a xlink:href="class_event_poll.html" target="_top" xlink:title="EventPoll">
<polygon fill="white" stroke="black" points="127.5,-228.5 127.5,-247.5 184.5,-247.5 184.5,-228.5 127.5,-228.5"/>
<text text-anchor="middle" x="156" y="-235.5" font-family="Helvetica,sans-Serif" font-size="10.00">EventPoll</text>
</a>
</g>
</g>
<!-- Node1&#45;&gt;Node10 -->
<g id="edge9" class="edge"><title>Node1&#45;&gt;Node10</title>
<path fill="none" stroke="midnightblue" d="M76.2349,-238C92.9924,-238 112.155,-238 127.383,-238"/>
<polygon fill="midnightblue" stroke="midnightblue" points="76.1686,-234.5 66.1685,-238 76.1685,-241.5 76.1686,-234.5"/>
</g>
<!-- Node17 -->
<g id="node17" class="node"><title>Node17</title>
<g id="a_node17"><a xlink:href="class_squad.html" target="_top" xlink:title="Squad">
<polygon fill="white" stroke="black" points="134,-190.5 134,-209.5 178,-209.5 178,-190.5 134,-190.5"/>
<text text-anchor="middle" x="156" y="-197.5" font-family="Helvetica,sans-Serif" font-size="10.00">Squad</text>
</a>
</g>
</g>
<!-- Node1&#45;&gt;Node17 -->
<g id="edge16" class="edge"><title>Node1&#45;&gt;Node17</title>
<path fill="none" stroke="midnightblue" d="M75.9306,-225.463C95.2665,-219.236 117.867,-211.958 133.942,-206.781"/>
<polygon fill="midnightblue" stroke="midnightblue" points="74.6143,-222.21 66.1685,-228.607 76.76,-228.873 74.6143,-222.21"/>
</g>
<!-- Node18 -->
<g id="node18" class="node"><title>Node18</title>
<g id="a_node18"><a xlink:href="class_world_object.html" target="_top" xlink:title="WorldObject">
<polygon fill="white" stroke="black" points="120.5,-76.5 120.5,-95.5 191.5,-95.5 191.5,-76.5 120.5,-76.5"/>
<text text-anchor="middle" x="156" y="-83.5" font-family="Helvetica,sans-Serif" font-size="10.00">WorldObject</text>
</a>
</g>
</g>
<!-- Node1&#45;&gt;Node18 -->
<g id="edge17" class="edge"><title>Node1&#45;&gt;Node18</title>
<path fill="none" stroke="midnightblue" d="M50.6733,-220.387C75.7401,-188.097 128.254,-120.452 147.621,-95.5047"/>
<polygon fill="midnightblue" stroke="midnightblue" points="47.749,-218.446 44.3814,-228.492 53.2784,-222.739 47.749,-218.446"/>
</g>
<!-- Node3 -->
<g id="node3" class="node"><title>Node3</title>
<g id="a_node3"><a xlink:href="class_defend_area_task.html" target="_top" xlink:title="DefendAreaTask">
<polygon fill="white" stroke="black" points="262,-494.5 262,-513.5 350,-513.5 350,-494.5 262,-494.5"/>
<text text-anchor="middle" x="306" y="-501.5" font-family="Helvetica,sans-Serif" font-size="10.00">DefendAreaTask</text>
</a>
</g>
</g>
<!-- Node2&#45;&gt;Node3 -->
<g id="edge2" class="edge"><title>Node2&#45;&gt;Node3</title>
<path fill="none" stroke="midnightblue" d="M202.784,-477.755C223.721,-483.131 248.203,-489.417 267.958,-494.489"/>
<polygon fill="midnightblue" stroke="midnightblue" points="203.383,-474.296 192.827,-475.199 201.642,-481.076 203.383,-474.296"/>
</g>
<!-- Node4 -->
<g id="node4" class="node"><title>Node4</title>
<g id="a_node4"><a xlink:href="class_patrol_waypoints_task.html" target="_top" xlink:title="PatrolWaypointsTask">
<polygon fill="white" stroke="black" points="251,-456.5 251,-475.5 361,-475.5 361,-456.5 251,-456.5"/>
<text text-anchor="middle" x="306" y="-463.5" font-family="Helvetica,sans-Serif" font-size="10.00">PatrolWaypointsTask</text>
</a>
</g>
</g>
<!-- Node2&#45;&gt;Node4 -->
<g id="edge3" class="edge"><title>Node2&#45;&gt;Node4</title>
<path fill="none" stroke="midnightblue" d="M202.964,-466C218.086,-466 235.041,-466 250.721,-466"/>
<polygon fill="midnightblue" stroke="midnightblue" points="202.827,-462.5 192.827,-466 202.827,-469.5 202.827,-462.5"/>
</g>
<!-- Node6 -->
<g id="node6" class="node"><title>Node6</title>
<g id="a_node6"><a xlink:href="class_direct_suicide_task.html" target="_top" xlink:title="DirectSuicideTask">
<polygon fill="white" stroke="black" points="258.5,-418.5 258.5,-437.5 353.5,-437.5 353.5,-418.5 258.5,-418.5"/>
<text text-anchor="middle" x="306" y="-425.5" font-family="Helvetica,sans-Serif" font-size="10.00">DirectSuicideTask</text>
</a>
</g>
</g>
<!-- Node5&#45;&gt;Node6 -->
<g id="edge5" class="edge"><title>Node5&#45;&gt;Node6</title>
<path fill="none" stroke="midnightblue" d="M176.486,-368.041C192.65,-380.671 216.681,-397.934 240,-409 247.754,-412.68 256.371,-415.806 264.729,-418.395"/>
<polygon fill="midnightblue" stroke="midnightblue" points="178.37,-365.067 168.369,-361.569 174.006,-370.54 178.37,-365.067"/>
</g>
<!-- Node7 -->
<g id="node7" class="node"><title>Node7</title>
<g id="a_node7"><a xlink:href="class_fight_task.html" target="_top" xlink:title="FightTask">
<polygon fill="white" stroke="black" points="276.5,-380.5 276.5,-399.5 335.5,-399.5 335.5,-380.5 276.5,-380.5"/>
<text text-anchor="middle" x="306" y="-387.5" font-family="Helvetica,sans-Serif" font-size="10.00">FightTask</text>
</a>
</g>
</g>
<!-- Node5&#45;&gt;Node7 -->
<g id="edge6" class="edge"><title>Node5&#45;&gt;Node7</title>
<path fill="none" stroke="midnightblue" d="M189.552,-360.358C215.494,-367.019 251.468,-376.255 276.333,-382.639"/>
<polygon fill="midnightblue" stroke="midnightblue" points="190.357,-356.951 179.801,-357.854 188.616,-363.731 190.357,-356.951"/>
</g>
<!-- Node8 -->
<g id="node8" class="node"><title>Node8</title>
<g id="a_node8"><a xlink:href="class_fly_to_task.html" target="_top" xlink:title="FlyToTask">
<polygon fill="white" stroke="black" points="275,-342.5 275,-361.5 337,-361.5 337,-342.5 275,-342.5"/>
<text text-anchor="middle" x="306" y="-349.5" font-family="Helvetica,sans-Serif" font-size="10.00">FlyToTask</text>
</a>
</g>
</g>
<!-- Node5&#45;&gt;Node8 -->
<g id="edge7" class="edge"><title>Node5&#45;&gt;Node8</title>
<path fill="none" stroke="midnightblue" d="M190.035,-352C215.386,-352 250.101,-352 274.733,-352"/>
<polygon fill="midnightblue" stroke="midnightblue" points="189.801,-348.5 179.801,-352 189.801,-355.5 189.801,-348.5"/>
</g>
<!-- Node9 -->
<g id="node9" class="node"><title>Node9</title>
<g id="a_node9"><a xlink:href="class_formation_member_task.html" target="_top" xlink:title="FormationMemberTask">
<polygon fill="white" stroke="black" points="248,-304.5 248,-323.5 364,-323.5 364,-304.5 248,-304.5"/>
<text text-anchor="middle" x="306" y="-311.5" font-family="Helvetica,sans-Serif" font-size="10.00">FormationMemberTask</text>
</a>
</g>
</g>
<!-- Node5&#45;&gt;Node9 -->
<g id="edge8" class="edge"><title>Node5&#45;&gt;Node9</title>
<path fill="none" stroke="midnightblue" d="M189.795,-343.58C212.865,-337.656 243.778,-329.719 267.774,-323.558"/>
<polygon fill="midnightblue" stroke="midnightblue" points="188.616,-340.269 179.801,-346.146 190.357,-347.049 188.616,-340.269"/>
</g>
<!-- Node11 -->
<g id="node11" class="node"><title>Node11</title>
<g id="a_node11"><a xlink:href="class_a_a_b_b_entered_poll.html" target="_top" xlink:title="AABBEnteredPoll">
<polygon fill="white" stroke="black" points="259,-266.5 259,-285.5 353,-285.5 353,-266.5 259,-266.5"/>
<text text-anchor="middle" x="306" y="-273.5" font-family="Helvetica,sans-Serif" font-size="10.00">AABBEnteredPoll</text>
</a>
</g>
</g>
<!-- Node10&#45;&gt;Node11 -->
<g id="edge10" class="edge"><title>Node10&#45;&gt;Node11</title>
<path fill="none" stroke="midnightblue" d="M194.681,-247.675C217.105,-253.432 245.444,-260.709 267.785,-266.445"/>
<polygon fill="midnightblue" stroke="midnightblue" points="195.394,-244.244 184.838,-245.148 193.653,-251.025 195.394,-244.244"/>
</g>
<!-- Node12 -->
<g id="node12" class="node"><title>Node12</title>
<g id="a_node12"><a xlink:href="class_ai_task_finished_poll.html" target="_top" xlink:title="AiTaskFinishedPoll">
<polygon fill="white" stroke="black" points="256,-228.5 256,-247.5 356,-247.5 356,-228.5 256,-228.5"/>
<text text-anchor="middle" x="306" y="-235.5" font-family="Helvetica,sans-Serif" font-size="10.00">AiTaskFinishedPoll</text>
</a>
</g>
</g>
<!-- Node10&#45;&gt;Node12 -->
<g id="edge11" class="edge"><title>Node10&#45;&gt;Node12</title>
<path fill="none" stroke="midnightblue" d="M194.939,-238C213.435,-238 235.909,-238 255.715,-238"/>
<polygon fill="midnightblue" stroke="midnightblue" points="194.838,-234.5 184.838,-238 194.838,-241.5 194.838,-234.5"/>
</g>
<!-- Node13 -->
<g id="node13" class="node"><title>Node13</title>
<g id="a_node13"><a xlink:href="class_timer.html" target="_top" xlink:title="Timer">
<polygon fill="white" stroke="black" points="285.5,-190.5 285.5,-209.5 326.5,-209.5 326.5,-190.5 285.5,-190.5"/>
<text text-anchor="middle" x="306" y="-197.5" font-family="Helvetica,sans-Serif" font-size="10.00">Timer</text>
</a>
</g>
</g>
<!-- Node10&#45;&gt;Node13 -->
<g id="edge12" class="edge"><title>Node10&#45;&gt;Node13</title>
<path fill="none" stroke="midnightblue" d="M194.605,-228.345C223.501,-220.925 262.255,-210.975 285.325,-205.052"/>
<polygon fill="midnightblue" stroke="midnightblue" points="193.653,-224.975 184.838,-230.852 195.394,-231.756 193.653,-224.975"/>
</g>
<!-- Node16 -->
<g id="node16" class="node"><title>Node16</title>
<g id="a_node16"><a xlink:href="class_world_object_destroyed_poll.html" target="_top" xlink:title="WorldObjectDestroyedPoll">
<polygon fill="white" stroke="black" points="240.5,-152.5 240.5,-171.5 371.5,-171.5 371.5,-152.5 240.5,-152.5"/>
<text text-anchor="middle" x="306" y="-159.5" font-family="Helvetica,sans-Serif" font-size="10.00">WorldObjectDestroyedPoll</text>
</a>
</g>
</g>
<!-- Node10&#45;&gt;Node16 -->
<g id="edge15" class="edge"><title>Node10&#45;&gt;Node16</title>
<path fill="none" stroke="midnightblue" d="M194.095,-224.793C197.549,-223.038 200.909,-221.107 204,-219 223.223,-205.897 220.147,-193.128 240,-181 246.321,-177.139 253.467,-174.027 260.65,-171.53"/>
<polygon fill="midnightblue" stroke="midnightblue" points="192.482,-221.682 184.849,-229.03 195.398,-228.046 192.482,-221.682"/>
</g>
<!-- Node14 -->
<g id="node14" class="node"><title>Node14</title>
<g id="a_node14"><a xlink:href="class_looping_timer.html" target="_top" xlink:title="LoopingTimer">
<polygon fill="white" stroke="black" points="415,-209.5 415,-228.5 489,-228.5 489,-209.5 415,-209.5"/>
<text text-anchor="middle" x="452" y="-216.5" font-family="Helvetica,sans-Serif" font-size="10.00">LoopingTimer</text>
</a>
</g>
</g>
<!-- Node13&#45;&gt;Node14 -->
<g id="edge13" class="edge"><title>Node13&#45;&gt;Node14</title>
<path fill="none" stroke="midnightblue" d="M336.786,-203.93C359.471,-206.923 390.802,-211.057 414.911,-214.238"/>
<polygon fill="midnightblue" stroke="midnightblue" points="337.093,-200.44 326.721,-202.602 336.177,-207.38 337.093,-200.44"/>
</g>
<!-- Node15 -->
<g id="node15" class="node"><title>Node15</title>
<g id="a_node15"><a xlink:href="class_single_shot_timer.html" target="_top" xlink:title="SingleShotTimer">
<polygon fill="white" stroke="black" points="408,-171.5 408,-190.5 496,-190.5 496,-171.5 408,-171.5"/>
<text text-anchor="middle" x="452" y="-178.5" font-family="Helvetica,sans-Serif" font-size="10.00">SingleShotTimer</text>
</a>
</g>
</g>
<!-- Node13&#45;&gt;Node15 -->
<g id="edge14" class="edge"><title>Node13&#45;&gt;Node15</title>
<path fill="none" stroke="midnightblue" d="M336.754,-196.074C357.298,-193.363 384.942,-189.716 407.891,-186.688"/>
<polygon fill="midnightblue" stroke="midnightblue" points="336.177,-192.62 326.721,-197.398 337.093,-199.56 336.177,-192.62"/>
</g>
<!-- Node19 -->
<g id="node19" class="node"><title>Node19</title>
<g id="a_node19"><a xlink:href="class_generic_world_object.html" target="_top" xlink:title="GenericWorldObject">
<polygon fill="white" stroke="black" points="254,-114.5 254,-133.5 358,-133.5 358,-114.5 254,-114.5"/>
<text text-anchor="middle" x="306" y="-121.5" font-family="Helvetica,sans-Serif" font-size="10.00">GenericWorldObject</text>
</a>
</g>
</g>
<!-- Node18&#45;&gt;Node19 -->
<g id="edge18" class="edge"><title>Node18&#45;&gt;Node19</title>
<path fill="none" stroke="midnightblue" d="M201.453,-97.4135C222.668,-102.861 247.761,-109.303 267.931,-114.482"/>
<polygon fill="midnightblue" stroke="midnightblue" points="202.256,-94.0062 191.699,-94.9093 200.515,-100.786 202.256,-94.0062"/>
</g>
<!-- Node20 -->
<g id="node20" class="node"><title>Node20</title>
<g id="a_node20"><a xlink:href="class_projectile.html" target="_top" xlink:title="Projectile">
<polygon fill="white" stroke="black" points="277.5,-76.5 277.5,-95.5 334.5,-95.5 334.5,-76.5 277.5,-76.5"/>
<text text-anchor="middle" x="306" y="-83.5" font-family="Helvetica,sans-Serif" font-size="10.00">Projectile</text>
</a>
</g>
</g>
<!-- Node18&#45;&gt;Node20 -->
<g id="edge19" class="edge"><title>Node18&#45;&gt;Node20</title>
<path fill="none" stroke="midnightblue" d="M201.896,-86C226.51,-86 256.235,-86 277.432,-86"/>
<polygon fill="midnightblue" stroke="midnightblue" points="201.699,-82.5001 191.699,-86 201.699,-89.5001 201.699,-82.5001"/>
</g>
<!-- Node25 -->
<g id="node25" class="node"><title>Node25</title>
<g id="a_node25"><a xlink:href="class_ship.html" target="_top" xlink:title="Ship">
<polygon fill="white" stroke="black" points="288,-38.5 288,-57.5 324,-57.5 324,-38.5 288,-38.5"/>
<text text-anchor="middle" x="306" y="-45.5" font-family="Helvetica,sans-Serif" font-size="10.00">Ship</text>
</a>
</g>
</g>
<!-- Node18&#45;&gt;Node25 -->
<g id="edge24" class="edge"><title>Node18&#45;&gt;Node25</title>
<path fill="none" stroke="midnightblue" d="M201.644,-74.5374C230.714,-67.0735 266.997,-57.7575 287.931,-52.3826"/>
<polygon fill="midnightblue" stroke="midnightblue" points="200.515,-71.2137 191.699,-77.0907 202.256,-77.9938 200.515,-71.2137"/>
</g>
<!-- Node27 -->
<g id="node27" class="node"><title>Node27</title>
<g id="a_node27"><a xlink:href="class_split.html" target="_top" xlink:title="Split">
<polygon fill="white" stroke="black" points="288,-0.5 288,-19.5 324,-19.5 324,-0.5 288,-0.5"/>
<text text-anchor="middle" x="306" y="-7.5" font-family="Helvetica,sans-Serif" font-size="10.00">Split</text>
</a>
</g>
</g>
<!-- Node18&#45;&gt;Node27 -->
<g id="edge26" class="edge"><title>Node18&#45;&gt;Node27</title>
<path fill="none" stroke="midnightblue" d="M195.431,-72.1028C198.414,-70.535 201.309,-68.8341 204,-67 223.223,-53.8967 220.147,-41.1283 240,-29 254.849,-19.9288 274.253,-14.9958 287.983,-12.4481"/>
<polygon fill="midnightblue" stroke="midnightblue" points="193.873,-68.968 186.329,-76.4072 196.865,-75.2961 193.873,-68.968"/>
</g>
<!-- Node21 -->
<g id="node21" class="node"><title>Node21</title>
<g id="a_node21"><a xlink:href="class_bullet.html" target="_top" xlink:title="Bullet">
<polygon fill="white" stroke="black" points="431.5,-114.5 431.5,-133.5 472.5,-133.5 472.5,-114.5 431.5,-114.5"/>
<text text-anchor="middle" x="452" y="-121.5" font-family="Helvetica,sans-Serif" font-size="10.00">Bullet</text>
</a>
</g>
</g>
<!-- Node20&#45;&gt;Node21 -->
<g id="edge20" class="edge"><title>Node20&#45;&gt;Node21</title>
<path fill="none" stroke="midnightblue" d="M344.534,-95.9047C372.263,-103.222 408.918,-112.895 431.185,-118.771"/>
<polygon fill="midnightblue" stroke="midnightblue" points="345.327,-92.4942 334.765,-93.3268 343.541,-99.2626 345.327,-92.4942"/>
</g>
<!-- Node23 -->
<g id="node23" class="node"><title>Node23</title>
<g id="a_node23"><a xlink:href="class_rocket.html" target="_top" xlink:title="Rocket">
<polygon fill="white" stroke="black" points="428.5,-76.5 428.5,-95.5 475.5,-95.5 475.5,-76.5 428.5,-76.5"/>
<text text-anchor="middle" x="452" y="-83.5" font-family="Helvetica,sans-Serif" font-size="10.00">Rocket</text>
</a>
</g>
</g>
<!-- Node20&#45;&gt;Node23 -->
<g id="edge22" class="edge"><title>Node20&#45;&gt;Node23</title>
<path fill="none" stroke="midnightblue" d="M344.821,-86C371.253,-86 405.687,-86 428.063,-86"/>
<polygon fill="midnightblue" stroke="midnightblue" points="344.765,-82.5001 334.765,-86 344.765,-89.5001 344.765,-82.5001"/>
</g>
<!-- Node22 -->
<g id="node22" class="node"><title>Node22</title>
<g id="a_node22"><a xlink:href="class_generic_bullet.html" target="_top" xlink:title="GenericBullet">
<polygon fill="white" stroke="black" points="535.5,-114.5 535.5,-133.5 610.5,-133.5 610.5,-114.5 535.5,-114.5"/>
<text text-anchor="middle" x="573" y="-121.5" font-family="Helvetica,sans-Serif" font-size="10.00">GenericBullet</text>
</a>
</g>
</g>
<!-- Node21&#45;&gt;Node22 -->
<g id="edge21" class="edge"><title>Node21&#45;&gt;Node22</title>
<path fill="none" stroke="midnightblue" d="M482.999,-124C498.938,-124 518.658,-124 535.482,-124"/>
<polygon fill="midnightblue" stroke="midnightblue" points="482.65,-120.5 472.65,-124 482.65,-127.5 482.65,-120.5"/>
</g>
<!-- Node24 -->
<g id="node24" class="node"><title>Node24</title>
<g id="a_node24"><a xlink:href="class_generic_rocket.html" target="_top" xlink:title="GenericRocket">
<polygon fill="white" stroke="black" points="532.5,-76.5 532.5,-95.5 613.5,-95.5 613.5,-76.5 532.5,-76.5"/>
<text text-anchor="middle" x="573" y="-83.5" font-family="Helvetica,sans-Serif" font-size="10.00">GenericRocket</text>
</a>
</g>
</g>
<!-- Node23&#45;&gt;Node24 -->
<g id="edge23" class="edge"><title>Node23&#45;&gt;Node24</title>
<path fill="none" stroke="midnightblue" d="M486.005,-86C500.277,-86 517.104,-86 532.072,-86"/>
<polygon fill="midnightblue" stroke="midnightblue" points="485.663,-82.5001 475.663,-86 485.663,-89.5001 485.663,-82.5001"/>
</g>
<!-- Node26 -->
<g id="node26" class="node"><title>Node26</title>
<g id="a_node26"><a xlink:href="class_generic_ship.html" target="_top" xlink:title="GenericShip">
<polygon fill="white" stroke="black" points="417,-38.5 417,-57.5 487,-57.5 487,-38.5 417,-38.5"/>
<text text-anchor="middle" x="452" y="-45.5" font-family="Helvetica,sans-Serif" font-size="10.00">GenericShip</text>
</a>
</g>
</g>
<!-- Node25&#45;&gt;Node26 -->
<g id="edge25" class="edge"><title>Node25&#45;&gt;Node26</title>
<path fill="none" stroke="midnightblue" d="M334.373,-48C357.841,-48 391.755,-48 416.968,-48"/>
<polygon fill="midnightblue" stroke="midnightblue" points="334.084,-44.5001 324.084,-48 334.084,-51.5001 334.084,-44.5001"/>
</g>
<!-- Node28 -->
<g id="node28" class="node"><title>Node28</title>
<g id="a_node28"><a xlink:href="class_voxel_cluster.html" target="_top" xlink:title="VoxelCluster">
<polygon fill="white" stroke="black" points="0,-38.5 0,-57.5 72,-57.5 72,-38.5 0,-38.5"/>
<text text-anchor="middle" x="36" y="-45.5" font-family="Helvetica,sans-Serif" font-size="10.00">VoxelCluster</text>
</a>
</g>
</g>
<!-- Node28&#45;&gt;Node18 -->
<g id="edge29" class="edge"><title>Node28&#45;&gt;Node18</title>
<path fill="none" stroke="midnightblue" d="M76.3761,-60.6804C92.3198,-65.8148 110.421,-71.6441 125.233,-76.4141"/>
<polygon fill="midnightblue" stroke="midnightblue" points="77.3679,-57.3229 66.7764,-57.589 75.2221,-63.9859 77.3679,-57.3229"/>
</g>
<!-- Node29 -->
<g id="node29" class="node"><title>Node29</title>
<g id="a_node29"><a xlink:href="class_cross_hair_element.html" target="_top" xlink:title="CrossHairElement">
<polygon fill="white" stroke="black" points="108.5,-38.5 108.5,-57.5 203.5,-57.5 203.5,-38.5 108.5,-38.5"/>
<text text-anchor="middle" x="156" y="-45.5" font-family="Helvetica,sans-Serif" font-size="10.00">CrossHairElement</text>
</a>
</g>
</g>
<!-- Node28&#45;&gt;Node29 -->
<g id="edge27" class="edge"><title>Node28&#45;&gt;Node29</title>
<path fill="none" stroke="midnightblue" d="M82.2896,-48C90.8654,-48 99.8503,-48 108.464,-48"/>
<polygon fill="midnightblue" stroke="midnightblue" points="82.0844,-44.5001 72.0844,-48 82.0844,-51.5001 82.0844,-44.5001"/>
</g>
<!-- Node30 -->
<g id="node30" class="node"><title>Node30</title>
<g id="a_node30"><a xlink:href="class_letter.html" target="_top" xlink:title="Letter">
<polygon fill="white" stroke="black" points="135.5,-0.5 135.5,-19.5 176.5,-19.5 176.5,-0.5 135.5,-0.5"/>
<text text-anchor="middle" x="156" y="-7.5" font-family="Helvetica,sans-Serif" font-size="10.00">Letter</text>
</a>
</g>
</g>
<!-- Node28&#45;&gt;Node30 -->
<g id="edge28" class="edge"><title>Node28&#45;&gt;Node30</title>
<path fill="none" stroke="midnightblue" d="M76.4536,-35.2946C96.2012,-28.9352 119.243,-21.5151 135.241,-16.363"/>
<polygon fill="midnightblue" stroke="midnightblue" points="75.2221,-32.0141 66.7764,-38.411 77.3679,-38.6771 75.2221,-32.0141"/>
</g>
</g>
</svg>
