<?xml version="1.0" encoding="UTF-8" standalone="no"?>
<!DOCTYPE svg PUBLIC "-//W3C//DTD SVG 1.1//EN"
 "http://www.w3.org/Graphics/SVG/1.1/DTD/svg11.dtd">
<!-- Generated by graphviz version 2.36.0 (20140111.2315)
 -->
<!-- Title: Graphical Class Hierarchy Pages: 1 -->
<svg width="312pt" height="77pt"
 viewBox="0.00 0.00 312.00 77.00" xmlns="http://www.w3.org/2000/svg" xmlns:xlink="http://www.w3.org/1999/xlink">
<g id="graph0" class="graph" transform="scale(1 1) rotate(0) translate(4 73)">
<title>Graphical Class Hierarchy</title>
<polygon fill="white" stroke="none" points="-4,4 -4,-73 308,-73 308,4 -4,4"/>
<!-- Node1 -->
<g id="node1" class="node"><title>Node1</title>
<g id="a_node1"><a xlink:href="class_voxel_particle_remove_check.html" target="_top" xlink:title="VoxelParticleRemoveCheck">
<polygon fill="white" stroke="black" points="0.5,-27.5 0.5,-46.5 137.5,-46.5 137.5,-27.5 0.5,-27.5"/>
<text text-anchor="middle" x="69" y="-34.5" font-family="Helvetica,sans-Serif" font-size="10.00">VoxelParticleRemoveCheck</text>
</a>
</g>
</g>
<!-- Node2 -->
<g id="node2" class="node"><title>Node2</title>
<g id="a_node2"><a xlink:href="class_voxel_particle_expire_check.html" target="_top" xlink:title="VoxelParticleExpireCheck">
<polygon fill="white" stroke="black" points="174,-49.5 174,-68.5 304,-68.5 304,-49.5 174,-49.5"/>
<text text-anchor="middle" x="239" y="-56.5" font-family="Helvetica,sans-Serif" font-size="10.00">VoxelParticleExpireCheck</text>
</a>
</g>
</g>
<!-- Node1&#45;&gt;Node2 -->
<g id="edge1" class="edge"><title>Node1&#45;&gt;Node2</title>
<path fill="none" stroke="midnightblue" d="M147.998,-47.214C156.698,-48.3533 165.484,-49.5038 173.98,-50.6164"/>
<polygon fill="midnightblue" stroke="midnightblue" points="148.218,-43.713 137.848,-45.8848 147.309,-50.6537 148.218,-43.713"/>
</g>
<!-- Node3 -->
<g id="node3" class="node"><title>Node3</title>
<g id="a_node3"><a xlink:href="class_voxel_particle_intersection_check.html" target="_top" xlink:title="VoxelParticleIntersection\lCheck">
<polygon fill="white" stroke="black" points="176.5,-0 176.5,-30 301.5,-30 301.5,-0 176.5,-0"/>
<text text-anchor="start" x="184.5" y="-18" font-family="Helvetica,sans-Serif" font-size="10.00">VoxelParticleIntersection</text>
<text text-anchor="middle" x="239" y="-7" font-family="Helvetica,sans-Serif" font-size="10.00">Check</text>
</a>
</g>
</g>
<!-- Node1&#45;&gt;Node3 -->
<g id="edge2" class="edge"><title>Node1&#45;&gt;Node3</title>
<path fill="none" stroke="midnightblue" d="M147.79,-26.8132C157.389,-25.5562 167.097,-24.2849 176.408,-23.0656"/>
<polygon fill="midnightblue" stroke="midnightblue" points="147.309,-23.3463 137.848,-28.1152 148.218,-30.287 147.309,-23.3463"/>
</g>
</g>
</svg>
