<?xml version="1.0" encoding="UTF-8" standalone="no"?>
<!DOCTYPE svg PUBLIC "-//W3C//DTD SVG 1.1//EN"
 "http://www.w3.org/Graphics/SVG/1.1/DTD/svg11.dtd">
<!-- Generated by graphviz version 2.36.0 (20140111.2315)
 -->
<!-- Title: Graphical Class Hierarchy Pages: 1 -->
<svg width="404pt" height="522pt"
 viewBox="0.00 0.00 404.00 522.00" xmlns="http://www.w3.org/2000/svg" xmlns:xlink="http://www.w3.org/1999/xlink">
<g id="graph0" class="graph" transform="scale(1 1) rotate(0) translate(4 518)">
<title>Graphical Class Hierarchy</title>
<polygon fill="white" stroke="none" points="-4,4 -4,-518 400,-518 400,4 -4,4"/>
<!-- Node1 -->
<g id="node1" class="node"><title>Node1</title>
<g id="a_node1"><a xlink:href="class_context_dependant.html" target="_top" xlink:title="ContextDependant">
<polygon fill="white" stroke="black" points="0.5,-247.5 0.5,-266.5 97.5,-266.5 97.5,-247.5 0.5,-247.5"/>
<text text-anchor="middle" x="49" y="-254.5" font-family="Helvetica,sans-Serif" font-size="10.00">ContextDependant</text>
</a>
</g>
</g>
<!-- Node2 -->
<g id="node2" class="node"><title>Node2</title>
<g id="a_node2"><a xlink:href="class_blit_program.html" target="_top" xlink:title="BlitProgram">
<polygon fill="white" stroke="black" points="157,-494.5 157,-513.5 225,-513.5 225,-494.5 157,-494.5"/>
<text text-anchor="middle" x="191" y="-501.5" font-family="Helvetica,sans-Serif" font-size="10.00">BlitProgram</text>
</a>
</g>
</g>
<!-- Node1&#45;&gt;Node2 -->
<g id="edge1" class="edge"><title>Node1&#45;&gt;Node2</title>
<path fill="none" stroke="midnightblue" d="M56.0493,-276.282C72.5714,-328.484 118.275,-469.677 134,-485 140.25,-491.09 148.523,-495.231 156.787,-498.045"/>
<polygon fill="midnightblue" stroke="midnightblue" points="59.3326,-275.056 52.9879,-266.571 52.6565,-277.161 59.3326,-275.056"/>
</g>
<!-- Node4 -->
<g id="node4" class="node"><title>Node4</title>
<g id="a_node4"><a xlink:href="class_frame_buffer.html" target="_top" xlink:title="FrameBuffer">
<polygon fill="white" stroke="black" points="156.5,-266.5 156.5,-285.5 225.5,-285.5 225.5,-266.5 156.5,-266.5"/>
<text text-anchor="middle" x="191" y="-273.5" font-family="Helvetica,sans-Serif" font-size="10.00">FrameBuffer</text>
</a>
</g>
</g>
<!-- Node1&#45;&gt;Node4 -->
<g id="edge3" class="edge"><title>Node1&#45;&gt;Node4</title>
<path fill="none" stroke="midnightblue" d="M107.859,-264.852C124.277,-267.08 141.615,-269.433 156.109,-271.4"/>
<polygon fill="midnightblue" stroke="midnightblue" points="108.168,-261.362 97.7885,-263.486 107.227,-268.299 108.168,-261.362"/>
</g>
<!-- Node5 -->
<g id="node5" class="node"><title>Node5</title>
<g id="a_node5"><a xlink:href="class_post_processing_pass.html" target="_top" xlink:title="PostProcessingPass">
<polygon fill="white" stroke="black" points="137,-380.5 137,-399.5 245,-399.5 245,-380.5 137,-380.5"/>
<text text-anchor="middle" x="191" y="-387.5" font-family="Helvetica,sans-Serif" font-size="10.00">PostProcessingPass</text>
</a>
</g>
</g>
<!-- Node1&#45;&gt;Node5 -->
<g id="edge4" class="edge"><title>Node1&#45;&gt;Node5</title>
<path fill="none" stroke="midnightblue" d="M59.2997,-276.052C72.5347,-301.264 99.1181,-345.49 134,-371 139.221,-374.818 145.263,-377.908 151.407,-380.396"/>
<polygon fill="midnightblue" stroke="midnightblue" points="62.2544,-274.14 54.6027,-266.812 56.0144,-277.312 62.2544,-274.14"/>
</g>
<!-- Node7 -->
<g id="node7" class="node"><title>Node7</title>
<g id="a_node7"><a xlink:href="class_screen_quad.html" target="_top" xlink:title="ScreenQuad">
<polygon fill="white" stroke="black" points="155.5,-228.5 155.5,-247.5 226.5,-247.5 226.5,-228.5 155.5,-228.5"/>
<text text-anchor="middle" x="191" y="-235.5" font-family="Helvetica,sans-Serif" font-size="10.00">ScreenQuad</text>
</a>
</g>
</g>
<!-- Node1&#45;&gt;Node7 -->
<g id="edge6" class="edge"><title>Node1&#45;&gt;Node7</title>
<path fill="none" stroke="midnightblue" d="M108.147,-249.109C124.152,-246.937 141.009,-244.649 155.237,-242.718"/>
<polygon fill="midnightblue" stroke="midnightblue" points="107.227,-245.701 97.7885,-250.514 108.168,-252.638 107.227,-245.701"/>
</g>
<!-- Node8 -->
<g id="node8" class="node"><title>Node8</title>
<g id="a_node8"><a xlink:href="class_skybox.html" target="_top" xlink:title="Skybox">
<polygon fill="white" stroke="black" points="166,-190.5 166,-209.5 216,-209.5 216,-190.5 166,-190.5"/>
<text text-anchor="middle" x="191" y="-197.5" font-family="Helvetica,sans-Serif" font-size="10.00">Skybox</text>
</a>
</g>
</g>
<!-- Node1&#45;&gt;Node8 -->
<g id="edge7" class="edge"><title>Node1&#45;&gt;Node8</title>
<path fill="none" stroke="midnightblue" d="M79.1585,-242.962C95.1822,-235.463 115.506,-226.3 134,-219 144.313,-214.929 155.892,-210.911 165.832,-207.626"/>
<polygon fill="midnightblue" stroke="midnightblue" points="77.3403,-239.95 69.792,-247.384 80.3291,-246.28 77.3403,-239.95"/>
</g>
<!-- Node9 -->
<g id="node9" class="node"><title>Node9</title>
<g id="a_node9"><a xlink:href="class_starfield.html" target="_top" xlink:title="Starfield">
<polygon fill="white" stroke="black" points="165,-418.5 165,-437.5 217,-437.5 217,-418.5 165,-418.5"/>
<text text-anchor="middle" x="191" y="-425.5" font-family="Helvetica,sans-Serif" font-size="10.00">Starfield</text>
</a>
</g>
</g>
<!-- Node1&#45;&gt;Node9 -->
<g id="edge8" class="edge"><title>Node1&#45;&gt;Node9</title>
<path fill="none" stroke="midnightblue" d="M55.6124,-276.356C65.8982,-308.483 90.7799,-372.853 134,-409 142.742,-416.311 154.431,-420.854 164.868,-423.655"/>
<polygon fill="midnightblue" stroke="midnightblue" points="58.9554,-275.319 52.6783,-266.784 52.2628,-277.371 58.9554,-275.319"/>
</g>
<!-- Node10 -->
<g id="node10" class="node"><title>Node10</title>
<g id="a_node10"><a xlink:href="class_stereo_view.html" target="_top" xlink:title="StereoView">
<polygon fill="white" stroke="black" points="158,-38.5 158,-57.5 224,-57.5 224,-38.5 158,-38.5"/>
<text text-anchor="middle" x="191" y="-45.5" font-family="Helvetica,sans-Serif" font-size="10.00">StereoView</text>
</a>
</g>
</g>
<!-- Node1&#45;&gt;Node10 -->
<g id="edge9" class="edge"><title>Node1&#45;&gt;Node10</title>
<path fill="none" stroke="midnightblue" d="M53.3251,-237.193C60.7823,-198.866 82.4055,-114.187 134,-67 140.667,-60.9027 149.367,-56.7521 157.916,-53.9305"/>
<polygon fill="midnightblue" stroke="midnightblue" points="49.868,-236.641 51.5156,-247.107 56.7542,-237.898 49.868,-236.641"/>
</g>
<!-- Node11 -->
<g id="node11" class="node"><title>Node11</title>
<g id="a_node11"><a xlink:href="class_voxel_mesh.html" target="_top" xlink:title="VoxelMesh">
<polygon fill="white" stroke="black" points="158.5,-152.5 158.5,-171.5 223.5,-171.5 223.5,-152.5 158.5,-152.5"/>
<text text-anchor="middle" x="191" y="-159.5" font-family="Helvetica,sans-Serif" font-size="10.00">VoxelMesh</text>
</a>
</g>
</g>
<!-- Node1&#45;&gt;Node11 -->
<g id="edge10" class="edge"><title>Node1&#45;&gt;Node11</title>
<path fill="none" stroke="midnightblue" d="M64.9266,-239.903C80.6119,-222.87 106.752,-197.012 134,-181 141.524,-176.579 150.225,-172.999 158.492,-170.189"/>
<polygon fill="midnightblue" stroke="midnightblue" points="62.1994,-237.701 58.1072,-247.473 67.4005,-242.386 62.1994,-237.701"/>
</g>
<!-- Node12 -->
<g id="node12" class="node"><title>Node12</title>
<g id="a_node12"><a xlink:href="class_voxel_particle_engine.html" target="_top" xlink:title="VoxelParticleEngine">
<polygon fill="white" stroke="black" points="139,-114.5 139,-133.5 243,-133.5 243,-114.5 139,-114.5"/>
<text text-anchor="middle" x="191" y="-121.5" font-family="Helvetica,sans-Serif" font-size="10.00">VoxelParticleEngine</text>
</a>
</g>
</g>
<!-- Node1&#45;&gt;Node12 -->
<g id="edge11" class="edge"><title>Node1&#45;&gt;Node12</title>
<path fill="none" stroke="#8b1a1a" d="M59.2997,-237.948C72.5347,-212.736 99.1181,-168.51 134,-143 139.221,-139.182 145.263,-136.092 151.407,-133.604"/>
<polygon fill="#8b1a1a" stroke="#8b1a1a" points="56.0144,-236.688 54.6027,-247.188 62.2544,-239.86 56.0144,-236.688"/>
</g>
<!-- Node13 -->
<g id="node13" class="node"><title>Node13</title>
<g id="a_node13"><a xlink:href="class_voxel_particle_renderer.html" target="_top" xlink:title="VoxelParticleRenderer">
<polygon fill="white" stroke="black" points="134.5,-76.5 134.5,-95.5 247.5,-95.5 247.5,-76.5 134.5,-76.5"/>
<text text-anchor="middle" x="191" y="-83.5" font-family="Helvetica,sans-Serif" font-size="10.00">VoxelParticleRenderer</text>
</a>
</g>
</g>
<!-- Node1&#45;&gt;Node13 -->
<g id="edge12" class="edge"><title>Node1&#45;&gt;Node13</title>
<path fill="none" stroke="midnightblue" d="M55.6124,-237.644C65.8982,-205.517 90.7799,-141.147 134,-105 138.646,-101.114 144.126,-98.0099 149.807,-95.5339"/>
<polygon fill="midnightblue" stroke="midnightblue" points="52.2628,-236.629 52.6783,-247.216 58.9554,-238.681 52.2628,-236.629"/>
</g>
<!-- Node14 -->
<g id="node14" class="node"><title>Node14</title>
<g id="a_node14"><a xlink:href="class_voxel_render_data.html" target="_top" xlink:title="VoxelRenderData">
<polygon fill="white" stroke="black" points="145,-342.5 145,-361.5 237,-361.5 237,-342.5 145,-342.5"/>
<text text-anchor="middle" x="191" y="-349.5" font-family="Helvetica,sans-Serif" font-size="10.00">VoxelRenderData</text>
</a>
</g>
</g>
<!-- Node1&#45;&gt;Node14 -->
<g id="edge13" class="edge"><title>Node1&#45;&gt;Node14</title>
<path fill="none" stroke="midnightblue" d="M64.9266,-274.097C80.6119,-291.13 106.752,-316.988 134,-333 140.373,-336.745 147.591,-339.886 154.674,-342.467"/>
<polygon fill="midnightblue" stroke="midnightblue" points="67.4005,-271.614 58.1072,-266.527 62.1994,-276.299 67.4005,-271.614"/>
</g>
<!-- Node15 -->
<g id="node15" class="node"><title>Node15</title>
<g id="a_node15"><a xlink:href="class_voxel_renderer.html" target="_top" xlink:title="VoxelRenderer">
<polygon fill="white" stroke="black" points="151,-304.5 151,-323.5 231,-323.5 231,-304.5 151,-304.5"/>
<text text-anchor="middle" x="191" y="-311.5" font-family="Helvetica,sans-Serif" font-size="10.00">VoxelRenderer</text>
</a>
</g>
</g>
<!-- Node1&#45;&gt;Node15 -->
<g id="edge14" class="edge"><title>Node1&#45;&gt;Node15</title>
<path fill="none" stroke="midnightblue" d="M79.1585,-271.038C95.1822,-278.537 115.506,-287.7 134,-295 142.404,-298.317 151.647,-301.599 160.16,-304.478"/>
<polygon fill="midnightblue" stroke="midnightblue" points="80.3291,-267.72 69.792,-266.616 77.3403,-274.05 80.3291,-267.72"/>
</g>
<!-- Node3 -->
<g id="node3" class="node"><title>Node3</title>
<g id="a_node3"><a xlink:href="class_stereo_blit_program.html" target="_top" xlink:title="StereoBlitProgram">
<polygon fill="white" stroke="black" points="292,-494.5 292,-513.5 388,-513.5 388,-494.5 292,-494.5"/>
<text text-anchor="middle" x="340" y="-501.5" font-family="Helvetica,sans-Serif" font-size="10.00">StereoBlitProgram</text>
</a>
</g>
</g>
<!-- Node2&#45;&gt;Node3 -->
<g id="edge2" class="edge"><title>Node2&#45;&gt;Node3</title>
<path fill="none" stroke="midnightblue" d="M235.435,-504C253.175,-504 273.738,-504 291.844,-504"/>
<polygon fill="midnightblue" stroke="midnightblue" points="235.357,-500.5 225.357,-504 235.357,-507.5 235.357,-500.5"/>
</g>
<!-- Node6 -->
<g id="node6" class="node"><title>Node6</title>
<g id="a_node6"><a xlink:href="class_blitter.html" target="_top" xlink:title="Blitter">
<polygon fill="white" stroke="black" points="319,-380.5 319,-399.5 361,-399.5 361,-380.5 319,-380.5"/>
<text text-anchor="middle" x="340" y="-387.5" font-family="Helvetica,sans-Serif" font-size="10.00">Blitter</text>
</a>
</g>
</g>
<!-- Node5&#45;&gt;Node6 -->
<g id="edge5" class="edge"><title>Node5&#45;&gt;Node6</title>
<path fill="none" stroke="midnightblue" d="M255.143,-390C278.103,-390 302.438,-390 318.945,-390"/>
<polygon fill="midnightblue" stroke="midnightblue" points="255.07,-386.5 245.07,-390 255.07,-393.5 255.07,-386.5"/>
</g>
<!-- Node16 -->
<g id="node16" class="node"><title>Node16</title>
<polygon fill="white" stroke="#bfbfbf" points="22.5,-494.5 22.5,-513.5 75.5,-513.5 75.5,-494.5 22.5,-494.5"/>
<text text-anchor="middle" x="49" y="-501.5" font-family="Helvetica,sans-Serif" font-size="10.00">Program</text>
</g>
<!-- Node16&#45;&gt;Node2 -->
<g id="edge15" class="edge"><title>Node16&#45;&gt;Node2</title>
<path fill="none" stroke="darkgreen" d="M85.8818,-504C107.738,-504 135.468,-504 156.814,-504"/>
<polygon fill="darkgreen" stroke="darkgreen" points="85.6782,-500.5 75.6782,-504 85.6781,-507.5 85.6782,-500.5"/>
</g>
<!-- Node17 -->
<g id="node17" class="node"><title>Node17</title>
<g id="a_node17"><a xlink:href="class_render_pass.html" target="_top" xlink:title="RenderPass">
<polygon fill="white" stroke="black" points="14,-418.5 14,-437.5 84,-437.5 84,-418.5 14,-418.5"/>
<text text-anchor="middle" x="49" y="-425.5" font-family="Helvetica,sans-Serif" font-size="10.00">RenderPass</text>
</a>
</g>
</g>
<!-- Node17&#45;&gt;Node5 -->
<g id="edge16" class="edge"><title>Node17&#45;&gt;Node5</title>
<path fill="none" stroke="midnightblue" d="M94.1273,-416.023C113.638,-410.727 136.27,-404.584 154.644,-399.597"/>
<polygon fill="midnightblue" stroke="midnightblue" points="92.9818,-412.707 84.2479,-418.704 94.8155,-419.462 92.9818,-412.707"/>
</g>
<!-- Node17&#45;&gt;Node9 -->
<g id="edge19" class="edge"><title>Node17&#45;&gt;Node9</title>
<path fill="none" stroke="midnightblue" d="M94.2616,-428C117.563,-428 145.286,-428 164.887,-428"/>
<polygon fill="midnightblue" stroke="midnightblue" points="94.2479,-424.5 84.2479,-428 94.2478,-431.5 94.2479,-424.5"/>
</g>
<!-- Node18 -->
<g id="node18" class="node"><title>Node18</title>
<g id="a_node18"><a xlink:href="class_render_pipeline.html" target="_top" xlink:title="RenderPipeline">
<polygon fill="white" stroke="black" points="150,-456.5 150,-475.5 232,-475.5 232,-456.5 150,-456.5"/>
<text text-anchor="middle" x="191" y="-463.5" font-family="Helvetica,sans-Serif" font-size="10.00">RenderPipeline</text>
</a>
</g>
</g>
<!-- Node17&#45;&gt;Node18 -->
<g id="edge17" class="edge"><title>Node17&#45;&gt;Node18</title>
<path fill="none" stroke="#8b1a1a" d="M94.1273,-439.977C113.638,-445.273 136.27,-451.416 154.644,-456.403"/>
<polygon fill="#8b1a1a" stroke="#8b1a1a" points="94.8155,-436.538 84.2479,-437.296 92.9818,-443.293 94.8155,-436.538"/>
</g>
<!-- Node19 -->
<g id="node19" class="node"><title>Node19</title>
<g id="a_node19"><a xlink:href="class_default_render_pipeline.html" target="_top" xlink:title="DefaultRenderPipeline">
<polygon fill="white" stroke="black" points="284,-456.5 284,-475.5 396,-475.5 396,-456.5 284,-456.5"/>
<text text-anchor="middle" x="340" y="-463.5" font-family="Helvetica,sans-Serif" font-size="10.00">DefaultRenderPipeline</text>
</a>
</g>
</g>
<!-- Node18&#45;&gt;Node19 -->
<g id="edge18" class="edge"><title>Node18&#45;&gt;Node19</title>
<path fill="none" stroke="midnightblue" d="M242.542,-466C255.822,-466 270.213,-466 283.727,-466"/>
<polygon fill="midnightblue" stroke="midnightblue" points="242.168,-462.5 232.168,-466 242.168,-469.5 242.168,-462.5"/>
</g>
<!-- Node20 -->
<g id="node20" class="node"><title>Node20</title>
<g id="a_node20"><a xlink:href="class_view.html" target="_top" xlink:title="View">
<polygon fill="white" stroke="black" points="30,-19.5 30,-38.5 68,-38.5 68,-19.5 30,-19.5"/>
<text text-anchor="middle" x="49" y="-26.5" font-family="Helvetica,sans-Serif" font-size="10.00">View</text>
</a>
</g>
</g>
<!-- Node20&#45;&gt;Node10 -->
<g id="edge21" class="edge"><title>Node20&#45;&gt;Node10</title>
<path fill="none" stroke="midnightblue" d="M78.1779,-32.8241C101.231,-35.9528 133.839,-40.3781 157.897,-43.6432"/>
<polygon fill="midnightblue" stroke="midnightblue" points="78.3958,-29.3217 68.0159,-31.445 77.4544,-36.2581 78.3958,-29.3217"/>
</g>
<!-- Node21 -->
<g id="node21" class="node"><title>Node21</title>
<g id="a_node21"><a xlink:href="class_mono_view.html" target="_top" xlink:title="MonoView">
<polygon fill="white" stroke="black" points="160,-0.5 160,-19.5 222,-19.5 222,-0.5 160,-0.5"/>
<text text-anchor="middle" x="191" y="-7.5" font-family="Helvetica,sans-Serif" font-size="10.00">MonoView</text>
</a>
</g>
</g>
<!-- Node20&#45;&gt;Node21 -->
<g id="edge20" class="edge"><title>Node20&#45;&gt;Node21</title>
<path fill="none" stroke="midnightblue" d="M78.1076,-25.1854C101.773,-21.9737 135.544,-17.3905 159.785,-14.1006"/>
<polygon fill="midnightblue" stroke="midnightblue" points="77.4544,-21.7419 68.0159,-26.555 78.3958,-28.6783 77.4544,-21.7419"/>
</g>
</g>
</svg>
