<?xml version="1.0" encoding="UTF-8" standalone="no"?>
<!DOCTYPE svg PUBLIC "-//W3C//DTD SVG 1.1//EN"
 "http://www.w3.org/Graphics/SVG/1.1/DTD/svg11.dtd">
<!-- Generated by graphviz version 2.36.0 (20140111.2315)
 -->
<!-- Title: Graphical Class Hierarchy Pages: 1 -->
<svg width="234pt" height="180pt"
 viewBox="0.00 0.00 234.00 180.00" xmlns="http://www.w3.org/2000/svg" xmlns:xlink="http://www.w3.org/1999/xlink">
<g id="graph0" class="graph" transform="scale(1 1) rotate(0) translate(4 176)">
<title>Graphical Class Hierarchy</title>
<polygon fill="white" stroke="none" points="-4,4 -4,-176 230,-176 230,4 -4,4"/>
<!-- Node1 -->
<g id="node1" class="node"><title>Node1</title>
<g id="a_node1"><a xlink:href="class_base_scenario.html" target="_top" xlink:title="BaseScenario">
<polygon fill="white" stroke="black" points="0.5,-76.5 0.5,-95.5 77.5,-95.5 77.5,-76.5 0.5,-76.5"/>
<text text-anchor="middle" x="39" y="-83.5" font-family="Helvetica,sans-Serif" font-size="10.00">BaseScenario</text>
</a>
</g>
</g>
<!-- Node2 -->
<g id="node2" class="node"><title>Node2</title>
<g id="a_node2"><a xlink:href="class_battle_scenario.html" target="_top" xlink:title="BattleScenario">
<polygon fill="white" stroke="black" points="130,-152.5 130,-171.5 210,-171.5 210,-152.5 130,-152.5"/>
<text text-anchor="middle" x="170" y="-159.5" font-family="Helvetica,sans-Serif" font-size="10.00">BattleScenario</text>
</a>
</g>
</g>
<!-- Node1&#45;&gt;Node2 -->
<g id="edge1" class="edge"><title>Node1&#45;&gt;Node2</title>
<path fill="none" stroke="midnightblue" d="M57.8647,-102.445C72.1799,-114.931 93.2379,-131.806 114,-143 120.758,-146.644 128.351,-149.799 135.687,-152.434"/>
<polygon fill="midnightblue" stroke="midnightblue" points="60.0631,-99.7159 50.2685,-95.6763 55.4062,-104.942 60.0631,-99.7159"/>
</g>
<!-- Node3 -->
<g id="node3" class="node"><title>Node3</title>
<g id="a_node3"><a xlink:href="class_frozen_game_scenario.html" target="_top" xlink:title="FrozenGameScenario">
<polygon fill="white" stroke="black" points="114.5,-114.5 114.5,-133.5 225.5,-133.5 225.5,-114.5 114.5,-114.5"/>
<text text-anchor="middle" x="170" y="-121.5" font-family="Helvetica,sans-Serif" font-size="10.00">FrozenGameScenario</text>
</a>
</g>
</g>
<!-- Node1&#45;&gt;Node3 -->
<g id="edge2" class="edge"><title>Node1&#45;&gt;Node3</title>
<path fill="none" stroke="midnightblue" d="M82.554,-98.5353C100.103,-103.705 120.113,-109.599 136.458,-114.414"/>
<polygon fill="midnightblue" stroke="midnightblue" points="83.1336,-95.0574 72.5521,-95.589 81.1556,-101.772 83.1336,-95.0574"/>
</g>
<!-- Node4 -->
<g id="node4" class="node"><title>Node4</title>
<g id="a_node4"><a xlink:href="class_game_scenario.html" target="_top" xlink:title="GameScenario">
<polygon fill="white" stroke="black" points="129.5,-76.5 129.5,-95.5 210.5,-95.5 210.5,-76.5 129.5,-76.5"/>
<text text-anchor="middle" x="170" y="-83.5" font-family="Helvetica,sans-Serif" font-size="10.00">GameScenario</text>
</a>
</g>
</g>
<!-- Node1&#45;&gt;Node4 -->
<g id="edge3" class="edge"><title>Node1&#45;&gt;Node4</title>
<path fill="none" stroke="midnightblue" d="M87.8347,-86C101.471,-86 116.175,-86 129.272,-86"/>
<polygon fill="midnightblue" stroke="midnightblue" points="87.659,-82.5001 77.6589,-86 87.6589,-89.5001 87.659,-82.5001"/>
</g>
<!-- Node5 -->
<g id="node5" class="node"><title>Node5</title>
<g id="a_node5"><a xlink:href="class_pirate_scenario.html" target="_top" xlink:title="PirateScenario">
<polygon fill="white" stroke="black" points="130,-38.5 130,-57.5 210,-57.5 210,-38.5 130,-38.5"/>
<text text-anchor="middle" x="170" y="-45.5" font-family="Helvetica,sans-Serif" font-size="10.00">PirateScenario</text>
</a>
</g>
</g>
<!-- Node1&#45;&gt;Node5 -->
<g id="edge4" class="edge"><title>Node1&#45;&gt;Node5</title>
<path fill="none" stroke="midnightblue" d="M82.554,-73.4647C100.103,-68.2952 120.113,-62.4009 136.458,-57.5859"/>
<polygon fill="midnightblue" stroke="midnightblue" points="81.1556,-70.2279 72.5521,-76.411 83.1336,-76.9426 81.1556,-70.2279"/>
</g>
<!-- Node6 -->
<g id="node6" class="node"><title>Node6</title>
<g id="a_node6"><a xlink:href="class_scripted_scenario.html" target="_top" xlink:title="ScriptedScenario">
<polygon fill="white" stroke="black" points="124.5,-0.5 124.5,-19.5 215.5,-19.5 215.5,-0.5 124.5,-0.5"/>
<text text-anchor="middle" x="170" y="-7.5" font-family="Helvetica,sans-Serif" font-size="10.00">ScriptedScenario</text>
</a>
</g>
</g>
<!-- Node1&#45;&gt;Node6 -->
<g id="edge5" class="edge"><title>Node1&#45;&gt;Node6</title>
<path fill="none" stroke="midnightblue" d="M57.8647,-69.5551C72.1799,-57.0688 93.2379,-40.1941 114,-29 120.758,-25.3563 128.351,-22.2015 135.687,-19.5664"/>
<polygon fill="midnightblue" stroke="midnightblue" points="55.4062,-67.0579 50.2685,-76.3237 60.0631,-72.2841 55.4062,-67.0579"/>
</g>
</g>
</svg>
