<?xml version="1.0" encoding="UTF-8" standalone="no"?>
<!DOCTYPE svg PUBLIC "-//W3C//DTD SVG 1.1//EN"
 "http://www.w3.org/Graphics/SVG/1.1/DTD/svg11.dtd">
<!-- Generated by graphviz version 2.36.0 (20140111.2315)
 -->
<!-- Title: Graphical Class Hierarchy Pages: 1 -->
<svg width="286pt" height="180pt"
 viewBox="0.00 0.00 286.00 180.00" xmlns="http://www.w3.org/2000/svg" xmlns:xlink="http://www.w3.org/1999/xlink">
<g id="graph0" class="graph" transform="scale(1 1) rotate(0) translate(4 176)">
<title>Graphical Class Hierarchy</title>
<polygon fill="white" stroke="none" points="-4,4 -4,-176 282,-176 282,4 -4,4"/>
<!-- Node1 -->
<g id="node1" class="node"><title>Node1</title>
<g id="a_node1"><a xlink:href="class_voxel.html" target="_top" xlink:title="Voxel">
<polygon fill="white" stroke="black" points="0.5,-76.5 0.5,-95.5 41.5,-95.5 41.5,-76.5 0.5,-76.5"/>
<text text-anchor="middle" x="21" y="-83.5" font-family="Helvetica,sans-Serif" font-size="10.00">Voxel</text>
</a>
</g>
</g>
<!-- Node2 -->
<g id="node2" class="node"><title>Node2</title>
<g id="a_node2"><a xlink:href="class_special_voxel.html" target="_top" xlink:title="SpecialVoxel">
<polygon fill="white" stroke="black" points="78,-76.5 78,-95.5 152,-95.5 152,-76.5 78,-76.5"/>
<text text-anchor="middle" x="115" y="-83.5" font-family="Helvetica,sans-Serif" font-size="10.00">SpecialVoxel</text>
</a>
</g>
</g>
<!-- Node1&#45;&gt;Node2 -->
<g id="edge1" class="edge"><title>Node1&#45;&gt;Node2</title>
<path fill="none" stroke="midnightblue" d="M51.5519,-86C59.9101,-86 69.1026,-86 77.8042,-86"/>
<polygon fill="midnightblue" stroke="midnightblue" points="51.5109,-82.5001 41.5108,-86 51.5108,-89.5001 51.5109,-82.5001"/>
</g>
<!-- Node3 -->
<g id="node3" class="node"><title>Node3</title>
<g id="a_node3"><a xlink:href="class_cockpit_voxel.html" target="_top" xlink:title="CockpitVoxel">
<polygon fill="white" stroke="black" points="196,-152.5 196,-171.5 270,-171.5 270,-152.5 196,-152.5"/>
<text text-anchor="middle" x="233" y="-159.5" font-family="Helvetica,sans-Serif" font-size="10.00">CockpitVoxel</text>
</a>
</g>
</g>
<!-- Node2&#45;&gt;Node3 -->
<g id="edge2" class="edge"><title>Node2&#45;&gt;Node3</title>
<path fill="none" stroke="midnightblue" d="M134.427,-102.822C148.416,-115.019 168.507,-131.351 188,-143 193.857,-146.5 200.476,-149.707 206.768,-152.45"/>
<polygon fill="midnightblue" stroke="midnightblue" points="136.367,-99.8633 126.566,-95.8401 131.719,-105.097 136.367,-99.8633"/>
</g>
<!-- Node4 -->
<g id="node4" class="node"><title>Node4</title>
<g id="a_node4"><a xlink:href="class_crucial_voxel.html" target="_top" xlink:title="CrucialVoxel">
<polygon fill="white" stroke="black" points="197.5,-114.5 197.5,-133.5 268.5,-133.5 268.5,-114.5 197.5,-114.5"/>
<text text-anchor="middle" x="233" y="-121.5" font-family="Helvetica,sans-Serif" font-size="10.00">CrucialVoxel</text>
</a>
</g>
</g>
<!-- Node2&#45;&gt;Node4 -->
<g id="edge3" class="edge"><title>Node2&#45;&gt;Node4</title>
<path fill="none" stroke="midnightblue" d="M155.153,-98.8259C170.718,-103.925 188.314,-109.689 202.738,-114.414"/>
<polygon fill="midnightblue" stroke="midnightblue" points="155.864,-95.3761 145.272,-95.589 153.685,-102.028 155.864,-95.3761"/>
</g>
<!-- Node5 -->
<g id="node5" class="node"><title>Node5</title>
<g id="a_node5"><a xlink:href="class_engine_slot_voxel.html" target="_top" xlink:title="EngineSlotVoxel">
<polygon fill="white" stroke="black" points="188.5,-76.5 188.5,-95.5 277.5,-95.5 277.5,-76.5 188.5,-76.5"/>
<text text-anchor="middle" x="233" y="-83.5" font-family="Helvetica,sans-Serif" font-size="10.00">EngineSlotVoxel</text>
</a>
</g>
</g>
<!-- Node2&#45;&gt;Node5 -->
<g id="edge4" class="edge"><title>Node2&#45;&gt;Node5</title>
<path fill="none" stroke="midnightblue" d="M162.269,-86C170.82,-86 179.727,-86 188.202,-86"/>
<polygon fill="midnightblue" stroke="midnightblue" points="162.067,-82.5001 152.067,-86 162.067,-89.5001 162.067,-82.5001"/>
</g>
<!-- Node6 -->
<g id="node6" class="node"><title>Node6</title>
<g id="a_node6"><a xlink:href="class_fuel_voxel.html" target="_top" xlink:title="FuelVoxel">
<polygon fill="white" stroke="black" points="203,-38.5 203,-57.5 263,-57.5 263,-38.5 203,-38.5"/>
<text text-anchor="middle" x="233" y="-45.5" font-family="Helvetica,sans-Serif" font-size="10.00">FuelVoxel</text>
</a>
</g>
</g>
<!-- Node2&#45;&gt;Node6 -->
<g id="edge5" class="edge"><title>Node2&#45;&gt;Node6</title>
<path fill="none" stroke="midnightblue" d="M155.153,-73.1741C170.718,-68.0753 188.314,-62.3109 202.738,-57.5859"/>
<polygon fill="midnightblue" stroke="midnightblue" points="153.685,-69.9718 145.272,-76.411 155.864,-76.6239 153.685,-69.9718"/>
</g>
<!-- Node7 -->
<g id="node7" class="node"><title>Node7</title>
<g id="a_node7"><a xlink:href="class_hardpoint_voxel.html" target="_top" xlink:title="HardpointVoxel">
<polygon fill="white" stroke="black" points="191.5,-0.5 191.5,-19.5 274.5,-19.5 274.5,-0.5 191.5,-0.5"/>
<text text-anchor="middle" x="233" y="-7.5" font-family="Helvetica,sans-Serif" font-size="10.00">HardpointVoxel</text>
</a>
</g>
</g>
<!-- Node2&#45;&gt;Node7 -->
<g id="edge6" class="edge"><title>Node2&#45;&gt;Node7</title>
<path fill="none" stroke="midnightblue" d="M134.427,-69.1783C148.416,-56.9808 168.507,-40.6488 188,-29 193.857,-25.5001 200.476,-22.2929 206.768,-19.55"/>
<polygon fill="midnightblue" stroke="midnightblue" points="131.719,-66.9027 126.566,-76.1599 136.367,-72.1367 131.719,-66.9027"/>
</g>
</g>
</svg>
