<?xml version="1.0" encoding="UTF-8" standalone="no"?>
<!DOCTYPE svg PUBLIC "-//W3C//DTD SVG 1.1//EN"
 "http://www.w3.org/Graphics/SVG/1.1/DTD/svg11.dtd">
<!-- Generated by graphviz version 2.36.0 (20140111.2315)
 -->
<!-- Title: Graphical Class Hierarchy Pages: 1 -->
<svg width="206pt" height="66pt"
 viewBox="0.00 0.00 206.00 66.00" xmlns="http://www.w3.org/2000/svg" xmlns:xlink="http://www.w3.org/1999/xlink">
<g id="graph0" class="graph" transform="scale(1 1) rotate(0) translate(4 62)">
<title>Graphical Class Hierarchy</title>
<polygon fill="white" stroke="none" points="-4,4 -4,-62 202,-62 202,4 -4,4"/>
<!-- Node1 -->
<g id="node1" class="node"><title>Node1</title>
<g id="a_node1"><a xlink:href="class_transition.html" target="_top" xlink:title="Transition">
<polygon fill="white" stroke="black" points="2.5,-38.5 2.5,-57.5 61.5,-57.5 61.5,-38.5 2.5,-38.5"/>
<text text-anchor="middle" x="32" y="-45.5" font-family="Helvetica,sans-Serif" font-size="10.00">Transition</text>
</a>
</g>
</g>
<!-- Node2 -->
<g id="node2" class="node"><title>Node2</title>
<g id="a_node2"><a xlink:href="class_triggered_transition.html" target="_top" xlink:title="TriggeredTransition">
<polygon fill="white" stroke="black" points="100,-19.5 100,-38.5 198,-38.5 198,-19.5 100,-19.5"/>
<text text-anchor="middle" x="149" y="-26.5" font-family="Helvetica,sans-Serif" font-size="10.00">TriggeredTransition</text>
</a>
</g>
</g>
<!-- Node1&#45;&gt;Node2 -->
<g id="edge1" class="edge"><title>Node1&#45;&gt;Node2</title>
<path fill="none" stroke="midnightblue" d="M71.6323,-41.6173C80.7259,-40.1149 90.5275,-38.4955 99.9779,-36.9341"/>
<polygon fill="midnightblue" stroke="midnightblue" points="71.0184,-38.1712 61.7227,-43.2545 72.1595,-45.0775 71.0184,-38.1712"/>
</g>
<!-- Node3 -->
<g id="node3" class="node"><title>Node3</title>
<g id="a_node3"><a xlink:href="class_triggerable.html" target="_top" xlink:title="Triggerable">
<polygon fill="white" stroke="black" points="0,-0.5 0,-19.5 64,-19.5 64,-0.5 0,-0.5"/>
<text text-anchor="middle" x="32" y="-7.5" font-family="Helvetica,sans-Serif" font-size="10.00">Triggerable</text>
</a>
</g>
</g>
<!-- Node3&#45;&gt;Node2 -->
<g id="edge2" class="edge"><title>Node3&#45;&gt;Node2</title>
<path fill="none" stroke="midnightblue" d="M74.0577,-16.7834C82.4562,-18.171 91.3658,-19.643 99.9831,-21.0668"/>
<polygon fill="midnightblue" stroke="midnightblue" points="74.5575,-13.3186 64.1207,-15.1417 73.4163,-20.225 74.5575,-13.3186"/>
</g>
</g>
</svg>
