<?xml version="1.0" encoding="UTF-8" standalone="no"?>
<!DOCTYPE svg PUBLIC "-//W3C//DTD SVG 1.1//EN"
 "http://www.w3.org/Graphics/SVG/1.1/DTD/svg11.dtd">
<!-- Generated by graphviz version 2.36.0 (20140111.2315)
 -->
<!-- Title: Graphical Class Hierarchy Pages: 1 -->
<svg width="284pt" height="142pt"
 viewBox="0.00 0.00 284.00 142.00" xmlns="http://www.w3.org/2000/svg" xmlns:xlink="http://www.w3.org/1999/xlink">
<g id="graph0" class="graph" transform="scale(1 1) rotate(0) translate(4 138)">
<title>Graphical Class Hierarchy</title>
<polygon fill="white" stroke="none" points="-4,4 -4,-138 280,-138 280,4 -4,4"/>
<!-- Node1 -->
<g id="node1" class="node"><title>Node1</title>
<g id="a_node1"><a xlink:href="class_state.html" target="_top" xlink:title="State">
<polygon fill="white" stroke="black" points="0,-57.5 0,-76.5 40,-76.5 40,-57.5 0,-57.5"/>
<text text-anchor="middle" x="20" y="-64.5" font-family="Helvetica,sans-Serif" font-size="10.00">State</text>
</a>
</g>
</g>
<!-- Node2 -->
<g id="node2" class="node"><title>Node2</title>
<g id="a_node2"><a xlink:href="class_game_state.html" target="_top" xlink:title="GameState">
<polygon fill="white" stroke="black" points="76,-57.5 76,-76.5 142,-76.5 142,-57.5 76,-57.5"/>
<text text-anchor="middle" x="109" y="-64.5" font-family="Helvetica,sans-Serif" font-size="10.00">GameState</text>
</a>
</g>
</g>
<!-- Node1&#45;&gt;Node2 -->
<g id="edge1" class="edge"><title>Node1&#45;&gt;Node2</title>
<path fill="none" stroke="midnightblue" d="M50.4701,-67C58.6059,-67 67.4749,-67 75.7589,-67"/>
<polygon fill="midnightblue" stroke="midnightblue" points="50.3082,-63.5001 40.3081,-67 50.3081,-70.5001 50.3082,-63.5001"/>
</g>
<!-- Node3 -->
<g id="node3" class="node"><title>Node3</title>
<g id="a_node3"><a xlink:href="class_game.html" target="_top" xlink:title="Game">
<polygon fill="white" stroke="black" points="205.5,-114.5 205.5,-133.5 248.5,-133.5 248.5,-114.5 205.5,-114.5"/>
<text text-anchor="middle" x="227" y="-121.5" font-family="Helvetica,sans-Serif" font-size="10.00">Game</text>
</a>
</g>
</g>
<!-- Node2&#45;&gt;Node3 -->
<g id="edge2" class="edge"><title>Node2&#45;&gt;Node3</title>
<path fill="none" stroke="midnightblue" d="M134.293,-81.6088C147.083,-89.0342 163.155,-97.9524 178,-105 186.744,-109.151 196.653,-113.182 205.188,-116.454"/>
<polygon fill="midnightblue" stroke="midnightblue" points="136.019,-78.5635 125.624,-76.5139 132.472,-84.5984 136.019,-78.5635"/>
</g>
<!-- Node4 -->
<g id="node4" class="node"><title>Node4</title>
<g id="a_node4"><a xlink:href="class_game_play.html" target="_top" xlink:title="GamePlay">
<polygon fill="white" stroke="black" points="196,-76.5 196,-95.5 258,-95.5 258,-76.5 196,-76.5"/>
<text text-anchor="middle" x="227" y="-83.5" font-family="Helvetica,sans-Serif" font-size="10.00">GamePlay</text>
</a>
</g>
</g>
<!-- Node2&#45;&gt;Node4 -->
<g id="edge3" class="edge"><title>Node2&#45;&gt;Node4</title>
<path fill="none" stroke="midnightblue" d="M152.19,-73.9104C166.597,-76.2702 182.413,-78.8607 195.696,-81.0365"/>
<polygon fill="midnightblue" stroke="midnightblue" points="152.439,-70.4046 142.005,-72.2421 151.307,-77.3126 152.439,-70.4046"/>
</g>
<!-- Node5 -->
<g id="node5" class="node"><title>Node5</title>
<g id="a_node5"><a xlink:href="class_game_play_paused.html" target="_top" xlink:title="GamePlayPaused">
<polygon fill="white" stroke="black" points="179.5,-38.5 179.5,-57.5 274.5,-57.5 274.5,-38.5 179.5,-38.5"/>
<text text-anchor="middle" x="227" y="-45.5" font-family="Helvetica,sans-Serif" font-size="10.00">GamePlayPaused</text>
</a>
</g>
</g>
<!-- Node2&#45;&gt;Node5 -->
<g id="edge4" class="edge"><title>Node2&#45;&gt;Node5</title>
<path fill="none" stroke="midnightblue" d="M152.092,-60.1056C160.942,-58.6561 170.327,-57.1188 179.333,-55.6438"/>
<polygon fill="midnightblue" stroke="midnightblue" points="151.307,-56.6874 142.005,-61.7579 152.439,-63.5954 151.307,-56.6874"/>
</g>
<!-- Node6 -->
<g id="node6" class="node"><title>Node6</title>
<g id="a_node6"><a xlink:href="class_game_play_running.html" target="_top" xlink:title="GamePlayRunning">
<polygon fill="white" stroke="black" points="178,-0.5 178,-19.5 276,-19.5 276,-0.5 178,-0.5"/>
<text text-anchor="middle" x="227" y="-7.5" font-family="Helvetica,sans-Serif" font-size="10.00">GamePlayRunning</text>
</a>
</g>
</g>
<!-- Node2&#45;&gt;Node6 -->
<g id="edge5" class="edge"><title>Node2&#45;&gt;Node6</title>
<path fill="none" stroke="midnightblue" d="M134.293,-52.3912C147.083,-44.9658 163.155,-36.0476 178,-29 185.044,-25.6559 192.844,-22.3904 200.072,-19.5362"/>
<polygon fill="midnightblue" stroke="midnightblue" points="132.472,-49.4016 125.624,-57.4861 136.019,-55.4365 132.472,-49.4016"/>
</g>
</g>
</svg>
