<?xml version="1.0" encoding="UTF-8" standalone="no"?>
<!DOCTYPE svg PUBLIC "-//W3C//DTD SVG 1.1//EN"
 "http://www.w3.org/Graphics/SVG/1.1/DTD/svg11.dtd">
<!-- Generated by graphviz version 2.36.0 (20140111.2315)
 -->
<!-- Title: Graphical Class Hierarchy Pages: 1 -->
<svg width="246pt" height="306pt"
 viewBox="0.00 0.00 246.00 306.00" xmlns="http://www.w3.org/2000/svg" xmlns:xlink="http://www.w3.org/1999/xlink">
<g id="graph0" class="graph" transform="scale(1 1) rotate(0) translate(4 302)">
<title>Graphical Class Hierarchy</title>
<polygon fill="white" stroke="none" points="-4,4 -4,-302 242,-302 242,4 -4,4"/>
<!-- Node1 -->
<g id="node1" class="node"><title>Node1</title>
<g id="a_node1"><a xlink:href="class_abstract_shape.html" target="_top" xlink:title="AbstractShape">
<polygon fill="white" stroke="black" points="0.5,-145.5 0.5,-164.5 81.5,-164.5 81.5,-145.5 0.5,-145.5"/>
<text text-anchor="middle" x="41" y="-152.5" font-family="Helvetica,sans-Serif" font-size="10.00">AbstractShape</text>
</a>
</g>
</g>
<!-- Node2 -->
<g id="node2" class="node"><title>Node2</title>
<g id="a_node2"><a xlink:href="class_capsule.html" target="_top" xlink:title="Capsule">
<polygon fill="white" stroke="black" points="152,-278.5 152,-297.5 204,-297.5 204,-278.5 152,-278.5"/>
<text text-anchor="middle" x="178" y="-285.5" font-family="Helvetica,sans-Serif" font-size="10.00">Capsule</text>
</a>
</g>
</g>
<!-- Node1&#45;&gt;Node2 -->
<g id="edge1" class="edge"><title>Node1&#45;&gt;Node2</title>
<path fill="none" stroke="midnightblue" d="M49.7147,-173.762C61.0283,-199.008 84.4755,-243.664 118,-269 127.787,-276.397 140.557,-280.973 151.713,-283.775"/>
<polygon fill="midnightblue" stroke="midnightblue" points="52.9088,-172.33 45.7348,-164.533 46.4811,-175.102 52.9088,-172.33"/>
</g>
<!-- Node3 -->
<g id="node3" class="node"><title>Node3</title>
<g id="a_node3"><a xlink:href="class_line.html" target="_top" xlink:title="Line">
<polygon fill="white" stroke="black" points="160.5,-240.5 160.5,-259.5 195.5,-259.5 195.5,-240.5 160.5,-240.5"/>
<text text-anchor="middle" x="178" y="-247.5" font-family="Helvetica,sans-Serif" font-size="10.00">Line</text>
</a>
</g>
</g>
<!-- Node1&#45;&gt;Node3 -->
<g id="edge2" class="edge"><title>Node1&#45;&gt;Node3</title>
<path fill="none" stroke="midnightblue" d="M55.4972,-172.724C69.4261,-189.882 92.6442,-215.507 118,-231 131.131,-239.023 148.002,-244.012 160.337,-246.852"/>
<polygon fill="midnightblue" stroke="midnightblue" points="58.0428,-170.3 49.0979,-164.622 52.5496,-174.639 58.0428,-170.3"/>
</g>
<!-- Node4 -->
<g id="node4" class="node"><title>Node4</title>
<g id="a_node4"><a xlink:href="class_point.html" target="_top" xlink:title="Point">
<polygon fill="white" stroke="black" points="158.5,-202.5 158.5,-221.5 197.5,-221.5 197.5,-202.5 158.5,-202.5"/>
<text text-anchor="middle" x="178" y="-209.5" font-family="Helvetica,sans-Serif" font-size="10.00">Point</text>
</a>
</g>
</g>
<!-- Node1&#45;&gt;Node4 -->
<g id="edge3" class="edge"><title>Node1&#45;&gt;Node4</title>
<path fill="none" stroke="midnightblue" d="M68.0332,-169.25C82.5007,-176.853 100.971,-186.048 118,-193 131.251,-198.41 146.658,-203.327 158.404,-206.803"/>
<polygon fill="midnightblue" stroke="midnightblue" points="69.6308,-166.135 59.1594,-164.523 66.3396,-172.313 69.6308,-166.135"/>
</g>
<!-- Node5 -->
<g id="node5" class="node"><title>Node5</title>
<g id="a_node5"><a xlink:href="class_ray.html" target="_top" xlink:title="Ray">
<polygon fill="white" stroke="black" points="161,-164.5 161,-183.5 195,-183.5 195,-164.5 161,-164.5"/>
<text text-anchor="middle" x="178" y="-171.5" font-family="Helvetica,sans-Serif" font-size="10.00">Ray</text>
</a>
</g>
</g>
<!-- Node1&#45;&gt;Node5 -->
<g id="edge4" class="edge"><title>Node1&#45;&gt;Node5</title>
<path fill="none" stroke="midnightblue" d="M91.9723,-162.033C116.33,-165.461 143.959,-169.35 160.934,-171.739"/>
<polygon fill="midnightblue" stroke="midnightblue" points="92.1645,-158.526 81.7743,-160.598 91.1889,-165.457 92.1645,-158.526"/>
</g>
<!-- Node6 -->
<g id="node6" class="node"><title>Node6</title>
<g id="a_node6"><a xlink:href="class_sphere.html" target="_top" xlink:title="Sphere">
<polygon fill="white" stroke="black" points="154.5,-126.5 154.5,-145.5 201.5,-145.5 201.5,-126.5 154.5,-126.5"/>
<text text-anchor="middle" x="178" y="-133.5" font-family="Helvetica,sans-Serif" font-size="10.00">Sphere</text>
</a>
</g>
</g>
<!-- Node1&#45;&gt;Node6 -->
<g id="edge5" class="edge"><title>Node1&#45;&gt;Node6</title>
<path fill="none" stroke="midnightblue" d="M91.7421,-147.999C113.211,-144.978 137.259,-141.593 154.328,-139.191"/>
<polygon fill="midnightblue" stroke="midnightblue" points="91.1889,-144.543 81.7743,-149.402 92.1645,-151.474 91.1889,-144.543"/>
</g>
<!-- Node7 -->
<g id="node7" class="node"><title>Node7</title>
<g id="a_node7"><a xlink:href="class_t_a_a_b_b.html" target="_top" xlink:title="TAABB\&lt; T \&gt;">
<polygon fill="white" stroke="black" points="142,-88.5 142,-107.5 214,-107.5 214,-88.5 142,-88.5"/>
<text text-anchor="middle" x="178" y="-95.5" font-family="Helvetica,sans-Serif" font-size="10.00">TAABB&lt; T &gt;</text>
</a>
</g>
</g>
<!-- Node1&#45;&gt;Node7 -->
<g id="edge6" class="edge"><title>Node1&#45;&gt;Node7</title>
<path fill="none" stroke="midnightblue" d="M68.0332,-140.75C82.5007,-133.147 100.971,-123.952 118,-117 126.369,-113.583 135.598,-110.363 144.222,-107.579"/>
<polygon fill="midnightblue" stroke="midnightblue" points="66.3396,-137.687 59.1594,-145.477 69.6308,-143.865 66.3396,-137.687"/>
</g>
<!-- Node8 -->
<g id="node8" class="node"><title>Node8</title>
<g id="a_node8"><a xlink:href="class_t_a_a_b_b.html" target="_top" xlink:title="TAABB\&lt; glm::mediump\l_float \&gt;">
<polygon fill="white" stroke="black" points="118.5,-39 118.5,-69 237.5,-69 237.5,-39 118.5,-39"/>
<text text-anchor="start" x="126.5" y="-57" font-family="Helvetica,sans-Serif" font-size="10.00">TAABB&lt; glm::mediump</text>
<text text-anchor="middle" x="178" y="-46" font-family="Helvetica,sans-Serif" font-size="10.00">_float &gt;</text>
</a>
</g>
</g>
<!-- Node1&#45;&gt;Node8 -->
<g id="edge7" class="edge"><title>Node1&#45;&gt;Node8</title>
<path fill="none" stroke="midnightblue" d="M56.0322,-137.484C70.2178,-120.691 93.4923,-95.5194 118,-79 123.443,-75.3314 129.51,-72.0259 135.626,-69.111"/>
<polygon fill="midnightblue" stroke="midnightblue" points="53.1538,-135.473 49.4842,-145.412 58.5509,-139.93 53.1538,-135.473"/>
</g>
<!-- Node9 -->
<g id="node9" class="node"><title>Node9</title>
<g id="a_node9"><a xlink:href="class_t_a_a_b_b.html" target="_top" xlink:title="TAABB\&lt; int \&gt;">
<polygon fill="white" stroke="black" points="139.5,-0.5 139.5,-19.5 216.5,-19.5 216.5,-0.5 139.5,-0.5"/>
<text text-anchor="middle" x="178" y="-7.5" font-family="Helvetica,sans-Serif" font-size="10.00">TAABB&lt; int &gt;</text>
</a>
</g>
</g>
<!-- Node1&#45;&gt;Node9 -->
<g id="edge8" class="edge"><title>Node1&#45;&gt;Node9</title>
<path fill="none" stroke="midnightblue" d="M48.8255,-135.69C59.4494,-108.335 82.4848,-58.4663 118,-30 124.245,-24.9944 131.81,-21.2116 139.409,-18.3628"/>
<polygon fill="midnightblue" stroke="midnightblue" points="45.4601,-134.699 45.2508,-145.291 52.0202,-137.141 45.4601,-134.699"/>
</g>
</g>
</svg>
