<?xml version="1.0" encoding="UTF-8" standalone="no"?>
<!DOCTYPE svg PUBLIC "-//W3C//DTD SVG 1.1//EN"
 "http://www.w3.org/Graphics/SVG/1.1/DTD/svg11.dtd">
<!-- Generated by graphviz version 2.36.0 (20140111.2315)
 -->
<!-- Title: Graphical Class Hierarchy Pages: 1 -->
<svg width="286pt" height="28pt"
 viewBox="0.00 0.00 286.00 28.00" xmlns="http://www.w3.org/2000/svg" xmlns:xlink="http://www.w3.org/1999/xlink">
<g id="graph0" class="graph" transform="scale(1 1) rotate(0) translate(4 24)">
<title>Graphical Class Hierarchy</title>
<polygon fill="white" stroke="none" points="-4,4 -4,-24 282,-24 282,4 -4,4"/>
<!-- Node1 -->
<g id="node1" class="node"><title>Node1</title>
<g id="a_node1"><a xlink:href="class_script.html" target="_top" xlink:title="Script">
<polygon fill="white" stroke="black" points="0,-0.5 0,-19.5 42,-19.5 42,-0.5 0,-0.5"/>
<text text-anchor="middle" x="21" y="-7.5" font-family="Helvetica,sans-Serif" font-size="10.00">Script</text>
</a>
</g>
</g>
<!-- Node2 -->
<g id="node2" class="node"><title>Node2</title>
<g id="a_node2"><a xlink:href="class_game_play_script.html" target="_top" xlink:title="GamePlayScript">
<polygon fill="white" stroke="black" points="78,-0.5 78,-19.5 166,-19.5 166,-0.5 78,-0.5"/>
<text text-anchor="middle" x="122" y="-7.5" font-family="Helvetica,sans-Serif" font-size="10.00">GamePlayScript</text>
</a>
</g>
</g>
<!-- Node1&#45;&gt;Node2 -->
<g id="edge1" class="edge"><title>Node1&#45;&gt;Node2</title>
<path fill="none" stroke="midnightblue" d="M52.0859,-10C60.1598,-10 69.0524,-10 77.6897,-10"/>
<polygon fill="midnightblue" stroke="midnightblue" points="52.0342,-6.5001 42.0341,-10 52.0341,-13.5001 52.0342,-6.5001"/>
</g>
<!-- Node3 -->
<g id="node3" class="node"><title>Node3</title>
<g id="a_node3"><a xlink:href="class_mission_script.html" target="_top" xlink:title="MissionScript">
<polygon fill="white" stroke="black" points="202,-0.5 202,-19.5 278,-19.5 278,-0.5 202,-0.5"/>
<text text-anchor="middle" x="240" y="-7.5" font-family="Helvetica,sans-Serif" font-size="10.00">MissionScript</text>
</a>
</g>
</g>
<!-- Node2&#45;&gt;Node3 -->
<g id="edge2" class="edge"><title>Node2&#45;&gt;Node3</title>
<path fill="none" stroke="midnightblue" d="M176.244,-10C184.901,-10 193.7,-10 201.863,-10"/>
<polygon fill="midnightblue" stroke="midnightblue" points="176.194,-6.5001 166.194,-10 176.194,-13.5001 176.194,-6.5001"/>
</g>
</g>
</svg>
