<?xml version="1.0" encoding="UTF-8" standalone="no"?>
<!DOCTYPE svg PUBLIC "-//W3C//DTD SVG 1.1//EN"
 "http://www.w3.org/Graphics/SVG/1.1/DTD/svg11.dtd">
<!-- Generated by graphviz version 2.36.0 (20140111.2315)
 -->
<!-- Title: WorldObjectPair Pages: 1 -->
<svg width="484pt" height="365pt"
 viewBox="0.00 0.00 484.00 365.00" xmlns="http://www.w3.org/2000/svg" xmlns:xlink="http://www.w3.org/1999/xlink">
<g id="graph0" class="graph" transform="scale(1 1) rotate(0) translate(4 361)">
<title>WorldObjectPair</title>
<polygon fill="white" stroke="none" points="-4,4 -4,-361 480,-361 480,4 -4,4"/>
<!-- Node1 -->
<g id="node1" class="node"><title>Node1</title>
<polygon fill="#bfbfbf" stroke="black" points="388,-185.5 388,-204.5 476,-204.5 476,-185.5 388,-185.5"/>
<text text-anchor="middle" x="432" y="-192.5" font-family="Helvetica,sans-Serif" font-size="10.00">WorldObjectPair</text>
</g>
<!-- Node2 -->
<g id="node2" class="node"><title>Node2</title>
<g id="a_node2"><a xlink:href="class_world_object.html" target="_top" xlink:title="WorldObject">
<polygon fill="white" stroke="black" points="270.5,-185.5 270.5,-204.5 341.5,-204.5 341.5,-185.5 270.5,-185.5"/>
<text text-anchor="middle" x="306" y="-192.5" font-family="Helvetica,sans-Serif" font-size="10.00">WorldObject</text>
</a>
</g>
</g>
<!-- Node2&#45;&gt;Node1 -->
<g id="edge1" class="edge"><title>Node2&#45;&gt;Node1</title>
<path fill="none" stroke="#9a32cd" stroke-dasharray="5,2" d="M351.612,-195C363.394,-195 376.088,-195 387.794,-195"/>
<polygon fill="#9a32cd" stroke="#9a32cd" points="351.541,-191.5 341.541,-195 351.541,-198.5 351.541,-191.5"/>
<text text-anchor="middle" x="365" y="-209" font-family="Helvetica,sans-Serif" font-size="10.00"> a</text>
<text text-anchor="middle" x="365" y="-198" font-family="Helvetica,sans-Serif" font-size="10.00">b</text>
</g>
<!-- Node3 -->
<g id="node3" class="node"><title>Node3</title>
<g id="a_node3"><a xlink:href="class_voxel_cluster.html" target="_top" xlink:title="VoxelCluster">
<polygon fill="white" stroke="red" points="36,-337.5 36,-356.5 108,-356.5 108,-337.5 36,-337.5"/>
<text text-anchor="middle" x="72" y="-344.5" font-family="Helvetica,sans-Serif" font-size="10.00">VoxelCluster</text>
</a>
</g>
</g>
<!-- Node3&#45;&gt;Node2 -->
<g id="edge2" class="edge"><title>Node3&#45;&gt;Node2</title>
<path fill="none" stroke="midnightblue" d="M118.253,-347.552C157.556,-345.748 213.983,-337.388 252,-307 285.775,-280.003 299.185,-226.355 303.389,-204.549"/>
<polygon fill="midnightblue" stroke="midnightblue" points="118.03,-344.058 108.152,-347.89 118.263,-351.054 118.03,-344.058"/>
</g>
<!-- Node4 -->
<g id="node4" class="node"><title>Node4</title>
<g id="a_node4"><a xlink:href="class_scriptable.html" target="_top" xlink:title="Scriptable">
<polygon fill="white" stroke="black" points="42,-299.5 42,-318.5 102,-318.5 102,-299.5 42,-299.5"/>
<text text-anchor="middle" x="72" y="-306.5" font-family="Helvetica,sans-Serif" font-size="10.00">Scriptable</text>
</a>
</g>
</g>
<!-- Node4&#45;&gt;Node2 -->
<g id="edge3" class="edge"><title>Node4&#45;&gt;Node2</title>
<path fill="none" stroke="midnightblue" d="M112.621,-311.294C151.303,-311.604 210.273,-306.757 252,-279 279.566,-260.663 295.595,-222.582 301.887,-204.687"/>
<polygon fill="midnightblue" stroke="midnightblue" points="112.349,-307.788 102.28,-311.085 112.207,-314.786 112.349,-307.788"/>
</g>
<!-- Node5 -->
<g id="node5" class="node"><title>Node5</title>
<g id="a_node5"><a xlink:href="class_voxel.html" target="_top" xlink:title="Voxel">
<polygon fill="white" stroke="red" points="51.5,-261.5 51.5,-280.5 92.5,-280.5 92.5,-261.5 51.5,-261.5"/>
<text text-anchor="middle" x="72" y="-268.5" font-family="Helvetica,sans-Serif" font-size="10.00">Voxel</text>
</a>
</g>
</g>
<!-- Node5&#45;&gt;Node2 -->
<g id="edge4" class="edge"><title>Node5&#45;&gt;Node2</title>
<path fill="none" stroke="#9a32cd" stroke-dasharray="5,2" d="M102.542,-270.3C139.203,-268.425 202.88,-261.819 252,-239 269.787,-230.737 286.536,-215.003 296.277,-204.762"/>
<polygon fill="#9a32cd" stroke="#9a32cd" points="102.357,-266.805 92.5151,-270.728 102.655,-273.798 102.357,-266.805"/>
<text text-anchor="middle" x="207" y="-267" font-family="Helvetica,sans-Serif" font-size="10.00"> m_crucialVoxel</text>
</g>
<!-- Node6 -->
<g id="node6" class="node"><title>Node6</title>
<polygon fill="white" stroke="#bfbfbf" points="0.5,-223.5 0.5,-242.5 143.5,-242.5 143.5,-223.5 0.5,-223.5"/>
<text text-anchor="middle" x="72" y="-230.5" font-family="Helvetica,sans-Serif" font-size="10.00">std::unique_ptr&lt; ObjectInfo &gt;</text>
</g>
<!-- Node6&#45;&gt;Node2 -->
<g id="edge5" class="edge"><title>Node6&#45;&gt;Node2</title>
<path fill="none" stroke="#9a32cd" stroke-dasharray="5,2" d="M153.819,-225.187C184.706,-221.529 220.147,-216.517 252,-210 259.308,-208.505 267.082,-206.528 274.361,-204.503"/>
<polygon fill="#9a32cd" stroke="#9a32cd" points="153.063,-221.751 143.531,-226.375 153.867,-228.704 153.063,-221.751"/>
<text text-anchor="middle" x="207" y="-227" font-family="Helvetica,sans-Serif" font-size="10.00"> m_objectInfo</text>
</g>
<!-- Node7 -->
<g id="node7" class="node"><title>Node7</title>
<g id="a_node7"><a xlink:href="class_handle.html" target="_top" xlink:title="Handle\&lt; WorldObject \&gt;">
<polygon fill="white" stroke="black" points="12.5,-185.5 12.5,-204.5 131.5,-204.5 131.5,-185.5 12.5,-185.5"/>
<text text-anchor="middle" x="72" y="-192.5" font-family="Helvetica,sans-Serif" font-size="10.00">Handle&lt; WorldObject &gt;</text>
</a>
</g>
</g>
<!-- Node7&#45;&gt;Node2 -->
<g id="edge6" class="edge"><title>Node7&#45;&gt;Node2</title>
<path fill="none" stroke="#9a32cd" stroke-dasharray="5,2" d="M141.781,-195C184.068,-195 236.449,-195 270.283,-195"/>
<polygon fill="#9a32cd" stroke="#9a32cd" points="141.543,-191.5 131.543,-195 141.543,-198.5 141.543,-191.5"/>
<text text-anchor="middle" x="207" y="-198" font-family="Helvetica,sans-Serif" font-size="10.00"> m_handle</text>
</g>
<!-- Node8 -->
<g id="node8" class="node"><title>Node8</title>
<polygon fill="white" stroke="#bfbfbf" points="5,-147.5 5,-166.5 139,-166.5 139,-147.5 5,-147.5"/>
<text text-anchor="middle" x="72" y="-154.5" font-family="Helvetica,sans-Serif" font-size="10.00">std::unique_ptr&lt; Physics &gt;</text>
</g>
<!-- Node8&#45;&gt;Node2 -->
<g id="edge7" class="edge"><title>Node8&#45;&gt;Node2</title>
<path fill="none" stroke="#9a32cd" stroke-dasharray="5,2" d="M149.42,-164.298C181.308,-167.995 218.623,-173.172 252,-180 259.308,-181.495 267.082,-183.472 274.361,-185.497"/>
<polygon fill="#9a32cd" stroke="#9a32cd" points="149.6,-160.796 139.269,-163.15 148.813,-167.752 149.6,-160.796"/>
<text text-anchor="middle" x="207" y="-183" font-family="Helvetica,sans-Serif" font-size="10.00"> m_physics</text>
</g>
<!-- Node9 -->
<g id="node9" class="node"><title>Node9</title>
<polygon fill="white" stroke="#bfbfbf" points="8.5,-98 8.5,-128 135.5,-128 135.5,-98 8.5,-98"/>
<text text-anchor="start" x="16.5" y="-116" font-family="Helvetica,sans-Serif" font-size="10.00">std::unique_ptr&lt; Collision</text>
<text text-anchor="middle" x="72" y="-105" font-family="Helvetica,sans-Serif" font-size="10.00">Filter &gt;</text>
</g>
<!-- Node9&#45;&gt;Node2 -->
<g id="edge8" class="edge"><title>Node9&#45;&gt;Node2</title>
<path fill="none" stroke="#9a32cd" stroke-dasharray="5,2" d="M146.005,-121.026C179.5,-126.659 219.007,-136.141 252,-152 269.3,-160.316 285.929,-175.326 295.808,-185.229"/>
<polygon fill="#9a32cd" stroke="#9a32cd" points="146.243,-117.52 135.816,-119.398 145.139,-124.432 146.243,-117.52"/>
<text text-anchor="middle" x="207" y="-155" font-family="Helvetica,sans-Serif" font-size="10.00"> m_collisionFilter</text>
</g>
<!-- Node10 -->
<g id="node10" class="node"><title>Node10</title>
<polygon fill="white" stroke="#bfbfbf" points="8.5,-49 8.5,-79 135.5,-79 135.5,-49 8.5,-49"/>
<text text-anchor="start" x="16.5" y="-67" font-family="Helvetica,sans-Serif" font-size="10.00">std::unique_ptr&lt; Collision</text>
<text text-anchor="middle" x="72" y="-56" font-family="Helvetica,sans-Serif" font-size="10.00">Detector &gt;</text>
</g>
<!-- Node10&#45;&gt;Node2 -->
<g id="edge9" class="edge"><title>Node10&#45;&gt;Node2</title>
<path fill="none" stroke="#9a32cd" stroke-dasharray="5,2" d="M145.66,-70.0644C180.512,-75.9481 221.26,-87.4737 252,-110 278.933,-129.736 295.279,-167.681 301.769,-185.419"/>
<polygon fill="#9a32cd" stroke="#9a32cd" points="145.947,-66.5669 135.527,-68.4818 144.867,-73.4831 145.947,-66.5669"/>
<text text-anchor="middle" x="207" y="-113" font-family="Helvetica,sans-Serif" font-size="10.00"> m_collisionDetector</text>
</g>
<!-- Node11 -->
<g id="node11" class="node"><title>Node11</title>
<polygon fill="white" stroke="#bfbfbf" points="0,-0 0,-30 144,-30 144,-0 0,-0"/>
<text text-anchor="start" x="8" y="-18" font-family="Helvetica,sans-Serif" font-size="10.00">std::unique_ptr&lt; WorldObject</text>
<text text-anchor="middle" x="72" y="-7" font-family="Helvetica,sans-Serif" font-size="10.00">Components &gt;</text>
</g>
<!-- Node11&#45;&gt;Node2 -->
<g id="edge10" class="edge"><title>Node11&#45;&gt;Node2</title>
<path fill="none" stroke="#9a32cd" stroke-dasharray="5,2" d="M154.511,-18.809C188.088,-24.188 225.294,-35.5712 252,-59 291.242,-93.4255 301.647,-160.51 304.215,-185.402"/>
<polygon fill="#9a32cd" stroke="#9a32cd" points="154.62,-15.2886 144.223,-17.3257 153.621,-22.217 154.62,-15.2886"/>
<text text-anchor="middle" x="207" y="-62" font-family="Helvetica,sans-Serif" font-size="10.00"> m_components</text>
</g>
</g>
</svg>
